# Cadless export: model
v -46 -24.5 4
v -46 24.5 4
v -46 -24.5 0
v -46 24.5 0
v -46 -24.5 4
v -46 24.5 4
v -45.9928 -24.7944 4
v -45.9711 -25.0881 4
v -45.9351 -25.3804 4
v -45.8847 -25.6705 4
v -45.8202 -25.9579 4
v -45.7416 -26.2417 4
v -45.6493 -26.5213 4
v -45.5433 -26.7961 4
v -45.4239 -27.0653 4
v -45.2915 -27.3284 4
v -45.1464 -27.5846 4
v -44.9888 -27.8334 4
v -44.8192 -28.0742 4
v -44.6381 -28.3064 4
v -44.4457 -28.5294 4
v -44.2426 -28.7426 4
v -44.0294 -28.9457 4
v -43.8064 -29.1381 4
v -43.5742 -29.3192 4
v -43.3334 -29.4888 4
v -43.0846 -29.6464 4
v -42.8284 -29.7915 4
v -42.5653 -29.9239 4
v -42.2961 -30.0433 4
v -42.0213 -30.1493 4
v -41.7417 -30.2416 4
v -41.4579 -30.3202 4
v -41.1705 -30.3847 4
v -40.8804 -30.4351 4
v -40.5881 -30.4711 4
v -40.2944 -30.4928 4
v -40 -30.5 4
v 40 -30.5 4
v 46 -24.5 4
v 45.9928 -24.7944 4
v 45.9711 -25.0881 4
v 45.9351 -25.3804 4
v 45.8847 -25.6705 4
v 45.8202 -25.9579 4
v 45.7416 -26.2417 4
v 45.6493 -26.5213 4
v 45.5433 -26.7961 4
v 45.4239 -27.0653 4
v 45.2915 -27.3284 4
v 45.1464 -27.5846 4
v 44.9888 -27.8334 4
v 44.8192 -28.0742 4
v 44.6381 -28.3064 4
v 44.4457 -28.5294 4
v 44.2426 -28.7426 4
v 44.0294 -28.9457 4
v 43.8064 -29.1381 4
v 43.5742 -29.3192 4
v 43.3334 -29.4888 4
v 43.0846 -29.6464 4
v 42.8284 -29.7915 4
v 42.5653 -29.9239 4
v 42.2961 -30.0433 4
v 42.0213 -30.1493 4
v 41.7417 -30.2416 4
v 41.4579 -30.3202 4
v 41.1705 -30.3847 4
v 40.8804 -30.4351 4
v 40.5881 -30.4711 4
v 40.2944 -30.4928 4
v 46 24.5 4
v 45.9928 24.7944 4
v 45.9711 25.0881 4
v 45.9351 25.3804 4
v 45.8847 25.6705 4
v 45.8202 25.9579 4
v 45.7416 26.2417 4
v 45.6493 26.5213 4
v 45.5433 26.7961 4
v 45.4239 27.0653 4
v 45.2915 27.3284 4
v 45.1464 27.5846 4
v 44.9888 27.8334 4
v 44.8192 28.0742 4
v 44.6381 28.3064 4
v 44.4457 28.5294 4
v 44.2426 28.7426 4
v 44.0294 28.9457 4
v 43.8064 29.1381 4
v 43.5742 29.3192 4
v 43.3334 29.4888 4
v 43.0846 29.6464 4
v 42.8284 29.7915 4
v 42.5653 29.9239 4
v 42.2961 30.0433 4
v 42.0213 30.1493 4
v 41.7417 30.2416 4
v 41.4579 30.3202 4
v 41.1705 30.3847 4
v 40.8804 30.4351 4
v 40.5881 30.4711 4
v 40.2944 30.4928 4
v 40 30.5 4
v -40 30.5 4
v -45.9928 24.7944 4
v -45.9711 25.0881 4
v -45.9351 25.3804 4
v -45.8847 25.6705 4
v -45.8202 25.9579 4
v -45.7416 26.2417 4
v -45.6493 26.5213 4
v -45.5433 26.7961 4
v -45.4239 27.0653 4
v -45.2915 27.3284 4
v -45.1464 27.5846 4
v -44.9888 27.8334 4
v -44.8192 28.0742 4
v -44.6381 28.3064 4
v -44.4457 28.5294 4
v -44.2426 28.7426 4
v -44.0294 28.9457 4
v -43.8064 29.1381 4
v -43.5742 29.3192 4
v -43.3334 29.4888 4
v -43.0846 29.6464 4
v -42.8284 29.7915 4
v -42.5653 29.9239 4
v -42.2961 30.0433 4
v -42.0213 30.1493 4
v -41.7417 30.2416 4
v -41.4579 30.3202 4
v -41.1705 30.3847 4
v -40.8804 30.4351 4
v -40.5881 30.4711 4
v -40.2944 30.4928 4
v -25.5 -24.5 4
v -25.5044 -24.3255 4
v -25.5174 -24.1515 4
v -25.5391 -23.9784 4
v -25.5694 -23.8065 4
v -25.6082 -23.6363 4
v -25.6555 -23.4684 4
v -25.7111 -23.3029 4
v -25.7748 -23.1405 4
v -25.8466 -22.9814 4
v -25.9262 -22.8261 4
v -26.0135 -22.675 4
v -26.1082 -22.5284 4
v -26.21 -22.3867 4
v -26.3188 -22.2502 4
v -26.4343 -22.1194 4
v -26.5562 -21.9945 4
v -26.6841 -21.8758 4
v -26.8178 -21.7636 4
v -26.9569 -21.6582 4
v -27.1011 -21.5599 4
v -27.25 -21.4689 4
v -27.4033 -21.3854 4
v -27.5605 -21.3097 4
v -27.7213 -21.2419 4
v -27.8853 -21.1823 4
v -28.0521 -21.1308 4
v -28.2212 -21.0878 4
v -28.3922 -21.0532 4
v -28.5648 -21.0272 4
v -28.7384 -21.0098 4
v -28.9127 -21.0011 4
v -29.0873 -21.0011 4
v -29.2616 -21.0098 4
v -29.4352 -21.0272 4
v -29.6078 -21.0532 4
v -29.7788 -21.0878 4
v -29.9479 -21.1308 4
v -30.1147 -21.1823 4
v -30.2787 -21.2419 4
v -30.4395 -21.3097 4
v -30.5967 -21.3854 4
v -30.75 -21.4689 4
v -30.8989 -21.5599 4
v -31.0431 -21.6582 4
v -31.1822 -21.7636 4
v -31.3159 -21.8758 4
v -31.4438 -21.9945 4
v -31.5657 -22.1194 4
v -31.6812 -22.2502 4
v -31.79 -22.3867 4
v -31.8918 -22.5284 4
v -31.9865 -22.675 4
v -32.0738 -22.8261 4
v -32.1534 -22.9814 4
v -32.2252 -23.1405 4
v -32.2889 -23.3029 4
v -32.3445 -23.4684 4
v -32.3918 -23.6363 4
v -32.4306 -23.8065 4
v -32.4609 -23.9784 4
v -32.4826 -24.1515 4
v -32.4956 -24.3255 4
v -32.5 -24.5 4
v -32.4956 -24.6745 4
v -32.4826 -24.8485 4
v -32.4609 -25.0216 4
v -32.4306 -25.1935 4
v -32.3918 -25.3637 4
v -32.3445 -25.5316 4
v -32.2889 -25.6971 4
v -32.2252 -25.8595 4
v -32.1534 -26.0186 4
v -32.0738 -26.1739 4
v -31.9865 -26.325 4
v -31.8918 -26.4716 4
v -31.79 -26.6133 4
v -31.6812 -26.7498 4
v -31.5657 -26.8806 4
v -31.4438 -27.0055 4
v -31.3159 -27.1242 4
v -31.1822 -27.2364 4
v -31.0431 -27.3418 4
v -30.8989 -27.4401 4
v -30.75 -27.5311 4
v -30.5967 -27.6146 4
v -30.4395 -27.6903 4
v -30.2787 -27.7581 4
v -30.1147 -27.8177 4
v -29.9479 -27.8692 4
v -29.7788 -27.9122 4
v -29.6078 -27.9468 4
v -29.4352 -27.9728 4
v -29.2616 -27.9902 4
v -29.0873 -27.9989 4
v -28.9127 -27.9989 4
v -28.7384 -27.9902 4
v -28.5648 -27.9728 4
v -28.3922 -27.9468 4
v -28.2212 -27.9122 4
v -28.0521 -27.8692 4
v -27.8853 -27.8177 4
v -27.7213 -27.7581 4
v -27.5605 -27.6903 4
v -27.4033 -27.6146 4
v -27.25 -27.5311 4
v -27.1011 -27.4401 4
v -26.9569 -27.3418 4
v -26.8178 -27.2364 4
v -26.6841 -27.1242 4
v -26.5562 -27.0055 4
v -26.4343 -26.8806 4
v -26.3188 -26.7498 4
v -26.21 -26.6133 4
v -26.1082 -26.4716 4
v -26.0135 -26.325 4
v -25.9262 -26.1739 4
v -25.8466 -26.0186 4
v -25.7748 -25.8595 4
v -25.7111 -25.6971 4
v -25.6555 -25.5316 4
v -25.6082 -25.3637 4
v -25.5694 -25.1935 4
v -25.5391 -25.0216 4
v -25.5174 -24.8485 4
v -25.5044 -24.6745 4
v 32.5 -24.5 4
v 32.4956 -24.3255 4
v 32.4826 -24.1515 4
v 32.4609 -23.9784 4
v 32.4306 -23.8065 4
v 32.3918 -23.6363 4
v 32.3445 -23.4684 4
v 32.2889 -23.3029 4
v 32.2252 -23.1405 4
v 32.1534 -22.9814 4
v 32.0738 -22.8261 4
v 31.9865 -22.675 4
v 31.8918 -22.5284 4
v 31.79 -22.3867 4
v 31.6812 -22.2502 4
v 31.5657 -22.1194 4
v 31.4438 -21.9945 4
v 31.3159 -21.8758 4
v 31.1822 -21.7636 4
v 31.0431 -21.6582 4
v 30.8989 -21.5599 4
v 30.75 -21.4689 4
v 30.5967 -21.3854 4
v 30.4395 -21.3097 4
v 30.2787 -21.2419 4
v 30.1147 -21.1823 4
v 29.9479 -21.1308 4
v 29.7788 -21.0878 4
v 29.6078 -21.0532 4
v 29.4352 -21.0272 4
v 29.2616 -21.0098 4
v 29.0873 -21.0011 4
v 28.9127 -21.0011 4
v 28.7384 -21.0098 4
v 28.5648 -21.0272 4
v 28.3922 -21.0532 4
v 28.2212 -21.0878 4
v 28.0521 -21.1308 4
v 27.8853 -21.1823 4
v 27.7213 -21.2419 4
v 27.5605 -21.3097 4
v 27.4033 -21.3854 4
v 27.25 -21.4689 4
v 27.1011 -21.5599 4
v 26.9569 -21.6582 4
v 26.8178 -21.7636 4
v 26.6841 -21.8758 4
v 26.5562 -21.9945 4
v 26.4343 -22.1194 4
v 26.3188 -22.2502 4
v 26.21 -22.3867 4
v 26.1082 -22.5284 4
v 26.0135 -22.675 4
v 25.9262 -22.8261 4
v 25.8466 -22.9814 4
v 25.7748 -23.1405 4
v 25.7111 -23.3029 4
v 25.6555 -23.4684 4
v 25.6082 -23.6363 4
v 25.5694 -23.8065 4
v 25.5391 -23.9784 4
v 25.5174 -24.1515 4
v 25.5044 -24.3255 4
v 25.5 -24.5 4
v 25.5044 -24.6745 4
v 25.5174 -24.8485 4
v 25.5391 -25.0216 4
v 25.5694 -25.1935 4
v 25.6082 -25.3637 4
v 25.6555 -25.5316 4
v 25.7111 -25.6971 4
v 25.7748 -25.8595 4
v 25.8466 -26.0186 4
v 25.9262 -26.1739 4
v 26.0135 -26.325 4
v 26.1082 -26.4716 4
v 26.21 -26.6133 4
v 26.3188 -26.7498 4
v 26.4343 -26.8806 4
v 26.5562 -27.0055 4
v 26.6841 -27.1242 4
v 26.8178 -27.2364 4
v 26.9569 -27.3418 4
v 27.1011 -27.4401 4
v 27.25 -27.5311 4
v 27.4033 -27.6146 4
v 27.5605 -27.6903 4
v 27.7213 -27.7581 4
v 27.8853 -27.8177 4
v 28.0521 -27.8692 4
v 28.2212 -27.9122 4
v 28.3922 -27.9468 4
v 28.5648 -27.9728 4
v 28.7384 -27.9902 4
v 28.9127 -27.9989 4
v 29.0873 -27.9989 4
v 29.2616 -27.9902 4
v 29.4352 -27.9728 4
v 29.6078 -27.9468 4
v 29.7788 -27.9122 4
v 29.9479 -27.8692 4
v 30.1147 -27.8177 4
v 30.2787 -27.7581 4
v 30.4395 -27.6903 4
v 30.5967 -27.6146 4
v 30.75 -27.5311 4
v 30.8989 -27.4401 4
v 31.0431 -27.3418 4
v 31.1822 -27.2364 4
v 31.3159 -27.1242 4
v 31.4438 -27.0055 4
v 31.5657 -26.8806 4
v 31.6812 -26.7498 4
v 31.79 -26.6133 4
v 31.8918 -26.4716 4
v 31.9865 -26.325 4
v 32.0738 -26.1739 4
v 32.1534 -26.0186 4
v 32.2252 -25.8595 4
v 32.2889 -25.6971 4
v 32.3445 -25.5316 4
v 32.3918 -25.3637 4
v 32.4306 -25.1935 4
v 32.4609 -25.0216 4
v 32.4826 -24.8485 4
v 32.4956 -24.6745 4
v -25.5 24.5 4
v -25.5044 24.6745 4
v -25.5174 24.8485 4
v -25.5391 25.0216 4
v -25.5694 25.1935 4
v -25.6082 25.3637 4
v -25.6555 25.5316 4
v -25.7111 25.6971 4
v -25.7748 25.8595 4
v -25.8466 26.0186 4
v -25.9262 26.1739 4
v -26.0135 26.325 4
v -26.1082 26.4716 4
v -26.21 26.6133 4
v -26.3188 26.7498 4
v -26.4343 26.8806 4
v -26.5562 27.0055 4
v -26.6841 27.1242 4
v -26.8178 27.2364 4
v -26.9569 27.3418 4
v -27.1011 27.4401 4
v -27.25 27.5311 4
v -27.4033 27.6146 4
v -27.5605 27.6903 4
v -27.7213 27.7581 4
v -27.8853 27.8177 4
v -28.0521 27.8692 4
v -28.2212 27.9122 4
v -28.3922 27.9468 4
v -28.5648 27.9728 4
v -28.7384 27.9902 4
v -28.9127 27.9989 4
v -29.0873 27.9989 4
v -29.2616 27.9902 4
v -29.4352 27.9728 4
v -29.6078 27.9468 4
v -29.7788 27.9122 4
v -29.9479 27.8692 4
v -30.1147 27.8177 4
v -30.2787 27.7581 4
v -30.4395 27.6903 4
v -30.5967 27.6146 4
v -30.75 27.5311 4
v -30.8989 27.4401 4
v -31.0431 27.3418 4
v -31.1822 27.2364 4
v -31.3159 27.1242 4
v -31.4438 27.0055 4
v -31.5657 26.8806 4
v -31.6812 26.7498 4
v -31.79 26.6133 4
v -31.8918 26.4716 4
v -31.9865 26.325 4
v -32.0738 26.1739 4
v -32.1534 26.0186 4
v -32.2252 25.8595 4
v -32.2889 25.6971 4
v -32.3445 25.5316 4
v -32.3918 25.3637 4
v -32.4306 25.1935 4
v -32.4609 25.0216 4
v -32.4826 24.8485 4
v -32.4956 24.6745 4
v -32.5 24.5 4
v -32.4956 24.3255 4
v -32.4826 24.1515 4
v -32.4609 23.9784 4
v -32.4306 23.8065 4
v -32.3918 23.6363 4
v -32.3445 23.4684 4
v -32.2889 23.3029 4
v -32.2252 23.1405 4
v -32.1534 22.9814 4
v -32.0738 22.8261 4
v -31.9865 22.675 4
v -31.8918 22.5284 4
v -31.79 22.3867 4
v -31.6812 22.2502 4
v -31.5657 22.1194 4
v -31.4438 21.9945 4
v -31.3159 21.8758 4
v -31.1822 21.7636 4
v -31.0431 21.6582 4
v -30.8989 21.5599 4
v -30.75 21.4689 4
v -30.5967 21.3854 4
v -30.4395 21.3097 4
v -30.2787 21.2419 4
v -30.1147 21.1823 4
v -29.9479 21.1308 4
v -29.7788 21.0878 4
v -29.6078 21.0532 4
v -29.4352 21.0272 4
v -29.2616 21.0098 4
v -29.0873 21.0011 4
v -28.9127 21.0011 4
v -28.7384 21.0098 4
v -28.5648 21.0272 4
v -28.3922 21.0532 4
v -28.2212 21.0878 4
v -28.0521 21.1308 4
v -27.8853 21.1823 4
v -27.7213 21.2419 4
v -27.5605 21.3097 4
v -27.4033 21.3854 4
v -27.25 21.4689 4
v -27.1011 21.5599 4
v -26.9569 21.6582 4
v -26.8178 21.7636 4
v -26.6841 21.8758 4
v -26.5562 21.9945 4
v -26.4343 22.1194 4
v -26.3188 22.2502 4
v -26.21 22.3867 4
v -26.1082 22.5284 4
v -26.0135 22.675 4
v -25.9262 22.8261 4
v -25.8466 22.9814 4
v -25.7748 23.1405 4
v -25.7111 23.3029 4
v -25.6555 23.4684 4
v -25.6082 23.6363 4
v -25.5694 23.8065 4
v -25.5391 23.9784 4
v -25.5174 24.1515 4
v -25.5044 24.3255 4
v 32.5 24.5 4
v 32.4956 24.6745 4
v 32.4826 24.8485 4
v 32.4609 25.0216 4
v 32.4306 25.1935 4
v 32.3918 25.3637 4
v 32.3445 25.5316 4
v 32.2889 25.6971 4
v 32.2252 25.8595 4
v 32.1534 26.0186 4
v 32.0738 26.1739 4
v 31.9865 26.325 4
v 31.8918 26.4716 4
v 31.79 26.6133 4
v 31.6812 26.7498 4
v 31.5657 26.8806 4
v 31.4438 27.0055 4
v 31.3159 27.1242 4
v 31.1822 27.2364 4
v 31.0431 27.3418 4
v 30.8989 27.4401 4
v 30.75 27.5311 4
v 30.5967 27.6146 4
v 30.4395 27.6903 4
v 30.2787 27.7581 4
v 30.1147 27.8177 4
v 29.9479 27.8692 4
v 29.7788 27.9122 4
v 29.6078 27.9468 4
v 29.4352 27.9728 4
v 29.2616 27.9902 4
v 29.0873 27.9989 4
v 28.9127 27.9989 4
v 28.7384 27.9902 4
v 28.5648 27.9728 4
v 28.3922 27.9468 4
v 28.2212 27.9122 4
v 28.0521 27.8692 4
v 27.8853 27.8177 4
v 27.7213 27.7581 4
v 27.5605 27.6903 4
v 27.4033 27.6146 4
v 27.25 27.5311 4
v 27.1011 27.4401 4
v 26.9569 27.3418 4
v 26.8178 27.2364 4
v 26.6841 27.1242 4
v 26.5562 27.0055 4
v 26.4343 26.8806 4
v 26.3188 26.7498 4
v 26.21 26.6133 4
v 26.1082 26.4716 4
v 26.0135 26.325 4
v 25.9262 26.1739 4
v 25.8466 26.0186 4
v 25.7748 25.8595 4
v 25.7111 25.6971 4
v 25.6555 25.5316 4
v 25.6082 25.3637 4
v 25.5694 25.1935 4
v 25.5391 25.0216 4
v 25.5174 24.8485 4
v 25.5044 24.6745 4
v 25.5 24.5 4
v 25.5044 24.3255 4
v 25.5174 24.1515 4
v 25.5391 23.9784 4
v 25.5694 23.8065 4
v 25.6082 23.6363 4
v 25.6555 23.4684 4
v 25.7111 23.3029 4
v 25.7748 23.1405 4
v 25.8466 22.9814 4
v 25.9262 22.8261 4
v 26.0135 22.675 4
v 26.1082 22.5284 4
v 26.21 22.3867 4
v 26.3188 22.2502 4
v 26.4343 22.1194 4
v 26.5562 21.9945 4
v 26.6841 21.8758 4
v 26.8178 21.7636 4
v 26.9569 21.6582 4
v 27.1011 21.5599 4
v 27.25 21.4689 4
v 27.4033 21.3854 4
v 27.5605 21.3097 4
v 27.7213 21.2419 4
v 27.8853 21.1823 4
v 28.0521 21.1308 4
v 28.2212 21.0878 4
v 28.3922 21.0532 4
v 28.5648 21.0272 4
v 28.7384 21.0098 4
v 28.9127 21.0011 4
v 29.0873 21.0011 4
v 29.2616 21.0098 4
v 29.4352 21.0272 4
v 29.6078 21.0532 4
v 29.7788 21.0878 4
v 29.9479 21.1308 4
v 30.1147 21.1823 4
v 30.2787 21.2419 4
v 30.4395 21.3097 4
v 30.5967 21.3854 4
v 30.75 21.4689 4
v 30.8989 21.5599 4
v 31.0431 21.6582 4
v 31.1822 21.7636 4
v 31.3159 21.8758 4
v 31.4438 21.9945 4
v 31.5657 22.1194 4
v 31.6812 22.2502 4
v 31.79 22.3867 4
v 31.8918 22.5284 4
v 31.9865 22.675 4
v 32.0738 22.8261 4
v 32.1534 22.9814 4
v 32.2252 23.1405 4
v 32.2889 23.3029 4
v 32.3445 23.4684 4
v 32.3918 23.6363 4
v 32.4306 23.8065 4
v 32.4609 23.9784 4
v 32.4826 24.1515 4
v 32.4956 24.3255 4
v -46 -24.5 0
v -45.9928 -24.7944 0
v -45.9711 -25.0881 0
v -45.9351 -25.3804 0
v -45.8847 -25.6705 0
v -45.8202 -25.9579 0
v -45.7416 -26.2417 0
v -45.6493 -26.5213 0
v -45.5433 -26.7961 0
v -45.4239 -27.0653 0
v -45.2915 -27.3284 0
v -45.1464 -27.5846 0
v -44.9888 -27.8334 0
v -44.8192 -28.0742 0
v -44.6381 -28.3064 0
v -44.4457 -28.5294 0
v -44.2426 -28.7426 0
v -44.0294 -28.9457 0
v -43.8064 -29.1381 0
v -43.5742 -29.3192 0
v -43.3334 -29.4888 0
v -43.0846 -29.6464 0
v -42.8284 -29.7915 0
v -42.5653 -29.9239 0
v -42.2961 -30.0433 0
v -42.0213 -30.1493 0
v -41.7417 -30.2416 0
v -41.4579 -30.3202 0
v -41.1705 -30.3847 0
v -40.8804 -30.4351 0
v -40.5881 -30.4711 0
v -40.2944 -30.4928 0
v -40 -30.5 0
v -40 -30.5 4
v -46 -24.5 4
v -45.9928 -24.7944 4
v -45.9711 -25.0881 4
v -45.9351 -25.3804 4
v -45.8847 -25.6705 4
v -45.8202 -25.9579 4
v -45.7416 -26.2417 4
v -45.6493 -26.5213 4
v -45.5433 -26.7961 4
v -45.4239 -27.0653 4
v -45.2915 -27.3284 4
v -45.1464 -27.5846 4
v -44.9888 -27.8334 4
v -44.8192 -28.0742 4
v -44.6381 -28.3064 4
v -44.4457 -28.5294 4
v -44.2426 -28.7426 4
v -44.0294 -28.9457 4
v -43.8064 -29.1381 4
v -43.5742 -29.3192 4
v -43.3334 -29.4888 4
v -43.0846 -29.6464 4
v -42.8284 -29.7915 4
v -42.5653 -29.9239 4
v -42.2961 -30.0433 4
v -42.0213 -30.1493 4
v -41.7417 -30.2416 4
v -41.4579 -30.3202 4
v -41.1705 -30.3847 4
v -40.8804 -30.4351 4
v -40.5881 -30.4711 4
v -40.2944 -30.4928 4
v -46 24.5 0
v -45.9928 24.7944 0
v -45.9711 25.0881 0
v -45.9351 25.3804 0
v -45.8847 25.6705 0
v -45.8202 25.9579 0
v -45.7416 26.2417 0
v -45.6493 26.5213 0
v -45.5433 26.7961 0
v -45.4239 27.0653 0
v -45.2915 27.3284 0
v -45.1464 27.5846 0
v -44.9888 27.8334 0
v -44.8192 28.0742 0
v -44.6381 28.3064 0
v -44.4457 28.5294 0
v -44.2426 28.7426 0
v -44.0294 28.9457 0
v -43.8064 29.1381 0
v -43.5742 29.3192 0
v -43.3334 29.4888 0
v -43.0846 29.6464 0
v -42.8284 29.7915 0
v -42.5653 29.9239 0
v -42.2961 30.0433 0
v -42.0213 30.1493 0
v -41.7417 30.2416 0
v -41.4579 30.3202 0
v -41.1705 30.3847 0
v -40.8804 30.4351 0
v -40.5881 30.4711 0
v -40.2944 30.4928 0
v -40 30.5 0
v -40 30.5 4
v -46 24.5 4
v -45.9928 24.7944 4
v -45.9711 25.0881 4
v -45.9351 25.3804 4
v -45.8847 25.6705 4
v -45.8202 25.9579 4
v -45.7416 26.2417 4
v -45.6493 26.5213 4
v -45.5433 26.7961 4
v -45.4239 27.0653 4
v -45.2915 27.3284 4
v -45.1464 27.5846 4
v -44.9888 27.8334 4
v -44.8192 28.0742 4
v -44.6381 28.3064 4
v -44.4457 28.5294 4
v -44.2426 28.7426 4
v -44.0294 28.9457 4
v -43.8064 29.1381 4
v -43.5742 29.3192 4
v -43.3334 29.4888 4
v -43.0846 29.6464 4
v -42.8284 29.7915 4
v -42.5653 29.9239 4
v -42.2961 30.0433 4
v -42.0213 30.1493 4
v -41.7417 30.2416 4
v -41.4579 30.3202 4
v -41.1705 30.3847 4
v -40.8804 30.4351 4
v -40.5881 30.4711 4
v -40.2944 30.4928 4
v -46 -24.5 0
v -46 24.5 0
v -45.9928 -24.7944 0
v -45.9711 -25.0881 0
v -45.9351 -25.3804 0
v -45.8847 -25.6705 0
v -45.8202 -25.9579 0
v -45.7416 -26.2417 0
v -45.6493 -26.5213 0
v -45.5433 -26.7961 0
v -45.4239 -27.0653 0
v -45.2915 -27.3284 0
v -45.1464 -27.5846 0
v -44.9888 -27.8334 0
v -44.8192 -28.0742 0
v -44.6381 -28.3064 0
v -44.4457 -28.5294 0
v -44.2426 -28.7426 0
v -44.0294 -28.9457 0
v -43.8064 -29.1381 0
v -43.5742 -29.3192 0
v -43.3334 -29.4888 0
v -43.0846 -29.6464 0
v -42.8284 -29.7915 0
v -42.5653 -29.9239 0
v -42.2961 -30.0433 0
v -42.0213 -30.1493 0
v -41.7417 -30.2416 0
v -41.4579 -30.3202 0
v -41.1705 -30.3847 0
v -40.8804 -30.4351 0
v -40.5881 -30.4711 0
v -40.2944 -30.4928 0
v -40 -30.5 0
v 40 -30.5 0
v 46 -24.5 0
v 45.9928 -24.7944 0
v 45.9711 -25.0881 0
v 45.9351 -25.3804 0
v 45.8847 -25.6705 0
v 45.8202 -25.9579 0
v 45.7416 -26.2417 0
v 45.6493 -26.5213 0
v 45.5433 -26.7961 0
v 45.4239 -27.0653 0
v 45.2915 -27.3284 0
v 45.1464 -27.5846 0
v 44.9888 -27.8334 0
v 44.8192 -28.0742 0
v 44.6381 -28.3064 0
v 44.4457 -28.5294 0
v 44.2426 -28.7426 0
v 44.0294 -28.9457 0
v 43.8064 -29.1381 0
v 43.5742 -29.3192 0
v 43.3334 -29.4888 0
v 43.0846 -29.6464 0
v 42.8284 -29.7915 0
v 42.5653 -29.9239 0
v 42.2961 -30.0433 0
v 42.0213 -30.1493 0
v 41.7417 -30.2416 0
v 41.4579 -30.3202 0
v 41.1705 -30.3847 0
v 40.8804 -30.4351 0
v 40.5881 -30.4711 0
v 40.2944 -30.4928 0
v 46 24.5 0
v 45.9928 24.7944 0
v 45.9711 25.0881 0
v 45.9351 25.3804 0
v 45.8847 25.6705 0
v 45.8202 25.9579 0
v 45.7416 26.2417 0
v 45.6493 26.5213 0
v 45.5433 26.7961 0
v 45.4239 27.0653 0
v 45.2915 27.3284 0
v 45.1464 27.5846 0
v 44.9888 27.8334 0
v 44.8192 28.0742 0
v 44.6381 28.3064 0
v 44.4457 28.5294 0
v 44.2426 28.7426 0
v 44.0294 28.9457 0
v 43.8064 29.1381 0
v 43.5742 29.3192 0
v 43.3334 29.4888 0
v 43.0846 29.6464 0
v 42.8284 29.7915 0
v 42.5653 29.9239 0
v 42.2961 30.0433 0
v 42.0213 30.1493 0
v 41.7417 30.2416 0
v 41.4579 30.3202 0
v 41.1705 30.3847 0
v 40.8804 30.4351 0
v 40.5881 30.4711 0
v 40.2944 30.4928 0
v 40 30.5 0
v -40 30.5 0
v -45.9928 24.7944 0
v -45.9711 25.0881 0
v -45.9351 25.3804 0
v -45.8847 25.6705 0
v -45.8202 25.9579 0
v -45.7416 26.2417 0
v -45.6493 26.5213 0
v -45.5433 26.7961 0
v -45.4239 27.0653 0
v -45.2915 27.3284 0
v -45.1464 27.5846 0
v -44.9888 27.8334 0
v -44.8192 28.0742 0
v -44.6381 28.3064 0
v -44.4457 28.5294 0
v -44.2426 28.7426 0
v -44.0294 28.9457 0
v -43.8064 29.1381 0
v -43.5742 29.3192 0
v -43.3334 29.4888 0
v -43.0846 29.6464 0
v -42.8284 29.7915 0
v -42.5653 29.9239 0
v -42.2961 30.0433 0
v -42.0213 30.1493 0
v -41.7417 30.2416 0
v -41.4579 30.3202 0
v -41.1705 30.3847 0
v -40.8804 30.4351 0
v -40.5881 30.4711 0
v -40.2944 30.4928 0
v -40 -30.5 0
v 40 -30.5 0
v -40 -30.5 4
v 40 -30.5 4
v -40 30.5 0
v 40 30.5 0
v -40 30.5 4
v 40 30.5 4
v 46 -24.5 0
v 45.9928 -24.7944 0
v 45.9711 -25.0881 0
v 45.9351 -25.3804 0
v 45.8847 -25.6705 0
v 45.8202 -25.9579 0
v 45.7416 -26.2417 0
v 45.6493 -26.5213 0
v 45.5433 -26.7961 0
v 45.4239 -27.0653 0
v 45.2915 -27.3284 0
v 45.1464 -27.5846 0
v 44.9888 -27.8334 0
v 44.8192 -28.0742 0
v 44.6381 -28.3064 0
v 44.4457 -28.5294 0
v 44.2426 -28.7426 0
v 44.0294 -28.9457 0
v 43.8064 -29.1381 0
v 43.5742 -29.3192 0
v 43.3334 -29.4888 0
v 43.0846 -29.6464 0
v 42.8284 -29.7915 0
v 42.5653 -29.9239 0
v 42.2961 -30.0433 0
v 42.0213 -30.1493 0
v 41.7417 -30.2416 0
v 41.4579 -30.3202 0
v 41.1705 -30.3847 0
v 40.8804 -30.4351 0
v 40.5881 -30.4711 0
v 40.2944 -30.4928 0
v 40 -30.5 0
v 40 -30.5 4
v 46 -24.5 4
v 45.9928 -24.7944 4
v 45.9711 -25.0881 4
v 45.9351 -25.3804 4
v 45.8847 -25.6705 4
v 45.8202 -25.9579 4
v 45.7416 -26.2417 4
v 45.6493 -26.5213 4
v 45.5433 -26.7961 4
v 45.4239 -27.0653 4
v 45.2915 -27.3284 4
v 45.1464 -27.5846 4
v 44.9888 -27.8334 4
v 44.8192 -28.0742 4
v 44.6381 -28.3064 4
v 44.4457 -28.5294 4
v 44.2426 -28.7426 4
v 44.0294 -28.9457 4
v 43.8064 -29.1381 4
v 43.5742 -29.3192 4
v 43.3334 -29.4888 4
v 43.0846 -29.6464 4
v 42.8284 -29.7915 4
v 42.5653 -29.9239 4
v 42.2961 -30.0433 4
v 42.0213 -30.1493 4
v 41.7417 -30.2416 4
v 41.4579 -30.3202 4
v 41.1705 -30.3847 4
v 40.8804 -30.4351 4
v 40.5881 -30.4711 4
v 40.2944 -30.4928 4
v 46 24.5 0
v 45.9928 24.7944 0
v 45.9711 25.0881 0
v 45.9351 25.3804 0
v 45.8847 25.6705 0
v 45.8202 25.9579 0
v 45.7416 26.2417 0
v 45.6493 26.5213 0
v 45.5433 26.7961 0
v 45.4239 27.0653 0
v 45.2915 27.3284 0
v 45.1464 27.5846 0
v 44.9888 27.8334 0
v 44.8192 28.0742 0
v 44.6381 28.3064 0
v 44.4457 28.5294 0
v 44.2426 28.7426 0
v 44.0294 28.9457 0
v 43.8064 29.1381 0
v 43.5742 29.3192 0
v 43.3334 29.4888 0
v 43.0846 29.6464 0
v 42.8284 29.7915 0
v 42.5653 29.9239 0
v 42.2961 30.0433 0
v 42.0213 30.1493 0
v 41.7417 30.2416 0
v 41.4579 30.3202 0
v 41.1705 30.3847 0
v 40.8804 30.4351 0
v 40.5881 30.4711 0
v 40.2944 30.4928 0
v 40 30.5 0
v 40 30.5 4
v 46 24.5 4
v 45.9928 24.7944 4
v 45.9711 25.0881 4
v 45.9351 25.3804 4
v 45.8847 25.6705 4
v 45.8202 25.9579 4
v 45.7416 26.2417 4
v 45.6493 26.5213 4
v 45.5433 26.7961 4
v 45.4239 27.0653 4
v 45.2915 27.3284 4
v 45.1464 27.5846 4
v 44.9888 27.8334 4
v 44.8192 28.0742 4
v 44.6381 28.3064 4
v 44.4457 28.5294 4
v 44.2426 28.7426 4
v 44.0294 28.9457 4
v 43.8064 29.1381 4
v 43.5742 29.3192 4
v 43.3334 29.4888 4
v 43.0846 29.6464 4
v 42.8284 29.7915 4
v 42.5653 29.9239 4
v 42.2961 30.0433 4
v 42.0213 30.1493 4
v 41.7417 30.2416 4
v 41.4579 30.3202 4
v 41.1705 30.3847 4
v 40.8804 30.4351 4
v 40.5881 30.4711 4
v 40.2944 30.4928 4
v 46 -24.5 4
v 46 24.5 4
v 46 -24.5 0
v 46 24.5 0
v -25.5 -24.5 9
v -25.5044 -24.3255 9
v -25.5174 -24.1515 9
v -25.5391 -23.9784 9
v -25.5694 -23.8065 9
v -25.6082 -23.6363 9
v -25.6555 -23.4684 9
v -25.7111 -23.3029 9
v -25.7748 -23.1405 9
v -25.8466 -22.9814 9
v -25.9262 -22.8261 9
v -26.0135 -22.675 9
v -26.1082 -22.5284 9
v -26.21 -22.3867 9
v -26.3188 -22.2502 9
v -26.4343 -22.1194 9
v -26.5562 -21.9945 9
v -26.6841 -21.8758 9
v -26.8178 -21.7636 9
v -26.9569 -21.6582 9
v -27.1011 -21.5599 9
v -27.25 -21.4689 9
v -27.4033 -21.3854 9
v -27.5605 -21.3097 9
v -27.7213 -21.2419 9
v -27.8853 -21.1823 9
v -28.0521 -21.1308 9
v -28.2212 -21.0878 9
v -28.3922 -21.0532 9
v -28.5648 -21.0272 9
v -28.7384 -21.0098 9
v -28.9127 -21.0011 9
v -29.0873 -21.0011 9
v -29.2616 -21.0098 9
v -29.4352 -21.0272 9
v -29.6078 -21.0532 9
v -29.7788 -21.0878 9
v -29.9479 -21.1308 9
v -30.1147 -21.1823 9
v -30.2787 -21.2419 9
v -30.4395 -21.3097 9
v -30.5967 -21.3854 9
v -30.75 -21.4689 9
v -30.8989 -21.5599 9
v -31.0431 -21.6582 9
v -31.1822 -21.7636 9
v -31.3159 -21.8758 9
v -31.4438 -21.9945 9
v -31.5657 -22.1194 9
v -31.6812 -22.2502 9
v -31.79 -22.3867 9
v -31.8918 -22.5284 9
v -31.9865 -22.675 9
v -32.0738 -22.8261 9
v -32.1534 -22.9814 9
v -32.2252 -23.1405 9
v -32.2889 -23.3029 9
v -32.3445 -23.4684 9
v -32.3918 -23.6363 9
v -32.4306 -23.8065 9
v -32.4609 -23.9784 9
v -32.4826 -24.1515 9
v -32.4956 -24.3255 9
v -32.5 -24.5 9
v -32.4956 -24.6745 9
v -32.4826 -24.8485 9
v -32.4609 -25.0216 9
v -32.4306 -25.1935 9
v -32.3918 -25.3637 9
v -32.3445 -25.5316 9
v -32.2889 -25.6971 9
v -32.2252 -25.8595 9
v -32.1534 -26.0186 9
v -32.0738 -26.1739 9
v -31.9865 -26.325 9
v -31.8918 -26.4716 9
v -31.79 -26.6133 9
v -31.6812 -26.7498 9
v -31.5657 -26.8806 9
v -31.4438 -27.0055 9
v -31.3159 -27.1242 9
v -31.1822 -27.2364 9
v -31.0431 -27.3418 9
v -30.8989 -27.4401 9
v -30.75 -27.5311 9
v -30.5967 -27.6146 9
v -30.4395 -27.6903 9
v -30.2787 -27.7581 9
v -30.1147 -27.8177 9
v -29.9479 -27.8692 9
v -29.7788 -27.9122 9
v -29.6078 -27.9468 9
v -29.4352 -27.9728 9
v -29.2616 -27.9902 9
v -29.0873 -27.9989 9
v -28.9127 -27.9989 9
v -28.7384 -27.9902 9
v -28.5648 -27.9728 9
v -28.3922 -27.9468 9
v -28.2212 -27.9122 9
v -28.0521 -27.8692 9
v -27.8853 -27.8177 9
v -27.7213 -27.7581 9
v -27.5605 -27.6903 9
v -27.4033 -27.6146 9
v -27.25 -27.5311 9
v -27.1011 -27.4401 9
v -26.9569 -27.3418 9
v -26.8178 -27.2364 9
v -26.6841 -27.1242 9
v -26.5562 -27.0055 9
v -26.4343 -26.8806 9
v -26.3188 -26.7498 9
v -26.21 -26.6133 9
v -26.1082 -26.4716 9
v -26.0135 -26.325 9
v -25.9262 -26.1739 9
v -25.8466 -26.0186 9
v -25.7748 -25.8595 9
v -25.7111 -25.6971 9
v -25.6555 -25.5316 9
v -25.6082 -25.3637 9
v -25.5694 -25.1935 9
v -25.5391 -25.0216 9
v -25.5174 -24.8485 9
v -25.5044 -24.6745 9
v -25.5 -24.5 9
v -25.5 -24.5 4
v -25.5044 -24.3255 4
v -25.5174 -24.1515 4
v -25.5391 -23.9784 4
v -25.5694 -23.8065 4
v -25.6082 -23.6363 4
v -25.6555 -23.4684 4
v -25.7111 -23.3029 4
v -25.7748 -23.1405 4
v -25.8466 -22.9814 4
v -25.9262 -22.8261 4
v -26.0135 -22.675 4
v -26.1082 -22.5284 4
v -26.21 -22.3867 4
v -26.3188 -22.2502 4
v -26.4343 -22.1194 4
v -26.5562 -21.9945 4
v -26.6841 -21.8758 4
v -26.8178 -21.7636 4
v -26.9569 -21.6582 4
v -27.1011 -21.5599 4
v -27.25 -21.4689 4
v -27.4033 -21.3854 4
v -27.5605 -21.3097 4
v -27.7213 -21.2419 4
v -27.8853 -21.1823 4
v -28.0521 -21.1308 4
v -28.2212 -21.0878 4
v -28.3922 -21.0532 4
v -28.5648 -21.0272 4
v -28.7384 -21.0098 4
v -28.9127 -21.0011 4
v -29.0873 -21.0011 4
v -29.2616 -21.0098 4
v -29.4352 -21.0272 4
v -29.6078 -21.0532 4
v -29.7788 -21.0878 4
v -29.9479 -21.1308 4
v -30.1147 -21.1823 4
v -30.2787 -21.2419 4
v -30.4395 -21.3097 4
v -30.5967 -21.3854 4
v -30.75 -21.4689 4
v -30.8989 -21.5599 4
v -31.0431 -21.6582 4
v -31.1822 -21.7636 4
v -31.3159 -21.8758 4
v -31.4438 -21.9945 4
v -31.5657 -22.1194 4
v -31.6812 -22.2502 4
v -31.79 -22.3867 4
v -31.8918 -22.5284 4
v -31.9865 -22.675 4
v -32.0738 -22.8261 4
v -32.1534 -22.9814 4
v -32.2252 -23.1405 4
v -32.2889 -23.3029 4
v -32.3445 -23.4684 4
v -32.3918 -23.6363 4
v -32.4306 -23.8065 4
v -32.4609 -23.9784 4
v -32.4826 -24.1515 4
v -32.4956 -24.3255 4
v -32.5 -24.5 4
v -32.4956 -24.6745 4
v -32.4826 -24.8485 4
v -32.4609 -25.0216 4
v -32.4306 -25.1935 4
v -32.3918 -25.3637 4
v -32.3445 -25.5316 4
v -32.2889 -25.6971 4
v -32.2252 -25.8595 4
v -32.1534 -26.0186 4
v -32.0738 -26.1739 4
v -31.9865 -26.325 4
v -31.8918 -26.4716 4
v -31.79 -26.6133 4
v -31.6812 -26.7498 4
v -31.5657 -26.8806 4
v -31.4438 -27.0055 4
v -31.3159 -27.1242 4
v -31.1822 -27.2364 4
v -31.0431 -27.3418 4
v -30.8989 -27.4401 4
v -30.75 -27.5311 4
v -30.5967 -27.6146 4
v -30.4395 -27.6903 4
v -30.2787 -27.7581 4
v -30.1147 -27.8177 4
v -29.9479 -27.8692 4
v -29.7788 -27.9122 4
v -29.6078 -27.9468 4
v -29.4352 -27.9728 4
v -29.2616 -27.9902 4
v -29.0873 -27.9989 4
v -28.9127 -27.9989 4
v -28.7384 -27.9902 4
v -28.5648 -27.9728 4
v -28.3922 -27.9468 4
v -28.2212 -27.9122 4
v -28.0521 -27.8692 4
v -27.8853 -27.8177 4
v -27.7213 -27.7581 4
v -27.5605 -27.6903 4
v -27.4033 -27.6146 4
v -27.25 -27.5311 4
v -27.1011 -27.4401 4
v -26.9569 -27.3418 4
v -26.8178 -27.2364 4
v -26.6841 -27.1242 4
v -26.5562 -27.0055 4
v -26.4343 -26.8806 4
v -26.3188 -26.7498 4
v -26.21 -26.6133 4
v -26.1082 -26.4716 4
v -26.0135 -26.325 4
v -25.9262 -26.1739 4
v -25.8466 -26.0186 4
v -25.7748 -25.8595 4
v -25.7111 -25.6971 4
v -25.6555 -25.5316 4
v -25.6082 -25.3637 4
v -25.5694 -25.1935 4
v -25.5391 -25.0216 4
v -25.5174 -24.8485 4
v -25.5044 -24.6745 4
v -25.5 -24.5 4
v 32.5 -24.5 9
v 32.4956 -24.3255 9
v 32.4826 -24.1515 9
v 32.4609 -23.9784 9
v 32.4306 -23.8065 9
v 32.3918 -23.6363 9
v 32.3445 -23.4684 9
v 32.2889 -23.3029 9
v 32.2252 -23.1405 9
v 32.1534 -22.9814 9
v 32.0738 -22.8261 9
v 31.9865 -22.675 9
v 31.8918 -22.5284 9
v 31.79 -22.3867 9
v 31.6812 -22.2502 9
v 31.5657 -22.1194 9
v 31.4438 -21.9945 9
v 31.3159 -21.8758 9
v 31.1822 -21.7636 9
v 31.0431 -21.6582 9
v 30.8989 -21.5599 9
v 30.75 -21.4689 9
v 30.5967 -21.3854 9
v 30.4395 -21.3097 9
v 30.2787 -21.2419 9
v 30.1147 -21.1823 9
v 29.9479 -21.1308 9
v 29.7788 -21.0878 9
v 29.6078 -21.0532 9
v 29.4352 -21.0272 9
v 29.2616 -21.0098 9
v 29.0873 -21.0011 9
v 28.9127 -21.0011 9
v 28.7384 -21.0098 9
v 28.5648 -21.0272 9
v 28.3922 -21.0532 9
v 28.2212 -21.0878 9
v 28.0521 -21.1308 9
v 27.8853 -21.1823 9
v 27.7213 -21.2419 9
v 27.5605 -21.3097 9
v 27.4033 -21.3854 9
v 27.25 -21.4689 9
v 27.1011 -21.5599 9
v 26.9569 -21.6582 9
v 26.8178 -21.7636 9
v 26.6841 -21.8758 9
v 26.5562 -21.9945 9
v 26.4343 -22.1194 9
v 26.3188 -22.2502 9
v 26.21 -22.3867 9
v 26.1082 -22.5284 9
v 26.0135 -22.675 9
v 25.9262 -22.8261 9
v 25.8466 -22.9814 9
v 25.7748 -23.1405 9
v 25.7111 -23.3029 9
v 25.6555 -23.4684 9
v 25.6082 -23.6363 9
v 25.5694 -23.8065 9
v 25.5391 -23.9784 9
v 25.5174 -24.1515 9
v 25.5044 -24.3255 9
v 25.5 -24.5 9
v 25.5044 -24.6745 9
v 25.5174 -24.8485 9
v 25.5391 -25.0216 9
v 25.5694 -25.1935 9
v 25.6082 -25.3637 9
v 25.6555 -25.5316 9
v 25.7111 -25.6971 9
v 25.7748 -25.8595 9
v 25.8466 -26.0186 9
v 25.9262 -26.1739 9
v 26.0135 -26.325 9
v 26.1082 -26.4716 9
v 26.21 -26.6133 9
v 26.3188 -26.7498 9
v 26.4343 -26.8806 9
v 26.5562 -27.0055 9
v 26.6841 -27.1242 9
v 26.8178 -27.2364 9
v 26.9569 -27.3418 9
v 27.1011 -27.4401 9
v 27.25 -27.5311 9
v 27.4033 -27.6146 9
v 27.5605 -27.6903 9
v 27.7213 -27.7581 9
v 27.8853 -27.8177 9
v 28.0521 -27.8692 9
v 28.2212 -27.9122 9
v 28.3922 -27.9468 9
v 28.5648 -27.9728 9
v 28.7384 -27.9902 9
v 28.9127 -27.9989 9
v 29.0873 -27.9989 9
v 29.2616 -27.9902 9
v 29.4352 -27.9728 9
v 29.6078 -27.9468 9
v 29.7788 -27.9122 9
v 29.9479 -27.8692 9
v 30.1147 -27.8177 9
v 30.2787 -27.7581 9
v 30.4395 -27.6903 9
v 30.5967 -27.6146 9
v 30.75 -27.5311 9
v 30.8989 -27.4401 9
v 31.0431 -27.3418 9
v 31.1822 -27.2364 9
v 31.3159 -27.1242 9
v 31.4438 -27.0055 9
v 31.5657 -26.8806 9
v 31.6812 -26.7498 9
v 31.79 -26.6133 9
v 31.8918 -26.4716 9
v 31.9865 -26.325 9
v 32.0738 -26.1739 9
v 32.1534 -26.0186 9
v 32.2252 -25.8595 9
v 32.2889 -25.6971 9
v 32.3445 -25.5316 9
v 32.3918 -25.3637 9
v 32.4306 -25.1935 9
v 32.4609 -25.0216 9
v 32.4826 -24.8485 9
v 32.4956 -24.6745 9
v 32.5 -24.5 9
v 32.5 -24.5 4
v 32.4956 -24.3255 4
v 32.4826 -24.1515 4
v 32.4609 -23.9784 4
v 32.4306 -23.8065 4
v 32.3918 -23.6363 4
v 32.3445 -23.4684 4
v 32.2889 -23.3029 4
v 32.2252 -23.1405 4
v 32.1534 -22.9814 4
v 32.0738 -22.8261 4
v 31.9865 -22.675 4
v 31.8918 -22.5284 4
v 31.79 -22.3867 4
v 31.6812 -22.2502 4
v 31.5657 -22.1194 4
v 31.4438 -21.9945 4
v 31.3159 -21.8758 4
v 31.1822 -21.7636 4
v 31.0431 -21.6582 4
v 30.8989 -21.5599 4
v 30.75 -21.4689 4
v 30.5967 -21.3854 4
v 30.4395 -21.3097 4
v 30.2787 -21.2419 4
v 30.1147 -21.1823 4
v 29.9479 -21.1308 4
v 29.7788 -21.0878 4
v 29.6078 -21.0532 4
v 29.4352 -21.0272 4
v 29.2616 -21.0098 4
v 29.0873 -21.0011 4
v 28.9127 -21.0011 4
v 28.7384 -21.0098 4
v 28.5648 -21.0272 4
v 28.3922 -21.0532 4
v 28.2212 -21.0878 4
v 28.0521 -21.1308 4
v 27.8853 -21.1823 4
v 27.7213 -21.2419 4
v 27.5605 -21.3097 4
v 27.4033 -21.3854 4
v 27.25 -21.4689 4
v 27.1011 -21.5599 4
v 26.9569 -21.6582 4
v 26.8178 -21.7636 4
v 26.6841 -21.8758 4
v 26.5562 -21.9945 4
v 26.4343 -22.1194 4
v 26.3188 -22.2502 4
v 26.21 -22.3867 4
v 26.1082 -22.5284 4
v 26.0135 -22.675 4
v 25.9262 -22.8261 4
v 25.8466 -22.9814 4
v 25.7748 -23.1405 4
v 25.7111 -23.3029 4
v 25.6555 -23.4684 4
v 25.6082 -23.6363 4
v 25.5694 -23.8065 4
v 25.5391 -23.9784 4
v 25.5174 -24.1515 4
v 25.5044 -24.3255 4
v 25.5 -24.5 4
v 25.5044 -24.6745 4
v 25.5174 -24.8485 4
v 25.5391 -25.0216 4
v 25.5694 -25.1935 4
v 25.6082 -25.3637 4
v 25.6555 -25.5316 4
v 25.7111 -25.6971 4
v 25.7748 -25.8595 4
v 25.8466 -26.0186 4
v 25.9262 -26.1739 4
v 26.0135 -26.325 4
v 26.1082 -26.4716 4
v 26.21 -26.6133 4
v 26.3188 -26.7498 4
v 26.4343 -26.8806 4
v 26.5562 -27.0055 4
v 26.6841 -27.1242 4
v 26.8178 -27.2364 4
v 26.9569 -27.3418 4
v 27.1011 -27.4401 4
v 27.25 -27.5311 4
v 27.4033 -27.6146 4
v 27.5605 -27.6903 4
v 27.7213 -27.7581 4
v 27.8853 -27.8177 4
v 28.0521 -27.8692 4
v 28.2212 -27.9122 4
v 28.3922 -27.9468 4
v 28.5648 -27.9728 4
v 28.7384 -27.9902 4
v 28.9127 -27.9989 4
v 29.0873 -27.9989 4
v 29.2616 -27.9902 4
v 29.4352 -27.9728 4
v 29.6078 -27.9468 4
v 29.7788 -27.9122 4
v 29.9479 -27.8692 4
v 30.1147 -27.8177 4
v 30.2787 -27.7581 4
v 30.4395 -27.6903 4
v 30.5967 -27.6146 4
v 30.75 -27.5311 4
v 30.8989 -27.4401 4
v 31.0431 -27.3418 4
v 31.1822 -27.2364 4
v 31.3159 -27.1242 4
v 31.4438 -27.0055 4
v 31.5657 -26.8806 4
v 31.6812 -26.7498 4
v 31.79 -26.6133 4
v 31.8918 -26.4716 4
v 31.9865 -26.325 4
v 32.0738 -26.1739 4
v 32.1534 -26.0186 4
v 32.2252 -25.8595 4
v 32.2889 -25.6971 4
v 32.3445 -25.5316 4
v 32.3918 -25.3637 4
v 32.4306 -25.1935 4
v 32.4609 -25.0216 4
v 32.4826 -24.8485 4
v 32.4956 -24.6745 4
v 32.5 -24.5 4
v -25.5 24.5 9
v -25.5044 24.6745 9
v -25.5174 24.8485 9
v -25.5391 25.0216 9
v -25.5694 25.1935 9
v -25.6082 25.3637 9
v -25.6555 25.5316 9
v -25.7111 25.6971 9
v -25.7748 25.8595 9
v -25.8466 26.0186 9
v -25.9262 26.1739 9
v -26.0135 26.325 9
v -26.1082 26.4716 9
v -26.21 26.6133 9
v -26.3188 26.7498 9
v -26.4343 26.8806 9
v -26.5562 27.0055 9
v -26.6841 27.1242 9
v -26.8178 27.2364 9
v -26.9569 27.3418 9
v -27.1011 27.4401 9
v -27.25 27.5311 9
v -27.4033 27.6146 9
v -27.5605 27.6903 9
v -27.7213 27.7581 9
v -27.8853 27.8177 9
v -28.0521 27.8692 9
v -28.2212 27.9122 9
v -28.3922 27.9468 9
v -28.5648 27.9728 9
v -28.7384 27.9902 9
v -28.9127 27.9989 9
v -29.0873 27.9989 9
v -29.2616 27.9902 9
v -29.4352 27.9728 9
v -29.6078 27.9468 9
v -29.7788 27.9122 9
v -29.9479 27.8692 9
v -30.1147 27.8177 9
v -30.2787 27.7581 9
v -30.4395 27.6903 9
v -30.5967 27.6146 9
v -30.75 27.5311 9
v -30.8989 27.4401 9
v -31.0431 27.3418 9
v -31.1822 27.2364 9
v -31.3159 27.1242 9
v -31.4438 27.0055 9
v -31.5657 26.8806 9
v -31.6812 26.7498 9
v -31.79 26.6133 9
v -31.8918 26.4716 9
v -31.9865 26.325 9
v -32.0738 26.1739 9
v -32.1534 26.0186 9
v -32.2252 25.8595 9
v -32.2889 25.6971 9
v -32.3445 25.5316 9
v -32.3918 25.3637 9
v -32.4306 25.1935 9
v -32.4609 25.0216 9
v -32.4826 24.8485 9
v -32.4956 24.6745 9
v -32.5 24.5 9
v -32.4956 24.3255 9
v -32.4826 24.1515 9
v -32.4609 23.9784 9
v -32.4306 23.8065 9
v -32.3918 23.6363 9
v -32.3445 23.4684 9
v -32.2889 23.3029 9
v -32.2252 23.1405 9
v -32.1534 22.9814 9
v -32.0738 22.8261 9
v -31.9865 22.675 9
v -31.8918 22.5284 9
v -31.79 22.3867 9
v -31.6812 22.2502 9
v -31.5657 22.1194 9
v -31.4438 21.9945 9
v -31.3159 21.8758 9
v -31.1822 21.7636 9
v -31.0431 21.6582 9
v -30.8989 21.5599 9
v -30.75 21.4689 9
v -30.5967 21.3854 9
v -30.4395 21.3097 9
v -30.2787 21.2419 9
v -30.1147 21.1823 9
v -29.9479 21.1308 9
v -29.7788 21.0878 9
v -29.6078 21.0532 9
v -29.4352 21.0272 9
v -29.2616 21.0098 9
v -29.0873 21.0011 9
v -28.9127 21.0011 9
v -28.7384 21.0098 9
v -28.5648 21.0272 9
v -28.3922 21.0532 9
v -28.2212 21.0878 9
v -28.0521 21.1308 9
v -27.8853 21.1823 9
v -27.7213 21.2419 9
v -27.5605 21.3097 9
v -27.4033 21.3854 9
v -27.25 21.4689 9
v -27.1011 21.5599 9
v -26.9569 21.6582 9
v -26.8178 21.7636 9
v -26.6841 21.8758 9
v -26.5562 21.9945 9
v -26.4343 22.1194 9
v -26.3188 22.2502 9
v -26.21 22.3867 9
v -26.1082 22.5284 9
v -26.0135 22.675 9
v -25.9262 22.8261 9
v -25.8466 22.9814 9
v -25.7748 23.1405 9
v -25.7111 23.3029 9
v -25.6555 23.4684 9
v -25.6082 23.6363 9
v -25.5694 23.8065 9
v -25.5391 23.9784 9
v -25.5174 24.1515 9
v -25.5044 24.3255 9
v -25.5 24.5 9
v -25.5 24.5 4
v -25.5044 24.6745 4
v -25.5174 24.8485 4
v -25.5391 25.0216 4
v -25.5694 25.1935 4
v -25.6082 25.3637 4
v -25.6555 25.5316 4
v -25.7111 25.6971 4
v -25.7748 25.8595 4
v -25.8466 26.0186 4
v -25.9262 26.1739 4
v -26.0135 26.325 4
v -26.1082 26.4716 4
v -26.21 26.6133 4
v -26.3188 26.7498 4
v -26.4343 26.8806 4
v -26.5562 27.0055 4
v -26.6841 27.1242 4
v -26.8178 27.2364 4
v -26.9569 27.3418 4
v -27.1011 27.4401 4
v -27.25 27.5311 4
v -27.4033 27.6146 4
v -27.5605 27.6903 4
v -27.7213 27.7581 4
v -27.8853 27.8177 4
v -28.0521 27.8692 4
v -28.2212 27.9122 4
v -28.3922 27.9468 4
v -28.5648 27.9728 4
v -28.7384 27.9902 4
v -28.9127 27.9989 4
v -29.0873 27.9989 4
v -29.2616 27.9902 4
v -29.4352 27.9728 4
v -29.6078 27.9468 4
v -29.7788 27.9122 4
v -29.9479 27.8692 4
v -30.1147 27.8177 4
v -30.2787 27.7581 4
v -30.4395 27.6903 4
v -30.5967 27.6146 4
v -30.75 27.5311 4
v -30.8989 27.4401 4
v -31.0431 27.3418 4
v -31.1822 27.2364 4
v -31.3159 27.1242 4
v -31.4438 27.0055 4
v -31.5657 26.8806 4
v -31.6812 26.7498 4
v -31.79 26.6133 4
v -31.8918 26.4716 4
v -31.9865 26.325 4
v -32.0738 26.1739 4
v -32.1534 26.0186 4
v -32.2252 25.8595 4
v -32.2889 25.6971 4
v -32.3445 25.5316 4
v -32.3918 25.3637 4
v -32.4306 25.1935 4
v -32.4609 25.0216 4
v -32.4826 24.8485 4
v -32.4956 24.6745 4
v -32.5 24.5 4
v -32.4956 24.3255 4
v -32.4826 24.1515 4
v -32.4609 23.9784 4
v -32.4306 23.8065 4
v -32.3918 23.6363 4
v -32.3445 23.4684 4
v -32.2889 23.3029 4
v -32.2252 23.1405 4
v -32.1534 22.9814 4
v -32.0738 22.8261 4
v -31.9865 22.675 4
v -31.8918 22.5284 4
v -31.79 22.3867 4
v -31.6812 22.2502 4
v -31.5657 22.1194 4
v -31.4438 21.9945 4
v -31.3159 21.8758 4
v -31.1822 21.7636 4
v -31.0431 21.6582 4
v -30.8989 21.5599 4
v -30.75 21.4689 4
v -30.5967 21.3854 4
v -30.4395 21.3097 4
v -30.2787 21.2419 4
v -30.1147 21.1823 4
v -29.9479 21.1308 4
v -29.7788 21.0878 4
v -29.6078 21.0532 4
v -29.4352 21.0272 4
v -29.2616 21.0098 4
v -29.0873 21.0011 4
v -28.9127 21.0011 4
v -28.7384 21.0098 4
v -28.5648 21.0272 4
v -28.3922 21.0532 4
v -28.2212 21.0878 4
v -28.0521 21.1308 4
v -27.8853 21.1823 4
v -27.7213 21.2419 4
v -27.5605 21.3097 4
v -27.4033 21.3854 4
v -27.25 21.4689 4
v -27.1011 21.5599 4
v -26.9569 21.6582 4
v -26.8178 21.7636 4
v -26.6841 21.8758 4
v -26.5562 21.9945 4
v -26.4343 22.1194 4
v -26.3188 22.2502 4
v -26.21 22.3867 4
v -26.1082 22.5284 4
v -26.0135 22.675 4
v -25.9262 22.8261 4
v -25.8466 22.9814 4
v -25.7748 23.1405 4
v -25.7111 23.3029 4
v -25.6555 23.4684 4
v -25.6082 23.6363 4
v -25.5694 23.8065 4
v -25.5391 23.9784 4
v -25.5174 24.1515 4
v -25.5044 24.3255 4
v -25.5 24.5 4
v 32.5 24.5 9
v 32.4956 24.6745 9
v 32.4826 24.8485 9
v 32.4609 25.0216 9
v 32.4306 25.1935 9
v 32.3918 25.3637 9
v 32.3445 25.5316 9
v 32.2889 25.6971 9
v 32.2252 25.8595 9
v 32.1534 26.0186 9
v 32.0738 26.1739 9
v 31.9865 26.325 9
v 31.8918 26.4716 9
v 31.79 26.6133 9
v 31.6812 26.7498 9
v 31.5657 26.8806 9
v 31.4438 27.0055 9
v 31.3159 27.1242 9
v 31.1822 27.2364 9
v 31.0431 27.3418 9
v 30.8989 27.4401 9
v 30.75 27.5311 9
v 30.5967 27.6146 9
v 30.4395 27.6903 9
v 30.2787 27.7581 9
v 30.1147 27.8177 9
v 29.9479 27.8692 9
v 29.7788 27.9122 9
v 29.6078 27.9468 9
v 29.4352 27.9728 9
v 29.2616 27.9902 9
v 29.0873 27.9989 9
v 28.9127 27.9989 9
v 28.7384 27.9902 9
v 28.5648 27.9728 9
v 28.3922 27.9468 9
v 28.2212 27.9122 9
v 28.0521 27.8692 9
v 27.8853 27.8177 9
v 27.7213 27.7581 9
v 27.5605 27.6903 9
v 27.4033 27.6146 9
v 27.25 27.5311 9
v 27.1011 27.4401 9
v 26.9569 27.3418 9
v 26.8178 27.2364 9
v 26.6841 27.1242 9
v 26.5562 27.0055 9
v 26.4343 26.8806 9
v 26.3188 26.7498 9
v 26.21 26.6133 9
v 26.1082 26.4716 9
v 26.0135 26.325 9
v 25.9262 26.1739 9
v 25.8466 26.0186 9
v 25.7748 25.8595 9
v 25.7111 25.6971 9
v 25.6555 25.5316 9
v 25.6082 25.3637 9
v 25.5694 25.1935 9
v 25.5391 25.0216 9
v 25.5174 24.8485 9
v 25.5044 24.6745 9
v 25.5 24.5 9
v 25.5044 24.3255 9
v 25.5174 24.1515 9
v 25.5391 23.9784 9
v 25.5694 23.8065 9
v 25.6082 23.6363 9
v 25.6555 23.4684 9
v 25.7111 23.3029 9
v 25.7748 23.1405 9
v 25.8466 22.9814 9
v 25.9262 22.8261 9
v 26.0135 22.675 9
v 26.1082 22.5284 9
v 26.21 22.3867 9
v 26.3188 22.2502 9
v 26.4343 22.1194 9
v 26.5562 21.9945 9
v 26.6841 21.8758 9
v 26.8178 21.7636 9
v 26.9569 21.6582 9
v 27.1011 21.5599 9
v 27.25 21.4689 9
v 27.4033 21.3854 9
v 27.5605 21.3097 9
v 27.7213 21.2419 9
v 27.8853 21.1823 9
v 28.0521 21.1308 9
v 28.2212 21.0878 9
v 28.3922 21.0532 9
v 28.5648 21.0272 9
v 28.7384 21.0098 9
v 28.9127 21.0011 9
v 29.0873 21.0011 9
v 29.2616 21.0098 9
v 29.4352 21.0272 9
v 29.6078 21.0532 9
v 29.7788 21.0878 9
v 29.9479 21.1308 9
v 30.1147 21.1823 9
v 30.2787 21.2419 9
v 30.4395 21.3097 9
v 30.5967 21.3854 9
v 30.75 21.4689 9
v 30.8989 21.5599 9
v 31.0431 21.6582 9
v 31.1822 21.7636 9
v 31.3159 21.8758 9
v 31.4438 21.9945 9
v 31.5657 22.1194 9
v 31.6812 22.2502 9
v 31.79 22.3867 9
v 31.8918 22.5284 9
v 31.9865 22.675 9
v 32.0738 22.8261 9
v 32.1534 22.9814 9
v 32.2252 23.1405 9
v 32.2889 23.3029 9
v 32.3445 23.4684 9
v 32.3918 23.6363 9
v 32.4306 23.8065 9
v 32.4609 23.9784 9
v 32.4826 24.1515 9
v 32.4956 24.3255 9
v 32.5 24.5 9
v 32.5 24.5 4
v 32.4956 24.6745 4
v 32.4826 24.8485 4
v 32.4609 25.0216 4
v 32.4306 25.1935 4
v 32.3918 25.3637 4
v 32.3445 25.5316 4
v 32.2889 25.6971 4
v 32.2252 25.8595 4
v 32.1534 26.0186 4
v 32.0738 26.1739 4
v 31.9865 26.325 4
v 31.8918 26.4716 4
v 31.79 26.6133 4
v 31.6812 26.7498 4
v 31.5657 26.8806 4
v 31.4438 27.0055 4
v 31.3159 27.1242 4
v 31.1822 27.2364 4
v 31.0431 27.3418 4
v 30.8989 27.4401 4
v 30.75 27.5311 4
v 30.5967 27.6146 4
v 30.4395 27.6903 4
v 30.2787 27.7581 4
v 30.1147 27.8177 4
v 29.9479 27.8692 4
v 29.7788 27.9122 4
v 29.6078 27.9468 4
v 29.4352 27.9728 4
v 29.2616 27.9902 4
v 29.0873 27.9989 4
v 28.9127 27.9989 4
v 28.7384 27.9902 4
v 28.5648 27.9728 4
v 28.3922 27.9468 4
v 28.2212 27.9122 4
v 28.0521 27.8692 4
v 27.8853 27.8177 4
v 27.7213 27.7581 4
v 27.5605 27.6903 4
v 27.4033 27.6146 4
v 27.25 27.5311 4
v 27.1011 27.4401 4
v 26.9569 27.3418 4
v 26.8178 27.2364 4
v 26.6841 27.1242 4
v 26.5562 27.0055 4
v 26.4343 26.8806 4
v 26.3188 26.7498 4
v 26.21 26.6133 4
v 26.1082 26.4716 4
v 26.0135 26.325 4
v 25.9262 26.1739 4
v 25.8466 26.0186 4
v 25.7748 25.8595 4
v 25.7111 25.6971 4
v 25.6555 25.5316 4
v 25.6082 25.3637 4
v 25.5694 25.1935 4
v 25.5391 25.0216 4
v 25.5174 24.8485 4
v 25.5044 24.6745 4
v 25.5 24.5 4
v 25.5044 24.3255 4
v 25.5174 24.1515 4
v 25.5391 23.9784 4
v 25.5694 23.8065 4
v 25.6082 23.6363 4
v 25.6555 23.4684 4
v 25.7111 23.3029 4
v 25.7748 23.1405 4
v 25.8466 22.9814 4
v 25.9262 22.8261 4
v 26.0135 22.675 4
v 26.1082 22.5284 4
v 26.21 22.3867 4
v 26.3188 22.2502 4
v 26.4343 22.1194 4
v 26.5562 21.9945 4
v 26.6841 21.8758 4
v 26.8178 21.7636 4
v 26.9569 21.6582 4
v 27.1011 21.5599 4
v 27.25 21.4689 4
v 27.4033 21.3854 4
v 27.5605 21.3097 4
v 27.7213 21.2419 4
v 27.8853 21.1823 4
v 28.0521 21.1308 4
v 28.2212 21.0878 4
v 28.3922 21.0532 4
v 28.5648 21.0272 4
v 28.7384 21.0098 4
v 28.9127 21.0011 4
v 29.0873 21.0011 4
v 29.2616 21.0098 4
v 29.4352 21.0272 4
v 29.6078 21.0532 4
v 29.7788 21.0878 4
v 29.9479 21.1308 4
v 30.1147 21.1823 4
v 30.2787 21.2419 4
v 30.4395 21.3097 4
v 30.5967 21.3854 4
v 30.75 21.4689 4
v 30.8989 21.5599 4
v 31.0431 21.6582 4
v 31.1822 21.7636 4
v 31.3159 21.8758 4
v 31.4438 21.9945 4
v 31.5657 22.1194 4
v 31.6812 22.2502 4
v 31.79 22.3867 4
v 31.8918 22.5284 4
v 31.9865 22.675 4
v 32.0738 22.8261 4
v 32.1534 22.9814 4
v 32.2252 23.1405 4
v 32.2889 23.3029 4
v 32.3445 23.4684 4
v 32.3918 23.6363 4
v 32.4306 23.8065 4
v 32.4609 23.9784 4
v 32.4826 24.1515 4
v 32.4956 24.3255 4
v 32.5 24.5 4
v -25.5 -24.5 9
v -25.5044 -24.3255 9
v -25.5174 -24.1515 9
v -25.5391 -23.9784 9
v -25.5694 -23.8065 9
v -25.6082 -23.6363 9
v -25.6555 -23.4684 9
v -25.7111 -23.3029 9
v -25.7748 -23.1405 9
v -25.8466 -22.9814 9
v -25.9262 -22.8261 9
v -26.0135 -22.675 9
v -26.1082 -22.5284 9
v -26.21 -22.3867 9
v -26.3188 -22.2502 9
v -26.4343 -22.1194 9
v -26.5562 -21.9945 9
v -26.6841 -21.8758 9
v -26.8178 -21.7636 9
v -26.9569 -21.6582 9
v -27.1011 -21.5599 9
v -27.25 -21.4689 9
v -27.4033 -21.3854 9
v -27.5605 -21.3097 9
v -27.7213 -21.2419 9
v -27.8853 -21.1823 9
v -28.0521 -21.1308 9
v -28.2212 -21.0878 9
v -28.3922 -21.0532 9
v -28.5648 -21.0272 9
v -28.7384 -21.0098 9
v -28.9127 -21.0011 9
v -29.0873 -21.0011 9
v -29.2616 -21.0098 9
v -29.4352 -21.0272 9
v -29.6078 -21.0532 9
v -29.7788 -21.0878 9
v -29.9479 -21.1308 9
v -30.1147 -21.1823 9
v -30.2787 -21.2419 9
v -30.4395 -21.3097 9
v -30.5967 -21.3854 9
v -30.75 -21.4689 9
v -30.8989 -21.5599 9
v -31.0431 -21.6582 9
v -31.1822 -21.7636 9
v -31.3159 -21.8758 9
v -31.4438 -21.9945 9
v -31.5657 -22.1194 9
v -31.6812 -22.2502 9
v -31.79 -22.3867 9
v -31.8918 -22.5284 9
v -31.9865 -22.675 9
v -32.0738 -22.8261 9
v -32.1534 -22.9814 9
v -32.2252 -23.1405 9
v -32.2889 -23.3029 9
v -32.3445 -23.4684 9
v -32.3918 -23.6363 9
v -32.4306 -23.8065 9
v -32.4609 -23.9784 9
v -32.4826 -24.1515 9
v -32.4956 -24.3255 9
v -32.5 -24.5 9
v -32.4956 -24.6745 9
v -32.4826 -24.8485 9
v -32.4609 -25.0216 9
v -32.4306 -25.1935 9
v -32.3918 -25.3637 9
v -32.3445 -25.5316 9
v -32.2889 -25.6971 9
v -32.2252 -25.8595 9
v -32.1534 -26.0186 9
v -32.0738 -26.1739 9
v -31.9865 -26.325 9
v -31.8918 -26.4716 9
v -31.79 -26.6133 9
v -31.6812 -26.7498 9
v -31.5657 -26.8806 9
v -31.4438 -27.0055 9
v -31.3159 -27.1242 9
v -31.1822 -27.2364 9
v -31.0431 -27.3418 9
v -30.8989 -27.4401 9
v -30.75 -27.5311 9
v -30.5967 -27.6146 9
v -30.4395 -27.6903 9
v -30.2787 -27.7581 9
v -30.1147 -27.8177 9
v -29.9479 -27.8692 9
v -29.7788 -27.9122 9
v -29.6078 -27.9468 9
v -29.4352 -27.9728 9
v -29.2616 -27.9902 9
v -29.0873 -27.9989 9
v -28.9127 -27.9989 9
v -28.7384 -27.9902 9
v -28.5648 -27.9728 9
v -28.3922 -27.9468 9
v -28.2212 -27.9122 9
v -28.0521 -27.8692 9
v -27.8853 -27.8177 9
v -27.7213 -27.7581 9
v -27.5605 -27.6903 9
v -27.4033 -27.6146 9
v -27.25 -27.5311 9
v -27.1011 -27.4401 9
v -26.9569 -27.3418 9
v -26.8178 -27.2364 9
v -26.6841 -27.1242 9
v -26.5562 -27.0055 9
v -26.4343 -26.8806 9
v -26.3188 -26.7498 9
v -26.21 -26.6133 9
v -26.1082 -26.4716 9
v -26.0135 -26.325 9
v -25.9262 -26.1739 9
v -25.8466 -26.0186 9
v -25.7748 -25.8595 9
v -25.7111 -25.6971 9
v -25.6555 -25.5316 9
v -25.6082 -25.3637 9
v -25.5694 -25.1935 9
v -25.5391 -25.0216 9
v -25.5174 -24.8485 9
v -25.5044 -24.6745 9
v 32.5 -24.5 9
v 32.4956 -24.3255 9
v 32.4826 -24.1515 9
v 32.4609 -23.9784 9
v 32.4306 -23.8065 9
v 32.3918 -23.6363 9
v 32.3445 -23.4684 9
v 32.2889 -23.3029 9
v 32.2252 -23.1405 9
v 32.1534 -22.9814 9
v 32.0738 -22.8261 9
v 31.9865 -22.675 9
v 31.8918 -22.5284 9
v 31.79 -22.3867 9
v 31.6812 -22.2502 9
v 31.5657 -22.1194 9
v 31.4438 -21.9945 9
v 31.3159 -21.8758 9
v 31.1822 -21.7636 9
v 31.0431 -21.6582 9
v 30.8989 -21.5599 9
v 30.75 -21.4689 9
v 30.5967 -21.3854 9
v 30.4395 -21.3097 9
v 30.2787 -21.2419 9
v 30.1147 -21.1823 9
v 29.9479 -21.1308 9
v 29.7788 -21.0878 9
v 29.6078 -21.0532 9
v 29.4352 -21.0272 9
v 29.2616 -21.0098 9
v 29.0873 -21.0011 9
v 28.9127 -21.0011 9
v 28.7384 -21.0098 9
v 28.5648 -21.0272 9
v 28.3922 -21.0532 9
v 28.2212 -21.0878 9
v 28.0521 -21.1308 9
v 27.8853 -21.1823 9
v 27.7213 -21.2419 9
v 27.5605 -21.3097 9
v 27.4033 -21.3854 9
v 27.25 -21.4689 9
v 27.1011 -21.5599 9
v 26.9569 -21.6582 9
v 26.8178 -21.7636 9
v 26.6841 -21.8758 9
v 26.5562 -21.9945 9
v 26.4343 -22.1194 9
v 26.3188 -22.2502 9
v 26.21 -22.3867 9
v 26.1082 -22.5284 9
v 26.0135 -22.675 9
v 25.9262 -22.8261 9
v 25.8466 -22.9814 9
v 25.7748 -23.1405 9
v 25.7111 -23.3029 9
v 25.6555 -23.4684 9
v 25.6082 -23.6363 9
v 25.5694 -23.8065 9
v 25.5391 -23.9784 9
v 25.5174 -24.1515 9
v 25.5044 -24.3255 9
v 25.5 -24.5 9
v 25.5044 -24.6745 9
v 25.5174 -24.8485 9
v 25.5391 -25.0216 9
v 25.5694 -25.1935 9
v 25.6082 -25.3637 9
v 25.6555 -25.5316 9
v 25.7111 -25.6971 9
v 25.7748 -25.8595 9
v 25.8466 -26.0186 9
v 25.9262 -26.1739 9
v 26.0135 -26.325 9
v 26.1082 -26.4716 9
v 26.21 -26.6133 9
v 26.3188 -26.7498 9
v 26.4343 -26.8806 9
v 26.5562 -27.0055 9
v 26.6841 -27.1242 9
v 26.8178 -27.2364 9
v 26.9569 -27.3418 9
v 27.1011 -27.4401 9
v 27.25 -27.5311 9
v 27.4033 -27.6146 9
v 27.5605 -27.6903 9
v 27.7213 -27.7581 9
v 27.8853 -27.8177 9
v 28.0521 -27.8692 9
v 28.2212 -27.9122 9
v 28.3922 -27.9468 9
v 28.5648 -27.9728 9
v 28.7384 -27.9902 9
v 28.9127 -27.9989 9
v 29.0873 -27.9989 9
v 29.2616 -27.9902 9
v 29.4352 -27.9728 9
v 29.6078 -27.9468 9
v 29.7788 -27.9122 9
v 29.9479 -27.8692 9
v 30.1147 -27.8177 9
v 30.2787 -27.7581 9
v 30.4395 -27.6903 9
v 30.5967 -27.6146 9
v 30.75 -27.5311 9
v 30.8989 -27.4401 9
v 31.0431 -27.3418 9
v 31.1822 -27.2364 9
v 31.3159 -27.1242 9
v 31.4438 -27.0055 9
v 31.5657 -26.8806 9
v 31.6812 -26.7498 9
v 31.79 -26.6133 9
v 31.8918 -26.4716 9
v 31.9865 -26.325 9
v 32.0738 -26.1739 9
v 32.1534 -26.0186 9
v 32.2252 -25.8595 9
v 32.2889 -25.6971 9
v 32.3445 -25.5316 9
v 32.3918 -25.3637 9
v 32.4306 -25.1935 9
v 32.4609 -25.0216 9
v 32.4826 -24.8485 9
v 32.4956 -24.6745 9
v -25.5 24.5 9
v -25.5044 24.6745 9
v -25.5174 24.8485 9
v -25.5391 25.0216 9
v -25.5694 25.1935 9
v -25.6082 25.3637 9
v -25.6555 25.5316 9
v -25.7111 25.6971 9
v -25.7748 25.8595 9
v -25.8466 26.0186 9
v -25.9262 26.1739 9
v -26.0135 26.325 9
v -26.1082 26.4716 9
v -26.21 26.6133 9
v -26.3188 26.7498 9
v -26.4343 26.8806 9
v -26.5562 27.0055 9
v -26.6841 27.1242 9
v -26.8178 27.2364 9
v -26.9569 27.3418 9
v -27.1011 27.4401 9
v -27.25 27.5311 9
v -27.4033 27.6146 9
v -27.5605 27.6903 9
v -27.7213 27.7581 9
v -27.8853 27.8177 9
v -28.0521 27.8692 9
v -28.2212 27.9122 9
v -28.3922 27.9468 9
v -28.5648 27.9728 9
v -28.7384 27.9902 9
v -28.9127 27.9989 9
v -29.0873 27.9989 9
v -29.2616 27.9902 9
v -29.4352 27.9728 9
v -29.6078 27.9468 9
v -29.7788 27.9122 9
v -29.9479 27.8692 9
v -30.1147 27.8177 9
v -30.2787 27.7581 9
v -30.4395 27.6903 9
v -30.5967 27.6146 9
v -30.75 27.5311 9
v -30.8989 27.4401 9
v -31.0431 27.3418 9
v -31.1822 27.2364 9
v -31.3159 27.1242 9
v -31.4438 27.0055 9
v -31.5657 26.8806 9
v -31.6812 26.7498 9
v -31.79 26.6133 9
v -31.8918 26.4716 9
v -31.9865 26.325 9
v -32.0738 26.1739 9
v -32.1534 26.0186 9
v -32.2252 25.8595 9
v -32.2889 25.6971 9
v -32.3445 25.5316 9
v -32.3918 25.3637 9
v -32.4306 25.1935 9
v -32.4609 25.0216 9
v -32.4826 24.8485 9
v -32.4956 24.6745 9
v -32.5 24.5 9
v -32.4956 24.3255 9
v -32.4826 24.1515 9
v -32.4609 23.9784 9
v -32.4306 23.8065 9
v -32.3918 23.6363 9
v -32.3445 23.4684 9
v -32.2889 23.3029 9
v -32.2252 23.1405 9
v -32.1534 22.9814 9
v -32.0738 22.8261 9
v -31.9865 22.675 9
v -31.8918 22.5284 9
v -31.79 22.3867 9
v -31.6812 22.2502 9
v -31.5657 22.1194 9
v -31.4438 21.9945 9
v -31.3159 21.8758 9
v -31.1822 21.7636 9
v -31.0431 21.6582 9
v -30.8989 21.5599 9
v -30.75 21.4689 9
v -30.5967 21.3854 9
v -30.4395 21.3097 9
v -30.2787 21.2419 9
v -30.1147 21.1823 9
v -29.9479 21.1308 9
v -29.7788 21.0878 9
v -29.6078 21.0532 9
v -29.4352 21.0272 9
v -29.2616 21.0098 9
v -29.0873 21.0011 9
v -28.9127 21.0011 9
v -28.7384 21.0098 9
v -28.5648 21.0272 9
v -28.3922 21.0532 9
v -28.2212 21.0878 9
v -28.0521 21.1308 9
v -27.8853 21.1823 9
v -27.7213 21.2419 9
v -27.5605 21.3097 9
v -27.4033 21.3854 9
v -27.25 21.4689 9
v -27.1011 21.5599 9
v -26.9569 21.6582 9
v -26.8178 21.7636 9
v -26.6841 21.8758 9
v -26.5562 21.9945 9
v -26.4343 22.1194 9
v -26.3188 22.2502 9
v -26.21 22.3867 9
v -26.1082 22.5284 9
v -26.0135 22.675 9
v -25.9262 22.8261 9
v -25.8466 22.9814 9
v -25.7748 23.1405 9
v -25.7111 23.3029 9
v -25.6555 23.4684 9
v -25.6082 23.6363 9
v -25.5694 23.8065 9
v -25.5391 23.9784 9
v -25.5174 24.1515 9
v -25.5044 24.3255 9
v 32.5 24.5 9
v 32.4956 24.6745 9
v 32.4826 24.8485 9
v 32.4609 25.0216 9
v 32.4306 25.1935 9
v 32.3918 25.3637 9
v 32.3445 25.5316 9
v 32.2889 25.6971 9
v 32.2252 25.8595 9
v 32.1534 26.0186 9
v 32.0738 26.1739 9
v 31.9865 26.325 9
v 31.8918 26.4716 9
v 31.79 26.6133 9
v 31.6812 26.7498 9
v 31.5657 26.8806 9
v 31.4438 27.0055 9
v 31.3159 27.1242 9
v 31.1822 27.2364 9
v 31.0431 27.3418 9
v 30.8989 27.4401 9
v 30.75 27.5311 9
v 30.5967 27.6146 9
v 30.4395 27.6903 9
v 30.2787 27.7581 9
v 30.1147 27.8177 9
v 29.9479 27.8692 9
v 29.7788 27.9122 9
v 29.6078 27.9468 9
v 29.4352 27.9728 9
v 29.2616 27.9902 9
v 29.0873 27.9989 9
v 28.9127 27.9989 9
v 28.7384 27.9902 9
v 28.5648 27.9728 9
v 28.3922 27.9468 9
v 28.2212 27.9122 9
v 28.0521 27.8692 9
v 27.8853 27.8177 9
v 27.7213 27.7581 9
v 27.5605 27.6903 9
v 27.4033 27.6146 9
v 27.25 27.5311 9
v 27.1011 27.4401 9
v 26.9569 27.3418 9
v 26.8178 27.2364 9
v 26.6841 27.1242 9
v 26.5562 27.0055 9
v 26.4343 26.8806 9
v 26.3188 26.7498 9
v 26.21 26.6133 9
v 26.1082 26.4716 9
v 26.0135 26.325 9
v 25.9262 26.1739 9
v 25.8466 26.0186 9
v 25.7748 25.8595 9
v 25.7111 25.6971 9
v 25.6555 25.5316 9
v 25.6082 25.3637 9
v 25.5694 25.1935 9
v 25.5391 25.0216 9
v 25.5174 24.8485 9
v 25.5044 24.6745 9
v 25.5 24.5 9
v 25.5044 24.3255 9
v 25.5174 24.1515 9
v 25.5391 23.9784 9
v 25.5694 23.8065 9
v 25.6082 23.6363 9
v 25.6555 23.4684 9
v 25.7111 23.3029 9
v 25.7748 23.1405 9
v 25.8466 22.9814 9
v 25.9262 22.8261 9
v 26.0135 22.675 9
v 26.1082 22.5284 9
v 26.21 22.3867 9
v 26.3188 22.2502 9
v 26.4343 22.1194 9
v 26.5562 21.9945 9
v 26.6841 21.8758 9
v 26.8178 21.7636 9
v 26.9569 21.6582 9
v 27.1011 21.5599 9
v 27.25 21.4689 9
v 27.4033 21.3854 9
v 27.5605 21.3097 9
v 27.7213 21.2419 9
v 27.8853 21.1823 9
v 28.0521 21.1308 9
v 28.2212 21.0878 9
v 28.3922 21.0532 9
v 28.5648 21.0272 9
v 28.7384 21.0098 9
v 28.9127 21.0011 9
v 29.0873 21.0011 9
v 29.2616 21.0098 9
v 29.4352 21.0272 9
v 29.6078 21.0532 9
v 29.7788 21.0878 9
v 29.9479 21.1308 9
v 30.1147 21.1823 9
v 30.2787 21.2419 9
v 30.4395 21.3097 9
v 30.5967 21.3854 9
v 30.75 21.4689 9
v 30.8989 21.5599 9
v 31.0431 21.6582 9
v 31.1822 21.7636 9
v 31.3159 21.8758 9
v 31.4438 21.9945 9
v 31.5657 22.1194 9
v 31.6812 22.2502 9
v 31.79 22.3867 9
v 31.8918 22.5284 9
v 31.9865 22.675 9
v 32.0738 22.8261 9
v 32.1534 22.9814 9
v 32.2252 23.1405 9
v 32.2889 23.3029 9
v 32.3445 23.4684 9
v 32.3918 23.6363 9
v 32.4306 23.8065 9
v 32.4609 23.9784 9
v 32.4826 24.1515 9
v 32.4956 24.3255 9
f 3 2 4
f 1 2 3
f 21 22 23
f 18 19 20
f 29 24 25
f 29 25 26
f 29 26 27
f 29 27 28
f 14 15 16
f 14 16 17
f 14 17 18
f 14 18 20
f 31 20 21
f 31 23 24
f 31 29 30
f 31 21 23
f 31 24 29
f 11 12 13
f 11 13 14
f 36 32 33
f 36 33 34
f 36 34 35
f 8 9 10
f 8 10 11
f 37 32 36
f 38 32 37
f 5 7 8
f 5 31 32
f 5 20 31
f 5 14 20
f 5 11 14
f 5 8 11
f 5 32 38
f 215 38 216
f 217 216 38
f 214 38 215
f 218 217 38
f 213 38 214
f 219 218 38
f 212 38 213
f 220 219 38
f 211 38 212
f 221 220 38
f 210 38 211
f 222 221 38
f 209 38 210
f 223 222 38
f 208 38 209
f 224 223 38
f 207 38 208
f 225 224 38
f 206 38 207
f 226 225 38
f 205 38 206
f 227 226 38
f 204 38 205
f 228 227 38
f 203 38 204
f 229 228 38
f 202 38 203
f 230 229 38
f 201 38 202
f 231 230 38
f 200 38 201
f 232 231 38
f 199 38 200
f 199 5 38
f 233 232 38
f 198 5 199
f 234 233 38
f 197 5 198
f 235 234 38
f 196 5 197
f 195 5 196
f 194 5 195
f 193 5 194
f 192 5 193
f 191 5 192
f 190 5 191
f 189 5 190
f 188 5 189
f 187 5 188
f 186 5 187
f 185 5 186
f 184 5 185
f 183 5 184
f 182 5 183
f 181 5 182
f 180 5 181
f 179 5 180
f 110 107 106
f 110 108 107
f 110 109 108
f 111 110 106
f 112 106 6
f 112 111 106
f 114 113 112
f 114 112 6
f 116 115 114
f 116 114 6
f 119 117 116
f 119 118 117
f 121 120 119
f 121 119 116
f 122 121 116
f 123 116 6
f 123 122 116
f 124 123 6
f 125 124 6
f 126 125 6
f 127 126 6
f 129 128 127
f 129 127 6
f 132 130 129
f 132 131 130
f 132 129 6
f 134 133 132
f 135 134 132
f 136 135 132
f 105 136 132
f 105 132 6
f 467 6 468
f 469 468 6
f 466 6 467
f 470 469 6
f 465 6 466
f 471 470 6
f 464 6 465
f 472 471 6
f 463 6 464
f 473 6 5
f 473 472 6
f 473 5 179
f 462 6 463
f 474 473 179
f 474 179 178
f 461 6 462
f 475 474 178
f 475 177 176
f 475 178 177
f 460 6 461
f 476 475 176
f 459 6 460
f 477 476 176
f 477 176 175
f 458 6 459
f 478 477 175
f 478 175 174
f 457 6 458
f 479 478 174
f 479 174 173
f 456 6 457
f 480 479 173
f 480 172 171
f 480 173 172
f 455 6 456
f 481 480 171
f 454 6 455
f 482 481 171
f 482 170 169
f 482 171 170
f 453 6 454
f 453 105 6
f 483 169 168
f 483 482 169
f 452 105 453
f 484 483 168
f 484 168 167
f 451 105 452
f 485 484 167
f 485 167 166
f 450 105 451
f 486 166 165
f 486 485 166
f 449 105 450
f 487 486 165
f 448 105 449
f 488 487 165
f 488 164 163
f 488 165 164
f 447 105 448
f 489 488 163
f 489 163 162
f 446 105 447
f 490 162 161
f 490 489 162
f 445 105 446
f 491 490 161
f 444 105 445
f 492 491 161
f 492 160 159
f 492 161 160
f 443 105 444
f 493 492 159
f 442 105 443
f 494 493 159
f 494 159 158
f 441 105 442
f 495 494 158
f 495 157 156
f 495 158 157
f 440 105 441
f 496 495 156
f 439 105 440
f 497 496 156
f 497 155 154
f 497 156 155
f 438 105 439
f 498 497 154
f 437 105 438
f 499 154 153
f 499 498 154
f 436 105 437
f 500 499 153
f 500 152 151
f 500 153 152
f 435 105 436
f 501 500 151
f 434 105 435
f 433 105 434
f 432 105 433
f 431 105 432
f 430 105 431
f 429 105 430
f 428 105 429
f 427 105 428
f 426 105 427
f 425 105 426
f 424 105 425
f 423 105 424
f 422 105 423
f 421 105 422
f 420 105 421
f 419 105 420
f 418 105 419
f 342 247 246
f 341 248 247
f 341 247 342
f 343 342 246
f 340 249 248
f 340 250 249
f 340 248 341
f 344 343 246
f 344 246 245
f 339 250 340
f 345 344 245
f 345 244 243
f 345 245 244
f 338 250 339
f 338 251 250
f 346 243 242
f 346 345 243
f 337 252 251
f 337 251 338
f 347 346 242
f 336 253 252
f 336 252 337
f 348 241 240
f 348 242 241
f 348 347 242
f 335 254 253
f 335 253 336
f 349 348 240
f 334 255 254
f 334 254 335
f 350 240 239
f 350 349 240
f 333 255 334
f 333 256 255
f 351 350 239
f 351 239 238
f 332 256 333
f 332 257 256
f 352 351 238
f 352 237 236
f 352 238 237
f 331 257 332
f 331 258 257
f 331 259 258
f 353 352 236
f 330 259 331
f 354 236 235
f 354 353 236
f 329 260 259
f 329 261 260
f 329 259 330
f 328 261 329
f 327 261 328
f 327 262 261
f 326 137 262
f 326 262 327
f 325 138 137
f 325 139 138
f 325 137 326
f 324 139 325
f 323 140 139
f 323 139 324
f 322 141 140
f 322 140 323
f 321 142 141
f 321 141 322
f 320 143 142
f 320 144 143
f 320 142 321
f 319 144 320
f 318 144 319
f 318 145 144
f 317 146 145
f 317 145 318
f 316 146 317
f 316 147 146
f 315 148 147
f 315 149 148
f 315 147 316
f 314 149 315
f 313 149 314
f 313 150 149
f 312 151 150
f 312 150 313
f 39 355 354
f 39 356 355
f 39 357 356
f 39 358 357
f 39 359 358
f 39 360 359
f 39 361 360
f 39 362 361
f 39 363 362
f 39 364 363
f 39 365 364
f 39 264 263
f 39 366 365
f 39 367 366
f 39 368 367
f 39 369 368
f 39 370 369
f 39 371 370
f 39 372 371
f 39 373 372
f 39 374 373
f 39 375 374
f 39 376 375
f 39 377 376
f 39 378 377
f 39 379 378
f 39 354 235
f 39 380 379
f 39 381 380
f 39 382 381
f 39 383 382
f 39 384 383
f 39 385 384
f 39 235 38
f 39 386 385
f 39 387 386
f 39 388 387
f 39 263 388
f 69 71 70
f 68 39 71
f 68 71 69
f 64 66 65
f 64 67 66
f 63 67 64
f 63 68 67
f 61 68 63
f 61 63 62
f 61 39 68
f 59 39 61
f 59 61 60
f 57 39 59
f 57 59 58
f 55 39 57
f 55 57 56
f 54 39 55
f 53 39 54
f 50 52 51
f 50 53 52
f 50 39 53
f 48 50 49
f 47 50 48
f 46 39 50
f 46 50 47
f 45 39 46
f 44 39 45
f 43 39 44
f 40 42 41
f 40 43 42
f 40 264 39
f 40 265 264
f 40 266 265
f 40 267 266
f 40 268 267
f 40 269 268
f 40 270 269
f 40 271 270
f 40 272 271
f 40 39 43
f 40 273 272
f 40 274 273
f 40 275 274
f 40 276 275
f 40 277 276
f 40 278 277
f 40 279 278
f 40 280 279
f 40 281 280
f 40 282 281
f 40 283 282
f 40 284 283
f 594 311 310
f 593 311 594
f 595 310 309
f 595 594 310
f 592 312 311
f 592 501 151
f 592 151 312
f 592 311 593
f 596 309 308
f 596 595 309
f 591 501 592
f 591 502 501
f 591 503 502
f 597 308 307
f 597 596 308
f 590 503 591
f 598 597 307
f 598 306 305
f 598 307 306
f 589 503 590
f 589 504 503
f 599 598 305
f 599 305 304
f 588 504 589
f 588 505 504
f 588 506 505
f 600 599 304
f 587 506 588
f 601 600 304
f 601 303 302
f 601 304 303
f 586 506 587
f 586 507 506
f 602 601 302
f 602 302 301
f 585 507 586
f 585 508 507
f 603 602 301
f 603 301 300
f 584 508 585
f 584 509 508
f 604 603 300
f 583 510 509
f 583 511 510
f 583 509 584
f 605 604 300
f 605 300 299
f 582 511 583
f 606 605 299
f 606 298 297
f 606 299 298
f 581 512 511
f 581 511 582
f 607 606 297
f 580 513 512
f 580 512 581
f 608 607 297
f 608 296 295
f 608 297 296
f 579 514 513
f 579 513 580
f 609 608 295
f 609 295 294
f 578 389 514
f 578 514 579
f 610 609 294
f 577 390 389
f 577 391 390
f 577 389 578
f 611 610 294
f 611 293 292
f 611 294 293
f 576 391 577
f 612 611 292
f 612 292 291
f 575 391 576
f 575 392 391
f 613 612 291
f 613 291 290
f 574 392 575
f 574 393 392
f 614 613 290
f 573 393 574
f 573 394 393
f 615 614 290
f 615 289 288
f 615 290 289
f 572 395 394
f 572 396 395
f 572 394 573
f 616 615 288
f 616 288 287
f 571 396 572
f 617 616 287
f 570 396 571
f 570 397 396
f 618 617 287
f 618 286 285
f 618 287 286
f 569 397 570
f 569 398 397
f 619 618 285
f 568 398 569
f 568 399 398
f 568 400 399
f 620 285 284
f 620 619 285
f 567 400 568
f 566 400 567
f 566 401 400
f 565 401 566
f 565 402 401
f 564 402 565
f 564 403 402
f 563 403 564
f 563 404 403
f 563 405 404
f 562 405 563
f 561 405 562
f 561 406 405
f 560 406 561
f 560 407 406
f 559 409 408
f 559 407 560
f 559 408 407
f 558 409 559
f 104 516 515
f 104 517 516
f 104 518 517
f 104 519 518
f 104 520 519
f 104 521 520
f 104 522 521
f 104 523 522
f 104 524 523
f 104 525 524
f 104 526 525
f 104 527 526
f 104 528 527
f 104 529 528
f 104 530 529
f 104 531 530
f 104 532 531
f 104 533 532
f 104 534 533
f 104 535 534
f 104 536 535
f 104 537 536
f 104 538 537
f 104 539 538
f 104 515 640
f 104 540 539
f 104 541 540
f 104 542 541
f 104 543 542
f 104 544 543
f 104 545 544
f 104 546 545
f 104 547 546
f 104 548 547
f 104 549 548
f 72 621 620
f 72 622 621
f 72 623 622
f 72 624 623
f 72 625 624
f 72 626 625
f 72 627 626
f 72 628 627
f 72 629 628
f 72 630 629
f 72 631 630
f 72 632 631
f 72 633 632
f 72 634 633
f 72 635 634
f 72 636 635
f 72 637 636
f 72 638 637
f 72 639 638
f 72 640 639
f 72 104 640
f 72 284 40
f 72 620 284
f 102 103 104
f 75 73 74
f 98 99 100
f 98 100 101
f 98 101 102
f 97 102 104
f 97 73 75
f 97 98 102
f 97 72 73
f 97 75 76
f 97 76 77
f 97 77 78
f 97 104 72
f 95 96 97
f 81 78 79
f 81 79 80
f 94 95 97
f 82 78 81
f 93 94 97
f 83 78 82
f 84 78 83
f 91 93 97
f 91 92 93
f 87 78 84
f 87 84 85
f 87 85 86
f 88 97 78
f 88 91 97
f 88 78 87
f 88 89 90
f 88 90 91
f 104 105 418
f 104 418 417
f 104 417 416
f 104 416 415
f 104 415 414
f 104 414 413
f 104 413 412
f 104 412 411
f 104 411 410
f 104 410 409
f 104 409 549
f 549 409 550
f 550 409 551
f 551 409 552
f 552 409 553
f 553 409 554
f 554 409 555
f 555 409 556
f 556 409 557
f 557 409 558
f 676 641 642
f 676 675 641
f 677 642 643
f 677 676 642
f 678 643 644
f 678 677 643
f 679 644 645
f 679 678 644
f 680 645 646
f 680 679 645
f 681 646 647
f 681 680 646
f 682 647 648
f 682 681 647
f 683 648 649
f 683 682 648
f 684 683 649
f 684 649 650
f 685 650 651
f 685 684 650
f 686 651 652
f 686 685 651
f 687 652 653
f 687 686 652
f 688 653 654
f 688 687 653
f 689 654 655
f 689 688 654
f 690 655 656
f 690 689 655
f 691 656 657
f 691 690 656
f 692 657 658
f 692 691 657
f 693 658 659
f 693 692 658
f 694 659 660
f 694 660 661
f 694 693 659
f 695 694 661
f 696 661 662
f 696 695 661
f 697 662 663
f 697 696 662
f 698 663 664
f 698 697 663
f 699 664 665
f 699 665 666
f 699 698 664
f 700 699 666
f 701 666 667
f 701 700 666
f 702 667 668
f 702 701 667
f 703 668 669
f 703 702 668
f 704 669 670
f 704 703 669
f 705 670 671
f 705 704 670
f 706 671 672
f 706 705 671
f 674 672 673
f 674 706 672
f 742 708 707
f 742 707 741
f 743 709 708
f 743 708 742
f 744 710 709
f 744 709 743
f 745 711 710
f 745 710 744
f 746 712 711
f 746 711 745
f 747 713 712
f 747 712 746
f 748 714 713
f 748 713 747
f 749 715 714
f 749 716 715
f 749 714 748
f 750 716 749
f 751 717 716
f 751 716 750
f 752 718 717
f 752 719 718
f 752 717 751
f 753 719 752
f 754 720 719
f 754 719 753
f 755 721 720
f 755 720 754
f 756 722 721
f 756 721 755
f 757 723 722
f 757 724 723
f 757 722 756
f 758 724 757
f 759 725 724
f 759 724 758
f 760 726 725
f 760 725 759
f 761 727 726
f 761 726 760
f 762 728 727
f 762 729 728
f 762 727 761
f 763 729 762
f 764 730 729
f 764 729 763
f 765 731 730
f 765 730 764
f 766 732 731
f 766 733 732
f 766 731 765
f 767 733 766
f 768 734 733
f 768 733 767
f 769 735 734
f 769 734 768
f 770 736 735
f 770 735 769
f 771 737 736
f 771 738 737
f 771 736 770
f 772 738 771
f 740 739 738
f 740 738 772
f 789 791 790
f 786 788 787
f 797 793 792
f 797 794 793
f 797 795 794
f 797 796 795
f 782 784 783
f 782 785 784
f 782 786 785
f 782 788 786
f 799 789 788
f 799 792 791
f 799 798 797
f 799 791 789
f 799 797 792
f 779 781 780
f 779 782 781
f 804 801 800
f 804 802 801
f 804 803 802
f 776 778 777
f 776 779 778
f 805 804 800
f 773 776 775
f 773 800 799
f 773 799 788
f 773 788 782
f 773 782 779
f 773 779 776
f 806 805 800
f 806 800 773
f 878 874 875
f 878 875 876
f 878 876 877
f 879 874 878
f 880 774 874
f 880 874 879
f 882 880 881
f 882 774 880
f 884 882 883
f 884 774 882
f 887 884 885
f 887 885 886
f 889 887 888
f 889 884 887
f 890 884 889
f 891 774 884
f 891 884 890
f 892 774 891
f 893 774 892
f 894 774 893
f 895 774 894
f 897 895 896
f 897 774 895
f 900 897 898
f 900 898 899
f 900 774 897
f 902 900 901
f 903 900 902
f 904 900 903
f 873 773 774
f 873 774 900
f 873 900 904
f 873 806 773
f 837 838 839
f 836 839 807
f 836 837 839
f 832 833 834
f 832 834 835
f 831 835 836
f 831 832 835
f 829 830 831
f 829 836 807
f 829 831 836
f 827 828 829
f 827 829 807
f 825 826 827
f 825 827 807
f 823 824 825
f 823 825 807
f 822 823 807
f 821 822 807
f 818 821 807
f 818 819 820
f 818 820 821
f 816 817 818
f 815 816 818
f 814 818 807
f 814 815 818
f 813 814 807
f 812 813 807
f 811 812 807
f 808 811 807
f 808 809 810
f 808 810 811
f 872 807 806
f 872 806 873
f 840 807 872
f 840 808 807
f 870 872 871
f 843 842 841
f 866 868 867
f 866 869 868
f 866 870 869
f 865 840 872
f 865 872 870
f 865 843 841
f 865 870 866
f 865 841 840
f 865 844 843
f 865 845 844
f 865 846 845
f 863 865 864
f 849 847 846
f 849 848 847
f 862 865 863
f 850 849 846
f 861 865 862
f 851 850 846
f 852 851 846
f 859 865 861
f 859 861 860
f 855 852 846
f 855 853 852
f 855 854 853
f 856 846 865
f 856 865 859
f 856 858 857
f 856 859 858
f 856 855 846
f 908 905 906
f 908 907 905
f 912 910 909
f 912 909 911
f 948 914 913
f 948 913 947
f 949 915 914
f 949 914 948
f 950 916 915
f 950 915 949
f 951 917 916
f 951 916 950
f 952 918 917
f 952 917 951
f 953 919 918
f 953 918 952
f 954 920 919
f 954 919 953
f 955 921 920
f 955 920 954
f 956 921 955
f 956 922 921
f 957 923 922
f 957 922 956
f 958 924 923
f 958 923 957
f 959 925 924
f 959 924 958
f 960 926 925
f 960 925 959
f 961 927 926
f 961 926 960
f 962 928 927
f 962 927 961
f 963 929 928
f 963 928 962
f 964 930 929
f 964 929 963
f 965 931 930
f 965 930 964
f 966 932 931
f 966 933 932
f 966 931 965
f 967 933 966
f 968 934 933
f 968 933 967
f 969 935 934
f 969 934 968
f 970 936 935
f 970 935 969
f 971 937 936
f 971 938 937
f 971 936 970
f 972 938 971
f 973 939 938
f 973 938 972
f 974 940 939
f 974 939 973
f 975 941 940
f 975 940 974
f 976 942 941
f 976 941 975
f 977 943 942
f 977 942 976
f 978 944 943
f 978 943 977
f 946 945 944
f 946 944 978
f 1014 979 980
f 1014 1013 979
f 1015 980 981
f 1015 1014 980
f 1016 981 982
f 1016 1015 981
f 1017 982 983
f 1017 1016 982
f 1018 983 984
f 1018 1017 983
f 1019 984 985
f 1019 1018 984
f 1020 985 986
f 1020 1019 985
f 1021 986 987
f 1021 987 988
f 1021 1020 986
f 1022 1021 988
f 1023 988 989
f 1023 1022 988
f 1024 989 990
f 1024 990 991
f 1024 1023 989
f 1025 1024 991
f 1026 991 992
f 1026 1025 991
f 1027 992 993
f 1027 1026 992
f 1028 993 994
f 1028 1027 993
f 1029 994 995
f 1029 995 996
f 1029 1028 994
f 1030 1029 996
f 1031 996 997
f 1031 1030 996
f 1032 997 998
f 1032 1031 997
f 1033 998 999
f 1033 1032 998
f 1034 999 1000
f 1034 1000 1001
f 1034 1033 999
f 1035 1034 1001
f 1036 1001 1002
f 1036 1035 1001
f 1037 1002 1003
f 1037 1036 1002
f 1038 1003 1004
f 1038 1004 1005
f 1038 1037 1003
f 1039 1038 1005
f 1040 1005 1006
f 1040 1039 1005
f 1041 1006 1007
f 1041 1040 1006
f 1042 1007 1008
f 1042 1041 1007
f 1043 1008 1009
f 1043 1009 1010
f 1043 1042 1008
f 1044 1043 1010
f 1012 1010 1011
f 1012 1044 1010
f 1047 1048 1046
f 1045 1047 1046
f 1050 1049 1176
f 1050 1176 1177
f 1051 1177 1178
f 1051 1178 1179
f 1051 1050 1177
f 1052 1051 1179
f 1053 1179 1180
f 1053 1180 1181
f 1053 1052 1179
f 1054 1053 1181
f 1055 1181 1182
f 1055 1054 1181
f 1056 1182 1183
f 1056 1183 1184
f 1056 1055 1182
f 1057 1056 1184
f 1058 1184 1185
f 1058 1185 1186
f 1058 1057 1184
f 1059 1058 1186
f 1060 1059 1186
f 1060 1186 1187
f 1060 1187 1188
f 1061 1060 1188
f 1062 1061 1188
f 1062 1188 1189
f 1063 1062 1189
f 1063 1189 1190
f 1063 1190 1191
f 1064 1063 1191
f 1064 1191 1192
f 1065 1064 1192
f 1066 1065 1192
f 1066 1192 1193
f 1067 1066 1193
f 1067 1193 1194
f 1068 1067 1194
f 1068 1194 1195
f 1069 1068 1195
f 1069 1195 1196
f 1070 1069 1196
f 1070 1196 1197
f 1071 1070 1197
f 1071 1197 1198
f 1072 1198 1199
f 1072 1071 1198
f 1073 1199 1200
f 1073 1072 1199
f 1074 1200 1201
f 1074 1073 1200
f 1075 1201 1202
f 1075 1202 1203
f 1075 1074 1201
f 1076 1075 1203
f 1077 1203 1204
f 1077 1204 1205
f 1077 1076 1203
f 1078 1077 1205
f 1079 1205 1206
f 1079 1078 1205
f 1080 1206 1207
f 1080 1207 1208
f 1080 1079 1206
f 1081 1080 1208
f 1082 1208 1209
f 1082 1081 1208
f 1083 1209 1210
f 1083 1082 1209
f 1084 1210 1211
f 1084 1083 1210
f 1085 1211 1212
f 1085 1084 1211
f 1086 1085 1212
f 1086 1212 1213
f 1087 1086 1213
f 1087 1213 1214
f 1087 1214 1215
f 1088 1087 1215
f 1089 1088 1215
f 1089 1215 1216
f 1090 1089 1216
f 1090 1216 1217
f 1091 1090 1217
f 1091 1217 1218
f 1092 1091 1218
f 1092 1218 1219
f 1093 1092 1219
f 1093 1219 1220
f 1094 1093 1220
f 1094 1220 1221
f 1094 1221 1222
f 1095 1094 1222
f 1096 1095 1222
f 1096 1222 1223
f 1097 1096 1223
f 1097 1223 1224
f 1098 1097 1224
f 1098 1224 1225
f 1099 1098 1225
f 1099 1225 1226
f 1099 1226 1227
f 1100 1099 1227
f 1101 1100 1227
f 1101 1227 1228
f 1101 1228 1229
f 1102 1101 1229
f 1103 1102 1229
f 1103 1229 1230
f 1104 1103 1230
f 1104 1230 1231
f 1105 1104 1231
f 1105 1231 1232
f 1106 1105 1232
f 1106 1232 1233
f 1106 1233 1234
f 1107 1106 1234
f 1108 1234 1235
f 1108 1107 1234
f 1109 1235 1236
f 1109 1236 1237
f 1109 1108 1235
f 1110 1237 1238
f 1110 1109 1237
f 1111 1110 1238
f 1111 1238 1239
f 1112 1111 1239
f 1112 1239 1240
f 1113 1112 1240
f 1114 1113 1240
f 1114 1240 1241
f 1114 1241 1242
f 1115 1114 1242
f 1115 1242 1243
f 1116 1115 1243
f 1117 1116 1243
f 1117 1243 1244
f 1118 1117 1244
f 1118 1244 1245
f 1118 1245 1246
f 1119 1118 1246
f 1120 1119 1246
f 1120 1246 1247
f 1121 1120 1247
f 1121 1247 1248
f 1122 1121 1248
f 1122 1248 1249
f 1123 1122 1249
f 1123 1249 1250
f 1124 1250 1251
f 1124 1123 1250
f 1125 1251 1252
f 1125 1124 1251
f 1126 1252 1253
f 1126 1125 1252
f 1127 1253 1254
f 1127 1126 1253
f 1128 1254 1255
f 1128 1127 1254
f 1129 1255 1256
f 1129 1128 1255
f 1130 1256 1257
f 1130 1129 1256
f 1131 1257 1258
f 1131 1130 1257
f 1132 1258 1259
f 1132 1259 1260
f 1132 1131 1258
f 1133 1132 1260
f 1134 1260 1261
f 1134 1133 1260
f 1135 1261 1262
f 1135 1262 1263
f 1135 1134 1261
f 1136 1135 1263
f 1137 1136 1263
f 1137 1263 1264
f 1138 1137 1264
f 1138 1264 1265
f 1139 1138 1265
f 1139 1265 1266
f 1139 1266 1267
f 1140 1139 1267
f 1140 1267 1268
f 1141 1140 1268
f 1142 1268 1269
f 1142 1269 1270
f 1142 1141 1268
f 1143 1142 1270
f 1144 1270 1271
f 1144 1143 1270
f 1145 1271 1272
f 1145 1144 1271
f 1146 1272 1273
f 1146 1145 1272
f 1147 1273 1274
f 1147 1146 1273
f 1148 1274 1275
f 1148 1147 1274
f 1149 1275 1276
f 1149 1148 1275
f 1150 1276 1277
f 1150 1149 1276
f 1151 1277 1278
f 1151 1278 1279
f 1151 1150 1277
f 1152 1279 1280
f 1152 1151 1279
f 1153 1280 1281
f 1153 1152 1280
f 1154 1153 1281
f 1155 1281 1282
f 1155 1154 1281
f 1156 1282 1283
f 1156 1155 1282
f 1157 1283 1284
f 1157 1156 1283
f 1158 1284 1285
f 1158 1157 1284
f 1159 1285 1286
f 1159 1158 1285
f 1160 1286 1287
f 1160 1287 1288
f 1160 1159 1286
f 1161 1160 1288
f 1162 1161 1288
f 1162 1288 1289
f 1162 1289 1290
f 1163 1162 1290
f 1164 1163 1290
f 1164 1290 1291
f 1165 1164 1291
f 1165 1291 1292
f 1165 1292 1293
f 1166 1165 1293
f 1167 1166 1293
f 1167 1293 1294
f 1168 1167 1294
f 1168 1294 1295
f 1168 1295 1296
f 1169 1168 1296
f 1170 1169 1296
f 1170 1296 1297
f 1171 1170 1297
f 1171 1297 1298
f 1172 1171 1298
f 1172 1298 1299
f 1173 1172 1299
f 1173 1299 1300
f 1174 1300 1301
f 1174 1173 1300
f 1175 1301 1302
f 1175 1174 1301
f 1304 1303 1430
f 1304 1430 1431
f 1305 1431 1432
f 1305 1432 1433
f 1305 1304 1431
f 1306 1305 1433
f 1307 1433 1434
f 1307 1434 1435
f 1307 1306 1433
f 1308 1307 1435
f 1309 1435 1436
f 1309 1308 1435
f 1310 1436 1437
f 1310 1437 1438
f 1310 1309 1436
f 1311 1310 1438
f 1312 1438 1439
f 1312 1439 1440
f 1312 1311 1438
f 1313 1312 1440
f 1314 1313 1440
f 1314 1440 1441
f 1314 1441 1442
f 1315 1314 1442
f 1316 1315 1442
f 1316 1442 1443
f 1317 1316 1443
f 1317 1443 1444
f 1317 1444 1445
f 1318 1317 1445
f 1318 1445 1446
f 1319 1318 1446
f 1320 1319 1446
f 1320 1446 1447
f 1321 1320 1447
f 1321 1447 1448
f 1322 1321 1448
f 1322 1448 1449
f 1323 1322 1449
f 1323 1449 1450
f 1324 1323 1450
f 1324 1450 1451
f 1325 1324 1451
f 1325 1451 1452
f 1326 1452 1453
f 1326 1325 1452
f 1327 1453 1454
f 1327 1326 1453
f 1328 1454 1455
f 1328 1327 1454
f 1329 1455 1456
f 1329 1456 1457
f 1329 1328 1455
f 1330 1329 1457
f 1331 1457 1458
f 1331 1458 1459
f 1331 1330 1457
f 1332 1331 1459
f 1333 1459 1460
f 1333 1332 1459
f 1334 1460 1461
f 1334 1461 1462
f 1334 1333 1460
f 1335 1334 1462
f 1336 1462 1463
f 1336 1335 1462
f 1337 1463 1464
f 1337 1336 1463
f 1338 1464 1465
f 1338 1337 1464
f 1339 1465 1466
f 1339 1338 1465
f 1340 1339 1466
f 1340 1466 1467
f 1341 1340 1467
f 1341 1467 1468
f 1341 1468 1469
f 1342 1341 1469
f 1343 1342 1469
f 1343 1469 1470
f 1344 1343 1470
f 1344 1470 1471
f 1345 1344 1471
f 1345 1471 1472
f 1346 1345 1472
f 1346 1472 1473
f 1347 1346 1473
f 1347 1473 1474
f 1348 1347 1474
f 1348 1474 1475
f 1348 1475 1476
f 1349 1348 1476
f 1350 1349 1476
f 1350 1476 1477
f 1351 1350 1477
f 1351 1477 1478
f 1352 1351 1478
f 1352 1478 1479
f 1353 1352 1479
f 1353 1479 1480
f 1353 1480 1481
f 1354 1353 1481
f 1355 1354 1481
f 1355 1481 1482
f 1355 1482 1483
f 1356 1355 1483
f 1357 1356 1483
f 1357 1483 1484
f 1358 1357 1484
f 1358 1484 1485
f 1359 1358 1485
f 1359 1485 1486
f 1360 1359 1486
f 1360 1486 1487
f 1360 1487 1488
f 1361 1360 1488
f 1362 1488 1489
f 1362 1361 1488
f 1363 1489 1490
f 1363 1490 1491
f 1363 1362 1489
f 1364 1491 1492
f 1364 1363 1491
f 1365 1364 1492
f 1365 1492 1493
f 1366 1365 1493
f 1366 1493 1494
f 1367 1366 1494
f 1368 1367 1494
f 1368 1494 1495
f 1368 1495 1496
f 1369 1368 1496
f 1369 1496 1497
f 1370 1369 1497
f 1371 1370 1497
f 1371 1497 1498
f 1372 1371 1498
f 1372 1498 1499
f 1372 1499 1500
f 1373 1372 1500
f 1374 1373 1500
f 1374 1500 1501
f 1375 1374 1501
f 1375 1501 1502
f 1376 1375 1502
f 1376 1502 1503
f 1377 1376 1503
f 1377 1503 1504
f 1378 1504 1505
f 1378 1377 1504
f 1379 1505 1506
f 1379 1378 1505
f 1380 1506 1507
f 1380 1379 1506
f 1381 1507 1508
f 1381 1380 1507
f 1382 1508 1509
f 1382 1381 1508
f 1383 1509 1510
f 1383 1382 1509
f 1384 1510 1511
f 1384 1383 1510
f 1385 1511 1512
f 1385 1384 1511
f 1386 1512 1513
f 1386 1513 1514
f 1386 1385 1512
f 1387 1386 1514
f 1388 1514 1515
f 1388 1387 1514
f 1389 1515 1516
f 1389 1516 1517
f 1389 1388 1515
f 1390 1389 1517
f 1391 1390 1517
f 1391 1517 1518
f 1392 1391 1518
f 1392 1518 1519
f 1393 1392 1519
f 1393 1519 1520
f 1393 1520 1521
f 1394 1393 1521
f 1394 1521 1522
f 1395 1394 1522
f 1396 1522 1523
f 1396 1523 1524
f 1396 1395 1522
f 1397 1396 1524
f 1398 1524 1525
f 1398 1397 1524
f 1399 1525 1526
f 1399 1398 1525
f 1400 1526 1527
f 1400 1399 1526
f 1401 1527 1528
f 1401 1400 1527
f 1402 1528 1529
f 1402 1401 1528
f 1403 1529 1530
f 1403 1402 1529
f 1404 1530 1531
f 1404 1403 1530
f 1405 1531 1532
f 1405 1532 1533
f 1405 1404 1531
f 1406 1533 1534
f 1406 1405 1533
f 1407 1534 1535
f 1407 1406 1534
f 1408 1407 1535
f 1409 1535 1536
f 1409 1408 1535
f 1410 1536 1537
f 1410 1409 1536
f 1411 1537 1538
f 1411 1410 1537
f 1412 1538 1539
f 1412 1411 1538
f 1413 1539 1540
f 1413 1412 1539
f 1414 1540 1541
f 1414 1541 1542
f 1414 1413 1540
f 1415 1414 1542
f 1416 1415 1542
f 1416 1542 1543
f 1416 1543 1544
f 1417 1416 1544
f 1418 1417 1544
f 1418 1544 1545
f 1419 1418 1545
f 1419 1545 1546
f 1419 1546 1547
f 1420 1419 1547
f 1421 1420 1547
f 1421 1547 1548
f 1422 1421 1548
f 1422 1548 1549
f 1422 1549 1550
f 1423 1422 1550
f 1424 1423 1550
f 1424 1550 1551
f 1425 1424 1551
f 1425 1551 1552
f 1426 1425 1552
f 1426 1552 1553
f 1427 1426 1553
f 1427 1553 1554
f 1428 1554 1555
f 1428 1427 1554
f 1429 1555 1556
f 1429 1428 1555
f 1558 1557 1684
f 1558 1684 1685
f 1559 1685 1686
f 1559 1686 1687
f 1559 1558 1685
f 1560 1559 1687
f 1561 1687 1688
f 1561 1688 1689
f 1561 1560 1687
f 1562 1561 1689
f 1563 1689 1690
f 1563 1562 1689
f 1564 1690 1691
f 1564 1691 1692
f 1564 1563 1690
f 1565 1564 1692
f 1566 1692 1693
f 1566 1693 1694
f 1566 1565 1692
f 1567 1566 1694
f 1568 1567 1694
f 1568 1694 1695
f 1568 1695 1696
f 1569 1568 1696
f 1570 1569 1696
f 1570 1696 1697
f 1571 1570 1697
f 1571 1697 1698
f 1571 1698 1699
f 1572 1571 1699
f 1572 1699 1700
f 1573 1572 1700
f 1574 1573 1700
f 1574 1700 1701
f 1575 1574 1701
f 1575 1701 1702
f 1576 1575 1702
f 1576 1702 1703
f 1577 1576 1703
f 1577 1703 1704
f 1578 1577 1704
f 1578 1704 1705
f 1579 1578 1705
f 1579 1705 1706
f 1580 1706 1707
f 1580 1579 1706
f 1581 1707 1708
f 1581 1580 1707
f 1582 1708 1709
f 1582 1581 1708
f 1583 1709 1710
f 1583 1710 1711
f 1583 1582 1709
f 1584 1583 1711
f 1585 1711 1712
f 1585 1712 1713
f 1585 1584 1711
f 1586 1585 1713
f 1587 1713 1714
f 1587 1586 1713
f 1588 1714 1715
f 1588 1715 1716
f 1588 1587 1714
f 1589 1588 1716
f 1590 1716 1717
f 1590 1589 1716
f 1591 1717 1718
f 1591 1590 1717
f 1592 1718 1719
f 1592 1591 1718
f 1593 1719 1720
f 1593 1592 1719
f 1594 1593 1720
f 1594 1720 1721
f 1595 1594 1721
f 1595 1721 1722
f 1595 1722 1723
f 1596 1595 1723
f 1597 1596 1723
f 1597 1723 1724
f 1598 1597 1724
f 1598 1724 1725
f 1599 1598 1725
f 1599 1725 1726
f 1600 1599 1726
f 1600 1726 1727
f 1601 1600 1727
f 1601 1727 1728
f 1602 1601 1728
f 1602 1728 1729
f 1602 1729 1730
f 1603 1602 1730
f 1604 1603 1730
f 1604 1730 1731
f 1605 1604 1731
f 1605 1731 1732
f 1606 1605 1732
f 1606 1732 1733
f 1607 1606 1733
f 1607 1733 1734
f 1607 1734 1735
f 1608 1607 1735
f 1609 1608 1735
f 1609 1735 1736
f 1609 1736 1737
f 1610 1609 1737
f 1611 1610 1737
f 1611 1737 1738
f 1612 1611 1738
f 1612 1738 1739
f 1613 1612 1739
f 1613 1739 1740
f 1614 1613 1740
f 1614 1740 1741
f 1614 1741 1742
f 1615 1614 1742
f 1616 1742 1743
f 1616 1615 1742
f 1617 1743 1744
f 1617 1744 1745
f 1617 1616 1743
f 1618 1745 1746
f 1618 1617 1745
f 1619 1618 1746
f 1619 1746 1747
f 1620 1619 1747
f 1620 1747 1748
f 1621 1620 1748
f 1622 1621 1748
f 1622 1748 1749
f 1622 1749 1750
f 1623 1622 1750
f 1623 1750 1751
f 1624 1623 1751
f 1625 1624 1751
f 1625 1751 1752
f 1626 1625 1752
f 1626 1752 1753
f 1626 1753 1754
f 1627 1626 1754
f 1628 1627 1754
f 1628 1754 1755
f 1629 1628 1755
f 1629 1755 1756
f 1630 1629 1756
f 1630 1756 1757
f 1631 1630 1757
f 1631 1757 1758
f 1632 1758 1759
f 1632 1631 1758
f 1633 1759 1760
f 1633 1632 1759
f 1634 1760 1761
f 1634 1633 1760
f 1635 1761 1762
f 1635 1634 1761
f 1636 1762 1763
f 1636 1635 1762
f 1637 1763 1764
f 1637 1636 1763
f 1638 1764 1765
f 1638 1637 1764
f 1639 1765 1766
f 1639 1638 1765
f 1640 1766 1767
f 1640 1767 1768
f 1640 1639 1766
f 1641 1640 1768
f 1642 1768 1769
f 1642 1641 1768
f 1643 1769 1770
f 1643 1770 1771
f 1643 1642 1769
f 1644 1643 1771
f 1645 1644 1771
f 1645 1771 1772
f 1646 1645 1772
f 1646 1772 1773
f 1647 1646 1773
f 1647 1773 1774
f 1647 1774 1775
f 1648 1647 1775
f 1648 1775 1776
f 1649 1648 1776
f 1650 1776 1777
f 1650 1777 1778
f 1650 1649 1776
f 1651 1650 1778
f 1652 1778 1779
f 1652 1651 1778
f 1653 1779 1780
f 1653 1652 1779
f 1654 1780 1781
f 1654 1653 1780
f 1655 1781 1782
f 1655 1654 1781
f 1656 1782 1783
f 1656 1655 1782
f 1657 1783 1784
f 1657 1656 1783
f 1658 1784 1785
f 1658 1657 1784
f 1659 1785 1786
f 1659 1786 1787
f 1659 1658 1785
f 1660 1787 1788
f 1660 1659 1787
f 1661 1788 1789
f 1661 1660 1788
f 1662 1661 1789
f 1663 1789 1790
f 1663 1662 1789
f 1664 1790 1791
f 1664 1663 1790
f 1665 1791 1792
f 1665 1664 1791
f 1666 1792 1793
f 1666 1665 1792
f 1667 1793 1794
f 1667 1666 1793
f 1668 1794 1795
f 1668 1795 1796
f 1668 1667 1794
f 1669 1668 1796
f 1670 1669 1796
f 1670 1796 1797
f 1670 1797 1798
f 1671 1670 1798
f 1672 1671 1798
f 1672 1798 1799
f 1673 1672 1799
f 1673 1799 1800
f 1673 1800 1801
f 1674 1673 1801
f 1675 1674 1801
f 1675 1801 1802
f 1676 1675 1802
f 1676 1802 1803
f 1676 1803 1804
f 1677 1676 1804
f 1678 1677 1804
f 1678 1804 1805
f 1679 1678 1805
f 1679 1805 1806
f 1680 1679 1806
f 1680 1806 1807
f 1681 1680 1807
f 1681 1807 1808
f 1682 1808 1809
f 1682 1681 1808
f 1683 1809 1810
f 1683 1682 1809
f 1812 1811 1938
f 1812 1938 1939
f 1813 1939 1940
f 1813 1940 1941
f 1813 1812 1939
f 1814 1813 1941
f 1815 1941 1942
f 1815 1942 1943
f 1815 1814 1941
f 1816 1815 1943
f 1817 1943 1944
f 1817 1816 1943
f 1818 1944 1945
f 1818 1945 1946
f 1818 1817 1944
f 1819 1818 1946
f 1820 1946 1947
f 1820 1947 1948
f 1820 1819 1946
f 1821 1820 1948
f 1822 1821 1948
f 1822 1948 1949
f 1822 1949 1950
f 1823 1822 1950
f 1824 1823 1950
f 1824 1950 1951
f 1825 1824 1951
f 1825 1951 1952
f 1825 1952 1953
f 1826 1825 1953
f 1826 1953 1954
f 1827 1826 1954
f 1828 1827 1954
f 1828 1954 1955
f 1829 1828 1955
f 1829 1955 1956
f 1830 1829 1956
f 1830 1956 1957
f 1831 1830 1957
f 1831 1957 1958
f 1832 1831 1958
f 1832 1958 1959
f 1833 1832 1959
f 1833 1959 1960
f 1834 1960 1961
f 1834 1833 1960
f 1835 1961 1962
f 1835 1834 1961
f 1836 1962 1963
f 1836 1835 1962
f 1837 1963 1964
f 1837 1964 1965
f 1837 1836 1963
f 1838 1837 1965
f 1839 1965 1966
f 1839 1966 1967
f 1839 1838 1965
f 1840 1839 1967
f 1841 1967 1968
f 1841 1840 1967
f 1842 1968 1969
f 1842 1969 1970
f 1842 1841 1968
f 1843 1842 1970
f 1844 1970 1971
f 1844 1843 1970
f 1845 1971 1972
f 1845 1844 1971
f 1846 1972 1973
f 1846 1845 1972
f 1847 1973 1974
f 1847 1846 1973
f 1848 1847 1974
f 1848 1974 1975
f 1849 1848 1975
f 1849 1975 1976
f 1849 1976 1977
f 1850 1849 1977
f 1851 1850 1977
f 1851 1977 1978
f 1852 1851 1978
f 1852 1978 1979
f 1853 1852 1979
f 1853 1979 1980
f 1854 1853 1980
f 1854 1980 1981
f 1855 1854 1981
f 1855 1981 1982
f 1856 1855 1982
f 1856 1982 1983
f 1856 1983 1984
f 1857 1856 1984
f 1858 1857 1984
f 1858 1984 1985
f 1859 1858 1985
f 1859 1985 1986
f 1860 1859 1986
f 1860 1986 1987
f 1861 1860 1987
f 1861 1987 1988
f 1861 1988 1989
f 1862 1861 1989
f 1863 1862 1989
f 1863 1989 1990
f 1863 1990 1991
f 1864 1863 1991
f 1865 1864 1991
f 1865 1991 1992
f 1866 1865 1992
f 1866 1992 1993
f 1867 1866 1993
f 1867 1993 1994
f 1868 1867 1994
f 1868 1994 1995
f 1868 1995 1996
f 1869 1868 1996
f 1870 1996 1997
f 1870 1869 1996
f 1871 1997 1998
f 1871 1998 1999
f 1871 1870 1997
f 1872 1999 2000
f 1872 1871 1999
f 1873 1872 2000
f 1873 2000 2001
f 1874 1873 2001
f 1874 2001 2002
f 1875 1874 2002
f 1876 1875 2002
f 1876 2002 2003
f 1876 2003 2004
f 1877 1876 2004
f 1877 2004 2005
f 1878 1877 2005
f 1879 1878 2005
f 1879 2005 2006
f 1880 1879 2006
f 1880 2006 2007
f 1880 2007 2008
f 1881 1880 2008
f 1882 1881 2008
f 1882 2008 2009
f 1883 1882 2009
f 1883 2009 2010
f 1884 1883 2010
f 1884 2010 2011
f 1885 1884 2011
f 1885 2011 2012
f 1886 2012 2013
f 1886 1885 2012
f 1887 2013 2014
f 1887 1886 2013
f 1888 2014 2015
f 1888 1887 2014
f 1889 2015 2016
f 1889 1888 2015
f 1890 2016 2017
f 1890 1889 2016
f 1891 2017 2018
f 1891 1890 2017
f 1892 2018 2019
f 1892 1891 2018
f 1893 2019 2020
f 1893 1892 2019
f 1894 2020 2021
f 1894 2021 2022
f 1894 1893 2020
f 1895 1894 2022
f 1896 2022 2023
f 1896 1895 2022
f 1897 2023 2024
f 1897 2024 2025
f 1897 1896 2023
f 1898 1897 2025
f 1899 1898 2025
f 1899 2025 2026
f 1900 1899 2026
f 1900 2026 2027
f 1901 1900 2027
f 1901 2027 2028
f 1901 2028 2029
f 1902 1901 2029
f 1902 2029 2030
f 1903 1902 2030
f 1904 2030 2031
f 1904 2031 2032
f 1904 1903 2030
f 1905 1904 2032
f 1906 2032 2033
f 1906 1905 2032
f 1907 2033 2034
f 1907 1906 2033
f 1908 2034 2035
f 1908 1907 2034
f 1909 2035 2036
f 1909 1908 2035
f 1910 2036 2037
f 1910 1909 2036
f 1911 2037 2038
f 1911 1910 2037
f 1912 2038 2039
f 1912 1911 2038
f 1913 2039 2040
f 1913 2040 2041
f 1913 1912 2039
f 1914 2041 2042
f 1914 1913 2041
f 1915 2042 2043
f 1915 1914 2042
f 1916 1915 2043
f 1917 2043 2044
f 1917 1916 2043
f 1918 2044 2045
f 1918 1917 2044
f 1919 2045 2046
f 1919 1918 2045
f 1920 2046 2047
f 1920 1919 2046
f 1921 2047 2048
f 1921 1920 2047
f 1922 2048 2049
f 1922 2049 2050
f 1922 1921 2048
f 1923 1922 2050
f 1924 1923 2050
f 1924 2050 2051
f 1924 2051 2052
f 1925 1924 2052
f 1926 1925 2052
f 1926 2052 2053
f 1927 1926 2053
f 1927 2053 2054
f 1927 2054 2055
f 1928 1927 2055
f 1929 1928 2055
f 1929 2055 2056
f 1930 1929 2056
f 1930 2056 2057
f 1930 2057 2058
f 1931 1930 2058
f 1932 1931 2058
f 1932 2058 2059
f 1933 1932 2059
f 1933 2059 2060
f 1934 1933 2060
f 1934 2060 2061
f 1935 1934 2061
f 1935 2061 2062
f 1936 2062 2063
f 1936 1935 2062
f 1937 2063 2064
f 1937 1936 2063
f 2146 2144 2145
f 2141 2142 2143
f 2137 2138 2139
f 2137 2139 2140
f 2137 2140 2141
f 2151 2149 2150
f 2135 2136 2137
f 2154 2151 2152
f 2154 2152 2153
f 2156 2151 2154
f 2156 2149 2151
f 2156 2147 2148
f 2156 2148 2149
f 2156 2154 2155
f 2130 2131 2132
f 2130 2132 2133
f 2130 2133 2134
f 2128 2129 2130
f 2160 2156 2157
f 2160 2157 2158
f 2160 2158 2159
f 2162 2160 2161
f 2125 2126 2127
f 2125 2127 2128
f 2164 2162 2163
f 2123 2124 2125
f 2122 2123 2125
f 2166 2160 2162
f 2166 2162 2164
f 2166 2147 2156
f 2166 2156 2160
f 2166 2164 2165
f 2119 2120 2121
f 2119 2121 2122
f 2169 2166 2167
f 2169 2167 2168
f 2169 2147 2166
f 2169 2144 2146
f 2169 2141 2143
f 2169 2137 2141
f 2169 2143 2144
f 2169 2146 2147
f 2172 2170 2171
f 2114 2119 2122
f 2114 2115 2116
f 2114 2116 2117
f 2114 2117 2118
f 2114 2118 2119
f 2114 2135 2137
f 2114 2134 2135
f 2114 2130 2134
f 2114 2122 2125
f 2114 2128 2130
f 2114 2125 2128
f 2174 2172 2173
f 2175 2172 2174
f 2112 2113 2114
f 2176 2170 2172
f 2176 2172 2175
f 2178 2176 2177
f 2178 2170 2176
f 2109 2110 2111
f 2109 2111 2112
f 2179 2169 2170
f 2179 2170 2178
f 2181 2179 2180
f 2106 2107 2108
f 2182 2179 2181
f 2105 2108 2109
f 2105 2106 2108
f 2102 2103 2104
f 2102 2104 2105
f 2186 2182 2183
f 2186 2183 2184
f 2186 2184 2185
f 2101 2102 2105
f 2187 2169 2179
f 2187 2179 2182
f 2187 2182 2186
f 2100 2114 2137
f 2100 2112 2114
f 2100 2109 2112
f 2100 2105 2109
f 2100 2101 2105
f 2188 2169 2187
f 2096 2097 2098
f 2096 2098 2099
f 2066 2188 2189
f 2066 2189 2190
f 2066 2190 2065
f 2094 2095 2096
f 2068 2066 2067
f 2068 2169 2188
f 2068 2188 2066
f 2093 2096 2099
f 2093 2094 2096
f 2093 2099 2100
f 2091 2093 2100
f 2091 2092 2093
f 2071 2069 2070
f 2072 2068 2069
f 2072 2069 2071
f 2088 2089 2090
f 2074 2072 2073
f 2074 2068 2072
f 2087 2088 2090
f 2076 2074 2075
f 2076 2068 2074
f 2085 2086 2087
f 2077 2068 2076
f 2084 2085 2087
f 2083 2084 2087
f 2083 2087 2090
f 2080 2077 2078
f 2080 2078 2079
f 2081 2082 2083
f 2081 2169 2068
f 2081 2090 2091
f 2081 2068 2077
f 2081 2091 2100
f 2081 2083 2090
f 2081 2077 2080
f 2081 2137 2169
f 2081 2100 2137
f 2272 2270 2271
f 2267 2268 2269
f 2263 2264 2265
f 2263 2265 2266
f 2263 2266 2267
f 2277 2275 2276
f 2261 2262 2263
f 2280 2277 2278
f 2280 2278 2279
f 2282 2277 2280
f 2282 2275 2277
f 2282 2273 2274
f 2282 2274 2275
f 2282 2280 2281
f 2256 2257 2258
f 2256 2258 2259
f 2256 2259 2260
f 2254 2255 2256
f 2286 2282 2283
f 2286 2283 2284
f 2286 2284 2285
f 2288 2286 2287
f 2251 2252 2253
f 2251 2253 2254
f 2290 2288 2289
f 2249 2250 2251
f 2248 2249 2251
f 2292 2286 2288
f 2292 2288 2290
f 2292 2273 2282
f 2292 2282 2286
f 2292 2290 2291
f 2245 2246 2247
f 2245 2247 2248
f 2295 2292 2293
f 2295 2293 2294
f 2295 2273 2292
f 2295 2270 2272
f 2295 2267 2269
f 2295 2263 2267
f 2295 2269 2270
f 2295 2272 2273
f 2298 2296 2297
f 2240 2245 2248
f 2240 2241 2242
f 2240 2242 2243
f 2240 2243 2244
f 2240 2244 2245
f 2240 2261 2263
f 2240 2260 2261
f 2240 2256 2260
f 2240 2248 2251
f 2240 2254 2256
f 2240 2251 2254
f 2300 2298 2299
f 2301 2298 2300
f 2238 2239 2240
f 2302 2296 2298
f 2302 2298 2301
f 2304 2302 2303
f 2304 2296 2302
f 2235 2236 2237
f 2235 2237 2238
f 2305 2295 2296
f 2305 2296 2304
f 2307 2305 2306
f 2232 2233 2234
f 2308 2305 2307
f 2231 2234 2235
f 2231 2232 2234
f 2228 2229 2230
f 2228 2230 2231
f 2312 2308 2309
f 2312 2309 2310
f 2312 2310 2311
f 2227 2228 2231
f 2313 2295 2305
f 2313 2305 2308
f 2313 2308 2312
f 2226 2240 2263
f 2226 2238 2240
f 2226 2235 2238
f 2226 2231 2235
f 2226 2227 2231
f 2314 2295 2313
f 2222 2223 2224
f 2222 2224 2225
f 2192 2314 2315
f 2192 2315 2316
f 2192 2316 2191
f 2220 2221 2222
f 2194 2192 2193
f 2194 2295 2314
f 2194 2314 2192
f 2219 2222 2225
f 2219 2220 2222
f 2219 2225 2226
f 2217 2219 2226
f 2217 2218 2219
f 2197 2195 2196
f 2198 2194 2195
f 2198 2195 2197
f 2214 2215 2216
f 2200 2198 2199
f 2200 2194 2198
f 2213 2214 2216
f 2202 2200 2201
f 2202 2194 2200
f 2211 2212 2213
f 2203 2194 2202
f 2210 2211 2213
f 2209 2210 2213
f 2209 2213 2216
f 2206 2203 2204
f 2206 2204 2205
f 2207 2208 2209
f 2207 2295 2194
f 2207 2216 2217
f 2207 2194 2203
f 2207 2217 2226
f 2207 2209 2216
f 2207 2203 2206
f 2207 2263 2295
f 2207 2226 2263
f 2398 2396 2397
f 2393 2394 2395
f 2389 2390 2391
f 2389 2391 2392
f 2389 2392 2393
f 2403 2401 2402
f 2387 2388 2389
f 2406 2403 2404
f 2406 2404 2405
f 2408 2403 2406
f 2408 2401 2403
f 2408 2399 2400
f 2408 2400 2401
f 2408 2406 2407
f 2382 2383 2384
f 2382 2384 2385
f 2382 2385 2386
f 2380 2381 2382
f 2412 2408 2409
f 2412 2409 2410
f 2412 2410 2411
f 2414 2412 2413
f 2377 2378 2379
f 2377 2379 2380
f 2416 2414 2415
f 2375 2376 2377
f 2374 2375 2377
f 2418 2412 2414
f 2418 2414 2416
f 2418 2399 2408
f 2418 2408 2412
f 2418 2416 2417
f 2371 2372 2373
f 2371 2373 2374
f 2421 2418 2419
f 2421 2419 2420
f 2421 2399 2418
f 2421 2396 2398
f 2421 2393 2395
f 2421 2389 2393
f 2421 2395 2396
f 2421 2398 2399
f 2424 2422 2423
f 2366 2371 2374
f 2366 2367 2368
f 2366 2368 2369
f 2366 2369 2370
f 2366 2370 2371
f 2366 2387 2389
f 2366 2386 2387
f 2366 2382 2386
f 2366 2374 2377
f 2366 2380 2382
f 2366 2377 2380
f 2426 2424 2425
f 2427 2424 2426
f 2364 2365 2366
f 2428 2422 2424
f 2428 2424 2427
f 2430 2428 2429
f 2430 2422 2428
f 2361 2362 2363
f 2361 2363 2364
f 2431 2421 2422
f 2431 2422 2430
f 2433 2431 2432
f 2358 2359 2360
f 2434 2431 2433
f 2357 2360 2361
f 2357 2358 2360
f 2354 2355 2356
f 2354 2356 2357
f 2438 2434 2435
f 2438 2435 2436
f 2438 2436 2437
f 2353 2354 2357
f 2439 2421 2431
f 2439 2431 2434
f 2439 2434 2438
f 2352 2366 2389
f 2352 2364 2366
f 2352 2361 2364
f 2352 2357 2361
f 2352 2353 2357
f 2440 2421 2439
f 2348 2349 2350
f 2348 2350 2351
f 2318 2440 2441
f 2318 2441 2442
f 2318 2442 2317
f 2346 2347 2348
f 2320 2318 2319
f 2320 2421 2440
f 2320 2440 2318
f 2345 2348 2351
f 2345 2346 2348
f 2345 2351 2352
f 2343 2345 2352
f 2343 2344 2345
f 2323 2321 2322
f 2324 2320 2321
f 2324 2321 2323
f 2340 2341 2342
f 2326 2324 2325
f 2326 2320 2324
f 2339 2340 2342
f 2328 2326 2327
f 2328 2320 2326
f 2337 2338 2339
f 2329 2320 2328
f 2336 2337 2339
f 2335 2336 2339
f 2335 2339 2342
f 2332 2329 2330
f 2332 2330 2331
f 2333 2334 2335
f 2333 2421 2320
f 2333 2342 2343
f 2333 2320 2329
f 2333 2343 2352
f 2333 2335 2342
f 2333 2329 2332
f 2333 2389 2421
f 2333 2352 2389
f 2524 2522 2523
f 2519 2520 2521
f 2515 2516 2517
f 2515 2517 2518
f 2515 2518 2519
f 2529 2527 2528
f 2513 2514 2515
f 2532 2529 2530
f 2532 2530 2531
f 2534 2529 2532
f 2534 2527 2529
f 2534 2525 2526
f 2534 2526 2527
f 2534 2532 2533
f 2508 2509 2510
f 2508 2510 2511
f 2508 2511 2512
f 2506 2507 2508
f 2538 2534 2535
f 2538 2535 2536
f 2538 2536 2537
f 2540 2538 2539
f 2503 2504 2505
f 2503 2505 2506
f 2542 2540 2541
f 2501 2502 2503
f 2500 2501 2503
f 2544 2538 2540
f 2544 2540 2542
f 2544 2525 2534
f 2544 2534 2538
f 2544 2542 2543
f 2497 2498 2499
f 2497 2499 2500
f 2547 2544 2545
f 2547 2545 2546
f 2547 2525 2544
f 2547 2522 2524
f 2547 2519 2521
f 2547 2515 2519
f 2547 2521 2522
f 2547 2524 2525
f 2550 2548 2549
f 2492 2497 2500
f 2492 2493 2494
f 2492 2494 2495
f 2492 2495 2496
f 2492 2496 2497
f 2492 2513 2515
f 2492 2512 2513
f 2492 2508 2512
f 2492 2500 2503
f 2492 2506 2508
f 2492 2503 2506
f 2552 2550 2551
f 2553 2550 2552
f 2490 2491 2492
f 2554 2548 2550
f 2554 2550 2553
f 2556 2554 2555
f 2556 2548 2554
f 2487 2488 2489
f 2487 2489 2490
f 2557 2547 2548
f 2557 2548 2556
f 2559 2557 2558
f 2484 2485 2486
f 2560 2557 2559
f 2483 2486 2487
f 2483 2484 2486
f 2480 2481 2482
f 2480 2482 2483
f 2564 2560 2561
f 2564 2561 2562
f 2564 2562 2563
f 2479 2480 2483
f 2565 2547 2557
f 2565 2557 2560
f 2565 2560 2564
f 2478 2492 2515
f 2478 2490 2492
f 2478 2487 2490
f 2478 2483 2487
f 2478 2479 2483
f 2566 2547 2565
f 2474 2475 2476
f 2474 2476 2477
f 2444 2566 2567
f 2444 2567 2568
f 2444 2568 2443
f 2472 2473 2474
f 2446 2444 2445
f 2446 2547 2566
f 2446 2566 2444
f 2471 2474 2477
f 2471 2472 2474
f 2471 2477 2478
f 2469 2471 2478
f 2469 2470 2471
f 2449 2447 2448
f 2450 2446 2447
f 2450 2447 2449
f 2466 2467 2468
f 2452 2450 2451
f 2452 2446 2450
f 2465 2466 2468
f 2454 2452 2453
f 2454 2446 2452
f 2463 2464 2465
f 2455 2446 2454
f 2462 2463 2465
f 2461 2462 2465
f 2461 2465 2468
f 2458 2455 2456
f 2458 2456 2457
f 2459 2460 2461
f 2459 2547 2446
f 2459 2468 2469
f 2459 2446 2455
f 2459 2469 2478
f 2459 2461 2468
f 2459 2455 2458
f 2459 2515 2547
f 2459 2478 2515
