# Cadless export: model
v -20 -8 0
v -20 -8 5
v -20 8 0
v -20 8 5
v -20 -8 0
v 20 -8 0
v -20 -8 5
v -10 -8 5
v -10 -8 16
v 10 -8 16
v 10 -8 5
v 20 -8 5
v 5 -8 9
v 4.99378 -8 9.24923
v 4.97515 -8 9.49784
v 4.94415 -8 9.74521
v 4.90086 -8 9.99073
v 4.84539 -8 10.2338
v 4.77786 -8 10.4738
v 4.69846 -8 10.7101
v 4.60738 -8 10.9422
v 4.50484 -8 11.1694
v 4.39111 -8 11.3913
v 4.26645 -8 11.6072
v 4.13119 -8 11.8166
v 3.98566 -8 12.019
v 3.83022 -8 12.2139
v 3.66526 -8 12.4009
v 3.49118 -8 12.5793
v 3.30843 -8 12.7489
v 3.11745 -8 12.9092
v 2.91872 -8 13.0597
v 2.71273 -8 13.2001
v 2.5 -8 13.3301
v 2.28105 -8 13.4494
v 2.05644 -8 13.5575
v 1.82671 -8 13.6544
v 1.59243 -8 13.7396
v 1.3542 -8 13.8131
v 1.1126 -8 13.8746
v 0.868241 -8 13.924
v 0.621719 -8 13.9612
v 0.37365 -8 13.986
v 0.124653 -8 13.9984
v -0.124653 -8 13.9984
v -0.37365 -8 13.986
v -0.621719 -8 13.9612
v -0.868241 -8 13.924
v -1.1126 -8 13.8746
v -1.3542 -8 13.8131
v -1.59243 -8 13.7396
v -1.82671 -8 13.6544
v -2.05644 -8 13.5575
v -2.28105 -8 13.4494
v -2.5 -8 13.3301
v -2.71273 -8 13.2001
v -2.91872 -8 13.0597
v -3.11745 -8 12.9092
v -3.30843 -8 12.7489
v -3.49118 -8 12.5793
v -3.66526 -8 12.4009
v -3.83022 -8 12.2139
v -3.98566 -8 12.019
v -4.13119 -8 11.8166
v -4.26645 -8 11.6072
v -4.39111 -8 11.3913
v -4.50484 -8 11.1694
v -4.60738 -8 10.9422
v -4.69846 -8 10.7101
v -4.77786 -8 10.4738
v -4.84539 -8 10.2338
v -4.90086 -8 9.99073
v -4.94415 -8 9.74521
v -4.97515 -8 9.49784
v -4.99378 -8 9.24923
v -5 -8 9
v -4.99378 -8 8.75077
v -4.97515 -8 8.50216
v -4.94415 -8 8.25479
v -4.90086 -8 8.00927
v -4.84539 -8 7.76621
v -4.77786 -8 7.52622
v -4.69846 -8 7.2899
v -4.60738 -8 7.05783
v -4.50484 -8 6.83058
v -4.39111 -8 6.60873
v -4.26645 -8 6.39282
v -4.13119 -8 6.1834
v -3.98566 -8 5.98098
v -3.83022 -8 5.78606
v -3.66526 -8 5.59914
v -3.49118 -8 5.42067
v -3.30843 -8 5.25109
v -3.11745 -8 5.09084
v -2.91872 -8 4.94031
v -2.71273 -8 4.79987
v -2.5 -8 4.66987
v -2.28105 -8 4.55064
v -2.05644 -8 4.44247
v -1.82671 -8 4.34563
v -1.59243 -8 4.26036
v -1.3542 -8 4.18688
v -1.1126 -8 4.12536
v -0.868241 -8 4.07596
v -0.621719 -8 4.0388
v -0.37365 -8 4.01398
v -0.124653 -8 4.00155
v 0.124653 -8 4.00155
v 0.37365 -8 4.01398
v 0.621719 -8 4.0388
v 0.868241 -8 4.07596
v 1.1126 -8 4.12536
v 1.3542 -8 4.18688
v 1.59243 -8 4.26036
v 1.82671 -8 4.34563
v 2.05644 -8 4.44247
v 2.28105 -8 4.55064
v 2.5 -8 4.66987
v 2.71273 -8 4.79987
v 2.91872 -8 4.94031
v 3.11745 -8 5.09084
v 3.30843 -8 5.25109
v 3.49118 -8 5.42067
v 3.66526 -8 5.59914
v 3.83022 -8 5.78606
v 3.98566 -8 5.98098
v 4.13119 -8 6.1834
v 4.26645 -8 6.39282
v 4.39111 -8 6.60873
v 4.50484 -8 6.83058
v 4.60738 -8 7.05783
v 4.69846 -8 7.2899
v 4.77786 -8 7.52622
v 4.84539 -8 7.76621
v 4.90086 -8 8.00927
v 4.94415 -8 8.25479
v 4.97515 -8 8.50216
v 4.99378 -8 8.75077
v -20 8 5
v -10 8 5
v -20 -8 5
v -10 -8 5
v -20 8 0
v -20 8 5
v -10 8 5
v -10 8 16
v 10 8 16
v 10 8 5
v 20 8 5
v 20 8 0
v 5 8 9
v 4.99378 8 9.24923
v 4.97515 8 9.49784
v 4.94415 8 9.74521
v 4.90086 8 9.99073
v 4.84539 8 10.2338
v 4.77786 8 10.4738
v 4.69846 8 10.7101
v 4.60738 8 10.9422
v 4.50484 8 11.1694
v 4.39111 8 11.3913
v 4.26645 8 11.6072
v 4.13119 8 11.8166
v 3.98566 8 12.019
v 3.83022 8 12.2139
v 3.66526 8 12.4009
v 3.49118 8 12.5793
v 3.30843 8 12.7489
v 3.11745 8 12.9092
v 2.91872 8 13.0597
v 2.71273 8 13.2001
v 2.5 8 13.3301
v 2.28105 8 13.4494
v 2.05644 8 13.5575
v 1.82671 8 13.6544
v 1.59243 8 13.7396
v 1.3542 8 13.8131
v 1.1126 8 13.8746
v 0.868241 8 13.924
v 0.621719 8 13.9612
v 0.37365 8 13.986
v 0.124653 8 13.9984
v -0.124653 8 13.9984
v -0.37365 8 13.986
v -0.621719 8 13.9612
v -0.868241 8 13.924
v -1.1126 8 13.8746
v -1.3542 8 13.8131
v -1.59243 8 13.7396
v -1.82671 8 13.6544
v -2.05644 8 13.5575
v -2.28105 8 13.4494
v -2.5 8 13.3301
v -2.71273 8 13.2001
v -2.91872 8 13.0597
v -3.11745 8 12.9092
v -3.30843 8 12.7489
v -3.49118 8 12.5793
v -3.66526 8 12.4009
v -3.83022 8 12.2139
v -3.98566 8 12.019
v -4.13119 8 11.8166
v -4.26645 8 11.6072
v -4.39111 8 11.3913
v -4.50484 8 11.1694
v -4.60738 8 10.9422
v -4.69846 8 10.7101
v -4.77786 8 10.4738
v -4.84539 8 10.2338
v -4.90086 8 9.99073
v -4.94415 8 9.74521
v -4.97515 8 9.49784
v -4.99378 8 9.24923
v -5 8 9
v -4.99378 8 8.75077
v -4.97515 8 8.50216
v -4.94415 8 8.25479
v -4.90086 8 8.00927
v -4.84539 8 7.76621
v -4.77786 8 7.52622
v -4.69846 8 7.2899
v -4.60738 8 7.05783
v -4.50484 8 6.83058
v -4.39111 8 6.60873
v -4.26645 8 6.39282
v -4.13119 8 6.1834
v -3.98566 8 5.98098
v -3.83022 8 5.78606
v -3.66526 8 5.59914
v -3.49118 8 5.42067
v -3.30843 8 5.25109
v -3.11745 8 5.09084
v -2.91872 8 4.94031
v -2.71273 8 4.79987
v -2.5 8 4.66987
v -2.28105 8 4.55064
v -2.05644 8 4.44247
v -1.82671 8 4.34563
v -1.59243 8 4.26036
v -1.3542 8 4.18688
v -1.1126 8 4.12536
v -0.868241 8 4.07596
v -0.621719 8 4.0388
v -0.37365 8 4.01398
v -0.124653 8 4.00155
v 0.124653 8 4.00155
v 0.37365 8 4.01398
v 0.621719 8 4.0388
v 0.868241 8 4.07596
v 1.1126 8 4.12536
v 1.3542 8 4.18688
v 1.59243 8 4.26036
v 1.82671 8 4.34563
v 2.05644 8 4.44247
v 2.28105 8 4.55064
v 2.5 8 4.66987
v 2.71273 8 4.79987
v 2.91872 8 4.94031
v 3.11745 8 5.09084
v 3.30843 8 5.25109
v 3.49118 8 5.42067
v 3.66526 8 5.59914
v 3.83022 8 5.78606
v 3.98566 8 5.98098
v 4.13119 8 6.1834
v 4.26645 8 6.39282
v 4.39111 8 6.60873
v 4.50484 8 6.83058
v 4.60738 8 7.05783
v 4.69846 8 7.2899
v 4.77786 8 7.52622
v 4.84539 8 7.76621
v 4.90086 8 8.00927
v 4.94415 8 8.25479
v 4.97515 8 8.50216
v 4.99378 8 8.75077
v -20 -8 0
v -20 8 0
v 20 -8 0
v 20 8 0
v 20 -8 0
v 20 -8 5
v 20 8 0
v 20 8 5
v 10 8 5
v 20 8 5
v 10 -8 5
v 20 -8 5
v -10 -8 5
v -10 -8 16
v -10 8 5
v -10 8 16
v 10 -8 5
v 10 -8 16
v 10 8 5
v 10 8 16
v -10 -8 16
v -10 8 16
v 10 -8 16
v 10 8 16
v 5 -8 9
v 4.99378 -8 9.24923
v 4.97515 -8 9.49784
v 4.94415 -8 9.74521
v 4.90086 -8 9.99073
v 4.84539 -8 10.2338
v 4.77786 -8 10.4738
v 4.69846 -8 10.7101
v 4.60738 -8 10.9422
v 4.50484 -8 11.1694
v 4.39111 -8 11.3913
v 4.26645 -8 11.6072
v 4.13119 -8 11.8166
v 3.98566 -8 12.019
v 3.83022 -8 12.2139
v 3.66526 -8 12.4009
v 3.49118 -8 12.5793
v 3.30843 -8 12.7489
v 3.11745 -8 12.9092
v 2.91872 -8 13.0597
v 2.71273 -8 13.2001
v 2.5 -8 13.3301
v 2.28105 -8 13.4494
v 2.05644 -8 13.5575
v 1.82671 -8 13.6544
v 1.59243 -8 13.7396
v 1.3542 -8 13.8131
v 1.1126 -8 13.8746
v 0.868241 -8 13.924
v 0.621719 -8 13.9612
v 0.37365 -8 13.986
v 0.124653 -8 13.9984
v -0.124653 -8 13.9984
v -0.37365 -8 13.986
v -0.621719 -8 13.9612
v -0.868241 -8 13.924
v -1.1126 -8 13.8746
v -1.3542 -8 13.8131
v -1.59243 -8 13.7396
v -1.82671 -8 13.6544
v -2.05644 -8 13.5575
v -2.28105 -8 13.4494
v -2.5 -8 13.3301
v -2.71273 -8 13.2001
v -2.91872 -8 13.0597
v -3.11745 -8 12.9092
v -3.30843 -8 12.7489
v -3.49118 -8 12.5793
v -3.66526 -8 12.4009
v -3.83022 -8 12.2139
v -3.98566 -8 12.019
v -4.13119 -8 11.8166
v -4.26645 -8 11.6072
v -4.39111 -8 11.3913
v -4.50484 -8 11.1694
v -4.60738 -8 10.9422
v -4.69846 -8 10.7101
v -4.77786 -8 10.4738
v -4.84539 -8 10.2338
v -4.90086 -8 9.99073
v -4.94415 -8 9.74521
v -4.97515 -8 9.49784
v -4.99378 -8 9.24923
v -5 -8 9
v -4.99378 -8 8.75077
v -4.97515 -8 8.50216
v -4.94415 -8 8.25479
v -4.90086 -8 8.00927
v -4.84539 -8 7.76621
v -4.77786 -8 7.52622
v -4.69846 -8 7.2899
v -4.60738 -8 7.05783
v -4.50484 -8 6.83058
v -4.39111 -8 6.60873
v -4.26645 -8 6.39282
v -4.13119 -8 6.1834
v -3.98566 -8 5.98098
v -3.83022 -8 5.78606
v -3.66526 -8 5.59914
v -3.49118 -8 5.42067
v -3.30843 -8 5.25109
v -3.11745 -8 5.09084
v -2.91872 -8 4.94031
v -2.71273 -8 4.79987
v -2.5 -8 4.66987
v -2.28105 -8 4.55064
v -2.05644 -8 4.44247
v -1.82671 -8 4.34563
v -1.59243 -8 4.26036
v -1.3542 -8 4.18688
v -1.1126 -8 4.12536
v -0.868241 -8 4.07596
v -0.621719 -8 4.0388
v -0.37365 -8 4.01398
v -0.124653 -8 4.00155
v 0.124653 -8 4.00155
v 0.37365 -8 4.01398
v 0.621719 -8 4.0388
v 0.868241 -8 4.07596
v 1.1126 -8 4.12536
v 1.3542 -8 4.18688
v 1.59243 -8 4.26036
v 1.82671 -8 4.34563
v 2.05644 -8 4.44247
v 2.28105 -8 4.55064
v 2.5 -8 4.66987
v 2.71273 -8 4.79987
v 2.91872 -8 4.94031
v 3.11745 -8 5.09084
v 3.30843 -8 5.25109
v 3.49118 -8 5.42067
v 3.66526 -8 5.59914
v 3.83022 -8 5.78606
v 3.98566 -8 5.98098
v 4.13119 -8 6.1834
v 4.26645 -8 6.39282
v 4.39111 -8 6.60873
v 4.50484 -8 6.83058
v 4.60738 -8 7.05783
v 4.69846 -8 7.2899
v 4.77786 -8 7.52622
v 4.84539 -8 7.76621
v 4.90086 -8 8.00927
v 4.94415 -8 8.25479
v 4.97515 -8 8.50216
v 4.99378 -8 8.75077
v 5 -8 9
v 5 8 9
v 4.99378 8 9.24923
v 4.97515 8 9.49784
v 4.94415 8 9.74521
v 4.90086 8 9.99073
v 4.84539 8 10.2338
v 4.77786 8 10.4738
v 4.69846 8 10.7101
v 4.60738 8 10.9422
v 4.50484 8 11.1694
v 4.39111 8 11.3913
v 4.26645 8 11.6072
v 4.13119 8 11.8166
v 3.98566 8 12.019
v 3.83022 8 12.2139
v 3.66526 8 12.4009
v 3.49118 8 12.5793
v 3.30843 8 12.7489
v 3.11745 8 12.9092
v 2.91872 8 13.0597
v 2.71273 8 13.2001
v 2.5 8 13.3301
v 2.28105 8 13.4494
v 2.05644 8 13.5575
v 1.82671 8 13.6544
v 1.59243 8 13.7396
v 1.3542 8 13.8131
v 1.1126 8 13.8746
v 0.868241 8 13.924
v 0.621719 8 13.9612
v 0.37365 8 13.986
v 0.124653 8 13.9984
v -0.124653 8 13.9984
v -0.37365 8 13.986
v -0.621719 8 13.9612
v -0.868241 8 13.924
v -1.1126 8 13.8746
v -1.3542 8 13.8131
v -1.59243 8 13.7396
v -1.82671 8 13.6544
v -2.05644 8 13.5575
v -2.28105 8 13.4494
v -2.5 8 13.3301
v -2.71273 8 13.2001
v -2.91872 8 13.0597
v -3.11745 8 12.9092
v -3.30843 8 12.7489
v -3.49118 8 12.5793
v -3.66526 8 12.4009
v -3.83022 8 12.2139
v -3.98566 8 12.019
v -4.13119 8 11.8166
v -4.26645 8 11.6072
v -4.39111 8 11.3913
v -4.50484 8 11.1694
v -4.60738 8 10.9422
v -4.69846 8 10.7101
v -4.77786 8 10.4738
v -4.84539 8 10.2338
v -4.90086 8 9.99073
v -4.94415 8 9.74521
v -4.97515 8 9.49784
v -4.99378 8 9.24923
v -5 8 9
v -4.99378 8 8.75077
v -4.97515 8 8.50216
v -4.94415 8 8.25479
v -4.90086 8 8.00927
v -4.84539 8 7.76621
v -4.77786 8 7.52622
v -4.69846 8 7.2899
v -4.60738 8 7.05783
v -4.50484 8 6.83058
v -4.39111 8 6.60873
v -4.26645 8 6.39282
v -4.13119 8 6.1834
v -3.98566 8 5.98098
v -3.83022 8 5.78606
v -3.66526 8 5.59914
v -3.49118 8 5.42067
v -3.30843 8 5.25109
v -3.11745 8 5.09084
v -2.91872 8 4.94031
v -2.71273 8 4.79987
v -2.5 8 4.66987
v -2.28105 8 4.55064
v -2.05644 8 4.44247
v -1.82671 8 4.34563
v -1.59243 8 4.26036
v -1.3542 8 4.18688
v -1.1126 8 4.12536
v -0.868241 8 4.07596
v -0.621719 8 4.0388
v -0.37365 8 4.01398
v -0.124653 8 4.00155
v 0.124653 8 4.00155
v 0.37365 8 4.01398
v 0.621719 8 4.0388
v 0.868241 8 4.07596
v 1.1126 8 4.12536
v 1.3542 8 4.18688
v 1.59243 8 4.26036
v 1.82671 8 4.34563
v 2.05644 8 4.44247
v 2.28105 8 4.55064
v 2.5 8 4.66987
v 2.71273 8 4.79987
v 2.91872 8 4.94031
v 3.11745 8 5.09084
v 3.30843 8 5.25109
v 3.49118 8 5.42067
v 3.66526 8 5.59914
v 3.83022 8 5.78606
v 3.98566 8 5.98098
v 4.13119 8 6.1834
v 4.26645 8 6.39282
v 4.39111 8 6.60873
v 4.50484 8 6.83058
v 4.60738 8 7.05783
v 4.69846 8 7.2899
v 4.77786 8 7.52622
v 4.84539 8 7.76621
v 4.90086 8 8.00927
v 4.94415 8 8.25479
v 4.97515 8 8.50216
v 4.99378 8 8.75077
v 5 8 9
f 2 3 1
f 2 4 3
f 8 7 5
f 91 8 92
f 93 92 8
f 90 8 91
f 94 93 8
f 89 8 90
f 95 94 8
f 88 8 89
f 96 95 8
f 87 8 88
f 97 96 8
f 86 8 87
f 98 97 8
f 85 8 86
f 99 98 8
f 84 8 85
f 100 99 8
f 83 8 84
f 101 8 5
f 101 100 8
f 82 8 83
f 102 101 5
f 81 8 82
f 103 102 5
f 80 8 81
f 104 103 5
f 79 8 80
f 105 104 5
f 78 8 79
f 106 105 5
f 77 8 78
f 76 8 77
f 75 8 76
f 74 8 75
f 73 8 74
f 9 8 73
f 9 71 70
f 9 72 71
f 9 73 72
f 69 9 70
f 68 9 69
f 67 9 68
f 66 9 67
f 65 9 66
f 64 9 65
f 63 9 64
f 62 9 63
f 61 9 62
f 60 9 61
f 59 9 60
f 58 9 59
f 57 9 58
f 56 9 57
f 55 9 56
f 54 9 55
f 53 9 54
f 52 9 53
f 51 9 52
f 50 9 51
f 49 9 50
f 48 9 49
f 47 9 48
f 46 9 47
f 45 9 46
f 11 115 114
f 11 14 13
f 11 116 115
f 11 15 14
f 11 117 116
f 11 16 15
f 11 118 117
f 11 119 118
f 11 120 119
f 11 121 120
f 11 122 121
f 11 123 122
f 11 124 123
f 11 125 124
f 11 126 125
f 11 127 126
f 11 128 127
f 11 129 128
f 11 130 129
f 11 131 130
f 11 132 131
f 11 133 132
f 11 134 133
f 11 135 134
f 11 136 135
f 11 137 136
f 11 138 137
f 11 13 138
f 6 109 108
f 6 110 109
f 6 111 110
f 6 112 111
f 6 113 112
f 6 114 113
f 6 11 114
f 12 11 6
f 10 17 16
f 10 18 17
f 10 19 18
f 10 20 19
f 10 21 20
f 10 22 21
f 10 23 22
f 10 24 23
f 10 25 24
f 10 26 25
f 10 27 26
f 10 28 27
f 10 29 28
f 10 30 29
f 10 31 30
f 10 32 31
f 10 9 45
f 10 33 32
f 10 34 33
f 10 35 34
f 10 36 35
f 10 37 36
f 10 38 37
f 10 39 38
f 10 40 39
f 10 41 40
f 10 42 41
f 10 43 42
f 10 44 43
f 10 45 44
f 10 16 11
f 6 107 5
f 107 106 5
f 6 108 107
f 139 141 142
f 140 139 142
f 145 143 144
f 229 230 145
f 231 145 230
f 228 229 145
f 232 145 231
f 227 228 145
f 233 145 232
f 226 227 145
f 234 145 233
f 225 226 145
f 235 145 234
f 224 225 145
f 236 145 235
f 223 224 145
f 237 145 236
f 222 223 145
f 238 145 237
f 221 222 145
f 239 143 145
f 239 145 238
f 220 221 145
f 240 143 239
f 219 220 145
f 241 143 240
f 218 219 145
f 242 143 241
f 217 218 145
f 243 143 242
f 216 217 145
f 244 143 243
f 215 216 145
f 214 215 145
f 213 214 145
f 212 213 145
f 211 212 145
f 146 211 145
f 146 208 209
f 146 209 210
f 146 210 211
f 207 208 146
f 206 207 146
f 205 206 146
f 204 205 146
f 203 204 146
f 202 203 146
f 201 202 146
f 200 201 146
f 199 200 146
f 198 199 146
f 197 198 146
f 196 197 146
f 195 196 146
f 194 195 146
f 193 194 146
f 192 193 146
f 191 192 146
f 190 191 146
f 189 190 146
f 188 189 146
f 187 188 146
f 186 187 146
f 185 186 146
f 184 185 146
f 183 184 146
f 148 252 253
f 148 151 152
f 148 253 254
f 148 152 153
f 148 254 255
f 148 153 154
f 148 255 256
f 148 256 257
f 148 257 258
f 148 258 259
f 148 259 260
f 148 260 261
f 148 261 262
f 148 262 263
f 148 263 264
f 148 264 265
f 148 265 266
f 148 266 267
f 148 267 268
f 148 268 269
f 148 269 270
f 148 270 271
f 148 271 272
f 148 272 273
f 148 273 274
f 148 274 275
f 148 275 276
f 148 276 151
f 150 246 247
f 150 247 248
f 150 248 249
f 150 249 250
f 150 250 251
f 150 251 252
f 150 252 148
f 149 150 148
f 147 154 155
f 147 155 156
f 147 156 157
f 147 157 158
f 147 158 159
f 147 159 160
f 147 160 161
f 147 161 162
f 147 162 163
f 147 163 164
f 147 164 165
f 147 165 166
f 147 166 167
f 147 167 168
f 147 168 169
f 147 169 170
f 147 183 146
f 147 170 171
f 147 171 172
f 147 172 173
f 147 173 174
f 147 174 175
f 147 175 176
f 147 176 177
f 147 177 178
f 147 178 179
f 147 179 180
f 147 180 181
f 147 181 182
f 147 182 183
f 147 148 154
f 150 143 245
f 245 143 244
f 150 245 246
f 280 277 278
f 280 279 277
f 282 281 283
f 282 283 284
f 285 287 288
f 286 285 288
f 290 291 289
f 290 292 291
f 294 293 295
f 294 295 296
f 299 298 297
f 300 298 299
f 302 428 301
f 302 429 428
f 303 430 429
f 303 429 302
f 304 431 430
f 304 432 431
f 304 430 303
f 305 433 432
f 305 432 304
f 306 433 305
f 307 434 433
f 307 435 434
f 307 433 306
f 308 436 435
f 308 435 307
f 309 436 308
f 310 437 436
f 310 436 309
f 311 438 437
f 311 439 438
f 311 437 310
f 312 439 311
f 312 440 439
f 313 440 312
f 314 440 313
f 314 441 440
f 314 442 441
f 315 442 314
f 316 442 315
f 316 443 442
f 317 443 316
f 317 444 443
f 318 444 317
f 318 445 444
f 319 445 318
f 319 446 445
f 320 446 319
f 320 447 446
f 321 447 320
f 321 448 447
f 321 449 448
f 322 449 321
f 323 449 322
f 323 450 449
f 324 451 450
f 324 450 323
f 324 452 451
f 325 452 324
f 326 453 452
f 326 452 325
f 327 454 453
f 327 453 326
f 328 455 454
f 328 454 327
f 329 456 455
f 329 455 328
f 330 457 456
f 330 456 329
f 331 458 457
f 331 457 330
f 332 459 458
f 332 458 331
f 333 460 459
f 333 459 332
f 334 461 460
f 334 462 461
f 334 460 333
f 335 462 334
f 336 463 462
f 336 462 335
f 337 464 463
f 337 465 464
f 337 463 336
f 338 465 337
f 338 466 465
f 339 466 338
f 340 466 339
f 340 467 466
f 341 467 340
f 341 468 467
f 342 468 341
f 342 469 468
f 343 469 342
f 343 470 469
f 344 470 343
f 344 471 470
f 345 471 344
f 345 472 471
f 346 472 345
f 346 473 472
f 346 474 473
f 347 474 346
f 348 474 347
f 348 475 474
f 349 475 348
f 349 476 475
f 350 476 349
f 350 477 476
f 351 477 350
f 351 478 477
f 352 478 351
f 352 479 478
f 352 480 479
f 353 480 352
f 353 481 480
f 354 481 353
f 355 481 354
f 355 482 481
f 356 482 355
f 356 483 482
f 357 483 356
f 357 484 483
f 358 484 357
f 358 485 484
f 359 486 485
f 359 485 358
f 360 487 486
f 360 486 359
f 361 488 487
f 361 487 360
f 362 489 488
f 362 490 489
f 362 488 361
f 363 490 362
f 364 490 363
f 364 491 490
f 365 491 364
f 365 492 491
f 366 492 365
f 366 493 492
f 366 494 493
f 367 494 366
f 367 495 494
f 368 495 367
f 369 495 368
f 369 496 495
f 370 496 369
f 370 497 496
f 371 497 370
f 371 498 497
f 371 499 498
f 372 499 371
f 373 499 372
f 373 500 499
f 374 500 373
f 374 501 500
f 375 503 502
f 375 501 374
f 375 502 501
f 376 503 375
f 377 504 503
f 377 503 376
f 378 505 504
f 378 506 505
f 378 504 377
f 379 506 378
f 380 507 506
f 380 506 379
f 381 508 507
f 381 507 380
f 382 509 508
f 382 508 381
f 383 510 509
f 383 509 382
f 384 511 510
f 384 510 383
f 385 512 511
f 385 513 512
f 385 511 384
f 386 513 385
f 387 514 513
f 387 515 514
f 387 513 386
f 388 515 387
f 389 515 388
f 389 516 515
f 389 517 516
f 390 517 389
f 390 518 517
f 391 518 390
f 392 519 518
f 392 520 519
f 392 518 391
f 393 520 392
f 394 521 520
f 394 520 393
f 395 522 521
f 395 523 522
f 395 521 394
f 396 523 395
f 397 524 523
f 397 525 524
f 397 523 396
f 398 525 397
f 399 526 525
f 399 525 398
f 400 527 526
f 400 526 399
f 401 528 527
f 401 527 400
f 402 529 528
f 402 530 529
f 402 528 401
f 403 530 402
f 404 531 530
f 404 530 403
f 405 532 531
f 405 531 404
f 406 533 532
f 406 534 533
f 406 532 405
f 407 534 406
f 408 535 534
f 408 534 407
f 409 536 535
f 409 537 536
f 409 535 408
f 410 537 409
f 411 538 537
f 411 537 410
f 412 539 538
f 412 540 539
f 412 538 411
f 413 540 412
f 414 540 413
f 414 541 540
f 414 542 541
f 415 542 414
f 415 543 542
f 416 543 415
f 417 543 416
f 417 544 543
f 418 544 417
f 418 545 544
f 419 545 418
f 419 546 545
f 420 546 419
f 420 547 546
f 421 547 420
f 421 548 547
f 421 549 548
f 422 549 421
f 423 549 422
f 423 550 549
f 423 551 550
f 424 551 423
f 425 551 424
f 425 552 551
f 426 553 552
f 426 552 425
f 426 554 553
f 427 554 426
