# Cadless export: model
v 40 -30 -15
v 40 -30 15
v 40 30 -15
v 40 30 15
v -40 -30 -15
v 40 -30 -15
v -40 -30 15
v 40 -30 15
v -40 -30 -15
v -40 -30 15
v -40 30 -15
v -40 30 15
v -40 30 -15
v 40 30 -15
v -40 30 15
v 40 30 15
v -40 -30 -15
v -40 30 -15
v 40 -30 -15
v 40 30 -15
v -40 -30 15
v -40 30 15
v 40 -30 15
v 40 30 15
v 37 -27 15
v 37 27 15
v -37 -27 15
v -37 27 15
v -37 -27 15
v -37 27 15
v -37 -27 -12
v -37 27 -12
v -37 27 15
v 37 27 15
v 37 27 -12
v -37 27 -12
v 37 -27 15
v 37 27 15
v 37 -27 -12
v 37 27 -12
v -37 -27 15
v 37 -27 15
v 37 -27 -12
v -37 -27 -12
v -37 27 -12
v -37 -27 -12
v 37 -27 -12
v 37 27 -12
f 1 3 4
f 2 1 4
f 6 7 5
f 8 7 6
f 9 12 11
f 10 12 9
f 14 13 15
f 16 14 15
f 20 17 18
f 20 19 17
f 22 21 27
f 28 22 27
f 25 21 23
f 25 27 21
f 26 25 23
f 24 26 23
f 24 22 28
f 24 28 26
f 29 31 32
f 29 32 30
f 35 33 36
f 34 33 35
f 37 40 39
f 37 38 40
f 43 44 41
f 42 43 41
f 47 45 46
f 48 45 47
