# Cadless export: model
v -800 -450 720
v -800 -450 750
v -800 450 720
v -800 450 750
v 800 -450 720
v 800 -450 750
v 800 450 720
v 800 450 750
v -800 -450 720
v 800 -450 720
v -800 -450 750
v 800 -450 750
v -800 450 720
v 800 450 720
v -800 450 750
v 800 450 750
v -800 -450 720
v -800 450 720
v 800 -450 720
v 800 450 720
v -800 -450 750
v -800 450 750
v 800 -450 750
v 800 450 750
f 2 3 1
f 2 4 3
f 6 5 7
f 6 7 8
f 10 11 9
f 12 11 10
f 14 13 15
f 16 14 15
f 19 17 18
f 20 19 18
f 23 22 21
f 24 22 23
