# Cadless export: model
v 0 -20 0
v 0 -20 60
v 0 20 0
v 0 20 60
v 1.11022e-16 -6.73556e-16 32.25
v 3.04932e-16 0.137076 32.2534
v 3.03794e-16 0.273812 32.2637
v 3.01901e-16 0.409866 32.2807
v 2.99258e-16 0.544902 32.3045
v 2.9587e-16 0.678583 32.335
v 2.91747e-16 0.810577 32.3722
v 2.86899e-16 0.940555 32.4158
v 2.81337e-16 1.0682 32.4659
v 2.75076e-16 1.19318 32.5223
v 2.68131e-16 1.3152 32.5849
v 2.60519e-16 1.43395 32.6535
v 2.5226e-16 1.54913 32.7278
v 2.43374e-16 1.66046 32.8079
v 2.33882e-16 1.76767 32.8934
v 2.23809e-16 1.87048 32.9841
v 2.1318e-16 1.96863 33.0798
v 2.0202e-16 2.0619 33.1804
v 1.90359e-16 2.15004 33.2854
v 1.78224e-16 2.23283 33.3947
v 1.65646e-16 2.31007 33.508
v 1.52656e-16 2.38157 33.625
v 1.39286e-16 2.44715 33.7454
v 1.25571e-16 2.50664 33.869
v 1.11543e-16 2.5599 33.9953
v 9.72376e-17 2.6068 34.1242
v 8.26907e-17 2.64722 34.2552
v 6.79382e-17 2.68105 34.3881
v 5.30168e-17 2.70822 34.5225
v 3.79635e-17 2.72866 34.6581
v 2.28159e-17 2.74231 34.7945
v 7.61162e-18 2.74915 34.9314
v -7.61162e-18 2.74915 35.0686
v -2.28159e-17 2.74231 35.2055
v -3.79635e-17 2.72866 35.3419
v -5.30168e-17 2.70822 35.4775
v -6.79382e-17 2.68105 35.6119
v -8.26907e-17 2.64722 35.7448
v -9.72376e-17 2.6068 35.8758
v -1.11543e-16 2.5599 36.0047
v -1.25571e-16 2.50664 36.131
v -1.39286e-16 2.44715 36.2546
v -1.52656e-16 2.38157 36.375
v -1.65646e-16 2.31007 36.492
v -1.78224e-16 2.23283 36.6053
v -1.90359e-16 2.15004 36.7146
v -2.0202e-16 2.0619 36.8196
v -2.1318e-16 1.96863 36.9202
v -2.23809e-16 1.87048 37.0159
v -2.33882e-16 1.76767 37.1066
v -2.43374e-16 1.66046 37.1921
v -2.5226e-16 1.54913 37.2722
v -2.60519e-16 1.43395 37.3465
v -2.68131e-16 1.3152 37.4151
v -2.75076e-16 1.19318 37.4777
v -2.81337e-16 1.0682 37.5341
v -2.86899e-16 0.940555 37.5842
v -2.91747e-16 0.810577 37.6278
v -2.9587e-16 0.678583 37.665
v -2.99258e-16 0.544902 37.6955
v -3.01901e-16 0.409866 37.7193
v -3.03794e-16 0.273812 37.7363
v -3.04932e-16 0.137076 37.7466
v -3.05311e-16 -9.43318e-15 37.75
v -3.04932e-16 -0.137076 37.7466
v -3.03794e-16 -0.273812 37.7363
v -3.01901e-16 -0.409866 37.7193
v -2.99258e-16 -0.544902 37.6955
v -2.9587e-16 -0.678583 37.665
v -2.91747e-16 -0.810577 37.6278
v -2.86899e-16 -0.940555 37.5842
v -2.81337e-16 -1.0682 37.5341
v -2.75076e-16 -1.19318 37.4777
v -2.68131e-16 -1.3152 37.4151
v -2.60519e-16 -1.43395 37.3465
v -2.5226e-16 -1.54913 37.2722
v -2.43374e-16 -1.66046 37.1921
v -2.33882e-16 -1.76767 37.1066
v -2.23809e-16 -1.87048 37.0159
v -2.1318e-16 -1.96863 36.9202
v -2.0202e-16 -2.0619 36.8196
v -1.90359e-16 -2.15004 36.7146
v -1.78224e-16 -2.23283 36.6053
v -1.65646e-16 -2.31007 36.492
v -1.52656e-16 -2.38157 36.375
v -1.39286e-16 -2.44715 36.2546
v -1.25571e-16 -2.50664 36.131
v -1.11543e-16 -2.5599 36.0047
v -9.72376e-17 -2.6068 35.8758
v -8.26907e-17 -2.64722 35.7448
v -6.79382e-17 -2.68105 35.6119
v -5.30168e-17 -2.70822 35.4775
v -3.79635e-17 -2.72866 35.3419
v -2.28159e-17 -2.74231 35.2055
v -7.61162e-18 -2.74915 35.0686
v 7.61162e-18 -2.74915 34.9314
v 2.28159e-17 -2.74231 34.7945
v 3.79635e-17 -2.72866 34.6581
v 5.30168e-17 -2.70822 34.5225
v 6.79382e-17 -2.68105 34.3881
v 8.26907e-17 -2.64722 34.2552
v 9.72376e-17 -2.6068 34.1242
v 1.11543e-16 -2.5599 33.9953
v 1.25571e-16 -2.50664 33.869
v 1.39286e-16 -2.44715 33.7454
v 1.52656e-16 -2.38157 33.625
v 1.65646e-16 -2.31007 33.508
v 1.78224e-16 -2.23283 33.3947
v 1.90359e-16 -2.15004 33.2854
v 2.0202e-16 -2.0619 33.1804
v 2.1318e-16 -1.96863 33.0798
v 2.23809e-16 -1.87048 32.9841
v 2.33882e-16 -1.76767 32.8934
v 2.43374e-16 -1.66046 32.8079
v 2.5226e-16 -1.54913 32.7278
v 2.60519e-16 -1.43395 32.6535
v 2.68131e-16 -1.3152 32.5849
v 2.75076e-16 -1.19318 32.5223
v 2.81337e-16 -1.0682 32.4659
v 2.86899e-16 -0.940555 32.4158
v 2.91747e-16 -0.810577 32.3722
v 2.9587e-16 -0.678583 32.335
v 2.99258e-16 -0.544902 32.3045
v 3.01901e-16 -0.409866 32.2807
v 3.03794e-16 -0.273812 32.2637
v 3.04932e-16 -0.137076 32.2534
v 1.11022e-16 -6.73556e-16 47.25
v 3.04932e-16 0.137076 47.2534
v 3.03794e-16 0.273812 47.2637
v 3.01901e-16 0.409866 47.2807
v 2.99258e-16 0.544902 47.3045
v 2.9587e-16 0.678583 47.335
v 2.91747e-16 0.810577 47.3722
v 2.86899e-16 0.940555 47.4158
v 2.81337e-16 1.0682 47.4659
v 2.75076e-16 1.19318 47.5223
v 2.68131e-16 1.3152 47.5849
v 2.60519e-16 1.43395 47.6535
v 2.5226e-16 1.54913 47.7278
v 2.43374e-16 1.66046 47.8079
v 2.33882e-16 1.76767 47.8934
v 2.23809e-16 1.87048 47.9841
v 2.1318e-16 1.96863 48.0798
v 2.0202e-16 2.0619 48.1804
v 1.90359e-16 2.15004 48.2854
v 1.78224e-16 2.23283 48.3947
v 1.65646e-16 2.31007 48.508
v 1.52656e-16 2.38157 48.625
v 1.39286e-16 2.44715 48.7454
v 1.25571e-16 2.50664 48.869
v 1.11543e-16 2.5599 48.9953
v 9.72376e-17 2.6068 49.1242
v 8.26907e-17 2.64722 49.2552
v 6.79382e-17 2.68105 49.3881
v 5.30168e-17 2.70822 49.5225
v 3.79635e-17 2.72866 49.6581
v 2.28159e-17 2.74231 49.7945
v 7.61162e-18 2.74915 49.9314
v -7.61162e-18 2.74915 50.0686
v -2.28159e-17 2.74231 50.2055
v -3.79635e-17 2.72866 50.3419
v -5.30168e-17 2.70822 50.4775
v -6.79382e-17 2.68105 50.6119
v -8.26907e-17 2.64722 50.7448
v -9.72376e-17 2.6068 50.8758
v -1.11543e-16 2.5599 51.0047
v -1.25571e-16 2.50664 51.131
v -1.39286e-16 2.44715 51.2546
v -1.52656e-16 2.38157 51.375
v -1.65646e-16 2.31007 51.492
v -1.78224e-16 2.23283 51.6053
v -1.90359e-16 2.15004 51.7146
v -2.0202e-16 2.0619 51.8196
v -2.1318e-16 1.96863 51.9202
v -2.23809e-16 1.87048 52.0159
v -2.33882e-16 1.76767 52.1066
v -2.43374e-16 1.66046 52.1921
v -2.5226e-16 1.54913 52.2722
v -2.60519e-16 1.43395 52.3465
v -2.68131e-16 1.3152 52.4151
v -2.75076e-16 1.19318 52.4777
v -2.81337e-16 1.0682 52.5341
v -2.86899e-16 0.940555 52.5842
v -2.91747e-16 0.810577 52.6278
v -2.9587e-16 0.678583 52.665
v -2.99258e-16 0.544902 52.6955
v -3.01901e-16 0.409866 52.7193
v -3.03794e-16 0.273812 52.7363
v -3.04932e-16 0.137076 52.7466
v -3.05311e-16 -9.43318e-15 52.75
v -3.04932e-16 -0.137076 52.7466
v -3.03794e-16 -0.273812 52.7363
v -3.01901e-16 -0.409866 52.7193
v -2.99258e-16 -0.544902 52.6955
v -2.9587e-16 -0.678583 52.665
v -2.91747e-16 -0.810577 52.6278
v -2.86899e-16 -0.940555 52.5842
v -2.81337e-16 -1.0682 52.5341
v -2.75076e-16 -1.19318 52.4777
v -2.68131e-16 -1.3152 52.4151
v -2.60519e-16 -1.43395 52.3465
v -2.5226e-16 -1.54913 52.2722
v -2.43374e-16 -1.66046 52.1921
v -2.33882e-16 -1.76767 52.1066
v -2.23809e-16 -1.87048 52.0159
v -2.1318e-16 -1.96863 51.9202
v -2.0202e-16 -2.0619 51.8196
v -1.90359e-16 -2.15004 51.7146
v -1.78224e-16 -2.23283 51.6053
v -1.65646e-16 -2.31007 51.492
v -1.52656e-16 -2.38157 51.375
v -1.39286e-16 -2.44715 51.2546
v -1.25571e-16 -2.50664 51.131
v -1.11543e-16 -2.5599 51.0047
v -9.72376e-17 -2.6068 50.8758
v -8.26907e-17 -2.64722 50.7448
v -6.79382e-17 -2.68105 50.6119
v -5.30168e-17 -2.70822 50.4775
v -3.79635e-17 -2.72866 50.3419
v -2.28159e-17 -2.74231 50.2055
v -7.61162e-18 -2.74915 50.0686
v 7.61162e-18 -2.74915 49.9314
v 2.28159e-17 -2.74231 49.7945
v 3.79635e-17 -2.72866 49.6581
v 5.30168e-17 -2.70822 49.5225
v 6.79382e-17 -2.68105 49.3881
v 8.26907e-17 -2.64722 49.2552
v 9.72376e-17 -2.6068 49.1242
v 1.11543e-16 -2.5599 48.9953
v 1.25571e-16 -2.50664 48.869
v 1.39286e-16 -2.44715 48.7454
v 1.52656e-16 -2.38157 48.625
v 1.65646e-16 -2.31007 48.508
v 1.78224e-16 -2.23283 48.3947
v 1.90359e-16 -2.15004 48.2854
v 2.0202e-16 -2.0619 48.1804
v 2.1318e-16 -1.96863 48.0798
v 2.23809e-16 -1.87048 47.9841
v 2.33882e-16 -1.76767 47.8934
v 2.43374e-16 -1.66046 47.8079
v 2.5226e-16 -1.54913 47.7278
v 2.60519e-16 -1.43395 47.6535
v 2.68131e-16 -1.3152 47.5849
v 2.75076e-16 -1.19318 47.5223
v 2.81337e-16 -1.0682 47.4659
v 2.86899e-16 -0.940555 47.4158
v 2.91747e-16 -0.810577 47.3722
v 2.9587e-16 -0.678583 47.335
v 2.99258e-16 -0.544902 47.3045
v 3.01901e-16 -0.409866 47.2807
v 3.03794e-16 -0.273812 47.2637
v 3.04932e-16 -0.137076 47.2534
v 0 -20 0
v 60 -20 0
v 0 -20 60
v 5 -20 60
v 5 -20 5
v 60 -20 5
v 0 -20 0
v 0 20 0
v 60 -20 0
v 60 20 0
v 37.75 -6.73556e-16 0
v 37.7466 0.137076 0
v 37.7363 0.273812 0
v 37.7193 0.409866 0
v 37.6955 0.544902 0
v 37.665 0.678583 0
v 37.6278 0.810577 0
v 37.5842 0.940555 0
v 37.5341 1.0682 0
v 37.4777 1.19318 0
v 37.4151 1.3152 0
v 37.3465 1.43395 0
v 37.2722 1.54913 0
v 37.1921 1.66046 0
v 37.1066 1.76767 0
v 37.0159 1.87048 0
v 36.9202 1.96863 0
v 36.8196 2.0619 0
v 36.7146 2.15004 0
v 36.6053 2.23283 0
v 36.492 2.31007 0
v 36.375 2.38157 0
v 36.2546 2.44715 0
v 36.131 2.50664 0
v 36.0047 2.5599 0
v 35.8758 2.6068 0
v 35.7448 2.64722 0
v 35.6119 2.68105 0
v 35.4775 2.70822 0
v 35.3419 2.72866 0
v 35.2055 2.74231 0
v 35.0686 2.74915 0
v 34.9314 2.74915 0
v 34.7945 2.74231 0
v 34.6581 2.72866 0
v 34.5225 2.70822 0
v 34.3881 2.68105 0
v 34.2552 2.64722 0
v 34.1242 2.6068 0
v 33.9953 2.5599 0
v 33.869 2.50664 0
v 33.7454 2.44715 0
v 33.625 2.38157 0
v 33.508 2.31007 0
v 33.3947 2.23283 0
v 33.2854 2.15004 0
v 33.1804 2.0619 0
v 33.0798 1.96863 0
v 32.9841 1.87048 0
v 32.8934 1.76767 0
v 32.8079 1.66046 0
v 32.7278 1.54913 0
v 32.6535 1.43395 0
v 32.5849 1.3152 0
v 32.5223 1.19318 0
v 32.4659 1.0682 0
v 32.4158 0.940555 0
v 32.3722 0.810577 0
v 32.335 0.678583 0
v 32.3045 0.544902 0
v 32.2807 0.409866 0
v 32.2637 0.273812 0
v 32.2534 0.137076 0
v 32.25 -9.43318e-15 0
v 32.2534 -0.137076 0
v 32.2637 -0.273812 0
v 32.2807 -0.409866 0
v 32.3045 -0.544902 0
v 32.335 -0.678583 0
v 32.3722 -0.810577 0
v 32.4158 -0.940555 0
v 32.4659 -1.0682 0
v 32.5223 -1.19318 0
v 32.5849 -1.3152 0
v 32.6535 -1.43395 0
v 32.7278 -1.54913 0
v 32.8079 -1.66046 0
v 32.8934 -1.76767 0
v 32.9841 -1.87048 0
v 33.0798 -1.96863 0
v 33.1804 -2.0619 0
v 33.2854 -2.15004 0
v 33.3947 -2.23283 0
v 33.508 -2.31007 0
v 33.625 -2.38157 0
v 33.7454 -2.44715 0
v 33.869 -2.50664 0
v 33.9953 -2.5599 0
v 34.1242 -2.6068 0
v 34.2552 -2.64722 0
v 34.3881 -2.68105 0
v 34.5225 -2.70822 0
v 34.6581 -2.72866 0
v 34.7945 -2.74231 0
v 34.9314 -2.74915 0
v 35.0686 -2.74915 0
v 35.2055 -2.74231 0
v 35.3419 -2.72866 0
v 35.4775 -2.70822 0
v 35.6119 -2.68105 0
v 35.7448 -2.64722 0
v 35.8758 -2.6068 0
v 36.0047 -2.5599 0
v 36.131 -2.50664 0
v 36.2546 -2.44715 0
v 36.375 -2.38157 0
v 36.492 -2.31007 0
v 36.6053 -2.23283 0
v 36.7146 -2.15004 0
v 36.8196 -2.0619 0
v 36.9202 -1.96863 0
v 37.0159 -1.87048 0
v 37.1066 -1.76767 0
v 37.1921 -1.66046 0
v 37.2722 -1.54913 0
v 37.3465 -1.43395 0
v 37.4151 -1.3152 0
v 37.4777 -1.19318 0
v 37.5341 -1.0682 0
v 37.5842 -0.940555 0
v 37.6278 -0.810577 0
v 37.665 -0.678583 0
v 37.6955 -0.544902 0
v 37.7193 -0.409866 0
v 37.7363 -0.273812 0
v 37.7466 -0.137076 0
v 52.75 -6.73556e-16 0
v 52.7466 0.137076 0
v 52.7363 0.273812 0
v 52.7193 0.409866 0
v 52.6955 0.544902 0
v 52.665 0.678583 0
v 52.6278 0.810577 0
v 52.5842 0.940555 0
v 52.5341 1.0682 0
v 52.4777 1.19318 0
v 52.4151 1.3152 0
v 52.3465 1.43395 0
v 52.2722 1.54913 0
v 52.1921 1.66046 0
v 52.1066 1.76767 0
v 52.0159 1.87048 0
v 51.9202 1.96863 0
v 51.8196 2.0619 0
v 51.7146 2.15004 0
v 51.6053 2.23283 0
v 51.492 2.31007 0
v 51.375 2.38157 0
v 51.2546 2.44715 0
v 51.131 2.50664 0
v 51.0047 2.5599 0
v 50.8758 2.6068 0
v 50.7448 2.64722 0
v 50.6119 2.68105 0
v 50.4775 2.70822 0
v 50.3419 2.72866 0
v 50.2055 2.74231 0
v 50.0686 2.74915 0
v 49.9314 2.74915 0
v 49.7945 2.74231 0
v 49.6581 2.72866 0
v 49.5225 2.70822 0
v 49.3881 2.68105 0
v 49.2552 2.64722 0
v 49.1242 2.6068 0
v 48.9953 2.5599 0
v 48.869 2.50664 0
v 48.7454 2.44715 0
v 48.625 2.38157 0
v 48.508 2.31007 0
v 48.3947 2.23283 0
v 48.2854 2.15004 0
v 48.1804 2.0619 0
v 48.0798 1.96863 0
v 47.9841 1.87048 0
v 47.8934 1.76767 0
v 47.8079 1.66046 0
v 47.7278 1.54913 0
v 47.6535 1.43395 0
v 47.5849 1.3152 0
v 47.5223 1.19318 0
v 47.4659 1.0682 0
v 47.4158 0.940555 0
v 47.3722 0.810577 0
v 47.335 0.678583 0
v 47.3045 0.544902 0
v 47.2807 0.409866 0
v 47.2637 0.273812 0
v 47.2534 0.137076 0
v 47.25 -9.43318e-15 0
v 47.2534 -0.137076 0
v 47.2637 -0.273812 0
v 47.2807 -0.409866 0
v 47.3045 -0.544902 0
v 47.335 -0.678583 0
v 47.3722 -0.810577 0
v 47.4158 -0.940555 0
v 47.4659 -1.0682 0
v 47.5223 -1.19318 0
v 47.5849 -1.3152 0
v 47.6535 -1.43395 0
v 47.7278 -1.54913 0
v 47.8079 -1.66046 0
v 47.8934 -1.76767 0
v 47.9841 -1.87048 0
v 48.0798 -1.96863 0
v 48.1804 -2.0619 0
v 48.2854 -2.15004 0
v 48.3947 -2.23283 0
v 48.508 -2.31007 0
v 48.625 -2.38157 0
v 48.7454 -2.44715 0
v 48.869 -2.50664 0
v 48.9953 -2.5599 0
v 49.1242 -2.6068 0
v 49.2552 -2.64722 0
v 49.3881 -2.68105 0
v 49.5225 -2.70822 0
v 49.6581 -2.72866 0
v 49.7945 -2.74231 0
v 49.9314 -2.74915 0
v 50.0686 -2.74915 0
v 50.2055 -2.74231 0
v 50.3419 -2.72866 0
v 50.4775 -2.70822 0
v 50.6119 -2.68105 0
v 50.7448 -2.64722 0
v 50.8758 -2.6068 0
v 51.0047 -2.5599 0
v 51.131 -2.50664 0
v 51.2546 -2.44715 0
v 51.375 -2.38157 0
v 51.492 -2.31007 0
v 51.6053 -2.23283 0
v 51.7146 -2.15004 0
v 51.8196 -2.0619 0
v 51.9202 -1.96863 0
v 52.0159 -1.87048 0
v 52.1066 -1.76767 0
v 52.1921 -1.66046 0
v 52.2722 -1.54913 0
v 52.3465 -1.43395 0
v 52.4151 -1.3152 0
v 52.4777 -1.19318 0
v 52.5341 -1.0682 0
v 52.5842 -0.940555 0
v 52.6278 -0.810577 0
v 52.665 -0.678583 0
v 52.6955 -0.544902 0
v 52.7193 -0.409866 0
v 52.7363 -0.273812 0
v 52.7466 -0.137076 0
v 0 -20 60
v 0 20 60
v 5 -20 60
v 5 20 60
v 0 20 60
v 0 20 0
v 5 20 60
v 5 20 5
v 60 20 5
v 60 20 0
v 5 -6.73556e-16 32.25
v 5 0.137076 32.2534
v 5 0.273812 32.2637
v 5 0.409866 32.2807
v 5 0.544902 32.3045
v 5 0.678583 32.335
v 5 0.810577 32.3722
v 5 0.940555 32.4158
v 5 1.0682 32.4659
v 5 1.19318 32.5223
v 5 1.3152 32.5849
v 5 1.43395 32.6535
v 5 1.54913 32.7278
v 5 1.66046 32.8079
v 5 1.76767 32.8934
v 5 1.87048 32.9841
v 5 1.96863 33.0798
v 5 2.0619 33.1804
v 5 2.15004 33.2854
v 5 2.23283 33.3947
v 5 2.31007 33.508
v 5 2.38157 33.625
v 5 2.44715 33.7454
v 5 2.50664 33.869
v 5 2.5599 33.9953
v 5 2.6068 34.1242
v 5 2.64722 34.2552
v 5 2.68105 34.3881
v 5 2.70822 34.5225
v 5 2.72866 34.6581
v 5 2.74231 34.7945
v 5 2.74915 34.9314
v 5 2.74915 35.0686
v 5 2.74231 35.2055
v 5 2.72866 35.3419
v 5 2.70822 35.4775
v 5 2.68105 35.6119
v 5 2.64722 35.7448
v 5 2.6068 35.8758
v 5 2.5599 36.0047
v 5 2.50664 36.131
v 5 2.44715 36.2546
v 5 2.38157 36.375
v 5 2.31007 36.492
v 5 2.23283 36.6053
v 5 2.15004 36.7146
v 5 2.0619 36.8196
v 5 1.96863 36.9202
v 5 1.87048 37.0159
v 5 1.76767 37.1066
v 5 1.66046 37.1921
v 5 1.54913 37.2722
v 5 1.43395 37.3465
v 5 1.3152 37.4151
v 5 1.19318 37.4777
v 5 1.0682 37.5341
v 5 0.940555 37.5842
v 5 0.810577 37.6278
v 5 0.678583 37.665
v 5 0.544902 37.6955
v 5 0.409866 37.7193
v 5 0.273812 37.7363
v 5 0.137076 37.7466
v 5 -9.43318e-15 37.75
v 5 -0.137076 37.7466
v 5 -0.273812 37.7363
v 5 -0.409866 37.7193
v 5 -0.544902 37.6955
v 5 -0.678583 37.665
v 5 -0.810577 37.6278
v 5 -0.940555 37.5842
v 5 -1.0682 37.5341
v 5 -1.19318 37.4777
v 5 -1.3152 37.4151
v 5 -1.43395 37.3465
v 5 -1.54913 37.2722
v 5 -1.66046 37.1921
v 5 -1.76767 37.1066
v 5 -1.87048 37.0159
v 5 -1.96863 36.9202
v 5 -2.0619 36.8196
v 5 -2.15004 36.7146
v 5 -2.23283 36.6053
v 5 -2.31007 36.492
v 5 -2.38157 36.375
v 5 -2.44715 36.2546
v 5 -2.50664 36.131
v 5 -2.5599 36.0047
v 5 -2.6068 35.8758
v 5 -2.64722 35.7448
v 5 -2.68105 35.6119
v 5 -2.70822 35.4775
v 5 -2.72866 35.3419
v 5 -2.74231 35.2055
v 5 -2.74915 35.0686
v 5 -2.74915 34.9314
v 5 -2.74231 34.7945
v 5 -2.72866 34.6581
v 5 -2.70822 34.5225
v 5 -2.68105 34.3881
v 5 -2.64722 34.2552
v 5 -2.6068 34.1242
v 5 -2.5599 33.9953
v 5 -2.50664 33.869
v 5 -2.44715 33.7454
v 5 -2.38157 33.625
v 5 -2.31007 33.508
v 5 -2.23283 33.3947
v 5 -2.15004 33.2854
v 5 -2.0619 33.1804
v 5 -1.96863 33.0798
v 5 -1.87048 32.9841
v 5 -1.76767 32.8934
v 5 -1.66046 32.8079
v 5 -1.54913 32.7278
v 5 -1.43395 32.6535
v 5 -1.3152 32.5849
v 5 -1.19318 32.5223
v 5 -1.0682 32.4659
v 5 -0.940555 32.4158
v 5 -0.810577 32.3722
v 5 -0.678583 32.335
v 5 -0.544902 32.3045
v 5 -0.409866 32.2807
v 5 -0.273812 32.2637
v 5 -0.137076 32.2534
v 5 -6.73556e-16 32.25
v 1.11022e-16 -6.73556e-16 32.25
v 3.04932e-16 0.137076 32.2534
v 3.03794e-16 0.273812 32.2637
v 3.01901e-16 0.409866 32.2807
v 2.99258e-16 0.544902 32.3045
v 2.9587e-16 0.678583 32.335
v 2.91747e-16 0.810577 32.3722
v 2.86899e-16 0.940555 32.4158
v 2.81337e-16 1.0682 32.4659
v 2.75076e-16 1.19318 32.5223
v 2.68131e-16 1.3152 32.5849
v 2.60519e-16 1.43395 32.6535
v 2.5226e-16 1.54913 32.7278
v 2.43374e-16 1.66046 32.8079
v 2.33882e-16 1.76767 32.8934
v 2.23809e-16 1.87048 32.9841
v 2.1318e-16 1.96863 33.0798
v 2.0202e-16 2.0619 33.1804
v 1.90359e-16 2.15004 33.2854
v 1.78224e-16 2.23283 33.3947
v 1.65646e-16 2.31007 33.508
v 1.52656e-16 2.38157 33.625
v 1.39286e-16 2.44715 33.7454
v 1.25571e-16 2.50664 33.869
v 1.11543e-16 2.5599 33.9953
v 9.72376e-17 2.6068 34.1242
v 8.26907e-17 2.64722 34.2552
v 6.79382e-17 2.68105 34.3881
v 5.30168e-17 2.70822 34.5225
v 3.79635e-17 2.72866 34.6581
v 2.28159e-17 2.74231 34.7945
v 7.61162e-18 2.74915 34.9314
v -7.61162e-18 2.74915 35.0686
v -2.28159e-17 2.74231 35.2055
v -3.79635e-17 2.72866 35.3419
v -5.30168e-17 2.70822 35.4775
v -6.79382e-17 2.68105 35.6119
v -8.26907e-17 2.64722 35.7448
v -9.72376e-17 2.6068 35.8758
v -1.11543e-16 2.5599 36.0047
v -1.25571e-16 2.50664 36.131
v -1.39286e-16 2.44715 36.2546
v -1.52656e-16 2.38157 36.375
v -1.65646e-16 2.31007 36.492
v -1.78224e-16 2.23283 36.6053
v -1.90359e-16 2.15004 36.7146
v -2.0202e-16 2.0619 36.8196
v -2.1318e-16 1.96863 36.9202
v -2.23809e-16 1.87048 37.0159
v -2.33882e-16 1.76767 37.1066
v -2.43374e-16 1.66046 37.1921
v -2.5226e-16 1.54913 37.2722
v -2.60519e-16 1.43395 37.3465
v -2.68131e-16 1.3152 37.4151
v -2.75076e-16 1.19318 37.4777
v -2.81337e-16 1.0682 37.5341
v -2.86899e-16 0.940555 37.5842
v -2.91747e-16 0.810577 37.6278
v -2.9587e-16 0.678583 37.665
v -2.99258e-16 0.544902 37.6955
v -3.01901e-16 0.409866 37.7193
v -3.03794e-16 0.273812 37.7363
v -3.04932e-16 0.137076 37.7466
v -3.05311e-16 -9.43318e-15 37.75
v -3.04932e-16 -0.137076 37.7466
v -3.03794e-16 -0.273812 37.7363
v -3.01901e-16 -0.409866 37.7193
v -2.99258e-16 -0.544902 37.6955
v -2.9587e-16 -0.678583 37.665
v -2.91747e-16 -0.810577 37.6278
v -2.86899e-16 -0.940555 37.5842
v -2.81337e-16 -1.0682 37.5341
v -2.75076e-16 -1.19318 37.4777
v -2.68131e-16 -1.3152 37.4151
v -2.60519e-16 -1.43395 37.3465
v -2.5226e-16 -1.54913 37.2722
v -2.43374e-16 -1.66046 37.1921
v -2.33882e-16 -1.76767 37.1066
v -2.23809e-16 -1.87048 37.0159
v -2.1318e-16 -1.96863 36.9202
v -2.0202e-16 -2.0619 36.8196
v -1.90359e-16 -2.15004 36.7146
v -1.78224e-16 -2.23283 36.6053
v -1.65646e-16 -2.31007 36.492
v -1.52656e-16 -2.38157 36.375
v -1.39286e-16 -2.44715 36.2546
v -1.25571e-16 -2.50664 36.131
v -1.11543e-16 -2.5599 36.0047
v -9.72376e-17 -2.6068 35.8758
v -8.26907e-17 -2.64722 35.7448
v -6.79382e-17 -2.68105 35.6119
v -5.30168e-17 -2.70822 35.4775
v -3.79635e-17 -2.72866 35.3419
v -2.28159e-17 -2.74231 35.2055
v -7.61162e-18 -2.74915 35.0686
v 7.61162e-18 -2.74915 34.9314
v 2.28159e-17 -2.74231 34.7945
v 3.79635e-17 -2.72866 34.6581
v 5.30168e-17 -2.70822 34.5225
v 6.79382e-17 -2.68105 34.3881
v 8.26907e-17 -2.64722 34.2552
v 9.72376e-17 -2.6068 34.1242
v 1.11543e-16 -2.5599 33.9953
v 1.25571e-16 -2.50664 33.869
v 1.39286e-16 -2.44715 33.7454
v 1.52656e-16 -2.38157 33.625
v 1.65646e-16 -2.31007 33.508
v 1.78224e-16 -2.23283 33.3947
v 1.90359e-16 -2.15004 33.2854
v 2.0202e-16 -2.0619 33.1804
v 2.1318e-16 -1.96863 33.0798
v 2.23809e-16 -1.87048 32.9841
v 2.33882e-16 -1.76767 32.8934
v 2.43374e-16 -1.66046 32.8079
v 2.5226e-16 -1.54913 32.7278
v 2.60519e-16 -1.43395 32.6535
v 2.68131e-16 -1.3152 32.5849
v 2.75076e-16 -1.19318 32.5223
v 2.81337e-16 -1.0682 32.4659
v 2.86899e-16 -0.940555 32.4158
v 2.91747e-16 -0.810577 32.3722
v 2.9587e-16 -0.678583 32.335
v 2.99258e-16 -0.544902 32.3045
v 3.01901e-16 -0.409866 32.2807
v 3.03794e-16 -0.273812 32.2637
v 3.04932e-16 -0.137076 32.2534
v 1.11022e-16 -6.73556e-16 32.25
v 5 -6.73556e-16 47.25
v 5 0.137076 47.2534
v 5 0.273812 47.2637
v 5 0.409866 47.2807
v 5 0.544902 47.3045
v 5 0.678583 47.335
v 5 0.810577 47.3722
v 5 0.940555 47.4158
v 5 1.0682 47.4659
v 5 1.19318 47.5223
v 5 1.3152 47.5849
v 5 1.43395 47.6535
v 5 1.54913 47.7278
v 5 1.66046 47.8079
v 5 1.76767 47.8934
v 5 1.87048 47.9841
v 5 1.96863 48.0798
v 5 2.0619 48.1804
v 5 2.15004 48.2854
v 5 2.23283 48.3947
v 5 2.31007 48.508
v 5 2.38157 48.625
v 5 2.44715 48.7454
v 5 2.50664 48.869
v 5 2.5599 48.9953
v 5 2.6068 49.1242
v 5 2.64722 49.2552
v 5 2.68105 49.3881
v 5 2.70822 49.5225
v 5 2.72866 49.6581
v 5 2.74231 49.7945
v 5 2.74915 49.9314
v 5 2.74915 50.0686
v 5 2.74231 50.2055
v 5 2.72866 50.3419
v 5 2.70822 50.4775
v 5 2.68105 50.6119
v 5 2.64722 50.7448
v 5 2.6068 50.8758
v 5 2.5599 51.0047
v 5 2.50664 51.131
v 5 2.44715 51.2546
v 5 2.38157 51.375
v 5 2.31007 51.492
v 5 2.23283 51.6053
v 5 2.15004 51.7146
v 5 2.0619 51.8196
v 5 1.96863 51.9202
v 5 1.87048 52.0159
v 5 1.76767 52.1066
v 5 1.66046 52.1921
v 5 1.54913 52.2722
v 5 1.43395 52.3465
v 5 1.3152 52.4151
v 5 1.19318 52.4777
v 5 1.0682 52.5341
v 5 0.940555 52.5842
v 5 0.810577 52.6278
v 5 0.678583 52.665
v 5 0.544902 52.6955
v 5 0.409866 52.7193
v 5 0.273812 52.7363
v 5 0.137076 52.7466
v 5 -9.43318e-15 52.75
v 5 -0.137076 52.7466
v 5 -0.273812 52.7363
v 5 -0.409866 52.7193
v 5 -0.544902 52.6955
v 5 -0.678583 52.665
v 5 -0.810577 52.6278
v 5 -0.940555 52.5842
v 5 -1.0682 52.5341
v 5 -1.19318 52.4777
v 5 -1.3152 52.4151
v 5 -1.43395 52.3465
v 5 -1.54913 52.2722
v 5 -1.66046 52.1921
v 5 -1.76767 52.1066
v 5 -1.87048 52.0159
v 5 -1.96863 51.9202
v 5 -2.0619 51.8196
v 5 -2.15004 51.7146
v 5 -2.23283 51.6053
v 5 -2.31007 51.492
v 5 -2.38157 51.375
v 5 -2.44715 51.2546
v 5 -2.50664 51.131
v 5 -2.5599 51.0047
v 5 -2.6068 50.8758
v 5 -2.64722 50.7448
v 5 -2.68105 50.6119
v 5 -2.70822 50.4775
v 5 -2.72866 50.3419
v 5 -2.74231 50.2055
v 5 -2.74915 50.0686
v 5 -2.74915 49.9314
v 5 -2.74231 49.7945
v 5 -2.72866 49.6581
v 5 -2.70822 49.5225
v 5 -2.68105 49.3881
v 5 -2.64722 49.2552
v 5 -2.6068 49.1242
v 5 -2.5599 48.9953
v 5 -2.50664 48.869
v 5 -2.44715 48.7454
v 5 -2.38157 48.625
v 5 -2.31007 48.508
v 5 -2.23283 48.3947
v 5 -2.15004 48.2854
v 5 -2.0619 48.1804
v 5 -1.96863 48.0798
v 5 -1.87048 47.9841
v 5 -1.76767 47.8934
v 5 -1.66046 47.8079
v 5 -1.54913 47.7278
v 5 -1.43395 47.6535
v 5 -1.3152 47.5849
v 5 -1.19318 47.5223
v 5 -1.0682 47.4659
v 5 -0.940555 47.4158
v 5 -0.810577 47.3722
v 5 -0.678583 47.335
v 5 -0.544902 47.3045
v 5 -0.409866 47.2807
v 5 -0.273812 47.2637
v 5 -0.137076 47.2534
v 5 -6.73556e-16 47.25
v 1.11022e-16 -6.73556e-16 47.25
v 3.04932e-16 0.137076 47.2534
v 3.03794e-16 0.273812 47.2637
v 3.01901e-16 0.409866 47.2807
v 2.99258e-16 0.544902 47.3045
v 2.9587e-16 0.678583 47.335
v 2.91747e-16 0.810577 47.3722
v 2.86899e-16 0.940555 47.4158
v 2.81337e-16 1.0682 47.4659
v 2.75076e-16 1.19318 47.5223
v 2.68131e-16 1.3152 47.5849
v 2.60519e-16 1.43395 47.6535
v 2.5226e-16 1.54913 47.7278
v 2.43374e-16 1.66046 47.8079
v 2.33882e-16 1.76767 47.8934
v 2.23809e-16 1.87048 47.9841
v 2.1318e-16 1.96863 48.0798
v 2.0202e-16 2.0619 48.1804
v 1.90359e-16 2.15004 48.2854
v 1.78224e-16 2.23283 48.3947
v 1.65646e-16 2.31007 48.508
v 1.52656e-16 2.38157 48.625
v 1.39286e-16 2.44715 48.7454
v 1.25571e-16 2.50664 48.869
v 1.11543e-16 2.5599 48.9953
v 9.72376e-17 2.6068 49.1242
v 8.26907e-17 2.64722 49.2552
v 6.79382e-17 2.68105 49.3881
v 5.30168e-17 2.70822 49.5225
v 3.79635e-17 2.72866 49.6581
v 2.28159e-17 2.74231 49.7945
v 7.61162e-18 2.74915 49.9314
v -7.61162e-18 2.74915 50.0686
v -2.28159e-17 2.74231 50.2055
v -3.79635e-17 2.72866 50.3419
v -5.30168e-17 2.70822 50.4775
v -6.79382e-17 2.68105 50.6119
v -8.26907e-17 2.64722 50.7448
v -9.72376e-17 2.6068 50.8758
v -1.11543e-16 2.5599 51.0047
v -1.25571e-16 2.50664 51.131
v -1.39286e-16 2.44715 51.2546
v -1.52656e-16 2.38157 51.375
v -1.65646e-16 2.31007 51.492
v -1.78224e-16 2.23283 51.6053
v -1.90359e-16 2.15004 51.7146
v -2.0202e-16 2.0619 51.8196
v -2.1318e-16 1.96863 51.9202
v -2.23809e-16 1.87048 52.0159
v -2.33882e-16 1.76767 52.1066
v -2.43374e-16 1.66046 52.1921
v -2.5226e-16 1.54913 52.2722
v -2.60519e-16 1.43395 52.3465
v -2.68131e-16 1.3152 52.4151
v -2.75076e-16 1.19318 52.4777
v -2.81337e-16 1.0682 52.5341
v -2.86899e-16 0.940555 52.5842
v -2.91747e-16 0.810577 52.6278
v -2.9587e-16 0.678583 52.665
v -2.99258e-16 0.544902 52.6955
v -3.01901e-16 0.409866 52.7193
v -3.03794e-16 0.273812 52.7363
v -3.04932e-16 0.137076 52.7466
v -3.05311e-16 -9.43318e-15 52.75
v -3.04932e-16 -0.137076 52.7466
v -3.03794e-16 -0.273812 52.7363
v -3.01901e-16 -0.409866 52.7193
v -2.99258e-16 -0.544902 52.6955
v -2.9587e-16 -0.678583 52.665
v -2.91747e-16 -0.810577 52.6278
v -2.86899e-16 -0.940555 52.5842
v -2.81337e-16 -1.0682 52.5341
v -2.75076e-16 -1.19318 52.4777
v -2.68131e-16 -1.3152 52.4151
v -2.60519e-16 -1.43395 52.3465
v -2.5226e-16 -1.54913 52.2722
v -2.43374e-16 -1.66046 52.1921
v -2.33882e-16 -1.76767 52.1066
v -2.23809e-16 -1.87048 52.0159
v -2.1318e-16 -1.96863 51.9202
v -2.0202e-16 -2.0619 51.8196
v -1.90359e-16 -2.15004 51.7146
v -1.78224e-16 -2.23283 51.6053
v -1.65646e-16 -2.31007 51.492
v -1.52656e-16 -2.38157 51.375
v -1.39286e-16 -2.44715 51.2546
v -1.25571e-16 -2.50664 51.131
v -1.11543e-16 -2.5599 51.0047
v -9.72376e-17 -2.6068 50.8758
v -8.26907e-17 -2.64722 50.7448
v -6.79382e-17 -2.68105 50.6119
v -5.30168e-17 -2.70822 50.4775
v -3.79635e-17 -2.72866 50.3419
v -2.28159e-17 -2.74231 50.2055
v -7.61162e-18 -2.74915 50.0686
v 7.61162e-18 -2.74915 49.9314
v 2.28159e-17 -2.74231 49.7945
v 3.79635e-17 -2.72866 49.6581
v 5.30168e-17 -2.70822 49.5225
v 6.79382e-17 -2.68105 49.3881
v 8.26907e-17 -2.64722 49.2552
v 9.72376e-17 -2.6068 49.1242
v 1.11543e-16 -2.5599 48.9953
v 1.25571e-16 -2.50664 48.869
v 1.39286e-16 -2.44715 48.7454
v 1.52656e-16 -2.38157 48.625
v 1.65646e-16 -2.31007 48.508
v 1.78224e-16 -2.23283 48.3947
v 1.90359e-16 -2.15004 48.2854
v 2.0202e-16 -2.0619 48.1804
v 2.1318e-16 -1.96863 48.0798
v 2.23809e-16 -1.87048 47.9841
v 2.33882e-16 -1.76767 47.8934
v 2.43374e-16 -1.66046 47.8079
v 2.5226e-16 -1.54913 47.7278
v 2.60519e-16 -1.43395 47.6535
v 2.68131e-16 -1.3152 47.5849
v 2.75076e-16 -1.19318 47.5223
v 2.81337e-16 -1.0682 47.4659
v 2.86899e-16 -0.940555 47.4158
v 2.91747e-16 -0.810577 47.3722
v 2.9587e-16 -0.678583 47.335
v 2.99258e-16 -0.544902 47.3045
v 3.01901e-16 -0.409866 47.2807
v 3.03794e-16 -0.273812 47.2637
v 3.04932e-16 -0.137076 47.2534
v 1.11022e-16 -6.73556e-16 47.25
v 5 -20 5
v 5 -20 60
v 5 -3 5
v 5 -3 30
v 5 3 30
v 5 3 5
v 5 20 5
v 5 20 60
v 5 -6.73556e-16 32.25
v 5 0.137076 32.2534
v 5 0.273812 32.2637
v 5 0.409866 32.2807
v 5 0.544902 32.3045
v 5 0.678583 32.335
v 5 0.810577 32.3722
v 5 0.940555 32.4158
v 5 1.0682 32.4659
v 5 1.19318 32.5223
v 5 1.3152 32.5849
v 5 1.43395 32.6535
v 5 1.54913 32.7278
v 5 1.66046 32.8079
v 5 1.76767 32.8934
v 5 1.87048 32.9841
v 5 1.96863 33.0798
v 5 2.0619 33.1804
v 5 2.15004 33.2854
v 5 2.23283 33.3947
v 5 2.31007 33.508
v 5 2.38157 33.625
v 5 2.44715 33.7454
v 5 2.50664 33.869
v 5 2.5599 33.9953
v 5 2.6068 34.1242
v 5 2.64722 34.2552
v 5 2.68105 34.3881
v 5 2.70822 34.5225
v 5 2.72866 34.6581
v 5 2.74231 34.7945
v 5 2.74915 34.9314
v 5 2.74915 35.0686
v 5 2.74231 35.2055
v 5 2.72866 35.3419
v 5 2.70822 35.4775
v 5 2.68105 35.6119
v 5 2.64722 35.7448
v 5 2.6068 35.8758
v 5 2.5599 36.0047
v 5 2.50664 36.131
v 5 2.44715 36.2546
v 5 2.38157 36.375
v 5 2.31007 36.492
v 5 2.23283 36.6053
v 5 2.15004 36.7146
v 5 2.0619 36.8196
v 5 1.96863 36.9202
v 5 1.87048 37.0159
v 5 1.76767 37.1066
v 5 1.66046 37.1921
v 5 1.54913 37.2722
v 5 1.43395 37.3465
v 5 1.3152 37.4151
v 5 1.19318 37.4777
v 5 1.0682 37.5341
v 5 0.940555 37.5842
v 5 0.810577 37.6278
v 5 0.678583 37.665
v 5 0.544902 37.6955
v 5 0.409866 37.7193
v 5 0.273812 37.7363
v 5 0.137076 37.7466
v 5 -9.43318e-15 37.75
v 5 -0.137076 37.7466
v 5 -0.273812 37.7363
v 5 -0.409866 37.7193
v 5 -0.544902 37.6955
v 5 -0.678583 37.665
v 5 -0.810577 37.6278
v 5 -0.940555 37.5842
v 5 -1.0682 37.5341
v 5 -1.19318 37.4777
v 5 -1.3152 37.4151
v 5 -1.43395 37.3465
v 5 -1.54913 37.2722
v 5 -1.66046 37.1921
v 5 -1.76767 37.1066
v 5 -1.87048 37.0159
v 5 -1.96863 36.9202
v 5 -2.0619 36.8196
v 5 -2.15004 36.7146
v 5 -2.23283 36.6053
v 5 -2.31007 36.492
v 5 -2.38157 36.375
v 5 -2.44715 36.2546
v 5 -2.50664 36.131
v 5 -2.5599 36.0047
v 5 -2.6068 35.8758
v 5 -2.64722 35.7448
v 5 -2.68105 35.6119
v 5 -2.70822 35.4775
v 5 -2.72866 35.3419
v 5 -2.74231 35.2055
v 5 -2.74915 35.0686
v 5 -2.74915 34.9314
v 5 -2.74231 34.7945
v 5 -2.72866 34.6581
v 5 -2.70822 34.5225
v 5 -2.68105 34.3881
v 5 -2.64722 34.2552
v 5 -2.6068 34.1242
v 5 -2.5599 33.9953
v 5 -2.50664 33.869
v 5 -2.44715 33.7454
v 5 -2.38157 33.625
v 5 -2.31007 33.508
v 5 -2.23283 33.3947
v 5 -2.15004 33.2854
v 5 -2.0619 33.1804
v 5 -1.96863 33.0798
v 5 -1.87048 32.9841
v 5 -1.76767 32.8934
v 5 -1.66046 32.8079
v 5 -1.54913 32.7278
v 5 -1.43395 32.6535
v 5 -1.3152 32.5849
v 5 -1.19318 32.5223
v 5 -1.0682 32.4659
v 5 -0.940555 32.4158
v 5 -0.810577 32.3722
v 5 -0.678583 32.335
v 5 -0.544902 32.3045
v 5 -0.409866 32.2807
v 5 -0.273812 32.2637
v 5 -0.137076 32.2534
v 5 -6.73556e-16 47.25
v 5 0.137076 47.2534
v 5 0.273812 47.2637
v 5 0.409866 47.2807
v 5 0.544902 47.3045
v 5 0.678583 47.335
v 5 0.810577 47.3722
v 5 0.940555 47.4158
v 5 1.0682 47.4659
v 5 1.19318 47.5223
v 5 1.3152 47.5849
v 5 1.43395 47.6535
v 5 1.54913 47.7278
v 5 1.66046 47.8079
v 5 1.76767 47.8934
v 5 1.87048 47.9841
v 5 1.96863 48.0798
v 5 2.0619 48.1804
v 5 2.15004 48.2854
v 5 2.23283 48.3947
v 5 2.31007 48.508
v 5 2.38157 48.625
v 5 2.44715 48.7454
v 5 2.50664 48.869
v 5 2.5599 48.9953
v 5 2.6068 49.1242
v 5 2.64722 49.2552
v 5 2.68105 49.3881
v 5 2.70822 49.5225
v 5 2.72866 49.6581
v 5 2.74231 49.7945
v 5 2.74915 49.9314
v 5 2.74915 50.0686
v 5 2.74231 50.2055
v 5 2.72866 50.3419
v 5 2.70822 50.4775
v 5 2.68105 50.6119
v 5 2.64722 50.7448
v 5 2.6068 50.8758
v 5 2.5599 51.0047
v 5 2.50664 51.131
v 5 2.44715 51.2546
v 5 2.38157 51.375
v 5 2.31007 51.492
v 5 2.23283 51.6053
v 5 2.15004 51.7146
v 5 2.0619 51.8196
v 5 1.96863 51.9202
v 5 1.87048 52.0159
v 5 1.76767 52.1066
v 5 1.66046 52.1921
v 5 1.54913 52.2722
v 5 1.43395 52.3465
v 5 1.3152 52.4151
v 5 1.19318 52.4777
v 5 1.0682 52.5341
v 5 0.940555 52.5842
v 5 0.810577 52.6278
v 5 0.678583 52.665
v 5 0.544902 52.6955
v 5 0.409866 52.7193
v 5 0.273812 52.7363
v 5 0.137076 52.7466
v 5 -9.43318e-15 52.75
v 5 -0.137076 52.7466
v 5 -0.273812 52.7363
v 5 -0.409866 52.7193
v 5 -0.544902 52.6955
v 5 -0.678583 52.665
v 5 -0.810577 52.6278
v 5 -0.940555 52.5842
v 5 -1.0682 52.5341
v 5 -1.19318 52.4777
v 5 -1.3152 52.4151
v 5 -1.43395 52.3465
v 5 -1.54913 52.2722
v 5 -1.66046 52.1921
v 5 -1.76767 52.1066
v 5 -1.87048 52.0159
v 5 -1.96863 51.9202
v 5 -2.0619 51.8196
v 5 -2.15004 51.7146
v 5 -2.23283 51.6053
v 5 -2.31007 51.492
v 5 -2.38157 51.375
v 5 -2.44715 51.2546
v 5 -2.50664 51.131
v 5 -2.5599 51.0047
v 5 -2.6068 50.8758
v 5 -2.64722 50.7448
v 5 -2.68105 50.6119
v 5 -2.70822 50.4775
v 5 -2.72866 50.3419
v 5 -2.74231 50.2055
v 5 -2.74915 50.0686
v 5 -2.74915 49.9314
v 5 -2.74231 49.7945
v 5 -2.72866 49.6581
v 5 -2.70822 49.5225
v 5 -2.68105 49.3881
v 5 -2.64722 49.2552
v 5 -2.6068 49.1242
v 5 -2.5599 48.9953
v 5 -2.50664 48.869
v 5 -2.44715 48.7454
v 5 -2.38157 48.625
v 5 -2.31007 48.508
v 5 -2.23283 48.3947
v 5 -2.15004 48.2854
v 5 -2.0619 48.1804
v 5 -1.96863 48.0798
v 5 -1.87048 47.9841
v 5 -1.76767 47.8934
v 5 -1.66046 47.8079
v 5 -1.54913 47.7278
v 5 -1.43395 47.6535
v 5 -1.3152 47.5849
v 5 -1.19318 47.5223
v 5 -1.0682 47.4659
v 5 -0.940555 47.4158
v 5 -0.810577 47.3722
v 5 -0.678583 47.335
v 5 -0.544902 47.3045
v 5 -0.409866 47.2807
v 5 -0.273812 47.2637
v 5 -0.137076 47.2534
v 5 20 5
v 60 20 5
v 5 3 5
v 30 3 5
v 30 -3 5
v 5 -3 5
v 5 -20 5
v 60 -20 5
v 37.75 -6.73556e-16 5
v 37.7466 0.137076 5
v 37.7363 0.273812 5
v 37.7193 0.409866 5
v 37.6955 0.544902 5
v 37.665 0.678583 5
v 37.6278 0.810577 5
v 37.5842 0.940555 5
v 37.5341 1.0682 5
v 37.4777 1.19318 5
v 37.4151 1.3152 5
v 37.3465 1.43395 5
v 37.2722 1.54913 5
v 37.1921 1.66046 5
v 37.1066 1.76767 5
v 37.0159 1.87048 5
v 36.9202 1.96863 5
v 36.8196 2.0619 5
v 36.7146 2.15004 5
v 36.6053 2.23283 5
v 36.492 2.31007 5
v 36.375 2.38157 5
v 36.2546 2.44715 5
v 36.131 2.50664 5
v 36.0047 2.5599 5
v 35.8758 2.6068 5
v 35.7448 2.64722 5
v 35.6119 2.68105 5
v 35.4775 2.70822 5
v 35.3419 2.72866 5
v 35.2055 2.74231 5
v 35.0686 2.74915 5
v 34.9314 2.74915 5
v 34.7945 2.74231 5
v 34.6581 2.72866 5
v 34.5225 2.70822 5
v 34.3881 2.68105 5
v 34.2552 2.64722 5
v 34.1242 2.6068 5
v 33.9953 2.5599 5
v 33.869 2.50664 5
v 33.7454 2.44715 5
v 33.625 2.38157 5
v 33.508 2.31007 5
v 33.3947 2.23283 5
v 33.2854 2.15004 5
v 33.1804 2.0619 5
v 33.0798 1.96863 5
v 32.9841 1.87048 5
v 32.8934 1.76767 5
v 32.8079 1.66046 5
v 32.7278 1.54913 5
v 32.6535 1.43395 5
v 32.5849 1.3152 5
v 32.5223 1.19318 5
v 32.4659 1.0682 5
v 32.4158 0.940555 5
v 32.3722 0.810577 5
v 32.335 0.678583 5
v 32.3045 0.544902 5
v 32.2807 0.409866 5
v 32.2637 0.273812 5
v 32.2534 0.137076 5
v 32.25 -9.43318e-15 5
v 32.2534 -0.137076 5
v 32.2637 -0.273812 5
v 32.2807 -0.409866 5
v 32.3045 -0.544902 5
v 32.335 -0.678583 5
v 32.3722 -0.810577 5
v 32.4158 -0.940555 5
v 32.4659 -1.0682 5
v 32.5223 -1.19318 5
v 32.5849 -1.3152 5
v 32.6535 -1.43395 5
v 32.7278 -1.54913 5
v 32.8079 -1.66046 5
v 32.8934 -1.76767 5
v 32.9841 -1.87048 5
v 33.0798 -1.96863 5
v 33.1804 -2.0619 5
v 33.2854 -2.15004 5
v 33.3947 -2.23283 5
v 33.508 -2.31007 5
v 33.625 -2.38157 5
v 33.7454 -2.44715 5
v 33.869 -2.50664 5
v 33.9953 -2.5599 5
v 34.1242 -2.6068 5
v 34.2552 -2.64722 5
v 34.3881 -2.68105 5
v 34.5225 -2.70822 5
v 34.6581 -2.72866 5
v 34.7945 -2.74231 5
v 34.9314 -2.74915 5
v 35.0686 -2.74915 5
v 35.2055 -2.74231 5
v 35.3419 -2.72866 5
v 35.4775 -2.70822 5
v 35.6119 -2.68105 5
v 35.7448 -2.64722 5
v 35.8758 -2.6068 5
v 36.0047 -2.5599 5
v 36.131 -2.50664 5
v 36.2546 -2.44715 5
v 36.375 -2.38157 5
v 36.492 -2.31007 5
v 36.6053 -2.23283 5
v 36.7146 -2.15004 5
v 36.8196 -2.0619 5
v 36.9202 -1.96863 5
v 37.0159 -1.87048 5
v 37.1066 -1.76767 5
v 37.1921 -1.66046 5
v 37.2722 -1.54913 5
v 37.3465 -1.43395 5
v 37.4151 -1.3152 5
v 37.4777 -1.19318 5
v 37.5341 -1.0682 5
v 37.5842 -0.940555 5
v 37.6278 -0.810577 5
v 37.665 -0.678583 5
v 37.6955 -0.544902 5
v 37.7193 -0.409866 5
v 37.7363 -0.273812 5
v 37.7466 -0.137076 5
v 52.75 -6.73556e-16 5
v 52.7466 0.137076 5
v 52.7363 0.273812 5
v 52.7193 0.409866 5
v 52.6955 0.544902 5
v 52.665 0.678583 5
v 52.6278 0.810577 5
v 52.5842 0.940555 5
v 52.5341 1.0682 5
v 52.4777 1.19318 5
v 52.4151 1.3152 5
v 52.3465 1.43395 5
v 52.2722 1.54913 5
v 52.1921 1.66046 5
v 52.1066 1.76767 5
v 52.0159 1.87048 5
v 51.9202 1.96863 5
v 51.8196 2.0619 5
v 51.7146 2.15004 5
v 51.6053 2.23283 5
v 51.492 2.31007 5
v 51.375 2.38157 5
v 51.2546 2.44715 5
v 51.131 2.50664 5
v 51.0047 2.5599 5
v 50.8758 2.6068 5
v 50.7448 2.64722 5
v 50.6119 2.68105 5
v 50.4775 2.70822 5
v 50.3419 2.72866 5
v 50.2055 2.74231 5
v 50.0686 2.74915 5
v 49.9314 2.74915 5
v 49.7945 2.74231 5
v 49.6581 2.72866 5
v 49.5225 2.70822 5
v 49.3881 2.68105 5
v 49.2552 2.64722 5
v 49.1242 2.6068 5
v 48.9953 2.5599 5
v 48.869 2.50664 5
v 48.7454 2.44715 5
v 48.625 2.38157 5
v 48.508 2.31007 5
v 48.3947 2.23283 5
v 48.2854 2.15004 5
v 48.1804 2.0619 5
v 48.0798 1.96863 5
v 47.9841 1.87048 5
v 47.8934 1.76767 5
v 47.8079 1.66046 5
v 47.7278 1.54913 5
v 47.6535 1.43395 5
v 47.5849 1.3152 5
v 47.5223 1.19318 5
v 47.4659 1.0682 5
v 47.4158 0.940555 5
v 47.3722 0.810577 5
v 47.335 0.678583 5
v 47.3045 0.544902 5
v 47.2807 0.409866 5
v 47.2637 0.273812 5
v 47.2534 0.137076 5
v 47.25 -9.43318e-15 5
v 47.2534 -0.137076 5
v 47.2637 -0.273812 5
v 47.2807 -0.409866 5
v 47.3045 -0.544902 5
v 47.335 -0.678583 5
v 47.3722 -0.810577 5
v 47.4158 -0.940555 5
v 47.4659 -1.0682 5
v 47.5223 -1.19318 5
v 47.5849 -1.3152 5
v 47.6535 -1.43395 5
v 47.7278 -1.54913 5
v 47.8079 -1.66046 5
v 47.8934 -1.76767 5
v 47.9841 -1.87048 5
v 48.0798 -1.96863 5
v 48.1804 -2.0619 5
v 48.2854 -2.15004 5
v 48.3947 -2.23283 5
v 48.508 -2.31007 5
v 48.625 -2.38157 5
v 48.7454 -2.44715 5
v 48.869 -2.50664 5
v 48.9953 -2.5599 5
v 49.1242 -2.6068 5
v 49.2552 -2.64722 5
v 49.3881 -2.68105 5
v 49.5225 -2.70822 5
v 49.6581 -2.72866 5
v 49.7945 -2.74231 5
v 49.9314 -2.74915 5
v 50.0686 -2.74915 5
v 50.2055 -2.74231 5
v 50.3419 -2.72866 5
v 50.4775 -2.70822 5
v 50.6119 -2.68105 5
v 50.7448 -2.64722 5
v 50.8758 -2.6068 5
v 51.0047 -2.5599 5
v 51.131 -2.50664 5
v 51.2546 -2.44715 5
v 51.375 -2.38157 5
v 51.492 -2.31007 5
v 51.6053 -2.23283 5
v 51.7146 -2.15004 5
v 51.8196 -2.0619 5
v 51.9202 -1.96863 5
v 52.0159 -1.87048 5
v 52.1066 -1.76767 5
v 52.1921 -1.66046 5
v 52.2722 -1.54913 5
v 52.3465 -1.43395 5
v 52.4151 -1.3152 5
v 52.4777 -1.19318 5
v 52.5341 -1.0682 5
v 52.5842 -0.940555 5
v 52.6278 -0.810577 5
v 52.665 -0.678583 5
v 52.6955 -0.544902 5
v 52.7193 -0.409866 5
v 52.7363 -0.273812 5
v 52.7466 -0.137076 5
v 60 -20 0
v 60 -20 5
v 60 20 0
v 60 20 5
v 37.75 -6.73556e-16 5
v 37.7466 0.137076 5
v 37.7363 0.273812 5
v 37.7193 0.409866 5
v 37.6955 0.544902 5
v 37.665 0.678583 5
v 37.6278 0.810577 5
v 37.5842 0.940555 5
v 37.5341 1.0682 5
v 37.4777 1.19318 5
v 37.4151 1.3152 5
v 37.3465 1.43395 5
v 37.2722 1.54913 5
v 37.1921 1.66046 5
v 37.1066 1.76767 5
v 37.0159 1.87048 5
v 36.9202 1.96863 5
v 36.8196 2.0619 5
v 36.7146 2.15004 5
v 36.6053 2.23283 5
v 36.492 2.31007 5
v 36.375 2.38157 5
v 36.2546 2.44715 5
v 36.131 2.50664 5
v 36.0047 2.5599 5
v 35.8758 2.6068 5
v 35.7448 2.64722 5
v 35.6119 2.68105 5
v 35.4775 2.70822 5
v 35.3419 2.72866 5
v 35.2055 2.74231 5
v 35.0686 2.74915 5
v 34.9314 2.74915 5
v 34.7945 2.74231 5
v 34.6581 2.72866 5
v 34.5225 2.70822 5
v 34.3881 2.68105 5
v 34.2552 2.64722 5
v 34.1242 2.6068 5
v 33.9953 2.5599 5
v 33.869 2.50664 5
v 33.7454 2.44715 5
v 33.625 2.38157 5
v 33.508 2.31007 5
v 33.3947 2.23283 5
v 33.2854 2.15004 5
v 33.1804 2.0619 5
v 33.0798 1.96863 5
v 32.9841 1.87048 5
v 32.8934 1.76767 5
v 32.8079 1.66046 5
v 32.7278 1.54913 5
v 32.6535 1.43395 5
v 32.5849 1.3152 5
v 32.5223 1.19318 5
v 32.4659 1.0682 5
v 32.4158 0.940555 5
v 32.3722 0.810577 5
v 32.335 0.678583 5
v 32.3045 0.544902 5
v 32.2807 0.409866 5
v 32.2637 0.273812 5
v 32.2534 0.137076 5
v 32.25 -9.43318e-15 5
v 32.2534 -0.137076 5
v 32.2637 -0.273812 5
v 32.2807 -0.409866 5
v 32.3045 -0.544902 5
v 32.335 -0.678583 5
v 32.3722 -0.810577 5
v 32.4158 -0.940555 5
v 32.4659 -1.0682 5
v 32.5223 -1.19318 5
v 32.5849 -1.3152 5
v 32.6535 -1.43395 5
v 32.7278 -1.54913 5
v 32.8079 -1.66046 5
v 32.8934 -1.76767 5
v 32.9841 -1.87048 5
v 33.0798 -1.96863 5
v 33.1804 -2.0619 5
v 33.2854 -2.15004 5
v 33.3947 -2.23283 5
v 33.508 -2.31007 5
v 33.625 -2.38157 5
v 33.7454 -2.44715 5
v 33.869 -2.50664 5
v 33.9953 -2.5599 5
v 34.1242 -2.6068 5
v 34.2552 -2.64722 5
v 34.3881 -2.68105 5
v 34.5225 -2.70822 5
v 34.6581 -2.72866 5
v 34.7945 -2.74231 5
v 34.9314 -2.74915 5
v 35.0686 -2.74915 5
v 35.2055 -2.74231 5
v 35.3419 -2.72866 5
v 35.4775 -2.70822 5
v 35.6119 -2.68105 5
v 35.7448 -2.64722 5
v 35.8758 -2.6068 5
v 36.0047 -2.5599 5
v 36.131 -2.50664 5
v 36.2546 -2.44715 5
v 36.375 -2.38157 5
v 36.492 -2.31007 5
v 36.6053 -2.23283 5
v 36.7146 -2.15004 5
v 36.8196 -2.0619 5
v 36.9202 -1.96863 5
v 37.0159 -1.87048 5
v 37.1066 -1.76767 5
v 37.1921 -1.66046 5
v 37.2722 -1.54913 5
v 37.3465 -1.43395 5
v 37.4151 -1.3152 5
v 37.4777 -1.19318 5
v 37.5341 -1.0682 5
v 37.5842 -0.940555 5
v 37.6278 -0.810577 5
v 37.665 -0.678583 5
v 37.6955 -0.544902 5
v 37.7193 -0.409866 5
v 37.7363 -0.273812 5
v 37.7466 -0.137076 5
v 37.75 -6.73556e-16 5
v 37.75 -6.73556e-16 0
v 37.7466 0.137076 0
v 37.7363 0.273812 0
v 37.7193 0.409866 0
v 37.6955 0.544902 0
v 37.665 0.678583 0
v 37.6278 0.810577 0
v 37.5842 0.940555 0
v 37.5341 1.0682 0
v 37.4777 1.19318 0
v 37.4151 1.3152 0
v 37.3465 1.43395 0
v 37.2722 1.54913 0
v 37.1921 1.66046 0
v 37.1066 1.76767 0
v 37.0159 1.87048 0
v 36.9202 1.96863 0
v 36.8196 2.0619 0
v 36.7146 2.15004 0
v 36.6053 2.23283 0
v 36.492 2.31007 0
v 36.375 2.38157 0
v 36.2546 2.44715 0
v 36.131 2.50664 0
v 36.0047 2.5599 0
v 35.8758 2.6068 0
v 35.7448 2.64722 0
v 35.6119 2.68105 0
v 35.4775 2.70822 0
v 35.3419 2.72866 0
v 35.2055 2.74231 0
v 35.0686 2.74915 0
v 34.9314 2.74915 0
v 34.7945 2.74231 0
v 34.6581 2.72866 0
v 34.5225 2.70822 0
v 34.3881 2.68105 0
v 34.2552 2.64722 0
v 34.1242 2.6068 0
v 33.9953 2.5599 0
v 33.869 2.50664 0
v 33.7454 2.44715 0
v 33.625 2.38157 0
v 33.508 2.31007 0
v 33.3947 2.23283 0
v 33.2854 2.15004 0
v 33.1804 2.0619 0
v 33.0798 1.96863 0
v 32.9841 1.87048 0
v 32.8934 1.76767 0
v 32.8079 1.66046 0
v 32.7278 1.54913 0
v 32.6535 1.43395 0
v 32.5849 1.3152 0
v 32.5223 1.19318 0
v 32.4659 1.0682 0
v 32.4158 0.940555 0
v 32.3722 0.810577 0
v 32.335 0.678583 0
v 32.3045 0.544902 0
v 32.2807 0.409866 0
v 32.2637 0.273812 0
v 32.2534 0.137076 0
v 32.25 -9.43318e-15 0
v 32.2534 -0.137076 0
v 32.2637 -0.273812 0
v 32.2807 -0.409866 0
v 32.3045 -0.544902 0
v 32.335 -0.678583 0
v 32.3722 -0.810577 0
v 32.4158 -0.940555 0
v 32.4659 -1.0682 0
v 32.5223 -1.19318 0
v 32.5849 -1.3152 0
v 32.6535 -1.43395 0
v 32.7278 -1.54913 0
v 32.8079 -1.66046 0
v 32.8934 -1.76767 0
v 32.9841 -1.87048 0
v 33.0798 -1.96863 0
v 33.1804 -2.0619 0
v 33.2854 -2.15004 0
v 33.3947 -2.23283 0
v 33.508 -2.31007 0
v 33.625 -2.38157 0
v 33.7454 -2.44715 0
v 33.869 -2.50664 0
v 33.9953 -2.5599 0
v 34.1242 -2.6068 0
v 34.2552 -2.64722 0
v 34.3881 -2.68105 0
v 34.5225 -2.70822 0
v 34.6581 -2.72866 0
v 34.7945 -2.74231 0
v 34.9314 -2.74915 0
v 35.0686 -2.74915 0
v 35.2055 -2.74231 0
v 35.3419 -2.72866 0
v 35.4775 -2.70822 0
v 35.6119 -2.68105 0
v 35.7448 -2.64722 0
v 35.8758 -2.6068 0
v 36.0047 -2.5599 0
v 36.131 -2.50664 0
v 36.2546 -2.44715 0
v 36.375 -2.38157 0
v 36.492 -2.31007 0
v 36.6053 -2.23283 0
v 36.7146 -2.15004 0
v 36.8196 -2.0619 0
v 36.9202 -1.96863 0
v 37.0159 -1.87048 0
v 37.1066 -1.76767 0
v 37.1921 -1.66046 0
v 37.2722 -1.54913 0
v 37.3465 -1.43395 0
v 37.4151 -1.3152 0
v 37.4777 -1.19318 0
v 37.5341 -1.0682 0
v 37.5842 -0.940555 0
v 37.6278 -0.810577 0
v 37.665 -0.678583 0
v 37.6955 -0.544902 0
v 37.7193 -0.409866 0
v 37.7363 -0.273812 0
v 37.7466 -0.137076 0
v 37.75 -6.73556e-16 0
v 52.75 -6.73556e-16 5
v 52.7466 0.137076 5
v 52.7363 0.273812 5
v 52.7193 0.409866 5
v 52.6955 0.544902 5
v 52.665 0.678583 5
v 52.6278 0.810577 5
v 52.5842 0.940555 5
v 52.5341 1.0682 5
v 52.4777 1.19318 5
v 52.4151 1.3152 5
v 52.3465 1.43395 5
v 52.2722 1.54913 5
v 52.1921 1.66046 5
v 52.1066 1.76767 5
v 52.0159 1.87048 5
v 51.9202 1.96863 5
v 51.8196 2.0619 5
v 51.7146 2.15004 5
v 51.6053 2.23283 5
v 51.492 2.31007 5
v 51.375 2.38157 5
v 51.2546 2.44715 5
v 51.131 2.50664 5
v 51.0047 2.5599 5
v 50.8758 2.6068 5
v 50.7448 2.64722 5
v 50.6119 2.68105 5
v 50.4775 2.70822 5
v 50.3419 2.72866 5
v 50.2055 2.74231 5
v 50.0686 2.74915 5
v 49.9314 2.74915 5
v 49.7945 2.74231 5
v 49.6581 2.72866 5
v 49.5225 2.70822 5
v 49.3881 2.68105 5
v 49.2552 2.64722 5
v 49.1242 2.6068 5
v 48.9953 2.5599 5
v 48.869 2.50664 5
v 48.7454 2.44715 5
v 48.625 2.38157 5
v 48.508 2.31007 5
v 48.3947 2.23283 5
v 48.2854 2.15004 5
v 48.1804 2.0619 5
v 48.0798 1.96863 5
v 47.9841 1.87048 5
v 47.8934 1.76767 5
v 47.8079 1.66046 5
v 47.7278 1.54913 5
v 47.6535 1.43395 5
v 47.5849 1.3152 5
v 47.5223 1.19318 5
v 47.4659 1.0682 5
v 47.4158 0.940555 5
v 47.3722 0.810577 5
v 47.335 0.678583 5
v 47.3045 0.544902 5
v 47.2807 0.409866 5
v 47.2637 0.273812 5
v 47.2534 0.137076 5
v 47.25 -9.43318e-15 5
v 47.2534 -0.137076 5
v 47.2637 -0.273812 5
v 47.2807 -0.409866 5
v 47.3045 -0.544902 5
v 47.335 -0.678583 5
v 47.3722 -0.810577 5
v 47.4158 -0.940555 5
v 47.4659 -1.0682 5
v 47.5223 -1.19318 5
v 47.5849 -1.3152 5
v 47.6535 -1.43395 5
v 47.7278 -1.54913 5
v 47.8079 -1.66046 5
v 47.8934 -1.76767 5
v 47.9841 -1.87048 5
v 48.0798 -1.96863 5
v 48.1804 -2.0619 5
v 48.2854 -2.15004 5
v 48.3947 -2.23283 5
v 48.508 -2.31007 5
v 48.625 -2.38157 5
v 48.7454 -2.44715 5
v 48.869 -2.50664 5
v 48.9953 -2.5599 5
v 49.1242 -2.6068 5
v 49.2552 -2.64722 5
v 49.3881 -2.68105 5
v 49.5225 -2.70822 5
v 49.6581 -2.72866 5
v 49.7945 -2.74231 5
v 49.9314 -2.74915 5
v 50.0686 -2.74915 5
v 50.2055 -2.74231 5
v 50.3419 -2.72866 5
v 50.4775 -2.70822 5
v 50.6119 -2.68105 5
v 50.7448 -2.64722 5
v 50.8758 -2.6068 5
v 51.0047 -2.5599 5
v 51.131 -2.50664 5
v 51.2546 -2.44715 5
v 51.375 -2.38157 5
v 51.492 -2.31007 5
v 51.6053 -2.23283 5
v 51.7146 -2.15004 5
v 51.8196 -2.0619 5
v 51.9202 -1.96863 5
v 52.0159 -1.87048 5
v 52.1066 -1.76767 5
v 52.1921 -1.66046 5
v 52.2722 -1.54913 5
v 52.3465 -1.43395 5
v 52.4151 -1.3152 5
v 52.4777 -1.19318 5
v 52.5341 -1.0682 5
v 52.5842 -0.940555 5
v 52.6278 -0.810577 5
v 52.665 -0.678583 5
v 52.6955 -0.544902 5
v 52.7193 -0.409866 5
v 52.7363 -0.273812 5
v 52.7466 -0.137076 5
v 52.75 -6.73556e-16 5
v 52.75 -6.73556e-16 0
v 52.7466 0.137076 0
v 52.7363 0.273812 0
v 52.7193 0.409866 0
v 52.6955 0.544902 0
v 52.665 0.678583 0
v 52.6278 0.810577 0
v 52.5842 0.940555 0
v 52.5341 1.0682 0
v 52.4777 1.19318 0
v 52.4151 1.3152 0
v 52.3465 1.43395 0
v 52.2722 1.54913 0
v 52.1921 1.66046 0
v 52.1066 1.76767 0
v 52.0159 1.87048 0
v 51.9202 1.96863 0
v 51.8196 2.0619 0
v 51.7146 2.15004 0
v 51.6053 2.23283 0
v 51.492 2.31007 0
v 51.375 2.38157 0
v 51.2546 2.44715 0
v 51.131 2.50664 0
v 51.0047 2.5599 0
v 50.8758 2.6068 0
v 50.7448 2.64722 0
v 50.6119 2.68105 0
v 50.4775 2.70822 0
v 50.3419 2.72866 0
v 50.2055 2.74231 0
v 50.0686 2.74915 0
v 49.9314 2.74915 0
v 49.7945 2.74231 0
v 49.6581 2.72866 0
v 49.5225 2.70822 0
v 49.3881 2.68105 0
v 49.2552 2.64722 0
v 49.1242 2.6068 0
v 48.9953 2.5599 0
v 48.869 2.50664 0
v 48.7454 2.44715 0
v 48.625 2.38157 0
v 48.508 2.31007 0
v 48.3947 2.23283 0
v 48.2854 2.15004 0
v 48.1804 2.0619 0
v 48.0798 1.96863 0
v 47.9841 1.87048 0
v 47.8934 1.76767 0
v 47.8079 1.66046 0
v 47.7278 1.54913 0
v 47.6535 1.43395 0
v 47.5849 1.3152 0
v 47.5223 1.19318 0
v 47.4659 1.0682 0
v 47.4158 0.940555 0
v 47.3722 0.810577 0
v 47.335 0.678583 0
v 47.3045 0.544902 0
v 47.2807 0.409866 0
v 47.2637 0.273812 0
v 47.2534 0.137076 0
v 47.25 -9.43318e-15 0
v 47.2534 -0.137076 0
v 47.2637 -0.273812 0
v 47.2807 -0.409866 0
v 47.3045 -0.544902 0
v 47.335 -0.678583 0
v 47.3722 -0.810577 0
v 47.4158 -0.940555 0
v 47.4659 -1.0682 0
v 47.5223 -1.19318 0
v 47.5849 -1.3152 0
v 47.6535 -1.43395 0
v 47.7278 -1.54913 0
v 47.8079 -1.66046 0
v 47.8934 -1.76767 0
v 47.9841 -1.87048 0
v 48.0798 -1.96863 0
v 48.1804 -2.0619 0
v 48.2854 -2.15004 0
v 48.3947 -2.23283 0
v 48.508 -2.31007 0
v 48.625 -2.38157 0
v 48.7454 -2.44715 0
v 48.869 -2.50664 0
v 48.9953 -2.5599 0
v 49.1242 -2.6068 0
v 49.2552 -2.64722 0
v 49.3881 -2.68105 0
v 49.5225 -2.70822 0
v 49.6581 -2.72866 0
v 49.7945 -2.74231 0
v 49.9314 -2.74915 0
v 50.0686 -2.74915 0
v 50.2055 -2.74231 0
v 50.3419 -2.72866 0
v 50.4775 -2.70822 0
v 50.6119 -2.68105 0
v 50.7448 -2.64722 0
v 50.8758 -2.6068 0
v 51.0047 -2.5599 0
v 51.131 -2.50664 0
v 51.2546 -2.44715 0
v 51.375 -2.38157 0
v 51.492 -2.31007 0
v 51.6053 -2.23283 0
v 51.7146 -2.15004 0
v 51.8196 -2.0619 0
v 51.9202 -1.96863 0
v 52.0159 -1.87048 0
v 52.1066 -1.76767 0
v 52.1921 -1.66046 0
v 52.2722 -1.54913 0
v 52.3465 -1.43395 0
v 52.4151 -1.3152 0
v 52.4777 -1.19318 0
v 52.5341 -1.0682 0
v 52.5842 -0.940555 0
v 52.6278 -0.810577 0
v 52.665 -0.678583 0
v 52.6955 -0.544902 0
v 52.7193 -0.409866 0
v 52.7363 -0.273812 0
v 52.7466 -0.137076 0
v 52.75 -6.73556e-16 0
v 5 -3 30
v 5 -3 5
v 30 -3 5
v 30 3 5
v 5 3 30
v 5 -3 30
v 30 -3 5
v 5 3 30
v 5 3 5
v 30 3 5
f 20 21 3
f 22 3 21
f 19 20 3
f 23 3 22
f 18 19 3
f 24 3 23
f 17 18 3
f 25 3 24
f 16 17 3
f 26 3 25
f 15 16 3
f 27 3 26
f 14 15 3
f 28 3 27
f 13 14 3
f 29 3 28
f 12 13 3
f 30 3 29
f 11 12 3
f 31 3 30
f 10 11 3
f 32 3 31
f 9 10 3
f 33 3 32
f 8 9 3
f 34 3 33
f 7 8 3
f 6 7 3
f 5 3 1
f 5 6 3
f 130 5 1
f 129 130 1
f 128 129 1
f 127 128 1
f 126 127 1
f 125 126 1
f 124 125 1
f 123 124 1
f 122 123 1
f 121 122 1
f 120 121 1
f 119 120 1
f 118 119 1
f 117 118 1
f 116 117 1
f 115 116 1
f 114 115 1
f 113 114 1
f 112 113 1
f 111 112 1
f 110 111 1
f 109 110 1
f 108 109 1
f 107 108 1
f 106 107 1
f 105 106 1
f 104 105 1
f 103 104 1
f 102 103 1
f 4 3 34
f 4 34 35
f 4 35 36
f 4 36 37
f 4 37 38
f 4 38 39
f 4 39 40
f 4 40 41
f 4 41 42
f 4 42 43
f 4 43 44
f 147 52 53
f 146 147 53
f 148 52 147
f 148 51 52
f 145 146 53
f 145 53 54
f 149 51 148
f 149 50 51
f 144 54 55
f 144 55 56
f 144 145 54
f 150 50 149
f 150 49 50
f 143 144 56
f 151 49 150
f 151 47 48
f 151 48 49
f 142 143 56
f 142 56 57
f 142 57 58
f 152 47 151
f 141 142 58
f 141 58 59
f 153 47 152
f 153 46 47
f 140 59 60
f 140 141 59
f 154 46 153
f 154 45 46
f 139 140 60
f 155 45 154
f 155 44 45
f 155 4 44
f 138 139 60
f 138 60 61
f 156 4 155
f 137 61 62
f 137 138 61
f 157 4 156
f 136 137 62
f 136 62 63
f 158 4 157
f 135 136 63
f 135 63 64
f 159 4 158
f 134 64 65
f 134 135 64
f 160 4 159
f 133 134 65
f 133 65 66
f 161 4 160
f 132 133 66
f 132 66 67
f 162 4 161
f 131 132 67
f 131 67 68
f 163 4 162
f 256 131 68
f 256 68 69
f 164 4 163
f 255 69 70
f 255 256 69
f 165 4 164
f 254 70 71
f 254 255 70
f 166 4 165
f 253 71 72
f 253 254 71
f 167 4 166
f 252 72 73
f 252 253 72
f 168 4 167
f 251 73 74
f 251 252 73
f 169 4 168
f 250 74 75
f 250 251 74
f 170 4 169
f 249 75 76
f 249 250 75
f 171 4 170
f 248 249 76
f 248 76 77
f 172 4 171
f 247 248 77
f 247 77 78
f 173 4 172
f 246 247 78
f 246 78 79
f 174 4 173
f 245 246 79
f 245 79 80
f 175 4 174
f 244 245 80
f 244 80 81
f 176 4 175
f 243 244 81
f 243 81 82
f 177 4 176
f 242 243 82
f 242 82 83
f 178 4 177
f 241 242 83
f 241 83 84
f 179 4 178
f 240 241 84
f 240 84 85
f 180 4 179
f 239 240 85
f 239 85 86
f 181 4 180
f 238 239 86
f 238 86 87
f 182 4 181
f 237 238 87
f 237 87 88
f 183 4 182
f 236 237 88
f 236 88 89
f 184 4 183
f 235 236 89
f 235 89 90
f 185 4 184
f 234 235 90
f 234 90 91
f 186 4 185
f 233 234 91
f 233 91 92
f 187 4 186
f 188 4 187
f 189 4 188
f 190 4 189
f 191 4 190
f 192 4 191
f 193 4 192
f 194 4 193
f 2 101 102
f 2 202 203
f 2 203 204
f 2 204 205
f 2 205 206
f 2 206 207
f 2 207 208
f 2 208 209
f 2 209 210
f 2 210 211
f 2 211 212
f 2 212 213
f 2 213 214
f 2 214 215
f 2 215 216
f 2 216 217
f 2 217 218
f 2 218 219
f 2 219 220
f 2 220 221
f 2 221 222
f 2 222 223
f 2 223 224
f 2 224 225
f 2 225 226
f 2 226 227
f 2 227 228
f 2 228 229
f 2 229 230
f 2 230 231
f 2 231 232
f 2 232 233
f 2 102 1
f 2 233 92
f 2 92 93
f 2 93 94
f 2 194 195
f 2 94 95
f 2 195 196
f 2 95 96
f 2 196 197
f 2 96 97
f 2 197 198
f 2 97 98
f 2 198 199
f 2 98 99
f 2 199 200
f 2 99 100
f 2 4 194
f 2 200 201
f 2 100 101
f 2 201 202
f 259 257 261
f 258 261 257
f 262 261 258
f 260 259 261
f 345 346 263
f 347 263 346
f 344 345 263
f 348 263 347
f 343 344 263
f 349 263 348
f 342 343 263
f 350 263 349
f 341 342 263
f 351 263 350
f 340 341 263
f 352 263 351
f 339 340 263
f 353 263 352
f 338 339 263
f 354 263 353
f 337 338 263
f 355 263 354
f 336 337 263
f 356 263 355
f 335 336 263
f 357 263 356
f 334 335 263
f 358 263 357
f 333 334 263
f 359 263 358
f 332 333 263
f 331 332 263
f 330 263 264
f 330 331 263
f 329 330 264
f 328 329 264
f 327 328 264
f 326 327 264
f 325 326 264
f 324 325 264
f 323 324 264
f 322 323 264
f 321 322 264
f 320 321 264
f 319 320 264
f 318 319 264
f 317 318 264
f 316 317 264
f 315 316 264
f 314 315 264
f 313 314 264
f 312 313 264
f 311 312 264
f 310 311 264
f 309 310 264
f 308 309 264
f 307 308 264
f 306 307 264
f 305 306 264
f 304 305 264
f 303 304 264
f 302 303 264
f 301 302 264
f 265 363 364
f 265 364 365
f 265 365 366
f 265 366 367
f 265 367 368
f 265 368 369
f 265 359 360
f 265 360 361
f 265 263 359
f 265 361 362
f 265 362 363
f 472 376 377
f 471 377 378
f 471 472 377
f 473 376 472
f 470 378 379
f 470 471 378
f 474 374 375
f 474 375 376
f 474 376 473
f 469 379 380
f 469 470 379
f 475 373 374
f 475 374 474
f 468 380 381
f 468 469 380
f 476 372 373
f 476 373 475
f 467 468 381
f 467 381 382
f 477 372 476
f 466 382 383
f 466 467 382
f 478 370 371
f 478 371 372
f 478 372 477
f 465 466 383
f 465 383 384
f 479 370 478
f 464 384 385
f 464 465 384
f 480 369 370
f 480 370 479
f 480 265 369
f 463 385 386
f 463 464 385
f 481 265 480
f 462 463 386
f 462 386 387
f 462 387 388
f 482 265 481
f 461 462 388
f 483 265 482
f 460 388 389
f 460 461 388
f 484 265 483
f 459 389 390
f 459 460 389
f 485 265 484
f 458 390 391
f 458 459 390
f 486 265 485
f 457 391 392
f 457 458 391
f 487 265 486
f 456 392 267
f 456 457 392
f 488 265 487
f 455 267 268
f 455 268 269
f 455 456 267
f 489 265 488
f 454 455 269
f 490 265 489
f 453 269 270
f 453 454 269
f 491 265 490
f 452 270 271
f 452 453 270
f 492 265 491
f 451 271 272
f 451 452 271
f 493 265 492
f 450 272 273
f 450 273 274
f 450 451 272
f 494 265 493
f 449 450 274
f 495 265 494
f 448 274 275
f 448 275 276
f 448 449 274
f 496 265 495
f 447 448 276
f 497 265 496
f 446 276 277
f 446 447 276
f 498 265 497
f 445 277 278
f 445 446 277
f 499 265 498
f 444 445 278
f 444 278 279
f 500 265 499
f 443 279 280
f 443 444 279
f 501 265 500
f 442 280 281
f 442 443 280
f 502 265 501
f 441 281 282
f 441 442 281
f 503 265 502
f 440 282 283
f 440 441 282
f 504 265 503
f 439 283 284
f 439 440 283
f 505 265 504
f 438 439 284
f 438 284 285
f 506 265 505
f 437 285 286
f 437 286 287
f 437 438 285
f 507 265 506
f 436 437 287
f 508 265 507
f 435 287 288
f 435 288 289
f 435 436 287
f 509 265 508
f 434 435 289
f 510 265 509
f 433 289 290
f 433 434 289
f 511 265 510
f 432 290 291
f 432 433 290
f 512 265 511
f 513 265 512
f 514 265 513
f 515 265 514
f 516 265 515
f 517 265 516
f 518 265 517
f 393 265 518
f 266 291 292
f 266 292 293
f 266 393 394
f 266 293 294
f 266 394 395
f 266 294 295
f 266 395 396
f 266 295 296
f 266 396 397
f 266 296 297
f 266 397 398
f 266 297 298
f 266 398 399
f 266 298 299
f 266 399 400
f 266 299 300
f 266 432 291
f 266 400 401
f 266 300 301
f 266 401 402
f 266 402 403
f 266 301 264
f 266 403 404
f 266 404 405
f 266 405 406
f 266 406 407
f 266 407 408
f 266 408 409
f 266 409 410
f 266 410 411
f 266 411 412
f 266 412 413
f 266 413 414
f 266 414 415
f 266 415 416
f 266 416 417
f 266 417 418
f 266 418 419
f 266 419 420
f 266 420 421
f 266 421 422
f 266 422 423
f 266 423 424
f 266 424 425
f 266 425 426
f 266 426 427
f 266 427 428
f 266 428 429
f 266 429 430
f 266 430 431
f 266 431 432
f 266 265 393
f 520 519 521
f 522 520 521
f 528 524 526
f 523 526 524
f 525 526 523
f 527 528 526
f 530 656 529
f 530 657 656
f 531 658 657
f 531 659 658
f 531 657 530
f 532 659 531
f 533 660 659
f 533 661 660
f 533 659 532
f 534 661 533
f 535 662 661
f 535 661 534
f 536 663 662
f 536 664 663
f 536 662 535
f 537 664 536
f 538 665 664
f 538 666 665
f 538 664 537
f 539 666 538
f 540 666 539
f 540 667 666
f 540 668 667
f 541 668 540
f 542 668 541
f 542 669 668
f 543 669 542
f 543 670 669
f 543 671 670
f 544 671 543
f 544 672 671
f 545 672 544
f 546 672 545
f 546 673 672
f 547 673 546
f 547 674 673
f 548 674 547
f 548 675 674
f 549 675 548
f 549 676 675
f 550 676 549
f 550 677 676
f 551 677 550
f 551 678 677
f 552 679 678
f 552 678 551
f 553 680 679
f 553 679 552
f 554 681 680
f 554 680 553
f 555 682 681
f 555 683 682
f 555 681 554
f 556 683 555
f 557 684 683
f 557 685 684
f 557 683 556
f 558 685 557
f 559 686 685
f 559 685 558
f 560 687 686
f 560 688 687
f 560 686 559
f 561 688 560
f 562 689 688
f 562 688 561
f 563 690 689
f 563 689 562
f 564 691 690
f 564 690 563
f 565 692 691
f 565 691 564
f 566 692 565
f 566 693 692
f 567 693 566
f 567 694 693
f 567 695 694
f 568 695 567
f 569 695 568
f 569 696 695
f 570 696 569
f 570 697 696
f 571 697 570
f 571 698 697
f 572 698 571
f 572 699 698
f 573 699 572
f 573 700 699
f 574 700 573
f 574 701 700
f 574 702 701
f 575 702 574
f 576 702 575
f 576 703 702
f 577 703 576
f 577 704 703
f 578 704 577
f 578 705 704
f 579 705 578
f 579 706 705
f 579 707 706
f 580 707 579
f 581 707 580
f 581 708 707
f 581 709 708
f 582 709 581
f 583 709 582
f 583 710 709
f 584 710 583
f 584 711 710
f 585 711 584
f 585 712 711
f 586 712 585
f 586 713 712
f 586 714 713
f 587 714 586
f 588 715 714
f 588 714 587
f 589 716 715
f 589 717 716
f 589 715 588
f 590 718 717
f 590 717 589
f 591 718 590
f 591 719 718
f 592 719 591
f 592 720 719
f 593 720 592
f 594 720 593
f 594 721 720
f 594 722 721
f 595 722 594
f 595 723 722
f 596 723 595
f 597 723 596
f 597 724 723
f 598 724 597
f 598 725 724
f 598 726 725
f 599 726 598
f 600 726 599
f 600 727 726
f 601 727 600
f 601 728 727
f 602 728 601
f 602 729 728
f 603 729 602
f 603 730 729
f 604 731 730
f 604 730 603
f 605 732 731
f 605 731 604
f 606 733 732
f 606 732 605
f 607 734 733
f 607 733 606
f 608 735 734
f 608 734 607
f 609 736 735
f 609 735 608
f 610 737 736
f 610 736 609
f 611 738 737
f 611 737 610
f 612 739 738
f 612 740 739
f 612 738 611
f 613 740 612
f 614 741 740
f 614 740 613
f 615 742 741
f 615 743 742
f 615 741 614
f 616 743 615
f 617 743 616
f 617 744 743
f 618 744 617
f 618 745 744
f 619 745 618
f 619 746 745
f 619 747 746
f 620 747 619
f 620 748 747
f 621 748 620
f 622 749 748
f 622 750 749
f 622 748 621
f 623 750 622
f 624 751 750
f 624 750 623
f 625 752 751
f 625 751 624
f 626 753 752
f 626 752 625
f 627 754 753
f 627 753 626
f 628 755 754
f 628 754 627
f 629 756 755
f 629 755 628
f 630 757 756
f 630 756 629
f 631 758 757
f 631 759 758
f 631 757 630
f 632 760 759
f 632 759 631
f 633 761 760
f 633 760 632
f 634 761 633
f 635 762 761
f 635 761 634
f 636 763 762
f 636 762 635
f 637 764 763
f 637 763 636
f 638 765 764
f 638 764 637
f 639 766 765
f 639 765 638
f 640 767 766
f 640 768 767
f 640 766 639
f 641 768 640
f 642 768 641
f 642 769 768
f 642 770 769
f 643 770 642
f 644 770 643
f 644 771 770
f 645 771 644
f 645 772 771
f 645 773 772
f 646 773 645
f 647 773 646
f 647 774 773
f 648 774 647
f 648 775 774
f 648 776 775
f 649 776 648
f 650 776 649
f 650 777 776
f 651 777 650
f 651 778 777
f 652 778 651
f 652 779 778
f 653 779 652
f 653 780 779
f 654 781 780
f 654 780 653
f 655 782 781
f 655 781 654
f 784 910 783
f 784 911 910
f 785 912 911
f 785 913 912
f 785 911 784
f 786 913 785
f 787 914 913
f 787 915 914
f 787 913 786
f 788 915 787
f 789 916 915
f 789 915 788
f 790 917 916
f 790 918 917
f 790 916 789
f 791 918 790
f 792 919 918
f 792 920 919
f 792 918 791
f 793 920 792
f 794 920 793
f 794 921 920
f 794 922 921
f 795 922 794
f 796 922 795
f 796 923 922
f 797 923 796
f 797 924 923
f 797 925 924
f 798 925 797
f 798 926 925
f 799 926 798
f 800 926 799
f 800 927 926
f 801 927 800
f 801 928 927
f 802 928 801
f 802 929 928
f 803 929 802
f 803 930 929
f 804 930 803
f 804 931 930
f 805 931 804
f 805 932 931
f 806 933 932
f 806 932 805
f 807 934 933
f 807 933 806
f 808 935 934
f 808 934 807
f 809 936 935
f 809 937 936
f 809 935 808
f 810 937 809
f 811 938 937
f 811 939 938
f 811 937 810
f 812 939 811
f 813 940 939
f 813 939 812
f 814 941 940
f 814 942 941
f 814 940 813
f 815 942 814
f 816 943 942
f 816 942 815
f 817 944 943
f 817 943 816
f 818 945 944
f 818 944 817
f 819 946 945
f 819 945 818
f 820 946 819
f 820 947 946
f 821 947 820
f 821 948 947
f 821 949 948
f 822 949 821
f 823 949 822
f 823 950 949
f 824 950 823
f 824 951 950
f 825 951 824
f 825 952 951
f 826 952 825
f 826 953 952
f 827 953 826
f 827 954 953
f 828 954 827
f 828 955 954
f 828 956 955
f 829 956 828
f 830 956 829
f 830 957 956
f 831 957 830
f 831 958 957
f 832 958 831
f 832 959 958
f 833 959 832
f 833 960 959
f 833 961 960
f 834 961 833
f 835 961 834
f 835 962 961
f 835 963 962
f 836 963 835
f 837 963 836
f 837 964 963
f 838 964 837
f 838 965 964
f 839 965 838
f 839 966 965
f 840 966 839
f 840 967 966
f 840 968 967
f 841 968 840
f 842 969 968
f 842 968 841
f 843 970 969
f 843 971 970
f 843 969 842
f 844 972 971
f 844 971 843
f 845 972 844
f 845 973 972
f 846 973 845
f 846 974 973
f 847 974 846
f 848 974 847
f 848 975 974
f 848 976 975
f 849 976 848
f 849 977 976
f 850 977 849
f 851 977 850
f 851 978 977
f 852 978 851
f 852 979 978
f 852 980 979
f 853 980 852
f 854 980 853
f 854 981 980
f 855 981 854
f 855 982 981
f 856 982 855
f 856 983 982
f 857 983 856
f 857 984 983
f 858 985 984
f 858 984 857
f 859 986 985
f 859 985 858
f 860 987 986
f 860 986 859
f 861 988 987
f 861 987 860
f 862 989 988
f 862 988 861
f 863 990 989
f 863 989 862
f 864 991 990
f 864 990 863
f 865 992 991
f 865 991 864
f 866 993 992
f 866 994 993
f 866 992 865
f 867 994 866
f 868 995 994
f 868 994 867
f 869 996 995
f 869 997 996
f 869 995 868
f 870 997 869
f 871 997 870
f 871 998 997
f 872 998 871
f 872 999 998
f 873 999 872
f 873 1000 999
f 873 1001 1000
f 874 1001 873
f 874 1002 1001
f 875 1002 874
f 876 1003 1002
f 876 1004 1003
f 876 1002 875
f 877 1004 876
f 878 1005 1004
f 878 1004 877
f 879 1006 1005
f 879 1005 878
f 880 1007 1006
f 880 1006 879
f 881 1008 1007
f 881 1007 880
f 882 1009 1008
f 882 1008 881
f 883 1010 1009
f 883 1009 882
f 884 1011 1010
f 884 1010 883
f 885 1012 1011
f 885 1013 1012
f 885 1011 884
f 886 1014 1013
f 886 1013 885
f 887 1015 1014
f 887 1014 886
f 888 1015 887
f 889 1016 1015
f 889 1015 888
f 890 1017 1016
f 890 1016 889
f 891 1018 1017
f 891 1017 890
f 892 1019 1018
f 892 1018 891
f 893 1020 1019
f 893 1019 892
f 894 1021 1020
f 894 1022 1021
f 894 1020 893
f 895 1022 894
f 896 1022 895
f 896 1023 1022
f 896 1024 1023
f 897 1024 896
f 898 1024 897
f 898 1025 1024
f 899 1025 898
f 899 1026 1025
f 899 1027 1026
f 900 1027 899
f 901 1027 900
f 901 1028 1027
f 902 1028 901
f 902 1029 1028
f 902 1030 1029
f 903 1030 902
f 904 1030 903
f 904 1031 1030
f 905 1031 904
f 905 1032 1031
f 906 1032 905
f 906 1033 1032
f 907 1033 906
f 907 1034 1033
f 908 1035 1034
f 908 1034 907
f 909 1036 1035
f 909 1035 908
f 1041 1042 1043
f 1060 1041 1061
f 1062 1061 1041
f 1059 1041 1060
f 1063 1062 1041
f 1058 1041 1059
f 1064 1063 1041
f 1057 1041 1058
f 1065 1064 1041
f 1056 1041 1057
f 1066 1065 1041
f 1055 1041 1056
f 1067 1066 1041
f 1054 1041 1055
f 1068 1067 1041
f 1053 1041 1054
f 1069 1068 1041
f 1052 1041 1053
f 1070 1069 1041
f 1051 1041 1052
f 1071 1070 1041
f 1050 1041 1051
f 1072 1071 1041
f 1049 1041 1050
f 1073 1072 1041
f 1048 1041 1049
f 1074 1073 1041
f 1047 1041 1048
f 1075 1074 1041
f 1046 1041 1047
f 1076 1075 1041
f 1045 1041 1046
f 1040 1037 1039
f 1040 1168 1167
f 1040 1169 1168
f 1040 1170 1169
f 1040 1045 1170
f 1040 1041 1045
f 1166 1040 1167
f 1165 1040 1166
f 1164 1040 1165
f 1163 1040 1164
f 1162 1040 1163
f 1161 1040 1162
f 1160 1040 1161
f 1159 1040 1160
f 1158 1040 1159
f 1157 1040 1158
f 1156 1040 1157
f 1155 1040 1156
f 1154 1040 1155
f 1153 1040 1154
f 1152 1040 1153
f 1151 1040 1152
f 1150 1040 1151
f 1149 1040 1150
f 1148 1040 1149
f 1147 1040 1148
f 1146 1040 1147
f 1145 1040 1146
f 1144 1040 1145
f 1143 1040 1144
f 1142 1040 1143
f 1141 1040 1142
f 1140 1040 1141
f 1044 1076 1041
f 1044 1077 1076
f 1044 1078 1077
f 1044 1079 1078
f 1044 1080 1079
f 1044 1081 1080
f 1044 1082 1081
f 1044 1083 1082
f 1044 1084 1083
f 1044 1041 1043
f 1186 1092 1187
f 1186 1093 1092
f 1188 1187 1092
f 1188 1092 1091
f 1185 1093 1186
f 1185 1094 1093
f 1189 1188 1091
f 1189 1090 1089
f 1189 1091 1090
f 1184 1095 1094
f 1184 1096 1095
f 1184 1094 1185
f 1190 1189 1089
f 1183 1096 1184
f 1191 1190 1089
f 1191 1088 1087
f 1191 1089 1088
f 1182 1097 1096
f 1182 1096 1183
f 1192 1191 1087
f 1181 1097 1182
f 1181 1098 1097
f 1193 1192 1087
f 1193 1086 1085
f 1193 1087 1086
f 1180 1098 1181
f 1180 1099 1098
f 1194 1193 1085
f 1179 1099 1180
f 1179 1100 1099
f 1195 1194 1085
f 1195 1085 1084
f 1195 1084 1044
f 1178 1100 1179
f 1178 1101 1100
f 1178 1102 1101
f 1196 1195 1044
f 1177 1102 1178
f 1197 1196 1044
f 1176 1102 1177
f 1176 1103 1102
f 1198 1197 1044
f 1175 1103 1176
f 1175 1104 1103
f 1199 1198 1044
f 1174 1104 1175
f 1174 1105 1104
f 1200 1199 1044
f 1173 1105 1174
f 1173 1106 1105
f 1201 1200 1044
f 1172 1106 1173
f 1172 1107 1106
f 1202 1201 1044
f 1171 1108 1107
f 1171 1107 1172
f 1203 1202 1044
f 1296 1109 1108
f 1296 1110 1109
f 1296 1108 1171
f 1204 1203 1044
f 1295 1110 1296
f 1205 1204 1044
f 1294 1110 1295
f 1294 1111 1110
f 1294 1112 1111
f 1206 1205 1044
f 1293 1112 1294
f 1207 1206 1044
f 1292 1112 1293
f 1292 1113 1112
f 1292 1114 1113
f 1208 1207 1044
f 1291 1114 1292
f 1209 1208 1044
f 1290 1114 1291
f 1290 1115 1114
f 1210 1209 1044
f 1289 1115 1290
f 1289 1116 1115
f 1211 1210 1044
f 1288 1116 1289
f 1288 1117 1116
f 1212 1211 1044
f 1287 1118 1117
f 1287 1117 1288
f 1213 1212 1044
f 1286 1118 1287
f 1286 1119 1118
f 1214 1213 1044
f 1285 1119 1286
f 1285 1120 1119
f 1215 1214 1044
f 1284 1120 1285
f 1284 1121 1120
f 1216 1215 1044
f 1283 1121 1284
f 1283 1122 1121
f 1217 1216 1044
f 1282 1122 1283
f 1282 1123 1122
f 1218 1217 1044
f 1281 1123 1282
f 1281 1124 1123
f 1281 1125 1124
f 1219 1218 1044
f 1280 1125 1281
f 1220 1219 1044
f 1279 1125 1280
f 1279 1126 1125
f 1221 1220 1044
f 1278 1127 1126
f 1278 1126 1279
f 1222 1221 1044
f 1277 1127 1278
f 1277 1128 1127
f 1223 1222 1044
f 1276 1128 1277
f 1276 1129 1128
f 1224 1223 1044
f 1275 1129 1276
f 1275 1130 1129
f 1225 1224 1044
f 1274 1130 1275
f 1274 1131 1130
f 1226 1225 1044
f 1273 1131 1274
f 1273 1132 1131
f 1227 1226 1044
f 1228 1227 1044
f 1229 1228 1044
f 1230 1229 1044
f 1231 1230 1044
f 1232 1231 1044
f 1233 1232 1044
f 1234 1233 1044
f 1038 1138 1137
f 1038 1239 1238
f 1038 1139 1138
f 1038 1240 1239
f 1038 1140 1139
f 1038 1241 1240
f 1038 1242 1241
f 1038 1243 1242
f 1038 1244 1243
f 1038 1245 1244
f 1038 1246 1245
f 1038 1247 1246
f 1038 1248 1247
f 1038 1249 1248
f 1038 1250 1249
f 1038 1251 1250
f 1038 1252 1251
f 1038 1253 1252
f 1038 1254 1253
f 1038 1255 1254
f 1038 1256 1255
f 1038 1257 1256
f 1038 1258 1257
f 1038 1259 1258
f 1038 1260 1259
f 1038 1261 1260
f 1038 1262 1261
f 1038 1263 1262
f 1038 1264 1263
f 1038 1265 1264
f 1038 1266 1265
f 1038 1267 1266
f 1038 1268 1267
f 1038 1269 1268
f 1038 1270 1269
f 1038 1271 1270
f 1038 1272 1271
f 1038 1273 1272
f 1038 1037 1040
f 1038 1040 1140
f 1038 1132 1273
f 1038 1133 1132
f 1038 1134 1133
f 1038 1235 1234
f 1038 1135 1134
f 1038 1236 1235
f 1038 1136 1135
f 1038 1237 1236
f 1038 1137 1136
f 1038 1234 1044
f 1038 1238 1237
f 1301 1302 1303
f 1383 1301 1384
f 1385 1384 1301
f 1382 1301 1383
f 1386 1385 1301
f 1381 1301 1382
f 1387 1386 1301
f 1380 1301 1381
f 1388 1387 1301
f 1379 1301 1380
f 1389 1388 1301
f 1378 1301 1379
f 1390 1389 1301
f 1377 1301 1378
f 1391 1390 1301
f 1376 1301 1377
f 1392 1391 1301
f 1375 1301 1376
f 1393 1392 1301
f 1374 1301 1375
f 1394 1393 1301
f 1373 1301 1374
f 1395 1394 1301
f 1372 1301 1373
f 1396 1395 1301
f 1371 1301 1372
f 1397 1396 1301
f 1370 1301 1371
f 1398 1397 1301
f 1369 1301 1370
f 1399 1398 1301
f 1368 1301 1369
f 1300 1297 1299
f 1300 1301 1368
f 1300 1365 1364
f 1300 1366 1365
f 1300 1367 1366
f 1300 1368 1367
f 1363 1300 1364
f 1362 1300 1363
f 1361 1300 1362
f 1360 1300 1361
f 1359 1300 1360
f 1358 1300 1359
f 1357 1300 1358
f 1356 1300 1357
f 1355 1300 1356
f 1354 1300 1355
f 1353 1300 1354
f 1352 1300 1353
f 1351 1300 1352
f 1350 1300 1351
f 1349 1300 1350
f 1348 1300 1349
f 1347 1300 1348
f 1346 1300 1347
f 1345 1300 1346
f 1344 1300 1345
f 1343 1300 1344
f 1342 1300 1343
f 1341 1300 1342
f 1340 1300 1341
f 1339 1300 1340
f 1338 1300 1339
f 1337 1300 1338
f 1304 1400 1399
f 1304 1401 1400
f 1304 1402 1401
f 1304 1403 1402
f 1304 1404 1403
f 1304 1405 1404
f 1304 1406 1405
f 1304 1407 1406
f 1304 1399 1301
f 1304 1301 1303
f 1510 1415 1414
f 1509 1416 1415
f 1509 1415 1510
f 1511 1510 1414
f 1508 1417 1416
f 1508 1416 1509
f 1512 1414 1413
f 1512 1511 1414
f 1507 1418 1417
f 1507 1417 1508
f 1513 1512 1413
f 1513 1413 1412
f 1506 1419 1418
f 1506 1420 1419
f 1506 1418 1507
f 1514 1411 1410
f 1514 1412 1411
f 1514 1513 1412
f 1505 1420 1506
f 1515 1514 1410
f 1504 1420 1505
f 1504 1421 1420
f 1516 1409 1408
f 1516 1410 1409
f 1516 1515 1410
f 1503 1422 1421
f 1503 1421 1504
f 1517 1408 1407
f 1517 1516 1408
f 1502 1423 1422
f 1502 1424 1423
f 1502 1422 1503
f 1518 1407 1304
f 1518 1517 1407
f 1501 1424 1502
f 1519 1518 1304
f 1500 1425 1424
f 1500 1424 1501
f 1520 1519 1304
f 1499 1426 1425
f 1499 1425 1500
f 1521 1520 1304
f 1498 1427 1426
f 1498 1426 1499
f 1522 1521 1304
f 1497 1427 1498
f 1497 1428 1427
f 1523 1522 1304
f 1496 1428 1497
f 1496 1429 1428
f 1524 1523 1304
f 1495 1430 1429
f 1495 1305 1430
f 1495 1429 1496
f 1525 1524 1304
f 1494 1305 1495
f 1526 1525 1304
f 1493 1306 1305
f 1493 1305 1494
f 1527 1526 1304
f 1492 1307 1306
f 1492 1306 1493
f 1528 1527 1304
f 1491 1308 1307
f 1491 1307 1492
f 1529 1528 1304
f 1490 1309 1308
f 1490 1308 1491
f 1530 1529 1304
f 1489 1310 1309
f 1489 1311 1310
f 1489 1309 1490
f 1531 1530 1304
f 1488 1312 1311
f 1488 1311 1489
f 1532 1531 1304
f 1487 1312 1488
f 1533 1532 1304
f 1486 1312 1487
f 1486 1313 1312
f 1486 1314 1313
f 1534 1533 1304
f 1485 1314 1486
f 1485 1315 1314
f 1535 1534 1304
f 1484 1315 1485
f 1536 1535 1304
f 1483 1315 1484
f 1483 1316 1315
f 1483 1317 1316
f 1537 1536 1304
f 1482 1317 1483
f 1538 1537 1304
f 1481 1318 1317
f 1481 1317 1482
f 1539 1538 1304
f 1480 1318 1481
f 1480 1319 1318
f 1540 1539 1304
f 1479 1320 1319
f 1479 1321 1320
f 1479 1319 1480
f 1541 1540 1304
f 1478 1321 1479
f 1542 1541 1304
f 1477 1322 1321
f 1477 1323 1322
f 1477 1321 1478
f 1543 1542 1304
f 1476 1323 1477
f 1544 1543 1304
f 1475 1324 1323
f 1475 1323 1476
f 1545 1544 1304
f 1474 1325 1324
f 1474 1324 1475
f 1546 1545 1304
f 1473 1326 1325
f 1473 1327 1326
f 1473 1325 1474
f 1547 1546 1304
f 1472 1327 1473
f 1548 1547 1304
f 1471 1328 1327
f 1471 1327 1472
f 1549 1548 1304
f 1470 1329 1328
f 1470 1328 1471
f 1550 1549 1304
f 1551 1550 1304
f 1552 1551 1304
f 1553 1552 1304
f 1554 1553 1304
f 1555 1554 1304
f 1556 1555 1304
f 1431 1556 1304
f 1298 1431 1304
f 1298 1330 1329
f 1298 1331 1330
f 1298 1432 1431
f 1298 1332 1331
f 1298 1433 1432
f 1298 1333 1332
f 1298 1434 1433
f 1298 1334 1333
f 1298 1435 1434
f 1298 1335 1334
f 1298 1436 1435
f 1298 1336 1335
f 1298 1437 1436
f 1298 1337 1336
f 1298 1438 1437
f 1298 1439 1438
f 1298 1440 1439
f 1298 1441 1440
f 1298 1442 1441
f 1298 1443 1442
f 1298 1444 1443
f 1298 1445 1444
f 1298 1446 1445
f 1298 1447 1446
f 1298 1297 1300
f 1298 1448 1447
f 1298 1449 1448
f 1298 1450 1449
f 1298 1451 1450
f 1298 1452 1451
f 1298 1453 1452
f 1298 1300 1337
f 1298 1454 1453
f 1298 1455 1454
f 1298 1456 1455
f 1298 1457 1456
f 1298 1458 1457
f 1298 1459 1458
f 1298 1460 1459
f 1298 1461 1460
f 1298 1462 1461
f 1298 1463 1462
f 1298 1464 1463
f 1298 1465 1464
f 1298 1466 1465
f 1298 1467 1466
f 1298 1468 1467
f 1298 1469 1468
f 1298 1470 1469
f 1298 1329 1470
f 1557 1559 1560
f 1558 1557 1560
f 1562 1688 1561
f 1562 1689 1688
f 1563 1690 1689
f 1563 1691 1690
f 1563 1689 1562
f 1564 1691 1563
f 1565 1692 1691
f 1565 1693 1692
f 1565 1691 1564
f 1566 1693 1565
f 1567 1694 1693
f 1567 1693 1566
f 1568 1695 1694
f 1568 1696 1695
f 1568 1694 1567
f 1569 1696 1568
f 1570 1697 1696
f 1570 1698 1697
f 1570 1696 1569
f 1571 1698 1570
f 1572 1698 1571
f 1572 1699 1698
f 1572 1700 1699
f 1573 1700 1572
f 1574 1700 1573
f 1574 1701 1700
f 1575 1701 1574
f 1575 1702 1701
f 1575 1703 1702
f 1576 1703 1575
f 1576 1704 1703
f 1577 1704 1576
f 1578 1704 1577
f 1578 1705 1704
f 1579 1705 1578
f 1579 1706 1705
f 1580 1706 1579
f 1580 1707 1706
f 1581 1707 1580
f 1581 1708 1707
f 1582 1708 1581
f 1582 1709 1708
f 1583 1709 1582
f 1583 1710 1709
f 1584 1711 1710
f 1584 1710 1583
f 1585 1712 1711
f 1585 1711 1584
f 1586 1713 1712
f 1586 1712 1585
f 1587 1714 1713
f 1587 1715 1714
f 1587 1713 1586
f 1588 1715 1587
f 1589 1716 1715
f 1589 1717 1716
f 1589 1715 1588
f 1590 1717 1589
f 1591 1718 1717
f 1591 1717 1590
f 1592 1719 1718
f 1592 1720 1719
f 1592 1718 1591
f 1593 1720 1592
f 1594 1721 1720
f 1594 1720 1593
f 1595 1722 1721
f 1595 1721 1594
f 1596 1723 1722
f 1596 1722 1595
f 1597 1724 1723
f 1597 1723 1596
f 1598 1724 1597
f 1598 1725 1724
f 1599 1725 1598
f 1599 1726 1725
f 1599 1727 1726
f 1600 1727 1599
f 1601 1727 1600
f 1601 1728 1727
f 1602 1728 1601
f 1602 1729 1728
f 1603 1729 1602
f 1603 1730 1729
f 1604 1730 1603
f 1604 1731 1730
f 1605 1731 1604
f 1605 1732 1731
f 1606 1732 1605
f 1606 1733 1732
f 1606 1734 1733
f 1607 1734 1606
f 1608 1734 1607
f 1608 1735 1734
f 1609 1735 1608
f 1609 1736 1735
f 1610 1736 1609
f 1610 1737 1736
f 1611 1737 1610
f 1611 1738 1737
f 1611 1739 1738
f 1612 1739 1611
f 1613 1739 1612
f 1613 1740 1739
f 1613 1741 1740
f 1614 1741 1613
f 1615 1741 1614
f 1615 1742 1741
f 1616 1742 1615
f 1616 1743 1742
f 1617 1743 1616
f 1617 1744 1743
f 1618 1744 1617
f 1618 1745 1744
f 1618 1746 1745
f 1619 1746 1618
f 1620 1747 1746
f 1620 1746 1619
f 1621 1748 1747
f 1621 1749 1748
f 1621 1747 1620
f 1622 1750 1749
f 1622 1749 1621
f 1623 1750 1622
f 1623 1751 1750
f 1624 1751 1623
f 1624 1752 1751
f 1625 1752 1624
f 1626 1752 1625
f 1626 1753 1752
f 1626 1754 1753
f 1627 1754 1626
f 1627 1755 1754
f 1628 1755 1627
f 1629 1755 1628
f 1629 1756 1755
f 1630 1756 1629
f 1630 1757 1756
f 1630 1758 1757
f 1631 1758 1630
f 1632 1758 1631
f 1632 1759 1758
f 1633 1759 1632
f 1633 1760 1759
f 1634 1760 1633
f 1634 1761 1760
f 1635 1761 1634
f 1635 1762 1761
f 1636 1763 1762
f 1636 1762 1635
f 1637 1764 1763
f 1637 1763 1636
f 1638 1765 1764
f 1638 1764 1637
f 1639 1766 1765
f 1639 1765 1638
f 1640 1767 1766
f 1640 1766 1639
f 1641 1768 1767
f 1641 1767 1640
f 1642 1769 1768
f 1642 1768 1641
f 1643 1770 1769
f 1643 1769 1642
f 1644 1771 1770
f 1644 1772 1771
f 1644 1770 1643
f 1645 1772 1644
f 1646 1773 1772
f 1646 1772 1645
f 1647 1774 1773
f 1647 1775 1774
f 1647 1773 1646
f 1648 1775 1647
f 1649 1775 1648
f 1649 1776 1775
f 1650 1776 1649
f 1650 1777 1776
f 1651 1777 1650
f 1651 1778 1777
f 1651 1779 1778
f 1652 1779 1651
f 1652 1780 1779
f 1653 1780 1652
f 1654 1781 1780
f 1654 1782 1781
f 1654 1780 1653
f 1655 1782 1654
f 1656 1783 1782
f 1656 1782 1655
f 1657 1784 1783
f 1657 1783 1656
f 1658 1785 1784
f 1658 1784 1657
f 1659 1786 1785
f 1659 1785 1658
f 1660 1787 1786
f 1660 1786 1659
f 1661 1788 1787
f 1661 1787 1660
f 1662 1789 1788
f 1662 1788 1661
f 1663 1790 1789
f 1663 1791 1790
f 1663 1789 1662
f 1664 1792 1791
f 1664 1791 1663
f 1665 1793 1792
f 1665 1792 1664
f 1666 1793 1665
f 1667 1794 1793
f 1667 1793 1666
f 1668 1795 1794
f 1668 1794 1667
f 1669 1796 1795
f 1669 1795 1668
f 1670 1797 1796
f 1670 1796 1669
f 1671 1798 1797
f 1671 1797 1670
f 1672 1799 1798
f 1672 1800 1799
f 1672 1798 1671
f 1673 1800 1672
f 1674 1800 1673
f 1674 1801 1800
f 1674 1802 1801
f 1675 1802 1674
f 1676 1802 1675
f 1676 1803 1802
f 1677 1803 1676
f 1677 1804 1803
f 1677 1805 1804
f 1678 1805 1677
f 1679 1805 1678
f 1679 1806 1805
f 1680 1806 1679
f 1680 1807 1806
f 1680 1808 1807
f 1681 1808 1680
f 1682 1808 1681
f 1682 1809 1808
f 1683 1809 1682
f 1683 1810 1809
f 1684 1810 1683
f 1684 1811 1810
f 1685 1811 1684
f 1685 1812 1811
f 1686 1813 1812
f 1686 1812 1685
f 1687 1814 1813
f 1687 1813 1686
f 1816 1942 1815
f 1816 1943 1942
f 1817 1944 1943
f 1817 1945 1944
f 1817 1943 1816
f 1818 1945 1817
f 1819 1946 1945
f 1819 1947 1946
f 1819 1945 1818
f 1820 1947 1819
f 1821 1948 1947
f 1821 1947 1820
f 1822 1949 1948
f 1822 1950 1949
f 1822 1948 1821
f 1823 1950 1822
f 1824 1951 1950
f 1824 1952 1951
f 1824 1950 1823
f 1825 1952 1824
f 1826 1952 1825
f 1826 1953 1952
f 1826 1954 1953
f 1827 1954 1826
f 1828 1954 1827
f 1828 1955 1954
f 1829 1955 1828
f 1829 1956 1955
f 1829 1957 1956
f 1830 1957 1829
f 1830 1958 1957
f 1831 1958 1830
f 1832 1958 1831
f 1832 1959 1958
f 1833 1959 1832
f 1833 1960 1959
f 1834 1960 1833
f 1834 1961 1960
f 1835 1961 1834
f 1835 1962 1961
f 1836 1962 1835
f 1836 1963 1962
f 1837 1963 1836
f 1837 1964 1963
f 1838 1965 1964
f 1838 1964 1837
f 1839 1966 1965
f 1839 1965 1838
f 1840 1967 1966
f 1840 1966 1839
f 1841 1968 1967
f 1841 1969 1968
f 1841 1967 1840
f 1842 1969 1841
f 1843 1970 1969
f 1843 1971 1970
f 1843 1969 1842
f 1844 1971 1843
f 1845 1972 1971
f 1845 1971 1844
f 1846 1973 1972
f 1846 1974 1973
f 1846 1972 1845
f 1847 1974 1846
f 1848 1975 1974
f 1848 1974 1847
f 1849 1976 1975
f 1849 1975 1848
f 1850 1977 1976
f 1850 1976 1849
f 1851 1978 1977
f 1851 1977 1850
f 1852 1978 1851
f 1852 1979 1978
f 1853 1979 1852
f 1853 1980 1979
f 1853 1981 1980
f 1854 1981 1853
f 1855 1981 1854
f 1855 1982 1981
f 1856 1982 1855
f 1856 1983 1982
f 1857 1983 1856
f 1857 1984 1983
f 1858 1984 1857
f 1858 1985 1984
f 1859 1985 1858
f 1859 1986 1985
f 1860 1986 1859
f 1860 1987 1986
f 1860 1988 1987
f 1861 1988 1860
f 1862 1988 1861
f 1862 1989 1988
f 1863 1989 1862
f 1863 1990 1989
f 1864 1990 1863
f 1864 1991 1990
f 1865 1991 1864
f 1865 1992 1991
f 1865 1993 1992
f 1866 1993 1865
f 1867 1993 1866
f 1867 1994 1993
f 1867 1995 1994
f 1868 1995 1867
f 1869 1995 1868
f 1869 1996 1995
f 1870 1996 1869
f 1870 1997 1996
f 1871 1997 1870
f 1871 1998 1997
f 1872 1998 1871
f 1872 1999 1998
f 1872 2000 1999
f 1873 2000 1872
f 1874 2001 2000
f 1874 2000 1873
f 1875 2002 2001
f 1875 2003 2002
f 1875 2001 1874
f 1876 2004 2003
f 1876 2003 1875
f 1877 2004 1876
f 1877 2005 2004
f 1878 2005 1877
f 1878 2006 2005
f 1879 2006 1878
f 1880 2006 1879
f 1880 2007 2006
f 1880 2008 2007
f 1881 2008 1880
f 1881 2009 2008
f 1882 2009 1881
f 1883 2009 1882
f 1883 2010 2009
f 1884 2010 1883
f 1884 2011 2010
f 1884 2012 2011
f 1885 2012 1884
f 1886 2012 1885
f 1886 2013 2012
f 1887 2013 1886
f 1887 2014 2013
f 1888 2014 1887
f 1888 2015 2014
f 1889 2015 1888
f 1889 2016 2015
f 1890 2017 2016
f 1890 2016 1889
f 1891 2018 2017
f 1891 2017 1890
f 1892 2019 2018
f 1892 2018 1891
f 1893 2020 2019
f 1893 2019 1892
f 1894 2021 2020
f 1894 2020 1893
f 1895 2022 2021
f 1895 2021 1894
f 1896 2023 2022
f 1896 2022 1895
f 1897 2024 2023
f 1897 2023 1896
f 1898 2025 2024
f 1898 2026 2025
f 1898 2024 1897
f 1899 2026 1898
f 1900 2027 2026
f 1900 2026 1899
f 1901 2028 2027
f 1901 2029 2028
f 1901 2027 1900
f 1902 2029 1901
f 1903 2029 1902
f 1903 2030 2029
f 1904 2030 1903
f 1904 2031 2030
f 1905 2031 1904
f 1905 2032 2031
f 1905 2033 2032
f 1906 2033 1905
f 1906 2034 2033
f 1907 2034 1906
f 1908 2035 2034
f 1908 2036 2035
f 1908 2034 1907
f 1909 2036 1908
f 1910 2037 2036
f 1910 2036 1909
f 1911 2038 2037
f 1911 2037 1910
f 1912 2039 2038
f 1912 2038 1911
f 1913 2040 2039
f 1913 2039 1912
f 1914 2041 2040
f 1914 2040 1913
f 1915 2042 2041
f 1915 2041 1914
f 1916 2043 2042
f 1916 2042 1915
f 1917 2044 2043
f 1917 2045 2044
f 1917 2043 1916
f 1918 2046 2045
f 1918 2045 1917
f 1919 2047 2046
f 1919 2046 1918
f 1920 2047 1919
f 1921 2048 2047
f 1921 2047 1920
f 1922 2049 2048
f 1922 2048 1921
f 1923 2050 2049
f 1923 2049 1922
f 1924 2051 2050
f 1924 2050 1923
f 1925 2052 2051
f 1925 2051 1924
f 1926 2053 2052
f 1926 2054 2053
f 1926 2052 1925
f 1927 2054 1926
f 1928 2054 1927
f 1928 2055 2054
f 1928 2056 2055
f 1929 2056 1928
f 1930 2056 1929
f 1930 2057 2056
f 1931 2057 1930
f 1931 2058 2057
f 1931 2059 2058
f 1932 2059 1931
f 1933 2059 1932
f 1933 2060 2059
f 1934 2060 1933
f 1934 2061 2060
f 1934 2062 2061
f 1935 2062 1934
f 1936 2062 1935
f 1936 2063 2062
f 1937 2063 1936
f 1937 2064 2063
f 1938 2064 1937
f 1938 2065 2064
f 1939 2065 1938
f 1939 2066 2065
f 1940 2067 2066
f 1940 2066 1939
f 1941 2068 2067
f 1941 2067 1940
f 2071 2069 2070
f 2074 2072 2073
f 2074 2075 2072
f 2078 2077 2076
