# Cadless export: model
v -40 -25 0
v -40 -25 22
v -40 25 0
v -40 25 22
v -40 -25 0
v 40 -25 0
v -40 -25 22
v 40 -25 22
v -40 -25 22
v -40 25 22
v 40 -25 22
v 40 25 22
v 37 -22 22
v -37 -22 22
v -37 22 22
v 37 22 22
v -40 25 0
v 40 25 0
v -40 25 22
v 40 25 22
v -40 -25 0
v -40 25 0
v 40 -25 0
v 40 25 0
v 40 -25 0
v 40 -25 22
v 40 25 0
v 40 25 22
v 37 -22 2.5
v 37 -22 22
v -37 -22 2.5
v -37 -22 22
v 37 -22 2.5
v 37 -22 22
v 37 22 2.5
v 37 22 22
v 37 22 2.5
v 37 22 22
v -37 22 2.5
v -37 22 22
v -37 -22 2.5
v -37 -22 22
v -37 22 2.5
v -37 22 22
v -37 -22 2.5
v -37 22 2.5
v 37 -22 2.5
v 37 22 2.5
f 2 3 1
f 2 4 3
f 8 5 6
f 8 7 5
f 10 14 15
f 10 9 14
f 13 9 11
f 13 14 9
f 12 16 13
f 12 13 11
f 12 10 15
f 12 15 16
f 20 18 17
f 20 17 19
f 24 21 22
f 24 23 21
f 26 25 27
f 26 27 28
f 30 29 31
f 30 31 32
f 34 35 33
f 34 36 35
f 38 39 37
f 38 40 39
f 42 41 43
f 42 43 44
f 47 46 45
f 48 46 47
