# Cadless export: model
v -30 -25 0
v -30 -25 8
v -30 25 0
v -30 25 8
v -30 -25 0
v -17.7 -25 0
v -30 -25 8
v 30 -25 8
v 30 -25 0
v 17.7 -25 0
v 17.7 -25 4
v -17.7 -25 4
v -30 -25 8
v -30 25 8
v 30 -25 8
v 30 25 8
v -30 25 0
v -17.7 25 0
v -30 25 8
v 30 25 8
v 30 25 0
v 17.7 25 0
v 17.7 25 4
v -17.7 25 4
v -30 25 0
v -17.7 25 0
v -30 -25 0
v -17.7 -25 0
v -17.7 -25 4
v -17.7 25 4
v -17.7 -25 0
v -17.7 25 0
v -17.7 -25 4
v -17.7 25 4
v 17.7 -25 4
v 17.7 25 4
v 17.7 -25 4
v 17.7 25 4
v 17.7 -25 0
v 17.7 25 0
v 17.7 25 0
v 30 25 0
v 17.7 -25 0
v 30 -25 0
v 30 -25 0
v 30 -25 8
v 30 25 0
v 30 25 8
f 2 3 1
f 2 4 3
f 12 5 6
f 12 7 5
f 9 11 10
f 8 11 9
f 7 11 8
f 7 12 11
f 15 14 13
f 16 14 15
f 24 18 17
f 24 17 19
f 21 22 23
f 20 21 23
f 19 20 23
f 19 23 24
f 25 28 27
f 26 28 25
f 29 31 32
f 29 32 30
f 36 33 34
f 36 35 33
f 37 40 39
f 37 38 40
f 42 43 41
f 42 44 43
f 46 45 47
f 46 47 48
