# Cadless export: model
v -50 -20 0
v -50 -20 12
v -50 20 0
v -50 20 12
v 50 -20 0
v 50 -20 12
v -50 -20 0
v -50 -20 12
v -25 -20 12
v -25 -20 45
v 25 -20 45
v 25 -20 12
v 12.5 -20 28
v 12.4845 -20 28.6231
v 12.4379 -20 29.2446
v 12.3604 -20 29.863
v 12.2522 -20 30.4768
v 12.1135 -20 31.0845
v 11.9447 -20 31.6844
v 11.7462 -20 32.2753
v 11.5185 -20 32.8554
v 11.2621 -20 33.4235
v 10.9778 -20 33.9782
v 10.6661 -20 34.5179
v 10.328 -20 35.0415
v 9.96416 -20 35.5476
v 9.57556 -20 36.0348
v 9.16315 -20 36.5022
v 8.72796 -20 36.9483
v 8.27107 -20 37.3723
v 7.79362 -20 37.7729
v 7.2968 -20 38.1492
v 6.78183 -20 38.5003
v 6.25 -20 38.8253
v 5.70263 -20 39.1234
v 5.14109 -20 39.3938
v 4.56676 -20 39.6359
v 3.98108 -20 39.8491
v 3.38551 -20 40.0328
v 2.78151 -20 40.1866
v 2.1706 -20 40.3101
v 1.5543 -20 40.403
v 0.934126 -20 40.465
v 0.311634 -20 40.4961
v -0.311634 -20 40.4961
v -0.934126 -20 40.465
v -1.5543 -20 40.403
v -2.1706 -20 40.3101
v -2.78151 -20 40.1866
v -3.38551 -20 40.0328
v -3.98108 -20 39.8491
v -4.56676 -20 39.6359
v -5.14109 -20 39.3938
v -5.70263 -20 39.1234
v -6.25 -20 38.8253
v -6.78183 -20 38.5003
v -7.2968 -20 38.1492
v -7.79362 -20 37.7729
v -8.27107 -20 37.3723
v -8.72796 -20 36.9483
v -9.16315 -20 36.5022
v -9.57556 -20 36.0348
v -9.96416 -20 35.5476
v -10.328 -20 35.0415
v -10.6661 -20 34.5179
v -10.9778 -20 33.9782
v -11.2621 -20 33.4235
v -11.5185 -20 32.8554
v -11.7462 -20 32.2753
v -11.9447 -20 31.6844
v -12.1135 -20 31.0845
v -12.2522 -20 30.4768
v -12.3604 -20 29.863
v -12.4379 -20 29.2446
v -12.4845 -20 28.6231
v -12.5 -20 28
v -12.4845 -20 27.3769
v -12.4379 -20 26.7554
v -12.3604 -20 26.137
v -12.2522 -20 25.5232
v -12.1135 -20 24.9155
v -11.9447 -20 24.3156
v -11.7462 -20 23.7247
v -11.5185 -20 23.1446
v -11.2621 -20 22.5765
v -10.9778 -20 22.0218
v -10.6661 -20 21.4821
v -10.328 -20 20.9585
v -9.96416 -20 20.4524
v -9.57556 -20 19.9652
v -9.16315 -20 19.4978
v -8.72796 -20 19.0517
v -8.27107 -20 18.6277
v -7.79362 -20 18.2271
v -7.2968 -20 17.8508
v -6.78183 -20 17.4997
v -6.25 -20 17.1747
v -5.70263 -20 16.8766
v -5.14109 -20 16.6062
v -4.56676 -20 16.3641
v -3.98108 -20 16.1509
v -3.38551 -20 15.9672
v -2.78151 -20 15.8134
v -2.1706 -20 15.6899
v -1.5543 -20 15.597
v -0.934126 -20 15.535
v -0.311634 -20 15.5039
v 0.311634 -20 15.5039
v 0.934126 -20 15.535
v 1.5543 -20 15.597
v 2.1706 -20 15.6899
v 2.78151 -20 15.8134
v 3.38551 -20 15.9672
v 3.98108 -20 16.1509
v 4.56676 -20 16.3641
v 5.14109 -20 16.6062
v 5.70263 -20 16.8766
v 6.25 -20 17.1747
v 6.78183 -20 17.4997
v 7.2968 -20 17.8508
v 7.79362 -20 18.2271
v 8.27107 -20 18.6277
v 8.72796 -20 19.0517
v 9.16315 -20 19.4978
v 9.57556 -20 19.9652
v 9.96416 -20 20.4524
v 10.328 -20 20.9585
v 10.6661 -20 21.4821
v 10.9778 -20 22.0218
v 11.2621 -20 22.5765
v 11.5185 -20 23.1446
v 11.7462 -20 23.7247
v 11.9447 -20 24.3156
v 12.1135 -20 24.9155
v 12.2522 -20 25.5232
v 12.3604 -20 26.137
v 12.4379 -20 26.7554
v 12.4845 -20 27.3769
v -50 20 12
v -25 20 12
v -50 -20 12
v -25 -20 12
v -33 -1.71451e-15 12
v -33.0087 0.348921 12
v -33.0348 0.696975 12
v -33.0782 1.0433 12
v -33.1388 1.38702 12
v -33.2165 1.7273 12
v -33.311 2.06329 12
v -33.4222 2.39414 12
v -33.5497 2.71904 12
v -33.6932 3.03719 12
v -33.8524 3.34778 12
v -34.027 3.65005 12
v -34.2163 3.94324 12
v -34.4201 4.22663 12
v -34.6377 4.49951 12
v -34.8686 4.76121 12
v -35.1123 5.01107 12
v -35.3682 5.24847 12
v -35.6356 5.47282 12
v -35.9138 5.68357 12
v -36.2022 5.88018 12
v -36.5 6.06218 12
v -36.8065 6.2291 12
v -37.121 6.38054 12
v -37.4426 6.51612 12
v -37.7706 6.63549 12
v -38.1041 6.73837 12
v -38.4424 6.8245 12
v -38.7845 6.89365 12
v -39.1296 6.94567 12
v -39.4769 6.98043 12
v -39.8255 6.99782 12
v -40.1745 6.99782 12
v -40.5231 6.98043 12
v -40.8704 6.94567 12
v -41.2155 6.89365 12
v -41.5576 6.8245 12
v -41.8959 6.73837 12
v -42.2294 6.63549 12
v -42.5574 6.51612 12
v -42.879 6.38054 12
v -43.1935 6.2291 12
v -43.5 6.06218 12
v -43.7978 5.88018 12
v -44.0862 5.68357 12
v -44.3644 5.47282 12
v -44.6318 5.24847 12
v -44.8877 5.01107 12
v -45.1314 4.76121 12
v -45.3623 4.49951 12
v -45.5799 4.22663 12
v -45.7837 3.94324 12
v -45.973 3.65005 12
v -46.1476 3.34778 12
v -46.3068 3.03719 12
v -46.4503 2.71904 12
v -46.5778 2.39414 12
v -46.689 2.06329 12
v -46.7835 1.7273 12
v -46.8612 1.38702 12
v -46.9218 1.0433 12
v -46.9652 0.696975 12
v -46.9913 0.348921 12
v -47 -2.40117e-14 12
v -46.9913 -0.348921 12
v -46.9652 -0.696975 12
v -46.9218 -1.0433 12
v -46.8612 -1.38702 12
v -46.7835 -1.7273 12
v -46.689 -2.06329 12
v -46.5778 -2.39414 12
v -46.4503 -2.71904 12
v -46.3068 -3.03719 12
v -46.1476 -3.34778 12
v -45.973 -3.65005 12
v -45.7837 -3.94324 12
v -45.5799 -4.22663 12
v -45.3623 -4.49951 12
v -45.1314 -4.76121 12
v -44.8877 -5.01107 12
v -44.6318 -5.24847 12
v -44.3644 -5.47282 12
v -44.0862 -5.68357 12
v -43.7978 -5.88018 12
v -43.5 -6.06218 12
v -43.1935 -6.2291 12
v -42.879 -6.38054 12
v -42.5574 -6.51612 12
v -42.2294 -6.63549 12
v -41.8959 -6.73837 12
v -41.5576 -6.8245 12
v -41.2155 -6.89365 12
v -40.8704 -6.94567 12
v -40.5231 -6.98043 12
v -40.1745 -6.99782 12
v -39.8255 -6.99782 12
v -39.4769 -6.98043 12
v -39.1296 -6.94567 12
v -38.7845 -6.89365 12
v -38.4424 -6.8245 12
v -38.1041 -6.73837 12
v -37.7706 -6.63549 12
v -37.4426 -6.51612 12
v -37.121 -6.38054 12
v -36.8065 -6.2291 12
v -36.5 -6.06218 12
v -36.2022 -5.88018 12
v -35.9138 -5.68357 12
v -35.6356 -5.47282 12
v -35.3682 -5.24847 12
v -35.1123 -5.01107 12
v -34.8686 -4.76121 12
v -34.6377 -4.49951 12
v -34.4201 -4.22663 12
v -34.2163 -3.94324 12
v -34.027 -3.65005 12
v -33.8524 -3.34778 12
v -33.6932 -3.03719 12
v -33.5497 -2.71904 12
v -33.4222 -2.39414 12
v -33.311 -2.06329 12
v -33.2165 -1.7273 12
v -33.1388 -1.38702 12
v -33.0782 -1.0433 12
v -33.0348 -0.696975 12
v -33.0087 -0.348921 12
v 50 20 0
v 50 20 12
v -50 20 0
v -50 20 12
v -25 20 12
v -25 20 45
v 25 20 45
v 25 20 12
v 12.5 20 28
v 12.4845 20 28.6231
v 12.4379 20 29.2446
v 12.3604 20 29.863
v 12.2522 20 30.4768
v 12.1135 20 31.0845
v 11.9447 20 31.6844
v 11.7462 20 32.2753
v 11.5185 20 32.8554
v 11.2621 20 33.4235
v 10.9778 20 33.9782
v 10.6661 20 34.5179
v 10.328 20 35.0415
v 9.96416 20 35.5476
v 9.57556 20 36.0348
v 9.16315 20 36.5022
v 8.72796 20 36.9483
v 8.27107 20 37.3723
v 7.79362 20 37.7729
v 7.2968 20 38.1492
v 6.78183 20 38.5003
v 6.25 20 38.8253
v 5.70263 20 39.1234
v 5.14109 20 39.3938
v 4.56676 20 39.6359
v 3.98108 20 39.8491
v 3.38551 20 40.0328
v 2.78151 20 40.1866
v 2.1706 20 40.3101
v 1.5543 20 40.403
v 0.934126 20 40.465
v 0.311634 20 40.4961
v -0.311634 20 40.4961
v -0.934126 20 40.465
v -1.5543 20 40.403
v -2.1706 20 40.3101
v -2.78151 20 40.1866
v -3.38551 20 40.0328
v -3.98108 20 39.8491
v -4.56676 20 39.6359
v -5.14109 20 39.3938
v -5.70263 20 39.1234
v -6.25 20 38.8253
v -6.78183 20 38.5003
v -7.2968 20 38.1492
v -7.79362 20 37.7729
v -8.27107 20 37.3723
v -8.72796 20 36.9483
v -9.16315 20 36.5022
v -9.57556 20 36.0348
v -9.96416 20 35.5476
v -10.328 20 35.0415
v -10.6661 20 34.5179
v -10.9778 20 33.9782
v -11.2621 20 33.4235
v -11.5185 20 32.8554
v -11.7462 20 32.2753
v -11.9447 20 31.6844
v -12.1135 20 31.0845
v -12.2522 20 30.4768
v -12.3604 20 29.863
v -12.4379 20 29.2446
v -12.4845 20 28.6231
v -12.5 20 28
v -12.4845 20 27.3769
v -12.4379 20 26.7554
v -12.3604 20 26.137
v -12.2522 20 25.5232
v -12.1135 20 24.9155
v -11.9447 20 24.3156
v -11.7462 20 23.7247
v -11.5185 20 23.1446
v -11.2621 20 22.5765
v -10.9778 20 22.0218
v -10.6661 20 21.4821
v -10.328 20 20.9585
v -9.96416 20 20.4524
v -9.57556 20 19.9652
v -9.16315 20 19.4978
v -8.72796 20 19.0517
v -8.27107 20 18.6277
v -7.79362 20 18.2271
v -7.2968 20 17.8508
v -6.78183 20 17.4997
v -6.25 20 17.1747
v -5.70263 20 16.8766
v -5.14109 20 16.6062
v -4.56676 20 16.3641
v -3.98108 20 16.1509
v -3.38551 20 15.9672
v -2.78151 20 15.8134
v -2.1706 20 15.6899
v -1.5543 20 15.597
v -0.934126 20 15.535
v -0.311634 20 15.5039
v 0.311634 20 15.5039
v 0.934126 20 15.535
v 1.5543 20 15.597
v 2.1706 20 15.6899
v 2.78151 20 15.8134
v 3.38551 20 15.9672
v 3.98108 20 16.1509
v 4.56676 20 16.3641
v 5.14109 20 16.6062
v 5.70263 20 16.8766
v 6.25 20 17.1747
v 6.78183 20 17.4997
v 7.2968 20 17.8508
v 7.79362 20 18.2271
v 8.27107 20 18.6277
v 8.72796 20 19.0517
v 9.16315 20 19.4978
v 9.57556 20 19.9652
v 9.96416 20 20.4524
v 10.328 20 20.9585
v 10.6661 20 21.4821
v 10.9778 20 22.0218
v 11.2621 20 22.5765
v 11.5185 20 23.1446
v 11.7462 20 23.7247
v 11.9447 20 24.3156
v 12.1135 20 24.9155
v 12.2522 20 25.5232
v 12.3604 20 26.137
v 12.4379 20 26.7554
v 12.4845 20 27.3769
v -50 -20 0
v -50 20 0
v 50 -20 0
v 50 20 0
v -36 -9.79717e-16 0
v -36.005 0.199384 0
v -36.0199 0.398271 0
v -36.0447 0.596169 0
v -36.0793 0.792585 0
v -36.1237 0.98703 0
v -36.1777 1.17902 0
v -36.2412 1.36808 0
v -36.3141 1.55374 0
v -36.3961 1.73553 0
v -36.4871 1.91302 0
v -36.5868 2.08574 0
v -36.695 2.25328 0
v -36.8115 2.41522 0
v -36.9358 2.57115 0
v -37.0678 2.72069 0
v -37.2071 2.86347 0
v -37.3533 2.99912 0
v -37.506 3.12733 0
v -37.665 3.24775 0
v -37.8298 3.3601 0
v -38 3.4641 0
v -38.1752 3.55949 0
v -38.3549 3.64602 0
v -38.5386 3.72349 0
v -38.7261 3.79171 0
v -38.9166 3.8505 0
v -39.1099 3.89971 0
v -39.3054 3.93923 0
v -39.5026 3.96896 0
v -39.7011 3.98882 0
v -39.9003 3.99876 0
v -40.0997 3.99876 0
v -40.2989 3.98882 0
v -40.4974 3.96896 0
v -40.6946 3.93923 0
v -40.8901 3.89971 0
v -41.0834 3.8505 0
v -41.2739 3.79171 0
v -41.4614 3.72349 0
v -41.6451 3.64602 0
v -41.8248 3.55949 0
v -42 3.4641 0
v -42.1702 3.3601 0
v -42.335 3.24775 0
v -42.494 3.12733 0
v -42.6467 2.99912 0
v -42.7929 2.86347 0
v -42.9322 2.72069 0
v -43.0642 2.57115 0
v -43.1885 2.41522 0
v -43.305 2.25328 0
v -43.4132 2.08574 0
v -43.5129 1.91302 0
v -43.6039 1.73553 0
v -43.6859 1.55374 0
v -43.7588 1.36808 0
v -43.8223 1.17902 0
v -43.8763 0.98703 0
v -43.9207 0.792585 0
v -43.9553 0.596169 0
v -43.9801 0.398271 0
v -43.995 0.199384 0
v -44 -1.3721e-14 0
v -43.995 -0.199384 0
v -43.9801 -0.398271 0
v -43.9553 -0.596169 0
v -43.9207 -0.792585 0
v -43.8763 -0.98703 0
v -43.8223 -1.17902 0
v -43.7588 -1.36808 0
v -43.6859 -1.55374 0
v -43.6039 -1.73553 0
v -43.5129 -1.91302 0
v -43.4132 -2.08574 0
v -43.305 -2.25328 0
v -43.1885 -2.41522 0
v -43.0642 -2.57115 0
v -42.9322 -2.72069 0
v -42.7929 -2.86347 0
v -42.6467 -2.99912 0
v -42.494 -3.12733 0
v -42.335 -3.24775 0
v -42.1702 -3.3601 0
v -42 -3.4641 0
v -41.8248 -3.55949 0
v -41.6451 -3.64602 0
v -41.4614 -3.72349 0
v -41.2739 -3.79171 0
v -41.0834 -3.8505 0
v -40.8901 -3.89971 0
v -40.6946 -3.93923 0
v -40.4974 -3.96896 0
v -40.2989 -3.98882 0
v -40.0997 -3.99876 0
v -39.9003 -3.99876 0
v -39.7011 -3.98882 0
v -39.5026 -3.96896 0
v -39.3054 -3.93923 0
v -39.1099 -3.89971 0
v -38.9166 -3.8505 0
v -38.7261 -3.79171 0
v -38.5386 -3.72349 0
v -38.3549 -3.64602 0
v -38.1752 -3.55949 0
v -38 -3.4641 0
v -37.8298 -3.3601 0
v -37.665 -3.24775 0
v -37.506 -3.12733 0
v -37.3533 -2.99912 0
v -37.2071 -2.86347 0
v -37.0678 -2.72069 0
v -36.9358 -2.57115 0
v -36.8115 -2.41522 0
v -36.695 -2.25328 0
v -36.5868 -2.08574 0
v -36.4871 -1.91302 0
v -36.3961 -1.73553 0
v -36.3141 -1.55374 0
v -36.2412 -1.36808 0
v -36.1777 -1.17902 0
v -36.1237 -0.98703 0
v -36.0793 -0.792585 0
v -36.0447 -0.596169 0
v -36.0199 -0.398271 0
v -36.005 -0.199384 0
v 44 -9.79717e-16 0
v 43.995 0.199384 0
v 43.9801 0.398271 0
v 43.9553 0.596169 0
v 43.9207 0.792585 0
v 43.8763 0.98703 0
v 43.8223 1.17902 0
v 43.7588 1.36808 0
v 43.6859 1.55374 0
v 43.6039 1.73553 0
v 43.5129 1.91302 0
v 43.4132 2.08574 0
v 43.305 2.25328 0
v 43.1885 2.41522 0
v 43.0642 2.57115 0
v 42.9322 2.72069 0
v 42.7929 2.86347 0
v 42.6467 2.99912 0
v 42.494 3.12733 0
v 42.335 3.24775 0
v 42.1702 3.3601 0
v 42 3.4641 0
v 41.8248 3.55949 0
v 41.6451 3.64602 0
v 41.4614 3.72349 0
v 41.2739 3.79171 0
v 41.0834 3.8505 0
v 40.8901 3.89971 0
v 40.6946 3.93923 0
v 40.4974 3.96896 0
v 40.2989 3.98882 0
v 40.0997 3.99876 0
v 39.9003 3.99876 0
v 39.7011 3.98882 0
v 39.5026 3.96896 0
v 39.3054 3.93923 0
v 39.1099 3.89971 0
v 38.9166 3.8505 0
v 38.7261 3.79171 0
v 38.5386 3.72349 0
v 38.3549 3.64602 0
v 38.1752 3.55949 0
v 38 3.4641 0
v 37.8298 3.3601 0
v 37.665 3.24775 0
v 37.506 3.12733 0
v 37.3533 2.99912 0
v 37.2071 2.86347 0
v 37.0678 2.72069 0
v 36.9358 2.57115 0
v 36.8115 2.41522 0
v 36.695 2.25328 0
v 36.5868 2.08574 0
v 36.4871 1.91302 0
v 36.3961 1.73553 0
v 36.3141 1.55374 0
v 36.2412 1.36808 0
v 36.1777 1.17902 0
v 36.1237 0.98703 0
v 36.0793 0.792585 0
v 36.0447 0.596169 0
v 36.0199 0.398271 0
v 36.005 0.199384 0
v 36 -1.3721e-14 0
v 36.005 -0.199384 0
v 36.0199 -0.398271 0
v 36.0447 -0.596169 0
v 36.0793 -0.792585 0
v 36.1237 -0.98703 0
v 36.1777 -1.17902 0
v 36.2412 -1.36808 0
v 36.3141 -1.55374 0
v 36.3961 -1.73553 0
v 36.4871 -1.91302 0
v 36.5868 -2.08574 0
v 36.695 -2.25328 0
v 36.8115 -2.41522 0
v 36.9358 -2.57115 0
v 37.0678 -2.72069 0
v 37.2071 -2.86347 0
v 37.3533 -2.99912 0
v 37.506 -3.12733 0
v 37.665 -3.24775 0
v 37.8298 -3.3601 0
v 38 -3.4641 0
v 38.1752 -3.55949 0
v 38.3549 -3.64602 0
v 38.5386 -3.72349 0
v 38.7261 -3.79171 0
v 38.9166 -3.8505 0
v 39.1099 -3.89971 0
v 39.3054 -3.93923 0
v 39.5026 -3.96896 0
v 39.7011 -3.98882 0
v 39.9003 -3.99876 0
v 40.0997 -3.99876 0
v 40.2989 -3.98882 0
v 40.4974 -3.96896 0
v 40.6946 -3.93923 0
v 40.8901 -3.89971 0
v 41.0834 -3.8505 0
v 41.2739 -3.79171 0
v 41.4614 -3.72349 0
v 41.6451 -3.64602 0
v 41.8248 -3.55949 0
v 42 -3.4641 0
v 42.1702 -3.3601 0
v 42.335 -3.24775 0
v 42.494 -3.12733 0
v 42.6467 -2.99912 0
v 42.7929 -2.86347 0
v 42.9322 -2.72069 0
v 43.0642 -2.57115 0
v 43.1885 -2.41522 0
v 43.305 -2.25328 0
v 43.4132 -2.08574 0
v 43.5129 -1.91302 0
v 43.6039 -1.73553 0
v 43.6859 -1.55374 0
v 43.7588 -1.36808 0
v 43.8223 -1.17902 0
v 43.8763 -0.98703 0
v 43.9207 -0.792585 0
v 43.9553 -0.596169 0
v 43.9801 -0.398271 0
v 43.995 -0.199384 0
v 50 -20 0
v 50 -20 12
v 50 20 0
v 50 20 12
v 25 20 12
v 50 20 12
v 25 -20 12
v 50 -20 12
v 47 -1.71451e-15 12
v 46.9913 0.348921 12
v 46.9652 0.696975 12
v 46.9218 1.0433 12
v 46.8612 1.38702 12
v 46.7835 1.7273 12
v 46.689 2.06329 12
v 46.5778 2.39414 12
v 46.4503 2.71904 12
v 46.3068 3.03719 12
v 46.1476 3.34778 12
v 45.973 3.65005 12
v 45.7837 3.94324 12
v 45.5799 4.22663 12
v 45.3623 4.49951 12
v 45.1314 4.76121 12
v 44.8877 5.01107 12
v 44.6318 5.24847 12
v 44.3644 5.47282 12
v 44.0862 5.68357 12
v 43.7978 5.88018 12
v 43.5 6.06218 12
v 43.1935 6.2291 12
v 42.879 6.38054 12
v 42.5574 6.51612 12
v 42.2294 6.63549 12
v 41.8959 6.73837 12
v 41.5576 6.8245 12
v 41.2155 6.89365 12
v 40.8704 6.94567 12
v 40.5231 6.98043 12
v 40.1745 6.99782 12
v 39.8255 6.99782 12
v 39.4769 6.98043 12
v 39.1296 6.94567 12
v 38.7845 6.89365 12
v 38.4424 6.8245 12
v 38.1041 6.73837 12
v 37.7706 6.63549 12
v 37.4426 6.51612 12
v 37.121 6.38054 12
v 36.8065 6.2291 12
v 36.5 6.06218 12
v 36.2022 5.88018 12
v 35.9138 5.68357 12
v 35.6356 5.47282 12
v 35.3682 5.24847 12
v 35.1123 5.01107 12
v 34.8686 4.76121 12
v 34.6377 4.49951 12
v 34.4201 4.22663 12
v 34.2163 3.94324 12
v 34.027 3.65005 12
v 33.8524 3.34778 12
v 33.6932 3.03719 12
v 33.5497 2.71904 12
v 33.4222 2.39414 12
v 33.311 2.06329 12
v 33.2165 1.7273 12
v 33.1388 1.38702 12
v 33.0782 1.0433 12
v 33.0348 0.696975 12
v 33.0087 0.348921 12
v 33 -2.40117e-14 12
v 33.0087 -0.348921 12
v 33.0348 -0.696975 12
v 33.0782 -1.0433 12
v 33.1388 -1.38702 12
v 33.2165 -1.7273 12
v 33.311 -2.06329 12
v 33.4222 -2.39414 12
v 33.5497 -2.71904 12
v 33.6932 -3.03719 12
v 33.8524 -3.34778 12
v 34.027 -3.65005 12
v 34.2163 -3.94324 12
v 34.4201 -4.22663 12
v 34.6377 -4.49951 12
v 34.8686 -4.76121 12
v 35.1123 -5.01107 12
v 35.3682 -5.24847 12
v 35.6356 -5.47282 12
v 35.9138 -5.68357 12
v 36.2022 -5.88018 12
v 36.5 -6.06218 12
v 36.8065 -6.2291 12
v 37.121 -6.38054 12
v 37.4426 -6.51612 12
v 37.7706 -6.63549 12
v 38.1041 -6.73837 12
v 38.4424 -6.8245 12
v 38.7845 -6.89365 12
v 39.1296 -6.94567 12
v 39.4769 -6.98043 12
v 39.8255 -6.99782 12
v 40.1745 -6.99782 12
v 40.5231 -6.98043 12
v 40.8704 -6.94567 12
v 41.2155 -6.89365 12
v 41.5576 -6.8245 12
v 41.8959 -6.73837 12
v 42.2294 -6.63549 12
v 42.5574 -6.51612 12
v 42.879 -6.38054 12
v 43.1935 -6.2291 12
v 43.5 -6.06218 12
v 43.7978 -5.88018 12
v 44.0862 -5.68357 12
v 44.3644 -5.47282 12
v 44.6318 -5.24847 12
v 44.8877 -5.01107 12
v 45.1314 -4.76121 12
v 45.3623 -4.49951 12
v 45.5799 -4.22663 12
v 45.7837 -3.94324 12
v 45.973 -3.65005 12
v 46.1476 -3.34778 12
v 46.3068 -3.03719 12
v 46.4503 -2.71904 12
v 46.5778 -2.39414 12
v 46.689 -2.06329 12
v 46.7835 -1.7273 12
v 46.8612 -1.38702 12
v 46.9218 -1.0433 12
v 46.9652 -0.696975 12
v 46.9913 -0.348921 12
v 25 -20 12
v 25 -20 45
v 25 20 12
v 25 20 45
v -25 -20 45
v -25 20 45
v 25 -20 45
v 25 20 45
v -25 -20 12
v -25 -20 45
v -25 20 12
v -25 20 45
v 12.5 -20 28
v 12.4845 -20 28.6231
v 12.4379 -20 29.2446
v 12.3604 -20 29.863
v 12.2522 -20 30.4768
v 12.1135 -20 31.0845
v 11.9447 -20 31.6844
v 11.7462 -20 32.2753
v 11.5185 -20 32.8554
v 11.2621 -20 33.4235
v 10.9778 -20 33.9782
v 10.6661 -20 34.5179
v 10.328 -20 35.0415
v 9.96416 -20 35.5476
v 9.57556 -20 36.0348
v 9.16315 -20 36.5022
v 8.72796 -20 36.9483
v 8.27107 -20 37.3723
v 7.79362 -20 37.7729
v 7.2968 -20 38.1492
v 6.78183 -20 38.5003
v 6.25 -20 38.8253
v 5.70263 -20 39.1234
v 5.14109 -20 39.3938
v 4.56676 -20 39.6359
v 3.98108 -20 39.8491
v 3.38551 -20 40.0328
v 2.78151 -20 40.1866
v 2.1706 -20 40.3101
v 1.5543 -20 40.403
v 0.934126 -20 40.465
v 0.311634 -20 40.4961
v -0.311634 -20 40.4961
v -0.934126 -20 40.465
v -1.5543 -20 40.403
v -2.1706 -20 40.3101
v -2.78151 -20 40.1866
v -3.38551 -20 40.0328
v -3.98108 -20 39.8491
v -4.56676 -20 39.6359
v -5.14109 -20 39.3938
v -5.70263 -20 39.1234
v -6.25 -20 38.8253
v -6.78183 -20 38.5003
v -7.2968 -20 38.1492
v -7.79362 -20 37.7729
v -8.27107 -20 37.3723
v -8.72796 -20 36.9483
v -9.16315 -20 36.5022
v -9.57556 -20 36.0348
v -9.96416 -20 35.5476
v -10.328 -20 35.0415
v -10.6661 -20 34.5179
v -10.9778 -20 33.9782
v -11.2621 -20 33.4235
v -11.5185 -20 32.8554
v -11.7462 -20 32.2753
v -11.9447 -20 31.6844
v -12.1135 -20 31.0845
v -12.2522 -20 30.4768
v -12.3604 -20 29.863
v -12.4379 -20 29.2446
v -12.4845 -20 28.6231
v -12.5 -20 28
v -12.4845 -20 27.3769
v -12.4379 -20 26.7554
v -12.3604 -20 26.137
v -12.2522 -20 25.5232
v -12.1135 -20 24.9155
v -11.9447 -20 24.3156
v -11.7462 -20 23.7247
v -11.5185 -20 23.1446
v -11.2621 -20 22.5765
v -10.9778 -20 22.0218
v -10.6661 -20 21.4821
v -10.328 -20 20.9585
v -9.96416 -20 20.4524
v -9.57556 -20 19.9652
v -9.16315 -20 19.4978
v -8.72796 -20 19.0517
v -8.27107 -20 18.6277
v -7.79362 -20 18.2271
v -7.2968 -20 17.8508
v -6.78183 -20 17.4997
v -6.25 -20 17.1747
v -5.70263 -20 16.8766
v -5.14109 -20 16.6062
v -4.56676 -20 16.3641
v -3.98108 -20 16.1509
v -3.38551 -20 15.9672
v -2.78151 -20 15.8134
v -2.1706 -20 15.6899
v -1.5543 -20 15.597
v -0.934126 -20 15.535
v -0.311634 -20 15.5039
v 0.311634 -20 15.5039
v 0.934126 -20 15.535
v 1.5543 -20 15.597
v 2.1706 -20 15.6899
v 2.78151 -20 15.8134
v 3.38551 -20 15.9672
v 3.98108 -20 16.1509
v 4.56676 -20 16.3641
v 5.14109 -20 16.6062
v 5.70263 -20 16.8766
v 6.25 -20 17.1747
v 6.78183 -20 17.4997
v 7.2968 -20 17.8508
v 7.79362 -20 18.2271
v 8.27107 -20 18.6277
v 8.72796 -20 19.0517
v 9.16315 -20 19.4978
v 9.57556 -20 19.9652
v 9.96416 -20 20.4524
v 10.328 -20 20.9585
v 10.6661 -20 21.4821
v 10.9778 -20 22.0218
v 11.2621 -20 22.5765
v 11.5185 -20 23.1446
v 11.7462 -20 23.7247
v 11.9447 -20 24.3156
v 12.1135 -20 24.9155
v 12.2522 -20 25.5232
v 12.3604 -20 26.137
v 12.4379 -20 26.7554
v 12.4845 -20 27.3769
v 12.5 -20 28
v 12.5 20 28
v 12.4845 20 28.6231
v 12.4379 20 29.2446
v 12.3604 20 29.863
v 12.2522 20 30.4768
v 12.1135 20 31.0845
v 11.9447 20 31.6844
v 11.7462 20 32.2753
v 11.5185 20 32.8554
v 11.2621 20 33.4235
v 10.9778 20 33.9782
v 10.6661 20 34.5179
v 10.328 20 35.0415
v 9.96416 20 35.5476
v 9.57556 20 36.0348
v 9.16315 20 36.5022
v 8.72796 20 36.9483
v 8.27107 20 37.3723
v 7.79362 20 37.7729
v 7.2968 20 38.1492
v 6.78183 20 38.5003
v 6.25 20 38.8253
v 5.70263 20 39.1234
v 5.14109 20 39.3938
v 4.56676 20 39.6359
v 3.98108 20 39.8491
v 3.38551 20 40.0328
v 2.78151 20 40.1866
v 2.1706 20 40.3101
v 1.5543 20 40.403
v 0.934126 20 40.465
v 0.311634 20 40.4961
v -0.311634 20 40.4961
v -0.934126 20 40.465
v -1.5543 20 40.403
v -2.1706 20 40.3101
v -2.78151 20 40.1866
v -3.38551 20 40.0328
v -3.98108 20 39.8491
v -4.56676 20 39.6359
v -5.14109 20 39.3938
v -5.70263 20 39.1234
v -6.25 20 38.8253
v -6.78183 20 38.5003
v -7.2968 20 38.1492
v -7.79362 20 37.7729
v -8.27107 20 37.3723
v -8.72796 20 36.9483
v -9.16315 20 36.5022
v -9.57556 20 36.0348
v -9.96416 20 35.5476
v -10.328 20 35.0415
v -10.6661 20 34.5179
v -10.9778 20 33.9782
v -11.2621 20 33.4235
v -11.5185 20 32.8554
v -11.7462 20 32.2753
v -11.9447 20 31.6844
v -12.1135 20 31.0845
v -12.2522 20 30.4768
v -12.3604 20 29.863
v -12.4379 20 29.2446
v -12.4845 20 28.6231
v -12.5 20 28
v -12.4845 20 27.3769
v -12.4379 20 26.7554
v -12.3604 20 26.137
v -12.2522 20 25.5232
v -12.1135 20 24.9155
v -11.9447 20 24.3156
v -11.7462 20 23.7247
v -11.5185 20 23.1446
v -11.2621 20 22.5765
v -10.9778 20 22.0218
v -10.6661 20 21.4821
v -10.328 20 20.9585
v -9.96416 20 20.4524
v -9.57556 20 19.9652
v -9.16315 20 19.4978
v -8.72796 20 19.0517
v -8.27107 20 18.6277
v -7.79362 20 18.2271
v -7.2968 20 17.8508
v -6.78183 20 17.4997
v -6.25 20 17.1747
v -5.70263 20 16.8766
v -5.14109 20 16.6062
v -4.56676 20 16.3641
v -3.98108 20 16.1509
v -3.38551 20 15.9672
v -2.78151 20 15.8134
v -2.1706 20 15.6899
v -1.5543 20 15.597
v -0.934126 20 15.535
v -0.311634 20 15.5039
v 0.311634 20 15.5039
v 0.934126 20 15.535
v 1.5543 20 15.597
v 2.1706 20 15.6899
v 2.78151 20 15.8134
v 3.38551 20 15.9672
v 3.98108 20 16.1509
v 4.56676 20 16.3641
v 5.14109 20 16.6062
v 5.70263 20 16.8766
v 6.25 20 17.1747
v 6.78183 20 17.4997
v 7.2968 20 17.8508
v 7.79362 20 18.2271
v 8.27107 20 18.6277
v 8.72796 20 19.0517
v 9.16315 20 19.4978
v 9.57556 20 19.9652
v 9.96416 20 20.4524
v 10.328 20 20.9585
v 10.6661 20 21.4821
v 10.9778 20 22.0218
v 11.2621 20 22.5765
v 11.5185 20 23.1446
v 11.7462 20 23.7247
v 11.9447 20 24.3156
v 12.1135 20 24.9155
v 12.2522 20 25.5232
v 12.3604 20 26.137
v 12.4379 20 26.7554
v 12.4845 20 27.3769
v 12.5 20 28
v -33 -1.71451e-15 12
v -33.0087 0.348921 12
v -33.0348 0.696975 12
v -33.0782 1.0433 12
v -33.1388 1.38702 12
v -33.2165 1.7273 12
v -33.311 2.06329 12
v -33.4222 2.39414 12
v -33.5497 2.71904 12
v -33.6932 3.03719 12
v -33.8524 3.34778 12
v -34.027 3.65005 12
v -34.2163 3.94324 12
v -34.4201 4.22663 12
v -34.6377 4.49951 12
v -34.8686 4.76121 12
v -35.1123 5.01107 12
v -35.3682 5.24847 12
v -35.6356 5.47282 12
v -35.9138 5.68357 12
v -36.2022 5.88018 12
v -36.5 6.06218 12
v -36.8065 6.2291 12
v -37.121 6.38054 12
v -37.4426 6.51612 12
v -37.7706 6.63549 12
v -38.1041 6.73837 12
v -38.4424 6.8245 12
v -38.7845 6.89365 12
v -39.1296 6.94567 12
v -39.4769 6.98043 12
v -39.8255 6.99782 12
v -40.1745 6.99782 12
v -40.5231 6.98043 12
v -40.8704 6.94567 12
v -41.2155 6.89365 12
v -41.5576 6.8245 12
v -41.8959 6.73837 12
v -42.2294 6.63549 12
v -42.5574 6.51612 12
v -42.879 6.38054 12
v -43.1935 6.2291 12
v -43.5 6.06218 12
v -43.7978 5.88018 12
v -44.0862 5.68357 12
v -44.3644 5.47282 12
v -44.6318 5.24847 12
v -44.8877 5.01107 12
v -45.1314 4.76121 12
v -45.3623 4.49951 12
v -45.5799 4.22663 12
v -45.7837 3.94324 12
v -45.973 3.65005 12
v -46.1476 3.34778 12
v -46.3068 3.03719 12
v -46.4503 2.71904 12
v -46.5778 2.39414 12
v -46.689 2.06329 12
v -46.7835 1.7273 12
v -46.8612 1.38702 12
v -46.9218 1.0433 12
v -46.9652 0.696975 12
v -46.9913 0.348921 12
v -47 -2.40117e-14 12
v -46.9913 -0.348921 12
v -46.9652 -0.696975 12
v -46.9218 -1.0433 12
v -46.8612 -1.38702 12
v -46.7835 -1.7273 12
v -46.689 -2.06329 12
v -46.5778 -2.39414 12
v -46.4503 -2.71904 12
v -46.3068 -3.03719 12
v -46.1476 -3.34778 12
v -45.973 -3.65005 12
v -45.7837 -3.94324 12
v -45.5799 -4.22663 12
v -45.3623 -4.49951 12
v -45.1314 -4.76121 12
v -44.8877 -5.01107 12
v -44.6318 -5.24847 12
v -44.3644 -5.47282 12
v -44.0862 -5.68357 12
v -43.7978 -5.88018 12
v -43.5 -6.06218 12
v -43.1935 -6.2291 12
v -42.879 -6.38054 12
v -42.5574 -6.51612 12
v -42.2294 -6.63549 12
v -41.8959 -6.73837 12
v -41.5576 -6.8245 12
v -41.2155 -6.89365 12
v -40.8704 -6.94567 12
v -40.5231 -6.98043 12
v -40.1745 -6.99782 12
v -39.8255 -6.99782 12
v -39.4769 -6.98043 12
v -39.1296 -6.94567 12
v -38.7845 -6.89365 12
v -38.4424 -6.8245 12
v -38.1041 -6.73837 12
v -37.7706 -6.63549 12
v -37.4426 -6.51612 12
v -37.121 -6.38054 12
v -36.8065 -6.2291 12
v -36.5 -6.06218 12
v -36.2022 -5.88018 12
v -35.9138 -5.68357 12
v -35.6356 -5.47282 12
v -35.3682 -5.24847 12
v -35.1123 -5.01107 12
v -34.8686 -4.76121 12
v -34.6377 -4.49951 12
v -34.4201 -4.22663 12
v -34.2163 -3.94324 12
v -34.027 -3.65005 12
v -33.8524 -3.34778 12
v -33.6932 -3.03719 12
v -33.5497 -2.71904 12
v -33.4222 -2.39414 12
v -33.311 -2.06329 12
v -33.2165 -1.7273 12
v -33.1388 -1.38702 12
v -33.0782 -1.0433 12
v -33.0348 -0.696975 12
v -33.0087 -0.348921 12
v -33 -1.71451e-15 12
v -33 -1.71451e-15 7
v -33.0087 0.348921 7
v -33.0348 0.696975 7
v -33.0782 1.0433 7
v -33.1388 1.38702 7
v -33.2165 1.7273 7
v -33.311 2.06329 7
v -33.4222 2.39414 7
v -33.5497 2.71904 7
v -33.6932 3.03719 7
v -33.8524 3.34778 7
v -34.027 3.65005 7
v -34.2163 3.94324 7
v -34.4201 4.22663 7
v -34.6377 4.49951 7
v -34.8686 4.76121 7
v -35.1123 5.01107 7
v -35.3682 5.24847 7
v -35.6356 5.47282 7
v -35.9138 5.68357 7
v -36.2022 5.88018 7
v -36.5 6.06218 7
v -36.8065 6.2291 7
v -37.121 6.38054 7
v -37.4426 6.51612 7
v -37.7706 6.63549 7
v -38.1041 6.73837 7
v -38.4424 6.8245 7
v -38.7845 6.89365 7
v -39.1296 6.94567 7
v -39.4769 6.98043 7
v -39.8255 6.99782 7
v -40.1745 6.99782 7
v -40.5231 6.98043 7
v -40.8704 6.94567 7
v -41.2155 6.89365 7
v -41.5576 6.8245 7
v -41.8959 6.73837 7
v -42.2294 6.63549 7
v -42.5574 6.51612 7
v -42.879 6.38054 7
v -43.1935 6.2291 7
v -43.5 6.06218 7
v -43.7978 5.88018 7
v -44.0862 5.68357 7
v -44.3644 5.47282 7
v -44.6318 5.24847 7
v -44.8877 5.01107 7
v -45.1314 4.76121 7
v -45.3623 4.49951 7
v -45.5799 4.22663 7
v -45.7837 3.94324 7
v -45.973 3.65005 7
v -46.1476 3.34778 7
v -46.3068 3.03719 7
v -46.4503 2.71904 7
v -46.5778 2.39414 7
v -46.689 2.06329 7
v -46.7835 1.7273 7
v -46.8612 1.38702 7
v -46.9218 1.0433 7
v -46.9652 0.696975 7
v -46.9913 0.348921 7
v -47 -2.40117e-14 7
v -46.9913 -0.348921 7
v -46.9652 -0.696975 7
v -46.9218 -1.0433 7
v -46.8612 -1.38702 7
v -46.7835 -1.7273 7
v -46.689 -2.06329 7
v -46.5778 -2.39414 7
v -46.4503 -2.71904 7
v -46.3068 -3.03719 7
v -46.1476 -3.34778 7
v -45.973 -3.65005 7
v -45.7837 -3.94324 7
v -45.5799 -4.22663 7
v -45.3623 -4.49951 7
v -45.1314 -4.76121 7
v -44.8877 -5.01107 7
v -44.6318 -5.24847 7
v -44.3644 -5.47282 7
v -44.0862 -5.68357 7
v -43.7978 -5.88018 7
v -43.5 -6.06218 7
v -43.1935 -6.2291 7
v -42.879 -6.38054 7
v -42.5574 -6.51612 7
v -42.2294 -6.63549 7
v -41.8959 -6.73837 7
v -41.5576 -6.8245 7
v -41.2155 -6.89365 7
v -40.8704 -6.94567 7
v -40.5231 -6.98043 7
v -40.1745 -6.99782 7
v -39.8255 -6.99782 7
v -39.4769 -6.98043 7
v -39.1296 -6.94567 7
v -38.7845 -6.89365 7
v -38.4424 -6.8245 7
v -38.1041 -6.73837 7
v -37.7706 -6.63549 7
v -37.4426 -6.51612 7
v -37.121 -6.38054 7
v -36.8065 -6.2291 7
v -36.5 -6.06218 7
v -36.2022 -5.88018 7
v -35.9138 -5.68357 7
v -35.6356 -5.47282 7
v -35.3682 -5.24847 7
v -35.1123 -5.01107 7
v -34.8686 -4.76121 7
v -34.6377 -4.49951 7
v -34.4201 -4.22663 7
v -34.2163 -3.94324 7
v -34.027 -3.65005 7
v -33.8524 -3.34778 7
v -33.6932 -3.03719 7
v -33.5497 -2.71904 7
v -33.4222 -2.39414 7
v -33.311 -2.06329 7
v -33.2165 -1.7273 7
v -33.1388 -1.38702 7
v -33.0782 -1.0433 7
v -33.0348 -0.696975 7
v -33.0087 -0.348921 7
v -33 -1.71451e-15 7
v -36 -9.79717e-16 7
v -36.005 0.199384 7
v -36.0199 0.398271 7
v -36.0447 0.596169 7
v -36.0793 0.792585 7
v -36.1237 0.98703 7
v -36.1777 1.17902 7
v -36.2412 1.36808 7
v -36.3141 1.55374 7
v -36.3961 1.73553 7
v -36.4871 1.91302 7
v -36.5868 2.08574 7
v -36.695 2.25328 7
v -36.8115 2.41522 7
v -36.9358 2.57115 7
v -37.0678 2.72069 7
v -37.2071 2.86347 7
v -37.3533 2.99912 7
v -37.506 3.12733 7
v -37.665 3.24775 7
v -37.8298 3.3601 7
v -38 3.4641 7
v -38.1752 3.55949 7
v -38.3549 3.64602 7
v -38.5386 3.72349 7
v -38.7261 3.79171 7
v -38.9166 3.8505 7
v -39.1099 3.89971 7
v -39.3054 3.93923 7
v -39.5026 3.96896 7
v -39.7011 3.98882 7
v -39.9003 3.99876 7
v -40.0997 3.99876 7
v -40.2989 3.98882 7
v -40.4974 3.96896 7
v -40.6946 3.93923 7
v -40.8901 3.89971 7
v -41.0834 3.8505 7
v -41.2739 3.79171 7
v -41.4614 3.72349 7
v -41.6451 3.64602 7
v -41.8248 3.55949 7
v -42 3.4641 7
v -42.1702 3.3601 7
v -42.335 3.24775 7
v -42.494 3.12733 7
v -42.6467 2.99912 7
v -42.7929 2.86347 7
v -42.9322 2.72069 7
v -43.0642 2.57115 7
v -43.1885 2.41522 7
v -43.305 2.25328 7
v -43.4132 2.08574 7
v -43.5129 1.91302 7
v -43.6039 1.73553 7
v -43.6859 1.55374 7
v -43.7588 1.36808 7
v -43.8223 1.17902 7
v -43.8763 0.98703 7
v -43.9207 0.792585 7
v -43.9553 0.596169 7
v -43.9801 0.398271 7
v -43.995 0.199384 7
v -44 -1.3721e-14 7
v -43.995 -0.199384 7
v -43.9801 -0.398271 7
v -43.9553 -0.596169 7
v -43.9207 -0.792585 7
v -43.8763 -0.98703 7
v -43.8223 -1.17902 7
v -43.7588 -1.36808 7
v -43.6859 -1.55374 7
v -43.6039 -1.73553 7
v -43.5129 -1.91302 7
v -43.4132 -2.08574 7
v -43.305 -2.25328 7
v -43.1885 -2.41522 7
v -43.0642 -2.57115 7
v -42.9322 -2.72069 7
v -42.7929 -2.86347 7
v -42.6467 -2.99912 7
v -42.494 -3.12733 7
v -42.335 -3.24775 7
v -42.1702 -3.3601 7
v -42 -3.4641 7
v -41.8248 -3.55949 7
v -41.6451 -3.64602 7
v -41.4614 -3.72349 7
v -41.2739 -3.79171 7
v -41.0834 -3.8505 7
v -40.8901 -3.89971 7
v -40.6946 -3.93923 7
v -40.4974 -3.96896 7
v -40.2989 -3.98882 7
v -40.0997 -3.99876 7
v -39.9003 -3.99876 7
v -39.7011 -3.98882 7
v -39.5026 -3.96896 7
v -39.3054 -3.93923 7
v -39.1099 -3.89971 7
v -38.9166 -3.8505 7
v -38.7261 -3.79171 7
v -38.5386 -3.72349 7
v -38.3549 -3.64602 7
v -38.1752 -3.55949 7
v -38 -3.4641 7
v -37.8298 -3.3601 7
v -37.665 -3.24775 7
v -37.506 -3.12733 7
v -37.3533 -2.99912 7
v -37.2071 -2.86347 7
v -37.0678 -2.72069 7
v -36.9358 -2.57115 7
v -36.8115 -2.41522 7
v -36.695 -2.25328 7
v -36.5868 -2.08574 7
v -36.4871 -1.91302 7
v -36.3961 -1.73553 7
v -36.3141 -1.55374 7
v -36.2412 -1.36808 7
v -36.1777 -1.17902 7
v -36.1237 -0.98703 7
v -36.0793 -0.792585 7
v -36.0447 -0.596169 7
v -36.0199 -0.398271 7
v -36.005 -0.199384 7
v -36 -9.79717e-16 7
v -36 -9.79717e-16 0
v -36.005 0.199384 0
v -36.0199 0.398271 0
v -36.0447 0.596169 0
v -36.0793 0.792585 0
v -36.1237 0.98703 0
v -36.1777 1.17902 0
v -36.2412 1.36808 0
v -36.3141 1.55374 0
v -36.3961 1.73553 0
v -36.4871 1.91302 0
v -36.5868 2.08574 0
v -36.695 2.25328 0
v -36.8115 2.41522 0
v -36.9358 2.57115 0
v -37.0678 2.72069 0
v -37.2071 2.86347 0
v -37.3533 2.99912 0
v -37.506 3.12733 0
v -37.665 3.24775 0
v -37.8298 3.3601 0
v -38 3.4641 0
v -38.1752 3.55949 0
v -38.3549 3.64602 0
v -38.5386 3.72349 0
v -38.7261 3.79171 0
v -38.9166 3.8505 0
v -39.1099 3.89971 0
v -39.3054 3.93923 0
v -39.5026 3.96896 0
v -39.7011 3.98882 0
v -39.9003 3.99876 0
v -40.0997 3.99876 0
v -40.2989 3.98882 0
v -40.4974 3.96896 0
v -40.6946 3.93923 0
v -40.8901 3.89971 0
v -41.0834 3.8505 0
v -41.2739 3.79171 0
v -41.4614 3.72349 0
v -41.6451 3.64602 0
v -41.8248 3.55949 0
v -42 3.4641 0
v -42.1702 3.3601 0
v -42.335 3.24775 0
v -42.494 3.12733 0
v -42.6467 2.99912 0
v -42.7929 2.86347 0
v -42.9322 2.72069 0
v -43.0642 2.57115 0
v -43.1885 2.41522 0
v -43.305 2.25328 0
v -43.4132 2.08574 0
v -43.5129 1.91302 0
v -43.6039 1.73553 0
v -43.6859 1.55374 0
v -43.7588 1.36808 0
v -43.8223 1.17902 0
v -43.8763 0.98703 0
v -43.9207 0.792585 0
v -43.9553 0.596169 0
v -43.9801 0.398271 0
v -43.995 0.199384 0
v -44 -1.3721e-14 0
v -43.995 -0.199384 0
v -43.9801 -0.398271 0
v -43.9553 -0.596169 0
v -43.9207 -0.792585 0
v -43.8763 -0.98703 0
v -43.8223 -1.17902 0
v -43.7588 -1.36808 0
v -43.6859 -1.55374 0
v -43.6039 -1.73553 0
v -43.5129 -1.91302 0
v -43.4132 -2.08574 0
v -43.305 -2.25328 0
v -43.1885 -2.41522 0
v -43.0642 -2.57115 0
v -42.9322 -2.72069 0
v -42.7929 -2.86347 0
v -42.6467 -2.99912 0
v -42.494 -3.12733 0
v -42.335 -3.24775 0
v -42.1702 -3.3601 0
v -42 -3.4641 0
v -41.8248 -3.55949 0
v -41.6451 -3.64602 0
v -41.4614 -3.72349 0
v -41.2739 -3.79171 0
v -41.0834 -3.8505 0
v -40.8901 -3.89971 0
v -40.6946 -3.93923 0
v -40.4974 -3.96896 0
v -40.2989 -3.98882 0
v -40.0997 -3.99876 0
v -39.9003 -3.99876 0
v -39.7011 -3.98882 0
v -39.5026 -3.96896 0
v -39.3054 -3.93923 0
v -39.1099 -3.89971 0
v -38.9166 -3.8505 0
v -38.7261 -3.79171 0
v -38.5386 -3.72349 0
v -38.3549 -3.64602 0
v -38.1752 -3.55949 0
v -38 -3.4641 0
v -37.8298 -3.3601 0
v -37.665 -3.24775 0
v -37.506 -3.12733 0
v -37.3533 -2.99912 0
v -37.2071 -2.86347 0
v -37.0678 -2.72069 0
v -36.9358 -2.57115 0
v -36.8115 -2.41522 0
v -36.695 -2.25328 0
v -36.5868 -2.08574 0
v -36.4871 -1.91302 0
v -36.3961 -1.73553 0
v -36.3141 -1.55374 0
v -36.2412 -1.36808 0
v -36.1777 -1.17902 0
v -36.1237 -0.98703 0
v -36.0793 -0.792585 0
v -36.0447 -0.596169 0
v -36.0199 -0.398271 0
v -36.005 -0.199384 0
v -36 -9.79717e-16 0
v 44 -9.79717e-16 7
v 43.995 0.199384 7
v 43.9801 0.398271 7
v 43.9553 0.596169 7
v 43.9207 0.792585 7
v 43.8763 0.98703 7
v 43.8223 1.17902 7
v 43.7588 1.36808 7
v 43.6859 1.55374 7
v 43.6039 1.73553 7
v 43.5129 1.91302 7
v 43.4132 2.08574 7
v 43.305 2.25328 7
v 43.1885 2.41522 7
v 43.0642 2.57115 7
v 42.9322 2.72069 7
v 42.7929 2.86347 7
v 42.6467 2.99912 7
v 42.494 3.12733 7
v 42.335 3.24775 7
v 42.1702 3.3601 7
v 42 3.4641 7
v 41.8248 3.55949 7
v 41.6451 3.64602 7
v 41.4614 3.72349 7
v 41.2739 3.79171 7
v 41.0834 3.8505 7
v 40.8901 3.89971 7
v 40.6946 3.93923 7
v 40.4974 3.96896 7
v 40.2989 3.98882 7
v 40.0997 3.99876 7
v 39.9003 3.99876 7
v 39.7011 3.98882 7
v 39.5026 3.96896 7
v 39.3054 3.93923 7
v 39.1099 3.89971 7
v 38.9166 3.8505 7
v 38.7261 3.79171 7
v 38.5386 3.72349 7
v 38.3549 3.64602 7
v 38.1752 3.55949 7
v 38 3.4641 7
v 37.8298 3.3601 7
v 37.665 3.24775 7
v 37.506 3.12733 7
v 37.3533 2.99912 7
v 37.2071 2.86347 7
v 37.0678 2.72069 7
v 36.9358 2.57115 7
v 36.8115 2.41522 7
v 36.695 2.25328 7
v 36.5868 2.08574 7
v 36.4871 1.91302 7
v 36.3961 1.73553 7
v 36.3141 1.55374 7
v 36.2412 1.36808 7
v 36.1777 1.17902 7
v 36.1237 0.98703 7
v 36.0793 0.792585 7
v 36.0447 0.596169 7
v 36.0199 0.398271 7
v 36.005 0.199384 7
v 36 -1.3721e-14 7
v 36.005 -0.199384 7
v 36.0199 -0.398271 7
v 36.0447 -0.596169 7
v 36.0793 -0.792585 7
v 36.1237 -0.98703 7
v 36.1777 -1.17902 7
v 36.2412 -1.36808 7
v 36.3141 -1.55374 7
v 36.3961 -1.73553 7
v 36.4871 -1.91302 7
v 36.5868 -2.08574 7
v 36.695 -2.25328 7
v 36.8115 -2.41522 7
v 36.9358 -2.57115 7
v 37.0678 -2.72069 7
v 37.2071 -2.86347 7
v 37.3533 -2.99912 7
v 37.506 -3.12733 7
v 37.665 -3.24775 7
v 37.8298 -3.3601 7
v 38 -3.4641 7
v 38.1752 -3.55949 7
v 38.3549 -3.64602 7
v 38.5386 -3.72349 7
v 38.7261 -3.79171 7
v 38.9166 -3.8505 7
v 39.1099 -3.89971 7
v 39.3054 -3.93923 7
v 39.5026 -3.96896 7
v 39.7011 -3.98882 7
v 39.9003 -3.99876 7
v 40.0997 -3.99876 7
v 40.2989 -3.98882 7
v 40.4974 -3.96896 7
v 40.6946 -3.93923 7
v 40.8901 -3.89971 7
v 41.0834 -3.8505 7
v 41.2739 -3.79171 7
v 41.4614 -3.72349 7
v 41.6451 -3.64602 7
v 41.8248 -3.55949 7
v 42 -3.4641 7
v 42.1702 -3.3601 7
v 42.335 -3.24775 7
v 42.494 -3.12733 7
v 42.6467 -2.99912 7
v 42.7929 -2.86347 7
v 42.9322 -2.72069 7
v 43.0642 -2.57115 7
v 43.1885 -2.41522 7
v 43.305 -2.25328 7
v 43.4132 -2.08574 7
v 43.5129 -1.91302 7
v 43.6039 -1.73553 7
v 43.6859 -1.55374 7
v 43.7588 -1.36808 7
v 43.8223 -1.17902 7
v 43.8763 -0.98703 7
v 43.9207 -0.792585 7
v 43.9553 -0.596169 7
v 43.9801 -0.398271 7
v 43.995 -0.199384 7
v 44 -9.79717e-16 7
v 44 -9.79717e-16 0
v 43.995 0.199384 0
v 43.9801 0.398271 0
v 43.9553 0.596169 0
v 43.9207 0.792585 0
v 43.8763 0.98703 0
v 43.8223 1.17902 0
v 43.7588 1.36808 0
v 43.6859 1.55374 0
v 43.6039 1.73553 0
v 43.5129 1.91302 0
v 43.4132 2.08574 0
v 43.305 2.25328 0
v 43.1885 2.41522 0
v 43.0642 2.57115 0
v 42.9322 2.72069 0
v 42.7929 2.86347 0
v 42.6467 2.99912 0
v 42.494 3.12733 0
v 42.335 3.24775 0
v 42.1702 3.3601 0
v 42 3.4641 0
v 41.8248 3.55949 0
v 41.6451 3.64602 0
v 41.4614 3.72349 0
v 41.2739 3.79171 0
v 41.0834 3.8505 0
v 40.8901 3.89971 0
v 40.6946 3.93923 0
v 40.4974 3.96896 0
v 40.2989 3.98882 0
v 40.0997 3.99876 0
v 39.9003 3.99876 0
v 39.7011 3.98882 0
v 39.5026 3.96896 0
v 39.3054 3.93923 0
v 39.1099 3.89971 0
v 38.9166 3.8505 0
v 38.7261 3.79171 0
v 38.5386 3.72349 0
v 38.3549 3.64602 0
v 38.1752 3.55949 0
v 38 3.4641 0
v 37.8298 3.3601 0
v 37.665 3.24775 0
v 37.506 3.12733 0
v 37.3533 2.99912 0
v 37.2071 2.86347 0
v 37.0678 2.72069 0
v 36.9358 2.57115 0
v 36.8115 2.41522 0
v 36.695 2.25328 0
v 36.5868 2.08574 0
v 36.4871 1.91302 0
v 36.3961 1.73553 0
v 36.3141 1.55374 0
v 36.2412 1.36808 0
v 36.1777 1.17902 0
v 36.1237 0.98703 0
v 36.0793 0.792585 0
v 36.0447 0.596169 0
v 36.0199 0.398271 0
v 36.005 0.199384 0
v 36 -1.3721e-14 0
v 36.005 -0.199384 0
v 36.0199 -0.398271 0
v 36.0447 -0.596169 0
v 36.0793 -0.792585 0
v 36.1237 -0.98703 0
v 36.1777 -1.17902 0
v 36.2412 -1.36808 0
v 36.3141 -1.55374 0
v 36.3961 -1.73553 0
v 36.4871 -1.91302 0
v 36.5868 -2.08574 0
v 36.695 -2.25328 0
v 36.8115 -2.41522 0
v 36.9358 -2.57115 0
v 37.0678 -2.72069 0
v 37.2071 -2.86347 0
v 37.3533 -2.99912 0
v 37.506 -3.12733 0
v 37.665 -3.24775 0
v 37.8298 -3.3601 0
v 38 -3.4641 0
v 38.1752 -3.55949 0
v 38.3549 -3.64602 0
v 38.5386 -3.72349 0
v 38.7261 -3.79171 0
v 38.9166 -3.8505 0
v 39.1099 -3.89971 0
v 39.3054 -3.93923 0
v 39.5026 -3.96896 0
v 39.7011 -3.98882 0
v 39.9003 -3.99876 0
v 40.0997 -3.99876 0
v 40.2989 -3.98882 0
v 40.4974 -3.96896 0
v 40.6946 -3.93923 0
v 40.8901 -3.89971 0
v 41.0834 -3.8505 0
v 41.2739 -3.79171 0
v 41.4614 -3.72349 0
v 41.6451 -3.64602 0
v 41.8248 -3.55949 0
v 42 -3.4641 0
v 42.1702 -3.3601 0
v 42.335 -3.24775 0
v 42.494 -3.12733 0
v 42.6467 -2.99912 0
v 42.7929 -2.86347 0
v 42.9322 -2.72069 0
v 43.0642 -2.57115 0
v 43.1885 -2.41522 0
v 43.305 -2.25328 0
v 43.4132 -2.08574 0
v 43.5129 -1.91302 0
v 43.6039 -1.73553 0
v 43.6859 -1.55374 0
v 43.7588 -1.36808 0
v 43.8223 -1.17902 0
v 43.8763 -0.98703 0
v 43.9207 -0.792585 0
v 43.9553 -0.596169 0
v 43.9801 -0.398271 0
v 43.995 -0.199384 0
v 44 -9.79717e-16 0
v 47 -1.71451e-15 12
v 46.9913 0.348921 12
v 46.9652 0.696975 12
v 46.9218 1.0433 12
v 46.8612 1.38702 12
v 46.7835 1.7273 12
v 46.689 2.06329 12
v 46.5778 2.39414 12
v 46.4503 2.71904 12
v 46.3068 3.03719 12
v 46.1476 3.34778 12
v 45.973 3.65005 12
v 45.7837 3.94324 12
v 45.5799 4.22663 12
v 45.3623 4.49951 12
v 45.1314 4.76121 12
v 44.8877 5.01107 12
v 44.6318 5.24847 12
v 44.3644 5.47282 12
v 44.0862 5.68357 12
v 43.7978 5.88018 12
v 43.5 6.06218 12
v 43.1935 6.2291 12
v 42.879 6.38054 12
v 42.5574 6.51612 12
v 42.2294 6.63549 12
v 41.8959 6.73837 12
v 41.5576 6.8245 12
v 41.2155 6.89365 12
v 40.8704 6.94567 12
v 40.5231 6.98043 12
v 40.1745 6.99782 12
v 39.8255 6.99782 12
v 39.4769 6.98043 12
v 39.1296 6.94567 12
v 38.7845 6.89365 12
v 38.4424 6.8245 12
v 38.1041 6.73837 12
v 37.7706 6.63549 12
v 37.4426 6.51612 12
v 37.121 6.38054 12
v 36.8065 6.2291 12
v 36.5 6.06218 12
v 36.2022 5.88018 12
v 35.9138 5.68357 12
v 35.6356 5.47282 12
v 35.3682 5.24847 12
v 35.1123 5.01107 12
v 34.8686 4.76121 12
v 34.6377 4.49951 12
v 34.4201 4.22663 12
v 34.2163 3.94324 12
v 34.027 3.65005 12
v 33.8524 3.34778 12
v 33.6932 3.03719 12
v 33.5497 2.71904 12
v 33.4222 2.39414 12
v 33.311 2.06329 12
v 33.2165 1.7273 12
v 33.1388 1.38702 12
v 33.0782 1.0433 12
v 33.0348 0.696975 12
v 33.0087 0.348921 12
v 33 -2.40117e-14 12
v 33.0087 -0.348921 12
v 33.0348 -0.696975 12
v 33.0782 -1.0433 12
v 33.1388 -1.38702 12
v 33.2165 -1.7273 12
v 33.311 -2.06329 12
v 33.4222 -2.39414 12
v 33.5497 -2.71904 12
v 33.6932 -3.03719 12
v 33.8524 -3.34778 12
v 34.027 -3.65005 12
v 34.2163 -3.94324 12
v 34.4201 -4.22663 12
v 34.6377 -4.49951 12
v 34.8686 -4.76121 12
v 35.1123 -5.01107 12
v 35.3682 -5.24847 12
v 35.6356 -5.47282 12
v 35.9138 -5.68357 12
v 36.2022 -5.88018 12
v 36.5 -6.06218 12
v 36.8065 -6.2291 12
v 37.121 -6.38054 12
v 37.4426 -6.51612 12
v 37.7706 -6.63549 12
v 38.1041 -6.73837 12
v 38.4424 -6.8245 12
v 38.7845 -6.89365 12
v 39.1296 -6.94567 12
v 39.4769 -6.98043 12
v 39.8255 -6.99782 12
v 40.1745 -6.99782 12
v 40.5231 -6.98043 12
v 40.8704 -6.94567 12
v 41.2155 -6.89365 12
v 41.5576 -6.8245 12
v 41.8959 -6.73837 12
v 42.2294 -6.63549 12
v 42.5574 -6.51612 12
v 42.879 -6.38054 12
v 43.1935 -6.2291 12
v 43.5 -6.06218 12
v 43.7978 -5.88018 12
v 44.0862 -5.68357 12
v 44.3644 -5.47282 12
v 44.6318 -5.24847 12
v 44.8877 -5.01107 12
v 45.1314 -4.76121 12
v 45.3623 -4.49951 12
v 45.5799 -4.22663 12
v 45.7837 -3.94324 12
v 45.973 -3.65005 12
v 46.1476 -3.34778 12
v 46.3068 -3.03719 12
v 46.4503 -2.71904 12
v 46.5778 -2.39414 12
v 46.689 -2.06329 12
v 46.7835 -1.7273 12
v 46.8612 -1.38702 12
v 46.9218 -1.0433 12
v 46.9652 -0.696975 12
v 46.9913 -0.348921 12
v 47 -1.71451e-15 12
v 47 -1.71451e-15 7
v 46.9913 0.348921 7
v 46.9652 0.696975 7
v 46.9218 1.0433 7
v 46.8612 1.38702 7
v 46.7835 1.7273 7
v 46.689 2.06329 7
v 46.5778 2.39414 7
v 46.4503 2.71904 7
v 46.3068 3.03719 7
v 46.1476 3.34778 7
v 45.973 3.65005 7
v 45.7837 3.94324 7
v 45.5799 4.22663 7
v 45.3623 4.49951 7
v 45.1314 4.76121 7
v 44.8877 5.01107 7
v 44.6318 5.24847 7
v 44.3644 5.47282 7
v 44.0862 5.68357 7
v 43.7978 5.88018 7
v 43.5 6.06218 7
v 43.1935 6.2291 7
v 42.879 6.38054 7
v 42.5574 6.51612 7
v 42.2294 6.63549 7
v 41.8959 6.73837 7
v 41.5576 6.8245 7
v 41.2155 6.89365 7
v 40.8704 6.94567 7
v 40.5231 6.98043 7
v 40.1745 6.99782 7
v 39.8255 6.99782 7
v 39.4769 6.98043 7
v 39.1296 6.94567 7
v 38.7845 6.89365 7
v 38.4424 6.8245 7
v 38.1041 6.73837 7
v 37.7706 6.63549 7
v 37.4426 6.51612 7
v 37.121 6.38054 7
v 36.8065 6.2291 7
v 36.5 6.06218 7
v 36.2022 5.88018 7
v 35.9138 5.68357 7
v 35.6356 5.47282 7
v 35.3682 5.24847 7
v 35.1123 5.01107 7
v 34.8686 4.76121 7
v 34.6377 4.49951 7
v 34.4201 4.22663 7
v 34.2163 3.94324 7
v 34.027 3.65005 7
v 33.8524 3.34778 7
v 33.6932 3.03719 7
v 33.5497 2.71904 7
v 33.4222 2.39414 7
v 33.311 2.06329 7
v 33.2165 1.7273 7
v 33.1388 1.38702 7
v 33.0782 1.0433 7
v 33.0348 0.696975 7
v 33.0087 0.348921 7
v 33 -2.40117e-14 7
v 33.0087 -0.348921 7
v 33.0348 -0.696975 7
v 33.0782 -1.0433 7
v 33.1388 -1.38702 7
v 33.2165 -1.7273 7
v 33.311 -2.06329 7
v 33.4222 -2.39414 7
v 33.5497 -2.71904 7
v 33.6932 -3.03719 7
v 33.8524 -3.34778 7
v 34.027 -3.65005 7
v 34.2163 -3.94324 7
v 34.4201 -4.22663 7
v 34.6377 -4.49951 7
v 34.8686 -4.76121 7
v 35.1123 -5.01107 7
v 35.3682 -5.24847 7
v 35.6356 -5.47282 7
v 35.9138 -5.68357 7
v 36.2022 -5.88018 7
v 36.5 -6.06218 7
v 36.8065 -6.2291 7
v 37.121 -6.38054 7
v 37.4426 -6.51612 7
v 37.7706 -6.63549 7
v 38.1041 -6.73837 7
v 38.4424 -6.8245 7
v 38.7845 -6.89365 7
v 39.1296 -6.94567 7
v 39.4769 -6.98043 7
v 39.8255 -6.99782 7
v 40.1745 -6.99782 7
v 40.5231 -6.98043 7
v 40.8704 -6.94567 7
v 41.2155 -6.89365 7
v 41.5576 -6.8245 7
v 41.8959 -6.73837 7
v 42.2294 -6.63549 7
v 42.5574 -6.51612 7
v 42.879 -6.38054 7
v 43.1935 -6.2291 7
v 43.5 -6.06218 7
v 43.7978 -5.88018 7
v 44.0862 -5.68357 7
v 44.3644 -5.47282 7
v 44.6318 -5.24847 7
v 44.8877 -5.01107 7
v 45.1314 -4.76121 7
v 45.3623 -4.49951 7
v 45.5799 -4.22663 7
v 45.7837 -3.94324 7
v 45.973 -3.65005 7
v 46.1476 -3.34778 7
v 46.3068 -3.03719 7
v 46.4503 -2.71904 7
v 46.5778 -2.39414 7
v 46.689 -2.06329 7
v 46.7835 -1.7273 7
v 46.8612 -1.38702 7
v 46.9218 -1.0433 7
v 46.9652 -0.696975 7
v 46.9913 -0.348921 7
v 47 -1.71451e-15 7
v -33 -1.71451e-15 7
v -33.0087 0.348921 7
v -33.0348 0.696975 7
v -33.0782 1.0433 7
v -33.1388 1.38702 7
v -33.2165 1.7273 7
v -33.311 2.06329 7
v -33.4222 2.39414 7
v -33.5497 2.71904 7
v -33.6932 3.03719 7
v -33.8524 3.34778 7
v -34.027 3.65005 7
v -34.2163 3.94324 7
v -34.4201 4.22663 7
v -34.6377 4.49951 7
v -34.8686 4.76121 7
v -35.1123 5.01107 7
v -35.3682 5.24847 7
v -35.6356 5.47282 7
v -35.9138 5.68357 7
v -36.2022 5.88018 7
v -36.5 6.06218 7
v -36.8065 6.2291 7
v -37.121 6.38054 7
v -37.4426 6.51612 7
v -37.7706 6.63549 7
v -38.1041 6.73837 7
v -38.4424 6.8245 7
v -38.7845 6.89365 7
v -39.1296 6.94567 7
v -39.4769 6.98043 7
v -39.8255 6.99782 7
v -40.1745 6.99782 7
v -40.5231 6.98043 7
v -40.8704 6.94567 7
v -41.2155 6.89365 7
v -41.5576 6.8245 7
v -41.8959 6.73837 7
v -42.2294 6.63549 7
v -42.5574 6.51612 7
v -42.879 6.38054 7
v -43.1935 6.2291 7
v -43.5 6.06218 7
v -43.7978 5.88018 7
v -44.0862 5.68357 7
v -44.3644 5.47282 7
v -44.6318 5.24847 7
v -44.8877 5.01107 7
v -45.1314 4.76121 7
v -45.3623 4.49951 7
v -45.5799 4.22663 7
v -45.7837 3.94324 7
v -45.973 3.65005 7
v -46.1476 3.34778 7
v -46.3068 3.03719 7
v -46.4503 2.71904 7
v -46.5778 2.39414 7
v -46.689 2.06329 7
v -46.7835 1.7273 7
v -46.8612 1.38702 7
v -46.9218 1.0433 7
v -46.9652 0.696975 7
v -46.9913 0.348921 7
v -47 -2.40117e-14 7
v -46.9913 -0.348921 7
v -46.9652 -0.696975 7
v -46.9218 -1.0433 7
v -46.8612 -1.38702 7
v -46.7835 -1.7273 7
v -46.689 -2.06329 7
v -46.5778 -2.39414 7
v -46.4503 -2.71904 7
v -46.3068 -3.03719 7
v -46.1476 -3.34778 7
v -45.973 -3.65005 7
v -45.7837 -3.94324 7
v -45.5799 -4.22663 7
v -45.3623 -4.49951 7
v -45.1314 -4.76121 7
v -44.8877 -5.01107 7
v -44.6318 -5.24847 7
v -44.3644 -5.47282 7
v -44.0862 -5.68357 7
v -43.7978 -5.88018 7
v -43.5 -6.06218 7
v -43.1935 -6.2291 7
v -42.879 -6.38054 7
v -42.5574 -6.51612 7
v -42.2294 -6.63549 7
v -41.8959 -6.73837 7
v -41.5576 -6.8245 7
v -41.2155 -6.89365 7
v -40.8704 -6.94567 7
v -40.5231 -6.98043 7
v -40.1745 -6.99782 7
v -39.8255 -6.99782 7
v -39.4769 -6.98043 7
v -39.1296 -6.94567 7
v -38.7845 -6.89365 7
v -38.4424 -6.8245 7
v -38.1041 -6.73837 7
v -37.7706 -6.63549 7
v -37.4426 -6.51612 7
v -37.121 -6.38054 7
v -36.8065 -6.2291 7
v -36.5 -6.06218 7
v -36.2022 -5.88018 7
v -35.9138 -5.68357 7
v -35.6356 -5.47282 7
v -35.3682 -5.24847 7
v -35.1123 -5.01107 7
v -34.8686 -4.76121 7
v -34.6377 -4.49951 7
v -34.4201 -4.22663 7
v -34.2163 -3.94324 7
v -34.027 -3.65005 7
v -33.8524 -3.34778 7
v -33.6932 -3.03719 7
v -33.5497 -2.71904 7
v -33.4222 -2.39414 7
v -33.311 -2.06329 7
v -33.2165 -1.7273 7
v -33.1388 -1.38702 7
v -33.0782 -1.0433 7
v -33.0348 -0.696975 7
v -33.0087 -0.348921 7
v -36 -9.79717e-16 7
v -36.005 0.199384 7
v -36.0199 0.398271 7
v -36.0447 0.596169 7
v -36.0793 0.792585 7
v -36.1237 0.98703 7
v -36.1777 1.17902 7
v -36.2412 1.36808 7
v -36.3141 1.55374 7
v -36.3961 1.73553 7
v -36.4871 1.91302 7
v -36.5868 2.08574 7
v -36.695 2.25328 7
v -36.8115 2.41522 7
v -36.9358 2.57115 7
v -37.0678 2.72069 7
v -37.2071 2.86347 7
v -37.3533 2.99912 7
v -37.506 3.12733 7
v -37.665 3.24775 7
v -37.8298 3.3601 7
v -38 3.4641 7
v -38.1752 3.55949 7
v -38.3549 3.64602 7
v -38.5386 3.72349 7
v -38.7261 3.79171 7
v -38.9166 3.8505 7
v -39.1099 3.89971 7
v -39.3054 3.93923 7
v -39.5026 3.96896 7
v -39.7011 3.98882 7
v -39.9003 3.99876 7
v -40.0997 3.99876 7
v -40.2989 3.98882 7
v -40.4974 3.96896 7
v -40.6946 3.93923 7
v -40.8901 3.89971 7
v -41.0834 3.8505 7
v -41.2739 3.79171 7
v -41.4614 3.72349 7
v -41.6451 3.64602 7
v -41.8248 3.55949 7
v -42 3.4641 7
v -42.1702 3.3601 7
v -42.335 3.24775 7
v -42.494 3.12733 7
v -42.6467 2.99912 7
v -42.7929 2.86347 7
v -42.9322 2.72069 7
v -43.0642 2.57115 7
v -43.1885 2.41522 7
v -43.305 2.25328 7
v -43.4132 2.08574 7
v -43.5129 1.91302 7
v -43.6039 1.73553 7
v -43.6859 1.55374 7
v -43.7588 1.36808 7
v -43.8223 1.17902 7
v -43.8763 0.98703 7
v -43.9207 0.792585 7
v -43.9553 0.596169 7
v -43.9801 0.398271 7
v -43.995 0.199384 7
v -44 -1.3721e-14 7
v -43.995 -0.199384 7
v -43.9801 -0.398271 7
v -43.9553 -0.596169 7
v -43.9207 -0.792585 7
v -43.8763 -0.98703 7
v -43.8223 -1.17902 7
v -43.7588 -1.36808 7
v -43.6859 -1.55374 7
v -43.6039 -1.73553 7
v -43.5129 -1.91302 7
v -43.4132 -2.08574 7
v -43.305 -2.25328 7
v -43.1885 -2.41522 7
v -43.0642 -2.57115 7
v -42.9322 -2.72069 7
v -42.7929 -2.86347 7
v -42.6467 -2.99912 7
v -42.494 -3.12733 7
v -42.335 -3.24775 7
v -42.1702 -3.3601 7
v -42 -3.4641 7
v -41.8248 -3.55949 7
v -41.6451 -3.64602 7
v -41.4614 -3.72349 7
v -41.2739 -3.79171 7
v -41.0834 -3.8505 7
v -40.8901 -3.89971 7
v -40.6946 -3.93923 7
v -40.4974 -3.96896 7
v -40.2989 -3.98882 7
v -40.0997 -3.99876 7
v -39.9003 -3.99876 7
v -39.7011 -3.98882 7
v -39.5026 -3.96896 7
v -39.3054 -3.93923 7
v -39.1099 -3.89971 7
v -38.9166 -3.8505 7
v -38.7261 -3.79171 7
v -38.5386 -3.72349 7
v -38.3549 -3.64602 7
v -38.1752 -3.55949 7
v -38 -3.4641 7
v -37.8298 -3.3601 7
v -37.665 -3.24775 7
v -37.506 -3.12733 7
v -37.3533 -2.99912 7
v -37.2071 -2.86347 7
v -37.0678 -2.72069 7
v -36.9358 -2.57115 7
v -36.8115 -2.41522 7
v -36.695 -2.25328 7
v -36.5868 -2.08574 7
v -36.4871 -1.91302 7
v -36.3961 -1.73553 7
v -36.3141 -1.55374 7
v -36.2412 -1.36808 7
v -36.1777 -1.17902 7
v -36.1237 -0.98703 7
v -36.0793 -0.792585 7
v -36.0447 -0.596169 7
v -36.0199 -0.398271 7
v -36.005 -0.199384 7
v 47 -1.71451e-15 7
v 46.9913 0.348921 7
v 46.9652 0.696975 7
v 46.9218 1.0433 7
v 46.8612 1.38702 7
v 46.7835 1.7273 7
v 46.689 2.06329 7
v 46.5778 2.39414 7
v 46.4503 2.71904 7
v 46.3068 3.03719 7
v 46.1476 3.34778 7
v 45.973 3.65005 7
v 45.7837 3.94324 7
v 45.5799 4.22663 7
v 45.3623 4.49951 7
v 45.1314 4.76121 7
v 44.8877 5.01107 7
v 44.6318 5.24847 7
v 44.3644 5.47282 7
v 44.0862 5.68357 7
v 43.7978 5.88018 7
v 43.5 6.06218 7
v 43.1935 6.2291 7
v 42.879 6.38054 7
v 42.5574 6.51612 7
v 42.2294 6.63549 7
v 41.8959 6.73837 7
v 41.5576 6.8245 7
v 41.2155 6.89365 7
v 40.8704 6.94567 7
v 40.5231 6.98043 7
v 40.1745 6.99782 7
v 39.8255 6.99782 7
v 39.4769 6.98043 7
v 39.1296 6.94567 7
v 38.7845 6.89365 7
v 38.4424 6.8245 7
v 38.1041 6.73837 7
v 37.7706 6.63549 7
v 37.4426 6.51612 7
v 37.121 6.38054 7
v 36.8065 6.2291 7
v 36.5 6.06218 7
v 36.2022 5.88018 7
v 35.9138 5.68357 7
v 35.6356 5.47282 7
v 35.3682 5.24847 7
v 35.1123 5.01107 7
v 34.8686 4.76121 7
v 34.6377 4.49951 7
v 34.4201 4.22663 7
v 34.2163 3.94324 7
v 34.027 3.65005 7
v 33.8524 3.34778 7
v 33.6932 3.03719 7
v 33.5497 2.71904 7
v 33.4222 2.39414 7
v 33.311 2.06329 7
v 33.2165 1.7273 7
v 33.1388 1.38702 7
v 33.0782 1.0433 7
v 33.0348 0.696975 7
v 33.0087 0.348921 7
v 33 -2.40117e-14 7
v 33.0087 -0.348921 7
v 33.0348 -0.696975 7
v 33.0782 -1.0433 7
v 33.1388 -1.38702 7
v 33.2165 -1.7273 7
v 33.311 -2.06329 7
v 33.4222 -2.39414 7
v 33.5497 -2.71904 7
v 33.6932 -3.03719 7
v 33.8524 -3.34778 7
v 34.027 -3.65005 7
v 34.2163 -3.94324 7
v 34.4201 -4.22663 7
v 34.6377 -4.49951 7
v 34.8686 -4.76121 7
v 35.1123 -5.01107 7
v 35.3682 -5.24847 7
v 35.6356 -5.47282 7
v 35.9138 -5.68357 7
v 36.2022 -5.88018 7
v 36.5 -6.06218 7
v 36.8065 -6.2291 7
v 37.121 -6.38054 7
v 37.4426 -6.51612 7
v 37.7706 -6.63549 7
v 38.1041 -6.73837 7
v 38.4424 -6.8245 7
v 38.7845 -6.89365 7
v 39.1296 -6.94567 7
v 39.4769 -6.98043 7
v 39.8255 -6.99782 7
v 40.1745 -6.99782 7
v 40.5231 -6.98043 7
v 40.8704 -6.94567 7
v 41.2155 -6.89365 7
v 41.5576 -6.8245 7
v 41.8959 -6.73837 7
v 42.2294 -6.63549 7
v 42.5574 -6.51612 7
v 42.879 -6.38054 7
v 43.1935 -6.2291 7
v 43.5 -6.06218 7
v 43.7978 -5.88018 7
v 44.0862 -5.68357 7
v 44.3644 -5.47282 7
v 44.6318 -5.24847 7
v 44.8877 -5.01107 7
v 45.1314 -4.76121 7
v 45.3623 -4.49951 7
v 45.5799 -4.22663 7
v 45.7837 -3.94324 7
v 45.973 -3.65005 7
v 46.1476 -3.34778 7
v 46.3068 -3.03719 7
v 46.4503 -2.71904 7
v 46.5778 -2.39414 7
v 46.689 -2.06329 7
v 46.7835 -1.7273 7
v 46.8612 -1.38702 7
v 46.9218 -1.0433 7
v 46.9652 -0.696975 7
v 46.9913 -0.348921 7
v 44 -9.79717e-16 7
v 43.995 0.199384 7
v 43.9801 0.398271 7
v 43.9553 0.596169 7
v 43.9207 0.792585 7
v 43.8763 0.98703 7
v 43.8223 1.17902 7
v 43.7588 1.36808 7
v 43.6859 1.55374 7
v 43.6039 1.73553 7
v 43.5129 1.91302 7
v 43.4132 2.08574 7
v 43.305 2.25328 7
v 43.1885 2.41522 7
v 43.0642 2.57115 7
v 42.9322 2.72069 7
v 42.7929 2.86347 7
v 42.6467 2.99912 7
v 42.494 3.12733 7
v 42.335 3.24775 7
v 42.1702 3.3601 7
v 42 3.4641 7
v 41.8248 3.55949 7
v 41.6451 3.64602 7
v 41.4614 3.72349 7
v 41.2739 3.79171 7
v 41.0834 3.8505 7
v 40.8901 3.89971 7
v 40.6946 3.93923 7
v 40.4974 3.96896 7
v 40.2989 3.98882 7
v 40.0997 3.99876 7
v 39.9003 3.99876 7
v 39.7011 3.98882 7
v 39.5026 3.96896 7
v 39.3054 3.93923 7
v 39.1099 3.89971 7
v 38.9166 3.8505 7
v 38.7261 3.79171 7
v 38.5386 3.72349 7
v 38.3549 3.64602 7
v 38.1752 3.55949 7
v 38 3.4641 7
v 37.8298 3.3601 7
v 37.665 3.24775 7
v 37.506 3.12733 7
v 37.3533 2.99912 7
v 37.2071 2.86347 7
v 37.0678 2.72069 7
v 36.9358 2.57115 7
v 36.8115 2.41522 7
v 36.695 2.25328 7
v 36.5868 2.08574 7
v 36.4871 1.91302 7
v 36.3961 1.73553 7
v 36.3141 1.55374 7
v 36.2412 1.36808 7
v 36.1777 1.17902 7
v 36.1237 0.98703 7
v 36.0793 0.792585 7
v 36.0447 0.596169 7
v 36.0199 0.398271 7
v 36.005 0.199384 7
v 36 -1.3721e-14 7
v 36.005 -0.199384 7
v 36.0199 -0.398271 7
v 36.0447 -0.596169 7
v 36.0793 -0.792585 7
v 36.1237 -0.98703 7
v 36.1777 -1.17902 7
v 36.2412 -1.36808 7
v 36.3141 -1.55374 7
v 36.3961 -1.73553 7
v 36.4871 -1.91302 7
v 36.5868 -2.08574 7
v 36.695 -2.25328 7
v 36.8115 -2.41522 7
v 36.9358 -2.57115 7
v 37.0678 -2.72069 7
v 37.2071 -2.86347 7
v 37.3533 -2.99912 7
v 37.506 -3.12733 7
v 37.665 -3.24775 7
v 37.8298 -3.3601 7
v 38 -3.4641 7
v 38.1752 -3.55949 7
v 38.3549 -3.64602 7
v 38.5386 -3.72349 7
v 38.7261 -3.79171 7
v 38.9166 -3.8505 7
v 39.1099 -3.89971 7
v 39.3054 -3.93923 7
v 39.5026 -3.96896 7
v 39.7011 -3.98882 7
v 39.9003 -3.99876 7
v 40.0997 -3.99876 7
v 40.2989 -3.98882 7
v 40.4974 -3.96896 7
v 40.6946 -3.93923 7
v 40.8901 -3.89971 7
v 41.0834 -3.8505 7
v 41.2739 -3.79171 7
v 41.4614 -3.72349 7
v 41.6451 -3.64602 7
v 41.8248 -3.55949 7
v 42 -3.4641 7
v 42.1702 -3.3601 7
v 42.335 -3.24775 7
v 42.494 -3.12733 7
v 42.6467 -2.99912 7
v 42.7929 -2.86347 7
v 42.9322 -2.72069 7
v 43.0642 -2.57115 7
v 43.1885 -2.41522 7
v 43.305 -2.25328 7
v 43.4132 -2.08574 7
v 43.5129 -1.91302 7
v 43.6039 -1.73553 7
v 43.6859 -1.55374 7
v 43.7588 -1.36808 7
v 43.8223 -1.17902 7
v 43.8763 -0.98703 7
v 43.9207 -0.792585 7
v 43.9553 -0.596169 7
v 43.9801 -0.398271 7
v 43.995 -0.199384 7
f 1 4 3
f 2 4 1
f 9 8 7
f 91 9 92
f 93 92 9
f 90 9 91
f 94 93 9
f 89 9 90
f 95 94 9
f 88 9 89
f 96 95 9
f 87 9 88
f 97 96 9
f 86 9 87
f 98 97 9
f 85 9 86
f 99 98 9
f 84 9 85
f 100 99 9
f 83 9 84
f 101 100 9
f 82 9 83
f 102 101 9
f 81 9 82
f 103 102 9
f 80 9 81
f 104 103 9
f 79 9 80
f 105 104 9
f 78 9 79
f 106 105 9
f 77 9 78
f 107 9 7
f 107 106 9
f 76 9 77
f 10 71 70
f 10 72 71
f 10 73 72
f 10 74 73
f 10 75 74
f 10 76 75
f 10 9 76
f 69 10 70
f 68 10 69
f 67 10 68
f 66 10 67
f 65 10 66
f 64 10 65
f 63 10 64
f 62 10 63
f 61 10 62
f 60 10 61
f 59 10 60
f 58 10 59
f 57 10 58
f 56 10 57
f 55 10 56
f 54 10 55
f 53 10 54
f 52 10 53
f 51 10 52
f 50 10 51
f 12 109 108
f 12 110 109
f 12 111 110
f 12 112 111
f 12 113 112
f 12 114 113
f 12 115 114
f 12 116 115
f 12 117 116
f 12 118 117
f 12 119 118
f 12 120 119
f 12 121 120
f 12 122 121
f 12 123 122
f 12 124 123
f 12 125 124
f 12 126 125
f 12 127 126
f 12 128 127
f 12 129 128
f 12 130 129
f 12 131 130
f 12 132 131
f 12 133 132
f 134 133 12
f 49 10 50
f 135 134 12
f 48 10 49
f 136 135 12
f 47 10 48
f 137 136 12
f 46 10 47
f 138 137 12
f 45 10 46
f 13 138 12
f 44 10 45
f 5 108 107
f 5 12 108
f 5 107 7
f 6 12 5
f 11 14 13
f 11 15 14
f 11 16 15
f 11 17 16
f 11 18 17
f 11 19 18
f 11 20 19
f 11 21 20
f 11 22 21
f 11 23 22
f 11 24 23
f 11 10 44
f 11 25 24
f 11 26 25
f 11 27 26
f 11 28 27
f 11 29 28
f 11 30 29
f 11 31 30
f 11 32 31
f 11 33 32
f 11 34 33
f 11 13 12
f 11 35 34
f 11 36 35
f 11 37 36
f 11 38 37
f 11 39 38
f 11 40 39
f 11 41 40
f 11 42 41
f 11 43 42
f 11 44 43
f 221 141 222
f 223 222 141
f 220 141 221
f 224 223 141
f 219 141 220
f 225 224 141
f 218 141 219
f 226 225 141
f 217 141 218
f 227 226 141
f 216 141 217
f 228 227 141
f 215 141 216
f 229 228 141
f 214 141 215
f 230 229 141
f 213 141 214
f 231 230 141
f 212 141 213
f 232 231 141
f 211 141 212
f 233 232 141
f 210 141 211
f 234 233 141
f 209 141 210
f 235 234 141
f 208 141 209
f 236 235 141
f 207 141 208
f 237 236 141
f 238 237 141
f 239 238 141
f 240 239 141
f 142 241 240
f 142 242 241
f 142 240 141
f 243 242 142
f 244 243 142
f 245 244 142
f 246 245 142
f 247 246 142
f 248 247 142
f 249 248 142
f 250 249 142
f 251 250 142
f 252 251 142
f 253 252 142
f 254 253 142
f 255 254 142
f 256 255 142
f 257 256 142
f 258 257 142
f 259 258 142
f 260 259 142
f 261 260 142
f 262 261 142
f 263 262 142
f 264 263 142
f 265 264 142
f 266 265 142
f 267 266 142
f 268 267 142
f 143 268 142
f 139 173 172
f 139 174 173
f 139 175 174
f 139 176 175
f 139 177 176
f 139 178 177
f 139 179 178
f 139 180 179
f 139 181 180
f 139 182 181
f 139 183 182
f 139 184 183
f 139 185 184
f 139 186 185
f 139 187 186
f 139 188 187
f 139 189 188
f 139 190 189
f 139 191 190
f 139 192 191
f 139 193 192
f 139 194 193
f 139 195 194
f 139 196 195
f 139 197 196
f 139 198 197
f 139 199 198
f 139 200 199
f 139 201 200
f 139 202 201
f 139 203 202
f 139 204 203
f 139 205 204
f 140 144 143
f 140 145 144
f 140 146 145
f 140 147 146
f 140 148 147
f 140 149 148
f 140 150 149
f 140 151 150
f 140 152 151
f 140 153 152
f 140 154 153
f 140 155 154
f 140 156 155
f 140 157 156
f 140 158 157
f 140 159 158
f 140 160 159
f 140 161 160
f 140 162 161
f 140 163 162
f 140 164 163
f 140 165 164
f 140 166 165
f 140 167 166
f 140 168 167
f 140 169 168
f 140 170 169
f 140 171 170
f 140 172 171
f 140 139 172
f 140 143 142
f 139 141 206
f 206 141 207
f 139 206 205
f 273 271 272
f 355 356 273
f 357 273 356
f 354 355 273
f 358 273 357
f 353 354 273
f 359 273 358
f 352 353 273
f 360 273 359
f 351 352 273
f 361 273 360
f 350 351 273
f 362 273 361
f 349 350 273
f 363 273 362
f 348 349 273
f 364 273 363
f 347 348 273
f 365 273 364
f 346 347 273
f 366 273 365
f 345 346 273
f 367 273 366
f 344 345 273
f 368 273 367
f 343 344 273
f 369 273 368
f 342 343 273
f 370 273 369
f 341 342 273
f 371 273 370
f 371 271 273
f 340 341 273
f 274 334 335
f 274 335 336
f 274 336 337
f 274 337 338
f 274 338 339
f 274 339 340
f 274 340 273
f 333 334 274
f 332 333 274
f 331 332 274
f 330 331 274
f 329 330 274
f 328 329 274
f 327 328 274
f 326 327 274
f 325 326 274
f 324 325 274
f 323 324 274
f 322 323 274
f 321 322 274
f 320 321 274
f 319 320 274
f 318 319 274
f 317 318 274
f 316 317 274
f 315 316 274
f 314 315 274
f 276 372 373
f 276 373 374
f 276 374 375
f 276 375 376
f 276 376 377
f 276 377 378
f 276 378 379
f 276 379 380
f 276 380 381
f 276 381 382
f 276 382 383
f 276 383 384
f 276 384 385
f 276 385 386
f 276 386 387
f 276 387 388
f 276 388 389
f 276 389 390
f 276 390 391
f 276 391 392
f 276 392 393
f 276 393 394
f 276 394 395
f 276 395 396
f 276 396 397
f 398 276 397
f 313 314 274
f 399 276 398
f 312 313 274
f 400 276 399
f 311 312 274
f 401 276 400
f 310 311 274
f 402 276 401
f 309 310 274
f 277 276 402
f 269 371 372
f 269 372 276
f 269 271 371
f 270 269 276
f 275 277 278
f 275 278 279
f 275 279 280
f 275 280 281
f 275 281 282
f 275 282 283
f 275 283 284
f 275 284 285
f 275 285 286
f 275 286 287
f 275 276 277
f 275 287 288
f 275 288 289
f 275 289 290
f 275 290 291
f 275 309 274
f 275 291 292
f 275 292 293
f 275 293 294
f 275 294 295
f 275 295 296
f 275 296 297
f 275 297 298
f 275 298 299
f 275 299 300
f 275 300 301
f 275 301 302
f 275 302 303
f 275 303 304
f 275 304 305
f 275 305 306
f 275 306 307
f 275 307 308
f 275 308 309
f 485 486 403
f 487 403 486
f 484 485 403
f 488 403 487
f 483 484 403
f 489 403 488
f 482 483 403
f 490 403 489
f 481 482 403
f 491 403 490
f 480 481 403
f 492 403 491
f 479 480 403
f 493 403 492
f 478 479 403
f 494 403 493
f 477 478 403
f 495 403 494
f 476 477 403
f 496 403 495
f 475 476 403
f 497 403 496
f 474 475 403
f 498 403 497
f 473 474 403
f 499 403 498
f 472 473 403
f 500 403 499
f 471 472 403
f 501 403 500
f 470 471 403
f 502 403 501
f 503 403 502
f 504 403 503
f 505 403 504
f 506 403 505
f 507 403 506
f 508 403 507
f 509 403 508
f 510 403 509
f 511 403 510
f 512 403 511
f 513 403 512
f 514 403 513
f 515 403 514
f 516 403 515
f 404 424 425
f 404 470 403
f 404 425 426
f 404 426 427
f 404 427 428
f 404 428 429
f 404 429 430
f 404 430 431
f 404 431 432
f 404 432 433
f 404 433 434
f 404 434 435
f 404 435 436
f 404 436 437
f 404 437 438
f 404 438 439
f 404 439 440
f 404 440 441
f 404 441 442
f 404 442 443
f 404 443 444
f 404 444 445
f 404 445 446
f 404 446 447
f 404 447 448
f 404 448 449
f 404 449 450
f 404 450 451
f 404 451 452
f 404 452 453
f 404 453 454
f 404 454 455
f 404 455 456
f 404 456 457
f 404 457 458
f 404 458 459
f 404 459 460
f 404 460 461
f 404 461 462
f 404 462 463
f 404 463 464
f 404 464 465
f 404 465 466
f 404 466 467
f 404 467 468
f 404 468 469
f 404 469 470
f 612 516 517
f 611 517 518
f 611 612 517
f 613 405 403
f 613 403 516
f 613 516 612
f 610 518 519
f 610 611 518
f 614 405 613
f 609 519 520
f 609 610 519
f 615 405 614
f 608 520 521
f 608 521 522
f 608 609 520
f 616 405 615
f 607 608 522
f 617 405 616
f 606 522 523
f 606 607 522
f 618 405 617
f 605 606 523
f 605 523 524
f 619 405 618
f 604 524 525
f 604 605 524
f 620 405 619
f 603 525 526
f 603 604 525
f 621 405 620
f 602 526 527
f 602 527 528
f 602 603 526
f 622 405 621
f 601 602 528
f 623 405 622
f 600 528 529
f 600 601 528
f 624 405 623
f 599 529 530
f 599 530 531
f 599 600 529
f 625 405 624
f 598 599 531
f 626 405 625
f 597 531 532
f 597 598 531
f 627 405 626
f 596 532 407
f 596 597 532
f 628 405 627
f 595 407 408
f 595 408 409
f 595 596 407
f 629 405 628
f 594 595 409
f 630 405 629
f 593 409 410
f 593 594 409
f 631 405 630
f 592 410 411
f 592 593 410
f 632 405 631
f 591 411 412
f 591 592 411
f 633 405 632
f 590 412 413
f 590 591 412
f 634 405 633
f 589 413 414
f 589 590 413
f 635 405 634
f 588 589 414
f 588 414 415
f 636 405 635
f 587 415 416
f 587 416 417
f 587 588 415
f 637 405 636
f 586 417 418
f 586 587 417
f 638 405 637
f 585 586 418
f 639 405 638
f 584 418 419
f 584 585 418
f 640 405 639
f 583 419 420
f 583 584 419
f 641 405 640
f 582 420 421
f 582 583 420
f 642 405 641
f 581 421 422
f 581 582 421
f 643 405 642
f 580 422 423
f 580 581 422
f 644 405 643
f 579 423 424
f 579 580 423
f 579 424 404
f 645 405 644
f 646 405 645
f 647 405 646
f 648 405 647
f 649 405 648
f 650 405 649
f 651 405 650
f 652 405 651
f 653 405 652
f 654 405 653
f 655 405 654
f 656 405 655
f 657 405 656
f 658 405 657
f 533 405 658
f 406 533 534
f 406 534 535
f 406 535 536
f 406 536 537
f 406 537 538
f 406 538 539
f 406 539 540
f 406 540 541
f 406 541 542
f 406 542 543
f 406 543 544
f 406 544 545
f 406 545 546
f 406 546 547
f 406 547 548
f 406 579 404
f 406 548 549
f 406 549 550
f 406 550 551
f 406 551 552
f 406 552 553
f 406 553 554
f 406 554 555
f 406 555 556
f 406 556 557
f 406 557 558
f 406 558 559
f 406 559 560
f 406 560 561
f 406 561 562
f 406 562 563
f 406 563 564
f 406 564 565
f 406 565 566
f 406 566 567
f 406 567 568
f 406 568 569
f 406 569 570
f 406 570 571
f 406 571 572
f 406 572 573
f 406 573 574
f 406 574 575
f 406 575 576
f 406 576 577
f 406 577 578
f 406 578 579
f 406 405 533
f 659 661 662
f 660 659 662
f 745 665 746
f 747 746 665
f 744 665 745
f 748 747 665
f 743 665 744
f 749 748 665
f 742 665 743
f 750 749 665
f 741 665 742
f 751 750 665
f 740 665 741
f 752 751 665
f 739 665 740
f 753 752 665
f 738 665 739
f 754 753 665
f 737 665 738
f 755 754 665
f 736 665 737
f 756 755 665
f 735 665 736
f 757 756 665
f 734 665 735
f 758 757 665
f 733 665 734
f 759 665 666
f 759 758 665
f 732 665 733
f 760 759 666
f 731 665 732
f 761 760 666
f 730 665 731
f 762 761 666
f 763 762 666
f 764 763 666
f 765 764 666
f 766 765 666
f 767 766 666
f 768 767 666
f 769 768 666
f 770 769 666
f 771 770 666
f 772 771 666
f 773 772 666
f 774 773 666
f 775 774 666
f 776 775 666
f 777 776 666
f 778 777 666
f 779 778 666
f 780 779 666
f 781 780 666
f 782 781 666
f 783 782 666
f 784 783 666
f 785 784 666
f 786 785 666
f 787 786 666
f 663 705 704
f 663 706 705
f 663 707 706
f 663 708 707
f 663 709 708
f 663 710 709
f 663 711 710
f 663 712 711
f 663 713 712
f 663 714 713
f 663 715 714
f 663 716 715
f 663 717 716
f 663 718 717
f 663 719 718
f 663 720 719
f 663 721 720
f 663 722 721
f 663 723 722
f 663 724 723
f 663 725 724
f 663 726 725
f 663 727 726
f 663 728 727
f 663 729 728
f 663 730 729
f 663 665 730
f 788 787 666
f 703 663 704
f 789 788 666
f 702 663 703
f 790 789 666
f 701 663 702
f 791 790 666
f 792 791 666
f 664 669 668
f 664 670 669
f 664 671 670
f 664 672 671
f 664 673 672
f 664 674 673
f 664 675 674
f 664 676 675
f 664 677 676
f 664 678 677
f 664 679 678
f 664 663 701
f 664 680 679
f 664 681 680
f 664 682 681
f 664 683 682
f 664 684 683
f 664 685 684
f 664 686 685
f 664 687 686
f 664 688 687
f 664 689 688
f 664 690 689
f 664 691 690
f 664 692 691
f 664 693 692
f 664 694 693
f 664 695 694
f 664 696 695
f 664 697 696
f 664 698 697
f 664 699 698
f 664 700 699
f 664 701 700
f 666 664 667
f 667 664 668
f 666 667 792
f 793 795 796
f 794 793 796
f 799 798 797
f 800 798 799
f 801 804 803
f 802 804 801
f 805 933 932
f 806 933 805
f 807 934 933
f 807 935 934
f 807 933 806
f 808 935 807
f 809 936 935
f 809 937 936
f 809 935 808
f 810 937 809
f 811 938 937
f 811 937 810
f 812 939 938
f 812 940 939
f 812 938 811
f 813 940 812
f 814 941 940
f 814 942 941
f 814 940 813
f 815 942 814
f 816 942 815
f 816 943 942
f 816 944 943
f 817 944 816
f 818 944 817
f 818 945 944
f 819 945 818
f 819 946 945
f 819 947 946
f 820 947 819
f 820 948 947
f 821 948 820
f 822 948 821
f 822 949 948
f 823 949 822
f 823 950 949
f 824 950 823
f 824 951 950
f 825 951 824
f 825 952 951
f 826 952 825
f 826 953 952
f 827 953 826
f 827 954 953
f 828 955 954
f 828 954 827
f 829 956 955
f 829 955 828
f 830 957 956
f 830 956 829
f 831 958 957
f 831 959 958
f 831 957 830
f 832 959 831
f 833 960 959
f 833 961 960
f 833 959 832
f 834 961 833
f 835 962 961
f 835 963 962
f 835 961 834
f 836 964 963
f 836 963 835
f 837 964 836
f 838 965 964
f 838 964 837
f 839 966 965
f 839 965 838
f 840 967 966
f 840 966 839
f 841 968 967
f 841 967 840
f 842 968 841
f 842 969 968
f 842 970 969
f 843 970 842
f 843 971 970
f 844 971 843
f 845 971 844
f 845 972 971
f 846 972 845
f 846 973 972
f 847 973 846
f 847 974 973
f 848 974 847
f 848 975 974
f 849 975 848
f 849 976 975
f 850 976 849
f 850 977 976
f 850 978 977
f 851 978 850
f 852 978 851
f 852 979 978
f 853 979 852
f 853 980 979
f 854 980 853
f 854 981 980
f 855 981 854
f 855 982 981
f 855 983 982
f 856 983 855
f 857 983 856
f 857 984 983
f 857 985 984
f 858 985 857
f 859 985 858
f 859 986 985
f 860 986 859
f 860 987 986
f 861 987 860
f 861 988 987
f 862 988 861
f 862 989 988
f 862 990 989
f 863 990 862
f 864 991 990
f 864 990 863
f 865 992 991
f 865 993 992
f 865 991 864
f 866 994 993
f 866 993 865
f 867 994 866
f 867 995 994
f 868 995 867
f 868 996 995
f 869 996 868
f 870 996 869
f 870 997 996
f 870 998 997
f 871 998 870
f 871 999 998
f 872 999 871
f 873 999 872
f 873 1000 999
f 874 1000 873
f 874 1001 1000
f 874 1002 1001
f 875 1002 874
f 876 1002 875
f 876 1003 1002
f 877 1003 876
f 877 1004 1003
f 878 1004 877
f 878 1005 1004
f 879 1005 878
f 879 1006 1005
f 880 1007 1006
f 880 1006 879
f 881 1008 1007
f 881 1007 880
f 882 1009 1008
f 882 1008 881
f 883 1010 1009
f 883 1009 882
f 884 1011 1010
f 884 1010 883
f 885 1012 1011
f 885 1011 884
f 886 1013 1012
f 886 1012 885
f 887 1014 1013
f 887 1013 886
f 888 1015 1014
f 888 1016 1015
f 888 1014 887
f 889 1016 888
f 890 1017 1016
f 890 1016 889
f 891 1018 1017
f 891 1019 1018
f 891 1017 890
f 892 1019 891
f 893 1019 892
f 893 1020 1019
f 894 1020 893
f 894 1021 1020
f 895 1021 894
f 895 1022 1021
f 895 1023 1022
f 896 1023 895
f 896 1024 1023
f 897 1024 896
f 898 1025 1024
f 898 1026 1025
f 898 1024 897
f 899 1026 898
f 900 1027 1026
f 900 1026 899
f 901 1028 1027
f 901 1027 900
f 902 1029 1028
f 902 1028 901
f 903 1030 1029
f 903 1029 902
f 904 1031 1030
f 904 1030 903
f 905 1032 1031
f 905 1031 904
f 906 1033 1032
f 906 1032 905
f 907 1034 1033
f 907 1035 1034
f 907 1033 906
f 908 1036 1035
f 908 1035 907
f 909 1037 1036
f 909 1036 908
f 910 1037 909
f 911 1038 1037
f 911 1037 910
f 912 1039 1038
f 912 1038 911
f 913 1040 1039
f 913 1039 912
f 914 1041 1040
f 914 1040 913
f 915 1042 1041
f 915 1041 914
f 916 1043 1042
f 916 1044 1043
f 916 1042 915
f 917 1044 916
f 918 1044 917
f 918 1045 1044
f 918 1046 1045
f 919 1046 918
f 920 1046 919
f 920 1047 1046
f 921 1047 920
f 921 1048 1047
f 921 1049 1048
f 922 1049 921
f 923 1049 922
f 923 1050 1049
f 924 1050 923
f 924 1051 1050
f 924 1052 1051
f 925 1052 924
f 926 1052 925
f 926 1053 1052
f 927 1053 926
f 927 1054 1053
f 928 1054 927
f 928 1055 1054
f 929 1055 928
f 929 1056 1055
f 930 1057 1056
f 930 1056 929
f 931 1058 1057
f 931 1057 930
f 1060 1186 1059
f 1060 1187 1186
f 1061 1188 1187
f 1061 1189 1188
f 1061 1187 1060
f 1062 1189 1061
f 1063 1190 1189
f 1063 1191 1190
f 1063 1189 1062
f 1064 1191 1063
f 1065 1192 1191
f 1065 1191 1064
f 1066 1193 1192
f 1066 1194 1193
f 1066 1192 1065
f 1067 1194 1066
f 1068 1195 1194
f 1068 1196 1195
f 1068 1194 1067
f 1069 1196 1068
f 1070 1196 1069
f 1070 1197 1196
f 1070 1198 1197
f 1071 1198 1070
f 1072 1198 1071
f 1072 1199 1198
f 1073 1199 1072
f 1073 1200 1199
f 1073 1201 1200
f 1074 1201 1073
f 1074 1202 1201
f 1075 1202 1074
f 1076 1202 1075
f 1076 1203 1202
f 1077 1203 1076
f 1077 1204 1203
f 1078 1204 1077
f 1078 1205 1204
f 1079 1205 1078
f 1079 1206 1205
f 1080 1206 1079
f 1080 1207 1206
f 1081 1207 1080
f 1081 1208 1207
f 1082 1209 1208
f 1082 1208 1081
f 1083 1210 1209
f 1083 1209 1082
f 1084 1211 1210
f 1084 1210 1083
f 1085 1212 1211
f 1085 1213 1212
f 1085 1211 1084
f 1086 1213 1085
f 1087 1214 1213
f 1087 1215 1214
f 1087 1213 1086
f 1088 1215 1087
f 1089 1216 1215
f 1089 1215 1088
f 1090 1217 1216
f 1090 1218 1217
f 1090 1216 1089
f 1091 1218 1090
f 1092 1219 1218
f 1092 1218 1091
f 1093 1220 1219
f 1093 1219 1092
f 1094 1221 1220
f 1094 1220 1093
f 1095 1222 1221
f 1095 1221 1094
f 1096 1222 1095
f 1096 1223 1222
f 1097 1223 1096
f 1097 1224 1223
f 1097 1225 1224
f 1098 1225 1097
f 1099 1225 1098
f 1099 1226 1225
f 1100 1226 1099
f 1100 1227 1226
f 1101 1227 1100
f 1101 1228 1227
f 1102 1228 1101
f 1102 1229 1228
f 1103 1229 1102
f 1103 1230 1229
f 1104 1230 1103
f 1104 1231 1230
f 1104 1232 1231
f 1105 1232 1104
f 1106 1232 1105
f 1106 1233 1232
f 1107 1233 1106
f 1107 1234 1233
f 1108 1234 1107
f 1108 1235 1234
f 1109 1235 1108
f 1109 1236 1235
f 1109 1237 1236
f 1110 1237 1109
f 1111 1237 1110
f 1111 1238 1237
f 1111 1239 1238
f 1112 1239 1111
f 1113 1239 1112
f 1113 1240 1239
f 1114 1240 1113
f 1114 1241 1240
f 1115 1241 1114
f 1115 1242 1241
f 1116 1242 1115
f 1116 1243 1242
f 1116 1244 1243
f 1117 1244 1116
f 1118 1245 1244
f 1118 1244 1117
f 1119 1246 1245
f 1119 1247 1246
f 1119 1245 1118
f 1120 1248 1247
f 1120 1247 1119
f 1121 1248 1120
f 1121 1249 1248
f 1122 1249 1121
f 1122 1250 1249
f 1123 1250 1122
f 1124 1250 1123
f 1124 1251 1250
f 1124 1252 1251
f 1125 1252 1124
f 1125 1253 1252
f 1126 1253 1125
f 1127 1253 1126
f 1127 1254 1253
f 1128 1254 1127
f 1128 1255 1254
f 1128 1256 1255
f 1129 1256 1128
f 1130 1256 1129
f 1130 1257 1256
f 1131 1257 1130
f 1131 1258 1257
f 1132 1258 1131
f 1132 1259 1258
f 1133 1259 1132
f 1133 1260 1259
f 1134 1261 1260
f 1134 1260 1133
f 1135 1262 1261
f 1135 1261 1134
f 1136 1263 1262
f 1136 1262 1135
f 1137 1264 1263
f 1137 1263 1136
f 1138 1265 1264
f 1138 1264 1137
f 1139 1266 1265
f 1139 1265 1138
f 1140 1267 1266
f 1140 1266 1139
f 1141 1268 1267
f 1141 1267 1140
f 1142 1269 1268
f 1142 1270 1269
f 1142 1268 1141
f 1143 1270 1142
f 1144 1271 1270
f 1144 1270 1143
f 1145 1272 1271
f 1145 1273 1272
f 1145 1271 1144
f 1146 1273 1145
f 1147 1273 1146
f 1147 1274 1273
f 1148 1274 1147
f 1148 1275 1274
f 1149 1275 1148
f 1149 1276 1275
f 1149 1277 1276
f 1150 1277 1149
f 1150 1278 1277
f 1151 1278 1150
f 1152 1279 1278
f 1152 1280 1279
f 1152 1278 1151
f 1153 1280 1152
f 1154 1281 1280
f 1154 1280 1153
f 1155 1282 1281
f 1155 1281 1154
f 1156 1283 1282
f 1156 1282 1155
f 1157 1284 1283
f 1157 1283 1156
f 1158 1285 1284
f 1158 1284 1157
f 1159 1286 1285
f 1159 1285 1158
f 1160 1287 1286
f 1160 1286 1159
f 1161 1288 1287
f 1161 1289 1288
f 1161 1287 1160
f 1162 1290 1289
f 1162 1289 1161
f 1163 1291 1290
f 1163 1290 1162
f 1164 1291 1163
f 1165 1292 1291
f 1165 1291 1164
f 1166 1293 1292
f 1166 1292 1165
f 1167 1294 1293
f 1167 1293 1166
f 1168 1295 1294
f 1168 1294 1167
f 1169 1296 1295
f 1169 1295 1168
f 1170 1297 1296
f 1170 1298 1297
f 1170 1296 1169
f 1171 1298 1170
f 1172 1298 1171
f 1172 1299 1298
f 1172 1300 1299
f 1173 1300 1172
f 1174 1300 1173
f 1174 1301 1300
f 1175 1301 1174
f 1175 1302 1301
f 1175 1303 1302
f 1176 1303 1175
f 1177 1303 1176
f 1177 1304 1303
f 1178 1304 1177
f 1178 1305 1304
f 1178 1306 1305
f 1179 1306 1178
f 1180 1306 1179
f 1180 1307 1306
f 1181 1307 1180
f 1181 1308 1307
f 1182 1308 1181
f 1182 1309 1308
f 1183 1309 1182
f 1183 1310 1309
f 1184 1311 1310
f 1184 1310 1183
f 1185 1312 1311
f 1185 1311 1184
f 1314 1440 1313
f 1314 1441 1440
f 1314 1442 1441
f 1315 1443 1442
f 1315 1442 1314
f 1316 1444 1443
f 1316 1443 1315
f 1317 1444 1316
f 1318 1445 1444
f 1318 1446 1445
f 1318 1444 1317
f 1319 1447 1446
f 1319 1446 1318
f 1320 1447 1319
f 1321 1448 1447
f 1321 1447 1320
f 1322 1449 1448
f 1322 1450 1449
f 1322 1448 1321
f 1323 1450 1322
f 1324 1450 1323
f 1324 1451 1450
f 1325 1451 1324
f 1325 1452 1451
f 1326 1452 1325
f 1326 1453 1452
f 1326 1454 1453
f 1327 1454 1326
f 1328 1454 1327
f 1328 1455 1454
f 1329 1455 1328
f 1329 1456 1455
f 1329 1457 1456
f 1330 1457 1329
f 1331 1457 1330
f 1331 1458 1457
f 1332 1458 1331
f 1332 1459 1458
f 1333 1459 1332
f 1333 1460 1459
f 1334 1460 1333
f 1334 1461 1460
f 1335 1461 1334
f 1335 1462 1461
f 1336 1463 1462
f 1336 1462 1335
f 1336 1464 1463
f 1337 1465 1464
f 1337 1464 1336
f 1338 1465 1337
f 1339 1466 1465
f 1339 1465 1338
f 1340 1467 1466
f 1340 1466 1339
f 1341 1468 1467
f 1341 1467 1340
f 1342 1469 1468
f 1342 1470 1469
f 1342 1468 1341
f 1343 1470 1342
f 1344 1471 1470
f 1344 1470 1343
f 1345 1472 1471
f 1345 1473 1472
f 1345 1471 1344
f 1346 1474 1473
f 1346 1473 1345
f 1347 1475 1474
f 1347 1474 1346
f 1348 1476 1475
f 1348 1475 1347
f 1349 1476 1348
f 1350 1476 1349
f 1350 1477 1476
f 1350 1478 1477
f 1351 1478 1350
f 1352 1478 1351
f 1352 1479 1478
f 1353 1479 1352
f 1353 1480 1479
f 1354 1480 1353
f 1354 1481 1480
f 1355 1481 1354
f 1355 1482 1481
f 1356 1482 1355
f 1356 1483 1482
f 1356 1484 1483
f 1357 1484 1356
f 1358 1484 1357
f 1358 1485 1484
f 1359 1485 1358
f 1359 1486 1485
f 1360 1486 1359
f 1360 1487 1486
f 1360 1488 1487
f 1361 1488 1360
f 1361 1489 1488
f 1362 1489 1361
f 1363 1489 1362
f 1363 1490 1489
f 1364 1490 1363
f 1364 1491 1490
f 1365 1491 1364
f 1365 1492 1491
f 1366 1492 1365
f 1366 1493 1492
f 1367 1493 1366
f 1367 1494 1493
f 1368 1494 1367
f 1368 1495 1494
f 1369 1495 1368
f 1369 1496 1495
f 1370 1496 1369
f 1370 1497 1496
f 1371 1498 1497
f 1371 1497 1370
f 1372 1499 1498
f 1372 1498 1371
f 1373 1500 1499
f 1373 1501 1500
f 1373 1499 1372
f 1374 1501 1373
f 1375 1501 1374
f 1375 1502 1501
f 1376 1502 1375
f 1376 1503 1502
f 1377 1503 1376
f 1377 1504 1503
f 1378 1504 1377
f 1378 1505 1504
f 1379 1505 1378
f 1379 1506 1505
f 1380 1506 1379
f 1380 1507 1506
f 1381 1507 1380
f 1381 1508 1507
f 1381 1509 1508
f 1382 1509 1381
f 1383 1509 1382
f 1383 1510 1509
f 1383 1511 1510
f 1384 1511 1383
f 1385 1511 1384
f 1385 1512 1511
f 1386 1512 1385
f 1386 1513 1512
f 1387 1515 1514
f 1387 1513 1386
f 1387 1514 1513
f 1388 1515 1387
f 1389 1516 1515
f 1389 1515 1388
f 1390 1517 1516
f 1390 1518 1517
f 1390 1516 1389
f 1391 1519 1518
f 1391 1518 1390
f 1392 1520 1519
f 1392 1519 1391
f 1393 1520 1392
f 1394 1521 1520
f 1394 1520 1393
f 1395 1522 1521
f 1395 1521 1394
f 1396 1523 1522
f 1396 1522 1395
f 1397 1524 1523
f 1397 1523 1396
f 1398 1525 1524
f 1398 1524 1397
f 1399 1526 1525
f 1399 1527 1526
f 1399 1525 1398
f 1400 1527 1399
f 1401 1527 1400
f 1401 1528 1527
f 1402 1528 1401
f 1402 1529 1528
f 1403 1529 1402
f 1403 1530 1529
f 1404 1530 1403
f 1404 1531 1530
f 1405 1532 1531
f 1405 1533 1532
f 1405 1531 1404
f 1406 1533 1405
f 1407 1534 1533
f 1407 1533 1406
f 1408 1535 1534
f 1408 1534 1407
f 1409 1536 1535
f 1409 1535 1408
f 1410 1537 1536
f 1410 1536 1409
f 1411 1538 1537
f 1411 1537 1410
f 1412 1539 1538
f 1412 1538 1411
f 1413 1540 1539
f 1413 1539 1412
f 1414 1541 1540
f 1414 1540 1413
f 1415 1542 1541
f 1415 1543 1542
f 1415 1541 1414
f 1416 1543 1415
f 1417 1544 1543
f 1417 1543 1416
f 1418 1545 1544
f 1418 1544 1417
f 1419 1546 1545
f 1419 1547 1546
f 1419 1545 1418
f 1420 1547 1419
f 1421 1548 1547
f 1421 1547 1420
f 1422 1549 1548
f 1422 1548 1421
f 1423 1550 1549
f 1423 1551 1550
f 1423 1549 1422
f 1424 1551 1423
f 1425 1551 1424
f 1425 1552 1551
f 1426 1552 1425
f 1426 1553 1552
f 1427 1553 1426
f 1427 1554 1553
f 1428 1554 1427
f 1428 1555 1554
f 1428 1556 1555
f 1429 1556 1428
f 1430 1556 1429
f 1430 1557 1556
f 1431 1557 1430
f 1431 1558 1557
f 1432 1558 1431
f 1432 1559 1558
f 1433 1559 1432
f 1433 1560 1559
f 1434 1560 1433
f 1434 1561 1560
f 1434 1562 1561
f 1435 1562 1434
f 1436 1562 1435
f 1436 1563 1562
f 1437 1564 1563
f 1437 1565 1564
f 1437 1563 1436
f 1438 1565 1437
f 1439 1566 1565
f 1439 1565 1438
f 1568 1694 1567
f 1568 1695 1694
f 1568 1696 1695
f 1569 1697 1696
f 1569 1696 1568
f 1570 1698 1697
f 1570 1697 1569
f 1571 1698 1570
f 1572 1699 1698
f 1572 1700 1699
f 1572 1698 1571
f 1573 1701 1700
f 1573 1700 1572
f 1574 1701 1573
f 1575 1702 1701
f 1575 1701 1574
f 1576 1703 1702
f 1576 1704 1703
f 1576 1702 1575
f 1577 1704 1576
f 1578 1704 1577
f 1578 1705 1704
f 1579 1705 1578
f 1579 1706 1705
f 1580 1706 1579
f 1580 1707 1706
f 1580 1708 1707
f 1581 1708 1580
f 1582 1708 1581
f 1582 1709 1708
f 1583 1709 1582
f 1583 1710 1709
f 1583 1711 1710
f 1584 1711 1583
f 1585 1711 1584
f 1585 1712 1711
f 1586 1712 1585
f 1586 1713 1712
f 1587 1713 1586
f 1587 1714 1713
f 1588 1714 1587
f 1588 1715 1714
f 1589 1715 1588
f 1589 1716 1715
f 1590 1717 1716
f 1590 1716 1589
f 1590 1718 1717
f 1591 1719 1718
f 1591 1718 1590
f 1592 1719 1591
f 1593 1720 1719
f 1593 1719 1592
f 1594 1721 1720
f 1594 1720 1593
f 1595 1722 1721
f 1595 1721 1594
f 1596 1723 1722
f 1596 1724 1723
f 1596 1722 1595
f 1597 1724 1596
f 1598 1725 1724
f 1598 1724 1597
f 1599 1726 1725
f 1599 1727 1726
f 1599 1725 1598
f 1600 1728 1727
f 1600 1727 1599
f 1601 1729 1728
f 1601 1728 1600
f 1602 1730 1729
f 1602 1729 1601
f 1603 1730 1602
f 1604 1730 1603
f 1604 1731 1730
f 1604 1732 1731
f 1605 1732 1604
f 1606 1732 1605
f 1606 1733 1732
f 1607 1733 1606
f 1607 1734 1733
f 1608 1734 1607
f 1608 1735 1734
f 1609 1735 1608
f 1609 1736 1735
f 1610 1736 1609
f 1610 1737 1736
f 1610 1738 1737
f 1611 1738 1610
f 1612 1738 1611
f 1612 1739 1738
f 1613 1739 1612
f 1613 1740 1739
f 1614 1740 1613
f 1614 1741 1740
f 1614 1742 1741
f 1615 1742 1614
f 1615 1743 1742
f 1616 1743 1615
f 1617 1743 1616
f 1617 1744 1743
f 1618 1744 1617
f 1618 1745 1744
f 1619 1745 1618
f 1619 1746 1745
f 1620 1746 1619
f 1620 1747 1746
f 1621 1747 1620
f 1621 1748 1747
f 1622 1748 1621
f 1622 1749 1748
f 1623 1749 1622
f 1623 1750 1749
f 1624 1750 1623
f 1624 1751 1750
f 1625 1752 1751
f 1625 1751 1624
f 1626 1753 1752
f 1626 1752 1625
f 1627 1754 1753
f 1627 1755 1754
f 1627 1753 1626
f 1628 1755 1627
f 1629 1755 1628
f 1629 1756 1755
f 1630 1756 1629
f 1630 1757 1756
f 1631 1757 1630
f 1631 1758 1757
f 1632 1758 1631
f 1632 1759 1758
f 1633 1759 1632
f 1633 1760 1759
f 1634 1760 1633
f 1634 1761 1760
f 1635 1761 1634
f 1635 1762 1761
f 1635 1763 1762
f 1636 1763 1635
f 1637 1763 1636
f 1637 1764 1763
f 1637 1765 1764
f 1638 1765 1637
f 1639 1765 1638
f 1639 1766 1765
f 1640 1766 1639
f 1640 1767 1766
f 1641 1769 1768
f 1641 1767 1640
f 1641 1768 1767
f 1642 1769 1641
f 1643 1770 1769
f 1643 1769 1642
f 1644 1771 1770
f 1644 1772 1771
f 1644 1770 1643
f 1645 1773 1772
f 1645 1772 1644
f 1646 1774 1773
f 1646 1773 1645
f 1647 1774 1646
f 1648 1775 1774
f 1648 1774 1647
f 1649 1776 1775
f 1649 1775 1648
f 1650 1777 1776
f 1650 1776 1649
f 1651 1778 1777
f 1651 1777 1650
f 1652 1779 1778
f 1652 1778 1651
f 1653 1780 1779
f 1653 1781 1780
f 1653 1779 1652
f 1654 1781 1653
f 1655 1781 1654
f 1655 1782 1781
f 1656 1782 1655
f 1656 1783 1782
f 1657 1783 1656
f 1657 1784 1783
f 1658 1784 1657
f 1658 1785 1784
f 1659 1786 1785
f 1659 1787 1786
f 1659 1785 1658
f 1660 1787 1659
f 1661 1788 1787
f 1661 1787 1660
f 1662 1789 1788
f 1662 1788 1661
f 1663 1790 1789
f 1663 1789 1662
f 1664 1791 1790
f 1664 1790 1663
f 1665 1792 1791
f 1665 1791 1664
f 1666 1793 1792
f 1666 1792 1665
f 1667 1794 1793
f 1667 1793 1666
f 1668 1795 1794
f 1668 1794 1667
f 1669 1796 1795
f 1669 1797 1796
f 1669 1795 1668
f 1670 1797 1669
f 1671 1798 1797
f 1671 1797 1670
f 1672 1799 1798
f 1672 1798 1671
f 1673 1800 1799
f 1673 1801 1800
f 1673 1799 1672
f 1674 1801 1673
f 1675 1802 1801
f 1675 1801 1674
f 1676 1803 1802
f 1676 1802 1675
f 1677 1804 1803
f 1677 1805 1804
f 1677 1803 1676
f 1678 1805 1677
f 1679 1805 1678
f 1679 1806 1805
f 1680 1806 1679
f 1680 1807 1806
f 1681 1807 1680
f 1681 1808 1807
f 1682 1808 1681
f 1682 1809 1808
f 1682 1810 1809
f 1683 1810 1682
f 1684 1810 1683
f 1684 1811 1810
f 1685 1811 1684
f 1685 1812 1811
f 1686 1812 1685
f 1686 1813 1812
f 1687 1813 1686
f 1687 1814 1813
f 1688 1814 1687
f 1688 1815 1814
f 1688 1816 1815
f 1689 1816 1688
f 1690 1816 1689
f 1690 1817 1816
f 1691 1818 1817
f 1691 1819 1818
f 1691 1817 1690
f 1692 1819 1691
f 1693 1820 1819
f 1693 1819 1692
f 1822 1948 1821
f 1822 1949 1948
f 1823 1950 1949
f 1823 1951 1950
f 1823 1949 1822
f 1824 1951 1823
f 1825 1952 1951
f 1825 1953 1952
f 1825 1951 1824
f 1826 1953 1825
f 1827 1954 1953
f 1827 1953 1826
f 1828 1955 1954
f 1828 1956 1955
f 1828 1954 1827
f 1829 1956 1828
f 1830 1957 1956
f 1830 1958 1957
f 1830 1956 1829
f 1831 1958 1830
f 1832 1958 1831
f 1832 1959 1958
f 1832 1960 1959
f 1833 1960 1832
f 1834 1960 1833
f 1834 1961 1960
f 1835 1961 1834
f 1835 1962 1961
f 1835 1963 1962
f 1836 1963 1835
f 1836 1964 1963
f 1837 1964 1836
f 1838 1964 1837
f 1838 1965 1964
f 1839 1965 1838
f 1839 1966 1965
f 1840 1966 1839
f 1840 1967 1966
f 1841 1967 1840
f 1841 1968 1967
f 1842 1968 1841
f 1842 1969 1968
f 1843 1969 1842
f 1843 1970 1969
f 1844 1971 1970
f 1844 1970 1843
f 1845 1972 1971
f 1845 1971 1844
f 1846 1973 1972
f 1846 1972 1845
f 1847 1974 1973
f 1847 1975 1974
f 1847 1973 1846
f 1848 1975 1847
f 1849 1976 1975
f 1849 1977 1976
f 1849 1975 1848
f 1850 1977 1849
f 1851 1978 1977
f 1851 1977 1850
f 1852 1979 1978
f 1852 1980 1979
f 1852 1978 1851
f 1853 1980 1852
f 1854 1981 1980
f 1854 1980 1853
f 1855 1982 1981
f 1855 1981 1854
f 1856 1983 1982
f 1856 1982 1855
f 1857 1984 1983
f 1857 1983 1856
f 1858 1984 1857
f 1858 1985 1984
f 1859 1985 1858
f 1859 1986 1985
f 1859 1987 1986
f 1860 1987 1859
f 1861 1987 1860
f 1861 1988 1987
f 1862 1988 1861
f 1862 1989 1988
f 1863 1989 1862
f 1863 1990 1989
f 1864 1990 1863
f 1864 1991 1990
f 1865 1991 1864
f 1865 1992 1991
f 1866 1992 1865
f 1866 1993 1992
f 1866 1994 1993
f 1867 1994 1866
f 1868 1994 1867
f 1868 1995 1994
f 1869 1995 1868
f 1869 1996 1995
f 1870 1996 1869
f 1870 1997 1996
f 1871 1997 1870
f 1871 1998 1997
f 1871 1999 1998
f 1872 1999 1871
f 1873 1999 1872
f 1873 2000 1999
f 1873 2001 2000
f 1874 2001 1873
f 1875 2001 1874
f 1875 2002 2001
f 1876 2002 1875
f 1876 2003 2002
f 1877 2003 1876
f 1877 2004 2003
f 1878 2004 1877
f 1878 2005 2004
f 1878 2006 2005
f 1879 2006 1878
f 1880 2007 2006
f 1880 2006 1879
f 1881 2008 2007
f 1881 2009 2008
f 1881 2007 1880
f 1882 2010 2009
f 1882 2009 1881
f 1883 2010 1882
f 1883 2011 2010
f 1884 2011 1883
f 1884 2012 2011
f 1885 2012 1884
f 1886 2012 1885
f 1886 2013 2012
f 1886 2014 2013
f 1887 2014 1886
f 1887 2015 2014
f 1888 2015 1887
f 1889 2015 1888
f 1889 2016 2015
f 1890 2016 1889
f 1890 2017 2016
f 1890 2018 2017
f 1891 2018 1890
f 1892 2018 1891
f 1892 2019 2018
f 1893 2019 1892
f 1893 2020 2019
f 1894 2020 1893
f 1894 2021 2020
f 1895 2021 1894
f 1895 2022 2021
f 1896 2023 2022
f 1896 2022 1895
f 1897 2024 2023
f 1897 2023 1896
f 1898 2025 2024
f 1898 2024 1897
f 1899 2026 2025
f 1899 2025 1898
f 1900 2027 2026
f 1900 2026 1899
f 1901 2028 2027
f 1901 2027 1900
f 1902 2029 2028
f 1902 2028 1901
f 1903 2030 2029
f 1903 2029 1902
f 1904 2031 2030
f 1904 2032 2031
f 1904 2030 1903
f 1905 2032 1904
f 1906 2033 2032
f 1906 2032 1905
f 1907 2034 2033
f 1907 2035 2034
f 1907 2033 1906
f 1908 2035 1907
f 1909 2035 1908
f 1909 2036 2035
f 1910 2036 1909
f 1910 2037 2036
f 1911 2037 1910
f 1911 2038 2037
f 1911 2039 2038
f 1912 2039 1911
f 1912 2040 2039
f 1913 2040 1912
f 1914 2041 2040
f 1914 2042 2041
f 1914 2040 1913
f 1915 2042 1914
f 1916 2043 2042
f 1916 2042 1915
f 1917 2044 2043
f 1917 2043 1916
f 1918 2045 2044
f 1918 2044 1917
f 1919 2046 2045
f 1919 2045 1918
f 1920 2047 2046
f 1920 2046 1919
f 1921 2048 2047
f 1921 2047 1920
f 1922 2049 2048
f 1922 2048 1921
f 1923 2050 2049
f 1923 2051 2050
f 1923 2049 1922
f 1924 2052 2051
f 1924 2051 1923
f 1925 2053 2052
f 1925 2052 1924
f 1926 2053 1925
f 1927 2054 2053
f 1927 2053 1926
f 1928 2055 2054
f 1928 2054 1927
f 1929 2056 2055
f 1929 2055 1928
f 1930 2057 2056
f 1930 2056 1929
f 1931 2058 2057
f 1931 2057 1930
f 1932 2059 2058
f 1932 2060 2059
f 1932 2058 1931
f 1933 2060 1932
f 1934 2060 1933
f 1934 2061 2060
f 1934 2062 2061
f 1935 2062 1934
f 1936 2062 1935
f 1936 2063 2062
f 1937 2063 1936
f 1937 2064 2063
f 1937 2065 2064
f 1938 2065 1937
f 1939 2065 1938
f 1939 2066 2065
f 1940 2066 1939
f 1940 2067 2066
f 1940 2068 2067
f 1941 2068 1940
f 1942 2068 1941
f 1942 2069 2068
f 1943 2069 1942
f 1943 2070 2069
f 1944 2070 1943
f 1944 2071 2070
f 1945 2071 1944
f 1945 2072 2071
f 1946 2073 2072
f 1946 2072 1945
f 1947 2074 2073
f 1947 2073 1946
f 2279 2153 2154
f 2279 2154 2280
f 2281 2154 2155
f 2281 2155 2156
f 2281 2280 2154
f 2278 2153 2279
f 2278 2152 2153
f 2282 2281 2156
f 2277 2152 2278
f 2277 2151 2152
f 2283 2282 2156
f 2283 2156 2157
f 2276 2151 2277
f 2276 2150 2151
f 2284 2283 2157
f 2284 2157 2158
f 2275 2150 2276
f 2275 2149 2150
f 2285 2284 2158
f 2285 2158 2159
f 2274 2149 2275
f 2274 2148 2149
f 2286 2285 2159
f 2286 2159 2160
f 2273 2148 2274
f 2273 2147 2148
f 2287 2160 2161
f 2287 2286 2160
f 2272 2147 2273
f 2272 2146 2147
f 2288 2287 2161
f 2288 2161 2162
f 2271 2146 2272
f 2271 2145 2146
f 2289 2162 2163
f 2289 2288 2162
f 2270 2144 2145
f 2270 2145 2271
f 2290 2289 2163
f 2290 2163 2164
f 2290 2164 2165
f 2269 2144 2270
f 2269 2143 2144
f 2291 2290 2165
f 2268 2142 2143
f 2268 2143 2269
f 2292 2291 2165
f 2292 2165 2166
f 2267 2141 2142
f 2267 2142 2268
f 2293 2292 2166
f 2293 2166 2167
f 2266 2141 2267
f 2266 2140 2141
f 2294 2293 2167
f 2294 2167 2168
f 2265 2140 2266
f 2265 2138 2139
f 2265 2139 2140
f 2295 2294 2168
f 2295 2168 2169
f 2264 2138 2265
f 2296 2295 2169
f 2296 2169 2170
f 2263 2137 2138
f 2263 2138 2264
f 2297 2296 2170
f 2297 2170 2171
f 2297 2171 2172
f 2262 2137 2263
f 2262 2136 2137
f 2298 2297 2172
f 2261 2136 2262
f 2261 2135 2136
f 2299 2298 2172
f 2299 2172 2173
f 2260 2135 2261
f 2260 2134 2135
f 2300 2299 2173
f 2300 2173 2174
f 2259 2134 2260
f 2259 2133 2134
f 2301 2300 2174
f 2301 2174 2175
f 2258 2133 2259
f 2258 2132 2133
f 2302 2175 2176
f 2302 2301 2175
f 2257 2132 2258
f 2257 2130 2131
f 2257 2131 2132
f 2303 2176 2177
f 2303 2302 2176
f 2256 2130 2257
f 2256 2129 2130
f 2304 2177 2178
f 2304 2303 2177
f 2255 2129 2256
f 2305 2178 2179
f 2305 2304 2178
f 2254 2128 2129
f 2254 2129 2255
f 2306 2179 2180
f 2306 2305 2179
f 2253 2128 2254
f 2253 2127 2128
f 2307 2180 2181
f 2307 2306 2180
f 2252 2126 2127
f 2252 2127 2253
f 2308 2181 2182
f 2308 2307 2181
f 2251 2124 2125
f 2251 2125 2126
f 2251 2126 2252
f 2309 2182 2183
f 2309 2308 2182
f 2184 2309 2183
f 2250 2124 2251
f 2310 2309 2184
f 2249 2123 2124
f 2249 2124 2250
f 2311 2184 2185
f 2311 2310 2184
f 2122 2249 2248
f 2122 2123 2249
f 2186 2311 2185
f 2186 2312 2311
f 2313 2312 2186
f 2121 2122 2248
f 2121 2248 2247
f 2187 2313 2186
f 2187 2314 2313
f 2120 2121 2247
f 2120 2247 2246
f 2188 2314 2187
f 2119 2120 2246
f 2119 2245 2244
f 2119 2246 2245
f 2189 2314 2188
f 2189 2315 2314
f 2118 2119 2244
f 2190 2316 2315
f 2190 2315 2189
f 2117 2118 2244
f 2117 2244 2243
f 2191 2316 2190
f 2191 2317 2316
f 2116 2117 2243
f 2116 2242 2241
f 2116 2243 2242
f 2192 2318 2317
f 2192 2317 2191
f 2115 2116 2241
f 2193 2319 2318
f 2193 2318 2192
f 2114 2241 2240
f 2114 2115 2241
f 2194 2320 2319
f 2194 2319 2193
f 2113 2114 2240
f 2113 2239 2238
f 2113 2240 2239
f 2195 2321 2320
f 2195 2322 2321
f 2195 2320 2194
f 2112 2113 2238
f 2196 2323 2322
f 2196 2322 2195
f 2111 2112 2238
f 2111 2238 2237
f 2197 2323 2196
f 2110 2111 2237
f 2110 2237 2236
f 2198 2323 2197
f 2198 2324 2323
f 2109 2236 2235
f 2109 2110 2236
f 2199 2325 2324
f 2199 2324 2198
f 2108 2235 2234
f 2108 2109 2235
f 2200 2326 2325
f 2200 2325 2199
f 2107 2234 2233
f 2107 2108 2234
f 2075 2201 2326
f 2075 2326 2200
f 2106 2232 2231
f 2106 2233 2232
f 2106 2107 2233
f 2076 2202 2201
f 2076 2203 2202
f 2076 2201 2075
f 2105 2106 2231
f 2077 2203 2076
f 2104 2105 2231
f 2104 2231 2230
f 2078 2204 2203
f 2078 2203 2077
f 2103 2104 2230
f 2103 2230 2229
f 2079 2205 2204
f 2079 2204 2078
f 2102 2103 2229
f 2102 2229 2228
f 2080 2206 2205
f 2080 2207 2206
f 2080 2205 2079
f 2101 2102 2228
f 2101 2227 2226
f 2101 2228 2227
f 2081 2207 2080
f 2081 2208 2207
f 2100 2101 2226
f 2082 2208 2081
f 2099 2225 2224
f 2099 2226 2225
f 2099 2100 2226
f 2083 2208 2082
f 2083 2209 2208
f 2083 2210 2209
f 2098 2099 2224
f 2084 2210 2083
f 2097 2224 2223
f 2097 2098 2224
f 2085 2210 2084
f 2085 2211 2210
f 2085 2212 2211
f 2096 2097 2223
f 2096 2223 2222
f 2086 2213 2212
f 2086 2212 2085
f 2095 2096 2222
f 2095 2222 2221
f 2087 2213 2086
f 2094 2095 2221
f 2094 2221 2220
f 2088 2213 2087
f 2088 2214 2213
f 2093 2094 2220
f 2093 2220 2219
f 2089 2215 2214
f 2089 2214 2088
f 2092 2219 2218
f 2092 2093 2219
f 2090 2216 2215
f 2090 2215 2089
f 2091 2217 2216
f 2091 2218 2217
f 2091 2092 2218
f 2091 2216 2090
f 2531 2405 2406
f 2531 2406 2532
f 2533 2406 2407
f 2533 2407 2408
f 2533 2532 2406
f 2530 2405 2531
f 2530 2404 2405
f 2534 2533 2408
f 2529 2404 2530
f 2529 2403 2404
f 2535 2534 2408
f 2535 2408 2409
f 2528 2403 2529
f 2528 2402 2403
f 2536 2535 2409
f 2536 2409 2410
f 2527 2402 2528
f 2527 2401 2402
f 2537 2536 2410
f 2537 2410 2411
f 2526 2401 2527
f 2526 2400 2401
f 2538 2537 2411
f 2538 2411 2412
f 2525 2400 2526
f 2525 2399 2400
f 2539 2412 2413
f 2539 2538 2412
f 2524 2399 2525
f 2524 2398 2399
f 2540 2539 2413
f 2540 2413 2414
f 2523 2398 2524
f 2523 2397 2398
f 2541 2414 2415
f 2541 2540 2414
f 2522 2396 2397
f 2522 2397 2523
f 2542 2541 2415
f 2542 2415 2416
f 2542 2416 2417
f 2521 2396 2522
f 2521 2395 2396
f 2543 2542 2417
f 2520 2394 2395
f 2520 2395 2521
f 2544 2543 2417
f 2544 2417 2418
f 2519 2393 2394
f 2519 2394 2520
f 2545 2544 2418
f 2545 2418 2419
f 2518 2393 2519
f 2518 2392 2393
f 2546 2545 2419
f 2546 2419 2420
f 2517 2392 2518
f 2517 2390 2391
f 2517 2391 2392
f 2547 2546 2420
f 2547 2420 2421
f 2516 2390 2517
f 2548 2547 2421
f 2548 2421 2422
f 2515 2389 2390
f 2515 2390 2516
f 2549 2548 2422
f 2549 2422 2423
f 2549 2423 2424
f 2514 2389 2515
f 2514 2388 2389
f 2550 2549 2424
f 2513 2388 2514
f 2513 2387 2388
f 2551 2550 2424
f 2551 2424 2425
f 2512 2387 2513
f 2512 2386 2387
f 2552 2551 2425
f 2552 2425 2426
f 2511 2386 2512
f 2511 2385 2386
f 2553 2552 2426
f 2553 2426 2427
f 2510 2385 2511
f 2510 2384 2385
f 2554 2427 2428
f 2554 2553 2427
f 2509 2384 2510
f 2509 2382 2383
f 2509 2383 2384
f 2555 2428 2429
f 2555 2554 2428
f 2508 2382 2509
f 2508 2381 2382
f 2556 2429 2430
f 2556 2555 2429
f 2507 2381 2508
f 2557 2430 2431
f 2557 2556 2430
f 2506 2380 2381
f 2506 2381 2507
f 2558 2431 2432
f 2558 2557 2431
f 2505 2380 2506
f 2505 2379 2380
f 2559 2432 2433
f 2559 2558 2432
f 2504 2378 2379
f 2504 2379 2505
f 2560 2433 2434
f 2560 2559 2433
f 2503 2376 2377
f 2503 2377 2378
f 2503 2378 2504
f 2561 2434 2435
f 2561 2560 2434
f 2436 2561 2435
f 2502 2376 2503
f 2562 2561 2436
f 2501 2375 2376
f 2501 2376 2502
f 2563 2436 2437
f 2563 2562 2436
f 2374 2501 2500
f 2374 2375 2501
f 2438 2563 2437
f 2438 2564 2563
f 2565 2564 2438
f 2373 2374 2500
f 2373 2500 2499
f 2439 2565 2438
f 2439 2566 2565
f 2372 2373 2499
f 2372 2499 2498
f 2440 2566 2439
f 2371 2372 2498
f 2371 2497 2496
f 2371 2498 2497
f 2441 2566 2440
f 2441 2567 2566
f 2370 2371 2496
f 2442 2568 2567
f 2442 2567 2441
f 2369 2370 2496
f 2369 2496 2495
f 2443 2568 2442
f 2443 2569 2568
f 2368 2369 2495
f 2368 2494 2493
f 2368 2495 2494
f 2444 2570 2569
f 2444 2569 2443
f 2367 2368 2493
f 2445 2571 2570
f 2445 2570 2444
f 2366 2493 2492
f 2366 2367 2493
f 2446 2572 2571
f 2446 2571 2445
f 2365 2366 2492
f 2365 2491 2490
f 2365 2492 2491
f 2447 2573 2572
f 2447 2574 2573
f 2447 2572 2446
f 2364 2365 2490
f 2448 2575 2574
f 2448 2574 2447
f 2363 2364 2490
f 2363 2490 2489
f 2449 2575 2448
f 2362 2363 2489
f 2362 2489 2488
f 2450 2575 2449
f 2450 2576 2575
f 2361 2488 2487
f 2361 2362 2488
f 2451 2577 2576
f 2451 2576 2450
f 2360 2487 2486
f 2360 2361 2487
f 2452 2578 2577
f 2452 2577 2451
f 2359 2486 2485
f 2359 2360 2486
f 2327 2453 2578
f 2327 2578 2452
f 2358 2484 2483
f 2358 2485 2484
f 2358 2359 2485
f 2328 2454 2453
f 2328 2455 2454
f 2328 2453 2327
f 2357 2358 2483
f 2329 2455 2328
f 2356 2357 2483
f 2356 2483 2482
f 2330 2456 2455
f 2330 2455 2329
f 2355 2356 2482
f 2355 2482 2481
f 2331 2457 2456
f 2331 2456 2330
f 2354 2355 2481
f 2354 2481 2480
f 2332 2458 2457
f 2332 2459 2458
f 2332 2457 2331
f 2353 2354 2480
f 2353 2479 2478
f 2353 2480 2479
f 2333 2459 2332
f 2333 2460 2459
f 2352 2353 2478
f 2334 2460 2333
f 2351 2477 2476
f 2351 2478 2477
f 2351 2352 2478
f 2335 2460 2334
f 2335 2461 2460
f 2335 2462 2461
f 2350 2351 2476
f 2336 2462 2335
f 2349 2476 2475
f 2349 2350 2476
f 2337 2462 2336
f 2337 2463 2462
f 2337 2464 2463
f 2348 2349 2475
f 2348 2475 2474
f 2338 2465 2464
f 2338 2464 2337
f 2347 2348 2474
f 2347 2474 2473
f 2339 2465 2338
f 2346 2347 2473
f 2346 2473 2472
f 2340 2465 2339
f 2340 2466 2465
f 2345 2346 2472
f 2345 2472 2471
f 2341 2467 2466
f 2341 2466 2340
f 2344 2471 2470
f 2344 2345 2471
f 2342 2468 2467
f 2342 2467 2341
f 2343 2469 2468
f 2343 2470 2469
f 2343 2344 2470
f 2343 2468 2342
