# Cadless export: model
v -35 -20 4
v -35 -20 15
v -35 -28 4
v -35 -28 -8
v -35 -20 -8
v -35 -20 0
v -35 20 0
v -35 20 15
v 35 -20 4
v 35 -20 15
v -35 -20 4
v -35 -20 15
v -35 -20 15
v -35 20 15
v 35 -20 15
v 35 20 15
v -35 20 0
v 35 20 0
v -35 20 15
v 35 20 15
v -35 -20 0
v -35 20 0
v 35 -20 0
v 35 20 0
v -35 -28 -8
v 35 -28 -8
v -35 -28 4
v 35 -28 4
v -35 -28 4
v -35 -20 4
v 35 -28 4
v 35 -20 4
v 35 -20 -8
v 35 -20 0
v -35 -20 -8
v -35 -20 0
v -35 -28 -8
v -35 -20 -8
v 35 -28 -8
v 35 -20 -8
v 35 -20 4
v 35 -20 15
v 35 -28 4
v 35 -28 -8
v 35 -20 -8
v 35 -20 0
v 35 20 0
v 35 20 15
f 6 5 4
f 1 7 6
f 1 8 7
f 3 6 4
f 3 1 6
f 2 8 1
f 9 12 11
f 10 12 9
f 15 14 13
f 16 14 15
f 18 17 19
f 20 18 19
f 23 21 22
f 24 23 22
f 26 27 25
f 28 27 26
f 31 30 29
f 32 30 31
f 34 33 35
f 34 35 36
f 39 37 38
f 40 39 38
f 46 44 45
f 41 46 47
f 41 47 48
f 43 44 46
f 43 46 41
f 42 41 48
