# Cadless export: model
v 20 -4.89859e-15 11
v 19.9751 0.996918 11
v 19.9006 1.99136 11
v 19.7766 2.98085 11
v 19.6034 3.96292 11
v 19.3815 4.93515 11
v 19.1115 5.8951 11
v 18.7939 6.8404 11
v 18.4295 7.7687 11
v 18.0194 8.67767 11
v 17.5644 9.56508 11
v 17.0658 10.4287 11
v 16.5248 11.2664 11
v 15.9427 12.0761 11
v 15.3209 12.8558 11
v 14.661 13.6035 11
v 13.9647 14.3173 11
v 13.2337 14.9956 11
v 12.4698 15.6366 11
v 11.6749 16.2388 11
v 10.8509 16.8005 11
v 10 17.3205 11
v 9.12421 17.7974 11
v 8.22574 18.2301 11
v 7.30682 18.6175 11
v 6.36973 18.9585 11
v 5.41681 19.2525 11
v 4.45042 19.4986 11
v 3.47296 19.6962 11
v 2.48687 19.8448 11
v 1.4946 19.9441 11
v 0.498614 19.9938 11
v -0.498614 19.9938 11
v -1.4946 19.9441 11
v -2.48687 19.8448 11
v -3.47296 19.6962 11
v -4.45042 19.4986 11
v -5.41681 19.2525 11
v -6.36973 18.9585 11
v -7.30682 18.6175 11
v -8.22574 18.2301 11
v -9.12421 17.7974 11
v -10 17.3205 11
v -10.8509 16.8005 11
v -11.6749 16.2388 11
v -12.4698 15.6366 11
v -13.2337 14.9956 11
v -13.9647 14.3173 11
v -14.661 13.6035 11
v -15.3209 12.8558 11
v -15.9427 12.0761 11
v -16.5248 11.2664 11
v -17.0658 10.4287 11
v -17.5644 9.56508 11
v -18.0194 8.67767 11
v -18.4295 7.7687 11
v -18.7939 6.8404 11
v -19.1115 5.8951 11
v -19.3815 4.93515 11
v -19.6034 3.96292 11
v -19.7766 2.98085 11
v -19.9006 1.99136 11
v -19.9751 0.996918 11
v -20 -6.8605e-14 11
v -19.9751 -0.996918 11
v -19.9006 -1.99136 11
v -19.7766 -2.98085 11
v -19.6034 -3.96292 11
v -19.3815 -4.93515 11
v -19.1115 -5.8951 11
v -18.7939 -6.8404 11
v -18.4295 -7.7687 11
v -18.0194 -8.67767 11
v -17.5644 -9.56508 11
v -17.0658 -10.4287 11
v -16.5248 -11.2664 11
v -15.9427 -12.0761 11
v -15.3209 -12.8558 11
v -14.661 -13.6035 11
v -13.9647 -14.3173 11
v -13.2337 -14.9956 11
v -12.4698 -15.6366 11
v -11.6749 -16.2388 11
v -10.8509 -16.8005 11
v -10 -17.3205 11
v -9.12421 -17.7974 11
v -8.22574 -18.2301 11
v -7.30682 -18.6175 11
v -6.36973 -18.9585 11
v -5.41681 -19.2525 11
v -4.45042 -19.4986 11
v -3.47296 -19.6962 11
v -2.48687 -19.8448 11
v -1.4946 -19.9441 11
v -0.498614 -19.9938 11
v 0.498614 -19.9938 11
v 1.4946 -19.9441 11
v 2.48687 -19.8448 11
v 3.47296 -19.6962 11
v 4.45042 -19.4986 11
v 5.41681 -19.2525 11
v 6.36973 -18.9585 11
v 7.30682 -18.6175 11
v 8.22574 -18.2301 11
v 9.12421 -17.7974 11
v 10 -17.3205 11
v 10.8509 -16.8005 11
v 11.6749 -16.2388 11
v 12.4698 -15.6366 11
v 13.2337 -14.9956 11
v 13.9647 -14.3173 11
v 14.661 -13.6035 11
v 15.3209 -12.8558 11
v 15.9427 -12.0761 11
v 16.5248 -11.2664 11
v 17.0658 -10.4287 11
v 17.5644 -9.56508 11
v 18.0194 -8.67767 11
v 18.4295 -7.7687 11
v 18.7939 -6.8404 11
v 19.1115 -5.8951 11
v 19.3815 -4.93515 11
v 19.6034 -3.96292 11
v 19.7766 -2.98085 11
v 19.9006 -1.99136 11
v 19.9751 -0.996918 11
v 20 -4.89859e-15 11
v 20 -4.89859e-15 -11
v 19.9751 0.996918 -11
v 19.9006 1.99136 -11
v 19.7766 2.98085 -11
v 19.6034 3.96292 -11
v 19.3815 4.93515 -11
v 19.1115 5.8951 -11
v 18.7939 6.8404 -11
v 18.4295 7.7687 -11
v 18.0194 8.67767 -11
v 17.5644 9.56508 -11
v 17.0658 10.4287 -11
v 16.5248 11.2664 -11
v 15.9427 12.0761 -11
v 15.3209 12.8558 -11
v 14.661 13.6035 -11
v 13.9647 14.3173 -11
v 13.2337 14.9956 -11
v 12.4698 15.6366 -11
v 11.6749 16.2388 -11
v 10.8509 16.8005 -11
v 10 17.3205 -11
v 9.12421 17.7974 -11
v 8.22574 18.2301 -11
v 7.30682 18.6175 -11
v 6.36973 18.9585 -11
v 5.41681 19.2525 -11
v 4.45042 19.4986 -11
v 3.47296 19.6962 -11
v 2.48687 19.8448 -11
v 1.4946 19.9441 -11
v 0.498614 19.9938 -11
v -0.498614 19.9938 -11
v -1.4946 19.9441 -11
v -2.48687 19.8448 -11
v -3.47296 19.6962 -11
v -4.45042 19.4986 -11
v -5.41681 19.2525 -11
v -6.36973 18.9585 -11
v -7.30682 18.6175 -11
v -8.22574 18.2301 -11
v -9.12421 17.7974 -11
v -10 17.3205 -11
v -10.8509 16.8005 -11
v -11.6749 16.2388 -11
v -12.4698 15.6366 -11
v -13.2337 14.9956 -11
v -13.9647 14.3173 -11
v -14.661 13.6035 -11
v -15.3209 12.8558 -11
v -15.9427 12.0761 -11
v -16.5248 11.2664 -11
v -17.0658 10.4287 -11
v -17.5644 9.56508 -11
v -18.0194 8.67767 -11
v -18.4295 7.7687 -11
v -18.7939 6.8404 -11
v -19.1115 5.8951 -11
v -19.3815 4.93515 -11
v -19.6034 3.96292 -11
v -19.7766 2.98085 -11
v -19.9006 1.99136 -11
v -19.9751 0.996918 -11
v -20 -6.8605e-14 -11
v -19.9751 -0.996918 -11
v -19.9006 -1.99136 -11
v -19.7766 -2.98085 -11
v -19.6034 -3.96292 -11
v -19.3815 -4.93515 -11
v -19.1115 -5.8951 -11
v -18.7939 -6.8404 -11
v -18.4295 -7.7687 -11
v -18.0194 -8.67767 -11
v -17.5644 -9.56508 -11
v -17.0658 -10.4287 -11
v -16.5248 -11.2664 -11
v -15.9427 -12.0761 -11
v -15.3209 -12.8558 -11
v -14.661 -13.6035 -11
v -13.9647 -14.3173 -11
v -13.2337 -14.9956 -11
v -12.4698 -15.6366 -11
v -11.6749 -16.2388 -11
v -10.8509 -16.8005 -11
v -10 -17.3205 -11
v -9.12421 -17.7974 -11
v -8.22574 -18.2301 -11
v -7.30682 -18.6175 -11
v -6.36973 -18.9585 -11
v -5.41681 -19.2525 -11
v -4.45042 -19.4986 -11
v -3.47296 -19.6962 -11
v -2.48687 -19.8448 -11
v -1.4946 -19.9441 -11
v -0.498614 -19.9938 -11
v 0.498614 -19.9938 -11
v 1.4946 -19.9441 -11
v 2.48687 -19.8448 -11
v 3.47296 -19.6962 -11
v 4.45042 -19.4986 -11
v 5.41681 -19.2525 -11
v 6.36973 -18.9585 -11
v 7.30682 -18.6175 -11
v 8.22574 -18.2301 -11
v 9.12421 -17.7974 -11
v 10 -17.3205 -11
v 10.8509 -16.8005 -11
v 11.6749 -16.2388 -11
v 12.4698 -15.6366 -11
v 13.2337 -14.9956 -11
v 13.9647 -14.3173 -11
v 14.661 -13.6035 -11
v 15.3209 -12.8558 -11
v 15.9427 -12.0761 -11
v 16.5248 -11.2664 -11
v 17.0658 -10.4287 -11
v 17.5644 -9.56508 -11
v 18.0194 -8.67767 -11
v 18.4295 -7.7687 -11
v 18.7939 -6.8404 -11
v 19.1115 -5.8951 -11
v 19.3815 -4.93515 -11
v 19.6034 -3.96292 -11
v 19.7766 -2.98085 -11
v 19.9006 -1.99136 -11
v 19.9751 -0.996918 -11
v 20 -4.89859e-15 -11
v 20 -4.89859e-15 11
v 19.9751 0.996918 11
v 19.9006 1.99136 11
v 19.7766 2.98085 11
v 19.6034 3.96292 11
v 19.3815 4.93515 11
v 19.1115 5.8951 11
v 18.7939 6.8404 11
v 18.4295 7.7687 11
v 18.0194 8.67767 11
v 17.5644 9.56508 11
v 17.0658 10.4287 11
v 16.5248 11.2664 11
v 15.9427 12.0761 11
v 15.3209 12.8558 11
v 14.661 13.6035 11
v 13.9647 14.3173 11
v 13.2337 14.9956 11
v 12.4698 15.6366 11
v 11.6749 16.2388 11
v 10.8509 16.8005 11
v 10 17.3205 11
v 9.12421 17.7974 11
v 8.22574 18.2301 11
v 7.30682 18.6175 11
v 6.36973 18.9585 11
v 5.41681 19.2525 11
v 4.45042 19.4986 11
v 3.47296 19.6962 11
v 2.48687 19.8448 11
v 1.4946 19.9441 11
v 0.498614 19.9938 11
v -0.498614 19.9938 11
v -1.4946 19.9441 11
v -2.48687 19.8448 11
v -3.47296 19.6962 11
v -4.45042 19.4986 11
v -5.41681 19.2525 11
v -6.36973 18.9585 11
v -7.30682 18.6175 11
v -8.22574 18.2301 11
v -9.12421 17.7974 11
v -10 17.3205 11
v -10.8509 16.8005 11
v -11.6749 16.2388 11
v -12.4698 15.6366 11
v -13.2337 14.9956 11
v -13.9647 14.3173 11
v -14.661 13.6035 11
v -15.3209 12.8558 11
v -15.9427 12.0761 11
v -16.5248 11.2664 11
v -17.0658 10.4287 11
v -17.5644 9.56508 11
v -18.0194 8.67767 11
v -18.4295 7.7687 11
v -18.7939 6.8404 11
v -19.1115 5.8951 11
v -19.3815 4.93515 11
v -19.6034 3.96292 11
v -19.7766 2.98085 11
v -19.9006 1.99136 11
v -19.9751 0.996918 11
v -20 -6.8605e-14 11
v -19.9751 -0.996918 11
v -19.9006 -1.99136 11
v -19.7766 -2.98085 11
v -19.6034 -3.96292 11
v -19.3815 -4.93515 11
v -19.1115 -5.8951 11
v -18.7939 -6.8404 11
v -18.4295 -7.7687 11
v -18.0194 -8.67767 11
v -17.5644 -9.56508 11
v -17.0658 -10.4287 11
v -16.5248 -11.2664 11
v -15.9427 -12.0761 11
v -15.3209 -12.8558 11
v -14.661 -13.6035 11
v -13.9647 -14.3173 11
v -13.2337 -14.9956 11
v -12.4698 -15.6366 11
v -11.6749 -16.2388 11
v -10.8509 -16.8005 11
v -10 -17.3205 11
v -9.12421 -17.7974 11
v -8.22574 -18.2301 11
v -7.30682 -18.6175 11
v -6.36973 -18.9585 11
v -5.41681 -19.2525 11
v -4.45042 -19.4986 11
v -3.47296 -19.6962 11
v -2.48687 -19.8448 11
v -1.4946 -19.9441 11
v -0.498614 -19.9938 11
v 0.498614 -19.9938 11
v 1.4946 -19.9441 11
v 2.48687 -19.8448 11
v 3.47296 -19.6962 11
v 4.45042 -19.4986 11
v 5.41681 -19.2525 11
v 6.36973 -18.9585 11
v 7.30682 -18.6175 11
v 8.22574 -18.2301 11
v 9.12421 -17.7974 11
v 10 -17.3205 11
v 10.8509 -16.8005 11
v 11.6749 -16.2388 11
v 12.4698 -15.6366 11
v 13.2337 -14.9956 11
v 13.9647 -14.3173 11
v 14.661 -13.6035 11
v 15.3209 -12.8558 11
v 15.9427 -12.0761 11
v 16.5248 -11.2664 11
v 17.0658 -10.4287 11
v 17.5644 -9.56508 11
v 18.0194 -8.67767 11
v 18.4295 -7.7687 11
v 18.7939 -6.8404 11
v 19.1115 -5.8951 11
v 19.3815 -4.93515 11
v 19.6034 -3.96292 11
v 19.7766 -2.98085 11
v 19.9006 -1.99136 11
v 19.9751 -0.996918 11
v 16 -3.91887e-15 11
v 15.9801 0.797534 11
v 15.9205 1.59309 11
v 15.8213 2.38468 11
v 15.6828 3.17034 11
v 15.5052 3.94812 11
v 15.2892 4.71608 11
v 15.0351 5.47232 11
v 14.7436 6.21496 11
v 14.4155 6.94214 11
v 14.0515 7.65206 11
v 13.6527 8.34296 11
v 13.2198 9.01312 11
v 12.7541 9.66087 11
v 12.2567 10.2846 11
v 11.7288 10.8828 11
v 11.1718 11.4539 11
v 10.587 11.9965 11
v 9.97584 12.5093 11
v 9.3399 12.991 11
v 8.68074 13.4404 11
v 8 13.8564 11
v 7.29937 14.2379 11
v 6.58059 14.5841 11
v 5.84546 14.894 11
v 5.09579 15.1668 11
v 4.33345 15.402 11
v 3.56033 15.5988 11
v 2.77837 15.7569 11
v 1.9895 15.8758 11
v 1.19568 15.9553 11
v 0.398891 15.995 11
v -0.398891 15.995 11
v -1.19568 15.9553 11
v -1.9895 15.8758 11
v -2.77837 15.7569 11
v -3.56033 15.5988 11
v -4.33345 15.402 11
v -5.09579 15.1668 11
v -5.84546 14.894 11
v -6.58059 14.5841 11
v -7.29937 14.2379 11
v -8 13.8564 11
v -8.68074 13.4404 11
v -9.3399 12.991 11
v -9.97584 12.5093 11
v -10.587 11.9965 11
v -11.1718 11.4539 11
v -11.7288 10.8828 11
v -12.2567 10.2846 11
v -12.7541 9.66087 11
v -13.2198 9.01312 11
v -13.6527 8.34296 11
v -14.0515 7.65206 11
v -14.4155 6.94214 11
v -14.7436 6.21496 11
v -15.0351 5.47232 11
v -15.2892 4.71608 11
v -15.5052 3.94812 11
v -15.6828 3.17034 11
v -15.8213 2.38468 11
v -15.9205 1.59309 11
v -15.9801 0.797534 11
v -16 -5.4884e-14 11
v -15.9801 -0.797534 11
v -15.9205 -1.59309 11
v -15.8213 -2.38468 11
v -15.6828 -3.17034 11
v -15.5052 -3.94812 11
v -15.2892 -4.71608 11
v -15.0351 -5.47232 11
v -14.7436 -6.21496 11
v -14.4155 -6.94214 11
v -14.0515 -7.65206 11
v -13.6527 -8.34296 11
v -13.2198 -9.01312 11
v -12.7541 -9.66087 11
v -12.2567 -10.2846 11
v -11.7288 -10.8828 11
v -11.1718 -11.4539 11
v -10.587 -11.9965 11
v -9.97584 -12.5093 11
v -9.3399 -12.991 11
v -8.68074 -13.4404 11
v -8 -13.8564 11
v -7.29937 -14.2379 11
v -6.58059 -14.5841 11
v -5.84546 -14.894 11
v -5.09579 -15.1668 11
v -4.33345 -15.402 11
v -3.56033 -15.5988 11
v -2.77837 -15.7569 11
v -1.9895 -15.8758 11
v -1.19568 -15.9553 11
v -0.398891 -15.995 11
v 0.398891 -15.995 11
v 1.19568 -15.9553 11
v 1.9895 -15.8758 11
v 2.77837 -15.7569 11
v 3.56033 -15.5988 11
v 4.33345 -15.402 11
v 5.09579 -15.1668 11
v 5.84546 -14.894 11
v 6.58059 -14.5841 11
v 7.29937 -14.2379 11
v 8 -13.8564 11
v 8.68074 -13.4404 11
v 9.3399 -12.991 11
v 9.97584 -12.5093 11
v 10.587 -11.9965 11
v 11.1718 -11.4539 11
v 11.7288 -10.8828 11
v 12.2567 -10.2846 11
v 12.7541 -9.66087 11
v 13.2198 -9.01312 11
v 13.6527 -8.34296 11
v 14.0515 -7.65206 11
v 14.4155 -6.94214 11
v 14.7436 -6.21496 11
v 15.0351 -5.47232 11
v 15.2892 -4.71608 11
v 15.5052 -3.94812 11
v 15.6828 -3.17034 11
v 15.8213 -2.38468 11
v 15.9205 -1.59309 11
v 15.9801 -0.797534 11
v 20 -4.89859e-15 -11
v 19.9751 0.996918 -11
v 19.9006 1.99136 -11
v 19.7766 2.98085 -11
v 19.6034 3.96292 -11
v 19.3815 4.93515 -11
v 19.1115 5.8951 -11
v 18.7939 6.8404 -11
v 18.4295 7.7687 -11
v 18.0194 8.67767 -11
v 17.5644 9.56508 -11
v 17.0658 10.4287 -11
v 16.5248 11.2664 -11
v 15.9427 12.0761 -11
v 15.3209 12.8558 -11
v 14.661 13.6035 -11
v 13.9647 14.3173 -11
v 13.2337 14.9956 -11
v 12.4698 15.6366 -11
v 11.6749 16.2388 -11
v 10.8509 16.8005 -11
v 10 17.3205 -11
v 9.12421 17.7974 -11
v 8.22574 18.2301 -11
v 7.30682 18.6175 -11
v 6.36973 18.9585 -11
v 5.41681 19.2525 -11
v 4.45042 19.4986 -11
v 3.47296 19.6962 -11
v 2.48687 19.8448 -11
v 1.4946 19.9441 -11
v 0.498614 19.9938 -11
v -0.498614 19.9938 -11
v -1.4946 19.9441 -11
v -2.48687 19.8448 -11
v -3.47296 19.6962 -11
v -4.45042 19.4986 -11
v -5.41681 19.2525 -11
v -6.36973 18.9585 -11
v -7.30682 18.6175 -11
v -8.22574 18.2301 -11
v -9.12421 17.7974 -11
v -10 17.3205 -11
v -10.8509 16.8005 -11
v -11.6749 16.2388 -11
v -12.4698 15.6366 -11
v -13.2337 14.9956 -11
v -13.9647 14.3173 -11
v -14.661 13.6035 -11
v -15.3209 12.8558 -11
v -15.9427 12.0761 -11
v -16.5248 11.2664 -11
v -17.0658 10.4287 -11
v -17.5644 9.56508 -11
v -18.0194 8.67767 -11
v -18.4295 7.7687 -11
v -18.7939 6.8404 -11
v -19.1115 5.8951 -11
v -19.3815 4.93515 -11
v -19.6034 3.96292 -11
v -19.7766 2.98085 -11
v -19.9006 1.99136 -11
v -19.9751 0.996918 -11
v -20 -6.8605e-14 -11
v -19.9751 -0.996918 -11
v -19.9006 -1.99136 -11
v -19.7766 -2.98085 -11
v -19.6034 -3.96292 -11
v -19.3815 -4.93515 -11
v -19.1115 -5.8951 -11
v -18.7939 -6.8404 -11
v -18.4295 -7.7687 -11
v -18.0194 -8.67767 -11
v -17.5644 -9.56508 -11
v -17.0658 -10.4287 -11
v -16.5248 -11.2664 -11
v -15.9427 -12.0761 -11
v -15.3209 -12.8558 -11
v -14.661 -13.6035 -11
v -13.9647 -14.3173 -11
v -13.2337 -14.9956 -11
v -12.4698 -15.6366 -11
v -11.6749 -16.2388 -11
v -10.8509 -16.8005 -11
v -10 -17.3205 -11
v -9.12421 -17.7974 -11
v -8.22574 -18.2301 -11
v -7.30682 -18.6175 -11
v -6.36973 -18.9585 -11
v -5.41681 -19.2525 -11
v -4.45042 -19.4986 -11
v -3.47296 -19.6962 -11
v -2.48687 -19.8448 -11
v -1.4946 -19.9441 -11
v -0.498614 -19.9938 -11
v 0.498614 -19.9938 -11
v 1.4946 -19.9441 -11
v 2.48687 -19.8448 -11
v 3.47296 -19.6962 -11
v 4.45042 -19.4986 -11
v 5.41681 -19.2525 -11
v 6.36973 -18.9585 -11
v 7.30682 -18.6175 -11
v 8.22574 -18.2301 -11
v 9.12421 -17.7974 -11
v 10 -17.3205 -11
v 10.8509 -16.8005 -11
v 11.6749 -16.2388 -11
v 12.4698 -15.6366 -11
v 13.2337 -14.9956 -11
v 13.9647 -14.3173 -11
v 14.661 -13.6035 -11
v 15.3209 -12.8558 -11
v 15.9427 -12.0761 -11
v 16.5248 -11.2664 -11
v 17.0658 -10.4287 -11
v 17.5644 -9.56508 -11
v 18.0194 -8.67767 -11
v 18.4295 -7.7687 -11
v 18.7939 -6.8404 -11
v 19.1115 -5.8951 -11
v 19.3815 -4.93515 -11
v 19.6034 -3.96292 -11
v 19.7766 -2.98085 -11
v 19.9006 -1.99136 -11
v 19.9751 -0.996918 -11
v 16 -3.91887e-15 11
v 15.9801 0.797534 11
v 15.9205 1.59309 11
v 15.8213 2.38468 11
v 15.6828 3.17034 11
v 15.5052 3.94812 11
v 15.2892 4.71608 11
v 15.0351 5.47232 11
v 14.7436 6.21496 11
v 14.4155 6.94214 11
v 14.0515 7.65206 11
v 13.6527 8.34296 11
v 13.2198 9.01312 11
v 12.7541 9.66087 11
v 12.2567 10.2846 11
v 11.7288 10.8828 11
v 11.1718 11.4539 11
v 10.587 11.9965 11
v 9.97584 12.5093 11
v 9.3399 12.991 11
v 8.68074 13.4404 11
v 8 13.8564 11
v 7.29937 14.2379 11
v 6.58059 14.5841 11
v 5.84546 14.894 11
v 5.09579 15.1668 11
v 4.33345 15.402 11
v 3.56033 15.5988 11
v 2.77837 15.7569 11
v 1.9895 15.8758 11
v 1.19568 15.9553 11
v 0.398891 15.995 11
v -0.398891 15.995 11
v -1.19568 15.9553 11
v -1.9895 15.8758 11
v -2.77837 15.7569 11
v -3.56033 15.5988 11
v -4.33345 15.402 11
v -5.09579 15.1668 11
v -5.84546 14.894 11
v -6.58059 14.5841 11
v -7.29937 14.2379 11
v -8 13.8564 11
v -8.68074 13.4404 11
v -9.3399 12.991 11
v -9.97584 12.5093 11
v -10.587 11.9965 11
v -11.1718 11.4539 11
v -11.7288 10.8828 11
v -12.2567 10.2846 11
v -12.7541 9.66087 11
v -13.2198 9.01312 11
v -13.6527 8.34296 11
v -14.0515 7.65206 11
v -14.4155 6.94214 11
v -14.7436 6.21496 11
v -15.0351 5.47232 11
v -15.2892 4.71608 11
v -15.5052 3.94812 11
v -15.6828 3.17034 11
v -15.8213 2.38468 11
v -15.9205 1.59309 11
v -15.9801 0.797534 11
v -16 -5.4884e-14 11
v -15.9801 -0.797534 11
v -15.9205 -1.59309 11
v -15.8213 -2.38468 11
v -15.6828 -3.17034 11
v -15.5052 -3.94812 11
v -15.2892 -4.71608 11
v -15.0351 -5.47232 11
v -14.7436 -6.21496 11
v -14.4155 -6.94214 11
v -14.0515 -7.65206 11
v -13.6527 -8.34296 11
v -13.2198 -9.01312 11
v -12.7541 -9.66087 11
v -12.2567 -10.2846 11
v -11.7288 -10.8828 11
v -11.1718 -11.4539 11
v -10.587 -11.9965 11
v -9.97584 -12.5093 11
v -9.3399 -12.991 11
v -8.68074 -13.4404 11
v -8 -13.8564 11
v -7.29937 -14.2379 11
v -6.58059 -14.5841 11
v -5.84546 -14.894 11
v -5.09579 -15.1668 11
v -4.33345 -15.402 11
v -3.56033 -15.5988 11
v -2.77837 -15.7569 11
v -1.9895 -15.8758 11
v -1.19568 -15.9553 11
v -0.398891 -15.995 11
v 0.398891 -15.995 11
v 1.19568 -15.9553 11
v 1.9895 -15.8758 11
v 2.77837 -15.7569 11
v 3.56033 -15.5988 11
v 4.33345 -15.402 11
v 5.09579 -15.1668 11
v 5.84546 -14.894 11
v 6.58059 -14.5841 11
v 7.29937 -14.2379 11
v 8 -13.8564 11
v 8.68074 -13.4404 11
v 9.3399 -12.991 11
v 9.97584 -12.5093 11
v 10.587 -11.9965 11
v 11.1718 -11.4539 11
v 11.7288 -10.8828 11
v 12.2567 -10.2846 11
v 12.7541 -9.66087 11
v 13.2198 -9.01312 11
v 13.6527 -8.34296 11
v 14.0515 -7.65206 11
v 14.4155 -6.94214 11
v 14.7436 -6.21496 11
v 15.0351 -5.47232 11
v 15.2892 -4.71608 11
v 15.5052 -3.94812 11
v 15.6828 -3.17034 11
v 15.8213 -2.38468 11
v 15.9205 -1.59309 11
v 15.9801 -0.797534 11
v 16 -3.91887e-15 11
v 16 -3.91887e-15 -8
v 15.9801 0.797534 -8
v 15.9205 1.59309 -8
v 15.8213 2.38468 -8
v 15.6828 3.17034 -8
v 15.5052 3.94812 -8
v 15.2892 4.71608 -8
v 15.0351 5.47232 -8
v 14.7436 6.21496 -8
v 14.4155 6.94214 -8
v 14.0515 7.65206 -8
v 13.6527 8.34296 -8
v 13.2198 9.01312 -8
v 12.7541 9.66087 -8
v 12.2567 10.2846 -8
v 11.7288 10.8828 -8
v 11.1718 11.4539 -8
v 10.587 11.9965 -8
v 9.97584 12.5093 -8
v 9.3399 12.991 -8
v 8.68074 13.4404 -8
v 8 13.8564 -8
v 7.29937 14.2379 -8
v 6.58059 14.5841 -8
v 5.84546 14.894 -8
v 5.09579 15.1668 -8
v 4.33345 15.402 -8
v 3.56033 15.5988 -8
v 2.77837 15.7569 -8
v 1.9895 15.8758 -8
v 1.19568 15.9553 -8
v 0.398891 15.995 -8
v -0.398891 15.995 -8
v -1.19568 15.9553 -8
v -1.9895 15.8758 -8
v -2.77837 15.7569 -8
v -3.56033 15.5988 -8
v -4.33345 15.402 -8
v -5.09579 15.1668 -8
v -5.84546 14.894 -8
v -6.58059 14.5841 -8
v -7.29937 14.2379 -8
v -8 13.8564 -8
v -8.68074 13.4404 -8
v -9.3399 12.991 -8
v -9.97584 12.5093 -8
v -10.587 11.9965 -8
v -11.1718 11.4539 -8
v -11.7288 10.8828 -8
v -12.2567 10.2846 -8
v -12.7541 9.66087 -8
v -13.2198 9.01312 -8
v -13.6527 8.34296 -8
v -14.0515 7.65206 -8
v -14.4155 6.94214 -8
v -14.7436 6.21496 -8
v -15.0351 5.47232 -8
v -15.2892 4.71608 -8
v -15.5052 3.94812 -8
v -15.6828 3.17034 -8
v -15.8213 2.38468 -8
v -15.9205 1.59309 -8
v -15.9801 0.797534 -8
v -16 -5.4884e-14 -8
v -15.9801 -0.797534 -8
v -15.9205 -1.59309 -8
v -15.8213 -2.38468 -8
v -15.6828 -3.17034 -8
v -15.5052 -3.94812 -8
v -15.2892 -4.71608 -8
v -15.0351 -5.47232 -8
v -14.7436 -6.21496 -8
v -14.4155 -6.94214 -8
v -14.0515 -7.65206 -8
v -13.6527 -8.34296 -8
v -13.2198 -9.01312 -8
v -12.7541 -9.66087 -8
v -12.2567 -10.2846 -8
v -11.7288 -10.8828 -8
v -11.1718 -11.4539 -8
v -10.587 -11.9965 -8
v -9.97584 -12.5093 -8
v -9.3399 -12.991 -8
v -8.68074 -13.4404 -8
v -8 -13.8564 -8
v -7.29937 -14.2379 -8
v -6.58059 -14.5841 -8
v -5.84546 -14.894 -8
v -5.09579 -15.1668 -8
v -4.33345 -15.402 -8
v -3.56033 -15.5988 -8
v -2.77837 -15.7569 -8
v -1.9895 -15.8758 -8
v -1.19568 -15.9553 -8
v -0.398891 -15.995 -8
v 0.398891 -15.995 -8
v 1.19568 -15.9553 -8
v 1.9895 -15.8758 -8
v 2.77837 -15.7569 -8
v 3.56033 -15.5988 -8
v 4.33345 -15.402 -8
v 5.09579 -15.1668 -8
v 5.84546 -14.894 -8
v 6.58059 -14.5841 -8
v 7.29937 -14.2379 -8
v 8 -13.8564 -8
v 8.68074 -13.4404 -8
v 9.3399 -12.991 -8
v 9.97584 -12.5093 -8
v 10.587 -11.9965 -8
v 11.1718 -11.4539 -8
v 11.7288 -10.8828 -8
v 12.2567 -10.2846 -8
v 12.7541 -9.66087 -8
v 13.2198 -9.01312 -8
v 13.6527 -8.34296 -8
v 14.0515 -7.65206 -8
v 14.4155 -6.94214 -8
v 14.7436 -6.21496 -8
v 15.0351 -5.47232 -8
v 15.2892 -4.71608 -8
v 15.5052 -3.94812 -8
v 15.6828 -3.17034 -8
v 15.8213 -2.38468 -8
v 15.9205 -1.59309 -8
v 15.9801 -0.797534 -8
v 16 -3.91887e-15 -8
v 16 -3.91887e-15 -8
v 15.9801 0.797534 -8
v 15.9205 1.59309 -8
v 15.8213 2.38468 -8
v 15.6828 3.17034 -8
v 15.5052 3.94812 -8
v 15.2892 4.71608 -8
v 15.0351 5.47232 -8
v 14.7436 6.21496 -8
v 14.4155 6.94214 -8
v 14.0515 7.65206 -8
v 13.6527 8.34296 -8
v 13.2198 9.01312 -8
v 12.7541 9.66087 -8
v 12.2567 10.2846 -8
v 11.7288 10.8828 -8
v 11.1718 11.4539 -8
v 10.587 11.9965 -8
v 9.97584 12.5093 -8
v 9.3399 12.991 -8
v 8.68074 13.4404 -8
v 8 13.8564 -8
v 7.29937 14.2379 -8
v 6.58059 14.5841 -8
v 5.84546 14.894 -8
v 5.09579 15.1668 -8
v 4.33345 15.402 -8
v 3.56033 15.5988 -8
v 2.77837 15.7569 -8
v 1.9895 15.8758 -8
v 1.19568 15.9553 -8
v 0.398891 15.995 -8
v -0.398891 15.995 -8
v -1.19568 15.9553 -8
v -1.9895 15.8758 -8
v -2.77837 15.7569 -8
v -3.56033 15.5988 -8
v -4.33345 15.402 -8
v -5.09579 15.1668 -8
v -5.84546 14.894 -8
v -6.58059 14.5841 -8
v -7.29937 14.2379 -8
v -8 13.8564 -8
v -8.68074 13.4404 -8
v -9.3399 12.991 -8
v -9.97584 12.5093 -8
v -10.587 11.9965 -8
v -11.1718 11.4539 -8
v -11.7288 10.8828 -8
v -12.2567 10.2846 -8
v -12.7541 9.66087 -8
v -13.2198 9.01312 -8
v -13.6527 8.34296 -8
v -14.0515 7.65206 -8
v -14.4155 6.94214 -8
v -14.7436 6.21496 -8
v -15.0351 5.47232 -8
v -15.2892 4.71608 -8
v -15.5052 3.94812 -8
v -15.6828 3.17034 -8
v -15.8213 2.38468 -8
v -15.9205 1.59309 -8
v -15.9801 0.797534 -8
v -16 -5.4884e-14 -8
v -15.9801 -0.797534 -8
v -15.9205 -1.59309 -8
v -15.8213 -2.38468 -8
v -15.6828 -3.17034 -8
v -15.5052 -3.94812 -8
v -15.2892 -4.71608 -8
v -15.0351 -5.47232 -8
v -14.7436 -6.21496 -8
v -14.4155 -6.94214 -8
v -14.0515 -7.65206 -8
v -13.6527 -8.34296 -8
v -13.2198 -9.01312 -8
v -12.7541 -9.66087 -8
v -12.2567 -10.2846 -8
v -11.7288 -10.8828 -8
v -11.1718 -11.4539 -8
v -10.587 -11.9965 -8
v -9.97584 -12.5093 -8
v -9.3399 -12.991 -8
v -8.68074 -13.4404 -8
v -8 -13.8564 -8
v -7.29937 -14.2379 -8
v -6.58059 -14.5841 -8
v -5.84546 -14.894 -8
v -5.09579 -15.1668 -8
v -4.33345 -15.402 -8
v -3.56033 -15.5988 -8
v -2.77837 -15.7569 -8
v -1.9895 -15.8758 -8
v -1.19568 -15.9553 -8
v -0.398891 -15.995 -8
v 0.398891 -15.995 -8
v 1.19568 -15.9553 -8
v 1.9895 -15.8758 -8
v 2.77837 -15.7569 -8
v 3.56033 -15.5988 -8
v 4.33345 -15.402 -8
v 5.09579 -15.1668 -8
v 5.84546 -14.894 -8
v 6.58059 -14.5841 -8
v 7.29937 -14.2379 -8
v 8 -13.8564 -8
v 8.68074 -13.4404 -8
v 9.3399 -12.991 -8
v 9.97584 -12.5093 -8
v 10.587 -11.9965 -8
v 11.1718 -11.4539 -8
v 11.7288 -10.8828 -8
v 12.2567 -10.2846 -8
v 12.7541 -9.66087 -8
v 13.2198 -9.01312 -8
v 13.6527 -8.34296 -8
v 14.0515 -7.65206 -8
v 14.4155 -6.94214 -8
v 14.7436 -6.21496 -8
v 15.0351 -5.47232 -8
v 15.2892 -4.71608 -8
v 15.5052 -3.94812 -8
v 15.6828 -3.17034 -8
v 15.8213 -2.38468 -8
v 15.9205 -1.59309 -8
v 15.9801 -0.797534 -8
f 2 1 128
f 2 128 129
f 3 129 130
f 3 2 129
f 4 130 131
f 4 3 130
f 5 131 132
f 5 4 131
f 6 132 133
f 6 5 132
f 7 133 134
f 7 134 135
f 7 6 133
f 8 7 135
f 9 135 136
f 9 8 135
f 10 136 137
f 10 137 138
f 10 9 136
f 11 138 139
f 11 10 138
f 12 11 139
f 12 139 140
f 13 12 140
f 14 13 140
f 14 140 141
f 15 14 141
f 15 141 142
f 16 15 142
f 16 142 143
f 16 143 144
f 17 16 144
f 17 144 145
f 18 17 145
f 18 145 146
f 19 18 146
f 20 19 146
f 20 146 147
f 21 20 147
f 21 147 148
f 22 21 148
f 22 148 149
f 22 149 150
f 23 22 150
f 24 150 151
f 24 23 150
f 25 151 152
f 25 24 151
f 26 152 153
f 26 25 152
f 27 153 154
f 27 26 153
f 28 154 155
f 28 155 156
f 28 27 154
f 29 28 156
f 30 156 157
f 30 29 156
f 31 157 158
f 31 30 157
f 32 158 159
f 32 159 160
f 32 31 158
f 33 160 161
f 33 32 160
f 34 33 161
f 35 161 162
f 35 34 161
f 36 162 163
f 36 35 162
f 37 163 164
f 37 164 165
f 37 36 163
f 38 37 165
f 38 165 166
f 39 38 166
f 40 39 166
f 40 166 167
f 41 40 167
f 41 167 168
f 42 41 168
f 42 168 169
f 42 169 170
f 43 42 170
f 43 170 171
f 44 43 171
f 45 44 171
f 45 171 172
f 45 172 173
f 46 45 173
f 47 46 173
f 47 173 174
f 48 47 174
f 48 174 175
f 49 48 175
f 49 175 176
f 50 49 176
f 50 176 177
f 51 50 177
f 51 177 178
f 52 51 178
f 52 178 179
f 53 52 179
f 53 179 180
f 54 53 180
f 54 180 181
f 54 181 182
f 55 54 182
f 56 55 182
f 56 182 183
f 57 56 183
f 57 183 184
f 58 57 184
f 58 184 185
f 59 185 186
f 59 58 185
f 60 186 187
f 60 59 186
f 61 187 188
f 61 60 187
f 62 188 189
f 62 61 188
f 63 62 189
f 63 189 190
f 64 63 190
f 64 190 191
f 65 64 191
f 65 191 192
f 66 65 192
f 66 192 193
f 66 193 194
f 67 66 194
f 68 67 194
f 68 194 195
f 69 68 195
f 69 195 196
f 69 196 197
f 70 69 197
f 71 70 197
f 71 197 198
f 71 198 199
f 72 71 199
f 73 72 199
f 73 199 200
f 74 73 200
f 74 200 201
f 75 74 201
f 75 201 202
f 76 202 203
f 76 75 202
f 77 203 204
f 77 76 203
f 78 204 205
f 78 205 206
f 78 77 204
f 79 78 206
f 80 206 207
f 80 79 206
f 81 207 208
f 81 80 207
f 82 208 209
f 82 209 210
f 82 81 208
f 83 82 210
f 84 210 211
f 84 211 212
f 84 83 210
f 85 84 212
f 86 212 213
f 86 85 212
f 87 213 214
f 87 86 213
f 88 214 215
f 88 215 216
f 88 87 214
f 89 88 216
f 90 89 216
f 90 216 217
f 91 90 217
f 91 217 218
f 92 91 218
f 92 218 219
f 92 219 220
f 93 92 220
f 94 220 221
f 94 221 222
f 94 93 220
f 95 94 222
f 96 222 223
f 96 95 222
f 97 223 224
f 97 96 223
f 98 224 225
f 98 97 224
f 99 225 226
f 99 98 225
f 100 226 227
f 100 99 226
f 101 227 228
f 101 228 229
f 101 100 227
f 102 101 229
f 103 229 230
f 103 102 229
f 104 230 231
f 104 231 232
f 104 103 230
f 105 232 233
f 105 104 232
f 106 233 234
f 106 105 233
f 107 106 234
f 108 234 235
f 108 235 236
f 108 107 234
f 109 108 236
f 110 236 237
f 110 109 236
f 111 237 238
f 111 110 237
f 112 238 239
f 112 111 238
f 113 112 239
f 113 239 240
f 114 113 240
f 114 240 241
f 115 114 241
f 115 241 242
f 116 115 242
f 116 242 243
f 116 243 244
f 117 116 244
f 118 117 244
f 118 244 245
f 119 118 245
f 119 245 246
f 120 119 246
f 120 246 247
f 121 120 247
f 121 247 248
f 122 121 248
f 122 248 249
f 123 122 249
f 123 249 250
f 124 123 250
f 124 250 251
f 125 251 252
f 125 124 251
f 126 125 252
f 126 252 253
f 127 253 254
f 127 126 253
f 459 333 334
f 459 334 460
f 461 334 335
f 461 460 334
f 458 333 459
f 458 332 333
f 462 461 335
f 462 335 336
f 457 332 458
f 457 331 332
f 463 462 336
f 463 336 337
f 456 331 457
f 456 329 330
f 456 330 331
f 464 463 337
f 464 337 338
f 455 329 456
f 465 464 338
f 465 338 339
f 454 328 329
f 454 329 455
f 466 465 339
f 466 339 340
f 466 340 341
f 453 328 454
f 453 326 327
f 453 327 328
f 467 466 341
f 452 326 453
f 468 467 341
f 468 341 342
f 451 325 326
f 451 326 452
f 469 468 342
f 469 342 343
f 450 325 451
f 450 323 324
f 450 324 325
f 470 469 343
f 470 343 344
f 449 323 450
f 471 470 344
f 471 344 345
f 471 345 346
f 448 323 449
f 448 322 323
f 472 471 346
f 447 321 322
f 447 322 448
f 473 472 346
f 473 346 347
f 473 347 348
f 446 319 320
f 446 320 321
f 446 321 447
f 474 473 348
f 445 319 446
f 475 474 348
f 475 348 349
f 475 349 350
f 444 319 445
f 444 318 319
f 476 475 350
f 443 317 318
f 443 318 444
f 477 476 350
f 477 350 351
f 442 315 316
f 442 316 317
f 442 317 443
f 478 351 352
f 478 477 351
f 441 315 442
f 479 478 352
f 479 352 353
f 440 315 441
f 440 314 315
f 480 479 353
f 480 353 354
f 439 314 440
f 439 313 314
f 481 480 354
f 481 354 355
f 438 313 439
f 438 312 313
f 482 355 356
f 482 481 355
f 437 312 438
f 437 311 312
f 483 356 357
f 483 482 356
f 436 311 437
f 436 310 311
f 484 357 358
f 484 483 357
f 435 310 436
f 435 309 310
f 485 358 359
f 485 359 360
f 485 484 358
f 434 309 435
f 434 307 308
f 434 308 309
f 486 485 360
f 433 307 434
f 487 360 361
f 487 486 360
f 432 306 307
f 432 307 433
f 305 306 432
f 488 361 362
f 488 487 361
f 431 305 432
f 489 362 363
f 489 488 362
f 430 304 305
f 430 305 431
f 490 363 364
f 490 489 363
f 429 303 304
f 429 304 430
f 491 364 365
f 491 490 364
f 428 303 429
f 302 303 428
f 366 492 491
f 366 491 365
f 427 302 428
f 301 302 427
f 493 492 366
f 367 493 366
f 300 301 427
f 300 427 426
f 425 300 426
f 368 493 367
f 368 494 493
f 495 494 368
f 299 300 425
f 369 495 368
f 298 299 425
f 298 424 423
f 298 425 424
f 370 495 369
f 370 496 495
f 297 298 423
f 371 496 370
f 371 497 496
f 296 297 423
f 296 423 422
f 372 498 497
f 372 497 371
f 295 296 422
f 295 422 421
f 373 499 498
f 373 498 372
f 294 421 420
f 294 295 421
f 374 500 499
f 374 499 373
f 293 420 419
f 293 294 420
f 375 501 500
f 375 500 374
f 292 419 418
f 292 293 419
f 376 502 501
f 376 501 375
f 291 417 416
f 291 418 417
f 291 292 418
f 377 503 502
f 377 502 376
f 290 291 416
f 378 503 377
f 378 504 503
f 378 505 504
f 289 290 416
f 289 416 415
f 379 505 378
f 288 289 415
f 288 415 414
f 380 506 505
f 380 505 379
f 287 288 414
f 287 414 413
f 255 506 380
f 255 381 506
f 286 287 413
f 286 412 411
f 286 413 412
f 256 382 381
f 256 381 255
f 285 286 411
f 257 383 382
f 257 384 383
f 257 382 256
f 284 410 409
f 284 411 410
f 284 285 411
f 258 384 257
f 283 284 409
f 283 409 408
f 259 385 384
f 259 384 258
f 282 283 408
f 260 385 259
f 260 386 385
f 260 387 386
f 281 407 406
f 281 408 407
f 281 282 408
f 261 388 387
f 261 387 260
f 280 281 406
f 262 388 261
f 279 406 405
f 279 280 406
f 263 389 388
f 263 390 389
f 263 388 262
f 278 279 405
f 278 405 404
f 264 390 263
f 277 278 404
f 277 404 403
f 265 390 264
f 265 391 390
f 276 277 403
f 276 403 402
f 266 391 265
f 266 392 391
f 275 276 402
f 275 402 401
f 267 392 266
f 267 393 392
f 267 394 393
f 274 275 401
f 274 401 400
f 268 394 267
f 268 395 394
f 273 274 400
f 273 399 398
f 273 400 399
f 269 395 268
f 272 273 398
f 272 398 397
f 270 396 395
f 270 397 396
f 270 395 269
f 271 272 397
f 271 397 270
f 584 586 585
f 588 587 586
f 583 586 584
f 590 589 588
f 581 588 586
f 581 586 583
f 581 583 582
f 592 591 590
f 579 581 580
f 578 581 579
f 595 593 592
f 595 594 593
f 575 577 576
f 575 578 577
f 597 588 581
f 597 590 588
f 597 595 592
f 597 592 590
f 597 581 578
f 597 596 595
f 598 578 575
f 598 597 578
f 573 575 574
f 600 599 598
f 571 573 572
f 571 575 573
f 601 600 598
f 569 571 570
f 603 602 601
f 567 569 568
f 567 571 569
f 605 604 603
f 605 603 601
f 606 605 601
f 565 567 566
f 564 567 565
f 609 608 607
f 562 564 563
f 610 609 607
f 561 564 562
f 611 610 607
f 559 564 561
f 559 561 560
f 613 612 611
f 614 611 607
f 614 613 611
f 614 607 606
f 556 558 557
f 556 559 558
f 555 559 556
f 617 616 615
f 552 554 553
f 552 555 554
f 620 619 618
f 621 620 618
f 622 621 618
f 548 550 549
f 548 551 550
f 548 552 551
f 548 555 552
f 624 618 617
f 624 623 622
f 624 617 615
f 624 622 618
f 625 615 614
f 625 614 606
f 625 624 615
f 546 548 547
f 627 626 625
f 544 546 545
f 544 548 546
f 543 548 544
f 539 541 540
f 539 542 541
f 539 543 542
f 539 548 543
f 539 555 548
f 507 630 629
f 507 631 630
f 507 632 631
f 538 555 539
f 508 507 629
f 508 628 627
f 508 629 628
f 508 625 606
f 508 627 625
f 535 537 536
f 535 538 537
f 511 509 508
f 511 510 509
f 512 606 601
f 512 511 508
f 512 508 606
f 532 555 538
f 532 538 535
f 532 534 533
f 532 535 534
f 532 559 555
f 514 564 559
f 514 513 512
f 514 567 564
f 514 512 601
f 514 559 532
f 514 598 575
f 514 575 571
f 514 601 598
f 514 571 567
f 530 532 531
f 516 515 514
f 529 532 530
f 528 532 529
f 526 514 532
f 526 517 516
f 526 528 527
f 526 516 514
f 526 532 528
f 520 518 517
f 520 519 518
f 520 517 526
f 524 526 525
f 523 521 520
f 523 522 521
f 523 520 526
f 523 526 524
f 634 760 633
f 634 761 760
f 635 762 761
f 635 761 634
f 636 763 762
f 636 762 635
f 637 764 763
f 637 763 636
f 638 765 764
f 638 766 765
f 638 764 637
f 639 766 638
f 640 767 766
f 640 768 767
f 640 766 639
f 641 769 768
f 641 768 640
f 642 769 641
f 643 770 769
f 643 771 770
f 643 769 642
f 644 771 643
f 645 771 644
f 645 772 771
f 645 773 772
f 646 773 645
f 647 773 646
f 647 774 773
f 648 774 647
f 648 775 774
f 648 776 775
f 649 776 648
f 650 776 649
f 650 777 776
f 651 777 650
f 651 778 777
f 652 778 651
f 652 779 778
f 652 780 779
f 653 780 652
f 654 780 653
f 654 781 780
f 655 781 654
f 655 782 781
f 656 783 782
f 656 782 655
f 657 784 783
f 657 783 656
f 658 785 784
f 658 784 657
f 659 786 785
f 659 785 658
f 660 787 786
f 660 786 659
f 661 788 787
f 661 787 660
f 662 789 788
f 662 790 789
f 662 788 661
f 663 790 662
f 664 791 790
f 664 790 663
f 665 792 791
f 665 791 664
f 666 793 792
f 666 794 793
f 666 792 665
f 667 794 666
f 668 795 794
f 668 794 667
f 669 796 795
f 669 797 796
f 669 795 668
f 670 797 669
f 670 798 797
f 671 798 670
f 672 798 671
f 672 799 798
f 673 799 672
f 673 800 799
f 674 800 673
f 674 801 800
f 675 801 674
f 675 802 801
f 676 802 675
f 676 803 802
f 676 804 803
f 677 804 676
f 678 804 677
f 678 805 804
f 679 805 678
f 679 806 805
f 680 806 679
f 680 807 806
f 680 808 807
f 681 808 680
f 682 808 681
f 682 809 808
f 683 809 682
f 683 810 809
f 683 811 810
f 684 811 683
f 685 811 684
f 685 812 811
f 686 812 685
f 686 813 812
f 686 814 813
f 687 814 686
f 688 814 687
f 688 815 814
f 689 815 688
f 689 816 815
f 690 816 689
f 690 817 816
f 691 818 817
f 691 819 818
f 691 817 690
f 692 819 691
f 693 820 819
f 693 819 692
f 694 821 820
f 694 820 693
f 695 821 694
f 695 822 821
f 696 822 695
f 696 823 822
f 697 823 696
f 697 824 823
f 698 824 697
f 698 825 824
f 699 825 698
f 699 826 825
f 699 827 826
f 700 827 699
f 701 827 700
f 701 828 827
f 701 829 828
f 702 829 701
f 703 829 702
f 703 830 829
f 704 830 703
f 704 831 830
f 705 831 704
f 705 832 831
f 706 832 705
f 706 833 832
f 707 833 706
f 707 834 833
f 708 835 834
f 708 834 707
f 709 836 835
f 709 835 708
f 710 837 836
f 710 838 837
f 710 836 709
f 711 838 710
f 712 839 838
f 712 838 711
f 713 840 839
f 713 841 840
f 713 839 712
f 714 841 713
f 715 842 841
f 715 841 714
f 716 843 842
f 716 842 715
f 717 844 843
f 717 843 716
f 718 845 844
f 718 844 717
f 719 846 845
f 719 847 846
f 719 845 718
f 720 847 719
f 721 847 720
f 721 848 847
f 721 849 848
f 722 849 721
f 723 849 722
f 723 850 849
f 724 850 723
f 724 851 850
f 725 852 851
f 725 851 724
f 726 853 852
f 726 852 725
f 727 854 853
f 727 853 726
f 728 855 854
f 728 854 727
f 729 856 855
f 729 855 728
f 730 857 856
f 730 856 729
f 731 858 857
f 731 859 858
f 731 857 730
f 732 859 731
f 733 860 859
f 733 859 732
f 734 861 860
f 734 862 861
f 734 860 733
f 735 862 734
f 736 863 862
f 736 862 735
f 737 864 863
f 737 863 736
f 738 865 864
f 738 864 737
f 739 866 865
f 739 865 738
f 740 867 866
f 740 866 739
f 741 868 867
f 741 867 740
f 742 869 868
f 742 868 741
f 743 870 869
f 743 869 742
f 744 871 870
f 744 870 743
f 745 872 871
f 745 873 872
f 745 871 744
f 746 873 745
f 747 873 746
f 747 874 873
f 748 874 747
f 748 875 874
f 749 875 748
f 749 876 875
f 749 877 876
f 750 877 749
f 751 877 750
f 751 878 877
f 751 879 878
f 752 879 751
f 753 879 752
f 753 880 879
f 753 881 880
f 754 881 753
f 755 881 754
f 755 882 881
f 755 883 882
f 756 883 755
f 757 883 756
f 757 884 883
f 757 885 884
f 758 885 757
f 759 886 885
f 759 885 758
f 968 966 967
f 963 964 965
f 963 965 966
f 969 966 968
f 961 962 963
f 971 969 970
f 959 963 966
f 959 961 963
f 959 960 961
f 973 971 972
f 958 966 969
f 958 959 966
f 958 969 971
f 975 973 974
f 955 971 973
f 955 958 971
f 955 973 975
f 955 956 957
f 955 957 958
f 977 975 976
f 978 955 975
f 978 975 977
f 953 954 955
f 950 951 952
f 950 952 953
f 948 949 950
f 984 981 982
f 984 982 983
f 947 955 978
f 947 953 955
f 947 950 953
f 947 978 979
f 947 948 950
f 985 981 984
f 985 979 980
f 985 980 981
f 987 985 986
f 989 987 988
f 990 987 989
f 941 947 979
f 941 942 943
f 941 943 944
f 941 944 945
f 941 945 946
f 941 946 947
f 991 985 987
f 991 987 990
f 939 940 941
f 994 992 993
f 995 991 992
f 995 992 994
f 996 985 991
f 996 991 995
f 996 979 985
f 935 936 937
f 997 979 996
f 934 939 941
f 934 937 938
f 934 935 937
f 934 938 939
f 999 997 998
f 999 941 979
f 999 979 997
f 999 933 934
f 999 934 941
f 930 931 932
f 1003 1001 1002
f 928 929 930
f 928 930 932
f 1004 1001 1003
f 927 932 933
f 927 928 932
f 1005 1001 1004
f 924 925 926
f 924 926 927
f 924 927 933
f 1008 1006 1007
f 923 924 933
f 1009 1000 1001
f 1009 1005 1006
f 1009 1001 1005
f 1009 1006 1008
f 922 999 1000
f 922 933 999
f 922 923 933
f 1010 1000 1009
f 919 920 921
f 919 921 922
f 887 1011 1012
f 888 1000 1010
f 888 922 1000
f 888 1011 887
f 888 1010 1011
f 916 917 918
f 916 918 919
f 915 919 922
f 915 916 919
f 891 888 889
f 891 889 890
f 913 914 915
f 893 891 892
f 893 888 891
f 912 915 922
f 912 913 915
f 896 894 895
f 909 910 911
f 897 894 896
f 908 909 911
f 898 893 894
f 898 922 888
f 898 912 922
f 898 888 893
f 898 894 897
f 899 912 898
f 906 907 908
f 906 908 911
f 901 899 900
f 904 905 906
f 904 911 912
f 904 906 911
f 902 904 912
f 902 912 899
f 902 899 901
f 903 904 902
