# Cadless export: model
v -10 -8 5
v -10 -8 14.5
v 10 -8 14.5
v 10 -8 5
v 20 -8 5
v 20 -8 0
v -20 -8 0
v -20 -8 5
v 5 -8 9
v 4.99378 -8 9.24923
v 4.97515 -8 9.49784
v 4.94415 -8 9.74521
v 4.90086 -8 9.99073
v 4.84539 -8 10.2338
v 4.77786 -8 10.4738
v 4.69846 -8 10.7101
v 4.60738 -8 10.9422
v 4.50484 -8 11.1694
v 4.39111 -8 11.3913
v 4.26645 -8 11.6072
v 4.13119 -8 11.8166
v 3.98566 -8 12.019
v 3.83022 -8 12.2139
v 3.66526 -8 12.4009
v 3.49118 -8 12.5793
v 3.30843 -8 12.7489
v 3.11745 -8 12.9092
v 2.91872 -8 13.0597
v 2.71273 -8 13.2001
v 2.5 -8 13.3301
v 2.28105 -8 13.4494
v 2.05644 -8 13.5575
v 1.82671 -8 13.6544
v 1.59243 -8 13.7396
v 1.3542 -8 13.8131
v 1.1126 -8 13.8746
v 0.868241 -8 13.924
v 0.621719 -8 13.9612
v 0.37365 -8 13.986
v 0.124653 -8 13.9984
v -0.124653 -8 13.9984
v -0.37365 -8 13.986
v -0.621719 -8 13.9612
v -0.868241 -8 13.924
v -1.1126 -8 13.8746
v -1.3542 -8 13.8131
v -1.59243 -8 13.7396
v -1.82671 -8 13.6544
v -2.05644 -8 13.5575
v -2.28105 -8 13.4494
v -2.5 -8 13.3301
v -2.71273 -8 13.2001
v -2.91872 -8 13.0597
v -3.11745 -8 12.9092
v -3.30843 -8 12.7489
v -3.49118 -8 12.5793
v -3.66526 -8 12.4009
v -3.83022 -8 12.2139
v -3.98566 -8 12.019
v -4.13119 -8 11.8166
v -4.26645 -8 11.6072
v -4.39111 -8 11.3913
v -4.50484 -8 11.1694
v -4.60738 -8 10.9422
v -4.69846 -8 10.7101
v -4.77786 -8 10.4738
v -4.84539 -8 10.2338
v -4.90086 -8 9.99073
v -4.94415 -8 9.74521
v -4.97515 -8 9.49784
v -4.99378 -8 9.24923
v -5 -8 9
v -4.99378 -8 8.75077
v -4.97515 -8 8.50216
v -4.94415 -8 8.25479
v -4.90086 -8 8.00927
v -4.84539 -8 7.76621
v -4.77786 -8 7.52622
v -4.69846 -8 7.2899
v -4.60738 -8 7.05783
v -4.50484 -8 6.83058
v -4.39111 -8 6.60873
v -4.26645 -8 6.39282
v -4.13119 -8 6.1834
v -3.98566 -8 5.98098
v -3.83022 -8 5.78606
v -3.66526 -8 5.59914
v -3.49118 -8 5.42067
v -3.30843 -8 5.25109
v -3.11745 -8 5.09084
v -2.91872 -8 4.94031
v -2.71273 -8 4.79987
v -2.5 -8 4.66987
v -2.28105 -8 4.55064
v -2.05644 -8 4.44247
v -1.82671 -8 4.34563
v -1.59243 -8 4.26036
v -1.3542 -8 4.18688
v -1.1126 -8 4.12536
v -0.868241 -8 4.07596
v -0.621719 -8 4.0388
v -0.37365 -8 4.01398
v -0.124653 -8 4.00155
v 0.124653 -8 4.00155
v 0.37365 -8 4.01398
v 0.621719 -8 4.0388
v 0.868241 -8 4.07596
v 1.1126 -8 4.12536
v 1.3542 -8 4.18688
v 1.59243 -8 4.26036
v 1.82671 -8 4.34563
v 2.05644 -8 4.44247
v 2.28105 -8 4.55064
v 2.5 -8 4.66987
v 2.71273 -8 4.79987
v 2.91872 -8 4.94031
v 3.11745 -8 5.09084
v 3.30843 -8 5.25109
v 3.49118 -8 5.42067
v 3.66526 -8 5.59914
v 3.83022 -8 5.78606
v 3.98566 -8 5.98098
v 4.13119 -8 6.1834
v 4.26645 -8 6.39282
v 4.39111 -8 6.60873
v 4.50484 -8 6.83058
v 4.60738 -8 7.05783
v 4.69846 -8 7.2899
v 4.77786 -8 7.52622
v 4.84539 -8 7.76621
v 4.90086 -8 8.00927
v 4.94415 -8 8.25479
v 4.97515 -8 8.50216
v 4.99378 -8 8.75077
v -10 -8 5
v -10 -8 14.5
v -10 8 5
v -10 8 14.5
v -10 -8 14.5
v -8.5 -6.5 16
v 10 -8 14.5
v 8.5 -6.5 16
v -20 8 5
v -10 8 5
v -20 -8 5
v -10 -8 5
v -12.8 -5.38845e-16 5
v -12.8027 0.109661 5
v -12.8109 0.219049 5
v -12.8246 0.327893 5
v -12.8436 0.435922 5
v -12.868 0.542866 5
v -12.8977 0.648461 5
v -12.9327 0.752444 5
v -12.9728 0.854557 5
v -13.0179 0.954544 5
v -13.0679 1.05216 5
v -13.1228 1.14716 5
v -13.1823 1.2393 5
v -13.2463 1.32837 5
v -13.3147 1.41413 5
v -13.3873 1.49638 5
v -13.4639 1.57491 5
v -13.5443 1.64952 5
v -13.6283 1.72003 5
v -13.7158 1.78626 5
v -13.8064 1.84806 5
v -13.9 1.90526 5
v -13.9963 1.95772 5
v -14.0952 2.00531 5
v -14.1962 2.04792 5
v -14.2993 2.08544 5
v -14.4042 2.11777 5
v -14.5105 2.14484 5
v -14.618 2.16658 5
v -14.7264 2.18293 5
v -14.8356 2.19385 5
v -14.9452 2.19932 5
v -15.0548 2.19932 5
v -15.1644 2.19385 5
v -15.2736 2.18293 5
v -15.382 2.16658 5
v -15.4895 2.14484 5
v -15.5958 2.11777 5
v -15.7007 2.08544 5
v -15.8038 2.04792 5
v -15.9048 2.00531 5
v -16.0037 1.95772 5
v -16.1 1.90526 5
v -16.1936 1.84806 5
v -16.2842 1.78626 5
v -16.3717 1.72003 5
v -16.4557 1.64952 5
v -16.5361 1.57491 5
v -16.6127 1.49638 5
v -16.6853 1.41413 5
v -16.7537 1.32837 5
v -16.8177 1.2393 5
v -16.8772 1.14716 5
v -16.9321 1.05216 5
v -16.9821 0.954544 5
v -17.0272 0.854557 5
v -17.0673 0.752444 5
v -17.1023 0.648461 5
v -17.132 0.542866 5
v -17.1564 0.435922 5
v -17.1754 0.327893 5
v -17.1891 0.219049 5
v -17.1973 0.109661 5
v -17.2 -7.54655e-15 5
v -17.1973 -0.109661 5
v -17.1891 -0.219049 5
v -17.1754 -0.327893 5
v -17.1564 -0.435922 5
v -17.132 -0.542866 5
v -17.1023 -0.648461 5
v -17.0673 -0.752444 5
v -17.0272 -0.854557 5
v -16.9821 -0.954544 5
v -16.9321 -1.05216 5
v -16.8772 -1.14716 5
v -16.8177 -1.2393 5
v -16.7537 -1.32837 5
v -16.6853 -1.41413 5
v -16.6127 -1.49638 5
v -16.5361 -1.57491 5
v -16.4557 -1.64952 5
v -16.3717 -1.72003 5
v -16.2842 -1.78626 5
v -16.1936 -1.84806 5
v -16.1 -1.90526 5
v -16.0037 -1.95772 5
v -15.9048 -2.00531 5
v -15.8038 -2.04792 5
v -15.7007 -2.08544 5
v -15.5958 -2.11777 5
v -15.4895 -2.14484 5
v -15.382 -2.16658 5
v -15.2736 -2.18293 5
v -15.1644 -2.19385 5
v -15.0548 -2.19932 5
v -14.9452 -2.19932 5
v -14.8356 -2.19385 5
v -14.7264 -2.18293 5
v -14.618 -2.16658 5
v -14.5105 -2.14484 5
v -14.4042 -2.11777 5
v -14.2993 -2.08544 5
v -14.1962 -2.04792 5
v -14.0952 -2.00531 5
v -13.9963 -1.95772 5
v -13.9 -1.90526 5
v -13.8064 -1.84806 5
v -13.7158 -1.78626 5
v -13.6283 -1.72003 5
v -13.5443 -1.64952 5
v -13.4639 -1.57491 5
v -13.3873 -1.49638 5
v -13.3147 -1.41413 5
v -13.2463 -1.32837 5
v -13.1823 -1.2393 5
v -13.1228 -1.14716 5
v -13.0679 -1.05216 5
v -13.0179 -0.954544 5
v -12.9728 -0.854557 5
v -12.9327 -0.752444 5
v -12.8977 -0.648461 5
v -12.868 -0.542866 5
v -12.8436 -0.435922 5
v -12.8246 -0.327893 5
v -12.8109 -0.219049 5
v -12.8027 -0.109661 5
v 10 -8 5
v 10 -8 14.5
v 10 8 5
v 10 8 14.5
v -20 -8 0
v -20 -8 5
v -20 8 0
v -20 8 5
v 10 8 5
v 20 8 5
v 10 -8 5
v 20 -8 5
v 17.2 -5.38845e-16 5
v 17.1973 0.109661 5
v 17.1891 0.219049 5
v 17.1754 0.327893 5
v 17.1564 0.435922 5
v 17.132 0.542866 5
v 17.1023 0.648461 5
v 17.0673 0.752444 5
v 17.0272 0.854557 5
v 16.9821 0.954544 5
v 16.9321 1.05216 5
v 16.8772 1.14716 5
v 16.8177 1.2393 5
v 16.7537 1.32837 5
v 16.6853 1.41413 5
v 16.6127 1.49638 5
v 16.5361 1.57491 5
v 16.4557 1.64952 5
v 16.3717 1.72003 5
v 16.2842 1.78626 5
v 16.1936 1.84806 5
v 16.1 1.90526 5
v 16.0037 1.95772 5
v 15.9048 2.00531 5
v 15.8038 2.04792 5
v 15.7007 2.08544 5
v 15.5958 2.11777 5
v 15.4895 2.14484 5
v 15.382 2.16658 5
v 15.2736 2.18293 5
v 15.1644 2.19385 5
v 15.0548 2.19932 5
v 14.9452 2.19932 5
v 14.8356 2.19385 5
v 14.7264 2.18293 5
v 14.618 2.16658 5
v 14.5105 2.14484 5
v 14.4042 2.11777 5
v 14.2993 2.08544 5
v 14.1962 2.04792 5
v 14.0952 2.00531 5
v 13.9963 1.95772 5
v 13.9 1.90526 5
v 13.8064 1.84806 5
v 13.7158 1.78626 5
v 13.6283 1.72003 5
v 13.5443 1.64952 5
v 13.4639 1.57491 5
v 13.3873 1.49638 5
v 13.3147 1.41413 5
v 13.2463 1.32837 5
v 13.1823 1.2393 5
v 13.1228 1.14716 5
v 13.0679 1.05216 5
v 13.0179 0.954544 5
v 12.9728 0.854557 5
v 12.9327 0.752444 5
v 12.8977 0.648461 5
v 12.868 0.542866 5
v 12.8436 0.435922 5
v 12.8246 0.327893 5
v 12.8109 0.219049 5
v 12.8027 0.109661 5
v 12.8 -7.54655e-15 5
v 12.8027 -0.109661 5
v 12.8109 -0.219049 5
v 12.8246 -0.327893 5
v 12.8436 -0.435922 5
v 12.868 -0.542866 5
v 12.8977 -0.648461 5
v 12.9327 -0.752444 5
v 12.9728 -0.854557 5
v 13.0179 -0.954544 5
v 13.0679 -1.05216 5
v 13.1228 -1.14716 5
v 13.1823 -1.2393 5
v 13.2463 -1.32837 5
v 13.3147 -1.41413 5
v 13.3873 -1.49638 5
v 13.4639 -1.57491 5
v 13.5443 -1.64952 5
v 13.6283 -1.72003 5
v 13.7158 -1.78626 5
v 13.8064 -1.84806 5
v 13.9 -1.90526 5
v 13.9963 -1.95772 5
v 14.0952 -2.00531 5
v 14.1962 -2.04792 5
v 14.2993 -2.08544 5
v 14.4042 -2.11777 5
v 14.5105 -2.14484 5
v 14.618 -2.16658 5
v 14.7264 -2.18293 5
v 14.8356 -2.19385 5
v 14.9452 -2.19932 5
v 15.0548 -2.19932 5
v 15.1644 -2.19385 5
v 15.2736 -2.18293 5
v 15.382 -2.16658 5
v 15.4895 -2.14484 5
v 15.5958 -2.11777 5
v 15.7007 -2.08544 5
v 15.8038 -2.04792 5
v 15.9048 -2.00531 5
v 16.0037 -1.95772 5
v 16.1 -1.90526 5
v 16.1936 -1.84806 5
v 16.2842 -1.78626 5
v 16.3717 -1.72003 5
v 16.4557 -1.64952 5
v 16.5361 -1.57491 5
v 16.6127 -1.49638 5
v 16.6853 -1.41413 5
v 16.7537 -1.32837 5
v 16.8177 -1.2393 5
v 16.8772 -1.14716 5
v 16.9321 -1.05216 5
v 16.9821 -0.954544 5
v 17.0272 -0.854557 5
v 17.0673 -0.752444 5
v 17.1023 -0.648461 5
v 17.132 -0.542866 5
v 17.1564 -0.435922 5
v 17.1754 -0.327893 5
v 17.1891 -0.219049 5
v 17.1973 -0.109661 5
v -20 -8 0
v -20 8 0
v 20 -8 0
v 20 8 0
v -12.8 -5.38845e-16 0
v -12.8027 0.109661 0
v -12.8109 0.219049 0
v -12.8246 0.327893 0
v -12.8436 0.435922 0
v -12.868 0.542866 0
v -12.8977 0.648461 0
v -12.9327 0.752444 0
v -12.9728 0.854557 0
v -13.0179 0.954544 0
v -13.0679 1.05216 0
v -13.1228 1.14716 0
v -13.1823 1.2393 0
v -13.2463 1.32837 0
v -13.3147 1.41413 0
v -13.3873 1.49638 0
v -13.4639 1.57491 0
v -13.5443 1.64952 0
v -13.6283 1.72003 0
v -13.7158 1.78626 0
v -13.8064 1.84806 0
v -13.9 1.90526 0
v -13.9963 1.95772 0
v -14.0952 2.00531 0
v -14.1962 2.04792 0
v -14.2993 2.08544 0
v -14.4042 2.11777 0
v -14.5105 2.14484 0
v -14.618 2.16658 0
v -14.7264 2.18293 0
v -14.8356 2.19385 0
v -14.9452 2.19932 0
v -15.0548 2.19932 0
v -15.1644 2.19385 0
v -15.2736 2.18293 0
v -15.382 2.16658 0
v -15.4895 2.14484 0
v -15.5958 2.11777 0
v -15.7007 2.08544 0
v -15.8038 2.04792 0
v -15.9048 2.00531 0
v -16.0037 1.95772 0
v -16.1 1.90526 0
v -16.1936 1.84806 0
v -16.2842 1.78626 0
v -16.3717 1.72003 0
v -16.4557 1.64952 0
v -16.5361 1.57491 0
v -16.6127 1.49638 0
v -16.6853 1.41413 0
v -16.7537 1.32837 0
v -16.8177 1.2393 0
v -16.8772 1.14716 0
v -16.9321 1.05216 0
v -16.9821 0.954544 0
v -17.0272 0.854557 0
v -17.0673 0.752444 0
v -17.1023 0.648461 0
v -17.132 0.542866 0
v -17.1564 0.435922 0
v -17.1754 0.327893 0
v -17.1891 0.219049 0
v -17.1973 0.109661 0
v -17.2 -7.54655e-15 0
v -17.1973 -0.109661 0
v -17.1891 -0.219049 0
v -17.1754 -0.327893 0
v -17.1564 -0.435922 0
v -17.132 -0.542866 0
v -17.1023 -0.648461 0
v -17.0673 -0.752444 0
v -17.0272 -0.854557 0
v -16.9821 -0.954544 0
v -16.9321 -1.05216 0
v -16.8772 -1.14716 0
v -16.8177 -1.2393 0
v -16.7537 -1.32837 0
v -16.6853 -1.41413 0
v -16.6127 -1.49638 0
v -16.5361 -1.57491 0
v -16.4557 -1.64952 0
v -16.3717 -1.72003 0
v -16.2842 -1.78626 0
v -16.1936 -1.84806 0
v -16.1 -1.90526 0
v -16.0037 -1.95772 0
v -15.9048 -2.00531 0
v -15.8038 -2.04792 0
v -15.7007 -2.08544 0
v -15.5958 -2.11777 0
v -15.4895 -2.14484 0
v -15.382 -2.16658 0
v -15.2736 -2.18293 0
v -15.1644 -2.19385 0
v -15.0548 -2.19932 0
v -14.9452 -2.19932 0
v -14.8356 -2.19385 0
v -14.7264 -2.18293 0
v -14.618 -2.16658 0
v -14.5105 -2.14484 0
v -14.4042 -2.11777 0
v -14.2993 -2.08544 0
v -14.1962 -2.04792 0
v -14.0952 -2.00531 0
v -13.9963 -1.95772 0
v -13.9 -1.90526 0
v -13.8064 -1.84806 0
v -13.7158 -1.78626 0
v -13.6283 -1.72003 0
v -13.5443 -1.64952 0
v -13.4639 -1.57491 0
v -13.3873 -1.49638 0
v -13.3147 -1.41413 0
v -13.2463 -1.32837 0
v -13.1823 -1.2393 0
v -13.1228 -1.14716 0
v -13.0679 -1.05216 0
v -13.0179 -0.954544 0
v -12.9728 -0.854557 0
v -12.9327 -0.752444 0
v -12.8977 -0.648461 0
v -12.868 -0.542866 0
v -12.8436 -0.435922 0
v -12.8246 -0.327893 0
v -12.8109 -0.219049 0
v -12.8027 -0.109661 0
v 17.2 -5.38845e-16 0
v 17.1973 0.109661 0
v 17.1891 0.219049 0
v 17.1754 0.327893 0
v 17.1564 0.435922 0
v 17.132 0.542866 0
v 17.1023 0.648461 0
v 17.0673 0.752444 0
v 17.0272 0.854557 0
v 16.9821 0.954544 0
v 16.9321 1.05216 0
v 16.8772 1.14716 0
v 16.8177 1.2393 0
v 16.7537 1.32837 0
v 16.6853 1.41413 0
v 16.6127 1.49638 0
v 16.5361 1.57491 0
v 16.4557 1.64952 0
v 16.3717 1.72003 0
v 16.2842 1.78626 0
v 16.1936 1.84806 0
v 16.1 1.90526 0
v 16.0037 1.95772 0
v 15.9048 2.00531 0
v 15.8038 2.04792 0
v 15.7007 2.08544 0
v 15.5958 2.11777 0
v 15.4895 2.14484 0
v 15.382 2.16658 0
v 15.2736 2.18293 0
v 15.1644 2.19385 0
v 15.0548 2.19932 0
v 14.9452 2.19932 0
v 14.8356 2.19385 0
v 14.7264 2.18293 0
v 14.618 2.16658 0
v 14.5105 2.14484 0
v 14.4042 2.11777 0
v 14.2993 2.08544 0
v 14.1962 2.04792 0
v 14.0952 2.00531 0
v 13.9963 1.95772 0
v 13.9 1.90526 0
v 13.8064 1.84806 0
v 13.7158 1.78626 0
v 13.6283 1.72003 0
v 13.5443 1.64952 0
v 13.4639 1.57491 0
v 13.3873 1.49638 0
v 13.3147 1.41413 0
v 13.2463 1.32837 0
v 13.1823 1.2393 0
v 13.1228 1.14716 0
v 13.0679 1.05216 0
v 13.0179 0.954544 0
v 12.9728 0.854557 0
v 12.9327 0.752444 0
v 12.8977 0.648461 0
v 12.868 0.542866 0
v 12.8436 0.435922 0
v 12.8246 0.327893 0
v 12.8109 0.219049 0
v 12.8027 0.109661 0
v 12.8 -7.54655e-15 0
v 12.8027 -0.109661 0
v 12.8109 -0.219049 0
v 12.8246 -0.327893 0
v 12.8436 -0.435922 0
v 12.868 -0.542866 0
v 12.8977 -0.648461 0
v 12.9327 -0.752444 0
v 12.9728 -0.854557 0
v 13.0179 -0.954544 0
v 13.0679 -1.05216 0
v 13.1228 -1.14716 0
v 13.1823 -1.2393 0
v 13.2463 -1.32837 0
v 13.3147 -1.41413 0
v 13.3873 -1.49638 0
v 13.4639 -1.57491 0
v 13.5443 -1.64952 0
v 13.6283 -1.72003 0
v 13.7158 -1.78626 0
v 13.8064 -1.84806 0
v 13.9 -1.90526 0
v 13.9963 -1.95772 0
v 14.0952 -2.00531 0
v 14.1962 -2.04792 0
v 14.2993 -2.08544 0
v 14.4042 -2.11777 0
v 14.5105 -2.14484 0
v 14.618 -2.16658 0
v 14.7264 -2.18293 0
v 14.8356 -2.19385 0
v 14.9452 -2.19932 0
v 15.0548 -2.19932 0
v 15.1644 -2.19385 0
v 15.2736 -2.18293 0
v 15.382 -2.16658 0
v 15.4895 -2.14484 0
v 15.5958 -2.11777 0
v 15.7007 -2.08544 0
v 15.8038 -2.04792 0
v 15.9048 -2.00531 0
v 16.0037 -1.95772 0
v 16.1 -1.90526 0
v 16.1936 -1.84806 0
v 16.2842 -1.78626 0
v 16.3717 -1.72003 0
v 16.4557 -1.64952 0
v 16.5361 -1.57491 0
v 16.6127 -1.49638 0
v 16.6853 -1.41413 0
v 16.7537 -1.32837 0
v 16.8177 -1.2393 0
v 16.8772 -1.14716 0
v 16.9321 -1.05216 0
v 16.9821 -0.954544 0
v 17.0272 -0.854557 0
v 17.0673 -0.752444 0
v 17.1023 -0.648461 0
v 17.132 -0.542866 0
v 17.1564 -0.435922 0
v 17.1754 -0.327893 0
v 17.1891 -0.219049 0
v 17.1973 -0.109661 0
v 20 -8 0
v 20 -8 5
v 20 8 0
v 20 8 5
v 5 -8 9
v 4.99378 -8 9.24923
v 4.97515 -8 9.49784
v 4.94415 -8 9.74521
v 4.90086 -8 9.99073
v 4.84539 -8 10.2338
v 4.77786 -8 10.4738
v 4.69846 -8 10.7101
v 4.60738 -8 10.9422
v 4.50484 -8 11.1694
v 4.39111 -8 11.3913
v 4.26645 -8 11.6072
v 4.13119 -8 11.8166
v 3.98566 -8 12.019
v 3.83022 -8 12.2139
v 3.66526 -8 12.4009
v 3.49118 -8 12.5793
v 3.30843 -8 12.7489
v 3.11745 -8 12.9092
v 2.91872 -8 13.0597
v 2.71273 -8 13.2001
v 2.5 -8 13.3301
v 2.28105 -8 13.4494
v 2.05644 -8 13.5575
v 1.82671 -8 13.6544
v 1.59243 -8 13.7396
v 1.3542 -8 13.8131
v 1.1126 -8 13.8746
v 0.868241 -8 13.924
v 0.621719 -8 13.9612
v 0.37365 -8 13.986
v 0.124653 -8 13.9984
v -0.124653 -8 13.9984
v -0.37365 -8 13.986
v -0.621719 -8 13.9612
v -0.868241 -8 13.924
v -1.1126 -8 13.8746
v -1.3542 -8 13.8131
v -1.59243 -8 13.7396
v -1.82671 -8 13.6544
v -2.05644 -8 13.5575
v -2.28105 -8 13.4494
v -2.5 -8 13.3301
v -2.71273 -8 13.2001
v -2.91872 -8 13.0597
v -3.11745 -8 12.9092
v -3.30843 -8 12.7489
v -3.49118 -8 12.5793
v -3.66526 -8 12.4009
v -3.83022 -8 12.2139
v -3.98566 -8 12.019
v -4.13119 -8 11.8166
v -4.26645 -8 11.6072
v -4.39111 -8 11.3913
v -4.50484 -8 11.1694
v -4.60738 -8 10.9422
v -4.69846 -8 10.7101
v -4.77786 -8 10.4738
v -4.84539 -8 10.2338
v -4.90086 -8 9.99073
v -4.94415 -8 9.74521
v -4.97515 -8 9.49784
v -4.99378 -8 9.24923
v -5 -8 9
v -4.99378 -8 8.75077
v -4.97515 -8 8.50216
v -4.94415 -8 8.25479
v -4.90086 -8 8.00927
v -4.84539 -8 7.76621
v -4.77786 -8 7.52622
v -4.69846 -8 7.2899
v -4.60738 -8 7.05783
v -4.50484 -8 6.83058
v -4.39111 -8 6.60873
v -4.26645 -8 6.39282
v -4.13119 -8 6.1834
v -3.98566 -8 5.98098
v -3.83022 -8 5.78606
v -3.66526 -8 5.59914
v -3.49118 -8 5.42067
v -3.30843 -8 5.25109
v -3.11745 -8 5.09084
v -2.91872 -8 4.94031
v -2.71273 -8 4.79987
v -2.5 -8 4.66987
v -2.28105 -8 4.55064
v -2.05644 -8 4.44247
v -1.82671 -8 4.34563
v -1.59243 -8 4.26036
v -1.3542 -8 4.18688
v -1.1126 -8 4.12536
v -0.868241 -8 4.07596
v -0.621719 -8 4.0388
v -0.37365 -8 4.01398
v -0.124653 -8 4.00155
v 0.124653 -8 4.00155
v 0.37365 -8 4.01398
v 0.621719 -8 4.0388
v 0.868241 -8 4.07596
v 1.1126 -8 4.12536
v 1.3542 -8 4.18688
v 1.59243 -8 4.26036
v 1.82671 -8 4.34563
v 2.05644 -8 4.44247
v 2.28105 -8 4.55064
v 2.5 -8 4.66987
v 2.71273 -8 4.79987
v 2.91872 -8 4.94031
v 3.11745 -8 5.09084
v 3.30843 -8 5.25109
v 3.49118 -8 5.42067
v 3.66526 -8 5.59914
v 3.83022 -8 5.78606
v 3.98566 -8 5.98098
v 4.13119 -8 6.1834
v 4.26645 -8 6.39282
v 4.39111 -8 6.60873
v 4.50484 -8 6.83058
v 4.60738 -8 7.05783
v 4.69846 -8 7.2899
v 4.77786 -8 7.52622
v 4.84539 -8 7.76621
v 4.90086 -8 8.00927
v 4.94415 -8 8.25479
v 4.97515 -8 8.50216
v 4.99378 -8 8.75077
v 5 -8 9
v 5 8 9
v 4.99378 8 9.24923
v 4.97515 8 9.49784
v 4.94415 8 9.74521
v 4.90086 8 9.99073
v 4.84539 8 10.2338
v 4.77786 8 10.4738
v 4.69846 8 10.7101
v 4.60738 8 10.9422
v 4.50484 8 11.1694
v 4.39111 8 11.3913
v 4.26645 8 11.6072
v 4.13119 8 11.8166
v 3.98566 8 12.019
v 3.83022 8 12.2139
v 3.66526 8 12.4009
v 3.49118 8 12.5793
v 3.30843 8 12.7489
v 3.11745 8 12.9092
v 2.91872 8 13.0597
v 2.71273 8 13.2001
v 2.5 8 13.3301
v 2.28105 8 13.4494
v 2.05644 8 13.5575
v 1.82671 8 13.6544
v 1.59243 8 13.7396
v 1.3542 8 13.8131
v 1.1126 8 13.8746
v 0.868241 8 13.924
v 0.621719 8 13.9612
v 0.37365 8 13.986
v 0.124653 8 13.9984
v -0.124653 8 13.9984
v -0.37365 8 13.986
v -0.621719 8 13.9612
v -0.868241 8 13.924
v -1.1126 8 13.8746
v -1.3542 8 13.8131
v -1.59243 8 13.7396
v -1.82671 8 13.6544
v -2.05644 8 13.5575
v -2.28105 8 13.4494
v -2.5 8 13.3301
v -2.71273 8 13.2001
v -2.91872 8 13.0597
v -3.11745 8 12.9092
v -3.30843 8 12.7489
v -3.49118 8 12.5793
v -3.66526 8 12.4009
v -3.83022 8 12.2139
v -3.98566 8 12.019
v -4.13119 8 11.8166
v -4.26645 8 11.6072
v -4.39111 8 11.3913
v -4.50484 8 11.1694
v -4.60738 8 10.9422
v -4.69846 8 10.7101
v -4.77786 8 10.4738
v -4.84539 8 10.2338
v -4.90086 8 9.99073
v -4.94415 8 9.74521
v -4.97515 8 9.49784
v -4.99378 8 9.24923
v -5 8 9
v -4.99378 8 8.75077
v -4.97515 8 8.50216
v -4.94415 8 8.25479
v -4.90086 8 8.00927
v -4.84539 8 7.76621
v -4.77786 8 7.52622
v -4.69846 8 7.2899
v -4.60738 8 7.05783
v -4.50484 8 6.83058
v -4.39111 8 6.60873
v -4.26645 8 6.39282
v -4.13119 8 6.1834
v -3.98566 8 5.98098
v -3.83022 8 5.78606
v -3.66526 8 5.59914
v -3.49118 8 5.42067
v -3.30843 8 5.25109
v -3.11745 8 5.09084
v -2.91872 8 4.94031
v -2.71273 8 4.79987
v -2.5 8 4.66987
v -2.28105 8 4.55064
v -2.05644 8 4.44247
v -1.82671 8 4.34563
v -1.59243 8 4.26036
v -1.3542 8 4.18688
v -1.1126 8 4.12536
v -0.868241 8 4.07596
v -0.621719 8 4.0388
v -0.37365 8 4.01398
v -0.124653 8 4.00155
v 0.124653 8 4.00155
v 0.37365 8 4.01398
v 0.621719 8 4.0388
v 0.868241 8 4.07596
v 1.1126 8 4.12536
v 1.3542 8 4.18688
v 1.59243 8 4.26036
v 1.82671 8 4.34563
v 2.05644 8 4.44247
v 2.28105 8 4.55064
v 2.5 8 4.66987
v 2.71273 8 4.79987
v 2.91872 8 4.94031
v 3.11745 8 5.09084
v 3.30843 8 5.25109
v 3.49118 8 5.42067
v 3.66526 8 5.59914
v 3.83022 8 5.78606
v 3.98566 8 5.98098
v 4.13119 8 6.1834
v 4.26645 8 6.39282
v 4.39111 8 6.60873
v 4.50484 8 6.83058
v 4.60738 8 7.05783
v 4.69846 8 7.2899
v 4.77786 8 7.52622
v 4.84539 8 7.76621
v 4.90086 8 8.00927
v 4.94415 8 8.25479
v 4.97515 8 8.50216
v 4.99378 8 8.75077
v 5 8 9
v -10 -8 14.5
v -8.5 -6.5 16
v -10 8 14.5
v -8.5 6.5 16
v -10 8 5
v -10 8 14.5
v 10 8 14.5
v 10 8 5
v 20 8 5
v 20 8 0
v -20 8 0
v -20 8 5
v 5 8 9
v 4.99378 8 9.24923
v 4.97515 8 9.49784
v 4.94415 8 9.74521
v 4.90086 8 9.99073
v 4.84539 8 10.2338
v 4.77786 8 10.4738
v 4.69846 8 10.7101
v 4.60738 8 10.9422
v 4.50484 8 11.1694
v 4.39111 8 11.3913
v 4.26645 8 11.6072
v 4.13119 8 11.8166
v 3.98566 8 12.019
v 3.83022 8 12.2139
v 3.66526 8 12.4009
v 3.49118 8 12.5793
v 3.30843 8 12.7489
v 3.11745 8 12.9092
v 2.91872 8 13.0597
v 2.71273 8 13.2001
v 2.5 8 13.3301
v 2.28105 8 13.4494
v 2.05644 8 13.5575
v 1.82671 8 13.6544
v 1.59243 8 13.7396
v 1.3542 8 13.8131
v 1.1126 8 13.8746
v 0.868241 8 13.924
v 0.621719 8 13.9612
v 0.37365 8 13.986
v 0.124653 8 13.9984
v -0.124653 8 13.9984
v -0.37365 8 13.986
v -0.621719 8 13.9612
v -0.868241 8 13.924
v -1.1126 8 13.8746
v -1.3542 8 13.8131
v -1.59243 8 13.7396
v -1.82671 8 13.6544
v -2.05644 8 13.5575
v -2.28105 8 13.4494
v -2.5 8 13.3301
v -2.71273 8 13.2001
v -2.91872 8 13.0597
v -3.11745 8 12.9092
v -3.30843 8 12.7489
v -3.49118 8 12.5793
v -3.66526 8 12.4009
v -3.83022 8 12.2139
v -3.98566 8 12.019
v -4.13119 8 11.8166
v -4.26645 8 11.6072
v -4.39111 8 11.3913
v -4.50484 8 11.1694
v -4.60738 8 10.9422
v -4.69846 8 10.7101
v -4.77786 8 10.4738
v -4.84539 8 10.2338
v -4.90086 8 9.99073
v -4.94415 8 9.74521
v -4.97515 8 9.49784
v -4.99378 8 9.24923
v -5 8 9
v -4.99378 8 8.75077
v -4.97515 8 8.50216
v -4.94415 8 8.25479
v -4.90086 8 8.00927
v -4.84539 8 7.76621
v -4.77786 8 7.52622
v -4.69846 8 7.2899
v -4.60738 8 7.05783
v -4.50484 8 6.83058
v -4.39111 8 6.60873
v -4.26645 8 6.39282
v -4.13119 8 6.1834
v -3.98566 8 5.98098
v -3.83022 8 5.78606
v -3.66526 8 5.59914
v -3.49118 8 5.42067
v -3.30843 8 5.25109
v -3.11745 8 5.09084
v -2.91872 8 4.94031
v -2.71273 8 4.79987
v -2.5 8 4.66987
v -2.28105 8 4.55064
v -2.05644 8 4.44247
v -1.82671 8 4.34563
v -1.59243 8 4.26036
v -1.3542 8 4.18688
v -1.1126 8 4.12536
v -0.868241 8 4.07596
v -0.621719 8 4.0388
v -0.37365 8 4.01398
v -0.124653 8 4.00155
v 0.124653 8 4.00155
v 0.37365 8 4.01398
v 0.621719 8 4.0388
v 0.868241 8 4.07596
v 1.1126 8 4.12536
v 1.3542 8 4.18688
v 1.59243 8 4.26036
v 1.82671 8 4.34563
v 2.05644 8 4.44247
v 2.28105 8 4.55064
v 2.5 8 4.66987
v 2.71273 8 4.79987
v 2.91872 8 4.94031
v 3.11745 8 5.09084
v 3.30843 8 5.25109
v 3.49118 8 5.42067
v 3.66526 8 5.59914
v 3.83022 8 5.78606
v 3.98566 8 5.98098
v 4.13119 8 6.1834
v 4.26645 8 6.39282
v 4.39111 8 6.60873
v 4.50484 8 6.83058
v 4.60738 8 7.05783
v 4.69846 8 7.2899
v 4.77786 8 7.52622
v 4.84539 8 7.76621
v 4.90086 8 8.00927
v 4.94415 8 8.25479
v 4.97515 8 8.50216
v 4.99378 8 8.75077
v -8.5 -6.5 16
v 8.5 -6.5 16
v 8.5 6.5 16
v -8.5 6.5 16
v 10 -8 14.5
v 8.5 -6.5 16
v 10 8 14.5
v 8.5 6.5 16
v -12.8 -5.38845e-16 5
v -12.8027 0.109661 5
v -12.8109 0.219049 5
v -12.8246 0.327893 5
v -12.8436 0.435922 5
v -12.868 0.542866 5
v -12.8977 0.648461 5
v -12.9327 0.752444 5
v -12.9728 0.854557 5
v -13.0179 0.954544 5
v -13.0679 1.05216 5
v -13.1228 1.14716 5
v -13.1823 1.2393 5
v -13.2463 1.32837 5
v -13.3147 1.41413 5
v -13.3873 1.49638 5
v -13.4639 1.57491 5
v -13.5443 1.64952 5
v -13.6283 1.72003 5
v -13.7158 1.78626 5
v -13.8064 1.84806 5
v -13.9 1.90526 5
v -13.9963 1.95772 5
v -14.0952 2.00531 5
v -14.1962 2.04792 5
v -14.2993 2.08544 5
v -14.4042 2.11777 5
v -14.5105 2.14484 5
v -14.618 2.16658 5
v -14.7264 2.18293 5
v -14.8356 2.19385 5
v -14.9452 2.19932 5
v -15.0548 2.19932 5
v -15.1644 2.19385 5
v -15.2736 2.18293 5
v -15.382 2.16658 5
v -15.4895 2.14484 5
v -15.5958 2.11777 5
v -15.7007 2.08544 5
v -15.8038 2.04792 5
v -15.9048 2.00531 5
v -16.0037 1.95772 5
v -16.1 1.90526 5
v -16.1936 1.84806 5
v -16.2842 1.78626 5
v -16.3717 1.72003 5
v -16.4557 1.64952 5
v -16.5361 1.57491 5
v -16.6127 1.49638 5
v -16.6853 1.41413 5
v -16.7537 1.32837 5
v -16.8177 1.2393 5
v -16.8772 1.14716 5
v -16.9321 1.05216 5
v -16.9821 0.954544 5
v -17.0272 0.854557 5
v -17.0673 0.752444 5
v -17.1023 0.648461 5
v -17.132 0.542866 5
v -17.1564 0.435922 5
v -17.1754 0.327893 5
v -17.1891 0.219049 5
v -17.1973 0.109661 5
v -17.2 -7.54655e-15 5
v -17.1973 -0.109661 5
v -17.1891 -0.219049 5
v -17.1754 -0.327893 5
v -17.1564 -0.435922 5
v -17.132 -0.542866 5
v -17.1023 -0.648461 5
v -17.0673 -0.752444 5
v -17.0272 -0.854557 5
v -16.9821 -0.954544 5
v -16.9321 -1.05216 5
v -16.8772 -1.14716 5
v -16.8177 -1.2393 5
v -16.7537 -1.32837 5
v -16.6853 -1.41413 5
v -16.6127 -1.49638 5
v -16.5361 -1.57491 5
v -16.4557 -1.64952 5
v -16.3717 -1.72003 5
v -16.2842 -1.78626 5
v -16.1936 -1.84806 5
v -16.1 -1.90526 5
v -16.0037 -1.95772 5
v -15.9048 -2.00531 5
v -15.8038 -2.04792 5
v -15.7007 -2.08544 5
v -15.5958 -2.11777 5
v -15.4895 -2.14484 5
v -15.382 -2.16658 5
v -15.2736 -2.18293 5
v -15.1644 -2.19385 5
v -15.0548 -2.19932 5
v -14.9452 -2.19932 5
v -14.8356 -2.19385 5
v -14.7264 -2.18293 5
v -14.618 -2.16658 5
v -14.5105 -2.14484 5
v -14.4042 -2.11777 5
v -14.2993 -2.08544 5
v -14.1962 -2.04792 5
v -14.0952 -2.00531 5
v -13.9963 -1.95772 5
v -13.9 -1.90526 5
v -13.8064 -1.84806 5
v -13.7158 -1.78626 5
v -13.6283 -1.72003 5
v -13.5443 -1.64952 5
v -13.4639 -1.57491 5
v -13.3873 -1.49638 5
v -13.3147 -1.41413 5
v -13.2463 -1.32837 5
v -13.1823 -1.2393 5
v -13.1228 -1.14716 5
v -13.0679 -1.05216 5
v -13.0179 -0.954544 5
v -12.9728 -0.854557 5
v -12.9327 -0.752444 5
v -12.8977 -0.648461 5
v -12.868 -0.542866 5
v -12.8436 -0.435922 5
v -12.8246 -0.327893 5
v -12.8109 -0.219049 5
v -12.8027 -0.109661 5
v -12.8 -5.38845e-16 5
v -12.8 -5.38845e-16 0
v -12.8027 0.109661 0
v -12.8109 0.219049 0
v -12.8246 0.327893 0
v -12.8436 0.435922 0
v -12.868 0.542866 0
v -12.8977 0.648461 0
v -12.9327 0.752444 0
v -12.9728 0.854557 0
v -13.0179 0.954544 0
v -13.0679 1.05216 0
v -13.1228 1.14716 0
v -13.1823 1.2393 0
v -13.2463 1.32837 0
v -13.3147 1.41413 0
v -13.3873 1.49638 0
v -13.4639 1.57491 0
v -13.5443 1.64952 0
v -13.6283 1.72003 0
v -13.7158 1.78626 0
v -13.8064 1.84806 0
v -13.9 1.90526 0
v -13.9963 1.95772 0
v -14.0952 2.00531 0
v -14.1962 2.04792 0
v -14.2993 2.08544 0
v -14.4042 2.11777 0
v -14.5105 2.14484 0
v -14.618 2.16658 0
v -14.7264 2.18293 0
v -14.8356 2.19385 0
v -14.9452 2.19932 0
v -15.0548 2.19932 0
v -15.1644 2.19385 0
v -15.2736 2.18293 0
v -15.382 2.16658 0
v -15.4895 2.14484 0
v -15.5958 2.11777 0
v -15.7007 2.08544 0
v -15.8038 2.04792 0
v -15.9048 2.00531 0
v -16.0037 1.95772 0
v -16.1 1.90526 0
v -16.1936 1.84806 0
v -16.2842 1.78626 0
v -16.3717 1.72003 0
v -16.4557 1.64952 0
v -16.5361 1.57491 0
v -16.6127 1.49638 0
v -16.6853 1.41413 0
v -16.7537 1.32837 0
v -16.8177 1.2393 0
v -16.8772 1.14716 0
v -16.9321 1.05216 0
v -16.9821 0.954544 0
v -17.0272 0.854557 0
v -17.0673 0.752444 0
v -17.1023 0.648461 0
v -17.132 0.542866 0
v -17.1564 0.435922 0
v -17.1754 0.327893 0
v -17.1891 0.219049 0
v -17.1973 0.109661 0
v -17.2 -7.54655e-15 0
v -17.1973 -0.109661 0
v -17.1891 -0.219049 0
v -17.1754 -0.327893 0
v -17.1564 -0.435922 0
v -17.132 -0.542866 0
v -17.1023 -0.648461 0
v -17.0673 -0.752444 0
v -17.0272 -0.854557 0
v -16.9821 -0.954544 0
v -16.9321 -1.05216 0
v -16.8772 -1.14716 0
v -16.8177 -1.2393 0
v -16.7537 -1.32837 0
v -16.6853 -1.41413 0
v -16.6127 -1.49638 0
v -16.5361 -1.57491 0
v -16.4557 -1.64952 0
v -16.3717 -1.72003 0
v -16.2842 -1.78626 0
v -16.1936 -1.84806 0
v -16.1 -1.90526 0
v -16.0037 -1.95772 0
v -15.9048 -2.00531 0
v -15.8038 -2.04792 0
v -15.7007 -2.08544 0
v -15.5958 -2.11777 0
v -15.4895 -2.14484 0
v -15.382 -2.16658 0
v -15.2736 -2.18293 0
v -15.1644 -2.19385 0
v -15.0548 -2.19932 0
v -14.9452 -2.19932 0
v -14.8356 -2.19385 0
v -14.7264 -2.18293 0
v -14.618 -2.16658 0
v -14.5105 -2.14484 0
v -14.4042 -2.11777 0
v -14.2993 -2.08544 0
v -14.1962 -2.04792 0
v -14.0952 -2.00531 0
v -13.9963 -1.95772 0
v -13.9 -1.90526 0
v -13.8064 -1.84806 0
v -13.7158 -1.78626 0
v -13.6283 -1.72003 0
v -13.5443 -1.64952 0
v -13.4639 -1.57491 0
v -13.3873 -1.49638 0
v -13.3147 -1.41413 0
v -13.2463 -1.32837 0
v -13.1823 -1.2393 0
v -13.1228 -1.14716 0
v -13.0679 -1.05216 0
v -13.0179 -0.954544 0
v -12.9728 -0.854557 0
v -12.9327 -0.752444 0
v -12.8977 -0.648461 0
v -12.868 -0.542866 0
v -12.8436 -0.435922 0
v -12.8246 -0.327893 0
v -12.8109 -0.219049 0
v -12.8027 -0.109661 0
v -12.8 -5.38845e-16 0
v 17.2 -5.38845e-16 5
v 17.1973 0.109661 5
v 17.1891 0.219049 5
v 17.1754 0.327893 5
v 17.1564 0.435922 5
v 17.132 0.542866 5
v 17.1023 0.648461 5
v 17.0673 0.752444 5
v 17.0272 0.854557 5
v 16.9821 0.954544 5
v 16.9321 1.05216 5
v 16.8772 1.14716 5
v 16.8177 1.2393 5
v 16.7537 1.32837 5
v 16.6853 1.41413 5
v 16.6127 1.49638 5
v 16.5361 1.57491 5
v 16.4557 1.64952 5
v 16.3717 1.72003 5
v 16.2842 1.78626 5
v 16.1936 1.84806 5
v 16.1 1.90526 5
v 16.0037 1.95772 5
v 15.9048 2.00531 5
v 15.8038 2.04792 5
v 15.7007 2.08544 5
v 15.5958 2.11777 5
v 15.4895 2.14484 5
v 15.382 2.16658 5
v 15.2736 2.18293 5
v 15.1644 2.19385 5
v 15.0548 2.19932 5
v 14.9452 2.19932 5
v 14.8356 2.19385 5
v 14.7264 2.18293 5
v 14.618 2.16658 5
v 14.5105 2.14484 5
v 14.4042 2.11777 5
v 14.2993 2.08544 5
v 14.1962 2.04792 5
v 14.0952 2.00531 5
v 13.9963 1.95772 5
v 13.9 1.90526 5
v 13.8064 1.84806 5
v 13.7158 1.78626 5
v 13.6283 1.72003 5
v 13.5443 1.64952 5
v 13.4639 1.57491 5
v 13.3873 1.49638 5
v 13.3147 1.41413 5
v 13.2463 1.32837 5
v 13.1823 1.2393 5
v 13.1228 1.14716 5
v 13.0679 1.05216 5
v 13.0179 0.954544 5
v 12.9728 0.854557 5
v 12.9327 0.752444 5
v 12.8977 0.648461 5
v 12.868 0.542866 5
v 12.8436 0.435922 5
v 12.8246 0.327893 5
v 12.8109 0.219049 5
v 12.8027 0.109661 5
v 12.8 -7.54655e-15 5
v 12.8027 -0.109661 5
v 12.8109 -0.219049 5
v 12.8246 -0.327893 5
v 12.8436 -0.435922 5
v 12.868 -0.542866 5
v 12.8977 -0.648461 5
v 12.9327 -0.752444 5
v 12.9728 -0.854557 5
v 13.0179 -0.954544 5
v 13.0679 -1.05216 5
v 13.1228 -1.14716 5
v 13.1823 -1.2393 5
v 13.2463 -1.32837 5
v 13.3147 -1.41413 5
v 13.3873 -1.49638 5
v 13.4639 -1.57491 5
v 13.5443 -1.64952 5
v 13.6283 -1.72003 5
v 13.7158 -1.78626 5
v 13.8064 -1.84806 5
v 13.9 -1.90526 5
v 13.9963 -1.95772 5
v 14.0952 -2.00531 5
v 14.1962 -2.04792 5
v 14.2993 -2.08544 5
v 14.4042 -2.11777 5
v 14.5105 -2.14484 5
v 14.618 -2.16658 5
v 14.7264 -2.18293 5
v 14.8356 -2.19385 5
v 14.9452 -2.19932 5
v 15.0548 -2.19932 5
v 15.1644 -2.19385 5
v 15.2736 -2.18293 5
v 15.382 -2.16658 5
v 15.4895 -2.14484 5
v 15.5958 -2.11777 5
v 15.7007 -2.08544 5
v 15.8038 -2.04792 5
v 15.9048 -2.00531 5
v 16.0037 -1.95772 5
v 16.1 -1.90526 5
v 16.1936 -1.84806 5
v 16.2842 -1.78626 5
v 16.3717 -1.72003 5
v 16.4557 -1.64952 5
v 16.5361 -1.57491 5
v 16.6127 -1.49638 5
v 16.6853 -1.41413 5
v 16.7537 -1.32837 5
v 16.8177 -1.2393 5
v 16.8772 -1.14716 5
v 16.9321 -1.05216 5
v 16.9821 -0.954544 5
v 17.0272 -0.854557 5
v 17.0673 -0.752444 5
v 17.1023 -0.648461 5
v 17.132 -0.542866 5
v 17.1564 -0.435922 5
v 17.1754 -0.327893 5
v 17.1891 -0.219049 5
v 17.1973 -0.109661 5
v 17.2 -5.38845e-16 5
v 17.2 -5.38845e-16 0
v 17.1973 0.109661 0
v 17.1891 0.219049 0
v 17.1754 0.327893 0
v 17.1564 0.435922 0
v 17.132 0.542866 0
v 17.1023 0.648461 0
v 17.0673 0.752444 0
v 17.0272 0.854557 0
v 16.9821 0.954544 0
v 16.9321 1.05216 0
v 16.8772 1.14716 0
v 16.8177 1.2393 0
v 16.7537 1.32837 0
v 16.6853 1.41413 0
v 16.6127 1.49638 0
v 16.5361 1.57491 0
v 16.4557 1.64952 0
v 16.3717 1.72003 0
v 16.2842 1.78626 0
v 16.1936 1.84806 0
v 16.1 1.90526 0
v 16.0037 1.95772 0
v 15.9048 2.00531 0
v 15.8038 2.04792 0
v 15.7007 2.08544 0
v 15.5958 2.11777 0
v 15.4895 2.14484 0
v 15.382 2.16658 0
v 15.2736 2.18293 0
v 15.1644 2.19385 0
v 15.0548 2.19932 0
v 14.9452 2.19932 0
v 14.8356 2.19385 0
v 14.7264 2.18293 0
v 14.618 2.16658 0
v 14.5105 2.14484 0
v 14.4042 2.11777 0
v 14.2993 2.08544 0
v 14.1962 2.04792 0
v 14.0952 2.00531 0
v 13.9963 1.95772 0
v 13.9 1.90526 0
v 13.8064 1.84806 0
v 13.7158 1.78626 0
v 13.6283 1.72003 0
v 13.5443 1.64952 0
v 13.4639 1.57491 0
v 13.3873 1.49638 0
v 13.3147 1.41413 0
v 13.2463 1.32837 0
v 13.1823 1.2393 0
v 13.1228 1.14716 0
v 13.0679 1.05216 0
v 13.0179 0.954544 0
v 12.9728 0.854557 0
v 12.9327 0.752444 0
v 12.8977 0.648461 0
v 12.868 0.542866 0
v 12.8436 0.435922 0
v 12.8246 0.327893 0
v 12.8109 0.219049 0
v 12.8027 0.109661 0
v 12.8 -7.54655e-15 0
v 12.8027 -0.109661 0
v 12.8109 -0.219049 0
v 12.8246 -0.327893 0
v 12.8436 -0.435922 0
v 12.868 -0.542866 0
v 12.8977 -0.648461 0
v 12.9327 -0.752444 0
v 12.9728 -0.854557 0
v 13.0179 -0.954544 0
v 13.0679 -1.05216 0
v 13.1228 -1.14716 0
v 13.1823 -1.2393 0
v 13.2463 -1.32837 0
v 13.3147 -1.41413 0
v 13.3873 -1.49638 0
v 13.4639 -1.57491 0
v 13.5443 -1.64952 0
v 13.6283 -1.72003 0
v 13.7158 -1.78626 0
v 13.8064 -1.84806 0
v 13.9 -1.90526 0
v 13.9963 -1.95772 0
v 14.0952 -2.00531 0
v 14.1962 -2.04792 0
v 14.2993 -2.08544 0
v 14.4042 -2.11777 0
v 14.5105 -2.14484 0
v 14.618 -2.16658 0
v 14.7264 -2.18293 0
v 14.8356 -2.19385 0
v 14.9452 -2.19932 0
v 15.0548 -2.19932 0
v 15.1644 -2.19385 0
v 15.2736 -2.18293 0
v 15.382 -2.16658 0
v 15.4895 -2.14484 0
v 15.5958 -2.11777 0
v 15.7007 -2.08544 0
v 15.8038 -2.04792 0
v 15.9048 -2.00531 0
v 16.0037 -1.95772 0
v 16.1 -1.90526 0
v 16.1936 -1.84806 0
v 16.2842 -1.78626 0
v 16.3717 -1.72003 0
v 16.4557 -1.64952 0
v 16.5361 -1.57491 0
v 16.6127 -1.49638 0
v 16.6853 -1.41413 0
v 16.7537 -1.32837 0
v 16.8177 -1.2393 0
v 16.8772 -1.14716 0
v 16.9321 -1.05216 0
v 16.9821 -0.954544 0
v 17.0272 -0.854557 0
v 17.0673 -0.752444 0
v 17.1023 -0.648461 0
v 17.132 -0.542866 0
v 17.1564 -0.435922 0
v 17.1754 -0.327893 0
v 17.1891 -0.219049 0
v 17.1973 -0.109661 0
v 17.2 -5.38845e-16 0
v -10 8 14.5
v -8.5 6.5 16
v 10 8 14.5
v 8.5 6.5 16
f 1 8 7
f 87 1 88
f 89 88 1
f 86 1 87
f 90 89 1
f 85 1 86
f 91 90 1
f 84 1 85
f 92 91 1
f 83 1 84
f 93 92 1
f 82 1 83
f 94 93 1
f 81 1 82
f 95 94 1
f 80 1 81
f 96 95 1
f 79 1 80
f 97 1 7
f 97 96 1
f 78 1 79
f 98 97 7
f 77 1 78
f 99 98 7
f 76 1 77
f 100 99 7
f 75 1 76
f 101 100 7
f 74 1 75
f 102 101 7
f 73 1 74
f 72 1 73
f 71 1 72
f 70 2 1
f 70 1 71
f 69 2 70
f 68 2 69
f 67 2 68
f 66 2 67
f 65 2 66
f 64 2 65
f 63 2 64
f 62 2 63
f 61 2 62
f 60 2 61
f 59 2 60
f 58 2 59
f 57 2 58
f 56 2 57
f 55 2 56
f 54 2 55
f 53 2 54
f 52 2 53
f 51 2 52
f 50 2 51
f 49 2 50
f 48 2 49
f 47 2 48
f 46 2 47
f 45 2 46
f 44 2 45
f 43 2 44
f 42 2 43
f 4 111 110
f 4 10 9
f 4 112 111
f 4 11 10
f 4 113 112
f 4 114 113
f 4 115 114
f 4 116 115
f 4 117 116
f 4 118 117
f 4 119 118
f 4 120 119
f 4 121 120
f 4 122 121
f 4 123 122
f 4 124 123
f 4 125 124
f 4 126 125
f 4 127 126
f 4 128 127
f 4 129 128
f 4 130 129
f 4 131 130
f 4 132 131
f 4 133 132
f 4 134 133
f 4 9 134
f 6 105 104
f 6 106 105
f 6 107 106
f 6 108 107
f 6 109 108
f 6 110 109
f 6 4 110
f 3 12 11
f 3 13 12
f 3 14 13
f 3 15 14
f 3 16 15
f 3 17 16
f 3 18 17
f 3 19 18
f 3 20 19
f 3 21 20
f 3 22 21
f 3 23 22
f 3 24 23
f 3 25 24
f 3 26 25
f 3 27 26
f 3 28 27
f 3 29 28
f 3 30 29
f 3 31 30
f 3 32 31
f 3 33 32
f 3 34 33
f 3 35 34
f 3 36 35
f 3 37 36
f 3 38 37
f 3 39 38
f 3 11 4
f 5 4 6
f 2 40 3
f 40 39 3
f 2 41 40
f 2 42 41
f 6 103 7
f 103 102 7
f 6 104 103
f 135 138 137
f 136 138 135
f 142 140 139
f 142 139 141
f 225 145 226
f 227 226 145
f 224 145 225
f 228 227 145
f 223 145 224
f 229 228 145
f 222 145 223
f 230 229 145
f 221 145 222
f 231 230 145
f 220 145 221
f 232 231 145
f 219 145 220
f 233 232 145
f 218 145 219
f 234 233 145
f 217 145 218
f 235 234 145
f 216 145 217
f 236 235 145
f 215 145 216
f 237 236 145
f 214 145 215
f 238 237 145
f 213 145 214
f 239 238 145
f 212 145 213
f 240 239 145
f 211 145 212
f 241 240 145
f 210 145 211
f 242 145 146
f 242 241 145
f 243 242 146
f 244 243 146
f 245 244 146
f 246 245 146
f 247 246 146
f 248 247 146
f 249 248 146
f 250 249 146
f 251 250 146
f 252 251 146
f 253 252 146
f 254 253 146
f 255 254 146
f 256 255 146
f 257 256 146
f 258 257 146
f 259 258 146
f 260 259 146
f 261 260 146
f 262 261 146
f 263 262 146
f 264 263 146
f 265 264 146
f 266 265 146
f 267 266 146
f 268 267 146
f 269 268 146
f 270 269 146
f 271 270 146
f 272 271 146
f 147 272 146
f 143 180 179
f 143 181 180
f 143 182 181
f 143 183 182
f 143 184 183
f 143 185 184
f 143 186 185
f 143 187 186
f 143 188 187
f 143 189 188
f 143 190 189
f 143 191 190
f 143 192 191
f 143 193 192
f 143 194 193
f 143 195 194
f 143 196 195
f 143 197 196
f 143 198 197
f 143 199 198
f 143 200 199
f 143 201 200
f 143 202 201
f 143 203 202
f 143 204 203
f 143 205 204
f 143 206 205
f 143 207 206
f 143 208 207
f 143 209 208
f 143 210 209
f 143 145 210
f 144 147 146
f 144 148 147
f 144 149 148
f 144 150 149
f 144 151 150
f 144 152 151
f 144 153 152
f 144 154 153
f 144 155 154
f 144 156 155
f 144 157 156
f 144 158 157
f 144 159 158
f 144 160 159
f 144 161 160
f 144 162 161
f 144 163 162
f 144 164 163
f 144 165 164
f 144 166 165
f 144 167 166
f 144 168 167
f 144 169 168
f 144 170 169
f 144 171 170
f 144 172 171
f 144 173 172
f 144 174 173
f 144 175 174
f 144 176 175
f 144 177 176
f 144 178 177
f 144 179 178
f 144 143 179
f 273 275 276
f 274 273 276
f 278 279 277
f 278 280 279
f 363 283 364
f 365 364 283
f 362 283 363
f 366 365 283
f 361 283 362
f 367 366 283
f 360 283 361
f 368 367 283
f 359 283 360
f 369 368 283
f 358 283 359
f 370 369 283
f 357 283 358
f 371 370 283
f 356 283 357
f 372 371 283
f 355 283 356
f 373 372 283
f 354 283 355
f 374 373 283
f 353 283 354
f 375 374 283
f 352 283 353
f 376 375 283
f 351 283 352
f 377 376 283
f 350 283 351
f 378 377 283
f 349 283 350
f 379 283 284
f 379 378 283
f 348 283 349
f 380 379 284
f 381 380 284
f 382 381 284
f 383 382 284
f 384 383 284
f 385 384 284
f 386 385 284
f 387 386 284
f 388 387 284
f 389 388 284
f 390 389 284
f 391 390 284
f 392 391 284
f 393 392 284
f 394 393 284
f 395 394 284
f 396 395 284
f 397 396 284
f 398 397 284
f 399 398 284
f 400 399 284
f 401 400 284
f 402 401 284
f 403 402 284
f 404 403 284
f 405 404 284
f 406 405 284
f 407 406 284
f 408 407 284
f 409 408 284
f 410 409 284
f 285 410 284
f 281 318 317
f 281 319 318
f 281 320 319
f 281 321 320
f 281 322 321
f 281 323 322
f 281 324 323
f 281 325 324
f 281 326 325
f 281 327 326
f 281 328 327
f 281 329 328
f 281 330 329
f 281 331 330
f 281 332 331
f 281 333 332
f 281 334 333
f 281 335 334
f 281 336 335
f 281 337 336
f 281 338 337
f 281 339 338
f 281 340 339
f 281 341 340
f 281 342 341
f 281 343 342
f 281 344 343
f 281 345 344
f 281 346 345
f 281 347 346
f 281 348 347
f 281 283 348
f 282 286 285
f 282 287 286
f 282 288 287
f 282 289 288
f 282 290 289
f 282 291 290
f 282 292 291
f 282 293 292
f 282 294 293
f 282 295 294
f 282 296 295
f 282 297 296
f 282 298 297
f 282 299 298
f 282 300 299
f 282 301 300
f 282 302 301
f 282 303 302
f 282 304 303
f 282 305 304
f 282 285 284
f 282 306 305
f 282 307 306
f 282 308 307
f 282 309 308
f 282 310 309
f 282 311 310
f 282 312 311
f 282 313 312
f 282 314 313
f 282 315 314
f 282 316 315
f 282 317 316
f 282 281 317
f 493 494 411
f 495 411 494
f 492 493 411
f 496 411 495
f 491 492 411
f 497 411 496
f 490 491 411
f 498 411 497
f 489 490 411
f 499 411 498
f 488 489 411
f 500 411 499
f 487 488 411
f 501 411 500
f 486 487 411
f 502 411 501
f 485 486 411
f 503 411 502
f 484 485 411
f 504 411 503
f 483 484 411
f 505 411 504
f 482 483 411
f 506 411 505
f 481 482 411
f 507 411 506
f 480 481 411
f 508 411 507
f 479 480 411
f 509 411 508
f 478 479 411
f 510 411 509
f 511 411 510
f 512 411 511
f 513 411 512
f 514 411 513
f 515 411 514
f 516 411 515
f 517 411 516
f 518 411 517
f 519 411 518
f 520 411 519
f 521 411 520
f 522 411 521
f 412 478 411
f 412 437 438
f 412 438 439
f 412 439 440
f 412 440 441
f 412 441 442
f 412 442 443
f 412 443 444
f 412 444 445
f 412 445 446
f 412 446 447
f 412 447 448
f 412 448 449
f 412 449 450
f 412 450 451
f 412 451 452
f 412 452 453
f 412 453 454
f 412 454 455
f 412 455 456
f 412 456 457
f 412 457 458
f 412 458 459
f 412 459 460
f 412 460 461
f 412 461 462
f 412 462 463
f 412 463 464
f 412 464 465
f 412 465 466
f 412 466 467
f 412 467 468
f 412 468 469
f 412 469 470
f 412 470 471
f 412 471 472
f 412 472 473
f 412 473 474
f 412 474 475
f 412 475 476
f 412 476 477
f 412 477 478
f 436 437 412
f 435 436 412
f 434 435 412
f 619 620 525
f 619 525 526
f 621 525 620
f 621 524 525
f 618 526 527
f 618 619 526
f 622 522 523
f 622 523 524
f 622 524 621
f 617 527 528
f 617 618 527
f 623 522 622
f 616 528 529
f 616 617 528
f 615 616 529
f 615 529 530
f 413 623 624
f 413 624 625
f 413 522 623
f 413 411 522
f 614 530 531
f 614 615 530
f 626 413 625
f 613 531 532
f 613 614 531
f 627 413 626
f 612 532 533
f 612 533 534
f 612 613 532
f 628 413 627
f 611 612 534
f 629 413 628
f 610 534 535
f 610 611 534
f 630 413 629
f 609 535 536
f 609 610 535
f 631 413 630
f 608 609 536
f 608 536 537
f 632 413 631
f 607 537 538
f 607 608 537
f 633 413 632
f 606 607 538
f 606 538 539
f 634 413 633
f 605 539 540
f 605 606 539
f 635 413 634
f 604 540 415
f 604 605 540
f 636 413 635
f 603 415 416
f 603 604 415
f 637 413 636
f 602 416 417
f 602 603 416
f 638 413 637
f 601 417 418
f 601 418 419
f 601 602 417
f 639 413 638
f 600 601 419
f 640 413 639
f 599 419 420
f 599 600 419
f 641 413 640
f 598 420 421
f 598 599 420
f 642 413 641
f 597 421 422
f 597 598 421
f 643 413 642
f 596 422 423
f 596 597 422
f 644 413 643
f 595 423 424
f 595 596 423
f 645 413 644
f 594 424 425
f 594 595 424
f 646 413 645
f 593 594 425
f 593 425 426
f 647 413 646
f 592 593 426
f 592 426 427
f 648 413 647
f 591 427 428
f 591 592 427
f 649 413 648
f 590 428 429
f 590 591 428
f 650 413 649
f 589 429 430
f 589 590 429
f 651 413 650
f 588 430 431
f 588 589 430
f 652 413 651
f 587 431 432
f 587 432 433
f 587 588 431
f 653 413 652
f 586 587 433
f 654 413 653
f 585 433 434
f 585 586 433
f 585 434 412
f 655 413 654
f 656 413 655
f 657 413 656
f 658 413 657
f 659 413 658
f 660 413 659
f 661 413 660
f 662 413 661
f 663 413 662
f 664 413 663
f 665 413 664
f 666 413 665
f 541 413 666
f 414 541 542
f 414 542 543
f 414 543 544
f 414 544 545
f 414 545 546
f 414 546 547
f 414 547 548
f 414 548 549
f 414 549 550
f 414 550 551
f 414 551 552
f 414 552 553
f 414 553 554
f 414 554 555
f 414 555 556
f 414 556 557
f 414 557 558
f 414 558 559
f 414 559 560
f 414 560 561
f 414 561 562
f 414 562 563
f 414 563 564
f 414 585 412
f 414 564 565
f 414 565 566
f 414 566 567
f 414 567 568
f 414 568 569
f 414 569 570
f 414 570 571
f 414 571 572
f 414 572 573
f 414 573 574
f 414 574 575
f 414 575 576
f 414 576 577
f 414 577 578
f 414 578 579
f 414 579 580
f 414 580 581
f 414 581 582
f 414 582 583
f 414 583 584
f 414 584 585
f 414 413 541
f 668 667 669
f 668 669 670
f 672 798 671
f 672 799 798
f 673 800 799
f 673 799 672
f 674 801 800
f 674 802 801
f 674 800 673
f 675 803 802
f 675 802 674
f 676 803 675
f 677 804 803
f 677 805 804
f 677 803 676
f 678 806 805
f 678 805 677
f 679 806 678
f 680 807 806
f 680 806 679
f 681 808 807
f 681 809 808
f 681 807 680
f 682 809 681
f 682 810 809
f 683 810 682
f 684 810 683
f 684 811 810
f 684 812 811
f 685 812 684
f 686 812 685
f 686 813 812
f 687 813 686
f 687 814 813
f 688 814 687
f 688 815 814
f 689 815 688
f 689 816 815
f 690 816 689
f 690 817 816
f 691 817 690
f 691 818 817
f 691 819 818
f 692 819 691
f 693 819 692
f 693 820 819
f 694 821 820
f 694 820 693
f 694 822 821
f 695 822 694
f 696 823 822
f 696 822 695
f 697 824 823
f 697 823 696
f 698 825 824
f 698 824 697
f 699 826 825
f 699 825 698
f 700 827 826
f 700 826 699
f 701 828 827
f 701 827 700
f 702 829 828
f 702 828 701
f 703 830 829
f 703 829 702
f 704 831 830
f 704 832 831
f 704 830 703
f 705 832 704
f 706 833 832
f 706 832 705
f 707 834 833
f 707 835 834
f 707 833 706
f 708 835 707
f 708 836 835
f 709 836 708
f 710 836 709
f 710 837 836
f 711 837 710
f 711 838 837
f 712 838 711
f 712 839 838
f 713 839 712
f 713 840 839
f 714 840 713
f 714 841 840
f 715 841 714
f 715 842 841
f 716 842 715
f 716 843 842
f 716 844 843
f 717 844 716
f 718 844 717
f 718 845 844
f 719 845 718
f 719 846 845
f 720 846 719
f 720 847 846
f 721 847 720
f 721 848 847
f 722 848 721
f 722 849 848
f 722 850 849
f 723 850 722
f 723 851 850
f 724 851 723
f 725 851 724
f 725 852 851
f 726 852 725
f 726 853 852
f 727 853 726
f 727 854 853
f 728 854 727
f 728 855 854
f 729 856 855
f 729 855 728
f 730 857 856
f 730 856 729
f 731 858 857
f 731 857 730
f 732 859 858
f 732 860 859
f 732 858 731
f 733 860 732
f 734 860 733
f 734 861 860
f 735 861 734
f 735 862 861
f 736 862 735
f 736 863 862
f 736 864 863
f 737 864 736
f 737 865 864
f 738 865 737
f 739 865 738
f 739 866 865
f 740 866 739
f 740 867 866
f 741 867 740
f 741 868 867
f 741 869 868
f 742 869 741
f 743 869 742
f 743 870 869
f 744 870 743
f 744 871 870
f 745 873 872
f 745 871 744
f 745 872 871
f 746 873 745
f 747 874 873
f 747 873 746
f 748 875 874
f 748 876 875
f 748 874 747
f 749 876 748
f 750 877 876
f 750 876 749
f 751 878 877
f 751 877 750
f 752 879 878
f 752 878 751
f 753 880 879
f 753 879 752
f 754 881 880
f 754 880 753
f 755 882 881
f 755 883 882
f 755 881 754
f 756 883 755
f 757 884 883
f 757 885 884
f 757 883 756
f 758 885 757
f 759 885 758
f 759 886 885
f 759 887 886
f 760 887 759
f 760 888 887
f 761 888 760
f 762 889 888
f 762 890 889
f 762 888 761
f 763 890 762
f 764 891 890
f 764 890 763
f 765 892 891
f 765 893 892
f 765 891 764
f 766 893 765
f 767 894 893
f 767 895 894
f 767 893 766
f 768 895 767
f 769 896 895
f 769 895 768
f 770 897 896
f 770 896 769
f 771 898 897
f 771 897 770
f 772 899 898
f 772 900 899
f 772 898 771
f 773 900 772
f 774 901 900
f 774 900 773
f 775 902 901
f 775 901 774
f 776 903 902
f 776 904 903
f 776 902 775
f 777 904 776
f 778 905 904
f 778 904 777
f 779 906 905
f 779 907 906
f 779 905 778
f 780 907 779
f 781 908 907
f 781 907 780
f 782 909 908
f 782 910 909
f 782 908 781
f 783 910 782
f 784 910 783
f 784 911 910
f 784 912 911
f 785 912 784
f 785 913 912
f 786 913 785
f 787 913 786
f 787 914 913
f 788 914 787
f 788 915 914
f 789 915 788
f 789 916 915
f 790 916 789
f 790 917 916
f 791 917 790
f 791 918 917
f 791 919 918
f 792 919 791
f 793 919 792
f 793 920 919
f 793 921 920
f 794 921 793
f 795 921 794
f 795 922 921
f 796 923 922
f 796 922 795
f 796 924 923
f 797 924 796
f 928 925 926
f 928 927 925
f 929 935 936
f 1015 1016 929
f 1017 929 1016
f 1014 1015 929
f 1018 929 1017
f 1013 1014 929
f 1019 929 1018
f 1012 1013 929
f 1020 929 1019
f 1011 1012 929
f 1021 929 1020
f 1010 1011 929
f 1022 929 1021
f 1009 1010 929
f 1023 929 1022
f 1008 1009 929
f 1024 929 1023
f 1007 1008 929
f 1025 935 929
f 1025 929 1024
f 1006 1007 929
f 1026 935 1025
f 1005 1006 929
f 1027 935 1026
f 1004 1005 929
f 1028 935 1027
f 1003 1004 929
f 1029 935 1028
f 1002 1003 929
f 1030 935 1029
f 1001 1002 929
f 1000 1001 929
f 999 1000 929
f 998 929 930
f 998 999 929
f 997 998 930
f 996 997 930
f 995 996 930
f 994 995 930
f 993 994 930
f 992 993 930
f 991 992 930
f 990 991 930
f 989 990 930
f 988 989 930
f 987 988 930
f 986 987 930
f 985 986 930
f 984 985 930
f 983 984 930
f 982 983 930
f 981 982 930
f 980 981 930
f 979 980 930
f 978 979 930
f 977 978 930
f 976 977 930
f 975 976 930
f 974 975 930
f 973 974 930
f 972 973 930
f 971 972 930
f 970 971 930
f 932 1038 1039
f 932 937 938
f 932 1039 1040
f 932 938 939
f 932 1040 1041
f 932 1041 1042
f 932 1042 1043
f 932 1043 1044
f 932 1044 1045
f 932 1045 1046
f 932 1046 1047
f 932 1047 1048
f 932 1048 1049
f 932 1049 1050
f 932 1050 1051
f 932 1051 1052
f 932 1052 1053
f 932 1053 1054
f 932 1054 1055
f 932 1055 1056
f 932 1056 1057
f 932 1057 1058
f 932 1058 1059
f 932 1059 1060
f 932 1060 1061
f 932 1061 1062
f 932 1062 937
f 934 1032 1033
f 934 1033 1034
f 934 1034 1035
f 934 1035 1036
f 934 1036 1037
f 934 1037 1038
f 934 1038 932
f 931 939 940
f 931 940 941
f 931 941 942
f 931 942 943
f 931 943 944
f 931 944 945
f 931 945 946
f 931 946 947
f 931 947 948
f 931 948 949
f 931 949 950
f 931 950 951
f 931 951 952
f 931 952 953
f 931 953 954
f 931 954 955
f 931 955 956
f 931 956 957
f 931 957 958
f 931 958 959
f 931 959 960
f 931 960 961
f 931 961 962
f 931 962 963
f 931 963 964
f 931 964 965
f 931 965 966
f 931 966 967
f 931 932 939
f 933 934 932
f 930 931 968
f 968 931 967
f 930 968 969
f 930 969 970
f 934 935 1031
f 1031 935 1030
f 934 1031 1032
f 1065 1063 1064
f 1065 1066 1063
f 1069 1068 1067
f 1070 1068 1069
f 1072 1198 1071
f 1072 1199 1198
f 1073 1200 1199
f 1073 1201 1200
f 1073 1199 1072
f 1074 1201 1073
f 1075 1202 1201
f 1075 1203 1202
f 1075 1201 1074
f 1076 1203 1075
f 1077 1204 1203
f 1077 1203 1076
f 1078 1205 1204
f 1078 1206 1205
f 1078 1204 1077
f 1079 1206 1078
f 1080 1207 1206
f 1080 1208 1207
f 1080 1206 1079
f 1081 1208 1080
f 1082 1208 1081
f 1082 1209 1208
f 1082 1210 1209
f 1083 1210 1082
f 1084 1210 1083
f 1084 1211 1210
f 1085 1211 1084
f 1085 1212 1211
f 1085 1213 1212
f 1086 1213 1085
f 1086 1214 1213
f 1087 1214 1086
f 1088 1214 1087
f 1088 1215 1214
f 1089 1215 1088
f 1089 1216 1215
f 1090 1216 1089
f 1090 1217 1216
f 1091 1217 1090
f 1091 1218 1217
f 1092 1218 1091
f 1092 1219 1218
f 1093 1219 1092
f 1093 1220 1219
f 1094 1221 1220
f 1094 1220 1093
f 1095 1222 1221
f 1095 1221 1094
f 1096 1223 1222
f 1096 1222 1095
f 1097 1224 1223
f 1097 1225 1224
f 1097 1223 1096
f 1098 1225 1097
f 1099 1226 1225
f 1099 1227 1226
f 1099 1225 1098
f 1100 1227 1099
f 1101 1228 1227
f 1101 1227 1100
f 1102 1229 1228
f 1102 1230 1229
f 1102 1228 1101
f 1103 1230 1102
f 1104 1231 1230
f 1104 1230 1103
f 1105 1232 1231
f 1105 1231 1104
f 1106 1233 1232
f 1106 1232 1105
f 1107 1234 1233
f 1107 1233 1106
f 1108 1234 1107
f 1108 1235 1234
f 1109 1235 1108
f 1109 1236 1235
f 1109 1237 1236
f 1110 1237 1109
f 1111 1237 1110
f 1111 1238 1237
f 1112 1238 1111
f 1112 1239 1238
f 1113 1239 1112
f 1113 1240 1239
f 1114 1240 1113
f 1114 1241 1240
f 1115 1241 1114
f 1115 1242 1241
f 1116 1242 1115
f 1116 1243 1242
f 1116 1244 1243
f 1117 1244 1116
f 1118 1244 1117
f 1118 1245 1244
f 1119 1245 1118
f 1119 1246 1245
f 1120 1246 1119
f 1120 1247 1246
f 1121 1247 1120
f 1121 1248 1247
f 1121 1249 1248
f 1122 1249 1121
f 1123 1249 1122
f 1123 1250 1249
f 1123 1251 1250
f 1124 1251 1123
f 1125 1251 1124
f 1125 1252 1251
f 1126 1252 1125
f 1126 1253 1252
f 1127 1253 1126
f 1127 1254 1253
f 1128 1254 1127
f 1128 1255 1254
f 1128 1256 1255
f 1129 1256 1128
f 1130 1257 1256
f 1130 1256 1129
f 1131 1258 1257
f 1131 1259 1258
f 1131 1257 1130
f 1132 1260 1259
f 1132 1259 1131
f 1133 1260 1132
f 1133 1261 1260
f 1134 1261 1133
f 1134 1262 1261
f 1135 1262 1134
f 1136 1262 1135
f 1136 1263 1262
f 1136 1264 1263
f 1137 1264 1136
f 1137 1265 1264
f 1138 1265 1137
f 1139 1265 1138
f 1139 1266 1265
f 1140 1266 1139
f 1140 1267 1266
f 1140 1268 1267
f 1141 1268 1140
f 1142 1268 1141
f 1142 1269 1268
f 1143 1269 1142
f 1143 1270 1269
f 1144 1270 1143
f 1144 1271 1270
f 1145 1271 1144
f 1145 1272 1271
f 1146 1273 1272
f 1146 1272 1145
f 1147 1274 1273
f 1147 1273 1146
f 1148 1275 1274
f 1148 1274 1147
f 1149 1276 1275
f 1149 1275 1148
f 1150 1277 1276
f 1150 1276 1149
f 1151 1278 1277
f 1151 1277 1150
f 1152 1279 1278
f 1152 1278 1151
f 1153 1280 1279
f 1153 1279 1152
f 1154 1281 1280
f 1154 1282 1281
f 1154 1280 1153
f 1155 1282 1154
f 1156 1283 1282
f 1156 1282 1155
f 1157 1284 1283
f 1157 1285 1284
f 1157 1283 1156
f 1158 1285 1157
f 1159 1285 1158
f 1159 1286 1285
f 1160 1286 1159
f 1160 1287 1286
f 1161 1287 1160
f 1161 1288 1287
f 1161 1289 1288
f 1162 1289 1161
f 1162 1290 1289
f 1163 1290 1162
f 1164 1291 1290
f 1164 1292 1291
f 1164 1290 1163
f 1165 1292 1164
f 1166 1293 1292
f 1166 1292 1165
f 1167 1294 1293
f 1167 1293 1166
f 1168 1295 1294
f 1168 1294 1167
f 1169 1296 1295
f 1169 1295 1168
f 1170 1297 1296
f 1170 1296 1169
f 1171 1298 1297
f 1171 1297 1170
f 1172 1299 1298
f 1172 1298 1171
f 1173 1300 1299
f 1173 1301 1300
f 1173 1299 1172
f 1174 1302 1301
f 1174 1301 1173
f 1175 1303 1302
f 1175 1302 1174
f 1176 1303 1175
f 1177 1304 1303
f 1177 1303 1176
f 1178 1305 1304
f 1178 1304 1177
f 1179 1306 1305
f 1179 1305 1178
f 1180 1307 1306
f 1180 1306 1179
f 1181 1308 1307
f 1181 1307 1180
f 1182 1309 1308
f 1182 1310 1309
f 1182 1308 1181
f 1183 1310 1182
f 1184 1310 1183
f 1184 1311 1310
f 1184 1312 1311
f 1185 1312 1184
f 1186 1312 1185
f 1186 1313 1312
f 1187 1313 1186
f 1187 1314 1313
f 1187 1315 1314
f 1188 1315 1187
f 1189 1315 1188
f 1189 1316 1315
f 1190 1316 1189
f 1190 1317 1316
f 1190 1318 1317
f 1191 1318 1190
f 1192 1318 1191
f 1192 1319 1318
f 1193 1319 1192
f 1193 1320 1319
f 1194 1320 1193
f 1194 1321 1320
f 1195 1321 1194
f 1195 1322 1321
f 1196 1323 1322
f 1196 1322 1195
f 1197 1324 1323
f 1197 1323 1196
f 1326 1452 1325
f 1326 1453 1452
f 1327 1454 1453
f 1327 1455 1454
f 1327 1453 1326
f 1328 1455 1327
f 1329 1456 1455
f 1329 1457 1456
f 1329 1455 1328
f 1330 1457 1329
f 1331 1458 1457
f 1331 1457 1330
f 1332 1459 1458
f 1332 1460 1459
f 1332 1458 1331
f 1333 1460 1332
f 1334 1461 1460
f 1334 1462 1461
f 1334 1460 1333
f 1335 1462 1334
f 1336 1462 1335
f 1336 1463 1462
f 1336 1464 1463
f 1337 1464 1336
f 1338 1464 1337
f 1338 1465 1464
f 1339 1465 1338
f 1339 1466 1465
f 1339 1467 1466
f 1340 1467 1339
f 1340 1468 1467
f 1341 1468 1340
f 1342 1468 1341
f 1342 1469 1468
f 1343 1469 1342
f 1343 1470 1469
f 1344 1470 1343
f 1344 1471 1470
f 1345 1471 1344
f 1345 1472 1471
f 1346 1472 1345
f 1346 1473 1472
f 1347 1473 1346
f 1347 1474 1473
f 1348 1475 1474
f 1348 1474 1347
f 1349 1476 1475
f 1349 1475 1348
f 1350 1477 1476
f 1350 1476 1349
f 1351 1478 1477
f 1351 1479 1478
f 1351 1477 1350
f 1352 1479 1351
f 1353 1480 1479
f 1353 1481 1480
f 1353 1479 1352
f 1354 1481 1353
f 1355 1482 1481
f 1355 1481 1354
f 1356 1483 1482
f 1356 1484 1483
f 1356 1482 1355
f 1357 1484 1356
f 1358 1485 1484
f 1358 1484 1357
f 1359 1486 1485
f 1359 1485 1358
f 1360 1487 1486
f 1360 1486 1359
f 1361 1488 1487
f 1361 1487 1360
f 1362 1488 1361
f 1362 1489 1488
f 1363 1489 1362
f 1363 1490 1489
f 1363 1491 1490
f 1364 1491 1363
f 1365 1491 1364
f 1365 1492 1491
f 1366 1492 1365
f 1366 1493 1492
f 1367 1493 1366
f 1367 1494 1493
f 1368 1494 1367
f 1368 1495 1494
f 1369 1495 1368
f 1369 1496 1495
f 1370 1496 1369
f 1370 1497 1496
f 1370 1498 1497
f 1371 1498 1370
f 1372 1498 1371
f 1372 1499 1498
f 1373 1499 1372
f 1373 1500 1499
f 1374 1500 1373
f 1374 1501 1500
f 1375 1501 1374
f 1375 1502 1501
f 1375 1503 1502
f 1376 1503 1375
f 1377 1503 1376
f 1377 1504 1503
f 1377 1505 1504
f 1378 1505 1377
f 1379 1505 1378
f 1379 1506 1505
f 1380 1506 1379
f 1380 1507 1506
f 1381 1507 1380
f 1381 1508 1507
f 1382 1508 1381
f 1382 1509 1508
f 1382 1510 1509
f 1383 1510 1382
f 1384 1511 1510
f 1384 1510 1383
f 1385 1512 1511
f 1385 1513 1512
f 1385 1511 1384
f 1386 1514 1513
f 1386 1513 1385
f 1387 1514 1386
f 1387 1515 1514
f 1388 1515 1387
f 1388 1516 1515
f 1389 1516 1388
f 1390 1516 1389
f 1390 1517 1516
f 1390 1518 1517
f 1391 1518 1390
f 1391 1519 1518
f 1392 1519 1391
f 1393 1519 1392
f 1393 1520 1519
f 1394 1520 1393
f 1394 1521 1520
f 1394 1522 1521
f 1395 1522 1394
f 1396 1522 1395
f 1396 1523 1522
f 1397 1523 1396
f 1397 1524 1523
f 1398 1524 1397
f 1398 1525 1524
f 1399 1525 1398
f 1399 1526 1525
f 1400 1527 1526
f 1400 1526 1399
f 1401 1528 1527
f 1401 1527 1400
f 1402 1529 1528
f 1402 1528 1401
f 1403 1530 1529
f 1403 1529 1402
f 1404 1531 1530
f 1404 1530 1403
f 1405 1532 1531
f 1405 1531 1404
f 1406 1533 1532
f 1406 1532 1405
f 1407 1534 1533
f 1407 1533 1406
f 1408 1535 1534
f 1408 1536 1535
f 1408 1534 1407
f 1409 1536 1408
f 1410 1537 1536
f 1410 1536 1409
f 1411 1538 1537
f 1411 1539 1538
f 1411 1537 1410
f 1412 1539 1411
f 1413 1539 1412
f 1413 1540 1539
f 1414 1540 1413
f 1414 1541 1540
f 1415 1541 1414
f 1415 1542 1541
f 1415 1543 1542
f 1416 1543 1415
f 1416 1544 1543
f 1417 1544 1416
f 1418 1545 1544
f 1418 1546 1545
f 1418 1544 1417
f 1419 1546 1418
f 1420 1547 1546
f 1420 1546 1419
f 1421 1548 1547
f 1421 1547 1420
f 1422 1549 1548
f 1422 1548 1421
f 1423 1550 1549
f 1423 1549 1422
f 1424 1551 1550
f 1424 1550 1423
f 1425 1552 1551
f 1425 1551 1424
f 1426 1553 1552
f 1426 1552 1425
f 1427 1554 1553
f 1427 1555 1554
f 1427 1553 1426
f 1428 1556 1555
f 1428 1555 1427
f 1429 1557 1556
f 1429 1556 1428
f 1430 1557 1429
f 1431 1558 1557
f 1431 1557 1430
f 1432 1559 1558
f 1432 1558 1431
f 1433 1560 1559
f 1433 1559 1432
f 1434 1561 1560
f 1434 1560 1433
f 1435 1562 1561
f 1435 1561 1434
f 1436 1563 1562
f 1436 1564 1563
f 1436 1562 1435
f 1437 1564 1436
f 1438 1564 1437
f 1438 1565 1564
f 1438 1566 1565
f 1439 1566 1438
f 1440 1566 1439
f 1440 1567 1566
f 1441 1567 1440
f 1441 1568 1567
f 1441 1569 1568
f 1442 1569 1441
f 1443 1569 1442
f 1443 1570 1569
f 1444 1570 1443
f 1444 1571 1570
f 1444 1572 1571
f 1445 1572 1444
f 1446 1572 1445
f 1446 1573 1572
f 1447 1573 1446
f 1447 1574 1573
f 1448 1574 1447
f 1448 1575 1574
f 1449 1575 1448
f 1449 1576 1575
f 1450 1577 1576
f 1450 1576 1449
f 1451 1578 1577
f 1451 1577 1450
f 1582 1579 1580
f 1582 1581 1579
