# Cadless export: model
v 0 -15 0
v 0 -15 50
v 0 15 0
v 0 15 50
v 0 10.1 25.1
v 0 10.1 34.9
v 0 5.9 25.1
v 1.16214e-17 5.90261 24.9953
v 2.32139e-17 5.91044 24.8909
v 3.47487e-17 5.92346 24.787
v 4.61971e-17 5.94164 24.6839
v 5.75307e-17 5.96494 24.5818
v 6.87212e-17 5.9933 24.481
v 7.97409e-17 6.02665 24.3818
v 9.05623e-17 6.0649 24.2843
v 1.01159e-16 6.10797 24.1888
v 1.11503e-16 6.15573 24.0957
v 1.21571e-16 6.20809 24.005
v 1.31336e-16 6.2649 23.917
v 1.40775e-16 6.32602 23.832
v 1.49864e-16 6.39131 23.7501
v 1.5858e-16 6.46059 23.6716
v 1.66902e-16 6.5337 23.5967
v 1.74809e-16 6.61046 23.5255
v 1.82282e-16 6.69067 23.4582
v 1.89301e-16 6.77414 23.3949
v 1.95849e-16 6.86065 23.3359
v 2.01911e-16 6.95 23.2813
v 2.07471e-16 7.04196 23.2313
v 2.12515e-16 7.1363 23.1858
v 2.1703e-16 7.23278 23.1452
v 2.21006e-16 7.33118 23.1094
v 2.24433e-16 7.43124 23.0785
v 2.27301e-16 7.53271 23.0527
v 2.29605e-16 7.63534 23.0319
v 2.31337e-16 7.73888 23.0163
v 2.32495e-16 7.84307 23.0059
v 2.33074e-16 7.94765 23.0007
v 2.33074e-16 8.05235 23.0007
v 2.32495e-16 8.15693 23.0059
v 2.31337e-16 8.26112 23.0163
v 2.29605e-16 8.36466 23.0319
v 2.27301e-16 8.46729 23.0527
v 2.24433e-16 8.56876 23.0785
v 2.21006e-16 8.66882 23.1094
v 2.1703e-16 8.76722 23.1452
v 2.12515e-16 8.8637 23.1858
v 2.07471e-16 8.95804 23.2313
v 2.01911e-16 9.05 23.2813
v 1.95849e-16 9.13935 23.3359
v 1.89301e-16 9.22586 23.3949
v 1.82282e-16 9.30933 23.4582
v 1.74809e-16 9.38954 23.5255
v 1.66902e-16 9.4663 23.5967
v 1.5858e-16 9.53941 23.6716
v 1.49864e-16 9.60869 23.7501
v 1.40775e-16 9.67398 23.832
v 1.31336e-16 9.7351 23.917
v 1.21571e-16 9.79191 24.005
v 1.11503e-16 9.84427 24.0957
v 1.01159e-16 9.89203 24.1888
v 9.05623e-17 9.9351 24.2843
v 7.97409e-17 9.97335 24.3818
v 6.87212e-17 10.0067 24.481
v 5.75307e-17 10.0351 24.5818
v 4.61971e-17 10.0584 24.6839
v 3.47487e-17 10.0765 24.787
v 2.32139e-17 10.0896 24.8909
v 1.16214e-17 10.0974 24.9953
v 0 5.9 34.9
v -1.16214e-17 10.0974 35.0047
v -2.32139e-17 10.0896 35.1091
v -3.47487e-17 10.0765 35.213
v -4.61971e-17 10.0584 35.3161
v -5.75307e-17 10.0351 35.4182
v -6.87212e-17 10.0067 35.519
v -7.97409e-17 9.97335 35.6182
v -9.05623e-17 9.9351 35.7157
v -1.01159e-16 9.89203 35.8112
v -1.11503e-16 9.84427 35.9043
v -1.21571e-16 9.79191 35.995
v -1.31336e-16 9.7351 36.083
v -1.40775e-16 9.67398 36.168
v -1.49864e-16 9.60869 36.2499
v -1.5858e-16 9.53941 36.3284
v -1.66902e-16 9.4663 36.4033
v -1.74809e-16 9.38954 36.4745
v -1.82282e-16 9.30933 36.5418
v -1.89301e-16 9.22586 36.6051
v -1.95849e-16 9.13935 36.6641
v -2.01911e-16 9.05 36.7187
v -2.07471e-16 8.95804 36.7687
v -2.12515e-16 8.8637 36.8142
v -2.1703e-16 8.76722 36.8548
v -2.21006e-16 8.66882 36.8906
v -2.24433e-16 8.56876 36.9215
v -2.27301e-16 8.46729 36.9473
v -2.29605e-16 8.36466 36.9681
v -2.31337e-16 8.26112 36.9837
v -2.32495e-16 8.15693 36.9941
v -2.33074e-16 8.05235 36.9993
v -2.33074e-16 7.94765 36.9993
v -2.32495e-16 7.84307 36.9941
v -2.31337e-16 7.73888 36.9837
v -2.29605e-16 7.63534 36.9681
v -2.27301e-16 7.53271 36.9473
v -2.24433e-16 7.43124 36.9215
v -2.21006e-16 7.33118 36.8906
v -2.1703e-16 7.23278 36.8548
v -2.12515e-16 7.1363 36.8142
v -2.07471e-16 7.04196 36.7687
v -2.01911e-16 6.95 36.7187
v -1.95849e-16 6.86065 36.6641
v -1.89301e-16 6.77414 36.6051
v -1.82282e-16 6.69067 36.5418
v -1.74809e-16 6.61046 36.4745
v -1.66902e-16 6.5337 36.4033
v -1.5858e-16 6.46059 36.3284
v -1.49864e-16 6.39131 36.2499
v -1.40775e-16 6.32602 36.168
v -1.31336e-16 6.2649 36.083
v -1.21571e-16 6.20809 35.995
v -1.11503e-16 6.15573 35.9043
v -1.01159e-16 6.10797 35.8112
v -9.05623e-17 6.0649 35.7157
v -7.97409e-17 6.02665 35.6182
v -6.87212e-17 5.9933 35.519
v -5.75307e-17 5.96494 35.4182
v -4.61971e-17 5.94164 35.3161
v -3.47487e-17 5.92346 35.213
v -2.32139e-17 5.91044 35.1091
v -1.16214e-17 5.90261 35.0047
v 0 -5.9 25.1
v 0 -5.9 34.9
v 0 -10.1 25.1
v 1.16214e-17 -10.0974 24.9953
v 2.32139e-17 -10.0896 24.8909
v 3.47487e-17 -10.0765 24.787
v 4.61971e-17 -10.0584 24.6839
v 5.75307e-17 -10.0351 24.5818
v 6.87212e-17 -10.0067 24.481
v 7.97409e-17 -9.97335 24.3818
v 9.05623e-17 -9.9351 24.2843
v 1.01159e-16 -9.89203 24.1888
v 1.11503e-16 -9.84427 24.0957
v 1.21571e-16 -9.79191 24.005
v 1.31336e-16 -9.7351 23.917
v 1.40775e-16 -9.67398 23.832
v 1.49864e-16 -9.60869 23.7501
v 1.5858e-16 -9.53941 23.6716
v 1.66902e-16 -9.4663 23.5967
v 1.74809e-16 -9.38954 23.5255
v 1.82282e-16 -9.30933 23.4582
v 1.89301e-16 -9.22586 23.3949
v 1.95849e-16 -9.13935 23.3359
v 2.01911e-16 -9.05 23.2813
v 2.07471e-16 -8.95804 23.2313
v 2.12515e-16 -8.8637 23.1858
v 2.1703e-16 -8.76722 23.1452
v 2.21006e-16 -8.66882 23.1094
v 2.24433e-16 -8.56876 23.0785
v 2.27301e-16 -8.46729 23.0527
v 2.29605e-16 -8.36466 23.0319
v 2.31337e-16 -8.26112 23.0163
v 2.32495e-16 -8.15693 23.0059
v 2.33074e-16 -8.05235 23.0007
v 2.33074e-16 -7.94765 23.0007
v 2.32495e-16 -7.84307 23.0059
v 2.31337e-16 -7.73888 23.0163
v 2.29605e-16 -7.63534 23.0319
v 2.27301e-16 -7.53271 23.0527
v 2.24433e-16 -7.43124 23.0785
v 2.21006e-16 -7.33118 23.1094
v 2.1703e-16 -7.23278 23.1452
v 2.12515e-16 -7.1363 23.1858
v 2.07471e-16 -7.04196 23.2313
v 2.01911e-16 -6.95 23.2813
v 1.95849e-16 -6.86065 23.3359
v 1.89301e-16 -6.77414 23.3949
v 1.82282e-16 -6.69067 23.4582
v 1.74809e-16 -6.61046 23.5255
v 1.66902e-16 -6.5337 23.5967
v 1.5858e-16 -6.46059 23.6716
v 1.49864e-16 -6.39131 23.7501
v 1.40775e-16 -6.32602 23.832
v 1.31336e-16 -6.2649 23.917
v 1.21571e-16 -6.20809 24.005
v 1.11503e-16 -6.15573 24.0957
v 1.01159e-16 -6.10797 24.1888
v 9.05623e-17 -6.0649 24.2843
v 7.97409e-17 -6.02665 24.3818
v 6.87212e-17 -5.9933 24.481
v 5.75307e-17 -5.96494 24.5818
v 4.61971e-17 -5.94164 24.6839
v 3.47487e-17 -5.92346 24.787
v 2.32139e-17 -5.91044 24.8909
v 1.16214e-17 -5.90261 24.9953
v 0 -10.1 34.9
v -1.16214e-17 -5.90261 35.0047
v -2.32139e-17 -5.91044 35.1091
v -3.47487e-17 -5.92346 35.213
v -4.61971e-17 -5.94164 35.3161
v -5.75307e-17 -5.96494 35.4182
v -6.87212e-17 -5.9933 35.519
v -7.97409e-17 -6.02665 35.6182
v -9.05623e-17 -6.0649 35.7157
v -1.01159e-16 -6.10797 35.8112
v -1.11503e-16 -6.15573 35.9043
v -1.21571e-16 -6.20809 35.995
v -1.31336e-16 -6.2649 36.083
v -1.40775e-16 -6.32602 36.168
v -1.49864e-16 -6.39131 36.2499
v -1.5858e-16 -6.46059 36.3284
v -1.66902e-16 -6.5337 36.4033
v -1.74809e-16 -6.61046 36.4745
v -1.82282e-16 -6.69067 36.5418
v -1.89301e-16 -6.77414 36.6051
v -1.95849e-16 -6.86065 36.6641
v -2.01911e-16 -6.95 36.7187
v -2.07471e-16 -7.04196 36.7687
v -2.12515e-16 -7.1363 36.8142
v -2.1703e-16 -7.23278 36.8548
v -2.21006e-16 -7.33118 36.8906
v -2.24433e-16 -7.43124 36.9215
v -2.27301e-16 -7.53271 36.9473
v -2.29605e-16 -7.63534 36.9681
v -2.31337e-16 -7.73888 36.9837
v -2.32495e-16 -7.84307 36.9941
v -2.33074e-16 -7.94765 36.9993
v -2.33074e-16 -8.05235 36.9993
v -2.32495e-16 -8.15693 36.9941
v -2.31337e-16 -8.26112 36.9837
v -2.29605e-16 -8.36466 36.9681
v -2.27301e-16 -8.46729 36.9473
v -2.24433e-16 -8.56876 36.9215
v -2.21006e-16 -8.66882 36.8906
v -2.1703e-16 -8.76722 36.8548
v -2.12515e-16 -8.8637 36.8142
v -2.07471e-16 -8.95804 36.7687
v -2.01911e-16 -9.05 36.7187
v -1.95849e-16 -9.13935 36.6641
v -1.89301e-16 -9.22586 36.6051
v -1.82282e-16 -9.30933 36.5418
v -1.74809e-16 -9.38954 36.4745
v -1.66902e-16 -9.4663 36.4033
v -1.5858e-16 -9.53941 36.3284
v -1.49864e-16 -9.60869 36.2499
v -1.40775e-16 -9.67398 36.168
v -1.31336e-16 -9.7351 36.083
v -1.21571e-16 -9.79191 35.995
v -1.11503e-16 -9.84427 35.9043
v -1.01159e-16 -9.89203 35.8112
v -9.05623e-17 -9.9351 35.7157
v -7.97409e-17 -9.97335 35.6182
v -6.87212e-17 -10.0067 35.519
v -5.75307e-17 -10.0351 35.4182
v -4.61971e-17 -10.0584 35.3161
v -3.47487e-17 -10.0765 35.213
v -2.32139e-17 -10.0896 35.1091
v -1.16214e-17 -10.0974 35.0047
v 0 -5.9 34.9
v 4 -5.9 34.9
v -1.16214e-17 -5.90261 35.0047
v -2.32139e-17 -5.91044 35.1091
v -3.47487e-17 -5.92346 35.213
v -4.61971e-17 -5.94164 35.3161
v -5.75307e-17 -5.96494 35.4182
v -6.87212e-17 -5.9933 35.519
v -7.97409e-17 -6.02665 35.6182
v -9.05623e-17 -6.0649 35.7157
v -1.01159e-16 -6.10797 35.8112
v -1.11503e-16 -6.15573 35.9043
v -1.21571e-16 -6.20809 35.995
v -1.31336e-16 -6.2649 36.083
v -1.40775e-16 -6.32602 36.168
v -1.49864e-16 -6.39131 36.2499
v -1.5858e-16 -6.46059 36.3284
v -1.66902e-16 -6.5337 36.4033
v -1.74809e-16 -6.61046 36.4745
v -1.82282e-16 -6.69067 36.5418
v -1.89301e-16 -6.77414 36.6051
v -1.95849e-16 -6.86065 36.6641
v -2.01911e-16 -6.95 36.7187
v -2.07471e-16 -7.04196 36.7687
v -2.12515e-16 -7.1363 36.8142
v -2.1703e-16 -7.23278 36.8548
v -2.21006e-16 -7.33118 36.8906
v -2.24433e-16 -7.43124 36.9215
v -2.27301e-16 -7.53271 36.9473
v -2.29605e-16 -7.63534 36.9681
v -2.31337e-16 -7.73888 36.9837
v -2.32495e-16 -7.84307 36.9941
v -2.33074e-16 -7.94765 36.9993
v -2.33074e-16 -8.05235 36.9993
v -2.32495e-16 -8.15693 36.9941
v -2.31337e-16 -8.26112 36.9837
v -2.29605e-16 -8.36466 36.9681
v -2.27301e-16 -8.46729 36.9473
v -2.24433e-16 -8.56876 36.9215
v -2.21006e-16 -8.66882 36.8906
v -2.1703e-16 -8.76722 36.8548
v -2.12515e-16 -8.8637 36.8142
v -2.07471e-16 -8.95804 36.7687
v -2.01911e-16 -9.05 36.7187
v -1.95849e-16 -9.13935 36.6641
v -1.89301e-16 -9.22586 36.6051
v -1.82282e-16 -9.30933 36.5418
v -1.74809e-16 -9.38954 36.4745
v -1.66902e-16 -9.4663 36.4033
v -1.5858e-16 -9.53941 36.3284
v -1.49864e-16 -9.60869 36.2499
v -1.40775e-16 -9.67398 36.168
v -1.31336e-16 -9.7351 36.083
v -1.21571e-16 -9.79191 35.995
v -1.11503e-16 -9.84427 35.9043
v -1.01159e-16 -9.89203 35.8112
v -9.05623e-17 -9.9351 35.7157
v -7.97409e-17 -9.97335 35.6182
v -6.87212e-17 -10.0067 35.519
v -5.75307e-17 -10.0351 35.4182
v -4.61971e-17 -10.0584 35.3161
v -3.47487e-17 -10.0765 35.213
v -2.32139e-17 -10.0896 35.1091
v -1.16214e-17 -10.0974 35.0047
v 0 -10.1 34.9
v 4 -10.1 34.9
v 4 -5.90261 35.0047
v 4 -5.91044 35.1091
v 4 -5.92346 35.213
v 4 -5.94164 35.3161
v 4 -5.96494 35.4182
v 4 -5.9933 35.519
v 4 -6.02665 35.6182
v 4 -6.0649 35.7157
v 4 -6.10797 35.8112
v 4 -6.15573 35.9043
v 4 -6.20809 35.995
v 4 -6.2649 36.083
v 4 -6.32602 36.168
v 4 -6.39131 36.2499
v 4 -6.46059 36.3284
v 4 -6.5337 36.4033
v 4 -6.61046 36.4745
v 4 -6.69067 36.5418
v 4 -6.77414 36.6051
v 4 -6.86065 36.6641
v 4 -6.95 36.7187
v 4 -7.04196 36.7687
v 4 -7.1363 36.8142
v 4 -7.23278 36.8548
v 4 -7.33118 36.8906
v 4 -7.43124 36.9215
v 4 -7.53271 36.9473
v 4 -7.63534 36.9681
v 4 -7.73888 36.9837
v 4 -7.84307 36.9941
v 4 -7.94765 36.9993
v 4 -8.05235 36.9993
v 4 -8.15693 36.9941
v 4 -8.26112 36.9837
v 4 -8.36466 36.9681
v 4 -8.46729 36.9473
v 4 -8.56876 36.9215
v 4 -8.66882 36.8906
v 4 -8.76722 36.8548
v 4 -8.8637 36.8142
v 4 -8.95804 36.7687
v 4 -9.05 36.7187
v 4 -9.13935 36.6641
v 4 -9.22586 36.6051
v 4 -9.30933 36.5418
v 4 -9.38954 36.4745
v 4 -9.4663 36.4033
v 4 -9.53941 36.3284
v 4 -9.60869 36.2499
v 4 -9.67398 36.168
v 4 -9.7351 36.083
v 4 -9.79191 35.995
v 4 -9.84427 35.9043
v 4 -9.89203 35.8112
v 4 -9.9351 35.7157
v 4 -9.97335 35.6182
v 4 -10.0067 35.519
v 4 -10.0351 35.4182
v 4 -10.0584 35.3161
v 4 -10.0765 35.213
v 4 -10.0896 35.1091
v 4 -10.0974 35.0047
v 4 -15 4
v 4 -15 50
v 4 15 4
v 4 15 50
v 4 10.1 25.1
v 4 10.1 34.9
v 4 5.9 25.1
v 4 5.90261 24.9953
v 4 5.91044 24.8909
v 4 5.92346 24.787
v 4 5.94164 24.6839
v 4 5.96494 24.5818
v 4 5.9933 24.481
v 4 6.02665 24.3818
v 4 6.0649 24.2843
v 4 6.10797 24.1888
v 4 6.15573 24.0957
v 4 6.20809 24.005
v 4 6.2649 23.917
v 4 6.32602 23.832
v 4 6.39131 23.7501
v 4 6.46059 23.6716
v 4 6.5337 23.5967
v 4 6.61046 23.5255
v 4 6.69067 23.4582
v 4 6.77414 23.3949
v 4 6.86065 23.3359
v 4 6.95 23.2813
v 4 7.04196 23.2313
v 4 7.1363 23.1858
v 4 7.23278 23.1452
v 4 7.33118 23.1094
v 4 7.43124 23.0785
v 4 7.53271 23.0527
v 4 7.63534 23.0319
v 4 7.73888 23.0163
v 4 7.84307 23.0059
v 4 7.94765 23.0007
v 4 8.05235 23.0007
v 4 8.15693 23.0059
v 4 8.26112 23.0163
v 4 8.36466 23.0319
v 4 8.46729 23.0527
v 4 8.56876 23.0785
v 4 8.66882 23.1094
v 4 8.76722 23.1452
v 4 8.8637 23.1858
v 4 8.95804 23.2313
v 4 9.05 23.2813
v 4 9.13935 23.3359
v 4 9.22586 23.3949
v 4 9.30933 23.4582
v 4 9.38954 23.5255
v 4 9.4663 23.5967
v 4 9.53941 23.6716
v 4 9.60869 23.7501
v 4 9.67398 23.832
v 4 9.7351 23.917
v 4 9.79191 24.005
v 4 9.84427 24.0957
v 4 9.89203 24.1888
v 4 9.9351 24.2843
v 4 9.97335 24.3818
v 4 10.0067 24.481
v 4 10.0351 24.5818
v 4 10.0584 24.6839
v 4 10.0765 24.787
v 4 10.0896 24.8909
v 4 10.0974 24.9953
v 4 5.9 34.9
v 4 10.0974 35.0047
v 4 10.0896 35.1091
v 4 10.0765 35.213
v 4 10.0584 35.3161
v 4 10.0351 35.4182
v 4 10.0067 35.519
v 4 9.97335 35.6182
v 4 9.9351 35.7157
v 4 9.89203 35.8112
v 4 9.84427 35.9043
v 4 9.79191 35.995
v 4 9.7351 36.083
v 4 9.67398 36.168
v 4 9.60869 36.2499
v 4 9.53941 36.3284
v 4 9.4663 36.4033
v 4 9.38954 36.4745
v 4 9.30933 36.5418
v 4 9.22586 36.6051
v 4 9.13935 36.6641
v 4 9.05 36.7187
v 4 8.95804 36.7687
v 4 8.8637 36.8142
v 4 8.76722 36.8548
v 4 8.66882 36.8906
v 4 8.56876 36.9215
v 4 8.46729 36.9473
v 4 8.36466 36.9681
v 4 8.26112 36.9837
v 4 8.15693 36.9941
v 4 8.05235 36.9993
v 4 7.94765 36.9993
v 4 7.84307 36.9941
v 4 7.73888 36.9837
v 4 7.63534 36.9681
v 4 7.53271 36.9473
v 4 7.43124 36.9215
v 4 7.33118 36.8906
v 4 7.23278 36.8548
v 4 7.1363 36.8142
v 4 7.04196 36.7687
v 4 6.95 36.7187
v 4 6.86065 36.6641
v 4 6.77414 36.6051
v 4 6.69067 36.5418
v 4 6.61046 36.4745
v 4 6.5337 36.4033
v 4 6.46059 36.3284
v 4 6.39131 36.2499
v 4 6.32602 36.168
v 4 6.2649 36.083
v 4 6.20809 35.995
v 4 6.15573 35.9043
v 4 6.10797 35.8112
v 4 6.0649 35.7157
v 4 6.02665 35.6182
v 4 5.9933 35.519
v 4 5.96494 35.4182
v 4 5.94164 35.3161
v 4 5.92346 35.213
v 4 5.91044 35.1091
v 4 5.90261 35.0047
v 4 -5.9 25.1
v 4 -5.9 34.9
v 4 -10.1 25.1
v 4 -10.0974 24.9953
v 4 -10.0896 24.8909
v 4 -10.0765 24.787
v 4 -10.0584 24.6839
v 4 -10.0351 24.5818
v 4 -10.0067 24.481
v 4 -9.97335 24.3818
v 4 -9.9351 24.2843
v 4 -9.89203 24.1888
v 4 -9.84427 24.0957
v 4 -9.79191 24.005
v 4 -9.7351 23.917
v 4 -9.67398 23.832
v 4 -9.60869 23.7501
v 4 -9.53941 23.6716
v 4 -9.4663 23.5967
v 4 -9.38954 23.5255
v 4 -9.30933 23.4582
v 4 -9.22586 23.3949
v 4 -9.13935 23.3359
v 4 -9.05 23.2813
v 4 -8.95804 23.2313
v 4 -8.8637 23.1858
v 4 -8.76722 23.1452
v 4 -8.66882 23.1094
v 4 -8.56876 23.0785
v 4 -8.46729 23.0527
v 4 -8.36466 23.0319
v 4 -8.26112 23.0163
v 4 -8.15693 23.0059
v 4 -8.05235 23.0007
v 4 -7.94765 23.0007
v 4 -7.84307 23.0059
v 4 -7.73888 23.0163
v 4 -7.63534 23.0319
v 4 -7.53271 23.0527
v 4 -7.43124 23.0785
v 4 -7.33118 23.1094
v 4 -7.23278 23.1452
v 4 -7.1363 23.1858
v 4 -7.04196 23.2313
v 4 -6.95 23.2813
v 4 -6.86065 23.3359
v 4 -6.77414 23.3949
v 4 -6.69067 23.4582
v 4 -6.61046 23.5255
v 4 -6.5337 23.5967
v 4 -6.46059 23.6716
v 4 -6.39131 23.7501
v 4 -6.32602 23.832
v 4 -6.2649 23.917
v 4 -6.20809 24.005
v 4 -6.15573 24.0957
v 4 -6.10797 24.1888
v 4 -6.0649 24.2843
v 4 -6.02665 24.3818
v 4 -5.9933 24.481
v 4 -5.96494 24.5818
v 4 -5.94164 24.6839
v 4 -5.92346 24.787
v 4 -5.91044 24.8909
v 4 -5.90261 24.9953
v 4 -10.1 34.9
v 4 -5.90261 35.0047
v 4 -5.91044 35.1091
v 4 -5.92346 35.213
v 4 -5.94164 35.3161
v 4 -5.96494 35.4182
v 4 -5.9933 35.519
v 4 -6.02665 35.6182
v 4 -6.0649 35.7157
v 4 -6.10797 35.8112
v 4 -6.15573 35.9043
v 4 -6.20809 35.995
v 4 -6.2649 36.083
v 4 -6.32602 36.168
v 4 -6.39131 36.2499
v 4 -6.46059 36.3284
v 4 -6.5337 36.4033
v 4 -6.61046 36.4745
v 4 -6.69067 36.5418
v 4 -6.77414 36.6051
v 4 -6.86065 36.6641
v 4 -6.95 36.7187
v 4 -7.04196 36.7687
v 4 -7.1363 36.8142
v 4 -7.23278 36.8548
v 4 -7.33118 36.8906
v 4 -7.43124 36.9215
v 4 -7.53271 36.9473
v 4 -7.63534 36.9681
v 4 -7.73888 36.9837
v 4 -7.84307 36.9941
v 4 -7.94765 36.9993
v 4 -8.05235 36.9993
v 4 -8.15693 36.9941
v 4 -8.26112 36.9837
v 4 -8.36466 36.9681
v 4 -8.46729 36.9473
v 4 -8.56876 36.9215
v 4 -8.66882 36.8906
v 4 -8.76722 36.8548
v 4 -8.8637 36.8142
v 4 -8.95804 36.7687
v 4 -9.05 36.7187
v 4 -9.13935 36.6641
v 4 -9.22586 36.6051
v 4 -9.30933 36.5418
v 4 -9.38954 36.4745
v 4 -9.4663 36.4033
v 4 -9.53941 36.3284
v 4 -9.60869 36.2499
v 4 -9.67398 36.168
v 4 -9.7351 36.083
v 4 -9.79191 35.995
v 4 -9.84427 35.9043
v 4 -9.89203 35.8112
v 4 -9.9351 35.7157
v 4 -9.97335 35.6182
v 4 -10.0067 35.519
v 4 -10.0351 35.4182
v 4 -10.0584 35.3161
v 4 -10.0765 35.213
v 4 -10.0896 35.1091
v 4 -10.0974 35.0047
v 4 15 4
v 40 15 4
v 4 -15 4
v 40 -15 4
v 40 -15 0
v 40 -15 4
v 40 15 0
v 40 15 4
v 0 -10.1 25.1
v 4 -10.1 25.1
v 0 -10.1 34.9
v 4 -10.1 34.9
v 0 -10.1 25.1
v 1.16214e-17 -10.0974 24.9953
v 2.32139e-17 -10.0896 24.8909
v 3.47487e-17 -10.0765 24.787
v 4.61971e-17 -10.0584 24.6839
v 5.75307e-17 -10.0351 24.5818
v 6.87212e-17 -10.0067 24.481
v 7.97409e-17 -9.97335 24.3818
v 9.05623e-17 -9.9351 24.2843
v 1.01159e-16 -9.89203 24.1888
v 1.11503e-16 -9.84427 24.0957
v 1.21571e-16 -9.79191 24.005
v 1.31336e-16 -9.7351 23.917
v 1.40775e-16 -9.67398 23.832
v 1.49864e-16 -9.60869 23.7501
v 1.5858e-16 -9.53941 23.6716
v 1.66902e-16 -9.4663 23.5967
v 1.74809e-16 -9.38954 23.5255
v 1.82282e-16 -9.30933 23.4582
v 1.89301e-16 -9.22586 23.3949
v 1.95849e-16 -9.13935 23.3359
v 2.01911e-16 -9.05 23.2813
v 2.07471e-16 -8.95804 23.2313
v 2.12515e-16 -8.8637 23.1858
v 2.1703e-16 -8.76722 23.1452
v 2.21006e-16 -8.66882 23.1094
v 2.24433e-16 -8.56876 23.0785
v 2.27301e-16 -8.46729 23.0527
v 2.29605e-16 -8.36466 23.0319
v 2.31337e-16 -8.26112 23.0163
v 2.32495e-16 -8.15693 23.0059
v 2.33074e-16 -8.05235 23.0007
v 2.33074e-16 -7.94765 23.0007
v 2.32495e-16 -7.84307 23.0059
v 2.31337e-16 -7.73888 23.0163
v 2.29605e-16 -7.63534 23.0319
v 2.27301e-16 -7.53271 23.0527
v 2.24433e-16 -7.43124 23.0785
v 2.21006e-16 -7.33118 23.1094
v 2.1703e-16 -7.23278 23.1452
v 2.12515e-16 -7.1363 23.1858
v 2.07471e-16 -7.04196 23.2313
v 2.01911e-16 -6.95 23.2813
v 1.95849e-16 -6.86065 23.3359
v 1.89301e-16 -6.77414 23.3949
v 1.82282e-16 -6.69067 23.4582
v 1.74809e-16 -6.61046 23.5255
v 1.66902e-16 -6.5337 23.5967
v 1.5858e-16 -6.46059 23.6716
v 1.49864e-16 -6.39131 23.7501
v 1.40775e-16 -6.32602 23.832
v 1.31336e-16 -6.2649 23.917
v 1.21571e-16 -6.20809 24.005
v 1.11503e-16 -6.15573 24.0957
v 1.01159e-16 -6.10797 24.1888
v 9.05623e-17 -6.0649 24.2843
v 7.97409e-17 -6.02665 24.3818
v 6.87212e-17 -5.9933 24.481
v 5.75307e-17 -5.96494 24.5818
v 4.61971e-17 -5.94164 24.6839
v 3.47487e-17 -5.92346 24.787
v 2.32139e-17 -5.91044 24.8909
v 1.16214e-17 -5.90261 24.9953
v 0 -5.9 25.1
v 4 -5.9 25.1
v 4 -10.1 25.1
v 4 -10.0974 24.9953
v 4 -10.0896 24.8909
v 4 -10.0765 24.787
v 4 -10.0584 24.6839
v 4 -10.0351 24.5818
v 4 -10.0067 24.481
v 4 -9.97335 24.3818
v 4 -9.9351 24.2843
v 4 -9.89203 24.1888
v 4 -9.84427 24.0957
v 4 -9.79191 24.005
v 4 -9.7351 23.917
v 4 -9.67398 23.832
v 4 -9.60869 23.7501
v 4 -9.53941 23.6716
v 4 -9.4663 23.5967
v 4 -9.38954 23.5255
v 4 -9.30933 23.4582
v 4 -9.22586 23.3949
v 4 -9.13935 23.3359
v 4 -9.05 23.2813
v 4 -8.95804 23.2313
v 4 -8.8637 23.1858
v 4 -8.76722 23.1452
v 4 -8.66882 23.1094
v 4 -8.56876 23.0785
v 4 -8.46729 23.0527
v 4 -8.36466 23.0319
v 4 -8.26112 23.0163
v 4 -8.15693 23.0059
v 4 -8.05235 23.0007
v 4 -7.94765 23.0007
v 4 -7.84307 23.0059
v 4 -7.73888 23.0163
v 4 -7.63534 23.0319
v 4 -7.53271 23.0527
v 4 -7.43124 23.0785
v 4 -7.33118 23.1094
v 4 -7.23278 23.1452
v 4 -7.1363 23.1858
v 4 -7.04196 23.2313
v 4 -6.95 23.2813
v 4 -6.86065 23.3359
v 4 -6.77414 23.3949
v 4 -6.69067 23.4582
v 4 -6.61046 23.5255
v 4 -6.5337 23.5967
v 4 -6.46059 23.6716
v 4 -6.39131 23.7501
v 4 -6.32602 23.832
v 4 -6.2649 23.917
v 4 -6.20809 24.005
v 4 -6.15573 24.0957
v 4 -6.10797 24.1888
v 4 -6.0649 24.2843
v 4 -6.02665 24.3818
v 4 -5.9933 24.481
v 4 -5.96494 24.5818
v 4 -5.94164 24.6839
v 4 -5.92346 24.787
v 4 -5.91044 24.8909
v 4 -5.90261 24.9953
v 0 -5.9 25.1
v 4 -5.9 25.1
v 0 -5.9 34.9
v 4 -5.9 34.9
v 0 10.1 34.9
v 4 10.1 34.9
v -1.16214e-17 10.0974 35.0047
v -2.32139e-17 10.0896 35.1091
v -3.47487e-17 10.0765 35.213
v -4.61971e-17 10.0584 35.3161
v -5.75307e-17 10.0351 35.4182
v -6.87212e-17 10.0067 35.519
v -7.97409e-17 9.97335 35.6182
v -9.05623e-17 9.9351 35.7157
v -1.01159e-16 9.89203 35.8112
v -1.11503e-16 9.84427 35.9043
v -1.21571e-16 9.79191 35.995
v -1.31336e-16 9.7351 36.083
v -1.40775e-16 9.67398 36.168
v -1.49864e-16 9.60869 36.2499
v -1.5858e-16 9.53941 36.3284
v -1.66902e-16 9.4663 36.4033
v -1.74809e-16 9.38954 36.4745
v -1.82282e-16 9.30933 36.5418
v -1.89301e-16 9.22586 36.6051
v -1.95849e-16 9.13935 36.6641
v -2.01911e-16 9.05 36.7187
v -2.07471e-16 8.95804 36.7687
v -2.12515e-16 8.8637 36.8142
v -2.1703e-16 8.76722 36.8548
v -2.21006e-16 8.66882 36.8906
v -2.24433e-16 8.56876 36.9215
v -2.27301e-16 8.46729 36.9473
v -2.29605e-16 8.36466 36.9681
v -2.31337e-16 8.26112 36.9837
v -2.32495e-16 8.15693 36.9941
v -2.33074e-16 8.05235 36.9993
v -2.33074e-16 7.94765 36.9993
v -2.32495e-16 7.84307 36.9941
v -2.31337e-16 7.73888 36.9837
v -2.29605e-16 7.63534 36.9681
v -2.27301e-16 7.53271 36.9473
v -2.24433e-16 7.43124 36.9215
v -2.21006e-16 7.33118 36.8906
v -2.1703e-16 7.23278 36.8548
v -2.12515e-16 7.1363 36.8142
v -2.07471e-16 7.04196 36.7687
v -2.01911e-16 6.95 36.7187
v -1.95849e-16 6.86065 36.6641
v -1.89301e-16 6.77414 36.6051
v -1.82282e-16 6.69067 36.5418
v -1.74809e-16 6.61046 36.4745
v -1.66902e-16 6.5337 36.4033
v -1.5858e-16 6.46059 36.3284
v -1.49864e-16 6.39131 36.2499
v -1.40775e-16 6.32602 36.168
v -1.31336e-16 6.2649 36.083
v -1.21571e-16 6.20809 35.995
v -1.11503e-16 6.15573 35.9043
v -1.01159e-16 6.10797 35.8112
v -9.05623e-17 6.0649 35.7157
v -7.97409e-17 6.02665 35.6182
v -6.87212e-17 5.9933 35.519
v -5.75307e-17 5.96494 35.4182
v -4.61971e-17 5.94164 35.3161
v -3.47487e-17 5.92346 35.213
v -2.32139e-17 5.91044 35.1091
v -1.16214e-17 5.90261 35.0047
v 0 5.9 34.9
v 4 5.9 34.9
v 4 10.0974 35.0047
v 4 10.0896 35.1091
v 4 10.0765 35.213
v 4 10.0584 35.3161
v 4 10.0351 35.4182
v 4 10.0067 35.519
v 4 9.97335 35.6182
v 4 9.9351 35.7157
v 4 9.89203 35.8112
v 4 9.84427 35.9043
v 4 9.79191 35.995
v 4 9.7351 36.083
v 4 9.67398 36.168
v 4 9.60869 36.2499
v 4 9.53941 36.3284
v 4 9.4663 36.4033
v 4 9.38954 36.4745
v 4 9.30933 36.5418
v 4 9.22586 36.6051
v 4 9.13935 36.6641
v 4 9.05 36.7187
v 4 8.95804 36.7687
v 4 8.8637 36.8142
v 4 8.76722 36.8548
v 4 8.66882 36.8906
v 4 8.56876 36.9215
v 4 8.46729 36.9473
v 4 8.36466 36.9681
v 4 8.26112 36.9837
v 4 8.15693 36.9941
v 4 8.05235 36.9993
v 4 7.94765 36.9993
v 4 7.84307 36.9941
v 4 7.73888 36.9837
v 4 7.63534 36.9681
v 4 7.53271 36.9473
v 4 7.43124 36.9215
v 4 7.33118 36.8906
v 4 7.23278 36.8548
v 4 7.1363 36.8142
v 4 7.04196 36.7687
v 4 6.95 36.7187
v 4 6.86065 36.6641
v 4 6.77414 36.6051
v 4 6.69067 36.5418
v 4 6.61046 36.4745
v 4 6.5337 36.4033
v 4 6.46059 36.3284
v 4 6.39131 36.2499
v 4 6.32602 36.168
v 4 6.2649 36.083
v 4 6.20809 35.995
v 4 6.15573 35.9043
v 4 6.10797 35.8112
v 4 6.0649 35.7157
v 4 6.02665 35.6182
v 4 5.9933 35.519
v 4 5.96494 35.4182
v 4 5.94164 35.3161
v 4 5.92346 35.213
v 4 5.91044 35.1091
v 4 5.90261 35.0047
v 0 5.9 25.1
v 4 5.9 25.1
v 0 5.9 34.9
v 4 5.9 34.9
v 0 5.9 25.1
v 1.16214e-17 5.90261 24.9953
v 2.32139e-17 5.91044 24.8909
v 3.47487e-17 5.92346 24.787
v 4.61971e-17 5.94164 24.6839
v 5.75307e-17 5.96494 24.5818
v 6.87212e-17 5.9933 24.481
v 7.97409e-17 6.02665 24.3818
v 9.05623e-17 6.0649 24.2843
v 1.01159e-16 6.10797 24.1888
v 1.11503e-16 6.15573 24.0957
v 1.21571e-16 6.20809 24.005
v 1.31336e-16 6.2649 23.917
v 1.40775e-16 6.32602 23.832
v 1.49864e-16 6.39131 23.7501
v 1.5858e-16 6.46059 23.6716
v 1.66902e-16 6.5337 23.5967
v 1.74809e-16 6.61046 23.5255
v 1.82282e-16 6.69067 23.4582
v 1.89301e-16 6.77414 23.3949
v 1.95849e-16 6.86065 23.3359
v 2.01911e-16 6.95 23.2813
v 2.07471e-16 7.04196 23.2313
v 2.12515e-16 7.1363 23.1858
v 2.1703e-16 7.23278 23.1452
v 2.21006e-16 7.33118 23.1094
v 2.24433e-16 7.43124 23.0785
v 2.27301e-16 7.53271 23.0527
v 2.29605e-16 7.63534 23.0319
v 2.31337e-16 7.73888 23.0163
v 2.32495e-16 7.84307 23.0059
v 2.33074e-16 7.94765 23.0007
v 2.33074e-16 8.05235 23.0007
v 2.32495e-16 8.15693 23.0059
v 2.31337e-16 8.26112 23.0163
v 2.29605e-16 8.36466 23.0319
v 2.27301e-16 8.46729 23.0527
v 2.24433e-16 8.56876 23.0785
v 2.21006e-16 8.66882 23.1094
v 2.1703e-16 8.76722 23.1452
v 2.12515e-16 8.8637 23.1858
v 2.07471e-16 8.95804 23.2313
v 2.01911e-16 9.05 23.2813
v 1.95849e-16 9.13935 23.3359
v 1.89301e-16 9.22586 23.3949
v 1.82282e-16 9.30933 23.4582
v 1.74809e-16 9.38954 23.5255
v 1.66902e-16 9.4663 23.5967
v 1.5858e-16 9.53941 23.6716
v 1.49864e-16 9.60869 23.7501
v 1.40775e-16 9.67398 23.832
v 1.31336e-16 9.7351 23.917
v 1.21571e-16 9.79191 24.005
v 1.11503e-16 9.84427 24.0957
v 1.01159e-16 9.89203 24.1888
v 9.05623e-17 9.9351 24.2843
v 7.97409e-17 9.97335 24.3818
v 6.87212e-17 10.0067 24.481
v 5.75307e-17 10.0351 24.5818
v 4.61971e-17 10.0584 24.6839
v 3.47487e-17 10.0765 24.787
v 2.32139e-17 10.0896 24.8909
v 1.16214e-17 10.0974 24.9953
v 0 10.1 25.1
v 4 10.1 25.1
v 4 5.9 25.1
v 4 5.90261 24.9953
v 4 5.91044 24.8909
v 4 5.92346 24.787
v 4 5.94164 24.6839
v 4 5.96494 24.5818
v 4 5.9933 24.481
v 4 6.02665 24.3818
v 4 6.0649 24.2843
v 4 6.10797 24.1888
v 4 6.15573 24.0957
v 4 6.20809 24.005
v 4 6.2649 23.917
v 4 6.32602 23.832
v 4 6.39131 23.7501
v 4 6.46059 23.6716
v 4 6.5337 23.5967
v 4 6.61046 23.5255
v 4 6.69067 23.4582
v 4 6.77414 23.3949
v 4 6.86065 23.3359
v 4 6.95 23.2813
v 4 7.04196 23.2313
v 4 7.1363 23.1858
v 4 7.23278 23.1452
v 4 7.33118 23.1094
v 4 7.43124 23.0785
v 4 7.53271 23.0527
v 4 7.63534 23.0319
v 4 7.73888 23.0163
v 4 7.84307 23.0059
v 4 7.94765 23.0007
v 4 8.05235 23.0007
v 4 8.15693 23.0059
v 4 8.26112 23.0163
v 4 8.36466 23.0319
v 4 8.46729 23.0527
v 4 8.56876 23.0785
v 4 8.66882 23.1094
v 4 8.76722 23.1452
v 4 8.8637 23.1858
v 4 8.95804 23.2313
v 4 9.05 23.2813
v 4 9.13935 23.3359
v 4 9.22586 23.3949
v 4 9.30933 23.4582
v 4 9.38954 23.5255
v 4 9.4663 23.5967
v 4 9.53941 23.6716
v 4 9.60869 23.7501
v 4 9.67398 23.832
v 4 9.7351 23.917
v 4 9.79191 24.005
v 4 9.84427 24.0957
v 4 9.89203 24.1888
v 4 9.9351 24.2843
v 4 9.97335 24.3818
v 4 10.0067 24.481
v 4 10.0351 24.5818
v 4 10.0584 24.6839
v 4 10.0765 24.787
v 4 10.0896 24.8909
v 4 10.0974 24.9953
v 0 10.1 25.1
v 4 10.1 25.1
v 0 10.1 34.9
v 4 10.1 34.9
v 0 -15 50
v 0 15 50
v 4 -15 50
v 4 15 50
v 0 15 50
v 0 15 0
v 4 15 50
v 4 15 4
v 40 15 4
v 40 15 0
v 0 -15 0
v 0 15 0
v 40 -15 0
v 40 15 0
v 0 -15 0
v 40 -15 0
v 0 -15 50
v 4 -15 50
v 4 -15 4
v 40 -15 4
f 55 3 54
f 53 54 3
f 56 3 55
f 52 53 3
f 57 3 56
f 51 52 3
f 58 3 57
f 50 51 3
f 59 3 58
f 49 50 3
f 60 3 59
f 48 49 3
f 61 3 60
f 47 48 3
f 62 3 61
f 46 47 3
f 63 3 62
f 45 46 3
f 64 3 63
f 44 45 3
f 65 3 64
f 43 44 3
f 66 3 65
f 42 43 3
f 67 3 66
f 41 42 3
f 68 3 67
f 40 41 3
f 69 3 68
f 39 40 3
f 5 3 69
f 38 39 3
f 37 38 3
f 36 37 3
f 35 36 3
f 34 35 3
f 33 34 3
f 32 33 3
f 31 32 3
f 30 31 3
f 183 21 22
f 183 22 23
f 183 23 182
f 181 23 24
f 181 182 23
f 184 21 183
f 180 24 25
f 180 181 24
f 185 20 21
f 185 21 184
f 179 25 26
f 179 180 25
f 186 18 19
f 186 19 20
f 186 20 185
f 178 26 27
f 178 27 28
f 178 179 26
f 187 18 186
f 177 178 28
f 188 17 18
f 188 18 187
f 176 28 29
f 176 177 28
f 189 15 16
f 189 16 17
f 189 17 188
f 175 3 1
f 175 29 30
f 175 176 29
f 175 30 3
f 190 15 189
f 174 175 1
f 191 13 14
f 191 14 15
f 191 15 190
f 173 174 1
f 192 12 13
f 192 13 191
f 172 173 1
f 193 12 192
f 171 172 1
f 194 11 12
f 194 12 193
f 170 171 1
f 195 9 10
f 195 10 11
f 195 11 194
f 169 170 1
f 196 8 9
f 196 9 195
f 168 169 1
f 197 7 8
f 197 8 196
f 167 168 1
f 133 7 197
f 166 167 1
f 165 166 1
f 164 165 1
f 163 164 1
f 162 163 1
f 161 162 1
f 160 161 1
f 159 160 1
f 158 159 1
f 157 158 1
f 156 157 1
f 155 156 1
f 154 155 1
f 153 154 1
f 152 153 1
f 151 152 1
f 150 151 1
f 149 150 1
f 148 149 1
f 147 148 1
f 146 147 1
f 145 146 1
f 144 145 1
f 143 144 1
f 142 143 1
f 141 142 1
f 140 141 1
f 4 101 102
f 4 102 103
f 4 103 104
f 4 104 105
f 4 105 106
f 4 5 6
f 4 106 107
f 4 107 108
f 4 108 109
f 4 109 110
f 4 110 111
f 4 6 71
f 4 71 72
f 4 3 5
f 4 72 73
f 4 73 74
f 4 74 75
f 4 75 76
f 4 76 77
f 4 77 78
f 4 78 79
f 4 79 80
f 4 80 81
f 4 81 82
f 4 82 83
f 4 83 84
f 4 84 85
f 4 85 86
f 4 86 87
f 4 87 88
f 4 88 89
f 4 89 90
f 4 90 91
f 4 91 92
f 4 92 93
f 4 93 94
f 4 94 95
f 4 95 96
f 4 96 97
f 4 97 98
f 4 98 99
f 4 99 100
f 4 100 101
f 134 70 7
f 134 7 133
f 199 131 132
f 199 132 70
f 199 70 134
f 200 131 199
f 201 130 131
f 201 131 200
f 202 128 129
f 202 129 130
f 202 130 201
f 203 127 128
f 203 128 202
f 204 127 203
f 205 125 126
f 205 126 127
f 205 127 204
f 206 125 205
f 207 123 124
f 207 124 125
f 207 125 206
f 208 123 207
f 209 121 122
f 209 122 123
f 209 123 208
f 210 121 209
f 211 120 121
f 211 121 210
f 212 118 119
f 212 119 120
f 212 120 211
f 213 118 212
f 214 116 117
f 214 117 118
f 214 118 213
f 215 116 214
f 216 114 115
f 216 115 116
f 216 116 215
f 217 114 216
f 218 113 114
f 218 114 217
f 219 112 113
f 219 113 218
f 220 111 112
f 220 112 219
f 2 220 221
f 2 221 222
f 2 222 223
f 2 223 224
f 2 224 225
f 2 225 226
f 2 226 227
f 2 227 228
f 2 228 229
f 2 229 230
f 2 230 231
f 2 231 232
f 2 232 233
f 2 233 234
f 2 234 235
f 2 235 236
f 2 236 237
f 2 237 238
f 2 238 239
f 2 239 240
f 2 240 241
f 2 4 111
f 2 241 242
f 2 242 243
f 2 243 244
f 2 244 245
f 2 245 246
f 2 246 247
f 2 247 248
f 2 248 249
f 2 249 250
f 2 250 251
f 2 251 252
f 2 252 253
f 2 253 254
f 2 254 255
f 2 255 256
f 2 256 257
f 2 257 258
f 2 258 259
f 2 259 260
f 2 260 198
f 2 111 220
f 2 135 1
f 135 136 1
f 136 137 1
f 137 138 1
f 138 139 1
f 139 140 1
f 2 198 135
f 327 261 262
f 327 263 261
f 328 264 263
f 328 263 327
f 329 265 264
f 329 264 328
f 330 266 265
f 330 265 329
f 331 267 266
f 331 266 330
f 332 268 267
f 332 269 268
f 332 267 331
f 333 269 332
f 334 270 269
f 334 269 333
f 335 271 270
f 335 270 334
f 336 272 271
f 336 273 272
f 336 271 335
f 337 273 336
f 338 274 273
f 338 273 337
f 339 275 274
f 339 274 338
f 340 276 275
f 340 275 339
f 341 277 276
f 341 278 277
f 341 276 340
f 342 278 341
f 343 278 342
f 343 279 278
f 344 280 279
f 344 281 280
f 344 279 343
f 345 281 344
f 346 281 345
f 346 282 281
f 346 283 282
f 347 283 346
f 347 284 283
f 348 284 347
f 349 284 348
f 349 285 284
f 350 286 285
f 350 285 349
f 351 287 286
f 351 286 350
f 352 288 287
f 352 287 351
f 353 289 288
f 353 290 289
f 353 288 352
f 354 290 353
f 355 291 290
f 355 290 354
f 356 292 291
f 356 291 355
f 357 293 292
f 357 294 293
f 357 292 356
f 358 294 357
f 359 295 294
f 359 296 295
f 359 294 358
f 360 296 359
f 361 297 296
f 361 298 297
f 361 296 360
f 362 298 361
f 363 299 298
f 363 300 299
f 363 298 362
f 364 300 363
f 365 301 300
f 365 302 301
f 365 300 364
f 366 302 365
f 367 303 302
f 367 302 366
f 368 304 303
f 368 303 367
f 369 304 368
f 369 305 304
f 370 305 369
f 370 306 305
f 370 307 306
f 371 307 370
f 371 308 307
f 372 308 371
f 373 308 372
f 373 309 308
f 374 309 373
f 374 310 309
f 374 311 310
f 375 311 374
f 375 312 311
f 376 312 375
f 377 312 376
f 377 313 312
f 377 314 313
f 378 314 377
f 379 314 378
f 379 315 314
f 380 315 379
f 380 316 315
f 381 316 380
f 381 317 316
f 382 317 381
f 382 318 317
f 383 319 318
f 383 320 319
f 383 318 382
f 384 320 383
f 385 321 320
f 385 320 384
f 386 322 321
f 386 323 322
f 386 321 385
f 387 324 323
f 387 323 386
f 388 325 324
f 388 324 387
f 326 325 388
f 443 442 391
f 441 391 442
f 444 443 391
f 440 391 441
f 445 444 391
f 439 391 440
f 446 445 391
f 438 391 439
f 447 446 391
f 437 391 438
f 448 447 391
f 436 391 437
f 449 448 391
f 435 391 436
f 450 449 391
f 434 391 435
f 451 450 391
f 433 391 434
f 452 451 391
f 432 391 433
f 453 452 391
f 431 391 432
f 454 453 391
f 430 391 431
f 455 454 391
f 429 391 430
f 456 455 391
f 428 391 429
f 457 456 391
f 427 391 428
f 393 457 391
f 426 391 427
f 425 391 426
f 424 391 425
f 423 391 424
f 422 391 423
f 421 391 422
f 420 391 421
f 419 391 420
f 418 391 419
f 417 391 418
f 570 411 410
f 570 412 411
f 571 570 410
f 569 413 412
f 569 412 570
f 572 410 409
f 572 571 410
f 568 413 569
f 573 409 408
f 573 572 409
f 567 414 413
f 567 413 568
f 574 407 406
f 574 408 407
f 574 573 408
f 566 415 414
f 566 414 567
f 575 574 406
f 565 416 415
f 565 415 566
f 576 406 405
f 576 575 406
f 564 389 391
f 564 417 416
f 564 416 565
f 564 391 417
f 577 404 403
f 577 405 404
f 577 576 405
f 563 389 564
f 578 577 403
f 562 389 563
f 579 578 403
f 579 402 401
f 579 403 402
f 561 389 562
f 580 579 401
f 560 389 561
f 581 401 400
f 581 580 401
f 559 389 560
f 582 400 399
f 582 581 400
f 558 389 559
f 583 398 397
f 583 399 398
f 583 582 399
f 557 389 558
f 584 583 397
f 556 389 557
f 585 397 396
f 585 584 397
f 555 389 556
f 521 396 395
f 521 585 396
f 554 389 555
f 553 389 554
f 552 389 553
f 551 389 552
f 550 389 551
f 549 389 550
f 548 389 549
f 547 389 548
f 546 389 547
f 545 389 546
f 544 389 545
f 543 389 544
f 542 389 543
f 541 389 542
f 540 389 541
f 539 389 540
f 538 389 539
f 537 389 538
f 536 389 537
f 535 389 536
f 534 389 535
f 533 389 534
f 532 389 533
f 531 389 532
f 530 389 531
f 529 389 530
f 528 389 529
f 527 389 528
f 392 490 489
f 392 491 490
f 392 492 491
f 392 493 492
f 392 494 493
f 392 394 393
f 392 495 494
f 392 496 495
f 392 497 496
f 392 498 497
f 392 499 498
f 392 393 391
f 392 459 394
f 392 460 459
f 392 461 460
f 392 462 461
f 392 463 462
f 392 464 463
f 392 465 464
f 392 466 465
f 392 467 466
f 392 468 467
f 392 469 468
f 392 470 469
f 392 471 470
f 392 472 471
f 392 473 472
f 392 474 473
f 392 475 474
f 392 476 475
f 392 477 476
f 392 478 477
f 392 479 478
f 392 480 479
f 392 481 480
f 392 482 481
f 392 483 482
f 392 484 483
f 392 485 484
f 392 486 485
f 392 487 486
f 392 488 487
f 392 489 488
f 522 395 458
f 522 521 395
f 587 520 519
f 587 458 520
f 587 522 458
f 588 519 518
f 588 587 519
f 589 588 518
f 590 517 516
f 590 518 517
f 590 589 518
f 591 590 516
f 591 516 515
f 592 515 514
f 592 591 515
f 593 514 513
f 593 592 514
f 594 593 513
f 595 513 512
f 595 594 513
f 596 511 510
f 596 512 511
f 596 595 512
f 597 596 510
f 598 509 508
f 598 510 509
f 598 597 510
f 599 598 508
f 600 599 508
f 600 507 506
f 600 508 507
f 601 506 505
f 601 600 506
f 602 505 504
f 602 601 505
f 603 602 504
f 604 504 503
f 604 603 504
f 605 503 502
f 605 604 503
f 606 502 501
f 606 605 502
f 607 500 499
f 607 501 500
f 607 606 501
f 608 607 499
f 390 609 608
f 390 610 609
f 390 611 610
f 390 612 611
f 390 613 612
f 390 614 613
f 390 615 614
f 390 616 615
f 390 617 616
f 390 618 617
f 390 619 618
f 390 620 619
f 390 621 620
f 390 622 621
f 390 623 622
f 390 624 623
f 390 625 624
f 390 626 625
f 390 627 626
f 390 628 627
f 390 629 628
f 390 630 629
f 390 631 630
f 390 632 631
f 390 633 632
f 390 634 633
f 390 635 634
f 390 499 392
f 390 636 635
f 390 637 636
f 390 638 637
f 390 639 638
f 390 640 639
f 390 641 640
f 390 642 641
f 390 643 642
f 390 644 643
f 390 645 644
f 390 646 645
f 390 647 646
f 390 648 647
f 390 586 648
f 390 608 499
f 390 389 523
f 523 389 524
f 524 389 525
f 525 389 526
f 526 389 527
f 390 523 586
f 652 649 651
f 650 649 652
f 654 653 655
f 654 655 656
f 660 658 657
f 660 657 659
f 727 662 661
f 727 661 726
f 728 663 662
f 728 662 727
f 729 664 663
f 729 663 728
f 730 665 664
f 730 664 729
f 731 666 665
f 731 665 730
f 732 667 666
f 732 666 731
f 733 668 667
f 733 669 668
f 733 667 732
f 734 669 733
f 735 670 669
f 735 669 734
f 736 671 670
f 736 670 735
f 737 672 671
f 737 671 736
f 738 673 672
f 738 672 737
f 739 674 673
f 739 673 738
f 740 675 674
f 740 674 739
f 741 676 675
f 741 675 740
f 742 677 676
f 742 676 741
f 743 678 677
f 743 677 742
f 744 679 678
f 744 678 743
f 745 679 744
f 745 680 679
f 746 680 745
f 746 681 680
f 746 682 681
f 747 682 746
f 748 682 747
f 748 683 682
f 749 684 683
f 749 683 748
f 750 685 684
f 750 684 749
f 751 686 685
f 751 685 750
f 752 687 686
f 752 688 687
f 752 686 751
f 753 688 752
f 754 689 688
f 754 688 753
f 755 690 689
f 755 689 754
f 756 691 690
f 756 690 755
f 757 692 691
f 757 691 756
f 758 693 692
f 758 692 757
f 759 694 693
f 759 695 694
f 759 693 758
f 760 695 759
f 761 696 695
f 761 695 760
f 762 697 696
f 762 696 761
f 763 698 697
f 763 697 762
f 764 699 698
f 764 698 763
f 765 700 699
f 765 699 764
f 766 701 700
f 766 700 765
f 767 702 701
f 767 701 766
f 768 703 702
f 768 704 703
f 768 702 767
f 769 704 768
f 770 704 769
f 770 705 704
f 771 705 770
f 771 706 705
f 771 707 706
f 772 707 771
f 773 707 772
f 773 708 707
f 774 708 773
f 774 709 708
f 775 709 774
f 775 710 709
f 775 711 710
f 776 711 775
f 777 711 776
f 777 712 711
f 778 712 777
f 778 713 712
f 778 714 713
f 779 714 778
f 780 714 779
f 780 715 714
f 781 715 780
f 781 716 715
f 782 717 716
f 782 716 781
f 783 718 717
f 783 717 782
f 784 719 718
f 784 718 783
f 785 720 719
f 785 719 784
f 786 721 720
f 786 722 721
f 786 720 785
f 787 723 722
f 787 722 786
f 788 723 787
f 725 724 723
f 725 723 788
f 792 789 790
f 792 791 789
f 859 793 794
f 859 795 793
f 860 796 795
f 860 795 859
f 861 797 796
f 861 796 860
f 862 798 797
f 862 797 861
f 863 799 798
f 863 798 862
f 864 800 799
f 864 801 800
f 864 799 863
f 865 801 864
f 866 802 801
f 866 801 865
f 867 803 802
f 867 802 866
f 868 804 803
f 868 805 804
f 868 803 867
f 869 805 868
f 870 806 805
f 870 805 869
f 871 807 806
f 871 806 870
f 872 808 807
f 872 807 871
f 873 809 808
f 873 810 809
f 873 808 872
f 874 810 873
f 875 810 874
f 875 811 810
f 876 812 811
f 876 813 812
f 876 811 875
f 877 813 876
f 878 813 877
f 878 814 813
f 878 815 814
f 879 815 878
f 879 816 815
f 880 816 879
f 881 816 880
f 881 817 816
f 882 818 817
f 882 817 881
f 883 819 818
f 883 818 882
f 884 820 819
f 884 819 883
f 885 821 820
f 885 822 821
f 885 820 884
f 886 822 885
f 887 823 822
f 887 822 886
f 888 824 823
f 888 823 887
f 889 825 824
f 889 826 825
f 889 824 888
f 890 826 889
f 891 827 826
f 891 828 827
f 891 826 890
f 892 828 891
f 893 829 828
f 893 830 829
f 893 828 892
f 894 830 893
f 895 831 830
f 895 832 831
f 895 830 894
f 896 832 895
f 897 833 832
f 897 834 833
f 897 832 896
f 898 834 897
f 899 835 834
f 899 834 898
f 900 836 835
f 900 835 899
f 901 836 900
f 901 837 836
f 902 837 901
f 902 838 837
f 902 839 838
f 903 839 902
f 903 840 839
f 904 840 903
f 905 840 904
f 905 841 840
f 906 841 905
f 906 842 841
f 906 843 842
f 907 843 906
f 907 844 843
f 908 844 907
f 909 844 908
f 909 845 844
f 909 846 845
f 910 846 909
f 911 846 910
f 911 847 846
f 912 847 911
f 912 848 847
f 913 848 912
f 913 849 848
f 914 849 913
f 914 850 849
f 915 851 850
f 915 852 851
f 915 850 914
f 916 852 915
f 917 853 852
f 917 852 916
f 918 854 853
f 918 855 854
f 918 853 917
f 919 856 855
f 919 855 918
f 920 857 856
f 920 856 919
f 858 857 920
f 924 922 921
f 924 921 923
f 991 926 925
f 991 925 990
f 992 927 926
f 992 926 991
f 993 928 927
f 993 927 992
f 994 929 928
f 994 928 993
f 995 930 929
f 995 929 994
f 996 931 930
f 996 930 995
f 997 932 931
f 997 933 932
f 997 931 996
f 998 933 997
f 999 934 933
f 999 933 998
f 1000 935 934
f 1000 934 999
f 1001 936 935
f 1001 935 1000
f 1002 937 936
f 1002 936 1001
f 1003 938 937
f 1003 937 1002
f 1004 939 938
f 1004 938 1003
f 1005 940 939
f 1005 939 1004
f 1006 941 940
f 1006 940 1005
f 1007 942 941
f 1007 941 1006
f 1008 943 942
f 1008 942 1007
f 1009 943 1008
f 1009 944 943
f 1010 944 1009
f 1010 945 944
f 1010 946 945
f 1011 946 1010
f 1012 946 1011
f 1012 947 946
f 1013 948 947
f 1013 947 1012
f 1014 949 948
f 1014 948 1013
f 1015 950 949
f 1015 949 1014
f 1016 951 950
f 1016 952 951
f 1016 950 1015
f 1017 952 1016
f 1018 953 952
f 1018 952 1017
f 1019 954 953
f 1019 953 1018
f 1020 955 954
f 1020 954 1019
f 1021 956 955
f 1021 955 1020
f 1022 957 956
f 1022 956 1021
f 1023 958 957
f 1023 959 958
f 1023 957 1022
f 1024 959 1023
f 1025 960 959
f 1025 959 1024
f 1026 961 960
f 1026 960 1025
f 1027 962 961
f 1027 961 1026
f 1028 963 962
f 1028 962 1027
f 1029 964 963
f 1029 963 1028
f 1030 965 964
f 1030 964 1029
f 1031 966 965
f 1031 965 1030
f 1032 967 966
f 1032 968 967
f 1032 966 1031
f 1033 968 1032
f 1034 968 1033
f 1034 969 968
f 1035 969 1034
f 1035 970 969
f 1035 971 970
f 1036 971 1035
f 1037 971 1036
f 1037 972 971
f 1038 972 1037
f 1038 973 972
f 1039 973 1038
f 1039 974 973
f 1039 975 974
f 1040 975 1039
f 1041 975 1040
f 1041 976 975
f 1042 976 1041
f 1042 977 976
f 1042 978 977
f 1043 978 1042
f 1044 978 1043
f 1044 979 978
f 1045 979 1044
f 1045 980 979
f 1046 981 980
f 1046 980 1045
f 1047 982 981
f 1047 981 1046
f 1048 983 982
f 1048 982 1047
f 1049 984 983
f 1049 983 1048
f 1050 985 984
f 1050 986 985
f 1050 984 1049
f 1051 987 986
f 1051 986 1050
f 1052 987 1051
f 989 988 987
f 989 987 1052
f 1056 1053 1054
f 1056 1055 1053
f 1060 1058 1057
f 1060 1057 1059
f 1066 1062 1064
f 1065 1066 1064
f 1061 1064 1062
f 1063 1064 1061
f 1070 1067 1068
f 1070 1069 1067
f 1072 1075 1071
f 1076 1075 1072
f 1073 1071 1075
f 1074 1073 1075
