# Cadless export: model
v 400 -200 0
v 400 -200 720
v 400 200 0
v 400 200 720
v -400 200 0
v 400 200 0
v -400 200 720
v 400 200 720
v -400 -200 0
v -400 -200 720
v -400 200 0
v -400 200 720
v -400 -200 0
v -400 200 0
v 400 -200 0
v 400 200 0
v -400 -200 720
v -400 200 720
v 400 -200 720
v 400 200 720
v -400 -200 0
v 400 -200 0
v -400 -200 720
v 400 -200 720
v -382 -200 702
v 382 -200 702
v -382 -200 18
v 382 -200 18
v -382 -200 18
v 382 -200 18
v 382 182 18
v -382 182 18
v 382 -200 18
v 382 -200 702
v 382 182 18
v 382 182 702
v -382 -200 702
v 382 -200 702
v 382 182 702
v -382 182 702
v -382 -200 18
v -382 -200 702
v -382 182 18
v -382 182 702
v 382 182 18
v -382 182 18
v -382 182 702
v 382 182 702
f 2 1 3
f 2 3 4
f 8 6 5
f 8 5 7
f 10 11 9
f 10 12 11
f 15 13 14
f 16 15 14
f 19 18 17
f 20 18 19
f 25 23 21
f 25 21 27
f 22 27 21
f 28 27 22
f 26 23 25
f 24 23 26
f 24 28 22
f 24 26 28
f 30 32 29
f 31 32 30
f 34 35 33
f 34 36 35
f 38 37 40
f 39 38 40
f 42 41 43
f 42 43 44
f 48 46 45
f 48 47 46
