# Cadless export: model
v 6 -1.46958e-15 80
v 5.99254 0.299075 80
v 5.97018 0.597407 80
v 5.93298 0.894254 80
v 5.88103 1.18888 80
v 5.81446 1.48054 80
v 5.73344 1.76853 80
v 5.63816 2.05212 80
v 5.52886 2.33061 80
v 5.40581 2.6033 80
v 5.26933 2.86952 80
v 5.11975 3.12861 80
v 4.95743 3.37992 80
v 4.7828 3.62283 80
v 4.59627 3.85673 80
v 4.39831 4.08104 80
v 4.18942 4.2952 80
v 3.97012 4.49869 80
v 3.74094 4.69099 80
v 3.50246 4.87163 80
v 3.25528 5.04016 80
v 3 5.19615 80
v 2.73726 5.33923 80
v 2.46772 5.46904 80
v 2.19205 5.58524 80
v 1.91092 5.68756 80
v 1.62504 5.77575 80
v 1.33513 5.84957 80
v 1.04189 5.90885 80
v 0.746062 5.95344 80
v 0.448381 5.98322 80
v 0.149584 5.99814 80
v -0.149584 5.99814 80
v -0.448381 5.98322 80
v -0.746062 5.95344 80
v -1.04189 5.90885 80
v -1.33513 5.84957 80
v -1.62504 5.77575 80
v -1.91092 5.68756 80
v -2.19205 5.58524 80
v -2.46772 5.46904 80
v -2.73726 5.33923 80
v -3 5.19615 80
v -3.25528 5.04016 80
v -3.50246 4.87163 80
v -3.74094 4.69099 80
v -3.97012 4.49869 80
v -4.18942 4.2952 80
v -4.39831 4.08104 80
v -4.59627 3.85673 80
v -4.7828 3.62283 80
v -4.95743 3.37992 80
v -5.11975 3.12861 80
v -5.26933 2.86952 80
v -5.40581 2.6033 80
v -5.52886 2.33061 80
v -5.63816 2.05212 80
v -5.73344 1.76853 80
v -5.81446 1.48054 80
v -5.88103 1.18888 80
v -5.93298 0.894254 80
v -5.97018 0.597407 80
v -5.99254 0.299075 80
v -6 -2.05815e-14 80
v -5.99254 -0.299075 80
v -5.97018 -0.597407 80
v -5.93298 -0.894254 80
v -5.88103 -1.18888 80
v -5.81446 -1.48054 80
v -5.73344 -1.76853 80
v -5.63816 -2.05212 80
v -5.52886 -2.33061 80
v -5.40581 -2.6033 80
v -5.26933 -2.86952 80
v -5.11975 -3.12861 80
v -4.95743 -3.37992 80
v -4.7828 -3.62283 80
v -4.59627 -3.85673 80
v -4.39831 -4.08104 80
v -4.18942 -4.2952 80
v -3.97012 -4.49869 80
v -3.74094 -4.69099 80
v -3.50246 -4.87163 80
v -3.25528 -5.04016 80
v -3 -5.19615 80
v -2.73726 -5.33923 80
v -2.46772 -5.46904 80
v -2.19205 -5.58524 80
v -1.91092 -5.68756 80
v -1.62504 -5.77575 80
v -1.33513 -5.84957 80
v -1.04189 -5.90885 80
v -0.746062 -5.95344 80
v -0.448381 -5.98322 80
v -0.149584 -5.99814 80
v 0.149584 -5.99814 80
v 0.448381 -5.98322 80
v 0.746062 -5.95344 80
v 1.04189 -5.90885 80
v 1.33513 -5.84957 80
v 1.62504 -5.77575 80
v 1.91092 -5.68756 80
v 2.19205 -5.58524 80
v 2.46772 -5.46904 80
v 2.73726 -5.33923 80
v 3 -5.19615 80
v 3.25528 -5.04016 80
v 3.50246 -4.87163 80
v 3.74094 -4.69099 80
v 3.97012 -4.49869 80
v 4.18942 -4.2952 80
v 4.39831 -4.08104 80
v 4.59627 -3.85673 80
v 4.7828 -3.62283 80
v 4.95743 -3.37992 80
v 5.11975 -3.12861 80
v 5.26933 -2.86952 80
v 5.40581 -2.6033 80
v 5.52886 -2.33061 80
v 5.63816 -2.05212 80
v 5.73344 -1.76853 80
v 5.81446 -1.48054 80
v 5.88103 -1.18888 80
v 5.93298 -0.894254 80
v 5.97018 -0.597407 80
v 5.99254 -0.299075 80
v 6 -1.46958e-15 80
v 6 -1.46958e-15 0
v 5.99254 0.299075 0
v 5.97018 0.597407 0
v 5.93298 0.894254 0
v 5.88103 1.18888 0
v 5.81446 1.48054 0
v 5.73344 1.76853 0
v 5.63816 2.05212 0
v 5.52886 2.33061 0
v 5.40581 2.6033 0
v 5.26933 2.86952 0
v 5.11975 3.12861 0
v 4.95743 3.37992 0
v 4.7828 3.62283 0
v 4.59627 3.85673 0
v 4.39831 4.08104 0
v 4.18942 4.2952 0
v 3.97012 4.49869 0
v 3.74094 4.69099 0
v 3.50246 4.87163 0
v 3.25528 5.04016 0
v 3 5.19615 0
v 2.73726 5.33923 0
v 2.46772 5.46904 0
v 2.19205 5.58524 0
v 1.91092 5.68756 0
v 1.62504 5.77575 0
v 1.33513 5.84957 0
v 1.04189 5.90885 0
v 0.746062 5.95344 0
v 0.448381 5.98322 0
v 0.149584 5.99814 0
v -0.149584 5.99814 0
v -0.448381 5.98322 0
v -0.746062 5.95344 0
v -1.04189 5.90885 0
v -1.33513 5.84957 0
v -1.62504 5.77575 0
v -1.91092 5.68756 0
v -2.19205 5.58524 0
v -2.46772 5.46904 0
v -2.73726 5.33923 0
v -3 5.19615 0
v -3.25528 5.04016 0
v -3.50246 4.87163 0
v -3.74094 4.69099 0
v -3.97012 4.49869 0
v -4.18942 4.2952 0
v -4.39831 4.08104 0
v -4.59627 3.85673 0
v -4.7828 3.62283 0
v -4.95743 3.37992 0
v -5.11975 3.12861 0
v -5.26933 2.86952 0
v -5.40581 2.6033 0
v -5.52886 2.33061 0
v -5.63816 2.05212 0
v -5.73344 1.76853 0
v -5.81446 1.48054 0
v -5.88103 1.18888 0
v -5.93298 0.894254 0
v -5.97018 0.597407 0
v -5.99254 0.299075 0
v -6 -2.05815e-14 0
v -5.99254 -0.299075 0
v -5.97018 -0.597407 0
v -5.93298 -0.894254 0
v -5.88103 -1.18888 0
v -5.81446 -1.48054 0
v -5.73344 -1.76853 0
v -5.63816 -2.05212 0
v -5.52886 -2.33061 0
v -5.40581 -2.6033 0
v -5.26933 -2.86952 0
v -5.11975 -3.12861 0
v -4.95743 -3.37992 0
v -4.7828 -3.62283 0
v -4.59627 -3.85673 0
v -4.39831 -4.08104 0
v -4.18942 -4.2952 0
v -3.97012 -4.49869 0
v -3.74094 -4.69099 0
v -3.50246 -4.87163 0
v -3.25528 -5.04016 0
v -3 -5.19615 0
v -2.73726 -5.33923 0
v -2.46772 -5.46904 0
v -2.19205 -5.58524 0
v -1.91092 -5.68756 0
v -1.62504 -5.77575 0
v -1.33513 -5.84957 0
v -1.04189 -5.90885 0
v -0.746062 -5.95344 0
v -0.448381 -5.98322 0
v -0.149584 -5.99814 0
v 0.149584 -5.99814 0
v 0.448381 -5.98322 0
v 0.746062 -5.95344 0
v 1.04189 -5.90885 0
v 1.33513 -5.84957 0
v 1.62504 -5.77575 0
v 1.91092 -5.68756 0
v 2.19205 -5.58524 0
v 2.46772 -5.46904 0
v 2.73726 -5.33923 0
v 3 -5.19615 0
v 3.25528 -5.04016 0
v 3.50246 -4.87163 0
v 3.74094 -4.69099 0
v 3.97012 -4.49869 0
v 4.18942 -4.2952 0
v 4.39831 -4.08104 0
v 4.59627 -3.85673 0
v 4.7828 -3.62283 0
v 4.95743 -3.37992 0
v 5.11975 -3.12861 0
v 5.26933 -2.86952 0
v 5.40581 -2.6033 0
v 5.52886 -2.33061 0
v 5.63816 -2.05212 0
v 5.73344 -1.76853 0
v 5.81446 -1.48054 0
v 5.88103 -1.18888 0
v 5.93298 -0.894254 0
v 5.97018 -0.597407 0
v 5.99254 -0.299075 0
v 6 -1.46958e-15 0
v 6 -1.46958e-15 80
v 5.99254 0.299075 80
v 5.97018 0.597407 80
v 5.93298 0.894254 80
v 5.88103 1.18888 80
v 5.81446 1.48054 80
v 5.73344 1.76853 80
v 5.63816 2.05212 80
v 5.52886 2.33061 80
v 5.40581 2.6033 80
v 5.26933 2.86952 80
v 5.11975 3.12861 80
v 4.95743 3.37992 80
v 4.7828 3.62283 80
v 4.59627 3.85673 80
v 4.39831 4.08104 80
v 4.18942 4.2952 80
v 3.97012 4.49869 80
v 3.74094 4.69099 80
v 3.50246 4.87163 80
v 3.25528 5.04016 80
v 3 5.19615 80
v 2.73726 5.33923 80
v 2.46772 5.46904 80
v 2.19205 5.58524 80
v 1.91092 5.68756 80
v 1.62504 5.77575 80
v 1.33513 5.84957 80
v 1.04189 5.90885 80
v 0.746062 5.95344 80
v 0.448381 5.98322 80
v 0.149584 5.99814 80
v -0.149584 5.99814 80
v -0.448381 5.98322 80
v -0.746062 5.95344 80
v -1.04189 5.90885 80
v -1.33513 5.84957 80
v -1.62504 5.77575 80
v -1.91092 5.68756 80
v -2.19205 5.58524 80
v -2.46772 5.46904 80
v -2.73726 5.33923 80
v -3 5.19615 80
v -3.25528 5.04016 80
v -3.50246 4.87163 80
v -3.74094 4.69099 80
v -3.97012 4.49869 80
v -4.18942 4.2952 80
v -4.39831 4.08104 80
v -4.59627 3.85673 80
v -4.7828 3.62283 80
v -4.95743 3.37992 80
v -5.11975 3.12861 80
v -5.26933 2.86952 80
v -5.40581 2.6033 80
v -5.52886 2.33061 80
v -5.63816 2.05212 80
v -5.73344 1.76853 80
v -5.81446 1.48054 80
v -5.88103 1.18888 80
v -5.93298 0.894254 80
v -5.97018 0.597407 80
v -5.99254 0.299075 80
v -6 -2.05815e-14 80
v -5.99254 -0.299075 80
v -5.97018 -0.597407 80
v -5.93298 -0.894254 80
v -5.88103 -1.18888 80
v -5.81446 -1.48054 80
v -5.73344 -1.76853 80
v -5.63816 -2.05212 80
v -5.52886 -2.33061 80
v -5.40581 -2.6033 80
v -5.26933 -2.86952 80
v -5.11975 -3.12861 80
v -4.95743 -3.37992 80
v -4.7828 -3.62283 80
v -4.59627 -3.85673 80
v -4.39831 -4.08104 80
v -4.18942 -4.2952 80
v -3.97012 -4.49869 80
v -3.74094 -4.69099 80
v -3.50246 -4.87163 80
v -3.25528 -5.04016 80
v -3 -5.19615 80
v -2.73726 -5.33923 80
v -2.46772 -5.46904 80
v -2.19205 -5.58524 80
v -1.91092 -5.68756 80
v -1.62504 -5.77575 80
v -1.33513 -5.84957 80
v -1.04189 -5.90885 80
v -0.746062 -5.95344 80
v -0.448381 -5.98322 80
v -0.149584 -5.99814 80
v 0.149584 -5.99814 80
v 0.448381 -5.98322 80
v 0.746062 -5.95344 80
v 1.04189 -5.90885 80
v 1.33513 -5.84957 80
v 1.62504 -5.77575 80
v 1.91092 -5.68756 80
v 2.19205 -5.58524 80
v 2.46772 -5.46904 80
v 2.73726 -5.33923 80
v 3 -5.19615 80
v 3.25528 -5.04016 80
v 3.50246 -4.87163 80
v 3.74094 -4.69099 80
v 3.97012 -4.49869 80
v 4.18942 -4.2952 80
v 4.39831 -4.08104 80
v 4.59627 -3.85673 80
v 4.7828 -3.62283 80
v 4.95743 -3.37992 80
v 5.11975 -3.12861 80
v 5.26933 -2.86952 80
v 5.40581 -2.6033 80
v 5.52886 -2.33061 80
v 5.63816 -2.05212 80
v 5.73344 -1.76853 80
v 5.81446 -1.48054 80
v 5.88103 -1.18888 80
v 5.93298 -0.894254 80
v 5.97018 -0.597407 80
v 5.99254 -0.299075 80
v 6 -1.46958e-15 0
v 5.99254 0.299075 0
v 5.97018 0.597407 0
v 5.93298 0.894254 0
v 5.88103 1.18888 0
v 5.81446 1.48054 0
v 5.73344 1.76853 0
v 5.63816 2.05212 0
v 5.52886 2.33061 0
v 5.40581 2.6033 0
v 5.26933 2.86952 0
v 5.11975 3.12861 0
v 4.95743 3.37992 0
v 4.7828 3.62283 0
v 4.59627 3.85673 0
v 4.39831 4.08104 0
v 4.18942 4.2952 0
v 3.97012 4.49869 0
v 3.74094 4.69099 0
v 3.50246 4.87163 0
v 3.25528 5.04016 0
v 3 5.19615 0
v 2.73726 5.33923 0
v 2.46772 5.46904 0
v 2.19205 5.58524 0
v 1.91092 5.68756 0
v 1.62504 5.77575 0
v 1.33513 5.84957 0
v 1.04189 5.90885 0
v 0.746062 5.95344 0
v 0.448381 5.98322 0
v 0.149584 5.99814 0
v -0.149584 5.99814 0
v -0.448381 5.98322 0
v -0.746062 5.95344 0
v -1.04189 5.90885 0
v -1.33513 5.84957 0
v -1.62504 5.77575 0
v -1.91092 5.68756 0
v -2.19205 5.58524 0
v -2.46772 5.46904 0
v -2.73726 5.33923 0
v -3 5.19615 0
v -3.25528 5.04016 0
v -3.50246 4.87163 0
v -3.74094 4.69099 0
v -3.97012 4.49869 0
v -4.18942 4.2952 0
v -4.39831 4.08104 0
v -4.59627 3.85673 0
v -4.7828 3.62283 0
v -4.95743 3.37992 0
v -5.11975 3.12861 0
v -5.26933 2.86952 0
v -5.40581 2.6033 0
v -5.52886 2.33061 0
v -5.63816 2.05212 0
v -5.73344 1.76853 0
v -5.81446 1.48054 0
v -5.88103 1.18888 0
v -5.93298 0.894254 0
v -5.97018 0.597407 0
v -5.99254 0.299075 0
v -6 -2.05815e-14 0
v -5.99254 -0.299075 0
v -5.97018 -0.597407 0
v -5.93298 -0.894254 0
v -5.88103 -1.18888 0
v -5.81446 -1.48054 0
v -5.73344 -1.76853 0
v -5.63816 -2.05212 0
v -5.52886 -2.33061 0
v -5.40581 -2.6033 0
v -5.26933 -2.86952 0
v -5.11975 -3.12861 0
v -4.95743 -3.37992 0
v -4.7828 -3.62283 0
v -4.59627 -3.85673 0
v -4.39831 -4.08104 0
v -4.18942 -4.2952 0
v -3.97012 -4.49869 0
v -3.74094 -4.69099 0
v -3.50246 -4.87163 0
v -3.25528 -5.04016 0
v -3 -5.19615 0
v -2.73726 -5.33923 0
v -2.46772 -5.46904 0
v -2.19205 -5.58524 0
v -1.91092 -5.68756 0
v -1.62504 -5.77575 0
v -1.33513 -5.84957 0
v -1.04189 -5.90885 0
v -0.746062 -5.95344 0
v -0.448381 -5.98322 0
v -0.149584 -5.99814 0
v 0.149584 -5.99814 0
v 0.448381 -5.98322 0
v 0.746062 -5.95344 0
v 1.04189 -5.90885 0
v 1.33513 -5.84957 0
v 1.62504 -5.77575 0
v 1.91092 -5.68756 0
v 2.19205 -5.58524 0
v 2.46772 -5.46904 0
v 2.73726 -5.33923 0
v 3 -5.19615 0
v 3.25528 -5.04016 0
v 3.50246 -4.87163 0
v 3.74094 -4.69099 0
v 3.97012 -4.49869 0
v 4.18942 -4.2952 0
v 4.39831 -4.08104 0
v 4.59627 -3.85673 0
v 4.7828 -3.62283 0
v 4.95743 -3.37992 0
v 5.11975 -3.12861 0
v 5.26933 -2.86952 0
v 5.40581 -2.6033 0
v 5.52886 -2.33061 0
v 5.63816 -2.05212 0
v 5.73344 -1.76853 0
v 5.81446 -1.48054 0
v 5.88103 -1.18888 0
v 5.93298 -0.894254 0
v 5.97018 -0.597407 0
v 5.99254 -0.299075 0
f 1 128 129
f 2 1 129
f 3 129 130
f 3 130 131
f 3 2 129
f 4 3 131
f 5 131 132
f 5 132 133
f 5 4 131
f 6 5 133
f 7 133 134
f 7 6 133
f 8 134 135
f 8 135 136
f 8 7 134
f 9 8 136
f 10 136 137
f 10 137 138
f 10 9 136
f 11 10 138
f 12 11 138
f 12 138 139
f 12 139 140
f 13 12 140
f 14 13 140
f 14 140 141
f 15 14 141
f 15 141 142
f 15 142 143
f 16 15 143
f 16 143 144
f 17 16 144
f 18 17 144
f 18 144 145
f 19 18 145
f 19 145 146
f 20 19 146
f 20 146 147
f 21 20 147
f 21 147 148
f 22 21 148
f 22 148 149
f 23 22 149
f 23 149 150
f 24 150 151
f 24 23 150
f 25 151 152
f 25 24 151
f 26 152 153
f 26 25 152
f 27 153 154
f 27 154 155
f 27 26 153
f 28 27 155
f 29 155 156
f 29 156 157
f 29 28 155
f 30 29 157
f 31 157 158
f 31 158 159
f 31 30 157
f 32 159 160
f 32 31 159
f 33 32 160
f 34 160 161
f 34 33 160
f 35 161 162
f 35 34 161
f 36 162 163
f 36 35 162
f 37 163 164
f 37 36 163
f 38 37 164
f 38 164 165
f 38 165 166
f 39 38 166
f 39 166 167
f 40 39 167
f 41 40 167
f 41 167 168
f 42 41 168
f 42 168 169
f 43 42 169
f 43 169 170
f 44 43 170
f 44 170 171
f 45 44 171
f 45 171 172
f 46 45 172
f 46 172 173
f 46 173 174
f 47 46 174
f 48 47 174
f 48 174 175
f 49 48 175
f 49 175 176
f 50 49 176
f 50 176 177
f 51 50 177
f 51 177 178
f 51 178 179
f 52 51 179
f 53 52 179
f 53 179 180
f 53 180 181
f 54 53 181
f 55 54 181
f 55 181 182
f 56 55 182
f 56 182 183
f 57 56 183
f 57 183 184
f 58 57 184
f 58 184 185
f 58 185 186
f 59 58 186
f 60 186 187
f 60 59 186
f 61 187 188
f 61 188 189
f 61 60 187
f 62 189 190
f 62 61 189
f 63 62 190
f 63 190 191
f 64 63 191
f 64 191 192
f 65 64 192
f 66 65 192
f 66 192 193
f 66 193 194
f 67 66 194
f 67 194 195
f 68 67 195
f 69 68 195
f 69 195 196
f 70 69 196
f 70 196 197
f 70 197 198
f 71 70 198
f 72 71 198
f 72 198 199
f 73 72 199
f 73 199 200
f 74 73 200
f 74 200 201
f 75 74 201
f 75 201 202
f 76 202 203
f 76 75 202
f 77 203 204
f 77 76 203
f 78 204 205
f 78 77 204
f 79 205 206
f 79 78 205
f 80 206 207
f 80 79 206
f 81 207 208
f 81 80 207
f 82 208 209
f 82 81 208
f 83 209 210
f 83 82 209
f 84 210 211
f 84 211 212
f 84 83 210
f 85 84 212
f 86 212 213
f 86 85 212
f 87 213 214
f 87 214 215
f 87 86 213
f 88 87 215
f 89 88 215
f 89 215 216
f 90 89 216
f 90 216 217
f 91 90 217
f 91 217 218
f 91 218 219
f 92 91 219
f 92 219 220
f 93 92 220
f 94 220 221
f 94 221 222
f 94 93 220
f 95 94 222
f 96 222 223
f 96 95 222
f 97 223 224
f 97 96 223
f 98 224 225
f 98 97 224
f 99 225 226
f 99 98 225
f 100 226 227
f 100 99 226
f 101 227 228
f 101 100 227
f 102 228 229
f 102 101 228
f 103 229 230
f 103 230 231
f 103 102 229
f 104 231 232
f 104 103 231
f 105 232 233
f 105 104 232
f 106 105 233
f 107 233 234
f 107 106 233
f 108 234 235
f 108 107 234
f 109 235 236
f 109 108 235
f 110 236 237
f 110 109 236
f 111 237 238
f 111 110 237
f 112 238 239
f 112 239 240
f 112 111 238
f 113 112 240
f 114 113 240
f 114 240 241
f 114 241 242
f 115 114 242
f 116 115 242
f 116 242 243
f 117 116 243
f 117 243 244
f 117 244 245
f 118 117 245
f 119 118 245
f 119 245 246
f 120 119 246
f 120 246 247
f 120 247 248
f 121 120 248
f 122 121 248
f 122 248 249
f 123 122 249
f 123 249 250
f 124 123 250
f 124 250 251
f 125 124 251
f 125 251 252
f 126 252 253
f 126 125 252
f 127 253 254
f 127 126 253
f 337 334 335
f 337 335 336
f 329 330 331
f 340 334 337
f 340 333 334
f 340 337 338
f 340 338 339
f 327 329 331
f 327 328 329
f 342 340 341
f 343 340 342
f 324 325 326
f 323 327 331
f 323 324 326
f 323 326 327
f 323 331 332
f 345 343 344
f 346 343 345
f 348 343 346
f 348 346 347
f 350 340 343
f 350 343 348
f 350 348 349
f 316 317 318
f 316 318 319
f 316 319 320
f 316 320 321
f 353 350 351
f 353 351 352
f 313 314 315
f 313 315 316
f 355 350 353
f 355 353 354
f 312 321 322
f 312 322 323
f 312 313 316
f 312 316 321
f 358 355 356
f 358 356 357
f 359 355 358
f 308 312 323
f 308 333 340
f 308 309 310
f 308 310 311
f 308 311 312
f 308 323 332
f 308 332 333
f 362 359 360
f 362 360 361
f 305 306 307
f 305 307 308
f 363 350 355
f 363 355 359
f 363 359 362
f 303 304 305
f 302 303 305
f 366 364 365
f 301 305 308
f 301 302 305
f 367 363 364
f 367 364 366
f 298 299 300
f 370 367 368
f 370 368 369
f 370 363 367
f 297 300 301
f 297 298 300
f 372 370 371
f 295 296 297
f 295 297 301
f 374 372 373
f 293 294 295
f 375 350 363
f 375 363 370
f 375 370 372
f 375 372 374
f 290 291 292
f 378 376 377
f 288 289 290
f 380 378 379
f 287 288 290
f 255 378 380
f 255 375 376
f 255 376 378
f 283 284 285
f 283 285 286
f 283 286 287
f 260 255 256
f 260 256 257
f 260 257 258
f 260 258 259
f 260 375 255
f 281 282 283
f 262 260 261
f 279 280 281
f 278 279 281
f 278 281 283
f 264 262 263
f 265 262 264
f 276 277 278
f 274 283 287
f 274 275 276
f 274 276 278
f 274 278 283
f 268 265 266
f 268 266 267
f 268 262 265
f 273 290 292
f 273 287 290
f 273 292 293
f 273 274 287
f 270 308 340
f 270 268 269
f 270 375 260
f 270 260 262
f 270 301 308
f 270 262 268
f 270 295 301
f 270 340 350
f 270 293 295
f 270 350 375
f 271 272 273
f 271 293 270
f 271 273 293
f 463 461 460
f 463 462 461
f 455 457 456
f 466 463 460
f 466 460 459
f 466 464 463
f 466 465 464
f 453 457 455
f 453 455 454
f 468 467 466
f 469 468 466
f 450 452 451
f 449 457 453
f 449 452 450
f 449 453 452
f 449 458 457
f 471 470 469
f 472 471 469
f 474 472 469
f 474 473 472
f 476 469 466
f 476 474 469
f 476 475 474
f 442 444 443
f 442 445 444
f 442 446 445
f 442 447 446
f 479 477 476
f 479 478 477
f 439 441 440
f 439 442 441
f 481 479 476
f 481 480 479
f 438 448 447
f 438 449 448
f 438 442 439
f 438 447 442
f 484 482 481
f 484 483 482
f 485 484 481
f 434 449 438
f 434 466 459
f 434 436 435
f 434 437 436
f 434 438 437
f 434 458 449
f 434 459 458
f 488 486 485
f 488 487 486
f 431 433 432
f 431 434 433
f 489 481 476
f 489 485 481
f 489 488 485
f 429 431 430
f 428 431 429
f 492 491 490
f 427 434 431
f 427 431 428
f 493 490 489
f 493 492 490
f 424 426 425
f 496 494 493
f 496 495 494
f 496 493 489
f 423 427 426
f 423 426 424
f 498 497 496
f 421 423 422
f 421 427 423
f 500 499 498
f 419 421 420
f 501 489 476
f 501 496 489
f 501 498 496
f 501 500 498
f 416 418 417
f 504 503 502
f 414 416 415
f 506 505 504
f 413 416 414
f 381 506 504
f 381 502 501
f 381 504 502
f 409 411 410
f 409 412 411
f 409 413 412
f 386 382 381
f 386 383 382
f 386 384 383
f 386 385 384
f 386 381 501
f 407 409 408
f 388 387 386
f 405 407 406
f 404 407 405
f 404 409 407
f 390 389 388
f 391 390 388
f 402 404 403
f 400 413 409
f 400 402 401
f 400 404 402
f 400 409 404
f 394 392 391
f 394 393 392
f 394 391 388
f 399 418 416
f 399 416 413
f 399 419 418
f 399 413 400
f 396 466 434
f 396 395 394
f 396 386 501
f 396 388 386
f 396 434 427
f 396 394 388
f 396 427 421
f 396 476 466
f 396 421 419
f 396 501 476
f 397 399 398
f 397 396 419
f 397 419 399
