# Cadless export: model
v -46 -24.5 4
v -46 24.5 4
v -46 -24.5 0
v -46 24.5 0
v -46 -24.5 4
v -46 24.5 4
v -45.9928 -24.7944 4
v -45.9711 -25.0881 4
v -45.9351 -25.3804 4
v -45.8847 -25.6705 4
v -45.8202 -25.9579 4
v -45.7416 -26.2417 4
v -45.6493 -26.5213 4
v -45.5433 -26.7961 4
v -45.4239 -27.0653 4
v -45.2915 -27.3284 4
v -45.1464 -27.5846 4
v -44.9888 -27.8334 4
v -44.8192 -28.0742 4
v -44.6381 -28.3064 4
v -44.4457 -28.5294 4
v -44.2426 -28.7426 4
v -44.0294 -28.9457 4
v -43.8064 -29.1381 4
v -43.5742 -29.3192 4
v -43.3334 -29.4888 4
v -43.0846 -29.6464 4
v -42.8284 -29.7915 4
v -42.5653 -29.9239 4
v -42.2961 -30.0433 4
v -42.0213 -30.1493 4
v -41.7417 -30.2416 4
v -41.4579 -30.3202 4
v -41.1705 -30.3847 4
v -40.8804 -30.4351 4
v -40.5881 -30.4711 4
v -40.2944 -30.4928 4
v -40 -30.5 4
v 40 -30.5 4
v 46 -24.5 4
v 45.9928 -24.7944 4
v 45.9711 -25.0881 4
v 45.9351 -25.3804 4
v 45.8847 -25.6705 4
v 45.8202 -25.9579 4
v 45.7416 -26.2417 4
v 45.6493 -26.5213 4
v 45.5433 -26.7961 4
v 45.4239 -27.0653 4
v 45.2915 -27.3284 4
v 45.1464 -27.5846 4
v 44.9888 -27.8334 4
v 44.8192 -28.0742 4
v 44.6381 -28.3064 4
v 44.4457 -28.5294 4
v 44.2426 -28.7426 4
v 44.0294 -28.9457 4
v 43.8064 -29.1381 4
v 43.5742 -29.3192 4
v 43.3334 -29.4888 4
v 43.0846 -29.6464 4
v 42.8284 -29.7915 4
v 42.5653 -29.9239 4
v 42.2961 -30.0433 4
v 42.0213 -30.1493 4
v 41.7417 -30.2416 4
v 41.4579 -30.3202 4
v 41.1705 -30.3847 4
v 40.8804 -30.4351 4
v 40.5881 -30.4711 4
v 40.2944 -30.4928 4
v 46 24.5 4
v 45.9928 24.7944 4
v 45.9711 25.0881 4
v 45.9351 25.3804 4
v 45.8847 25.6705 4
v 45.8202 25.9579 4
v 45.7416 26.2417 4
v 45.6493 26.5213 4
v 45.5433 26.7961 4
v 45.4239 27.0653 4
v 45.2915 27.3284 4
v 45.1464 27.5846 4
v 44.9888 27.8334 4
v 44.8192 28.0742 4
v 44.6381 28.3064 4
v 44.4457 28.5294 4
v 44.2426 28.7426 4
v 44.0294 28.9457 4
v 43.8064 29.1381 4
v 43.5742 29.3192 4
v 43.3334 29.4888 4
v 43.0846 29.6464 4
v 42.8284 29.7915 4
v 42.5653 29.9239 4
v 42.2961 30.0433 4
v 42.0213 30.1493 4
v 41.7417 30.2416 4
v 41.4579 30.3202 4
v 41.1705 30.3847 4
v 40.8804 30.4351 4
v 40.5881 30.4711 4
v 40.2944 30.4928 4
v 40 30.5 4
v -40 30.5 4
v -45.9928 24.7944 4
v -45.9711 25.0881 4
v -45.9351 25.3804 4
v -45.8847 25.6705 4
v -45.8202 25.9579 4
v -45.7416 26.2417 4
v -45.6493 26.5213 4
v -45.5433 26.7961 4
v -45.4239 27.0653 4
v -45.2915 27.3284 4
v -45.1464 27.5846 4
v -44.9888 27.8334 4
v -44.8192 28.0742 4
v -44.6381 28.3064 4
v -44.4457 28.5294 4
v -44.2426 28.7426 4
v -44.0294 28.9457 4
v -43.8064 29.1381 4
v -43.5742 29.3192 4
v -43.3334 29.4888 4
v -43.0846 29.6464 4
v -42.8284 29.7915 4
v -42.5653 29.9239 4
v -42.2961 30.0433 4
v -42.0213 30.1493 4
v -41.7417 30.2416 4
v -41.4579 30.3202 4
v -41.1705 30.3847 4
v -40.8804 30.4351 4
v -40.5881 30.4711 4
v -40.2944 30.4928 4
v -46 -24.5 0
v -45.9928 -24.7944 0
v -45.9711 -25.0881 0
v -45.9351 -25.3804 0
v -45.8847 -25.6705 0
v -45.8202 -25.9579 0
v -45.7416 -26.2417 0
v -45.6493 -26.5213 0
v -45.5433 -26.7961 0
v -45.4239 -27.0653 0
v -45.2915 -27.3284 0
v -45.1464 -27.5846 0
v -44.9888 -27.8334 0
v -44.8192 -28.0742 0
v -44.6381 -28.3064 0
v -44.4457 -28.5294 0
v -44.2426 -28.7426 0
v -44.0294 -28.9457 0
v -43.8064 -29.1381 0
v -43.5742 -29.3192 0
v -43.3334 -29.4888 0
v -43.0846 -29.6464 0
v -42.8284 -29.7915 0
v -42.5653 -29.9239 0
v -42.2961 -30.0433 0
v -42.0213 -30.1493 0
v -41.7417 -30.2416 0
v -41.4579 -30.3202 0
v -41.1705 -30.3847 0
v -40.8804 -30.4351 0
v -40.5881 -30.4711 0
v -40.2944 -30.4928 0
v -40 -30.5 0
v -40 -30.5 4
v -46 -24.5 4
v -45.9928 -24.7944 4
v -45.9711 -25.0881 4
v -45.9351 -25.3804 4
v -45.8847 -25.6705 4
v -45.8202 -25.9579 4
v -45.7416 -26.2417 4
v -45.6493 -26.5213 4
v -45.5433 -26.7961 4
v -45.4239 -27.0653 4
v -45.2915 -27.3284 4
v -45.1464 -27.5846 4
v -44.9888 -27.8334 4
v -44.8192 -28.0742 4
v -44.6381 -28.3064 4
v -44.4457 -28.5294 4
v -44.2426 -28.7426 4
v -44.0294 -28.9457 4
v -43.8064 -29.1381 4
v -43.5742 -29.3192 4
v -43.3334 -29.4888 4
v -43.0846 -29.6464 4
v -42.8284 -29.7915 4
v -42.5653 -29.9239 4
v -42.2961 -30.0433 4
v -42.0213 -30.1493 4
v -41.7417 -30.2416 4
v -41.4579 -30.3202 4
v -41.1705 -30.3847 4
v -40.8804 -30.4351 4
v -40.5881 -30.4711 4
v -40.2944 -30.4928 4
v -46 24.5 0
v -45.9928 24.7944 0
v -45.9711 25.0881 0
v -45.9351 25.3804 0
v -45.8847 25.6705 0
v -45.8202 25.9579 0
v -45.7416 26.2417 0
v -45.6493 26.5213 0
v -45.5433 26.7961 0
v -45.4239 27.0653 0
v -45.2915 27.3284 0
v -45.1464 27.5846 0
v -44.9888 27.8334 0
v -44.8192 28.0742 0
v -44.6381 28.3064 0
v -44.4457 28.5294 0
v -44.2426 28.7426 0
v -44.0294 28.9457 0
v -43.8064 29.1381 0
v -43.5742 29.3192 0
v -43.3334 29.4888 0
v -43.0846 29.6464 0
v -42.8284 29.7915 0
v -42.5653 29.9239 0
v -42.2961 30.0433 0
v -42.0213 30.1493 0
v -41.7417 30.2416 0
v -41.4579 30.3202 0
v -41.1705 30.3847 0
v -40.8804 30.4351 0
v -40.5881 30.4711 0
v -40.2944 30.4928 0
v -40 30.5 0
v -40 30.5 4
v -46 24.5 4
v -45.9928 24.7944 4
v -45.9711 25.0881 4
v -45.9351 25.3804 4
v -45.8847 25.6705 4
v -45.8202 25.9579 4
v -45.7416 26.2417 4
v -45.6493 26.5213 4
v -45.5433 26.7961 4
v -45.4239 27.0653 4
v -45.2915 27.3284 4
v -45.1464 27.5846 4
v -44.9888 27.8334 4
v -44.8192 28.0742 4
v -44.6381 28.3064 4
v -44.4457 28.5294 4
v -44.2426 28.7426 4
v -44.0294 28.9457 4
v -43.8064 29.1381 4
v -43.5742 29.3192 4
v -43.3334 29.4888 4
v -43.0846 29.6464 4
v -42.8284 29.7915 4
v -42.5653 29.9239 4
v -42.2961 30.0433 4
v -42.0213 30.1493 4
v -41.7417 30.2416 4
v -41.4579 30.3202 4
v -41.1705 30.3847 4
v -40.8804 30.4351 4
v -40.5881 30.4711 4
v -40.2944 30.4928 4
v -46 -24.5 0
v -46 24.5 0
v -45.9928 -24.7944 0
v -45.9711 -25.0881 0
v -45.9351 -25.3804 0
v -45.8847 -25.6705 0
v -45.8202 -25.9579 0
v -45.7416 -26.2417 0
v -45.6493 -26.5213 0
v -45.5433 -26.7961 0
v -45.4239 -27.0653 0
v -45.2915 -27.3284 0
v -45.1464 -27.5846 0
v -44.9888 -27.8334 0
v -44.8192 -28.0742 0
v -44.6381 -28.3064 0
v -44.4457 -28.5294 0
v -44.2426 -28.7426 0
v -44.0294 -28.9457 0
v -43.8064 -29.1381 0
v -43.5742 -29.3192 0
v -43.3334 -29.4888 0
v -43.0846 -29.6464 0
v -42.8284 -29.7915 0
v -42.5653 -29.9239 0
v -42.2961 -30.0433 0
v -42.0213 -30.1493 0
v -41.7417 -30.2416 0
v -41.4579 -30.3202 0
v -41.1705 -30.3847 0
v -40.8804 -30.4351 0
v -40.5881 -30.4711 0
v -40.2944 -30.4928 0
v -40 -30.5 0
v 40 -30.5 0
v 46 -24.5 0
v 45.9928 -24.7944 0
v 45.9711 -25.0881 0
v 45.9351 -25.3804 0
v 45.8847 -25.6705 0
v 45.8202 -25.9579 0
v 45.7416 -26.2417 0
v 45.6493 -26.5213 0
v 45.5433 -26.7961 0
v 45.4239 -27.0653 0
v 45.2915 -27.3284 0
v 45.1464 -27.5846 0
v 44.9888 -27.8334 0
v 44.8192 -28.0742 0
v 44.6381 -28.3064 0
v 44.4457 -28.5294 0
v 44.2426 -28.7426 0
v 44.0294 -28.9457 0
v 43.8064 -29.1381 0
v 43.5742 -29.3192 0
v 43.3334 -29.4888 0
v 43.0846 -29.6464 0
v 42.8284 -29.7915 0
v 42.5653 -29.9239 0
v 42.2961 -30.0433 0
v 42.0213 -30.1493 0
v 41.7417 -30.2416 0
v 41.4579 -30.3202 0
v 41.1705 -30.3847 0
v 40.8804 -30.4351 0
v 40.5881 -30.4711 0
v 40.2944 -30.4928 0
v 46 24.5 0
v 45.9928 24.7944 0
v 45.9711 25.0881 0
v 45.9351 25.3804 0
v 45.8847 25.6705 0
v 45.8202 25.9579 0
v 45.7416 26.2417 0
v 45.6493 26.5213 0
v 45.5433 26.7961 0
v 45.4239 27.0653 0
v 45.2915 27.3284 0
v 45.1464 27.5846 0
v 44.9888 27.8334 0
v 44.8192 28.0742 0
v 44.6381 28.3064 0
v 44.4457 28.5294 0
v 44.2426 28.7426 0
v 44.0294 28.9457 0
v 43.8064 29.1381 0
v 43.5742 29.3192 0
v 43.3334 29.4888 0
v 43.0846 29.6464 0
v 42.8284 29.7915 0
v 42.5653 29.9239 0
v 42.2961 30.0433 0
v 42.0213 30.1493 0
v 41.7417 30.2416 0
v 41.4579 30.3202 0
v 41.1705 30.3847 0
v 40.8804 30.4351 0
v 40.5881 30.4711 0
v 40.2944 30.4928 0
v 40 30.5 0
v -40 30.5 0
v -45.9928 24.7944 0
v -45.9711 25.0881 0
v -45.9351 25.3804 0
v -45.8847 25.6705 0
v -45.8202 25.9579 0
v -45.7416 26.2417 0
v -45.6493 26.5213 0
v -45.5433 26.7961 0
v -45.4239 27.0653 0
v -45.2915 27.3284 0
v -45.1464 27.5846 0
v -44.9888 27.8334 0
v -44.8192 28.0742 0
v -44.6381 28.3064 0
v -44.4457 28.5294 0
v -44.2426 28.7426 0
v -44.0294 28.9457 0
v -43.8064 29.1381 0
v -43.5742 29.3192 0
v -43.3334 29.4888 0
v -43.0846 29.6464 0
v -42.8284 29.7915 0
v -42.5653 29.9239 0
v -42.2961 30.0433 0
v -42.0213 30.1493 0
v -41.7417 30.2416 0
v -41.4579 30.3202 0
v -41.1705 30.3847 0
v -40.8804 30.4351 0
v -40.5881 30.4711 0
v -40.2944 30.4928 0
v -40 -30.5 0
v 40 -30.5 0
v -40 -30.5 4
v 40 -30.5 4
v -40 30.5 0
v 40 30.5 0
v -40 30.5 4
v 40 30.5 4
v 46 -24.5 0
v 45.9928 -24.7944 0
v 45.9711 -25.0881 0
v 45.9351 -25.3804 0
v 45.8847 -25.6705 0
v 45.8202 -25.9579 0
v 45.7416 -26.2417 0
v 45.6493 -26.5213 0
v 45.5433 -26.7961 0
v 45.4239 -27.0653 0
v 45.2915 -27.3284 0
v 45.1464 -27.5846 0
v 44.9888 -27.8334 0
v 44.8192 -28.0742 0
v 44.6381 -28.3064 0
v 44.4457 -28.5294 0
v 44.2426 -28.7426 0
v 44.0294 -28.9457 0
v 43.8064 -29.1381 0
v 43.5742 -29.3192 0
v 43.3334 -29.4888 0
v 43.0846 -29.6464 0
v 42.8284 -29.7915 0
v 42.5653 -29.9239 0
v 42.2961 -30.0433 0
v 42.0213 -30.1493 0
v 41.7417 -30.2416 0
v 41.4579 -30.3202 0
v 41.1705 -30.3847 0
v 40.8804 -30.4351 0
v 40.5881 -30.4711 0
v 40.2944 -30.4928 0
v 40 -30.5 0
v 40 -30.5 4
v 46 -24.5 4
v 45.9928 -24.7944 4
v 45.9711 -25.0881 4
v 45.9351 -25.3804 4
v 45.8847 -25.6705 4
v 45.8202 -25.9579 4
v 45.7416 -26.2417 4
v 45.6493 -26.5213 4
v 45.5433 -26.7961 4
v 45.4239 -27.0653 4
v 45.2915 -27.3284 4
v 45.1464 -27.5846 4
v 44.9888 -27.8334 4
v 44.8192 -28.0742 4
v 44.6381 -28.3064 4
v 44.4457 -28.5294 4
v 44.2426 -28.7426 4
v 44.0294 -28.9457 4
v 43.8064 -29.1381 4
v 43.5742 -29.3192 4
v 43.3334 -29.4888 4
v 43.0846 -29.6464 4
v 42.8284 -29.7915 4
v 42.5653 -29.9239 4
v 42.2961 -30.0433 4
v 42.0213 -30.1493 4
v 41.7417 -30.2416 4
v 41.4579 -30.3202 4
v 41.1705 -30.3847 4
v 40.8804 -30.4351 4
v 40.5881 -30.4711 4
v 40.2944 -30.4928 4
v 46 24.5 0
v 45.9928 24.7944 0
v 45.9711 25.0881 0
v 45.9351 25.3804 0
v 45.8847 25.6705 0
v 45.8202 25.9579 0
v 45.7416 26.2417 0
v 45.6493 26.5213 0
v 45.5433 26.7961 0
v 45.4239 27.0653 0
v 45.2915 27.3284 0
v 45.1464 27.5846 0
v 44.9888 27.8334 0
v 44.8192 28.0742 0
v 44.6381 28.3064 0
v 44.4457 28.5294 0
v 44.2426 28.7426 0
v 44.0294 28.9457 0
v 43.8064 29.1381 0
v 43.5742 29.3192 0
v 43.3334 29.4888 0
v 43.0846 29.6464 0
v 42.8284 29.7915 0
v 42.5653 29.9239 0
v 42.2961 30.0433 0
v 42.0213 30.1493 0
v 41.7417 30.2416 0
v 41.4579 30.3202 0
v 41.1705 30.3847 0
v 40.8804 30.4351 0
v 40.5881 30.4711 0
v 40.2944 30.4928 0
v 40 30.5 0
v 40 30.5 4
v 46 24.5 4
v 45.9928 24.7944 4
v 45.9711 25.0881 4
v 45.9351 25.3804 4
v 45.8847 25.6705 4
v 45.8202 25.9579 4
v 45.7416 26.2417 4
v 45.6493 26.5213 4
v 45.5433 26.7961 4
v 45.4239 27.0653 4
v 45.2915 27.3284 4
v 45.1464 27.5846 4
v 44.9888 27.8334 4
v 44.8192 28.0742 4
v 44.6381 28.3064 4
v 44.4457 28.5294 4
v 44.2426 28.7426 4
v 44.0294 28.9457 4
v 43.8064 29.1381 4
v 43.5742 29.3192 4
v 43.3334 29.4888 4
v 43.0846 29.6464 4
v 42.8284 29.7915 4
v 42.5653 29.9239 4
v 42.2961 30.0433 4
v 42.0213 30.1493 4
v 41.7417 30.2416 4
v 41.4579 30.3202 4
v 41.1705 30.3847 4
v 40.8804 30.4351 4
v 40.5881 30.4711 4
v 40.2944 30.4928 4
v 46 -24.5 4
v 46 24.5 4
v 46 -24.5 0
v 46 24.5 0
f 3 2 4
f 1 2 3
f 21 22 23
f 18 19 20
f 29 24 25
f 29 25 26
f 29 26 27
f 29 27 28
f 14 15 16
f 14 16 17
f 14 17 18
f 14 18 20
f 31 20 21
f 31 23 24
f 31 29 30
f 31 21 23
f 31 24 29
f 11 12 13
f 11 13 14
f 36 32 33
f 36 33 34
f 36 34 35
f 8 9 10
f 8 10 11
f 37 32 36
f 5 7 8
f 5 31 32
f 5 20 31
f 5 14 20
f 5 11 14
f 5 8 11
f 38 32 37
f 38 5 32
f 110 107 106
f 110 108 107
f 110 109 108
f 111 110 106
f 112 106 6
f 112 111 106
f 114 113 112
f 114 112 6
f 116 115 114
f 116 114 6
f 119 117 116
f 119 118 117
f 121 120 119
f 121 119 116
f 122 121 116
f 123 116 6
f 123 122 116
f 124 123 6
f 125 124 6
f 126 125 6
f 127 126 6
f 129 128 127
f 129 127 6
f 132 130 129
f 132 131 130
f 132 129 6
f 134 133 132
f 135 134 132
f 136 135 132
f 105 6 5
f 105 132 6
f 105 136 132
f 105 5 38
f 69 71 70
f 68 39 71
f 68 71 69
f 64 66 65
f 64 67 66
f 63 68 67
f 63 67 64
f 61 63 62
f 61 39 68
f 61 68 63
f 59 61 60
f 59 39 61
f 57 59 58
f 57 39 59
f 55 57 56
f 55 39 57
f 54 39 55
f 53 39 54
f 50 39 53
f 50 52 51
f 50 53 52
f 48 50 49
f 47 50 48
f 46 39 50
f 46 50 47
f 45 39 46
f 44 39 45
f 43 39 44
f 40 39 43
f 40 42 41
f 40 43 42
f 104 38 39
f 104 105 38
f 72 104 39
f 72 39 40
f 102 103 104
f 75 73 74
f 98 99 100
f 98 100 101
f 98 101 102
f 97 104 72
f 97 102 104
f 97 73 75
f 97 98 102
f 97 72 73
f 97 75 76
f 97 76 77
f 97 77 78
f 95 96 97
f 81 78 79
f 81 79 80
f 94 95 97
f 82 78 81
f 93 94 97
f 83 78 82
f 84 78 83
f 91 93 97
f 91 92 93
f 87 78 84
f 87 84 85
f 87 85 86
f 88 97 78
f 88 91 97
f 88 89 90
f 88 90 91
f 88 78 87
f 172 137 138
f 172 171 137
f 173 138 139
f 173 172 138
f 174 139 140
f 174 173 139
f 175 140 141
f 175 174 140
f 176 141 142
f 176 175 141
f 177 142 143
f 177 176 142
f 178 143 144
f 178 177 143
f 179 144 145
f 179 178 144
f 180 179 145
f 180 145 146
f 181 146 147
f 181 180 146
f 182 147 148
f 182 181 147
f 183 148 149
f 183 182 148
f 184 149 150
f 184 183 149
f 185 150 151
f 185 184 150
f 186 151 152
f 186 185 151
f 187 152 153
f 187 186 152
f 188 153 154
f 188 187 153
f 189 154 155
f 189 188 154
f 190 155 156
f 190 156 157
f 190 189 155
f 191 190 157
f 192 157 158
f 192 191 157
f 193 158 159
f 193 192 158
f 194 159 160
f 194 193 159
f 195 160 161
f 195 161 162
f 195 194 160
f 196 195 162
f 197 162 163
f 197 196 162
f 198 163 164
f 198 197 163
f 199 164 165
f 199 198 164
f 200 165 166
f 200 199 165
f 201 166 167
f 201 200 166
f 202 167 168
f 202 201 167
f 170 168 169
f 170 202 168
f 238 204 203
f 238 203 237
f 239 205 204
f 239 204 238
f 240 206 205
f 240 205 239
f 241 207 206
f 241 206 240
f 242 208 207
f 242 207 241
f 243 209 208
f 243 208 242
f 244 210 209
f 244 209 243
f 245 211 210
f 245 212 211
f 245 210 244
f 246 212 245
f 247 213 212
f 247 212 246
f 248 214 213
f 248 215 214
f 248 213 247
f 249 215 248
f 250 216 215
f 250 215 249
f 251 217 216
f 251 216 250
f 252 218 217
f 252 217 251
f 253 219 218
f 253 220 219
f 253 218 252
f 254 220 253
f 255 221 220
f 255 220 254
f 256 222 221
f 256 221 255
f 257 223 222
f 257 222 256
f 258 224 223
f 258 225 224
f 258 223 257
f 259 225 258
f 260 226 225
f 260 225 259
f 261 227 226
f 261 226 260
f 262 228 227
f 262 229 228
f 262 227 261
f 263 229 262
f 264 230 229
f 264 229 263
f 265 231 230
f 265 230 264
f 266 232 231
f 266 231 265
f 267 233 232
f 267 234 233
f 267 232 266
f 268 234 267
f 236 235 234
f 236 234 268
f 285 287 286
f 282 284 283
f 293 289 288
f 293 290 289
f 293 291 290
f 293 292 291
f 278 280 279
f 278 281 280
f 278 282 281
f 278 284 282
f 295 285 284
f 295 288 287
f 295 294 293
f 295 287 285
f 295 293 288
f 275 277 276
f 275 278 277
f 300 297 296
f 300 298 297
f 300 299 298
f 272 274 273
f 272 275 274
f 301 300 296
f 269 272 271
f 269 296 295
f 269 295 284
f 269 284 278
f 269 278 275
f 269 275 272
f 302 301 296
f 302 296 269
f 374 370 371
f 374 371 372
f 374 372 373
f 375 370 374
f 376 270 370
f 376 370 375
f 378 376 377
f 378 270 376
f 380 378 379
f 380 270 378
f 383 380 381
f 383 381 382
f 385 383 384
f 385 380 383
f 386 380 385
f 387 270 380
f 387 380 386
f 388 270 387
f 389 270 388
f 390 270 389
f 391 270 390
f 393 391 392
f 393 270 391
f 396 393 394
f 396 394 395
f 396 270 393
f 398 396 397
f 399 396 398
f 400 396 399
f 369 269 270
f 369 270 396
f 369 396 400
f 369 302 269
f 333 334 335
f 332 335 303
f 332 333 335
f 328 329 330
f 328 330 331
f 327 331 332
f 327 328 331
f 325 326 327
f 325 332 303
f 325 327 332
f 323 324 325
f 323 325 303
f 321 322 323
f 321 323 303
f 319 320 321
f 319 321 303
f 318 319 303
f 317 318 303
f 314 317 303
f 314 315 316
f 314 316 317
f 312 313 314
f 311 312 314
f 310 314 303
f 310 311 314
f 309 310 303
f 308 309 303
f 307 308 303
f 304 307 303
f 304 305 306
f 304 306 307
f 368 303 302
f 368 302 369
f 336 303 368
f 336 304 303
f 366 368 367
f 339 338 337
f 362 364 363
f 362 365 364
f 362 366 365
f 361 336 368
f 361 368 366
f 361 339 337
f 361 366 362
f 361 337 336
f 361 340 339
f 361 341 340
f 361 342 341
f 359 361 360
f 345 343 342
f 345 344 343
f 358 361 359
f 346 345 342
f 357 361 358
f 347 346 342
f 348 347 342
f 355 361 357
f 355 357 356
f 351 348 342
f 351 349 348
f 351 350 349
f 352 342 361
f 352 361 355
f 352 354 353
f 352 355 354
f 352 351 342
f 404 401 402
f 404 403 401
f 408 406 405
f 408 405 407
f 444 410 409
f 444 409 443
f 445 411 410
f 445 410 444
f 446 412 411
f 446 411 445
f 447 413 412
f 447 412 446
f 448 414 413
f 448 413 447
f 449 415 414
f 449 414 448
f 450 416 415
f 450 415 449
f 451 417 416
f 451 416 450
f 452 417 451
f 452 418 417
f 453 419 418
f 453 418 452
f 454 420 419
f 454 419 453
f 455 421 420
f 455 420 454
f 456 422 421
f 456 421 455
f 457 423 422
f 457 422 456
f 458 424 423
f 458 423 457
f 459 425 424
f 459 424 458
f 460 426 425
f 460 425 459
f 461 427 426
f 461 426 460
f 462 428 427
f 462 429 428
f 462 427 461
f 463 429 462
f 464 430 429
f 464 429 463
f 465 431 430
f 465 430 464
f 466 432 431
f 466 431 465
f 467 433 432
f 467 434 433
f 467 432 466
f 468 434 467
f 469 435 434
f 469 434 468
f 470 436 435
f 470 435 469
f 471 437 436
f 471 436 470
f 472 438 437
f 472 437 471
f 473 439 438
f 473 438 472
f 474 440 439
f 474 439 473
f 442 441 440
f 442 440 474
f 510 475 476
f 510 509 475
f 511 476 477
f 511 510 476
f 512 477 478
f 512 511 477
f 513 478 479
f 513 512 478
f 514 479 480
f 514 513 479
f 515 480 481
f 515 514 480
f 516 481 482
f 516 515 481
f 517 482 483
f 517 483 484
f 517 516 482
f 518 517 484
f 519 484 485
f 519 518 484
f 520 485 486
f 520 486 487
f 520 519 485
f 521 520 487
f 522 487 488
f 522 521 487
f 523 488 489
f 523 522 488
f 524 489 490
f 524 523 489
f 525 490 491
f 525 491 492
f 525 524 490
f 526 525 492
f 527 492 493
f 527 526 492
f 528 493 494
f 528 527 493
f 529 494 495
f 529 528 494
f 530 495 496
f 530 496 497
f 530 529 495
f 531 530 497
f 532 497 498
f 532 531 497
f 533 498 499
f 533 532 498
f 534 499 500
f 534 500 501
f 534 533 499
f 535 534 501
f 536 501 502
f 536 535 501
f 537 502 503
f 537 536 502
f 538 503 504
f 538 537 503
f 539 504 505
f 539 505 506
f 539 538 504
f 540 539 506
f 508 506 507
f 508 540 506
f 543 544 542
f 541 543 542
