# Cadless export: model
v -6000 -4000 -150
v -6000 -4000 6450
v -6000 4000 -150
v -6000 4000 6450
v -6000 -4000 6450
v -6000 4000 6450
v 6000 -4000 6450
v 6000 4000 6450
v -5700 -3700 6450
v -5700 3700 6450
v 5700 3700 6450
v 5700 -3700 6450
v -5700 3700 3450
v 5700 3700 3450
v -5700 3700 6450
v 5700 3700 6450
v -5700 3700 3450
v 5700 3700 3450
v -5700 -3700 3450
v 5700 -3700 3450
v 5700 -3700 3450
v 5700 -3700 6450
v 5700 3700 3450
v 5700 3700 6450
v -5700 -3700 3450
v 5700 -3700 3450
v -5700 -3700 6450
v 5700 -3700 6450
v -5700 -3700 3450
v -5700 -3700 6450
v -5700 3700 3450
v -5700 3700 6450
v 6000 -4000 -150
v 6000 -4000 6450
v 6000 4000 -150
v 6000 4000 6450
v -6000 4000 -150
v 6000 4000 -150
v -6000 4000 6450
v 6000 4000 6450
v -6000 -4000 -150
v -6000 4000 -150
v 6000 -4000 -150
v 6000 4000 -150
v -6000 -4000 -150
v 6000 -4000 -150
v -6000 -4000 6450
v 6000 -4000 6450
v -500 -4000 2250
v 500 -4000 2250
v -500 -4000 150
v 500 -4000 150
v 500 -4000 2250
v 500 -3700 2250
v 500 -4000 150
v 500 -3700 150
v -5700 -3700 150
v -500 -3700 150
v -5700 -3700 3150
v 5700 -3700 3150
v 5700 -3700 150
v 500 -3700 150
v 500 -3700 2250
v -500 -3700 2250
v -5700 -3700 150
v -5700 -3700 3150
v -5700 3700 150
v -5700 3700 3150
v -5700 3700 150
v 5700 3700 150
v -5700 3700 3150
v 5700 3700 3150
v -5700 3700 3150
v 5700 3700 3150
v -5700 -3700 3150
v 5700 -3700 3150
v 5700 -3700 150
v 5700 -3700 3150
v 5700 3700 150
v 5700 3700 3150
v 500 -4000 150
v 500 -3700 150
v 5700 -3700 150
v 5700 3700 150
v -5700 3700 150
v -5700 -3700 150
v -500 -3700 150
v -500 -4000 150
v -500 -4000 2250
v -500 -3700 2250
v -500 -4000 150
v -500 -3700 150
v -500 -4000 2250
v -500 -3700 2250
v 500 -4000 2250
v 500 -3700 2250
f 2 3 1
f 2 4 3
f 10 5 9
f 6 5 10
f 7 9 5
f 12 9 7
f 11 12 7
f 8 11 7
f 8 6 10
f 8 10 11
f 14 15 13
f 16 15 14
f 18 17 19
f 18 19 20
f 22 23 21
f 22 24 23
f 26 25 27
f 28 26 27
f 30 29 31
f 30 31 32
f 34 33 35
f 34 35 36
f 38 37 39
f 40 38 39
f 44 41 42
f 44 43 41
f 49 47 45
f 49 45 51
f 50 47 49
f 46 50 52
f 48 47 50
f 48 50 46
f 46 51 45
f 46 52 51
f 54 56 55
f 53 54 55
f 64 58 57
f 64 57 59
f 61 62 63
f 60 61 63
f 59 60 63
f 59 63 64
f 66 65 67
f 66 67 68
f 70 71 69
f 72 71 70
f 74 75 73
f 74 76 75
f 78 79 77
f 78 80 79
f 82 87 88
f 82 88 81
f 85 86 87
f 84 82 83
f 84 85 87
f 84 87 82
f 90 91 92
f 89 91 90
f 96 93 94
f 96 95 93
