# Cadless export: model
v 225 -200 0
v 225 -200 550
v 225 200 0
v 225 200 550
v -225 200 0
v 225 200 0
v -225 200 550
v 225 200 550
v -225 -200 0
v -225 -200 550
v -225 200 0
v -225 200 550
v -225 -200 0
v -225 200 0
v 225 -200 0
v 225 200 0
v -225 -200 550
v -225 200 550
v 225 -200 550
v 225 200 550
v -225 -200 0
v 225 -200 0
v -225 -200 550
v 225 -200 550
v -209 -200 534
v 209 -200 534
v -209 -200 16
v 209 -200 16
v -209 -200 16
v 209 -200 16
v 209 184 16
v -209 184 16
v 209 -200 16
v 209 -200 534
v 209 184 16
v 209 184 534
v -209 -200 534
v 209 -200 534
v 209 184 534
v -209 184 534
v -209 -200 16
v -209 -200 534
v -209 184 16
v -209 184 534
v 209 184 16
v -209 184 16
v -209 184 534
v 209 184 534
f 4 1 3
f 2 1 4
f 7 6 5
f 8 6 7
f 12 11 9
f 10 12 9
f 16 13 14
f 16 15 13
f 20 18 17
f 20 17 19
f 28 21 22
f 28 27 21
f 25 23 21
f 25 21 27
f 24 25 26
f 24 23 25
f 24 28 22
f 24 26 28
f 31 29 30
f 31 32 29
f 34 35 33
f 34 36 35
f 39 38 37
f 39 37 40
f 42 41 43
f 42 43 44
f 48 46 45
f 48 47 46
