# Cadless export: model
v -40 -30 -3
v -40 -30 3
v -40 30 -3
v -40 30 3
v -40 -30 -3
v 40 -30 -3
v -40 -30 3
v 40 -30 3
v -40 -30 3
v -40 30 3
v 40 -30 3
v 40 30 3
v -27 -20 3
v -27.0037 -19.8505 3
v -27.0149 -19.7013 3
v -27.0335 -19.5529 3
v -27.0595 -19.4056 3
v -27.0928 -19.2597 3
v -27.1333 -19.1157 3
v -27.1809 -18.9739 3
v -27.2356 -18.8347 3
v -27.2971 -18.6983 3
v -27.3653 -18.5652 3
v -27.4401 -18.4357 3
v -27.5213 -18.31 3
v -27.6086 -18.1886 3
v -27.7019 -18.0716 3
v -27.8008 -17.9595 3
v -27.9053 -17.8524 3
v -28.0149 -17.7507 3
v -28.1295 -17.6545 3
v -28.2488 -17.5642 3
v -28.3724 -17.4799 3
v -28.5 -17.4019 3
v -28.6314 -17.3304 3
v -28.7661 -17.2655 3
v -28.904 -17.2074 3
v -29.0445 -17.1562 3
v -29.1875 -17.1121 3
v -29.3324 -17.0752 3
v -29.4791 -17.0456 3
v -29.627 -17.0233 3
v -29.7758 -17.0084 3
v -29.9252 -17.0009 3
v -30.0748 -17.0009 3
v -30.2242 -17.0084 3
v -30.373 -17.0233 3
v -30.5209 -17.0456 3
v -30.6676 -17.0752 3
v -30.8125 -17.1121 3
v -30.9555 -17.1562 3
v -31.096 -17.2074 3
v -31.2339 -17.2655 3
v -31.3686 -17.3304 3
v -31.5 -17.4019 3
v -31.6276 -17.4799 3
v -31.7512 -17.5642 3
v -31.8705 -17.6545 3
v -31.9851 -17.7507 3
v -32.0947 -17.8524 3
v -32.1992 -17.9595 3
v -32.2981 -18.0716 3
v -32.3914 -18.1886 3
v -32.4787 -18.31 3
v -32.5599 -18.4357 3
v -32.6347 -18.5652 3
v -32.7029 -18.6983 3
v -32.7644 -18.8347 3
v -32.8191 -18.9739 3
v -32.8667 -19.1157 3
v -32.9072 -19.2597 3
v -32.9405 -19.4056 3
v -32.9665 -19.5529 3
v -32.9851 -19.7013 3
v -32.9963 -19.8505 3
v -33 -20 3
v -32.9963 -20.1495 3
v -32.9851 -20.2987 3
v -32.9665 -20.4471 3
v -32.9405 -20.5944 3
v -32.9072 -20.7403 3
v -32.8667 -20.8843 3
v -32.8191 -21.0261 3
v -32.7644 -21.1653 3
v -32.7029 -21.3017 3
v -32.6347 -21.4348 3
v -32.5599 -21.5643 3
v -32.4787 -21.69 3
v -32.3914 -21.8114 3
v -32.2981 -21.9284 3
v -32.1992 -22.0405 3
v -32.0947 -22.1476 3
v -31.9851 -22.2493 3
v -31.8705 -22.3455 3
v -31.7512 -22.4358 3
v -31.6276 -22.5201 3
v -31.5 -22.5981 3
v -31.3686 -22.6696 3
v -31.2339 -22.7345 3
v -31.096 -22.7926 3
v -30.9555 -22.8438 3
v -30.8125 -22.8879 3
v -30.6676 -22.9248 3
v -30.5209 -22.9544 3
v -30.373 -22.9767 3
v -30.2242 -22.9916 3
v -30.0748 -22.9991 3
v -29.9252 -22.9991 3
v -29.7758 -22.9916 3
v -29.627 -22.9767 3
v -29.4791 -22.9544 3
v -29.3324 -22.9248 3
v -29.1875 -22.8879 3
v -29.0445 -22.8438 3
v -28.904 -22.7926 3
v -28.7661 -22.7345 3
v -28.6314 -22.6696 3
v -28.5 -22.5981 3
v -28.3724 -22.5201 3
v -28.2488 -22.4358 3
v -28.1295 -22.3455 3
v -28.0149 -22.2493 3
v -27.9053 -22.1476 3
v -27.8008 -22.0405 3
v -27.7019 -21.9284 3
v -27.6086 -21.8114 3
v -27.5213 -21.69 3
v -27.4401 -21.5643 3
v -27.3653 -21.4348 3
v -27.2971 -21.3017 3
v -27.2356 -21.1653 3
v -27.1809 -21.0261 3
v -27.1333 -20.8843 3
v -27.0928 -20.7403 3
v -27.0595 -20.5944 3
v -27.0335 -20.4471 3
v -27.0149 -20.2987 3
v -27.0037 -20.1495 3
v 33 -20 3
v 32.9963 -19.8505 3
v 32.9851 -19.7013 3
v 32.9665 -19.5529 3
v 32.9405 -19.4056 3
v 32.9072 -19.2597 3
v 32.8667 -19.1157 3
v 32.8191 -18.9739 3
v 32.7644 -18.8347 3
v 32.7029 -18.6983 3
v 32.6347 -18.5652 3
v 32.5599 -18.4357 3
v 32.4787 -18.31 3
v 32.3914 -18.1886 3
v 32.2981 -18.0716 3
v 32.1992 -17.9595 3
v 32.0947 -17.8524 3
v 31.9851 -17.7507 3
v 31.8705 -17.6545 3
v 31.7512 -17.5642 3
v 31.6276 -17.4799 3
v 31.5 -17.4019 3
v 31.3686 -17.3304 3
v 31.2339 -17.2655 3
v 31.096 -17.2074 3
v 30.9555 -17.1562 3
v 30.8125 -17.1121 3
v 30.6676 -17.0752 3
v 30.5209 -17.0456 3
v 30.373 -17.0233 3
v 30.2242 -17.0084 3
v 30.0748 -17.0009 3
v 29.9252 -17.0009 3
v 29.7758 -17.0084 3
v 29.627 -17.0233 3
v 29.4791 -17.0456 3
v 29.3324 -17.0752 3
v 29.1875 -17.1121 3
v 29.0445 -17.1562 3
v 28.904 -17.2074 3
v 28.7661 -17.2655 3
v 28.6314 -17.3304 3
v 28.5 -17.4019 3
v 28.3724 -17.4799 3
v 28.2488 -17.5642 3
v 28.1295 -17.6545 3
v 28.0149 -17.7507 3
v 27.9053 -17.8524 3
v 27.8008 -17.9595 3
v 27.7019 -18.0716 3
v 27.6086 -18.1886 3
v 27.5213 -18.31 3
v 27.4401 -18.4357 3
v 27.3653 -18.5652 3
v 27.2971 -18.6983 3
v 27.2356 -18.8347 3
v 27.1809 -18.9739 3
v 27.1333 -19.1157 3
v 27.0928 -19.2597 3
v 27.0595 -19.4056 3
v 27.0335 -19.5529 3
v 27.0149 -19.7013 3
v 27.0037 -19.8505 3
v 27 -20 3
v 27.0037 -20.1495 3
v 27.0149 -20.2987 3
v 27.0335 -20.4471 3
v 27.0595 -20.5944 3
v 27.0928 -20.7403 3
v 27.1333 -20.8843 3
v 27.1809 -21.0261 3
v 27.2356 -21.1653 3
v 27.2971 -21.3017 3
v 27.3653 -21.4348 3
v 27.4401 -21.5643 3
v 27.5213 -21.69 3
v 27.6086 -21.8114 3
v 27.7019 -21.9284 3
v 27.8008 -22.0405 3
v 27.9053 -22.1476 3
v 28.0149 -22.2493 3
v 28.1295 -22.3455 3
v 28.2488 -22.4358 3
v 28.3724 -22.5201 3
v 28.5 -22.5981 3
v 28.6314 -22.6696 3
v 28.7661 -22.7345 3
v 28.904 -22.7926 3
v 29.0445 -22.8438 3
v 29.1875 -22.8879 3
v 29.3324 -22.9248 3
v 29.4791 -22.9544 3
v 29.627 -22.9767 3
v 29.7758 -22.9916 3
v 29.9252 -22.9991 3
v 30.0748 -22.9991 3
v 30.2242 -22.9916 3
v 30.373 -22.9767 3
v 30.5209 -22.9544 3
v 30.6676 -22.9248 3
v 30.8125 -22.8879 3
v 30.9555 -22.8438 3
v 31.096 -22.7926 3
v 31.2339 -22.7345 3
v 31.3686 -22.6696 3
v 31.5 -22.5981 3
v 31.6276 -22.5201 3
v 31.7512 -22.4358 3
v 31.8705 -22.3455 3
v 31.9851 -22.2493 3
v 32.0947 -22.1476 3
v 32.1992 -22.0405 3
v 32.2981 -21.9284 3
v 32.3914 -21.8114 3
v 32.4787 -21.69 3
v 32.5599 -21.5643 3
v 32.6347 -21.4348 3
v 32.7029 -21.3017 3
v 32.7644 -21.1653 3
v 32.8191 -21.0261 3
v 32.8667 -20.8843 3
v 32.9072 -20.7403 3
v 32.9405 -20.5944 3
v 32.9665 -20.4471 3
v 32.9851 -20.2987 3
v 32.9963 -20.1495 3
v -27 20 3
v -27.0037 20.1495 3
v -27.0149 20.2987 3
v -27.0335 20.4471 3
v -27.0595 20.5944 3
v -27.0928 20.7403 3
v -27.1333 20.8843 3
v -27.1809 21.0261 3
v -27.2356 21.1653 3
v -27.2971 21.3017 3
v -27.3653 21.4348 3
v -27.4401 21.5643 3
v -27.5213 21.69 3
v -27.6086 21.8114 3
v -27.7019 21.9284 3
v -27.8008 22.0405 3
v -27.9053 22.1476 3
v -28.0149 22.2493 3
v -28.1295 22.3455 3
v -28.2488 22.4358 3
v -28.3724 22.5201 3
v -28.5 22.5981 3
v -28.6314 22.6696 3
v -28.7661 22.7345 3
v -28.904 22.7926 3
v -29.0445 22.8438 3
v -29.1875 22.8879 3
v -29.3324 22.9248 3
v -29.4791 22.9544 3
v -29.627 22.9767 3
v -29.7758 22.9916 3
v -29.9252 22.9991 3
v -30.0748 22.9991 3
v -30.2242 22.9916 3
v -30.373 22.9767 3
v -30.5209 22.9544 3
v -30.6676 22.9248 3
v -30.8125 22.8879 3
v -30.9555 22.8438 3
v -31.096 22.7926 3
v -31.2339 22.7345 3
v -31.3686 22.6696 3
v -31.5 22.5981 3
v -31.6276 22.5201 3
v -31.7512 22.4358 3
v -31.8705 22.3455 3
v -31.9851 22.2493 3
v -32.0947 22.1476 3
v -32.1992 22.0405 3
v -32.2981 21.9284 3
v -32.3914 21.8114 3
v -32.4787 21.69 3
v -32.5599 21.5643 3
v -32.6347 21.4348 3
v -32.7029 21.3017 3
v -32.7644 21.1653 3
v -32.8191 21.0261 3
v -32.8667 20.8843 3
v -32.9072 20.7403 3
v -32.9405 20.5944 3
v -32.9665 20.4471 3
v -32.9851 20.2987 3
v -32.9963 20.1495 3
v -33 20 3
v -32.9963 19.8505 3
v -32.9851 19.7013 3
v -32.9665 19.5529 3
v -32.9405 19.4056 3
v -32.9072 19.2597 3
v -32.8667 19.1157 3
v -32.8191 18.9739 3
v -32.7644 18.8347 3
v -32.7029 18.6983 3
v -32.6347 18.5652 3
v -32.5599 18.4357 3
v -32.4787 18.31 3
v -32.3914 18.1886 3
v -32.2981 18.0716 3
v -32.1992 17.9595 3
v -32.0947 17.8524 3
v -31.9851 17.7507 3
v -31.8705 17.6545 3
v -31.7512 17.5642 3
v -31.6276 17.4799 3
v -31.5 17.4019 3
v -31.3686 17.3304 3
v -31.2339 17.2655 3
v -31.096 17.2074 3
v -30.9555 17.1562 3
v -30.8125 17.1121 3
v -30.6676 17.0752 3
v -30.5209 17.0456 3
v -30.373 17.0233 3
v -30.2242 17.0084 3
v -30.0748 17.0009 3
v -29.9252 17.0009 3
v -29.7758 17.0084 3
v -29.627 17.0233 3
v -29.4791 17.0456 3
v -29.3324 17.0752 3
v -29.1875 17.1121 3
v -29.0445 17.1562 3
v -28.904 17.2074 3
v -28.7661 17.2655 3
v -28.6314 17.3304 3
v -28.5 17.4019 3
v -28.3724 17.4799 3
v -28.2488 17.5642 3
v -28.1295 17.6545 3
v -28.0149 17.7507 3
v -27.9053 17.8524 3
v -27.8008 17.9595 3
v -27.7019 18.0716 3
v -27.6086 18.1886 3
v -27.5213 18.31 3
v -27.4401 18.4357 3
v -27.3653 18.5652 3
v -27.2971 18.6983 3
v -27.2356 18.8347 3
v -27.1809 18.9739 3
v -27.1333 19.1157 3
v -27.0928 19.2597 3
v -27.0595 19.4056 3
v -27.0335 19.5529 3
v -27.0149 19.7013 3
v -27.0037 19.8505 3
v 33 20 3
v 32.9963 20.1495 3
v 32.9851 20.2987 3
v 32.9665 20.4471 3
v 32.9405 20.5944 3
v 32.9072 20.7403 3
v 32.8667 20.8843 3
v 32.8191 21.0261 3
v 32.7644 21.1653 3
v 32.7029 21.3017 3
v 32.6347 21.4348 3
v 32.5599 21.5643 3
v 32.4787 21.69 3
v 32.3914 21.8114 3
v 32.2981 21.9284 3
v 32.1992 22.0405 3
v 32.0947 22.1476 3
v 31.9851 22.2493 3
v 31.8705 22.3455 3
v 31.7512 22.4358 3
v 31.6276 22.5201 3
v 31.5 22.5981 3
v 31.3686 22.6696 3
v 31.2339 22.7345 3
v 31.096 22.7926 3
v 30.9555 22.8438 3
v 30.8125 22.8879 3
v 30.6676 22.9248 3
v 30.5209 22.9544 3
v 30.373 22.9767 3
v 30.2242 22.9916 3
v 30.0748 22.9991 3
v 29.9252 22.9991 3
v 29.7758 22.9916 3
v 29.627 22.9767 3
v 29.4791 22.9544 3
v 29.3324 22.9248 3
v 29.1875 22.8879 3
v 29.0445 22.8438 3
v 28.904 22.7926 3
v 28.7661 22.7345 3
v 28.6314 22.6696 3
v 28.5 22.5981 3
v 28.3724 22.5201 3
v 28.2488 22.4358 3
v 28.1295 22.3455 3
v 28.0149 22.2493 3
v 27.9053 22.1476 3
v 27.8008 22.0405 3
v 27.7019 21.9284 3
v 27.6086 21.8114 3
v 27.5213 21.69 3
v 27.4401 21.5643 3
v 27.3653 21.4348 3
v 27.2971 21.3017 3
v 27.2356 21.1653 3
v 27.1809 21.0261 3
v 27.1333 20.8843 3
v 27.0928 20.7403 3
v 27.0595 20.5944 3
v 27.0335 20.4471 3
v 27.0149 20.2987 3
v 27.0037 20.1495 3
v 27 20 3
v 27.0037 19.8505 3
v 27.0149 19.7013 3
v 27.0335 19.5529 3
v 27.0595 19.4056 3
v 27.0928 19.2597 3
v 27.1333 19.1157 3
v 27.1809 18.9739 3
v 27.2356 18.8347 3
v 27.2971 18.6983 3
v 27.3653 18.5652 3
v 27.4401 18.4357 3
v 27.5213 18.31 3
v 27.6086 18.1886 3
v 27.7019 18.0716 3
v 27.8008 17.9595 3
v 27.9053 17.8524 3
v 28.0149 17.7507 3
v 28.1295 17.6545 3
v 28.2488 17.5642 3
v 28.3724 17.4799 3
v 28.5 17.4019 3
v 28.6314 17.3304 3
v 28.7661 17.2655 3
v 28.904 17.2074 3
v 29.0445 17.1562 3
v 29.1875 17.1121 3
v 29.3324 17.0752 3
v 29.4791 17.0456 3
v 29.627 17.0233 3
v 29.7758 17.0084 3
v 29.9252 17.0009 3
v 30.0748 17.0009 3
v 30.2242 17.0084 3
v 30.373 17.0233 3
v 30.5209 17.0456 3
v 30.6676 17.0752 3
v 30.8125 17.1121 3
v 30.9555 17.1562 3
v 31.096 17.2074 3
v 31.2339 17.2655 3
v 31.3686 17.3304 3
v 31.5 17.4019 3
v 31.6276 17.4799 3
v 31.7512 17.5642 3
v 31.8705 17.6545 3
v 31.9851 17.7507 3
v 32.0947 17.8524 3
v 32.1992 17.9595 3
v 32.2981 18.0716 3
v 32.3914 18.1886 3
v 32.4787 18.31 3
v 32.5599 18.4357 3
v 32.6347 18.5652 3
v 32.7029 18.6983 3
v 32.7644 18.8347 3
v 32.8191 18.9739 3
v 32.8667 19.1157 3
v 32.9072 19.2597 3
v 32.9405 19.4056 3
v 32.9665 19.5529 3
v 32.9851 19.7013 3
v 32.9963 19.8505 3
v -40 30 -3
v 40 30 -3
v -40 30 3
v 40 30 3
v -40 -30 -3
v -40 30 -3
v 40 -30 -3
v 40 30 -3
v -27 -20 -3
v -27.0037 -19.8505 -3
v -27.0149 -19.7013 -3
v -27.0335 -19.5529 -3
v -27.0595 -19.4056 -3
v -27.0928 -19.2597 -3
v -27.1333 -19.1157 -3
v -27.1809 -18.9739 -3
v -27.2356 -18.8347 -3
v -27.2971 -18.6983 -3
v -27.3653 -18.5652 -3
v -27.4401 -18.4357 -3
v -27.5213 -18.31 -3
v -27.6086 -18.1886 -3
v -27.7019 -18.0716 -3
v -27.8008 -17.9595 -3
v -27.9053 -17.8524 -3
v -28.0149 -17.7507 -3
v -28.1295 -17.6545 -3
v -28.2488 -17.5642 -3
v -28.3724 -17.4799 -3
v -28.5 -17.4019 -3
v -28.6314 -17.3304 -3
v -28.7661 -17.2655 -3
v -28.904 -17.2074 -3
v -29.0445 -17.1562 -3
v -29.1875 -17.1121 -3
v -29.3324 -17.0752 -3
v -29.4791 -17.0456 -3
v -29.627 -17.0233 -3
v -29.7758 -17.0084 -3
v -29.9252 -17.0009 -3
v -30.0748 -17.0009 -3
v -30.2242 -17.0084 -3
v -30.373 -17.0233 -3
v -30.5209 -17.0456 -3
v -30.6676 -17.0752 -3
v -30.8125 -17.1121 -3
v -30.9555 -17.1562 -3
v -31.096 -17.2074 -3
v -31.2339 -17.2655 -3
v -31.3686 -17.3304 -3
v -31.5 -17.4019 -3
v -31.6276 -17.4799 -3
v -31.7512 -17.5642 -3
v -31.8705 -17.6545 -3
v -31.9851 -17.7507 -3
v -32.0947 -17.8524 -3
v -32.1992 -17.9595 -3
v -32.2981 -18.0716 -3
v -32.3914 -18.1886 -3
v -32.4787 -18.31 -3
v -32.5599 -18.4357 -3
v -32.6347 -18.5652 -3
v -32.7029 -18.6983 -3
v -32.7644 -18.8347 -3
v -32.8191 -18.9739 -3
v -32.8667 -19.1157 -3
v -32.9072 -19.2597 -3
v -32.9405 -19.4056 -3
v -32.9665 -19.5529 -3
v -32.9851 -19.7013 -3
v -32.9963 -19.8505 -3
v -33 -20 -3
v -32.9963 -20.1495 -3
v -32.9851 -20.2987 -3
v -32.9665 -20.4471 -3
v -32.9405 -20.5944 -3
v -32.9072 -20.7403 -3
v -32.8667 -20.8843 -3
v -32.8191 -21.0261 -3
v -32.7644 -21.1653 -3
v -32.7029 -21.3017 -3
v -32.6347 -21.4348 -3
v -32.5599 -21.5643 -3
v -32.4787 -21.69 -3
v -32.3914 -21.8114 -3
v -32.2981 -21.9284 -3
v -32.1992 -22.0405 -3
v -32.0947 -22.1476 -3
v -31.9851 -22.2493 -3
v -31.8705 -22.3455 -3
v -31.7512 -22.4358 -3
v -31.6276 -22.5201 -3
v -31.5 -22.5981 -3
v -31.3686 -22.6696 -3
v -31.2339 -22.7345 -3
v -31.096 -22.7926 -3
v -30.9555 -22.8438 -3
v -30.8125 -22.8879 -3
v -30.6676 -22.9248 -3
v -30.5209 -22.9544 -3
v -30.373 -22.9767 -3
v -30.2242 -22.9916 -3
v -30.0748 -22.9991 -3
v -29.9252 -22.9991 -3
v -29.7758 -22.9916 -3
v -29.627 -22.9767 -3
v -29.4791 -22.9544 -3
v -29.3324 -22.9248 -3
v -29.1875 -22.8879 -3
v -29.0445 -22.8438 -3
v -28.904 -22.7926 -3
v -28.7661 -22.7345 -3
v -28.6314 -22.6696 -3
v -28.5 -22.5981 -3
v -28.3724 -22.5201 -3
v -28.2488 -22.4358 -3
v -28.1295 -22.3455 -3
v -28.0149 -22.2493 -3
v -27.9053 -22.1476 -3
v -27.8008 -22.0405 -3
v -27.7019 -21.9284 -3
v -27.6086 -21.8114 -3
v -27.5213 -21.69 -3
v -27.4401 -21.5643 -3
v -27.3653 -21.4348 -3
v -27.2971 -21.3017 -3
v -27.2356 -21.1653 -3
v -27.1809 -21.0261 -3
v -27.1333 -20.8843 -3
v -27.0928 -20.7403 -3
v -27.0595 -20.5944 -3
v -27.0335 -20.4471 -3
v -27.0149 -20.2987 -3
v -27.0037 -20.1495 -3
v 33 -20 -3
v 32.9963 -19.8505 -3
v 32.9851 -19.7013 -3
v 32.9665 -19.5529 -3
v 32.9405 -19.4056 -3
v 32.9072 -19.2597 -3
v 32.8667 -19.1157 -3
v 32.8191 -18.9739 -3
v 32.7644 -18.8347 -3
v 32.7029 -18.6983 -3
v 32.6347 -18.5652 -3
v 32.5599 -18.4357 -3
v 32.4787 -18.31 -3
v 32.3914 -18.1886 -3
v 32.2981 -18.0716 -3
v 32.1992 -17.9595 -3
v 32.0947 -17.8524 -3
v 31.9851 -17.7507 -3
v 31.8705 -17.6545 -3
v 31.7512 -17.5642 -3
v 31.6276 -17.4799 -3
v 31.5 -17.4019 -3
v 31.3686 -17.3304 -3
v 31.2339 -17.2655 -3
v 31.096 -17.2074 -3
v 30.9555 -17.1562 -3
v 30.8125 -17.1121 -3
v 30.6676 -17.0752 -3
v 30.5209 -17.0456 -3
v 30.373 -17.0233 -3
v 30.2242 -17.0084 -3
v 30.0748 -17.0009 -3
v 29.9252 -17.0009 -3
v 29.7758 -17.0084 -3
v 29.627 -17.0233 -3
v 29.4791 -17.0456 -3
v 29.3324 -17.0752 -3
v 29.1875 -17.1121 -3
v 29.0445 -17.1562 -3
v 28.904 -17.2074 -3
v 28.7661 -17.2655 -3
v 28.6314 -17.3304 -3
v 28.5 -17.4019 -3
v 28.3724 -17.4799 -3
v 28.2488 -17.5642 -3
v 28.1295 -17.6545 -3
v 28.0149 -17.7507 -3
v 27.9053 -17.8524 -3
v 27.8008 -17.9595 -3
v 27.7019 -18.0716 -3
v 27.6086 -18.1886 -3
v 27.5213 -18.31 -3
v 27.4401 -18.4357 -3
v 27.3653 -18.5652 -3
v 27.2971 -18.6983 -3
v 27.2356 -18.8347 -3
v 27.1809 -18.9739 -3
v 27.1333 -19.1157 -3
v 27.0928 -19.2597 -3
v 27.0595 -19.4056 -3
v 27.0335 -19.5529 -3
v 27.0149 -19.7013 -3
v 27.0037 -19.8505 -3
v 27 -20 -3
v 27.0037 -20.1495 -3
v 27.0149 -20.2987 -3
v 27.0335 -20.4471 -3
v 27.0595 -20.5944 -3
v 27.0928 -20.7403 -3
v 27.1333 -20.8843 -3
v 27.1809 -21.0261 -3
v 27.2356 -21.1653 -3
v 27.2971 -21.3017 -3
v 27.3653 -21.4348 -3
v 27.4401 -21.5643 -3
v 27.5213 -21.69 -3
v 27.6086 -21.8114 -3
v 27.7019 -21.9284 -3
v 27.8008 -22.0405 -3
v 27.9053 -22.1476 -3
v 28.0149 -22.2493 -3
v 28.1295 -22.3455 -3
v 28.2488 -22.4358 -3
v 28.3724 -22.5201 -3
v 28.5 -22.5981 -3
v 28.6314 -22.6696 -3
v 28.7661 -22.7345 -3
v 28.904 -22.7926 -3
v 29.0445 -22.8438 -3
v 29.1875 -22.8879 -3
v 29.3324 -22.9248 -3
v 29.4791 -22.9544 -3
v 29.627 -22.9767 -3
v 29.7758 -22.9916 -3
v 29.9252 -22.9991 -3
v 30.0748 -22.9991 -3
v 30.2242 -22.9916 -3
v 30.373 -22.9767 -3
v 30.5209 -22.9544 -3
v 30.6676 -22.9248 -3
v 30.8125 -22.8879 -3
v 30.9555 -22.8438 -3
v 31.096 -22.7926 -3
v 31.2339 -22.7345 -3
v 31.3686 -22.6696 -3
v 31.5 -22.5981 -3
v 31.6276 -22.5201 -3
v 31.7512 -22.4358 -3
v 31.8705 -22.3455 -3
v 31.9851 -22.2493 -3
v 32.0947 -22.1476 -3
v 32.1992 -22.0405 -3
v 32.2981 -21.9284 -3
v 32.3914 -21.8114 -3
v 32.4787 -21.69 -3
v 32.5599 -21.5643 -3
v 32.6347 -21.4348 -3
v 32.7029 -21.3017 -3
v 32.7644 -21.1653 -3
v 32.8191 -21.0261 -3
v 32.8667 -20.8843 -3
v 32.9072 -20.7403 -3
v 32.9405 -20.5944 -3
v 32.9665 -20.4471 -3
v 32.9851 -20.2987 -3
v 32.9963 -20.1495 -3
v -27 20 -3
v -27.0037 20.1495 -3
v -27.0149 20.2987 -3
v -27.0335 20.4471 -3
v -27.0595 20.5944 -3
v -27.0928 20.7403 -3
v -27.1333 20.8843 -3
v -27.1809 21.0261 -3
v -27.2356 21.1653 -3
v -27.2971 21.3017 -3
v -27.3653 21.4348 -3
v -27.4401 21.5643 -3
v -27.5213 21.69 -3
v -27.6086 21.8114 -3
v -27.7019 21.9284 -3
v -27.8008 22.0405 -3
v -27.9053 22.1476 -3
v -28.0149 22.2493 -3
v -28.1295 22.3455 -3
v -28.2488 22.4358 -3
v -28.3724 22.5201 -3
v -28.5 22.5981 -3
v -28.6314 22.6696 -3
v -28.7661 22.7345 -3
v -28.904 22.7926 -3
v -29.0445 22.8438 -3
v -29.1875 22.8879 -3
v -29.3324 22.9248 -3
v -29.4791 22.9544 -3
v -29.627 22.9767 -3
v -29.7758 22.9916 -3
v -29.9252 22.9991 -3
v -30.0748 22.9991 -3
v -30.2242 22.9916 -3
v -30.373 22.9767 -3
v -30.5209 22.9544 -3
v -30.6676 22.9248 -3
v -30.8125 22.8879 -3
v -30.9555 22.8438 -3
v -31.096 22.7926 -3
v -31.2339 22.7345 -3
v -31.3686 22.6696 -3
v -31.5 22.5981 -3
v -31.6276 22.5201 -3
v -31.7512 22.4358 -3
v -31.8705 22.3455 -3
v -31.9851 22.2493 -3
v -32.0947 22.1476 -3
v -32.1992 22.0405 -3
v -32.2981 21.9284 -3
v -32.3914 21.8114 -3
v -32.4787 21.69 -3
v -32.5599 21.5643 -3
v -32.6347 21.4348 -3
v -32.7029 21.3017 -3
v -32.7644 21.1653 -3
v -32.8191 21.0261 -3
v -32.8667 20.8843 -3
v -32.9072 20.7403 -3
v -32.9405 20.5944 -3
v -32.9665 20.4471 -3
v -32.9851 20.2987 -3
v -32.9963 20.1495 -3
v -33 20 -3
v -32.9963 19.8505 -3
v -32.9851 19.7013 -3
v -32.9665 19.5529 -3
v -32.9405 19.4056 -3
v -32.9072 19.2597 -3
v -32.8667 19.1157 -3
v -32.8191 18.9739 -3
v -32.7644 18.8347 -3
v -32.7029 18.6983 -3
v -32.6347 18.5652 -3
v -32.5599 18.4357 -3
v -32.4787 18.31 -3
v -32.3914 18.1886 -3
v -32.2981 18.0716 -3
v -32.1992 17.9595 -3
v -32.0947 17.8524 -3
v -31.9851 17.7507 -3
v -31.8705 17.6545 -3
v -31.7512 17.5642 -3
v -31.6276 17.4799 -3
v -31.5 17.4019 -3
v -31.3686 17.3304 -3
v -31.2339 17.2655 -3
v -31.096 17.2074 -3
v -30.9555 17.1562 -3
v -30.8125 17.1121 -3
v -30.6676 17.0752 -3
v -30.5209 17.0456 -3
v -30.373 17.0233 -3
v -30.2242 17.0084 -3
v -30.0748 17.0009 -3
v -29.9252 17.0009 -3
v -29.7758 17.0084 -3
v -29.627 17.0233 -3
v -29.4791 17.0456 -3
v -29.3324 17.0752 -3
v -29.1875 17.1121 -3
v -29.0445 17.1562 -3
v -28.904 17.2074 -3
v -28.7661 17.2655 -3
v -28.6314 17.3304 -3
v -28.5 17.4019 -3
v -28.3724 17.4799 -3
v -28.2488 17.5642 -3
v -28.1295 17.6545 -3
v -28.0149 17.7507 -3
v -27.9053 17.8524 -3
v -27.8008 17.9595 -3
v -27.7019 18.0716 -3
v -27.6086 18.1886 -3
v -27.5213 18.31 -3
v -27.4401 18.4357 -3
v -27.3653 18.5652 -3
v -27.2971 18.6983 -3
v -27.2356 18.8347 -3
v -27.1809 18.9739 -3
v -27.1333 19.1157 -3
v -27.0928 19.2597 -3
v -27.0595 19.4056 -3
v -27.0335 19.5529 -3
v -27.0149 19.7013 -3
v -27.0037 19.8505 -3
v 33 20 -3
v 32.9963 20.1495 -3
v 32.9851 20.2987 -3
v 32.9665 20.4471 -3
v 32.9405 20.5944 -3
v 32.9072 20.7403 -3
v 32.8667 20.8843 -3
v 32.8191 21.0261 -3
v 32.7644 21.1653 -3
v 32.7029 21.3017 -3
v 32.6347 21.4348 -3
v 32.5599 21.5643 -3
v 32.4787 21.69 -3
v 32.3914 21.8114 -3
v 32.2981 21.9284 -3
v 32.1992 22.0405 -3
v 32.0947 22.1476 -3
v 31.9851 22.2493 -3
v 31.8705 22.3455 -3
v 31.7512 22.4358 -3
v 31.6276 22.5201 -3
v 31.5 22.5981 -3
v 31.3686 22.6696 -3
v 31.2339 22.7345 -3
v 31.096 22.7926 -3
v 30.9555 22.8438 -3
v 30.8125 22.8879 -3
v 30.6676 22.9248 -3
v 30.5209 22.9544 -3
v 30.373 22.9767 -3
v 30.2242 22.9916 -3
v 30.0748 22.9991 -3
v 29.9252 22.9991 -3
v 29.7758 22.9916 -3
v 29.627 22.9767 -3
v 29.4791 22.9544 -3
v 29.3324 22.9248 -3
v 29.1875 22.8879 -3
v 29.0445 22.8438 -3
v 28.904 22.7926 -3
v 28.7661 22.7345 -3
v 28.6314 22.6696 -3
v 28.5 22.5981 -3
v 28.3724 22.5201 -3
v 28.2488 22.4358 -3
v 28.1295 22.3455 -3
v 28.0149 22.2493 -3
v 27.9053 22.1476 -3
v 27.8008 22.0405 -3
v 27.7019 21.9284 -3
v 27.6086 21.8114 -3
v 27.5213 21.69 -3
v 27.4401 21.5643 -3
v 27.3653 21.4348 -3
v 27.2971 21.3017 -3
v 27.2356 21.1653 -3
v 27.1809 21.0261 -3
v 27.1333 20.8843 -3
v 27.0928 20.7403 -3
v 27.0595 20.5944 -3
v 27.0335 20.4471 -3
v 27.0149 20.2987 -3
v 27.0037 20.1495 -3
v 27 20 -3
v 27.0037 19.8505 -3
v 27.0149 19.7013 -3
v 27.0335 19.5529 -3
v 27.0595 19.4056 -3
v 27.0928 19.2597 -3
v 27.1333 19.1157 -3
v 27.1809 18.9739 -3
v 27.2356 18.8347 -3
v 27.2971 18.6983 -3
v 27.3653 18.5652 -3
v 27.4401 18.4357 -3
v 27.5213 18.31 -3
v 27.6086 18.1886 -3
v 27.7019 18.0716 -3
v 27.8008 17.9595 -3
v 27.9053 17.8524 -3
v 28.0149 17.7507 -3
v 28.1295 17.6545 -3
v 28.2488 17.5642 -3
v 28.3724 17.4799 -3
v 28.5 17.4019 -3
v 28.6314 17.3304 -3
v 28.7661 17.2655 -3
v 28.904 17.2074 -3
v 29.0445 17.1562 -3
v 29.1875 17.1121 -3
v 29.3324 17.0752 -3
v 29.4791 17.0456 -3
v 29.627 17.0233 -3
v 29.7758 17.0084 -3
v 29.9252 17.0009 -3
v 30.0748 17.0009 -3
v 30.2242 17.0084 -3
v 30.373 17.0233 -3
v 30.5209 17.0456 -3
v 30.6676 17.0752 -3
v 30.8125 17.1121 -3
v 30.9555 17.1562 -3
v 31.096 17.2074 -3
v 31.2339 17.2655 -3
v 31.3686 17.3304 -3
v 31.5 17.4019 -3
v 31.6276 17.4799 -3
v 31.7512 17.5642 -3
v 31.8705 17.6545 -3
v 31.9851 17.7507 -3
v 32.0947 17.8524 -3
v 32.1992 17.9595 -3
v 32.2981 18.0716 -3
v 32.3914 18.1886 -3
v 32.4787 18.31 -3
v 32.5599 18.4357 -3
v 32.6347 18.5652 -3
v 32.7029 18.6983 -3
v 32.7644 18.8347 -3
v 32.8191 18.9739 -3
v 32.8667 19.1157 -3
v 32.9072 19.2597 -3
v 32.9405 19.4056 -3
v 32.9665 19.5529 -3
v 32.9851 19.7013 -3
v 32.9963 19.8505 -3
v 40 -30 -3
v 40 -30 3
v 40 30 -3
v 40 30 3
v -27 -20 3
v -27.0037 -19.8505 3
v -27.0149 -19.7013 3
v -27.0335 -19.5529 3
v -27.0595 -19.4056 3
v -27.0928 -19.2597 3
v -27.1333 -19.1157 3
v -27.1809 -18.9739 3
v -27.2356 -18.8347 3
v -27.2971 -18.6983 3
v -27.3653 -18.5652 3
v -27.4401 -18.4357 3
v -27.5213 -18.31 3
v -27.6086 -18.1886 3
v -27.7019 -18.0716 3
v -27.8008 -17.9595 3
v -27.9053 -17.8524 3
v -28.0149 -17.7507 3
v -28.1295 -17.6545 3
v -28.2488 -17.5642 3
v -28.3724 -17.4799 3
v -28.5 -17.4019 3
v -28.6314 -17.3304 3
v -28.7661 -17.2655 3
v -28.904 -17.2074 3
v -29.0445 -17.1562 3
v -29.1875 -17.1121 3
v -29.3324 -17.0752 3
v -29.4791 -17.0456 3
v -29.627 -17.0233 3
v -29.7758 -17.0084 3
v -29.9252 -17.0009 3
v -30.0748 -17.0009 3
v -30.2242 -17.0084 3
v -30.373 -17.0233 3
v -30.5209 -17.0456 3
v -30.6676 -17.0752 3
v -30.8125 -17.1121 3
v -30.9555 -17.1562 3
v -31.096 -17.2074 3
v -31.2339 -17.2655 3
v -31.3686 -17.3304 3
v -31.5 -17.4019 3
v -31.6276 -17.4799 3
v -31.7512 -17.5642 3
v -31.8705 -17.6545 3
v -31.9851 -17.7507 3
v -32.0947 -17.8524 3
v -32.1992 -17.9595 3
v -32.2981 -18.0716 3
v -32.3914 -18.1886 3
v -32.4787 -18.31 3
v -32.5599 -18.4357 3
v -32.6347 -18.5652 3
v -32.7029 -18.6983 3
v -32.7644 -18.8347 3
v -32.8191 -18.9739 3
v -32.8667 -19.1157 3
v -32.9072 -19.2597 3
v -32.9405 -19.4056 3
v -32.9665 -19.5529 3
v -32.9851 -19.7013 3
v -32.9963 -19.8505 3
v -33 -20 3
v -32.9963 -20.1495 3
v -32.9851 -20.2987 3
v -32.9665 -20.4471 3
v -32.9405 -20.5944 3
v -32.9072 -20.7403 3
v -32.8667 -20.8843 3
v -32.8191 -21.0261 3
v -32.7644 -21.1653 3
v -32.7029 -21.3017 3
v -32.6347 -21.4348 3
v -32.5599 -21.5643 3
v -32.4787 -21.69 3
v -32.3914 -21.8114 3
v -32.2981 -21.9284 3
v -32.1992 -22.0405 3
v -32.0947 -22.1476 3
v -31.9851 -22.2493 3
v -31.8705 -22.3455 3
v -31.7512 -22.4358 3
v -31.6276 -22.5201 3
v -31.5 -22.5981 3
v -31.3686 -22.6696 3
v -31.2339 -22.7345 3
v -31.096 -22.7926 3
v -30.9555 -22.8438 3
v -30.8125 -22.8879 3
v -30.6676 -22.9248 3
v -30.5209 -22.9544 3
v -30.373 -22.9767 3
v -30.2242 -22.9916 3
v -30.0748 -22.9991 3
v -29.9252 -22.9991 3
v -29.7758 -22.9916 3
v -29.627 -22.9767 3
v -29.4791 -22.9544 3
v -29.3324 -22.9248 3
v -29.1875 -22.8879 3
v -29.0445 -22.8438 3
v -28.904 -22.7926 3
v -28.7661 -22.7345 3
v -28.6314 -22.6696 3
v -28.5 -22.5981 3
v -28.3724 -22.5201 3
v -28.2488 -22.4358 3
v -28.1295 -22.3455 3
v -28.0149 -22.2493 3
v -27.9053 -22.1476 3
v -27.8008 -22.0405 3
v -27.7019 -21.9284 3
v -27.6086 -21.8114 3
v -27.5213 -21.69 3
v -27.4401 -21.5643 3
v -27.3653 -21.4348 3
v -27.2971 -21.3017 3
v -27.2356 -21.1653 3
v -27.1809 -21.0261 3
v -27.1333 -20.8843 3
v -27.0928 -20.7403 3
v -27.0595 -20.5944 3
v -27.0335 -20.4471 3
v -27.0149 -20.2987 3
v -27.0037 -20.1495 3
v -27 -20 3
v -27 -20 -3
v -27.0037 -19.8505 -3
v -27.0149 -19.7013 -3
v -27.0335 -19.5529 -3
v -27.0595 -19.4056 -3
v -27.0928 -19.2597 -3
v -27.1333 -19.1157 -3
v -27.1809 -18.9739 -3
v -27.2356 -18.8347 -3
v -27.2971 -18.6983 -3
v -27.3653 -18.5652 -3
v -27.4401 -18.4357 -3
v -27.5213 -18.31 -3
v -27.6086 -18.1886 -3
v -27.7019 -18.0716 -3
v -27.8008 -17.9595 -3
v -27.9053 -17.8524 -3
v -28.0149 -17.7507 -3
v -28.1295 -17.6545 -3
v -28.2488 -17.5642 -3
v -28.3724 -17.4799 -3
v -28.5 -17.4019 -3
v -28.6314 -17.3304 -3
v -28.7661 -17.2655 -3
v -28.904 -17.2074 -3
v -29.0445 -17.1562 -3
v -29.1875 -17.1121 -3
v -29.3324 -17.0752 -3
v -29.4791 -17.0456 -3
v -29.627 -17.0233 -3
v -29.7758 -17.0084 -3
v -29.9252 -17.0009 -3
v -30.0748 -17.0009 -3
v -30.2242 -17.0084 -3
v -30.373 -17.0233 -3
v -30.5209 -17.0456 -3
v -30.6676 -17.0752 -3
v -30.8125 -17.1121 -3
v -30.9555 -17.1562 -3
v -31.096 -17.2074 -3
v -31.2339 -17.2655 -3
v -31.3686 -17.3304 -3
v -31.5 -17.4019 -3
v -31.6276 -17.4799 -3
v -31.7512 -17.5642 -3
v -31.8705 -17.6545 -3
v -31.9851 -17.7507 -3
v -32.0947 -17.8524 -3
v -32.1992 -17.9595 -3
v -32.2981 -18.0716 -3
v -32.3914 -18.1886 -3
v -32.4787 -18.31 -3
v -32.5599 -18.4357 -3
v -32.6347 -18.5652 -3
v -32.7029 -18.6983 -3
v -32.7644 -18.8347 -3
v -32.8191 -18.9739 -3
v -32.8667 -19.1157 -3
v -32.9072 -19.2597 -3
v -32.9405 -19.4056 -3
v -32.9665 -19.5529 -3
v -32.9851 -19.7013 -3
v -32.9963 -19.8505 -3
v -33 -20 -3
v -32.9963 -20.1495 -3
v -32.9851 -20.2987 -3
v -32.9665 -20.4471 -3
v -32.9405 -20.5944 -3
v -32.9072 -20.7403 -3
v -32.8667 -20.8843 -3
v -32.8191 -21.0261 -3
v -32.7644 -21.1653 -3
v -32.7029 -21.3017 -3
v -32.6347 -21.4348 -3
v -32.5599 -21.5643 -3
v -32.4787 -21.69 -3
v -32.3914 -21.8114 -3
v -32.2981 -21.9284 -3
v -32.1992 -22.0405 -3
v -32.0947 -22.1476 -3
v -31.9851 -22.2493 -3
v -31.8705 -22.3455 -3
v -31.7512 -22.4358 -3
v -31.6276 -22.5201 -3
v -31.5 -22.5981 -3
v -31.3686 -22.6696 -3
v -31.2339 -22.7345 -3
v -31.096 -22.7926 -3
v -30.9555 -22.8438 -3
v -30.8125 -22.8879 -3
v -30.6676 -22.9248 -3
v -30.5209 -22.9544 -3
v -30.373 -22.9767 -3
v -30.2242 -22.9916 -3
v -30.0748 -22.9991 -3
v -29.9252 -22.9991 -3
v -29.7758 -22.9916 -3
v -29.627 -22.9767 -3
v -29.4791 -22.9544 -3
v -29.3324 -22.9248 -3
v -29.1875 -22.8879 -3
v -29.0445 -22.8438 -3
v -28.904 -22.7926 -3
v -28.7661 -22.7345 -3
v -28.6314 -22.6696 -3
v -28.5 -22.5981 -3
v -28.3724 -22.5201 -3
v -28.2488 -22.4358 -3
v -28.1295 -22.3455 -3
v -28.0149 -22.2493 -3
v -27.9053 -22.1476 -3
v -27.8008 -22.0405 -3
v -27.7019 -21.9284 -3
v -27.6086 -21.8114 -3
v -27.5213 -21.69 -3
v -27.4401 -21.5643 -3
v -27.3653 -21.4348 -3
v -27.2971 -21.3017 -3
v -27.2356 -21.1653 -3
v -27.1809 -21.0261 -3
v -27.1333 -20.8843 -3
v -27.0928 -20.7403 -3
v -27.0595 -20.5944 -3
v -27.0335 -20.4471 -3
v -27.0149 -20.2987 -3
v -27.0037 -20.1495 -3
v -27 -20 -3
v 33 -20 3
v 32.9963 -19.8505 3
v 32.9851 -19.7013 3
v 32.9665 -19.5529 3
v 32.9405 -19.4056 3
v 32.9072 -19.2597 3
v 32.8667 -19.1157 3
v 32.8191 -18.9739 3
v 32.7644 -18.8347 3
v 32.7029 -18.6983 3
v 32.6347 -18.5652 3
v 32.5599 -18.4357 3
v 32.4787 -18.31 3
v 32.3914 -18.1886 3
v 32.2981 -18.0716 3
v 32.1992 -17.9595 3
v 32.0947 -17.8524 3
v 31.9851 -17.7507 3
v 31.8705 -17.6545 3
v 31.7512 -17.5642 3
v 31.6276 -17.4799 3
v 31.5 -17.4019 3
v 31.3686 -17.3304 3
v 31.2339 -17.2655 3
v 31.096 -17.2074 3
v 30.9555 -17.1562 3
v 30.8125 -17.1121 3
v 30.6676 -17.0752 3
v 30.5209 -17.0456 3
v 30.373 -17.0233 3
v 30.2242 -17.0084 3
v 30.0748 -17.0009 3
v 29.9252 -17.0009 3
v 29.7758 -17.0084 3
v 29.627 -17.0233 3
v 29.4791 -17.0456 3
v 29.3324 -17.0752 3
v 29.1875 -17.1121 3
v 29.0445 -17.1562 3
v 28.904 -17.2074 3
v 28.7661 -17.2655 3
v 28.6314 -17.3304 3
v 28.5 -17.4019 3
v 28.3724 -17.4799 3
v 28.2488 -17.5642 3
v 28.1295 -17.6545 3
v 28.0149 -17.7507 3
v 27.9053 -17.8524 3
v 27.8008 -17.9595 3
v 27.7019 -18.0716 3
v 27.6086 -18.1886 3
v 27.5213 -18.31 3
v 27.4401 -18.4357 3
v 27.3653 -18.5652 3
v 27.2971 -18.6983 3
v 27.2356 -18.8347 3
v 27.1809 -18.9739 3
v 27.1333 -19.1157 3
v 27.0928 -19.2597 3
v 27.0595 -19.4056 3
v 27.0335 -19.5529 3
v 27.0149 -19.7013 3
v 27.0037 -19.8505 3
v 27 -20 3
v 27.0037 -20.1495 3
v 27.0149 -20.2987 3
v 27.0335 -20.4471 3
v 27.0595 -20.5944 3
v 27.0928 -20.7403 3
v 27.1333 -20.8843 3
v 27.1809 -21.0261 3
v 27.2356 -21.1653 3
v 27.2971 -21.3017 3
v 27.3653 -21.4348 3
v 27.4401 -21.5643 3
v 27.5213 -21.69 3
v 27.6086 -21.8114 3
v 27.7019 -21.9284 3
v 27.8008 -22.0405 3
v 27.9053 -22.1476 3
v 28.0149 -22.2493 3
v 28.1295 -22.3455 3
v 28.2488 -22.4358 3
v 28.3724 -22.5201 3
v 28.5 -22.5981 3
v 28.6314 -22.6696 3
v 28.7661 -22.7345 3
v 28.904 -22.7926 3
v 29.0445 -22.8438 3
v 29.1875 -22.8879 3
v 29.3324 -22.9248 3
v 29.4791 -22.9544 3
v 29.627 -22.9767 3
v 29.7758 -22.9916 3
v 29.9252 -22.9991 3
v 30.0748 -22.9991 3
v 30.2242 -22.9916 3
v 30.373 -22.9767 3
v 30.5209 -22.9544 3
v 30.6676 -22.9248 3
v 30.8125 -22.8879 3
v 30.9555 -22.8438 3
v 31.096 -22.7926 3
v 31.2339 -22.7345 3
v 31.3686 -22.6696 3
v 31.5 -22.5981 3
v 31.6276 -22.5201 3
v 31.7512 -22.4358 3
v 31.8705 -22.3455 3
v 31.9851 -22.2493 3
v 32.0947 -22.1476 3
v 32.1992 -22.0405 3
v 32.2981 -21.9284 3
v 32.3914 -21.8114 3
v 32.4787 -21.69 3
v 32.5599 -21.5643 3
v 32.6347 -21.4348 3
v 32.7029 -21.3017 3
v 32.7644 -21.1653 3
v 32.8191 -21.0261 3
v 32.8667 -20.8843 3
v 32.9072 -20.7403 3
v 32.9405 -20.5944 3
v 32.9665 -20.4471 3
v 32.9851 -20.2987 3
v 32.9963 -20.1495 3
v 33 -20 3
v 33 -20 -3
v 32.9963 -19.8505 -3
v 32.9851 -19.7013 -3
v 32.9665 -19.5529 -3
v 32.9405 -19.4056 -3
v 32.9072 -19.2597 -3
v 32.8667 -19.1157 -3
v 32.8191 -18.9739 -3
v 32.7644 -18.8347 -3
v 32.7029 -18.6983 -3
v 32.6347 -18.5652 -3
v 32.5599 -18.4357 -3
v 32.4787 -18.31 -3
v 32.3914 -18.1886 -3
v 32.2981 -18.0716 -3
v 32.1992 -17.9595 -3
v 32.0947 -17.8524 -3
v 31.9851 -17.7507 -3
v 31.8705 -17.6545 -3
v 31.7512 -17.5642 -3
v 31.6276 -17.4799 -3
v 31.5 -17.4019 -3
v 31.3686 -17.3304 -3
v 31.2339 -17.2655 -3
v 31.096 -17.2074 -3
v 30.9555 -17.1562 -3
v 30.8125 -17.1121 -3
v 30.6676 -17.0752 -3
v 30.5209 -17.0456 -3
v 30.373 -17.0233 -3
v 30.2242 -17.0084 -3
v 30.0748 -17.0009 -3
v 29.9252 -17.0009 -3
v 29.7758 -17.0084 -3
v 29.627 -17.0233 -3
v 29.4791 -17.0456 -3
v 29.3324 -17.0752 -3
v 29.1875 -17.1121 -3
v 29.0445 -17.1562 -3
v 28.904 -17.2074 -3
v 28.7661 -17.2655 -3
v 28.6314 -17.3304 -3
v 28.5 -17.4019 -3
v 28.3724 -17.4799 -3
v 28.2488 -17.5642 -3
v 28.1295 -17.6545 -3
v 28.0149 -17.7507 -3
v 27.9053 -17.8524 -3
v 27.8008 -17.9595 -3
v 27.7019 -18.0716 -3
v 27.6086 -18.1886 -3
v 27.5213 -18.31 -3
v 27.4401 -18.4357 -3
v 27.3653 -18.5652 -3
v 27.2971 -18.6983 -3
v 27.2356 -18.8347 -3
v 27.1809 -18.9739 -3
v 27.1333 -19.1157 -3
v 27.0928 -19.2597 -3
v 27.0595 -19.4056 -3
v 27.0335 -19.5529 -3
v 27.0149 -19.7013 -3
v 27.0037 -19.8505 -3
v 27 -20 -3
v 27.0037 -20.1495 -3
v 27.0149 -20.2987 -3
v 27.0335 -20.4471 -3
v 27.0595 -20.5944 -3
v 27.0928 -20.7403 -3
v 27.1333 -20.8843 -3
v 27.1809 -21.0261 -3
v 27.2356 -21.1653 -3
v 27.2971 -21.3017 -3
v 27.3653 -21.4348 -3
v 27.4401 -21.5643 -3
v 27.5213 -21.69 -3
v 27.6086 -21.8114 -3
v 27.7019 -21.9284 -3
v 27.8008 -22.0405 -3
v 27.9053 -22.1476 -3
v 28.0149 -22.2493 -3
v 28.1295 -22.3455 -3
v 28.2488 -22.4358 -3
v 28.3724 -22.5201 -3
v 28.5 -22.5981 -3
v 28.6314 -22.6696 -3
v 28.7661 -22.7345 -3
v 28.904 -22.7926 -3
v 29.0445 -22.8438 -3
v 29.1875 -22.8879 -3
v 29.3324 -22.9248 -3
v 29.4791 -22.9544 -3
v 29.627 -22.9767 -3
v 29.7758 -22.9916 -3
v 29.9252 -22.9991 -3
v 30.0748 -22.9991 -3
v 30.2242 -22.9916 -3
v 30.373 -22.9767 -3
v 30.5209 -22.9544 -3
v 30.6676 -22.9248 -3
v 30.8125 -22.8879 -3
v 30.9555 -22.8438 -3
v 31.096 -22.7926 -3
v 31.2339 -22.7345 -3
v 31.3686 -22.6696 -3
v 31.5 -22.5981 -3
v 31.6276 -22.5201 -3
v 31.7512 -22.4358 -3
v 31.8705 -22.3455 -3
v 31.9851 -22.2493 -3
v 32.0947 -22.1476 -3
v 32.1992 -22.0405 -3
v 32.2981 -21.9284 -3
v 32.3914 -21.8114 -3
v 32.4787 -21.69 -3
v 32.5599 -21.5643 -3
v 32.6347 -21.4348 -3
v 32.7029 -21.3017 -3
v 32.7644 -21.1653 -3
v 32.8191 -21.0261 -3
v 32.8667 -20.8843 -3
v 32.9072 -20.7403 -3
v 32.9405 -20.5944 -3
v 32.9665 -20.4471 -3
v 32.9851 -20.2987 -3
v 32.9963 -20.1495 -3
v 33 -20 -3
v -27 20 3
v -27.0037 20.1495 3
v -27.0149 20.2987 3
v -27.0335 20.4471 3
v -27.0595 20.5944 3
v -27.0928 20.7403 3
v -27.1333 20.8843 3
v -27.1809 21.0261 3
v -27.2356 21.1653 3
v -27.2971 21.3017 3
v -27.3653 21.4348 3
v -27.4401 21.5643 3
v -27.5213 21.69 3
v -27.6086 21.8114 3
v -27.7019 21.9284 3
v -27.8008 22.0405 3
v -27.9053 22.1476 3
v -28.0149 22.2493 3
v -28.1295 22.3455 3
v -28.2488 22.4358 3
v -28.3724 22.5201 3
v -28.5 22.5981 3
v -28.6314 22.6696 3
v -28.7661 22.7345 3
v -28.904 22.7926 3
v -29.0445 22.8438 3
v -29.1875 22.8879 3
v -29.3324 22.9248 3
v -29.4791 22.9544 3
v -29.627 22.9767 3
v -29.7758 22.9916 3
v -29.9252 22.9991 3
v -30.0748 22.9991 3
v -30.2242 22.9916 3
v -30.373 22.9767 3
v -30.5209 22.9544 3
v -30.6676 22.9248 3
v -30.8125 22.8879 3
v -30.9555 22.8438 3
v -31.096 22.7926 3
v -31.2339 22.7345 3
v -31.3686 22.6696 3
v -31.5 22.5981 3
v -31.6276 22.5201 3
v -31.7512 22.4358 3
v -31.8705 22.3455 3
v -31.9851 22.2493 3
v -32.0947 22.1476 3
v -32.1992 22.0405 3
v -32.2981 21.9284 3
v -32.3914 21.8114 3
v -32.4787 21.69 3
v -32.5599 21.5643 3
v -32.6347 21.4348 3
v -32.7029 21.3017 3
v -32.7644 21.1653 3
v -32.8191 21.0261 3
v -32.8667 20.8843 3
v -32.9072 20.7403 3
v -32.9405 20.5944 3
v -32.9665 20.4471 3
v -32.9851 20.2987 3
v -32.9963 20.1495 3
v -33 20 3
v -32.9963 19.8505 3
v -32.9851 19.7013 3
v -32.9665 19.5529 3
v -32.9405 19.4056 3
v -32.9072 19.2597 3
v -32.8667 19.1157 3
v -32.8191 18.9739 3
v -32.7644 18.8347 3
v -32.7029 18.6983 3
v -32.6347 18.5652 3
v -32.5599 18.4357 3
v -32.4787 18.31 3
v -32.3914 18.1886 3
v -32.2981 18.0716 3
v -32.1992 17.9595 3
v -32.0947 17.8524 3
v -31.9851 17.7507 3
v -31.8705 17.6545 3
v -31.7512 17.5642 3
v -31.6276 17.4799 3
v -31.5 17.4019 3
v -31.3686 17.3304 3
v -31.2339 17.2655 3
v -31.096 17.2074 3
v -30.9555 17.1562 3
v -30.8125 17.1121 3
v -30.6676 17.0752 3
v -30.5209 17.0456 3
v -30.373 17.0233 3
v -30.2242 17.0084 3
v -30.0748 17.0009 3
v -29.9252 17.0009 3
v -29.7758 17.0084 3
v -29.627 17.0233 3
v -29.4791 17.0456 3
v -29.3324 17.0752 3
v -29.1875 17.1121 3
v -29.0445 17.1562 3
v -28.904 17.2074 3
v -28.7661 17.2655 3
v -28.6314 17.3304 3
v -28.5 17.4019 3
v -28.3724 17.4799 3
v -28.2488 17.5642 3
v -28.1295 17.6545 3
v -28.0149 17.7507 3
v -27.9053 17.8524 3
v -27.8008 17.9595 3
v -27.7019 18.0716 3
v -27.6086 18.1886 3
v -27.5213 18.31 3
v -27.4401 18.4357 3
v -27.3653 18.5652 3
v -27.2971 18.6983 3
v -27.2356 18.8347 3
v -27.1809 18.9739 3
v -27.1333 19.1157 3
v -27.0928 19.2597 3
v -27.0595 19.4056 3
v -27.0335 19.5529 3
v -27.0149 19.7013 3
v -27.0037 19.8505 3
v -27 20 3
v -27 20 -3
v -27.0037 20.1495 -3
v -27.0149 20.2987 -3
v -27.0335 20.4471 -3
v -27.0595 20.5944 -3
v -27.0928 20.7403 -3
v -27.1333 20.8843 -3
v -27.1809 21.0261 -3
v -27.2356 21.1653 -3
v -27.2971 21.3017 -3
v -27.3653 21.4348 -3
v -27.4401 21.5643 -3
v -27.5213 21.69 -3
v -27.6086 21.8114 -3
v -27.7019 21.9284 -3
v -27.8008 22.0405 -3
v -27.9053 22.1476 -3
v -28.0149 22.2493 -3
v -28.1295 22.3455 -3
v -28.2488 22.4358 -3
v -28.3724 22.5201 -3
v -28.5 22.5981 -3
v -28.6314 22.6696 -3
v -28.7661 22.7345 -3
v -28.904 22.7926 -3
v -29.0445 22.8438 -3
v -29.1875 22.8879 -3
v -29.3324 22.9248 -3
v -29.4791 22.9544 -3
v -29.627 22.9767 -3
v -29.7758 22.9916 -3
v -29.9252 22.9991 -3
v -30.0748 22.9991 -3
v -30.2242 22.9916 -3
v -30.373 22.9767 -3
v -30.5209 22.9544 -3
v -30.6676 22.9248 -3
v -30.8125 22.8879 -3
v -30.9555 22.8438 -3
v -31.096 22.7926 -3
v -31.2339 22.7345 -3
v -31.3686 22.6696 -3
v -31.5 22.5981 -3
v -31.6276 22.5201 -3
v -31.7512 22.4358 -3
v -31.8705 22.3455 -3
v -31.9851 22.2493 -3
v -32.0947 22.1476 -3
v -32.1992 22.0405 -3
v -32.2981 21.9284 -3
v -32.3914 21.8114 -3
v -32.4787 21.69 -3
v -32.5599 21.5643 -3
v -32.6347 21.4348 -3
v -32.7029 21.3017 -3
v -32.7644 21.1653 -3
v -32.8191 21.0261 -3
v -32.8667 20.8843 -3
v -32.9072 20.7403 -3
v -32.9405 20.5944 -3
v -32.9665 20.4471 -3
v -32.9851 20.2987 -3
v -32.9963 20.1495 -3
v -33 20 -3
v -32.9963 19.8505 -3
v -32.9851 19.7013 -3
v -32.9665 19.5529 -3
v -32.9405 19.4056 -3
v -32.9072 19.2597 -3
v -32.8667 19.1157 -3
v -32.8191 18.9739 -3
v -32.7644 18.8347 -3
v -32.7029 18.6983 -3
v -32.6347 18.5652 -3
v -32.5599 18.4357 -3
v -32.4787 18.31 -3
v -32.3914 18.1886 -3
v -32.2981 18.0716 -3
v -32.1992 17.9595 -3
v -32.0947 17.8524 -3
v -31.9851 17.7507 -3
v -31.8705 17.6545 -3
v -31.7512 17.5642 -3
v -31.6276 17.4799 -3
v -31.5 17.4019 -3
v -31.3686 17.3304 -3
v -31.2339 17.2655 -3
v -31.096 17.2074 -3
v -30.9555 17.1562 -3
v -30.8125 17.1121 -3
v -30.6676 17.0752 -3
v -30.5209 17.0456 -3
v -30.373 17.0233 -3
v -30.2242 17.0084 -3
v -30.0748 17.0009 -3
v -29.9252 17.0009 -3
v -29.7758 17.0084 -3
v -29.627 17.0233 -3
v -29.4791 17.0456 -3
v -29.3324 17.0752 -3
v -29.1875 17.1121 -3
v -29.0445 17.1562 -3
v -28.904 17.2074 -3
v -28.7661 17.2655 -3
v -28.6314 17.3304 -3
v -28.5 17.4019 -3
v -28.3724 17.4799 -3
v -28.2488 17.5642 -3
v -28.1295 17.6545 -3
v -28.0149 17.7507 -3
v -27.9053 17.8524 -3
v -27.8008 17.9595 -3
v -27.7019 18.0716 -3
v -27.6086 18.1886 -3
v -27.5213 18.31 -3
v -27.4401 18.4357 -3
v -27.3653 18.5652 -3
v -27.2971 18.6983 -3
v -27.2356 18.8347 -3
v -27.1809 18.9739 -3
v -27.1333 19.1157 -3
v -27.0928 19.2597 -3
v -27.0595 19.4056 -3
v -27.0335 19.5529 -3
v -27.0149 19.7013 -3
v -27.0037 19.8505 -3
v -27 20 -3
v 33 20 3
v 32.9963 20.1495 3
v 32.9851 20.2987 3
v 32.9665 20.4471 3
v 32.9405 20.5944 3
v 32.9072 20.7403 3
v 32.8667 20.8843 3
v 32.8191 21.0261 3
v 32.7644 21.1653 3
v 32.7029 21.3017 3
v 32.6347 21.4348 3
v 32.5599 21.5643 3
v 32.4787 21.69 3
v 32.3914 21.8114 3
v 32.2981 21.9284 3
v 32.1992 22.0405 3
v 32.0947 22.1476 3
v 31.9851 22.2493 3
v 31.8705 22.3455 3
v 31.7512 22.4358 3
v 31.6276 22.5201 3
v 31.5 22.5981 3
v 31.3686 22.6696 3
v 31.2339 22.7345 3
v 31.096 22.7926 3
v 30.9555 22.8438 3
v 30.8125 22.8879 3
v 30.6676 22.9248 3
v 30.5209 22.9544 3
v 30.373 22.9767 3
v 30.2242 22.9916 3
v 30.0748 22.9991 3
v 29.9252 22.9991 3
v 29.7758 22.9916 3
v 29.627 22.9767 3
v 29.4791 22.9544 3
v 29.3324 22.9248 3
v 29.1875 22.8879 3
v 29.0445 22.8438 3
v 28.904 22.7926 3
v 28.7661 22.7345 3
v 28.6314 22.6696 3
v 28.5 22.5981 3
v 28.3724 22.5201 3
v 28.2488 22.4358 3
v 28.1295 22.3455 3
v 28.0149 22.2493 3
v 27.9053 22.1476 3
v 27.8008 22.0405 3
v 27.7019 21.9284 3
v 27.6086 21.8114 3
v 27.5213 21.69 3
v 27.4401 21.5643 3
v 27.3653 21.4348 3
v 27.2971 21.3017 3
v 27.2356 21.1653 3
v 27.1809 21.0261 3
v 27.1333 20.8843 3
v 27.0928 20.7403 3
v 27.0595 20.5944 3
v 27.0335 20.4471 3
v 27.0149 20.2987 3
v 27.0037 20.1495 3
v 27 20 3
v 27.0037 19.8505 3
v 27.0149 19.7013 3
v 27.0335 19.5529 3
v 27.0595 19.4056 3
v 27.0928 19.2597 3
v 27.1333 19.1157 3
v 27.1809 18.9739 3
v 27.2356 18.8347 3
v 27.2971 18.6983 3
v 27.3653 18.5652 3
v 27.4401 18.4357 3
v 27.5213 18.31 3
v 27.6086 18.1886 3
v 27.7019 18.0716 3
v 27.8008 17.9595 3
v 27.9053 17.8524 3
v 28.0149 17.7507 3
v 28.1295 17.6545 3
v 28.2488 17.5642 3
v 28.3724 17.4799 3
v 28.5 17.4019 3
v 28.6314 17.3304 3
v 28.7661 17.2655 3
v 28.904 17.2074 3
v 29.0445 17.1562 3
v 29.1875 17.1121 3
v 29.3324 17.0752 3
v 29.4791 17.0456 3
v 29.627 17.0233 3
v 29.7758 17.0084 3
v 29.9252 17.0009 3
v 30.0748 17.0009 3
v 30.2242 17.0084 3
v 30.373 17.0233 3
v 30.5209 17.0456 3
v 30.6676 17.0752 3
v 30.8125 17.1121 3
v 30.9555 17.1562 3
v 31.096 17.2074 3
v 31.2339 17.2655 3
v 31.3686 17.3304 3
v 31.5 17.4019 3
v 31.6276 17.4799 3
v 31.7512 17.5642 3
v 31.8705 17.6545 3
v 31.9851 17.7507 3
v 32.0947 17.8524 3
v 32.1992 17.9595 3
v 32.2981 18.0716 3
v 32.3914 18.1886 3
v 32.4787 18.31 3
v 32.5599 18.4357 3
v 32.6347 18.5652 3
v 32.7029 18.6983 3
v 32.7644 18.8347 3
v 32.8191 18.9739 3
v 32.8667 19.1157 3
v 32.9072 19.2597 3
v 32.9405 19.4056 3
v 32.9665 19.5529 3
v 32.9851 19.7013 3
v 32.9963 19.8505 3
v 33 20 3
v 33 20 -3
v 32.9963 20.1495 -3
v 32.9851 20.2987 -3
v 32.9665 20.4471 -3
v 32.9405 20.5944 -3
v 32.9072 20.7403 -3
v 32.8667 20.8843 -3
v 32.8191 21.0261 -3
v 32.7644 21.1653 -3
v 32.7029 21.3017 -3
v 32.6347 21.4348 -3
v 32.5599 21.5643 -3
v 32.4787 21.69 -3
v 32.3914 21.8114 -3
v 32.2981 21.9284 -3
v 32.1992 22.0405 -3
v 32.0947 22.1476 -3
v 31.9851 22.2493 -3
v 31.8705 22.3455 -3
v 31.7512 22.4358 -3
v 31.6276 22.5201 -3
v 31.5 22.5981 -3
v 31.3686 22.6696 -3
v 31.2339 22.7345 -3
v 31.096 22.7926 -3
v 30.9555 22.8438 -3
v 30.8125 22.8879 -3
v 30.6676 22.9248 -3
v 30.5209 22.9544 -3
v 30.373 22.9767 -3
v 30.2242 22.9916 -3
v 30.0748 22.9991 -3
v 29.9252 22.9991 -3
v 29.7758 22.9916 -3
v 29.627 22.9767 -3
v 29.4791 22.9544 -3
v 29.3324 22.9248 -3
v 29.1875 22.8879 -3
v 29.0445 22.8438 -3
v 28.904 22.7926 -3
v 28.7661 22.7345 -3
v 28.6314 22.6696 -3
v 28.5 22.5981 -3
v 28.3724 22.5201 -3
v 28.2488 22.4358 -3
v 28.1295 22.3455 -3
v 28.0149 22.2493 -3
v 27.9053 22.1476 -3
v 27.8008 22.0405 -3
v 27.7019 21.9284 -3
v 27.6086 21.8114 -3
v 27.5213 21.69 -3
v 27.4401 21.5643 -3
v 27.3653 21.4348 -3
v 27.2971 21.3017 -3
v 27.2356 21.1653 -3
v 27.1809 21.0261 -3
v 27.1333 20.8843 -3
v 27.0928 20.7403 -3
v 27.0595 20.5944 -3
v 27.0335 20.4471 -3
v 27.0149 20.2987 -3
v 27.0037 20.1495 -3
v 27 20 -3
v 27.0037 19.8505 -3
v 27.0149 19.7013 -3
v 27.0335 19.5529 -3
v 27.0595 19.4056 -3
v 27.0928 19.2597 -3
v 27.1333 19.1157 -3
v 27.1809 18.9739 -3
v 27.2356 18.8347 -3
v 27.2971 18.6983 -3
v 27.3653 18.5652 -3
v 27.4401 18.4357 -3
v 27.5213 18.31 -3
v 27.6086 18.1886 -3
v 27.7019 18.0716 -3
v 27.8008 17.9595 -3
v 27.9053 17.8524 -3
v 28.0149 17.7507 -3
v 28.1295 17.6545 -3
v 28.2488 17.5642 -3
v 28.3724 17.4799 -3
v 28.5 17.4019 -3
v 28.6314 17.3304 -3
v 28.7661 17.2655 -3
v 28.904 17.2074 -3
v 29.0445 17.1562 -3
v 29.1875 17.1121 -3
v 29.3324 17.0752 -3
v 29.4791 17.0456 -3
v 29.627 17.0233 -3
v 29.7758 17.0084 -3
v 29.9252 17.0009 -3
v 30.0748 17.0009 -3
v 30.2242 17.0084 -3
v 30.373 17.0233 -3
v 30.5209 17.0456 -3
v 30.6676 17.0752 -3
v 30.8125 17.1121 -3
v 30.9555 17.1562 -3
v 31.096 17.2074 -3
v 31.2339 17.2655 -3
v 31.3686 17.3304 -3
v 31.5 17.4019 -3
v 31.6276 17.4799 -3
v 31.7512 17.5642 -3
v 31.8705 17.6545 -3
v 31.9851 17.7507 -3
v 32.0947 17.8524 -3
v 32.1992 17.9595 -3
v 32.2981 18.0716 -3
v 32.3914 18.1886 -3
v 32.4787 18.31 -3
v 32.5599 18.4357 -3
v 32.6347 18.5652 -3
v 32.7029 18.6983 -3
v 32.7644 18.8347 -3
v 32.8191 18.9739 -3
v 32.8667 19.1157 -3
v 32.9072 19.2597 -3
v 32.9405 19.4056 -3
v 32.9665 19.5529 -3
v 32.9851 19.7013 -3
v 32.9963 19.8505 -3
v 33 20 -3
f 1 4 3
f 2 4 1
f 8 5 6
f 8 7 5
f 91 9 92
f 93 92 9
f 90 9 91
f 94 93 9
f 89 9 90
f 95 94 9
f 88 9 89
f 96 95 9
f 87 9 88
f 97 96 9
f 86 9 87
f 98 97 9
f 85 9 86
f 99 98 9
f 84 9 85
f 100 99 9
f 83 9 84
f 101 100 9
f 82 9 83
f 102 101 9
f 81 9 82
f 103 102 9
f 80 9 81
f 104 103 9
f 79 9 80
f 105 104 9
f 78 9 79
f 106 105 9
f 77 9 78
f 107 106 9
f 76 9 77
f 108 107 9
f 75 9 76
f 109 108 9
f 74 9 75
f 110 109 9
f 73 9 74
f 111 110 9
f 72 9 73
f 112 111 9
f 71 9 72
f 113 112 9
f 70 9 71
f 114 113 9
f 69 9 70
f 115 114 9
f 68 9 69
f 116 115 9
f 67 9 68
f 117 116 9
f 343 60 344
f 343 61 60
f 345 344 60
f 345 60 59
f 342 62 61
f 342 61 343
f 346 59 58
f 346 345 59
f 341 63 62
f 341 64 63
f 341 62 342
f 347 58 57
f 347 346 58
f 340 64 341
f 348 57 56
f 348 347 57
f 339 65 64
f 339 64 340
f 349 56 55
f 349 348 56
f 338 66 65
f 338 67 66
f 338 65 339
f 350 55 54
f 350 349 55
f 337 9 67
f 337 67 338
f 351 54 53
f 351 350 54
f 352 53 52
f 352 351 53
f 353 51 50
f 353 52 51
f 353 352 52
f 354 353 50
f 355 354 50
f 355 49 48
f 355 50 49
f 356 355 48
f 357 356 48
f 357 48 47
f 358 357 47
f 358 47 46
f 359 358 46
f 359 45 44
f 359 46 45
f 360 359 44
f 361 43 42
f 361 44 43
f 361 360 44
f 362 361 42
f 363 42 41
f 363 362 42
f 364 41 40
f 364 363 41
f 365 364 40
f 365 40 39
f 366 365 39
f 366 39 38
f 367 38 37
f 367 366 38
f 368 37 36
f 368 367 37
f 369 368 36
f 369 36 35
f 370 35 34
f 370 369 35
f 371 370 34
f 371 33 32
f 371 34 33
f 372 371 32
f 372 32 31
f 373 372 31
f 374 31 30
f 374 373 31
f 375 30 29
f 375 374 30
f 10 314 313
f 10 315 314
f 10 316 315
f 10 317 316
f 10 318 317
f 10 319 318
f 10 320 319
f 10 321 320
f 10 322 321
f 10 323 322
f 10 324 323
f 10 325 324
f 10 326 325
f 10 327 326
f 10 328 327
f 10 329 328
f 10 330 329
f 10 331 330
f 10 332 331
f 10 333 332
f 10 334 333
f 10 335 334
f 10 336 335
f 10 337 336
f 10 9 337
f 312 10 313
f 376 29 28
f 376 375 29
f 311 10 312
f 377 27 26
f 377 28 27
f 377 376 28
f 310 10 311
f 378 26 25
f 378 377 26
f 309 10 310
f 379 378 25
f 308 10 309
f 307 10 308
f 306 10 307
f 305 10 306
f 304 10 305
f 303 10 304
f 302 10 303
f 301 10 302
f 300 10 301
f 299 10 300
f 298 10 299
f 297 10 298
f 296 10 297
f 295 10 296
f 294 10 295
f 293 10 294
f 292 10 293
f 291 10 292
f 290 10 291
f 289 10 290
f 288 10 289
f 218 123 122
f 217 123 218
f 217 124 123
f 219 218 122
f 216 124 217
f 216 125 124
f 220 121 120
f 220 122 121
f 220 219 122
f 215 126 125
f 215 125 216
f 221 220 120
f 214 126 215
f 214 127 126
f 222 120 119
f 222 221 120
f 213 128 127
f 213 127 214
f 223 118 117
f 223 119 118
f 223 222 119
f 212 128 213
f 212 129 128
f 224 223 117
f 211 130 129
f 211 129 212
f 210 130 211
f 210 131 130
f 209 132 131
f 209 131 210
f 208 133 132
f 208 132 209
f 207 133 208
f 207 134 133
f 206 134 207
f 206 135 134
f 205 135 206
f 205 136 135
f 204 136 205
f 204 137 136
f 203 138 137
f 203 13 138
f 203 137 204
f 202 13 203
f 201 14 13
f 201 13 202
f 200 15 14
f 200 14 201
f 199 16 15
f 199 15 200
f 198 17 16
f 198 16 199
f 197 18 17
f 197 19 18
f 197 17 198
f 196 19 197
f 195 20 19
f 195 19 196
f 194 21 20
f 194 20 195
f 193 22 21
f 193 21 194
f 192 23 22
f 192 24 23
f 192 22 193
f 191 24 192
f 190 24 191
f 190 25 24
f 190 379 25
f 11 117 9
f 11 225 224
f 11 226 225
f 11 227 226
f 11 228 227
f 11 229 228
f 11 230 229
f 11 231 230
f 11 232 231
f 11 233 232
f 11 234 233
f 11 235 234
f 11 236 235
f 11 237 236
f 11 238 237
f 11 239 238
f 11 240 239
f 11 241 240
f 11 242 241
f 11 243 242
f 11 244 243
f 11 245 244
f 11 246 245
f 11 247 246
f 11 224 117
f 11 248 247
f 11 249 248
f 250 249 11
f 251 250 11
f 252 251 11
f 253 252 11
f 254 253 11
f 255 254 11
f 256 255 11
f 257 256 11
f 258 257 11
f 259 258 11
f 260 259 11
f 261 260 11
f 262 261 11
f 263 262 11
f 264 263 11
f 139 264 11
f 140 139 11
f 141 140 11
f 142 141 11
f 143 142 11
f 144 143 11
f 145 144 11
f 146 145 11
f 147 146 11
f 148 147 11
f 470 186 185
f 469 186 470
f 469 187 186
f 471 185 184
f 471 470 185
f 468 187 469
f 468 188 187
f 472 471 184
f 467 188 468
f 467 189 188
f 467 190 189
f 473 472 184
f 473 184 183
f 466 379 190
f 466 190 467
f 474 183 182
f 474 473 183
f 465 379 466
f 465 380 379
f 475 182 181
f 475 474 182
f 464 381 380
f 464 380 465
f 476 181 180
f 476 475 181
f 463 381 464
f 463 382 381
f 477 476 180
f 477 179 178
f 477 180 179
f 462 383 382
f 462 382 463
f 478 477 178
f 461 383 462
f 461 384 383
f 461 385 384
f 479 177 176
f 479 178 177
f 479 478 178
f 460 385 461
f 480 176 175
f 480 479 176
f 459 386 385
f 459 385 460
f 481 480 175
f 458 387 386
f 458 386 459
f 482 481 175
f 482 175 174
f 457 388 387
f 457 387 458
f 483 482 174
f 483 174 173
f 456 388 457
f 456 389 388
f 484 483 173
f 484 173 172
f 455 389 456
f 455 390 389
f 485 484 172
f 485 172 171
f 454 390 455
f 454 265 390
f 486 485 171
f 486 170 169
f 486 171 170
f 453 266 265
f 453 265 454
f 487 486 169
f 452 266 453
f 452 267 266
f 488 487 169
f 488 169 168
f 451 267 452
f 451 268 267
f 451 269 268
f 489 488 168
f 489 168 167
f 450 269 451
f 490 489 167
f 490 167 166
f 449 269 450
f 449 270 269
f 491 490 166
f 491 165 164
f 491 166 165
f 448 271 270
f 448 270 449
f 492 491 164
f 447 271 448
f 447 272 271
f 447 273 272
f 493 492 164
f 493 164 163
f 446 273 447
f 494 163 162
f 494 493 163
f 445 273 446
f 445 274 273
f 495 162 161
f 495 494 162
f 444 274 445
f 444 275 274
f 496 161 160
f 496 495 161
f 443 276 275
f 443 275 444
f 497 160 159
f 497 496 160
f 442 276 443
f 442 277 276
f 442 278 277
f 498 159 158
f 498 497 159
f 441 278 442
f 499 498 158
f 499 158 157
f 440 279 278
f 440 280 279
f 440 278 441
f 500 157 156
f 500 499 157
f 439 280 440
f 501 500 156
f 501 155 154
f 501 156 155
f 438 281 280
f 438 282 281
f 438 280 439
f 502 501 154
f 437 282 438
f 503 153 152
f 503 154 153
f 503 502 154
f 436 283 282
f 436 284 283
f 436 282 437
f 504 503 152
f 504 152 151
f 435 284 436
f 505 504 151
f 506 505 151
f 506 150 149
f 506 151 150
f 507 506 149
f 508 507 149
f 508 149 148
f 12 514 513
f 12 413 412
f 12 515 514
f 12 414 413
f 12 516 515
f 12 415 414
f 12 391 516
f 12 416 415
f 12 417 416
f 12 418 417
f 12 419 418
f 12 420 419
f 12 421 420
f 12 422 421
f 12 423 422
f 12 424 423
f 12 425 424
f 12 426 425
f 12 427 426
f 12 508 148
f 12 428 427
f 12 429 428
f 12 430 429
f 12 431 430
f 12 148 11
f 12 392 391
f 12 393 392
f 12 394 393
f 12 395 394
f 12 396 395
f 12 397 396
f 12 398 397
f 12 399 398
f 12 400 399
f 12 401 400
f 12 402 401
f 12 403 402
f 12 404 403
f 12 405 404
f 12 406 405
f 12 407 406
f 12 509 508
f 12 408 407
f 12 510 509
f 12 409 408
f 12 511 510
f 12 410 409
f 12 512 511
f 12 411 410
f 12 513 512
f 12 412 411
f 12 10 288
f 12 288 287
f 12 287 286
f 12 286 285
f 12 285 284
f 12 284 431
f 431 284 432
f 432 284 433
f 433 284 434
f 434 284 435
f 520 518 517
f 520 517 519
f 603 604 521
f 605 521 604
f 602 603 521
f 606 521 605
f 601 602 521
f 607 521 606
f 600 601 521
f 608 521 607
f 599 600 521
f 609 521 608
f 598 599 521
f 610 521 609
f 597 598 521
f 611 521 610
f 596 597 521
f 612 521 611
f 595 596 521
f 613 521 612
f 594 595 521
f 614 521 613
f 593 594 521
f 615 521 614
f 592 593 521
f 616 521 615
f 591 592 521
f 617 521 616
f 590 591 521
f 618 521 617
f 589 590 521
f 619 521 618
f 588 589 521
f 620 521 619
f 587 588 521
f 621 521 620
f 586 587 521
f 622 521 621
f 585 586 521
f 623 521 622
f 584 585 521
f 624 521 623
f 583 584 521
f 625 521 624
f 582 583 521
f 626 521 625
f 581 582 521
f 627 521 626
f 580 581 521
f 628 521 627
f 579 580 521
f 629 521 628
f 855 856 572
f 855 572 573
f 857 572 856
f 857 571 572
f 854 573 574
f 854 855 573
f 858 570 571
f 858 571 857
f 853 574 575
f 853 575 576
f 853 854 574
f 859 569 570
f 859 570 858
f 852 853 576
f 860 568 569
f 860 569 859
f 851 576 577
f 851 852 576
f 861 567 568
f 861 568 860
f 850 577 578
f 850 578 579
f 850 851 577
f 862 566 567
f 862 567 861
f 849 579 521
f 849 850 579
f 863 565 566
f 863 566 862
f 864 564 565
f 864 565 863
f 865 562 563
f 865 563 564
f 865 564 864
f 866 562 865
f 867 562 866
f 867 560 561
f 867 561 562
f 868 560 867
f 869 560 868
f 869 559 560
f 870 559 869
f 870 558 559
f 871 558 870
f 871 556 557
f 871 557 558
f 872 556 871
f 873 554 555
f 873 555 556
f 873 556 872
f 874 554 873
f 875 553 554
f 875 554 874
f 876 552 553
f 876 553 875
f 877 552 876
f 877 551 552
f 878 551 877
f 878 550 551
f 879 549 550
f 879 550 878
f 880 548 549
f 880 549 879
f 881 548 880
f 881 547 548
f 882 546 547
f 882 547 881
f 883 546 882
f 883 544 545
f 883 545 546
f 884 544 883
f 884 543 544
f 885 543 884
f 886 542 543
f 886 543 885
f 887 541 542
f 887 542 886
f 522 825 826
f 522 826 827
f 522 827 828
f 522 828 829
f 522 829 830
f 522 830 831
f 522 831 832
f 522 832 833
f 522 833 834
f 522 834 835
f 522 835 836
f 522 836 837
f 522 837 838
f 522 838 839
f 522 839 840
f 522 840 841
f 522 841 842
f 522 842 843
f 522 843 844
f 522 844 845
f 522 845 846
f 522 846 847
f 522 847 848
f 522 848 849
f 522 849 521
f 824 825 522
f 888 540 541
f 888 541 887
f 823 824 522
f 889 538 539
f 889 539 540
f 889 540 888
f 822 823 522
f 890 537 538
f 890 538 889
f 821 822 522
f 891 537 890
f 820 821 522
f 819 820 522
f 818 819 522
f 817 818 522
f 816 817 522
f 815 816 522
f 814 815 522
f 813 814 522
f 812 813 522
f 811 812 522
f 810 811 522
f 809 810 522
f 808 809 522
f 807 808 522
f 806 807 522
f 805 806 522
f 804 805 522
f 803 804 522
f 802 803 522
f 801 802 522
f 800 801 522
f 730 634 635
f 729 730 635
f 729 635 636
f 731 634 730
f 728 729 636
f 728 636 637
f 732 632 633
f 732 633 634
f 732 634 731
f 727 637 638
f 727 728 637
f 733 632 732
f 726 727 638
f 726 638 639
f 734 631 632
f 734 632 733
f 725 639 640
f 725 726 639
f 735 629 630
f 735 630 631
f 735 631 734
f 724 725 640
f 724 640 641
f 736 629 735
f 723 641 642
f 723 724 641
f 722 723 642
f 722 642 643
f 721 643 644
f 721 722 643
f 720 644 645
f 720 721 644
f 719 720 645
f 719 645 646
f 718 719 646
f 718 646 647
f 717 718 647
f 717 647 648
f 716 717 648
f 716 648 649
f 715 649 650
f 715 650 525
f 715 716 649
f 714 715 525
f 713 525 526
f 713 714 525
f 712 526 527
f 712 713 526
f 711 527 528
f 711 712 527
f 710 528 529
f 710 711 528
f 709 529 530
f 709 530 531
f 709 710 529
f 708 709 531
f 707 531 532
f 707 708 531
f 706 532 533
f 706 707 532
f 705 533 534
f 705 706 533
f 704 534 535
f 704 535 536
f 704 705 534
f 703 704 536
f 702 703 536
f 702 536 537
f 702 537 891
f 523 521 629
f 523 736 737
f 523 737 738
f 523 738 739
f 523 739 740
f 523 740 741
f 523 741 742
f 523 742 743
f 523 743 744
f 523 744 745
f 523 745 746
f 523 746 747
f 523 747 748
f 523 748 749
f 523 749 750
f 523 750 751
f 523 751 752
f 523 752 753
f 523 753 754
f 523 754 755
f 523 755 756
f 523 756 757
f 523 757 758
f 523 758 759
f 523 629 736
f 523 759 760
f 523 760 761
f 762 523 761
f 763 523 762
f 764 523 763
f 765 523 764
f 766 523 765
f 767 523 766
f 768 523 767
f 769 523 768
f 770 523 769
f 771 523 770
f 772 523 771
f 773 523 772
f 774 523 773
f 775 523 774
f 776 523 775
f 651 523 776
f 652 523 651
f 653 523 652
f 654 523 653
f 655 523 654
f 656 523 655
f 657 523 656
f 658 523 657
f 659 523 658
f 660 523 659
f 982 697 698
f 981 982 698
f 981 698 699
f 983 696 697
f 983 697 982
f 980 981 699
f 980 699 700
f 984 696 983
f 979 980 700
f 979 700 701
f 979 701 702
f 985 696 984
f 985 695 696
f 978 702 891
f 978 979 702
f 986 694 695
f 986 695 985
f 977 978 891
f 977 891 892
f 987 693 694
f 987 694 986
f 976 892 893
f 976 977 892
f 988 692 693
f 988 693 987
f 975 976 893
f 975 893 894
f 989 692 988
f 989 690 691
f 989 691 692
f 974 894 895
f 974 975 894
f 990 690 989
f 973 974 895
f 973 895 896
f 973 896 897
f 991 688 689
f 991 689 690
f 991 690 990
f 972 973 897
f 992 687 688
f 992 688 991
f 971 897 898
f 971 972 897
f 993 687 992
f 970 898 899
f 970 971 898
f 994 687 993
f 994 686 687
f 969 899 900
f 969 970 899
f 995 686 994
f 995 685 686
f 968 969 900
f 968 900 901
f 996 685 995
f 996 684 685
f 967 968 901
f 967 901 902
f 997 684 996
f 997 683 684
f 966 967 902
f 966 902 777
f 998 683 997
f 998 681 682
f 998 682 683
f 965 777 778
f 965 966 777
f 999 681 998
f 964 965 778
f 964 778 779
f 1000 681 999
f 1000 680 681
f 963 964 779
f 963 779 780
f 963 780 781
f 1001 680 1000
f 1001 679 680
f 962 963 781
f 1002 679 1001
f 1002 678 679
f 961 962 781
f 961 781 782
f 1003 678 1002
f 1003 676 677
f 1003 677 678
f 960 782 783
f 960 961 782
f 1004 676 1003
f 959 960 783
f 959 783 784
f 959 784 785
f 1005 676 1004
f 1005 675 676
f 958 959 785
f 1006 674 675
f 1006 675 1005
f 957 958 785
f 957 785 786
f 1007 673 674
f 1007 674 1006
f 956 957 786
f 956 786 787
f 1008 672 673
f 1008 673 1007
f 955 787 788
f 955 956 787
f 1009 671 672
f 1009 672 1008
f 954 955 788
f 954 788 789
f 954 789 790
f 1010 670 671
f 1010 671 1009
f 953 954 790
f 1011 670 1010
f 1011 669 670
f 952 790 791
f 952 791 792
f 952 953 790
f 1012 668 669
f 1012 669 1011
f 951 952 792
f 1013 668 1012
f 1013 666 667
f 1013 667 668
f 950 792 793
f 950 793 794
f 950 951 792
f 1014 666 1013
f 949 950 794
f 1015 664 665
f 1015 665 666
f 1015 666 1014
f 948 794 795
f 948 795 796
f 948 949 794
f 1016 664 1015
f 1016 663 664
f 947 948 796
f 1017 663 1016
f 1018 663 1017
f 1018 661 662
f 1018 662 663
f 1019 661 1018
f 1020 661 1019
f 1020 660 661
f 524 1025 1026
f 524 924 925
f 524 1026 1027
f 524 925 926
f 524 1027 1028
f 524 926 927
f 524 1028 903
f 524 927 928
f 524 928 929
f 524 929 930
f 524 930 931
f 524 931 932
f 524 932 933
f 524 933 934
f 524 934 935
f 524 935 936
f 524 936 937
f 524 937 938
f 524 938 939
f 524 660 1020
f 524 939 940
f 524 940 941
f 524 941 942
f 524 942 943
f 524 523 660
f 524 903 904
f 524 904 905
f 524 905 906
f 524 906 907
f 524 907 908
f 524 908 909
f 524 909 910
f 524 910 911
f 524 911 912
f 524 912 913
f 524 913 914
f 524 914 915
f 524 915 916
f 524 916 917
f 524 917 918
f 524 918 919
f 524 1020 1021
f 524 919 920
f 524 1021 1022
f 524 920 921
f 524 1022 1023
f 524 921 922
f 524 1023 1024
f 524 922 923
f 524 1024 1025
f 524 923 924
f 524 800 522
f 524 799 800
f 524 798 799
f 524 797 798
f 524 796 797
f 524 943 796
f 943 944 796
f 944 945 796
f 945 946 796
f 946 947 796
f 1029 1031 1032
f 1030 1029 1032
f 1034 1160 1033
f 1034 1161 1160
f 1035 1162 1161
f 1035 1163 1162
f 1035 1161 1034
f 1036 1164 1163
f 1036 1163 1035
f 1037 1165 1164
f 1037 1164 1036
f 1038 1166 1165
f 1038 1165 1037
f 1039 1167 1166
f 1039 1166 1038
f 1040 1167 1039
f 1041 1168 1167
f 1041 1169 1168
f 1041 1167 1040
f 1042 1169 1041
f 1043 1170 1169
f 1043 1169 1042
f 1044 1170 1043
f 1044 1171 1170
f 1045 1171 1044
f 1045 1172 1171
f 1045 1173 1172
f 1046 1173 1045
f 1047 1173 1046
f 1047 1174 1173
f 1048 1174 1047
f 1048 1175 1174
f 1049 1175 1048
f 1049 1176 1175
f 1050 1176 1049
f 1050 1177 1176
f 1051 1177 1050
f 1051 1178 1177
f 1052 1178 1051
f 1052 1179 1178
f 1053 1179 1052
f 1053 1180 1179
f 1054 1180 1053
f 1054 1181 1180
f 1055 1181 1054
f 1055 1182 1181
f 1055 1183 1182
f 1056 1183 1055
f 1057 1184 1183
f 1057 1185 1184
f 1057 1183 1056
f 1058 1185 1057
f 1059 1186 1185
f 1059 1185 1058
f 1060 1187 1186
f 1060 1188 1187
f 1060 1186 1059
f 1061 1188 1060
f 1062 1189 1188
f 1062 1188 1061
f 1063 1190 1189
f 1063 1191 1190
f 1063 1189 1062
f 1064 1191 1063
f 1065 1192 1191
f 1065 1193 1192
f 1065 1191 1064
f 1066 1193 1065
f 1067 1194 1193
f 1067 1195 1194
f 1067 1193 1066
f 1068 1195 1067
f 1069 1195 1068
f 1069 1196 1195
f 1070 1196 1069
f 1070 1197 1196
f 1071 1197 1070
f 1071 1198 1197
f 1072 1198 1071
f 1072 1199 1198
f 1073 1199 1072
f 1073 1200 1199
f 1074 1200 1073
f 1074 1201 1200
f 1075 1201 1074
f 1075 1202 1201
f 1075 1203 1202
f 1076 1203 1075
f 1077 1203 1076
f 1077 1204 1203
f 1077 1205 1204
f 1078 1205 1077
f 1078 1206 1205
f 1079 1206 1078
f 1079 1207 1206
f 1080 1207 1079
f 1081 1207 1080
f 1081 1208 1207
f 1082 1208 1081
f 1082 1209 1208
f 1083 1209 1082
f 1083 1210 1209
f 1084 1210 1083
f 1084 1211 1210
f 1085 1211 1084
f 1085 1212 1211
f 1086 1212 1085
f 1086 1213 1212
f 1087 1213 1086
f 1087 1214 1213
f 1088 1214 1087
f 1088 1215 1214
f 1089 1215 1088
f 1089 1216 1215
f 1089 1217 1216
f 1090 1218 1217
f 1090 1217 1089
f 1091 1218 1090
f 1092 1219 1218
f 1092 1220 1219
f 1092 1218 1091
f 1093 1221 1220
f 1093 1220 1092
f 1094 1221 1093
f 1095 1221 1094
f 1095 1222 1221
f 1096 1222 1095
f 1096 1223 1222
f 1097 1223 1096
f 1097 1224 1223
f 1098 1224 1097
f 1098 1225 1224
f 1099 1225 1098
f 1099 1226 1225
f 1100 1226 1099
f 1100 1227 1226
f 1101 1227 1100
f 1101 1228 1227
f 1102 1228 1101
f 1102 1229 1228
f 1103 1229 1102
f 1103 1230 1229
f 1104 1230 1103
f 1104 1231 1230
f 1105 1231 1104
f 1105 1232 1231
f 1106 1232 1105
f 1106 1233 1232
f 1107 1233 1106
f 1107 1234 1233
f 1108 1235 1234
f 1108 1234 1107
f 1109 1236 1235
f 1109 1235 1108
f 1110 1237 1236
f 1110 1236 1109
f 1111 1238 1237
f 1111 1237 1110
f 1112 1239 1238
f 1112 1238 1111
f 1113 1240 1239
f 1113 1239 1112
f 1114 1241 1240
f 1114 1242 1241
f 1114 1240 1113
f 1115 1242 1114
f 1116 1243 1242
f 1116 1242 1115
f 1117 1244 1243
f 1117 1245 1244
f 1117 1243 1116
f 1118 1246 1245
f 1118 1245 1117
f 1119 1246 1118
f 1120 1247 1246
f 1120 1246 1119
f 1121 1247 1120
f 1121 1248 1247
f 1122 1248 1121
f 1122 1249 1248
f 1123 1249 1122
f 1123 1250 1249
f 1124 1250 1123
f 1124 1251 1250
f 1125 1252 1251
f 1125 1253 1252
f 1125 1251 1124
f 1126 1254 1253
f 1126 1253 1125
f 1127 1254 1126
f 1128 1255 1254
f 1128 1254 1127
f 1129 1256 1255
f 1129 1255 1128
f 1130 1257 1256
f 1130 1256 1129
f 1131 1258 1257
f 1131 1259 1258
f 1131 1257 1130
f 1132 1259 1131
f 1133 1260 1259
f 1133 1259 1132
f 1134 1261 1260
f 1134 1260 1133
f 1135 1262 1261
f 1135 1261 1134
f 1136 1263 1262
f 1136 1262 1135
f 1137 1264 1263
f 1137 1263 1136
f 1138 1265 1264
f 1138 1264 1137
f 1139 1266 1265
f 1139 1265 1138
f 1140 1267 1266
f 1140 1268 1267
f 1140 1266 1139
f 1141 1268 1140
f 1142 1269 1268
f 1142 1270 1269
f 1142 1268 1141
f 1143 1270 1142
f 1144 1271 1270
f 1144 1270 1143
f 1145 1271 1144
f 1145 1272 1271
f 1146 1272 1145
f 1146 1273 1272
f 1147 1273 1146
f 1147 1274 1273
f 1148 1274 1147
f 1148 1275 1274
f 1149 1275 1148
f 1149 1276 1275
f 1150 1276 1149
f 1150 1277 1276
f 1151 1277 1150
f 1151 1278 1277
f 1152 1278 1151
f 1152 1279 1278
f 1153 1279 1152
f 1153 1280 1279
f 1154 1280 1153
f 1154 1281 1280
f 1155 1281 1154
f 1155 1282 1281
f 1156 1282 1155
f 1156 1283 1282
f 1157 1284 1283
f 1157 1283 1156
f 1158 1284 1157
f 1158 1285 1284
f 1159 1286 1285
f 1159 1285 1158
f 1288 1414 1287
f 1288 1415 1414
f 1289 1416 1415
f 1289 1417 1416
f 1289 1415 1288
f 1290 1418 1417
f 1290 1417 1289
f 1291 1419 1418
f 1291 1418 1290
f 1292 1420 1419
f 1292 1419 1291
f 1293 1421 1420
f 1293 1420 1292
f 1294 1421 1293
f 1295 1422 1421
f 1295 1423 1422
f 1295 1421 1294
f 1296 1423 1295
f 1297 1424 1423
f 1297 1423 1296
f 1298 1424 1297
f 1298 1425 1424
f 1299 1425 1298
f 1299 1426 1425
f 1299 1427 1426
f 1300 1427 1299
f 1301 1427 1300
f 1301 1428 1427
f 1302 1428 1301
f 1302 1429 1428
f 1303 1429 1302
f 1303 1430 1429
f 1304 1430 1303
f 1304 1431 1430
f 1305 1431 1304
f 1305 1432 1431
f 1306 1432 1305
f 1306 1433 1432
f 1307 1433 1306
f 1307 1434 1433
f 1308 1434 1307
f 1308 1435 1434
f 1309 1435 1308
f 1309 1436 1435
f 1309 1437 1436
f 1310 1437 1309
f 1311 1438 1437
f 1311 1439 1438
f 1311 1437 1310
f 1312 1439 1311
f 1313 1440 1439
f 1313 1439 1312
f 1314 1441 1440
f 1314 1442 1441
f 1314 1440 1313
f 1315 1442 1314
f 1316 1443 1442
f 1316 1442 1315
f 1317 1444 1443
f 1317 1445 1444
f 1317 1443 1316
f 1318 1445 1317
f 1319 1446 1445
f 1319 1447 1446
f 1319 1445 1318
f 1320 1447 1319
f 1321 1448 1447
f 1321 1449 1448
f 1321 1447 1320
f 1322 1449 1321
f 1323 1449 1322
f 1323 1450 1449
f 1324 1450 1323
f 1324 1451 1450
f 1325 1451 1324
f 1325 1452 1451
f 1326 1452 1325
f 1326 1453 1452
f 1327 1453 1326
f 1327 1454 1453
f 1328 1454 1327
f 1328 1455 1454
f 1329 1455 1328
f 1329 1456 1455
f 1329 1457 1456
f 1330 1457 1329
f 1331 1457 1330
f 1331 1458 1457
f 1331 1459 1458
f 1332 1459 1331
f 1332 1460 1459
f 1333 1460 1332
f 1333 1461 1460
f 1334 1461 1333
f 1335 1461 1334
f 1335 1462 1461
f 1336 1462 1335
f 1336 1463 1462
f 1337 1463 1336
f 1337 1464 1463
f 1338 1464 1337
f 1338 1465 1464
f 1339 1465 1338
f 1339 1466 1465
f 1340 1466 1339
f 1340 1467 1466
f 1341 1467 1340
f 1341 1468 1467
f 1342 1468 1341
f 1342 1469 1468
f 1343 1469 1342
f 1343 1470 1469
f 1343 1471 1470
f 1344 1472 1471
f 1344 1471 1343
f 1345 1472 1344
f 1346 1473 1472
f 1346 1474 1473
f 1346 1472 1345
f 1347 1475 1474
f 1347 1474 1346
f 1348 1475 1347
f 1349 1475 1348
f 1349 1476 1475
f 1350 1476 1349
f 1350 1477 1476
f 1351 1477 1350
f 1351 1478 1477
f 1352 1478 1351
f 1352 1479 1478
f 1353 1479 1352
f 1353 1480 1479
f 1354 1480 1353
f 1354 1481 1480
f 1355 1481 1354
f 1355 1482 1481
f 1356 1482 1355
f 1356 1483 1482
f 1357 1483 1356
f 1357 1484 1483
f 1358 1484 1357
f 1358 1485 1484
f 1359 1485 1358
f 1359 1486 1485
f 1360 1486 1359
f 1360 1487 1486
f 1361 1487 1360
f 1361 1488 1487
f 1362 1489 1488
f 1362 1488 1361
f 1363 1490 1489
f 1363 1489 1362
f 1364 1491 1490
f 1364 1490 1363
f 1365 1492 1491
f 1365 1491 1364
f 1366 1493 1492
f 1366 1492 1365
f 1367 1494 1493
f 1367 1493 1366
f 1368 1495 1494
f 1368 1496 1495
f 1368 1494 1367
f 1369 1496 1368
f 1370 1497 1496
f 1370 1496 1369
f 1371 1498 1497
f 1371 1499 1498
f 1371 1497 1370
f 1372 1500 1499
f 1372 1499 1371
f 1373 1500 1372
f 1374 1501 1500
f 1374 1500 1373
f 1375 1501 1374
f 1375 1502 1501
f 1376 1502 1375
f 1376 1503 1502
f 1377 1503 1376
f 1377 1504 1503
f 1378 1504 1377
f 1378 1505 1504
f 1379 1506 1505
f 1379 1507 1506
f 1379 1505 1378
f 1380 1508 1507
f 1380 1507 1379
f 1381 1508 1380
f 1382 1509 1508
f 1382 1508 1381
f 1383 1510 1509
f 1383 1509 1382
f 1384 1511 1510
f 1384 1510 1383
f 1385 1512 1511
f 1385 1513 1512
f 1385 1511 1384
f 1386 1513 1385
f 1387 1514 1513
f 1387 1513 1386
f 1388 1515 1514
f 1388 1514 1387
f 1389 1516 1515
f 1389 1515 1388
f 1390 1517 1516
f 1390 1516 1389
f 1391 1518 1517
f 1391 1517 1390
f 1392 1519 1518
f 1392 1518 1391
f 1393 1520 1519
f 1393 1519 1392
f 1394 1521 1520
f 1394 1522 1521
f 1394 1520 1393
f 1395 1522 1394
f 1396 1523 1522
f 1396 1524 1523
f 1396 1522 1395
f 1397 1524 1396
f 1398 1525 1524
f 1398 1524 1397
f 1399 1525 1398
f 1399 1526 1525
f 1400 1526 1399
f 1400 1527 1526
f 1401 1527 1400
f 1401 1528 1527
f 1402 1528 1401
f 1402 1529 1528
f 1403 1529 1402
f 1403 1530 1529
f 1404 1530 1403
f 1404 1531 1530
f 1405 1531 1404
f 1405 1532 1531
f 1406 1532 1405
f 1406 1533 1532
f 1407 1533 1406
f 1407 1534 1533
f 1408 1534 1407
f 1408 1535 1534
f 1409 1535 1408
f 1409 1536 1535
f 1410 1536 1409
f 1410 1537 1536
f 1411 1538 1537
f 1411 1537 1410
f 1412 1538 1411
f 1412 1539 1538
f 1413 1540 1539
f 1413 1539 1412
f 1542 1668 1541
f 1542 1669 1668
f 1543 1670 1669
f 1543 1671 1670
f 1543 1669 1542
f 1544 1672 1671
f 1544 1671 1543
f 1545 1673 1672
f 1545 1672 1544
f 1546 1674 1673
f 1546 1673 1545
f 1547 1675 1674
f 1547 1674 1546
f 1548 1675 1547
f 1549 1676 1675
f 1549 1677 1676
f 1549 1675 1548
f 1550 1677 1549
f 1551 1678 1677
f 1551 1677 1550
f 1552 1678 1551
f 1552 1679 1678
f 1553 1679 1552
f 1553 1680 1679
f 1553 1681 1680
f 1554 1681 1553
f 1555 1681 1554
f 1555 1682 1681
f 1556 1682 1555
f 1556 1683 1682
f 1557 1683 1556
f 1557 1684 1683
f 1558 1684 1557
f 1558 1685 1684
f 1559 1685 1558
f 1559 1686 1685
f 1560 1686 1559
f 1560 1687 1686
f 1561 1687 1560
f 1561 1688 1687
f 1562 1688 1561
f 1562 1689 1688
f 1563 1689 1562
f 1563 1690 1689
f 1563 1691 1690
f 1564 1691 1563
f 1565 1692 1691
f 1565 1693 1692
f 1565 1691 1564
f 1566 1693 1565
f 1567 1694 1693
f 1567 1693 1566
f 1568 1695 1694
f 1568 1696 1695
f 1568 1694 1567
f 1569 1696 1568
f 1570 1697 1696
f 1570 1696 1569
f 1571 1698 1697
f 1571 1699 1698
f 1571 1697 1570
f 1572 1699 1571
f 1573 1700 1699
f 1573 1701 1700
f 1573 1699 1572
f 1574 1701 1573
f 1575 1702 1701
f 1575 1703 1702
f 1575 1701 1574
f 1576 1703 1575
f 1577 1703 1576
f 1577 1704 1703
f 1578 1704 1577
f 1578 1705 1704
f 1579 1705 1578
f 1579 1706 1705
f 1580 1706 1579
f 1580 1707 1706
f 1581 1707 1580
f 1581 1708 1707
f 1582 1708 1581
f 1582 1709 1708
f 1583 1709 1582
f 1583 1710 1709
f 1583 1711 1710
f 1584 1711 1583
f 1585 1711 1584
f 1585 1712 1711
f 1585 1713 1712
f 1586 1713 1585
f 1586 1714 1713
f 1587 1714 1586
f 1587 1715 1714
f 1588 1715 1587
f 1589 1715 1588
f 1589 1716 1715
f 1590 1716 1589
f 1590 1717 1716
f 1591 1717 1590
f 1591 1718 1717
f 1592 1718 1591
f 1592 1719 1718
f 1593 1719 1592
f 1593 1720 1719
f 1594 1720 1593
f 1594 1721 1720
f 1595 1721 1594
f 1595 1722 1721
f 1596 1722 1595
f 1596 1723 1722
f 1597 1723 1596
f 1597 1724 1723
f 1597 1725 1724
f 1598 1726 1725
f 1598 1725 1597
f 1599 1726 1598
f 1600 1727 1726
f 1600 1728 1727
f 1600 1726 1599
f 1601 1729 1728
f 1601 1728 1600
f 1602 1729 1601
f 1603 1729 1602
f 1603 1730 1729
f 1604 1730 1603
f 1604 1731 1730
f 1605 1731 1604
f 1605 1732 1731
f 1606 1732 1605
f 1606 1733 1732
f 1607 1733 1606
f 1607 1734 1733
f 1608 1734 1607
f 1608 1735 1734
f 1609 1735 1608
f 1609 1736 1735
f 1610 1736 1609
f 1610 1737 1736
f 1611 1737 1610
f 1611 1738 1737
f 1612 1738 1611
f 1612 1739 1738
f 1613 1739 1612
f 1613 1740 1739
f 1614 1740 1613
f 1614 1741 1740
f 1615 1741 1614
f 1615 1742 1741
f 1616 1743 1742
f 1616 1742 1615
f 1617 1744 1743
f 1617 1743 1616
f 1618 1745 1744
f 1618 1744 1617
f 1619 1746 1745
f 1619 1745 1618
f 1620 1747 1746
f 1620 1746 1619
f 1621 1748 1747
f 1621 1747 1620
f 1622 1749 1748
f 1622 1750 1749
f 1622 1748 1621
f 1623 1750 1622
f 1624 1751 1750
f 1624 1750 1623
f 1625 1752 1751
f 1625 1753 1752
f 1625 1751 1624
f 1626 1754 1753
f 1626 1753 1625
f 1627 1754 1626
f 1628 1755 1754
f 1628 1754 1627
f 1629 1755 1628
f 1629 1756 1755
f 1630 1756 1629
f 1630 1757 1756
f 1631 1757 1630
f 1631 1758 1757
f 1632 1758 1631
f 1632 1759 1758
f 1633 1760 1759
f 1633 1761 1760
f 1633 1759 1632
f 1634 1762 1761
f 1634 1761 1633
f 1635 1762 1634
f 1636 1763 1762
f 1636 1762 1635
f 1637 1764 1763
f 1637 1763 1636
f 1638 1765 1764
f 1638 1764 1637
f 1639 1766 1765
f 1639 1767 1766
f 1639 1765 1638
f 1640 1767 1639
f 1641 1768 1767
f 1641 1767 1640
f 1642 1769 1768
f 1642 1768 1641
f 1643 1770 1769
f 1643 1769 1642
f 1644 1771 1770
f 1644 1770 1643
f 1645 1772 1771
f 1645 1771 1644
f 1646 1773 1772
f 1646 1772 1645
f 1647 1774 1773
f 1647 1773 1646
f 1648 1775 1774
f 1648 1776 1775
f 1648 1774 1647
f 1649 1776 1648
f 1650 1777 1776
f 1650 1778 1777
f 1650 1776 1649
f 1651 1778 1650
f 1652 1779 1778
f 1652 1778 1651
f 1653 1779 1652
f 1653 1780 1779
f 1654 1780 1653
f 1654 1781 1780
f 1655 1781 1654
f 1655 1782 1781
f 1656 1782 1655
f 1656 1783 1782
f 1657 1783 1656
f 1657 1784 1783
f 1658 1784 1657
f 1658 1785 1784
f 1659 1785 1658
f 1659 1786 1785
f 1660 1786 1659
f 1660 1787 1786
f 1661 1787 1660
f 1661 1788 1787
f 1662 1788 1661
f 1662 1789 1788
f 1663 1789 1662
f 1663 1790 1789
f 1664 1790 1663
f 1664 1791 1790
f 1665 1792 1791
f 1665 1791 1664
f 1666 1792 1665
f 1666 1793 1792
f 1667 1794 1793
f 1667 1793 1666
f 1796 1922 1795
f 1796 1923 1922
f 1797 1924 1923
f 1797 1925 1924
f 1797 1923 1796
f 1798 1926 1925
f 1798 1925 1797
f 1799 1927 1926
f 1799 1926 1798
f 1800 1928 1927
f 1800 1927 1799
f 1801 1929 1928
f 1801 1928 1800
f 1802 1929 1801
f 1803 1930 1929
f 1803 1931 1930
f 1803 1929 1802
f 1804 1931 1803
f 1805 1932 1931
f 1805 1931 1804
f 1806 1932 1805
f 1806 1933 1932
f 1807 1933 1806
f 1807 1934 1933
f 1807 1935 1934
f 1808 1935 1807
f 1809 1935 1808
f 1809 1936 1935
f 1810 1936 1809
f 1810 1937 1936
f 1811 1937 1810
f 1811 1938 1937
f 1812 1938 1811
f 1812 1939 1938
f 1813 1939 1812
f 1813 1940 1939
f 1814 1940 1813
f 1814 1941 1940
f 1815 1941 1814
f 1815 1942 1941
f 1816 1942 1815
f 1816 1943 1942
f 1817 1943 1816
f 1817 1944 1943
f 1817 1945 1944
f 1818 1945 1817
f 1819 1946 1945
f 1819 1947 1946
f 1819 1945 1818
f 1820 1947 1819
f 1821 1948 1947
f 1821 1947 1820
f 1822 1949 1948
f 1822 1950 1949
f 1822 1948 1821
f 1823 1950 1822
f 1824 1951 1950
f 1824 1950 1823
f 1825 1952 1951
f 1825 1953 1952
f 1825 1951 1824
f 1826 1953 1825
f 1827 1954 1953
f 1827 1955 1954
f 1827 1953 1826
f 1828 1955 1827
f 1829 1956 1955
f 1829 1957 1956
f 1829 1955 1828
f 1830 1957 1829
f 1831 1957 1830
f 1831 1958 1957
f 1832 1958 1831
f 1832 1959 1958
f 1833 1959 1832
f 1833 1960 1959
f 1834 1960 1833
f 1834 1961 1960
f 1835 1961 1834
f 1835 1962 1961
f 1836 1962 1835
f 1836 1963 1962
f 1837 1963 1836
f 1837 1964 1963
f 1837 1965 1964
f 1838 1965 1837
f 1839 1965 1838
f 1839 1966 1965
f 1839 1967 1966
f 1840 1967 1839
f 1840 1968 1967
f 1841 1968 1840
f 1841 1969 1968
f 1842 1969 1841
f 1843 1969 1842
f 1843 1970 1969
f 1844 1970 1843
f 1844 1971 1970
f 1845 1971 1844
f 1845 1972 1971
f 1846 1972 1845
f 1846 1973 1972
f 1847 1973 1846
f 1847 1974 1973
f 1848 1974 1847
f 1848 1975 1974
f 1849 1975 1848
f 1849 1976 1975
f 1850 1976 1849
f 1850 1977 1976
f 1851 1977 1850
f 1851 1978 1977
f 1851 1979 1978
f 1852 1980 1979
f 1852 1979 1851
f 1853 1980 1852
f 1854 1981 1980
f 1854 1982 1981
f 1854 1980 1853
f 1855 1983 1982
f 1855 1982 1854
f 1856 1983 1855
f 1857 1983 1856
f 1857 1984 1983
f 1858 1984 1857
f 1858 1985 1984
f 1859 1985 1858
f 1859 1986 1985
f 1860 1986 1859
f 1860 1987 1986
f 1861 1987 1860
f 1861 1988 1987
f 1862 1988 1861
f 1862 1989 1988
f 1863 1989 1862
f 1863 1990 1989
f 1864 1990 1863
f 1864 1991 1990
f 1865 1991 1864
f 1865 1992 1991
f 1866 1992 1865
f 1866 1993 1992
f 1867 1993 1866
f 1867 1994 1993
f 1868 1994 1867
f 1868 1995 1994
f 1869 1995 1868
f 1869 1996 1995
f 1870 1997 1996
f 1870 1996 1869
f 1871 1998 1997
f 1871 1997 1870
f 1872 1999 1998
f 1872 1998 1871
f 1873 2000 1999
f 1873 1999 1872
f 1874 2001 2000
f 1874 2000 1873
f 1875 2002 2001
f 1875 2001 1874
f 1876 2003 2002
f 1876 2004 2003
f 1876 2002 1875
f 1877 2004 1876
f 1878 2005 2004
f 1878 2004 1877
f 1879 2006 2005
f 1879 2007 2006
f 1879 2005 1878
f 1880 2008 2007
f 1880 2007 1879
f 1881 2008 1880
f 1882 2009 2008
f 1882 2008 1881
f 1883 2009 1882
f 1883 2010 2009
f 1884 2010 1883
f 1884 2011 2010
f 1885 2011 1884
f 1885 2012 2011
f 1886 2012 1885
f 1886 2013 2012
f 1887 2014 2013
f 1887 2015 2014
f 1887 2013 1886
f 1888 2016 2015
f 1888 2015 1887
f 1889 2016 1888
f 1890 2017 2016
f 1890 2016 1889
f 1891 2018 2017
f 1891 2017 1890
f 1892 2019 2018
f 1892 2018 1891
f 1893 2020 2019
f 1893 2021 2020
f 1893 2019 1892
f 1894 2021 1893
f 1895 2022 2021
f 1895 2021 1894
f 1896 2023 2022
f 1896 2022 1895
f 1897 2024 2023
f 1897 2023 1896
f 1898 2025 2024
f 1898 2024 1897
f 1899 2026 2025
f 1899 2025 1898
f 1900 2027 2026
f 1900 2026 1899
f 1901 2028 2027
f 1901 2027 1900
f 1902 2029 2028
f 1902 2030 2029
f 1902 2028 1901
f 1903 2030 1902
f 1904 2031 2030
f 1904 2032 2031
f 1904 2030 1903
f 1905 2032 1904
f 1906 2033 2032
f 1906 2032 1905
f 1907 2033 1906
f 1907 2034 2033
f 1908 2034 1907
f 1908 2035 2034
f 1909 2035 1908
f 1909 2036 2035
f 1910 2036 1909
f 1910 2037 2036
f 1911 2037 1910
f 1911 2038 2037
f 1912 2038 1911
f 1912 2039 2038
f 1913 2039 1912
f 1913 2040 2039
f 1914 2040 1913
f 1914 2041 2040
f 1915 2041 1914
f 1915 2042 2041
f 1916 2042 1915
f 1916 2043 2042
f 1917 2043 1916
f 1917 2044 2043
f 1918 2044 1917
f 1918 2045 2044
f 1919 2046 2045
f 1919 2045 1918
f 1920 2046 1919
f 1920 2047 2046
f 1921 2048 2047
f 1921 2047 1920
