# Cadless export: model
v -150 -80 220
v -150 80 220
v -150 -80 0
v -150 -60 0
v -150 -60 90
v -150 60 90
v -150 60 0
v -150 80 0
v -150 -80 220
v -150 80 220
v 150 -80 220
v 150 80 220
v -150 80 0
v 150 80 0
v -150 80 220
v 150 80 220
v -150 60 0
v -150 80 0
v 150 60 0
v 150 80 0
v -150 60 90
v 150 60 90
v 150 60 0
v -150 60 0
v -150 60 90
v 150 60 90
v -150 -60 90
v 150 -60 90
v -150 -60 90
v 150 -60 90
v 150 -60 0
v -150 -60 0
v -150 -80 0
v -150 -60 0
v 150 -80 0
v 150 -60 0
v -150 -80 0
v 150 -80 0
v -150 -80 220
v 150 -80 220
v 150 -80 220
v 150 80 220
v 150 -80 0
v 150 -60 0
v 150 -60 90
v 150 60 90
v 150 60 0
v 150 80 0
f 6 8 7
f 2 8 6
f 5 4 3
f 1 6 5
f 1 2 6
f 1 5 3
f 12 10 9
f 12 9 11
f 16 14 13
f 16 13 15
f 19 17 18
f 20 19 18
f 23 21 24
f 22 21 23
f 28 27 25
f 26 28 25
f 31 32 29
f 30 31 29
f 35 33 34
f 36 35 34
f 40 37 38
f 40 39 37
f 46 47 48
f 42 46 48
f 45 43 44
f 41 45 46
f 41 46 42
f 41 43 45
