# Cadless export: model
v 0 0 0
v 0 0 50
v 0 60 0
v 0 60 8
v 0 8 8
v 0 8 50
v 0 0 50
v 0 8 50
v 80 0 50
v 80 8 50
v 80 0 0
v 80 0 50
v 80 60 0
v 80 60 8
v 80 8 8
v 80 8 50
v 80 8 8
v 80 8 50
v 0 8 8
v 0 8 50
v 0 8 8
v 0 60 8
v 80 8 8
v 80 60 8
v 0 60 0
v 80 60 0
v 0 60 8
v 80 60 8
v 0 0 0
v 80 0 0
v 80 60 0
v 0 60 0
v 0 0 0
v 80 0 0
v 0 0 50
v 80 0 50
f 5 3 1
f 5 4 3
f 2 6 5
f 2 5 1
f 9 8 7
f 10 8 9
f 15 11 13
f 15 13 14
f 12 15 16
f 12 11 15
f 18 17 19
f 18 19 20
f 24 22 21
f 24 21 23
f 26 25 27
f 28 26 27
f 31 30 29
f 31 29 32
f 36 33 34
f 36 35 33
