# Cadless export: model
v 35 0 18.5
v 35 -8.57253e-15 25
v 35 -8.57253e-15 25
v 34.9565 1.74461 25
v 34.8261 3.48487 25
v 34.6091 5.21648 25
v 34.306 6.93512 25
v 33.9177 8.63651 25
v 33.445 10.3164 25
v 32.8892 11.9707 25
v 32.2517 13.5952 25
v 31.5339 15.1859 25
v 30.7378 16.7389 25
v 29.8652 18.2502 25
v 28.9184 19.7162 25
v 27.8996 21.1332 25
v 26.8116 22.4976 25
v 25.6568 23.806 25
v 24.4383 25.0553 25
v 23.159 26.2423 25
v 21.8221 27.3641 25
v 20.431 28.4178 25
v 18.9891 29.4009 25
v 17.5 30.3109 25
v 15.9674 31.1455 25
v 14.395 31.9027 25
v 12.7869 32.5806 25
v 11.147 33.1775 25
v 9.47942 33.6918 25
v 7.78823 34.1225 25
v 6.07769 34.4683 25
v 4.35203 34.7284 25
v 2.61555 34.9021 25
v 0.872574 34.9891 25
v -0.872574 34.9891 25
v -2.61555 34.9021 25
v -4.35203 34.7284 25
v -6.07769 34.4683 25
v -7.78823 34.1225 25
v -9.47942 33.6918 25
v -11.147 33.1775 25
v -12.7869 32.5806 25
v -14.395 31.9027 25
v -15.9674 31.1455 25
v -17.5 30.3109 25
v -18.9891 29.4009 25
v -20.431 28.4178 25
v -21.8221 27.3641 25
v -23.159 26.2423 25
v -24.4383 25.0553 25
v -25.6568 23.806 25
v -26.8116 22.4976 25
v -27.8996 21.1332 25
v -28.9184 19.7162 25
v -29.8652 18.2502 25
v -30.7378 16.7389 25
v -31.5339 15.1859 25
v -32.2517 13.5952 25
v -32.8892 11.9707 25
v -33.445 10.3164 25
v -33.9177 8.63651 25
v -34.306 6.93512 25
v -34.6091 5.21648 25
v -34.8261 3.48487 25
v -34.9565 1.74461 25
v -35 -1.20059e-13 25
v -34.9565 -1.74461 25
v -34.8261 -3.48487 25
v -34.6091 -5.21648 25
v -34.306 -6.93512 25
v -33.9177 -8.63651 25
v -33.445 -10.3164 25
v -32.8892 -11.9707 25
v -32.2517 -13.5952 25
v -31.5339 -15.1859 25
v -30.7378 -16.7389 25
v -29.8652 -18.2502 25
v -28.9184 -19.7162 25
v -27.8996 -21.1332 25
v -26.8116 -22.4976 25
v -25.6568 -23.806 25
v -24.4383 -25.0553 25
v -23.159 -26.2423 25
v -21.8221 -27.3641 25
v -20.431 -28.4178 25
v -18.9891 -29.4009 25
v -17.5 -30.3109 25
v -15.9674 -31.1455 25
v -14.395 -31.9027 25
v -12.7869 -32.5806 25
v -11.147 -33.1775 25
v -9.47942 -33.6918 25
v -7.78823 -34.1225 25
v -6.07769 -34.4683 25
v -4.35203 -34.7284 25
v -2.61555 -34.9021 25
v -0.872574 -34.9891 25
v 0.872574 -34.9891 25
v 2.61555 -34.9021 25
v 4.35203 -34.7284 25
v 6.07769 -34.4683 25
v 7.78823 -34.1225 25
v 9.47942 -33.6918 25
v 11.147 -33.1775 25
v 12.7869 -32.5806 25
v 14.395 -31.9027 25
v 15.9674 -31.1455 25
v 17.5 -30.3109 25
v 18.9891 -29.4009 25
v 20.431 -28.4178 25
v 21.8221 -27.3641 25
v 23.159 -26.2423 25
v 24.4383 -25.0553 25
v 25.6568 -23.806 25
v 26.8116 -22.4976 25
v 27.8996 -21.1332 25
v 28.9184 -19.7162 25
v 29.8652 -18.2502 25
v 30.7378 -16.7389 25
v 31.5339 -15.1859 25
v 32.2517 -13.5952 25
v 32.8892 -11.9707 25
v 33.445 -10.3164 25
v 33.9177 -8.63651 25
v 34.306 -6.93512 25
v 34.6091 -5.21648 25
v 34.8261 -3.48487 25
v 34.9565 -1.74461 25
v 35 0 18.5
v 34.9565 1.74461 18.5
v 34.8261 3.48487 18.5
v 34.6091 5.21648 18.5
v 34.306 6.93512 18.5
v 33.9177 8.63651 18.5
v 33.445 10.3164 18.5
v 32.8892 11.9707 18.5
v 32.2517 13.5952 18.5
v 31.5339 15.1859 18.5
v 30.7378 16.7389 18.5
v 29.8652 18.2502 18.5
v 28.9184 19.7162 18.5
v 27.8996 21.1332 18.5
v 26.8116 22.4976 18.5
v 25.6568 23.806 18.5
v 24.4383 25.0553 18.5
v 23.159 26.2423 18.5
v 21.8221 27.3641 18.5
v 20.431 28.4178 18.5
v 18.9891 29.4009 18.5
v 17.5 30.3109 18.5
v 15.9674 31.1455 18.5
v 14.395 31.9027 18.5
v 12.7869 32.5806 18.5
v 11.147 33.1775 18.5
v 9.47942 33.6918 18.5
v 7.78823 34.1225 18.5
v 6.07769 34.4683 18.5
v 4.35203 34.7284 18.5
v 2.61555 34.9021 18.5
v 0.872574 34.9891 18.5
v -0.872574 34.9891 18.5
v -2.61555 34.9021 18.5
v -4.35203 34.7284 18.5
v -6.07769 34.4683 18.5
v -7.78823 34.1225 18.5
v -9.47942 33.6918 18.5
v -11.147 33.1775 18.5
v -12.7869 32.5806 18.5
v -14.395 31.9027 18.5
v -15.9674 31.1455 18.5
v -17.5 30.3109 18.5
v -18.9891 29.4009 18.5
v -20.431 28.4178 18.5
v -21.8221 27.3641 18.5
v -23.159 26.2423 18.5
v -24.4383 25.0553 18.5
v -25.6568 23.806 18.5
v -26.8116 22.4976 18.5
v -27.8996 21.1332 18.5
v -28.9184 19.7162 18.5
v -29.8652 18.2502 18.5
v -30.7378 16.7389 18.5
v -31.5339 15.1859 18.5
v -32.2517 13.5952 18.5
v -32.8892 11.9707 18.5
v -33.445 10.3164 18.5
v -33.9177 8.63651 18.5
v -34.306 6.93512 18.5
v -34.6091 5.21648 18.5
v -34.8261 3.48487 18.5
v -34.9565 1.74461 18.5
v -35 -1.20059e-13 18.5
v -34.9565 -1.74461 18.5
v -34.8261 -3.48487 18.5
v -34.6091 -5.21648 18.5
v -34.306 -6.93512 18.5
v -33.9177 -8.63651 18.5
v -33.445 -10.3164 18.5
v -32.8892 -11.9707 18.5
v -32.2517 -13.5952 18.5
v -31.5339 -15.1859 18.5
v -30.7378 -16.7389 18.5
v -29.8652 -18.2502 18.5
v -28.9184 -19.7162 18.5
v -27.8996 -21.1332 18.5
v -26.8116 -22.4976 18.5
v -25.6568 -23.806 18.5
v -24.4383 -25.0553 18.5
v -23.159 -26.2423 18.5
v -21.8221 -27.3641 18.5
v -20.431 -28.4178 18.5
v -18.9891 -29.4009 18.5
v -17.5 -30.3109 18.5
v -15.9674 -31.1455 18.5
v -14.395 -31.9027 18.5
v -12.7869 -32.5806 18.5
v -11.147 -33.1775 18.5
v -9.47942 -33.6918 18.5
v -7.78823 -34.1225 18.5
v -6.07769 -34.4683 18.5
v -4.35203 -34.7284 18.5
v -2.61555 -34.9021 18.5
v -0.872574 -34.9891 18.5
v 0.872574 -34.9891 18.5
v 2.61555 -34.9021 18.5
v 4.35203 -34.7284 18.5
v 6.07769 -34.4683 18.5
v 7.78823 -34.1225 18.5
v 9.47942 -33.6918 18.5
v 11.147 -33.1775 18.5
v 12.7869 -32.5806 18.5
v 14.395 -31.9027 18.5
v 15.9674 -31.1455 18.5
v 17.5 -30.3109 18.5
v 18.9891 -29.4009 18.5
v 20.431 -28.4178 18.5
v 21.8221 -27.3641 18.5
v 23.159 -26.2423 18.5
v 24.4383 -25.0553 18.5
v 25.6568 -23.806 18.5
v 26.8116 -22.4976 18.5
v 27.8996 -21.1332 18.5
v 28.9184 -19.7162 18.5
v 29.8652 -18.2502 18.5
v 30.7378 -16.7389 18.5
v 31.5339 -15.1859 18.5
v 32.2517 -13.5952 18.5
v 32.8892 -11.9707 18.5
v 33.445 -10.3164 18.5
v 33.9177 -8.63651 18.5
v 34.306 -6.93512 18.5
v 34.6091 -5.21648 18.5
v 34.8261 -3.48487 18.5
v 34.9565 -1.74461 18.5
v 35 0 18.5
v 34.9565 1.74461 18.5
v 34.8261 3.48487 18.5
v 34.6091 5.21648 18.5
v 34.306 6.93512 18.5
v 33.9177 8.63651 18.5
v 33.445 10.3164 18.5
v 32.8892 11.9707 18.5
v 32.2517 13.5952 18.5
v 31.5339 15.1859 18.5
v 30.7378 16.7389 18.5
v 29.8652 18.2502 18.5
v 28.9184 19.7162 18.5
v 27.8996 21.1332 18.5
v 26.8116 22.4976 18.5
v 25.6568 23.806 18.5
v 24.4383 25.0553 18.5
v 23.159 26.2423 18.5
v 21.8221 27.3641 18.5
v 20.431 28.4178 18.5
v 18.9891 29.4009 18.5
v 17.5 30.3109 18.5
v 15.9674 31.1455 18.5
v 14.395 31.9027 18.5
v 12.7869 32.5806 18.5
v 11.147 33.1775 18.5
v 9.47942 33.6918 18.5
v 7.78823 34.1225 18.5
v 6.07769 34.4683 18.5
v 4.35203 34.7284 18.5
v 2.61555 34.9021 18.5
v 0.872574 34.9891 18.5
v -0.872574 34.9891 18.5
v -2.61555 34.9021 18.5
v -4.35203 34.7284 18.5
v -6.07769 34.4683 18.5
v -7.78823 34.1225 18.5
v -9.47942 33.6918 18.5
v -11.147 33.1775 18.5
v -12.7869 32.5806 18.5
v -14.395 31.9027 18.5
v -15.9674 31.1455 18.5
v -17.5 30.3109 18.5
v -18.9891 29.4009 18.5
v -20.431 28.4178 18.5
v -21.8221 27.3641 18.5
v -23.159 26.2423 18.5
v -24.4383 25.0553 18.5
v -25.6568 23.806 18.5
v -26.8116 22.4976 18.5
v -27.8996 21.1332 18.5
v -28.9184 19.7162 18.5
v -29.8652 18.2502 18.5
v -30.7378 16.7389 18.5
v -31.5339 15.1859 18.5
v -32.2517 13.5952 18.5
v -32.8892 11.9707 18.5
v -33.445 10.3164 18.5
v -33.9177 8.63651 18.5
v -34.306 6.93512 18.5
v -34.6091 5.21648 18.5
v -34.8261 3.48487 18.5
v -34.9565 1.74461 18.5
v -35 -1.20059e-13 18.5
v -34.9565 -1.74461 18.5
v -34.8261 -3.48487 18.5
v -34.6091 -5.21648 18.5
v -34.306 -6.93512 18.5
v -33.9177 -8.63651 18.5
v -33.445 -10.3164 18.5
v -32.8892 -11.9707 18.5
v -32.2517 -13.5952 18.5
v -31.5339 -15.1859 18.5
v -30.7378 -16.7389 18.5
v -29.8652 -18.2502 18.5
v -28.9184 -19.7162 18.5
v -27.8996 -21.1332 18.5
v -26.8116 -22.4976 18.5
v -25.6568 -23.806 18.5
v -24.4383 -25.0553 18.5
v -23.159 -26.2423 18.5
v -21.8221 -27.3641 18.5
v -20.431 -28.4178 18.5
v -18.9891 -29.4009 18.5
v -17.5 -30.3109 18.5
v -15.9674 -31.1455 18.5
v -14.395 -31.9027 18.5
v -12.7869 -32.5806 18.5
v -11.147 -33.1775 18.5
v -9.47942 -33.6918 18.5
v -7.78823 -34.1225 18.5
v -6.07769 -34.4683 18.5
v -4.35203 -34.7284 18.5
v -2.61555 -34.9021 18.5
v -0.872574 -34.9891 18.5
v 0.872574 -34.9891 18.5
v 2.61555 -34.9021 18.5
v 4.35203 -34.7284 18.5
v 6.07769 -34.4683 18.5
v 7.78823 -34.1225 18.5
v 9.47942 -33.6918 18.5
v 11.147 -33.1775 18.5
v 12.7869 -32.5806 18.5
v 14.395 -31.9027 18.5
v 15.9674 -31.1455 18.5
v 17.5 -30.3109 18.5
v 18.9891 -29.4009 18.5
v 20.431 -28.4178 18.5
v 21.8221 -27.3641 18.5
v 23.159 -26.2423 18.5
v 24.4383 -25.0553 18.5
v 25.6568 -23.806 18.5
v 26.8116 -22.4976 18.5
v 27.8996 -21.1332 18.5
v 28.9184 -19.7162 18.5
v 29.8652 -18.2502 18.5
v 30.7378 -16.7389 18.5
v 31.5339 -15.1859 18.5
v 32.2517 -13.5952 18.5
v 32.8892 -11.9707 18.5
v 33.445 -10.3164 18.5
v 33.9177 -8.63651 18.5
v 34.306 -6.93512 18.5
v 34.6091 -5.21648 18.5
v 34.8261 -3.48487 18.5
v 34.9565 -1.74461 18.5
v 35 0 18.5
v 31.6667 0 16.5
v 28.3333 0 14.5
v 25 0 12.5
v 25 0 12.5
v 24.9689 1.24615 12.5
v 24.8758 2.4892 12.5
v 24.7208 3.72606 12.5
v 24.5043 4.95365 12.5
v 24.2269 6.16893 12.5
v 23.8893 7.36888 12.5
v 23.4923 8.5505 12.5
v 23.0369 9.71087 12.5
v 22.5242 10.8471 12.5
v 21.9555 11.9563 12.5
v 21.3323 13.0359 12.5
v 20.656 14.083 12.5
v 19.9283 15.0951 12.5
v 19.1511 16.0697 12.5
v 18.3263 17.0043 12.5
v 17.4559 17.8967 12.5
v 16.5421 18.7445 12.5
v 15.5872 19.5458 12.5
v 14.5936 20.2985 12.5
v 13.5637 21.0006 12.5
v 12.5 21.6506 12.5
v 11.4053 22.2468 12.5
v 10.2822 22.7876 12.5
v 9.13353 23.2718 12.5
v 7.96217 23.6982 12.5
v 6.77101 24.0656 12.5
v 5.56302 24.3732 12.5
v 4.3412 24.6202 12.5
v 3.10859 24.806 12.5
v 1.86825 24.9301 12.5
v 0.623267 24.9922 12.5
v -0.623267 24.9922 12.5
v -1.86825 24.9301 12.5
v -3.10859 24.806 12.5
v -4.3412 24.6202 12.5
v -5.56302 24.3732 12.5
v -6.77101 24.0656 12.5
v -7.96217 23.6982 12.5
v -9.13353 23.2718 12.5
v -10.2822 22.7876 12.5
v -11.4053 22.2468 12.5
v -12.5 21.6506 12.5
v -13.5637 21.0006 12.5
v -14.5936 20.2985 12.5
v -15.5872 19.5458 12.5
v -16.5421 18.7445 12.5
v -17.4559 17.8967 12.5
v -18.3263 17.0043 12.5
v -19.1511 16.0697 12.5
v -19.9283 15.0951 12.5
v -20.656 14.083 12.5
v -21.3323 13.0359 12.5
v -21.9555 11.9563 12.5
v -22.5242 10.8471 12.5
v -23.0369 9.71087 12.5
v -23.4923 8.5505 12.5
v -23.8893 7.36888 12.5
v -24.2269 6.16893 12.5
v -24.5043 4.95365 12.5
v -24.7208 3.72606 12.5
v -24.8758 2.4892 12.5
v -24.9689 1.24615 12.5
v -25 -8.57562e-14 12.5
v -24.9689 -1.24615 12.5
v -24.8758 -2.4892 12.5
v -24.7208 -3.72606 12.5
v -24.5043 -4.95365 12.5
v -24.2269 -6.16893 12.5
v -23.8893 -7.36888 12.5
v -23.4923 -8.5505 12.5
v -23.0369 -9.71087 12.5
v -22.5242 -10.8471 12.5
v -21.9555 -11.9563 12.5
v -21.3323 -13.0359 12.5
v -20.656 -14.083 12.5
v -19.9283 -15.0951 12.5
v -19.1511 -16.0697 12.5
v -18.3263 -17.0043 12.5
v -17.4559 -17.8967 12.5
v -16.5421 -18.7445 12.5
v -15.5872 -19.5458 12.5
v -14.5936 -20.2985 12.5
v -13.5637 -21.0006 12.5
v -12.5 -21.6506 12.5
v -11.4053 -22.2468 12.5
v -10.2822 -22.7876 12.5
v -9.13353 -23.2718 12.5
v -7.96217 -23.6982 12.5
v -6.77101 -24.0656 12.5
v -5.56302 -24.3732 12.5
v -4.3412 -24.6202 12.5
v -3.10859 -24.806 12.5
v -1.86825 -24.9301 12.5
v -0.623267 -24.9922 12.5
v 0.623267 -24.9922 12.5
v 1.86825 -24.9301 12.5
v 3.10859 -24.806 12.5
v 4.3412 -24.6202 12.5
v 5.56302 -24.3732 12.5
v 6.77101 -24.0656 12.5
v 7.96217 -23.6982 12.5
v 9.13353 -23.2718 12.5
v 10.2822 -22.7876 12.5
v 11.4053 -22.2468 12.5
v 12.5 -21.6506 12.5
v 13.5637 -21.0006 12.5
v 14.5936 -20.2985 12.5
v 15.5872 -19.5458 12.5
v 16.5421 -18.7445 12.5
v 17.4559 -17.8967 12.5
v 18.3263 -17.0043 12.5
v 19.1511 -16.0697 12.5
v 19.9283 -15.0951 12.5
v 20.656 -14.083 12.5
v 21.3323 -13.0359 12.5
v 21.9555 -11.9563 12.5
v 22.5242 -10.8471 12.5
v 23.0369 -9.71087 12.5
v 23.4923 -8.5505 12.5
v 23.8893 -7.36888 12.5
v 24.2269 -6.16893 12.5
v 24.5043 -4.95365 12.5
v 24.7208 -3.72606 12.5
v 24.8758 -2.4892 12.5
v 24.9689 -1.24615 12.5
v 31.6667 0 16.5
v 28.3333 0 14.5
v 27.7716 -5.61414 14.5
v 27.0746 -8.3514 14.5
v 30.2598 -9.33391 16.5
v 28.1925 -2.82109 14.5
v 31.0388 -6.27463 16.5
v 31.5093 -3.15298 16.5
v 31.5093 3.15298 16.5
v 31.0388 6.27463 16.5
v 28.1925 2.82109 14.5
v 30.2598 9.33391 16.5
v 27.7716 5.61414 14.5
v 29.1801 12.3004 16.5
v 27.0746 8.3514 14.5
v 27.8103 15.1447 16.5
v 26.1085 11.0057 14.5
v 26.1642 17.8385 16.5
v 24.8829 13.5505 14.5
v 24.2581 20.3549 16.5
v 23.4101 15.9607 14.5
v 22.1108 22.6691 16.5
v 21.7046 18.2123 14.5
v 19.7438 24.758 16.5
v 19.7834 20.2829 14.5
v 17.1806 26.6008 16.5
v 17.6655 22.1519 14.5
v 14.4467 28.1793 16.5
v 15.3721 23.8007 14.5
v 11.5691 29.4777 16.5
v 12.926 25.213 14.5
v 8.57661 30.4831 16.5
v 10.3513 26.3748 14.5
v 5.49886 31.1856 16.5
v 7.67381 27.2744 14.5
v 2.36645 31.5781 16.5
v 4.92003 27.9029 14.5
v -0.789472 31.6568 16.5
v 2.11735 28.2541 14.5
v -3.93755 31.4209 16.5
v -0.70637 28.3245 14.5
v -7.0465 30.8727 16.5
v -3.52307 28.1134 14.5
v -10.0854 30.0177 16.5
v -6.30476 27.623 14.5
v -13.0241 28.8644 16.5
v -9.02379 26.8579 14.5
v -15.8333 27.4241 16.5
v -11.6531 25.826 14.5
v -18.4852 25.7114 16.5
v -14.1667 24.5374 14.5
v -20.9534 23.7431 16.5
v -16.5394 23.0049 14.5
v -23.2133 21.5388 16.5
v -18.7478 21.2438 14.5
v -25.2425 19.1205 16.5
v -20.7698 19.2716 14.5
v -27.0209 16.5121 16.5
v -22.5854 17.1078 14.5
v -28.5307 13.7397 16.5
v -24.1766 14.774 14.5
v -29.7569 10.8306 16.5
v -25.5275 12.2934 14.5
v -30.6874 7.81398 16.5
v -26.6246 9.69057 14.5
v -31.313 4.71967 16.5
v -27.4572 6.99146 14.5
v -31.6273 1.57845 16.5
v -28.0169 4.22286 14.5
v -31.6273 -1.57845 16.5
v -28.2981 1.4123 14.5
v -31.313 -4.71967 16.5
v -28.2981 -1.4123 14.5
v -30.6874 -7.81398 16.5
v -28.0169 -4.22286 14.5
v -29.7569 -10.8306 16.5
v -27.4572 -6.99146 14.5
v -28.5307 -13.7397 16.5
v -26.6246 -9.69057 14.5
v -27.0209 -16.5121 16.5
v -25.5275 -12.2934 14.5
v -25.2425 -19.1205 16.5
v -24.1766 -14.774 14.5
v -23.2133 -21.5388 16.5
v -22.5854 -17.1078 14.5
v -20.9534 -23.7431 16.5
v -20.7698 -19.2716 14.5
v -18.4852 -25.7114 16.5
v -18.7478 -21.2438 14.5
v -15.8333 -27.4241 16.5
v -16.5394 -23.0049 14.5
v -13.0241 -28.8644 16.5
v -14.1667 -24.5374 14.5
v -10.0854 -30.0177 16.5
v -11.6531 -25.826 14.5
v -7.0465 -30.8727 16.5
v -9.02379 -26.8579 14.5
v -3.93755 -31.4209 16.5
v -6.30476 -27.623 14.5
v -0.789472 -31.6568 16.5
v -3.52307 -28.1134 14.5
v 2.36645 -31.5781 16.5
v -0.70637 -28.3245 14.5
v 5.49886 -31.1856 16.5
v 2.11735 -28.2541 14.5
v 8.57661 -30.4831 16.5
v 4.92003 -27.9029 14.5
v 11.5691 -29.4777 16.5
v 7.67381 -27.2744 14.5
v 14.4467 -28.1793 16.5
v 10.3513 -26.3748 14.5
v 17.1806 -26.6008 16.5
v 12.926 -25.213 14.5
v 19.7438 -24.758 16.5
v 15.3721 -23.8007 14.5
v 22.1108 -22.6691 16.5
v 17.6655 -22.1519 14.5
v 24.2581 -20.3549 16.5
v 19.7834 -20.2829 14.5
v 26.1642 -17.8385 16.5
v 21.7046 -18.2123 14.5
v 27.8103 -15.1447 16.5
v 23.4101 -15.9607 14.5
v 29.1801 -12.3004 16.5
v 24.8829 -13.5505 14.5
v 26.1085 -11.0057 14.5
v 35 -8.57253e-15 25
v 34.9565 1.74461 25
v 34.8261 3.48487 25
v 34.6091 5.21648 25
v 34.306 6.93512 25
v 33.9177 8.63651 25
v 33.445 10.3164 25
v 32.8892 11.9707 25
v 32.2517 13.5952 25
v 31.5339 15.1859 25
v 30.7378 16.7389 25
v 29.8652 18.2502 25
v 28.9184 19.7162 25
v 27.8996 21.1332 25
v 26.8116 22.4976 25
v 25.6568 23.806 25
v 24.4383 25.0553 25
v 23.159 26.2423 25
v 21.8221 27.3641 25
v 20.431 28.4178 25
v 18.9891 29.4009 25
v 17.5 30.3109 25
v 15.9674 31.1455 25
v 14.395 31.9027 25
v 12.7869 32.5806 25
v 11.147 33.1775 25
v 9.47942 33.6918 25
v 7.78823 34.1225 25
v 6.07769 34.4683 25
v 4.35203 34.7284 25
v 2.61555 34.9021 25
v 0.872574 34.9891 25
v -0.872574 34.9891 25
v -2.61555 34.9021 25
v -4.35203 34.7284 25
v -6.07769 34.4683 25
v -7.78823 34.1225 25
v -9.47942 33.6918 25
v -11.147 33.1775 25
v -12.7869 32.5806 25
v -14.395 31.9027 25
v -15.9674 31.1455 25
v -17.5 30.3109 25
v -18.9891 29.4009 25
v -20.431 28.4178 25
v -21.8221 27.3641 25
v -23.159 26.2423 25
v -24.4383 25.0553 25
v -25.6568 23.806 25
v -26.8116 22.4976 25
v -27.8996 21.1332 25
v -28.9184 19.7162 25
v -29.8652 18.2502 25
v -30.7378 16.7389 25
v -31.5339 15.1859 25
v -32.2517 13.5952 25
v -32.8892 11.9707 25
v -33.445 10.3164 25
v -33.9177 8.63651 25
v -34.306 6.93512 25
v -34.6091 5.21648 25
v -34.8261 3.48487 25
v -34.9565 1.74461 25
v -35 -1.20059e-13 25
v -34.9565 -1.74461 25
v -34.8261 -3.48487 25
v -34.6091 -5.21648 25
v -34.306 -6.93512 25
v -33.9177 -8.63651 25
v -33.445 -10.3164 25
v -32.8892 -11.9707 25
v -32.2517 -13.5952 25
v -31.5339 -15.1859 25
v -30.7378 -16.7389 25
v -29.8652 -18.2502 25
v -28.9184 -19.7162 25
v -27.8996 -21.1332 25
v -26.8116 -22.4976 25
v -25.6568 -23.806 25
v -24.4383 -25.0553 25
v -23.159 -26.2423 25
v -21.8221 -27.3641 25
v -20.431 -28.4178 25
v -18.9891 -29.4009 25
v -17.5 -30.3109 25
v -15.9674 -31.1455 25
v -14.395 -31.9027 25
v -12.7869 -32.5806 25
v -11.147 -33.1775 25
v -9.47942 -33.6918 25
v -7.78823 -34.1225 25
v -6.07769 -34.4683 25
v -4.35203 -34.7284 25
v -2.61555 -34.9021 25
v -0.872574 -34.9891 25
v 0.872574 -34.9891 25
v 2.61555 -34.9021 25
v 4.35203 -34.7284 25
v 6.07769 -34.4683 25
v 7.78823 -34.1225 25
v 9.47942 -33.6918 25
v 11.147 -33.1775 25
v 12.7869 -32.5806 25
v 14.395 -31.9027 25
v 15.9674 -31.1455 25
v 17.5 -30.3109 25
v 18.9891 -29.4009 25
v 20.431 -28.4178 25
v 21.8221 -27.3641 25
v 23.159 -26.2423 25
v 24.4383 -25.0553 25
v 25.6568 -23.806 25
v 26.8116 -22.4976 25
v 27.8996 -21.1332 25
v 28.9184 -19.7162 25
v 29.8652 -18.2502 25
v 30.7378 -16.7389 25
v 31.5339 -15.1859 25
v 32.2517 -13.5952 25
v 32.8892 -11.9707 25
v 33.445 -10.3164 25
v 33.9177 -8.63651 25
v 34.306 -6.93512 25
v 34.6091 -5.21648 25
v 34.8261 -3.48487 25
v 34.9565 -1.74461 25
v 25 0 12.5
v 24.9689 1.24615 12.5
v 24.8758 2.4892 12.5
v 24.7208 3.72606 12.5
v 24.5043 4.95365 12.5
v 24.2269 6.16893 12.5
v 23.8893 7.36888 12.5
v 23.4923 8.5505 12.5
v 23.0369 9.71087 12.5
v 22.5242 10.8471 12.5
v 21.9555 11.9563 12.5
v 21.3323 13.0359 12.5
v 20.656 14.083 12.5
v 19.9283 15.0951 12.5
v 19.1511 16.0697 12.5
v 18.3263 17.0043 12.5
v 17.4559 17.8967 12.5
v 16.5421 18.7445 12.5
v 15.5872 19.5458 12.5
v 14.5936 20.2985 12.5
v 13.5637 21.0006 12.5
v 12.5 21.6506 12.5
v 11.4053 22.2468 12.5
v 10.2822 22.7876 12.5
v 9.13353 23.2718 12.5
v 7.96217 23.6982 12.5
v 6.77101 24.0656 12.5
v 5.56302 24.3732 12.5
v 4.3412 24.6202 12.5
v 3.10859 24.806 12.5
v 1.86825 24.9301 12.5
v 0.623267 24.9922 12.5
v -0.623267 24.9922 12.5
v -1.86825 24.9301 12.5
v -3.10859 24.806 12.5
v -4.3412 24.6202 12.5
v -5.56302 24.3732 12.5
v -6.77101 24.0656 12.5
v -7.96217 23.6982 12.5
v -9.13353 23.2718 12.5
v -10.2822 22.7876 12.5
v -11.4053 22.2468 12.5
v -12.5 21.6506 12.5
v -13.5637 21.0006 12.5
v -14.5936 20.2985 12.5
v -15.5872 19.5458 12.5
v -16.5421 18.7445 12.5
v -17.4559 17.8967 12.5
v -18.3263 17.0043 12.5
v -19.1511 16.0697 12.5
v -19.9283 15.0951 12.5
v -20.656 14.083 12.5
v -21.3323 13.0359 12.5
v -21.9555 11.9563 12.5
v -22.5242 10.8471 12.5
v -23.0369 9.71087 12.5
v -23.4923 8.5505 12.5
v -23.8893 7.36888 12.5
v -24.2269 6.16893 12.5
v -24.5043 4.95365 12.5
v -24.7208 3.72606 12.5
v -24.8758 2.4892 12.5
v -24.9689 1.24615 12.5
v -25 -8.57562e-14 12.5
v -24.9689 -1.24615 12.5
v -24.8758 -2.4892 12.5
v -24.7208 -3.72606 12.5
v -24.5043 -4.95365 12.5
v -24.2269 -6.16893 12.5
v -23.8893 -7.36888 12.5
v -23.4923 -8.5505 12.5
v -23.0369 -9.71087 12.5
v -22.5242 -10.8471 12.5
v -21.9555 -11.9563 12.5
v -21.3323 -13.0359 12.5
v -20.656 -14.083 12.5
v -19.9283 -15.0951 12.5
v -19.1511 -16.0697 12.5
v -18.3263 -17.0043 12.5
v -17.4559 -17.8967 12.5
v -16.5421 -18.7445 12.5
v -15.5872 -19.5458 12.5
v -14.5936 -20.2985 12.5
v -13.5637 -21.0006 12.5
v -12.5 -21.6506 12.5
v -11.4053 -22.2468 12.5
v -10.2822 -22.7876 12.5
v -9.13353 -23.2718 12.5
v -7.96217 -23.6982 12.5
v -6.77101 -24.0656 12.5
v -5.56302 -24.3732 12.5
v -4.3412 -24.6202 12.5
v -3.10859 -24.806 12.5
v -1.86825 -24.9301 12.5
v -0.623267 -24.9922 12.5
v 0.623267 -24.9922 12.5
v 1.86825 -24.9301 12.5
v 3.10859 -24.806 12.5
v 4.3412 -24.6202 12.5
v 5.56302 -24.3732 12.5
v 6.77101 -24.0656 12.5
v 7.96217 -23.6982 12.5
v 9.13353 -23.2718 12.5
v 10.2822 -22.7876 12.5
v 11.4053 -22.2468 12.5
v 12.5 -21.6506 12.5
v 13.5637 -21.0006 12.5
v 14.5936 -20.2985 12.5
v 15.5872 -19.5458 12.5
v 16.5421 -18.7445 12.5
v 17.4559 -17.8967 12.5
v 18.3263 -17.0043 12.5
v 19.1511 -16.0697 12.5
v 19.9283 -15.0951 12.5
v 20.656 -14.083 12.5
v 21.3323 -13.0359 12.5
v 21.9555 -11.9563 12.5
v 22.5242 -10.8471 12.5
v 23.0369 -9.71087 12.5
v 23.4923 -8.5505 12.5
v 23.8893 -7.36888 12.5
v 24.2269 -6.16893 12.5
v 24.5043 -4.95365 12.5
v 24.7208 -3.72606 12.5
v 24.8758 -2.4892 12.5
v 24.9689 -1.24615 12.5
v 25 0 12.5
v 28.3333 0 10.5
v 31.6667 0 8.5
v 35 0 6.5
v 35 0 6.5
v 34.9565 1.74461 6.5
v 34.8261 3.48487 6.5
v 34.6091 5.21648 6.5
v 34.306 6.93512 6.5
v 33.9177 8.63651 6.5
v 33.445 10.3164 6.5
v 32.8892 11.9707 6.5
v 32.2517 13.5952 6.5
v 31.5339 15.1859 6.5
v 30.7378 16.7389 6.5
v 29.8652 18.2502 6.5
v 28.9184 19.7162 6.5
v 27.8996 21.1332 6.5
v 26.8116 22.4976 6.5
v 25.6568 23.806 6.5
v 24.4383 25.0553 6.5
v 23.159 26.2423 6.5
v 21.8221 27.3641 6.5
v 20.431 28.4178 6.5
v 18.9891 29.4009 6.5
v 17.5 30.3109 6.5
v 15.9674 31.1455 6.5
v 14.395 31.9027 6.5
v 12.7869 32.5806 6.5
v 11.147 33.1775 6.5
v 9.47942 33.6918 6.5
v 7.78823 34.1225 6.5
v 6.07769 34.4683 6.5
v 4.35203 34.7284 6.5
v 2.61555 34.9021 6.5
v 0.872574 34.9891 6.5
v -0.872574 34.9891 6.5
v -2.61555 34.9021 6.5
v -4.35203 34.7284 6.5
v -6.07769 34.4683 6.5
v -7.78823 34.1225 6.5
v -9.47942 33.6918 6.5
v -11.147 33.1775 6.5
v -12.7869 32.5806 6.5
v -14.395 31.9027 6.5
v -15.9674 31.1455 6.5
v -17.5 30.3109 6.5
v -18.9891 29.4009 6.5
v -20.431 28.4178 6.5
v -21.8221 27.3641 6.5
v -23.159 26.2423 6.5
v -24.4383 25.0553 6.5
v -25.6568 23.806 6.5
v -26.8116 22.4976 6.5
v -27.8996 21.1332 6.5
v -28.9184 19.7162 6.5
v -29.8652 18.2502 6.5
v -30.7378 16.7389 6.5
v -31.5339 15.1859 6.5
v -32.2517 13.5952 6.5
v -32.8892 11.9707 6.5
v -33.445 10.3164 6.5
v -33.9177 8.63651 6.5
v -34.306 6.93512 6.5
v -34.6091 5.21648 6.5
v -34.8261 3.48487 6.5
v -34.9565 1.74461 6.5
v -35 -1.20059e-13 6.5
v -34.9565 -1.74461 6.5
v -34.8261 -3.48487 6.5
v -34.6091 -5.21648 6.5
v -34.306 -6.93512 6.5
v -33.9177 -8.63651 6.5
v -33.445 -10.3164 6.5
v -32.8892 -11.9707 6.5
v -32.2517 -13.5952 6.5
v -31.5339 -15.1859 6.5
v -30.7378 -16.7389 6.5
v -29.8652 -18.2502 6.5
v -28.9184 -19.7162 6.5
v -27.8996 -21.1332 6.5
v -26.8116 -22.4976 6.5
v -25.6568 -23.806 6.5
v -24.4383 -25.0553 6.5
v -23.159 -26.2423 6.5
v -21.8221 -27.3641 6.5
v -20.431 -28.4178 6.5
v -18.9891 -29.4009 6.5
v -17.5 -30.3109 6.5
v -15.9674 -31.1455 6.5
v -14.395 -31.9027 6.5
v -12.7869 -32.5806 6.5
v -11.147 -33.1775 6.5
v -9.47942 -33.6918 6.5
v -7.78823 -34.1225 6.5
v -6.07769 -34.4683 6.5
v -4.35203 -34.7284 6.5
v -2.61555 -34.9021 6.5
v -0.872574 -34.9891 6.5
v 0.872574 -34.9891 6.5
v 2.61555 -34.9021 6.5
v 4.35203 -34.7284 6.5
v 6.07769 -34.4683 6.5
v 7.78823 -34.1225 6.5
v 9.47942 -33.6918 6.5
v 11.147 -33.1775 6.5
v 12.7869 -32.5806 6.5
v 14.395 -31.9027 6.5
v 15.9674 -31.1455 6.5
v 17.5 -30.3109 6.5
v 18.9891 -29.4009 6.5
v 20.431 -28.4178 6.5
v 21.8221 -27.3641 6.5
v 23.159 -26.2423 6.5
v 24.4383 -25.0553 6.5
v 25.6568 -23.806 6.5
v 26.8116 -22.4976 6.5
v 27.8996 -21.1332 6.5
v 28.9184 -19.7162 6.5
v 29.8652 -18.2502 6.5
v 30.7378 -16.7389 6.5
v 31.5339 -15.1859 6.5
v 32.2517 -13.5952 6.5
v 32.8892 -11.9707 6.5
v 33.445 -10.3164 6.5
v 33.9177 -8.63651 6.5
v 34.306 -6.93512 6.5
v 34.6091 -5.21648 6.5
v 34.8261 -3.48487 6.5
v 34.9565 -1.74461 6.5
v 28.3333 0 10.5
v 31.6667 0 8.5
v 31.0388 -6.27463 8.5
v 30.2598 -9.33391 8.5
v 27.0746 -8.3514 10.5
v 31.5093 -3.15298 8.5
v 27.7716 -5.61414 10.5
v 28.1925 -2.82109 10.5
v 28.1925 2.82109 10.5
v 27.7716 5.61414 10.5
v 31.5093 3.15298 8.5
v 27.0746 8.3514 10.5
v 31.0388 6.27463 8.5
v 26.1085 11.0057 10.5
v 30.2598 9.33391 8.5
v 24.8829 13.5505 10.5
v 29.1801 12.3004 8.5
v 23.4101 15.9607 10.5
v 27.8103 15.1447 8.5
v 21.7046 18.2123 10.5
v 26.1642 17.8385 8.5
v 19.7834 20.2829 10.5
v 24.2581 20.3549 8.5
v 17.6655 22.1519 10.5
v 22.1108 22.6691 8.5
v 15.3721 23.8007 10.5
v 19.7438 24.758 8.5
v 12.926 25.213 10.5
v 17.1806 26.6008 8.5
v 10.3513 26.3748 10.5
v 14.4467 28.1793 8.5
v 7.67381 27.2744 10.5
v 11.5691 29.4777 8.5
v 4.92003 27.9029 10.5
v 8.57661 30.4831 8.5
v 2.11735 28.2541 10.5
v 5.49886 31.1856 8.5
v -0.70637 28.3245 10.5
v 2.36645 31.5781 8.5
v -3.52307 28.1134 10.5
v -0.789472 31.6568 8.5
v -6.30476 27.623 10.5
v -3.93755 31.4209 8.5
v -9.02379 26.8579 10.5
v -7.0465 30.8727 8.5
v -11.6531 25.826 10.5
v -10.0854 30.0177 8.5
v -14.1667 24.5374 10.5
v -13.0241 28.8644 8.5
v -16.5394 23.0049 10.5
v -15.8333 27.4241 8.5
v -18.7478 21.2438 10.5
v -18.4852 25.7114 8.5
v -20.7698 19.2716 10.5
v -20.9534 23.7431 8.5
v -22.5854 17.1078 10.5
v -23.2133 21.5388 8.5
v -24.1766 14.774 10.5
v -25.2425 19.1205 8.5
v -25.5275 12.2934 10.5
v -27.0209 16.5121 8.5
v -26.6246 9.69057 10.5
v -28.5307 13.7397 8.5
v -27.4572 6.99146 10.5
v -29.7569 10.8306 8.5
v -28.0169 4.22286 10.5
v -30.6874 7.81398 8.5
v -28.2981 1.4123 10.5
v -31.313 4.71967 8.5
v -28.2981 -1.4123 10.5
v -31.6273 1.57845 8.5
v -28.0169 -4.22286 10.5
v -31.6273 -1.57845 8.5
v -27.4572 -6.99146 10.5
v -31.313 -4.71967 8.5
v -26.6246 -9.69057 10.5
v -30.6874 -7.81398 8.5
v -25.5275 -12.2934 10.5
v -29.7569 -10.8306 8.5
v -24.1766 -14.774 10.5
v -28.5307 -13.7397 8.5
v -22.5854 -17.1078 10.5
v -27.0209 -16.5121 8.5
v -20.7698 -19.2716 10.5
v -25.2425 -19.1205 8.5
v -18.7478 -21.2438 10.5
v -23.2133 -21.5388 8.5
v -16.5394 -23.0049 10.5
v -20.9534 -23.7431 8.5
v -14.1667 -24.5374 10.5
v -18.4852 -25.7114 8.5
v -11.6531 -25.826 10.5
v -15.8333 -27.4241 8.5
v -9.02379 -26.8579 10.5
v -13.0241 -28.8644 8.5
v -6.30476 -27.623 10.5
v -10.0854 -30.0177 8.5
v -3.52307 -28.1134 10.5
v -7.0465 -30.8727 8.5
v -0.70637 -28.3245 10.5
v -3.93755 -31.4209 8.5
v 2.11735 -28.2541 10.5
v -0.789472 -31.6568 8.5
v 4.92003 -27.9029 10.5
v 2.36645 -31.5781 8.5
v 7.67381 -27.2744 10.5
v 5.49886 -31.1856 8.5
v 10.3513 -26.3748 10.5
v 8.57661 -30.4831 8.5
v 12.926 -25.213 10.5
v 11.5691 -29.4777 8.5
v 15.3721 -23.8007 10.5
v 14.4467 -28.1793 8.5
v 17.6655 -22.1519 10.5
v 17.1806 -26.6008 8.5
v 19.7834 -20.2829 10.5
v 19.7438 -24.758 8.5
v 21.7046 -18.2123 10.5
v 22.1108 -22.6691 8.5
v 23.4101 -15.9607 10.5
v 24.2581 -20.3549 8.5
v 24.8829 -13.5505 10.5
v 26.1642 -17.8385 8.5
v 26.1085 -11.0057 10.5
v 27.8103 -15.1447 8.5
v 29.1801 -12.3004 8.5
v 35 0 6.5
v 34.9565 1.74461 6.5
v 34.8261 3.48487 6.5
v 34.6091 5.21648 6.5
v 34.306 6.93512 6.5
v 33.9177 8.63651 6.5
v 33.445 10.3164 6.5
v 32.8892 11.9707 6.5
v 32.2517 13.5952 6.5
v 31.5339 15.1859 6.5
v 30.7378 16.7389 6.5
v 29.8652 18.2502 6.5
v 28.9184 19.7162 6.5
v 27.8996 21.1332 6.5
v 26.8116 22.4976 6.5
v 25.6568 23.806 6.5
v 24.4383 25.0553 6.5
v 23.159 26.2423 6.5
v 21.8221 27.3641 6.5
v 20.431 28.4178 6.5
v 18.9891 29.4009 6.5
v 17.5 30.3109 6.5
v 15.9674 31.1455 6.5
v 14.395 31.9027 6.5
v 12.7869 32.5806 6.5
v 11.147 33.1775 6.5
v 9.47942 33.6918 6.5
v 7.78823 34.1225 6.5
v 6.07769 34.4683 6.5
v 4.35203 34.7284 6.5
v 2.61555 34.9021 6.5
v 0.872574 34.9891 6.5
v -0.872574 34.9891 6.5
v -2.61555 34.9021 6.5
v -4.35203 34.7284 6.5
v -6.07769 34.4683 6.5
v -7.78823 34.1225 6.5
v -9.47942 33.6918 6.5
v -11.147 33.1775 6.5
v -12.7869 32.5806 6.5
v -14.395 31.9027 6.5
v -15.9674 31.1455 6.5
v -17.5 30.3109 6.5
v -18.9891 29.4009 6.5
v -20.431 28.4178 6.5
v -21.8221 27.3641 6.5
v -23.159 26.2423 6.5
v -24.4383 25.0553 6.5
v -25.6568 23.806 6.5
v -26.8116 22.4976 6.5
v -27.8996 21.1332 6.5
v -28.9184 19.7162 6.5
v -29.8652 18.2502 6.5
v -30.7378 16.7389 6.5
v -31.5339 15.1859 6.5
v -32.2517 13.5952 6.5
v -32.8892 11.9707 6.5
v -33.445 10.3164 6.5
v -33.9177 8.63651 6.5
v -34.306 6.93512 6.5
v -34.6091 5.21648 6.5
v -34.8261 3.48487 6.5
v -34.9565 1.74461 6.5
v -35 -1.20059e-13 6.5
v -34.9565 -1.74461 6.5
v -34.8261 -3.48487 6.5
v -34.6091 -5.21648 6.5
v -34.306 -6.93512 6.5
v -33.9177 -8.63651 6.5
v -33.445 -10.3164 6.5
v -32.8892 -11.9707 6.5
v -32.2517 -13.5952 6.5
v -31.5339 -15.1859 6.5
v -30.7378 -16.7389 6.5
v -29.8652 -18.2502 6.5
v -28.9184 -19.7162 6.5
v -27.8996 -21.1332 6.5
v -26.8116 -22.4976 6.5
v -25.6568 -23.806 6.5
v -24.4383 -25.0553 6.5
v -23.159 -26.2423 6.5
v -21.8221 -27.3641 6.5
v -20.431 -28.4178 6.5
v -18.9891 -29.4009 6.5
v -17.5 -30.3109 6.5
v -15.9674 -31.1455 6.5
v -14.395 -31.9027 6.5
v -12.7869 -32.5806 6.5
v -11.147 -33.1775 6.5
v -9.47942 -33.6918 6.5
v -7.78823 -34.1225 6.5
v -6.07769 -34.4683 6.5
v -4.35203 -34.7284 6.5
v -2.61555 -34.9021 6.5
v -0.872574 -34.9891 6.5
v 0.872574 -34.9891 6.5
v 2.61555 -34.9021 6.5
v 4.35203 -34.7284 6.5
v 6.07769 -34.4683 6.5
v 7.78823 -34.1225 6.5
v 9.47942 -33.6918 6.5
v 11.147 -33.1775 6.5
v 12.7869 -32.5806 6.5
v 14.395 -31.9027 6.5
v 15.9674 -31.1455 6.5
v 17.5 -30.3109 6.5
v 18.9891 -29.4009 6.5
v 20.431 -28.4178 6.5
v 21.8221 -27.3641 6.5
v 23.159 -26.2423 6.5
v 24.4383 -25.0553 6.5
v 25.6568 -23.806 6.5
v 26.8116 -22.4976 6.5
v 27.8996 -21.1332 6.5
v 28.9184 -19.7162 6.5
v 29.8652 -18.2502 6.5
v 30.7378 -16.7389 6.5
v 31.5339 -15.1859 6.5
v 32.2517 -13.5952 6.5
v 32.8892 -11.9707 6.5
v 33.445 -10.3164 6.5
v 33.9177 -8.63651 6.5
v 34.306 -6.93512 6.5
v 34.6091 -5.21648 6.5
v 34.8261 -3.48487 6.5
v 34.9565 -1.74461 6.5
v 35 0 6.5
v 35 -8.57253e-15 0
v 34.9565 1.74461 0
v 34.8261 3.48487 0
v 34.6091 5.21648 0
v 34.306 6.93512 0
v 33.9177 8.63651 0
v 33.445 10.3164 0
v 32.8892 11.9707 0
v 32.2517 13.5952 0
v 31.5339 15.1859 0
v 30.7378 16.7389 0
v 29.8652 18.2502 0
v 28.9184 19.7162 0
v 27.8996 21.1332 0
v 26.8116 22.4976 0
v 25.6568 23.806 0
v 24.4383 25.0553 0
v 23.159 26.2423 0
v 21.8221 27.3641 0
v 20.431 28.4178 0
v 18.9891 29.4009 0
v 17.5 30.3109 0
v 15.9674 31.1455 0
v 14.395 31.9027 0
v 12.7869 32.5806 0
v 11.147 33.1775 0
v 9.47942 33.6918 0
v 7.78823 34.1225 0
v 6.07769 34.4683 0
v 4.35203 34.7284 0
v 2.61555 34.9021 0
v 0.872574 34.9891 0
v -0.872574 34.9891 0
v -2.61555 34.9021 0
v -4.35203 34.7284 0
v -6.07769 34.4683 0
v -7.78823 34.1225 0
v -9.47942 33.6918 0
v -11.147 33.1775 0
v -12.7869 32.5806 0
v -14.395 31.9027 0
v -15.9674 31.1455 0
v -17.5 30.3109 0
v -18.9891 29.4009 0
v -20.431 28.4178 0
v -21.8221 27.3641 0
v -23.159 26.2423 0
v -24.4383 25.0553 0
v -25.6568 23.806 0
v -26.8116 22.4976 0
v -27.8996 21.1332 0
v -28.9184 19.7162 0
v -29.8652 18.2502 0
v -30.7378 16.7389 0
v -31.5339 15.1859 0
v -32.2517 13.5952 0
v -32.8892 11.9707 0
v -33.445 10.3164 0
v -33.9177 8.63651 0
v -34.306 6.93512 0
v -34.6091 5.21648 0
v -34.8261 3.48487 0
v -34.9565 1.74461 0
v -35 -1.20059e-13 0
v -34.9565 -1.74461 0
v -34.8261 -3.48487 0
v -34.6091 -5.21648 0
v -34.306 -6.93512 0
v -33.9177 -8.63651 0
v -33.445 -10.3164 0
v -32.8892 -11.9707 0
v -32.2517 -13.5952 0
v -31.5339 -15.1859 0
v -30.7378 -16.7389 0
v -29.8652 -18.2502 0
v -28.9184 -19.7162 0
v -27.8996 -21.1332 0
v -26.8116 -22.4976 0
v -25.6568 -23.806 0
v -24.4383 -25.0553 0
v -23.159 -26.2423 0
v -21.8221 -27.3641 0
v -20.431 -28.4178 0
v -18.9891 -29.4009 0
v -17.5 -30.3109 0
v -15.9674 -31.1455 0
v -14.395 -31.9027 0
v -12.7869 -32.5806 0
v -11.147 -33.1775 0
v -9.47942 -33.6918 0
v -7.78823 -34.1225 0
v -6.07769 -34.4683 0
v -4.35203 -34.7284 0
v -2.61555 -34.9021 0
v -0.872574 -34.9891 0
v 0.872574 -34.9891 0
v 2.61555 -34.9021 0
v 4.35203 -34.7284 0
v 6.07769 -34.4683 0
v 7.78823 -34.1225 0
v 9.47942 -33.6918 0
v 11.147 -33.1775 0
v 12.7869 -32.5806 0
v 14.395 -31.9027 0
v 15.9674 -31.1455 0
v 17.5 -30.3109 0
v 18.9891 -29.4009 0
v 20.431 -28.4178 0
v 21.8221 -27.3641 0
v 23.159 -26.2423 0
v 24.4383 -25.0553 0
v 25.6568 -23.806 0
v 26.8116 -22.4976 0
v 27.8996 -21.1332 0
v 28.9184 -19.7162 0
v 29.8652 -18.2502 0
v 30.7378 -16.7389 0
v 31.5339 -15.1859 0
v 32.2517 -13.5952 0
v 32.8892 -11.9707 0
v 33.445 -10.3164 0
v 33.9177 -8.63651 0
v 34.306 -6.93512 0
v 34.6091 -5.21648 0
v 34.8261 -3.48487 0
v 34.9565 -1.74461 0
v 35 -8.57253e-15 0
v 35 -8.57253e-15 0
v 34.9565 1.74461 0
v 34.8261 3.48487 0
v 34.6091 5.21648 0
v 34.306 6.93512 0
v 33.9177 8.63651 0
v 33.445 10.3164 0
v 32.8892 11.9707 0
v 32.2517 13.5952 0
v 31.5339 15.1859 0
v 30.7378 16.7389 0
v 29.8652 18.2502 0
v 28.9184 19.7162 0
v 27.8996 21.1332 0
v 26.8116 22.4976 0
v 25.6568 23.806 0
v 24.4383 25.0553 0
v 23.159 26.2423 0
v 21.8221 27.3641 0
v 20.431 28.4178 0
v 18.9891 29.4009 0
v 17.5 30.3109 0
v 15.9674 31.1455 0
v 14.395 31.9027 0
v 12.7869 32.5806 0
v 11.147 33.1775 0
v 9.47942 33.6918 0
v 7.78823 34.1225 0
v 6.07769 34.4683 0
v 4.35203 34.7284 0
v 2.61555 34.9021 0
v 0.872574 34.9891 0
v -0.872574 34.9891 0
v -2.61555 34.9021 0
v -4.35203 34.7284 0
v -6.07769 34.4683 0
v -7.78823 34.1225 0
v -9.47942 33.6918 0
v -11.147 33.1775 0
v -12.7869 32.5806 0
v -14.395 31.9027 0
v -15.9674 31.1455 0
v -17.5 30.3109 0
v -18.9891 29.4009 0
v -20.431 28.4178 0
v -21.8221 27.3641 0
v -23.159 26.2423 0
v -24.4383 25.0553 0
v -25.6568 23.806 0
v -26.8116 22.4976 0
v -27.8996 21.1332 0
v -28.9184 19.7162 0
v -29.8652 18.2502 0
v -30.7378 16.7389 0
v -31.5339 15.1859 0
v -32.2517 13.5952 0
v -32.8892 11.9707 0
v -33.445 10.3164 0
v -33.9177 8.63651 0
v -34.306 6.93512 0
v -34.6091 5.21648 0
v -34.8261 3.48487 0
v -34.9565 1.74461 0
v -35 -1.20059e-13 0
v -34.9565 -1.74461 0
v -34.8261 -3.48487 0
v -34.6091 -5.21648 0
v -34.306 -6.93512 0
v -33.9177 -8.63651 0
v -33.445 -10.3164 0
v -32.8892 -11.9707 0
v -32.2517 -13.5952 0
v -31.5339 -15.1859 0
v -30.7378 -16.7389 0
v -29.8652 -18.2502 0
v -28.9184 -19.7162 0
v -27.8996 -21.1332 0
v -26.8116 -22.4976 0
v -25.6568 -23.806 0
v -24.4383 -25.0553 0
v -23.159 -26.2423 0
v -21.8221 -27.3641 0
v -20.431 -28.4178 0
v -18.9891 -29.4009 0
v -17.5 -30.3109 0
v -15.9674 -31.1455 0
v -14.395 -31.9027 0
v -12.7869 -32.5806 0
v -11.147 -33.1775 0
v -9.47942 -33.6918 0
v -7.78823 -34.1225 0
v -6.07769 -34.4683 0
v -4.35203 -34.7284 0
v -2.61555 -34.9021 0
v -0.872574 -34.9891 0
v 0.872574 -34.9891 0
v 2.61555 -34.9021 0
v 4.35203 -34.7284 0
v 6.07769 -34.4683 0
v 7.78823 -34.1225 0
v 9.47942 -33.6918 0
v 11.147 -33.1775 0
v 12.7869 -32.5806 0
v 14.395 -31.9027 0
v 15.9674 -31.1455 0
v 17.5 -30.3109 0
v 18.9891 -29.4009 0
v 20.431 -28.4178 0
v 21.8221 -27.3641 0
v 23.159 -26.2423 0
v 24.4383 -25.0553 0
v 25.6568 -23.806 0
v 26.8116 -22.4976 0
v 27.8996 -21.1332 0
v 28.9184 -19.7162 0
v 29.8652 -18.2502 0
v 30.7378 -16.7389 0
v 31.5339 -15.1859 0
v 32.2517 -13.5952 0
v 32.8892 -11.9707 0
v 33.445 -10.3164 0
v 33.9177 -8.63651 0
v 34.306 -6.93512 0
v 34.6091 -5.21648 0
v 34.8261 -3.48487 0
v 34.9565 -1.74461 0
f 4 3 129
f 4 129 130
f 5 130 131
f 5 4 130
f 6 131 132
f 6 5 131
f 7 132 133
f 7 6 132
f 8 133 134
f 8 7 133
f 9 134 135
f 9 8 134
f 10 135 136
f 10 9 135
f 11 136 137
f 11 137 138
f 11 10 136
f 12 11 138
f 13 138 139
f 13 139 140
f 13 12 138
f 14 13 140
f 15 14 140
f 15 140 141
f 15 141 142
f 16 15 142
f 17 16 142
f 17 142 143
f 18 17 143
f 18 143 144
f 19 18 144
f 19 144 145
f 20 19 145
f 20 145 146
f 21 20 146
f 21 146 147
f 21 147 148
f 22 21 148
f 23 22 148
f 23 148 149
f 24 23 149
f 24 149 150
f 25 24 150
f 25 150 151
f 26 151 152
f 26 25 151
f 27 152 153
f 27 26 152
f 28 153 154
f 28 27 153
f 29 154 155
f 29 28 154
f 30 155 156
f 30 29 155
f 31 156 157
f 31 30 156
f 32 157 158
f 32 158 159
f 32 31 157
f 33 32 159
f 34 159 160
f 34 33 159
f 35 160 161
f 35 34 160
f 36 161 162
f 36 35 161
f 37 162 163
f 37 36 162
f 38 163 164
f 38 37 163
f 39 164 165
f 39 38 164
f 40 39 165
f 40 165 166
f 41 40 166
f 41 166 167
f 42 41 167
f 42 167 168
f 43 42 168
f 43 168 169
f 44 43 169
f 44 169 170
f 45 44 170
f 45 170 171
f 46 45 171
f 46 171 172
f 46 172 173
f 47 46 173
f 48 47 173
f 48 173 174
f 49 48 174
f 49 174 175
f 50 49 175
f 50 175 176
f 51 50 176
f 51 176 177
f 51 177 178
f 52 51 178
f 52 178 179
f 53 52 179
f 54 53 179
f 54 179 180
f 55 54 180
f 55 180 181
f 56 55 181
f 56 181 182
f 56 182 183
f 57 56 183
f 58 57 183
f 58 183 184
f 59 58 184
f 59 184 185
f 59 185 186
f 60 59 186
f 61 186 187
f 61 60 186
f 62 187 188
f 62 61 187
f 63 188 189
f 63 62 188
f 64 189 190
f 64 190 191
f 64 63 189
f 65 64 191
f 65 191 192
f 66 65 192
f 67 66 192
f 67 192 193
f 68 67 193
f 68 193 194
f 68 194 195
f 69 68 195
f 69 195 196
f 70 69 196
f 71 70 196
f 71 196 197
f 72 71 197
f 72 197 198
f 73 72 198
f 73 198 199
f 73 199 200
f 74 73 200
f 74 200 201
f 75 74 201
f 75 201 202
f 76 75 202
f 77 202 203
f 77 76 202
f 78 203 204
f 78 77 203
f 79 204 205
f 79 78 204
f 80 205 206
f 80 79 205
f 81 206 207
f 81 80 206
f 82 207 208
f 82 208 209
f 82 81 207
f 83 82 209
f 84 209 210
f 84 83 209
f 85 210 211
f 85 211 212
f 85 84 210
f 86 85 212
f 87 212 213
f 87 86 212
f 88 213 214
f 88 87 213
f 89 214 215
f 89 215 216
f 89 88 214
f 90 89 216
f 91 90 216
f 91 216 217
f 92 91 217
f 92 217 218
f 93 92 218
f 93 218 219
f 94 93 219
f 94 219 220
f 94 220 221
f 95 94 221
f 96 221 222
f 96 222 223
f 96 95 221
f 97 96 223
f 98 223 224
f 98 224 225
f 98 97 223
f 99 225 226
f 99 98 225
f 100 99 226
f 101 226 227
f 101 100 226
f 102 227 228
f 102 101 227
f 103 228 229
f 103 102 228
f 104 229 230
f 104 103 229
f 105 230 231
f 105 104 230
f 106 231 232
f 106 105 231
f 107 232 233
f 107 106 232
f 108 233 234
f 108 107 233
f 109 234 235
f 109 108 234
f 110 235 236
f 110 236 237
f 110 109 235
f 111 110 237
f 112 237 238
f 112 111 237
f 113 238 239
f 113 112 238
f 114 239 240
f 114 113 239
f 115 240 241
f 115 241 242
f 115 114 240
f 116 115 242
f 116 242 243
f 117 116 243
f 118 117 243
f 118 243 244
f 119 118 244
f 119 244 245
f 119 245 246
f 120 119 246
f 120 246 247
f 121 120 247
f 122 121 247
f 122 247 248
f 122 248 249
f 123 122 249
f 124 123 249
f 124 249 250
f 124 250 251
f 125 124 251
f 126 125 251
f 126 251 252
f 126 252 253
f 127 126 253
f 128 253 254
f 128 127 253
f 2 128 254
f 2 254 1
f 513 506 507
f 513 507 508
f 513 515 514
f 513 514 506
f 516 383 382
f 516 508 509
f 516 518 517
f 516 509 510
f 516 513 508
f 516 510 383
f 516 382 518
f 516 517 513
f 511 256 255
f 386 512 385
f 382 381 380
f 384 383 510
f 519 257 256
f 519 258 257
f 519 256 511
f 520 259 258
f 520 260 259
f 520 258 519
f 521 386 387
f 521 387 388
f 521 511 512
f 521 512 386
f 521 519 511
f 522 261 260
f 522 262 261
f 522 260 520
f 523 388 389
f 523 389 390
f 523 520 519
f 523 521 388
f 523 519 521
f 524 263 262
f 524 264 263
f 524 262 522
f 525 522 520
f 525 390 391
f 525 391 392
f 525 520 523
f 525 523 390
f 526 265 264
f 526 266 265
f 526 264 524
f 527 524 522
f 527 522 525
f 527 392 393
f 527 393 394
f 527 525 392
f 528 267 266
f 528 268 267
f 528 266 526
f 529 524 527
f 529 394 395
f 529 395 396
f 529 527 394
f 529 528 526
f 529 526 524
f 530 269 268
f 530 270 269
f 530 268 528
f 531 529 396
f 531 528 529
f 531 396 397
f 531 397 398
f 532 271 270
f 532 272 271
f 532 270 530
f 533 530 528
f 533 528 531
f 533 531 398
f 533 398 399
f 533 399 400
f 534 273 272
f 534 274 273
f 534 272 532
f 535 533 400
f 535 400 401
f 535 401 402
f 535 530 533
f 535 532 530
f 536 275 274
f 536 276 275
f 536 274 534
f 537 532 535
f 537 402 403
f 537 403 404
f 537 534 532
f 537 535 402
f 538 277 276
f 538 278 277
f 538 276 536
f 539 536 534
f 539 404 405
f 539 405 406
f 539 534 537
f 539 537 404
f 540 278 538
f 540 279 278
f 540 280 279
f 541 538 536
f 541 536 539
f 541 406 407
f 541 407 408
f 541 539 406
f 541 540 538
f 542 281 280
f 542 282 281
f 542 280 540
f 543 408 409
f 543 409 410
f 543 540 541
f 543 541 408
f 543 542 540
f 544 283 282
f 544 284 283
f 544 282 542
f 545 543 410
f 545 544 542
f 545 410 411
f 545 411 412
f 545 542 543
f 546 285 284
f 546 286 285
f 546 284 544
f 547 545 412
f 547 544 545
f 547 412 413
f 547 413 414
f 548 287 286
f 548 288 287
f 548 286 546
f 549 544 547
f 549 547 414
f 549 548 546
f 549 546 544
f 549 414 415
f 549 415 416
f 550 289 288
f 550 290 289
f 550 288 548
f 551 550 548
f 551 416 417
f 551 549 416
f 551 417 418
f 551 548 549
f 552 291 290
f 552 292 291
f 552 290 550
f 553 550 551
f 553 418 419
f 553 419 420
f 553 551 418
f 554 293 292
f 554 294 293
f 554 292 552
f 555 552 550
f 555 553 420
f 555 420 421
f 555 550 553
f 555 421 422
f 556 294 554
f 556 295 294
f 556 296 295
f 557 554 552
f 557 422 423
f 557 423 424
f 557 556 554
f 557 552 555
f 557 555 422
f 558 296 556
f 558 297 296
f 558 298 297
f 559 557 424
f 559 424 425
f 559 425 426
f 559 556 557
f 560 298 558
f 560 299 298
f 560 300 299
f 561 556 559
f 561 559 426
f 561 560 558
f 561 426 427
f 561 427 428
f 561 558 556
f 562 300 560
f 562 301 300
f 562 302 301
f 563 562 560
f 563 560 561
f 563 428 429
f 563 429 430
f 563 561 428
f 564 303 302
f 564 304 303
f 564 302 562
f 565 563 430
f 565 430 431
f 565 431 432
f 565 562 563
f 566 305 304
f 566 306 305
f 566 304 564
f 567 564 562
f 567 565 432
f 567 562 565
f 567 432 433
f 567 433 434
f 568 306 566
f 568 307 306
f 568 308 307
f 569 564 567
f 569 567 434
f 569 434 435
f 569 435 436
f 569 566 564
f 570 308 568
f 570 309 308
f 570 310 309
f 571 568 566
f 571 566 569
f 571 569 436
f 571 436 437
f 571 437 438
f 572 311 310
f 572 312 311
f 572 310 570
f 573 571 438
f 573 568 571
f 573 570 568
f 573 438 439
f 573 439 440
f 574 312 572
f 574 313 312
f 574 314 313
f 575 573 440
f 575 572 570
f 575 440 441
f 575 441 442
f 575 570 573
f 576 314 574
f 576 315 314
f 576 316 315
f 577 572 575
f 577 575 442
f 577 442 443
f 577 443 444
f 577 574 572
f 577 576 574
f 578 317 316
f 578 318 317
f 578 316 576
f 579 576 577
f 579 577 444
f 579 444 445
f 579 445 446
f 580 319 318
f 580 320 319
f 580 318 578
f 581 578 576
f 581 579 446
f 581 446 447
f 581 447 448
f 581 576 579
f 582 320 580
f 582 321 320
f 582 322 321
f 583 581 448
f 583 580 578
f 583 578 581
f 583 448 449
f 583 449 450
f 584 322 582
f 584 323 322
f 584 324 323
f 585 582 580
f 585 580 583
f 585 583 450
f 585 450 451
f 585 451 452
f 586 325 324
f 586 326 325
f 586 324 584
f 587 582 585
f 587 584 582
f 587 585 452
f 587 452 453
f 587 453 454
f 588 327 326
f 588 328 327
f 588 326 586
f 589 584 587
f 589 586 584
f 589 587 454
f 589 454 455
f 589 455 456
f 590 329 328
f 590 330 329
f 590 328 588
f 591 457 458
f 591 588 586
f 591 590 588
f 591 586 589
f 591 589 456
f 591 456 457
f 592 330 590
f 592 331 330
f 592 332 331
f 593 458 459
f 593 459 460
f 593 591 458
f 593 590 591
f 594 333 332
f 594 334 333
f 594 332 592
f 595 460 461
f 595 461 462
f 595 593 460
f 595 592 590
f 595 590 593
f 596 335 334
f 596 336 335
f 596 334 594
f 597 462 463
f 597 463 464
f 597 594 592
f 597 595 462
f 597 592 595
f 598 336 596
f 598 337 336
f 598 338 337
f 599 464 465
f 599 465 466
f 599 597 464
f 599 594 597
f 599 596 594
f 600 338 598
f 600 339 338
f 600 340 339
f 601 466 467
f 601 599 466
f 601 467 468
f 601 598 596
f 601 596 599
f 602 340 600
f 602 341 340
f 602 342 341
f 603 468 469
f 603 469 470
f 603 602 600
f 603 598 601
f 603 600 598
f 603 601 468
f 604 342 602
f 604 343 342
f 604 344 343
f 605 470 471
f 605 471 472
f 605 602 603
f 605 604 602
f 605 603 470
f 606 344 604
f 606 345 344
f 606 346 345
f 607 472 473
f 607 473 474
f 607 604 605
f 607 605 472
f 608 346 606
f 608 347 346
f 608 348 347
f 609 474 475
f 609 475 476
f 609 606 604
f 609 604 607
f 609 607 474
f 610 348 608
f 610 349 348
f 610 350 349
f 611 476 477
f 611 477 478
f 611 610 608
f 611 609 476
f 611 608 606
f 611 606 609
f 612 350 610
f 612 351 350
f 612 352 351
f 613 478 479
f 613 479 480
f 613 611 478
f 613 610 611
f 614 352 612
f 614 353 352
f 614 354 353
f 615 480 481
f 615 481 482
f 615 613 480
f 615 612 610
f 615 614 612
f 615 610 613
f 616 356 355
f 616 354 614
f 616 355 354
f 617 482 483
f 617 483 484
f 617 615 482
f 617 614 615
f 618 357 356
f 618 358 357
f 618 356 616
f 619 614 617
f 619 484 485
f 619 485 486
f 619 617 484
f 619 616 614
f 620 359 358
f 620 360 359
f 620 358 618
f 621 618 616
f 621 619 486
f 621 620 618
f 621 486 487
f 621 487 488
f 621 616 619
f 622 361 360
f 622 362 361
f 622 360 620
f 623 621 488
f 623 488 489
f 623 489 490
f 623 620 621
f 623 622 620
f 624 363 362
f 624 364 363
f 624 362 622
f 625 624 622
f 625 623 490
f 625 490 491
f 625 491 492
f 625 622 623
f 626 365 364
f 626 366 365
f 626 364 624
f 627 624 625
f 627 625 492
f 627 492 493
f 627 493 494
f 628 367 366
f 628 368 367
f 628 366 626
f 629 624 627
f 629 626 624
f 629 627 494
f 629 494 495
f 629 495 496
f 630 369 368
f 630 370 369
f 630 368 628
f 631 628 626
f 631 626 629
f 631 629 496
f 631 496 497
f 631 497 498
f 632 371 370
f 632 372 371
f 632 370 630
f 633 630 628
f 633 628 631
f 633 498 499
f 633 631 498
f 633 499 500
f 634 373 372
f 634 374 373
f 634 372 632
f 635 633 500
f 635 500 501
f 635 501 502
f 635 632 630
f 635 630 633
f 515 374 634
f 515 375 374
f 515 376 375
f 636 502 503
f 636 503 504
f 636 515 634
f 636 635 502
f 636 634 632
f 636 632 635
f 517 377 376
f 517 378 377
f 517 376 515
f 514 636 504
f 514 504 505
f 514 505 506
f 514 515 636
f 518 378 517
f 518 379 378
f 518 380 379
f 518 382 380
f 513 517 515
f 718 716 717
f 713 714 715
f 713 715 716
f 721 716 718
f 721 713 716
f 721 711 712
f 721 712 713
f 721 718 719
f 721 719 720
f 708 711 721
f 708 709 710
f 708 710 711
f 724 722 723
f 706 708 721
f 706 707 708
f 704 705 706
f 728 722 724
f 728 724 725
f 728 725 726
f 728 726 727
f 702 703 704
f 702 704 706
f 730 722 728
f 730 721 722
f 730 728 729
f 700 701 702
f 732 730 731
f 698 699 700
f 734 730 732
f 734 732 733
f 697 698 700
f 736 734 735
f 695 697 700
f 695 696 697
f 695 702 706
f 695 700 702
f 693 694 695
f 739 737 738
f 692 693 695
f 740 734 736
f 740 737 739
f 740 730 734
f 740 721 730
f 740 736 737
f 691 692 695
f 741 721 740
f 689 691 695
f 689 690 691
f 689 695 706
f 744 742 743
f 687 688 689
f 686 687 689
f 746 744 745
f 747 741 742
f 747 721 741
f 747 742 744
f 747 744 746
f 747 706 721
f 684 686 689
f 684 685 686
f 683 684 689
f 751 747 748
f 751 748 749
f 751 749 750
f 680 681 682
f 678 679 680
f 678 680 682
f 754 751 752
f 754 752 753
f 677 682 683
f 677 678 682
f 674 675 676
f 674 676 677
f 759 754 755
f 759 755 756
f 759 756 757
f 759 757 758
f 759 751 754
f 672 673 674
f 672 674 677
f 669 751 759
f 669 670 671
f 669 671 672
f 669 689 706
f 669 706 747
f 669 683 689
f 669 747 751
f 669 677 683
f 669 672 677
f 668 669 759
f 666 667 668
f 642 639 640
f 642 640 641
f 663 664 665
f 643 639 642
f 662 666 668
f 662 668 759
f 662 663 665
f 662 665 666
f 644 637 638
f 644 638 639
f 644 759 760
f 644 760 761
f 644 761 762
f 644 762 637
f 644 639 643
f 645 759 644
f 659 660 661
f 659 661 662
f 658 645 646
f 658 659 662
f 658 662 759
f 658 759 645
f 648 646 647
f 649 646 648
f 655 656 657
f 655 657 658
f 651 649 650
f 654 655 658
f 653 651 652
f 653 658 646
f 653 649 651
f 653 646 649
f 653 654 658
f 1021 1014 1015
f 1021 1015 1016
f 1021 1023 1022
f 1021 1022 1014
f 1024 891 890
f 1024 1016 1017
f 1024 1026 1025
f 1024 1017 1018
f 1024 1021 1016
f 1024 1018 891
f 1024 890 1026
f 1024 1025 1021
f 1019 764 763
f 894 1020 893
f 890 889 888
f 892 891 1018
f 1027 765 764
f 1027 766 765
f 1027 764 1019
f 1028 767 766
f 1028 768 767
f 1028 766 1027
f 1029 894 895
f 1029 895 896
f 1029 1019 1020
f 1029 1020 894
f 1029 1027 1019
f 1030 769 768
f 1030 770 769
f 1030 768 1028
f 1031 896 897
f 1031 897 898
f 1031 1028 1027
f 1031 1029 896
f 1031 1027 1029
f 1032 771 770
f 1032 772 771
f 1032 770 1030
f 1033 1030 1028
f 1033 898 899
f 1033 899 900
f 1033 1028 1031
f 1033 1031 898
f 1034 773 772
f 1034 774 773
f 1034 772 1032
f 1035 1032 1030
f 1035 1030 1033
f 1035 900 901
f 1035 901 902
f 1035 1033 900
f 1036 775 774
f 1036 776 775
f 1036 774 1034
f 1037 1032 1035
f 1037 902 903
f 1037 903 904
f 1037 1035 902
f 1037 1036 1034
f 1037 1034 1032
f 1038 777 776
f 1038 778 777
f 1038 776 1036
f 1039 1037 904
f 1039 1036 1037
f 1039 904 905
f 1039 905 906
f 1040 779 778
f 1040 780 779
f 1040 778 1038
f 1041 1038 1036
f 1041 1036 1039
f 1041 1039 906
f 1041 906 907
f 1041 907 908
f 1042 781 780
f 1042 782 781
f 1042 780 1040
f 1043 1041 908
f 1043 908 909
f 1043 909 910
f 1043 1038 1041
f 1043 1040 1038
f 1044 783 782
f 1044 784 783
f 1044 782 1042
f 1045 1040 1043
f 1045 910 911
f 1045 911 912
f 1045 1042 1040
f 1045 1043 910
f 1046 785 784
f 1046 786 785
f 1046 784 1044
f 1047 1044 1042
f 1047 912 913
f 1047 913 914
f 1047 1042 1045
f 1047 1045 912
f 1048 786 1046
f 1048 787 786
f 1048 788 787
f 1049 1046 1044
f 1049 1044 1047
f 1049 914 915
f 1049 915 916
f 1049 1047 914
f 1049 1048 1046
f 1050 789 788
f 1050 790 789
f 1050 788 1048
f 1051 916 917
f 1051 917 918
f 1051 1048 1049
f 1051 1049 916
f 1051 1050 1048
f 1052 791 790
f 1052 792 791
f 1052 790 1050
f 1053 1051 918
f 1053 1052 1050
f 1053 918 919
f 1053 919 920
f 1053 1050 1051
f 1054 793 792
f 1054 794 793
f 1054 792 1052
f 1055 1053 920
f 1055 1052 1053
f 1055 920 921
f 1055 921 922
f 1056 795 794
f 1056 796 795
f 1056 794 1054
f 1057 1052 1055
f 1057 1055 922
f 1057 1056 1054
f 1057 1054 1052
f 1057 922 923
f 1057 923 924
f 1058 797 796
f 1058 798 797
f 1058 796 1056
f 1059 1058 1056
f 1059 924 925
f 1059 1057 924
f 1059 925 926
f 1059 1056 1057
f 1060 799 798
f 1060 800 799
f 1060 798 1058
f 1061 1058 1059
f 1061 926 927
f 1061 927 928
f 1061 1059 926
f 1062 801 800
f 1062 802 801
f 1062 800 1060
f 1063 1060 1058
f 1063 1061 928
f 1063 928 929
f 1063 1058 1061
f 1063 929 930
f 1064 802 1062
f 1064 803 802
f 1064 804 803
f 1065 1062 1060
f 1065 930 931
f 1065 931 932
f 1065 1064 1062
f 1065 1060 1063
f 1065 1063 930
f 1066 804 1064
f 1066 805 804
f 1066 806 805
f 1067 1065 932
f 1067 932 933
f 1067 933 934
f 1067 1064 1065
f 1068 806 1066
f 1068 807 806
f 1068 808 807
f 1069 1064 1067
f 1069 1067 934
f 1069 1068 1066
f 1069 934 935
f 1069 935 936
f 1069 1066 1064
f 1070 808 1068
f 1070 809 808
f 1070 810 809
f 1071 1070 1068
f 1071 1068 1069
f 1071 936 937
f 1071 937 938
f 1071 1069 936
f 1072 811 810
f 1072 812 811
f 1072 810 1070
f 1073 1071 938
f 1073 938 939
f 1073 939 940
f 1073 1070 1071
f 1074 813 812
f 1074 814 813
f 1074 812 1072
f 1075 1072 1070
f 1075 1073 940
f 1075 1070 1073
f 1075 940 941
f 1075 941 942
f 1076 814 1074
f 1076 815 814
f 1076 816 815
f 1077 1072 1075
f 1077 1075 942
f 1077 942 943
f 1077 943 944
f 1077 1074 1072
f 1078 816 1076
f 1078 817 816
f 1078 818 817
f 1079 1076 1074
f 1079 1074 1077
f 1079 1077 944
f 1079 944 945
f 1079 945 946
f 1080 819 818
f 1080 820 819
f 1080 818 1078
f 1081 1079 946
f 1081 1076 1079
f 1081 1078 1076
f 1081 946 947
f 1081 947 948
f 1082 820 1080
f 1082 821 820
f 1082 822 821
f 1083 1081 948
f 1083 1080 1078
f 1083 948 949
f 1083 949 950
f 1083 1078 1081
f 1084 822 1082
f 1084 823 822
f 1084 824 823
f 1085 1080 1083
f 1085 1083 950
f 1085 950 951
f 1085 951 952
f 1085 1082 1080
f 1085 1084 1082
f 1086 825 824
f 1086 826 825
f 1086 824 1084
f 1087 1084 1085
f 1087 1085 952
f 1087 952 953
f 1087 953 954
f 1088 827 826
f 1088 828 827
f 1088 826 1086
f 1089 1086 1084
f 1089 1087 954
f 1089 954 955
f 1089 955 956
f 1089 1084 1087
f 1090 828 1088
f 1090 829 828
f 1090 830 829
f 1091 1089 956
f 1091 1088 1086
f 1091 1086 1089
f 1091 956 957
f 1091 957 958
f 1092 830 1090
f 1092 831 830
f 1092 832 831
f 1093 1090 1088
f 1093 1088 1091
f 1093 1091 958
f 1093 958 959
f 1093 959 960
f 1094 833 832
f 1094 834 833
f 1094 832 1092
f 1095 1090 1093
f 1095 1092 1090
f 1095 1093 960
f 1095 960 961
f 1095 961 962
f 1096 835 834
f 1096 836 835
f 1096 834 1094
f 1097 1092 1095
f 1097 1094 1092
f 1097 1095 962
f 1097 962 963
f 1097 963 964
f 1098 837 836
f 1098 838 837
f 1098 836 1096
f 1099 965 966
f 1099 1096 1094
f 1099 1098 1096
f 1099 1094 1097
f 1099 1097 964
f 1099 964 965
f 1100 838 1098
f 1100 839 838
f 1100 840 839
f 1101 966 967
f 1101 967 968
f 1101 1099 966
f 1101 1098 1099
f 1102 841 840
f 1102 842 841
f 1102 840 1100
f 1103 968 969
f 1103 969 970
f 1103 1101 968
f 1103 1100 1098
f 1103 1098 1101
f 1104 843 842
f 1104 844 843
f 1104 842 1102
f 1105 970 971
f 1105 971 972
f 1105 1102 1100
f 1105 1103 970
f 1105 1100 1103
f 1106 844 1104
f 1106 845 844
f 1106 846 845
f 1107 972 973
f 1107 973 974
f 1107 1105 972
f 1107 1102 1105
f 1107 1104 1102
f 1108 846 1106
f 1108 847 846
f 1108 848 847
f 1109 974 975
f 1109 1107 974
f 1109 975 976
f 1109 1106 1104
f 1109 1104 1107
f 1110 848 1108
f 1110 849 848
f 1110 850 849
f 1111 976 977
f 1111 977 978
f 1111 1110 1108
f 1111 1106 1109
f 1111 1108 1106
f 1111 1109 976
f 1112 850 1110
f 1112 851 850
f 1112 852 851
f 1113 978 979
f 1113 979 980
f 1113 1110 1111
f 1113 1112 1110
f 1113 1111 978
f 1114 852 1112
f 1114 853 852
f 1114 854 853
f 1115 980 981
f 1115 981 982
f 1115 1112 1113
f 1115 1113 980
f 1116 854 1114
f 1116 855 854
f 1116 856 855
f 1117 982 983
f 1117 983 984
f 1117 1114 1112
f 1117 1112 1115
f 1117 1115 982
f 1118 856 1116
f 1118 857 856
f 1118 858 857
f 1119 984 985
f 1119 985 986
f 1119 1118 1116
f 1119 1117 984
f 1119 1116 1114
f 1119 1114 1117
f 1120 858 1118
f 1120 859 858
f 1120 860 859
f 1121 986 987
f 1121 987 988
f 1121 1119 986
f 1121 1118 1119
f 1122 860 1120
f 1122 861 860
f 1122 862 861
f 1123 988 989
f 1123 989 990
f 1123 1121 988
f 1123 1120 1118
f 1123 1122 1120
f 1123 1118 1121
f 1124 864 863
f 1124 862 1122
f 1124 863 862
f 1125 990 991
f 1125 991 992
f 1125 1123 990
f 1125 1122 1123
f 1126 865 864
f 1126 866 865
f 1126 864 1124
f 1127 1122 1125
f 1127 992 993
f 1127 993 994
f 1127 1125 992
f 1127 1124 1122
f 1128 867 866
f 1128 868 867
f 1128 866 1126
f 1129 1126 1124
f 1129 1127 994
f 1129 1128 1126
f 1129 994 995
f 1129 995 996
f 1129 1124 1127
f 1130 869 868
f 1130 870 869
f 1130 868 1128
f 1131 1129 996
f 1131 996 997
f 1131 997 998
f 1131 1128 1129
f 1131 1130 1128
f 1132 871 870
f 1132 872 871
f 1132 870 1130
f 1133 1132 1130
f 1133 1131 998
f 1133 998 999
f 1133 999 1000
f 1133 1130 1131
f 1134 873 872
f 1134 874 873
f 1134 872 1132
f 1135 1132 1133
f 1135 1133 1000
f 1135 1000 1001
f 1135 1001 1002
f 1136 875 874
f 1136 876 875
f 1136 874 1134
f 1137 1132 1135
f 1137 1134 1132
f 1137 1135 1002
f 1137 1002 1003
f 1137 1003 1004
f 1138 877 876
f 1138 878 877
f 1138 876 1136
f 1139 1136 1134
f 1139 1134 1137
f 1139 1137 1004
f 1139 1004 1005
f 1139 1005 1006
f 1140 879 878
f 1140 880 879
f 1140 878 1138
f 1141 1138 1136
f 1141 1136 1139
f 1141 1006 1007
f 1141 1139 1006
f 1141 1007 1008
f 1142 881 880
f 1142 882 881
f 1142 880 1140
f 1143 1141 1008
f 1143 1008 1009
f 1143 1009 1010
f 1143 1140 1138
f 1143 1138 1141
f 1023 882 1142
f 1023 883 882
f 1023 884 883
f 1144 1010 1011
f 1144 1011 1012
f 1144 1023 1142
f 1144 1143 1010
f 1144 1142 1140
f 1144 1140 1143
f 1025 885 884
f 1025 886 885
f 1025 884 1023
f 1022 1144 1012
f 1022 1012 1013
f 1022 1013 1014
f 1022 1023 1144
f 1026 886 1025
f 1026 887 886
f 1026 888 887
f 1026 890 888
f 1021 1025 1023
f 1146 1145 1272
f 1146 1272 1273
f 1147 1273 1274
f 1147 1146 1273
f 1148 1274 1275
f 1148 1147 1274
f 1149 1275 1276
f 1149 1276 1277
f 1149 1148 1275
f 1150 1149 1277
f 1151 1277 1278
f 1151 1150 1277
f 1152 1278 1279
f 1152 1151 1278
f 1153 1279 1280
f 1153 1152 1279
f 1154 1280 1281
f 1154 1153 1280
f 1155 1281 1282
f 1155 1282 1283
f 1155 1154 1281
f 1156 1155 1283
f 1157 1156 1283
f 1157 1283 1284
f 1158 1157 1284
f 1158 1284 1285
f 1158 1285 1286
f 1159 1158 1286
f 1160 1159 1286
f 1160 1286 1287
f 1160 1287 1288
f 1161 1160 1288
f 1162 1161 1288
f 1162 1288 1289
f 1163 1162 1289
f 1163 1289 1290
f 1164 1163 1290
f 1164 1290 1291
f 1165 1164 1291
f 1165 1291 1292
f 1165 1292 1293
f 1166 1165 1293
f 1167 1166 1293
f 1167 1293 1294
f 1168 1294 1295
f 1168 1167 1294
f 1169 1295 1296
f 1169 1168 1295
f 1170 1296 1297
f 1170 1297 1298
f 1170 1169 1296
f 1171 1170 1298
f 1172 1298 1299
f 1172 1171 1298
f 1173 1299 1300
f 1173 1300 1301
f 1173 1172 1299
f 1174 1173 1301
f 1175 1301 1302
f 1175 1174 1301
f 1176 1302 1303
f 1176 1175 1302
f 1177 1303 1304
f 1177 1176 1303
f 1178 1304 1305
f 1178 1177 1304
f 1179 1305 1306
f 1179 1178 1305
f 1180 1306 1307
f 1180 1179 1306
f 1181 1307 1308
f 1181 1180 1307
f 1182 1181 1308
f 1182 1308 1309
f 1183 1182 1309
f 1183 1309 1310
f 1184 1183 1310
f 1184 1310 1311
f 1185 1184 1311
f 1185 1311 1312
f 1185 1312 1313
f 1186 1185 1313
f 1187 1186 1313
f 1187 1313 1314
f 1187 1314 1315
f 1188 1187 1315
f 1188 1315 1316
f 1189 1188 1316
f 1190 1189 1316
f 1190 1316 1317
f 1191 1190 1317
f 1191 1317 1318
f 1192 1191 1318
f 1192 1318 1319
f 1193 1192 1319
f 1193 1319 1320
f 1194 1193 1320
f 1194 1320 1321
f 1195 1194 1321
f 1195 1321 1322
f 1195 1322 1323
f 1196 1195 1323
f 1197 1196 1323
f 1197 1323 1324
f 1197 1324 1325
f 1198 1197 1325
f 1199 1198 1325
f 1199 1325 1326
f 1200 1199 1326
f 1200 1326 1327
f 1201 1200 1327
f 1201 1327 1328
f 1202 1201 1328
f 1202 1328 1329
f 1203 1329 1330
f 1203 1202 1329
f 1204 1330 1331
f 1204 1331 1332
f 1204 1203 1330
f 1205 1204 1332
f 1206 1332 1333
f 1206 1205 1332
f 1207 1206 1333
f 1207 1333 1334
f 1208 1207 1334
f 1208 1334 1335
f 1209 1208 1335
f 1209 1335 1336
f 1210 1209 1336
f 1210 1336 1337
f 1210 1337 1338
f 1211 1210 1338
f 1212 1211 1338
f 1212 1338 1339
f 1213 1212 1339
f 1213 1339 1340
f 1214 1213 1340
f 1214 1340 1341
f 1215 1214 1341
f 1215 1341 1342
f 1215 1342 1343
f 1216 1215 1343
f 1217 1216 1343
f 1217 1343 1344
f 1218 1217 1344
f 1218 1344 1345
f 1219 1218 1345
f 1219 1345 1346
f 1220 1346 1347
f 1220 1347 1348
f 1220 1219 1346
f 1221 1220 1348
f 1222 1348 1349
f 1222 1349 1350
f 1222 1221 1348
f 1223 1222 1350
f 1224 1350 1351
f 1224 1223 1350
f 1225 1351 1352
f 1225 1352 1353
f 1225 1224 1351
f 1226 1225 1353
f 1227 1353 1354
f 1227 1226 1353
f 1228 1354 1355
f 1228 1227 1354
f 1229 1355 1356
f 1229 1228 1355
f 1230 1356 1357
f 1230 1229 1356
f 1231 1357 1358
f 1231 1230 1357
f 1232 1358 1359
f 1232 1231 1358
f 1233 1232 1359
f 1233 1359 1360
f 1233 1360 1361
f 1234 1233 1361
f 1235 1234 1361
f 1235 1361 1362
f 1236 1235 1362
f 1236 1362 1363
f 1237 1363 1364
f 1237 1236 1363
f 1238 1364 1365
f 1238 1237 1364
f 1239 1365 1366
f 1239 1366 1367
f 1239 1238 1365
f 1240 1239 1367
f 1241 1367 1368
f 1241 1240 1367
f 1242 1368 1369
f 1242 1241 1368
f 1243 1369 1370
f 1243 1242 1369
f 1244 1370 1371
f 1244 1243 1370
f 1245 1371 1372
f 1245 1244 1371
f 1246 1372 1373
f 1246 1373 1374
f 1246 1245 1372
f 1247 1246 1374
f 1248 1374 1375
f 1248 1247 1374
f 1249 1375 1376
f 1249 1248 1375
f 1250 1376 1377
f 1250 1249 1376
f 1251 1377 1378
f 1251 1250 1377
f 1252 1378 1379
f 1252 1251 1378
f 1253 1379 1380
f 1253 1380 1381
f 1253 1252 1379
f 1254 1253 1381
f 1255 1381 1382
f 1255 1254 1381
f 1256 1382 1383
f 1256 1383 1384
f 1256 1255 1382
f 1257 1256 1384
f 1258 1257 1384
f 1258 1384 1385
f 1259 1258 1385
f 1259 1385 1386
f 1260 1259 1386
f 1260 1386 1387
f 1261 1260 1387
f 1261 1387 1388
f 1262 1261 1388
f 1262 1388 1389
f 1262 1389 1390
f 1263 1262 1390
f 1264 1263 1390
f 1264 1390 1391
f 1265 1264 1391
f 1265 1391 1392
f 1266 1265 1392
f 1266 1392 1393
f 1266 1393 1394
f 1267 1266 1394
f 1268 1267 1394
f 1268 1394 1395
f 1269 1268 1395
f 1269 1395 1396
f 1270 1396 1397
f 1270 1269 1396
f 1271 1397 1398
f 1271 1270 1397
f 1480 1479 1478
f 1475 1477 1476
f 1475 1478 1477
f 1483 1480 1478
f 1483 1478 1475
f 1483 1474 1473
f 1483 1475 1474
f 1483 1481 1480
f 1483 1482 1481
f 1470 1483 1473
f 1470 1472 1471
f 1470 1473 1472
f 1486 1485 1484
f 1468 1483 1470
f 1468 1470 1469
f 1466 1468 1467
f 1490 1486 1484
f 1490 1487 1486
f 1490 1488 1487
f 1490 1489 1488
f 1464 1466 1465
f 1464 1468 1466
f 1492 1490 1484
f 1492 1484 1483
f 1492 1491 1490
f 1462 1464 1463
f 1494 1493 1492
f 1460 1462 1461
f 1496 1494 1492
f 1496 1495 1494
f 1459 1462 1460
f 1498 1497 1496
f 1457 1462 1459
f 1457 1459 1458
f 1457 1468 1464
f 1457 1464 1462
f 1455 1457 1456
f 1501 1500 1499
f 1454 1457 1455
f 1502 1498 1496
f 1502 1501 1499
f 1502 1496 1492
f 1502 1492 1483
f 1502 1499 1498
f 1453 1457 1454
f 1503 1502 1483
f 1451 1457 1453
f 1451 1453 1452
f 1451 1468 1457
f 1506 1505 1504
f 1449 1451 1450
f 1448 1451 1449
f 1508 1507 1506
f 1509 1504 1503
f 1509 1503 1483
f 1509 1506 1504
f 1509 1508 1506
f 1509 1483 1468
f 1446 1451 1448
f 1446 1448 1447
f 1445 1451 1446
f 1513 1510 1509
f 1513 1511 1510
f 1513 1512 1511
f 1442 1444 1443
f 1440 1442 1441
f 1440 1444 1442
f 1516 1514 1513
f 1516 1515 1514
f 1439 1445 1444
f 1439 1444 1440
f 1436 1438 1437
f 1436 1439 1438
f 1521 1517 1516
f 1521 1518 1517
f 1521 1519 1518
f 1521 1520 1519
f 1521 1516 1513
f 1434 1436 1435
f 1434 1439 1436
f 1431 1521 1513
f 1431 1433 1432
f 1431 1434 1433
f 1431 1468 1451
f 1431 1509 1468
f 1431 1451 1445
f 1431 1513 1509
f 1431 1445 1439
f 1431 1439 1434
f 1430 1521 1431
f 1428 1430 1429
f 1404 1402 1401
f 1404 1403 1402
f 1425 1427 1426
f 1405 1404 1401
f 1424 1430 1428
f 1424 1521 1430
f 1424 1427 1425
f 1424 1428 1427
f 1406 1400 1399
f 1406 1401 1400
f 1406 1522 1521
f 1406 1523 1522
f 1406 1524 1523
f 1406 1399 1524
f 1406 1405 1401
f 1407 1406 1521
f 1421 1423 1422
f 1421 1424 1423
f 1420 1408 1407
f 1420 1424 1421
f 1420 1521 1424
f 1420 1407 1521
f 1410 1409 1408
f 1411 1410 1408
f 1417 1419 1418
f 1417 1420 1419
f 1413 1412 1411
f 1416 1420 1417
f 1415 1414 1413
f 1415 1408 1420
f 1415 1413 1411
f 1415 1411 1408
f 1415 1420 1416
