# Cadless export: model
v 30 -20 24
v 30 -20 39
v 27 -20 24
v 27 -20 16
v 30 -20 16
v 30 -20 0
v 10 -20 0
v 10 -20 4
v -10 -20 4
v -10 -20 0
v -30 -20 0
v -30 -20 16
v -27 -20 16
v -27 -20 24
v -30 -20 24
v -30 -20 39
v -15 -20 39
v 0 -20 24
v 15 -20 39
v 30 -20 24
v 30 -20 39
v 30 20 24
v 30 20 39
v 17 -19 40
v 15.2929 -19.7071 39.2929
v 15 -20 39
v 30 -20 39
v 29 -19 40
v 27 -20 24
v 27 20 24
v 30 -20 24
v 30 20 24
v 15 -20 39
v 0 -20 24
v 0 20 24
v 15 20 39
v 15.2929 19.7071 39.2929
v 15.2929 -19.7071 39.2929
v 27 -20 24
v 27 20 24
v 27 -20 16
v 27 20 16
v -15 -20 39
v 0 -20 24
v 0 20 24
v -15 20 39
v -15.2929 19.7071 39.2929
v -15.2929 -19.7071 39.2929
v 27 -20 16
v 27 20 16
v 30 -20 16
v 30 20 16
v -17 -19 40
v -15.2929 -19.7071 39.2929
v -29 -19 40
v -30 -20 39
v -15 -20 39
v 30 -20 0
v 30 -20 16
v 30 20 0
v 30 20 16
v -30 -20 24
v -30 -20 39
v -30 20 24
v -30 20 39
v 10 20 0
v 30 20 0
v 10 -20 0
v 30 -20 0
v -27 -20 24
v -27 20 24
v -30 20 24
v -30 -20 24
v 10 -20 4
v 10 20 4
v 10 -20 0
v 10 20 0
v -27 -20 24
v -27 20 24
v -27 -20 16
v -27 20 16
v -10 -20 4
v -10 20 4
v 10 -20 4
v 10 20 4
v -27 -20 16
v -27 20 16
v -30 20 16
v -30 -20 16
v -10 -20 4
v -10 20 4
v -10 -20 0
v -10 20 0
v -30 -20 0
v -30 -20 16
v -30 20 0
v -30 20 16
v -30 20 0
v -10 20 0
v -30 -20 0
v -10 -20 0
v 30 -20 39
v 29 -19 40
v 30 20 39
v 29 19 40
v 30 20 24
v 30 20 39
v 27 20 24
v 27 20 16
v 30 20 16
v 30 20 0
v 10 20 0
v 10 20 4
v -10 20 4
v -10 20 0
v -30 20 0
v -30 20 16
v -27 20 16
v -27 20 24
v -30 20 24
v -30 20 39
v -15 20 39
v 0 20 24
v 15 20 39
v 17 -19 40
v 15.2929 -19.7071 39.2929
v 17 19 40
v 15.2929 19.7071 39.2929
v 17 -19 40
v 29 -19 40
v 29 19 40
v 17 19 40
v 17 19 40
v 15.2929 19.7071 39.2929
v 15 20 39
v 30 20 39
v 29 19 40
v -17 -19 40
v -15.2929 -19.7071 39.2929
v -15.2929 19.7071 39.2929
v -17 19 40
v -17 19 40
v -15.2929 19.7071 39.2929
v -29 19 40
v -30 20 39
v -15 20 39
v -29 -19 40
v -17 -19 40
v -17 19 40
v -29 19 40
v -30 -20 39
v -29 -19 40
v -29 19 40
v -30 20 39
f 13 12 11
f 9 11 10
f 9 13 11
f 16 15 14
f 17 16 14
f 18 9 8
f 18 14 13
f 18 13 9
f 18 17 14
f 6 8 7
f 4 18 8
f 4 8 6
f 5 4 6
f 3 18 4
f 19 18 3
f 2 3 1
f 2 19 3
f 20 22 23
f 21 20 23
f 24 25 26
f 27 24 26
f 28 24 27
f 32 29 30
f 32 31 29
f 37 36 35
f 38 34 33
f 38 35 34
f 38 37 35
f 41 42 40
f 39 41 40
f 44 48 43
f 47 48 44
f 45 46 47
f 45 47 44
f 52 50 49
f 52 49 51
f 53 55 56
f 57 53 56
f 54 53 57
f 59 58 60
f 59 60 61
f 62 65 64
f 63 65 62
f 67 68 66
f 67 69 68
f 71 73 72
f 71 70 73
f 76 75 77
f 74 75 76
f 80 79 81
f 78 79 80
f 85 82 83
f 85 84 82
f 87 88 89
f 87 89 86
f 92 93 91
f 90 92 91
f 95 96 94
f 95 97 96
f 99 100 98
f 99 101 100
f 105 103 102
f 105 102 104
f 118 116 117
f 114 115 116
f 114 116 118
f 121 119 120
f 122 119 121
f 123 113 114
f 123 118 119
f 123 114 118
f 123 119 122
f 111 112 113
f 109 113 123
f 109 111 113
f 110 111 109
f 108 109 123
f 124 108 123
f 107 106 108
f 107 108 124
f 127 126 125
f 128 126 127
f 131 129 130
f 131 132 129
f 133 135 134
f 136 135 133
f 137 136 133
f 140 138 139
f 141 138 140
f 142 145 144
f 146 145 142
f 143 146 142
f 149 147 148
f 149 150 147
f 153 151 152
f 154 151 153
