# Cadless export: model
v 382 -150 18
v 382 -150 1782
v 382 150 18
v 382 150 1782
v -382 -150 18
v -382 150 18
v 382 -150 18
v 382 150 18
v -382 -150 18
v -382 -150 1782
v -382 150 18
v -382 150 1782
v 400 150 0
v -400 150 0
v -400 150 1800
v 400 150 1800
v -382 150 18
v -382 150 1782
v 382 150 18
v 382 150 1782
v 400 -150 0
v 400 -150 1800
v 400 150 0
v 400 150 1800
v -400 -150 1800
v -400 150 1800
v 400 -150 1800
v 400 150 1800
v -400 -150 0
v -400 -150 1800
v -400 150 0
v -400 150 1800
v 400 150 0
v -400 150 0
v -400 -150 0
v 400 -150 0
v -382 -150 1782
v -382 150 1782
v 382 -150 1782
v 382 150 1782
v -400 -150 0
v 400 -150 0
v -400 -150 1800
v 400 -150 1800
v -382 -150 18
v -382 -150 1782
v 382 -150 18
v 382 -150 1782
f 4 3 1
f 2 4 1
f 8 6 5
f 8 5 7
f 12 9 11
f 10 9 12
f 19 14 17
f 13 14 19
f 15 17 14
f 18 17 15
f 20 18 15
f 16 20 15
f 16 13 19
f 16 19 20
f 24 21 23
f 22 21 24
f 27 26 25
f 28 26 27
f 32 31 29
f 30 32 29
f 36 35 34
f 33 36 34
f 40 37 38
f 40 39 37
f 47 45 41
f 42 47 41
f 43 41 45
f 46 43 45
f 48 43 46
f 44 43 48
f 44 47 42
f 44 48 47
