# Cadless export: model
v 28.9828 -11 5
v 28.9828 -11 9
v 29.4516 -9.67499 9
v 29.8598 -8.33009 9
v 30.2067 -6.96807 9
v 30.4915 -5.59172 9
v 30.7136 -4.20388 9
v 30.8726 -2.8074 9
v 30.9681 -1.40514 9
v 31 -7.59281e-15 9
v 31 -7.59281e-15 11
v 31 -7.59281e-15 11
v 30.9615 1.54522 11
v 30.846 3.0866 11
v 30.6538 4.62031 11
v 30.3853 6.14253 11
v 30.0414 7.64948 11
v 29.6228 9.13741 11
v 29.1305 10.6026 11
v 28.5658 12.0415 11
v 27.93 13.4504 11
v 27.2249 14.8259 11
v 26.452 16.1645 11
v 25.6134 17.4629 11
v 24.7111 18.7179 11
v 23.7474 19.9264 11
v 22.7246 21.0854 11
v 21.6453 22.1919 11
v 20.5123 23.2432 11
v 19.3282 24.2368 11
v 18.0961 25.1701 11
v 16.8189 26.0408 11
v 15.5 26.8468 11
v 14.1425 27.586 11
v 12.7499 28.2567 11
v 11.3256 28.8571 11
v 9.87309 29.3857 11
v 8.39605 29.8414 11
v 6.89815 30.2228 11
v 5.38309 30.529 11
v 3.85465 30.7594 11
v 2.31663 30.9133 11
v 0.772851 30.9904 11
v -0.772851 30.9904 11
v -2.31663 30.9133 11
v -3.85465 30.7594 11
v -5.38309 30.529 11
v -6.89815 30.2228 11
v -8.39605 29.8414 11
v -9.87309 29.3857 11
v -11.3256 28.8571 11
v -12.7499 28.2567 11
v -14.1425 27.586 11
v -15.5 26.8468 11
v -16.8189 26.0408 11
v -18.0961 25.1701 11
v -19.3282 24.2368 11
v -20.5123 23.2432 11
v -21.6453 22.1919 11
v -22.7246 21.0854 11
v -23.7474 19.9264 11
v -24.7111 18.7179 11
v -25.6134 17.4629 11
v -26.452 16.1645 11
v -27.2249 14.8259 11
v -27.93 13.4504 11
v -28.5658 12.0415 11
v -29.1305 10.6026 11
v -29.6228 9.13741 11
v -30.0414 7.64948 11
v -30.3853 6.14253 11
v -30.6538 4.62031 11
v -30.846 3.0866 11
v -30.9615 1.54522 11
v -31 -1.06338e-13 11
v -30.9615 -1.54522 11
v -30.846 -3.0866 11
v -30.6538 -4.62031 11
v -30.3853 -6.14253 11
v -30.0414 -7.64948 11
v -29.6228 -9.13741 11
v -29.1305 -10.6026 11
v -28.5658 -12.0415 11
v -27.93 -13.4504 11
v -27.2249 -14.8259 11
v -26.452 -16.1645 11
v -25.6134 -17.4629 11
v -24.7111 -18.7179 11
v -23.7474 -19.9264 11
v -22.7246 -21.0854 11
v -21.6453 -22.1919 11
v -20.5123 -23.2432 11
v -19.3282 -24.2368 11
v -18.0961 -25.1701 11
v -16.8189 -26.0408 11
v -15.5 -26.8468 11
v -14.1425 -27.586 11
v -12.7499 -28.2567 11
v -11.3256 -28.8571 11
v -9.87309 -29.3857 11
v -8.39605 -29.8414 11
v -6.89815 -30.2228 11
v -5.38309 -30.529 11
v -3.85465 -30.7594 11
v -2.31663 -30.9133 11
v -0.772851 -30.9904 11
v 0.772851 -30.9904 11
v 2.31663 -30.9133 11
v 3.85465 -30.7594 11
v 5.38309 -30.529 11
v 6.89815 -30.2228 11
v 8.39605 -29.8414 11
v 9.87309 -29.3857 11
v 11.3256 -28.8571 11
v 12.7499 -28.2567 11
v 14.1425 -27.586 11
v 15.5 -26.8468 11
v 16.8189 -26.0408 11
v 18.0961 -25.1701 11
v 19.3282 -24.2368 11
v 20.5123 -23.2432 11
v 21.6453 -22.1919 11
v 22.7246 -21.0854 11
v 23.7474 -19.9264 11
v 24.7111 -18.7179 11
v 25.6134 -17.4629 11
v 26.452 -16.1645 11
v 27.2249 -14.8259 11
v 27.93 -13.4504 11
v 28.5658 -12.0415 11
v 29.1305 -10.6026 11
v 29.6228 -9.13741 11
v 30.0414 -7.64948 11
v 30.3853 -6.14253 11
v 30.6538 -4.62031 11
v 30.846 -3.0866 11
v 30.9615 -1.54522 11
v 31 -7.59281e-15 9
v 30.9681 1.40514 9
v 30.8726 2.8074 9
v 30.7136 4.20388 9
v 30.4915 5.59172 9
v 30.2067 6.96807 9
v 29.8598 8.33009 9
v 29.4516 9.67499 9
v 28.9828 11 9
v 28.9828 11 5
v 30.8545 3 5
v 30.6914 4.36354 5
v 30.468 5.71853 5
v 30.1848 7.06228 5
v 29.8424 8.39218 5
v 29.4415 9.70562 5
v 30.8545 3 -5
v 30.6914 4.36354 -5
v 30.468 5.71853 -5
v 30.1848 7.06228 -5
v 29.8424 8.39218 -5
v 29.4415 9.70562 -5
v 28.9828 11 -5
v 28.9828 11 -9
v 29.4516 9.67499 -9
v 29.8598 8.33009 -9
v 30.2067 6.96807 -9
v 30.4915 5.59172 -9
v 30.7136 4.20388 -9
v 30.8726 2.8074 -9
v 30.9681 1.40514 -9
v 31 -7.59281e-15 -9
v 31 -7.59281e-15 -11
v 30.9615 1.54522 -11
v 30.846 3.0866 -11
v 30.6538 4.62031 -11
v 30.3853 6.14253 -11
v 30.0414 7.64948 -11
v 29.6228 9.13741 -11
v 29.1305 10.6026 -11
v 28.5658 12.0415 -11
v 27.93 13.4504 -11
v 27.2249 14.8259 -11
v 26.452 16.1645 -11
v 25.6134 17.4629 -11
v 24.7111 18.7179 -11
v 23.7474 19.9264 -11
v 22.7246 21.0854 -11
v 21.6453 22.1919 -11
v 20.5123 23.2432 -11
v 19.3282 24.2368 -11
v 18.0961 25.1701 -11
v 16.8189 26.0408 -11
v 15.5 26.8468 -11
v 14.1425 27.586 -11
v 12.7499 28.2567 -11
v 11.3256 28.8571 -11
v 9.87309 29.3857 -11
v 8.39605 29.8414 -11
v 6.89815 30.2228 -11
v 5.38309 30.529 -11
v 3.85465 30.7594 -11
v 2.31663 30.9133 -11
v 0.772851 30.9904 -11
v -0.772851 30.9904 -11
v -2.31663 30.9133 -11
v -3.85465 30.7594 -11
v -5.38309 30.529 -11
v -6.89815 30.2228 -11
v -8.39605 29.8414 -11
v -9.87309 29.3857 -11
v -11.3256 28.8571 -11
v -12.7499 28.2567 -11
v -14.1425 27.586 -11
v -15.5 26.8468 -11
v -16.8189 26.0408 -11
v -18.0961 25.1701 -11
v -19.3282 24.2368 -11
v -20.5123 23.2432 -11
v -21.6453 22.1919 -11
v -22.7246 21.0854 -11
v -23.7474 19.9264 -11
v -24.7111 18.7179 -11
v -25.6134 17.4629 -11
v -26.452 16.1645 -11
v -27.2249 14.8259 -11
v -27.93 13.4504 -11
v -28.5658 12.0415 -11
v -29.1305 10.6026 -11
v -29.6228 9.13741 -11
v -30.0414 7.64948 -11
v -30.3853 6.14253 -11
v -30.6538 4.62031 -11
v -30.846 3.0866 -11
v -30.9615 1.54522 -11
v -31 -1.06338e-13 -11
v -30.9615 -1.54522 -11
v -30.846 -3.0866 -11
v -30.6538 -4.62031 -11
v -30.3853 -6.14253 -11
v -30.0414 -7.64948 -11
v -29.6228 -9.13741 -11
v -29.1305 -10.6026 -11
v -28.5658 -12.0415 -11
v -27.93 -13.4504 -11
v -27.2249 -14.8259 -11
v -26.452 -16.1645 -11
v -25.6134 -17.4629 -11
v -24.7111 -18.7179 -11
v -23.7474 -19.9264 -11
v -22.7246 -21.0854 -11
v -21.6453 -22.1919 -11
v -20.5123 -23.2432 -11
v -19.3282 -24.2368 -11
v -18.0961 -25.1701 -11
v -16.8189 -26.0408 -11
v -15.5 -26.8468 -11
v -14.1425 -27.586 -11
v -12.7499 -28.2567 -11
v -11.3256 -28.8571 -11
v -9.87309 -29.3857 -11
v -8.39605 -29.8414 -11
v -6.89815 -30.2228 -11
v -5.38309 -30.529 -11
v -3.85465 -30.7594 -11
v -2.31663 -30.9133 -11
v -0.772851 -30.9904 -11
v 0.772851 -30.9904 -11
v 2.31663 -30.9133 -11
v 3.85465 -30.7594 -11
v 5.38309 -30.529 -11
v 6.89815 -30.2228 -11
v 8.39605 -29.8414 -11
v 9.87309 -29.3857 -11
v 11.3256 -28.8571 -11
v 12.7499 -28.2567 -11
v 14.1425 -27.586 -11
v 15.5 -26.8468 -11
v 16.8189 -26.0408 -11
v 18.0961 -25.1701 -11
v 19.3282 -24.2368 -11
v 20.5123 -23.2432 -11
v 21.6453 -22.1919 -11
v 22.7246 -21.0854 -11
v 23.7474 -19.9264 -11
v 24.7111 -18.7179 -11
v 25.6134 -17.4629 -11
v 26.452 -16.1645 -11
v 27.2249 -14.8259 -11
v 27.93 -13.4504 -11
v 28.5658 -12.0415 -11
v 29.1305 -10.6026 -11
v 29.6228 -9.13741 -11
v 30.0414 -7.64948 -11
v 30.3853 -6.14253 -11
v 30.6538 -4.62031 -11
v 30.846 -3.0866 -11
v 30.9615 -1.54522 -11
v 31 -7.59281e-15 -11
v 31 -7.59281e-15 -9
v 30.9681 -1.40514 -9
v 30.8726 -2.8074 -9
v 30.7136 -4.20388 -9
v 30.4915 -5.59172 -9
v 30.2067 -6.96807 -9
v 29.8598 -8.33009 -9
v 29.4516 -9.67499 -9
v 28.9828 -11 -9
v 28.9828 -11 -5
v 29.4415 -9.70562 -5
v 29.8424 -8.39218 -5
v 30.1848 -7.06228 -5
v 30.468 -5.71853 -5
v 30.6914 -4.36354 -5
v 30.8545 -3 -5
v 30.8545 -3 5
v 29.4415 -9.70562 5
v 29.8424 -8.39218 5
v 30.1848 -7.06228 5
v 30.468 -5.71853 5
v 30.6914 -4.36354 5
v 28.9828 -11 5
v 29.4415 -9.70562 5
v 29.8424 -8.39218 5
v 30.1848 -7.06228 5
v 30.468 -5.71853 5
v 30.6914 -4.36354 5
v 30.8545 -3 5
v 135 -11 5
v 135 -3 5
v 135 -11 9
v 135 11 9
v 135 -11 5
v 135 -3 5
v 135 -3 -5
v 135 -11 -5
v 135 -11 -9
v 135 11 -9
v 135 11 -5
v 135 3 -5
v 135 3 5
v 135 11 5
v 30.8545 -3 -5
v 135 -3 -5
v 30.8545 -3 5
v 135 -3 5
v 28.9828 -11 -5
v 29.4415 -9.70562 -5
v 29.8424 -8.39218 -5
v 30.1848 -7.06228 -5
v 30.468 -5.71853 -5
v 30.6914 -4.36354 -5
v 30.8545 -3 -5
v 135 -11 -5
v 135 -3 -5
v 28.9828 -11 -9
v 135 -11 -9
v 28.9828 -11 -5
v 135 -11 -5
v 31 -7.59281e-15 -11
v 30.9615 1.54522 -11
v 30.846 3.0866 -11
v 30.6538 4.62031 -11
v 30.3853 6.14253 -11
v 30.0414 7.64948 -11
v 29.6228 9.13741 -11
v 29.1305 10.6026 -11
v 28.5658 12.0415 -11
v 27.93 13.4504 -11
v 27.2249 14.8259 -11
v 26.452 16.1645 -11
v 25.6134 17.4629 -11
v 24.7111 18.7179 -11
v 23.7474 19.9264 -11
v 22.7246 21.0854 -11
v 21.6453 22.1919 -11
v 20.5123 23.2432 -11
v 19.3282 24.2368 -11
v 18.0961 25.1701 -11
v 16.8189 26.0408 -11
v 15.5 26.8468 -11
v 14.1425 27.586 -11
v 12.7499 28.2567 -11
v 11.3256 28.8571 -11
v 9.87309 29.3857 -11
v 8.39605 29.8414 -11
v 6.89815 30.2228 -11
v 5.38309 30.529 -11
v 3.85465 30.7594 -11
v 2.31663 30.9133 -11
v 0.772851 30.9904 -11
v -0.772851 30.9904 -11
v -2.31663 30.9133 -11
v -3.85465 30.7594 -11
v -5.38309 30.529 -11
v -6.89815 30.2228 -11
v -8.39605 29.8414 -11
v -9.87309 29.3857 -11
v -11.3256 28.8571 -11
v -12.7499 28.2567 -11
v -14.1425 27.586 -11
v -15.5 26.8468 -11
v -16.8189 26.0408 -11
v -18.0961 25.1701 -11
v -19.3282 24.2368 -11
v -20.5123 23.2432 -11
v -21.6453 22.1919 -11
v -22.7246 21.0854 -11
v -23.7474 19.9264 -11
v -24.7111 18.7179 -11
v -25.6134 17.4629 -11
v -26.452 16.1645 -11
v -27.2249 14.8259 -11
v -27.93 13.4504 -11
v -28.5658 12.0415 -11
v -29.1305 10.6026 -11
v -29.6228 9.13741 -11
v -30.0414 7.64948 -11
v -30.3853 6.14253 -11
v -30.6538 4.62031 -11
v -30.846 3.0866 -11
v -30.9615 1.54522 -11
v -31 -1.06338e-13 -11
v -30.9615 -1.54522 -11
v -30.846 -3.0866 -11
v -30.6538 -4.62031 -11
v -30.3853 -6.14253 -11
v -30.0414 -7.64948 -11
v -29.6228 -9.13741 -11
v -29.1305 -10.6026 -11
v -28.5658 -12.0415 -11
v -27.93 -13.4504 -11
v -27.2249 -14.8259 -11
v -26.452 -16.1645 -11
v -25.6134 -17.4629 -11
v -24.7111 -18.7179 -11
v -23.7474 -19.9264 -11
v -22.7246 -21.0854 -11
v -21.6453 -22.1919 -11
v -20.5123 -23.2432 -11
v -19.3282 -24.2368 -11
v -18.0961 -25.1701 -11
v -16.8189 -26.0408 -11
v -15.5 -26.8468 -11
v -14.1425 -27.586 -11
v -12.7499 -28.2567 -11
v -11.3256 -28.8571 -11
v -9.87309 -29.3857 -11
v -8.39605 -29.8414 -11
v -6.89815 -30.2228 -11
v -5.38309 -30.529 -11
v -3.85465 -30.7594 -11
v -2.31663 -30.9133 -11
v -0.772851 -30.9904 -11
v 0.772851 -30.9904 -11
v 2.31663 -30.9133 -11
v 3.85465 -30.7594 -11
v 5.38309 -30.529 -11
v 6.89815 -30.2228 -11
v 8.39605 -29.8414 -11
v 9.87309 -29.3857 -11
v 11.3256 -28.8571 -11
v 12.7499 -28.2567 -11
v 14.1425 -27.586 -11
v 15.5 -26.8468 -11
v 16.8189 -26.0408 -11
v 18.0961 -25.1701 -11
v 19.3282 -24.2368 -11
v 20.5123 -23.2432 -11
v 21.6453 -22.1919 -11
v 22.7246 -21.0854 -11
v 23.7474 -19.9264 -11
v 24.7111 -18.7179 -11
v 25.6134 -17.4629 -11
v 26.452 -16.1645 -11
v 27.2249 -14.8259 -11
v 27.93 -13.4504 -11
v 28.5658 -12.0415 -11
v 29.1305 -10.6026 -11
v 29.6228 -9.13741 -11
v 30.0414 -7.64948 -11
v 30.3853 -6.14253 -11
v 30.6538 -4.62031 -11
v 30.846 -3.0866 -11
v 30.9615 -1.54522 -11
v 28.9828 -11 -9
v 135 -11 -9
v 135 11 -9
v 28.9828 11 -9
v 29.4516 9.67499 -9
v 29.8598 8.33009 -9
v 30.2067 6.96807 -9
v 30.4915 5.59172 -9
v 30.7136 4.20388 -9
v 30.8726 2.8074 -9
v 30.9681 1.40514 -9
v 31 -7.59281e-15 -9
v 30.9681 -1.40514 -9
v 30.8726 -2.8074 -9
v 30.7136 -4.20388 -9
v 30.4915 -5.59172 -9
v 30.2067 -6.96807 -9
v 29.8598 -8.33009 -9
v 29.4516 -9.67499 -9
v 28.9828 11 -9
v 135 11 -9
v 28.9828 11 -5
v 135 11 -5
v 28.9828 11 -5
v 135 11 -5
v 30.8545 3 -5
v 30.6914 4.36354 -5
v 30.468 5.71853 -5
v 30.1848 7.06228 -5
v 29.8424 8.39218 -5
v 29.4415 9.70562 -5
v 135 3 -5
v 30.8545 3 -5
v 135 3 -5
v 30.8545 3 5
v 135 3 5
v 28.9828 11 5
v 135 11 5
v 30.8545 3 5
v 30.6914 4.36354 5
v 30.468 5.71853 5
v 30.1848 7.06228 5
v 29.8424 8.39218 5
v 29.4415 9.70562 5
v 135 3 5
v 28.9828 11 5
v 135 11 5
v 28.9828 11 9
v 135 11 9
v 31 -7.59281e-15 11
v 30.9615 1.54522 11
v 30.846 3.0866 11
v 30.6538 4.62031 11
v 30.3853 6.14253 11
v 30.0414 7.64948 11
v 29.6228 9.13741 11
v 29.1305 10.6026 11
v 28.5658 12.0415 11
v 27.93 13.4504 11
v 27.2249 14.8259 11
v 26.452 16.1645 11
v 25.6134 17.4629 11
v 24.7111 18.7179 11
v 23.7474 19.9264 11
v 22.7246 21.0854 11
v 21.6453 22.1919 11
v 20.5123 23.2432 11
v 19.3282 24.2368 11
v 18.0961 25.1701 11
v 16.8189 26.0408 11
v 15.5 26.8468 11
v 14.1425 27.586 11
v 12.7499 28.2567 11
v 11.3256 28.8571 11
v 9.87309 29.3857 11
v 8.39605 29.8414 11
v 6.89815 30.2228 11
v 5.38309 30.529 11
v 3.85465 30.7594 11
v 2.31663 30.9133 11
v 0.772851 30.9904 11
v -0.772851 30.9904 11
v -2.31663 30.9133 11
v -3.85465 30.7594 11
v -5.38309 30.529 11
v -6.89815 30.2228 11
v -8.39605 29.8414 11
v -9.87309 29.3857 11
v -11.3256 28.8571 11
v -12.7499 28.2567 11
v -14.1425 27.586 11
v -15.5 26.8468 11
v -16.8189 26.0408 11
v -18.0961 25.1701 11
v -19.3282 24.2368 11
v -20.5123 23.2432 11
v -21.6453 22.1919 11
v -22.7246 21.0854 11
v -23.7474 19.9264 11
v -24.7111 18.7179 11
v -25.6134 17.4629 11
v -26.452 16.1645 11
v -27.2249 14.8259 11
v -27.93 13.4504 11
v -28.5658 12.0415 11
v -29.1305 10.6026 11
v -29.6228 9.13741 11
v -30.0414 7.64948 11
v -30.3853 6.14253 11
v -30.6538 4.62031 11
v -30.846 3.0866 11
v -30.9615 1.54522 11
v -31 -1.06338e-13 11
v -30.9615 -1.54522 11
v -30.846 -3.0866 11
v -30.6538 -4.62031 11
v -30.3853 -6.14253 11
v -30.0414 -7.64948 11
v -29.6228 -9.13741 11
v -29.1305 -10.6026 11
v -28.5658 -12.0415 11
v -27.93 -13.4504 11
v -27.2249 -14.8259 11
v -26.452 -16.1645 11
v -25.6134 -17.4629 11
v -24.7111 -18.7179 11
v -23.7474 -19.9264 11
v -22.7246 -21.0854 11
v -21.6453 -22.1919 11
v -20.5123 -23.2432 11
v -19.3282 -24.2368 11
v -18.0961 -25.1701 11
v -16.8189 -26.0408 11
v -15.5 -26.8468 11
v -14.1425 -27.586 11
v -12.7499 -28.2567 11
v -11.3256 -28.8571 11
v -9.87309 -29.3857 11
v -8.39605 -29.8414 11
v -6.89815 -30.2228 11
v -5.38309 -30.529 11
v -3.85465 -30.7594 11
v -2.31663 -30.9133 11
v -0.772851 -30.9904 11
v 0.772851 -30.9904 11
v 2.31663 -30.9133 11
v 3.85465 -30.7594 11
v 5.38309 -30.529 11
v 6.89815 -30.2228 11
v 8.39605 -29.8414 11
v 9.87309 -29.3857 11
v 11.3256 -28.8571 11
v 12.7499 -28.2567 11
v 14.1425 -27.586 11
v 15.5 -26.8468 11
v 16.8189 -26.0408 11
v 18.0961 -25.1701 11
v 19.3282 -24.2368 11
v 20.5123 -23.2432 11
v 21.6453 -22.1919 11
v 22.7246 -21.0854 11
v 23.7474 -19.9264 11
v 24.7111 -18.7179 11
v 25.6134 -17.4629 11
v 26.452 -16.1645 11
v 27.2249 -14.8259 11
v 27.93 -13.4504 11
v 28.5658 -12.0415 11
v 29.1305 -10.6026 11
v 29.6228 -9.13741 11
v 30.0414 -7.64948 11
v 30.3853 -6.14253 11
v 30.6538 -4.62031 11
v 30.846 -3.0866 11
v 30.9615 -1.54522 11
v 28.9828 11 9
v 135 11 9
v 31 -7.59281e-15 9
v 30.9681 1.40514 9
v 30.8726 2.8074 9
v 30.7136 4.20388 9
v 30.4915 5.59172 9
v 30.2067 6.96807 9
v 29.8598 8.33009 9
v 29.4516 9.67499 9
v 28.9828 -11 9
v 29.4516 -9.67499 9
v 29.8598 -8.33009 9
v 30.2067 -6.96807 9
v 30.4915 -5.59172 9
v 30.7136 -4.20388 9
v 30.8726 -2.8074 9
v 30.9681 -1.40514 9
v 135 -11 9
v 28.9828 -11 5
v 135 -11 5
v 28.9828 -11 9
v 135 -11 9
f 168 169 170
f 168 170 171
f 167 168 171
f 167 171 172
f 139 12 138
f 173 166 172
f 13 12 139
f 140 13 139
f 174 165 173
f 14 13 140
f 149 148 154
f 149 154 155
f 175 164 174
f 15 14 141
f 150 149 155
f 150 155 156
f 150 156 157
f 176 163 175
f 16 15 142
f 151 150 157
f 152 157 158
f 152 151 157
f 177 162 176
f 17 16 143
f 153 158 159
f 153 152 158
f 178 161 177
f 178 160 161
f 18 17 144
f 147 153 159
f 147 159 160
f 19 18 145
f 20 147 160
f 20 19 146
f 20 146 147
f 20 160 178
f 21 20 178
f 21 178 179
f 21 179 180
f 22 21 180
f 22 180 181
f 23 22 181
f 23 181 182
f 24 23 182
f 25 24 182
f 25 182 183
f 26 25 183
f 26 183 184
f 27 26 184
f 27 184 185
f 27 185 186
f 28 27 186
f 28 186 187
f 29 28 187
f 29 187 188
f 30 29 188
f 31 30 188
f 31 188 189
f 32 31 189
f 32 189 190
f 33 32 190
f 33 190 191
f 33 191 192
f 34 33 192
f 35 34 192
f 35 192 193
f 36 35 193
f 36 193 194
f 37 194 195
f 37 36 194
f 38 195 196
f 38 37 195
f 39 38 196
f 39 196 197
f 39 197 198
f 40 39 198
f 41 40 198
f 41 198 199
f 42 41 199
f 42 199 200
f 43 42 200
f 43 200 201
f 43 201 202
f 44 202 203
f 44 43 202
f 45 44 203
f 46 203 204
f 46 45 203
f 47 204 205
f 47 46 204
f 48 205 206
f 48 206 207
f 48 47 205
f 49 207 208
f 49 48 207
f 50 49 208
f 51 208 209
f 51 50 208
f 52 209 210
f 52 51 209
f 53 210 211
f 53 211 212
f 53 52 210
f 54 212 213
f 54 53 212
f 55 54 213
f 56 213 214
f 56 214 215
f 56 55 213
f 57 56 215
f 58 215 216
f 58 57 215
f 59 216 217
f 59 58 216
f 60 217 218
f 60 59 217
f 61 218 219
f 61 60 218
f 62 219 220
f 62 61 219
f 63 220 221
f 63 62 220
f 64 221 222
f 64 63 221
f 65 64 222
f 65 222 223
f 65 223 224
f 66 65 224
f 67 66 224
f 67 224 225
f 68 67 225
f 68 225 226
f 69 68 226
f 69 226 227
f 70 227 228
f 70 69 227
f 71 228 229
f 71 70 228
f 72 229 230
f 72 71 229
f 73 230 231
f 73 72 230
f 74 231 232
f 74 73 231
f 75 232 233
f 75 74 232
f 76 233 234
f 76 75 233
f 77 234 235
f 77 235 236
f 77 76 234
f 78 77 236
f 79 236 237
f 79 78 236
f 80 237 238
f 80 238 239
f 80 79 237
f 81 80 239
f 82 239 240
f 82 240 241
f 82 81 239
f 83 82 241
f 84 241 242
f 84 83 241
f 85 242 243
f 85 84 242
f 86 243 244
f 86 85 243
f 87 244 245
f 87 86 244
f 88 245 246
f 88 87 245
f 89 88 246
f 89 246 247
f 89 247 248
f 90 89 248
f 91 90 248
f 91 248 249
f 92 91 249
f 92 249 250
f 93 92 250
f 93 250 251
f 93 251 252
f 94 93 252
f 95 94 252
f 95 252 253
f 95 253 254
f 96 95 254
f 97 96 254
f 97 254 255
f 98 97 255
f 98 255 256
f 99 98 256
f 99 256 257
f 99 257 258
f 100 99 258
f 101 100 258
f 101 258 259
f 102 101 259
f 102 259 260
f 103 260 261
f 103 102 260
f 103 261 262
f 104 103 262
f 105 104 262
f 105 262 263
f 105 263 264
f 106 105 264
f 107 264 265
f 107 106 264
f 108 265 266
f 108 107 265
f 109 266 267
f 109 108 266
f 110 267 268
f 110 109 267
f 111 268 269
f 111 110 268
f 112 269 270
f 112 270 271
f 112 111 269
f 113 112 271
f 114 271 272
f 114 113 271
f 115 114 272
f 115 272 273
f 115 273 274
f 116 115 274
f 116 274 275
f 117 116 275
f 117 275 276
f 118 117 276
f 119 118 276
f 119 276 277
f 119 277 278
f 120 119 278
f 121 120 278
f 121 278 279
f 122 121 279
f 122 279 280
f 123 122 280
f 123 280 281
f 124 123 281
f 124 281 282
f 125 124 282
f 125 282 283
f 126 125 283
f 126 283 284
f 127 126 284
f 127 284 285
f 127 285 286
f 128 127 286
f 289 305 288
f 129 128 286
f 129 286 287
f 306 288 305
f 290 304 289
f 130 129 287
f 130 287 288
f 1 288 306
f 1 130 288
f 2 130 1
f 291 303 290
f 131 130 2
f 314 306 307
f 314 307 308
f 314 1 306
f 315 314 308
f 292 302 291
f 132 131 3
f 316 308 309
f 316 309 310
f 316 315 308
f 293 301 292
f 133 132 4
f 317 316 310
f 294 300 293
f 134 133 5
f 318 310 311
f 318 311 312
f 318 317 310
f 295 299 294
f 135 134 6
f 298 299 295
f 313 318 312
f 296 298 295
f 136 135 7
f 297 298 296
f 137 8 9
f 137 136 8
f 11 9 10
f 11 137 9
f 2 3 131
f 3 4 132
f 4 5 133
f 5 6 134
f 6 7 135
f 7 8 136
f 140 141 14
f 141 142 15
f 142 143 16
f 143 144 17
f 144 145 18
f 145 146 19
f 161 162 177
f 162 163 176
f 163 164 175
f 164 165 174
f 165 166 173
f 166 167 172
f 299 300 294
f 300 301 293
f 301 302 292
f 302 303 291
f 303 304 290
f 304 305 289
f 326 319 320
f 326 320 321
f 326 321 322
f 326 322 323
f 326 323 324
f 326 324 325
f 327 326 325
f 337 335 336
f 334 335 337
f 334 337 332
f 338 339 329
f 333 334 332
f 331 337 338
f 331 332 337
f 328 330 331
f 328 338 329
f 328 331 338
f 343 340 341
f 343 342 340
f 351 345 344
f 351 346 345
f 351 347 346
f 351 348 347
f 351 349 348
f 351 350 349
f 352 350 351
f 354 355 353
f 356 355 354
f 438 437 436
f 440 438 436
f 440 436 435
f 440 439 438
f 429 431 430
f 429 432 431
f 429 433 432
f 429 434 433
f 429 435 434
f 443 440 435
f 443 441 440
f 443 442 441
f 445 443 435
f 445 444 443
f 426 428 427
f 426 429 428
f 446 435 429
f 446 445 435
f 447 446 429
f 423 425 424
f 423 426 425
f 449 448 447
f 450 447 429
f 450 449 447
f 421 423 422
f 419 421 420
f 419 423 421
f 454 452 451
f 454 453 452
f 455 454 451
f 415 417 416
f 415 418 417
f 415 419 418
f 415 429 426
f 415 426 423
f 415 423 419
f 413 429 415
f 413 415 414
f 413 450 429
f 460 455 451
f 460 458 457
f 460 459 458
f 460 451 450
f 460 456 455
f 460 457 456
f 461 460 450
f 461 450 413
f 410 412 411
f 462 461 413
f 462 413 412
f 407 409 408
f 407 410 409
f 465 463 462
f 465 464 463
f 466 465 462
f 405 410 407
f 405 407 406
f 404 410 405
f 469 467 466
f 469 468 467
f 469 466 462
f 402 412 410
f 402 462 412
f 402 410 404
f 402 404 403
f 398 400 399
f 474 471 470
f 474 472 471
f 474 473 472
f 397 400 398
f 475 470 469
f 475 474 470
f 477 476 475
f 477 401 400
f 477 402 401
f 477 462 402
f 477 469 462
f 477 475 469
f 393 395 394
f 393 396 395
f 392 397 396
f 392 400 397
f 392 396 393
f 480 479 478
f 481 478 477
f 481 480 478
f 482 400 392
f 482 481 477
f 482 477 400
f 389 391 390
f 389 392 391
f 386 388 387
f 360 358 357
f 360 359 358
f 360 357 482
f 385 388 386
f 362 361 360
f 363 362 360
f 382 384 383
f 382 385 384
f 382 388 385
f 366 364 363
f 366 365 364
f 366 363 360
f 378 380 379
f 378 381 380
f 377 382 381
f 377 389 388
f 377 388 382
f 377 381 378
f 369 367 366
f 369 368 367
f 370 369 366
f 375 377 376
f 375 389 377
f 371 366 360
f 371 370 366
f 374 389 375
f 373 482 392
f 373 392 389
f 373 372 371
f 373 360 482
f 373 389 374
f 373 371 360
f 484 495 494
f 484 496 495
f 484 497 496
f 484 498 497
f 484 499 498
f 484 500 499
f 484 501 500
f 484 483 501
f 485 487 486
f 485 488 487
f 485 489 488
f 485 490 489
f 485 491 490
f 485 492 491
f 485 493 492
f 485 494 493
f 485 484 494
f 503 502 504
f 505 503 504
f 507 509 508
f 507 510 509
f 507 511 510
f 507 512 511
f 507 513 512
f 507 506 513
f 507 508 514
f 518 516 515
f 518 515 517
f 520 521 522
f 520 522 523
f 520 523 524
f 520 524 525
f 520 525 526
f 520 526 519
f 520 527 521
f 529 528 530
f 531 529 530
f 613 611 612
f 615 611 613
f 615 610 611
f 615 613 614
f 604 605 606
f 604 606 607
f 604 607 608
f 604 608 609
f 604 609 610
f 618 610 615
f 618 615 616
f 618 616 617
f 620 610 618
f 620 618 619
f 601 602 603
f 601 603 604
f 621 604 610
f 621 610 620
f 622 604 621
f 598 599 600
f 598 600 601
f 624 622 623
f 625 604 622
f 625 622 624
f 596 597 598
f 594 595 596
f 594 596 598
f 629 626 627
f 629 627 628
f 630 626 629
f 590 591 592
f 590 592 593
f 590 593 594
f 590 601 604
f 590 598 601
f 590 594 598
f 588 590 604
f 588 589 590
f 588 604 625
f 635 626 630
f 635 632 633
f 635 633 634
f 635 625 626
f 635 630 631
f 635 631 632
f 636 625 635
f 636 588 625
f 585 586 587
f 637 588 636
f 637 587 588
f 582 583 584
f 582 584 585
f 640 637 638
f 640 638 639
f 641 637 640
f 580 582 585
f 580 581 582
f 579 580 585
f 644 641 642
f 644 642 643
f 644 637 641
f 577 585 587
f 577 587 637
f 577 579 585
f 577 578 579
f 573 574 575
f 649 645 646
f 649 646 647
f 649 647 648
f 572 573 575
f 650 644 645
f 650 645 649
f 652 650 651
f 652 575 576
f 652 576 577
f 652 577 637
f 652 637 644
f 652 644 650
f 568 569 570
f 568 570 571
f 567 571 572
f 567 572 575
f 567 568 571
f 655 653 654
f 656 652 653
f 656 653 655
f 657 567 575
f 657 652 656
f 657 575 652
f 564 565 566
f 564 566 567
f 561 562 563
f 535 532 533
f 535 533 534
f 535 657 532
f 560 561 563
f 537 535 536
f 538 535 537
f 557 558 559
f 557 559 560
f 557 560 563
f 541 538 539
f 541 539 540
f 541 535 538
f 553 554 555
f 553 555 556
f 552 556 557
f 552 563 564
f 552 557 563
f 552 553 556
f 544 541 542
f 544 542 543
f 545 541 544
f 550 551 552
f 550 552 564
f 546 535 541
f 546 541 545
f 549 550 564
f 548 567 657
f 548 564 567
f 548 546 547
f 548 657 535
f 548 549 564
f 548 535 546
f 676 669 668
f 676 670 669
f 676 671 670
f 676 672 671
f 676 673 672
f 676 674 673
f 676 675 674
f 676 660 675
f 659 661 660
f 659 662 661
f 659 663 662
f 659 664 663
f 659 665 664
f 659 666 665
f 659 667 666
f 659 658 667
f 659 660 676
f 678 679 677
f 680 679 678
