# Cadless export: model
v -20 -8 0
v -20 -8 5
v -20 8 0
v -20 8 5
v -20 -8 0
v -20 8 0
v 20 -8 0
v 20 8 0
v 20 -8 0
v 20 -8 5
v 20 8 0
v 20 8 5
v 10 8 5
v 20 8 5
v 10 -8 5
v 20 -8 5
v 10 -8 5
v 10 -8 16
v 10 8 5
v 10 8 16
v -10 -8 16
v -10 8 16
v 10 -8 16
v 10 8 16
v -10 -8 5
v -10 -8 16
v -10 8 5
v -10 8 16
v -20 8 0
v -20 8 5
v -10 8 5
v -10 8 16
v 10 8 16
v 10 8 5
v 20 8 5
v 20 8 0
v -20 8 5
v -10 8 5
v -20 -8 5
v -10 -8 5
v -20 -8 0
v 20 -8 0
v -20 -8 5
v -10 -8 5
v -10 -8 16
v 10 -8 16
v 10 -8 5
v 20 -8 5
f 2 3 1
f 2 4 3
f 8 5 6
f 8 7 5
f 10 9 11
f 10 11 12
f 13 15 16
f 14 13 16
f 18 17 19
f 18 19 20
f 23 22 21
f 24 22 23
f 26 27 25
f 26 28 27
f 31 29 30
f 34 31 32
f 34 29 31
f 36 29 34
f 35 36 34
f 33 34 32
f 37 39 40
f 38 37 40
f 44 43 41
f 47 45 44
f 47 44 41
f 42 47 41
f 48 47 42
f 46 45 47
