# Cadless export: model
v 700 -200 0
v 700 -200 450
v 700 200 0
v 700 200 450
v -700 -200 0
v 700 -200 0
v -700 -200 450
v 700 -200 450
v -682 -200 432
v -9 -200 432
v -682 -200 18
v -9 -200 18
v 9 -200 432
v 682 -200 432
v 9 -200 18
v 682 -200 18
v -700 -200 450
v -700 200 450
v 700 -200 450
v 700 200 450
v -700 200 0
v 700 200 0
v -700 200 450
v 700 200 450
v -320 200 350
v -320.037 200 351.495
v -320.149 200 352.987
v -320.335 200 354.471
v -320.595 200 355.944
v -320.928 200 357.403
v -321.333 200 358.843
v -321.809 200 360.261
v -322.356 200 361.653
v -322.971 200 363.017
v -323.653 200 364.348
v -324.401 200 365.643
v -325.213 200 366.9
v -326.086 200 368.114
v -327.019 200 369.284
v -328.008 200 370.405
v -329.053 200 371.476
v -330.149 200 372.493
v -331.295 200 373.455
v -332.488 200 374.358
v -333.724 200 375.201
v -335 200 375.981
v -336.314 200 376.696
v -337.661 200 377.345
v -339.04 200 377.926
v -340.445 200 378.438
v -341.875 200 378.879
v -343.324 200 379.248
v -344.791 200 379.544
v -346.27 200 379.767
v -347.758 200 379.916
v -349.252 200 379.991
v -350.748 200 379.991
v -352.242 200 379.916
v -353.73 200 379.767
v -355.209 200 379.544
v -356.676 200 379.248
v -358.125 200 378.879
v -359.555 200 378.438
v -360.96 200 377.926
v -362.339 200 377.345
v -363.686 200 376.696
v -365 200 375.981
v -366.276 200 375.201
v -367.512 200 374.358
v -368.705 200 373.455
v -369.851 200 372.493
v -370.947 200 371.476
v -371.992 200 370.405
v -372.981 200 369.284
v -373.914 200 368.114
v -374.787 200 366.9
v -375.599 200 365.643
v -376.347 200 364.348
v -377.029 200 363.017
v -377.644 200 361.653
v -378.191 200 360.261
v -378.667 200 358.843
v -379.072 200 357.403
v -379.405 200 355.944
v -379.665 200 354.471
v -379.851 200 352.987
v -379.963 200 351.495
v -380 200 350
v -379.963 200 348.505
v -379.851 200 347.013
v -379.665 200 345.529
v -379.405 200 344.056
v -379.072 200 342.597
v -378.667 200 341.157
v -378.191 200 339.739
v -377.644 200 338.347
v -377.029 200 336.983
v -376.347 200 335.652
v -375.599 200 334.357
v -374.787 200 333.1
v -373.914 200 331.886
v -372.981 200 330.716
v -371.992 200 329.595
v -370.947 200 328.524
v -369.851 200 327.507
v -368.705 200 326.545
v -367.512 200 325.642
v -366.276 200 324.799
v -365 200 324.019
v -363.686 200 323.304
v -362.339 200 322.655
v -360.96 200 322.074
v -359.555 200 321.562
v -358.125 200 321.121
v -356.676 200 320.752
v -355.209 200 320.456
v -353.73 200 320.233
v -352.242 200 320.084
v -350.748 200 320.009
v -349.252 200 320.009
v -347.758 200 320.084
v -346.27 200 320.233
v -344.791 200 320.456
v -343.324 200 320.752
v -341.875 200 321.121
v -340.445 200 321.562
v -339.04 200 322.074
v -337.661 200 322.655
v -336.314 200 323.304
v -335 200 324.019
v -333.724 200 324.799
v -332.488 200 325.642
v -331.295 200 326.545
v -330.149 200 327.507
v -329.053 200 328.524
v -328.008 200 329.595
v -327.019 200 330.716
v -326.086 200 331.886
v -325.213 200 333.1
v -324.401 200 334.357
v -323.653 200 335.652
v -322.971 200 336.983
v -322.356 200 338.347
v -321.809 200 339.739
v -321.333 200 341.157
v -320.928 200 342.597
v -320.595 200 344.056
v -320.335 200 345.529
v -320.149 200 347.013
v -320.037 200 348.505
v 380 200 350
v 379.963 200 351.495
v 379.851 200 352.987
v 379.665 200 354.471
v 379.405 200 355.944
v 379.072 200 357.403
v 378.667 200 358.843
v 378.191 200 360.261
v 377.644 200 361.653
v 377.029 200 363.017
v 376.347 200 364.348
v 375.599 200 365.643
v 374.787 200 366.9
v 373.914 200 368.114
v 372.981 200 369.284
v 371.992 200 370.405
v 370.947 200 371.476
v 369.851 200 372.493
v 368.705 200 373.455
v 367.512 200 374.358
v 366.276 200 375.201
v 365 200 375.981
v 363.686 200 376.696
v 362.339 200 377.345
v 360.96 200 377.926
v 359.555 200 378.438
v 358.125 200 378.879
v 356.676 200 379.248
v 355.209 200 379.544
v 353.73 200 379.767
v 352.242 200 379.916
v 350.748 200 379.991
v 349.252 200 379.991
v 347.758 200 379.916
v 346.27 200 379.767
v 344.791 200 379.544
v 343.324 200 379.248
v 341.875 200 378.879
v 340.445 200 378.438
v 339.04 200 377.926
v 337.661 200 377.345
v 336.314 200 376.696
v 335 200 375.981
v 333.724 200 375.201
v 332.488 200 374.358
v 331.295 200 373.455
v 330.149 200 372.493
v 329.053 200 371.476
v 328.008 200 370.405
v 327.019 200 369.284
v 326.086 200 368.114
v 325.213 200 366.9
v 324.401 200 365.643
v 323.653 200 364.348
v 322.971 200 363.017
v 322.356 200 361.653
v 321.809 200 360.261
v 321.333 200 358.843
v 320.928 200 357.403
v 320.595 200 355.944
v 320.335 200 354.471
v 320.149 200 352.987
v 320.037 200 351.495
v 320 200 350
v 320.037 200 348.505
v 320.149 200 347.013
v 320.335 200 345.529
v 320.595 200 344.056
v 320.928 200 342.597
v 321.333 200 341.157
v 321.809 200 339.739
v 322.356 200 338.347
v 322.971 200 336.983
v 323.653 200 335.652
v 324.401 200 334.357
v 325.213 200 333.1
v 326.086 200 331.886
v 327.019 200 330.716
v 328.008 200 329.595
v 329.053 200 328.524
v 330.149 200 327.507
v 331.295 200 326.545
v 332.488 200 325.642
v 333.724 200 324.799
v 335 200 324.019
v 336.314 200 323.304
v 337.661 200 322.655
v 339.04 200 322.074
v 340.445 200 321.562
v 341.875 200 321.121
v 343.324 200 320.752
v 344.791 200 320.456
v 346.27 200 320.233
v 347.758 200 320.084
v 349.252 200 320.009
v 350.748 200 320.009
v 352.242 200 320.084
v 353.73 200 320.233
v 355.209 200 320.456
v 356.676 200 320.752
v 358.125 200 321.121
v 359.555 200 321.562
v 360.96 200 322.074
v 362.339 200 322.655
v 363.686 200 323.304
v 365 200 324.019
v 366.276 200 324.799
v 367.512 200 325.642
v 368.705 200 326.545
v 369.851 200 327.507
v 370.947 200 328.524
v 371.992 200 329.595
v 372.981 200 330.716
v 373.914 200 331.886
v 374.787 200 333.1
v 375.599 200 334.357
v 376.347 200 335.652
v 377.029 200 336.983
v 377.644 200 338.347
v 378.191 200 339.739
v 378.667 200 341.157
v 379.072 200 342.597
v 379.405 200 344.056
v 379.665 200 345.529
v 379.851 200 347.013
v 379.963 200 348.505
v -700 -200 0
v -700 200 0
v 700 -200 0
v 700 200 0
v -700 -200 0
v -700 -200 450
v -700 200 0
v -700 200 450
v -682 -200 432
v -682 182 432
v -9 -200 432
v -9 182 432
v -682 -200 18
v -682 -200 432
v -682 182 18
v -682 182 432
v -682 -200 18
v -682 182 18
v -9 -200 18
v -9 182 18
v -9 -200 18
v -9 -200 432
v -9 182 18
v -9 182 432
v 9 -200 432
v 9 182 432
v 682 -200 432
v 682 182 432
v 9 -200 18
v 9 -200 432
v 9 182 18
v 9 182 432
v 9 -200 18
v 9 182 18
v 682 -200 18
v 682 182 18
v 682 -200 18
v 682 -200 432
v 682 182 18
v 682 182 432
v -320 182 350
v -320.037 182 351.495
v -320.149 182 352.987
v -320.335 182 354.471
v -320.595 182 355.944
v -320.928 182 357.403
v -321.333 182 358.843
v -321.809 182 360.261
v -322.356 182 361.653
v -322.971 182 363.017
v -323.653 182 364.348
v -324.401 182 365.643
v -325.213 182 366.9
v -326.086 182 368.114
v -327.019 182 369.284
v -328.008 182 370.405
v -329.053 182 371.476
v -330.149 182 372.493
v -331.295 182 373.455
v -332.488 182 374.358
v -333.724 182 375.201
v -335 182 375.981
v -336.314 182 376.696
v -337.661 182 377.345
v -339.04 182 377.926
v -340.445 182 378.438
v -341.875 182 378.879
v -343.324 182 379.248
v -344.791 182 379.544
v -346.27 182 379.767
v -347.758 182 379.916
v -349.252 182 379.991
v -350.748 182 379.991
v -352.242 182 379.916
v -353.73 182 379.767
v -355.209 182 379.544
v -356.676 182 379.248
v -358.125 182 378.879
v -359.555 182 378.438
v -360.96 182 377.926
v -362.339 182 377.345
v -363.686 182 376.696
v -365 182 375.981
v -366.276 182 375.201
v -367.512 182 374.358
v -368.705 182 373.455
v -369.851 182 372.493
v -370.947 182 371.476
v -371.992 182 370.405
v -372.981 182 369.284
v -373.914 182 368.114
v -374.787 182 366.9
v -375.599 182 365.643
v -376.347 182 364.348
v -377.029 182 363.017
v -377.644 182 361.653
v -378.191 182 360.261
v -378.667 182 358.843
v -379.072 182 357.403
v -379.405 182 355.944
v -379.665 182 354.471
v -379.851 182 352.987
v -379.963 182 351.495
v -380 182 350
v -379.963 182 348.505
v -379.851 182 347.013
v -379.665 182 345.529
v -379.405 182 344.056
v -379.072 182 342.597
v -378.667 182 341.157
v -378.191 182 339.739
v -377.644 182 338.347
v -377.029 182 336.983
v -376.347 182 335.652
v -375.599 182 334.357
v -374.787 182 333.1
v -373.914 182 331.886
v -372.981 182 330.716
v -371.992 182 329.595
v -370.947 182 328.524
v -369.851 182 327.507
v -368.705 182 326.545
v -367.512 182 325.642
v -366.276 182 324.799
v -365 182 324.019
v -363.686 182 323.304
v -362.339 182 322.655
v -360.96 182 322.074
v -359.555 182 321.562
v -358.125 182 321.121
v -356.676 182 320.752
v -355.209 182 320.456
v -353.73 182 320.233
v -352.242 182 320.084
v -350.748 182 320.009
v -349.252 182 320.009
v -347.758 182 320.084
v -346.27 182 320.233
v -344.791 182 320.456
v -343.324 182 320.752
v -341.875 182 321.121
v -340.445 182 321.562
v -339.04 182 322.074
v -337.661 182 322.655
v -336.314 182 323.304
v -335 182 324.019
v -333.724 182 324.799
v -332.488 182 325.642
v -331.295 182 326.545
v -330.149 182 327.507
v -329.053 182 328.524
v -328.008 182 329.595
v -327.019 182 330.716
v -326.086 182 331.886
v -325.213 182 333.1
v -324.401 182 334.357
v -323.653 182 335.652
v -322.971 182 336.983
v -322.356 182 338.347
v -321.809 182 339.739
v -321.333 182 341.157
v -320.928 182 342.597
v -320.595 182 344.056
v -320.335 182 345.529
v -320.149 182 347.013
v -320.037 182 348.505
v -320 182 350
v -320 200 350
v -320.037 200 351.495
v -320.149 200 352.987
v -320.335 200 354.471
v -320.595 200 355.944
v -320.928 200 357.403
v -321.333 200 358.843
v -321.809 200 360.261
v -322.356 200 361.653
v -322.971 200 363.017
v -323.653 200 364.348
v -324.401 200 365.643
v -325.213 200 366.9
v -326.086 200 368.114
v -327.019 200 369.284
v -328.008 200 370.405
v -329.053 200 371.476
v -330.149 200 372.493
v -331.295 200 373.455
v -332.488 200 374.358
v -333.724 200 375.201
v -335 200 375.981
v -336.314 200 376.696
v -337.661 200 377.345
v -339.04 200 377.926
v -340.445 200 378.438
v -341.875 200 378.879
v -343.324 200 379.248
v -344.791 200 379.544
v -346.27 200 379.767
v -347.758 200 379.916
v -349.252 200 379.991
v -350.748 200 379.991
v -352.242 200 379.916
v -353.73 200 379.767
v -355.209 200 379.544
v -356.676 200 379.248
v -358.125 200 378.879
v -359.555 200 378.438
v -360.96 200 377.926
v -362.339 200 377.345
v -363.686 200 376.696
v -365 200 375.981
v -366.276 200 375.201
v -367.512 200 374.358
v -368.705 200 373.455
v -369.851 200 372.493
v -370.947 200 371.476
v -371.992 200 370.405
v -372.981 200 369.284
v -373.914 200 368.114
v -374.787 200 366.9
v -375.599 200 365.643
v -376.347 200 364.348
v -377.029 200 363.017
v -377.644 200 361.653
v -378.191 200 360.261
v -378.667 200 358.843
v -379.072 200 357.403
v -379.405 200 355.944
v -379.665 200 354.471
v -379.851 200 352.987
v -379.963 200 351.495
v -380 200 350
v -379.963 200 348.505
v -379.851 200 347.013
v -379.665 200 345.529
v -379.405 200 344.056
v -379.072 200 342.597
v -378.667 200 341.157
v -378.191 200 339.739
v -377.644 200 338.347
v -377.029 200 336.983
v -376.347 200 335.652
v -375.599 200 334.357
v -374.787 200 333.1
v -373.914 200 331.886
v -372.981 200 330.716
v -371.992 200 329.595
v -370.947 200 328.524
v -369.851 200 327.507
v -368.705 200 326.545
v -367.512 200 325.642
v -366.276 200 324.799
v -365 200 324.019
v -363.686 200 323.304
v -362.339 200 322.655
v -360.96 200 322.074
v -359.555 200 321.562
v -358.125 200 321.121
v -356.676 200 320.752
v -355.209 200 320.456
v -353.73 200 320.233
v -352.242 200 320.084
v -350.748 200 320.009
v -349.252 200 320.009
v -347.758 200 320.084
v -346.27 200 320.233
v -344.791 200 320.456
v -343.324 200 320.752
v -341.875 200 321.121
v -340.445 200 321.562
v -339.04 200 322.074
v -337.661 200 322.655
v -336.314 200 323.304
v -335 200 324.019
v -333.724 200 324.799
v -332.488 200 325.642
v -331.295 200 326.545
v -330.149 200 327.507
v -329.053 200 328.524
v -328.008 200 329.595
v -327.019 200 330.716
v -326.086 200 331.886
v -325.213 200 333.1
v -324.401 200 334.357
v -323.653 200 335.652
v -322.971 200 336.983
v -322.356 200 338.347
v -321.809 200 339.739
v -321.333 200 341.157
v -320.928 200 342.597
v -320.595 200 344.056
v -320.335 200 345.529
v -320.149 200 347.013
v -320.037 200 348.505
v -320 200 350
v 380 182 350
v 379.963 182 351.495
v 379.851 182 352.987
v 379.665 182 354.471
v 379.405 182 355.944
v 379.072 182 357.403
v 378.667 182 358.843
v 378.191 182 360.261
v 377.644 182 361.653
v 377.029 182 363.017
v 376.347 182 364.348
v 375.599 182 365.643
v 374.787 182 366.9
v 373.914 182 368.114
v 372.981 182 369.284
v 371.992 182 370.405
v 370.947 182 371.476
v 369.851 182 372.493
v 368.705 182 373.455
v 367.512 182 374.358
v 366.276 182 375.201
v 365 182 375.981
v 363.686 182 376.696
v 362.339 182 377.345
v 360.96 182 377.926
v 359.555 182 378.438
v 358.125 182 378.879
v 356.676 182 379.248
v 355.209 182 379.544
v 353.73 182 379.767
v 352.242 182 379.916
v 350.748 182 379.991
v 349.252 182 379.991
v 347.758 182 379.916
v 346.27 182 379.767
v 344.791 182 379.544
v 343.324 182 379.248
v 341.875 182 378.879
v 340.445 182 378.438
v 339.04 182 377.926
v 337.661 182 377.345
v 336.314 182 376.696
v 335 182 375.981
v 333.724 182 375.201
v 332.488 182 374.358
v 331.295 182 373.455
v 330.149 182 372.493
v 329.053 182 371.476
v 328.008 182 370.405
v 327.019 182 369.284
v 326.086 182 368.114
v 325.213 182 366.9
v 324.401 182 365.643
v 323.653 182 364.348
v 322.971 182 363.017
v 322.356 182 361.653
v 321.809 182 360.261
v 321.333 182 358.843
v 320.928 182 357.403
v 320.595 182 355.944
v 320.335 182 354.471
v 320.149 182 352.987
v 320.037 182 351.495
v 320 182 350
v 320.037 182 348.505
v 320.149 182 347.013
v 320.335 182 345.529
v 320.595 182 344.056
v 320.928 182 342.597
v 321.333 182 341.157
v 321.809 182 339.739
v 322.356 182 338.347
v 322.971 182 336.983
v 323.653 182 335.652
v 324.401 182 334.357
v 325.213 182 333.1
v 326.086 182 331.886
v 327.019 182 330.716
v 328.008 182 329.595
v 329.053 182 328.524
v 330.149 182 327.507
v 331.295 182 326.545
v 332.488 182 325.642
v 333.724 182 324.799
v 335 182 324.019
v 336.314 182 323.304
v 337.661 182 322.655
v 339.04 182 322.074
v 340.445 182 321.562
v 341.875 182 321.121
v 343.324 182 320.752
v 344.791 182 320.456
v 346.27 182 320.233
v 347.758 182 320.084
v 349.252 182 320.009
v 350.748 182 320.009
v 352.242 182 320.084
v 353.73 182 320.233
v 355.209 182 320.456
v 356.676 182 320.752
v 358.125 182 321.121
v 359.555 182 321.562
v 360.96 182 322.074
v 362.339 182 322.655
v 363.686 182 323.304
v 365 182 324.019
v 366.276 182 324.799
v 367.512 182 325.642
v 368.705 182 326.545
v 369.851 182 327.507
v 370.947 182 328.524
v 371.992 182 329.595
v 372.981 182 330.716
v 373.914 182 331.886
v 374.787 182 333.1
v 375.599 182 334.357
v 376.347 182 335.652
v 377.029 182 336.983
v 377.644 182 338.347
v 378.191 182 339.739
v 378.667 182 341.157
v 379.072 182 342.597
v 379.405 182 344.056
v 379.665 182 345.529
v 379.851 182 347.013
v 379.963 182 348.505
v 380 182 350
v 380 200 350
v 379.963 200 351.495
v 379.851 200 352.987
v 379.665 200 354.471
v 379.405 200 355.944
v 379.072 200 357.403
v 378.667 200 358.843
v 378.191 200 360.261
v 377.644 200 361.653
v 377.029 200 363.017
v 376.347 200 364.348
v 375.599 200 365.643
v 374.787 200 366.9
v 373.914 200 368.114
v 372.981 200 369.284
v 371.992 200 370.405
v 370.947 200 371.476
v 369.851 200 372.493
v 368.705 200 373.455
v 367.512 200 374.358
v 366.276 200 375.201
v 365 200 375.981
v 363.686 200 376.696
v 362.339 200 377.345
v 360.96 200 377.926
v 359.555 200 378.438
v 358.125 200 378.879
v 356.676 200 379.248
v 355.209 200 379.544
v 353.73 200 379.767
v 352.242 200 379.916
v 350.748 200 379.991
v 349.252 200 379.991
v 347.758 200 379.916
v 346.27 200 379.767
v 344.791 200 379.544
v 343.324 200 379.248
v 341.875 200 378.879
v 340.445 200 378.438
v 339.04 200 377.926
v 337.661 200 377.345
v 336.314 200 376.696
v 335 200 375.981
v 333.724 200 375.201
v 332.488 200 374.358
v 331.295 200 373.455
v 330.149 200 372.493
v 329.053 200 371.476
v 328.008 200 370.405
v 327.019 200 369.284
v 326.086 200 368.114
v 325.213 200 366.9
v 324.401 200 365.643
v 323.653 200 364.348
v 322.971 200 363.017
v 322.356 200 361.653
v 321.809 200 360.261
v 321.333 200 358.843
v 320.928 200 357.403
v 320.595 200 355.944
v 320.335 200 354.471
v 320.149 200 352.987
v 320.037 200 351.495
v 320 200 350
v 320.037 200 348.505
v 320.149 200 347.013
v 320.335 200 345.529
v 320.595 200 344.056
v 320.928 200 342.597
v 321.333 200 341.157
v 321.809 200 339.739
v 322.356 200 338.347
v 322.971 200 336.983
v 323.653 200 335.652
v 324.401 200 334.357
v 325.213 200 333.1
v 326.086 200 331.886
v 327.019 200 330.716
v 328.008 200 329.595
v 329.053 200 328.524
v 330.149 200 327.507
v 331.295 200 326.545
v 332.488 200 325.642
v 333.724 200 324.799
v 335 200 324.019
v 336.314 200 323.304
v 337.661 200 322.655
v 339.04 200 322.074
v 340.445 200 321.562
v 341.875 200 321.121
v 343.324 200 320.752
v 344.791 200 320.456
v 346.27 200 320.233
v 347.758 200 320.084
v 349.252 200 320.009
v 350.748 200 320.009
v 352.242 200 320.084
v 353.73 200 320.233
v 355.209 200 320.456
v 356.676 200 320.752
v 358.125 200 321.121
v 359.555 200 321.562
v 360.96 200 322.074
v 362.339 200 322.655
v 363.686 200 323.304
v 365 200 324.019
v 366.276 200 324.799
v 367.512 200 325.642
v 368.705 200 326.545
v 369.851 200 327.507
v 370.947 200 328.524
v 371.992 200 329.595
v 372.981 200 330.716
v 373.914 200 331.886
v 374.787 200 333.1
v 375.599 200 334.357
v 376.347 200 335.652
v 377.029 200 336.983
v 377.644 200 338.347
v 378.191 200 339.739
v 378.667 200 341.157
v 379.072 200 342.597
v 379.405 200 344.056
v 379.665 200 345.529
v 379.851 200 347.013
v 379.963 200 348.505
v 380 200 350
v -9 182 18
v -9 182 432
v -682 182 18
v -682 182 432
v -320 182 350
v -320.037 182 351.495
v -320.149 182 352.987
v -320.335 182 354.471
v -320.595 182 355.944
v -320.928 182 357.403
v -321.333 182 358.843
v -321.809 182 360.261
v -322.356 182 361.653
v -322.971 182 363.017
v -323.653 182 364.348
v -324.401 182 365.643
v -325.213 182 366.9
v -326.086 182 368.114
v -327.019 182 369.284
v -328.008 182 370.405
v -329.053 182 371.476
v -330.149 182 372.493
v -331.295 182 373.455
v -332.488 182 374.358
v -333.724 182 375.201
v -335 182 375.981
v -336.314 182 376.696
v -337.661 182 377.345
v -339.04 182 377.926
v -340.445 182 378.438
v -341.875 182 378.879
v -343.324 182 379.248
v -344.791 182 379.544
v -346.27 182 379.767
v -347.758 182 379.916
v -349.252 182 379.991
v -350.748 182 379.991
v -352.242 182 379.916
v -353.73 182 379.767
v -355.209 182 379.544
v -356.676 182 379.248
v -358.125 182 378.879
v -359.555 182 378.438
v -360.96 182 377.926
v -362.339 182 377.345
v -363.686 182 376.696
v -365 182 375.981
v -366.276 182 375.201
v -367.512 182 374.358
v -368.705 182 373.455
v -369.851 182 372.493
v -370.947 182 371.476
v -371.992 182 370.405
v -372.981 182 369.284
v -373.914 182 368.114
v -374.787 182 366.9
v -375.599 182 365.643
v -376.347 182 364.348
v -377.029 182 363.017
v -377.644 182 361.653
v -378.191 182 360.261
v -378.667 182 358.843
v -379.072 182 357.403
v -379.405 182 355.944
v -379.665 182 354.471
v -379.851 182 352.987
v -379.963 182 351.495
v -380 182 350
v -379.963 182 348.505
v -379.851 182 347.013
v -379.665 182 345.529
v -379.405 182 344.056
v -379.072 182 342.597
v -378.667 182 341.157
v -378.191 182 339.739
v -377.644 182 338.347
v -377.029 182 336.983
v -376.347 182 335.652
v -375.599 182 334.357
v -374.787 182 333.1
v -373.914 182 331.886
v -372.981 182 330.716
v -371.992 182 329.595
v -370.947 182 328.524
v -369.851 182 327.507
v -368.705 182 326.545
v -367.512 182 325.642
v -366.276 182 324.799
v -365 182 324.019
v -363.686 182 323.304
v -362.339 182 322.655
v -360.96 182 322.074
v -359.555 182 321.562
v -358.125 182 321.121
v -356.676 182 320.752
v -355.209 182 320.456
v -353.73 182 320.233
v -352.242 182 320.084
v -350.748 182 320.009
v -349.252 182 320.009
v -347.758 182 320.084
v -346.27 182 320.233
v -344.791 182 320.456
v -343.324 182 320.752
v -341.875 182 321.121
v -340.445 182 321.562
v -339.04 182 322.074
v -337.661 182 322.655
v -336.314 182 323.304
v -335 182 324.019
v -333.724 182 324.799
v -332.488 182 325.642
v -331.295 182 326.545
v -330.149 182 327.507
v -329.053 182 328.524
v -328.008 182 329.595
v -327.019 182 330.716
v -326.086 182 331.886
v -325.213 182 333.1
v -324.401 182 334.357
v -323.653 182 335.652
v -322.971 182 336.983
v -322.356 182 338.347
v -321.809 182 339.739
v -321.333 182 341.157
v -320.928 182 342.597
v -320.595 182 344.056
v -320.335 182 345.529
v -320.149 182 347.013
v -320.037 182 348.505
v 682 182 18
v 682 182 432
v 9 182 18
v 9 182 432
v 380 182 350
v 379.963 182 351.495
v 379.851 182 352.987
v 379.665 182 354.471
v 379.405 182 355.944
v 379.072 182 357.403
v 378.667 182 358.843
v 378.191 182 360.261
v 377.644 182 361.653
v 377.029 182 363.017
v 376.347 182 364.348
v 375.599 182 365.643
v 374.787 182 366.9
v 373.914 182 368.114
v 372.981 182 369.284
v 371.992 182 370.405
v 370.947 182 371.476
v 369.851 182 372.493
v 368.705 182 373.455
v 367.512 182 374.358
v 366.276 182 375.201
v 365 182 375.981
v 363.686 182 376.696
v 362.339 182 377.345
v 360.96 182 377.926
v 359.555 182 378.438
v 358.125 182 378.879
v 356.676 182 379.248
v 355.209 182 379.544
v 353.73 182 379.767
v 352.242 182 379.916
v 350.748 182 379.991
v 349.252 182 379.991
v 347.758 182 379.916
v 346.27 182 379.767
v 344.791 182 379.544
v 343.324 182 379.248
v 341.875 182 378.879
v 340.445 182 378.438
v 339.04 182 377.926
v 337.661 182 377.345
v 336.314 182 376.696
v 335 182 375.981
v 333.724 182 375.201
v 332.488 182 374.358
v 331.295 182 373.455
v 330.149 182 372.493
v 329.053 182 371.476
v 328.008 182 370.405
v 327.019 182 369.284
v 326.086 182 368.114
v 325.213 182 366.9
v 324.401 182 365.643
v 323.653 182 364.348
v 322.971 182 363.017
v 322.356 182 361.653
v 321.809 182 360.261
v 321.333 182 358.843
v 320.928 182 357.403
v 320.595 182 355.944
v 320.335 182 354.471
v 320.149 182 352.987
v 320.037 182 351.495
v 320 182 350
v 320.037 182 348.505
v 320.149 182 347.013
v 320.335 182 345.529
v 320.595 182 344.056
v 320.928 182 342.597
v 321.333 182 341.157
v 321.809 182 339.739
v 322.356 182 338.347
v 322.971 182 336.983
v 323.653 182 335.652
v 324.401 182 334.357
v 325.213 182 333.1
v 326.086 182 331.886
v 327.019 182 330.716
v 328.008 182 329.595
v 329.053 182 328.524
v 330.149 182 327.507
v 331.295 182 326.545
v 332.488 182 325.642
v 333.724 182 324.799
v 335 182 324.019
v 336.314 182 323.304
v 337.661 182 322.655
v 339.04 182 322.074
v 340.445 182 321.562
v 341.875 182 321.121
v 343.324 182 320.752
v 344.791 182 320.456
v 346.27 182 320.233
v 347.758 182 320.084
v 349.252 182 320.009
v 350.748 182 320.009
v 352.242 182 320.084
v 353.73 182 320.233
v 355.209 182 320.456
v 356.676 182 320.752
v 358.125 182 321.121
v 359.555 182 321.562
v 360.96 182 322.074
v 362.339 182 322.655
v 363.686 182 323.304
v 365 182 324.019
v 366.276 182 324.799
v 367.512 182 325.642
v 368.705 182 326.545
v 369.851 182 327.507
v 370.947 182 328.524
v 371.992 182 329.595
v 372.981 182 330.716
v 373.914 182 331.886
v 374.787 182 333.1
v 375.599 182 334.357
v 376.347 182 335.652
v 377.029 182 336.983
v 377.644 182 338.347
v 378.191 182 339.739
v 378.667 182 341.157
v 379.072 182 342.597
v 379.405 182 344.056
v 379.665 182 345.529
v 379.851 182 347.013
v 379.963 182 348.505
f 2 1 3
f 2 3 4
f 7 11 9
f 7 5 11
f 12 11 5
f 10 7 9
f 13 10 12
f 13 12 15
f 6 16 15
f 8 13 14
f 8 14 16
f 8 16 6
f 6 12 5
f 6 15 12
f 7 13 8
f 7 10 13
f 19 18 17
f 20 18 19
f 103 104 21
f 105 21 104
f 102 103 21
f 106 21 105
f 101 102 21
f 107 21 106
f 100 101 21
f 108 21 107
f 99 100 21
f 109 21 108
f 98 99 21
f 110 21 109
f 97 21 23
f 97 98 21
f 111 21 110
f 96 97 23
f 112 21 111
f 95 96 23
f 113 21 112
f 94 95 23
f 114 21 113
f 93 94 23
f 115 21 114
f 92 93 23
f 116 21 115
f 91 92 23
f 117 21 116
f 90 91 23
f 118 21 117
f 89 90 23
f 119 21 118
f 88 89 23
f 120 21 119
f 87 88 23
f 121 21 120
f 86 87 23
f 122 21 121
f 85 86 23
f 123 21 122
f 84 85 23
f 124 21 123
f 83 84 23
f 125 21 124
f 82 83 23
f 126 21 125
f 81 82 23
f 127 21 126
f 80 81 23
f 128 21 127
f 79 80 23
f 78 79 23
f 77 78 23
f 76 77 23
f 75 76 23
f 74 75 23
f 73 74 23
f 72 73 23
f 71 72 23
f 70 71 23
f 69 70 23
f 68 69 23
f 67 68 23
f 66 67 23
f 65 66 23
f 64 65 23
f 63 64 23
f 62 63 23
f 61 62 23
f 60 61 23
f 59 60 23
f 58 59 23
f 57 58 23
f 56 57 23
f 229 135 136
f 229 230 135
f 231 133 134
f 231 134 135
f 231 135 230
f 228 229 136
f 228 136 137
f 232 132 133
f 232 133 231
f 227 137 138
f 227 228 137
f 233 132 232
f 226 138 139
f 226 139 140
f 226 227 138
f 234 130 131
f 234 131 132
f 234 132 233
f 225 226 140
f 235 130 234
f 224 140 141
f 224 225 140
f 236 129 130
f 236 130 235
f 223 141 142
f 223 224 141
f 237 128 129
f 237 129 236
f 237 21 128
f 222 223 142
f 222 142 143
f 221 222 143
f 221 143 144
f 220 144 145
f 220 221 144
f 219 220 145
f 219 145 146
f 218 219 146
f 218 146 147
f 217 147 148
f 217 218 147
f 216 148 149
f 216 217 148
f 215 149 150
f 215 216 149
f 214 25 26
f 214 215 150
f 214 150 25
f 213 214 26
f 212 26 27
f 212 27 28
f 212 213 26
f 211 212 28
f 210 28 29
f 210 211 28
f 209 29 30
f 209 210 29
f 208 30 31
f 208 209 30
f 207 31 32
f 207 208 31
f 206 207 32
f 206 32 33
f 205 33 34
f 205 206 33
f 204 205 34
f 204 34 35
f 204 35 36
f 203 204 36
f 202 203 36
f 202 36 37
f 202 37 38
f 201 202 38
f 200 38 39
f 200 201 38
f 199 39 40
f 199 200 39
f 22 237 238
f 22 238 239
f 22 239 240
f 22 240 241
f 22 241 242
f 22 242 243
f 22 243 244
f 22 244 245
f 22 245 246
f 22 246 247
f 22 247 248
f 22 248 249
f 22 249 250
f 22 250 251
f 22 251 252
f 22 252 253
f 22 253 254
f 22 254 255
f 22 255 256
f 22 256 257
f 22 257 258
f 22 258 259
f 22 259 260
f 22 260 261
f 22 21 237
f 198 40 41
f 198 41 42
f 198 199 40
f 262 22 261
f 197 198 42
f 263 22 262
f 196 42 43
f 196 197 42
f 264 22 263
f 195 43 44
f 195 196 43
f 265 22 264
f 194 195 44
f 194 44 45
f 266 22 265
f 193 45 46
f 193 194 45
f 267 22 266
f 192 46 47
f 192 47 48
f 192 193 46
f 268 22 267
f 191 192 48
f 190 48 49
f 190 49 50
f 190 191 48
f 189 190 50
f 188 50 51
f 188 189 50
f 24 22 268
f 24 151 152
f 24 152 153
f 24 153 154
f 24 154 155
f 24 155 156
f 24 156 157
f 24 157 158
f 24 158 159
f 24 159 160
f 24 160 161
f 24 161 162
f 24 162 163
f 24 163 164
f 24 164 165
f 24 165 166
f 24 166 167
f 24 268 269
f 24 167 168
f 24 269 270
f 24 168 169
f 24 270 271
f 24 169 170
f 24 271 272
f 24 170 171
f 24 272 273
f 24 171 172
f 24 273 274
f 24 172 173
f 24 274 275
f 24 173 174
f 24 275 276
f 24 174 175
f 24 276 151
f 24 175 176
f 24 176 177
f 24 177 178
f 24 178 179
f 24 179 180
f 24 180 181
f 24 181 182
f 24 182 183
f 24 183 184
f 23 24 56
f 56 24 55
f 55 24 54
f 54 24 53
f 53 24 52
f 52 24 51
f 51 24 184
f 51 184 185
f 51 185 186
f 51 186 187
f 51 187 188
f 279 277 278
f 280 279 278
f 282 283 281
f 282 284 283
f 287 285 286
f 288 287 286
f 290 289 291
f 290 291 292
f 295 294 293
f 296 294 295
f 298 299 297
f 298 300 299
f 304 301 302
f 304 303 301
f 306 305 307
f 306 307 308
f 312 310 309
f 312 309 311
f 314 315 313
f 314 316 315
f 317 445 444
f 318 445 317
f 319 446 445
f 319 445 318
f 320 447 446
f 320 446 319
f 321 448 447
f 321 447 320
f 322 449 448
f 322 450 449
f 322 448 321
f 323 450 322
f 324 451 450
f 324 452 451
f 324 450 323
f 325 453 452
f 325 452 324
f 326 453 325
f 327 454 453
f 327 453 326
f 328 454 327
f 328 455 454
f 328 456 455
f 329 456 328
f 329 457 456
f 330 457 329
f 331 457 330
f 331 458 457
f 332 458 331
f 332 459 458
f 333 459 332
f 333 460 459
f 334 460 333
f 334 461 460
f 335 461 334
f 335 462 461
f 336 462 335
f 336 463 462
f 337 463 336
f 337 464 463
f 337 465 464
f 338 465 337
f 339 465 338
f 339 466 465
f 340 467 466
f 340 466 339
f 341 468 467
f 341 467 340
f 342 469 468
f 342 468 341
f 343 470 469
f 343 469 342
f 344 471 470
f 344 470 343
f 345 472 471
f 345 471 344
f 346 473 472
f 346 474 473
f 346 472 345
f 347 474 346
f 348 475 474
f 348 476 475
f 348 474 347
f 349 476 348
f 350 477 476
f 350 476 349
f 351 478 477
f 351 479 478
f 351 477 350
f 352 480 479
f 352 479 351
f 353 480 352
f 354 480 353
f 354 481 480
f 355 481 354
f 355 482 481
f 356 482 355
f 356 483 482
f 357 483 356
f 357 484 483
f 358 484 357
f 358 485 484
f 359 485 358
f 359 486 485
f 359 487 486
f 360 487 359
f 361 487 360
f 361 488 487
f 362 488 361
f 362 489 488
f 362 490 489
f 363 490 362
f 364 490 363
f 364 491 490
f 365 491 364
f 365 492 491
f 366 492 365
f 366 493 492
f 367 493 366
f 367 494 493
f 367 495 494
f 368 495 367
f 369 495 368
f 369 496 495
f 370 496 369
f 370 497 496
f 371 497 370
f 371 498 497
f 372 498 371
f 372 499 498
f 372 500 499
f 373 500 372
f 374 500 373
f 374 501 500
f 374 502 501
f 375 502 374
f 376 503 502
f 376 502 375
f 377 504 503
f 377 503 376
f 378 505 504
f 378 504 377
f 379 505 378
f 379 506 505
f 380 506 379
f 380 507 506
f 381 507 380
f 381 508 507
f 382 508 381
f 382 509 508
f 383 509 382
f 383 510 509
f 384 510 383
f 384 511 510
f 385 511 384
f 385 512 511
f 386 512 385
f 386 513 512
f 387 513 386
f 387 514 513
f 388 514 387
f 388 515 514
f 389 515 388
f 389 516 515
f 390 516 389
f 390 517 516
f 391 517 390
f 391 518 517
f 392 519 518
f 392 518 391
f 393 520 519
f 393 519 392
f 394 521 520
f 394 520 393
f 395 522 521
f 395 521 394
f 396 523 522
f 396 522 395
f 397 524 523
f 397 523 396
f 398 525 524
f 398 524 397
f 399 526 525
f 399 525 398
f 400 527 526
f 400 526 399
f 401 528 527
f 401 527 400
f 402 529 528
f 402 528 401
f 403 530 529
f 403 531 530
f 403 529 402
f 404 531 403
f 405 531 404
f 405 532 531
f 406 532 405
f 406 533 532
f 406 534 533
f 407 534 406
f 408 534 407
f 408 535 534
f 409 536 535
f 409 535 408
f 410 537 536
f 410 536 409
f 411 538 537
f 411 537 410
f 412 539 538
f 412 538 411
f 413 540 539
f 413 539 412
f 414 541 540
f 414 540 413
f 415 542 541
f 415 543 542
f 415 541 414
f 416 543 415
f 416 544 543
f 417 544 416
f 418 545 544
f 418 544 417
f 419 546 545
f 419 545 418
f 420 547 546
f 420 546 419
f 421 548 547
f 421 547 420
f 422 549 548
f 422 550 549
f 422 548 421
f 423 550 422
f 424 551 550
f 424 550 423
f 425 552 551
f 425 551 424
f 426 553 552
f 426 552 425
f 427 554 553
f 427 553 426
f 428 555 554
f 428 554 427
f 429 555 428
f 429 556 555
f 430 556 429
f 430 557 556
f 430 558 557
f 431 558 430
f 432 558 431
f 432 559 558
f 433 559 432
f 433 560 559
f 433 561 560
f 434 561 433
f 434 562 561
f 435 562 434
f 435 563 562
f 436 563 435
f 437 563 436
f 437 564 563
f 437 565 564
f 438 565 437
f 438 566 565
f 439 566 438
f 440 566 439
f 440 567 566
f 440 568 567
f 441 568 440
f 442 569 568
f 442 568 441
f 443 570 569
f 443 569 442
f 571 699 698
f 572 699 571
f 573 700 699
f 573 699 572
f 574 701 700
f 574 700 573
f 575 702 701
f 575 701 574
f 576 703 702
f 576 704 703
f 576 702 575
f 577 704 576
f 578 705 704
f 578 706 705
f 578 704 577
f 579 707 706
f 579 706 578
f 580 707 579
f 581 708 707
f 581 707 580
f 582 708 581
f 582 709 708
f 582 710 709
f 583 710 582
f 583 711 710
f 584 711 583
f 585 711 584
f 585 712 711
f 586 712 585
f 586 713 712
f 587 713 586
f 587 714 713
f 588 714 587
f 588 715 714
f 589 715 588
f 589 716 715
f 590 716 589
f 590 717 716
f 591 717 590
f 591 718 717
f 591 719 718
f 592 719 591
f 593 719 592
f 593 720 719
f 594 721 720
f 594 720 593
f 595 722 721
f 595 721 594
f 596 723 722
f 596 722 595
f 597 724 723
f 597 723 596
f 598 725 724
f 598 724 597
f 599 726 725
f 599 725 598
f 600 727 726
f 600 728 727
f 600 726 599
f 601 728 600
f 602 729 728
f 602 730 729
f 602 728 601
f 603 730 602
f 604 731 730
f 604 730 603
f 605 732 731
f 605 733 732
f 605 731 604
f 606 734 733
f 606 733 605
f 607 734 606
f 608 734 607
f 608 735 734
f 609 735 608
f 609 736 735
f 610 736 609
f 610 737 736
f 611 737 610
f 611 738 737
f 612 738 611
f 612 739 738
f 613 739 612
f 613 740 739
f 613 741 740
f 614 741 613
f 615 741 614
f 615 742 741
f 616 742 615
f 616 743 742
f 616 744 743
f 617 744 616
f 618 744 617
f 618 745 744
f 619 745 618
f 619 746 745
f 620 746 619
f 620 747 746
f 621 747 620
f 621 748 747
f 621 749 748
f 622 749 621
f 623 749 622
f 623 750 749
f 624 750 623
f 624 751 750
f 625 751 624
f 625 752 751
f 626 752 625
f 626 753 752
f 626 754 753
f 627 754 626
f 628 754 627
f 628 755 754
f 628 756 755
f 629 756 628
f 630 757 756
f 630 756 629
f 631 758 757
f 631 757 630
f 632 759 758
f 632 758 631
f 633 759 632
f 633 760 759
f 634 760 633
f 634 761 760
f 635 761 634
f 635 762 761
f 636 762 635
f 636 763 762
f 637 763 636
f 637 764 763
f 638 764 637
f 638 765 764
f 639 765 638
f 639 766 765
f 640 766 639
f 640 767 766
f 641 767 640
f 641 768 767
f 642 768 641
f 642 769 768
f 643 769 642
f 643 770 769
f 644 770 643
f 644 771 770
f 645 771 644
f 645 772 771
f 646 773 772
f 646 772 645
f 647 774 773
f 647 773 646
f 648 775 774
f 648 774 647
f 649 776 775
f 649 775 648
f 650 777 776
f 650 776 649
f 651 778 777
f 651 777 650
f 652 779 778
f 652 778 651
f 653 780 779
f 653 779 652
f 654 781 780
f 654 780 653
f 655 782 781
f 655 781 654
f 656 783 782
f 656 782 655
f 657 784 783
f 657 785 784
f 657 783 656
f 658 785 657
f 659 785 658
f 659 786 785
f 660 786 659
f 660 787 786
f 660 788 787
f 661 788 660
f 662 788 661
f 662 789 788
f 663 790 789
f 663 789 662
f 664 791 790
f 664 790 663
f 665 792 791
f 665 791 664
f 666 793 792
f 666 792 665
f 667 794 793
f 667 793 666
f 668 795 794
f 668 794 667
f 669 796 795
f 669 797 796
f 669 795 668
f 670 797 669
f 670 798 797
f 671 798 670
f 672 799 798
f 672 798 671
f 673 800 799
f 673 799 672
f 674 801 800
f 674 800 673
f 675 802 801
f 675 801 674
f 676 803 802
f 676 804 803
f 676 802 675
f 677 804 676
f 678 805 804
f 678 804 677
f 679 806 805
f 679 805 678
f 680 807 806
f 680 806 679
f 681 808 807
f 681 807 680
f 682 809 808
f 682 808 681
f 683 809 682
f 683 810 809
f 684 810 683
f 684 811 810
f 684 812 811
f 685 812 684
f 686 812 685
f 686 813 812
f 687 813 686
f 687 814 813
f 687 815 814
f 688 815 687
f 688 816 815
f 689 816 688
f 689 817 816
f 690 817 689
f 691 817 690
f 691 818 817
f 691 819 818
f 692 819 691
f 692 820 819
f 693 820 692
f 694 820 693
f 694 821 820
f 694 822 821
f 695 822 694
f 696 823 822
f 696 822 695
f 697 824 823
f 697 823 696
f 907 827 908
f 909 908 827
f 906 827 907
f 910 909 827
f 905 827 906
f 911 910 827
f 904 827 905
f 912 911 827
f 903 827 904
f 913 912 827
f 902 828 827
f 902 827 903
f 914 913 827
f 901 828 902
f 915 914 827
f 900 828 901
f 916 915 827
f 899 828 900
f 917 916 827
f 898 828 899
f 918 917 827
f 897 828 898
f 919 918 827
f 896 828 897
f 920 919 827
f 895 828 896
f 921 920 827
f 894 828 895
f 922 921 827
f 893 828 894
f 923 922 827
f 892 828 893
f 924 923 827
f 891 828 892
f 890 828 891
f 889 828 890
f 888 828 889
f 887 828 888
f 886 828 887
f 885 828 886
f 884 828 885
f 883 828 884
f 882 828 883
f 881 828 882
f 880 828 881
f 879 828 880
f 878 828 879
f 877 828 878
f 876 828 877
f 875 828 876
f 874 828 875
f 873 828 874
f 872 828 873
f 825 926 925
f 825 924 827
f 825 927 926
f 825 928 927
f 825 929 928
f 825 930 929
f 825 931 930
f 825 932 931
f 825 933 932
f 825 934 933
f 825 935 934
f 825 936 935
f 825 937 936
f 825 938 937
f 825 939 938
f 825 940 939
f 825 941 940
f 825 942 941
f 825 943 942
f 825 925 924
f 944 943 825
f 871 828 872
f 945 944 825
f 870 828 871
f 869 828 870
f 868 828 869
f 867 828 868
f 866 828 867
f 865 828 866
f 864 828 865
f 863 828 864
f 862 828 863
f 826 830 829
f 826 831 830
f 826 832 831
f 826 833 832
f 826 834 833
f 826 835 834
f 826 836 835
f 826 837 836
f 826 838 837
f 826 839 838
f 826 840 839
f 826 841 840
f 826 842 841
f 826 843 842
f 826 844 843
f 826 946 945
f 826 845 844
f 826 947 946
f 826 846 845
f 826 948 947
f 826 847 846
f 826 949 948
f 826 848 847
f 826 950 949
f 826 849 848
f 826 951 950
f 826 850 849
f 826 952 951
f 826 851 850
f 826 953 952
f 826 852 851
f 826 954 953
f 826 853 852
f 826 829 954
f 826 854 853
f 826 855 854
f 826 856 855
f 826 857 856
f 826 858 857
f 826 859 858
f 826 945 825
f 828 860 826
f 860 859 826
f 828 861 860
f 828 862 861
f 1037 957 1038
f 1039 1038 957
f 1036 957 1037
f 1040 1039 957
f 1035 957 1036
f 1041 1040 957
f 1034 957 1035
f 1042 1041 957
f 1033 957 1034
f 1043 1042 957
f 1032 958 957
f 1032 957 1033
f 1044 1043 957
f 1031 958 1032
f 1045 1044 957
f 1030 958 1031
f 1046 1045 957
f 1029 958 1030
f 1047 1046 957
f 1028 958 1029
f 1048 1047 957
f 1027 958 1028
f 1049 1048 957
f 1026 958 1027
f 1050 1049 957
f 1025 958 1026
f 1051 1050 957
f 1024 958 1025
f 1052 1051 957
f 1023 958 1024
f 1053 1052 957
f 1022 958 1023
f 1021 958 1022
f 1020 958 1021
f 1019 958 1020
f 1018 958 1019
f 1017 958 1018
f 1016 958 1017
f 1015 958 1016
f 1014 958 1015
f 1013 958 1014
f 1012 958 1013
f 1011 958 1012
f 1010 958 1011
f 1009 958 1010
f 1008 958 1009
f 1007 958 1008
f 955 1056 1055
f 955 1057 1056
f 955 1058 1057
f 955 1059 1058
f 955 1060 1059
f 955 1061 1060
f 955 1062 1061
f 955 1063 1062
f 955 1064 1063
f 955 1065 1064
f 955 1066 1065
f 955 1067 1066
f 955 1068 1067
f 955 1069 1068
f 955 1053 957
f 955 1054 1053
f 955 1055 1054
f 1006 958 1007
f 1070 1069 955
f 1005 958 1006
f 1071 1070 955
f 1004 958 1005
f 1072 1071 955
f 1003 958 1004
f 1073 1072 955
f 1002 958 1003
f 1074 1073 955
f 1001 958 1002
f 1075 1074 955
f 1000 958 1001
f 999 958 1000
f 998 958 999
f 997 958 998
f 996 958 997
f 995 958 996
f 994 958 995
f 993 958 994
f 992 958 993
f 956 960 959
f 956 961 960
f 956 962 961
f 956 963 962
f 956 964 963
f 956 965 964
f 956 966 965
f 956 967 966
f 956 968 967
f 956 969 968
f 956 970 969
f 956 971 970
f 956 972 971
f 956 973 972
f 956 974 973
f 956 1076 1075
f 956 975 974
f 956 1077 1076
f 956 976 975
f 956 1078 1077
f 956 977 976
f 956 1079 1078
f 956 978 977
f 956 1080 1079
f 956 979 978
f 956 1081 1080
f 956 980 979
f 956 1082 1081
f 956 981 980
f 956 1083 1082
f 956 982 981
f 956 1084 1083
f 956 983 982
f 956 959 1084
f 956 984 983
f 956 985 984
f 956 986 985
f 956 987 986
f 956 988 987
f 956 989 988
f 956 990 989
f 956 1075 955
f 958 990 956
f 958 991 990
f 958 992 991
