# Cadless export: model
v 0 14 8
v 0 60 8
v 0 8 14
v 0 8.00723 13.7056
v 0 8.02889 13.4119
v 0 8.06494 13.1196
v 0 8.11529 12.8295
v 0 8.17981 12.5421
v 0 8.25836 12.2583
v 0 8.35074 11.9787
v 0 8.45672 11.7039
v 0 8.57606 11.4347
v 0 8.70847 11.1716
v 0 8.85363 10.9154
v 0 9.01118 10.6666
v 0 9.18075 10.4258
v 0 9.36194 10.1936
v 0 9.55429 9.97065
v 0 9.75736 9.75736
v 0 9.97065 9.55429
v 0 10.1936 9.36194
v 0 10.4258 9.18075
v 0 10.6666 9.01118
v 0 10.9154 8.85363
v 0 11.1716 8.70847
v 0 11.4347 8.57606
v 0 11.7039 8.45672
v 0 11.9787 8.35074
v 0 12.2583 8.25836
v 0 12.5421 8.17981
v 0 12.8295 8.11529
v 0 13.1196 8.06494
v 0 13.4119 8.02889
v 0 13.7056 8.00723
v 0 8 50
v 0 0 50
v 0 0 0
v 0 60 0
v 0 14 8
v 0 60 8
v 80 14 8
v 80 60 8
v 80 8 14
v 80 8.00723 13.7056
v 80 8.02889 13.4119
v 80 8.06494 13.1196
v 80 8.11529 12.8295
v 80 8.17981 12.5421
v 80 8.25836 12.2583
v 80 8.35074 11.9787
v 80 8.45672 11.7039
v 80 8.57606 11.4347
v 80 8.70847 11.1716
v 80 8.85363 10.9154
v 80 9.01118 10.6666
v 80 9.18075 10.4258
v 80 9.36194 10.1936
v 80 9.55429 9.97065
v 80 9.75736 9.75736
v 80 9.97065 9.55429
v 80 10.1936 9.36194
v 80 10.4258 9.18075
v 80 10.6666 9.01118
v 80 10.9154 8.85363
v 80 11.1716 8.70847
v 80 11.4347 8.57606
v 80 11.7039 8.45672
v 80 11.9787 8.35074
v 80 12.2583 8.25836
v 80 12.5421 8.17981
v 80 12.8295 8.11529
v 80 13.1196 8.06494
v 80 13.4119 8.02889
v 80 13.7056 8.00723
v 80 14 8
v 0 14 8
v 0 8 14
v 0 8.00723 13.7056
v 0 8.02889 13.4119
v 0 8.06494 13.1196
v 0 8.11529 12.8295
v 0 8.17981 12.5421
v 0 8.25836 12.2583
v 0 8.35074 11.9787
v 0 8.45672 11.7039
v 0 8.57606 11.4347
v 0 8.70847 11.1716
v 0 8.85363 10.9154
v 0 9.01118 10.6666
v 0 9.18075 10.4258
v 0 9.36194 10.1936
v 0 9.55429 9.97065
v 0 9.75736 9.75736
v 0 9.97065 9.55429
v 0 10.1936 9.36194
v 0 10.4258 9.18075
v 0 10.6666 9.01118
v 0 10.9154 8.85363
v 0 11.1716 8.70847
v 0 11.4347 8.57606
v 0 11.7039 8.45672
v 0 11.9787 8.35074
v 0 12.2583 8.25836
v 0 12.5421 8.17981
v 0 12.8295 8.11529
v 0 13.1196 8.06494
v 0 13.4119 8.02889
v 0 13.7056 8.00723
v 0 60 0
v 80 60 0
v 0 60 8
v 80 60 8
v 80 8 14
v 80 8 50
v 0 8 14
v 0 8 50
v 0 0 0
v 80 0 0
v 80 60 0
v 0 60 0
v 0 0 50
v 0 8 50
v 80 0 50
v 80 8 50
v 0 0 0
v 80 0 0
v 0 0 50
v 80 0 50
v 80 14 8
v 80 60 8
v 80 8 14
v 80 8.00723 13.7056
v 80 8.02889 13.4119
v 80 8.06494 13.1196
v 80 8.11529 12.8295
v 80 8.17981 12.5421
v 80 8.25836 12.2583
v 80 8.35074 11.9787
v 80 8.45672 11.7039
v 80 8.57606 11.4347
v 80 8.70847 11.1716
v 80 8.85363 10.9154
v 80 9.01118 10.6666
v 80 9.18075 10.4258
v 80 9.36194 10.1936
v 80 9.55429 9.97065
v 80 9.75736 9.75736
v 80 9.97065 9.55429
v 80 10.1936 9.36194
v 80 10.4258 9.18075
v 80 10.6666 9.01118
v 80 10.9154 8.85363
v 80 11.1716 8.70847
v 80 11.4347 8.57606
v 80 11.7039 8.45672
v 80 11.9787 8.35074
v 80 12.2583 8.25836
v 80 12.5421 8.17981
v 80 12.8295 8.11529
v 80 13.1196 8.06494
v 80 13.4119 8.02889
v 80 13.7056 8.00723
v 80 8 50
v 80 0 50
v 80 0 0
v 80 60 0
f 1 2 38
f 37 20 21
f 37 21 22
f 37 22 23
f 37 23 24
f 37 24 25
f 37 25 26
f 37 26 27
f 37 27 28
f 37 28 29
f 37 29 30
f 37 30 31
f 37 31 32
f 37 32 33
f 37 33 34
f 37 34 1
f 37 1 38
f 19 20 37
f 18 19 37
f 17 18 37
f 16 17 37
f 15 16 37
f 14 15 37
f 13 14 37
f 12 13 37
f 11 12 37
f 10 11 37
f 9 10 37
f 8 9 37
f 7 8 37
f 6 7 37
f 5 6 37
f 4 5 37
f 3 4 37
f 36 35 3
f 36 3 37
f 42 40 39
f 42 39 41
f 77 43 44
f 78 77 44
f 79 44 45
f 79 78 44
f 80 45 46
f 80 79 45
f 81 46 47
f 81 80 46
f 82 47 48
f 82 81 47
f 83 48 49
f 83 82 48
f 84 49 50
f 84 83 49
f 85 50 51
f 85 84 50
f 86 85 51
f 86 51 52
f 86 52 53
f 87 86 53
f 88 87 53
f 88 53 54
f 88 54 55
f 89 88 55
f 90 55 56
f 90 89 55
f 91 56 57
f 91 90 56
f 92 57 58
f 92 58 59
f 92 91 57
f 93 92 59
f 94 59 60
f 94 60 61
f 94 93 59
f 95 94 61
f 96 61 62
f 96 62 63
f 96 95 61
f 97 96 63
f 98 63 64
f 98 64 65
f 98 97 63
f 99 65 66
f 99 98 65
f 100 99 66
f 101 66 67
f 101 100 66
f 102 67 68
f 102 101 67
f 103 68 69
f 103 102 68
f 104 69 70
f 104 70 71
f 104 103 69
f 105 104 71
f 106 71 72
f 106 72 73
f 106 105 71
f 107 106 73
f 108 73 74
f 108 107 73
f 76 74 75
f 76 108 74
f 110 109 111
f 112 110 111
f 113 115 116
f 114 113 116
f 119 118 117
f 119 117 120
f 123 122 121
f 124 122 123
f 128 125 126
f 128 127 125
f 129 166 130
f 165 149 148
f 165 150 149
f 165 151 150
f 165 152 151
f 165 153 152
f 165 154 153
f 165 155 154
f 165 156 155
f 165 157 156
f 165 158 157
f 165 159 158
f 165 160 159
f 165 161 160
f 165 162 161
f 165 129 162
f 165 166 129
f 147 165 148
f 146 165 147
f 145 165 146
f 144 165 145
f 143 165 144
f 142 165 143
f 141 165 142
f 140 165 141
f 139 165 140
f 138 165 139
f 137 165 138
f 136 165 137
f 135 165 136
f 134 165 135
f 133 165 134
f 132 165 133
f 131 165 132
f 164 131 163
f 164 165 131
