# Cadless export: model
v 700 -200 0
v 700 -200 450
v 700 200 0
v 700 200 450
v -700 200 0
v 700 200 0
v -700 200 450
v 700 200 450
v -700 -200 0
v -700 -200 450
v -700 200 0
v -700 200 450
v -700 -200 0
v -700 200 0
v 700 -200 0
v 700 200 0
v -700 -200 450
v -700 200 450
v 700 -200 450
v 700 200 450
v -700 -200 0
v 700 -200 0
v -700 -200 450
v 700 -200 450
v -682 -200 432
v 682 -200 432
v -682 -200 18
v 682 -200 18
v -682 -200 18
v 682 -200 18
v 682 182 18
v -682 182 18
v 682 -200 18
v 682 -200 432
v 682 182 18
v 682 182 432
v -682 -200 432
v 682 -200 432
v 682 182 432
v -682 182 432
v -682 -200 18
v -682 -200 432
v -682 182 18
v -682 182 432
v 682 182 18
v -682 182 18
v -682 182 432
v 682 182 432
f 2 1 3
f 2 3 4
f 8 6 5
f 8 5 7
f 10 11 9
f 10 12 11
f 15 13 14
f 16 15 14
f 19 18 17
f 20 18 19
f 25 23 21
f 25 21 27
f 28 21 22
f 28 27 21
f 24 25 26
f 24 26 28
f 24 23 25
f 24 28 22
f 30 32 29
f 31 32 30
f 34 35 33
f 34 36 35
f 38 37 40
f 39 38 40
f 42 41 43
f 42 43 44
f 48 46 45
f 48 47 46
