# Cadless export: model
v 140 -3.42901e-14 32
v 139.826 6.97842 32
v 139.304 13.9395 32
v 138.436 20.8659 32
v 137.224 27.7405 32
v 135.671 34.546 32
v 133.78 41.2657 32
v 131.557 47.8828 32
v 129.007 54.3809 32
v 126.136 60.7437 32
v 122.951 66.9556 32
v 119.461 73.0009 32
v 115.673 78.8648 32
v 111.599 84.5326 32
v 107.246 89.9903 32
v 102.627 95.2242 32
v 97.7532 100.221 32
v 92.636 104.969 32
v 87.2886 109.456 32
v 81.7241 113.671 32
v 75.9565 117.604 32
v 70 121.244 32
v 63.8695 124.582 32
v 57.5802 127.611 32
v 51.1477 130.322 32
v 44.5881 132.71 32
v 37.9177 134.767 32
v 31.1529 136.49 32
v 24.3107 137.873 32
v 17.4081 138.913 32
v 10.4622 139.609 32
v 3.4903 139.956 32
v -3.4903 139.956 32
v -10.4622 139.609 32
v -17.4081 138.913 32
v -24.3107 137.873 32
v -31.1529 136.49 32
v -37.9177 134.767 32
v -44.5881 132.71 32
v -51.1477 130.322 32
v -57.5802 127.611 32
v -63.8695 124.582 32
v -70 121.244 32
v -75.9565 117.604 32
v -81.7241 113.671 32
v -87.2886 109.456 32
v -92.636 104.969 32
v -97.7532 100.221 32
v -102.627 95.2242 32
v -107.246 89.9903 32
v -111.599 84.5326 32
v -115.673 78.8648 32
v -119.461 73.0009 32
v -122.951 66.9556 32
v -126.136 60.7437 32
v -129.007 54.3809 32
v -131.557 47.8828 32
v -133.78 41.2657 32
v -135.671 34.546 32
v -137.224 27.7405 32
v -138.436 20.8659 32
v -139.304 13.9395 32
v -139.826 6.97842 32
v -140 -4.80235e-13 32
v -139.826 -6.97842 32
v -139.304 -13.9395 32
v -138.436 -20.8659 32
v -137.224 -27.7405 32
v -135.671 -34.546 32
v -133.78 -41.2657 32
v -131.557 -47.8828 32
v -129.007 -54.3809 32
v -126.136 -60.7437 32
v -122.951 -66.9556 32
v -119.461 -73.0009 32
v -115.673 -78.8648 32
v -111.599 -84.5326 32
v -107.246 -89.9903 32
v -102.627 -95.2242 32
v -97.7532 -100.221 32
v -92.636 -104.969 32
v -87.2886 -109.456 32
v -81.7241 -113.671 32
v -75.9565 -117.604 32
v -70 -121.244 32
v -63.8695 -124.582 32
v -57.5802 -127.611 32
v -51.1477 -130.322 32
v -44.5881 -132.71 32
v -37.9177 -134.767 32
v -31.1529 -136.49 32
v -24.3107 -137.873 32
v -17.4081 -138.913 32
v -10.4622 -139.609 32
v -3.4903 -139.956 32
v 3.4903 -139.956 32
v 10.4622 -139.609 32
v 17.4081 -138.913 32
v 24.3107 -137.873 32
v 31.1529 -136.49 32
v 37.9177 -134.767 32
v 44.5881 -132.71 32
v 51.1477 -130.322 32
v 57.5802 -127.611 32
v 63.8695 -124.582 32
v 70 -121.244 32
v 75.9565 -117.604 32
v 81.7241 -113.671 32
v 87.2886 -109.456 32
v 92.636 -104.969 32
v 97.7532 -100.221 32
v 102.627 -95.2242 32
v 107.246 -89.9903 32
v 111.599 -84.5326 32
v 115.673 -78.8648 32
v 119.461 -73.0009 32
v 122.951 -66.9556 32
v 126.136 -60.7437 32
v 129.007 -54.3809 32
v 131.557 -47.8828 32
v 133.78 -41.2657 32
v 135.671 -34.546 32
v 137.224 -27.7405 32
v 138.436 -20.8659 32
v 139.304 -13.9395 32
v 139.826 -6.97842 32
v 140 -3.42901e-14 32
v 140 -3.42901e-14 0
v 139.826 6.97842 0
v 139.304 13.9395 0
v 138.436 20.8659 0
v 137.224 27.7405 0
v 135.671 34.546 0
v 133.78 41.2657 0
v 131.557 47.8828 0
v 129.007 54.3809 0
v 126.136 60.7437 0
v 122.951 66.9556 0
v 119.461 73.0009 0
v 115.673 78.8648 0
v 111.599 84.5326 0
v 107.246 89.9903 0
v 102.627 95.2242 0
v 97.7532 100.221 0
v 92.636 104.969 0
v 87.2886 109.456 0
v 81.7241 113.671 0
v 75.9565 117.604 0
v 70 121.244 0
v 63.8695 124.582 0
v 57.5802 127.611 0
v 51.1477 130.322 0
v 44.5881 132.71 0
v 37.9177 134.767 0
v 31.1529 136.49 0
v 24.3107 137.873 0
v 17.4081 138.913 0
v 10.4622 139.609 0
v 3.4903 139.956 0
v -3.4903 139.956 0
v -10.4622 139.609 0
v -17.4081 138.913 0
v -24.3107 137.873 0
v -31.1529 136.49 0
v -37.9177 134.767 0
v -44.5881 132.71 0
v -51.1477 130.322 0
v -57.5802 127.611 0
v -63.8695 124.582 0
v -70 121.244 0
v -75.9565 117.604 0
v -81.7241 113.671 0
v -87.2886 109.456 0
v -92.636 104.969 0
v -97.7532 100.221 0
v -102.627 95.2242 0
v -107.246 89.9903 0
v -111.599 84.5326 0
v -115.673 78.8648 0
v -119.461 73.0009 0
v -122.951 66.9556 0
v -126.136 60.7437 0
v -129.007 54.3809 0
v -131.557 47.8828 0
v -133.78 41.2657 0
v -135.671 34.546 0
v -137.224 27.7405 0
v -138.436 20.8659 0
v -139.304 13.9395 0
v -139.826 6.97842 0
v -140 -4.80235e-13 0
v -139.826 -6.97842 0
v -139.304 -13.9395 0
v -138.436 -20.8659 0
v -137.224 -27.7405 0
v -135.671 -34.546 0
v -133.78 -41.2657 0
v -131.557 -47.8828 0
v -129.007 -54.3809 0
v -126.136 -60.7437 0
v -122.951 -66.9556 0
v -119.461 -73.0009 0
v -115.673 -78.8648 0
v -111.599 -84.5326 0
v -107.246 -89.9903 0
v -102.627 -95.2242 0
v -97.7532 -100.221 0
v -92.636 -104.969 0
v -87.2886 -109.456 0
v -81.7241 -113.671 0
v -75.9565 -117.604 0
v -70 -121.244 0
v -63.8695 -124.582 0
v -57.5802 -127.611 0
v -51.1477 -130.322 0
v -44.5881 -132.71 0
v -37.9177 -134.767 0
v -31.1529 -136.49 0
v -24.3107 -137.873 0
v -17.4081 -138.913 0
v -10.4622 -139.609 0
v -3.4903 -139.956 0
v 3.4903 -139.956 0
v 10.4622 -139.609 0
v 17.4081 -138.913 0
v 24.3107 -137.873 0
v 31.1529 -136.49 0
v 37.9177 -134.767 0
v 44.5881 -132.71 0
v 51.1477 -130.322 0
v 57.5802 -127.611 0
v 63.8695 -124.582 0
v 70 -121.244 0
v 75.9565 -117.604 0
v 81.7241 -113.671 0
v 87.2886 -109.456 0
v 92.636 -104.969 0
v 97.7532 -100.221 0
v 102.627 -95.2242 0
v 107.246 -89.9903 0
v 111.599 -84.5326 0
v 115.673 -78.8648 0
v 119.461 -73.0009 0
v 122.951 -66.9556 0
v 126.136 -60.7437 0
v 129.007 -54.3809 0
v 131.557 -47.8828 0
v 133.78 -41.2657 0
v 135.671 -34.546 0
v 137.224 -27.7405 0
v 138.436 -20.8659 0
v 139.304 -13.9395 0
v 139.826 -6.97842 0
v 140 -3.42901e-14 0
v 140 -3.42901e-14 32
v 139.826 6.97842 32
v 139.304 13.9395 32
v 138.436 20.8659 32
v 137.224 27.7405 32
v 135.671 34.546 32
v 133.78 41.2657 32
v 131.557 47.8828 32
v 129.007 54.3809 32
v 126.136 60.7437 32
v 122.951 66.9556 32
v 119.461 73.0009 32
v 115.673 78.8648 32
v 111.599 84.5326 32
v 107.246 89.9903 32
v 102.627 95.2242 32
v 97.7532 100.221 32
v 92.636 104.969 32
v 87.2886 109.456 32
v 81.7241 113.671 32
v 75.9565 117.604 32
v 70 121.244 32
v 63.8695 124.582 32
v 57.5802 127.611 32
v 51.1477 130.322 32
v 44.5881 132.71 32
v 37.9177 134.767 32
v 31.1529 136.49 32
v 24.3107 137.873 32
v 17.4081 138.913 32
v 10.4622 139.609 32
v 3.4903 139.956 32
v -3.4903 139.956 32
v -10.4622 139.609 32
v -17.4081 138.913 32
v -24.3107 137.873 32
v -31.1529 136.49 32
v -37.9177 134.767 32
v -44.5881 132.71 32
v -51.1477 130.322 32
v -57.5802 127.611 32
v -63.8695 124.582 32
v -70 121.244 32
v -75.9565 117.604 32
v -81.7241 113.671 32
v -87.2886 109.456 32
v -92.636 104.969 32
v -97.7532 100.221 32
v -102.627 95.2242 32
v -107.246 89.9903 32
v -111.599 84.5326 32
v -115.673 78.8648 32
v -119.461 73.0009 32
v -122.951 66.9556 32
v -126.136 60.7437 32
v -129.007 54.3809 32
v -131.557 47.8828 32
v -133.78 41.2657 32
v -135.671 34.546 32
v -137.224 27.7405 32
v -138.436 20.8659 32
v -139.304 13.9395 32
v -139.826 6.97842 32
v -140 -4.80235e-13 32
v -139.826 -6.97842 32
v -139.304 -13.9395 32
v -138.436 -20.8659 32
v -137.224 -27.7405 32
v -135.671 -34.546 32
v -133.78 -41.2657 32
v -131.557 -47.8828 32
v -129.007 -54.3809 32
v -126.136 -60.7437 32
v -122.951 -66.9556 32
v -119.461 -73.0009 32
v -115.673 -78.8648 32
v -111.599 -84.5326 32
v -107.246 -89.9903 32
v -102.627 -95.2242 32
v -97.7532 -100.221 32
v -92.636 -104.969 32
v -87.2886 -109.456 32
v -81.7241 -113.671 32
v -75.9565 -117.604 32
v -70 -121.244 32
v -63.8695 -124.582 32
v -57.5802 -127.611 32
v -51.1477 -130.322 32
v -44.5881 -132.71 32
v -37.9177 -134.767 32
v -31.1529 -136.49 32
v -24.3107 -137.873 32
v -17.4081 -138.913 32
v -10.4622 -139.609 32
v -3.4903 -139.956 32
v 3.4903 -139.956 32
v 10.4622 -139.609 32
v 17.4081 -138.913 32
v 24.3107 -137.873 32
v 31.1529 -136.49 32
v 37.9177 -134.767 32
v 44.5881 -132.71 32
v 51.1477 -130.322 32
v 57.5802 -127.611 32
v 63.8695 -124.582 32
v 70 -121.244 32
v 75.9565 -117.604 32
v 81.7241 -113.671 32
v 87.2886 -109.456 32
v 92.636 -104.969 32
v 97.7532 -100.221 32
v 102.627 -95.2242 32
v 107.246 -89.9903 32
v 111.599 -84.5326 32
v 115.673 -78.8648 32
v 119.461 -73.0009 32
v 122.951 -66.9556 32
v 126.136 -60.7437 32
v 129.007 -54.3809 32
v 131.557 -47.8828 32
v 133.78 -41.2657 32
v 135.671 -34.546 32
v 137.224 -27.7405 32
v 138.436 -20.8659 32
v 139.304 -13.9395 32
v 139.826 -6.97842 32
v 140 -3.42901e-14 0
v 139.826 6.97842 0
v 139.304 13.9395 0
v 138.436 20.8659 0
v 137.224 27.7405 0
v 135.671 34.546 0
v 133.78 41.2657 0
v 131.557 47.8828 0
v 129.007 54.3809 0
v 126.136 60.7437 0
v 122.951 66.9556 0
v 119.461 73.0009 0
v 115.673 78.8648 0
v 111.599 84.5326 0
v 107.246 89.9903 0
v 102.627 95.2242 0
v 97.7532 100.221 0
v 92.636 104.969 0
v 87.2886 109.456 0
v 81.7241 113.671 0
v 75.9565 117.604 0
v 70 121.244 0
v 63.8695 124.582 0
v 57.5802 127.611 0
v 51.1477 130.322 0
v 44.5881 132.71 0
v 37.9177 134.767 0
v 31.1529 136.49 0
v 24.3107 137.873 0
v 17.4081 138.913 0
v 10.4622 139.609 0
v 3.4903 139.956 0
v -3.4903 139.956 0
v -10.4622 139.609 0
v -17.4081 138.913 0
v -24.3107 137.873 0
v -31.1529 136.49 0
v -37.9177 134.767 0
v -44.5881 132.71 0
v -51.1477 130.322 0
v -57.5802 127.611 0
v -63.8695 124.582 0
v -70 121.244 0
v -75.9565 117.604 0
v -81.7241 113.671 0
v -87.2886 109.456 0
v -92.636 104.969 0
v -97.7532 100.221 0
v -102.627 95.2242 0
v -107.246 89.9903 0
v -111.599 84.5326 0
v -115.673 78.8648 0
v -119.461 73.0009 0
v -122.951 66.9556 0
v -126.136 60.7437 0
v -129.007 54.3809 0
v -131.557 47.8828 0
v -133.78 41.2657 0
v -135.671 34.546 0
v -137.224 27.7405 0
v -138.436 20.8659 0
v -139.304 13.9395 0
v -139.826 6.97842 0
v -140 -4.80235e-13 0
v -139.826 -6.97842 0
v -139.304 -13.9395 0
v -138.436 -20.8659 0
v -137.224 -27.7405 0
v -135.671 -34.546 0
v -133.78 -41.2657 0
v -131.557 -47.8828 0
v -129.007 -54.3809 0
v -126.136 -60.7437 0
v -122.951 -66.9556 0
v -119.461 -73.0009 0
v -115.673 -78.8648 0
v -111.599 -84.5326 0
v -107.246 -89.9903 0
v -102.627 -95.2242 0
v -97.7532 -100.221 0
v -92.636 -104.969 0
v -87.2886 -109.456 0
v -81.7241 -113.671 0
v -75.9565 -117.604 0
v -70 -121.244 0
v -63.8695 -124.582 0
v -57.5802 -127.611 0
v -51.1477 -130.322 0
v -44.5881 -132.71 0
v -37.9177 -134.767 0
v -31.1529 -136.49 0
v -24.3107 -137.873 0
v -17.4081 -138.913 0
v -10.4622 -139.609 0
v -3.4903 -139.956 0
v 3.4903 -139.956 0
v 10.4622 -139.609 0
v 17.4081 -138.913 0
v 24.3107 -137.873 0
v 31.1529 -136.49 0
v 37.9177 -134.767 0
v 44.5881 -132.71 0
v 51.1477 -130.322 0
v 57.5802 -127.611 0
v 63.8695 -124.582 0
v 70 -121.244 0
v 75.9565 -117.604 0
v 81.7241 -113.671 0
v 87.2886 -109.456 0
v 92.636 -104.969 0
v 97.7532 -100.221 0
v 102.627 -95.2242 0
v 107.246 -89.9903 0
v 111.599 -84.5326 0
v 115.673 -78.8648 0
v 119.461 -73.0009 0
v 122.951 -66.9556 0
v 126.136 -60.7437 0
v 129.007 -54.3809 0
v 131.557 -47.8828 0
v 133.78 -41.2657 0
v 135.671 -34.546 0
v 137.224 -27.7405 0
v 138.436 -20.8659 0
v 139.304 -13.9395 0
v 139.826 -6.97842 0
f 1 128 129
f 2 129 130
f 2 1 129
f 3 130 131
f 3 2 130
f 4 131 132
f 4 3 131
f 5 132 133
f 5 4 132
f 6 133 134
f 6 5 133
f 7 6 134
f 8 134 135
f 8 7 134
f 9 135 136
f 9 8 135
f 10 136 137
f 10 137 138
f 10 9 136
f 11 10 138
f 12 11 138
f 12 138 139
f 13 12 139
f 13 139 140
f 14 13 140
f 14 140 141
f 14 141 142
f 15 14 142
f 16 15 142
f 16 142 143
f 17 16 143
f 17 143 144
f 18 17 144
f 18 144 145
f 18 145 146
f 19 18 146
f 20 19 146
f 20 146 147
f 20 147 148
f 21 20 148
f 22 21 148
f 22 148 149
f 22 149 150
f 23 22 150
f 24 150 151
f 24 23 150
f 25 151 152
f 25 24 151
f 26 152 153
f 26 25 152
f 27 153 154
f 27 26 153
f 28 154 155
f 28 27 154
f 29 155 156
f 29 28 155
f 30 156 157
f 30 29 156
f 31 157 158
f 31 30 157
f 32 158 159
f 32 31 158
f 33 159 160
f 33 160 161
f 33 32 159
f 34 33 161
f 35 161 162
f 35 34 161
f 36 162 163
f 36 163 164
f 36 35 162
f 37 36 164
f 38 37 164
f 38 164 165
f 39 38 165
f 39 165 166
f 39 166 167
f 40 39 167
f 41 40 167
f 41 167 168
f 42 41 168
f 42 168 169
f 43 42 169
f 43 169 170
f 43 170 171
f 44 43 171
f 45 44 171
f 45 171 172
f 45 172 173
f 46 45 173
f 46 173 174
f 47 46 174
f 48 47 174
f 48 174 175
f 49 48 175
f 49 175 176
f 49 176 177
f 50 49 177
f 51 50 177
f 51 177 178
f 52 51 178
f 52 178 179
f 52 179 180
f 53 52 180
f 53 180 181
f 54 53 181
f 55 54 181
f 55 181 182
f 56 55 182
f 56 182 183
f 57 56 183
f 57 183 184
f 58 57 184
f 58 184 185
f 59 185 186
f 59 186 187
f 59 58 185
f 60 59 187
f 61 187 188
f 61 188 189
f 61 60 187
f 62 189 190
f 62 61 189
f 63 62 190
f 64 63 190
f 64 190 191
f 65 64 191
f 65 191 192
f 66 65 192
f 66 192 193
f 66 193 194
f 67 66 194
f 67 194 195
f 68 67 195
f 69 68 195
f 69 195 196
f 70 69 196
f 70 196 197
f 71 70 197
f 71 197 198
f 72 71 198
f 72 198 199
f 72 199 200
f 73 72 200
f 74 73 200
f 74 200 201
f 74 201 202
f 75 202 203
f 75 74 202
f 76 75 203
f 77 203 204
f 77 204 205
f 77 76 203
f 78 77 205
f 79 205 206
f 79 78 205
f 80 206 207
f 80 79 206
f 81 207 208
f 81 80 207
f 82 208 209
f 82 81 208
f 83 209 210
f 83 210 211
f 83 82 209
f 84 83 211
f 85 211 212
f 85 212 213
f 85 84 211
f 86 85 213
f 87 213 214
f 87 214 215
f 87 86 213
f 88 87 215
f 89 88 215
f 89 215 216
f 90 89 216
f 90 216 217
f 91 90 217
f 91 217 218
f 91 218 219
f 92 91 219
f 93 219 220
f 93 92 219
f 94 220 221
f 94 93 220
f 95 221 222
f 95 222 223
f 95 94 221
f 96 95 223
f 97 223 224
f 97 224 225
f 97 96 223
f 98 97 225
f 99 225 226
f 99 98 225
f 100 226 227
f 100 99 226
f 101 227 228
f 101 100 227
f 102 228 229
f 102 229 230
f 102 101 228
f 103 102 230
f 104 230 231
f 104 231 232
f 104 103 230
f 105 104 232
f 106 232 233
f 106 233 234
f 106 105 232
f 107 106 234
f 108 234 235
f 108 107 234
f 109 235 236
f 109 236 237
f 109 108 235
f 110 109 237
f 111 237 238
f 111 110 237
f 112 238 239
f 112 239 240
f 112 111 238
f 113 112 240
f 114 113 240
f 114 240 241
f 115 114 241
f 115 241 242
f 116 115 242
f 116 242 243
f 117 116 243
f 117 243 244
f 118 117 244
f 118 244 245
f 118 245 246
f 119 118 246
f 120 119 246
f 120 246 247
f 121 120 247
f 121 247 248
f 122 121 248
f 122 248 249
f 122 249 250
f 123 122 250
f 124 123 250
f 124 250 251
f 125 124 251
f 125 251 252
f 126 252 253
f 126 125 252
f 127 253 254
f 127 126 253
f 336 334 335
f 331 332 333
f 331 333 334
f 339 334 336
f 339 331 334
f 339 329 330
f 339 330 331
f 339 336 337
f 339 337 338
f 326 329 339
f 326 327 328
f 326 328 329
f 342 340 341
f 324 326 339
f 324 325 326
f 322 323 324
f 346 340 342
f 346 342 343
f 346 343 344
f 346 344 345
f 320 321 322
f 320 322 324
f 348 340 346
f 348 339 340
f 348 346 347
f 318 319 320
f 350 348 349
f 316 317 318
f 352 348 350
f 352 350 351
f 315 316 318
f 354 352 353
f 313 315 318
f 313 314 315
f 313 320 324
f 313 318 320
f 311 312 313
f 357 355 356
f 310 311 313
f 358 352 354
f 358 355 357
f 358 348 352
f 358 339 348
f 358 354 355
f 309 310 313
f 359 339 358
f 307 309 313
f 307 308 309
f 307 313 324
f 362 360 361
f 305 306 307
f 304 305 307
f 364 362 363
f 365 359 360
f 365 339 359
f 365 360 362
f 365 362 364
f 365 324 339
f 302 304 307
f 302 303 304
f 301 302 307
f 369 365 366
f 369 366 367
f 369 367 368
f 298 299 300
f 296 297 298
f 296 298 300
f 372 369 370
f 372 370 371
f 295 300 301
f 295 296 300
f 292 293 294
f 292 294 295
f 377 372 373
f 377 373 374
f 377 374 375
f 377 375 376
f 377 369 372
f 290 291 292
f 290 292 295
f 287 369 377
f 287 288 289
f 287 289 290
f 287 307 324
f 287 324 365
f 287 301 307
f 287 365 369
f 287 295 301
f 287 290 295
f 286 287 377
f 284 285 286
f 260 257 258
f 260 258 259
f 281 282 283
f 261 257 260
f 280 284 286
f 280 286 377
f 280 281 283
f 280 283 284
f 262 255 256
f 262 256 257
f 262 377 378
f 262 378 379
f 262 379 380
f 262 380 255
f 262 257 261
f 263 377 262
f 277 278 279
f 277 279 280
f 276 263 264
f 276 277 280
f 276 280 377
f 276 377 263
f 266 264 265
f 267 264 266
f 273 274 275
f 273 275 276
f 269 267 268
f 272 273 276
f 271 269 270
f 271 276 264
f 271 267 269
f 271 264 267
f 271 272 276
f 462 461 460
f 457 459 458
f 457 460 459
f 465 462 460
f 465 460 457
f 465 456 455
f 465 457 456
f 465 463 462
f 465 464 463
f 452 465 455
f 452 454 453
f 452 455 454
f 468 467 466
f 450 465 452
f 450 452 451
f 448 450 449
f 472 468 466
f 472 469 468
f 472 470 469
f 472 471 470
f 446 448 447
f 446 450 448
f 474 472 466
f 474 466 465
f 474 473 472
f 444 446 445
f 476 475 474
f 442 444 443
f 478 476 474
f 478 477 476
f 441 444 442
f 480 479 478
f 439 444 441
f 439 441 440
f 439 450 446
f 439 446 444
f 437 439 438
f 483 482 481
f 436 439 437
f 484 480 478
f 484 483 481
f 484 478 474
f 484 474 465
f 484 481 480
f 435 439 436
f 485 484 465
f 433 439 435
f 433 435 434
f 433 450 439
f 488 487 486
f 431 433 432
f 430 433 431
f 490 489 488
f 491 486 485
f 491 485 465
f 491 488 486
f 491 490 488
f 491 465 450
f 428 433 430
f 428 430 429
f 427 433 428
f 495 492 491
f 495 493 492
f 495 494 493
f 424 426 425
f 422 424 423
f 422 426 424
f 498 496 495
f 498 497 496
f 421 427 426
f 421 426 422
f 418 420 419
f 418 421 420
f 503 499 498
f 503 500 499
f 503 501 500
f 503 502 501
f 503 498 495
f 416 418 417
f 416 421 418
f 413 503 495
f 413 415 414
f 413 416 415
f 413 450 433
f 413 491 450
f 413 433 427
f 413 495 491
f 413 427 421
f 413 421 416
f 412 503 413
f 410 412 411
f 386 384 383
f 386 385 384
f 407 409 408
f 387 386 383
f 406 412 410
f 406 503 412
f 406 409 407
f 406 410 409
f 388 382 381
f 388 383 382
f 388 504 503
f 388 505 504
f 388 506 505
f 388 381 506
f 388 387 383
f 389 388 503
f 403 405 404
f 403 406 405
f 402 390 389
f 402 406 403
f 402 503 406
f 402 389 503
f 392 391 390
f 393 392 390
f 399 401 400
f 399 402 401
f 395 394 393
f 398 402 399
f 397 396 395
f 397 390 402
f 397 395 393
f 397 393 390
f 397 402 398
