# Cadless export: model
v 400 -200 0
v 400 -200 720
v 400 200 0
v 400 200 720
v -400 -200 0
v 400 -200 0
v -400 -200 720
v 400 -200 720
v -382 -200 702
v 382 -200 702
v -382 -200 360
v 382 -200 360
v -382 -200 18
v -382 -200 342
v 382 -200 18
v 382 -200 342
v -400 -200 720
v -400 200 720
v 400 -200 720
v 400 200 720
v -400 200 0
v 400 200 0
v -400 200 720
v 400 200 720
v -400 -200 0
v -400 200 0
v 400 -200 0
v 400 200 0
v -400 -200 0
v -400 -200 720
v -400 200 0
v -400 200 720
v -382 -200 702
v 382 -200 702
v 382 182 702
v -382 182 702
v -382 -200 18
v -382 -200 342
v -382 182 18
v -382 182 342
v -382 -200 360
v -382 -200 702
v -382 182 360
v -382 182 702
v -382 -200 18
v 382 -200 18
v 382 182 18
v -382 182 18
v 382 -200 18
v 382 -200 342
v 382 182 18
v 382 182 342
v 382 -200 360
v 382 -200 702
v 382 182 360
v 382 182 702
v 382 182 360
v 382 182 702
v -382 182 360
v -382 182 702
v -382 -200 342
v -382 182 342
v 382 -200 342
v 382 182 342
v 382 182 18
v 382 182 342
v -382 182 18
v -382 182 342
v -382 -200 360
v -382 182 360
v 382 -200 360
v 382 182 360
f 2 1 3
f 2 3 4
f 14 5 13
f 9 7 11
f 15 13 5
f 6 15 5
f 16 11 14
f 16 15 6
f 12 11 16
f 10 7 9
f 8 10 12
f 8 7 10
f 5 11 7
f 5 14 11
f 8 16 6
f 8 12 16
f 19 18 17
f 20 18 19
f 24 22 21
f 24 21 23
f 27 25 26
f 28 27 26
f 30 31 29
f 30 32 31
f 34 33 36
f 35 34 36
f 37 39 40
f 38 37 40
f 42 41 43
f 42 43 44
f 46 48 45
f 47 48 46
f 49 52 51
f 50 52 49
f 54 55 53
f 54 56 55
f 57 60 59
f 58 60 57
f 63 61 62
f 64 63 62
f 65 68 67
f 66 68 65
f 71 70 69
f 72 70 71
