# Cadless export: model
v -13 28.1425 -11
v -13 28.1425 11
v -14.376 27.4651 -11
v -15.7169 26.7204 -11
v -17.0193 25.9103 -11
v -18.28 25.0368 -11
v -19.4959 24.102 -11
v -20.6642 23.1083 -11
v -21.7818 22.0579 -11
v -22.8462 20.9536 -11
v -23.8546 19.7979 -11
v -24.8046 18.5938 -11
v -25.6939 17.3442 -11
v -26.5203 16.0521 -11
v -27.2818 14.7208 -11
v -27.9765 13.3534 -11
v -28.6028 11.9533 -11
v -29.159 10.524 -11
v -29.6438 9.06885 -11
v -30.0561 7.59154 -11
v -30.3948 6.09566 -11
v -30.6591 4.58485 -11
v -30.8483 3.06281 -11
v -30.9621 1.53328 -11
v -31 1.3764e-13 -11
v -30.9621 -1.53328 -11
v -30.8483 -3.06281 -11
v -30.6591 -4.58485 -11
v -30.3948 -6.09566 -11
v -30.0561 -7.59154 -11
v -29.6438 -9.06885 -11
v -29.159 -10.524 -11
v -28.6028 -11.9533 -11
v -27.9765 -13.3534 -11
v -27.2818 -14.7208 -11
v -26.5203 -16.0521 -11
v -25.6939 -17.3442 -11
v -24.8046 -18.5938 -11
v -23.8546 -19.7979 -11
v -22.8462 -20.9536 -11
v -21.7818 -22.0579 -11
v -20.6642 -23.1083 -11
v -19.4959 -24.102 -11
v -18.28 -25.0368 -11
v -17.0193 -25.9103 -11
v -15.7169 -26.7204 -11
v -14.376 -27.4651 -11
v -13 -28.1425 -11
v -13 -28.1425 11
v -14.376 -27.4651 11
v -15.7169 -26.7204 11
v -17.0193 -25.9103 11
v -18.28 -25.0368 11
v -19.4959 -24.102 11
v -20.6642 -23.1083 11
v -21.7818 -22.0579 11
v -22.8462 -20.9536 11
v -23.8546 -19.7979 11
v -24.8046 -18.5938 11
v -25.6939 -17.3442 11
v -26.5203 -16.0521 11
v -27.2818 -14.7208 11
v -27.9765 -13.3534 11
v -28.6028 -11.9533 11
v -29.159 -10.524 11
v -29.6438 -9.06885 11
v -30.0561 -7.59154 11
v -30.3948 -6.09566 11
v -30.6591 -4.58485 11
v -30.8483 -3.06281 11
v -30.9621 -1.53328 11
v -31 -5.05335e-13 11
v -30.9621 1.53328 11
v -30.8483 3.06281 11
v -30.6591 4.58485 11
v -30.3948 6.09566 11
v -30.0561 7.59154 11
v -29.6438 9.06885 11
v -29.159 10.524 11
v -28.6028 11.9533 11
v -27.9765 13.3534 11
v -27.2818 14.7208 11
v -26.5203 16.0521 11
v -25.6939 17.3442 11
v -24.8046 18.5938 11
v -23.8546 19.7979 11
v -22.8462 20.9536 11
v -21.7818 22.0579 11
v -20.6642 23.1083 11
v -19.4959 24.102 11
v -18.28 25.0368 11
v -17.0193 25.9103 11
v -15.7169 26.7204 11
v -14.376 27.4651 11
v -13 28.1425 11
v -13 40 11
v -13 28.1425 -11
v -13 40 -11
v 13 28.1425 11
v 14.376 27.4651 11
v 15.7169 26.7204 11
v 17.0193 25.9103 11
v 18.28 25.0368 11
v 19.4959 24.102 11
v 20.6642 23.1083 11
v 21.7818 22.0579 11
v 22.8462 20.9536 11
v 23.8546 19.7979 11
v 24.8046 18.5938 11
v 25.6939 17.3442 11
v 26.5203 16.0521 11
v 27.2818 14.7208 11
v 27.9765 13.3534 11
v 28.6028 11.9533 11
v 29.159 10.524 11
v 29.6438 9.06885 11
v 30.0561 7.59154 11
v 30.3948 6.09566 11
v 30.6591 4.58485 11
v 30.8483 3.06281 11
v 30.9621 1.53328 11
v 31 6.46312e-13 11
v 30.9621 -1.53328 11
v 30.8483 -3.06281 11
v 30.6591 -4.58485 11
v 30.3948 -6.09566 11
v 30.0561 -7.59154 11
v 29.6438 -9.06885 11
v 29.159 -10.524 11
v 28.6028 -11.9533 11
v 27.9765 -13.3534 11
v 27.2818 -14.7208 11
v 26.5203 -16.0521 11
v 25.6939 -17.3442 11
v 24.8046 -18.5938 11
v 23.8546 -19.7979 11
v 22.8462 -20.9536 11
v 21.7818 -22.0579 11
v 20.6642 -23.1083 11
v 19.4959 -24.102 11
v 18.28 -25.0368 11
v 17.0193 -25.9103 11
v 15.7169 -26.7204 11
v 14.376 -27.4651 11
v 13 -28.1425 11
v 13 40 11
v -13 40 11
v -13 28.1425 11
v -13 -28.1425 11
v -14.376 -27.4651 11
v -15.7169 -26.7204 11
v -17.0193 -25.9103 11
v -18.28 -25.0368 11
v -19.4959 -24.102 11
v -20.6642 -23.1083 11
v -21.7818 -22.0579 11
v -22.8462 -20.9536 11
v -23.8546 -19.7979 11
v -24.8046 -18.5938 11
v -25.6939 -17.3442 11
v -26.5203 -16.0521 11
v -27.2818 -14.7208 11
v -27.9765 -13.3534 11
v -28.6028 -11.9533 11
v -29.159 -10.524 11
v -29.6438 -9.06885 11
v -30.0561 -7.59154 11
v -30.3948 -6.09566 11
v -30.6591 -4.58485 11
v -30.8483 -3.06281 11
v -30.9621 -1.53328 11
v -31 -5.05335e-13 11
v -30.9621 1.53328 11
v -30.8483 3.06281 11
v -30.6591 4.58485 11
v -30.3948 6.09566 11
v -30.0561 7.59154 11
v -29.6438 9.06885 11
v -29.159 10.524 11
v -28.6028 11.9533 11
v -27.9765 13.3534 11
v -27.2818 14.7208 11
v -26.5203 16.0521 11
v -25.6939 17.3442 11
v -24.8046 18.5938 11
v -23.8546 19.7979 11
v -22.8462 20.9536 11
v -21.7818 22.0579 11
v -20.6642 23.1083 11
v -19.4959 24.102 11
v -18.28 25.0368 11
v -17.0193 25.9103 11
v -15.7169 26.7204 11
v -14.376 27.4651 11
v -13 -40 11
v 13 -40 11
v -13 -40 11
v -13 -28.1425 11
v -13 -40 -11
v -13 -28.1425 -11
v -13 28.1425 -11
v -13 40 -11
v -14.376 27.4651 -11
v -15.7169 26.7204 -11
v -17.0193 25.9103 -11
v -18.28 25.0368 -11
v -19.4959 24.102 -11
v -20.6642 23.1083 -11
v -21.7818 22.0579 -11
v -22.8462 20.9536 -11
v -23.8546 19.7979 -11
v -24.8046 18.5938 -11
v -25.6939 17.3442 -11
v -26.5203 16.0521 -11
v -27.2818 14.7208 -11
v -27.9765 13.3534 -11
v -28.6028 11.9533 -11
v -29.159 10.524 -11
v -29.6438 9.06885 -11
v -30.0561 7.59154 -11
v -30.3948 6.09566 -11
v -30.6591 4.58485 -11
v -30.8483 3.06281 -11
v -30.9621 1.53328 -11
v -31 1.3764e-13 -11
v -30.9621 -1.53328 -11
v -30.8483 -3.06281 -11
v -30.6591 -4.58485 -11
v -30.3948 -6.09566 -11
v -30.0561 -7.59154 -11
v -29.6438 -9.06885 -11
v -29.159 -10.524 -11
v -28.6028 -11.9533 -11
v -27.9765 -13.3534 -11
v -27.2818 -14.7208 -11
v -26.5203 -16.0521 -11
v -25.6939 -17.3442 -11
v -24.8046 -18.5938 -11
v -23.8546 -19.7979 -11
v -22.8462 -20.9536 -11
v -21.7818 -22.0579 -11
v -20.6642 -23.1083 -11
v -19.4959 -24.102 -11
v -18.28 -25.0368 -11
v -17.0193 -25.9103 -11
v -15.7169 -26.7204 -11
v -14.376 -27.4651 -11
v -13 -28.1425 -11
v -13 -40 -11
v 13 -40 -11
v 13 -28.1425 -11
v 14.376 -27.4651 -11
v 15.7169 -26.7204 -11
v 17.0193 -25.9103 -11
v 18.28 -25.0368 -11
v 19.4959 -24.102 -11
v 20.6642 -23.1083 -11
v 21.7818 -22.0579 -11
v 22.8462 -20.9536 -11
v 23.8546 -19.7979 -11
v 24.8046 -18.5938 -11
v 25.6939 -17.3442 -11
v 26.5203 -16.0521 -11
v 27.2818 -14.7208 -11
v 27.9765 -13.3534 -11
v 28.6028 -11.9533 -11
v 29.159 -10.524 -11
v 29.6438 -9.06885 -11
v 30.0561 -7.59154 -11
v 30.3948 -6.09566 -11
v 30.6591 -4.58485 -11
v 30.8483 -3.06281 -11
v 30.9621 -1.53328 -11
v 31 4.91757e-13 -11
v 30.9621 1.53328 -11
v 30.8483 3.06281 -11
v 30.6591 4.58485 -11
v 30.3948 6.09566 -11
v 30.0561 7.59154 -11
v 29.6438 9.06885 -11
v 29.159 10.524 -11
v 28.6028 11.9533 -11
v 27.9765 13.3534 -11
v 27.2818 14.7208 -11
v 26.5203 16.0521 -11
v 25.6939 17.3442 -11
v 24.8046 18.5938 -11
v 23.8546 19.7979 -11
v 22.8462 20.9536 -11
v 21.7818 22.0579 -11
v 20.6642 23.1083 -11
v 19.4959 24.102 -11
v 18.28 25.0368 -11
v 17.0193 25.9103 -11
v 15.7169 26.7204 -11
v 14.376 27.4651 -11
v 13 28.1425 -11
v 13 40 -11
v -13 40 -11
v 13 40 -11
v -13 40 11
v 13 40 11
v 13 -28.1425 -11
v 13 -28.1425 11
v 14.376 -27.4651 -11
v 15.7169 -26.7204 -11
v 17.0193 -25.9103 -11
v 18.28 -25.0368 -11
v 19.4959 -24.102 -11
v 20.6642 -23.1083 -11
v 21.7818 -22.0579 -11
v 22.8462 -20.9536 -11
v 23.8546 -19.7979 -11
v 24.8046 -18.5938 -11
v 25.6939 -17.3442 -11
v 26.5203 -16.0521 -11
v 27.2818 -14.7208 -11
v 27.9765 -13.3534 -11
v 28.6028 -11.9533 -11
v 29.159 -10.524 -11
v 29.6438 -9.06885 -11
v 30.0561 -7.59154 -11
v 30.3948 -6.09566 -11
v 30.6591 -4.58485 -11
v 30.8483 -3.06281 -11
v 30.9621 -1.53328 -11
v 31 4.91757e-13 -11
v 30.9621 1.53328 -11
v 30.8483 3.06281 -11
v 30.6591 4.58485 -11
v 30.3948 6.09566 -11
v 30.0561 7.59154 -11
v 29.6438 9.06885 -11
v 29.159 10.524 -11
v 28.6028 11.9533 -11
v 27.9765 13.3534 -11
v 27.2818 14.7208 -11
v 26.5203 16.0521 -11
v 25.6939 17.3442 -11
v 24.8046 18.5938 -11
v 23.8546 19.7979 -11
v 22.8462 20.9536 -11
v 21.7818 22.0579 -11
v 20.6642 23.1083 -11
v 19.4959 24.102 -11
v 18.28 25.0368 -11
v 17.0193 25.9103 -11
v 15.7169 26.7204 -11
v 14.376 27.4651 -11
v 13 28.1425 -11
v 13 28.1425 11
v 14.376 27.4651 11
v 15.7169 26.7204 11
v 17.0193 25.9103 11
v 18.28 25.0368 11
v 19.4959 24.102 11
v 20.6642 23.1083 11
v 21.7818 22.0579 11
v 22.8462 20.9536 11
v 23.8546 19.7979 11
v 24.8046 18.5938 11
v 25.6939 17.3442 11
v 26.5203 16.0521 11
v 27.2818 14.7208 11
v 27.9765 13.3534 11
v 28.6028 11.9533 11
v 29.159 10.524 11
v 29.6438 9.06885 11
v 30.0561 7.59154 11
v 30.3948 6.09566 11
v 30.6591 4.58485 11
v 30.8483 3.06281 11
v 30.9621 1.53328 11
v 31 6.46312e-13 11
v 30.9621 -1.53328 11
v 30.8483 -3.06281 11
v 30.6591 -4.58485 11
v 30.3948 -6.09566 11
v 30.0561 -7.59154 11
v 29.6438 -9.06885 11
v 29.159 -10.524 11
v 28.6028 -11.9533 11
v 27.9765 -13.3534 11
v 27.2818 -14.7208 11
v 26.5203 -16.0521 11
v 25.6939 -17.3442 11
v 24.8046 -18.5938 11
v 23.8546 -19.7979 11
v 22.8462 -20.9536 11
v 21.7818 -22.0579 11
v 20.6642 -23.1083 11
v 19.4959 -24.102 11
v 18.28 -25.0368 11
v 17.0193 -25.9103 11
v 15.7169 -26.7204 11
v 14.376 -27.4651 11
v 28.9828 -11 5
v 29.4415 -9.70562 5
v 29.8424 -8.39218 5
v 30.1848 -7.06228 5
v 30.468 -5.71853 5
v 30.6914 -4.36354 5
v 30.8545 -3 5
v 28.9828 -11 9
v 29.4807 -9.58592 9
v 29.9096 -8.14941 9
v 30.2687 -6.69385 9
v 30.5569 -5.22263 9
v 30.7737 -3.7392 9
v 30.9185 -2.24703 9
v 30.9909 -0.749593 9
v 30.9909 0.749593 9
v 30.9185 2.24703 9
v 30.7737 3.7392 9
v 30.5569 5.22263 9
v 30.2687 6.69385 9
v 29.9096 8.14941 9
v 29.4807 9.58592 9
v 28.9828 11 9
v 28.9828 11 5
v 30.8545 3 5
v 30.6914 4.36354 5
v 30.468 5.71853 5
v 30.1848 7.06228 5
v 29.8424 8.39218 5
v 29.4415 9.70562 5
v 30.8545 3 -5
v 30.6914 4.36354 -5
v 30.468 5.71853 -5
v 30.1848 7.06228 -5
v 29.8424 8.39218 -5
v 29.4415 9.70562 -5
v 28.9828 11 -5
v 28.9828 11 -9
v 29.4807 9.58592 -9
v 29.9096 8.14941 -9
v 30.2687 6.69385 -9
v 30.5569 5.22263 -9
v 30.7737 3.7392 -9
v 30.9185 2.24703 -9
v 30.9909 0.749593 -9
v 30.9909 -0.749593 -9
v 30.9185 -2.24703 -9
v 30.7737 -3.7392 -9
v 30.5569 -5.22263 -9
v 30.2687 -6.69385 -9
v 29.9096 -8.14941 -9
v 29.4807 -9.58592 -9
v 28.9828 -11 -9
v 28.9828 -11 -5
v 29.4415 -9.70562 -5
v 29.8424 -8.39218 -5
v 30.1848 -7.06228 -5
v 30.468 -5.71853 -5
v 30.6914 -4.36354 -5
v 30.8545 -3 -5
v 13 28.1425 11
v 13 40 11
v 13 28.1425 -11
v 13 40 -11
v -13 -40 -11
v 13 -40 -11
v -13 -40 11
v 13 -40 11
v 13 -40 11
v 13 -28.1425 11
v 13 -40 -11
v 13 -28.1425 -11
v 28.9828 -11 5
v 29.4415 -9.70562 5
v 29.8424 -8.39218 5
v 30.1848 -7.06228 5
v 30.468 -5.71853 5
v 30.6914 -4.36354 5
v 30.8545 -3 5
v 132.039 -11 5
v 128.267 -3 5
v 128.429 -3.7969 5
v 128.63 -4.58511 5
v 128.868 -5.36282 5
v 129.143 -6.12826 5
v 129.454 -6.87968 5
v 129.801 -7.61534 5
v 130.183 -8.33358 5
v 130.598 -9.03274 5
v 131.047 -9.71122 5
v 131.527 -10.3675 5
v 28.9828 -11 5
v 132.039 -11 5
v 28.9828 -11 9
v 132.039 -11 9
v 30.8545 -3 -5
v 128.267 -3 -5
v 30.8545 -3 5
v 128.267 -3 5
v 28.9828 11 9
v 132.039 11 9
v 28.9828 -11 9
v 29.4807 -9.58592 9
v 29.9096 -8.14941 9
v 30.2687 -6.69385 9
v 30.5569 -5.22263 9
v 30.7737 -3.7392 9
v 30.9185 -2.24703 9
v 30.9909 -0.749593 9
v 30.9909 0.749593 9
v 30.9185 2.24703 9
v 30.7737 3.7392 9
v 30.5569 5.22263 9
v 30.2687 6.69385 9
v 29.9096 8.14941 9
v 29.4807 9.58592 9
v 132.039 -11 9
v 131.52 10.3582 9
v 131.033 9.69209 9
v 130.58 9.00312 9
v 130.16 8.29294 9
v 129.775 7.56323 9
v 129.426 6.81572 9
v 129.114 6.05215 9
v 128.839 5.27433 9
v 128.602 4.48409 9
v 128.404 3.68329 9
v 128.245 2.87381 9
v 128.125 2.05757 9
v 128.045 1.23648 9
v 128.005 0.412485 9
v 128.005 -0.412485 9
v 128.045 -1.23648 9
v 128.125 -2.05757 9
v 128.245 -2.87381 9
v 128.404 -3.68329 9
v 128.602 -4.48409 9
v 128.839 -5.27433 9
v 129.114 -6.05215 9
v 129.426 -6.81572 9
v 129.775 -7.56323 9
v 130.16 -8.29294 9
v 130.58 -9.00312 9
v 131.033 -9.69209 9
v 131.52 -10.3582 9
v 28.9828 -11 -5
v 29.4415 -9.70562 -5
v 29.8424 -8.39218 -5
v 30.1848 -7.06228 -5
v 30.468 -5.71853 -5
v 30.6914 -4.36354 -5
v 30.8545 -3 -5
v 132.039 -11 -5
v 128.267 -3 -5
v 128.429 -3.7969 -5
v 128.63 -4.58511 -5
v 128.868 -5.36282 -5
v 129.143 -6.12826 -5
v 129.454 -6.87968 -5
v 129.801 -7.61534 -5
v 130.183 -8.33358 -5
v 130.598 -9.03274 -5
v 131.047 -9.71122 -5
v 131.527 -10.3675 -5
v 28.9828 11 5
v 132.039 11 5
v 28.9828 11 9
v 132.039 11 9
v 28.9828 -11 -9
v 132.039 -11 -9
v 28.9828 -11 -5
v 132.039 -11 -5
v 28.9828 11 5
v 132.039 11 5
v 30.8545 3 5
v 30.6914 4.36354 5
v 30.468 5.71853 5
v 30.1848 7.06228 5
v 29.8424 8.39218 5
v 29.4415 9.70562 5
v 128.267 3 5
v 131.527 10.3675 5
v 131.047 9.71122 5
v 130.598 9.03274 5
v 130.183 8.33358 5
v 129.801 7.61534 5
v 129.454 6.87968 5
v 129.143 6.12826 5
v 128.868 5.36282 5
v 128.63 4.58511 5
v 128.429 3.7969 5
v 28.9828 11 -9
v 29.4807 9.58592 -9
v 29.9096 8.14941 -9
v 30.2687 6.69385 -9
v 30.5569 5.22263 -9
v 30.7737 3.7392 -9
v 30.9185 2.24703 -9
v 30.9909 0.749593 -9
v 30.9909 -0.749593 -9
v 30.9185 -2.24703 -9
v 30.7737 -3.7392 -9
v 30.5569 -5.22263 -9
v 30.2687 -6.69385 -9
v 29.9096 -8.14941 -9
v 29.4807 -9.58592 -9
v 28.9828 -11 -9
v 132.039 -11 -9
v 132.039 11 -9
v 131.52 10.3582 -9
v 131.033 9.69209 -9
v 130.58 9.00312 -9
v 130.16 8.29294 -9
v 129.775 7.56323 -9
v 129.426 6.81572 -9
v 129.114 6.05215 -9
v 128.839 5.27433 -9
v 128.602 4.48409 -9
v 128.404 3.68329 -9
v 128.245 2.87381 -9
v 128.125 2.05757 -9
v 128.045 1.23648 -9
v 128.005 0.412485 -9
v 128.005 -0.412485 -9
v 128.045 -1.23648 -9
v 128.125 -2.05757 -9
v 128.245 -2.87381 -9
v 128.404 -3.68329 -9
v 128.602 -4.48409 -9
v 128.839 -5.27433 -9
v 129.114 -6.05215 -9
v 129.426 -6.81572 -9
v 129.775 -7.56323 -9
v 130.16 -8.29294 -9
v 130.58 -9.00312 -9
v 131.033 -9.69209 -9
v 131.52 -10.3582 -9
v 30.8545 3 -5
v 128.267 3 -5
v 30.8545 3 5
v 128.267 3 5
v 28.9828 11 -9
v 132.039 11 -9
v 28.9828 11 -5
v 132.039 11 -5
v 28.9828 11 -5
v 132.039 11 -5
v 30.8545 3 -5
v 30.6914 4.36354 -5
v 30.468 5.71853 -5
v 30.1848 7.06228 -5
v 29.8424 8.39218 -5
v 29.4415 9.70562 -5
v 128.267 3 -5
v 131.527 10.3675 -5
v 131.047 9.71122 -5
v 130.598 9.03274 -5
v 130.183 8.33358 -5
v 129.801 7.61534 -5
v 129.454 6.87968 -5
v 129.143 6.12826 -5
v 128.868 5.36282 -5
v 128.63 4.58511 -5
v 128.429 3.7969 -5
v 162 -4.1638e-15 -11
v 162 -4.1638e-15 11
v 162 -4.1638e-15 11
v 161.979 0.84738 11
v 161.916 1.69265 11
v 161.81 2.53372 11
v 161.663 3.36848 11
v 161.474 4.19488 11
v 161.245 5.01084 11
v 160.975 5.81434 11
v 160.665 6.60339 11
v 160.316 7.37602 11
v 159.93 8.13032 11
v 159.506 8.8644 11
v 159.046 9.57644 11
v 158.551 10.2647 11
v 158.023 10.9274 11
v 157.462 11.5629 11
v 156.87 12.1697 11
v 156.249 12.7463 11
v 155.599 13.2911 11
v 154.924 13.8029 11
v 154.223 14.2804 11
v 153.5 14.7224 11
v 152.756 15.1278 11
v 151.992 15.4956 11
v 151.211 15.8249 11
v 150.414 16.1148 11
v 149.604 16.3646 11
v 148.783 16.5738 11
v 147.952 16.7417 11
v 147.114 16.8681 11
v 146.27 16.9525 11
v 145.424 16.9947 11
v 144.576 16.9947 11
v 143.73 16.9525 11
v 142.886 16.8681 11
v 142.048 16.7417 11
v 141.217 16.5738 11
v 140.396 16.3646 11
v 139.586 16.1148 11
v 138.789 15.8249 11
v 138.008 15.4956 11
v 137.244 15.1278 11
v 136.5 14.7224 11
v 135.777 14.2804 11
v 135.076 13.8029 11
v 134.401 13.2911 11
v 133.751 12.7463 11
v 133.13 12.1697 11
v 132.538 11.5629 11
v 131.977 10.9274 11
v 131.449 10.2647 11
v 130.954 9.57644 11
v 130.494 8.8644 11
v 130.07 8.13032 11
v 129.684 7.37602 11
v 129.335 6.60339 11
v 129.025 5.81434 11
v 128.755 5.01084 11
v 128.526 4.19488 11
v 128.337 3.36848 11
v 128.19 2.53372 11
v 128.084 1.69265 11
v 128.021 0.84738 11
v 128 -5.83142e-14 11
v 128.021 -0.84738 11
v 128.084 -1.69265 11
v 128.19 -2.53372 11
v 128.337 -3.36848 11
v 128.526 -4.19488 11
v 128.755 -5.01084 11
v 129.025 -5.81434 11
v 129.335 -6.60339 11
v 129.684 -7.37602 11
v 130.07 -8.13032 11
v 130.494 -8.8644 11
v 130.954 -9.57644 11
v 131.449 -10.2647 11
v 131.977 -10.9274 11
v 132.538 -11.5629 11
v 133.13 -12.1697 11
v 133.751 -12.7463 11
v 134.401 -13.2911 11
v 135.076 -13.8029 11
v 135.777 -14.2804 11
v 136.5 -14.7224 11
v 137.244 -15.1278 11
v 138.008 -15.4956 11
v 138.789 -15.8249 11
v 139.586 -16.1148 11
v 140.396 -16.3646 11
v 141.217 -16.5738 11
v 142.048 -16.7417 11
v 142.886 -16.8681 11
v 143.73 -16.9525 11
v 144.576 -16.9947 11
v 145.424 -16.9947 11
v 146.27 -16.9525 11
v 147.114 -16.8681 11
v 147.952 -16.7417 11
v 148.783 -16.5738 11
v 149.604 -16.3646 11
v 150.414 -16.1148 11
v 151.211 -15.8249 11
v 151.992 -15.4956 11
v 152.756 -15.1278 11
v 153.5 -14.7224 11
v 154.223 -14.2804 11
v 154.924 -13.8029 11
v 155.599 -13.2911 11
v 156.249 -12.7463 11
v 156.87 -12.1697 11
v 157.462 -11.5629 11
v 158.023 -10.9274 11
v 158.551 -10.2647 11
v 159.046 -9.57644 11
v 159.506 -8.8644 11
v 159.93 -8.13032 11
v 160.316 -7.37602 11
v 160.665 -6.60339 11
v 160.975 -5.81434 11
v 161.245 -5.01084 11
v 161.474 -4.19488 11
v 161.663 -3.36848 11
v 161.81 -2.53372 11
v 161.916 -1.69265 11
v 161.979 -0.84738 11
v 162 -4.1638e-15 -11
v 161.979 0.84738 -11
v 161.916 1.69265 -11
v 161.81 2.53372 -11
v 161.663 3.36848 -11
v 161.474 4.19488 -11
v 161.245 5.01084 -11
v 160.975 5.81434 -11
v 160.665 6.60339 -11
v 160.316 7.37602 -11
v 159.93 8.13032 -11
v 159.506 8.8644 -11
v 159.046 9.57644 -11
v 158.551 10.2647 -11
v 158.023 10.9274 -11
v 157.462 11.5629 -11
v 156.87 12.1697 -11
v 156.249 12.7463 -11
v 155.599 13.2911 -11
v 154.924 13.8029 -11
v 154.223 14.2804 -11
v 153.5 14.7224 -11
v 152.756 15.1278 -11
v 151.992 15.4956 -11
v 151.211 15.8249 -11
v 150.414 16.1148 -11
v 149.604 16.3646 -11
v 148.783 16.5738 -11
v 147.952 16.7417 -11
v 147.114 16.8681 -11
v 146.27 16.9525 -11
v 145.424 16.9947 -11
v 144.576 16.9947 -11
v 143.73 16.9525 -11
v 142.886 16.8681 -11
v 142.048 16.7417 -11
v 141.217 16.5738 -11
v 140.396 16.3646 -11
v 139.586 16.1148 -11
v 138.789 15.8249 -11
v 138.008 15.4956 -11
v 137.244 15.1278 -11
v 136.5 14.7224 -11
v 135.777 14.2804 -11
v 135.076 13.8029 -11
v 134.401 13.2911 -11
v 133.751 12.7463 -11
v 133.13 12.1697 -11
v 132.538 11.5629 -11
v 131.977 10.9274 -11
v 131.449 10.2647 -11
v 130.954 9.57644 -11
v 130.494 8.8644 -11
v 130.07 8.13032 -11
v 129.684 7.37602 -11
v 129.335 6.60339 -11
v 129.025 5.81434 -11
v 128.755 5.01084 -11
v 128.526 4.19488 -11
v 128.337 3.36848 -11
v 128.19 2.53372 -11
v 128.084 1.69265 -11
v 128.021 0.84738 -11
v 128 -5.83142e-14 -11
v 128.021 -0.84738 -11
v 128.084 -1.69265 -11
v 128.19 -2.53372 -11
v 128.337 -3.36848 -11
v 128.526 -4.19488 -11
v 128.755 -5.01084 -11
v 129.025 -5.81434 -11
v 129.335 -6.60339 -11
v 129.684 -7.37602 -11
v 130.07 -8.13032 -11
v 130.494 -8.8644 -11
v 130.954 -9.57644 -11
v 131.449 -10.2647 -11
v 131.977 -10.9274 -11
v 132.538 -11.5629 -11
v 133.13 -12.1697 -11
v 133.751 -12.7463 -11
v 134.401 -13.2911 -11
v 135.076 -13.8029 -11
v 135.777 -14.2804 -11
v 136.5 -14.7224 -11
v 137.244 -15.1278 -11
v 138.008 -15.4956 -11
v 138.789 -15.8249 -11
v 139.586 -16.1148 -11
v 140.396 -16.3646 -11
v 141.217 -16.5738 -11
v 142.048 -16.7417 -11
v 142.886 -16.8681 -11
v 143.73 -16.9525 -11
v 144.576 -16.9947 -11
v 145.424 -16.9947 -11
v 146.27 -16.9525 -11
v 147.114 -16.8681 -11
v 147.952 -16.7417 -11
v 148.783 -16.5738 -11
v 149.604 -16.3646 -11
v 150.414 -16.1148 -11
v 151.211 -15.8249 -11
v 151.992 -15.4956 -11
v 152.756 -15.1278 -11
v 153.5 -14.7224 -11
v 154.223 -14.2804 -11
v 154.924 -13.8029 -11
v 155.599 -13.2911 -11
v 156.249 -12.7463 -11
v 156.87 -12.1697 -11
v 157.462 -11.5629 -11
v 158.023 -10.9274 -11
v 158.551 -10.2647 -11
v 159.046 -9.57644 -11
v 159.506 -8.8644 -11
v 159.93 -8.13032 -11
v 160.316 -7.37602 -11
v 160.665 -6.60339 -11
v 160.975 -5.81434 -11
v 161.245 -5.01084 -11
v 161.474 -4.19488 -11
v 161.663 -3.36848 -11
v 161.81 -2.53372 -11
v 161.916 -1.69265 -11
v 161.979 -0.84738 -11
v 128.267 -3 5
v 128.429 -3.7969 5
v 128.63 -4.58511 5
v 128.868 -5.36282 5
v 129.143 -6.12826 5
v 129.454 -6.87968 5
v 129.801 -7.61534 5
v 130.183 -8.33358 5
v 130.598 -9.03274 5
v 131.047 -9.71122 5
v 131.527 -10.3675 5
v 132.039 -11 5
v 128.267 -3 -5
v 128.429 -3.7969 -5
v 128.63 -4.58511 -5
v 128.868 -5.36282 -5
v 129.143 -6.12826 -5
v 129.454 -6.87968 -5
v 129.801 -7.61534 -5
v 130.183 -8.33358 -5
v 130.598 -9.03274 -5
v 131.047 -9.71122 -5
v 131.527 -10.3675 -5
v 132.039 -11 -5
v 132.039 -11 -9
v 132.039 11 -9
v 131.52 10.3582 -9
v 131.033 9.69209 -9
v 130.58 9.00312 -9
v 130.16 8.29294 -9
v 129.775 7.56323 -9
v 129.426 6.81572 -9
v 129.114 6.05215 -9
v 128.839 5.27433 -9
v 128.602 4.48409 -9
v 128.404 3.68329 -9
v 128.245 2.87381 -9
v 128.125 2.05757 -9
v 128.045 1.23648 -9
v 128.005 0.412485 -9
v 128.005 -0.412485 -9
v 128.045 -1.23648 -9
v 128.125 -2.05757 -9
v 128.245 -2.87381 -9
v 128.404 -3.68329 -9
v 128.602 -4.48409 -9
v 128.839 -5.27433 -9
v 129.114 -6.05215 -9
v 129.426 -6.81572 -9
v 129.775 -7.56323 -9
v 130.16 -8.29294 -9
v 130.58 -9.00312 -9
v 131.033 -9.69209 -9
v 131.52 -10.3582 -9
v 132.039 11 -5
v 131.527 10.3675 -5
v 131.047 9.71122 -5
v 130.598 9.03274 -5
v 130.183 8.33358 -5
v 129.801 7.61534 -5
v 129.454 6.87968 -5
v 129.143 6.12826 -5
v 128.868 5.36282 -5
v 128.63 4.58511 -5
v 128.429 3.7969 -5
v 128.267 3 -5
v 128.267 3 5
v 132.039 11 5
v 131.527 10.3675 5
v 131.047 9.71122 5
v 130.598 9.03274 5
v 130.183 8.33358 5
v 129.801 7.61534 5
v 129.454 6.87968 5
v 129.143 6.12826 5
v 128.868 5.36282 5
v 128.63 4.58511 5
v 128.429 3.7969 5
v 132.039 11 9
v 131.52 10.3582 9
v 131.033 9.69209 9
v 130.58 9.00312 9
v 130.16 8.29294 9
v 129.775 7.56323 9
v 129.426 6.81572 9
v 129.114 6.05215 9
v 128.839 5.27433 9
v 128.602 4.48409 9
v 128.404 3.68329 9
v 128.245 2.87381 9
v 128.125 2.05757 9
v 128.045 1.23648 9
v 128.005 0.412485 9
v 128.005 -0.412485 9
v 128.045 -1.23648 9
v 128.125 -2.05757 9
v 128.245 -2.87381 9
v 128.404 -3.68329 9
v 128.602 -4.48409 9
v 128.839 -5.27433 9
v 129.114 -6.05215 9
v 129.426 -6.81572 9
v 129.775 -7.56323 9
v 130.16 -8.29294 9
v 130.58 -9.00312 9
v 131.033 -9.69209 9
v 131.52 -10.3582 9
v 132.039 -11 9
v 162 -4.1638e-15 -11
v 161.979 0.84738 -11
v 161.916 1.69265 -11
v 161.81 2.53372 -11
v 161.663 3.36848 -11
v 161.474 4.19488 -11
v 161.245 5.01084 -11
v 160.975 5.81434 -11
v 160.665 6.60339 -11
v 160.316 7.37602 -11
v 159.93 8.13032 -11
v 159.506 8.8644 -11
v 159.046 9.57644 -11
v 158.551 10.2647 -11
v 158.023 10.9274 -11
v 157.462 11.5629 -11
v 156.87 12.1697 -11
v 156.249 12.7463 -11
v 155.599 13.2911 -11
v 154.924 13.8029 -11
v 154.223 14.2804 -11
v 153.5 14.7224 -11
v 152.756 15.1278 -11
v 151.992 15.4956 -11
v 151.211 15.8249 -11
v 150.414 16.1148 -11
v 149.604 16.3646 -11
v 148.783 16.5738 -11
v 147.952 16.7417 -11
v 147.114 16.8681 -11
v 146.27 16.9525 -11
v 145.424 16.9947 -11
v 144.576 16.9947 -11
v 143.73 16.9525 -11
v 142.886 16.8681 -11
v 142.048 16.7417 -11
v 141.217 16.5738 -11
v 140.396 16.3646 -11
v 139.586 16.1148 -11
v 138.789 15.8249 -11
v 138.008 15.4956 -11
v 137.244 15.1278 -11
v 136.5 14.7224 -11
v 135.777 14.2804 -11
v 135.076 13.8029 -11
v 134.401 13.2911 -11
v 133.751 12.7463 -11
v 133.13 12.1697 -11
v 132.538 11.5629 -11
v 131.977 10.9274 -11
v 131.449 10.2647 -11
v 130.954 9.57644 -11
v 130.494 8.8644 -11
v 130.07 8.13032 -11
v 129.684 7.37602 -11
v 129.335 6.60339 -11
v 129.025 5.81434 -11
v 128.755 5.01084 -11
v 128.526 4.19488 -11
v 128.337 3.36848 -11
v 128.19 2.53372 -11
v 128.084 1.69265 -11
v 128.021 0.84738 -11
v 128 -5.83142e-14 -11
v 128.021 -0.84738 -11
v 128.084 -1.69265 -11
v 128.19 -2.53372 -11
v 128.337 -3.36848 -11
v 128.526 -4.19488 -11
v 128.755 -5.01084 -11
v 129.025 -5.81434 -11
v 129.335 -6.60339 -11
v 129.684 -7.37602 -11
v 130.07 -8.13032 -11
v 130.494 -8.8644 -11
v 130.954 -9.57644 -11
v 131.449 -10.2647 -11
v 131.977 -10.9274 -11
v 132.538 -11.5629 -11
v 133.13 -12.1697 -11
v 133.751 -12.7463 -11
v 134.401 -13.2911 -11
v 135.076 -13.8029 -11
v 135.777 -14.2804 -11
v 136.5 -14.7224 -11
v 137.244 -15.1278 -11
v 138.008 -15.4956 -11
v 138.789 -15.8249 -11
v 139.586 -16.1148 -11
v 140.396 -16.3646 -11
v 141.217 -16.5738 -11
v 142.048 -16.7417 -11
v 142.886 -16.8681 -11
v 143.73 -16.9525 -11
v 144.576 -16.9947 -11
v 145.424 -16.9947 -11
v 146.27 -16.9525 -11
v 147.114 -16.8681 -11
v 147.952 -16.7417 -11
v 148.783 -16.5738 -11
v 149.604 -16.3646 -11
v 150.414 -16.1148 -11
v 151.211 -15.8249 -11
v 151.992 -15.4956 -11
v 152.756 -15.1278 -11
v 153.5 -14.7224 -11
v 154.223 -14.2804 -11
v 154.924 -13.8029 -11
v 155.599 -13.2911 -11
v 156.249 -12.7463 -11
v 156.87 -12.1697 -11
v 157.462 -11.5629 -11
v 158.023 -10.9274 -11
v 158.551 -10.2647 -11
v 159.046 -9.57644 -11
v 159.506 -8.8644 -11
v 159.93 -8.13032 -11
v 160.316 -7.37602 -11
v 160.665 -6.60339 -11
v 160.975 -5.81434 -11
v 161.245 -5.01084 -11
v 161.474 -4.19488 -11
v 161.663 -3.36848 -11
v 161.81 -2.53372 -11
v 161.916 -1.69265 -11
v 161.979 -0.84738 -11
v 162 -4.1638e-15 11
v 161.979 0.84738 11
v 161.916 1.69265 11
v 161.81 2.53372 11
v 161.663 3.36848 11
v 161.474 4.19488 11
v 161.245 5.01084 11
v 160.975 5.81434 11
v 160.665 6.60339 11
v 160.316 7.37602 11
v 159.93 8.13032 11
v 159.506 8.8644 11
v 159.046 9.57644 11
v 158.551 10.2647 11
v 158.023 10.9274 11
v 157.462 11.5629 11
v 156.87 12.1697 11
v 156.249 12.7463 11
v 155.599 13.2911 11
v 154.924 13.8029 11
v 154.223 14.2804 11
v 153.5 14.7224 11
v 152.756 15.1278 11
v 151.992 15.4956 11
v 151.211 15.8249 11
v 150.414 16.1148 11
v 149.604 16.3646 11
v 148.783 16.5738 11
v 147.952 16.7417 11
v 147.114 16.8681 11
v 146.27 16.9525 11
v 145.424 16.9947 11
v 144.576 16.9947 11
v 143.73 16.9525 11
v 142.886 16.8681 11
v 142.048 16.7417 11
v 141.217 16.5738 11
v 140.396 16.3646 11
v 139.586 16.1148 11
v 138.789 15.8249 11
v 138.008 15.4956 11
v 137.244 15.1278 11
v 136.5 14.7224 11
v 135.777 14.2804 11
v 135.076 13.8029 11
v 134.401 13.2911 11
v 133.751 12.7463 11
v 133.13 12.1697 11
v 132.538 11.5629 11
v 131.977 10.9274 11
v 131.449 10.2647 11
v 130.954 9.57644 11
v 130.494 8.8644 11
v 130.07 8.13032 11
v 129.684 7.37602 11
v 129.335 6.60339 11
v 129.025 5.81434 11
v 128.755 5.01084 11
v 128.526 4.19488 11
v 128.337 3.36848 11
v 128.19 2.53372 11
v 128.084 1.69265 11
v 128.021 0.84738 11
v 128 -5.83142e-14 11
v 128.021 -0.84738 11
v 128.084 -1.69265 11
v 128.19 -2.53372 11
v 128.337 -3.36848 11
v 128.526 -4.19488 11
v 128.755 -5.01084 11
v 129.025 -5.81434 11
v 129.335 -6.60339 11
v 129.684 -7.37602 11
v 130.07 -8.13032 11
v 130.494 -8.8644 11
v 130.954 -9.57644 11
v 131.449 -10.2647 11
v 131.977 -10.9274 11
v 132.538 -11.5629 11
v 133.13 -12.1697 11
v 133.751 -12.7463 11
v 134.401 -13.2911 11
v 135.076 -13.8029 11
v 135.777 -14.2804 11
v 136.5 -14.7224 11
v 137.244 -15.1278 11
v 138.008 -15.4956 11
v 138.789 -15.8249 11
v 139.586 -16.1148 11
v 140.396 -16.3646 11
v 141.217 -16.5738 11
v 142.048 -16.7417 11
v 142.886 -16.8681 11
v 143.73 -16.9525 11
v 144.576 -16.9947 11
v 145.424 -16.9947 11
v 146.27 -16.9525 11
v 147.114 -16.8681 11
v 147.952 -16.7417 11
v 148.783 -16.5738 11
v 149.604 -16.3646 11
v 150.414 -16.1148 11
v 151.211 -15.8249 11
v 151.992 -15.4956 11
v 152.756 -15.1278 11
v 153.5 -14.7224 11
v 154.223 -14.2804 11
v 154.924 -13.8029 11
v 155.599 -13.2911 11
v 156.249 -12.7463 11
v 156.87 -12.1697 11
v 157.462 -11.5629 11
v 158.023 -10.9274 11
v 158.551 -10.2647 11
v 159.046 -9.57644 11
v 159.506 -8.8644 11
v 159.93 -8.13032 11
v 160.316 -7.37602 11
v 160.665 -6.60339 11
v 160.975 -5.81434 11
v 161.245 -5.01084 11
v 161.474 -4.19488 11
v 161.663 -3.36848 11
v 161.81 -2.53372 11
v 161.916 -1.69265 11
v 161.979 -0.84738 11
f 2 1 3
f 94 3 4
f 94 2 3
f 93 4 5
f 93 94 4
f 92 93 5
f 92 5 6
f 91 6 7
f 91 92 6
f 90 7 8
f 90 91 7
f 89 8 9
f 89 90 8
f 88 9 10
f 88 89 9
f 87 10 11
f 87 88 10
f 86 11 12
f 86 87 11
f 85 12 13
f 85 86 12
f 84 13 14
f 84 85 13
f 83 14 15
f 83 84 14
f 82 15 16
f 82 83 15
f 81 16 17
f 81 82 16
f 80 17 18
f 80 81 17
f 79 18 19
f 79 80 18
f 78 19 20
f 78 79 19
f 77 20 21
f 77 78 20
f 76 21 22
f 76 77 21
f 75 22 23
f 75 76 22
f 74 23 24
f 74 75 23
f 73 24 25
f 73 74 24
f 72 25 26
f 72 73 25
f 71 26 27
f 71 72 26
f 70 27 28
f 70 71 27
f 69 70 28
f 69 28 29
f 68 69 29
f 68 29 30
f 67 68 30
f 67 30 31
f 66 67 31
f 66 31 32
f 65 66 32
f 65 32 33
f 64 65 33
f 64 33 34
f 63 64 34
f 63 34 35
f 62 63 35
f 62 35 36
f 61 36 37
f 61 62 36
f 60 61 37
f 60 37 38
f 59 38 39
f 59 60 38
f 58 39 40
f 58 59 39
f 57 40 41
f 57 58 40
f 56 41 42
f 56 57 41
f 55 42 43
f 55 56 42
f 54 43 44
f 54 55 43
f 53 44 45
f 53 54 44
f 52 45 46
f 52 53 45
f 51 46 47
f 51 52 46
f 50 47 48
f 50 51 47
f 49 50 48
f 95 98 97
f 95 96 98
f 149 151 150
f 149 152 151
f 149 153 152
f 149 154 153
f 149 155 154
f 149 156 155
f 149 157 156
f 149 158 157
f 149 159 158
f 149 160 159
f 149 161 160
f 149 162 161
f 149 163 162
f 164 163 149
f 166 164 149
f 166 165 164
f 167 166 149
f 169 167 149
f 169 168 167
f 170 169 149
f 172 170 149
f 172 171 170
f 174 172 149
f 174 173 172
f 176 174 149
f 176 175 174
f 177 176 149
f 179 178 177
f 180 177 149
f 180 179 177
f 145 149 195
f 145 195 196
f 143 145 144
f 183 182 181
f 141 143 142
f 141 145 143
f 185 183 181
f 185 181 180
f 185 184 183
f 140 145 141
f 186 180 149
f 186 185 180
f 139 145 140
f 187 186 149
f 137 139 138
f 137 145 139
f 136 145 137
f 190 188 187
f 190 189 188
f 190 187 149
f 135 145 136
f 192 191 190
f 133 145 135
f 133 135 134
f 194 190 149
f 194 192 190
f 194 193 192
f 131 133 132
f 148 194 149
f 148 149 145
f 129 131 130
f 127 145 133
f 127 133 131
f 127 129 128
f 127 131 129
f 126 145 127
f 124 126 125
f 124 145 126
f 121 123 122
f 121 124 123
f 121 145 124
f 119 121 120
f 117 119 118
f 117 121 119
f 115 117 116
f 115 145 121
f 115 121 117
f 114 145 115
f 99 147 148
f 100 99 148
f 101 148 145
f 101 100 148
f 108 110 109
f 108 111 110
f 108 112 111
f 108 113 112
f 108 114 113
f 108 145 114
f 105 104 103
f 106 102 101
f 106 103 102
f 106 108 107
f 106 105 103
f 106 101 145
f 106 145 108
f 146 147 99
f 197 200 199
f 197 198 200
f 248 235 234
f 248 236 235
f 248 237 236
f 248 238 237
f 248 239 238
f 248 240 239
f 248 241 240
f 248 242 241
f 248 243 242
f 248 244 243
f 248 245 244
f 248 246 245
f 248 247 246
f 232 248 234
f 232 234 233
f 230 232 231
f 230 248 232
f 229 248 230
f 227 229 228
f 226 248 229
f 226 229 227
f 224 226 225
f 223 226 224
f 250 249 248
f 222 248 226
f 222 226 223
f 221 248 222
f 219 221 220
f 219 248 221
f 217 219 218
f 217 248 219
f 251 250 248
f 253 252 251
f 253 251 248
f 214 216 215
f 213 217 216
f 213 216 214
f 255 254 253
f 255 253 248
f 212 248 217
f 212 217 213
f 256 255 248
f 210 212 211
f 258 257 256
f 258 256 248
f 209 248 212
f 209 212 210
f 260 259 258
f 260 258 248
f 206 208 207
f 206 209 208
f 262 260 248
f 262 261 260
f 263 262 248
f 204 206 205
f 203 209 206
f 203 206 204
f 203 248 209
f 201 248 203
f 266 264 263
f 266 265 264
f 268 267 266
f 269 263 248
f 269 266 263
f 269 268 266
f 271 270 269
f 272 271 269
f 273 272 269
f 275 269 248
f 275 273 269
f 275 274 273
f 278 277 276
f 279 275 248
f 279 278 276
f 279 276 275
f 282 281 280
f 297 201 202
f 283 282 280
f 296 248 201
f 296 201 297
f 286 284 283
f 286 285 284
f 293 248 296
f 293 295 294
f 293 296 295
f 292 248 293
f 288 279 248
f 288 283 280
f 288 286 283
f 288 280 279
f 288 287 286
f 290 248 292
f 290 288 248
f 290 289 288
f 290 292 291
f 298 297 202
f 300 299 301
f 302 300 301
f 304 303 305
f 396 305 306
f 396 304 305
f 395 306 307
f 395 396 306
f 394 307 308
f 394 395 307
f 393 308 309
f 393 394 308
f 392 309 310
f 392 393 309
f 391 310 311
f 391 392 310
f 390 311 312
f 390 391 311
f 389 312 313
f 389 390 312
f 388 313 314
f 388 389 313
f 387 314 315
f 387 388 314
f 386 387 315
f 386 315 316
f 385 386 316
f 385 316 317
f 384 385 317
f 384 317 318
f 320 449 319
f 383 318 319
f 383 384 318
f 450 319 449
f 321 448 320
f 382 383 319
f 397 319 450
f 397 382 319
f 404 382 397
f 322 447 321
f 381 382 404
f 398 397 450
f 398 450 451
f 398 451 452
f 399 398 452
f 323 446 322
f 380 381 405
f 400 452 453
f 400 399 452
f 324 445 323
f 379 380 406
f 401 453 454
f 401 454 455
f 401 400 453
f 325 444 324
f 378 379 407
f 402 455 456
f 402 401 455
f 326 443 325
f 377 378 408
f 403 402 456
f 442 443 326
f 327 442 326
f 376 377 409
f 441 442 327
f 328 441 327
f 375 376 410
f 411 375 410
f 440 441 328
f 329 440 328
f 374 375 411
f 412 374 411
f 330 439 329
f 373 374 412
f 413 373 412
f 331 438 330
f 372 373 413
f 422 421 427
f 422 427 428
f 332 437 331
f 371 372 414
f 423 428 429
f 423 422 428
f 333 436 332
f 370 371 415
f 424 429 430
f 424 423 429
f 334 435 333
f 425 430 431
f 425 424 430
f 369 370 416
f 426 431 432
f 426 425 431
f 335 434 334
f 335 433 434
f 368 369 417
f 420 426 432
f 420 432 433
f 367 368 418
f 366 420 433
f 366 433 335
f 366 419 420
f 366 367 419
f 365 366 335
f 365 335 336
f 365 336 337
f 364 365 337
f 364 337 338
f 363 364 338
f 363 338 339
f 362 339 340
f 362 363 339
f 361 340 341
f 361 362 340
f 360 341 342
f 360 361 341
f 359 342 343
f 359 360 342
f 358 343 344
f 358 359 343
f 357 344 345
f 357 358 344
f 356 345 346
f 356 357 345
f 355 346 347
f 355 356 346
f 354 347 348
f 354 355 347
f 353 348 349
f 353 354 348
f 352 349 350
f 352 353 349
f 351 352 350
f 404 405 381
f 405 406 380
f 406 407 379
f 407 408 378
f 408 409 377
f 409 410 376
f 413 414 372
f 414 415 371
f 415 416 370
f 416 417 369
f 417 418 368
f 418 419 367
f 434 435 334
f 435 436 333
f 436 437 332
f 437 438 331
f 438 439 330
f 439 440 329
f 443 444 325
f 444 445 324
f 445 446 323
f 446 447 322
f 447 448 321
f 448 449 320
f 458 459 460
f 457 459 458
f 462 463 461
f 464 463 462
f 465 467 468
f 465 468 466
f 487 476 469
f 486 487 469
f 485 486 469
f 484 485 469
f 483 484 469
f 482 469 470
f 482 483 469
f 481 470 471
f 481 482 470
f 480 471 472
f 480 481 471
f 479 472 473
f 479 480 472
f 478 479 473
f 477 473 474
f 477 474 475
f 477 478 473
f 491 488 489
f 491 490 488
f 495 492 493
f 495 494 492
f 541 498 513
f 540 498 541
f 539 498 540
f 538 498 539
f 537 498 538
f 536 499 498
f 536 498 537
f 535 500 499
f 535 499 536
f 534 501 500
f 534 500 535
f 533 501 534
f 532 502 501
f 532 501 533
f 531 503 502
f 531 502 532
f 530 503 531
f 530 504 503
f 529 504 530
f 529 505 504
f 528 505 529
f 528 506 505
f 527 506 528
f 526 507 506
f 526 506 527
f 525 508 507
f 525 507 526
f 524 509 508
f 524 508 525
f 523 509 524
f 523 510 509
f 522 510 523
f 521 511 510
f 521 510 522
f 520 512 511
f 520 511 521
f 519 496 512
f 519 512 520
f 518 496 519
f 517 496 518
f 516 496 517
f 515 496 516
f 514 496 515
f 497 496 514
f 560 542 549
f 559 542 560
f 558 542 559
f 557 542 558
f 556 542 557
f 555 543 542
f 555 542 556
f 554 544 543
f 554 543 555
f 553 545 544
f 553 544 554
f 552 546 545
f 552 545 553
f 551 546 552
f 550 547 546
f 550 548 547
f 550 546 551
f 564 562 561
f 564 561 563
f 568 565 566
f 568 567 565
f 577 571 572
f 577 572 573
f 587 577 573
f 586 573 574
f 586 587 573
f 585 574 575
f 585 586 574
f 584 575 576
f 584 585 575
f 583 576 569
f 583 584 576
f 582 583 569
f 581 582 569
f 580 581 569
f 579 580 569
f 578 579 569
f 570 578 569
f 633 604 603
f 632 633 603
f 631 632 603
f 630 631 603
f 629 630 603
f 628 603 602
f 628 629 603
f 627 602 601
f 627 628 602
f 626 601 600
f 626 627 601
f 625 626 600
f 624 600 599
f 624 625 600
f 623 599 598
f 623 624 599
f 622 598 597
f 622 623 598
f 621 597 596
f 621 622 597
f 620 621 596
f 619 596 595
f 619 620 596
f 618 619 595
f 618 595 594
f 617 594 593
f 617 618 594
f 616 593 592
f 616 617 593
f 615 592 591
f 615 616 592
f 614 615 591
f 613 591 590
f 613 614 591
f 612 590 589
f 612 613 590
f 611 589 588
f 611 612 589
f 610 611 588
f 609 610 588
f 608 609 588
f 607 608 588
f 606 607 588
f 605 606 588
f 637 635 634
f 637 634 636
f 641 639 638
f 641 638 640
f 650 645 644
f 650 646 645
f 660 646 650
f 659 647 646
f 659 646 660
f 658 648 647
f 658 647 659
f 657 649 648
f 657 648 658
f 656 642 649
f 656 649 657
f 655 642 656
f 654 642 655
f 653 642 654
f 652 642 653
f 651 642 652
f 643 642 651
f 664 663 789
f 664 789 790
f 665 790 791
f 665 664 790
f 666 791 792
f 666 665 791
f 667 792 793
f 667 666 792
f 668 793 794
f 668 667 793
f 669 794 795
f 669 795 796
f 669 668 794
f 670 669 796
f 671 796 797
f 671 670 796
f 672 797 798
f 672 798 799
f 672 671 797
f 673 672 799
f 673 799 800
f 674 673 800
f 674 800 801
f 675 674 801
f 676 675 801
f 676 801 802
f 677 676 802
f 677 802 803
f 678 677 803
f 678 803 804
f 678 804 805
f 679 678 805
f 679 805 806
f 680 679 806
f 680 806 807
f 681 680 807
f 682 681 807
f 682 807 808
f 683 682 808
f 683 808 809
f 684 809 810
f 684 683 809
f 684 810 811
f 685 684 811
f 686 811 812
f 686 685 811
f 687 812 813
f 687 686 812
f 688 813 814
f 688 687 813
f 689 814 815
f 689 688 814
f 690 815 816
f 690 816 817
f 690 689 815
f 691 690 817
f 692 817 818
f 692 691 817
f 693 818 819
f 693 692 818
f 694 819 820
f 694 820 821
f 694 693 819
f 695 821 822
f 695 694 821
f 696 695 822
f 697 822 823
f 697 696 822
f 698 823 824
f 698 697 823
f 699 698 824
f 699 824 825
f 699 825 826
f 700 699 826
f 700 826 827
f 701 700 827
f 702 701 827
f 702 827 828
f 703 702 828
f 703 828 829
f 704 703 829
f 704 829 830
f 704 830 831
f 705 704 831
f 705 831 832
f 706 705 832
f 707 706 832
f 707 832 833
f 707 833 834
f 708 707 834
f 709 708 834
f 709 834 835
f 710 709 835
f 710 835 836
f 940 837 838
f 969 837 940
f 711 710 836
f 711 836 837
f 941 838 839
f 982 837 969
f 982 711 837
f 993 711 982
f 712 711 993
f 942 839 840
f 983 969 970
f 983 982 969
f 841 943 840
f 713 712 994
f 984 970 971
f 984 983 970
f 972 984 971
f 842 944 841
f 714 713 995
f 985 984 972
f 843 945 842
f 715 714 996
f 986 972 973
f 986 985 972
f 974 986 973
f 844 946 843
f 716 715 997
f 987 986 974
f 845 947 844
f 717 716 998
f 988 974 975
f 988 987 974
f 846 948 845
f 718 717 999
f 989 975 976
f 989 988 975
f 847 949 846
f 719 718 1000
f 990 976 977
f 990 989 976
f 991 977 978
f 991 990 977
f 848 950 847
f 720 719 1001
f 992 978 979
f 992 991 978
f 849 951 848
f 721 720 1002
f 981 979 980
f 981 992 979
f 850 952 849
f 722 721 1003
f 953 952 850
f 851 953 850
f 723 722 1004
f 954 953 851
f 852 954 851
f 724 723 1005
f 1006 724 1005
f 955 954 852
f 853 955 852
f 725 724 1006
f 1007 725 1006
f 956 955 853
f 854 956 853
f 726 725 1007
f 1008 726 1007
f 957 956 854
f 855 957 854
f 727 726 1008
f 1009 727 1008
f 856 958 855
f 728 727 1009
f 1010 728 1009
f 857 959 856
f 729 728 1010
f 928 915 927
f 916 915 928
f 858 960 857
f 730 729 1011
f 929 916 928
f 917 916 929
f 859 961 858
f 731 730 1012
f 918 917 929
f 918 929 930
f 860 962 859
f 732 731 1013
f 919 918 930
f 919 930 931
f 861 963 860
f 733 732 1014
f 920 919 931
f 920 931 932
f 862 964 861
f 734 733 1015
f 921 920 932
f 921 932 933
f 863 965 862
f 735 734 1016
f 922 921 933
f 922 933 934
f 864 966 863
f 736 735 1017
f 923 922 934
f 923 934 935
f 865 967 864
f 737 736 1018
f 924 935 936
f 924 923 935
f 866 968 865
f 738 737 1019
f 925 924 936
f 925 936 937
f 867 939 866
f 867 938 939
f 739 738 1020
f 926 925 937
f 926 937 938
f 740 739 1021
f 741 938 867
f 741 926 938
f 741 740 1022
f 741 1022 926
f 742 867 868
f 742 741 867
f 743 868 869
f 743 742 868
f 744 869 870
f 744 870 871
f 744 743 869
f 745 744 871
f 746 871 872
f 746 872 873
f 746 745 871
f 747 746 873
f 748 873 874
f 748 747 873
f 749 874 875
f 749 748 874
f 750 875 876
f 750 876 877
f 750 749 875
f 751 750 877
f 752 877 878
f 752 751 877
f 753 878 879
f 753 752 878
f 754 879 880
f 754 880 881
f 754 753 879
f 755 754 881
f 756 881 882
f 756 882 883
f 756 755 881
f 757 756 883
f 758 757 883
f 758 883 884
f 759 758 884
f 759 884 885
f 760 759 885
f 760 885 886
f 761 760 886
f 761 886 887
f 762 761 887
f 762 887 888
f 763 762 888
f 763 888 889
f 763 889 890
f 764 763 890
f 765 764 890
f 765 890 891
f 766 891 892
f 766 892 893
f 766 765 891
f 767 893 894
f 767 766 893
f 768 894 895
f 768 767 894
f 769 768 895
f 770 895 896
f 770 896 897
f 770 769 895
f 771 770 897
f 772 897 898
f 772 771 897
f 773 898 899
f 773 772 898
f 774 899 900
f 774 773 899
f 775 900 901
f 775 774 900
f 776 901 902
f 776 775 901
f 777 902 903
f 777 776 902
f 778 903 904
f 778 904 905
f 778 777 903
f 779 778 905
f 780 905 906
f 780 779 905
f 781 906 907
f 781 780 906
f 782 907 908
f 782 781 907
f 783 908 909
f 783 782 908
f 784 783 909
f 784 909 910
f 785 784 910
f 785 910 911
f 786 785 911
f 786 911 912
f 787 786 912
f 787 912 913
f 788 787 913
f 788 913 914
f 662 788 914
f 662 914 661
f 941 940 838
f 942 941 839
f 943 942 840
f 944 943 841
f 945 944 842
f 946 945 843
f 947 946 844
f 948 947 845
f 949 948 846
f 950 949 847
f 951 950 848
f 952 951 849
f 958 957 855
f 959 958 856
f 960 959 857
f 961 960 858
f 962 961 859
f 963 962 860
f 964 963 861
f 965 964 862
f 966 965 863
f 967 966 864
f 968 967 865
f 939 968 866
f 993 994 712
f 994 995 713
f 995 996 714
f 996 997 715
f 997 998 716
f 998 999 717
f 999 1000 718
f 1000 1001 719
f 1001 1002 720
f 1002 1003 721
f 1003 1004 722
f 1004 1005 723
f 1010 1011 729
f 1011 1012 730
f 1012 1013 731
f 1013 1014 732
f 1014 1015 733
f 1015 1016 734
f 1016 1017 735
f 1017 1018 736
f 1018 1019 737
f 1019 1020 738
f 1020 1021 739
f 1021 1022 740
f 1100 1102 1101
f 1104 1103 1102
f 1107 1104 1102
f 1107 1105 1104
f 1107 1106 1105
f 1096 1102 1100
f 1096 1107 1102
f 1096 1098 1097
f 1096 1099 1098
f 1096 1100 1099
f 1095 1107 1096
f 1110 1108 1107
f 1110 1109 1108
f 1092 1094 1093
f 1092 1095 1094
f 1113 1111 1110
f 1113 1112 1111
f 1089 1091 1090
f 1115 1114 1113
f 1088 1091 1089
f 1116 1110 1107
f 1116 1113 1110
f 1116 1115 1113
f 1118 1107 1095
f 1118 1095 1092
f 1118 1116 1107
f 1118 1117 1116
f 1085 1087 1086
f 1085 1088 1087
f 1085 1091 1088
f 1120 1119 1118
f 1083 1091 1085
f 1083 1085 1084
f 1083 1092 1091
f 1121 1120 1118
f 1122 1121 1118
f 1081 1083 1082
f 1123 1122 1118
f 1078 1080 1079
f 1078 1081 1080
f 1077 1083 1081
f 1077 1081 1078
f 1127 1124 1123
f 1127 1125 1124
f 1127 1126 1125
f 1127 1123 1118
f 1127 1118 1092
f 1076 1083 1077
f 1074 1076 1075
f 1130 1128 1127
f 1130 1129 1128
f 1073 1076 1074
f 1070 1072 1071
f 1070 1073 1072
f 1134 1131 1130
f 1134 1132 1131
f 1134 1133 1132
f 1134 1127 1092
f 1134 1130 1127
f 1135 1134 1092
f 1067 1076 1073
f 1067 1069 1068
f 1067 1070 1069
f 1067 1073 1070
f 1065 1067 1066
f 1139 1136 1135
f 1139 1137 1136
f 1139 1138 1137
f 1064 1067 1065
f 1140 1139 1135
f 1063 1067 1064
f 1062 1083 1076
f 1062 1076 1067
f 1062 1067 1063
f 1143 1141 1140
f 1143 1142 1141
f 1143 1135 1092
f 1143 1140 1135
f 1058 1060 1059
f 1058 1061 1060
f 1146 1144 1143
f 1146 1145 1144
f 1056 1058 1057
f 1148 1146 1143
f 1148 1147 1146
f 1055 1058 1056
f 1055 1062 1061
f 1055 1061 1058
f 1024 1148 1143
f 1024 1023 1148
f 1053 1055 1054
f 1026 1025 1024
f 1026 1092 1083
f 1026 1024 1143
f 1026 1143 1092
f 1051 1053 1052
f 1049 1055 1053
f 1049 1062 1055
f 1049 1051 1050
f 1049 1053 1051
f 1049 1083 1062
f 1029 1027 1026
f 1029 1028 1027
f 1046 1048 1047
f 1046 1049 1048
f 1032 1031 1030
f 1033 1030 1029
f 1033 1032 1030
f 1044 1046 1045
f 1034 1029 1026
f 1034 1033 1029
f 1043 1049 1046
f 1043 1046 1044
f 1036 1035 1034
f 1036 1034 1026
f 1037 1036 1026
f 1040 1042 1041
f 1039 1038 1037
f 1039 1043 1042
f 1039 1026 1083
f 1039 1083 1049
f 1039 1049 1043
f 1039 1037 1026
f 1039 1042 1040
f 1226 1227 1228
f 1230 1228 1229
f 1233 1228 1230
f 1233 1230 1231
f 1233 1231 1232
f 1222 1226 1228
f 1222 1228 1233
f 1222 1223 1224
f 1222 1224 1225
f 1222 1225 1226
f 1221 1222 1233
f 1236 1233 1234
f 1236 1234 1235
f 1218 1219 1220
f 1218 1220 1221
f 1239 1236 1237
f 1239 1237 1238
f 1215 1216 1217
f 1241 1239 1240
f 1214 1215 1217
f 1242 1233 1236
f 1242 1236 1239
f 1242 1239 1241
f 1244 1221 1233
f 1244 1218 1221
f 1244 1233 1242
f 1244 1242 1243
f 1211 1212 1213
f 1211 1213 1214
f 1211 1214 1217
f 1246 1244 1245
f 1209 1211 1217
f 1209 1210 1211
f 1209 1217 1218
f 1247 1244 1246
f 1248 1244 1247
f 1207 1208 1209
f 1249 1244 1248
f 1204 1205 1206
f 1204 1206 1207
f 1203 1207 1209
f 1203 1204 1207
f 1253 1249 1250
f 1253 1250 1251
f 1253 1251 1252
f 1253 1244 1249
f 1253 1218 1244
f 1202 1203 1209
f 1200 1201 1202
f 1256 1253 1254
f 1256 1254 1255
f 1199 1200 1202
f 1196 1197 1198
f 1196 1198 1199
f 1260 1256 1257
f 1260 1257 1258
f 1260 1258 1259
f 1260 1218 1253
f 1260 1253 1256
f 1261 1218 1260
f 1193 1199 1202
f 1193 1194 1195
f 1193 1195 1196
f 1193 1196 1199
f 1191 1192 1193
f 1265 1261 1262
f 1265 1262 1263
f 1265 1263 1264
f 1190 1191 1193
f 1266 1261 1265
f 1189 1190 1193
f 1188 1202 1209
f 1188 1193 1202
f 1188 1189 1193
f 1269 1266 1267
f 1269 1267 1268
f 1269 1218 1261
f 1269 1261 1266
f 1184 1185 1186
f 1184 1186 1187
f 1272 1269 1270
f 1272 1270 1271
f 1182 1183 1184
f 1274 1269 1272
f 1274 1272 1273
f 1181 1182 1184
f 1181 1187 1188
f 1181 1184 1187
f 1150 1269 1274
f 1150 1274 1149
f 1179 1180 1181
f 1152 1150 1151
f 1152 1209 1218
f 1152 1269 1150
f 1152 1218 1269
f 1177 1178 1179
f 1175 1179 1181
f 1175 1181 1188
f 1175 1176 1177
f 1175 1177 1179
f 1175 1188 1209
f 1155 1152 1153
f 1155 1153 1154
f 1172 1173 1174
f 1172 1174 1175
f 1158 1156 1157
f 1159 1155 1156
f 1159 1156 1158
f 1170 1171 1172
f 1160 1152 1155
f 1160 1155 1159
f 1169 1172 1175
f 1169 1170 1172
f 1162 1160 1161
f 1162 1152 1160
f 1163 1152 1162
f 1166 1167 1168
f 1165 1163 1164
f 1165 1168 1169
f 1165 1209 1152
f 1165 1175 1209
f 1165 1169 1175
f 1165 1152 1163
f 1165 1166 1168
