# Cadless export: model
v -30 -25 0
v -30 -25 8
v -30 25 0
v -30 25 8
v -30 -25 0
v -30 25 0
v -15.7 -25 0
v -15.7 25 0
v -15.7 -25 0
v -15.7 -25 1.5
v -15.7 25 0
v -15.7 25 1.5
v -17.7 -25 1.5
v -17.7 25 1.5
v -15.7 -25 1.5
v -15.7 25 1.5
v -17.7 -25 4
v -17.7 25 4
v -17.7 -25 1.5
v -17.7 25 1.5
v -17.7 -25 4
v -17.7 25 4
v 17.7 -25 4
v 17.7 25 4
v 17.7 -25 4
v 17.7 25 4
v 17.7 -25 1.5
v 17.7 25 1.5
v 15.7 -25 1.5
v 15.7 25 1.5
v 17.7 -25 1.5
v 17.7 25 1.5
v 15.7 -25 0
v 15.7 -25 1.5
v 15.7 25 0
v 15.7 25 1.5
v 30 25 0
v 15.7 25 0
v 15.7 -25 0
v 30 -25 0
v 30 -25 0
v 30 -25 8
v 30 25 0
v 30 25 8
v -30 25 0
v -30 25 8
v 30 25 8
v 30 25 0
v 15.7 25 0
v 15.7 25 1.5
v 17.7 25 1.5
v 17.7 25 4
v -17.7 25 4
v -17.7 25 1.5
v -15.7 25 1.5
v -15.7 25 0
v -30 -25 8
v -30 25 8
v 30 -25 8
v 30 25 8
v -30 -25 0
v -15.7 -25 0
v -30 -25 8
v 30 -25 8
v 30 -25 0
v 15.7 -25 0
v 15.7 -25 1.5
v 17.7 -25 1.5
v 17.7 -25 4
v -17.7 -25 4
v -17.7 -25 1.5
v -15.7 -25 1.5
f 2 3 1
f 2 4 3
f 8 5 6
f 8 7 5
f 9 11 12
f 10 9 12
f 16 14 13
f 16 13 15
f 19 20 18
f 17 19 18
f 24 21 22
f 24 23 21
f 27 26 28
f 25 26 27
f 32 30 29
f 32 29 31
f 33 36 35
f 34 36 33
f 37 39 38
f 37 40 39
f 42 41 43
f 42 43 44
f 56 45 54
f 55 56 54
f 53 45 46
f 53 54 45
f 51 49 50
f 48 51 52
f 48 49 51
f 47 48 52
f 46 47 52
f 46 52 53
f 59 58 57
f 60 58 59
f 62 71 61
f 72 71 62
f 70 63 61
f 70 61 71
f 68 67 66
f 65 69 68
f 65 68 66
f 64 69 65
f 63 69 64
f 63 70 69
