# Cadless export: model
v -50 -30 3
v -50 30 3
v -50 -30 0
v -50 30 0
v -50 -30 3
v -50 30 3
v -49.994 -30.2453 3
v -49.9759 -30.4901 3
v -49.9459 -30.7337 3
v -49.9039 -30.9755 3
v -49.8502 -31.2149 3
v -49.7847 -31.4514 3
v -49.7077 -31.6844 3
v -49.6194 -31.9134 3
v -49.5199 -32.1378 3
v -49.4096 -32.357 3
v -49.2886 -32.5705 3
v -49.1573 -32.7779 3
v -49.016 -32.9785 3
v -48.8651 -33.172 3
v -48.7048 -33.3578 3
v -48.5355 -33.5355 3
v -48.3578 -33.7048 3
v -48.172 -33.8651 3
v -47.9785 -34.016 3
v -47.7779 -34.1573 3
v -47.5705 -34.2886 3
v -47.357 -34.4096 3
v -47.1378 -34.5199 3
v -46.9134 -34.6194 3
v -46.6844 -34.7077 3
v -46.4514 -34.7847 3
v -46.2149 -34.8502 3
v -45.9755 -34.9039 3
v -45.7337 -34.9459 3
v -45.4901 -34.9759 3
v -45.2453 -34.994 3
v -45 -35 3
v 45 -35 3
v 50 -30 3
v 49.994 -30.2453 3
v 49.9759 -30.4901 3
v 49.9459 -30.7337 3
v 49.9039 -30.9755 3
v 49.8502 -31.2149 3
v 49.7847 -31.4514 3
v 49.7077 -31.6844 3
v 49.6194 -31.9134 3
v 49.5199 -32.1378 3
v 49.4096 -32.357 3
v 49.2886 -32.5705 3
v 49.1573 -32.7779 3
v 49.016 -32.9785 3
v 48.8651 -33.172 3
v 48.7048 -33.3578 3
v 48.5355 -33.5355 3
v 48.3578 -33.7048 3
v 48.172 -33.8651 3
v 47.9785 -34.016 3
v 47.7779 -34.1573 3
v 47.5705 -34.2886 3
v 47.357 -34.4096 3
v 47.1378 -34.5199 3
v 46.9134 -34.6194 3
v 46.6844 -34.7077 3
v 46.4514 -34.7847 3
v 46.2149 -34.8502 3
v 45.9755 -34.9039 3
v 45.7337 -34.9459 3
v 45.4901 -34.9759 3
v 45.2453 -34.994 3
v 50 30 3
v 49.994 30.2453 3
v 49.9759 30.4901 3
v 49.9459 30.7337 3
v 49.9039 30.9755 3
v 49.8502 31.2149 3
v 49.7847 31.4514 3
v 49.7077 31.6844 3
v 49.6194 31.9134 3
v 49.5199 32.1378 3
v 49.4096 32.357 3
v 49.2886 32.5705 3
v 49.1573 32.7779 3
v 49.016 32.9785 3
v 48.8651 33.172 3
v 48.7048 33.3578 3
v 48.5355 33.5355 3
v 48.3578 33.7048 3
v 48.172 33.8651 3
v 47.9785 34.016 3
v 47.7779 34.1573 3
v 47.5705 34.2886 3
v 47.357 34.4096 3
v 47.1378 34.5199 3
v 46.9134 34.6194 3
v 46.6844 34.7077 3
v 46.4514 34.7847 3
v 46.2149 34.8502 3
v 45.9755 34.9039 3
v 45.7337 34.9459 3
v 45.4901 34.9759 3
v 45.2453 34.994 3
v 45 35 3
v -45 35 3
v -49.994 30.2453 3
v -49.9759 30.4901 3
v -49.9459 30.7337 3
v -49.9039 30.9755 3
v -49.8502 31.2149 3
v -49.7847 31.4514 3
v -49.7077 31.6844 3
v -49.6194 31.9134 3
v -49.5199 32.1378 3
v -49.4096 32.357 3
v -49.2886 32.5705 3
v -49.1573 32.7779 3
v -49.016 32.9785 3
v -48.8651 33.172 3
v -48.7048 33.3578 3
v -48.5355 33.5355 3
v -48.3578 33.7048 3
v -48.172 33.8651 3
v -47.9785 34.016 3
v -47.7779 34.1573 3
v -47.5705 34.2886 3
v -47.357 34.4096 3
v -47.1378 34.5199 3
v -46.9134 34.6194 3
v -46.6844 34.7077 3
v -46.4514 34.7847 3
v -46.2149 34.8502 3
v -45.9755 34.9039 3
v -45.7337 34.9459 3
v -45.4901 34.9759 3
v -45.2453 34.994 3
v -16.85 -15 3
v -16.8639 -14.4442 3
v -16.9054 -13.8898 3
v -16.9745 -13.3382 3
v -17.0711 -12.7907 3
v -17.1948 -12.2487 3
v -17.3454 -11.7135 3
v -17.5224 -11.1865 3
v -17.7255 -10.669 3
v -17.9542 -10.1622 3
v -18.2078 -9.66747 3
v -18.4858 -9.186 3
v -18.7874 -8.71898 3
v -19.112 -8.26758 3
v -19.4586 -7.83292 3
v -19.8265 -7.41607 3
v -20.2147 -7.01808 3
v -20.6222 -6.63994 3
v -21.0481 -6.28258 3
v -21.4913 -5.94689 3
v -21.9506 -5.63371 3
v -22.425 -5.34382 3
v -22.9133 -5.07793 3
v -23.4141 -4.83671 3
v -23.9264 -4.62076 3
v -24.4489 -4.43061 3
v -24.9801 -4.26674 3
v -25.5189 -4.12955 3
v -26.0638 -4.01939 3
v -26.6136 -3.93653 3
v -27.1668 -3.88118 3
v -27.722 -3.85347 3
v -28.278 -3.85347 3
v -28.8332 -3.88118 3
v -29.3864 -3.93653 3
v -29.9362 -4.01939 3
v -30.4811 -4.12955 3
v -31.0199 -4.26674 3
v -31.5511 -4.43061 3
v -32.0736 -4.62076 3
v -32.5859 -4.83671 3
v -33.0867 -5.07793 3
v -33.575 -5.34382 3
v -34.0494 -5.63371 3
v -34.5087 -5.94689 3
v -34.9519 -6.28258 3
v -35.3778 -6.63994 3
v -35.7853 -7.01808 3
v -36.1735 -7.41607 3
v -36.5414 -7.83292 3
v -36.888 -8.26758 3
v -37.2126 -8.71898 3
v -37.5142 -9.186 3
v -37.7922 -9.66747 3
v -38.0458 -10.1622 3
v -38.2745 -10.669 3
v -38.4776 -11.1865 3
v -38.6546 -11.7135 3
v -38.8052 -12.2487 3
v -38.9289 -12.7907 3
v -39.0255 -13.3382 3
v -39.0946 -13.8898 3
v -39.1361 -14.4442 3
v -39.15 -15 3
v -39.1361 -15.5558 3
v -39.0946 -16.1102 3
v -39.0255 -16.6618 3
v -38.9289 -17.2093 3
v -38.8052 -17.7513 3
v -38.6546 -18.2865 3
v -38.4776 -18.8135 3
v -38.2745 -19.331 3
v -38.0458 -19.8378 3
v -37.7922 -20.3325 3
v -37.5142 -20.814 3
v -37.2126 -21.281 3
v -36.888 -21.7324 3
v -36.5414 -22.1671 3
v -36.1735 -22.5839 3
v -35.7853 -22.9819 3
v -35.3778 -23.3601 3
v -34.9519 -23.7174 3
v -34.5087 -24.0531 3
v -34.0494 -24.3663 3
v -33.575 -24.6562 3
v -33.0867 -24.9221 3
v -32.5859 -25.1633 3
v -32.0736 -25.3792 3
v -31.5511 -25.5694 3
v -31.0199 -25.7333 3
v -30.4811 -25.8704 3
v -29.9362 -25.9806 3
v -29.3864 -26.0635 3
v -28.8332 -26.1188 3
v -28.278 -26.1465 3
v -27.722 -26.1465 3
v -27.1668 -26.1188 3
v -26.6136 -26.0635 3
v -26.0638 -25.9806 3
v -25.5189 -25.8704 3
v -24.9801 -25.7333 3
v -24.4489 -25.5694 3
v -23.9264 -25.3792 3
v -23.4141 -25.1633 3
v -22.9133 -24.9221 3
v -22.425 -24.6562 3
v -21.9506 -24.3663 3
v -21.4913 -24.0531 3
v -21.0481 -23.7174 3
v -20.6222 -23.3601 3
v -20.2147 -22.9819 3
v -19.8265 -22.5839 3
v -19.4586 -22.1671 3
v -19.112 -21.7324 3
v -18.7874 -21.281 3
v -18.4858 -20.814 3
v -18.2078 -20.3325 3
v -17.9542 -19.8378 3
v -17.7255 -19.331 3
v -17.5224 -18.8135 3
v -17.3454 -18.2865 3
v -17.1948 -17.7513 3
v -17.0711 -17.2093 3
v -16.9745 -16.6618 3
v -16.9054 -16.1102 3
v -16.8639 -15.5558 3
v 39.15 -15 3
v 39.1361 -14.4442 3
v 39.0946 -13.8898 3
v 39.0255 -13.3382 3
v 38.9289 -12.7907 3
v 38.8052 -12.2487 3
v 38.6546 -11.7135 3
v 38.4776 -11.1865 3
v 38.2745 -10.669 3
v 38.0458 -10.1622 3
v 37.7922 -9.66747 3
v 37.5142 -9.186 3
v 37.2126 -8.71898 3
v 36.888 -8.26758 3
v 36.5414 -7.83292 3
v 36.1735 -7.41607 3
v 35.7853 -7.01808 3
v 35.3778 -6.63994 3
v 34.9519 -6.28258 3
v 34.5087 -5.94689 3
v 34.0494 -5.63371 3
v 33.575 -5.34382 3
v 33.0867 -5.07793 3
v 32.5859 -4.83671 3
v 32.0736 -4.62076 3
v 31.5511 -4.43061 3
v 31.0199 -4.26674 3
v 30.4811 -4.12955 3
v 29.9362 -4.01939 3
v 29.3864 -3.93653 3
v 28.8332 -3.88118 3
v 28.278 -3.85347 3
v 27.722 -3.85347 3
v 27.1668 -3.88118 3
v 26.6136 -3.93653 3
v 26.0638 -4.01939 3
v 25.5189 -4.12955 3
v 24.9801 -4.26674 3
v 24.4489 -4.43061 3
v 23.9264 -4.62076 3
v 23.4141 -4.83671 3
v 22.9133 -5.07793 3
v 22.425 -5.34382 3
v 21.9506 -5.63371 3
v 21.4913 -5.94689 3
v 21.0481 -6.28258 3
v 20.6222 -6.63994 3
v 20.2147 -7.01808 3
v 19.8265 -7.41607 3
v 19.4586 -7.83292 3
v 19.112 -8.26758 3
v 18.7874 -8.71898 3
v 18.4858 -9.186 3
v 18.2078 -9.66747 3
v 17.9542 -10.1622 3
v 17.7255 -10.669 3
v 17.5224 -11.1865 3
v 17.3454 -11.7135 3
v 17.1948 -12.2487 3
v 17.0711 -12.7907 3
v 16.9745 -13.3382 3
v 16.9054 -13.8898 3
v 16.8639 -14.4442 3
v 16.85 -15 3
v 16.8639 -15.5558 3
v 16.9054 -16.1102 3
v 16.9745 -16.6618 3
v 17.0711 -17.2093 3
v 17.1948 -17.7513 3
v 17.3454 -18.2865 3
v 17.5224 -18.8135 3
v 17.7255 -19.331 3
v 17.9542 -19.8378 3
v 18.2078 -20.3325 3
v 18.4858 -20.814 3
v 18.7874 -21.281 3
v 19.112 -21.7324 3
v 19.4586 -22.1671 3
v 19.8265 -22.5839 3
v 20.2147 -22.9819 3
v 20.6222 -23.3601 3
v 21.0481 -23.7174 3
v 21.4913 -24.0531 3
v 21.9506 -24.3663 3
v 22.425 -24.6562 3
v 22.9133 -24.9221 3
v 23.4141 -25.1633 3
v 23.9264 -25.3792 3
v 24.4489 -25.5694 3
v 24.9801 -25.7333 3
v 25.5189 -25.8704 3
v 26.0638 -25.9806 3
v 26.6136 -26.0635 3
v 27.1668 -26.1188 3
v 27.722 -26.1465 3
v 28.278 -26.1465 3
v 28.8332 -26.1188 3
v 29.3864 -26.0635 3
v 29.9362 -25.9806 3
v 30.4811 -25.8704 3
v 31.0199 -25.7333 3
v 31.5511 -25.5694 3
v 32.0736 -25.3792 3
v 32.5859 -25.1633 3
v 33.0867 -24.9221 3
v 33.575 -24.6562 3
v 34.0494 -24.3663 3
v 34.5087 -24.0531 3
v 34.9519 -23.7174 3
v 35.3778 -23.3601 3
v 35.7853 -22.9819 3
v 36.1735 -22.5839 3
v 36.5414 -22.1671 3
v 36.888 -21.7324 3
v 37.2126 -21.281 3
v 37.5142 -20.814 3
v 37.7922 -20.3325 3
v 38.0458 -19.8378 3
v 38.2745 -19.331 3
v 38.4776 -18.8135 3
v 38.6546 -18.2865 3
v 38.8052 -17.7513 3
v 38.9289 -17.2093 3
v 39.0255 -16.6618 3
v 39.0946 -16.1102 3
v 39.1361 -15.5558 3
v 25 5 3
v -25 5 3
v -25 25 3
v 25 25 3
v -50 -30 0
v -49.994 -30.2453 0
v -49.9759 -30.4901 0
v -49.9459 -30.7337 0
v -49.9039 -30.9755 0
v -49.8502 -31.2149 0
v -49.7847 -31.4514 0
v -49.7077 -31.6844 0
v -49.6194 -31.9134 0
v -49.5199 -32.1378 0
v -49.4096 -32.357 0
v -49.2886 -32.5705 0
v -49.1573 -32.7779 0
v -49.016 -32.9785 0
v -48.8651 -33.172 0
v -48.7048 -33.3578 0
v -48.5355 -33.5355 0
v -48.3578 -33.7048 0
v -48.172 -33.8651 0
v -47.9785 -34.016 0
v -47.7779 -34.1573 0
v -47.5705 -34.2886 0
v -47.357 -34.4096 0
v -47.1378 -34.5199 0
v -46.9134 -34.6194 0
v -46.6844 -34.7077 0
v -46.4514 -34.7847 0
v -46.2149 -34.8502 0
v -45.9755 -34.9039 0
v -45.7337 -34.9459 0
v -45.4901 -34.9759 0
v -45.2453 -34.994 0
v -45 -35 0
v -45 -35 3
v -50 -30 3
v -49.994 -30.2453 3
v -49.9759 -30.4901 3
v -49.9459 -30.7337 3
v -49.9039 -30.9755 3
v -49.8502 -31.2149 3
v -49.7847 -31.4514 3
v -49.7077 -31.6844 3
v -49.6194 -31.9134 3
v -49.5199 -32.1378 3
v -49.4096 -32.357 3
v -49.2886 -32.5705 3
v -49.1573 -32.7779 3
v -49.016 -32.9785 3
v -48.8651 -33.172 3
v -48.7048 -33.3578 3
v -48.5355 -33.5355 3
v -48.3578 -33.7048 3
v -48.172 -33.8651 3
v -47.9785 -34.016 3
v -47.7779 -34.1573 3
v -47.5705 -34.2886 3
v -47.357 -34.4096 3
v -47.1378 -34.5199 3
v -46.9134 -34.6194 3
v -46.6844 -34.7077 3
v -46.4514 -34.7847 3
v -46.2149 -34.8502 3
v -45.9755 -34.9039 3
v -45.7337 -34.9459 3
v -45.4901 -34.9759 3
v -45.2453 -34.994 3
v -50 30 0
v -49.994 30.2453 0
v -49.9759 30.4901 0
v -49.9459 30.7337 0
v -49.9039 30.9755 0
v -49.8502 31.2149 0
v -49.7847 31.4514 0
v -49.7077 31.6844 0
v -49.6194 31.9134 0
v -49.5199 32.1378 0
v -49.4096 32.357 0
v -49.2886 32.5705 0
v -49.1573 32.7779 0
v -49.016 32.9785 0
v -48.8651 33.172 0
v -48.7048 33.3578 0
v -48.5355 33.5355 0
v -48.3578 33.7048 0
v -48.172 33.8651 0
v -47.9785 34.016 0
v -47.7779 34.1573 0
v -47.5705 34.2886 0
v -47.357 34.4096 0
v -47.1378 34.5199 0
v -46.9134 34.6194 0
v -46.6844 34.7077 0
v -46.4514 34.7847 0
v -46.2149 34.8502 0
v -45.9755 34.9039 0
v -45.7337 34.9459 0
v -45.4901 34.9759 0
v -45.2453 34.994 0
v -45 35 0
v -45 35 3
v -50 30 3
v -49.994 30.2453 3
v -49.9759 30.4901 3
v -49.9459 30.7337 3
v -49.9039 30.9755 3
v -49.8502 31.2149 3
v -49.7847 31.4514 3
v -49.7077 31.6844 3
v -49.6194 31.9134 3
v -49.5199 32.1378 3
v -49.4096 32.357 3
v -49.2886 32.5705 3
v -49.1573 32.7779 3
v -49.016 32.9785 3
v -48.8651 33.172 3
v -48.7048 33.3578 3
v -48.5355 33.5355 3
v -48.3578 33.7048 3
v -48.172 33.8651 3
v -47.9785 34.016 3
v -47.7779 34.1573 3
v -47.5705 34.2886 3
v -47.357 34.4096 3
v -47.1378 34.5199 3
v -46.9134 34.6194 3
v -46.6844 34.7077 3
v -46.4514 34.7847 3
v -46.2149 34.8502 3
v -45.9755 34.9039 3
v -45.7337 34.9459 3
v -45.4901 34.9759 3
v -45.2453 34.994 3
v -50 -30 0
v -50 30 0
v -49.994 -30.2453 0
v -49.9759 -30.4901 0
v -49.9459 -30.7337 0
v -49.9039 -30.9755 0
v -49.8502 -31.2149 0
v -49.7847 -31.4514 0
v -49.7077 -31.6844 0
v -49.6194 -31.9134 0
v -49.5199 -32.1378 0
v -49.4096 -32.357 0
v -49.2886 -32.5705 0
v -49.1573 -32.7779 0
v -49.016 -32.9785 0
v -48.8651 -33.172 0
v -48.7048 -33.3578 0
v -48.5355 -33.5355 0
v -48.3578 -33.7048 0
v -48.172 -33.8651 0
v -47.9785 -34.016 0
v -47.7779 -34.1573 0
v -47.5705 -34.2886 0
v -47.357 -34.4096 0
v -47.1378 -34.5199 0
v -46.9134 -34.6194 0
v -46.6844 -34.7077 0
v -46.4514 -34.7847 0
v -46.2149 -34.8502 0
v -45.9755 -34.9039 0
v -45.7337 -34.9459 0
v -45.4901 -34.9759 0
v -45.2453 -34.994 0
v -45 -35 0
v 45 -35 0
v 50 -30 0
v 49.994 -30.2453 0
v 49.9759 -30.4901 0
v 49.9459 -30.7337 0
v 49.9039 -30.9755 0
v 49.8502 -31.2149 0
v 49.7847 -31.4514 0
v 49.7077 -31.6844 0
v 49.6194 -31.9134 0
v 49.5199 -32.1378 0
v 49.4096 -32.357 0
v 49.2886 -32.5705 0
v 49.1573 -32.7779 0
v 49.016 -32.9785 0
v 48.8651 -33.172 0
v 48.7048 -33.3578 0
v 48.5355 -33.5355 0
v 48.3578 -33.7048 0
v 48.172 -33.8651 0
v 47.9785 -34.016 0
v 47.7779 -34.1573 0
v 47.5705 -34.2886 0
v 47.357 -34.4096 0
v 47.1378 -34.5199 0
v 46.9134 -34.6194 0
v 46.6844 -34.7077 0
v 46.4514 -34.7847 0
v 46.2149 -34.8502 0
v 45.9755 -34.9039 0
v 45.7337 -34.9459 0
v 45.4901 -34.9759 0
v 45.2453 -34.994 0
v 50 30 0
v 49.994 30.2453 0
v 49.9759 30.4901 0
v 49.9459 30.7337 0
v 49.9039 30.9755 0
v 49.8502 31.2149 0
v 49.7847 31.4514 0
v 49.7077 31.6844 0
v 49.6194 31.9134 0
v 49.5199 32.1378 0
v 49.4096 32.357 0
v 49.2886 32.5705 0
v 49.1573 32.7779 0
v 49.016 32.9785 0
v 48.8651 33.172 0
v 48.7048 33.3578 0
v 48.5355 33.5355 0
v 48.3578 33.7048 0
v 48.172 33.8651 0
v 47.9785 34.016 0
v 47.7779 34.1573 0
v 47.5705 34.2886 0
v 47.357 34.4096 0
v 47.1378 34.5199 0
v 46.9134 34.6194 0
v 46.6844 34.7077 0
v 46.4514 34.7847 0
v 46.2149 34.8502 0
v 45.9755 34.9039 0
v 45.7337 34.9459 0
v 45.4901 34.9759 0
v 45.2453 34.994 0
v 45 35 0
v -45 35 0
v -49.994 30.2453 0
v -49.9759 30.4901 0
v -49.9459 30.7337 0
v -49.9039 30.9755 0
v -49.8502 31.2149 0
v -49.7847 31.4514 0
v -49.7077 31.6844 0
v -49.6194 31.9134 0
v -49.5199 32.1378 0
v -49.4096 32.357 0
v -49.2886 32.5705 0
v -49.1573 32.7779 0
v -49.016 32.9785 0
v -48.8651 33.172 0
v -48.7048 33.3578 0
v -48.5355 33.5355 0
v -48.3578 33.7048 0
v -48.172 33.8651 0
v -47.9785 34.016 0
v -47.7779 34.1573 0
v -47.5705 34.2886 0
v -47.357 34.4096 0
v -47.1378 34.5199 0
v -46.9134 34.6194 0
v -46.6844 34.7077 0
v -46.4514 34.7847 0
v -46.2149 34.8502 0
v -45.9755 34.9039 0
v -45.7337 34.9459 0
v -45.4901 34.9759 0
v -45.2453 34.994 0
v -16.85 -15 0
v -16.8639 -14.4442 0
v -16.9054 -13.8898 0
v -16.9745 -13.3382 0
v -17.0711 -12.7907 0
v -17.1948 -12.2487 0
v -17.3454 -11.7135 0
v -17.5224 -11.1865 0
v -17.7255 -10.669 0
v -17.9542 -10.1622 0
v -18.2078 -9.66747 0
v -18.4858 -9.186 0
v -18.7874 -8.71898 0
v -19.112 -8.26758 0
v -19.4586 -7.83292 0
v -19.8265 -7.41607 0
v -20.2147 -7.01808 0
v -20.6222 -6.63994 0
v -21.0481 -6.28258 0
v -21.4913 -5.94689 0
v -21.9506 -5.63371 0
v -22.425 -5.34382 0
v -22.9133 -5.07793 0
v -23.4141 -4.83671 0
v -23.9264 -4.62076 0
v -24.4489 -4.43061 0
v -24.9801 -4.26674 0
v -25.5189 -4.12955 0
v -26.0638 -4.01939 0
v -26.6136 -3.93653 0
v -27.1668 -3.88118 0
v -27.722 -3.85347 0
v -28.278 -3.85347 0
v -28.8332 -3.88118 0
v -29.3864 -3.93653 0
v -29.9362 -4.01939 0
v -30.4811 -4.12955 0
v -31.0199 -4.26674 0
v -31.5511 -4.43061 0
v -32.0736 -4.62076 0
v -32.5859 -4.83671 0
v -33.0867 -5.07793 0
v -33.575 -5.34382 0
v -34.0494 -5.63371 0
v -34.5087 -5.94689 0
v -34.9519 -6.28258 0
v -35.3778 -6.63994 0
v -35.7853 -7.01808 0
v -36.1735 -7.41607 0
v -36.5414 -7.83292 0
v -36.888 -8.26758 0
v -37.2126 -8.71898 0
v -37.5142 -9.186 0
v -37.7922 -9.66747 0
v -38.0458 -10.1622 0
v -38.2745 -10.669 0
v -38.4776 -11.1865 0
v -38.6546 -11.7135 0
v -38.8052 -12.2487 0
v -38.9289 -12.7907 0
v -39.0255 -13.3382 0
v -39.0946 -13.8898 0
v -39.1361 -14.4442 0
v -39.15 -15 0
v -39.1361 -15.5558 0
v -39.0946 -16.1102 0
v -39.0255 -16.6618 0
v -38.9289 -17.2093 0
v -38.8052 -17.7513 0
v -38.6546 -18.2865 0
v -38.4776 -18.8135 0
v -38.2745 -19.331 0
v -38.0458 -19.8378 0
v -37.7922 -20.3325 0
v -37.5142 -20.814 0
v -37.2126 -21.281 0
v -36.888 -21.7324 0
v -36.5414 -22.1671 0
v -36.1735 -22.5839 0
v -35.7853 -22.9819 0
v -35.3778 -23.3601 0
v -34.9519 -23.7174 0
v -34.5087 -24.0531 0
v -34.0494 -24.3663 0
v -33.575 -24.6562 0
v -33.0867 -24.9221 0
v -32.5859 -25.1633 0
v -32.0736 -25.3792 0
v -31.5511 -25.5694 0
v -31.0199 -25.7333 0
v -30.4811 -25.8704 0
v -29.9362 -25.9806 0
v -29.3864 -26.0635 0
v -28.8332 -26.1188 0
v -28.278 -26.1465 0
v -27.722 -26.1465 0
v -27.1668 -26.1188 0
v -26.6136 -26.0635 0
v -26.0638 -25.9806 0
v -25.5189 -25.8704 0
v -24.9801 -25.7333 0
v -24.4489 -25.5694 0
v -23.9264 -25.3792 0
v -23.4141 -25.1633 0
v -22.9133 -24.9221 0
v -22.425 -24.6562 0
v -21.9506 -24.3663 0
v -21.4913 -24.0531 0
v -21.0481 -23.7174 0
v -20.6222 -23.3601 0
v -20.2147 -22.9819 0
v -19.8265 -22.5839 0
v -19.4586 -22.1671 0
v -19.112 -21.7324 0
v -18.7874 -21.281 0
v -18.4858 -20.814 0
v -18.2078 -20.3325 0
v -17.9542 -19.8378 0
v -17.7255 -19.331 0
v -17.5224 -18.8135 0
v -17.3454 -18.2865 0
v -17.1948 -17.7513 0
v -17.0711 -17.2093 0
v -16.9745 -16.6618 0
v -16.9054 -16.1102 0
v -16.8639 -15.5558 0
v 39.15 -15 0
v 39.1361 -14.4442 0
v 39.0946 -13.8898 0
v 39.0255 -13.3382 0
v 38.9289 -12.7907 0
v 38.8052 -12.2487 0
v 38.6546 -11.7135 0
v 38.4776 -11.1865 0
v 38.2745 -10.669 0
v 38.0458 -10.1622 0
v 37.7922 -9.66747 0
v 37.5142 -9.186 0
v 37.2126 -8.71898 0
v 36.888 -8.26758 0
v 36.5414 -7.83292 0
v 36.1735 -7.41607 0
v 35.7853 -7.01808 0
v 35.3778 -6.63994 0
v 34.9519 -6.28258 0
v 34.5087 -5.94689 0
v 34.0494 -5.63371 0
v 33.575 -5.34382 0
v 33.0867 -5.07793 0
v 32.5859 -4.83671 0
v 32.0736 -4.62076 0
v 31.5511 -4.43061 0
v 31.0199 -4.26674 0
v 30.4811 -4.12955 0
v 29.9362 -4.01939 0
v 29.3864 -3.93653 0
v 28.8332 -3.88118 0
v 28.278 -3.85347 0
v 27.722 -3.85347 0
v 27.1668 -3.88118 0
v 26.6136 -3.93653 0
v 26.0638 -4.01939 0
v 25.5189 -4.12955 0
v 24.9801 -4.26674 0
v 24.4489 -4.43061 0
v 23.9264 -4.62076 0
v 23.4141 -4.83671 0
v 22.9133 -5.07793 0
v 22.425 -5.34382 0
v 21.9506 -5.63371 0
v 21.4913 -5.94689 0
v 21.0481 -6.28258 0
v 20.6222 -6.63994 0
v 20.2147 -7.01808 0
v 19.8265 -7.41607 0
v 19.4586 -7.83292 0
v 19.112 -8.26758 0
v 18.7874 -8.71898 0
v 18.4858 -9.186 0
v 18.2078 -9.66747 0
v 17.9542 -10.1622 0
v 17.7255 -10.669 0
v 17.5224 -11.1865 0
v 17.3454 -11.7135 0
v 17.1948 -12.2487 0
v 17.0711 -12.7907 0
v 16.9745 -13.3382 0
v 16.9054 -13.8898 0
v 16.8639 -14.4442 0
v 16.85 -15 0
v 16.8639 -15.5558 0
v 16.9054 -16.1102 0
v 16.9745 -16.6618 0
v 17.0711 -17.2093 0
v 17.1948 -17.7513 0
v 17.3454 -18.2865 0
v 17.5224 -18.8135 0
v 17.7255 -19.331 0
v 17.9542 -19.8378 0
v 18.2078 -20.3325 0
v 18.4858 -20.814 0
v 18.7874 -21.281 0
v 19.112 -21.7324 0
v 19.4586 -22.1671 0
v 19.8265 -22.5839 0
v 20.2147 -22.9819 0
v 20.6222 -23.3601 0
v 21.0481 -23.7174 0
v 21.4913 -24.0531 0
v 21.9506 -24.3663 0
v 22.425 -24.6562 0
v 22.9133 -24.9221 0
v 23.4141 -25.1633 0
v 23.9264 -25.3792 0
v 24.4489 -25.5694 0
v 24.9801 -25.7333 0
v 25.5189 -25.8704 0
v 26.0638 -25.9806 0
v 26.6136 -26.0635 0
v 27.1668 -26.1188 0
v 27.722 -26.1465 0
v 28.278 -26.1465 0
v 28.8332 -26.1188 0
v 29.3864 -26.0635 0
v 29.9362 -25.9806 0
v 30.4811 -25.8704 0
v 31.0199 -25.7333 0
v 31.5511 -25.5694 0
v 32.0736 -25.3792 0
v 32.5859 -25.1633 0
v 33.0867 -24.9221 0
v 33.575 -24.6562 0
v 34.0494 -24.3663 0
v 34.5087 -24.0531 0
v 34.9519 -23.7174 0
v 35.3778 -23.3601 0
v 35.7853 -22.9819 0
v 36.1735 -22.5839 0
v 36.5414 -22.1671 0
v 36.888 -21.7324 0
v 37.2126 -21.281 0
v 37.5142 -20.814 0
v 37.7922 -20.3325 0
v 38.0458 -19.8378 0
v 38.2745 -19.331 0
v 38.4776 -18.8135 0
v 38.6546 -18.2865 0
v 38.8052 -17.7513 0
v 38.9289 -17.2093 0
v 39.0255 -16.6618 0
v 39.0946 -16.1102 0
v 39.1361 -15.5558 0
v 25 5 0
v -25 5 0
v -25 25 0
v 25 25 0
v -45 -35 0
v 45 -35 0
v -45 -35 3
v 45 -35 3
v -45 35 0
v 45 35 0
v -45 35 3
v 45 35 3
v 50 -30 0
v 49.994 -30.2453 0
v 49.9759 -30.4901 0
v 49.9459 -30.7337 0
v 49.9039 -30.9755 0
v 49.8502 -31.2149 0
v 49.7847 -31.4514 0
v 49.7077 -31.6844 0
v 49.6194 -31.9134 0
v 49.5199 -32.1378 0
v 49.4096 -32.357 0
v 49.2886 -32.5705 0
v 49.1573 -32.7779 0
v 49.016 -32.9785 0
v 48.8651 -33.172 0
v 48.7048 -33.3578 0
v 48.5355 -33.5355 0
v 48.3578 -33.7048 0
v 48.172 -33.8651 0
v 47.9785 -34.016 0
v 47.7779 -34.1573 0
v 47.5705 -34.2886 0
v 47.357 -34.4096 0
v 47.1378 -34.5199 0
v 46.9134 -34.6194 0
v 46.6844 -34.7077 0
v 46.4514 -34.7847 0
v 46.2149 -34.8502 0
v 45.9755 -34.9039 0
v 45.7337 -34.9459 0
v 45.4901 -34.9759 0
v 45.2453 -34.994 0
v 45 -35 0
v 45 -35 3
v 50 -30 3
v 49.994 -30.2453 3
v 49.9759 -30.4901 3
v 49.9459 -30.7337 3
v 49.9039 -30.9755 3
v 49.8502 -31.2149 3
v 49.7847 -31.4514 3
v 49.7077 -31.6844 3
v 49.6194 -31.9134 3
v 49.5199 -32.1378 3
v 49.4096 -32.357 3
v 49.2886 -32.5705 3
v 49.1573 -32.7779 3
v 49.016 -32.9785 3
v 48.8651 -33.172 3
v 48.7048 -33.3578 3
v 48.5355 -33.5355 3
v 48.3578 -33.7048 3
v 48.172 -33.8651 3
v 47.9785 -34.016 3
v 47.7779 -34.1573 3
v 47.5705 -34.2886 3
v 47.357 -34.4096 3
v 47.1378 -34.5199 3
v 46.9134 -34.6194 3
v 46.6844 -34.7077 3
v 46.4514 -34.7847 3
v 46.2149 -34.8502 3
v 45.9755 -34.9039 3
v 45.7337 -34.9459 3
v 45.4901 -34.9759 3
v 45.2453 -34.994 3
v 50 30 0
v 49.994 30.2453 0
v 49.9759 30.4901 0
v 49.9459 30.7337 0
v 49.9039 30.9755 0
v 49.8502 31.2149 0
v 49.7847 31.4514 0
v 49.7077 31.6844 0
v 49.6194 31.9134 0
v 49.5199 32.1378 0
v 49.4096 32.357 0
v 49.2886 32.5705 0
v 49.1573 32.7779 0
v 49.016 32.9785 0
v 48.8651 33.172 0
v 48.7048 33.3578 0
v 48.5355 33.5355 0
v 48.3578 33.7048 0
v 48.172 33.8651 0
v 47.9785 34.016 0
v 47.7779 34.1573 0
v 47.5705 34.2886 0
v 47.357 34.4096 0
v 47.1378 34.5199 0
v 46.9134 34.6194 0
v 46.6844 34.7077 0
v 46.4514 34.7847 0
v 46.2149 34.8502 0
v 45.9755 34.9039 0
v 45.7337 34.9459 0
v 45.4901 34.9759 0
v 45.2453 34.994 0
v 45 35 0
v 45 35 3
v 50 30 3
v 49.994 30.2453 3
v 49.9759 30.4901 3
v 49.9459 30.7337 3
v 49.9039 30.9755 3
v 49.8502 31.2149 3
v 49.7847 31.4514 3
v 49.7077 31.6844 3
v 49.6194 31.9134 3
v 49.5199 32.1378 3
v 49.4096 32.357 3
v 49.2886 32.5705 3
v 49.1573 32.7779 3
v 49.016 32.9785 3
v 48.8651 33.172 3
v 48.7048 33.3578 3
v 48.5355 33.5355 3
v 48.3578 33.7048 3
v 48.172 33.8651 3
v 47.9785 34.016 3
v 47.7779 34.1573 3
v 47.5705 34.2886 3
v 47.357 34.4096 3
v 47.1378 34.5199 3
v 46.9134 34.6194 3
v 46.6844 34.7077 3
v 46.4514 34.7847 3
v 46.2149 34.8502 3
v 45.9755 34.9039 3
v 45.7337 34.9459 3
v 45.4901 34.9759 3
v 45.2453 34.994 3
v 50 -30 3
v 50 30 3
v 50 -30 0
v 50 30 0
v -16.85 -15 3
v -16.8639 -14.4442 3
v -16.9054 -13.8898 3
v -16.9745 -13.3382 3
v -17.0711 -12.7907 3
v -17.1948 -12.2487 3
v -17.3454 -11.7135 3
v -17.5224 -11.1865 3
v -17.7255 -10.669 3
v -17.9542 -10.1622 3
v -18.2078 -9.66747 3
v -18.4858 -9.186 3
v -18.7874 -8.71898 3
v -19.112 -8.26758 3
v -19.4586 -7.83292 3
v -19.8265 -7.41607 3
v -20.2147 -7.01808 3
v -20.6222 -6.63994 3
v -21.0481 -6.28258 3
v -21.4913 -5.94689 3
v -21.9506 -5.63371 3
v -22.425 -5.34382 3
v -22.9133 -5.07793 3
v -23.4141 -4.83671 3
v -23.9264 -4.62076 3
v -24.4489 -4.43061 3
v -24.9801 -4.26674 3
v -25.5189 -4.12955 3
v -26.0638 -4.01939 3
v -26.6136 -3.93653 3
v -27.1668 -3.88118 3
v -27.722 -3.85347 3
v -28.278 -3.85347 3
v -28.8332 -3.88118 3
v -29.3864 -3.93653 3
v -29.9362 -4.01939 3
v -30.4811 -4.12955 3
v -31.0199 -4.26674 3
v -31.5511 -4.43061 3
v -32.0736 -4.62076 3
v -32.5859 -4.83671 3
v -33.0867 -5.07793 3
v -33.575 -5.34382 3
v -34.0494 -5.63371 3
v -34.5087 -5.94689 3
v -34.9519 -6.28258 3
v -35.3778 -6.63994 3
v -35.7853 -7.01808 3
v -36.1735 -7.41607 3
v -36.5414 -7.83292 3
v -36.888 -8.26758 3
v -37.2126 -8.71898 3
v -37.5142 -9.186 3
v -37.7922 -9.66747 3
v -38.0458 -10.1622 3
v -38.2745 -10.669 3
v -38.4776 -11.1865 3
v -38.6546 -11.7135 3
v -38.8052 -12.2487 3
v -38.9289 -12.7907 3
v -39.0255 -13.3382 3
v -39.0946 -13.8898 3
v -39.1361 -14.4442 3
v -39.15 -15 3
v -39.1361 -15.5558 3
v -39.0946 -16.1102 3
v -39.0255 -16.6618 3
v -38.9289 -17.2093 3
v -38.8052 -17.7513 3
v -38.6546 -18.2865 3
v -38.4776 -18.8135 3
v -38.2745 -19.331 3
v -38.0458 -19.8378 3
v -37.7922 -20.3325 3
v -37.5142 -20.814 3
v -37.2126 -21.281 3
v -36.888 -21.7324 3
v -36.5414 -22.1671 3
v -36.1735 -22.5839 3
v -35.7853 -22.9819 3
v -35.3778 -23.3601 3
v -34.9519 -23.7174 3
v -34.5087 -24.0531 3
v -34.0494 -24.3663 3
v -33.575 -24.6562 3
v -33.0867 -24.9221 3
v -32.5859 -25.1633 3
v -32.0736 -25.3792 3
v -31.5511 -25.5694 3
v -31.0199 -25.7333 3
v -30.4811 -25.8704 3
v -29.9362 -25.9806 3
v -29.3864 -26.0635 3
v -28.8332 -26.1188 3
v -28.278 -26.1465 3
v -27.722 -26.1465 3
v -27.1668 -26.1188 3
v -26.6136 -26.0635 3
v -26.0638 -25.9806 3
v -25.5189 -25.8704 3
v -24.9801 -25.7333 3
v -24.4489 -25.5694 3
v -23.9264 -25.3792 3
v -23.4141 -25.1633 3
v -22.9133 -24.9221 3
v -22.425 -24.6562 3
v -21.9506 -24.3663 3
v -21.4913 -24.0531 3
v -21.0481 -23.7174 3
v -20.6222 -23.3601 3
v -20.2147 -22.9819 3
v -19.8265 -22.5839 3
v -19.4586 -22.1671 3
v -19.112 -21.7324 3
v -18.7874 -21.281 3
v -18.4858 -20.814 3
v -18.2078 -20.3325 3
v -17.9542 -19.8378 3
v -17.7255 -19.331 3
v -17.5224 -18.8135 3
v -17.3454 -18.2865 3
v -17.1948 -17.7513 3
v -17.0711 -17.2093 3
v -16.9745 -16.6618 3
v -16.9054 -16.1102 3
v -16.8639 -15.5558 3
v -16.85 -15 3
v -16.85 -15 0
v -16.8639 -14.4442 0
v -16.9054 -13.8898 0
v -16.9745 -13.3382 0
v -17.0711 -12.7907 0
v -17.1948 -12.2487 0
v -17.3454 -11.7135 0
v -17.5224 -11.1865 0
v -17.7255 -10.669 0
v -17.9542 -10.1622 0
v -18.2078 -9.66747 0
v -18.4858 -9.186 0
v -18.7874 -8.71898 0
v -19.112 -8.26758 0
v -19.4586 -7.83292 0
v -19.8265 -7.41607 0
v -20.2147 -7.01808 0
v -20.6222 -6.63994 0
v -21.0481 -6.28258 0
v -21.4913 -5.94689 0
v -21.9506 -5.63371 0
v -22.425 -5.34382 0
v -22.9133 -5.07793 0
v -23.4141 -4.83671 0
v -23.9264 -4.62076 0
v -24.4489 -4.43061 0
v -24.9801 -4.26674 0
v -25.5189 -4.12955 0
v -26.0638 -4.01939 0
v -26.6136 -3.93653 0
v -27.1668 -3.88118 0
v -27.722 -3.85347 0
v -28.278 -3.85347 0
v -28.8332 -3.88118 0
v -29.3864 -3.93653 0
v -29.9362 -4.01939 0
v -30.4811 -4.12955 0
v -31.0199 -4.26674 0
v -31.5511 -4.43061 0
v -32.0736 -4.62076 0
v -32.5859 -4.83671 0
v -33.0867 -5.07793 0
v -33.575 -5.34382 0
v -34.0494 -5.63371 0
v -34.5087 -5.94689 0
v -34.9519 -6.28258 0
v -35.3778 -6.63994 0
v -35.7853 -7.01808 0
v -36.1735 -7.41607 0
v -36.5414 -7.83292 0
v -36.888 -8.26758 0
v -37.2126 -8.71898 0
v -37.5142 -9.186 0
v -37.7922 -9.66747 0
v -38.0458 -10.1622 0
v -38.2745 -10.669 0
v -38.4776 -11.1865 0
v -38.6546 -11.7135 0
v -38.8052 -12.2487 0
v -38.9289 -12.7907 0
v -39.0255 -13.3382 0
v -39.0946 -13.8898 0
v -39.1361 -14.4442 0
v -39.15 -15 0
v -39.1361 -15.5558 0
v -39.0946 -16.1102 0
v -39.0255 -16.6618 0
v -38.9289 -17.2093 0
v -38.8052 -17.7513 0
v -38.6546 -18.2865 0
v -38.4776 -18.8135 0
v -38.2745 -19.331 0
v -38.0458 -19.8378 0
v -37.7922 -20.3325 0
v -37.5142 -20.814 0
v -37.2126 -21.281 0
v -36.888 -21.7324 0
v -36.5414 -22.1671 0
v -36.1735 -22.5839 0
v -35.7853 -22.9819 0
v -35.3778 -23.3601 0
v -34.9519 -23.7174 0
v -34.5087 -24.0531 0
v -34.0494 -24.3663 0
v -33.575 -24.6562 0
v -33.0867 -24.9221 0
v -32.5859 -25.1633 0
v -32.0736 -25.3792 0
v -31.5511 -25.5694 0
v -31.0199 -25.7333 0
v -30.4811 -25.8704 0
v -29.9362 -25.9806 0
v -29.3864 -26.0635 0
v -28.8332 -26.1188 0
v -28.278 -26.1465 0
v -27.722 -26.1465 0
v -27.1668 -26.1188 0
v -26.6136 -26.0635 0
v -26.0638 -25.9806 0
v -25.5189 -25.8704 0
v -24.9801 -25.7333 0
v -24.4489 -25.5694 0
v -23.9264 -25.3792 0
v -23.4141 -25.1633 0
v -22.9133 -24.9221 0
v -22.425 -24.6562 0
v -21.9506 -24.3663 0
v -21.4913 -24.0531 0
v -21.0481 -23.7174 0
v -20.6222 -23.3601 0
v -20.2147 -22.9819 0
v -19.8265 -22.5839 0
v -19.4586 -22.1671 0
v -19.112 -21.7324 0
v -18.7874 -21.281 0
v -18.4858 -20.814 0
v -18.2078 -20.3325 0
v -17.9542 -19.8378 0
v -17.7255 -19.331 0
v -17.5224 -18.8135 0
v -17.3454 -18.2865 0
v -17.1948 -17.7513 0
v -17.0711 -17.2093 0
v -16.9745 -16.6618 0
v -16.9054 -16.1102 0
v -16.8639 -15.5558 0
v -16.85 -15 0
v 39.15 -15 3
v 39.1361 -14.4442 3
v 39.0946 -13.8898 3
v 39.0255 -13.3382 3
v 38.9289 -12.7907 3
v 38.8052 -12.2487 3
v 38.6546 -11.7135 3
v 38.4776 -11.1865 3
v 38.2745 -10.669 3
v 38.0458 -10.1622 3
v 37.7922 -9.66747 3
v 37.5142 -9.186 3
v 37.2126 -8.71898 3
v 36.888 -8.26758 3
v 36.5414 -7.83292 3
v 36.1735 -7.41607 3
v 35.7853 -7.01808 3
v 35.3778 -6.63994 3
v 34.9519 -6.28258 3
v 34.5087 -5.94689 3
v 34.0494 -5.63371 3
v 33.575 -5.34382 3
v 33.0867 -5.07793 3
v 32.5859 -4.83671 3
v 32.0736 -4.62076 3
v 31.5511 -4.43061 3
v 31.0199 -4.26674 3
v 30.4811 -4.12955 3
v 29.9362 -4.01939 3
v 29.3864 -3.93653 3
v 28.8332 -3.88118 3
v 28.278 -3.85347 3
v 27.722 -3.85347 3
v 27.1668 -3.88118 3
v 26.6136 -3.93653 3
v 26.0638 -4.01939 3
v 25.5189 -4.12955 3
v 24.9801 -4.26674 3
v 24.4489 -4.43061 3
v 23.9264 -4.62076 3
v 23.4141 -4.83671 3
v 22.9133 -5.07793 3
v 22.425 -5.34382 3
v 21.9506 -5.63371 3
v 21.4913 -5.94689 3
v 21.0481 -6.28258 3
v 20.6222 -6.63994 3
v 20.2147 -7.01808 3
v 19.8265 -7.41607 3
v 19.4586 -7.83292 3
v 19.112 -8.26758 3
v 18.7874 -8.71898 3
v 18.4858 -9.186 3
v 18.2078 -9.66747 3
v 17.9542 -10.1622 3
v 17.7255 -10.669 3
v 17.5224 -11.1865 3
v 17.3454 -11.7135 3
v 17.1948 -12.2487 3
v 17.0711 -12.7907 3
v 16.9745 -13.3382 3
v 16.9054 -13.8898 3
v 16.8639 -14.4442 3
v 16.85 -15 3
v 16.8639 -15.5558 3
v 16.9054 -16.1102 3
v 16.9745 -16.6618 3
v 17.0711 -17.2093 3
v 17.1948 -17.7513 3
v 17.3454 -18.2865 3
v 17.5224 -18.8135 3
v 17.7255 -19.331 3
v 17.9542 -19.8378 3
v 18.2078 -20.3325 3
v 18.4858 -20.814 3
v 18.7874 -21.281 3
v 19.112 -21.7324 3
v 19.4586 -22.1671 3
v 19.8265 -22.5839 3
v 20.2147 -22.9819 3
v 20.6222 -23.3601 3
v 21.0481 -23.7174 3
v 21.4913 -24.0531 3
v 21.9506 -24.3663 3
v 22.425 -24.6562 3
v 22.9133 -24.9221 3
v 23.4141 -25.1633 3
v 23.9264 -25.3792 3
v 24.4489 -25.5694 3
v 24.9801 -25.7333 3
v 25.5189 -25.8704 3
v 26.0638 -25.9806 3
v 26.6136 -26.0635 3
v 27.1668 -26.1188 3
v 27.722 -26.1465 3
v 28.278 -26.1465 3
v 28.8332 -26.1188 3
v 29.3864 -26.0635 3
v 29.9362 -25.9806 3
v 30.4811 -25.8704 3
v 31.0199 -25.7333 3
v 31.5511 -25.5694 3
v 32.0736 -25.3792 3
v 32.5859 -25.1633 3
v 33.0867 -24.9221 3
v 33.575 -24.6562 3
v 34.0494 -24.3663 3
v 34.5087 -24.0531 3
v 34.9519 -23.7174 3
v 35.3778 -23.3601 3
v 35.7853 -22.9819 3
v 36.1735 -22.5839 3
v 36.5414 -22.1671 3
v 36.888 -21.7324 3
v 37.2126 -21.281 3
v 37.5142 -20.814 3
v 37.7922 -20.3325 3
v 38.0458 -19.8378 3
v 38.2745 -19.331 3
v 38.4776 -18.8135 3
v 38.6546 -18.2865 3
v 38.8052 -17.7513 3
v 38.9289 -17.2093 3
v 39.0255 -16.6618 3
v 39.0946 -16.1102 3
v 39.1361 -15.5558 3
v 39.15 -15 3
v 39.15 -15 0
v 39.1361 -14.4442 0
v 39.0946 -13.8898 0
v 39.0255 -13.3382 0
v 38.9289 -12.7907 0
v 38.8052 -12.2487 0
v 38.6546 -11.7135 0
v 38.4776 -11.1865 0
v 38.2745 -10.669 0
v 38.0458 -10.1622 0
v 37.7922 -9.66747 0
v 37.5142 -9.186 0
v 37.2126 -8.71898 0
v 36.888 -8.26758 0
v 36.5414 -7.83292 0
v 36.1735 -7.41607 0
v 35.7853 -7.01808 0
v 35.3778 -6.63994 0
v 34.9519 -6.28258 0
v 34.5087 -5.94689 0
v 34.0494 -5.63371 0
v 33.575 -5.34382 0
v 33.0867 -5.07793 0
v 32.5859 -4.83671 0
v 32.0736 -4.62076 0
v 31.5511 -4.43061 0
v 31.0199 -4.26674 0
v 30.4811 -4.12955 0
v 29.9362 -4.01939 0
v 29.3864 -3.93653 0
v 28.8332 -3.88118 0
v 28.278 -3.85347 0
v 27.722 -3.85347 0
v 27.1668 -3.88118 0
v 26.6136 -3.93653 0
v 26.0638 -4.01939 0
v 25.5189 -4.12955 0
v 24.9801 -4.26674 0
v 24.4489 -4.43061 0
v 23.9264 -4.62076 0
v 23.4141 -4.83671 0
v 22.9133 -5.07793 0
v 22.425 -5.34382 0
v 21.9506 -5.63371 0
v 21.4913 -5.94689 0
v 21.0481 -6.28258 0
v 20.6222 -6.63994 0
v 20.2147 -7.01808 0
v 19.8265 -7.41607 0
v 19.4586 -7.83292 0
v 19.112 -8.26758 0
v 18.7874 -8.71898 0
v 18.4858 -9.186 0
v 18.2078 -9.66747 0
v 17.9542 -10.1622 0
v 17.7255 -10.669 0
v 17.5224 -11.1865 0
v 17.3454 -11.7135 0
v 17.1948 -12.2487 0
v 17.0711 -12.7907 0
v 16.9745 -13.3382 0
v 16.9054 -13.8898 0
v 16.8639 -14.4442 0
v 16.85 -15 0
v 16.8639 -15.5558 0
v 16.9054 -16.1102 0
v 16.9745 -16.6618 0
v 17.0711 -17.2093 0
v 17.1948 -17.7513 0
v 17.3454 -18.2865 0
v 17.5224 -18.8135 0
v 17.7255 -19.331 0
v 17.9542 -19.8378 0
v 18.2078 -20.3325 0
v 18.4858 -20.814 0
v 18.7874 -21.281 0
v 19.112 -21.7324 0
v 19.4586 -22.1671 0
v 19.8265 -22.5839 0
v 20.2147 -22.9819 0
v 20.6222 -23.3601 0
v 21.0481 -23.7174 0
v 21.4913 -24.0531 0
v 21.9506 -24.3663 0
v 22.425 -24.6562 0
v 22.9133 -24.9221 0
v 23.4141 -25.1633 0
v 23.9264 -25.3792 0
v 24.4489 -25.5694 0
v 24.9801 -25.7333 0
v 25.5189 -25.8704 0
v 26.0638 -25.9806 0
v 26.6136 -26.0635 0
v 27.1668 -26.1188 0
v 27.722 -26.1465 0
v 28.278 -26.1465 0
v 28.8332 -26.1188 0
v 29.3864 -26.0635 0
v 29.9362 -25.9806 0
v 30.4811 -25.8704 0
v 31.0199 -25.7333 0
v 31.5511 -25.5694 0
v 32.0736 -25.3792 0
v 32.5859 -25.1633 0
v 33.0867 -24.9221 0
v 33.575 -24.6562 0
v 34.0494 -24.3663 0
v 34.5087 -24.0531 0
v 34.9519 -23.7174 0
v 35.3778 -23.3601 0
v 35.7853 -22.9819 0
v 36.1735 -22.5839 0
v 36.5414 -22.1671 0
v 36.888 -21.7324 0
v 37.2126 -21.281 0
v 37.5142 -20.814 0
v 37.7922 -20.3325 0
v 38.0458 -19.8378 0
v 38.2745 -19.331 0
v 38.4776 -18.8135 0
v 38.6546 -18.2865 0
v 38.8052 -17.7513 0
v 38.9289 -17.2093 0
v 39.0255 -16.6618 0
v 39.0946 -16.1102 0
v 39.1361 -15.5558 0
v 39.15 -15 0
v 25 5 0
v 25 5 3
v -25 5 0
v -25 5 3
v 25 5 0
v 25 5 3
v 25 25 0
v 25 25 3
v 25 25 0
v 25 25 3
v -25 25 0
v -25 25 3
v -25 5 0
v -25 5 3
v -25 25 0
v -25 25 3
f 1 4 3
f 1 2 4
f 20 21 22
f 25 23 24
f 27 25 26
f 17 18 19
f 28 25 27
f 15 17 19
f 15 16 17
f 15 25 28
f 15 19 20
f 15 22 23
f 15 28 29
f 15 20 22
f 15 23 25
f 31 29 30
f 13 15 29
f 13 14 15
f 13 29 31
f 10 11 12
f 10 12 13
f 10 13 31
f 35 32 33
f 35 33 34
f 38 31 32
f 38 35 36
f 38 36 37
f 38 32 35
f 5 7 8
f 5 8 9
f 5 9 10
f 5 10 31
f 5 31 38
f 215 38 216
f 217 216 38
f 214 5 38
f 214 38 215
f 218 217 38
f 213 5 214
f 219 218 38
f 212 5 213
f 220 219 38
f 211 5 212
f 221 220 38
f 210 5 211
f 222 221 38
f 209 5 210
f 223 222 38
f 208 5 209
f 224 223 38
f 207 5 208
f 225 224 38
f 206 5 207
f 226 225 38
f 205 5 206
f 227 226 38
f 204 5 205
f 228 227 38
f 203 5 204
f 229 228 38
f 202 5 203
f 230 229 38
f 201 5 202
f 231 230 38
f 200 5 201
f 232 231 38
f 199 5 200
f 233 232 38
f 198 5 199
f 234 233 38
f 197 5 198
f 235 234 38
f 196 5 197
f 236 235 38
f 195 5 196
f 237 236 38
f 194 5 195
f 390 152 151
f 390 153 152
f 390 154 153
f 390 155 154
f 390 156 155
f 390 157 156
f 390 158 157
f 390 159 158
f 390 160 159
f 390 161 160
f 390 162 161
f 390 163 162
f 390 164 163
f 390 165 164
f 390 166 165
f 390 167 166
f 390 168 167
f 390 169 168
f 390 170 169
f 390 171 170
f 390 172 171
f 390 173 172
f 390 174 173
f 390 175 174
f 390 176 175
f 390 177 176
f 390 178 177
f 390 179 178
f 6 5 194
f 6 180 179
f 6 181 180
f 6 182 181
f 6 183 182
f 6 184 183
f 6 185 184
f 6 186 185
f 6 187 186
f 6 188 187
f 6 189 188
f 6 190 189
f 6 191 190
f 6 192 191
f 6 193 192
f 6 194 193
f 6 179 390
f 108 107 106
f 109 108 106
f 111 110 109
f 111 109 106
f 113 112 111
f 114 106 6
f 114 113 111
f 114 111 106
f 116 115 114
f 118 117 116
f 121 119 118
f 121 120 119
f 121 116 114
f 121 118 116
f 122 114 6
f 122 121 114
f 123 122 6
f 126 124 123
f 126 125 124
f 128 127 126
f 129 123 6
f 129 126 123
f 129 128 126
f 131 130 129
f 135 132 131
f 135 133 132
f 135 134 133
f 105 136 135
f 105 129 6
f 105 131 129
f 105 135 131
f 342 247 246
f 341 247 342
f 341 248 247
f 343 342 246
f 343 246 245
f 340 249 248
f 340 248 341
f 344 343 245
f 344 245 244
f 339 250 249
f 339 249 340
f 345 244 243
f 345 344 244
f 338 251 250
f 338 250 339
f 346 345 243
f 346 243 242
f 337 252 251
f 337 251 338
f 347 242 241
f 347 346 242
f 336 253 252
f 336 252 337
f 348 347 241
f 335 254 253
f 335 253 336
f 349 240 239
f 349 241 240
f 349 348 241
f 334 255 254
f 334 254 335
f 350 239 238
f 350 349 239
f 333 256 255
f 333 255 334
f 351 238 237
f 351 350 238
f 332 256 333
f 332 257 256
f 352 351 237
f 331 258 257
f 331 257 332
f 330 258 331
f 330 259 258
f 391 6 390
f 391 105 6
f 329 260 259
f 329 259 330
f 328 260 329
f 328 261 260
f 327 261 328
f 327 262 261
f 326 262 327
f 326 137 262
f 325 138 137
f 325 137 326
f 324 138 325
f 324 139 138
f 323 140 139
f 323 139 324
f 322 141 140
f 322 140 323
f 321 142 141
f 321 141 322
f 320 143 142
f 320 142 321
f 319 144 143
f 319 143 320
f 318 144 319
f 318 145 144
f 317 146 145
f 317 147 146
f 317 145 318
f 316 148 147
f 316 147 317
f 315 148 316
f 39 352 237
f 39 237 38
f 39 353 352
f 39 354 353
f 39 355 354
f 39 356 355
f 39 357 356
f 39 358 357
f 39 359 358
f 39 360 359
f 39 361 360
f 39 362 361
f 39 363 362
f 39 364 363
f 39 365 364
f 39 366 365
f 39 367 366
f 39 368 367
f 39 369 368
f 314 148 315
f 314 149 148
f 370 369 39
f 313 150 149
f 313 151 150
f 313 149 314
f 68 70 69
f 371 370 39
f 312 151 313
f 66 68 67
f 66 71 70
f 66 70 68
f 65 39 71
f 65 71 66
f 372 371 39
f 64 39 65
f 373 372 39
f 62 64 63
f 61 64 62
f 374 373 39
f 60 64 61
f 58 60 59
f 58 64 60
f 375 374 39
f 57 64 58
f 56 39 64
f 56 64 57
f 53 55 54
f 53 56 55
f 52 56 53
f 52 39 56
f 50 52 51
f 48 50 49
f 48 39 52
f 48 52 50
f 46 48 47
f 46 39 48
f 44 46 45
f 41 43 42
f 41 44 43
f 41 39 46
f 41 46 44
f 40 376 375
f 40 377 376
f 40 378 377
f 40 379 378
f 40 380 379
f 40 381 380
f 40 382 381
f 40 39 41
f 40 375 39
f 383 382 40
f 384 383 40
f 385 384 40
f 386 385 40
f 387 386 40
f 388 387 40
f 263 388 40
f 264 263 40
f 265 264 40
f 266 265 40
f 267 266 40
f 268 267 40
f 269 268 40
f 389 308 307
f 389 309 308
f 389 310 309
f 389 311 310
f 389 312 311
f 389 151 312
f 389 390 151
f 389 285 284
f 389 286 285
f 389 287 286
f 389 288 287
f 389 289 288
f 389 290 289
f 389 291 290
f 389 292 291
f 389 293 292
f 389 294 293
f 389 295 294
f 389 296 295
f 389 297 296
f 389 298 297
f 389 299 298
f 389 300 299
f 389 301 300
f 389 302 301
f 389 303 302
f 389 304 303
f 389 305 304
f 389 306 305
f 389 307 306
f 72 269 40
f 72 389 284
f 72 104 392
f 72 270 269
f 72 271 270
f 72 272 271
f 72 273 272
f 72 274 273
f 72 275 274
f 72 276 275
f 72 277 276
f 72 278 277
f 72 279 278
f 72 280 279
f 72 281 280
f 72 282 281
f 72 283 282
f 72 284 283
f 72 392 389
f 102 103 104
f 74 72 73
f 74 104 72
f 100 104 74
f 100 102 104
f 100 101 102
f 77 74 75
f 77 75 76
f 99 100 74
f 78 74 77
f 97 98 99
f 96 74 78
f 96 97 99
f 96 78 79
f 96 99 74
f 94 95 96
f 93 94 96
f 92 93 96
f 84 80 81
f 84 81 82
f 84 82 83
f 85 80 84
f 85 79 80
f 86 79 85
f 89 90 91
f 87 96 79
f 87 92 96
f 87 79 86
f 87 91 92
f 88 89 91
f 88 91 87
f 104 105 391
f 104 391 392
f 428 393 394
f 428 427 393
f 429 394 395
f 429 428 394
f 430 395 396
f 430 429 395
f 431 396 397
f 431 430 396
f 432 397 398
f 432 431 397
f 433 398 399
f 433 432 398
f 434 399 400
f 434 433 399
f 435 400 401
f 435 434 400
f 436 435 401
f 436 401 402
f 437 402 403
f 437 436 402
f 438 403 404
f 438 437 403
f 439 404 405
f 439 438 404
f 440 405 406
f 440 439 405
f 441 406 407
f 441 407 408
f 441 440 406
f 442 441 408
f 443 408 409
f 443 442 408
f 444 409 410
f 444 443 409
f 445 410 411
f 445 411 412
f 445 444 410
f 446 445 412
f 447 412 413
f 447 446 412
f 448 413 414
f 448 414 415
f 448 447 413
f 449 448 415
f 450 415 416
f 450 449 415
f 451 416 417
f 451 450 416
f 452 417 418
f 452 451 417
f 453 418 419
f 453 452 418
f 454 419 420
f 454 453 419
f 455 420 421
f 455 421 422
f 455 454 420
f 456 455 422
f 457 422 423
f 457 456 422
f 458 423 424
f 458 457 423
f 426 424 425
f 426 458 424
f 494 460 459
f 494 459 493
f 495 461 460
f 495 460 494
f 496 462 461
f 496 463 462
f 496 461 495
f 497 463 496
f 498 464 463
f 498 463 497
f 499 465 464
f 499 464 498
f 500 466 465
f 500 465 499
f 501 467 466
f 501 468 467
f 501 466 500
f 502 468 501
f 503 469 468
f 503 468 502
f 504 470 469
f 504 469 503
f 505 471 470
f 505 472 471
f 505 470 504
f 506 473 472
f 506 472 505
f 507 473 506
f 508 474 473
f 508 473 507
f 509 475 474
f 509 474 508
f 510 476 475
f 510 475 509
f 511 477 476
f 511 476 510
f 512 478 477
f 512 479 478
f 512 477 511
f 513 479 512
f 514 480 479
f 514 479 513
f 515 481 480
f 515 480 514
f 516 482 481
f 516 483 482
f 516 481 515
f 517 484 483
f 517 483 516
f 518 484 517
f 519 485 484
f 519 484 518
f 520 486 485
f 520 487 486
f 520 485 519
f 521 488 487
f 521 487 520
f 522 488 521
f 523 489 488
f 523 488 522
f 524 490 489
f 524 491 490
f 524 489 523
f 492 491 524
f 540 542 541
f 545 544 543
f 547 546 545
f 537 539 538
f 548 547 545
f 535 539 537
f 535 537 536
f 535 548 545
f 535 540 539
f 535 543 542
f 535 549 548
f 535 542 540
f 535 545 543
f 551 550 549
f 533 549 535
f 533 535 534
f 533 551 549
f 530 532 531
f 530 533 532
f 530 551 533
f 555 553 552
f 555 554 553
f 558 552 551
f 558 556 555
f 558 557 556
f 558 555 552
f 525 528 527
f 525 529 528
f 525 530 529
f 525 551 530
f 525 558 551
f 735 736 558
f 737 558 736
f 734 558 525
f 734 735 558
f 738 558 737
f 733 734 525
f 739 558 738
f 732 733 525
f 740 558 739
f 731 732 525
f 741 558 740
f 730 731 525
f 742 558 741
f 729 730 525
f 743 558 742
f 728 729 525
f 744 558 743
f 727 728 525
f 745 558 744
f 726 727 525
f 746 558 745
f 725 726 525
f 747 558 746
f 724 725 525
f 748 558 747
f 723 724 525
f 749 558 748
f 722 723 525
f 750 558 749
f 721 722 525
f 751 558 750
f 720 721 525
f 752 558 751
f 719 720 525
f 753 558 752
f 718 719 525
f 754 558 753
f 717 718 525
f 755 558 754
f 716 717 525
f 756 558 755
f 715 716 525
f 757 558 756
f 714 715 525
f 910 671 672
f 910 672 673
f 910 673 674
f 910 674 675
f 910 675 676
f 910 676 677
f 910 677 678
f 910 678 679
f 910 679 680
f 910 680 681
f 910 681 682
f 910 682 683
f 910 683 684
f 910 684 685
f 910 685 686
f 910 686 687
f 910 687 688
f 910 688 689
f 910 689 690
f 910 690 691
f 910 691 692
f 910 692 693
f 910 693 694
f 910 694 695
f 910 695 696
f 910 696 697
f 910 697 698
f 910 698 699
f 526 714 525
f 526 699 700
f 526 700 701
f 526 701 702
f 526 702 703
f 526 703 704
f 526 704 705
f 526 705 706
f 526 706 707
f 526 707 708
f 526 708 709
f 526 709 710
f 526 710 711
f 526 711 712
f 526 712 713
f 526 713 714
f 526 910 699
f 628 626 627
f 629 626 628
f 631 629 630
f 631 626 629
f 633 631 632
f 634 526 626
f 634 631 633
f 634 626 631
f 636 634 635
f 638 636 637
f 641 638 639
f 641 639 640
f 641 634 636
f 641 636 638
f 642 526 634
f 642 634 641
f 643 526 642
f 646 643 644
f 646 644 645
f 648 646 647
f 649 526 643
f 649 643 646
f 649 646 648
f 651 649 650
f 655 651 652
f 655 652 653
f 655 653 654
f 625 655 656
f 625 526 649
f 625 649 651
f 625 651 655
f 862 766 767
f 861 862 767
f 861 767 768
f 863 766 862
f 863 765 766
f 860 768 769
f 860 861 768
f 864 765 863
f 864 764 765
f 859 769 770
f 859 860 769
f 865 763 764
f 865 764 864
f 858 770 771
f 858 859 770
f 866 763 865
f 866 762 763
f 857 771 772
f 857 858 771
f 867 761 762
f 867 762 866
f 856 772 773
f 856 857 772
f 868 761 867
f 855 773 774
f 855 856 773
f 869 759 760
f 869 760 761
f 869 761 868
f 854 774 775
f 854 855 774
f 870 758 759
f 870 759 869
f 853 775 776
f 853 854 775
f 871 757 758
f 871 758 870
f 852 853 776
f 852 776 777
f 872 757 871
f 851 777 778
f 851 852 777
f 850 851 778
f 850 778 779
f 911 910 526
f 911 526 625
f 849 779 780
f 849 850 779
f 848 849 780
f 848 780 781
f 847 848 781
f 847 781 782
f 846 847 782
f 846 782 657
f 845 657 658
f 845 846 657
f 844 845 658
f 844 658 659
f 843 659 660
f 843 844 659
f 842 660 661
f 842 843 660
f 841 661 662
f 841 842 661
f 840 662 663
f 840 841 662
f 839 663 664
f 839 840 663
f 838 839 664
f 838 664 665
f 837 665 666
f 837 666 667
f 837 838 665
f 836 667 668
f 836 837 667
f 835 836 668
f 559 757 872
f 559 558 757
f 559 872 873
f 559 873 874
f 559 874 875
f 559 875 876
f 559 876 877
f 559 877 878
f 559 878 879
f 559 879 880
f 559 880 881
f 559 881 882
f 559 882 883
f 559 883 884
f 559 884 885
f 559 885 886
f 559 886 887
f 559 887 888
f 559 888 889
f 834 835 668
f 834 668 669
f 890 559 889
f 833 669 670
f 833 670 671
f 833 834 669
f 588 589 590
f 891 559 890
f 832 833 671
f 586 587 588
f 586 590 591
f 586 588 590
f 585 591 559
f 585 586 591
f 892 559 891
f 584 585 559
f 893 559 892
f 582 583 584
f 581 582 584
f 894 559 893
f 580 581 584
f 578 579 580
f 578 580 584
f 895 559 894
f 577 578 584
f 576 584 559
f 576 577 584
f 573 574 575
f 573 575 576
f 572 573 576
f 572 576 559
f 570 571 572
f 568 569 570
f 568 572 559
f 568 570 572
f 566 567 568
f 566 568 559
f 564 565 566
f 561 562 563
f 561 563 564
f 561 566 559
f 561 564 566
f 560 895 896
f 560 896 897
f 560 897 898
f 560 898 899
f 560 899 900
f 560 900 901
f 560 901 902
f 560 561 559
f 560 559 895
f 903 560 902
f 904 560 903
f 905 560 904
f 906 560 905
f 907 560 906
f 908 560 907
f 783 560 908
f 784 560 783
f 785 560 784
f 786 560 785
f 787 560 786
f 788 560 787
f 789 560 788
f 909 827 828
f 909 828 829
f 909 829 830
f 909 830 831
f 909 831 832
f 909 832 671
f 909 671 910
f 909 804 805
f 909 805 806
f 909 806 807
f 909 807 808
f 909 808 809
f 909 809 810
f 909 810 811
f 909 811 812
f 909 812 813
f 909 813 814
f 909 814 815
f 909 815 816
f 909 816 817
f 909 817 818
f 909 818 819
f 909 819 820
f 909 820 821
f 909 821 822
f 909 822 823
f 909 823 824
f 909 824 825
f 909 825 826
f 909 826 827
f 592 560 789
f 592 804 909
f 592 912 624
f 592 789 790
f 592 790 791
f 592 791 792
f 592 792 793
f 592 793 794
f 592 794 795
f 592 795 796
f 592 796 797
f 592 797 798
f 592 798 799
f 592 799 800
f 592 800 801
f 592 801 802
f 592 802 803
f 592 803 804
f 592 909 912
f 622 624 623
f 594 593 592
f 594 592 624
f 620 594 624
f 620 624 622
f 620 622 621
f 597 595 594
f 597 596 595
f 619 594 620
f 598 597 594
f 617 619 618
f 616 598 594
f 616 619 617
f 616 599 598
f 616 594 619
f 614 616 615
f 613 616 614
f 612 616 613
f 604 601 600
f 604 602 601
f 604 603 602
f 605 604 600
f 605 600 599
f 606 605 599
f 609 611 610
f 607 599 616
f 607 616 612
f 607 606 599
f 607 612 611
f 608 611 609
f 608 607 611
f 624 911 625
f 624 912 911
f 914 915 913
f 916 915 914
f 918 917 919
f 920 918 919
f 956 922 921
f 956 921 955
f 957 923 922
f 957 922 956
f 958 924 923
f 958 923 957
f 959 925 924
f 959 924 958
f 960 926 925
f 960 925 959
f 961 927 926
f 961 926 960
f 962 928 927
f 962 927 961
f 963 929 928
f 963 928 962
f 964 929 963
f 964 930 929
f 965 931 930
f 965 930 964
f 966 932 931
f 966 931 965
f 967 933 932
f 967 932 966
f 968 934 933
f 968 933 967
f 969 935 934
f 969 936 935
f 969 934 968
f 970 936 969
f 971 937 936
f 971 936 970
f 972 938 937
f 972 937 971
f 973 939 938
f 973 940 939
f 973 938 972
f 974 940 973
f 975 941 940
f 975 940 974
f 976 942 941
f 976 943 942
f 976 941 975
f 977 943 976
f 978 944 943
f 978 943 977
f 979 945 944
f 979 944 978
f 980 946 945
f 980 945 979
f 981 947 946
f 981 946 980
f 982 948 947
f 982 947 981
f 983 949 948
f 983 950 949
f 983 948 982
f 984 950 983
f 985 951 950
f 985 950 984
f 986 952 951
f 986 951 985
f 954 953 952
f 954 952 986
f 1022 987 988
f 1022 1021 987
f 1023 988 989
f 1023 1022 988
f 1024 989 990
f 1024 990 991
f 1024 1023 989
f 1025 1024 991
f 1026 991 992
f 1026 1025 991
f 1027 992 993
f 1027 1026 992
f 1028 993 994
f 1028 1027 993
f 1029 994 995
f 1029 995 996
f 1029 1028 994
f 1030 1029 996
f 1031 996 997
f 1031 1030 996
f 1032 997 998
f 1032 1031 997
f 1033 998 999
f 1033 999 1000
f 1033 1032 998
f 1034 1000 1001
f 1034 1033 1000
f 1035 1034 1001
f 1036 1001 1002
f 1036 1035 1001
f 1037 1002 1003
f 1037 1036 1002
f 1038 1003 1004
f 1038 1037 1003
f 1039 1004 1005
f 1039 1038 1004
f 1040 1005 1006
f 1040 1006 1007
f 1040 1039 1005
f 1041 1040 1007
f 1042 1007 1008
f 1042 1041 1007
f 1043 1008 1009
f 1043 1042 1008
f 1044 1009 1010
f 1044 1010 1011
f 1044 1043 1009
f 1045 1011 1012
f 1045 1044 1011
f 1046 1045 1012
f 1047 1012 1013
f 1047 1046 1012
f 1048 1013 1014
f 1048 1014 1015
f 1048 1047 1013
f 1049 1015 1016
f 1049 1048 1015
f 1050 1049 1016
f 1051 1016 1017
f 1051 1050 1016
f 1052 1017 1018
f 1052 1018 1019
f 1052 1051 1017
f 1020 1052 1019
f 1053 1055 1056
f 1053 1056 1054
f 1058 1184 1057
f 1058 1185 1184
f 1059 1186 1185
f 1059 1187 1186
f 1059 1185 1058
f 1060 1187 1059
f 1061 1188 1187
f 1061 1189 1188
f 1061 1187 1060
f 1062 1190 1189
f 1062 1189 1061
f 1063 1190 1062
f 1064 1191 1190
f 1064 1190 1063
f 1065 1192 1191
f 1065 1193 1192
f 1065 1191 1064
f 1066 1193 1065
f 1067 1194 1193
f 1067 1193 1066
f 1068 1194 1067
f 1068 1195 1194
f 1069 1195 1068
f 1069 1196 1195
f 1070 1196 1069
f 1070 1197 1196
f 1071 1197 1070
f 1071 1198 1197
f 1072 1198 1071
f 1072 1199 1198
f 1073 1199 1072
f 1073 1200 1199
f 1074 1200 1073
f 1074 1201 1200
f 1075 1201 1074
f 1075 1202 1201
f 1076 1202 1075
f 1076 1203 1202
f 1077 1203 1076
f 1077 1204 1203
f 1078 1204 1077
f 1078 1205 1204
f 1079 1205 1078
f 1079 1206 1205
f 1079 1207 1206
f 1080 1207 1079
f 1081 1208 1207
f 1081 1209 1208
f 1081 1207 1080
f 1082 1209 1081
f 1083 1210 1209
f 1083 1209 1082
f 1084 1211 1210
f 1084 1212 1211
f 1084 1210 1083
f 1085 1212 1084
f 1086 1213 1212
f 1086 1212 1085
f 1087 1214 1213
f 1087 1215 1214
f 1087 1213 1086
f 1088 1215 1087
f 1089 1216 1215
f 1089 1217 1216
f 1089 1215 1088
f 1090 1217 1089
f 1091 1218 1217
f 1091 1219 1218
f 1091 1217 1090
f 1092 1219 1091
f 1093 1219 1092
f 1093 1220 1219
f 1094 1220 1093
f 1094 1221 1220
f 1095 1221 1094
f 1095 1222 1221
f 1096 1222 1095
f 1096 1223 1222
f 1097 1223 1096
f 1097 1224 1223
f 1098 1224 1097
f 1098 1225 1224
f 1099 1225 1098
f 1099 1226 1225
f 1099 1227 1226
f 1100 1227 1099
f 1101 1227 1100
f 1101 1228 1227
f 1101 1229 1228
f 1102 1229 1101
f 1102 1230 1229
f 1103 1230 1102
f 1103 1231 1230
f 1104 1231 1103
f 1105 1231 1104
f 1105 1232 1231
f 1106 1232 1105
f 1106 1233 1232
f 1107 1233 1106
f 1107 1234 1233
f 1108 1234 1107
f 1108 1235 1234
f 1109 1235 1108
f 1109 1236 1235
f 1110 1236 1109
f 1110 1237 1236
f 1111 1237 1110
f 1111 1238 1237
f 1112 1238 1111
f 1112 1239 1238
f 1113 1239 1112
f 1113 1240 1239
f 1113 1241 1240
f 1114 1242 1241
f 1114 1241 1113
f 1115 1242 1114
f 1116 1243 1242
f 1116 1244 1243
f 1116 1242 1115
f 1117 1245 1244
f 1117 1244 1116
f 1118 1245 1117
f 1119 1245 1118
f 1119 1246 1245
f 1120 1246 1119
f 1120 1247 1246
f 1121 1247 1120
f 1121 1248 1247
f 1122 1248 1121
f 1122 1249 1248
f 1123 1249 1122
f 1123 1250 1249
f 1124 1250 1123
f 1124 1251 1250
f 1125 1251 1124
f 1125 1252 1251
f 1126 1252 1125
f 1126 1253 1252
f 1127 1253 1126
f 1127 1254 1253
f 1128 1254 1127
f 1128 1255 1254
f 1129 1255 1128
f 1129 1256 1255
f 1130 1256 1129
f 1130 1257 1256
f 1131 1257 1130
f 1131 1258 1257
f 1132 1259 1258
f 1132 1258 1131
f 1133 1260 1259
f 1133 1259 1132
f 1134 1261 1260
f 1134 1260 1133
f 1135 1262 1261
f 1135 1261 1134
f 1136 1263 1262
f 1136 1262 1135
f 1137 1264 1263
f 1137 1263 1136
f 1138 1265 1264
f 1138 1266 1265
f 1138 1264 1137
f 1139 1266 1138
f 1140 1267 1266
f 1140 1266 1139
f 1141 1268 1267
f 1141 1269 1268
f 1141 1267 1140
f 1142 1270 1269
f 1142 1269 1141
f 1143 1270 1142
f 1144 1271 1270
f 1144 1270 1143
f 1145 1271 1144
f 1145 1272 1271
f 1146 1272 1145
f 1146 1273 1272
f 1147 1273 1146
f 1147 1274 1273
f 1148 1274 1147
f 1148 1275 1274
f 1149 1276 1275
f 1149 1277 1276
f 1149 1275 1148
f 1150 1278 1277
f 1150 1277 1149
f 1151 1278 1150
f 1152 1279 1278
f 1152 1278 1151
f 1153 1280 1279
f 1153 1279 1152
f 1154 1281 1280
f 1154 1280 1153
f 1155 1282 1281
f 1155 1283 1282
f 1155 1281 1154
f 1156 1283 1155
f 1157 1284 1283
f 1157 1283 1156
f 1158 1285 1284
f 1158 1284 1157
f 1159 1286 1285
f 1159 1285 1158
f 1160 1287 1286
f 1160 1286 1159
f 1161 1288 1287
f 1161 1287 1160
f 1162 1289 1288
f 1162 1288 1161
f 1163 1290 1289
f 1163 1289 1162
f 1164 1291 1290
f 1164 1292 1291
f 1164 1290 1163
f 1165 1292 1164
f 1166 1293 1292
f 1166 1294 1293
f 1166 1292 1165
f 1167 1294 1166
f 1168 1295 1294
f 1168 1294 1167
f 1169 1295 1168
f 1169 1296 1295
f 1170 1296 1169
f 1170 1297 1296
f 1171 1297 1170
f 1171 1298 1297
f 1172 1298 1171
f 1172 1299 1298
f 1173 1299 1172
f 1173 1300 1299
f 1174 1300 1173
f 1174 1301 1300
f 1175 1301 1174
f 1175 1302 1301
f 1176 1302 1175
f 1176 1303 1302
f 1177 1303 1176
f 1177 1304 1303
f 1178 1304 1177
f 1178 1305 1304
f 1179 1305 1178
f 1179 1306 1305
f 1180 1306 1179
f 1180 1307 1306
f 1181 1308 1307
f 1181 1307 1180
f 1182 1308 1181
f 1182 1309 1308
f 1183 1310 1309
f 1183 1309 1182
f 1312 1438 1311
f 1312 1439 1438
f 1313 1440 1439
f 1313 1441 1440
f 1313 1439 1312
f 1314 1441 1313
f 1315 1442 1441
f 1315 1443 1442
f 1315 1441 1314
f 1316 1444 1443
f 1316 1443 1315
f 1317 1444 1316
f 1318 1445 1444
f 1318 1444 1317
f 1319 1446 1445
f 1319 1447 1446
f 1319 1445 1318
f 1320 1447 1319
f 1321 1448 1447
f 1321 1447 1320
f 1322 1448 1321
f 1322 1449 1448
f 1323 1449 1322
f 1323 1450 1449
f 1324 1450 1323
f 1324 1451 1450
f 1325 1451 1324
f 1325 1452 1451
f 1326 1452 1325
f 1326 1453 1452
f 1327 1453 1326
f 1327 1454 1453
f 1328 1454 1327
f 1328 1455 1454
f 1329 1455 1328
f 1329 1456 1455
f 1330 1456 1329
f 1330 1457 1456
f 1331 1457 1330
f 1331 1458 1457
f 1332 1458 1331
f 1332 1459 1458
f 1333 1459 1332
f 1333 1460 1459
f 1333 1461 1460
f 1334 1461 1333
f 1335 1462 1461
f 1335 1463 1462
f 1335 1461 1334
f 1336 1463 1335
f 1337 1464 1463
f 1337 1463 1336
f 1338 1465 1464
f 1338 1466 1465
f 1338 1464 1337
f 1339 1466 1338
f 1340 1467 1466
f 1340 1466 1339
f 1341 1468 1467
f 1341 1469 1468
f 1341 1467 1340
f 1342 1469 1341
f 1343 1470 1469
f 1343 1471 1470
f 1343 1469 1342
f 1344 1471 1343
f 1345 1472 1471
f 1345 1473 1472
f 1345 1471 1344
f 1346 1473 1345
f 1347 1473 1346
f 1347 1474 1473
f 1348 1474 1347
f 1348 1475 1474
f 1349 1475 1348
f 1349 1476 1475
f 1350 1476 1349
f 1350 1477 1476
f 1351 1477 1350
f 1351 1478 1477
f 1352 1478 1351
f 1352 1479 1478
f 1353 1479 1352
f 1353 1480 1479
f 1353 1481 1480
f 1354 1481 1353
f 1355 1481 1354
f 1355 1482 1481
f 1355 1483 1482
f 1356 1483 1355
f 1356 1484 1483
f 1357 1484 1356
f 1357 1485 1484
f 1358 1485 1357
f 1359 1485 1358
f 1359 1486 1485
f 1360 1486 1359
f 1360 1487 1486
f 1361 1487 1360
f 1361 1488 1487
f 1362 1488 1361
f 1362 1489 1488
f 1363 1489 1362
f 1363 1490 1489
f 1364 1490 1363
f 1364 1491 1490
f 1365 1491 1364
f 1365 1492 1491
f 1366 1492 1365
f 1366 1493 1492
f 1367 1493 1366
f 1367 1494 1493
f 1367 1495 1494
f 1368 1496 1495
f 1368 1495 1367
f 1369 1496 1368
f 1370 1497 1496
f 1370 1498 1497
f 1370 1496 1369
f 1371 1499 1498
f 1371 1498 1370
f 1372 1499 1371
f 1373 1499 1372
f 1373 1500 1499
f 1374 1500 1373
f 1374 1501 1500
f 1375 1501 1374
f 1375 1502 1501
f 1376 1502 1375
f 1376 1503 1502
f 1377 1503 1376
f 1377 1504 1503
f 1378 1504 1377
f 1378 1505 1504
f 1379 1505 1378
f 1379 1506 1505
f 1380 1506 1379
f 1380 1507 1506
f 1381 1507 1380
f 1381 1508 1507
f 1382 1508 1381
f 1382 1509 1508
f 1383 1509 1382
f 1383 1510 1509
f 1384 1510 1383
f 1384 1511 1510
f 1385 1511 1384
f 1385 1512 1511
f 1386 1513 1512
f 1386 1512 1385
f 1387 1514 1513
f 1387 1513 1386
f 1388 1515 1514
f 1388 1514 1387
f 1389 1516 1515
f 1389 1515 1388
f 1390 1517 1516
f 1390 1516 1389
f 1391 1518 1517
f 1391 1517 1390
f 1392 1519 1518
f 1392 1520 1519
f 1392 1518 1391
f 1393 1520 1392
f 1394 1521 1520
f 1394 1520 1393
f 1395 1522 1521
f 1395 1523 1522
f 1395 1521 1394
f 1396 1524 1523
f 1396 1523 1395
f 1397 1524 1396
f 1398 1525 1524
f 1398 1524 1397
f 1399 1525 1398
f 1399 1526 1525
f 1400 1526 1399
f 1400 1527 1526
f 1401 1527 1400
f 1401 1528 1527
f 1402 1528 1401
f 1402 1529 1528
f 1403 1530 1529
f 1403 1531 1530
f 1403 1529 1402
f 1404 1532 1531
f 1404 1531 1403
f 1405 1532 1404
f 1406 1533 1532
f 1406 1532 1405
f 1407 1534 1533
f 1407 1533 1406
f 1408 1535 1534
f 1408 1534 1407
f 1409 1536 1535
f 1409 1537 1536
f 1409 1535 1408
f 1410 1537 1409
f 1411 1538 1537
f 1411 1537 1410
f 1412 1539 1538
f 1412 1538 1411
f 1413 1540 1539
f 1413 1539 1412
f 1414 1541 1540
f 1414 1540 1413
f 1415 1542 1541
f 1415 1541 1414
f 1416 1543 1542
f 1416 1542 1415
f 1417 1544 1543
f 1417 1543 1416
f 1418 1545 1544
f 1418 1546 1545
f 1418 1544 1417
f 1419 1546 1418
f 1420 1547 1546
f 1420 1548 1547
f 1420 1546 1419
f 1421 1548 1420
f 1422 1549 1548
f 1422 1548 1421
f 1423 1549 1422
f 1423 1550 1549
f 1424 1550 1423
f 1424 1551 1550
f 1425 1551 1424
f 1425 1552 1551
f 1426 1552 1425
f 1426 1553 1552
f 1427 1553 1426
f 1427 1554 1553
f 1428 1554 1427
f 1428 1555 1554
f 1429 1555 1428
f 1429 1556 1555
f 1430 1556 1429
f 1430 1557 1556
f 1431 1557 1430
f 1431 1558 1557
f 1432 1558 1431
f 1432 1559 1558
f 1433 1559 1432
f 1433 1560 1559
f 1434 1560 1433
f 1434 1561 1560
f 1435 1562 1561
f 1435 1561 1434
f 1436 1562 1435
f 1436 1563 1562
f 1437 1564 1563
f 1437 1563 1436
f 1566 1565 1567
f 1566 1567 1568
f 1570 1571 1569
f 1570 1572 1571
f 1574 1575 1573
f 1574 1576 1575
f 1578 1577 1579
f 1578 1579 1580
