# Cadless export: model
v -600 -300 0
v -600 -300 740
v -600 300 0
v -600 300 740
v -600 -300 740
v -600 300 740
v 600 -300 740
v 600 300 740
v 600 -300 0
v 600 -300 740
v 600 300 0
v 600 300 740
v 582 -300 0
v 582 300 0
v 600 -300 0
v 600 300 0
v 582 -300 0
v 582 -300 715
v 582 300 0
v 582 300 715
v -582 300 715
v 582 300 715
v -582 -300 715
v 582 -300 715
v -582 -300 0
v -582 -300 715
v -582 300 0
v -582 300 715
v -582 300 715
v 582 300 715
v -582 300 0
v -600 300 0
v -600 300 740
v 600 300 740
v 600 300 0
v 582 300 0
v -600 -300 0
v -600 300 0
v -582 -300 0
v -582 300 0
v -582 -300 715
v 582 -300 715
v -582 -300 0
v -600 -300 0
v -600 -300 740
v 600 -300 740
v 600 -300 0
v 582 -300 0
f 4 3 1
f 2 4 1
f 8 6 5
f 8 5 7
f 12 9 11
f 10 9 12
f 14 15 13
f 16 15 14
f 20 19 17
f 18 20 17
f 22 23 21
f 22 24 23
f 28 25 27
f 26 25 28
f 29 31 32
f 33 29 32
f 30 35 36
f 34 30 29
f 34 35 30
f 34 29 33
f 38 39 37
f 40 39 38
f 41 44 43
f 45 44 41
f 42 48 47
f 46 41 42
f 46 42 47
f 46 45 41
