# Cadless export: model
v -50 -20 0
v -50 -20 12
v -50 20 0
v -50 20 12
v 50 -20 0
v 50 -20 12
v -50 -20 0
v -50 -20 12
v -25 -20 12
v -25 -20 45
v 25 -20 45
v 25 -20 12
v -50 20 12
v -25 20 12
v -50 -20 12
v -25 -20 12
v 50 20 0
v 50 20 12
v -50 20 0
v -50 20 12
v -25 20 12
v -25 20 45
v 25 20 45
v 25 20 12
v -50 -20 0
v -50 20 0
v 50 -20 0
v 50 20 0
v 50 -20 0
v 50 -20 12
v 50 20 0
v 50 20 12
v 25 20 12
v 50 20 12
v 25 -20 12
v 50 -20 12
v -25 -20 12
v -25 -20 45
v -25 20 12
v -25 20 45
v 25 -20 12
v 25 -20 45
v 25 20 12
v 25 20 45
v -25 -20 45
v -25 20 45
v 25 -20 45
v 25 20 45
f 1 4 3
f 2 4 1
f 9 8 7
f 5 12 9
f 5 9 7
f 6 12 5
f 11 10 9
f 11 9 12
f 14 13 15
f 14 15 16
f 21 19 20
f 17 21 24
f 17 19 21
f 18 17 24
f 23 21 22
f 23 24 21
f 27 25 26
f 28 27 26
f 29 31 32
f 30 29 32
f 34 33 35
f 34 35 36
f 37 40 39
f 38 40 37
f 41 43 44
f 42 41 44
f 47 46 45
f 48 46 47
