# Cadless export: model
v -450 -125 0
v -450 -125 30
v -450 125 0
v -450 125 90
v -450 105 90
v -450 105 30
v -450 -125 30
v -450 105 30
v 450 -125 30
v 450 105 30
v 450 -125 0
v 450 -125 30
v 450 125 0
v 450 125 90
v 450 105 90
v 450 105 30
v -450 105 30
v 450 105 30
v -450 105 90
v 450 105 90
v -450 105 90
v -450 125 90
v 450 105 90
v 450 125 90
v -450 125 0
v 450 125 0
v -450 125 90
v 450 125 90
v -450 -125 0
v -450 125 0
v 450 -125 0
v 450 125 0
v -450 -125 0
v 450 -125 0
v -450 -125 30
v 450 -125 30
f 4 3 6
f 5 4 6
f 1 6 3
f 2 6 1
f 10 8 7
f 10 7 9
f 14 16 13
f 15 16 14
f 11 13 16
f 12 11 16
f 18 19 17
f 20 19 18
f 24 22 21
f 24 21 23
f 28 26 25
f 28 25 27
f 31 29 30
f 32 31 30
f 36 33 34
f 36 35 33
