# Cadless export: model
v -450 -125 0
v -450 -125 30
v -450 125 0
v -450 125 90
v -450 105 90
v -450 105 30
v -450 -125 0
v 450 -125 0
v -450 -125 30
v 450 -125 30
v -450 -125 0
v -450 125 0
v 450 -125 0
v 450 125 0
v -450 125 0
v 450 125 0
v -450 125 90
v 450 125 90
v -347 125 60
v -347.004 125 60.1495
v -347.015 125 60.2987
v -347.034 125 60.4471
v -347.059 125 60.5944
v -347.093 125 60.7403
v -347.133 125 60.8843
v -347.181 125 61.0261
v -347.236 125 61.1653
v -347.297 125 61.3017
v -347.365 125 61.4348
v -347.44 125 61.5643
v -347.521 125 61.69
v -347.609 125 61.8114
v -347.702 125 61.9284
v -347.801 125 62.0405
v -347.905 125 62.1476
v -348.015 125 62.2493
v -348.13 125 62.3455
v -348.249 125 62.4358
v -348.372 125 62.5201
v -348.5 125 62.5981
v -348.631 125 62.6696
v -348.766 125 62.7345
v -348.904 125 62.7926
v -349.045 125 62.8438
v -349.187 125 62.8879
v -349.332 125 62.9248
v -349.479 125 62.9544
v -349.627 125 62.9767
v -349.776 125 62.9916
v -349.925 125 62.9991
v -350.075 125 62.9991
v -350.224 125 62.9916
v -350.373 125 62.9767
v -350.521 125 62.9544
v -350.668 125 62.9248
v -350.813 125 62.8879
v -350.955 125 62.8438
v -351.096 125 62.7926
v -351.234 125 62.7345
v -351.369 125 62.6696
v -351.5 125 62.5981
v -351.628 125 62.5201
v -351.751 125 62.4358
v -351.87 125 62.3455
v -351.985 125 62.2493
v -352.095 125 62.1476
v -352.199 125 62.0405
v -352.298 125 61.9284
v -352.391 125 61.8114
v -352.479 125 61.69
v -352.56 125 61.5643
v -352.635 125 61.4348
v -352.703 125 61.3017
v -352.764 125 61.1653
v -352.819 125 61.0261
v -352.867 125 60.8843
v -352.907 125 60.7403
v -352.941 125 60.5944
v -352.966 125 60.4471
v -352.985 125 60.2987
v -352.996 125 60.1495
v -353 125 60
v -352.996 125 59.8505
v -352.985 125 59.7013
v -352.966 125 59.5529
v -352.941 125 59.4056
v -352.907 125 59.2597
v -352.867 125 59.1157
v -352.819 125 58.9739
v -352.764 125 58.8347
v -352.703 125 58.6983
v -352.635 125 58.5652
v -352.56 125 58.4357
v -352.479 125 58.31
v -352.391 125 58.1886
v -352.298 125 58.0716
v -352.199 125 57.9595
v -352.095 125 57.8524
v -351.985 125 57.7507
v -351.87 125 57.6545
v -351.751 125 57.5642
v -351.628 125 57.4799
v -351.5 125 57.4019
v -351.369 125 57.3304
v -351.234 125 57.2655
v -351.096 125 57.2074
v -350.955 125 57.1562
v -350.813 125 57.1121
v -350.668 125 57.0752
v -350.521 125 57.0456
v -350.373 125 57.0233
v -350.224 125 57.0084
v -350.075 125 57.0009
v -349.925 125 57.0009
v -349.776 125 57.0084
v -349.627 125 57.0233
v -349.479 125 57.0456
v -349.332 125 57.0752
v -349.187 125 57.1121
v -349.045 125 57.1562
v -348.904 125 57.2074
v -348.766 125 57.2655
v -348.631 125 57.3304
v -348.5 125 57.4019
v -348.372 125 57.4799
v -348.249 125 57.5642
v -348.13 125 57.6545
v -348.015 125 57.7507
v -347.905 125 57.8524
v -347.801 125 57.9595
v -347.702 125 58.0716
v -347.609 125 58.1886
v -347.521 125 58.31
v -347.44 125 58.4357
v -347.365 125 58.5652
v -347.297 125 58.6983
v -347.236 125 58.8347
v -347.181 125 58.9739
v -347.133 125 59.1157
v -347.093 125 59.2597
v -347.059 125 59.4056
v -347.034 125 59.5529
v -347.015 125 59.7013
v -347.004 125 59.8505
v 353 125 60
v 352.996 125 60.1495
v 352.985 125 60.2987
v 352.966 125 60.4471
v 352.941 125 60.5944
v 352.907 125 60.7403
v 352.867 125 60.8843
v 352.819 125 61.0261
v 352.764 125 61.1653
v 352.703 125 61.3017
v 352.635 125 61.4348
v 352.56 125 61.5643
v 352.479 125 61.69
v 352.391 125 61.8114
v 352.298 125 61.9284
v 352.199 125 62.0405
v 352.095 125 62.1476
v 351.985 125 62.2493
v 351.87 125 62.3455
v 351.751 125 62.4358
v 351.628 125 62.5201
v 351.5 125 62.5981
v 351.369 125 62.6696
v 351.234 125 62.7345
v 351.096 125 62.7926
v 350.955 125 62.8438
v 350.813 125 62.8879
v 350.668 125 62.9248
v 350.521 125 62.9544
v 350.373 125 62.9767
v 350.224 125 62.9916
v 350.075 125 62.9991
v 349.925 125 62.9991
v 349.776 125 62.9916
v 349.627 125 62.9767
v 349.479 125 62.9544
v 349.332 125 62.9248
v 349.187 125 62.8879
v 349.045 125 62.8438
v 348.904 125 62.7926
v 348.766 125 62.7345
v 348.631 125 62.6696
v 348.5 125 62.5981
v 348.372 125 62.5201
v 348.249 125 62.4358
v 348.13 125 62.3455
v 348.015 125 62.2493
v 347.905 125 62.1476
v 347.801 125 62.0405
v 347.702 125 61.9284
v 347.609 125 61.8114
v 347.521 125 61.69
v 347.44 125 61.5643
v 347.365 125 61.4348
v 347.297 125 61.3017
v 347.236 125 61.1653
v 347.181 125 61.0261
v 347.133 125 60.8843
v 347.093 125 60.7403
v 347.059 125 60.5944
v 347.034 125 60.4471
v 347.015 125 60.2987
v 347.004 125 60.1495
v 347 125 60
v 347.004 125 59.8505
v 347.015 125 59.7013
v 347.034 125 59.5529
v 347.059 125 59.4056
v 347.093 125 59.2597
v 347.133 125 59.1157
v 347.181 125 58.9739
v 347.236 125 58.8347
v 347.297 125 58.6983
v 347.365 125 58.5652
v 347.44 125 58.4357
v 347.521 125 58.31
v 347.609 125 58.1886
v 347.702 125 58.0716
v 347.801 125 57.9595
v 347.905 125 57.8524
v 348.015 125 57.7507
v 348.13 125 57.6545
v 348.249 125 57.5642
v 348.372 125 57.4799
v 348.5 125 57.4019
v 348.631 125 57.3304
v 348.766 125 57.2655
v 348.904 125 57.2074
v 349.045 125 57.1562
v 349.187 125 57.1121
v 349.332 125 57.0752
v 349.479 125 57.0456
v 349.627 125 57.0233
v 349.776 125 57.0084
v 349.925 125 57.0009
v 350.075 125 57.0009
v 350.224 125 57.0084
v 350.373 125 57.0233
v 350.521 125 57.0456
v 350.668 125 57.0752
v 350.813 125 57.1121
v 350.955 125 57.1562
v 351.096 125 57.2074
v 351.234 125 57.2655
v 351.369 125 57.3304
v 351.5 125 57.4019
v 351.628 125 57.4799
v 351.751 125 57.5642
v 351.87 125 57.6545
v 351.985 125 57.7507
v 352.095 125 57.8524
v 352.199 125 57.9595
v 352.298 125 58.0716
v 352.391 125 58.1886
v 352.479 125 58.31
v 352.56 125 58.4357
v 352.635 125 58.5652
v 352.703 125 58.6983
v 352.764 125 58.8347
v 352.819 125 58.9739
v 352.867 125 59.1157
v 352.907 125 59.2597
v 352.941 125 59.4056
v 352.966 125 59.5529
v 352.985 125 59.7013
v 352.996 125 59.8505
v -450 105 90
v -450 125 90
v 450 105 90
v 450 125 90
v -450 105 30
v 450 105 30
v -450 105 90
v 450 105 90
v -347 105 60
v -347.004 105 60.1495
v -347.015 105 60.2987
v -347.034 105 60.4471
v -347.059 105 60.5944
v -347.093 105 60.7403
v -347.133 105 60.8843
v -347.181 105 61.0261
v -347.236 105 61.1653
v -347.297 105 61.3017
v -347.365 105 61.4348
v -347.44 105 61.5643
v -347.521 105 61.69
v -347.609 105 61.8114
v -347.702 105 61.9284
v -347.801 105 62.0405
v -347.905 105 62.1476
v -348.015 105 62.2493
v -348.13 105 62.3455
v -348.249 105 62.4358
v -348.372 105 62.5201
v -348.5 105 62.5981
v -348.631 105 62.6696
v -348.766 105 62.7345
v -348.904 105 62.7926
v -349.045 105 62.8438
v -349.187 105 62.8879
v -349.332 105 62.9248
v -349.479 105 62.9544
v -349.627 105 62.9767
v -349.776 105 62.9916
v -349.925 105 62.9991
v -350.075 105 62.9991
v -350.224 105 62.9916
v -350.373 105 62.9767
v -350.521 105 62.9544
v -350.668 105 62.9248
v -350.813 105 62.8879
v -350.955 105 62.8438
v -351.096 105 62.7926
v -351.234 105 62.7345
v -351.369 105 62.6696
v -351.5 105 62.5981
v -351.628 105 62.5201
v -351.751 105 62.4358
v -351.87 105 62.3455
v -351.985 105 62.2493
v -352.095 105 62.1476
v -352.199 105 62.0405
v -352.298 105 61.9284
v -352.391 105 61.8114
v -352.479 105 61.69
v -352.56 105 61.5643
v -352.635 105 61.4348
v -352.703 105 61.3017
v -352.764 105 61.1653
v -352.819 105 61.0261
v -352.867 105 60.8843
v -352.907 105 60.7403
v -352.941 105 60.5944
v -352.966 105 60.4471
v -352.985 105 60.2987
v -352.996 105 60.1495
v -353 105 60
v -352.996 105 59.8505
v -352.985 105 59.7013
v -352.966 105 59.5529
v -352.941 105 59.4056
v -352.907 105 59.2597
v -352.867 105 59.1157
v -352.819 105 58.9739
v -352.764 105 58.8347
v -352.703 105 58.6983
v -352.635 105 58.5652
v -352.56 105 58.4357
v -352.479 105 58.31
v -352.391 105 58.1886
v -352.298 105 58.0716
v -352.199 105 57.9595
v -352.095 105 57.8524
v -351.985 105 57.7507
v -351.87 105 57.6545
v -351.751 105 57.5642
v -351.628 105 57.4799
v -351.5 105 57.4019
v -351.369 105 57.3304
v -351.234 105 57.2655
v -351.096 105 57.2074
v -350.955 105 57.1562
v -350.813 105 57.1121
v -350.668 105 57.0752
v -350.521 105 57.0456
v -350.373 105 57.0233
v -350.224 105 57.0084
v -350.075 105 57.0009
v -349.925 105 57.0009
v -349.776 105 57.0084
v -349.627 105 57.0233
v -349.479 105 57.0456
v -349.332 105 57.0752
v -349.187 105 57.1121
v -349.045 105 57.1562
v -348.904 105 57.2074
v -348.766 105 57.2655
v -348.631 105 57.3304
v -348.5 105 57.4019
v -348.372 105 57.4799
v -348.249 105 57.5642
v -348.13 105 57.6545
v -348.015 105 57.7507
v -347.905 105 57.8524
v -347.801 105 57.9595
v -347.702 105 58.0716
v -347.609 105 58.1886
v -347.521 105 58.31
v -347.44 105 58.4357
v -347.365 105 58.5652
v -347.297 105 58.6983
v -347.236 105 58.8347
v -347.181 105 58.9739
v -347.133 105 59.1157
v -347.093 105 59.2597
v -347.059 105 59.4056
v -347.034 105 59.5529
v -347.015 105 59.7013
v -347.004 105 59.8505
v 353 105 60
v 352.996 105 60.1495
v 352.985 105 60.2987
v 352.966 105 60.4471
v 352.941 105 60.5944
v 352.907 105 60.7403
v 352.867 105 60.8843
v 352.819 105 61.0261
v 352.764 105 61.1653
v 352.703 105 61.3017
v 352.635 105 61.4348
v 352.56 105 61.5643
v 352.479 105 61.69
v 352.391 105 61.8114
v 352.298 105 61.9284
v 352.199 105 62.0405
v 352.095 105 62.1476
v 351.985 105 62.2493
v 351.87 105 62.3455
v 351.751 105 62.4358
v 351.628 105 62.5201
v 351.5 105 62.5981
v 351.369 105 62.6696
v 351.234 105 62.7345
v 351.096 105 62.7926
v 350.955 105 62.8438
v 350.813 105 62.8879
v 350.668 105 62.9248
v 350.521 105 62.9544
v 350.373 105 62.9767
v 350.224 105 62.9916
v 350.075 105 62.9991
v 349.925 105 62.9991
v 349.776 105 62.9916
v 349.627 105 62.9767
v 349.479 105 62.9544
v 349.332 105 62.9248
v 349.187 105 62.8879
v 349.045 105 62.8438
v 348.904 105 62.7926
v 348.766 105 62.7345
v 348.631 105 62.6696
v 348.5 105 62.5981
v 348.372 105 62.5201
v 348.249 105 62.4358
v 348.13 105 62.3455
v 348.015 105 62.2493
v 347.905 105 62.1476
v 347.801 105 62.0405
v 347.702 105 61.9284
v 347.609 105 61.8114
v 347.521 105 61.69
v 347.44 105 61.5643
v 347.365 105 61.4348
v 347.297 105 61.3017
v 347.236 105 61.1653
v 347.181 105 61.0261
v 347.133 105 60.8843
v 347.093 105 60.7403
v 347.059 105 60.5944
v 347.034 105 60.4471
v 347.015 105 60.2987
v 347.004 105 60.1495
v 347 105 60
v 347.004 105 59.8505
v 347.015 105 59.7013
v 347.034 105 59.5529
v 347.059 105 59.4056
v 347.093 105 59.2597
v 347.133 105 59.1157
v 347.181 105 58.9739
v 347.236 105 58.8347
v 347.297 105 58.6983
v 347.365 105 58.5652
v 347.44 105 58.4357
v 347.521 105 58.31
v 347.609 105 58.1886
v 347.702 105 58.0716
v 347.801 105 57.9595
v 347.905 105 57.8524
v 348.015 105 57.7507
v 348.13 105 57.6545
v 348.249 105 57.5642
v 348.372 105 57.4799
v 348.5 105 57.4019
v 348.631 105 57.3304
v 348.766 105 57.2655
v 348.904 105 57.2074
v 349.045 105 57.1562
v 349.187 105 57.1121
v 349.332 105 57.0752
v 349.479 105 57.0456
v 349.627 105 57.0233
v 349.776 105 57.0084
v 349.925 105 57.0009
v 350.075 105 57.0009
v 350.224 105 57.0084
v 350.373 105 57.0233
v 350.521 105 57.0456
v 350.668 105 57.0752
v 350.813 105 57.1121
v 350.955 105 57.1562
v 351.096 105 57.2074
v 351.234 105 57.2655
v 351.369 105 57.3304
v 351.5 105 57.4019
v 351.628 105 57.4799
v 351.751 105 57.5642
v 351.87 105 57.6545
v 351.985 105 57.7507
v 352.095 105 57.8524
v 352.199 105 57.9595
v 352.298 105 58.0716
v 352.391 105 58.1886
v 352.479 105 58.31
v 352.56 105 58.4357
v 352.635 105 58.5652
v 352.703 105 58.6983
v 352.764 105 58.8347
v 352.819 105 58.9739
v 352.867 105 59.1157
v 352.907 105 59.2597
v 352.941 105 59.4056
v 352.966 105 59.5529
v 352.985 105 59.7013
v 352.996 105 59.8505
v -450 -125 30
v -450 105 30
v 450 -125 30
v 450 105 30
v 450 -125 0
v 450 -125 30
v 450 125 0
v 450 125 90
v 450 105 90
v 450 105 30
v -347 105 60
v -347.004 105 60.1495
v -347.015 105 60.2987
v -347.034 105 60.4471
v -347.059 105 60.5944
v -347.093 105 60.7403
v -347.133 105 60.8843
v -347.181 105 61.0261
v -347.236 105 61.1653
v -347.297 105 61.3017
v -347.365 105 61.4348
v -347.44 105 61.5643
v -347.521 105 61.69
v -347.609 105 61.8114
v -347.702 105 61.9284
v -347.801 105 62.0405
v -347.905 105 62.1476
v -348.015 105 62.2493
v -348.13 105 62.3455
v -348.249 105 62.4358
v -348.372 105 62.5201
v -348.5 105 62.5981
v -348.631 105 62.6696
v -348.766 105 62.7345
v -348.904 105 62.7926
v -349.045 105 62.8438
v -349.187 105 62.8879
v -349.332 105 62.9248
v -349.479 105 62.9544
v -349.627 105 62.9767
v -349.776 105 62.9916
v -349.925 105 62.9991
v -350.075 105 62.9991
v -350.224 105 62.9916
v -350.373 105 62.9767
v -350.521 105 62.9544
v -350.668 105 62.9248
v -350.813 105 62.8879
v -350.955 105 62.8438
v -351.096 105 62.7926
v -351.234 105 62.7345
v -351.369 105 62.6696
v -351.5 105 62.5981
v -351.628 105 62.5201
v -351.751 105 62.4358
v -351.87 105 62.3455
v -351.985 105 62.2493
v -352.095 105 62.1476
v -352.199 105 62.0405
v -352.298 105 61.9284
v -352.391 105 61.8114
v -352.479 105 61.69
v -352.56 105 61.5643
v -352.635 105 61.4348
v -352.703 105 61.3017
v -352.764 105 61.1653
v -352.819 105 61.0261
v -352.867 105 60.8843
v -352.907 105 60.7403
v -352.941 105 60.5944
v -352.966 105 60.4471
v -352.985 105 60.2987
v -352.996 105 60.1495
v -353 105 60
v -352.996 105 59.8505
v -352.985 105 59.7013
v -352.966 105 59.5529
v -352.941 105 59.4056
v -352.907 105 59.2597
v -352.867 105 59.1157
v -352.819 105 58.9739
v -352.764 105 58.8347
v -352.703 105 58.6983
v -352.635 105 58.5652
v -352.56 105 58.4357
v -352.479 105 58.31
v -352.391 105 58.1886
v -352.298 105 58.0716
v -352.199 105 57.9595
v -352.095 105 57.8524
v -351.985 105 57.7507
v -351.87 105 57.6545
v -351.751 105 57.5642
v -351.628 105 57.4799
v -351.5 105 57.4019
v -351.369 105 57.3304
v -351.234 105 57.2655
v -351.096 105 57.2074
v -350.955 105 57.1562
v -350.813 105 57.1121
v -350.668 105 57.0752
v -350.521 105 57.0456
v -350.373 105 57.0233
v -350.224 105 57.0084
v -350.075 105 57.0009
v -349.925 105 57.0009
v -349.776 105 57.0084
v -349.627 105 57.0233
v -349.479 105 57.0456
v -349.332 105 57.0752
v -349.187 105 57.1121
v -349.045 105 57.1562
v -348.904 105 57.2074
v -348.766 105 57.2655
v -348.631 105 57.3304
v -348.5 105 57.4019
v -348.372 105 57.4799
v -348.249 105 57.5642
v -348.13 105 57.6545
v -348.015 105 57.7507
v -347.905 105 57.8524
v -347.801 105 57.9595
v -347.702 105 58.0716
v -347.609 105 58.1886
v -347.521 105 58.31
v -347.44 105 58.4357
v -347.365 105 58.5652
v -347.297 105 58.6983
v -347.236 105 58.8347
v -347.181 105 58.9739
v -347.133 105 59.1157
v -347.093 105 59.2597
v -347.059 105 59.4056
v -347.034 105 59.5529
v -347.015 105 59.7013
v -347.004 105 59.8505
v -347 105 60
v -347 125 60
v -347.004 125 60.1495
v -347.015 125 60.2987
v -347.034 125 60.4471
v -347.059 125 60.5944
v -347.093 125 60.7403
v -347.133 125 60.8843
v -347.181 125 61.0261
v -347.236 125 61.1653
v -347.297 125 61.3017
v -347.365 125 61.4348
v -347.44 125 61.5643
v -347.521 125 61.69
v -347.609 125 61.8114
v -347.702 125 61.9284
v -347.801 125 62.0405
v -347.905 125 62.1476
v -348.015 125 62.2493
v -348.13 125 62.3455
v -348.249 125 62.4358
v -348.372 125 62.5201
v -348.5 125 62.5981
v -348.631 125 62.6696
v -348.766 125 62.7345
v -348.904 125 62.7926
v -349.045 125 62.8438
v -349.187 125 62.8879
v -349.332 125 62.9248
v -349.479 125 62.9544
v -349.627 125 62.9767
v -349.776 125 62.9916
v -349.925 125 62.9991
v -350.075 125 62.9991
v -350.224 125 62.9916
v -350.373 125 62.9767
v -350.521 125 62.9544
v -350.668 125 62.9248
v -350.813 125 62.8879
v -350.955 125 62.8438
v -351.096 125 62.7926
v -351.234 125 62.7345
v -351.369 125 62.6696
v -351.5 125 62.5981
v -351.628 125 62.5201
v -351.751 125 62.4358
v -351.87 125 62.3455
v -351.985 125 62.2493
v -352.095 125 62.1476
v -352.199 125 62.0405
v -352.298 125 61.9284
v -352.391 125 61.8114
v -352.479 125 61.69
v -352.56 125 61.5643
v -352.635 125 61.4348
v -352.703 125 61.3017
v -352.764 125 61.1653
v -352.819 125 61.0261
v -352.867 125 60.8843
v -352.907 125 60.7403
v -352.941 125 60.5944
v -352.966 125 60.4471
v -352.985 125 60.2987
v -352.996 125 60.1495
v -353 125 60
v -352.996 125 59.8505
v -352.985 125 59.7013
v -352.966 125 59.5529
v -352.941 125 59.4056
v -352.907 125 59.2597
v -352.867 125 59.1157
v -352.819 125 58.9739
v -352.764 125 58.8347
v -352.703 125 58.6983
v -352.635 125 58.5652
v -352.56 125 58.4357
v -352.479 125 58.31
v -352.391 125 58.1886
v -352.298 125 58.0716
v -352.199 125 57.9595
v -352.095 125 57.8524
v -351.985 125 57.7507
v -351.87 125 57.6545
v -351.751 125 57.5642
v -351.628 125 57.4799
v -351.5 125 57.4019
v -351.369 125 57.3304
v -351.234 125 57.2655
v -351.096 125 57.2074
v -350.955 125 57.1562
v -350.813 125 57.1121
v -350.668 125 57.0752
v -350.521 125 57.0456
v -350.373 125 57.0233
v -350.224 125 57.0084
v -350.075 125 57.0009
v -349.925 125 57.0009
v -349.776 125 57.0084
v -349.627 125 57.0233
v -349.479 125 57.0456
v -349.332 125 57.0752
v -349.187 125 57.1121
v -349.045 125 57.1562
v -348.904 125 57.2074
v -348.766 125 57.2655
v -348.631 125 57.3304
v -348.5 125 57.4019
v -348.372 125 57.4799
v -348.249 125 57.5642
v -348.13 125 57.6545
v -348.015 125 57.7507
v -347.905 125 57.8524
v -347.801 125 57.9595
v -347.702 125 58.0716
v -347.609 125 58.1886
v -347.521 125 58.31
v -347.44 125 58.4357
v -347.365 125 58.5652
v -347.297 125 58.6983
v -347.236 125 58.8347
v -347.181 125 58.9739
v -347.133 125 59.1157
v -347.093 125 59.2597
v -347.059 125 59.4056
v -347.034 125 59.5529
v -347.015 125 59.7013
v -347.004 125 59.8505
v -347 125 60
v 353 105 60
v 352.996 105 60.1495
v 352.985 105 60.2987
v 352.966 105 60.4471
v 352.941 105 60.5944
v 352.907 105 60.7403
v 352.867 105 60.8843
v 352.819 105 61.0261
v 352.764 105 61.1653
v 352.703 105 61.3017
v 352.635 105 61.4348
v 352.56 105 61.5643
v 352.479 105 61.69
v 352.391 105 61.8114
v 352.298 105 61.9284
v 352.199 105 62.0405
v 352.095 105 62.1476
v 351.985 105 62.2493
v 351.87 105 62.3455
v 351.751 105 62.4358
v 351.628 105 62.5201
v 351.5 105 62.5981
v 351.369 105 62.6696
v 351.234 105 62.7345
v 351.096 105 62.7926
v 350.955 105 62.8438
v 350.813 105 62.8879
v 350.668 105 62.9248
v 350.521 105 62.9544
v 350.373 105 62.9767
v 350.224 105 62.9916
v 350.075 105 62.9991
v 349.925 105 62.9991
v 349.776 105 62.9916
v 349.627 105 62.9767
v 349.479 105 62.9544
v 349.332 105 62.9248
v 349.187 105 62.8879
v 349.045 105 62.8438
v 348.904 105 62.7926
v 348.766 105 62.7345
v 348.631 105 62.6696
v 348.5 105 62.5981
v 348.372 105 62.5201
v 348.249 105 62.4358
v 348.13 105 62.3455
v 348.015 105 62.2493
v 347.905 105 62.1476
v 347.801 105 62.0405
v 347.702 105 61.9284
v 347.609 105 61.8114
v 347.521 105 61.69
v 347.44 105 61.5643
v 347.365 105 61.4348
v 347.297 105 61.3017
v 347.236 105 61.1653
v 347.181 105 61.0261
v 347.133 105 60.8843
v 347.093 105 60.7403
v 347.059 105 60.5944
v 347.034 105 60.4471
v 347.015 105 60.2987
v 347.004 105 60.1495
v 347 105 60
v 347.004 105 59.8505
v 347.015 105 59.7013
v 347.034 105 59.5529
v 347.059 105 59.4056
v 347.093 105 59.2597
v 347.133 105 59.1157
v 347.181 105 58.9739
v 347.236 105 58.8347
v 347.297 105 58.6983
v 347.365 105 58.5652
v 347.44 105 58.4357
v 347.521 105 58.31
v 347.609 105 58.1886
v 347.702 105 58.0716
v 347.801 105 57.9595
v 347.905 105 57.8524
v 348.015 105 57.7507
v 348.13 105 57.6545
v 348.249 105 57.5642
v 348.372 105 57.4799
v 348.5 105 57.4019
v 348.631 105 57.3304
v 348.766 105 57.2655
v 348.904 105 57.2074
v 349.045 105 57.1562
v 349.187 105 57.1121
v 349.332 105 57.0752
v 349.479 105 57.0456
v 349.627 105 57.0233
v 349.776 105 57.0084
v 349.925 105 57.0009
v 350.075 105 57.0009
v 350.224 105 57.0084
v 350.373 105 57.0233
v 350.521 105 57.0456
v 350.668 105 57.0752
v 350.813 105 57.1121
v 350.955 105 57.1562
v 351.096 105 57.2074
v 351.234 105 57.2655
v 351.369 105 57.3304
v 351.5 105 57.4019
v 351.628 105 57.4799
v 351.751 105 57.5642
v 351.87 105 57.6545
v 351.985 105 57.7507
v 352.095 105 57.8524
v 352.199 105 57.9595
v 352.298 105 58.0716
v 352.391 105 58.1886
v 352.479 105 58.31
v 352.56 105 58.4357
v 352.635 105 58.5652
v 352.703 105 58.6983
v 352.764 105 58.8347
v 352.819 105 58.9739
v 352.867 105 59.1157
v 352.907 105 59.2597
v 352.941 105 59.4056
v 352.966 105 59.5529
v 352.985 105 59.7013
v 352.996 105 59.8505
v 353 105 60
v 353 125 60
v 352.996 125 60.1495
v 352.985 125 60.2987
v 352.966 125 60.4471
v 352.941 125 60.5944
v 352.907 125 60.7403
v 352.867 125 60.8843
v 352.819 125 61.0261
v 352.764 125 61.1653
v 352.703 125 61.3017
v 352.635 125 61.4348
v 352.56 125 61.5643
v 352.479 125 61.69
v 352.391 125 61.8114
v 352.298 125 61.9284
v 352.199 125 62.0405
v 352.095 125 62.1476
v 351.985 125 62.2493
v 351.87 125 62.3455
v 351.751 125 62.4358
v 351.628 125 62.5201
v 351.5 125 62.5981
v 351.369 125 62.6696
v 351.234 125 62.7345
v 351.096 125 62.7926
v 350.955 125 62.8438
v 350.813 125 62.8879
v 350.668 125 62.9248
v 350.521 125 62.9544
v 350.373 125 62.9767
v 350.224 125 62.9916
v 350.075 125 62.9991
v 349.925 125 62.9991
v 349.776 125 62.9916
v 349.627 125 62.9767
v 349.479 125 62.9544
v 349.332 125 62.9248
v 349.187 125 62.8879
v 349.045 125 62.8438
v 348.904 125 62.7926
v 348.766 125 62.7345
v 348.631 125 62.6696
v 348.5 125 62.5981
v 348.372 125 62.5201
v 348.249 125 62.4358
v 348.13 125 62.3455
v 348.015 125 62.2493
v 347.905 125 62.1476
v 347.801 125 62.0405
v 347.702 125 61.9284
v 347.609 125 61.8114
v 347.521 125 61.69
v 347.44 125 61.5643
v 347.365 125 61.4348
v 347.297 125 61.3017
v 347.236 125 61.1653
v 347.181 125 61.0261
v 347.133 125 60.8843
v 347.093 125 60.7403
v 347.059 125 60.5944
v 347.034 125 60.4471
v 347.015 125 60.2987
v 347.004 125 60.1495
v 347 125 60
v 347.004 125 59.8505
v 347.015 125 59.7013
v 347.034 125 59.5529
v 347.059 125 59.4056
v 347.093 125 59.2597
v 347.133 125 59.1157
v 347.181 125 58.9739
v 347.236 125 58.8347
v 347.297 125 58.6983
v 347.365 125 58.5652
v 347.44 125 58.4357
v 347.521 125 58.31
v 347.609 125 58.1886
v 347.702 125 58.0716
v 347.801 125 57.9595
v 347.905 125 57.8524
v 348.015 125 57.7507
v 348.13 125 57.6545
v 348.249 125 57.5642
v 348.372 125 57.4799
v 348.5 125 57.4019
v 348.631 125 57.3304
v 348.766 125 57.2655
v 348.904 125 57.2074
v 349.045 125 57.1562
v 349.187 125 57.1121
v 349.332 125 57.0752
v 349.479 125 57.0456
v 349.627 125 57.0233
v 349.776 125 57.0084
v 349.925 125 57.0009
v 350.075 125 57.0009
v 350.224 125 57.0084
v 350.373 125 57.0233
v 350.521 125 57.0456
v 350.668 125 57.0752
v 350.813 125 57.1121
v 350.955 125 57.1562
v 351.096 125 57.2074
v 351.234 125 57.2655
v 351.369 125 57.3304
v 351.5 125 57.4019
v 351.628 125 57.4799
v 351.751 125 57.5642
v 351.87 125 57.6545
v 351.985 125 57.7507
v 352.095 125 57.8524
v 352.199 125 57.9595
v 352.298 125 58.0716
v 352.391 125 58.1886
v 352.479 125 58.31
v 352.56 125 58.4357
v 352.635 125 58.5652
v 352.703 125 58.6983
v 352.764 125 58.8347
v 352.819 125 58.9739
v 352.867 125 59.1157
v 352.907 125 59.2597
v 352.941 125 59.4056
v 352.966 125 59.5529
v 352.985 125 59.7013
v 352.996 125 59.8505
v 353 125 60
f 4 3 6
f 5 4 6
f 1 6 3
f 2 6 1
f 10 7 8
f 10 9 7
f 13 11 12
f 14 13 12
f 97 98 15
f 99 15 98
f 96 97 15
f 100 15 99
f 95 96 15
f 101 15 100
f 94 95 15
f 102 15 101
f 93 94 15
f 103 15 102
f 92 93 15
f 104 15 103
f 91 92 15
f 105 15 104
f 90 91 15
f 106 15 105
f 89 90 15
f 107 15 106
f 88 89 15
f 108 15 107
f 87 15 17
f 87 88 15
f 109 15 108
f 86 87 17
f 110 15 109
f 85 86 17
f 111 15 110
f 84 85 17
f 112 15 111
f 83 84 17
f 113 15 112
f 82 83 17
f 114 15 113
f 81 82 17
f 115 15 114
f 80 81 17
f 116 15 115
f 79 80 17
f 117 15 116
f 78 79 17
f 118 15 117
f 77 78 17
f 119 15 118
f 76 77 17
f 120 15 119
f 75 76 17
f 121 15 120
f 74 75 17
f 122 15 121
f 73 74 17
f 72 73 17
f 71 72 17
f 70 71 17
f 69 70 17
f 68 69 17
f 67 68 17
f 66 67 17
f 65 66 17
f 64 65 17
f 63 64 17
f 62 63 17
f 61 62 17
f 60 61 17
f 59 60 17
f 58 59 17
f 57 58 17
f 56 57 17
f 55 56 17
f 54 55 17
f 53 54 17
f 52 53 17
f 51 52 17
f 50 51 17
f 49 50 17
f 48 49 17
f 47 48 17
f 224 129 130
f 223 224 130
f 225 128 129
f 225 129 224
f 222 130 131
f 222 131 132
f 222 223 130
f 226 126 127
f 226 127 128
f 226 128 225
f 221 222 132
f 227 126 226
f 220 132 133
f 220 133 134
f 220 221 132
f 228 125 126
f 228 126 227
f 219 134 135
f 219 220 134
f 229 124 125
f 229 125 228
f 218 219 135
f 217 135 136
f 217 218 135
f 216 136 137
f 216 217 136
f 215 137 138
f 215 138 139
f 215 216 137
f 214 215 139
f 213 214 139
f 213 139 140
f 212 140 141
f 212 213 140
f 211 141 142
f 211 212 141
f 210 142 143
f 210 211 142
f 209 143 144
f 209 210 143
f 208 144 19
f 208 209 144
f 207 19 20
f 207 208 19
f 206 20 21
f 206 207 20
f 205 21 22
f 205 206 21
f 204 205 22
f 204 22 23
f 203 23 24
f 203 204 23
f 202 24 25
f 202 203 24
f 201 25 26
f 201 202 25
f 200 26 27
f 200 201 26
f 199 27 28
f 199 200 27
f 198 28 29
f 198 199 28
f 197 29 30
f 197 198 29
f 196 197 30
f 196 30 31
f 195 31 32
f 195 196 31
f 195 32 33
f 194 195 33
f 193 33 34
f 193 194 33
f 192 34 35
f 192 193 34
f 191 35 36
f 191 192 35
f 190 36 37
f 190 191 36
f 189 37 38
f 189 190 37
f 188 38 39
f 188 189 38
f 187 39 40
f 187 188 39
f 16 231 232
f 16 232 233
f 16 233 234
f 16 234 235
f 16 235 236
f 16 236 237
f 16 237 238
f 16 238 239
f 16 239 240
f 16 240 241
f 16 241 242
f 16 242 243
f 16 243 244
f 16 244 245
f 16 245 246
f 16 246 247
f 16 247 248
f 16 248 249
f 16 249 250
f 16 250 251
f 16 251 252
f 16 252 253
f 16 253 254
f 16 254 255
f 16 255 256
f 16 256 257
f 16 257 258
f 16 258 259
f 16 259 260
f 16 260 261
f 16 261 262
f 16 262 263
f 16 263 264
f 16 264 265
f 16 265 266
f 18 145 146
f 18 146 147
f 18 147 148
f 18 148 149
f 18 149 150
f 18 150 151
f 18 151 152
f 18 152 153
f 18 153 154
f 18 154 155
f 18 155 156
f 18 156 157
f 18 157 158
f 18 158 159
f 18 159 160
f 18 160 161
f 18 161 162
f 18 16 266
f 18 162 163
f 18 163 164
f 18 164 165
f 18 266 267
f 18 165 166
f 18 267 268
f 18 166 167
f 18 268 269
f 18 167 168
f 18 269 270
f 18 168 169
f 18 169 170
f 18 270 145
f 18 170 171
f 18 171 172
f 18 172 173
f 18 173 174
f 18 174 175
f 18 175 176
f 18 176 177
f 18 177 178
f 18 178 179
f 18 179 180
f 16 15 231
f 231 15 230
f 230 15 229
f 229 15 122
f 229 122 123
f 229 123 124
f 17 18 180
f 17 180 181
f 17 181 182
f 17 182 183
f 17 183 184
f 17 184 185
f 17 185 186
f 17 186 187
f 17 187 47
f 47 187 46
f 46 187 45
f 45 187 44
f 44 187 43
f 43 187 42
f 42 187 41
f 41 187 40
f 274 272 271
f 274 271 273
f 357 275 358
f 359 358 275
f 356 275 357
f 360 359 275
f 355 275 356
f 361 360 275
f 354 275 355
f 362 361 275
f 353 275 354
f 363 362 275
f 352 275 353
f 364 363 275
f 351 275 352
f 365 364 275
f 350 275 351
f 366 365 275
f 349 275 350
f 367 366 275
f 348 275 349
f 368 367 275
f 347 275 348
f 369 368 275
f 346 275 347
f 370 369 275
f 345 275 346
f 371 370 275
f 344 275 345
f 372 371 275
f 343 275 344
f 373 372 275
f 342 277 275
f 342 275 343
f 374 373 275
f 341 277 342
f 375 374 275
f 340 277 341
f 376 375 275
f 339 277 340
f 377 376 275
f 338 277 339
f 337 277 338
f 336 277 337
f 335 277 336
f 334 277 335
f 333 277 334
f 332 277 333
f 331 277 332
f 330 277 331
f 329 277 330
f 328 277 329
f 327 277 328
f 326 277 327
f 325 277 326
f 324 277 325
f 323 277 324
f 322 277 323
f 321 277 322
f 320 277 321
f 319 277 320
f 318 277 319
f 317 277 318
f 316 277 317
f 315 277 316
f 314 277 315
f 313 277 314
f 312 277 313
f 311 277 312
f 310 277 311
f 309 277 310
f 308 277 309
f 307 277 308
f 484 389 388
f 484 390 389
f 483 390 484
f 485 484 388
f 482 391 390
f 482 390 483
f 486 387 386
f 486 388 387
f 486 485 388
f 481 392 391
f 481 391 482
f 487 486 386
f 480 392 481
f 480 393 392
f 488 386 385
f 488 487 386
f 479 394 393
f 479 393 480
f 478 395 394
f 478 394 479
f 477 395 478
f 477 396 395
f 476 397 396
f 476 398 397
f 476 396 477
f 475 398 476
f 474 399 398
f 474 398 475
f 473 399 474
f 473 400 399
f 472 401 400
f 472 400 473
f 471 402 401
f 471 401 472
f 470 402 471
f 470 403 402
f 469 404 403
f 469 403 470
f 468 280 279
f 468 279 404
f 468 404 469
f 467 280 468
f 466 281 280
f 466 280 467
f 465 282 281
f 465 281 466
f 464 283 282
f 464 282 465
f 463 284 283
f 463 285 284
f 463 283 464
f 462 285 463
f 461 286 285
f 461 285 462
f 460 287 286
f 460 286 461
f 459 288 287
f 459 287 460
f 458 288 459
f 458 289 288
f 457 290 289
f 457 289 458
f 456 290 457
f 456 291 290
f 455 292 291
f 455 291 456
f 454 293 292
f 454 292 455
f 453 294 293
f 453 293 454
f 452 295 294
f 452 294 453
f 451 295 452
f 451 296 295
f 450 297 296
f 450 296 451
f 449 298 297
f 449 297 450
f 448 299 298
f 448 298 449
f 276 497 496
f 276 498 497
f 276 499 498
f 276 500 499
f 276 501 500
f 276 502 501
f 276 503 502
f 276 504 503
f 276 505 504
f 276 506 505
f 276 507 506
f 276 508 507
f 276 509 508
f 276 510 509
f 276 511 510
f 276 512 511
f 276 513 512
f 276 514 513
f 276 515 514
f 276 516 515
f 276 517 516
f 276 518 517
f 276 519 518
f 276 520 519
f 276 521 520
f 276 522 521
f 276 523 522
f 276 524 523
f 276 525 524
f 276 526 525
f 276 527 526
f 276 528 527
f 276 529 528
f 276 530 529
f 276 405 530
f 278 406 405
f 278 407 406
f 278 408 407
f 278 409 408
f 278 410 409
f 278 411 410
f 278 412 411
f 278 413 412
f 278 414 413
f 278 415 414
f 278 416 415
f 278 417 416
f 278 418 417
f 278 419 418
f 278 420 419
f 278 421 420
f 278 422 421
f 278 423 422
f 278 424 423
f 278 425 424
f 278 426 425
f 278 427 426
f 278 428 427
f 278 429 428
f 278 430 429
f 278 431 430
f 278 432 431
f 278 433 432
f 278 434 433
f 278 435 434
f 278 436 435
f 278 405 276
f 278 437 436
f 278 438 437
f 278 439 438
f 278 440 439
f 276 496 275
f 496 495 275
f 495 494 275
f 494 493 275
f 493 492 275
f 492 491 275
f 491 490 275
f 490 489 275
f 489 488 275
f 488 377 275
f 488 378 377
f 488 379 378
f 488 380 379
f 488 381 380
f 488 382 381
f 488 383 382
f 488 384 383
f 488 385 384
f 277 440 278
f 277 441 440
f 277 442 441
f 277 443 442
f 277 444 443
f 277 445 444
f 277 446 445
f 277 447 446
f 277 448 447
f 277 307 448
f 307 306 448
f 306 305 448
f 305 304 448
f 304 303 448
f 303 302 448
f 302 301 448
f 301 300 448
f 300 299 448
f 534 532 531
f 534 531 533
f 538 540 537
f 539 540 538
f 535 537 540
f 536 535 540
f 541 669 668
f 542 669 541
f 543 670 669
f 543 671 670
f 543 669 542
f 544 671 543
f 545 672 671
f 545 673 672
f 545 671 544
f 546 673 545
f 547 674 673
f 547 673 546
f 548 675 674
f 548 676 675
f 548 674 547
f 549 676 548
f 550 677 676
f 550 678 677
f 550 676 549
f 551 678 550
f 552 678 551
f 552 679 678
f 552 680 679
f 553 680 552
f 554 680 553
f 554 681 680
f 555 681 554
f 555 682 681
f 555 683 682
f 556 683 555
f 556 684 683
f 557 684 556
f 558 684 557
f 558 685 684
f 559 685 558
f 559 686 685
f 560 686 559
f 560 687 686
f 561 687 560
f 561 688 687
f 562 688 561
f 562 689 688
f 563 689 562
f 563 690 689
f 564 691 690
f 564 690 563
f 565 692 691
f 565 691 564
f 566 693 692
f 566 692 565
f 567 694 693
f 567 695 694
f 567 693 566
f 568 695 567
f 569 696 695
f 569 697 696
f 569 695 568
f 570 697 569
f 571 698 697
f 571 699 698
f 571 697 570
f 572 700 699
f 572 699 571
f 573 700 572
f 574 701 700
f 574 700 573
f 575 702 701
f 575 701 574
f 576 703 702
f 576 702 575
f 577 704 703
f 577 703 576
f 578 704 577
f 578 705 704
f 578 706 705
f 579 706 578
f 579 707 706
f 580 707 579
f 581 707 580
f 581 708 707
f 582 708 581
f 582 709 708
f 583 709 582
f 583 710 709
f 584 710 583
f 584 711 710
f 585 711 584
f 585 712 711
f 586 712 585
f 586 713 712
f 586 714 713
f 587 714 586
f 588 714 587
f 588 715 714
f 589 715 588
f 589 716 715
f 590 716 589
f 590 717 716
f 591 717 590
f 591 718 717
f 591 719 718
f 592 719 591
f 593 719 592
f 593 720 719
f 593 721 720
f 594 721 593
f 595 721 594
f 595 722 721
f 596 722 595
f 596 723 722
f 597 723 596
f 597 724 723
f 598 724 597
f 598 725 724
f 598 726 725
f 599 726 598
f 600 727 726
f 600 726 599
f 601 728 727
f 601 729 728
f 601 727 600
f 602 730 729
f 602 729 601
f 603 730 602
f 603 731 730
f 604 731 603
f 604 732 731
f 605 732 604
f 606 732 605
f 606 733 732
f 606 734 733
f 607 734 606
f 607 735 734
f 608 735 607
f 609 735 608
f 609 736 735
f 610 736 609
f 610 737 736
f 610 738 737
f 611 738 610
f 612 738 611
f 612 739 738
f 613 739 612
f 613 740 739
f 614 740 613
f 614 741 740
f 615 741 614
f 615 742 741
f 616 743 742
f 616 742 615
f 617 744 743
f 617 743 616
f 618 745 744
f 618 744 617
f 619 746 745
f 619 745 618
f 620 747 746
f 620 746 619
f 621 748 747
f 621 747 620
f 622 749 748
f 622 748 621
f 623 750 749
f 623 749 622
f 624 751 750
f 624 752 751
f 624 750 623
f 625 752 624
f 626 753 752
f 626 752 625
f 627 754 753
f 627 755 754
f 627 753 626
f 628 755 627
f 629 755 628
f 629 756 755
f 630 756 629
f 630 757 756
f 631 757 630
f 631 758 757
f 631 759 758
f 632 759 631
f 632 760 759
f 633 760 632
f 634 761 760
f 634 762 761
f 634 760 633
f 635 762 634
f 636 763 762
f 636 762 635
f 637 764 763
f 637 763 636
f 638 765 764
f 638 764 637
f 639 766 765
f 639 765 638
f 640 767 766
f 640 766 639
f 641 768 767
f 641 767 640
f 642 769 768
f 642 768 641
f 643 770 769
f 643 771 770
f 643 769 642
f 644 772 771
f 644 771 643
f 645 773 772
f 645 772 644
f 646 773 645
f 647 774 773
f 647 773 646
f 648 775 774
f 648 774 647
f 649 776 775
f 649 775 648
f 650 777 776
f 650 776 649
f 651 778 777
f 651 777 650
f 652 779 778
f 652 780 779
f 652 778 651
f 653 780 652
f 654 780 653
f 654 781 780
f 654 782 781
f 655 782 654
f 656 782 655
f 656 783 782
f 657 783 656
f 657 784 783
f 657 785 784
f 658 785 657
f 659 785 658
f 659 786 785
f 660 786 659
f 660 787 786
f 660 788 787
f 661 788 660
f 662 788 661
f 662 789 788
f 663 789 662
f 663 790 789
f 664 790 663
f 664 791 790
f 665 791 664
f 665 792 791
f 666 793 792
f 666 792 665
f 667 794 793
f 667 793 666
f 795 923 922
f 796 923 795
f 797 924 923
f 797 925 924
f 797 923 796
f 798 925 797
f 799 926 925
f 799 927 926
f 799 925 798
f 800 927 799
f 801 928 927
f 801 927 800
f 802 929 928
f 802 930 929
f 802 928 801
f 803 930 802
f 804 931 930
f 804 932 931
f 804 930 803
f 805 932 804
f 806 932 805
f 806 933 932
f 806 934 933
f 807 934 806
f 808 934 807
f 808 935 934
f 809 935 808
f 809 936 935
f 809 937 936
f 810 937 809
f 810 938 937
f 811 938 810
f 812 938 811
f 812 939 938
f 813 939 812
f 813 940 939
f 814 940 813
f 814 941 940
f 815 941 814
f 815 942 941
f 816 942 815
f 816 943 942
f 817 943 816
f 817 944 943
f 818 945 944
f 818 944 817
f 819 946 945
f 819 945 818
f 820 947 946
f 820 946 819
f 821 948 947
f 821 949 948
f 821 947 820
f 822 949 821
f 823 950 949
f 823 951 950
f 823 949 822
f 824 951 823
f 825 952 951
f 825 953 952
f 825 951 824
f 826 954 953
f 826 953 825
f 827 954 826
f 828 955 954
f 828 954 827
f 829 956 955
f 829 955 828
f 830 957 956
f 830 956 829
f 831 958 957
f 831 957 830
f 832 958 831
f 832 959 958
f 832 960 959
f 833 960 832
f 833 961 960
f 834 961 833
f 835 961 834
f 835 962 961
f 836 962 835
f 836 963 962
f 837 963 836
f 837 964 963
f 838 964 837
f 838 965 964
f 839 965 838
f 839 966 965
f 840 966 839
f 840 967 966
f 840 968 967
f 841 968 840
f 842 968 841
f 842 969 968
f 843 969 842
f 843 970 969
f 844 970 843
f 844 971 970
f 845 971 844
f 845 972 971
f 845 973 972
f 846 973 845
f 847 973 846
f 847 974 973
f 847 975 974
f 848 975 847
f 849 975 848
f 849 976 975
f 850 976 849
f 850 977 976
f 851 977 850
f 851 978 977
f 852 978 851
f 852 979 978
f 852 980 979
f 853 980 852
f 854 981 980
f 854 980 853
f 855 982 981
f 855 983 982
f 855 981 854
f 856 984 983
f 856 983 855
f 857 984 856
f 857 985 984
f 858 985 857
f 858 986 985
f 859 986 858
f 860 986 859
f 860 987 986
f 860 988 987
f 861 988 860
f 861 989 988
f 862 989 861
f 863 989 862
f 863 990 989
f 864 990 863
f 864 991 990
f 864 992 991
f 865 992 864
f 866 992 865
f 866 993 992
f 867 993 866
f 867 994 993
f 868 994 867
f 868 995 994
f 869 995 868
f 869 996 995
f 870 997 996
f 870 996 869
f 871 998 997
f 871 997 870
f 872 999 998
f 872 998 871
f 873 1000 999
f 873 999 872
f 874 1001 1000
f 874 1000 873
f 875 1002 1001
f 875 1001 874
f 876 1003 1002
f 876 1002 875
f 877 1004 1003
f 877 1003 876
f 878 1005 1004
f 878 1006 1005
f 878 1004 877
f 879 1006 878
f 880 1007 1006
f 880 1006 879
f 881 1008 1007
f 881 1009 1008
f 881 1007 880
f 882 1009 881
f 883 1009 882
f 883 1010 1009
f 884 1010 883
f 884 1011 1010
f 885 1011 884
f 885 1012 1011
f 885 1013 1012
f 886 1013 885
f 886 1014 1013
f 887 1014 886
f 888 1015 1014
f 888 1016 1015
f 888 1014 887
f 889 1016 888
f 890 1017 1016
f 890 1016 889
f 891 1018 1017
f 891 1017 890
f 892 1019 1018
f 892 1018 891
f 893 1020 1019
f 893 1019 892
f 894 1021 1020
f 894 1020 893
f 895 1022 1021
f 895 1021 894
f 896 1023 1022
f 896 1022 895
f 897 1024 1023
f 897 1025 1024
f 897 1023 896
f 898 1026 1025
f 898 1025 897
f 899 1027 1026
f 899 1026 898
f 900 1027 899
f 901 1028 1027
f 901 1027 900
f 902 1029 1028
f 902 1028 901
f 903 1030 1029
f 903 1029 902
f 904 1031 1030
f 904 1030 903
f 905 1032 1031
f 905 1031 904
f 906 1033 1032
f 906 1034 1033
f 906 1032 905
f 907 1034 906
f 908 1034 907
f 908 1035 1034
f 908 1036 1035
f 909 1036 908
f 910 1036 909
f 910 1037 1036
f 911 1037 910
f 911 1038 1037
f 911 1039 1038
f 912 1039 911
f 913 1039 912
f 913 1040 1039
f 914 1040 913
f 914 1041 1040
f 914 1042 1041
f 915 1042 914
f 916 1042 915
f 916 1043 1042
f 917 1043 916
f 917 1044 1043
f 918 1044 917
f 918 1045 1044
f 919 1045 918
f 919 1046 1045
f 920 1047 1046
f 920 1046 919
f 921 1048 1047
f 921 1047 920
