# Cadless export: model
v 6 -1.46958e-15 8
v 6 -1.46958e-15 80
v 6 -1.46958e-15 80
v 5.99254 0.299075 80
v 5.97018 0.597407 80
v 5.93298 0.894254 80
v 5.88103 1.18888 80
v 5.81446 1.48054 80
v 5.73344 1.76853 80
v 5.63816 2.05212 80
v 5.52886 2.33061 80
v 5.40581 2.6033 80
v 5.26933 2.86952 80
v 5.11975 3.12861 80
v 4.95743 3.37992 80
v 4.7828 3.62283 80
v 4.59627 3.85673 80
v 4.39831 4.08104 80
v 4.18942 4.2952 80
v 3.97012 4.49869 80
v 3.74094 4.69099 80
v 3.50246 4.87163 80
v 3.25528 5.04016 80
v 3 5.19615 80
v 2.73726 5.33923 80
v 2.46772 5.46904 80
v 2.19205 5.58524 80
v 1.91092 5.68756 80
v 1.62504 5.77575 80
v 1.33513 5.84957 80
v 1.04189 5.90885 80
v 0.746062 5.95344 80
v 0.448381 5.98322 80
v 0.149584 5.99814 80
v -0.149584 5.99814 80
v -0.448381 5.98322 80
v -0.746062 5.95344 80
v -1.04189 5.90885 80
v -1.33513 5.84957 80
v -1.62504 5.77575 80
v -1.91092 5.68756 80
v -2.19205 5.58524 80
v -2.46772 5.46904 80
v -2.73726 5.33923 80
v -3 5.19615 80
v -3.25528 5.04016 80
v -3.50246 4.87163 80
v -3.74094 4.69099 80
v -3.97012 4.49869 80
v -4.18942 4.2952 80
v -4.39831 4.08104 80
v -4.59627 3.85673 80
v -4.7828 3.62283 80
v -4.95743 3.37992 80
v -5.11975 3.12861 80
v -5.26933 2.86952 80
v -5.40581 2.6033 80
v -5.52886 2.33061 80
v -5.63816 2.05212 80
v -5.73344 1.76853 80
v -5.81446 1.48054 80
v -5.88103 1.18888 80
v -5.93298 0.894254 80
v -5.97018 0.597407 80
v -5.99254 0.299075 80
v -6 -2.05815e-14 80
v -5.99254 -0.299075 80
v -5.97018 -0.597407 80
v -5.93298 -0.894254 80
v -5.88103 -1.18888 80
v -5.81446 -1.48054 80
v -5.73344 -1.76853 80
v -5.63816 -2.05212 80
v -5.52886 -2.33061 80
v -5.40581 -2.6033 80
v -5.26933 -2.86952 80
v -5.11975 -3.12861 80
v -4.95743 -3.37992 80
v -4.7828 -3.62283 80
v -4.59627 -3.85673 80
v -4.39831 -4.08104 80
v -4.18942 -4.2952 80
v -3.97012 -4.49869 80
v -3.74094 -4.69099 80
v -3.50246 -4.87163 80
v -3.25528 -5.04016 80
v -3 -5.19615 80
v -2.73726 -5.33923 80
v -2.46772 -5.46904 80
v -2.19205 -5.58524 80
v -1.91092 -5.68756 80
v -1.62504 -5.77575 80
v -1.33513 -5.84957 80
v -1.04189 -5.90885 80
v -0.746062 -5.95344 80
v -0.448381 -5.98322 80
v -0.149584 -5.99814 80
v 0.149584 -5.99814 80
v 0.448381 -5.98322 80
v 0.746062 -5.95344 80
v 1.04189 -5.90885 80
v 1.33513 -5.84957 80
v 1.62504 -5.77575 80
v 1.91092 -5.68756 80
v 2.19205 -5.58524 80
v 2.46772 -5.46904 80
v 2.73726 -5.33923 80
v 3 -5.19615 80
v 3.25528 -5.04016 80
v 3.50246 -4.87163 80
v 3.74094 -4.69099 80
v 3.97012 -4.49869 80
v 4.18942 -4.2952 80
v 4.39831 -4.08104 80
v 4.59627 -3.85673 80
v 4.7828 -3.62283 80
v 4.95743 -3.37992 80
v 5.11975 -3.12861 80
v 5.26933 -2.86952 80
v 5.40581 -2.6033 80
v 5.52886 -2.33061 80
v 5.63816 -2.05212 80
v 5.73344 -1.76853 80
v 5.81446 -1.48054 80
v 5.88103 -1.18888 80
v 5.93298 -0.894254 80
v 5.97018 -0.597407 80
v 5.99254 -0.299075 80
v 6 -1.46958e-15 8
v 5.99254 0.299075 8
v 5.97018 0.597407 8
v 5.93298 0.894254 8
v 5.88103 1.18888 8
v 5.81446 1.48054 8
v 5.73344 1.76853 8
v 5.63816 2.05212 8
v 5.52886 2.33061 8
v 5.40581 2.6033 8
v 5.26933 2.86952 8
v 5.11975 3.12861 8
v 4.95743 3.37992 8
v 4.7828 3.62283 8
v 4.59627 3.85673 8
v 4.39831 4.08104 8
v 4.18942 4.2952 8
v 3.97012 4.49869 8
v 3.74094 4.69099 8
v 3.50246 4.87163 8
v 3.25528 5.04016 8
v 3 5.19615 8
v 2.73726 5.33923 8
v 2.46772 5.46904 8
v 2.19205 5.58524 8
v 1.91092 5.68756 8
v 1.62504 5.77575 8
v 1.33513 5.84957 8
v 1.04189 5.90885 8
v 0.746062 5.95344 8
v 0.448381 5.98322 8
v 0.149584 5.99814 8
v -0.149584 5.99814 8
v -0.448381 5.98322 8
v -0.746062 5.95344 8
v -1.04189 5.90885 8
v -1.33513 5.84957 8
v -1.62504 5.77575 8
v -1.91092 5.68756 8
v -2.19205 5.58524 8
v -2.46772 5.46904 8
v -2.73726 5.33923 8
v -3 5.19615 8
v -3.25528 5.04016 8
v -3.50246 4.87163 8
v -3.74094 4.69099 8
v -3.97012 4.49869 8
v -4.18942 4.2952 8
v -4.39831 4.08104 8
v -4.59627 3.85673 8
v -4.7828 3.62283 8
v -4.95743 3.37992 8
v -5.11975 3.12861 8
v -5.26933 2.86952 8
v -5.40581 2.6033 8
v -5.52886 2.33061 8
v -5.63816 2.05212 8
v -5.73344 1.76853 8
v -5.81446 1.48054 8
v -5.88103 1.18888 8
v -5.93298 0.894254 8
v -5.97018 0.597407 8
v -5.99254 0.299075 8
v -6 -2.05815e-14 8
v -5.99254 -0.299075 8
v -5.97018 -0.597407 8
v -5.93298 -0.894254 8
v -5.88103 -1.18888 8
v -5.81446 -1.48054 8
v -5.73344 -1.76853 8
v -5.63816 -2.05212 8
v -5.52886 -2.33061 8
v -5.40581 -2.6033 8
v -5.26933 -2.86952 8
v -5.11975 -3.12861 8
v -4.95743 -3.37992 8
v -4.7828 -3.62283 8
v -4.59627 -3.85673 8
v -4.39831 -4.08104 8
v -4.18942 -4.2952 8
v -3.97012 -4.49869 8
v -3.74094 -4.69099 8
v -3.50246 -4.87163 8
v -3.25528 -5.04016 8
v -3 -5.19615 8
v -2.73726 -5.33923 8
v -2.46772 -5.46904 8
v -2.19205 -5.58524 8
v -1.91092 -5.68756 8
v -1.62504 -5.77575 8
v -1.33513 -5.84957 8
v -1.04189 -5.90885 8
v -0.746062 -5.95344 8
v -0.448381 -5.98322 8
v -0.149584 -5.99814 8
v 0.149584 -5.99814 8
v 0.448381 -5.98322 8
v 0.746062 -5.95344 8
v 1.04189 -5.90885 8
v 1.33513 -5.84957 8
v 1.62504 -5.77575 8
v 1.91092 -5.68756 8
v 2.19205 -5.58524 8
v 2.46772 -5.46904 8
v 2.73726 -5.33923 8
v 3 -5.19615 8
v 3.25528 -5.04016 8
v 3.50246 -4.87163 8
v 3.74094 -4.69099 8
v 3.97012 -4.49869 8
v 4.18942 -4.2952 8
v 4.39831 -4.08104 8
v 4.59627 -3.85673 8
v 4.7828 -3.62283 8
v 4.95743 -3.37992 8
v 5.11975 -3.12861 8
v 5.26933 -2.86952 8
v 5.40581 -2.6033 8
v 5.52886 -2.33061 8
v 5.63816 -2.05212 8
v 5.73344 -1.76853 8
v 5.81446 -1.48054 8
v 5.88103 -1.18888 8
v 5.93298 -0.894254 8
v 5.97018 -0.597407 8
v 5.99254 -0.299075 8
v 20 -4.89859e-15 8
v 19.9751 0.996918 8
v 19.9006 1.99136 8
v 19.7766 2.98085 8
v 19.6034 3.96292 8
v 19.3815 4.93515 8
v 19.1115 5.8951 8
v 18.7939 6.8404 8
v 18.4295 7.7687 8
v 18.0194 8.67767 8
v 17.5644 9.56508 8
v 17.0658 10.4287 8
v 16.5248 11.2664 8
v 15.9427 12.0761 8
v 15.3209 12.8558 8
v 14.661 13.6035 8
v 13.9647 14.3173 8
v 13.2337 14.9956 8
v 12.4698 15.6366 8
v 11.6749 16.2388 8
v 10.8509 16.8005 8
v 10 17.3205 8
v 9.12421 17.7974 8
v 8.22574 18.2301 8
v 7.30682 18.6175 8
v 6.36973 18.9585 8
v 5.41681 19.2525 8
v 4.45042 19.4986 8
v 3.47296 19.6962 8
v 2.48687 19.8448 8
v 1.4946 19.9441 8
v 0.498614 19.9938 8
v -0.498614 19.9938 8
v -1.4946 19.9441 8
v -2.48687 19.8448 8
v -3.47296 19.6962 8
v -4.45042 19.4986 8
v -5.41681 19.2525 8
v -6.36973 18.9585 8
v -7.30682 18.6175 8
v -8.22574 18.2301 8
v -9.12421 17.7974 8
v -10 17.3205 8
v -10.8509 16.8005 8
v -11.6749 16.2388 8
v -12.4698 15.6366 8
v -13.2337 14.9956 8
v -13.9647 14.3173 8
v -14.661 13.6035 8
v -15.3209 12.8558 8
v -15.9427 12.0761 8
v -16.5248 11.2664 8
v -17.0658 10.4287 8
v -17.5644 9.56508 8
v -18.0194 8.67767 8
v -18.4295 7.7687 8
v -18.7939 6.8404 8
v -19.1115 5.8951 8
v -19.3815 4.93515 8
v -19.6034 3.96292 8
v -19.7766 2.98085 8
v -19.9006 1.99136 8
v -19.9751 0.996918 8
v -20 -6.8605e-14 8
v -19.9751 -0.996918 8
v -19.9006 -1.99136 8
v -19.7766 -2.98085 8
v -19.6034 -3.96292 8
v -19.3815 -4.93515 8
v -19.1115 -5.8951 8
v -18.7939 -6.8404 8
v -18.4295 -7.7687 8
v -18.0194 -8.67767 8
v -17.5644 -9.56508 8
v -17.0658 -10.4287 8
v -16.5248 -11.2664 8
v -15.9427 -12.0761 8
v -15.3209 -12.8558 8
v -14.661 -13.6035 8
v -13.9647 -14.3173 8
v -13.2337 -14.9956 8
v -12.4698 -15.6366 8
v -11.6749 -16.2388 8
v -10.8509 -16.8005 8
v -10 -17.3205 8
v -9.12421 -17.7974 8
v -8.22574 -18.2301 8
v -7.30682 -18.6175 8
v -6.36973 -18.9585 8
v -5.41681 -19.2525 8
v -4.45042 -19.4986 8
v -3.47296 -19.6962 8
v -2.48687 -19.8448 8
v -1.4946 -19.9441 8
v -0.498614 -19.9938 8
v 0.498614 -19.9938 8
v 1.4946 -19.9441 8
v 2.48687 -19.8448 8
v 3.47296 -19.6962 8
v 4.45042 -19.4986 8
v 5.41681 -19.2525 8
v 6.36973 -18.9585 8
v 7.30682 -18.6175 8
v 8.22574 -18.2301 8
v 9.12421 -17.7974 8
v 10 -17.3205 8
v 10.8509 -16.8005 8
v 11.6749 -16.2388 8
v 12.4698 -15.6366 8
v 13.2337 -14.9956 8
v 13.9647 -14.3173 8
v 14.661 -13.6035 8
v 15.3209 -12.8558 8
v 15.9427 -12.0761 8
v 16.5248 -11.2664 8
v 17.0658 -10.4287 8
v 17.5644 -9.56508 8
v 18.0194 -8.67767 8
v 18.4295 -7.7687 8
v 18.7939 -6.8404 8
v 19.1115 -5.8951 8
v 19.3815 -4.93515 8
v 19.6034 -3.96292 8
v 19.7766 -2.98085 8
v 19.9006 -1.99136 8
v 19.9751 -0.996918 8
v 6 -1.46958e-15 8
v 5.99254 0.299075 8
v 5.97018 0.597407 8
v 5.93298 0.894254 8
v 5.88103 1.18888 8
v 5.81446 1.48054 8
v 5.73344 1.76853 8
v 5.63816 2.05212 8
v 5.52886 2.33061 8
v 5.40581 2.6033 8
v 5.26933 2.86952 8
v 5.11975 3.12861 8
v 4.95743 3.37992 8
v 4.7828 3.62283 8
v 4.59627 3.85673 8
v 4.39831 4.08104 8
v 4.18942 4.2952 8
v 3.97012 4.49869 8
v 3.74094 4.69099 8
v 3.50246 4.87163 8
v 3.25528 5.04016 8
v 3 5.19615 8
v 2.73726 5.33923 8
v 2.46772 5.46904 8
v 2.19205 5.58524 8
v 1.91092 5.68756 8
v 1.62504 5.77575 8
v 1.33513 5.84957 8
v 1.04189 5.90885 8
v 0.746062 5.95344 8
v 0.448381 5.98322 8
v 0.149584 5.99814 8
v -0.149584 5.99814 8
v -0.448381 5.98322 8
v -0.746062 5.95344 8
v -1.04189 5.90885 8
v -1.33513 5.84957 8
v -1.62504 5.77575 8
v -1.91092 5.68756 8
v -2.19205 5.58524 8
v -2.46772 5.46904 8
v -2.73726 5.33923 8
v -3 5.19615 8
v -3.25528 5.04016 8
v -3.50246 4.87163 8
v -3.74094 4.69099 8
v -3.97012 4.49869 8
v -4.18942 4.2952 8
v -4.39831 4.08104 8
v -4.59627 3.85673 8
v -4.7828 3.62283 8
v -4.95743 3.37992 8
v -5.11975 3.12861 8
v -5.26933 2.86952 8
v -5.40581 2.6033 8
v -5.52886 2.33061 8
v -5.63816 2.05212 8
v -5.73344 1.76853 8
v -5.81446 1.48054 8
v -5.88103 1.18888 8
v -5.93298 0.894254 8
v -5.97018 0.597407 8
v -5.99254 0.299075 8
v -6 -2.05815e-14 8
v -5.99254 -0.299075 8
v -5.97018 -0.597407 8
v -5.93298 -0.894254 8
v -5.88103 -1.18888 8
v -5.81446 -1.48054 8
v -5.73344 -1.76853 8
v -5.63816 -2.05212 8
v -5.52886 -2.33061 8
v -5.40581 -2.6033 8
v -5.26933 -2.86952 8
v -5.11975 -3.12861 8
v -4.95743 -3.37992 8
v -4.7828 -3.62283 8
v -4.59627 -3.85673 8
v -4.39831 -4.08104 8
v -4.18942 -4.2952 8
v -3.97012 -4.49869 8
v -3.74094 -4.69099 8
v -3.50246 -4.87163 8
v -3.25528 -5.04016 8
v -3 -5.19615 8
v -2.73726 -5.33923 8
v -2.46772 -5.46904 8
v -2.19205 -5.58524 8
v -1.91092 -5.68756 8
v -1.62504 -5.77575 8
v -1.33513 -5.84957 8
v -1.04189 -5.90885 8
v -0.746062 -5.95344 8
v -0.448381 -5.98322 8
v -0.149584 -5.99814 8
v 0.149584 -5.99814 8
v 0.448381 -5.98322 8
v 0.746062 -5.95344 8
v 1.04189 -5.90885 8
v 1.33513 -5.84957 8
v 1.62504 -5.77575 8
v 1.91092 -5.68756 8
v 2.19205 -5.58524 8
v 2.46772 -5.46904 8
v 2.73726 -5.33923 8
v 3 -5.19615 8
v 3.25528 -5.04016 8
v 3.50246 -4.87163 8
v 3.74094 -4.69099 8
v 3.97012 -4.49869 8
v 4.18942 -4.2952 8
v 4.39831 -4.08104 8
v 4.59627 -3.85673 8
v 4.7828 -3.62283 8
v 4.95743 -3.37992 8
v 5.11975 -3.12861 8
v 5.26933 -2.86952 8
v 5.40581 -2.6033 8
v 5.52886 -2.33061 8
v 5.63816 -2.05212 8
v 5.73344 -1.76853 8
v 5.81446 -1.48054 8
v 5.88103 -1.18888 8
v 5.93298 -0.894254 8
v 5.97018 -0.597407 8
v 5.99254 -0.299075 8
v 6 -1.46958e-15 80
v 5.99254 0.299075 80
v 5.97018 0.597407 80
v 5.93298 0.894254 80
v 5.88103 1.18888 80
v 5.81446 1.48054 80
v 5.73344 1.76853 80
v 5.63816 2.05212 80
v 5.52886 2.33061 80
v 5.40581 2.6033 80
v 5.26933 2.86952 80
v 5.11975 3.12861 80
v 4.95743 3.37992 80
v 4.7828 3.62283 80
v 4.59627 3.85673 80
v 4.39831 4.08104 80
v 4.18942 4.2952 80
v 3.97012 4.49869 80
v 3.74094 4.69099 80
v 3.50246 4.87163 80
v 3.25528 5.04016 80
v 3 5.19615 80
v 2.73726 5.33923 80
v 2.46772 5.46904 80
v 2.19205 5.58524 80
v 1.91092 5.68756 80
v 1.62504 5.77575 80
v 1.33513 5.84957 80
v 1.04189 5.90885 80
v 0.746062 5.95344 80
v 0.448381 5.98322 80
v 0.149584 5.99814 80
v -0.149584 5.99814 80
v -0.448381 5.98322 80
v -0.746062 5.95344 80
v -1.04189 5.90885 80
v -1.33513 5.84957 80
v -1.62504 5.77575 80
v -1.91092 5.68756 80
v -2.19205 5.58524 80
v -2.46772 5.46904 80
v -2.73726 5.33923 80
v -3 5.19615 80
v -3.25528 5.04016 80
v -3.50246 4.87163 80
v -3.74094 4.69099 80
v -3.97012 4.49869 80
v -4.18942 4.2952 80
v -4.39831 4.08104 80
v -4.59627 3.85673 80
v -4.7828 3.62283 80
v -4.95743 3.37992 80
v -5.11975 3.12861 80
v -5.26933 2.86952 80
v -5.40581 2.6033 80
v -5.52886 2.33061 80
v -5.63816 2.05212 80
v -5.73344 1.76853 80
v -5.81446 1.48054 80
v -5.88103 1.18888 80
v -5.93298 0.894254 80
v -5.97018 0.597407 80
v -5.99254 0.299075 80
v -6 -2.05815e-14 80
v -5.99254 -0.299075 80
v -5.97018 -0.597407 80
v -5.93298 -0.894254 80
v -5.88103 -1.18888 80
v -5.81446 -1.48054 80
v -5.73344 -1.76853 80
v -5.63816 -2.05212 80
v -5.52886 -2.33061 80
v -5.40581 -2.6033 80
v -5.26933 -2.86952 80
v -5.11975 -3.12861 80
v -4.95743 -3.37992 80
v -4.7828 -3.62283 80
v -4.59627 -3.85673 80
v -4.39831 -4.08104 80
v -4.18942 -4.2952 80
v -3.97012 -4.49869 80
v -3.74094 -4.69099 80
v -3.50246 -4.87163 80
v -3.25528 -5.04016 80
v -3 -5.19615 80
v -2.73726 -5.33923 80
v -2.46772 -5.46904 80
v -2.19205 -5.58524 80
v -1.91092 -5.68756 80
v -1.62504 -5.77575 80
v -1.33513 -5.84957 80
v -1.04189 -5.90885 80
v -0.746062 -5.95344 80
v -0.448381 -5.98322 80
v -0.149584 -5.99814 80
v 0.149584 -5.99814 80
v 0.448381 -5.98322 80
v 0.746062 -5.95344 80
v 1.04189 -5.90885 80
v 1.33513 -5.84957 80
v 1.62504 -5.77575 80
v 1.91092 -5.68756 80
v 2.19205 -5.58524 80
v 2.46772 -5.46904 80
v 2.73726 -5.33923 80
v 3 -5.19615 80
v 3.25528 -5.04016 80
v 3.50246 -4.87163 80
v 3.74094 -4.69099 80
v 3.97012 -4.49869 80
v 4.18942 -4.2952 80
v 4.39831 -4.08104 80
v 4.59627 -3.85673 80
v 4.7828 -3.62283 80
v 4.95743 -3.37992 80
v 5.11975 -3.12861 80
v 5.26933 -2.86952 80
v 5.40581 -2.6033 80
v 5.52886 -2.33061 80
v 5.63816 -2.05212 80
v 5.73344 -1.76853 80
v 5.81446 -1.48054 80
v 5.88103 -1.18888 80
v 5.93298 -0.894254 80
v 5.97018 -0.597407 80
v 5.99254 -0.299075 80
v 20 -4.89859e-15 8
v 19.9751 0.996918 8
v 19.9006 1.99136 8
v 19.7766 2.98085 8
v 19.6034 3.96292 8
v 19.3815 4.93515 8
v 19.1115 5.8951 8
v 18.7939 6.8404 8
v 18.4295 7.7687 8
v 18.0194 8.67767 8
v 17.5644 9.56508 8
v 17.0658 10.4287 8
v 16.5248 11.2664 8
v 15.9427 12.0761 8
v 15.3209 12.8558 8
v 14.661 13.6035 8
v 13.9647 14.3173 8
v 13.2337 14.9956 8
v 12.4698 15.6366 8
v 11.6749 16.2388 8
v 10.8509 16.8005 8
v 10 17.3205 8
v 9.12421 17.7974 8
v 8.22574 18.2301 8
v 7.30682 18.6175 8
v 6.36973 18.9585 8
v 5.41681 19.2525 8
v 4.45042 19.4986 8
v 3.47296 19.6962 8
v 2.48687 19.8448 8
v 1.4946 19.9441 8
v 0.498614 19.9938 8
v -0.498614 19.9938 8
v -1.4946 19.9441 8
v -2.48687 19.8448 8
v -3.47296 19.6962 8
v -4.45042 19.4986 8
v -5.41681 19.2525 8
v -6.36973 18.9585 8
v -7.30682 18.6175 8
v -8.22574 18.2301 8
v -9.12421 17.7974 8
v -10 17.3205 8
v -10.8509 16.8005 8
v -11.6749 16.2388 8
v -12.4698 15.6366 8
v -13.2337 14.9956 8
v -13.9647 14.3173 8
v -14.661 13.6035 8
v -15.3209 12.8558 8
v -15.9427 12.0761 8
v -16.5248 11.2664 8
v -17.0658 10.4287 8
v -17.5644 9.56508 8
v -18.0194 8.67767 8
v -18.4295 7.7687 8
v -18.7939 6.8404 8
v -19.1115 5.8951 8
v -19.3815 4.93515 8
v -19.6034 3.96292 8
v -19.7766 2.98085 8
v -19.9006 1.99136 8
v -19.9751 0.996918 8
v -20 -6.8605e-14 8
v -19.9751 -0.996918 8
v -19.9006 -1.99136 8
v -19.7766 -2.98085 8
v -19.6034 -3.96292 8
v -19.3815 -4.93515 8
v -19.1115 -5.8951 8
v -18.7939 -6.8404 8
v -18.4295 -7.7687 8
v -18.0194 -8.67767 8
v -17.5644 -9.56508 8
v -17.0658 -10.4287 8
v -16.5248 -11.2664 8
v -15.9427 -12.0761 8
v -15.3209 -12.8558 8
v -14.661 -13.6035 8
v -13.9647 -14.3173 8
v -13.2337 -14.9956 8
v -12.4698 -15.6366 8
v -11.6749 -16.2388 8
v -10.8509 -16.8005 8
v -10 -17.3205 8
v -9.12421 -17.7974 8
v -8.22574 -18.2301 8
v -7.30682 -18.6175 8
v -6.36973 -18.9585 8
v -5.41681 -19.2525 8
v -4.45042 -19.4986 8
v -3.47296 -19.6962 8
v -2.48687 -19.8448 8
v -1.4946 -19.9441 8
v -0.498614 -19.9938 8
v 0.498614 -19.9938 8
v 1.4946 -19.9441 8
v 2.48687 -19.8448 8
v 3.47296 -19.6962 8
v 4.45042 -19.4986 8
v 5.41681 -19.2525 8
v 6.36973 -18.9585 8
v 7.30682 -18.6175 8
v 8.22574 -18.2301 8
v 9.12421 -17.7974 8
v 10 -17.3205 8
v 10.8509 -16.8005 8
v 11.6749 -16.2388 8
v 12.4698 -15.6366 8
v 13.2337 -14.9956 8
v 13.9647 -14.3173 8
v 14.661 -13.6035 8
v 15.3209 -12.8558 8
v 15.9427 -12.0761 8
v 16.5248 -11.2664 8
v 17.0658 -10.4287 8
v 17.5644 -9.56508 8
v 18.0194 -8.67767 8
v 18.4295 -7.7687 8
v 18.7939 -6.8404 8
v 19.1115 -5.8951 8
v 19.3815 -4.93515 8
v 19.6034 -3.96292 8
v 19.7766 -2.98085 8
v 19.9006 -1.99136 8
v 19.9751 -0.996918 8
v 20 -4.89859e-15 8
v 20 -4.89859e-15 0
v 19.9751 0.996918 0
v 19.9006 1.99136 0
v 19.7766 2.98085 0
v 19.6034 3.96292 0
v 19.3815 4.93515 0
v 19.1115 5.8951 0
v 18.7939 6.8404 0
v 18.4295 7.7687 0
v 18.0194 8.67767 0
v 17.5644 9.56508 0
v 17.0658 10.4287 0
v 16.5248 11.2664 0
v 15.9427 12.0761 0
v 15.3209 12.8558 0
v 14.661 13.6035 0
v 13.9647 14.3173 0
v 13.2337 14.9956 0
v 12.4698 15.6366 0
v 11.6749 16.2388 0
v 10.8509 16.8005 0
v 10 17.3205 0
v 9.12421 17.7974 0
v 8.22574 18.2301 0
v 7.30682 18.6175 0
v 6.36973 18.9585 0
v 5.41681 19.2525 0
v 4.45042 19.4986 0
v 3.47296 19.6962 0
v 2.48687 19.8448 0
v 1.4946 19.9441 0
v 0.498614 19.9938 0
v -0.498614 19.9938 0
v -1.4946 19.9441 0
v -2.48687 19.8448 0
v -3.47296 19.6962 0
v -4.45042 19.4986 0
v -5.41681 19.2525 0
v -6.36973 18.9585 0
v -7.30682 18.6175 0
v -8.22574 18.2301 0
v -9.12421 17.7974 0
v -10 17.3205 0
v -10.8509 16.8005 0
v -11.6749 16.2388 0
v -12.4698 15.6366 0
v -13.2337 14.9956 0
v -13.9647 14.3173 0
v -14.661 13.6035 0
v -15.3209 12.8558 0
v -15.9427 12.0761 0
v -16.5248 11.2664 0
v -17.0658 10.4287 0
v -17.5644 9.56508 0
v -18.0194 8.67767 0
v -18.4295 7.7687 0
v -18.7939 6.8404 0
v -19.1115 5.8951 0
v -19.3815 4.93515 0
v -19.6034 3.96292 0
v -19.7766 2.98085 0
v -19.9006 1.99136 0
v -19.9751 0.996918 0
v -20 -6.8605e-14 0
v -19.9751 -0.996918 0
v -19.9006 -1.99136 0
v -19.7766 -2.98085 0
v -19.6034 -3.96292 0
v -19.3815 -4.93515 0
v -19.1115 -5.8951 0
v -18.7939 -6.8404 0
v -18.4295 -7.7687 0
v -18.0194 -8.67767 0
v -17.5644 -9.56508 0
v -17.0658 -10.4287 0
v -16.5248 -11.2664 0
v -15.9427 -12.0761 0
v -15.3209 -12.8558 0
v -14.661 -13.6035 0
v -13.9647 -14.3173 0
v -13.2337 -14.9956 0
v -12.4698 -15.6366 0
v -11.6749 -16.2388 0
v -10.8509 -16.8005 0
v -10 -17.3205 0
v -9.12421 -17.7974 0
v -8.22574 -18.2301 0
v -7.30682 -18.6175 0
v -6.36973 -18.9585 0
v -5.41681 -19.2525 0
v -4.45042 -19.4986 0
v -3.47296 -19.6962 0
v -2.48687 -19.8448 0
v -1.4946 -19.9441 0
v -0.498614 -19.9938 0
v 0.498614 -19.9938 0
v 1.4946 -19.9441 0
v 2.48687 -19.8448 0
v 3.47296 -19.6962 0
v 4.45042 -19.4986 0
v 5.41681 -19.2525 0
v 6.36973 -18.9585 0
v 7.30682 -18.6175 0
v 8.22574 -18.2301 0
v 9.12421 -17.7974 0
v 10 -17.3205 0
v 10.8509 -16.8005 0
v 11.6749 -16.2388 0
v 12.4698 -15.6366 0
v 13.2337 -14.9956 0
v 13.9647 -14.3173 0
v 14.661 -13.6035 0
v 15.3209 -12.8558 0
v 15.9427 -12.0761 0
v 16.5248 -11.2664 0
v 17.0658 -10.4287 0
v 17.5644 -9.56508 0
v 18.0194 -8.67767 0
v 18.4295 -7.7687 0
v 18.7939 -6.8404 0
v 19.1115 -5.8951 0
v 19.3815 -4.93515 0
v 19.6034 -3.96292 0
v 19.7766 -2.98085 0
v 19.9006 -1.99136 0
v 19.9751 -0.996918 0
v 20 -4.89859e-15 0
v 20 -4.89859e-15 0
v 19.9751 0.996918 0
v 19.9006 1.99136 0
v 19.7766 2.98085 0
v 19.6034 3.96292 0
v 19.3815 4.93515 0
v 19.1115 5.8951 0
v 18.7939 6.8404 0
v 18.4295 7.7687 0
v 18.0194 8.67767 0
v 17.5644 9.56508 0
v 17.0658 10.4287 0
v 16.5248 11.2664 0
v 15.9427 12.0761 0
v 15.3209 12.8558 0
v 14.661 13.6035 0
v 13.9647 14.3173 0
v 13.2337 14.9956 0
v 12.4698 15.6366 0
v 11.6749 16.2388 0
v 10.8509 16.8005 0
v 10 17.3205 0
v 9.12421 17.7974 0
v 8.22574 18.2301 0
v 7.30682 18.6175 0
v 6.36973 18.9585 0
v 5.41681 19.2525 0
v 4.45042 19.4986 0
v 3.47296 19.6962 0
v 2.48687 19.8448 0
v 1.4946 19.9441 0
v 0.498614 19.9938 0
v -0.498614 19.9938 0
v -1.4946 19.9441 0
v -2.48687 19.8448 0
v -3.47296 19.6962 0
v -4.45042 19.4986 0
v -5.41681 19.2525 0
v -6.36973 18.9585 0
v -7.30682 18.6175 0
v -8.22574 18.2301 0
v -9.12421 17.7974 0
v -10 17.3205 0
v -10.8509 16.8005 0
v -11.6749 16.2388 0
v -12.4698 15.6366 0
v -13.2337 14.9956 0
v -13.9647 14.3173 0
v -14.661 13.6035 0
v -15.3209 12.8558 0
v -15.9427 12.0761 0
v -16.5248 11.2664 0
v -17.0658 10.4287 0
v -17.5644 9.56508 0
v -18.0194 8.67767 0
v -18.4295 7.7687 0
v -18.7939 6.8404 0
v -19.1115 5.8951 0
v -19.3815 4.93515 0
v -19.6034 3.96292 0
v -19.7766 2.98085 0
v -19.9006 1.99136 0
v -19.9751 0.996918 0
v -20 -6.8605e-14 0
v -19.9751 -0.996918 0
v -19.9006 -1.99136 0
v -19.7766 -2.98085 0
v -19.6034 -3.96292 0
v -19.3815 -4.93515 0
v -19.1115 -5.8951 0
v -18.7939 -6.8404 0
v -18.4295 -7.7687 0
v -18.0194 -8.67767 0
v -17.5644 -9.56508 0
v -17.0658 -10.4287 0
v -16.5248 -11.2664 0
v -15.9427 -12.0761 0
v -15.3209 -12.8558 0
v -14.661 -13.6035 0
v -13.9647 -14.3173 0
v -13.2337 -14.9956 0
v -12.4698 -15.6366 0
v -11.6749 -16.2388 0
v -10.8509 -16.8005 0
v -10 -17.3205 0
v -9.12421 -17.7974 0
v -8.22574 -18.2301 0
v -7.30682 -18.6175 0
v -6.36973 -18.9585 0
v -5.41681 -19.2525 0
v -4.45042 -19.4986 0
v -3.47296 -19.6962 0
v -2.48687 -19.8448 0
v -1.4946 -19.9441 0
v -0.498614 -19.9938 0
v 0.498614 -19.9938 0
v 1.4946 -19.9441 0
v 2.48687 -19.8448 0
v 3.47296 -19.6962 0
v 4.45042 -19.4986 0
v 5.41681 -19.2525 0
v 6.36973 -18.9585 0
v 7.30682 -18.6175 0
v 8.22574 -18.2301 0
v 9.12421 -17.7974 0
v 10 -17.3205 0
v 10.8509 -16.8005 0
v 11.6749 -16.2388 0
v 12.4698 -15.6366 0
v 13.2337 -14.9956 0
v 13.9647 -14.3173 0
v 14.661 -13.6035 0
v 15.3209 -12.8558 0
v 15.9427 -12.0761 0
v 16.5248 -11.2664 0
v 17.0658 -10.4287 0
v 17.5644 -9.56508 0
v 18.0194 -8.67767 0
v 18.4295 -7.7687 0
v 18.7939 -6.8404 0
v 19.1115 -5.8951 0
v 19.3815 -4.93515 0
v 19.6034 -3.96292 0
v 19.7766 -2.98085 0
v 19.9006 -1.99136 0
v 19.9751 -0.996918 0
f 3 129 130
f 4 3 130
f 5 130 131
f 5 4 130
f 6 131 132
f 6 5 131
f 7 132 133
f 7 6 132
f 8 133 134
f 8 134 135
f 8 7 133
f 9 8 135
f 10 135 136
f 10 136 137
f 10 9 135
f 11 137 138
f 11 10 137
f 12 11 138
f 13 138 139
f 13 12 138
f 14 13 139
f 14 139 140
f 14 140 141
f 15 14 141
f 15 141 142
f 16 15 142
f 17 16 142
f 17 142 143
f 18 17 143
f 18 143 144
f 19 18 144
f 19 144 145
f 20 19 145
f 20 145 146
f 21 20 146
f 21 146 147
f 22 21 147
f 22 147 148
f 23 22 148
f 23 148 149
f 23 149 150
f 24 23 150
f 25 24 150
f 25 150 151
f 26 151 152
f 26 25 151
f 27 152 153
f 27 26 152
f 28 153 154
f 28 27 153
f 29 154 155
f 29 28 154
f 30 155 156
f 30 29 155
f 31 156 157
f 31 30 156
f 32 157 158
f 32 158 159
f 32 31 157
f 33 32 159
f 34 159 160
f 34 160 161
f 34 33 159
f 35 34 161
f 36 161 162
f 36 35 161
f 37 162 163
f 37 163 164
f 37 36 162
f 38 164 165
f 38 37 164
f 39 38 165
f 40 39 165
f 40 165 166
f 41 40 166
f 41 166 167
f 42 41 167
f 42 167 168
f 43 42 168
f 43 168 169
f 44 43 169
f 44 169 170
f 45 44 170
f 45 170 171
f 45 171 172
f 46 45 172
f 47 46 172
f 47 172 173
f 48 47 173
f 48 173 174
f 48 174 175
f 49 48 175
f 50 49 175
f 50 175 176
f 51 50 176
f 51 176 177
f 52 51 177
f 52 177 178
f 53 52 178
f 53 178 179
f 53 179 180
f 54 53 180
f 55 54 180
f 55 180 181
f 56 55 181
f 56 181 182
f 57 56 182
f 57 182 183
f 58 57 183
f 58 183 184
f 58 184 185
f 59 58 185
f 60 59 185
f 60 185 186
f 60 186 187
f 61 60 187
f 62 187 188
f 62 61 187
f 63 188 189
f 63 62 188
f 64 189 190
f 64 63 189
f 65 64 190
f 65 190 191
f 66 65 191
f 66 191 192
f 67 66 192
f 67 192 193
f 68 67 193
f 68 193 194
f 69 68 194
f 69 194 195
f 70 69 195
f 70 195 196
f 71 70 196
f 71 196 197
f 72 71 197
f 72 197 198
f 73 72 198
f 73 198 199
f 74 73 199
f 74 199 200
f 75 74 200
f 75 200 201
f 76 75 201
f 76 201 202
f 77 202 203
f 77 76 202
f 78 203 204
f 78 77 203
f 79 204 205
f 79 78 204
f 80 205 206
f 80 79 205
f 81 206 207
f 81 80 206
f 82 207 208
f 82 81 207
f 83 208 209
f 83 82 208
f 84 209 210
f 84 83 209
f 85 210 211
f 85 84 210
f 86 211 212
f 86 85 211
f 87 212 213
f 87 86 212
f 88 213 214
f 88 87 213
f 89 214 215
f 89 215 216
f 89 88 214
f 90 89 216
f 91 90 216
f 91 216 217
f 92 91 217
f 92 217 218
f 92 218 219
f 93 92 219
f 94 93 219
f 94 219 220
f 95 220 221
f 95 94 220
f 96 221 222
f 96 95 221
f 97 222 223
f 97 96 222
f 98 223 224
f 98 97 223
f 99 224 225
f 99 98 224
f 100 225 226
f 100 99 225
f 101 226 227
f 101 227 228
f 101 100 226
f 102 228 229
f 102 101 228
f 103 102 229
f 104 229 230
f 104 103 229
f 105 230 231
f 105 104 230
f 106 231 232
f 106 105 231
f 107 232 233
f 107 106 232
f 108 233 234
f 108 234 235
f 108 107 233
f 109 108 235
f 110 235 236
f 110 109 235
f 111 236 237
f 111 110 236
f 112 237 238
f 112 111 237
f 113 238 239
f 113 112 238
f 114 239 240
f 114 113 239
f 115 114 240
f 115 240 241
f 116 115 241
f 116 241 242
f 116 242 243
f 117 116 243
f 118 117 243
f 118 243 244
f 119 118 244
f 119 244 245
f 119 245 246
f 120 119 246
f 120 246 247
f 121 120 247
f 121 247 248
f 122 121 248
f 123 122 248
f 123 248 249
f 123 249 250
f 124 123 250
f 124 250 251
f 125 124 251
f 126 125 251
f 126 251 252
f 126 252 253
f 127 126 253
f 128 253 254
f 128 127 253
f 2 254 1
f 2 128 254
f 459 333 334
f 459 334 460
f 461 334 335
f 461 460 334
f 458 333 459
f 458 331 332
f 458 332 333
f 462 461 335
f 462 335 336
f 457 331 458
f 463 336 337
f 463 462 336
f 456 330 331
f 456 331 457
f 464 463 337
f 464 337 338
f 455 330 456
f 455 329 330
f 465 338 339
f 465 464 338
f 454 327 328
f 454 328 329
f 454 329 455
f 466 465 339
f 466 339 340
f 453 327 454
f 467 466 340
f 467 340 341
f 467 341 342
f 452 326 327
f 452 327 453
f 468 467 342
f 468 342 343
f 451 325 326
f 451 326 452
f 469 343 344
f 469 468 343
f 450 325 451
f 450 324 325
f 470 469 344
f 449 324 450
f 449 323 324
f 471 470 344
f 471 344 345
f 448 322 323
f 448 323 449
f 472 471 345
f 472 345 346
f 447 322 448
f 447 321 322
f 473 346 347
f 473 347 348
f 473 472 346
f 446 321 447
f 446 319 320
f 446 320 321
f 474 473 348
f 445 319 446
f 475 474 348
f 475 348 349
f 444 319 445
f 444 318 319
f 476 475 349
f 476 349 350
f 443 318 444
f 443 317 318
f 477 476 350
f 477 350 351
f 442 317 443
f 442 316 317
f 478 477 351
f 478 351 352
f 441 316 442
f 441 315 316
f 479 478 352
f 479 352 353
f 440 315 441
f 440 313 314
f 440 314 315
f 480 479 353
f 480 353 354
f 480 354 355
f 439 313 440
f 481 480 355
f 438 313 439
f 438 312 313
f 482 355 356
f 482 481 355
f 437 312 438
f 437 310 311
f 437 311 312
f 483 356 357
f 483 482 356
f 436 310 437
f 484 357 358
f 484 358 359
f 484 483 357
f 435 309 310
f 435 310 436
f 485 484 359
f 434 308 309
f 434 309 435
f 486 359 360
f 486 485 359
f 433 308 434
f 433 307 308
f 487 360 361
f 487 361 362
f 487 486 360
f 432 306 307
f 432 307 433
f 488 487 362
f 431 305 306
f 431 306 432
f 489 362 363
f 489 488 362
f 430 303 304
f 430 304 305
f 430 305 431
f 490 363 364
f 490 489 363
f 429 303 430
f 491 364 365
f 491 490 364
f 428 303 429
f 302 303 428
f 427 302 428
f 366 492 491
f 366 493 492
f 366 491 365
f 301 302 427
f 367 493 366
f 300 301 427
f 300 426 425
f 300 427 426
f 368 493 367
f 368 494 493
f 368 495 494
f 299 300 425
f 369 495 368
f 369 496 495
f 298 299 425
f 298 424 423
f 298 425 424
f 370 497 496
f 370 496 369
f 297 298 423
f 371 498 497
f 371 497 370
f 296 297 423
f 296 422 421
f 296 423 422
f 372 498 371
f 295 296 421
f 373 499 498
f 373 498 372
f 294 420 419
f 294 421 420
f 294 295 421
f 374 500 499
f 374 499 373
f 293 294 419
f 293 419 418
f 375 501 500
f 375 502 501
f 375 500 374
f 292 418 417
f 292 293 418
f 376 502 375
f 291 417 416
f 291 292 417
f 377 502 376
f 377 503 502
f 290 291 416
f 378 503 377
f 378 504 503
f 378 505 504
f 289 290 416
f 289 416 415
f 379 505 378
f 288 415 414
f 288 289 415
f 380 505 379
f 380 506 505
f 380 381 506
f 287 413 412
f 287 414 413
f 287 288 414
f 255 381 380
f 286 287 412
f 286 412 411
f 256 382 381
f 256 383 382
f 256 381 255
f 285 286 411
f 257 383 256
f 284 411 410
f 284 285 411
f 258 384 383
f 258 385 384
f 258 383 257
f 283 410 409
f 283 284 410
f 259 385 258
f 282 283 409
f 282 409 408
f 260 385 259
f 260 386 385
f 260 387 386
f 281 282 408
f 281 408 407
f 261 387 260
f 261 388 387
f 280 281 407
f 280 407 406
f 262 389 388
f 262 388 261
f 279 280 406
f 279 406 405
f 263 389 262
f 278 279 405
f 278 405 404
f 264 390 389
f 264 389 263
f 277 278 404
f 277 404 403
f 265 391 390
f 265 390 264
f 265 392 391
f 276 277 403
f 276 403 402
f 266 392 265
f 266 393 392
f 275 276 402
f 275 402 401
f 267 393 266
f 267 394 393
f 274 275 401
f 274 400 399
f 274 401 400
f 268 394 267
f 273 274 399
f 269 395 394
f 269 394 268
f 272 273 399
f 272 399 398
f 270 395 269
f 270 396 395
f 271 397 396
f 271 398 397
f 271 396 270
f 271 272 398
f 589 586 587
f 589 587 588
f 581 582 583
f 592 586 589
f 592 585 586
f 592 589 590
f 592 590 591
f 579 581 583
f 579 580 581
f 594 592 593
f 595 592 594
f 576 577 578
f 575 579 583
f 575 576 578
f 575 578 579
f 575 583 584
f 597 595 596
f 598 595 597
f 600 595 598
f 600 598 599
f 602 592 595
f 602 595 600
f 602 600 601
f 568 569 570
f 568 570 571
f 568 571 572
f 568 572 573
f 605 602 603
f 605 603 604
f 565 566 567
f 565 567 568
f 607 602 605
f 607 605 606
f 564 573 574
f 564 574 575
f 564 565 568
f 564 568 573
f 610 607 608
f 610 608 609
f 611 607 610
f 560 564 575
f 560 585 592
f 560 561 562
f 560 562 563
f 560 563 564
f 560 575 584
f 560 584 585
f 614 611 612
f 614 612 613
f 557 558 559
f 557 559 560
f 615 602 607
f 615 607 611
f 615 611 614
f 555 556 557
f 554 555 557
f 618 616 617
f 553 557 560
f 553 554 557
f 619 615 616
f 619 616 618
f 550 551 552
f 622 619 620
f 622 620 621
f 622 615 619
f 549 552 553
f 549 550 552
f 624 622 623
f 547 548 549
f 547 549 553
f 626 624 625
f 545 546 547
f 627 602 615
f 627 615 622
f 627 622 624
f 627 624 626
f 542 543 544
f 630 628 629
f 540 541 542
f 632 630 631
f 539 540 542
f 507 630 632
f 507 627 628
f 507 628 630
f 535 536 537
f 535 537 538
f 535 538 539
f 512 507 508
f 512 508 509
f 512 509 510
f 512 510 511
f 512 627 507
f 533 534 535
f 514 512 513
f 531 532 533
f 530 531 533
f 530 533 535
f 516 514 515
f 517 514 516
f 528 529 530
f 526 535 539
f 526 527 528
f 526 528 530
f 526 530 535
f 520 517 518
f 520 518 519
f 520 514 517
f 525 542 544
f 525 539 542
f 525 544 545
f 525 526 539
f 522 560 592
f 522 520 521
f 522 627 512
f 522 512 514
f 522 553 560
f 522 514 520
f 522 547 553
f 522 592 602
f 522 545 547
f 522 602 627
f 523 524 525
f 523 545 522
f 523 525 545
f 634 633 760
f 634 760 761
f 635 761 762
f 635 634 761
f 636 762 763
f 636 635 762
f 637 763 764
f 637 636 763
f 638 764 765
f 638 637 764
f 639 765 766
f 639 638 765
f 640 766 767
f 640 639 766
f 641 767 768
f 641 640 767
f 642 768 769
f 642 769 770
f 642 641 768
f 643 642 770
f 644 643 770
f 644 770 771
f 645 644 771
f 645 771 772
f 646 645 772
f 646 772 773
f 646 773 774
f 647 646 774
f 648 647 774
f 648 774 775
f 649 648 775
f 649 775 776
f 650 649 776
f 650 776 777
f 650 777 778
f 651 650 778
f 652 651 778
f 652 778 779
f 652 779 780
f 653 652 780
f 654 653 780
f 654 780 781
f 654 781 782
f 655 654 782
f 656 782 783
f 656 655 782
f 657 783 784
f 657 656 783
f 658 784 785
f 658 657 784
f 659 785 786
f 659 658 785
f 660 786 787
f 660 659 786
f 661 787 788
f 661 660 787
f 662 788 789
f 662 661 788
f 663 789 790
f 663 662 789
f 664 790 791
f 664 663 790
f 665 791 792
f 665 792 793
f 665 664 791
f 666 665 793
f 667 793 794
f 667 666 793
f 668 794 795
f 668 795 796
f 668 667 794
f 669 668 796
f 670 669 796
f 670 796 797
f 671 670 797
f 671 797 798
f 671 798 799
f 672 671 799
f 673 672 799
f 673 799 800
f 674 673 800
f 674 800 801
f 675 674 801
f 675 801 802
f 675 802 803
f 676 675 803
f 677 676 803
f 677 803 804
f 677 804 805
f 678 677 805
f 678 805 806
f 679 678 806
f 680 679 806
f 680 806 807
f 681 680 807
f 681 807 808
f 681 808 809
f 682 681 809
f 683 682 809
f 683 809 810
f 684 683 810
f 684 810 811
f 684 811 812
f 685 684 812
f 685 812 813
f 686 685 813
f 687 686 813
f 687 813 814
f 688 687 814
f 688 814 815
f 689 688 815
f 689 815 816
f 690 689 816
f 690 816 817
f 691 817 818
f 691 818 819
f 691 690 817
f 692 691 819
f 693 819 820
f 693 820 821
f 693 692 819
f 694 821 822
f 694 693 821
f 695 694 822
f 696 695 822
f 696 822 823
f 697 696 823
f 697 823 824
f 698 697 824
f 698 824 825
f 698 825 826
f 699 698 826
f 699 826 827
f 700 699 827
f 701 700 827
f 701 827 828
f 702 701 828
f 702 828 829
f 703 702 829
f 703 829 830
f 704 703 830
f 704 830 831
f 704 831 832
f 705 704 832
f 706 705 832
f 706 832 833
f 706 833 834
f 707 834 835
f 707 706 834
f 708 707 835
f 709 835 836
f 709 836 837
f 709 708 835
f 710 709 837
f 711 837 838
f 711 710 837
f 712 838 839
f 712 711 838
f 713 839 840
f 713 712 839
f 714 840 841
f 714 713 840
f 715 841 842
f 715 842 843
f 715 714 841
f 716 715 843
f 717 843 844
f 717 844 845
f 717 716 843
f 718 717 845
f 719 845 846
f 719 846 847
f 719 718 845
f 720 719 847
f 721 720 847
f 721 847 848
f 722 721 848
f 722 848 849
f 723 722 849
f 723 849 850
f 723 850 851
f 724 723 851
f 725 851 852
f 725 724 851
f 726 852 853
f 726 725 852
f 727 853 854
f 727 854 855
f 727 726 853
f 728 727 855
f 729 855 856
f 729 856 857
f 729 728 855
f 730 729 857
f 731 857 858
f 731 730 857
f 732 858 859
f 732 731 858
f 733 859 860
f 733 732 859
f 734 860 861
f 734 861 862
f 734 733 860
f 735 734 862
f 736 862 863
f 736 863 864
f 736 735 862
f 737 736 864
f 738 864 865
f 738 865 866
f 738 737 864
f 739 738 866
f 740 866 867
f 740 739 866
f 741 867 868
f 741 868 869
f 741 740 867
f 742 741 869
f 743 869 870
f 743 742 869
f 744 870 871
f 744 871 872
f 744 743 870
f 745 744 872
f 746 745 872
f 746 872 873
f 747 746 873
f 747 873 874
f 748 747 874
f 748 874 875
f 749 748 875
f 749 875 876
f 750 749 876
f 750 876 877
f 750 877 878
f 751 750 878
f 752 751 878
f 752 878 879
f 753 752 879
f 753 879 880
f 754 753 880
f 754 880 881
f 754 881 882
f 755 754 882
f 756 755 882
f 756 882 883
f 757 756 883
f 757 883 884
f 758 884 885
f 758 757 884
f 759 885 886
f 759 758 885
f 964 966 965
f 968 967 966
f 963 966 964
f 970 969 968
f 961 968 966
f 961 966 963
f 961 963 962
f 972 971 970
f 959 961 960
f 958 961 959
f 975 973 972
f 975 974 973
f 955 957 956
f 955 958 957
f 977 968 961
f 977 970 968
f 977 975 972
f 977 972 970
f 977 961 958
f 977 976 975
f 978 958 955
f 978 977 958
f 953 955 954
f 980 979 978
f 951 953 952
f 951 955 953
f 981 980 978
f 949 951 950
f 983 982 981
f 947 949 948
f 947 951 949
f 985 984 983
f 985 983 981
f 986 985 981
f 945 947 946
f 944 947 945
f 989 988 987
f 942 944 943
f 990 989 987
f 941 944 942
f 991 990 987
f 939 944 941
f 939 941 940
f 993 992 991
f 994 991 987
f 994 993 991
f 994 987 986
f 936 938 937
f 936 939 938
f 935 939 936
f 997 996 995
f 932 934 933
f 932 935 934
f 1000 999 998
f 1001 1000 998
f 1002 1001 998
f 928 930 929
f 928 931 930
f 928 932 931
f 928 935 932
f 1004 998 997
f 1004 1003 1002
f 1004 997 995
f 1004 1002 998
f 1005 995 994
f 1005 994 986
f 1005 1004 995
f 926 928 927
f 1007 1006 1005
f 924 926 925
f 924 928 926
f 923 928 924
f 919 921 920
f 919 922 921
f 919 923 922
f 919 928 923
f 919 935 928
f 887 1010 1009
f 887 1011 1010
f 887 1012 1011
f 918 935 919
f 888 887 1009
f 888 1008 1007
f 888 1009 1008
f 888 1005 986
f 888 1007 1005
f 915 917 916
f 915 918 917
f 891 889 888
f 891 890 889
f 892 986 981
f 892 891 888
f 892 888 986
f 912 935 918
f 912 918 915
f 912 914 913
f 912 915 914
f 912 939 935
f 894 944 939
f 894 893 892
f 894 947 944
f 894 892 981
f 894 939 912
f 894 978 955
f 894 955 951
f 894 981 978
f 894 951 947
f 910 912 911
f 896 895 894
f 909 912 910
f 908 912 909
f 906 894 912
f 906 897 896
f 906 908 907
f 906 896 894
f 906 912 908
f 900 898 897
f 900 899 898
f 900 897 906
f 904 906 905
f 903 901 900
f 903 902 901
f 903 900 906
f 903 906 904
