# Cadless export: model
v 140 -3.42901e-14 32
v 139.826 6.97842 32
v 139.304 13.9395 32
v 138.436 20.8659 32
v 137.224 27.7405 32
v 135.671 34.546 32
v 133.78 41.2657 32
v 131.557 47.8828 32
v 129.007 54.3809 32
v 126.136 60.7437 32
v 122.951 66.9556 32
v 119.461 73.0009 32
v 115.673 78.8648 32
v 111.599 84.5326 32
v 107.246 89.9903 32
v 102.627 95.2242 32
v 97.7532 100.221 32
v 92.636 104.969 32
v 87.2886 109.456 32
v 81.7241 113.671 32
v 75.9565 117.604 32
v 70 121.244 32
v 63.8695 124.582 32
v 57.5802 127.611 32
v 51.1477 130.322 32
v 44.5881 132.71 32
v 37.9177 134.767 32
v 31.1529 136.49 32
v 24.3107 137.873 32
v 17.4081 138.913 32
v 10.4622 139.609 32
v 3.4903 139.956 32
v -3.4903 139.956 32
v -10.4622 139.609 32
v -17.4081 138.913 32
v -24.3107 137.873 32
v -31.1529 136.49 32
v -37.9177 134.767 32
v -44.5881 132.71 32
v -51.1477 130.322 32
v -57.5802 127.611 32
v -63.8695 124.582 32
v -70 121.244 32
v -75.9565 117.604 32
v -81.7241 113.671 32
v -87.2886 109.456 32
v -92.636 104.969 32
v -97.7532 100.221 32
v -102.627 95.2242 32
v -107.246 89.9903 32
v -111.599 84.5326 32
v -115.673 78.8648 32
v -119.461 73.0009 32
v -122.951 66.9556 32
v -126.136 60.7437 32
v -129.007 54.3809 32
v -131.557 47.8828 32
v -133.78 41.2657 32
v -135.671 34.546 32
v -137.224 27.7405 32
v -138.436 20.8659 32
v -139.304 13.9395 32
v -139.826 6.97842 32
v -140 -4.80235e-13 32
v -139.826 -6.97842 32
v -139.304 -13.9395 32
v -138.436 -20.8659 32
v -137.224 -27.7405 32
v -135.671 -34.546 32
v -133.78 -41.2657 32
v -131.557 -47.8828 32
v -129.007 -54.3809 32
v -126.136 -60.7437 32
v -122.951 -66.9556 32
v -119.461 -73.0009 32
v -115.673 -78.8648 32
v -111.599 -84.5326 32
v -107.246 -89.9903 32
v -102.627 -95.2242 32
v -97.7532 -100.221 32
v -92.636 -104.969 32
v -87.2886 -109.456 32
v -81.7241 -113.671 32
v -75.9565 -117.604 32
v -70 -121.244 32
v -63.8695 -124.582 32
v -57.5802 -127.611 32
v -51.1477 -130.322 32
v -44.5881 -132.71 32
v -37.9177 -134.767 32
v -31.1529 -136.49 32
v -24.3107 -137.873 32
v -17.4081 -138.913 32
v -10.4622 -139.609 32
v -3.4903 -139.956 32
v 3.4903 -139.956 32
v 10.4622 -139.609 32
v 17.4081 -138.913 32
v 24.3107 -137.873 32
v 31.1529 -136.49 32
v 37.9177 -134.767 32
v 44.5881 -132.71 32
v 51.1477 -130.322 32
v 57.5802 -127.611 32
v 63.8695 -124.582 32
v 70 -121.244 32
v 75.9565 -117.604 32
v 81.7241 -113.671 32
v 87.2886 -109.456 32
v 92.636 -104.969 32
v 97.7532 -100.221 32
v 102.627 -95.2242 32
v 107.246 -89.9903 32
v 111.599 -84.5326 32
v 115.673 -78.8648 32
v 119.461 -73.0009 32
v 122.951 -66.9556 32
v 126.136 -60.7437 32
v 129.007 -54.3809 32
v 131.557 -47.8828 32
v 133.78 -41.2657 32
v 135.671 -34.546 32
v 137.224 -27.7405 32
v 138.436 -20.8659 32
v 139.304 -13.9395 32
v 139.826 -6.97842 32
v 140 -3.42901e-14 32
v 140 -3.42901e-14 0
v 139.826 6.97842 0
v 139.304 13.9395 0
v 138.436 20.8659 0
v 137.224 27.7405 0
v 135.671 34.546 0
v 133.78 41.2657 0
v 131.557 47.8828 0
v 129.007 54.3809 0
v 126.136 60.7437 0
v 122.951 66.9556 0
v 119.461 73.0009 0
v 115.673 78.8648 0
v 111.599 84.5326 0
v 107.246 89.9903 0
v 102.627 95.2242 0
v 97.7532 100.221 0
v 92.636 104.969 0
v 87.2886 109.456 0
v 81.7241 113.671 0
v 75.9565 117.604 0
v 70 121.244 0
v 63.8695 124.582 0
v 57.5802 127.611 0
v 51.1477 130.322 0
v 44.5881 132.71 0
v 37.9177 134.767 0
v 31.1529 136.49 0
v 24.3107 137.873 0
v 17.4081 138.913 0
v 10.4622 139.609 0
v 3.4903 139.956 0
v -3.4903 139.956 0
v -10.4622 139.609 0
v -17.4081 138.913 0
v -24.3107 137.873 0
v -31.1529 136.49 0
v -37.9177 134.767 0
v -44.5881 132.71 0
v -51.1477 130.322 0
v -57.5802 127.611 0
v -63.8695 124.582 0
v -70 121.244 0
v -75.9565 117.604 0
v -81.7241 113.671 0
v -87.2886 109.456 0
v -92.636 104.969 0
v -97.7532 100.221 0
v -102.627 95.2242 0
v -107.246 89.9903 0
v -111.599 84.5326 0
v -115.673 78.8648 0
v -119.461 73.0009 0
v -122.951 66.9556 0
v -126.136 60.7437 0
v -129.007 54.3809 0
v -131.557 47.8828 0
v -133.78 41.2657 0
v -135.671 34.546 0
v -137.224 27.7405 0
v -138.436 20.8659 0
v -139.304 13.9395 0
v -139.826 6.97842 0
v -140 -4.80235e-13 0
v -139.826 -6.97842 0
v -139.304 -13.9395 0
v -138.436 -20.8659 0
v -137.224 -27.7405 0
v -135.671 -34.546 0
v -133.78 -41.2657 0
v -131.557 -47.8828 0
v -129.007 -54.3809 0
v -126.136 -60.7437 0
v -122.951 -66.9556 0
v -119.461 -73.0009 0
v -115.673 -78.8648 0
v -111.599 -84.5326 0
v -107.246 -89.9903 0
v -102.627 -95.2242 0
v -97.7532 -100.221 0
v -92.636 -104.969 0
v -87.2886 -109.456 0
v -81.7241 -113.671 0
v -75.9565 -117.604 0
v -70 -121.244 0
v -63.8695 -124.582 0
v -57.5802 -127.611 0
v -51.1477 -130.322 0
v -44.5881 -132.71 0
v -37.9177 -134.767 0
v -31.1529 -136.49 0
v -24.3107 -137.873 0
v -17.4081 -138.913 0
v -10.4622 -139.609 0
v -3.4903 -139.956 0
v 3.4903 -139.956 0
v 10.4622 -139.609 0
v 17.4081 -138.913 0
v 24.3107 -137.873 0
v 31.1529 -136.49 0
v 37.9177 -134.767 0
v 44.5881 -132.71 0
v 51.1477 -130.322 0
v 57.5802 -127.611 0
v 63.8695 -124.582 0
v 70 -121.244 0
v 75.9565 -117.604 0
v 81.7241 -113.671 0
v 87.2886 -109.456 0
v 92.636 -104.969 0
v 97.7532 -100.221 0
v 102.627 -95.2242 0
v 107.246 -89.9903 0
v 111.599 -84.5326 0
v 115.673 -78.8648 0
v 119.461 -73.0009 0
v 122.951 -66.9556 0
v 126.136 -60.7437 0
v 129.007 -54.3809 0
v 131.557 -47.8828 0
v 133.78 -41.2657 0
v 135.671 -34.546 0
v 137.224 -27.7405 0
v 138.436 -20.8659 0
v 139.304 -13.9395 0
v 139.826 -6.97842 0
v 140 -3.42901e-14 0
v 140 -3.42901e-14 32
v 139.826 6.97842 32
v 139.304 13.9395 32
v 138.436 20.8659 32
v 137.224 27.7405 32
v 135.671 34.546 32
v 133.78 41.2657 32
v 131.557 47.8828 32
v 129.007 54.3809 32
v 126.136 60.7437 32
v 122.951 66.9556 32
v 119.461 73.0009 32
v 115.673 78.8648 32
v 111.599 84.5326 32
v 107.246 89.9903 32
v 102.627 95.2242 32
v 97.7532 100.221 32
v 92.636 104.969 32
v 87.2886 109.456 32
v 81.7241 113.671 32
v 75.9565 117.604 32
v 70 121.244 32
v 63.8695 124.582 32
v 57.5802 127.611 32
v 51.1477 130.322 32
v 44.5881 132.71 32
v 37.9177 134.767 32
v 31.1529 136.49 32
v 24.3107 137.873 32
v 17.4081 138.913 32
v 10.4622 139.609 32
v 3.4903 139.956 32
v -3.4903 139.956 32
v -10.4622 139.609 32
v -17.4081 138.913 32
v -24.3107 137.873 32
v -31.1529 136.49 32
v -37.9177 134.767 32
v -44.5881 132.71 32
v -51.1477 130.322 32
v -57.5802 127.611 32
v -63.8695 124.582 32
v -70 121.244 32
v -75.9565 117.604 32
v -81.7241 113.671 32
v -87.2886 109.456 32
v -92.636 104.969 32
v -97.7532 100.221 32
v -102.627 95.2242 32
v -107.246 89.9903 32
v -111.599 84.5326 32
v -115.673 78.8648 32
v -119.461 73.0009 32
v -122.951 66.9556 32
v -126.136 60.7437 32
v -129.007 54.3809 32
v -131.557 47.8828 32
v -133.78 41.2657 32
v -135.671 34.546 32
v -137.224 27.7405 32
v -138.436 20.8659 32
v -139.304 13.9395 32
v -139.826 6.97842 32
v -140 -4.80235e-13 32
v -139.826 -6.97842 32
v -139.304 -13.9395 32
v -138.436 -20.8659 32
v -137.224 -27.7405 32
v -135.671 -34.546 32
v -133.78 -41.2657 32
v -131.557 -47.8828 32
v -129.007 -54.3809 32
v -126.136 -60.7437 32
v -122.951 -66.9556 32
v -119.461 -73.0009 32
v -115.673 -78.8648 32
v -111.599 -84.5326 32
v -107.246 -89.9903 32
v -102.627 -95.2242 32
v -97.7532 -100.221 32
v -92.636 -104.969 32
v -87.2886 -109.456 32
v -81.7241 -113.671 32
v -75.9565 -117.604 32
v -70 -121.244 32
v -63.8695 -124.582 32
v -57.5802 -127.611 32
v -51.1477 -130.322 32
v -44.5881 -132.71 32
v -37.9177 -134.767 32
v -31.1529 -136.49 32
v -24.3107 -137.873 32
v -17.4081 -138.913 32
v -10.4622 -139.609 32
v -3.4903 -139.956 32
v 3.4903 -139.956 32
v 10.4622 -139.609 32
v 17.4081 -138.913 32
v 24.3107 -137.873 32
v 31.1529 -136.49 32
v 37.9177 -134.767 32
v 44.5881 -132.71 32
v 51.1477 -130.322 32
v 57.5802 -127.611 32
v 63.8695 -124.582 32
v 70 -121.244 32
v 75.9565 -117.604 32
v 81.7241 -113.671 32
v 87.2886 -109.456 32
v 92.636 -104.969 32
v 97.7532 -100.221 32
v 102.627 -95.2242 32
v 107.246 -89.9903 32
v 111.599 -84.5326 32
v 115.673 -78.8648 32
v 119.461 -73.0009 32
v 122.951 -66.9556 32
v 126.136 -60.7437 32
v 129.007 -54.3809 32
v 131.557 -47.8828 32
v 133.78 -41.2657 32
v 135.671 -34.546 32
v 137.224 -27.7405 32
v 138.436 -20.8659 32
v 139.304 -13.9395 32
v 139.826 -6.97842 32
v 115 -2.81669e-14 32
v 114.857 5.73228 32
v 114.429 11.4503 32
v 113.716 17.1399 32
v 112.72 22.7868 32
v 111.444 28.3771 32
v 109.891 33.8968 32
v 108.065 39.3323 32
v 105.97 44.67 32
v 103.611 49.8966 32
v 100.995 54.9992 32
v 98.1285 59.965 32
v 95.0175 64.7818 32
v 91.6702 69.4375 32
v 88.0951 73.9206 32
v 84.301 78.2199 32
v 80.2972 82.3247 32
v 76.0939 86.2248 32
v 71.7013 89.9106 32
v 67.1305 93.3729 32
v 62.3928 96.603 32
v 57.5 99.5929 32
v 52.4642 102.335 32
v 47.298 104.823 32
v 42.0142 107.05 32
v 36.626 109.012 32
v 31.1467 110.702 32
v 25.5899 112.117 32
v 19.9695 113.253 32
v 14.2995 114.108 32
v 8.59396 114.678 32
v 2.86703 114.964 32
v -2.86703 114.964 32
v -8.59396 114.678 32
v -14.2995 114.108 32
v -19.9695 113.253 32
v -25.5899 112.117 32
v -31.1467 110.702 32
v -36.626 109.012 32
v -42.0142 107.05 32
v -47.298 104.823 32
v -52.4642 102.335 32
v -57.5 99.5929 32
v -62.3928 96.603 32
v -67.1305 93.3729 32
v -71.7013 89.9106 32
v -76.0939 86.2248 32
v -80.2972 82.3247 32
v -84.301 78.2199 32
v -88.0951 73.9206 32
v -91.6702 69.4375 32
v -95.0175 64.7818 32
v -98.1285 59.965 32
v -100.995 54.9992 32
v -103.611 49.8966 32
v -105.97 44.67 32
v -108.065 39.3323 32
v -109.891 33.8968 32
v -111.444 28.3771 32
v -112.72 22.7868 32
v -113.716 17.1399 32
v -114.429 11.4503 32
v -114.857 5.73228 32
v -115 -3.94479e-13 32
v -114.857 -5.73228 32
v -114.429 -11.4503 32
v -113.716 -17.1399 32
v -112.72 -22.7868 32
v -111.444 -28.3771 32
v -109.891 -33.8968 32
v -108.065 -39.3323 32
v -105.97 -44.67 32
v -103.611 -49.8966 32
v -100.995 -54.9992 32
v -98.1285 -59.965 32
v -95.0175 -64.7818 32
v -91.6702 -69.4375 32
v -88.0951 -73.9206 32
v -84.301 -78.2199 32
v -80.2972 -82.3247 32
v -76.0939 -86.2248 32
v -71.7013 -89.9106 32
v -67.1305 -93.3729 32
v -62.3928 -96.603 32
v -57.5 -99.5929 32
v -52.4642 -102.335 32
v -47.298 -104.823 32
v -42.0142 -107.05 32
v -36.626 -109.012 32
v -31.1467 -110.702 32
v -25.5899 -112.117 32
v -19.9695 -113.253 32
v -14.2995 -114.108 32
v -8.59396 -114.678 32
v -2.86703 -114.964 32
v 2.86703 -114.964 32
v 8.59396 -114.678 32
v 14.2995 -114.108 32
v 19.9695 -113.253 32
v 25.5899 -112.117 32
v 31.1467 -110.702 32
v 36.626 -109.012 32
v 42.0142 -107.05 32
v 47.298 -104.823 32
v 52.4642 -102.335 32
v 57.5 -99.5929 32
v 62.3928 -96.603 32
v 67.1305 -93.3729 32
v 71.7013 -89.9106 32
v 76.0939 -86.2248 32
v 80.2972 -82.3247 32
v 84.301 -78.2199 32
v 88.0951 -73.9206 32
v 91.6702 -69.4375 32
v 95.0175 -64.7818 32
v 98.1285 -59.965 32
v 100.995 -54.9992 32
v 103.611 -49.8966 32
v 105.97 -44.67 32
v 108.065 -39.3323 32
v 109.891 -33.8968 32
v 111.444 -28.3771 32
v 112.72 -22.7868 32
v 113.716 -17.1399 32
v 114.429 -11.4503 32
v 114.857 -5.73228 32
v 140 -3.42901e-14 0
v 139.826 6.97842 0
v 139.304 13.9395 0
v 138.436 20.8659 0
v 137.224 27.7405 0
v 135.671 34.546 0
v 133.78 41.2657 0
v 131.557 47.8828 0
v 129.007 54.3809 0
v 126.136 60.7437 0
v 122.951 66.9556 0
v 119.461 73.0009 0
v 115.673 78.8648 0
v 111.599 84.5326 0
v 107.246 89.9903 0
v 102.627 95.2242 0
v 97.7532 100.221 0
v 92.636 104.969 0
v 87.2886 109.456 0
v 81.7241 113.671 0
v 75.9565 117.604 0
v 70 121.244 0
v 63.8695 124.582 0
v 57.5802 127.611 0
v 51.1477 130.322 0
v 44.5881 132.71 0
v 37.9177 134.767 0
v 31.1529 136.49 0
v 24.3107 137.873 0
v 17.4081 138.913 0
v 10.4622 139.609 0
v 3.4903 139.956 0
v -3.4903 139.956 0
v -10.4622 139.609 0
v -17.4081 138.913 0
v -24.3107 137.873 0
v -31.1529 136.49 0
v -37.9177 134.767 0
v -44.5881 132.71 0
v -51.1477 130.322 0
v -57.5802 127.611 0
v -63.8695 124.582 0
v -70 121.244 0
v -75.9565 117.604 0
v -81.7241 113.671 0
v -87.2886 109.456 0
v -92.636 104.969 0
v -97.7532 100.221 0
v -102.627 95.2242 0
v -107.246 89.9903 0
v -111.599 84.5326 0
v -115.673 78.8648 0
v -119.461 73.0009 0
v -122.951 66.9556 0
v -126.136 60.7437 0
v -129.007 54.3809 0
v -131.557 47.8828 0
v -133.78 41.2657 0
v -135.671 34.546 0
v -137.224 27.7405 0
v -138.436 20.8659 0
v -139.304 13.9395 0
v -139.826 6.97842 0
v -140 -4.80235e-13 0
v -139.826 -6.97842 0
v -139.304 -13.9395 0
v -138.436 -20.8659 0
v -137.224 -27.7405 0
v -135.671 -34.546 0
v -133.78 -41.2657 0
v -131.557 -47.8828 0
v -129.007 -54.3809 0
v -126.136 -60.7437 0
v -122.951 -66.9556 0
v -119.461 -73.0009 0
v -115.673 -78.8648 0
v -111.599 -84.5326 0
v -107.246 -89.9903 0
v -102.627 -95.2242 0
v -97.7532 -100.221 0
v -92.636 -104.969 0
v -87.2886 -109.456 0
v -81.7241 -113.671 0
v -75.9565 -117.604 0
v -70 -121.244 0
v -63.8695 -124.582 0
v -57.5802 -127.611 0
v -51.1477 -130.322 0
v -44.5881 -132.71 0
v -37.9177 -134.767 0
v -31.1529 -136.49 0
v -24.3107 -137.873 0
v -17.4081 -138.913 0
v -10.4622 -139.609 0
v -3.4903 -139.956 0
v 3.4903 -139.956 0
v 10.4622 -139.609 0
v 17.4081 -138.913 0
v 24.3107 -137.873 0
v 31.1529 -136.49 0
v 37.9177 -134.767 0
v 44.5881 -132.71 0
v 51.1477 -130.322 0
v 57.5802 -127.611 0
v 63.8695 -124.582 0
v 70 -121.244 0
v 75.9565 -117.604 0
v 81.7241 -113.671 0
v 87.2886 -109.456 0
v 92.636 -104.969 0
v 97.7532 -100.221 0
v 102.627 -95.2242 0
v 107.246 -89.9903 0
v 111.599 -84.5326 0
v 115.673 -78.8648 0
v 119.461 -73.0009 0
v 122.951 -66.9556 0
v 126.136 -60.7437 0
v 129.007 -54.3809 0
v 131.557 -47.8828 0
v 133.78 -41.2657 0
v 135.671 -34.546 0
v 137.224 -27.7405 0
v 138.436 -20.8659 0
v 139.304 -13.9395 0
v 139.826 -6.97842 0
v 15 -3.67394e-15 0
v 14.9814 0.747688 0
v 14.9255 1.49352 0
v 14.8325 2.23563 0
v 14.7026 2.97219 0
v 14.5362 3.70136 0
v 14.3336 4.42133 0
v 14.0954 5.1303 0
v 13.8221 5.82652 0
v 13.5145 6.50826 0
v 13.1733 7.17381 0
v 12.7994 7.82153 0
v 12.3936 8.4498 0
v 11.957 9.05707 0
v 11.4907 9.64181 0
v 10.9958 10.2026 0
v 10.4736 10.738 0
v 9.92529 11.2467 0
v 9.35235 11.7275 0
v 8.75616 12.1791 0
v 8.13819 12.6004 0
v 7.5 12.9904 0
v 6.84316 13.3481 0
v 6.16931 13.6726 0
v 5.48012 13.9631 0
v 4.7773 14.2189 0
v 4.06261 14.4394 0
v 3.33781 14.6239 0
v 2.60472 14.7721 0
v 1.86516 14.8836 0
v 1.12095 14.9581 0
v 0.37396 14.9953 0
v -0.37396 14.9953 0
v -1.12095 14.9581 0
v -1.86516 14.8836 0
v -2.60472 14.7721 0
v -3.33781 14.6239 0
v -4.06261 14.4394 0
v -4.7773 14.2189 0
v -5.48012 13.9631 0
v -6.16931 13.6726 0
v -6.84316 13.3481 0
v -7.5 12.9904 0
v -8.13819 12.6004 0
v -8.75616 12.1791 0
v -9.35235 11.7275 0
v -9.92529 11.2467 0
v -10.4736 10.738 0
v -10.9958 10.2026 0
v -11.4907 9.64181 0
v -11.957 9.05707 0
v -12.3936 8.4498 0
v -12.7994 7.82153 0
v -13.1733 7.17381 0
v -13.5145 6.50826 0
v -13.8221 5.82652 0
v -14.0954 5.1303 0
v -14.3336 4.42133 0
v -14.5362 3.70136 0
v -14.7026 2.97219 0
v -14.8325 2.23563 0
v -14.9255 1.49352 0
v -14.9814 0.747688 0
v -15 -5.14537e-14 0
v -14.9814 -0.747688 0
v -14.9255 -1.49352 0
v -14.8325 -2.23563 0
v -14.7026 -2.97219 0
v -14.5362 -3.70136 0
v -14.3336 -4.42133 0
v -14.0954 -5.1303 0
v -13.8221 -5.82652 0
v -13.5145 -6.50826 0
v -13.1733 -7.17381 0
v -12.7994 -7.82153 0
v -12.3936 -8.4498 0
v -11.957 -9.05707 0
v -11.4907 -9.64181 0
v -10.9958 -10.2026 0
v -10.4736 -10.738 0
v -9.92529 -11.2467 0
v -9.35235 -11.7275 0
v -8.75616 -12.1791 0
v -8.13819 -12.6004 0
v -7.5 -12.9904 0
v -6.84316 -13.3481 0
v -6.16931 -13.6726 0
v -5.48012 -13.9631 0
v -4.7773 -14.2189 0
v -4.06261 -14.4394 0
v -3.33781 -14.6239 0
v -2.60472 -14.7721 0
v -1.86516 -14.8836 0
v -1.12095 -14.9581 0
v -0.37396 -14.9953 0
v 0.37396 -14.9953 0
v 1.12095 -14.9581 0
v 1.86516 -14.8836 0
v 2.60472 -14.7721 0
v 3.33781 -14.6239 0
v 4.06261 -14.4394 0
v 4.7773 -14.2189 0
v 5.48012 -13.9631 0
v 6.16931 -13.6726 0
v 6.84316 -13.3481 0
v 7.5 -12.9904 0
v 8.13819 -12.6004 0
v 8.75616 -12.1791 0
v 9.35235 -11.7275 0
v 9.92529 -11.2467 0
v 10.4736 -10.738 0
v 10.9958 -10.2026 0
v 11.4907 -9.64181 0
v 11.957 -9.05707 0
v 12.3936 -8.4498 0
v 12.7994 -7.82153 0
v 13.1733 -7.17381 0
v 13.5145 -6.50826 0
v 13.8221 -5.82652 0
v 14.0954 -5.1303 0
v 14.3336 -4.42133 0
v 14.5362 -3.70136 0
v 14.7026 -2.97219 0
v 14.8325 -2.23563 0
v 14.9255 -1.49352 0
v 14.9814 -0.747688 0
v 115 -2.81669e-14 32
v 114.857 5.73228 32
v 114.429 11.4503 32
v 113.716 17.1399 32
v 112.72 22.7868 32
v 111.444 28.3771 32
v 109.891 33.8968 32
v 108.065 39.3323 32
v 105.97 44.67 32
v 103.611 49.8966 32
v 100.995 54.9992 32
v 98.1285 59.965 32
v 95.0175 64.7818 32
v 91.6702 69.4375 32
v 88.0951 73.9206 32
v 84.301 78.2199 32
v 80.2972 82.3247 32
v 76.0939 86.2248 32
v 71.7013 89.9106 32
v 67.1305 93.3729 32
v 62.3928 96.603 32
v 57.5 99.5929 32
v 52.4642 102.335 32
v 47.298 104.823 32
v 42.0142 107.05 32
v 36.626 109.012 32
v 31.1467 110.702 32
v 25.5899 112.117 32
v 19.9695 113.253 32
v 14.2995 114.108 32
v 8.59396 114.678 32
v 2.86703 114.964 32
v -2.86703 114.964 32
v -8.59396 114.678 32
v -14.2995 114.108 32
v -19.9695 113.253 32
v -25.5899 112.117 32
v -31.1467 110.702 32
v -36.626 109.012 32
v -42.0142 107.05 32
v -47.298 104.823 32
v -52.4642 102.335 32
v -57.5 99.5929 32
v -62.3928 96.603 32
v -67.1305 93.3729 32
v -71.7013 89.9106 32
v -76.0939 86.2248 32
v -80.2972 82.3247 32
v -84.301 78.2199 32
v -88.0951 73.9206 32
v -91.6702 69.4375 32
v -95.0175 64.7818 32
v -98.1285 59.965 32
v -100.995 54.9992 32
v -103.611 49.8966 32
v -105.97 44.67 32
v -108.065 39.3323 32
v -109.891 33.8968 32
v -111.444 28.3771 32
v -112.72 22.7868 32
v -113.716 17.1399 32
v -114.429 11.4503 32
v -114.857 5.73228 32
v -115 -3.94479e-13 32
v -114.857 -5.73228 32
v -114.429 -11.4503 32
v -113.716 -17.1399 32
v -112.72 -22.7868 32
v -111.444 -28.3771 32
v -109.891 -33.8968 32
v -108.065 -39.3323 32
v -105.97 -44.67 32
v -103.611 -49.8966 32
v -100.995 -54.9992 32
v -98.1285 -59.965 32
v -95.0175 -64.7818 32
v -91.6702 -69.4375 32
v -88.0951 -73.9206 32
v -84.301 -78.2199 32
v -80.2972 -82.3247 32
v -76.0939 -86.2248 32
v -71.7013 -89.9106 32
v -67.1305 -93.3729 32
v -62.3928 -96.603 32
v -57.5 -99.5929 32
v -52.4642 -102.335 32
v -47.298 -104.823 32
v -42.0142 -107.05 32
v -36.626 -109.012 32
v -31.1467 -110.702 32
v -25.5899 -112.117 32
v -19.9695 -113.253 32
v -14.2995 -114.108 32
v -8.59396 -114.678 32
v -2.86703 -114.964 32
v 2.86703 -114.964 32
v 8.59396 -114.678 32
v 14.2995 -114.108 32
v 19.9695 -113.253 32
v 25.5899 -112.117 32
v 31.1467 -110.702 32
v 36.626 -109.012 32
v 42.0142 -107.05 32
v 47.298 -104.823 32
v 52.4642 -102.335 32
v 57.5 -99.5929 32
v 62.3928 -96.603 32
v 67.1305 -93.3729 32
v 71.7013 -89.9106 32
v 76.0939 -86.2248 32
v 80.2972 -82.3247 32
v 84.301 -78.2199 32
v 88.0951 -73.9206 32
v 91.6702 -69.4375 32
v 95.0175 -64.7818 32
v 98.1285 -59.965 32
v 100.995 -54.9992 32
v 103.611 -49.8966 32
v 105.97 -44.67 32
v 108.065 -39.3323 32
v 109.891 -33.8968 32
v 111.444 -28.3771 32
v 112.72 -22.7868 32
v 113.716 -17.1399 32
v 114.429 -11.4503 32
v 114.857 -5.73228 32
v 115 -2.81669e-14 32
v 115 -2.81669e-14 20
v 114.857 5.73228 20
v 114.429 11.4503 20
v 113.716 17.1399 20
v 112.72 22.7868 20
v 111.444 28.3771 20
v 109.891 33.8968 20
v 108.065 39.3323 20
v 105.97 44.67 20
v 103.611 49.8966 20
v 100.995 54.9992 20
v 98.1285 59.965 20
v 95.0175 64.7818 20
v 91.6702 69.4375 20
v 88.0951 73.9206 20
v 84.301 78.2199 20
v 80.2972 82.3247 20
v 76.0939 86.2248 20
v 71.7013 89.9106 20
v 67.1305 93.3729 20
v 62.3928 96.603 20
v 57.5 99.5929 20
v 52.4642 102.335 20
v 47.298 104.823 20
v 42.0142 107.05 20
v 36.626 109.012 20
v 31.1467 110.702 20
v 25.5899 112.117 20
v 19.9695 113.253 20
v 14.2995 114.108 20
v 8.59396 114.678 20
v 2.86703 114.964 20
v -2.86703 114.964 20
v -8.59396 114.678 20
v -14.2995 114.108 20
v -19.9695 113.253 20
v -25.5899 112.117 20
v -31.1467 110.702 20
v -36.626 109.012 20
v -42.0142 107.05 20
v -47.298 104.823 20
v -52.4642 102.335 20
v -57.5 99.5929 20
v -62.3928 96.603 20
v -67.1305 93.3729 20
v -71.7013 89.9106 20
v -76.0939 86.2248 20
v -80.2972 82.3247 20
v -84.301 78.2199 20
v -88.0951 73.9206 20
v -91.6702 69.4375 20
v -95.0175 64.7818 20
v -98.1285 59.965 20
v -100.995 54.9992 20
v -103.611 49.8966 20
v -105.97 44.67 20
v -108.065 39.3323 20
v -109.891 33.8968 20
v -111.444 28.3771 20
v -112.72 22.7868 20
v -113.716 17.1399 20
v -114.429 11.4503 20
v -114.857 5.73228 20
v -115 -3.94479e-13 20
v -114.857 -5.73228 20
v -114.429 -11.4503 20
v -113.716 -17.1399 20
v -112.72 -22.7868 20
v -111.444 -28.3771 20
v -109.891 -33.8968 20
v -108.065 -39.3323 20
v -105.97 -44.67 20
v -103.611 -49.8966 20
v -100.995 -54.9992 20
v -98.1285 -59.965 20
v -95.0175 -64.7818 20
v -91.6702 -69.4375 20
v -88.0951 -73.9206 20
v -84.301 -78.2199 20
v -80.2972 -82.3247 20
v -76.0939 -86.2248 20
v -71.7013 -89.9106 20
v -67.1305 -93.3729 20
v -62.3928 -96.603 20
v -57.5 -99.5929 20
v -52.4642 -102.335 20
v -47.298 -104.823 20
v -42.0142 -107.05 20
v -36.626 -109.012 20
v -31.1467 -110.702 20
v -25.5899 -112.117 20
v -19.9695 -113.253 20
v -14.2995 -114.108 20
v -8.59396 -114.678 20
v -2.86703 -114.964 20
v 2.86703 -114.964 20
v 8.59396 -114.678 20
v 14.2995 -114.108 20
v 19.9695 -113.253 20
v 25.5899 -112.117 20
v 31.1467 -110.702 20
v 36.626 -109.012 20
v 42.0142 -107.05 20
v 47.298 -104.823 20
v 52.4642 -102.335 20
v 57.5 -99.5929 20
v 62.3928 -96.603 20
v 67.1305 -93.3729 20
v 71.7013 -89.9106 20
v 76.0939 -86.2248 20
v 80.2972 -82.3247 20
v 84.301 -78.2199 20
v 88.0951 -73.9206 20
v 91.6702 -69.4375 20
v 95.0175 -64.7818 20
v 98.1285 -59.965 20
v 100.995 -54.9992 20
v 103.611 -49.8966 20
v 105.97 -44.67 20
v 108.065 -39.3323 20
v 109.891 -33.8968 20
v 111.444 -28.3771 20
v 112.72 -22.7868 20
v 113.716 -17.1399 20
v 114.429 -11.4503 20
v 114.857 -5.73228 20
v 115 -2.81669e-14 20
v 15 -3.67394e-15 48
v 14.9814 0.747688 48
v 14.9255 1.49352 48
v 14.8325 2.23563 48
v 14.7026 2.97219 48
v 14.5362 3.70136 48
v 14.3336 4.42133 48
v 14.0954 5.1303 48
v 13.8221 5.82652 48
v 13.5145 6.50826 48
v 13.1733 7.17381 48
v 12.7994 7.82153 48
v 12.3936 8.4498 48
v 11.957 9.05707 48
v 11.4907 9.64181 48
v 10.9958 10.2026 48
v 10.4736 10.738 48
v 9.92529 11.2467 48
v 9.35235 11.7275 48
v 8.75616 12.1791 48
v 8.13819 12.6004 48
v 7.5 12.9904 48
v 6.84316 13.3481 48
v 6.16931 13.6726 48
v 5.48012 13.9631 48
v 4.7773 14.2189 48
v 4.06261 14.4394 48
v 3.33781 14.6239 48
v 2.60472 14.7721 48
v 1.86516 14.8836 48
v 1.12095 14.9581 48
v 0.37396 14.9953 48
v -0.37396 14.9953 48
v -1.12095 14.9581 48
v -1.86516 14.8836 48
v -2.60472 14.7721 48
v -3.33781 14.6239 48
v -4.06261 14.4394 48
v -4.7773 14.2189 48
v -5.48012 13.9631 48
v -6.16931 13.6726 48
v -6.84316 13.3481 48
v -7.5 12.9904 48
v -8.13819 12.6004 48
v -8.75616 12.1791 48
v -9.35235 11.7275 48
v -9.92529 11.2467 48
v -10.4736 10.738 48
v -10.9958 10.2026 48
v -11.4907 9.64181 48
v -11.957 9.05707 48
v -12.3936 8.4498 48
v -12.7994 7.82153 48
v -13.1733 7.17381 48
v -13.5145 6.50826 48
v -13.8221 5.82652 48
v -14.0954 5.1303 48
v -14.3336 4.42133 48
v -14.5362 3.70136 48
v -14.7026 2.97219 48
v -14.8325 2.23563 48
v -14.9255 1.49352 48
v -14.9814 0.747688 48
v -15 -5.14537e-14 48
v -14.9814 -0.747688 48
v -14.9255 -1.49352 48
v -14.8325 -2.23563 48
v -14.7026 -2.97219 48
v -14.5362 -3.70136 48
v -14.3336 -4.42133 48
v -14.0954 -5.1303 48
v -13.8221 -5.82652 48
v -13.5145 -6.50826 48
v -13.1733 -7.17381 48
v -12.7994 -7.82153 48
v -12.3936 -8.4498 48
v -11.957 -9.05707 48
v -11.4907 -9.64181 48
v -10.9958 -10.2026 48
v -10.4736 -10.738 48
v -9.92529 -11.2467 48
v -9.35235 -11.7275 48
v -8.75616 -12.1791 48
v -8.13819 -12.6004 48
v -7.5 -12.9904 48
v -6.84316 -13.3481 48
v -6.16931 -13.6726 48
v -5.48012 -13.9631 48
v -4.7773 -14.2189 48
v -4.06261 -14.4394 48
v -3.33781 -14.6239 48
v -2.60472 -14.7721 48
v -1.86516 -14.8836 48
v -1.12095 -14.9581 48
v -0.37396 -14.9953 48
v 0.37396 -14.9953 48
v 1.12095 -14.9581 48
v 1.86516 -14.8836 48
v 2.60472 -14.7721 48
v 3.33781 -14.6239 48
v 4.06261 -14.4394 48
v 4.7773 -14.2189 48
v 5.48012 -13.9631 48
v 6.16931 -13.6726 48
v 6.84316 -13.3481 48
v 7.5 -12.9904 48
v 8.13819 -12.6004 48
v 8.75616 -12.1791 48
v 9.35235 -11.7275 48
v 9.92529 -11.2467 48
v 10.4736 -10.738 48
v 10.9958 -10.2026 48
v 11.4907 -9.64181 48
v 11.957 -9.05707 48
v 12.3936 -8.4498 48
v 12.7994 -7.82153 48
v 13.1733 -7.17381 48
v 13.5145 -6.50826 48
v 13.8221 -5.82652 48
v 14.0954 -5.1303 48
v 14.3336 -4.42133 48
v 14.5362 -3.70136 48
v 14.7026 -2.97219 48
v 14.8325 -2.23563 48
v 14.9255 -1.49352 48
v 14.9814 -0.747688 48
v 15 -3.67394e-15 48
v 15 -3.67394e-15 0
v 14.9814 0.747688 0
v 14.9255 1.49352 0
v 14.8325 2.23563 0
v 14.7026 2.97219 0
v 14.5362 3.70136 0
v 14.3336 4.42133 0
v 14.0954 5.1303 0
v 13.8221 5.82652 0
v 13.5145 6.50826 0
v 13.1733 7.17381 0
v 12.7994 7.82153 0
v 12.3936 8.4498 0
v 11.957 9.05707 0
v 11.4907 9.64181 0
v 10.9958 10.2026 0
v 10.4736 10.738 0
v 9.92529 11.2467 0
v 9.35235 11.7275 0
v 8.75616 12.1791 0
v 8.13819 12.6004 0
v 7.5 12.9904 0
v 6.84316 13.3481 0
v 6.16931 13.6726 0
v 5.48012 13.9631 0
v 4.7773 14.2189 0
v 4.06261 14.4394 0
v 3.33781 14.6239 0
v 2.60472 14.7721 0
v 1.86516 14.8836 0
v 1.12095 14.9581 0
v 0.37396 14.9953 0
v -0.37396 14.9953 0
v -1.12095 14.9581 0
v -1.86516 14.8836 0
v -2.60472 14.7721 0
v -3.33781 14.6239 0
v -4.06261 14.4394 0
v -4.7773 14.2189 0
v -5.48012 13.9631 0
v -6.16931 13.6726 0
v -6.84316 13.3481 0
v -7.5 12.9904 0
v -8.13819 12.6004 0
v -8.75616 12.1791 0
v -9.35235 11.7275 0
v -9.92529 11.2467 0
v -10.4736 10.738 0
v -10.9958 10.2026 0
v -11.4907 9.64181 0
v -11.957 9.05707 0
v -12.3936 8.4498 0
v -12.7994 7.82153 0
v -13.1733 7.17381 0
v -13.5145 6.50826 0
v -13.8221 5.82652 0
v -14.0954 5.1303 0
v -14.3336 4.42133 0
v -14.5362 3.70136 0
v -14.7026 2.97219 0
v -14.8325 2.23563 0
v -14.9255 1.49352 0
v -14.9814 0.747688 0
v -15 -5.14537e-14 0
v -14.9814 -0.747688 0
v -14.9255 -1.49352 0
v -14.8325 -2.23563 0
v -14.7026 -2.97219 0
v -14.5362 -3.70136 0
v -14.3336 -4.42133 0
v -14.0954 -5.1303 0
v -13.8221 -5.82652 0
v -13.5145 -6.50826 0
v -13.1733 -7.17381 0
v -12.7994 -7.82153 0
v -12.3936 -8.4498 0
v -11.957 -9.05707 0
v -11.4907 -9.64181 0
v -10.9958 -10.2026 0
v -10.4736 -10.738 0
v -9.92529 -11.2467 0
v -9.35235 -11.7275 0
v -8.75616 -12.1791 0
v -8.13819 -12.6004 0
v -7.5 -12.9904 0
v -6.84316 -13.3481 0
v -6.16931 -13.6726 0
v -5.48012 -13.9631 0
v -4.7773 -14.2189 0
v -4.06261 -14.4394 0
v -3.33781 -14.6239 0
v -2.60472 -14.7721 0
v -1.86516 -14.8836 0
v -1.12095 -14.9581 0
v -0.37396 -14.9953 0
v 0.37396 -14.9953 0
v 1.12095 -14.9581 0
v 1.86516 -14.8836 0
v 2.60472 -14.7721 0
v 3.33781 -14.6239 0
v 4.06261 -14.4394 0
v 4.7773 -14.2189 0
v 5.48012 -13.9631 0
v 6.16931 -13.6726 0
v 6.84316 -13.3481 0
v 7.5 -12.9904 0
v 8.13819 -12.6004 0
v 8.75616 -12.1791 0
v 9.35235 -11.7275 0
v 9.92529 -11.2467 0
v 10.4736 -10.738 0
v 10.9958 -10.2026 0
v 11.4907 -9.64181 0
v 11.957 -9.05707 0
v 12.3936 -8.4498 0
v 12.7994 -7.82153 0
v 13.1733 -7.17381 0
v 13.5145 -6.50826 0
v 13.8221 -5.82652 0
v 14.0954 -5.1303 0
v 14.3336 -4.42133 0
v 14.5362 -3.70136 0
v 14.7026 -2.97219 0
v 14.8325 -2.23563 0
v 14.9255 -1.49352 0
v 14.9814 -0.747688 0
v 15 -3.67394e-15 0
v 115 -2.81669e-14 20
v 114.857 5.73228 20
v 114.429 11.4503 20
v 113.716 17.1399 20
v 112.72 22.7868 20
v 111.444 28.3771 20
v 109.891 33.8968 20
v 108.065 39.3323 20
v 105.97 44.67 20
v 103.611 49.8966 20
v 100.995 54.9992 20
v 98.1285 59.965 20
v 95.0175 64.7818 20
v 91.6702 69.4375 20
v 88.0951 73.9206 20
v 84.301 78.2199 20
v 80.2972 82.3247 20
v 76.0939 86.2248 20
v 71.7013 89.9106 20
v 67.1305 93.3729 20
v 62.3928 96.603 20
v 57.5 99.5929 20
v 52.4642 102.335 20
v 47.298 104.823 20
v 42.0142 107.05 20
v 36.626 109.012 20
v 31.1467 110.702 20
v 25.5899 112.117 20
v 19.9695 113.253 20
v 14.2995 114.108 20
v 8.59396 114.678 20
v 2.86703 114.964 20
v -2.86703 114.964 20
v -8.59396 114.678 20
v -14.2995 114.108 20
v -19.9695 113.253 20
v -25.5899 112.117 20
v -31.1467 110.702 20
v -36.626 109.012 20
v -42.0142 107.05 20
v -47.298 104.823 20
v -52.4642 102.335 20
v -57.5 99.5929 20
v -62.3928 96.603 20
v -67.1305 93.3729 20
v -71.7013 89.9106 20
v -76.0939 86.2248 20
v -80.2972 82.3247 20
v -84.301 78.2199 20
v -88.0951 73.9206 20
v -91.6702 69.4375 20
v -95.0175 64.7818 20
v -98.1285 59.965 20
v -100.995 54.9992 20
v -103.611 49.8966 20
v -105.97 44.67 20
v -108.065 39.3323 20
v -109.891 33.8968 20
v -111.444 28.3771 20
v -112.72 22.7868 20
v -113.716 17.1399 20
v -114.429 11.4503 20
v -114.857 5.73228 20
v -115 -3.94479e-13 20
v -114.857 -5.73228 20
v -114.429 -11.4503 20
v -113.716 -17.1399 20
v -112.72 -22.7868 20
v -111.444 -28.3771 20
v -109.891 -33.8968 20
v -108.065 -39.3323 20
v -105.97 -44.67 20
v -103.611 -49.8966 20
v -100.995 -54.9992 20
v -98.1285 -59.965 20
v -95.0175 -64.7818 20
v -91.6702 -69.4375 20
v -88.0951 -73.9206 20
v -84.301 -78.2199 20
v -80.2972 -82.3247 20
v -76.0939 -86.2248 20
v -71.7013 -89.9106 20
v -67.1305 -93.3729 20
v -62.3928 -96.603 20
v -57.5 -99.5929 20
v -52.4642 -102.335 20
v -47.298 -104.823 20
v -42.0142 -107.05 20
v -36.626 -109.012 20
v -31.1467 -110.702 20
v -25.5899 -112.117 20
v -19.9695 -113.253 20
v -14.2995 -114.108 20
v -8.59396 -114.678 20
v -2.86703 -114.964 20
v 2.86703 -114.964 20
v 8.59396 -114.678 20
v 14.2995 -114.108 20
v 19.9695 -113.253 20
v 25.5899 -112.117 20
v 31.1467 -110.702 20
v 36.626 -109.012 20
v 42.0142 -107.05 20
v 47.298 -104.823 20
v 52.4642 -102.335 20
v 57.5 -99.5929 20
v 62.3928 -96.603 20
v 67.1305 -93.3729 20
v 71.7013 -89.9106 20
v 76.0939 -86.2248 20
v 80.2972 -82.3247 20
v 84.301 -78.2199 20
v 88.0951 -73.9206 20
v 91.6702 -69.4375 20
v 95.0175 -64.7818 20
v 98.1285 -59.965 20
v 100.995 -54.9992 20
v 103.611 -49.8966 20
v 105.97 -44.67 20
v 108.065 -39.3323 20
v 109.891 -33.8968 20
v 111.444 -28.3771 20
v 112.72 -22.7868 20
v 113.716 -17.1399 20
v 114.429 -11.4503 20
v 114.857 -5.73228 20
v 50 -1.22465e-14 20
v 49.9378 2.49229 20
v 49.7515 4.97839 20
v 49.4415 7.45211 20
v 49.0086 9.90731 20
v 48.4539 12.3379 20
v 47.7786 14.7378 20
v 46.9846 17.101 20
v 46.0738 19.4217 20
v 45.0484 21.6942 20
v 43.9111 23.9127 20
v 42.6645 26.0718 20
v 41.3119 28.166 20
v 39.8566 30.1902 20
v 38.3022 32.1394 20
v 36.6526 34.0086 20
v 34.9118 35.7933 20
v 33.0843 37.4891 20
v 31.1745 39.0916 20
v 29.1872 40.5969 20
v 27.1273 42.0013 20
v 25 43.3013 20
v 22.8105 44.4936 20
v 20.5644 45.5753 20
v 18.2671 46.5437 20
v 15.9243 47.3964 20
v 13.542 48.1312 20
v 11.126 48.7464 20
v 8.68241 49.2404 20
v 6.21719 49.612 20
v 3.7365 49.8602 20
v 1.24653 49.9845 20
v -1.24653 49.9845 20
v -3.7365 49.8602 20
v -6.21719 49.612 20
v -8.68241 49.2404 20
v -11.126 48.7464 20
v -13.542 48.1312 20
v -15.9243 47.3964 20
v -18.2671 46.5437 20
v -20.5644 45.5753 20
v -22.8105 44.4936 20
v -25 43.3013 20
v -27.1273 42.0013 20
v -29.1872 40.5969 20
v -31.1745 39.0916 20
v -33.0843 37.4891 20
v -34.9118 35.7933 20
v -36.6526 34.0086 20
v -38.3022 32.1394 20
v -39.8566 30.1902 20
v -41.3119 28.166 20
v -42.6645 26.0718 20
v -43.9111 23.9127 20
v -45.0484 21.6942 20
v -46.0738 19.4217 20
v -46.9846 17.101 20
v -47.7786 14.7378 20
v -48.4539 12.3379 20
v -49.0086 9.90731 20
v -49.4415 7.45211 20
v -49.7515 4.97839 20
v -49.9378 2.49229 20
v -50 -1.71512e-13 20
v -49.9378 -2.49229 20
v -49.7515 -4.97839 20
v -49.4415 -7.45211 20
v -49.0086 -9.90731 20
v -48.4539 -12.3379 20
v -47.7786 -14.7378 20
v -46.9846 -17.101 20
v -46.0738 -19.4217 20
v -45.0484 -21.6942 20
v -43.9111 -23.9127 20
v -42.6645 -26.0718 20
v -41.3119 -28.166 20
v -39.8566 -30.1902 20
v -38.3022 -32.1394 20
v -36.6526 -34.0086 20
v -34.9118 -35.7933 20
v -33.0843 -37.4891 20
v -31.1745 -39.0916 20
v -29.1872 -40.5969 20
v -27.1273 -42.0013 20
v -25 -43.3013 20
v -22.8105 -44.4936 20
v -20.5644 -45.5753 20
v -18.2671 -46.5437 20
v -15.9243 -47.3964 20
v -13.542 -48.1312 20
v -11.126 -48.7464 20
v -8.68241 -49.2404 20
v -6.21719 -49.612 20
v -3.7365 -49.8602 20
v -1.24653 -49.9845 20
v 1.24653 -49.9845 20
v 3.7365 -49.8602 20
v 6.21719 -49.612 20
v 8.68241 -49.2404 20
v 11.126 -48.7464 20
v 13.542 -48.1312 20
v 15.9243 -47.3964 20
v 18.2671 -46.5437 20
v 20.5644 -45.5753 20
v 22.8105 -44.4936 20
v 25 -43.3013 20
v 27.1273 -42.0013 20
v 29.1872 -40.5969 20
v 31.1745 -39.0916 20
v 33.0843 -37.4891 20
v 34.9118 -35.7933 20
v 36.6526 -34.0086 20
v 38.3022 -32.1394 20
v 39.8566 -30.1902 20
v 41.3119 -28.166 20
v 42.6645 -26.0718 20
v 43.9111 -23.9127 20
v 45.0484 -21.6942 20
v 46.0738 -19.4217 20
v 46.9846 -17.101 20
v 47.7786 -14.7378 20
v 48.4539 -12.3379 20
v 49.0086 -9.90731 20
v 49.4415 -7.45211 20
v 49.7515 -4.97839 20
v 49.9378 -2.49229 20
v 45 -1.10218e-14 48
v 44.9441 2.24306 48
v 44.7764 4.48055 48
v 44.4974 6.7069 48
v 44.1078 8.91658 48
v 43.6085 11.1041 48
v 43.0008 13.264 48
v 42.2862 15.3909 48
v 41.4664 17.4796 48
v 40.5436 19.5248 48
v 39.52 21.5214 48
v 38.3981 23.4646 48
v 37.1807 25.3494 48
v 35.871 27.1712 48
v 34.472 28.9254 48
v 32.9873 30.6078 48
v 31.4207 32.214 48
v 29.7759 33.7402 48
v 28.057 35.1824 48
v 26.2685 36.5372 48
v 24.4146 37.8012 48
v 22.5 38.9711 48
v 20.5295 40.0442 48
v 18.5079 41.0178 48
v 16.4403 41.8893 48
v 14.3319 42.6567 48
v 12.1878 43.3181 48
v 10.0134 43.8718 48
v 7.81417 44.3163 48
v 5.59547 44.6508 48
v 3.36285 44.8742 48
v 1.12188 44.986 48
v -1.12188 44.986 48
v -3.36285 44.8742 48
v -5.59547 44.6508 48
v -7.81417 44.3163 48
v -10.0134 43.8718 48
v -12.1878 43.3181 48
v -14.3319 42.6567 48
v -16.4403 41.8893 48
v -18.5079 41.0178 48
v -20.5295 40.0442 48
v -22.5 38.9711 48
v -24.4146 37.8012 48
v -26.2685 36.5372 48
v -28.057 35.1824 48
v -29.7759 33.7402 48
v -31.4207 32.214 48
v -32.9873 30.6078 48
v -34.472 28.9254 48
v -35.871 27.1712 48
v -37.1807 25.3494 48
v -38.3981 23.4646 48
v -39.52 21.5214 48
v -40.5436 19.5248 48
v -41.4664 17.4796 48
v -42.2862 15.3909 48
v -43.0008 13.264 48
v -43.6085 11.1041 48
v -44.1078 8.91658 48
v -44.4974 6.7069 48
v -44.7764 4.48055 48
v -44.9441 2.24306 48
v -45 -1.54361e-13 48
v -44.9441 -2.24306 48
v -44.7764 -4.48055 48
v -44.4974 -6.7069 48
v -44.1078 -8.91658 48
v -43.6085 -11.1041 48
v -43.0008 -13.264 48
v -42.2862 -15.3909 48
v -41.4664 -17.4796 48
v -40.5436 -19.5248 48
v -39.52 -21.5214 48
v -38.3981 -23.4646 48
v -37.1807 -25.3494 48
v -35.871 -27.1712 48
v -34.472 -28.9254 48
v -32.9873 -30.6078 48
v -31.4207 -32.214 48
v -29.7759 -33.7402 48
v -28.057 -35.1824 48
v -26.2685 -36.5372 48
v -24.4146 -37.8012 48
v -22.5 -38.9711 48
v -20.5295 -40.0442 48
v -18.5079 -41.0178 48
v -16.4403 -41.8893 48
v -14.3319 -42.6567 48
v -12.1878 -43.3181 48
v -10.0134 -43.8718 48
v -7.81417 -44.3163 48
v -5.59547 -44.6508 48
v -3.36285 -44.8742 48
v -1.12188 -44.986 48
v 1.12188 -44.986 48
v 3.36285 -44.8742 48
v 5.59547 -44.6508 48
v 7.81417 -44.3163 48
v 10.0134 -43.8718 48
v 12.1878 -43.3181 48
v 14.3319 -42.6567 48
v 16.4403 -41.8893 48
v 18.5079 -41.0178 48
v 20.5295 -40.0442 48
v 22.5 -38.9711 48
v 24.4146 -37.8012 48
v 26.2685 -36.5372 48
v 28.057 -35.1824 48
v 29.7759 -33.7402 48
v 31.4207 -32.214 48
v 32.9873 -30.6078 48
v 34.472 -28.9254 48
v 35.871 -27.1712 48
v 37.1807 -25.3494 48
v 38.3981 -23.4646 48
v 39.52 -21.5214 48
v 40.5436 -19.5248 48
v 41.4664 -17.4796 48
v 42.2862 -15.3909 48
v 43.0008 -13.264 48
v 43.6085 -11.1041 48
v 44.1078 -8.91658 48
v 44.4974 -6.7069 48
v 44.7764 -4.48055 48
v 44.9441 -2.24306 48
v 15 -3.67394e-15 48
v 14.9814 0.747688 48
v 14.9255 1.49352 48
v 14.8325 2.23563 48
v 14.7026 2.97219 48
v 14.5362 3.70136 48
v 14.3336 4.42133 48
v 14.0954 5.1303 48
v 13.8221 5.82652 48
v 13.5145 6.50826 48
v 13.1733 7.17381 48
v 12.7994 7.82153 48
v 12.3936 8.4498 48
v 11.957 9.05707 48
v 11.4907 9.64181 48
v 10.9958 10.2026 48
v 10.4736 10.738 48
v 9.92529 11.2467 48
v 9.35235 11.7275 48
v 8.75616 12.1791 48
v 8.13819 12.6004 48
v 7.5 12.9904 48
v 6.84316 13.3481 48
v 6.16931 13.6726 48
v 5.48012 13.9631 48
v 4.7773 14.2189 48
v 4.06261 14.4394 48
v 3.33781 14.6239 48
v 2.60472 14.7721 48
v 1.86516 14.8836 48
v 1.12095 14.9581 48
v 0.37396 14.9953 48
v -0.37396 14.9953 48
v -1.12095 14.9581 48
v -1.86516 14.8836 48
v -2.60472 14.7721 48
v -3.33781 14.6239 48
v -4.06261 14.4394 48
v -4.7773 14.2189 48
v -5.48012 13.9631 48
v -6.16931 13.6726 48
v -6.84316 13.3481 48
v -7.5 12.9904 48
v -8.13819 12.6004 48
v -8.75616 12.1791 48
v -9.35235 11.7275 48
v -9.92529 11.2467 48
v -10.4736 10.738 48
v -10.9958 10.2026 48
v -11.4907 9.64181 48
v -11.957 9.05707 48
v -12.3936 8.4498 48
v -12.7994 7.82153 48
v -13.1733 7.17381 48
v -13.5145 6.50826 48
v -13.8221 5.82652 48
v -14.0954 5.1303 48
v -14.3336 4.42133 48
v -14.5362 3.70136 48
v -14.7026 2.97219 48
v -14.8325 2.23563 48
v -14.9255 1.49352 48
v -14.9814 0.747688 48
v -15 -5.14537e-14 48
v -14.9814 -0.747688 48
v -14.9255 -1.49352 48
v -14.8325 -2.23563 48
v -14.7026 -2.97219 48
v -14.5362 -3.70136 48
v -14.3336 -4.42133 48
v -14.0954 -5.1303 48
v -13.8221 -5.82652 48
v -13.5145 -6.50826 48
v -13.1733 -7.17381 48
v -12.7994 -7.82153 48
v -12.3936 -8.4498 48
v -11.957 -9.05707 48
v -11.4907 -9.64181 48
v -10.9958 -10.2026 48
v -10.4736 -10.738 48
v -9.92529 -11.2467 48
v -9.35235 -11.7275 48
v -8.75616 -12.1791 48
v -8.13819 -12.6004 48
v -7.5 -12.9904 48
v -6.84316 -13.3481 48
v -6.16931 -13.6726 48
v -5.48012 -13.9631 48
v -4.7773 -14.2189 48
v -4.06261 -14.4394 48
v -3.33781 -14.6239 48
v -2.60472 -14.7721 48
v -1.86516 -14.8836 48
v -1.12095 -14.9581 48
v -0.37396 -14.9953 48
v 0.37396 -14.9953 48
v 1.12095 -14.9581 48
v 1.86516 -14.8836 48
v 2.60472 -14.7721 48
v 3.33781 -14.6239 48
v 4.06261 -14.4394 48
v 4.7773 -14.2189 48
v 5.48012 -13.9631 48
v 6.16931 -13.6726 48
v 6.84316 -13.3481 48
v 7.5 -12.9904 48
v 8.13819 -12.6004 48
v 8.75616 -12.1791 48
v 9.35235 -11.7275 48
v 9.92529 -11.2467 48
v 10.4736 -10.738 48
v 10.9958 -10.2026 48
v 11.4907 -9.64181 48
v 11.957 -9.05707 48
v 12.3936 -8.4498 48
v 12.7994 -7.82153 48
v 13.1733 -7.17381 48
v 13.5145 -6.50826 48
v 13.8221 -5.82652 48
v 14.0954 -5.1303 48
v 14.3336 -4.42133 48
v 14.5362 -3.70136 48
v 14.7026 -2.97219 48
v 14.8325 -2.23563 48
v 14.9255 -1.49352 48
v 14.9814 -0.747688 48
v 50 -1.22465e-14 32
v 49.9378 2.49229 32
v 49.7515 4.97839 32
v 49.4415 7.45211 32
v 49.0086 9.90731 32
v 48.4539 12.3379 32
v 47.7786 14.7378 32
v 46.9846 17.101 32
v 46.0738 19.4217 32
v 45.0484 21.6942 32
v 43.9111 23.9127 32
v 42.6645 26.0718 32
v 41.3119 28.166 32
v 39.8566 30.1902 32
v 38.3022 32.1394 32
v 36.6526 34.0086 32
v 34.9118 35.7933 32
v 33.0843 37.4891 32
v 31.1745 39.0916 32
v 29.1872 40.5969 32
v 27.1273 42.0013 32
v 25 43.3013 32
v 22.8105 44.4936 32
v 20.5644 45.5753 32
v 18.2671 46.5437 32
v 15.9243 47.3964 32
v 13.542 48.1312 32
v 11.126 48.7464 32
v 8.68241 49.2404 32
v 6.21719 49.612 32
v 3.7365 49.8602 32
v 1.24653 49.9845 32
v -1.24653 49.9845 32
v -3.7365 49.8602 32
v -6.21719 49.612 32
v -8.68241 49.2404 32
v -11.126 48.7464 32
v -13.542 48.1312 32
v -15.9243 47.3964 32
v -18.2671 46.5437 32
v -20.5644 45.5753 32
v -22.8105 44.4936 32
v -25 43.3013 32
v -27.1273 42.0013 32
v -29.1872 40.5969 32
v -31.1745 39.0916 32
v -33.0843 37.4891 32
v -34.9118 35.7933 32
v -36.6526 34.0086 32
v -38.3022 32.1394 32
v -39.8566 30.1902 32
v -41.3119 28.166 32
v -42.6645 26.0718 32
v -43.9111 23.9127 32
v -45.0484 21.6942 32
v -46.0738 19.4217 32
v -46.9846 17.101 32
v -47.7786 14.7378 32
v -48.4539 12.3379 32
v -49.0086 9.90731 32
v -49.4415 7.45211 32
v -49.7515 4.97839 32
v -49.9378 2.49229 32
v -50 -1.71512e-13 32
v -49.9378 -2.49229 32
v -49.7515 -4.97839 32
v -49.4415 -7.45211 32
v -49.0086 -9.90731 32
v -48.4539 -12.3379 32
v -47.7786 -14.7378 32
v -46.9846 -17.101 32
v -46.0738 -19.4217 32
v -45.0484 -21.6942 32
v -43.9111 -23.9127 32
v -42.6645 -26.0718 32
v -41.3119 -28.166 32
v -39.8566 -30.1902 32
v -38.3022 -32.1394 32
v -36.6526 -34.0086 32
v -34.9118 -35.7933 32
v -33.0843 -37.4891 32
v -31.1745 -39.0916 32
v -29.1872 -40.5969 32
v -27.1273 -42.0013 32
v -25 -43.3013 32
v -22.8105 -44.4936 32
v -20.5644 -45.5753 32
v -18.2671 -46.5437 32
v -15.9243 -47.3964 32
v -13.542 -48.1312 32
v -11.126 -48.7464 32
v -8.68241 -49.2404 32
v -6.21719 -49.612 32
v -3.7365 -49.8602 32
v -1.24653 -49.9845 32
v 1.24653 -49.9845 32
v 3.7365 -49.8602 32
v 6.21719 -49.612 32
v 8.68241 -49.2404 32
v 11.126 -48.7464 32
v 13.542 -48.1312 32
v 15.9243 -47.3964 32
v 18.2671 -46.5437 32
v 20.5644 -45.5753 32
v 22.8105 -44.4936 32
v 25 -43.3013 32
v 27.1273 -42.0013 32
v 29.1872 -40.5969 32
v 31.1745 -39.0916 32
v 33.0843 -37.4891 32
v 34.9118 -35.7933 32
v 36.6526 -34.0086 32
v 38.3022 -32.1394 32
v 39.8566 -30.1902 32
v 41.3119 -28.166 32
v 42.6645 -26.0718 32
v 43.9111 -23.9127 32
v 45.0484 -21.6942 32
v 46.0738 -19.4217 32
v 46.9846 -17.101 32
v 47.7786 -14.7378 32
v 48.4539 -12.3379 32
v 49.0086 -9.90731 32
v 49.4415 -7.45211 32
v 49.7515 -4.97839 32
v 49.9378 -2.49229 32
v 50 -1.22465e-14 32
v 50 -1.22465e-14 20
v 49.9378 2.49229 20
v 49.7515 4.97839 20
v 49.4415 7.45211 20
v 49.0086 9.90731 20
v 48.4539 12.3379 20
v 47.7786 14.7378 20
v 46.9846 17.101 20
v 46.0738 19.4217 20
v 45.0484 21.6942 20
v 43.9111 23.9127 20
v 42.6645 26.0718 20
v 41.3119 28.166 20
v 39.8566 30.1902 20
v 38.3022 32.1394 20
v 36.6526 34.0086 20
v 34.9118 35.7933 20
v 33.0843 37.4891 20
v 31.1745 39.0916 20
v 29.1872 40.5969 20
v 27.1273 42.0013 20
v 25 43.3013 20
v 22.8105 44.4936 20
v 20.5644 45.5753 20
v 18.2671 46.5437 20
v 15.9243 47.3964 20
v 13.542 48.1312 20
v 11.126 48.7464 20
v 8.68241 49.2404 20
v 6.21719 49.612 20
v 3.7365 49.8602 20
v 1.24653 49.9845 20
v -1.24653 49.9845 20
v -3.7365 49.8602 20
v -6.21719 49.612 20
v -8.68241 49.2404 20
v -11.126 48.7464 20
v -13.542 48.1312 20
v -15.9243 47.3964 20
v -18.2671 46.5437 20
v -20.5644 45.5753 20
v -22.8105 44.4936 20
v -25 43.3013 20
v -27.1273 42.0013 20
v -29.1872 40.5969 20
v -31.1745 39.0916 20
v -33.0843 37.4891 20
v -34.9118 35.7933 20
v -36.6526 34.0086 20
v -38.3022 32.1394 20
v -39.8566 30.1902 20
v -41.3119 28.166 20
v -42.6645 26.0718 20
v -43.9111 23.9127 20
v -45.0484 21.6942 20
v -46.0738 19.4217 20
v -46.9846 17.101 20
v -47.7786 14.7378 20
v -48.4539 12.3379 20
v -49.0086 9.90731 20
v -49.4415 7.45211 20
v -49.7515 4.97839 20
v -49.9378 2.49229 20
v -50 -1.71512e-13 20
v -49.9378 -2.49229 20
v -49.7515 -4.97839 20
v -49.4415 -7.45211 20
v -49.0086 -9.90731 20
v -48.4539 -12.3379 20
v -47.7786 -14.7378 20
v -46.9846 -17.101 20
v -46.0738 -19.4217 20
v -45.0484 -21.6942 20
v -43.9111 -23.9127 20
v -42.6645 -26.0718 20
v -41.3119 -28.166 20
v -39.8566 -30.1902 20
v -38.3022 -32.1394 20
v -36.6526 -34.0086 20
v -34.9118 -35.7933 20
v -33.0843 -37.4891 20
v -31.1745 -39.0916 20
v -29.1872 -40.5969 20
v -27.1273 -42.0013 20
v -25 -43.3013 20
v -22.8105 -44.4936 20
v -20.5644 -45.5753 20
v -18.2671 -46.5437 20
v -15.9243 -47.3964 20
v -13.542 -48.1312 20
v -11.126 -48.7464 20
v -8.68241 -49.2404 20
v -6.21719 -49.612 20
v -3.7365 -49.8602 20
v -1.24653 -49.9845 20
v 1.24653 -49.9845 20
v 3.7365 -49.8602 20
v 6.21719 -49.612 20
v 8.68241 -49.2404 20
v 11.126 -48.7464 20
v 13.542 -48.1312 20
v 15.9243 -47.3964 20
v 18.2671 -46.5437 20
v 20.5644 -45.5753 20
v 22.8105 -44.4936 20
v 25 -43.3013 20
v 27.1273 -42.0013 20
v 29.1872 -40.5969 20
v 31.1745 -39.0916 20
v 33.0843 -37.4891 20
v 34.9118 -35.7933 20
v 36.6526 -34.0086 20
v 38.3022 -32.1394 20
v 39.8566 -30.1902 20
v 41.3119 -28.166 20
v 42.6645 -26.0718 20
v 43.9111 -23.9127 20
v 45.0484 -21.6942 20
v 46.0738 -19.4217 20
v 46.9846 -17.101 20
v 47.7786 -14.7378 20
v 48.4539 -12.3379 20
v 49.0086 -9.90731 20
v 49.4415 -7.45211 20
v 49.7515 -4.97839 20
v 49.9378 -2.49229 20
v 50 -1.22465e-14 20
v 45 -1.10218e-14 32
v 45 -1.10218e-14 48
v 45 -1.10218e-14 48
v 44.9441 2.24306 48
v 44.7764 4.48055 48
v 44.4974 6.7069 48
v 44.1078 8.91658 48
v 43.6085 11.1041 48
v 43.0008 13.264 48
v 42.2862 15.3909 48
v 41.4664 17.4796 48
v 40.5436 19.5248 48
v 39.52 21.5214 48
v 38.3981 23.4646 48
v 37.1807 25.3494 48
v 35.871 27.1712 48
v 34.472 28.9254 48
v 32.9873 30.6078 48
v 31.4207 32.214 48
v 29.7759 33.7402 48
v 28.057 35.1824 48
v 26.2685 36.5372 48
v 24.4146 37.8012 48
v 22.5 38.9711 48
v 20.5295 40.0442 48
v 18.5079 41.0178 48
v 16.4403 41.8893 48
v 14.3319 42.6567 48
v 12.1878 43.3181 48
v 10.0134 43.8718 48
v 7.81417 44.3163 48
v 5.59547 44.6508 48
v 3.36285 44.8742 48
v 1.12188 44.986 48
v -1.12188 44.986 48
v -3.36285 44.8742 48
v -5.59547 44.6508 48
v -7.81417 44.3163 48
v -10.0134 43.8718 48
v -12.1878 43.3181 48
v -14.3319 42.6567 48
v -16.4403 41.8893 48
v -18.5079 41.0178 48
v -20.5295 40.0442 48
v -22.5 38.9711 48
v -24.4146 37.8012 48
v -26.2685 36.5372 48
v -28.057 35.1824 48
v -29.7759 33.7402 48
v -31.4207 32.214 48
v -32.9873 30.6078 48
v -34.472 28.9254 48
v -35.871 27.1712 48
v -37.1807 25.3494 48
v -38.3981 23.4646 48
v -39.52 21.5214 48
v -40.5436 19.5248 48
v -41.4664 17.4796 48
v -42.2862 15.3909 48
v -43.0008 13.264 48
v -43.6085 11.1041 48
v -44.1078 8.91658 48
v -44.4974 6.7069 48
v -44.7764 4.48055 48
v -44.9441 2.24306 48
v -45 -1.54361e-13 48
v -44.9441 -2.24306 48
v -44.7764 -4.48055 48
v -44.4974 -6.7069 48
v -44.1078 -8.91658 48
v -43.6085 -11.1041 48
v -43.0008 -13.264 48
v -42.2862 -15.3909 48
v -41.4664 -17.4796 48
v -40.5436 -19.5248 48
v -39.52 -21.5214 48
v -38.3981 -23.4646 48
v -37.1807 -25.3494 48
v -35.871 -27.1712 48
v -34.472 -28.9254 48
v -32.9873 -30.6078 48
v -31.4207 -32.214 48
v -29.7759 -33.7402 48
v -28.057 -35.1824 48
v -26.2685 -36.5372 48
v -24.4146 -37.8012 48
v -22.5 -38.9711 48
v -20.5295 -40.0442 48
v -18.5079 -41.0178 48
v -16.4403 -41.8893 48
v -14.3319 -42.6567 48
v -12.1878 -43.3181 48
v -10.0134 -43.8718 48
v -7.81417 -44.3163 48
v -5.59547 -44.6508 48
v -3.36285 -44.8742 48
v -1.12188 -44.986 48
v 1.12188 -44.986 48
v 3.36285 -44.8742 48
v 5.59547 -44.6508 48
v 7.81417 -44.3163 48
v 10.0134 -43.8718 48
v 12.1878 -43.3181 48
v 14.3319 -42.6567 48
v 16.4403 -41.8893 48
v 18.5079 -41.0178 48
v 20.5295 -40.0442 48
v 22.5 -38.9711 48
v 24.4146 -37.8012 48
v 26.2685 -36.5372 48
v 28.057 -35.1824 48
v 29.7759 -33.7402 48
v 31.4207 -32.214 48
v 32.9873 -30.6078 48
v 34.472 -28.9254 48
v 35.871 -27.1712 48
v 37.1807 -25.3494 48
v 38.3981 -23.4646 48
v 39.52 -21.5214 48
v 40.5436 -19.5248 48
v 41.4664 -17.4796 48
v 42.2862 -15.3909 48
v 43.0008 -13.264 48
v 43.6085 -11.1041 48
v 44.1078 -8.91658 48
v 44.4974 -6.7069 48
v 44.7764 -4.48055 48
v 44.9441 -2.24306 48
v 45 -1.10218e-14 32
v 44.9441 2.24306 32
v 44.7764 4.48055 32
v 44.4974 6.7069 32
v 44.1078 8.91658 32
v 43.6085 11.1041 32
v 43.0008 13.264 32
v 42.2862 15.3909 32
v 41.4664 17.4796 32
v 40.5436 19.5248 32
v 39.52 21.5214 32
v 38.3981 23.4646 32
v 37.1807 25.3494 32
v 35.871 27.1712 32
v 34.472 28.9254 32
v 32.9873 30.6078 32
v 31.4207 32.214 32
v 29.7759 33.7402 32
v 28.057 35.1824 32
v 26.2685 36.5372 32
v 24.4146 37.8012 32
v 22.5 38.9711 32
v 20.5295 40.0442 32
v 18.5079 41.0178 32
v 16.4403 41.8893 32
v 14.3319 42.6567 32
v 12.1878 43.3181 32
v 10.0134 43.8718 32
v 7.81417 44.3163 32
v 5.59547 44.6508 32
v 3.36285 44.8742 32
v 1.12188 44.986 32
v -1.12188 44.986 32
v -3.36285 44.8742 32
v -5.59547 44.6508 32
v -7.81417 44.3163 32
v -10.0134 43.8718 32
v -12.1878 43.3181 32
v -14.3319 42.6567 32
v -16.4403 41.8893 32
v -18.5079 41.0178 32
v -20.5295 40.0442 32
v -22.5 38.9711 32
v -24.4146 37.8012 32
v -26.2685 36.5372 32
v -28.057 35.1824 32
v -29.7759 33.7402 32
v -31.4207 32.214 32
v -32.9873 30.6078 32
v -34.472 28.9254 32
v -35.871 27.1712 32
v -37.1807 25.3494 32
v -38.3981 23.4646 32
v -39.52 21.5214 32
v -40.5436 19.5248 32
v -41.4664 17.4796 32
v -42.2862 15.3909 32
v -43.0008 13.264 32
v -43.6085 11.1041 32
v -44.1078 8.91658 32
v -44.4974 6.7069 32
v -44.7764 4.48055 32
v -44.9441 2.24306 32
v -45 -1.54361e-13 32
v -44.9441 -2.24306 32
v -44.7764 -4.48055 32
v -44.4974 -6.7069 32
v -44.1078 -8.91658 32
v -43.6085 -11.1041 32
v -43.0008 -13.264 32
v -42.2862 -15.3909 32
v -41.4664 -17.4796 32
v -40.5436 -19.5248 32
v -39.52 -21.5214 32
v -38.3981 -23.4646 32
v -37.1807 -25.3494 32
v -35.871 -27.1712 32
v -34.472 -28.9254 32
v -32.9873 -30.6078 32
v -31.4207 -32.214 32
v -29.7759 -33.7402 32
v -28.057 -35.1824 32
v -26.2685 -36.5372 32
v -24.4146 -37.8012 32
v -22.5 -38.9711 32
v -20.5295 -40.0442 32
v -18.5079 -41.0178 32
v -16.4403 -41.8893 32
v -14.3319 -42.6567 32
v -12.1878 -43.3181 32
v -10.0134 -43.8718 32
v -7.81417 -44.3163 32
v -5.59547 -44.6508 32
v -3.36285 -44.8742 32
v -1.12188 -44.986 32
v 1.12188 -44.986 32
v 3.36285 -44.8742 32
v 5.59547 -44.6508 32
v 7.81417 -44.3163 32
v 10.0134 -43.8718 32
v 12.1878 -43.3181 32
v 14.3319 -42.6567 32
v 16.4403 -41.8893 32
v 18.5079 -41.0178 32
v 20.5295 -40.0442 32
v 22.5 -38.9711 32
v 24.4146 -37.8012 32
v 26.2685 -36.5372 32
v 28.057 -35.1824 32
v 29.7759 -33.7402 32
v 31.4207 -32.214 32
v 32.9873 -30.6078 32
v 34.472 -28.9254 32
v 35.871 -27.1712 32
v 37.1807 -25.3494 32
v 38.3981 -23.4646 32
v 39.52 -21.5214 32
v 40.5436 -19.5248 32
v 41.4664 -17.4796 32
v 42.2862 -15.3909 32
v 43.0008 -13.264 32
v 43.6085 -11.1041 32
v 44.1078 -8.91658 32
v 44.4974 -6.7069 32
v 44.7764 -4.48055 32
v 44.9441 -2.24306 32
v 50 -1.22465e-14 32
v 49.9378 2.49229 32
v 49.7515 4.97839 32
v 49.4415 7.45211 32
v 49.0086 9.90731 32
v 48.4539 12.3379 32
v 47.7786 14.7378 32
v 46.9846 17.101 32
v 46.0738 19.4217 32
v 45.0484 21.6942 32
v 43.9111 23.9127 32
v 42.6645 26.0718 32
v 41.3119 28.166 32
v 39.8566 30.1902 32
v 38.3022 32.1394 32
v 36.6526 34.0086 32
v 34.9118 35.7933 32
v 33.0843 37.4891 32
v 31.1745 39.0916 32
v 29.1872 40.5969 32
v 27.1273 42.0013 32
v 25 43.3013 32
v 22.8105 44.4936 32
v 20.5644 45.5753 32
v 18.2671 46.5437 32
v 15.9243 47.3964 32
v 13.542 48.1312 32
v 11.126 48.7464 32
v 8.68241 49.2404 32
v 6.21719 49.612 32
v 3.7365 49.8602 32
v 1.24653 49.9845 32
v -1.24653 49.9845 32
v -3.7365 49.8602 32
v -6.21719 49.612 32
v -8.68241 49.2404 32
v -11.126 48.7464 32
v -13.542 48.1312 32
v -15.9243 47.3964 32
v -18.2671 46.5437 32
v -20.5644 45.5753 32
v -22.8105 44.4936 32
v -25 43.3013 32
v -27.1273 42.0013 32
v -29.1872 40.5969 32
v -31.1745 39.0916 32
v -33.0843 37.4891 32
v -34.9118 35.7933 32
v -36.6526 34.0086 32
v -38.3022 32.1394 32
v -39.8566 30.1902 32
v -41.3119 28.166 32
v -42.6645 26.0718 32
v -43.9111 23.9127 32
v -45.0484 21.6942 32
v -46.0738 19.4217 32
v -46.9846 17.101 32
v -47.7786 14.7378 32
v -48.4539 12.3379 32
v -49.0086 9.90731 32
v -49.4415 7.45211 32
v -49.7515 4.97839 32
v -49.9378 2.49229 32
v -50 -1.71512e-13 32
v -49.9378 -2.49229 32
v -49.7515 -4.97839 32
v -49.4415 -7.45211 32
v -49.0086 -9.90731 32
v -48.4539 -12.3379 32
v -47.7786 -14.7378 32
v -46.9846 -17.101 32
v -46.0738 -19.4217 32
v -45.0484 -21.6942 32
v -43.9111 -23.9127 32
v -42.6645 -26.0718 32
v -41.3119 -28.166 32
v -39.8566 -30.1902 32
v -38.3022 -32.1394 32
v -36.6526 -34.0086 32
v -34.9118 -35.7933 32
v -33.0843 -37.4891 32
v -31.1745 -39.0916 32
v -29.1872 -40.5969 32
v -27.1273 -42.0013 32
v -25 -43.3013 32
v -22.8105 -44.4936 32
v -20.5644 -45.5753 32
v -18.2671 -46.5437 32
v -15.9243 -47.3964 32
v -13.542 -48.1312 32
v -11.126 -48.7464 32
v -8.68241 -49.2404 32
v -6.21719 -49.612 32
v -3.7365 -49.8602 32
v -1.24653 -49.9845 32
v 1.24653 -49.9845 32
v 3.7365 -49.8602 32
v 6.21719 -49.612 32
v 8.68241 -49.2404 32
v 11.126 -48.7464 32
v 13.542 -48.1312 32
v 15.9243 -47.3964 32
v 18.2671 -46.5437 32
v 20.5644 -45.5753 32
v 22.8105 -44.4936 32
v 25 -43.3013 32
v 27.1273 -42.0013 32
v 29.1872 -40.5969 32
v 31.1745 -39.0916 32
v 33.0843 -37.4891 32
v 34.9118 -35.7933 32
v 36.6526 -34.0086 32
v 38.3022 -32.1394 32
v 39.8566 -30.1902 32
v 41.3119 -28.166 32
v 42.6645 -26.0718 32
v 43.9111 -23.9127 32
v 45.0484 -21.6942 32
v 46.0738 -19.4217 32
v 46.9846 -17.101 32
v 47.7786 -14.7378 32
v 48.4539 -12.3379 32
v 49.0086 -9.90731 32
v 49.4415 -7.45211 32
v 49.7515 -4.97839 32
v 49.9378 -2.49229 32
v 45 -1.10218e-14 32
v 44.9441 2.24306 32
v 44.7764 4.48055 32
v 44.4974 6.7069 32
v 44.1078 8.91658 32
v 43.6085 11.1041 32
v 43.0008 13.264 32
v 42.2862 15.3909 32
v 41.4664 17.4796 32
v 40.5436 19.5248 32
v 39.52 21.5214 32
v 38.3981 23.4646 32
v 37.1807 25.3494 32
v 35.871 27.1712 32
v 34.472 28.9254 32
v 32.9873 30.6078 32
v 31.4207 32.214 32
v 29.7759 33.7402 32
v 28.057 35.1824 32
v 26.2685 36.5372 32
v 24.4146 37.8012 32
v 22.5 38.9711 32
v 20.5295 40.0442 32
v 18.5079 41.0178 32
v 16.4403 41.8893 32
v 14.3319 42.6567 32
v 12.1878 43.3181 32
v 10.0134 43.8718 32
v 7.81417 44.3163 32
v 5.59547 44.6508 32
v 3.36285 44.8742 32
v 1.12188 44.986 32
v -1.12188 44.986 32
v -3.36285 44.8742 32
v -5.59547 44.6508 32
v -7.81417 44.3163 32
v -10.0134 43.8718 32
v -12.1878 43.3181 32
v -14.3319 42.6567 32
v -16.4403 41.8893 32
v -18.5079 41.0178 32
v -20.5295 40.0442 32
v -22.5 38.9711 32
v -24.4146 37.8012 32
v -26.2685 36.5372 32
v -28.057 35.1824 32
v -29.7759 33.7402 32
v -31.4207 32.214 32
v -32.9873 30.6078 32
v -34.472 28.9254 32
v -35.871 27.1712 32
v -37.1807 25.3494 32
v -38.3981 23.4646 32
v -39.52 21.5214 32
v -40.5436 19.5248 32
v -41.4664 17.4796 32
v -42.2862 15.3909 32
v -43.0008 13.264 32
v -43.6085 11.1041 32
v -44.1078 8.91658 32
v -44.4974 6.7069 32
v -44.7764 4.48055 32
v -44.9441 2.24306 32
v -45 -1.54361e-13 32
v -44.9441 -2.24306 32
v -44.7764 -4.48055 32
v -44.4974 -6.7069 32
v -44.1078 -8.91658 32
v -43.6085 -11.1041 32
v -43.0008 -13.264 32
v -42.2862 -15.3909 32
v -41.4664 -17.4796 32
v -40.5436 -19.5248 32
v -39.52 -21.5214 32
v -38.3981 -23.4646 32
v -37.1807 -25.3494 32
v -35.871 -27.1712 32
v -34.472 -28.9254 32
v -32.9873 -30.6078 32
v -31.4207 -32.214 32
v -29.7759 -33.7402 32
v -28.057 -35.1824 32
v -26.2685 -36.5372 32
v -24.4146 -37.8012 32
v -22.5 -38.9711 32
v -20.5295 -40.0442 32
v -18.5079 -41.0178 32
v -16.4403 -41.8893 32
v -14.3319 -42.6567 32
v -12.1878 -43.3181 32
v -10.0134 -43.8718 32
v -7.81417 -44.3163 32
v -5.59547 -44.6508 32
v -3.36285 -44.8742 32
v -1.12188 -44.986 32
v 1.12188 -44.986 32
v 3.36285 -44.8742 32
v 5.59547 -44.6508 32
v 7.81417 -44.3163 32
v 10.0134 -43.8718 32
v 12.1878 -43.3181 32
v 14.3319 -42.6567 32
v 16.4403 -41.8893 32
v 18.5079 -41.0178 32
v 20.5295 -40.0442 32
v 22.5 -38.9711 32
v 24.4146 -37.8012 32
v 26.2685 -36.5372 32
v 28.057 -35.1824 32
v 29.7759 -33.7402 32
v 31.4207 -32.214 32
v 32.9873 -30.6078 32
v 34.472 -28.9254 32
v 35.871 -27.1712 32
v 37.1807 -25.3494 32
v 38.3981 -23.4646 32
v 39.52 -21.5214 32
v 40.5436 -19.5248 32
v 41.4664 -17.4796 32
v 42.2862 -15.3909 32
v 43.0008 -13.264 32
v 43.6085 -11.1041 32
v 44.1078 -8.91658 32
v 44.4974 -6.7069 32
v 44.7764 -4.48055 32
v 44.9441 -2.24306 32
f 1 128 129
f 2 129 130
f 2 1 129
f 3 130 131
f 3 2 130
f 4 131 132
f 4 3 131
f 5 132 133
f 5 4 132
f 6 133 134
f 6 5 133
f 7 6 134
f 8 134 135
f 8 7 134
f 9 135 136
f 9 8 135
f 10 136 137
f 10 137 138
f 10 9 136
f 11 10 138
f 12 11 138
f 12 138 139
f 13 12 139
f 13 139 140
f 14 13 140
f 14 140 141
f 14 141 142
f 15 14 142
f 16 15 142
f 16 142 143
f 17 16 143
f 17 143 144
f 18 17 144
f 18 144 145
f 18 145 146
f 19 18 146
f 20 19 146
f 20 146 147
f 20 147 148
f 21 20 148
f 22 21 148
f 22 148 149
f 22 149 150
f 23 22 150
f 24 150 151
f 24 23 150
f 25 151 152
f 25 24 151
f 26 152 153
f 26 25 152
f 27 153 154
f 27 26 153
f 28 154 155
f 28 27 154
f 29 155 156
f 29 28 155
f 30 156 157
f 30 29 156
f 31 157 158
f 31 30 157
f 32 158 159
f 32 31 158
f 33 159 160
f 33 160 161
f 33 32 159
f 34 33 161
f 35 161 162
f 35 34 161
f 36 162 163
f 36 163 164
f 36 35 162
f 37 36 164
f 38 37 164
f 38 164 165
f 39 38 165
f 39 165 166
f 39 166 167
f 40 39 167
f 41 40 167
f 41 167 168
f 42 41 168
f 42 168 169
f 43 42 169
f 43 169 170
f 43 170 171
f 44 43 171
f 45 44 171
f 45 171 172
f 45 172 173
f 46 45 173
f 46 173 174
f 47 46 174
f 48 47 174
f 48 174 175
f 49 48 175
f 49 175 176
f 49 176 177
f 50 49 177
f 51 50 177
f 51 177 178
f 52 51 178
f 52 178 179
f 52 179 180
f 53 52 180
f 53 180 181
f 54 53 181
f 55 54 181
f 55 181 182
f 56 55 182
f 56 182 183
f 57 56 183
f 57 183 184
f 58 57 184
f 58 184 185
f 59 185 186
f 59 186 187
f 59 58 185
f 60 59 187
f 61 187 188
f 61 188 189
f 61 60 187
f 62 189 190
f 62 61 189
f 63 62 190
f 64 63 190
f 64 190 191
f 65 64 191
f 65 191 192
f 66 65 192
f 66 192 193
f 66 193 194
f 67 66 194
f 67 194 195
f 68 67 195
f 69 68 195
f 69 195 196
f 70 69 196
f 70 196 197
f 71 70 197
f 71 197 198
f 72 71 198
f 72 198 199
f 72 199 200
f 73 72 200
f 74 73 200
f 74 200 201
f 74 201 202
f 75 202 203
f 75 74 202
f 76 75 203
f 77 203 204
f 77 204 205
f 77 76 203
f 78 77 205
f 79 205 206
f 79 78 205
f 80 206 207
f 80 79 206
f 81 207 208
f 81 80 207
f 82 208 209
f 82 81 208
f 83 209 210
f 83 210 211
f 83 82 209
f 84 83 211
f 85 211 212
f 85 212 213
f 85 84 211
f 86 85 213
f 87 213 214
f 87 214 215
f 87 86 213
f 88 87 215
f 89 88 215
f 89 215 216
f 90 89 216
f 90 216 217
f 91 90 217
f 91 217 218
f 91 218 219
f 92 91 219
f 93 219 220
f 93 92 219
f 94 220 221
f 94 93 220
f 95 221 222
f 95 222 223
f 95 94 221
f 96 95 223
f 97 223 224
f 97 224 225
f 97 96 223
f 98 97 225
f 99 225 226
f 99 98 225
f 100 226 227
f 100 99 226
f 101 227 228
f 101 100 227
f 102 228 229
f 102 229 230
f 102 101 228
f 103 102 230
f 104 230 231
f 104 231 232
f 104 103 230
f 105 104 232
f 106 232 233
f 106 233 234
f 106 105 232
f 107 106 234
f 108 234 235
f 108 107 234
f 109 235 236
f 109 236 237
f 109 108 235
f 110 109 237
f 111 237 238
f 111 110 237
f 112 238 239
f 112 239 240
f 112 111 238
f 113 112 240
f 114 113 240
f 114 240 241
f 115 114 241
f 115 241 242
f 116 115 242
f 116 242 243
f 117 116 243
f 117 243 244
f 118 117 244
f 118 244 245
f 118 245 246
f 119 118 246
f 120 119 246
f 120 246 247
f 121 120 247
f 121 247 248
f 122 121 248
f 122 248 249
f 122 249 250
f 123 122 250
f 124 123 250
f 124 250 251
f 125 124 251
f 125 251 252
f 126 252 253
f 126 125 252
f 127 253 254
f 127 126 253
f 459 334 460
f 459 332 333
f 459 333 334
f 461 460 334
f 461 334 335
f 458 332 459
f 458 331 332
f 462 461 335
f 462 335 336
f 457 331 458
f 463 462 336
f 463 336 337
f 456 331 457
f 456 330 331
f 464 463 337
f 464 337 338
f 455 330 456
f 455 328 329
f 455 329 330
f 465 464 338
f 465 338 339
f 454 328 455
f 466 465 339
f 466 339 340
f 453 328 454
f 453 326 327
f 453 327 328
f 467 466 340
f 467 340 341
f 452 326 453
f 452 325 326
f 468 341 342
f 468 467 341
f 451 325 452
f 451 324 325
f 469 468 342
f 469 342 343
f 469 343 344
f 450 324 451
f 470 469 344
f 470 344 345
f 449 323 324
f 449 324 450
f 471 470 345
f 471 345 346
f 448 323 449
f 448 321 322
f 448 322 323
f 472 471 346
f 447 321 448
f 473 472 346
f 473 346 347
f 473 347 348
f 446 319 320
f 446 320 321
f 446 321 447
f 474 473 348
f 445 319 446
f 445 318 319
f 475 474 348
f 475 348 349
f 444 318 445
f 476 475 349
f 476 349 350
f 443 317 318
f 443 318 444
f 477 476 350
f 477 350 351
f 442 316 317
f 442 317 443
f 478 477 351
f 478 351 352
f 441 314 315
f 441 315 316
f 441 316 442
f 479 478 352
f 479 352 353
f 440 314 441
f 480 479 353
f 480 353 354
f 439 314 440
f 439 313 314
f 481 480 354
f 481 354 355
f 438 313 439
f 438 312 313
f 482 355 356
f 482 356 357
f 482 481 355
f 437 312 438
f 437 311 312
f 483 482 357
f 436 311 437
f 436 310 311
f 484 357 358
f 484 483 357
f 435 310 436
f 435 309 310
f 485 358 359
f 485 484 358
f 434 308 309
f 434 309 435
f 486 359 360
f 486 485 359
f 433 307 308
f 433 308 434
f 487 360 361
f 487 486 360
f 432 306 307
f 432 307 433
f 488 361 362
f 488 487 361
f 431 305 306
f 431 306 432
f 489 362 363
f 489 488 362
f 430 304 305
f 430 305 431
f 364 489 363
f 490 489 364
f 429 303 304
f 429 304 430
f 491 364 365
f 491 490 364
f 302 429 428
f 302 303 429
f 366 492 491
f 366 491 365
f 427 302 428
f 301 302 427
f 493 492 366
f 367 493 366
f 300 301 427
f 300 427 426
f 494 493 367
f 368 494 367
f 495 494 368
f 299 300 426
f 299 426 425
f 369 495 368
f 298 299 425
f 298 425 424
f 370 495 369
f 370 496 495
f 297 298 424
f 297 423 422
f 297 424 423
f 371 497 496
f 371 496 370
f 296 297 422
f 372 498 497
f 372 497 371
f 295 296 422
f 295 421 420
f 295 422 421
f 373 499 498
f 373 500 499
f 373 498 372
f 294 295 420
f 374 500 373
f 293 420 419
f 293 294 420
f 375 501 500
f 375 500 374
f 292 419 418
f 292 293 419
f 376 502 501
f 376 503 502
f 376 501 375
f 291 418 417
f 291 292 418
f 377 503 376
f 290 416 415
f 290 417 416
f 290 291 417
f 378 503 377
f 378 504 503
f 378 505 504
f 289 290 415
f 379 505 378
f 288 289 415
f 288 414 413
f 288 415 414
f 380 505 379
f 380 506 505
f 287 288 413
f 255 506 380
f 255 381 506
f 286 287 413
f 286 413 412
f 256 382 381
f 256 381 255
f 285 286 412
f 285 412 411
f 257 383 382
f 257 382 256
f 284 410 409
f 284 411 410
f 284 285 411
f 258 384 383
f 258 383 257
f 283 284 409
f 259 385 384
f 259 384 258
f 282 409 408
f 282 283 409
f 260 386 385
f 260 385 259
f 281 282 408
f 281 408 407
f 261 387 386
f 261 386 260
f 280 281 407
f 280 406 405
f 280 407 406
f 262 388 387
f 262 387 261
f 279 280 405
f 263 389 388
f 263 388 262
f 278 279 405
f 278 405 404
f 264 390 389
f 264 391 390
f 264 389 263
f 277 278 404
f 277 403 402
f 277 404 403
f 265 391 264
f 265 392 391
f 276 277 402
f 266 392 265
f 275 276 402
f 275 401 400
f 275 402 401
f 267 392 266
f 267 393 392
f 274 275 400
f 268 393 267
f 268 394 393
f 273 274 400
f 273 400 399
f 269 395 394
f 269 394 268
f 272 398 397
f 272 399 398
f 272 273 399
f 270 396 395
f 270 395 269
f 271 272 397
f 271 397 396
f 271 396 270
f 711 712 586
f 711 585 584
f 711 586 585
f 713 586 712
f 713 587 586
f 713 588 587
f 710 711 584
f 714 588 713
f 709 584 583
f 709 710 584
f 715 588 714
f 715 589 588
f 708 583 582
f 708 709 583
f 716 589 715
f 716 590 589
f 707 708 582
f 707 582 581
f 717 590 716
f 717 591 590
f 706 581 580
f 706 707 581
f 718 591 717
f 718 592 591
f 705 579 578
f 705 580 579
f 705 706 580
f 719 592 718
f 719 593 592
f 704 705 578
f 720 594 593
f 720 593 719
f 703 704 578
f 703 577 576
f 703 578 577
f 721 595 594
f 721 594 720
f 702 703 576
f 702 576 575
f 722 595 721
f 722 596 595
f 701 702 575
f 701 575 574
f 723 596 722
f 723 597 596
f 700 701 574
f 724 597 723
f 724 598 597
f 699 574 573
f 699 700 574
f 725 598 724
f 725 599 598
f 698 699 573
f 698 573 572
f 726 599 725
f 726 600 599
f 697 698 572
f 697 571 570
f 697 572 571
f 727 600 726
f 727 601 600
f 727 602 601
f 696 697 570
f 728 602 727
f 728 603 602
f 695 696 570
f 695 570 569
f 729 603 728
f 694 695 569
f 694 568 567
f 694 569 568
f 730 603 729
f 730 604 603
f 730 605 604
f 693 694 567
f 731 605 730
f 692 693 567
f 692 567 566
f 732 605 731
f 732 606 605
f 691 692 566
f 691 565 564
f 691 566 565
f 733 606 732
f 733 607 606
f 690 691 564
f 734 608 607
f 734 609 608
f 734 607 733
f 689 564 563
f 689 690 564
f 735 609 734
f 688 689 563
f 688 562 561
f 688 563 562
f 736 610 609
f 736 609 735
f 687 688 561
f 737 611 610
f 737 610 736
f 686 687 561
f 686 561 560
f 738 612 611
f 738 611 737
f 685 560 559
f 685 686 560
f 739 613 612
f 739 612 738
f 684 685 559
f 684 559 558
f 740 614 613
f 740 615 614
f 740 613 739
f 683 558 557
f 683 684 558
f 741 615 740
f 682 557 556
f 682 683 557
f 742 616 615
f 742 615 741
f 681 556 555
f 681 682 556
f 743 617 616
f 743 616 742
f 680 681 555
f 554 680 555
f 618 743 744
f 618 617 743
f 553 680 554
f 553 679 680
f 619 618 744
f 619 744 745
f 552 679 553
f 552 678 679
f 620 745 746
f 620 619 745
f 551 678 552
f 551 677 678
f 621 746 747
f 621 747 748
f 621 620 746
f 550 677 551
f 550 676 677
f 622 621 748
f 549 676 550
f 549 675 676
f 623 622 748
f 623 748 749
f 548 675 549
f 548 673 674
f 548 674 675
f 624 623 749
f 624 749 750
f 547 673 548
f 625 750 751
f 625 624 750
f 546 673 547
f 546 672 673
f 626 751 752
f 626 625 751
f 545 672 546
f 545 670 671
f 545 671 672
f 627 752 753
f 627 626 752
f 544 670 545
f 628 753 754
f 628 627 753
f 543 670 544
f 543 669 670
f 629 754 755
f 629 628 754
f 542 668 669
f 542 669 543
f 630 629 755
f 630 755 756
f 630 756 757
f 541 668 542
f 541 666 667
f 541 667 668
f 631 757 758
f 631 630 757
f 540 666 541
f 540 665 666
f 632 631 758
f 539 665 540
f 507 633 634
f 507 632 758
f 507 758 633
f 538 665 539
f 538 664 665
f 508 507 634
f 537 663 664
f 537 664 538
f 509 634 635
f 509 635 636
f 509 508 634
f 536 663 537
f 536 662 663
f 510 509 636
f 535 662 536
f 535 660 661
f 535 661 662
f 511 636 637
f 511 637 638
f 511 510 636
f 534 660 535
f 534 659 660
f 512 638 639
f 512 511 638
f 533 659 534
f 513 512 639
f 532 659 533
f 532 657 658
f 532 658 659
f 514 513 639
f 514 639 640
f 531 657 532
f 515 514 640
f 515 640 641
f 515 641 642
f 530 657 531
f 530 655 656
f 530 656 657
f 516 515 642
f 529 655 530
f 529 654 655
f 517 642 643
f 517 516 642
f 528 654 529
f 518 643 644
f 518 644 645
f 518 517 643
f 527 654 528
f 527 653 654
f 519 518 645
f 526 653 527
f 526 652 653
f 520 519 645
f 520 645 646
f 525 652 526
f 525 651 652
f 521 646 647
f 521 520 646
f 524 650 651
f 524 651 525
f 522 647 648
f 522 521 647
f 523 648 649
f 523 649 650
f 523 650 524
f 523 522 648
f 760 886 759
f 760 887 886
f 761 888 887
f 761 889 888
f 761 887 760
f 762 890 889
f 762 889 761
f 763 891 890
f 763 890 762
f 764 892 891
f 764 891 763
f 765 893 892
f 765 892 764
f 766 893 765
f 767 894 893
f 767 895 894
f 767 893 766
f 768 895 767
f 769 896 895
f 769 895 768
f 770 896 769
f 770 897 896
f 771 897 770
f 771 898 897
f 771 899 898
f 772 899 771
f 773 899 772
f 773 900 899
f 774 900 773
f 774 901 900
f 775 901 774
f 775 902 901
f 776 902 775
f 776 903 902
f 777 903 776
f 777 904 903
f 778 904 777
f 778 905 904
f 779 905 778
f 779 906 905
f 780 906 779
f 780 907 906
f 781 907 780
f 781 908 907
f 781 909 908
f 782 909 781
f 783 910 909
f 783 911 910
f 783 909 782
f 784 911 783
f 785 912 911
f 785 911 784
f 786 913 912
f 786 914 913
f 786 912 785
f 787 914 786
f 788 915 914
f 788 914 787
f 789 916 915
f 789 917 916
f 789 915 788
f 790 917 789
f 791 918 917
f 791 919 918
f 791 917 790
f 792 919 791
f 793 920 919
f 793 921 920
f 793 919 792
f 794 921 793
f 795 921 794
f 795 922 921
f 796 922 795
f 796 923 922
f 797 923 796
f 797 924 923
f 798 924 797
f 798 925 924
f 799 925 798
f 799 926 925
f 800 926 799
f 800 927 926
f 801 927 800
f 801 928 927
f 801 929 928
f 802 929 801
f 803 929 802
f 803 930 929
f 803 931 930
f 804 931 803
f 804 932 931
f 805 932 804
f 805 933 932
f 806 933 805
f 807 933 806
f 807 934 933
f 808 934 807
f 808 935 934
f 809 935 808
f 809 936 935
f 810 936 809
f 810 937 936
f 811 937 810
f 811 938 937
f 812 938 811
f 812 939 938
f 813 939 812
f 813 940 939
f 814 940 813
f 814 941 940
f 815 941 814
f 815 942 941
f 815 943 942
f 816 944 943
f 816 943 815
f 817 944 816
f 818 945 944
f 818 946 945
f 818 944 817
f 819 947 946
f 819 946 818
f 820 947 819
f 821 947 820
f 821 948 947
f 822 948 821
f 822 949 948
f 823 949 822
f 823 950 949
f 824 950 823
f 824 951 950
f 825 951 824
f 825 952 951
f 826 952 825
f 826 953 952
f 827 953 826
f 827 954 953
f 828 954 827
f 828 955 954
f 829 955 828
f 829 956 955
f 830 956 829
f 830 957 956
f 831 957 830
f 831 958 957
f 832 958 831
f 832 959 958
f 833 959 832
f 833 960 959
f 834 961 960
f 834 960 833
f 835 962 961
f 835 961 834
f 836 963 962
f 836 962 835
f 837 964 963
f 837 963 836
f 838 965 964
f 838 964 837
f 839 966 965
f 839 965 838
f 840 967 966
f 840 968 967
f 840 966 839
f 841 968 840
f 842 969 968
f 842 968 841
f 843 970 969
f 843 971 970
f 843 969 842
f 844 972 971
f 844 971 843
f 845 972 844
f 846 973 972
f 846 972 845
f 847 973 846
f 847 974 973
f 848 974 847
f 848 975 974
f 849 975 848
f 849 976 975
f 850 976 849
f 850 977 976
f 851 978 977
f 851 979 978
f 851 977 850
f 852 980 979
f 852 979 851
f 853 980 852
f 854 981 980
f 854 980 853
f 855 982 981
f 855 981 854
f 856 983 982
f 856 982 855
f 857 984 983
f 857 985 984
f 857 983 856
f 858 985 857
f 859 986 985
f 859 985 858
f 860 987 986
f 860 986 859
f 861 988 987
f 861 987 860
f 862 989 988
f 862 988 861
f 863 990 989
f 863 989 862
f 864 991 990
f 864 990 863
f 865 992 991
f 865 991 864
f 866 993 992
f 866 994 993
f 866 992 865
f 867 994 866
f 868 995 994
f 868 996 995
f 868 994 867
f 869 996 868
f 870 997 996
f 870 996 869
f 871 997 870
f 871 998 997
f 872 998 871
f 872 999 998
f 873 999 872
f 873 1000 999
f 874 1000 873
f 874 1001 1000
f 875 1001 874
f 875 1002 1001
f 876 1002 875
f 876 1003 1002
f 877 1003 876
f 877 1004 1003
f 878 1004 877
f 878 1005 1004
f 879 1005 878
f 879 1006 1005
f 880 1006 879
f 880 1007 1006
f 881 1007 880
f 881 1008 1007
f 882 1008 881
f 882 1009 1008
f 883 1010 1009
f 883 1009 882
f 884 1010 883
f 884 1011 1010
f 885 1012 1011
f 885 1011 884
f 1014 1140 1013
f 1014 1141 1140
f 1015 1142 1141
f 1015 1143 1142
f 1015 1141 1014
f 1016 1144 1143
f 1016 1143 1015
f 1017 1145 1144
f 1017 1144 1016
f 1018 1146 1145
f 1018 1145 1017
f 1019 1147 1146
f 1019 1146 1018
f 1020 1147 1019
f 1021 1148 1147
f 1021 1149 1148
f 1021 1147 1020
f 1022 1149 1021
f 1023 1150 1149
f 1023 1149 1022
f 1024 1150 1023
f 1024 1151 1150
f 1025 1151 1024
f 1025 1152 1151
f 1025 1153 1152
f 1026 1153 1025
f 1027 1153 1026
f 1027 1154 1153
f 1028 1154 1027
f 1028 1155 1154
f 1029 1155 1028
f 1029 1156 1155
f 1030 1156 1029
f 1030 1157 1156
f 1031 1157 1030
f 1031 1158 1157
f 1032 1158 1031
f 1032 1159 1158
f 1033 1159 1032
f 1033 1160 1159
f 1034 1160 1033
f 1034 1161 1160
f 1035 1161 1034
f 1035 1162 1161
f 1035 1163 1162
f 1036 1163 1035
f 1037 1164 1163
f 1037 1165 1164
f 1037 1163 1036
f 1038 1165 1037
f 1039 1166 1165
f 1039 1165 1038
f 1040 1167 1166
f 1040 1168 1167
f 1040 1166 1039
f 1041 1168 1040
f 1042 1169 1168
f 1042 1168 1041
f 1043 1170 1169
f 1043 1171 1170
f 1043 1169 1042
f 1044 1171 1043
f 1045 1172 1171
f 1045 1173 1172
f 1045 1171 1044
f 1046 1173 1045
f 1047 1174 1173
f 1047 1175 1174
f 1047 1173 1046
f 1048 1175 1047
f 1049 1175 1048
f 1049 1176 1175
f 1050 1176 1049
f 1050 1177 1176
f 1051 1177 1050
f 1051 1178 1177
f 1052 1178 1051
f 1052 1179 1178
f 1053 1179 1052
f 1053 1180 1179
f 1054 1180 1053
f 1054 1181 1180
f 1055 1181 1054
f 1055 1182 1181
f 1055 1183 1182
f 1056 1183 1055
f 1057 1183 1056
f 1057 1184 1183
f 1057 1185 1184
f 1058 1185 1057
f 1058 1186 1185
f 1059 1186 1058
f 1059 1187 1186
f 1060 1187 1059
f 1061 1187 1060
f 1061 1188 1187
f 1062 1188 1061
f 1062 1189 1188
f 1063 1189 1062
f 1063 1190 1189
f 1064 1190 1063
f 1064 1191 1190
f 1065 1191 1064
f 1065 1192 1191
f 1066 1192 1065
f 1066 1193 1192
f 1067 1193 1066
f 1067 1194 1193
f 1068 1194 1067
f 1068 1195 1194
f 1069 1195 1068
f 1069 1196 1195
f 1069 1197 1196
f 1070 1198 1197
f 1070 1197 1069
f 1071 1198 1070
f 1072 1199 1198
f 1072 1200 1199
f 1072 1198 1071
f 1073 1201 1200
f 1073 1200 1072
f 1074 1201 1073
f 1075 1201 1074
f 1075 1202 1201
f 1076 1202 1075
f 1076 1203 1202
f 1077 1203 1076
f 1077 1204 1203
f 1078 1204 1077
f 1078 1205 1204
f 1079 1205 1078
f 1079 1206 1205
f 1080 1206 1079
f 1080 1207 1206
f 1081 1207 1080
f 1081 1208 1207
f 1082 1208 1081
f 1082 1209 1208
f 1083 1209 1082
f 1083 1210 1209
f 1084 1210 1083
f 1084 1211 1210
f 1085 1211 1084
f 1085 1212 1211
f 1086 1212 1085
f 1086 1213 1212
f 1087 1213 1086
f 1087 1214 1213
f 1088 1215 1214
f 1088 1214 1087
f 1089 1216 1215
f 1089 1215 1088
f 1090 1217 1216
f 1090 1216 1089
f 1091 1218 1217
f 1091 1217 1090
f 1092 1219 1218
f 1092 1218 1091
f 1093 1220 1219
f 1093 1219 1092
f 1094 1221 1220
f 1094 1222 1221
f 1094 1220 1093
f 1095 1222 1094
f 1096 1223 1222
f 1096 1222 1095
f 1097 1224 1223
f 1097 1225 1224
f 1097 1223 1096
f 1098 1226 1225
f 1098 1225 1097
f 1099 1226 1098
f 1100 1227 1226
f 1100 1226 1099
f 1101 1227 1100
f 1101 1228 1227
f 1102 1228 1101
f 1102 1229 1228
f 1103 1229 1102
f 1103 1230 1229
f 1104 1230 1103
f 1104 1231 1230
f 1105 1232 1231
f 1105 1233 1232
f 1105 1231 1104
f 1106 1234 1233
f 1106 1233 1105
f 1107 1234 1106
f 1108 1235 1234
f 1108 1234 1107
f 1109 1236 1235
f 1109 1235 1108
f 1110 1237 1236
f 1110 1236 1109
f 1111 1238 1237
f 1111 1239 1238
f 1111 1237 1110
f 1112 1239 1111
f 1113 1240 1239
f 1113 1239 1112
f 1114 1241 1240
f 1114 1240 1113
f 1115 1242 1241
f 1115 1241 1114
f 1116 1243 1242
f 1116 1242 1115
f 1117 1244 1243
f 1117 1243 1116
f 1118 1245 1244
f 1118 1244 1117
f 1119 1246 1245
f 1119 1245 1118
f 1120 1247 1246
f 1120 1248 1247
f 1120 1246 1119
f 1121 1248 1120
f 1122 1249 1248
f 1122 1250 1249
f 1122 1248 1121
f 1123 1250 1122
f 1124 1251 1250
f 1124 1250 1123
f 1125 1251 1124
f 1125 1252 1251
f 1126 1252 1125
f 1126 1253 1252
f 1127 1253 1126
f 1127 1254 1253
f 1128 1254 1127
f 1128 1255 1254
f 1129 1255 1128
f 1129 1256 1255
f 1130 1256 1129
f 1130 1257 1256
f 1131 1257 1130
f 1131 1258 1257
f 1132 1258 1131
f 1132 1259 1258
f 1133 1259 1132
f 1133 1260 1259
f 1134 1260 1133
f 1134 1261 1260
f 1135 1261 1134
f 1135 1262 1261
f 1136 1262 1135
f 1136 1263 1262
f 1137 1264 1263
f 1137 1263 1136
f 1138 1264 1137
f 1138 1265 1264
f 1139 1266 1265
f 1139 1265 1138
f 1471 1346 1472
f 1471 1344 1345
f 1471 1345 1346
f 1473 1472 1346
f 1473 1346 1347
f 1470 1344 1471
f 1474 1473 1347
f 1474 1347 1348
f 1469 1344 1470
f 1469 1343 1344
f 1475 1474 1348
f 1475 1348 1349
f 1475 1349 1350
f 1468 1343 1469
f 1468 1342 1343
f 1476 1475 1350
f 1476 1350 1351
f 1467 1342 1468
f 1467 1341 1342
f 1477 1476 1351
f 1466 1341 1467
f 1466 1340 1341
f 1478 1477 1351
f 1478 1351 1352
f 1478 1352 1353
f 1465 1340 1466
f 1465 1339 1340
f 1479 1353 1354
f 1479 1478 1353
f 1464 1338 1339
f 1464 1339 1465
f 1480 1479 1354
f 1480 1354 1355
f 1463 1336 1337
f 1463 1337 1338
f 1463 1338 1464
f 1481 1480 1355
f 1462 1336 1463
f 1482 1481 1355
f 1482 1355 1356
f 1461 1334 1335
f 1461 1335 1336
f 1461 1336 1462
f 1483 1482 1356
f 1483 1356 1357
f 1460 1334 1461
f 1484 1483 1357
f 1484 1357 1358
f 1459 1332 1333
f 1459 1333 1334
f 1459 1334 1460
f 1485 1358 1359
f 1485 1359 1360
f 1485 1484 1358
f 1458 1332 1459
f 1458 1331 1332
f 1486 1485 1360
f 1457 1331 1458
f 1487 1486 1360
f 1487 1360 1361
f 1456 1330 1331
f 1456 1331 1457
f 1488 1487 1361
f 1488 1361 1362
f 1488 1362 1363
f 1455 1330 1456
f 1455 1329 1330
f 1489 1488 1363
f 1489 1363 1364
f 1454 1329 1455
f 1454 1328 1329
f 1490 1489 1364
f 1453 1328 1454
f 1453 1327 1328
f 1491 1490 1364
f 1491 1364 1365
f 1452 1326 1327
f 1452 1327 1453
f 1492 1491 1365
f 1492 1365 1366
f 1451 1326 1452
f 1451 1325 1326
f 1493 1492 1366
f 1493 1366 1367
f 1450 1325 1451
f 1450 1324 1325
f 1494 1367 1368
f 1494 1493 1367
f 1449 1324 1450
f 1449 1322 1323
f 1449 1323 1324
f 1495 1368 1369
f 1495 1494 1368
f 1495 1369 1370
f 1448 1322 1449
f 1496 1495 1370
f 1447 1322 1448
f 1447 1321 1322
f 1497 1370 1371
f 1497 1496 1370
f 1446 1320 1321
f 1446 1321 1447
f 1498 1371 1372
f 1498 1497 1371
f 1445 1319 1320
f 1445 1320 1446
f 1499 1372 1373
f 1499 1498 1372
f 1444 1317 1318
f 1444 1318 1319
f 1444 1319 1445
f 1500 1373 1374
f 1500 1499 1373
f 1443 1317 1444
f 1501 1374 1375
f 1501 1375 1376
f 1501 1500 1374
f 1442 1317 1443
f 1442 1316 1317
f 1315 1316 1442
f 1502 1501 1376
f 1441 1315 1442
f 1377 1502 1376
f 1503 1502 1377
f 1314 1315 1441
f 1314 1441 1440
f 1439 1314 1440
f 1378 1504 1503
f 1378 1503 1377
f 1313 1314 1439
f 1379 1504 1378
f 1379 1505 1504
f 1312 1313 1439
f 1312 1439 1438
f 1380 1505 1379
f 1380 1506 1505
f 1311 1312 1438
f 1311 1438 1437
f 1381 1506 1380
f 1381 1507 1506
f 1310 1311 1437
f 1310 1436 1435
f 1310 1437 1436
f 1382 1507 1381
f 1382 1508 1507
f 1309 1310 1435
f 1383 1509 1508
f 1383 1508 1382
f 1308 1309 1435
f 1308 1434 1433
f 1308 1435 1434
f 1384 1510 1509
f 1384 1509 1383
f 1307 1308 1433
f 1385 1511 1510
f 1385 1510 1384
f 1306 1307 1433
f 1306 1432 1431
f 1306 1433 1432
f 1386 1512 1511
f 1386 1511 1385
f 1305 1306 1431
f 1387 1512 1386
f 1387 1513 1512
f 1304 1305 1431
f 1304 1431 1430
f 1388 1513 1387
f 1388 1514 1513
f 1303 1429 1428
f 1303 1430 1429
f 1303 1304 1430
f 1389 1514 1388
f 1389 1515 1514
f 1302 1303 1428
f 1390 1515 1389
f 1390 1516 1515
f 1301 1302 1428
f 1301 1428 1427
f 1391 1516 1390
f 1391 1517 1516
f 1300 1427 1426
f 1300 1301 1427
f 1392 1518 1517
f 1392 1517 1391
f 1299 1426 1425
f 1299 1300 1426
f 1267 1394 1393
f 1267 1393 1518
f 1267 1518 1392
f 1298 1425 1424
f 1298 1299 1425
f 1268 1394 1267
f 1297 1424 1423
f 1297 1298 1424
f 1269 1395 1394
f 1269 1394 1268
f 1296 1297 1423
f 1296 1423 1422
f 1270 1396 1395
f 1270 1395 1269
f 1295 1422 1421
f 1295 1296 1422
f 1271 1397 1396
f 1271 1398 1397
f 1271 1396 1270
f 1294 1420 1419
f 1294 1421 1420
f 1294 1295 1421
f 1272 1398 1271
f 1293 1294 1419
f 1293 1419 1418
f 1273 1398 1272
f 1273 1399 1398
f 1292 1293 1418
f 1292 1418 1417
f 1274 1400 1399
f 1274 1399 1273
f 1291 1292 1417
f 1275 1401 1400
f 1275 1400 1274
f 1290 1291 1417
f 1290 1416 1415
f 1290 1417 1416
f 1276 1402 1401
f 1276 1401 1275
f 1289 1290 1415
f 1277 1402 1276
f 1277 1403 1402
f 1277 1404 1403
f 1288 1289 1415
f 1288 1415 1414
f 1278 1404 1277
f 1287 1288 1414
f 1287 1414 1413
f 1279 1404 1278
f 1279 1405 1404
f 1286 1287 1413
f 1286 1413 1412
f 1280 1405 1279
f 1280 1406 1405
f 1285 1286 1412
f 1285 1412 1411
f 1281 1406 1280
f 1281 1407 1406
f 1281 1408 1407
f 1284 1411 1410
f 1284 1285 1411
f 1282 1408 1281
f 1283 1409 1408
f 1283 1410 1409
f 1283 1284 1410
f 1283 1408 1282
f 1723 1597 1598
f 1723 1598 1724
f 1725 1598 1599
f 1725 1724 1598
f 1722 1597 1723
f 1722 1596 1597
f 1726 1725 1599
f 1726 1599 1600
f 1726 1600 1601
f 1721 1596 1722
f 1721 1595 1596
f 1727 1601 1602
f 1727 1726 1601
f 1720 1595 1721
f 1720 1594 1595
f 1728 1727 1602
f 1719 1594 1720
f 1719 1592 1593
f 1719 1593 1594
f 1729 1728 1602
f 1729 1602 1603
f 1718 1592 1719
f 1730 1729 1603
f 1730 1603 1604
f 1730 1604 1605
f 1717 1591 1592
f 1717 1592 1718
f 1731 1730 1605
f 1716 1590 1591
f 1716 1591 1717
f 1732 1731 1605
f 1732 1605 1606
f 1715 1588 1589
f 1715 1589 1590
f 1715 1590 1716
f 1733 1606 1607
f 1733 1732 1606
f 1714 1588 1715
f 1734 1733 1607
f 1734 1607 1608
f 1713 1587 1588
f 1713 1588 1714
f 1735 1608 1609
f 1735 1734 1608
f 1712 1586 1587
f 1712 1587 1713
f 1736 1735 1609
f 1736 1609 1610
f 1711 1584 1585
f 1711 1585 1586
f 1711 1586 1712
f 1737 1736 1610
f 1737 1610 1611
f 1737 1611 1612
f 1710 1584 1711
f 1738 1737 1612
f 1738 1612 1613
f 1709 1584 1710
f 1709 1582 1583
f 1709 1583 1584
f 1739 1738 1613
f 1708 1582 1709
f 1740 1739 1613
f 1740 1613 1614
f 1707 1582 1708
f 1707 1580 1581
f 1707 1581 1582
f 1741 1740 1614
f 1741 1614 1615
f 1706 1580 1707
f 1742 1741 1615
f 1742 1615 1616
f 1705 1580 1706
f 1705 1578 1579
f 1705 1579 1580
f 1743 1742 1616
f 1743 1616 1617
f 1704 1578 1705
f 1704 1577 1578
f 1744 1743 1617
f 1744 1617 1618
f 1703 1577 1704
f 1745 1744 1618
f 1745 1618 1619
f 1702 1577 1703
f 1702 1576 1577
f 1746 1619 1620
f 1746 1745 1619
f 1701 1576 1702
f 1701 1575 1576
f 1747 1620 1621
f 1747 1621 1622
f 1747 1746 1620
f 1700 1574 1575
f 1700 1575 1701
f 1748 1747 1622
f 1699 1572 1573
f 1699 1573 1574
f 1699 1574 1700
f 1749 1622 1623
f 1749 1748 1622
f 1698 1572 1699
f 1750 1623 1624
f 1750 1749 1623
f 1697 1572 1698
f 1697 1571 1572
f 1751 1624 1625
f 1751 1750 1624
f 1696 1570 1571
f 1696 1571 1697
f 1752 1625 1626
f 1752 1751 1625
f 1695 1568 1569
f 1695 1569 1570
f 1695 1570 1696
f 1753 1626 1627
f 1753 1752 1626
f 1694 1568 1695
f 1754 1627 1628
f 1754 1753 1627
f 1629 1754 1628
f 1693 1567 1568
f 1693 1568 1694
f 1755 1754 1629
f 1692 1567 1693
f 1756 1755 1629
f 1566 1567 1692
f 1630 1756 1629
f 1565 1566 1692
f 1565 1692 1691
f 1631 1757 1756
f 1631 1758 1757
f 1631 1756 1630
f 1564 1565 1691
f 1564 1691 1690
f 1632 1758 1631
f 1563 1564 1690
f 1563 1689 1688
f 1563 1690 1689
f 1633 1758 1632
f 1633 1759 1758
f 1633 1760 1759
f 1562 1563 1688
f 1562 1688 1687
f 1634 1760 1633
f 1561 1562 1687
f 1635 1761 1760
f 1635 1760 1634
f 1560 1687 1686
f 1560 1561 1687
f 1636 1762 1761
f 1636 1761 1635
f 1559 1560 1686
f 1559 1686 1685
f 1637 1762 1636
f 1637 1763 1762
f 1637 1764 1763
f 1558 1559 1685
f 1558 1685 1684
f 1638 1764 1637
f 1557 1558 1684
f 1557 1684 1683
f 1639 1765 1764
f 1639 1764 1638
f 1556 1683 1682
f 1556 1557 1683
f 1640 1765 1639
f 1640 1766 1765
f 1640 1767 1766
f 1555 1682 1681
f 1555 1556 1682
f 1641 1767 1640
f 1554 1555 1681
f 1554 1680 1679
f 1554 1681 1680
f 1642 1767 1641
f 1642 1768 1767
f 1553 1554 1679
f 1643 1768 1642
f 1643 1769 1768
f 1552 1679 1678
f 1552 1553 1679
f 1644 1770 1769
f 1644 1769 1643
f 1551 1678 1677
f 1551 1552 1678
f 1519 1646 1645
f 1519 1645 1770
f 1519 1770 1644
f 1550 1677 1676
f 1550 1551 1677
f 1520 1646 1519
f 1549 1550 1676
f 1549 1675 1674
f 1549 1676 1675
f 1521 1647 1646
f 1521 1648 1647
f 1521 1646 1520
f 1548 1549 1674
f 1522 1649 1648
f 1522 1648 1521
f 1547 1673 1672
f 1547 1674 1673
f 1547 1548 1674
f 1523 1649 1522
f 1546 1547 1672
f 1524 1650 1649
f 1524 1649 1523
f 1545 1671 1670
f 1545 1672 1671
f 1545 1546 1672
f 1525 1651 1650
f 1525 1650 1524
f 1544 1545 1670
f 1526 1652 1651
f 1526 1653 1652
f 1526 1651 1525
f 1543 1544 1670
f 1543 1669 1668
f 1543 1670 1669
f 1527 1653 1526
f 1542 1543 1668
f 1528 1653 1527
f 1528 1654 1653
f 1541 1668 1667
f 1541 1542 1668
f 1529 1654 1528
f 1529 1655 1654
f 1529 1656 1655
f 1540 1541 1667
f 1540 1667 1666
f 1530 1656 1529
f 1539 1540 1666
f 1539 1665 1664
f 1539 1666 1665
f 1531 1656 1530
f 1531 1657 1656
f 1538 1539 1664
f 1532 1657 1531
f 1532 1658 1657
f 1537 1538 1664
f 1537 1664 1663
f 1533 1658 1532
f 1533 1659 1658
f 1536 1663 1662
f 1536 1537 1663
f 1534 1660 1659
f 1534 1659 1533
f 1535 1661 1660
f 1535 1662 1661
f 1535 1536 1662
f 1535 1660 1534
f 1772 1771 1898
f 1772 1898 1899
f 1773 1899 1900
f 1773 1900 1901
f 1773 1772 1899
f 1774 1901 1902
f 1774 1773 1901
f 1775 1902 1903
f 1775 1774 1902
f 1776 1903 1904
f 1776 1775 1903
f 1777 1904 1905
f 1777 1776 1904
f 1778 1777 1905
f 1779 1905 1906
f 1779 1906 1907
f 1779 1778 1905
f 1780 1779 1907
f 1781 1907 1908
f 1781 1780 1907
f 1782 1781 1908
f 1782 1908 1909
f 1783 1782 1909
f 1783 1909 1910
f 1783 1910 1911
f 1784 1783 1911
f 1785 1784 1911
f 1785 1911 1912
f 1786 1785 1912
f 1786 1912 1913
f 1787 1786 1913
f 1787 1913 1914
f 1788 1787 1914
f 1788 1914 1915
f 1789 1788 1915
f 1789 1915 1916
f 1790 1789 1916
f 1790 1916 1917
f 1791 1790 1917
f 1791 1917 1918
f 1792 1791 1918
f 1792 1918 1919
f 1793 1792 1919
f 1793 1919 1920
f 1793 1920 1921
f 1794 1793 1921
f 1795 1921 1922
f 1795 1922 1923
f 1795 1794 1921
f 1796 1795 1923
f 1797 1923 1924
f 1797 1796 1923
f 1798 1924 1925
f 1798 1925 1926
f 1798 1797 1924
f 1799 1798 1926
f 1800 1926 1927
f 1800 1799 1926
f 1801 1927 1928
f 1801 1928 1929
f 1801 1800 1927
f 1802 1801 1929
f 1803 1929 1930
f 1803 1930 1931
f 1803 1802 1929
f 1804 1803 1931
f 1805 1931 1932
f 1805 1932 1933
f 1805 1804 1931
f 1806 1805 1933
f 1807 1806 1933
f 1807 1933 1934
f 1808 1807 1934
f 1808 1934 1935
f 1809 1808 1935
f 1809 1935 1936
f 1810 1809 1936
f 1810 1936 1937
f 1811 1810 1937
f 1811 1937 1938
f 1812 1811 1938
f 1812 1938 1939
f 1813 1812 1939
f 1813 1939 1940
f 1813 1940 1941
f 1814 1813 1941
f 1815 1814 1941
f 1815 1941 1942
f 1815 1942 1943
f 1816 1815 1943
f 1816 1943 1944
f 1817 1816 1944
f 1817 1944 1945
f 1818 1817 1945
f 1819 1818 1945
f 1819 1945 1946
f 1820 1819 1946
f 1820 1946 1947
f 1821 1820 1947
f 1821 1947 1948
f 1822 1821 1948
f 1822 1948 1949
f 1823 1822 1949
f 1823 1949 1950
f 1824 1823 1950
f 1824 1950 1951
f 1825 1824 1951
f 1825 1951 1952
f 1826 1825 1952
f 1826 1952 1953
f 1827 1826 1953
f 1827 1953 1954
f 1827 1954 1955
f 1828 1955 1956
f 1828 1827 1955
f 1829 1828 1956
f 1830 1956 1957
f 1830 1957 1958
f 1830 1829 1956
f 1831 1958 1959
f 1831 1830 1958
f 1832 1831 1959
f 1833 1832 1959
f 1833 1959 1960
f 1834 1833 1960
f 1834 1960 1961
f 1835 1834 1961
f 1835 1961 1962
f 1836 1835 1962
f 1836 1962 1963
f 1837 1836 1963
f 1837 1963 1964
f 1838 1837 1964
f 1838 1964 1965
f 1839 1838 1965
f 1839 1965 1966
f 1840 1839 1966
f 1840 1966 1967
f 1841 1840 1967
f 1841 1967 1968
f 1842 1841 1968
f 1842 1968 1969
f 1843 1842 1969
f 1843 1969 1970
f 1844 1843 1970
f 1844 1970 1971
f 1845 1844 1971
f 1845 1971 1972
f 1846 1972 1973
f 1846 1845 1972
f 1847 1973 1974
f 1847 1846 1973
f 1848 1974 1975
f 1848 1847 1974
f 1849 1975 1976
f 1849 1848 1975
f 1850 1976 1977
f 1850 1849 1976
f 1851 1977 1978
f 1851 1850 1977
f 1852 1978 1979
f 1852 1979 1980
f 1852 1851 1978
f 1853 1852 1980
f 1854 1980 1981
f 1854 1853 1980
f 1855 1981 1982
f 1855 1982 1983
f 1855 1854 1981
f 1856 1983 1984
f 1856 1855 1983
f 1857 1856 1984
f 1858 1984 1985
f 1858 1857 1984
f 1859 1858 1985
f 1859 1985 1986
f 1860 1859 1986
f 1860 1986 1987
f 1861 1860 1987
f 1861 1987 1988
f 1862 1861 1988
f 1862 1988 1989
f 1863 1989 1990
f 1863 1990 1991
f 1863 1862 1989
f 1864 1991 1992
f 1864 1863 1991
f 1865 1864 1992
f 1866 1992 1993
f 1866 1865 1992
f 1867 1993 1994
f 1867 1866 1993
f 1868 1994 1995
f 1868 1867 1994
f 1869 1995 1996
f 1869 1996 1997
f 1869 1868 1995
f 1870 1869 1997
f 1871 1997 1998
f 1871 1870 1997
f 1872 1998 1999
f 1872 1871 1998
f 1873 1999 2000
f 1873 1872 1999
f 1874 2000 2001
f 1874 1873 2000
f 1875 2001 2002
f 1875 1874 2001
f 1876 2002 2003
f 1876 1875 2002
f 1877 2003 2004
f 1877 1876 2003
f 1878 2004 2005
f 1878 2005 2006
f 1878 1877 2004
f 1879 1878 2006
f 1880 2006 2007
f 1880 2007 2008
f 1880 1879 2006
f 1881 1880 2008
f 1882 2008 2009
f 1882 1881 2008
f 1883 1882 2009
f 1883 2009 2010
f 1884 1883 2010
f 1884 2010 2011
f 1885 1884 2011
f 1885 2011 2012
f 1886 1885 2012
f 1886 2012 2013
f 1887 1886 2013
f 1887 2013 2014
f 1888 1887 2014
f 1888 2014 2015
f 1889 1888 2015
f 1889 2015 2016
f 1890 1889 2016
f 1890 2016 2017
f 1891 1890 2017
f 1891 2017 2018
f 1892 1891 2018
f 1892 2018 2019
f 1893 1892 2019
f 1893 2019 2020
f 1894 1893 2020
f 1894 2020 2021
f 1895 2021 2022
f 1895 1894 2021
f 1896 1895 2022
f 1896 2022 2023
f 1897 2023 2024
f 1897 1896 2023
f 2027 2153 2154
f 2028 2154 2155
f 2028 2027 2154
f 2029 2155 2156
f 2029 2028 2155
f 2030 2156 2157
f 2030 2029 2156
f 2031 2157 2158
f 2031 2030 2157
f 2032 2158 2159
f 2032 2031 2158
f 2033 2032 2159
f 2034 2159 2160
f 2034 2033 2159
f 2035 2160 2161
f 2035 2034 2160
f 2036 2161 2162
f 2036 2162 2163
f 2036 2035 2161
f 2037 2036 2163
f 2038 2037 2163
f 2038 2163 2164
f 2039 2038 2164
f 2039 2164 2165
f 2040 2039 2165
f 2040 2165 2166
f 2040 2166 2167
f 2041 2040 2167
f 2042 2041 2167
f 2042 2167 2168
f 2043 2042 2168
f 2043 2168 2169
f 2044 2043 2169
f 2044 2169 2170
f 2044 2170 2171
f 2045 2044 2171
f 2046 2045 2171
f 2046 2171 2172
f 2046 2172 2173
f 2047 2046 2173
f 2048 2047 2173
f 2048 2173 2174
f 2048 2174 2175
f 2049 2048 2175
f 2050 2175 2176
f 2050 2049 2175
f 2051 2176 2177
f 2051 2050 2176
f 2052 2177 2178
f 2052 2051 2177
f 2053 2178 2179
f 2053 2052 2178
f 2054 2179 2180
f 2054 2053 2179
f 2055 2180 2181
f 2055 2054 2180
f 2056 2181 2182
f 2056 2055 2181
f 2057 2182 2183
f 2057 2056 2182
f 2058 2183 2184
f 2058 2057 2183
f 2059 2184 2185
f 2059 2185 2186
f 2059 2058 2184
f 2060 2059 2186
f 2061 2186 2187
f 2061 2060 2186
f 2062 2187 2188
f 2062 2188 2189
f 2062 2061 2187
f 2063 2062 2189
f 2064 2063 2189
f 2064 2189 2190
f 2065 2064 2190
f 2065 2190 2191
f 2065 2191 2192
f 2066 2065 2192
f 2067 2066 2192
f 2067 2192 2193
f 2068 2067 2193
f 2068 2193 2194
f 2069 2068 2194
f 2069 2194 2195
f 2069 2195 2196
f 2070 2069 2196
f 2071 2070 2196
f 2071 2196 2197
f 2071 2197 2198
f 2072 2071 2198
f 2072 2198 2199
f 2073 2072 2199
f 2074 2073 2199
f 2074 2199 2200
f 2075 2074 2200
f 2075 2200 2201
f 2075 2201 2202
f 2076 2075 2202
f 2077 2076 2202
f 2077 2202 2203
f 2078 2077 2203
f 2078 2203 2204
f 2078 2204 2205
f 2079 2078 2205
f 2079 2205 2206
f 2080 2079 2206
f 2081 2080 2206
f 2081 2206 2207
f 2082 2081 2207
f 2082 2207 2208
f 2083 2082 2208
f 2083 2208 2209
f 2084 2083 2209
f 2084 2209 2210
f 2085 2210 2211
f 2085 2084 2210
f 2085 2211 2212
f 2086 2085 2212
f 2087 2212 2213
f 2087 2213 2214
f 2087 2086 2212
f 2088 2214 2215
f 2088 2087 2214
f 2089 2088 2215
f 2090 2089 2215
f 2090 2215 2216
f 2091 2090 2216
f 2091 2216 2217
f 2092 2091 2217
f 2092 2217 2218
f 2092 2218 2219
f 2093 2092 2219
f 2093 2219 2220
f 2094 2093 2220
f 2095 2094 2220
f 2095 2220 2221
f 2096 2095 2221
f 2096 2221 2222
f 2097 2096 2222
f 2097 2222 2223
f 2098 2097 2223
f 2098 2223 2224
f 2098 2224 2225
f 2099 2098 2225
f 2100 2226 2227
f 2100 2099 2225
f 2100 2225 2226
f 2101 2227 2228
f 2101 2100 2227
f 2102 2101 2228
f 2103 2228 2229
f 2103 2229 2230
f 2103 2102 2228
f 2104 2103 2230
f 2105 2230 2231
f 2105 2104 2230
f 2106 2231 2232
f 2106 2105 2231
f 2107 2232 2233
f 2107 2106 2232
f 2108 2233 2234
f 2108 2107 2233
f 2109 2234 2235
f 2109 2235 2236
f 2109 2108 2234
f 2110 2109 2236
f 2111 2236 2237
f 2111 2237 2238
f 2111 2110 2236
f 2112 2111 2238
f 2113 2238 2239
f 2113 2239 2240
f 2113 2112 2238
f 2114 2113 2240
f 2115 2114 2240
f 2115 2240 2241
f 2116 2115 2241
f 2116 2241 2242
f 2117 2116 2242
f 2117 2242 2243
f 2117 2243 2244
f 2118 2117 2244
f 2119 2244 2245
f 2119 2118 2244
f 2120 2245 2246
f 2120 2119 2245
f 2121 2246 2247
f 2121 2247 2248
f 2121 2120 2246
f 2122 2121 2248
f 2123 2248 2249
f 2123 2249 2250
f 2123 2122 2248
f 2124 2123 2250
f 2125 2250 2251
f 2125 2124 2250
f 2126 2251 2252
f 2126 2125 2251
f 2127 2252 2253
f 2127 2126 2252
f 2128 2253 2254
f 2128 2254 2255
f 2128 2127 2253
f 2129 2128 2255
f 2130 2255 2256
f 2130 2256 2257
f 2130 2129 2255
f 2131 2130 2257
f 2132 2257 2258
f 2132 2258 2259
f 2132 2131 2257
f 2133 2132 2259
f 2134 2259 2260
f 2134 2133 2259
f 2135 2260 2261
f 2135 2261 2262
f 2135 2134 2260
f 2136 2135 2262
f 2137 2262 2263
f 2137 2136 2262
f 2138 2263 2264
f 2138 2264 2265
f 2138 2137 2263
f 2139 2138 2265
f 2140 2139 2265
f 2140 2265 2266
f 2141 2140 2266
f 2141 2266 2267
f 2142 2141 2267
f 2142 2267 2268
f 2143 2142 2268
f 2143 2268 2269
f 2144 2143 2269
f 2144 2269 2270
f 2144 2270 2271
f 2145 2144 2271
f 2146 2145 2271
f 2146 2271 2272
f 2147 2146 2272
f 2147 2272 2273
f 2148 2147 2273
f 2148 2273 2274
f 2148 2274 2275
f 2149 2148 2275
f 2150 2149 2275
f 2150 2275 2276
f 2151 2150 2276
f 2151 2276 2277
f 2152 2151 2277
f 2152 2277 2278
f 2026 2278 2025
f 2026 2152 2278
f 2483 2358 2484
f 2483 2357 2358
f 2485 2484 2358
f 2485 2358 2359
f 2485 2359 2360
f 2482 2356 2357
f 2482 2357 2483
f 2486 2360 2361
f 2486 2485 2360
f 2481 2355 2356
f 2481 2356 2482
f 2487 2486 2361
f 2480 2355 2481
f 2480 2353 2354
f 2480 2354 2355
f 2488 2487 2361
f 2488 2361 2362
f 2479 2353 2480
f 2489 2488 2362
f 2489 2362 2363
f 2478 2353 2479
f 2478 2351 2352
f 2478 2352 2353
f 2490 2489 2363
f 2490 2363 2364
f 2477 2351 2478
f 2491 2490 2364
f 2491 2364 2365
f 2491 2365 2366
f 2476 2351 2477
f 2476 2350 2351
f 2492 2491 2366
f 2475 2350 2476
f 2475 2348 2349
f 2475 2349 2350
f 2493 2492 2366
f 2493 2366 2367
f 2474 2348 2475
f 2474 2347 2348
f 2494 2493 2367
f 2494 2367 2368
f 2473 2347 2474
f 2495 2494 2368
f 2495 2368 2369
f 2495 2369 2370
f 2472 2347 2473
f 2472 2346 2347
f 2496 2495 2370
f 2471 2346 2472
f 2471 2344 2345
f 2471 2345 2346
f 2497 2496 2370
f 2497 2370 2371
f 2470 2344 2471
f 2498 2497 2371
f 2498 2371 2372
f 2469 2343 2344
f 2469 2344 2470
f 2499 2498 2372
f 2499 2372 2373
f 2468 2341 2342
f 2468 2342 2343
f 2468 2343 2469
f 2500 2499 2373
f 2500 2373 2374
f 2500 2374 2375
f 2467 2341 2468
f 2501 2500 2375
f 2466 2339 2340
f 2466 2340 2341
f 2466 2341 2467
f 2502 2501 2375
f 2502 2375 2376
f 2465 2338 2339
f 2465 2339 2466
f 2503 2502 2376
f 2503 2376 2377
f 2464 2338 2465
f 2504 2503 2377
f 2504 2377 2378
f 2463 2338 2464
f 2463 2336 2337
f 2463 2337 2338
f 2505 2504 2378
f 2505 2378 2379
f 2462 2336 2463
f 2506 2379 2380
f 2506 2505 2379
f 2461 2336 2462
f 2461 2335 2336
f 2507 2380 2381
f 2507 2506 2380
f 2460 2335 2461
f 2460 2334 2335
f 2508 2381 2382
f 2508 2507 2381
f 2459 2334 2460
f 2459 2333 2334
f 2509 2382 2383
f 2509 2508 2382
f 2458 2332 2333
f 2458 2333 2459
f 2510 2383 2384
f 2510 2509 2383
f 2457 2332 2458
f 2457 2331 2332
f 2385 2510 2384
f 2511 2510 2385
f 2456 2330 2331
f 2456 2331 2457
f 2512 2385 2386
f 2512 2511 2385
f 2455 2329 2330
f 2455 2330 2456
f 2513 2386 2387
f 2513 2512 2386
f 2454 2329 2455
f 2454 2328 2329
f 2388 2513 2387
f 2514 2513 2388
f 2453 2327 2328
f 2453 2328 2454
f 2515 2388 2389
f 2515 2514 2388
f 2452 2327 2453
f 2326 2327 2452
f 2390 2516 2515
f 2390 2515 2389
f 2451 2326 2452
f 2325 2326 2451
f 2391 2516 2390
f 2391 2517 2516
f 2450 2325 2451
f 2324 2325 2450
f 2518 2517 2391
f 2392 2518 2391
f 2449 2324 2450
f 2323 2324 2449
f 2393 2518 2392
f 2393 2519 2518
f 2322 2323 2449
f 2322 2449 2448
f 2394 2519 2393
f 2394 2520 2519
f 2321 2322 2448
f 2321 2448 2447
f 2446 2321 2447
f 2395 2521 2520
f 2395 2520 2394
f 2320 2321 2446
f 2396 2522 2521
f 2396 2521 2395
f 2523 2522 2396
f 2319 2320 2446
f 2319 2446 2445
f 2444 2319 2445
f 2397 2523 2396
f 2318 2319 2444
f 2398 2523 2397
f 2398 2524 2523
f 2317 2443 2442
f 2317 2444 2443
f 2317 2318 2444
f 2399 2525 2524
f 2399 2526 2525
f 2399 2524 2398
f 2316 2317 2442
f 2400 2526 2399
f 2315 2442 2441
f 2315 2316 2442
f 2401 2527 2526
f 2401 2528 2527
f 2401 2526 2400
f 2314 2440 2439
f 2314 2441 2440
f 2314 2315 2441
f 2402 2528 2401
f 2313 2314 2439
f 2403 2528 2402
f 2403 2529 2528
f 2403 2530 2529
f 2312 2313 2439
f 2312 2439 2438
f 2404 2530 2403
f 2311 2312 2438
f 2311 2437 2436
f 2311 2438 2437
f 2279 2530 2404
f 2279 2405 2530
f 2310 2311 2436
f 2280 2406 2405
f 2280 2407 2406
f 2280 2405 2279
f 2309 2310 2436
f 2309 2436 2435
f 2281 2407 2280
f 2308 2309 2435
f 2308 2435 2434
f 2282 2408 2407
f 2282 2407 2281
f 2307 2433 2432
f 2307 2434 2433
f 2307 2308 2434
f 2283 2409 2408
f 2283 2408 2282
f 2306 2307 2432
f 2284 2410 2409
f 2284 2409 2283
f 2305 2432 2431
f 2305 2306 2432
f 2285 2411 2410
f 2285 2410 2284
f 2304 2430 2429
f 2304 2431 2430
f 2304 2305 2431
f 2286 2412 2411
f 2286 2411 2285
f 2303 2304 2429
f 2287 2412 2286
f 2287 2413 2412
f 2302 2303 2429
f 2302 2429 2428
f 2288 2413 2287
f 2288 2414 2413
f 2288 2415 2414
f 2301 2302 2428
f 2301 2428 2427
f 2289 2415 2288
f 2289 2416 2415
f 2300 2301 2427
f 2300 2426 2425
f 2300 2427 2426
f 2290 2417 2416
f 2290 2416 2289
f 2299 2300 2425
f 2291 2417 2290
f 2291 2418 2417
f 2298 2299 2425
f 2298 2425 2424
f 2292 2418 2291
f 2297 2298 2424
f 2297 2423 2422
f 2297 2424 2423
f 2293 2419 2418
f 2293 2418 2292
f 2296 2297 2422
f 2294 2419 2293
f 2294 2420 2419
f 2295 2421 2420
f 2295 2422 2421
f 2295 2296 2422
f 2295 2420 2294
