# Cadless export: model
v 30 -7.34788e-15 12
v 29.9627 1.49538 12
v 29.8509 2.98704 12
v 29.6649 4.47127 12
v 29.4052 5.94438 12
v 29.0723 7.40272 12
v 28.6672 8.84266 12
v 28.1908 10.2606 12
v 27.6443 11.653 12
v 27.0291 13.0165 12
v 26.3466 14.3476 12
v 25.5987 15.6431 12
v 24.7872 16.8996 12
v 23.914 18.1141 12
v 22.9813 19.2836 12
v 21.9916 20.4052 12
v 20.9471 21.476 12
v 19.8506 22.4934 12
v 18.7047 23.4549 12
v 17.5123 24.3581 12
v 16.2764 25.2008 12
v 15 25.9808 12
v 13.6863 26.6962 12
v 12.3386 27.3452 12
v 10.9602 27.9262 12
v 9.5546 28.4378 12
v 8.12521 28.8787 12
v 6.67563 29.2478 12
v 5.20945 29.5442 12
v 3.73031 29.7672 12
v 2.2419 29.9161 12
v 0.747921 29.9907 12
v -0.747921 29.9907 12
v -2.2419 29.9161 12
v -3.73031 29.7672 12
v -5.20945 29.5442 12
v -6.67563 29.2478 12
v -8.12521 28.8787 12
v -9.5546 28.4378 12
v -10.9602 27.9262 12
v -12.3386 27.3452 12
v -13.6863 26.6962 12
v -15 25.9808 12
v -16.2764 25.2008 12
v -17.5123 24.3581 12
v -18.7047 23.4549 12
v -19.8506 22.4934 12
v -20.9471 21.476 12
v -21.9916 20.4052 12
v -22.9813 19.2836 12
v -23.914 18.1141 12
v -24.7872 16.8996 12
v -25.5987 15.6431 12
v -26.3466 14.3476 12
v -27.0291 13.0165 12
v -27.6443 11.653 12
v -28.1908 10.2606 12
v -28.6672 8.84266 12
v -29.0723 7.40272 12
v -29.4052 5.94438 12
v -29.6649 4.47127 12
v -29.8509 2.98704 12
v -29.9627 1.49538 12
v -30 -1.02907e-13 12
v -29.9627 -1.49538 12
v -29.8509 -2.98704 12
v -29.6649 -4.47127 12
v -29.4052 -5.94438 12
v -29.0723 -7.40272 12
v -28.6672 -8.84266 12
v -28.1908 -10.2606 12
v -27.6443 -11.653 12
v -27.0291 -13.0165 12
v -26.3466 -14.3476 12
v -25.5987 -15.6431 12
v -24.7872 -16.8996 12
v -23.914 -18.1141 12
v -22.9813 -19.2836 12
v -21.9916 -20.4052 12
v -20.9471 -21.476 12
v -19.8506 -22.4934 12
v -18.7047 -23.4549 12
v -17.5123 -24.3581 12
v -16.2764 -25.2008 12
v -15 -25.9808 12
v -13.6863 -26.6962 12
v -12.3386 -27.3452 12
v -10.9602 -27.9262 12
v -9.5546 -28.4378 12
v -8.12521 -28.8787 12
v -6.67563 -29.2478 12
v -5.20945 -29.5442 12
v -3.73031 -29.7672 12
v -2.2419 -29.9161 12
v -0.747921 -29.9907 12
v 0.747921 -29.9907 12
v 2.2419 -29.9161 12
v 3.73031 -29.7672 12
v 5.20945 -29.5442 12
v 6.67563 -29.2478 12
v 8.12521 -28.8787 12
v 9.5546 -28.4378 12
v 10.9602 -27.9262 12
v 12.3386 -27.3452 12
v 13.6863 -26.6962 12
v 15 -25.9808 12
v 16.2764 -25.2008 12
v 17.5123 -24.3581 12
v 18.7047 -23.4549 12
v 19.8506 -22.4934 12
v 20.9471 -21.476 12
v 21.9916 -20.4052 12
v 22.9813 -19.2836 12
v 23.914 -18.1141 12
v 24.7872 -16.8996 12
v 25.5987 -15.6431 12
v 26.3466 -14.3476 12
v 27.0291 -13.0165 12
v 27.6443 -11.653 12
v 28.1908 -10.2606 12
v 28.6672 -8.84266 12
v 29.0723 -7.40272 12
v 29.4052 -5.94438 12
v 29.6649 -4.47127 12
v 29.8509 -2.98704 12
v 29.9627 -1.49538 12
v 30 -7.34788e-15 12
v 30 -7.34788e-15 0
v 29.9627 1.49538 0
v 29.8509 2.98704 0
v 29.6649 4.47127 0
v 29.4052 5.94438 0
v 29.0723 7.40272 0
v 28.6672 8.84266 0
v 28.1908 10.2606 0
v 27.6443 11.653 0
v 27.0291 13.0165 0
v 26.3466 14.3476 0
v 25.5987 15.6431 0
v 24.7872 16.8996 0
v 23.914 18.1141 0
v 22.9813 19.2836 0
v 21.9916 20.4052 0
v 20.9471 21.476 0
v 19.8506 22.4934 0
v 18.7047 23.4549 0
v 17.5123 24.3581 0
v 16.2764 25.2008 0
v 15 25.9808 0
v 13.6863 26.6962 0
v 12.3386 27.3452 0
v 10.9602 27.9262 0
v 9.5546 28.4378 0
v 8.12521 28.8787 0
v 6.67563 29.2478 0
v 5.20945 29.5442 0
v 3.73031 29.7672 0
v 2.2419 29.9161 0
v 0.747921 29.9907 0
v -0.747921 29.9907 0
v -2.2419 29.9161 0
v -3.73031 29.7672 0
v -5.20945 29.5442 0
v -6.67563 29.2478 0
v -8.12521 28.8787 0
v -9.5546 28.4378 0
v -10.9602 27.9262 0
v -12.3386 27.3452 0
v -13.6863 26.6962 0
v -15 25.9808 0
v -16.2764 25.2008 0
v -17.5123 24.3581 0
v -18.7047 23.4549 0
v -19.8506 22.4934 0
v -20.9471 21.476 0
v -21.9916 20.4052 0
v -22.9813 19.2836 0
v -23.914 18.1141 0
v -24.7872 16.8996 0
v -25.5987 15.6431 0
v -26.3466 14.3476 0
v -27.0291 13.0165 0
v -27.6443 11.653 0
v -28.1908 10.2606 0
v -28.6672 8.84266 0
v -29.0723 7.40272 0
v -29.4052 5.94438 0
v -29.6649 4.47127 0
v -29.8509 2.98704 0
v -29.9627 1.49538 0
v -30 -1.02907e-13 0
v -29.9627 -1.49538 0
v -29.8509 -2.98704 0
v -29.6649 -4.47127 0
v -29.4052 -5.94438 0
v -29.0723 -7.40272 0
v -28.6672 -8.84266 0
v -28.1908 -10.2606 0
v -27.6443 -11.653 0
v -27.0291 -13.0165 0
v -26.3466 -14.3476 0
v -25.5987 -15.6431 0
v -24.7872 -16.8996 0
v -23.914 -18.1141 0
v -22.9813 -19.2836 0
v -21.9916 -20.4052 0
v -20.9471 -21.476 0
v -19.8506 -22.4934 0
v -18.7047 -23.4549 0
v -17.5123 -24.3581 0
v -16.2764 -25.2008 0
v -15 -25.9808 0
v -13.6863 -26.6962 0
v -12.3386 -27.3452 0
v -10.9602 -27.9262 0
v -9.5546 -28.4378 0
v -8.12521 -28.8787 0
v -6.67563 -29.2478 0
v -5.20945 -29.5442 0
v -3.73031 -29.7672 0
v -2.2419 -29.9161 0
v -0.747921 -29.9907 0
v 0.747921 -29.9907 0
v 2.2419 -29.9161 0
v 3.73031 -29.7672 0
v 5.20945 -29.5442 0
v 6.67563 -29.2478 0
v 8.12521 -28.8787 0
v 9.5546 -28.4378 0
v 10.9602 -27.9262 0
v 12.3386 -27.3452 0
v 13.6863 -26.6962 0
v 15 -25.9808 0
v 16.2764 -25.2008 0
v 17.5123 -24.3581 0
v 18.7047 -23.4549 0
v 19.8506 -22.4934 0
v 20.9471 -21.476 0
v 21.9916 -20.4052 0
v 22.9813 -19.2836 0
v 23.914 -18.1141 0
v 24.7872 -16.8996 0
v 25.5987 -15.6431 0
v 26.3466 -14.3476 0
v 27.0291 -13.0165 0
v 27.6443 -11.653 0
v 28.1908 -10.2606 0
v 28.6672 -8.84266 0
v 29.0723 -7.40272 0
v 29.4052 -5.94438 0
v 29.6649 -4.47127 0
v 29.8509 -2.98704 0
v 29.9627 -1.49538 0
v 30 -7.34788e-15 0
v 30 -7.34788e-15 0
v 29.9627 1.49538 0
v 29.8509 2.98704 0
v 29.6649 4.47127 0
v 29.4052 5.94438 0
v 29.0723 7.40272 0
v 28.6672 8.84266 0
v 28.1908 10.2606 0
v 27.6443 11.653 0
v 27.0291 13.0165 0
v 26.3466 14.3476 0
v 25.5987 15.6431 0
v 24.7872 16.8996 0
v 23.914 18.1141 0
v 22.9813 19.2836 0
v 21.9916 20.4052 0
v 20.9471 21.476 0
v 19.8506 22.4934 0
v 18.7047 23.4549 0
v 17.5123 24.3581 0
v 16.2764 25.2008 0
v 15 25.9808 0
v 13.6863 26.6962 0
v 12.3386 27.3452 0
v 10.9602 27.9262 0
v 9.5546 28.4378 0
v 8.12521 28.8787 0
v 6.67563 29.2478 0
v 5.20945 29.5442 0
v 3.73031 29.7672 0
v 2.2419 29.9161 0
v 0.747921 29.9907 0
v -0.747921 29.9907 0
v -2.2419 29.9161 0
v -3.73031 29.7672 0
v -5.20945 29.5442 0
v -6.67563 29.2478 0
v -8.12521 28.8787 0
v -9.5546 28.4378 0
v -10.9602 27.9262 0
v -12.3386 27.3452 0
v -13.6863 26.6962 0
v -15 25.9808 0
v -16.2764 25.2008 0
v -17.5123 24.3581 0
v -18.7047 23.4549 0
v -19.8506 22.4934 0
v -20.9471 21.476 0
v -21.9916 20.4052 0
v -22.9813 19.2836 0
v -23.914 18.1141 0
v -24.7872 16.8996 0
v -25.5987 15.6431 0
v -26.3466 14.3476 0
v -27.0291 13.0165 0
v -27.6443 11.653 0
v -28.1908 10.2606 0
v -28.6672 8.84266 0
v -29.0723 7.40272 0
v -29.4052 5.94438 0
v -29.6649 4.47127 0
v -29.8509 2.98704 0
v -29.9627 1.49538 0
v -30 -1.02907e-13 0
v -29.9627 -1.49538 0
v -29.8509 -2.98704 0
v -29.6649 -4.47127 0
v -29.4052 -5.94438 0
v -29.0723 -7.40272 0
v -28.6672 -8.84266 0
v -28.1908 -10.2606 0
v -27.6443 -11.653 0
v -27.0291 -13.0165 0
v -26.3466 -14.3476 0
v -25.5987 -15.6431 0
v -24.7872 -16.8996 0
v -23.914 -18.1141 0
v -22.9813 -19.2836 0
v -21.9916 -20.4052 0
v -20.9471 -21.476 0
v -19.8506 -22.4934 0
v -18.7047 -23.4549 0
v -17.5123 -24.3581 0
v -16.2764 -25.2008 0
v -15 -25.9808 0
v -13.6863 -26.6962 0
v -12.3386 -27.3452 0
v -10.9602 -27.9262 0
v -9.5546 -28.4378 0
v -8.12521 -28.8787 0
v -6.67563 -29.2478 0
v -5.20945 -29.5442 0
v -3.73031 -29.7672 0
v -2.2419 -29.9161 0
v -0.747921 -29.9907 0
v 0.747921 -29.9907 0
v 2.2419 -29.9161 0
v 3.73031 -29.7672 0
v 5.20945 -29.5442 0
v 6.67563 -29.2478 0
v 8.12521 -28.8787 0
v 9.5546 -28.4378 0
v 10.9602 -27.9262 0
v 12.3386 -27.3452 0
v 13.6863 -26.6962 0
v 15 -25.9808 0
v 16.2764 -25.2008 0
v 17.5123 -24.3581 0
v 18.7047 -23.4549 0
v 19.8506 -22.4934 0
v 20.9471 -21.476 0
v 21.9916 -20.4052 0
v 22.9813 -19.2836 0
v 23.914 -18.1141 0
v 24.7872 -16.8996 0
v 25.5987 -15.6431 0
v 26.3466 -14.3476 0
v 27.0291 -13.0165 0
v 27.6443 -11.653 0
v 28.1908 -10.2606 0
v 28.6672 -8.84266 0
v 29.0723 -7.40272 0
v 29.4052 -5.94438 0
v 29.6649 -4.47127 0
v 29.8509 -2.98704 0
v 29.9627 -1.49538 0
v 2.5 7.59934 0
v 2.5 11 0
v -2.5 7.59934 0
v -2.87652 7.46496 0
v -3.24586 7.31193 0
v -3.60709 7.14065 0
v -3.95932 6.95153 0
v -4.30165 6.74506 0
v -4.63325 6.52173 0
v -4.95327 6.28213 0
v -5.26093 6.02683 0
v -5.55544 5.75648 0
v -5.83608 5.47176 0
v -6.10215 5.17337 0
v -6.35298 4.86206 0
v -6.58794 4.53861 0
v -6.80645 4.20383 0
v -7.00797 3.85855 0
v -7.19198 3.50363 0
v -7.35803 3.13996 0
v -7.50571 2.76845 0
v -7.63464 2.39003 0
v -7.74451 2.00564 0
v -7.83503 1.61624 0
v -7.90599 1.2228 0
v -7.95721 0.826314 0
v -7.98856 0.42776 0
v -7.99995 0.0281386 0
v -7.99137 -0.371553 0
v -7.96283 -0.770317 0
v -7.9144 -1.16716 0
v -7.84621 -1.56108 0
v -7.75843 -1.95111 0
v -7.65127 -2.33626 0
v -7.525 -2.71559 0
v -7.37994 -3.08812 0
v -7.21645 -3.45295 0
v -7.03494 -3.80915 0
v -6.83586 -4.15584 0
v -6.61971 -4.49216 0
v -6.38702 -4.81725 0
v -6.13839 -5.13032 0
v -5.87443 -5.43057 0
v -5.5958 -5.71726 0
v -5.30319 -5.98967 0
v -4.99734 -6.24713 0
v -4.67901 -6.48898 0
v -4.349 -6.71463 0
v -4.00812 -6.92351 0
v -3.65723 -7.1151 0
v -3.29722 -7.28892 0
v -2.92896 -7.44454 0
v -2.5534 -7.58157 0
v -2.17145 -7.69966 0
v -1.78409 -7.79853 0
v -1.39226 -7.87792 0
v -0.996965 -7.93764 0
v -0.599177 -7.97753 0
v -0.199892 -7.9975 0
v 0.199892 -7.9975 0
v 0.599177 -7.97753 0
v 0.996965 -7.93764 0
v 1.39226 -7.87792 0
v 1.78409 -7.79853 0
v 2.17145 -7.69966 0
v 2.5534 -7.58157 0
v 2.92896 -7.44454 0
v 3.29722 -7.28892 0
v 3.65723 -7.1151 0
v 4.00812 -6.92351 0
v 4.349 -6.71463 0
v 4.67901 -6.48898 0
v 4.99734 -6.24713 0
v 5.30319 -5.98967 0
v 5.5958 -5.71726 0
v 5.87443 -5.43057 0
v 6.13839 -5.13032 0
v 6.38702 -4.81725 0
v 6.61971 -4.49216 0
v 6.83586 -4.15584 0
v 7.03494 -3.80915 0
v 7.21645 -3.45295 0
v 7.37994 -3.08812 0
v 7.525 -2.71559 0
v 7.65127 -2.33626 0
v 7.75843 -1.95111 0
v 7.84621 -1.56108 0
v 7.9144 -1.16716 0
v 7.96283 -0.770317 0
v 7.99137 -0.371553 0
v 7.99995 0.0281386 0
v 7.98856 0.42776 0
v 7.95721 0.826314 0
v 7.90599 1.2228 0
v 7.83503 1.61624 0
v 7.74451 2.00564 0
v 7.63464 2.39003 0
v 7.50571 2.76845 0
v 7.35803 3.13996 0
v 7.19198 3.50363 0
v 7.00797 3.85855 0
v 6.80645 4.20383 0
v 6.58794 4.53861 0
v 6.35298 4.86206 0
v 6.10215 5.17337 0
v 5.83608 5.47176 0
v 5.55544 5.75648 0
v 5.26093 6.02683 0
v 4.95327 6.28213 0
v 4.63325 6.52173 0
v 4.30165 6.74506 0
v 3.95932 6.95153 0
v 3.60709 7.14065 0
v 3.24586 7.31193 0
v 2.87652 7.46496 0
v -2.5 11 0
v -2.5 11 0
v 2.5 11 0
v -2.5 11 12
v 2.5 11 12
v -2.5 7.59934 12
v -2.5 11 12
v -2.5 7.59934 0
v -2.5 11 0
v 2.5 7.59934 12
v 2.87652 7.46496 12
v 3.24586 7.31193 12
v 3.60709 7.14065 12
v 3.95932 6.95153 12
v 4.30165 6.74506 12
v 4.63325 6.52173 12
v 4.95327 6.28213 12
v 5.26093 6.02683 12
v 5.55544 5.75648 12
v 5.83608 5.47176 12
v 6.10215 5.17337 12
v 6.35298 4.86206 12
v 6.58794 4.53861 12
v 6.80645 4.20383 12
v 7.00797 3.85855 12
v 7.19198 3.50363 12
v 7.35803 3.13996 12
v 7.50571 2.76845 12
v 7.63464 2.39003 12
v 7.74451 2.00564 12
v 7.83503 1.61624 12
v 7.90599 1.2228 12
v 7.95721 0.826314 12
v 7.98856 0.42776 12
v 7.99995 0.0281386 12
v 7.99137 -0.371553 12
v 7.96283 -0.770317 12
v 7.9144 -1.16716 12
v 7.84621 -1.56108 12
v 7.75843 -1.95111 12
v 7.65127 -2.33626 12
v 7.525 -2.71559 12
v 7.37994 -3.08812 12
v 7.21645 -3.45295 12
v 7.03494 -3.80915 12
v 6.83586 -4.15584 12
v 6.61971 -4.49216 12
v 6.38702 -4.81725 12
v 6.13839 -5.13032 12
v 5.87443 -5.43057 12
v 5.5958 -5.71726 12
v 5.30319 -5.98967 12
v 4.99734 -6.24713 12
v 4.67901 -6.48898 12
v 4.349 -6.71463 12
v 4.00812 -6.92351 12
v 3.65723 -7.1151 12
v 3.29722 -7.28892 12
v 2.92896 -7.44454 12
v 2.5534 -7.58157 12
v 2.17145 -7.69966 12
v 1.78409 -7.79853 12
v 1.39226 -7.87792 12
v 0.996965 -7.93764 12
v 0.599177 -7.97753 12
v 0.199892 -7.9975 12
v -0.199892 -7.9975 12
v -0.599177 -7.97753 12
v -0.996965 -7.93764 12
v -1.39226 -7.87792 12
v -1.78409 -7.79853 12
v -2.17145 -7.69966 12
v -2.5534 -7.58157 12
v -2.92896 -7.44454 12
v -3.29722 -7.28892 12
v -3.65723 -7.1151 12
v -4.00812 -6.92351 12
v -4.349 -6.71463 12
v -4.67901 -6.48898 12
v -4.99734 -6.24713 12
v -5.30319 -5.98967 12
v -5.5958 -5.71726 12
v -5.87443 -5.43057 12
v -6.13839 -5.13032 12
v -6.38702 -4.81725 12
v -6.61971 -4.49216 12
v -6.83586 -4.15584 12
v -7.03494 -3.80915 12
v -7.21645 -3.45295 12
v -7.37994 -3.08812 12
v -7.525 -2.71559 12
v -7.65127 -2.33626 12
v -7.75843 -1.95111 12
v -7.84621 -1.56108 12
v -7.9144 -1.16716 12
v -7.96283 -0.770317 12
v -7.99137 -0.371553 12
v -7.99995 0.0281386 12
v -7.98856 0.42776 12
v -7.95721 0.826314 12
v -7.90599 1.2228 12
v -7.83503 1.61624 12
v -7.74451 2.00564 12
v -7.63464 2.39003 12
v -7.50571 2.76845 12
v -7.35803 3.13996 12
v -7.19198 3.50363 12
v -7.00797 3.85855 12
v -6.80645 4.20383 12
v -6.58794 4.53861 12
v -6.35298 4.86206 12
v -6.10215 5.17337 12
v -5.83608 5.47176 12
v -5.55544 5.75648 12
v -5.26093 6.02683 12
v -4.95327 6.28213 12
v -4.63325 6.52173 12
v -4.30165 6.74506 12
v -3.95932 6.95153 12
v -3.60709 7.14065 12
v -3.24586 7.31193 12
v -2.87652 7.46496 12
v -2.5 7.59934 12
v -2.5 7.59934 0
v -2.87652 7.46496 0
v -3.24586 7.31193 0
v -3.60709 7.14065 0
v -3.95932 6.95153 0
v -4.30165 6.74506 0
v -4.63325 6.52173 0
v -4.95327 6.28213 0
v -5.26093 6.02683 0
v -5.55544 5.75648 0
v -5.83608 5.47176 0
v -6.10215 5.17337 0
v -6.35298 4.86206 0
v -6.58794 4.53861 0
v -6.80645 4.20383 0
v -7.00797 3.85855 0
v -7.19198 3.50363 0
v -7.35803 3.13996 0
v -7.50571 2.76845 0
v -7.63464 2.39003 0
v -7.74451 2.00564 0
v -7.83503 1.61624 0
v -7.90599 1.2228 0
v -7.95721 0.826314 0
v -7.98856 0.42776 0
v -7.99995 0.0281386 0
v -7.99137 -0.371553 0
v -7.96283 -0.770317 0
v -7.9144 -1.16716 0
v -7.84621 -1.56108 0
v -7.75843 -1.95111 0
v -7.65127 -2.33626 0
v -7.525 -2.71559 0
v -7.37994 -3.08812 0
v -7.21645 -3.45295 0
v -7.03494 -3.80915 0
v -6.83586 -4.15584 0
v -6.61971 -4.49216 0
v -6.38702 -4.81725 0
v -6.13839 -5.13032 0
v -5.87443 -5.43057 0
v -5.5958 -5.71726 0
v -5.30319 -5.98967 0
v -4.99734 -6.24713 0
v -4.67901 -6.48898 0
v -4.349 -6.71463 0
v -4.00812 -6.92351 0
v -3.65723 -7.1151 0
v -3.29722 -7.28892 0
v -2.92896 -7.44454 0
v -2.5534 -7.58157 0
v -2.17145 -7.69966 0
v -1.78409 -7.79853 0
v -1.39226 -7.87792 0
v -0.996965 -7.93764 0
v -0.599177 -7.97753 0
v -0.199892 -7.9975 0
v 0.199892 -7.9975 0
v 0.599177 -7.97753 0
v 0.996965 -7.93764 0
v 1.39226 -7.87792 0
v 1.78409 -7.79853 0
v 2.17145 -7.69966 0
v 2.5534 -7.58157 0
v 2.92896 -7.44454 0
v 3.29722 -7.28892 0
v 3.65723 -7.1151 0
v 4.00812 -6.92351 0
v 4.349 -6.71463 0
v 4.67901 -6.48898 0
v 4.99734 -6.24713 0
v 5.30319 -5.98967 0
v 5.5958 -5.71726 0
v 5.87443 -5.43057 0
v 6.13839 -5.13032 0
v 6.38702 -4.81725 0
v 6.61971 -4.49216 0
v 6.83586 -4.15584 0
v 7.03494 -3.80915 0
v 7.21645 -3.45295 0
v 7.37994 -3.08812 0
v 7.525 -2.71559 0
v 7.65127 -2.33626 0
v 7.75843 -1.95111 0
v 7.84621 -1.56108 0
v 7.9144 -1.16716 0
v 7.96283 -0.770317 0
v 7.99137 -0.371553 0
v 7.99995 0.0281386 0
v 7.98856 0.42776 0
v 7.95721 0.826314 0
v 7.90599 1.2228 0
v 7.83503 1.61624 0
v 7.74451 2.00564 0
v 7.63464 2.39003 0
v 7.50571 2.76845 0
v 7.35803 3.13996 0
v 7.19198 3.50363 0
v 7.00797 3.85855 0
v 6.80645 4.20383 0
v 6.58794 4.53861 0
v 6.35298 4.86206 0
v 6.10215 5.17337 0
v 5.83608 5.47176 0
v 5.55544 5.75648 0
v 5.26093 6.02683 0
v 4.95327 6.28213 0
v 4.63325 6.52173 0
v 4.30165 6.74506 0
v 3.95932 6.95153 0
v 3.60709 7.14065 0
v 3.24586 7.31193 0
v 2.87652 7.46496 0
v 2.5 7.59934 0
v 2.5 7.59934 12
v 2.5 11 12
v 2.5 7.59934 0
v 2.5 11 0
v 30 -7.34788e-15 12
v 29.9627 1.49538 12
v 29.8509 2.98704 12
v 29.6649 4.47127 12
v 29.4052 5.94438 12
v 29.0723 7.40272 12
v 28.6672 8.84266 12
v 28.1908 10.2606 12
v 27.6443 11.653 12
v 27.0291 13.0165 12
v 26.3466 14.3476 12
v 25.5987 15.6431 12
v 24.7872 16.8996 12
v 23.914 18.1141 12
v 22.9813 19.2836 12
v 21.9916 20.4052 12
v 20.9471 21.476 12
v 19.8506 22.4934 12
v 18.7047 23.4549 12
v 17.5123 24.3581 12
v 16.2764 25.2008 12
v 15 25.9808 12
v 13.6863 26.6962 12
v 12.3386 27.3452 12
v 10.9602 27.9262 12
v 9.5546 28.4378 12
v 8.12521 28.8787 12
v 6.67563 29.2478 12
v 5.20945 29.5442 12
v 3.73031 29.7672 12
v 2.2419 29.9161 12
v 0.747921 29.9907 12
v -0.747921 29.9907 12
v -2.2419 29.9161 12
v -3.73031 29.7672 12
v -5.20945 29.5442 12
v -6.67563 29.2478 12
v -8.12521 28.8787 12
v -9.5546 28.4378 12
v -10.9602 27.9262 12
v -12.3386 27.3452 12
v -13.6863 26.6962 12
v -15 25.9808 12
v -16.2764 25.2008 12
v -17.5123 24.3581 12
v -18.7047 23.4549 12
v -19.8506 22.4934 12
v -20.9471 21.476 12
v -21.9916 20.4052 12
v -22.9813 19.2836 12
v -23.914 18.1141 12
v -24.7872 16.8996 12
v -25.5987 15.6431 12
v -26.3466 14.3476 12
v -27.0291 13.0165 12
v -27.6443 11.653 12
v -28.1908 10.2606 12
v -28.6672 8.84266 12
v -29.0723 7.40272 12
v -29.4052 5.94438 12
v -29.6649 4.47127 12
v -29.8509 2.98704 12
v -29.9627 1.49538 12
v -30 -1.02907e-13 12
v -29.9627 -1.49538 12
v -29.8509 -2.98704 12
v -29.6649 -4.47127 12
v -29.4052 -5.94438 12
v -29.0723 -7.40272 12
v -28.6672 -8.84266 12
v -28.1908 -10.2606 12
v -27.6443 -11.653 12
v -27.0291 -13.0165 12
v -26.3466 -14.3476 12
v -25.5987 -15.6431 12
v -24.7872 -16.8996 12
v -23.914 -18.1141 12
v -22.9813 -19.2836 12
v -21.9916 -20.4052 12
v -20.9471 -21.476 12
v -19.8506 -22.4934 12
v -18.7047 -23.4549 12
v -17.5123 -24.3581 12
v -16.2764 -25.2008 12
v -15 -25.9808 12
v -13.6863 -26.6962 12
v -12.3386 -27.3452 12
v -10.9602 -27.9262 12
v -9.5546 -28.4378 12
v -8.12521 -28.8787 12
v -6.67563 -29.2478 12
v -5.20945 -29.5442 12
v -3.73031 -29.7672 12
v -2.2419 -29.9161 12
v -0.747921 -29.9907 12
v 0.747921 -29.9907 12
v 2.2419 -29.9161 12
v 3.73031 -29.7672 12
v 5.20945 -29.5442 12
v 6.67563 -29.2478 12
v 8.12521 -28.8787 12
v 9.5546 -28.4378 12
v 10.9602 -27.9262 12
v 12.3386 -27.3452 12
v 13.6863 -26.6962 12
v 15 -25.9808 12
v 16.2764 -25.2008 12
v 17.5123 -24.3581 12
v 18.7047 -23.4549 12
v 19.8506 -22.4934 12
v 20.9471 -21.476 12
v 21.9916 -20.4052 12
v 22.9813 -19.2836 12
v 23.914 -18.1141 12
v 24.7872 -16.8996 12
v 25.5987 -15.6431 12
v 26.3466 -14.3476 12
v 27.0291 -13.0165 12
v 27.6443 -11.653 12
v 28.1908 -10.2606 12
v 28.6672 -8.84266 12
v 29.0723 -7.40272 12
v 29.4052 -5.94438 12
v 29.6649 -4.47127 12
v 29.8509 -2.98704 12
v 29.9627 -1.49538 12
v 2.5 7.59934 12
v 2.87652 7.46496 12
v 3.24586 7.31193 12
v 3.60709 7.14065 12
v 3.95932 6.95153 12
v 4.30165 6.74506 12
v 4.63325 6.52173 12
v 4.95327 6.28213 12
v 5.26093 6.02683 12
v 5.55544 5.75648 12
v 5.83608 5.47176 12
v 6.10215 5.17337 12
v 6.35298 4.86206 12
v 6.58794 4.53861 12
v 6.80645 4.20383 12
v 7.00797 3.85855 12
v 7.19198 3.50363 12
v 7.35803 3.13996 12
v 7.50571 2.76845 12
v 7.63464 2.39003 12
v 7.74451 2.00564 12
v 7.83503 1.61624 12
v 7.90599 1.2228 12
v 7.95721 0.826314 12
v 7.98856 0.42776 12
v 7.99995 0.0281386 12
v 7.99137 -0.371553 12
v 7.96283 -0.770317 12
v 7.9144 -1.16716 12
v 7.84621 -1.56108 12
v 7.75843 -1.95111 12
v 7.65127 -2.33626 12
v 7.525 -2.71559 12
v 7.37994 -3.08812 12
v 7.21645 -3.45295 12
v 7.03494 -3.80915 12
v 6.83586 -4.15584 12
v 6.61971 -4.49216 12
v 6.38702 -4.81725 12
v 6.13839 -5.13032 12
v 5.87443 -5.43057 12
v 5.5958 -5.71726 12
v 5.30319 -5.98967 12
v 4.99734 -6.24713 12
v 4.67901 -6.48898 12
v 4.349 -6.71463 12
v 4.00812 -6.92351 12
v 3.65723 -7.1151 12
v 3.29722 -7.28892 12
v 2.92896 -7.44454 12
v 2.5534 -7.58157 12
v 2.17145 -7.69966 12
v 1.78409 -7.79853 12
v 1.39226 -7.87792 12
v 0.996965 -7.93764 12
v 0.599177 -7.97753 12
v 0.199892 -7.9975 12
v -0.199892 -7.9975 12
v -0.599177 -7.97753 12
v -0.996965 -7.93764 12
v -1.39226 -7.87792 12
v -1.78409 -7.79853 12
v -2.17145 -7.69966 12
v -2.5534 -7.58157 12
v -2.92896 -7.44454 12
v -3.29722 -7.28892 12
v -3.65723 -7.1151 12
v -4.00812 -6.92351 12
v -4.349 -6.71463 12
v -4.67901 -6.48898 12
v -4.99734 -6.24713 12
v -5.30319 -5.98967 12
v -5.5958 -5.71726 12
v -5.87443 -5.43057 12
v -6.13839 -5.13032 12
v -6.38702 -4.81725 12
v -6.61971 -4.49216 12
v -6.83586 -4.15584 12
v -7.03494 -3.80915 12
v -7.21645 -3.45295 12
v -7.37994 -3.08812 12
v -7.525 -2.71559 12
v -7.65127 -2.33626 12
v -7.75843 -1.95111 12
v -7.84621 -1.56108 12
v -7.9144 -1.16716 12
v -7.96283 -0.770317 12
v -7.99137 -0.371553 12
v -7.99995 0.0281386 12
v -7.98856 0.42776 12
v -7.95721 0.826314 12
v -7.90599 1.2228 12
v -7.83503 1.61624 12
v -7.74451 2.00564 12
v -7.63464 2.39003 12
v -7.50571 2.76845 12
v -7.35803 3.13996 12
v -7.19198 3.50363 12
v -7.00797 3.85855 12
v -6.80645 4.20383 12
v -6.58794 4.53861 12
v -6.35298 4.86206 12
v -6.10215 5.17337 12
v -5.83608 5.47176 12
v -5.55544 5.75648 12
v -5.26093 6.02683 12
v -4.95327 6.28213 12
v -4.63325 6.52173 12
v -4.30165 6.74506 12
v -3.95932 6.95153 12
v -3.60709 7.14065 12
v -3.24586 7.31193 12
v -2.87652 7.46496 12
v -2.5 7.59934 12
v -2.5 11 12
v 2.5 11 12
f 2 1 128
f 2 128 129
f 3 129 130
f 3 130 131
f 3 2 129
f 4 131 132
f 4 3 131
f 5 132 133
f 5 4 132
f 6 133 134
f 6 5 133
f 7 134 135
f 7 6 134
f 8 7 135
f 9 135 136
f 9 136 137
f 9 8 135
f 10 9 137
f 11 137 138
f 11 10 137
f 12 11 138
f 12 138 139
f 13 12 139
f 13 139 140
f 13 140 141
f 14 13 141
f 15 14 141
f 15 141 142
f 16 15 142
f 16 142 143
f 17 16 143
f 17 143 144
f 18 17 144
f 18 144 145
f 19 18 145
f 19 145 146
f 20 19 146
f 20 146 147
f 21 20 147
f 21 147 148
f 22 21 148
f 22 148 149
f 23 22 149
f 23 149 150
f 23 150 151
f 24 23 151
f 25 151 152
f 25 152 153
f 25 24 151
f 26 25 153
f 27 153 154
f 27 26 153
f 28 154 155
f 28 155 156
f 28 27 154
f 29 28 156
f 30 156 157
f 30 29 156
f 31 157 158
f 31 158 159
f 31 30 157
f 32 31 159
f 33 159 160
f 33 160 161
f 33 32 159
f 34 33 161
f 35 161 162
f 35 162 163
f 35 34 161
f 36 35 163
f 37 36 163
f 37 163 164
f 38 37 164
f 38 164 165
f 39 38 165
f 39 165 166
f 40 39 166
f 40 166 167
f 41 40 167
f 41 167 168
f 42 41 168
f 42 168 169
f 43 42 169
f 43 169 170
f 43 170 171
f 44 43 171
f 45 44 171
f 45 171 172
f 45 172 173
f 46 45 173
f 46 173 174
f 47 46 174
f 47 174 175
f 48 47 175
f 49 48 175
f 49 175 176
f 50 49 176
f 50 176 177
f 51 50 177
f 51 177 178
f 52 51 178
f 52 178 179
f 53 52 179
f 53 179 180
f 54 53 180
f 54 180 181
f 55 54 181
f 55 181 182
f 56 55 182
f 56 182 183
f 57 56 183
f 57 183 184
f 57 184 185
f 58 185 186
f 58 57 185
f 59 58 186
f 60 186 187
f 60 187 188
f 60 59 186
f 61 188 189
f 61 60 188
f 62 61 189
f 63 62 189
f 63 189 190
f 64 63 190
f 64 190 191
f 65 64 191
f 65 191 192
f 66 65 192
f 66 192 193
f 67 66 193
f 67 193 194
f 68 67 194
f 68 194 195
f 69 68 195
f 69 195 196
f 70 69 196
f 70 196 197
f 71 70 197
f 71 197 198
f 72 71 198
f 72 198 199
f 73 72 199
f 73 199 200
f 74 73 200
f 74 200 201
f 75 74 201
f 75 201 202
f 76 202 203
f 76 75 202
f 77 203 204
f 77 76 203
f 78 204 205
f 78 77 204
f 79 205 206
f 79 78 205
f 80 206 207
f 80 79 206
f 81 207 208
f 81 80 207
f 82 208 209
f 82 209 210
f 82 81 208
f 83 82 210
f 84 210 211
f 84 83 210
f 85 211 212
f 85 212 213
f 85 84 211
f 86 213 214
f 86 85 213
f 87 86 214
f 88 214 215
f 88 87 214
f 89 88 215
f 89 215 216
f 90 89 216
f 90 216 217
f 91 90 217
f 91 217 218
f 92 91 218
f 92 218 219
f 93 219 220
f 93 220 221
f 93 92 219
f 94 221 222
f 94 93 221
f 95 94 222
f 96 222 223
f 96 95 222
f 97 223 224
f 97 96 223
f 98 224 225
f 98 97 224
f 99 225 226
f 99 226 227
f 99 98 225
f 100 99 227
f 101 227 228
f 101 100 227
f 102 228 229
f 102 101 228
f 103 229 230
f 103 102 229
f 104 230 231
f 104 103 230
f 105 231 232
f 105 104 231
f 106 232 233
f 106 105 232
f 107 233 234
f 107 106 233
f 108 234 235
f 108 235 236
f 108 107 234
f 109 108 236
f 110 236 237
f 110 237 238
f 110 109 236
f 111 110 238
f 112 238 239
f 112 111 238
f 113 112 239
f 113 239 240
f 114 113 240
f 114 240 241
f 115 114 241
f 115 241 242
f 116 115 242
f 116 242 243
f 117 116 243
f 117 243 244
f 118 117 244
f 118 244 245
f 119 118 245
f 119 245 246
f 120 119 246
f 120 246 247
f 121 120 247
f 121 247 248
f 122 121 248
f 122 248 249
f 123 122 249
f 123 249 250
f 124 123 250
f 124 250 251
f 125 251 252
f 125 124 251
f 126 125 252
f 126 252 253
f 127 253 254
f 127 126 253
f 424 334 333
f 423 424 333
f 423 333 332
f 425 335 334
f 425 334 424
f 422 423 332
f 422 332 331
f 426 335 425
f 426 336 335
f 421 422 331
f 421 331 330
f 427 337 336
f 427 336 426
f 420 421 330
f 420 330 329
f 428 337 427
f 428 338 337
f 419 420 329
f 419 329 328
f 429 339 338
f 429 338 428
f 418 419 328
f 418 328 327
f 430 339 429
f 430 340 339
f 417 327 326
f 417 418 327
f 431 340 430
f 431 341 340
f 416 326 325
f 416 417 326
f 432 341 431
f 432 342 341
f 415 325 324
f 415 416 325
f 433 342 432
f 433 343 342
f 414 324 323
f 414 415 324
f 434 343 433
f 434 344 343
f 413 323 322
f 413 414 323
f 435 344 434
f 435 345 344
f 412 322 321
f 412 413 322
f 436 345 435
f 436 346 345
f 411 412 321
f 411 321 320
f 437 346 436
f 437 347 346
f 410 411 320
f 410 320 319
f 438 347 437
f 438 348 347
f 409 410 319
f 409 319 318
f 439 348 438
f 439 349 348
f 408 409 318
f 408 318 317
f 440 349 439
f 440 350 349
f 440 351 350
f 407 408 317
f 407 317 316
f 441 351 440
f 441 352 351
f 406 407 316
f 406 316 315
f 442 352 441
f 442 353 352
f 405 406 315
f 405 315 314
f 443 353 442
f 443 354 353
f 404 405 314
f 404 314 313
f 444 354 443
f 444 355 354
f 403 404 313
f 403 313 312
f 445 356 355
f 445 355 444
f 402 403 312
f 402 312 311
f 446 357 356
f 446 356 445
f 401 402 311
f 401 311 310
f 447 358 357
f 447 357 446
f 400 401 310
f 400 310 309
f 448 359 358
f 448 358 447
f 399 309 308
f 399 400 309
f 449 360 359
f 449 359 448
f 398 308 307
f 398 399 308
f 450 361 360
f 450 360 449
f 397 307 306
f 397 398 307
f 451 362 361
f 451 361 450
f 396 397 306
f 396 306 305
f 452 363 362
f 452 362 451
f 395 305 304
f 395 396 305
f 453 364 363
f 453 363 452
f 394 304 303
f 394 395 304
f 454 364 453
f 365 364 454
f 393 394 303
f 455 365 454
f 302 392 393
f 302 393 303
f 366 365 455
f 366 455 456
f 367 366 456
f 367 456 457
f 368 457 458
f 368 367 457
f 369 458 459
f 369 368 458
f 496 383 384
f 496 384 385
f 496 385 386
f 496 386 387
f 496 387 388
f 496 388 389
f 496 389 390
f 496 390 391
f 496 391 392
f 496 300 299
f 496 301 300
f 496 302 301
f 496 392 302
f 298 496 299
f 370 459 460
f 370 369 459
f 297 496 298
f 371 460 461
f 371 370 460
f 296 496 297
f 382 487 488
f 382 488 489
f 382 489 490
f 382 490 491
f 382 491 492
f 382 492 493
f 382 493 494
f 382 494 495
f 382 495 381
f 372 461 462
f 372 371 461
f 295 496 296
f 373 462 463
f 373 372 462
f 294 496 295
f 374 463 464
f 374 373 463
f 293 496 294
f 375 464 465
f 375 374 464
f 292 496 293
f 376 465 466
f 376 375 465
f 291 496 292
f 377 466 467
f 377 376 466
f 290 496 291
f 378 467 468
f 378 377 467
f 289 496 290
f 379 468 469
f 379 378 468
f 288 496 289
f 380 469 470
f 380 379 469
f 287 382 496
f 287 496 288
f 255 470 471
f 255 380 470
f 286 382 287
f 256 471 472
f 256 255 471
f 285 382 286
f 257 472 473
f 257 256 472
f 284 382 285
f 258 473 474
f 258 257 473
f 283 382 284
f 259 474 475
f 259 258 474
f 282 382 283
f 260 475 476
f 260 259 475
f 281 382 282
f 261 476 477
f 261 260 476
f 280 382 281
f 262 477 478
f 262 261 477
f 279 382 280
f 263 478 479
f 263 262 478
f 278 382 279
f 264 479 480
f 264 263 479
f 277 382 278
f 265 480 481
f 265 264 480
f 276 382 277
f 266 481 482
f 266 265 481
f 275 382 276
f 267 266 482
f 267 482 483
f 274 382 275
f 268 267 483
f 268 483 484
f 273 382 274
f 269 268 484
f 269 484 485
f 272 382 273
f 270 269 485
f 270 485 486
f 271 487 382
f 271 382 272
f 271 270 486
f 271 486 487
f 499 497 498
f 500 499 498
f 502 503 504
f 501 503 502
f 618 620 619
f 617 621 620
f 617 620 618
f 616 622 621
f 616 621 617
f 615 623 622
f 615 622 616
f 614 624 623
f 614 623 615
f 613 625 624
f 613 624 614
f 612 626 625
f 612 625 613
f 611 627 626
f 611 626 612
f 610 628 627
f 610 627 611
f 609 629 628
f 609 628 610
f 608 630 629
f 608 629 609
f 607 631 630
f 607 630 608
f 606 632 631
f 606 631 607
f 605 633 632
f 605 632 606
f 604 634 633
f 604 633 605
f 603 635 634
f 603 634 604
f 602 636 635
f 602 635 603
f 601 637 636
f 601 636 602
f 600 637 601
f 600 638 637
f 599 638 600
f 599 639 638
f 598 639 599
f 598 640 639
f 597 640 598
f 597 641 640
f 596 641 597
f 596 642 641
f 595 642 596
f 595 643 642
f 594 643 595
f 594 644 643
f 593 644 594
f 593 645 644
f 592 645 593
f 592 646 645
f 591 647 646
f 591 646 592
f 590 648 647
f 590 647 591
f 589 649 648
f 589 648 590
f 588 650 649
f 588 649 589
f 587 651 650
f 587 650 588
f 586 651 587
f 585 652 651
f 585 653 652
f 585 651 586
f 584 654 653
f 584 653 585
f 583 655 654
f 583 654 584
f 582 656 655
f 582 655 583
f 581 657 656
f 581 656 582
f 580 658 657
f 580 657 581
f 579 659 658
f 579 658 580
f 578 660 659
f 578 659 579
f 577 661 660
f 577 660 578
f 576 662 661
f 576 661 577
f 575 662 576
f 574 662 575
f 574 663 662
f 574 664 663
f 573 664 574
f 573 665 664
f 572 665 573
f 571 665 572
f 571 666 665
f 571 667 666
f 570 667 571
f 570 668 667
f 569 668 570
f 569 669 668
f 568 669 569
f 567 669 568
f 567 670 669
f 567 671 670
f 566 671 567
f 566 672 671
f 565 672 566
f 565 673 672
f 564 673 565
f 564 674 673
f 563 674 564
f 563 675 674
f 562 675 563
f 561 675 562
f 561 676 675
f 561 677 676
f 560 677 561
f 559 677 560
f 559 678 677
f 558 678 559
f 558 679 678
f 558 680 679
f 557 680 558
f 556 681 680
f 556 680 557
f 555 682 681
f 555 683 682
f 555 681 556
f 554 684 683
f 554 683 555
f 553 685 684
f 553 684 554
f 552 685 553
f 551 686 685
f 551 687 686
f 551 685 552
f 550 687 551
f 550 688 687
f 549 688 550
f 549 689 688
f 548 689 549
f 548 690 689
f 547 690 548
f 546 690 547
f 546 691 690
f 546 692 691
f 545 692 546
f 544 692 545
f 544 693 692
f 543 693 544
f 543 694 693
f 543 695 694
f 542 695 543
f 541 695 542
f 541 696 695
f 541 697 696
f 540 697 541
f 539 697 540
f 539 698 697
f 539 699 698
f 538 699 539
f 537 699 538
f 537 700 699
f 536 700 537
f 536 701 700
f 535 701 536
f 535 702 701
f 534 702 535
f 534 703 702
f 534 704 703
f 533 704 534
f 532 704 533
f 532 705 704
f 531 707 706
f 531 705 532
f 531 706 705
f 530 708 707
f 530 707 531
f 529 708 530
f 528 709 708
f 528 710 709
f 528 708 529
f 527 710 528
f 526 711 710
f 526 710 527
f 525 712 711
f 525 711 526
f 524 712 525
f 524 713 712
f 523 713 524
f 523 714 713
f 523 715 714
f 522 715 523
f 522 716 715
f 521 716 522
f 520 717 716
f 520 718 717
f 520 716 521
f 519 718 520
f 518 719 718
f 518 718 519
f 517 720 719
f 517 719 518
f 516 721 720
f 516 720 517
f 515 722 721
f 515 723 722
f 515 721 516
f 514 723 515
f 513 724 723
f 513 723 514
f 512 725 724
f 512 724 513
f 511 726 725
f 511 727 726
f 511 725 512
f 510 727 511
f 510 728 727
f 509 728 510
f 508 729 728
f 508 728 509
f 507 730 729
f 507 731 730
f 507 729 508
f 506 731 507
f 505 732 731
f 505 731 506
f 733 736 735
f 733 734 736
f 935 815 816
f 936 815 935
f 936 814 815
f 934 816 817
f 934 935 816
f 937 814 936
f 937 813 814
f 933 934 817
f 933 817 818
f 938 813 937
f 938 812 813
f 932 818 819
f 932 933 818
f 939 812 938
f 939 811 812
f 931 932 819
f 931 819 820
f 940 811 939
f 940 810 811
f 930 931 820
f 930 820 821
f 941 810 940
f 941 809 810
f 929 930 821
f 929 821 822
f 942 808 809
f 942 809 941
f 928 822 823
f 928 929 822
f 943 808 942
f 943 807 808
f 927 928 823
f 927 823 824
f 944 806 807
f 944 807 943
f 926 927 824
f 926 824 825
f 945 805 806
f 945 806 944
f 925 926 825
f 925 825 826
f 946 804 805
f 946 805 945
f 924 925 826
f 924 826 827
f 947 804 946
f 947 803 804
f 923 924 827
f 923 827 828
f 948 802 803
f 948 803 947
f 922 923 828
f 922 828 829
f 949 802 948
f 949 801 802
f 921 922 829
f 921 829 830
f 950 801 949
f 950 800 801
f 920 921 830
f 920 830 831
f 951 800 950
f 951 799 800
f 919 920 831
f 919 831 832
f 919 832 833
f 952 799 951
f 952 798 799
f 918 919 833
f 918 833 834
f 953 798 952
f 953 797 798
f 917 918 834
f 917 834 835
f 954 797 953
f 954 796 797
f 916 917 835
f 916 835 836
f 955 796 954
f 955 795 796
f 915 916 836
f 915 836 837
f 956 795 955
f 956 794 795
f 914 837 838
f 914 915 837
f 957 794 956
f 957 793 794
f 913 838 839
f 913 914 838
f 958 793 957
f 958 792 793
f 912 839 840
f 912 913 839
f 959 792 958
f 959 791 792
f 911 840 841
f 911 912 840
f 960 791 959
f 960 790 791
f 910 841 842
f 910 911 841
f 961 790 960
f 961 789 790
f 909 842 843
f 909 910 842
f 962 788 789
f 962 789 961
f 908 843 844
f 908 909 843
f 963 787 788
f 963 788 962
f 907 844 845
f 907 908 844
f 964 786 787
f 964 787 963
f 906 845 846
f 906 907 845
f 965 786 964
f 965 785 786
f 905 906 846
f 847 905 846
f 966 785 965
f 904 905 847
f 784 966 967
f 784 785 966
f 848 903 904
f 848 904 847
f 849 903 848
f 849 902 903
f 850 902 849
f 850 901 902
f 851 901 850
f 851 900 901
f 977 967 968
f 977 968 969
f 977 969 970
f 977 970 971
f 977 971 972
f 977 972 973
f 977 973 974
f 977 974 975
f 977 975 976
f 977 781 782
f 977 782 783
f 977 783 784
f 977 784 967
f 780 781 977
f 852 900 851
f 852 899 900
f 779 780 977
f 853 898 899
f 853 899 852
f 778 779 977
f 978 863 864
f 978 864 865
f 978 865 866
f 978 866 867
f 978 867 868
f 978 868 869
f 978 869 870
f 978 870 871
f 978 871 872
f 854 898 853
f 854 897 898
f 777 778 977
f 855 897 854
f 855 896 897
f 776 777 977
f 856 896 855
f 856 895 896
f 775 776 977
f 857 895 856
f 857 894 895
f 774 775 977
f 858 894 857
f 858 893 894
f 773 774 977
f 859 893 858
f 859 892 893
f 772 773 977
f 860 892 859
f 860 891 892
f 771 772 977
f 861 891 860
f 861 890 891
f 770 771 977
f 862 889 890
f 862 890 861
f 769 977 978
f 769 770 977
f 737 888 889
f 737 889 862
f 768 769 978
f 738 888 737
f 738 887 888
f 767 768 978
f 739 887 738
f 739 886 887
f 766 767 978
f 740 885 886
f 740 886 739
f 765 766 978
f 741 885 740
f 741 884 885
f 764 765 978
f 742 883 884
f 742 884 741
f 763 764 978
f 743 882 883
f 743 883 742
f 762 763 978
f 744 881 882
f 744 882 743
f 761 762 978
f 745 880 881
f 745 881 744
f 760 761 978
f 746 879 880
f 746 880 745
f 759 760 978
f 747 878 879
f 747 879 746
f 758 759 978
f 748 877 878
f 748 878 747
f 757 758 978
f 749 877 748
f 749 876 877
f 756 757 978
f 750 876 749
f 750 875 876
f 755 756 978
f 751 875 750
f 751 874 875
f 754 755 978
f 752 874 751
f 752 873 874
f 753 754 978
f 753 873 752
f 753 872 873
f 753 978 872
