# Cadless export: model
v 11.547 0 0
v 11.547 0 25
v 5.7735 10 25
v 5.7735 10 0
v 5.7735 -10 0
v 5.7735 -10 25
v 11.547 0 25
v 11.547 0 0
v 5.7735 10 0
v 5.7735 10 25
v -5.7735 10 25
v -5.7735 10 0
v 11.547 0 0
v 5.7735 10 0
v -5.7735 10 0
v -11.547 1.4141e-15 0
v -5.7735 -10 0
v 5.7735 -10 0
v 4 -9.79717e-16 0
v 3.99503 0.199384 0
v 3.98012 0.398271 0
v 3.95532 0.596169 0
v 3.92069 0.792585 0
v 3.87631 0.98703 0
v 3.82229 1.17902 0
v 3.75877 1.36808 0
v 3.6859 1.55374 0
v 3.60388 1.73553 0
v 3.51289 1.91302 0
v 3.41316 2.08574 0
v 3.30496 2.25328 0
v 3.18853 2.41522 0
v 3.06418 2.57115 0
v 2.93221 2.72069 0
v 2.79295 2.86347 0
v 2.64674 2.99912 0
v 2.49396 3.12733 0
v 2.33497 3.24775 0
v 2.17019 3.3601 0
v 2 3.4641 0
v 1.82484 3.55949 0
v 1.64515 3.64602 0
v 1.46136 3.72349 0
v 1.27395 3.79171 0
v 1.08336 3.8505 0
v 0.890084 3.89971 0
v 0.694593 3.93923 0
v 0.497375 3.96896 0
v 0.29892 3.98882 0
v 0.0997228 3.99876 0
v -0.0997228 3.99876 0
v -0.29892 3.98882 0
v -0.497375 3.96896 0
v -0.694593 3.93923 0
v -0.890084 3.89971 0
v -1.08336 3.8505 0
v -1.27395 3.79171 0
v -1.46136 3.72349 0
v -1.64515 3.64602 0
v -1.82484 3.55949 0
v -2 3.4641 0
v -2.17019 3.3601 0
v -2.33497 3.24775 0
v -2.49396 3.12733 0
v -2.64674 2.99912 0
v -2.79295 2.86347 0
v -2.93221 2.72069 0
v -3.06418 2.57115 0
v -3.18853 2.41522 0
v -3.30496 2.25328 0
v -3.41316 2.08574 0
v -3.51289 1.91302 0
v -3.60388 1.73553 0
v -3.6859 1.55374 0
v -3.75877 1.36808 0
v -3.82229 1.17902 0
v -3.87631 0.98703 0
v -3.92069 0.792585 0
v -3.95532 0.596169 0
v -3.98012 0.398271 0
v -3.99503 0.199384 0
v -4 -1.3721e-14 0
v -3.99503 -0.199384 0
v -3.98012 -0.398271 0
v -3.95532 -0.596169 0
v -3.92069 -0.792585 0
v -3.87631 -0.98703 0
v -3.82229 -1.17902 0
v -3.75877 -1.36808 0
v -3.6859 -1.55374 0
v -3.60388 -1.73553 0
v -3.51289 -1.91302 0
v -3.41316 -2.08574 0
v -3.30496 -2.25328 0
v -3.18853 -2.41522 0
v -3.06418 -2.57115 0
v -2.93221 -2.72069 0
v -2.79295 -2.86347 0
v -2.64674 -2.99912 0
v -2.49396 -3.12733 0
v -2.33497 -3.24775 0
v -2.17019 -3.3601 0
v -2 -3.4641 0
v -1.82484 -3.55949 0
v -1.64515 -3.64602 0
v -1.46136 -3.72349 0
v -1.27395 -3.79171 0
v -1.08336 -3.8505 0
v -0.890084 -3.89971 0
v -0.694593 -3.93923 0
v -0.497375 -3.96896 0
v -0.29892 -3.98882 0
v -0.0997228 -3.99876 0
v 0.0997228 -3.99876 0
v 0.29892 -3.98882 0
v 0.497375 -3.96896 0
v 0.694593 -3.93923 0
v 0.890084 -3.89971 0
v 1.08336 -3.8505 0
v 1.27395 -3.79171 0
v 1.46136 -3.72349 0
v 1.64515 -3.64602 0
v 1.82484 -3.55949 0
v 2 -3.4641 0
v 2.17019 -3.3601 0
v 2.33497 -3.24775 0
v 2.49396 -3.12733 0
v 2.64674 -2.99912 0
v 2.79295 -2.86347 0
v 2.93221 -2.72069 0
v 3.06418 -2.57115 0
v 3.18853 -2.41522 0
v 3.30496 -2.25328 0
v 3.41316 -2.08574 0
v 3.51289 -1.91302 0
v 3.60388 -1.73553 0
v 3.6859 -1.55374 0
v 3.75877 -1.36808 0
v 3.82229 -1.17902 0
v 3.87631 -0.98703 0
v 3.92069 -0.792585 0
v 3.95532 -0.596169 0
v 3.98012 -0.398271 0
v 3.99503 -0.199384 0
v 11.547 0 25
v 5.7735 10 25
v -5.7735 10 25
v -11.547 1.4141e-15 25
v -5.7735 -10 25
v 5.7735 -10 25
v 4 -9.79717e-16 25
v 3.99503 0.199384 25
v 3.98012 0.398271 25
v 3.95532 0.596169 25
v 3.92069 0.792585 25
v 3.87631 0.98703 25
v 3.82229 1.17902 25
v 3.75877 1.36808 25
v 3.6859 1.55374 25
v 3.60388 1.73553 25
v 3.51289 1.91302 25
v 3.41316 2.08574 25
v 3.30496 2.25328 25
v 3.18853 2.41522 25
v 3.06418 2.57115 25
v 2.93221 2.72069 25
v 2.79295 2.86347 25
v 2.64674 2.99912 25
v 2.49396 3.12733 25
v 2.33497 3.24775 25
v 2.17019 3.3601 25
v 2 3.4641 25
v 1.82484 3.55949 25
v 1.64515 3.64602 25
v 1.46136 3.72349 25
v 1.27395 3.79171 25
v 1.08336 3.8505 25
v 0.890084 3.89971 25
v 0.694593 3.93923 25
v 0.497375 3.96896 25
v 0.29892 3.98882 25
v 0.0997228 3.99876 25
v -0.0997228 3.99876 25
v -0.29892 3.98882 25
v -0.497375 3.96896 25
v -0.694593 3.93923 25
v -0.890084 3.89971 25
v -1.08336 3.8505 25
v -1.27395 3.79171 25
v -1.46136 3.72349 25
v -1.64515 3.64602 25
v -1.82484 3.55949 25
v -2 3.4641 25
v -2.17019 3.3601 25
v -2.33497 3.24775 25
v -2.49396 3.12733 25
v -2.64674 2.99912 25
v -2.79295 2.86347 25
v -2.93221 2.72069 25
v -3.06418 2.57115 25
v -3.18853 2.41522 25
v -3.30496 2.25328 25
v -3.41316 2.08574 25
v -3.51289 1.91302 25
v -3.60388 1.73553 25
v -3.6859 1.55374 25
v -3.75877 1.36808 25
v -3.82229 1.17902 25
v -3.87631 0.98703 25
v -3.92069 0.792585 25
v -3.95532 0.596169 25
v -3.98012 0.398271 25
v -3.99503 0.199384 25
v -4 -1.3721e-14 25
v -3.99503 -0.199384 25
v -3.98012 -0.398271 25
v -3.95532 -0.596169 25
v -3.92069 -0.792585 25
v -3.87631 -0.98703 25
v -3.82229 -1.17902 25
v -3.75877 -1.36808 25
v -3.6859 -1.55374 25
v -3.60388 -1.73553 25
v -3.51289 -1.91302 25
v -3.41316 -2.08574 25
v -3.30496 -2.25328 25
v -3.18853 -2.41522 25
v -3.06418 -2.57115 25
v -2.93221 -2.72069 25
v -2.79295 -2.86347 25
v -2.64674 -2.99912 25
v -2.49396 -3.12733 25
v -2.33497 -3.24775 25
v -2.17019 -3.3601 25
v -2 -3.4641 25
v -1.82484 -3.55949 25
v -1.64515 -3.64602 25
v -1.46136 -3.72349 25
v -1.27395 -3.79171 25
v -1.08336 -3.8505 25
v -0.890084 -3.89971 25
v -0.694593 -3.93923 25
v -0.497375 -3.96896 25
v -0.29892 -3.98882 25
v -0.0997228 -3.99876 25
v 0.0997228 -3.99876 25
v 0.29892 -3.98882 25
v 0.497375 -3.96896 25
v 0.694593 -3.93923 25
v 0.890084 -3.89971 25
v 1.08336 -3.8505 25
v 1.27395 -3.79171 25
v 1.46136 -3.72349 25
v 1.64515 -3.64602 25
v 1.82484 -3.55949 25
v 2 -3.4641 25
v 2.17019 -3.3601 25
v 2.33497 -3.24775 25
v 2.49396 -3.12733 25
v 2.64674 -2.99912 25
v 2.79295 -2.86347 25
v 2.93221 -2.72069 25
v 3.06418 -2.57115 25
v 3.18853 -2.41522 25
v 3.30496 -2.25328 25
v 3.41316 -2.08574 25
v 3.51289 -1.91302 25
v 3.60388 -1.73553 25
v 3.6859 -1.55374 25
v 3.75877 -1.36808 25
v 3.82229 -1.17902 25
v 3.87631 -0.98703 25
v 3.92069 -0.792585 25
v 3.95532 -0.596169 25
v 3.98012 -0.398271 25
v 3.99503 -0.199384 25
v -5.7735 -10 0
v -5.7735 -10 25
v 5.7735 -10 25
v 5.7735 -10 0
v -5.7735 10 0
v -5.7735 10 25
v -11.547 1.4141e-15 25
v -11.547 1.4141e-15 0
v -11.547 1.4141e-15 0
v -11.547 1.4141e-15 25
v -5.7735 -10 25
v -5.7735 -10 0
v 4 -9.79717e-16 0
v 4 -9.79717e-16 25
v 4 -9.79717e-16 25
v 3.99503 0.199384 25
v 3.98012 0.398271 25
v 3.95532 0.596169 25
v 3.92069 0.792585 25
v 3.87631 0.98703 25
v 3.82229 1.17902 25
v 3.75877 1.36808 25
v 3.6859 1.55374 25
v 3.60388 1.73553 25
v 3.51289 1.91302 25
v 3.41316 2.08574 25
v 3.30496 2.25328 25
v 3.18853 2.41522 25
v 3.06418 2.57115 25
v 2.93221 2.72069 25
v 2.79295 2.86347 25
v 2.64674 2.99912 25
v 2.49396 3.12733 25
v 2.33497 3.24775 25
v 2.17019 3.3601 25
v 2 3.4641 25
v 1.82484 3.55949 25
v 1.64515 3.64602 25
v 1.46136 3.72349 25
v 1.27395 3.79171 25
v 1.08336 3.8505 25
v 0.890084 3.89971 25
v 0.694593 3.93923 25
v 0.497375 3.96896 25
v 0.29892 3.98882 25
v 0.0997228 3.99876 25
v -0.0997228 3.99876 25
v -0.29892 3.98882 25
v -0.497375 3.96896 25
v -0.694593 3.93923 25
v -0.890084 3.89971 25
v -1.08336 3.8505 25
v -1.27395 3.79171 25
v -1.46136 3.72349 25
v -1.64515 3.64602 25
v -1.82484 3.55949 25
v -2 3.4641 25
v -2.17019 3.3601 25
v -2.33497 3.24775 25
v -2.49396 3.12733 25
v -2.64674 2.99912 25
v -2.79295 2.86347 25
v -2.93221 2.72069 25
v -3.06418 2.57115 25
v -3.18853 2.41522 25
v -3.30496 2.25328 25
v -3.41316 2.08574 25
v -3.51289 1.91302 25
v -3.60388 1.73553 25
v -3.6859 1.55374 25
v -3.75877 1.36808 25
v -3.82229 1.17902 25
v -3.87631 0.98703 25
v -3.92069 0.792585 25
v -3.95532 0.596169 25
v -3.98012 0.398271 25
v -3.99503 0.199384 25
v -4 -1.3721e-14 25
v -3.99503 -0.199384 25
v -3.98012 -0.398271 25
v -3.95532 -0.596169 25
v -3.92069 -0.792585 25
v -3.87631 -0.98703 25
v -3.82229 -1.17902 25
v -3.75877 -1.36808 25
v -3.6859 -1.55374 25
v -3.60388 -1.73553 25
v -3.51289 -1.91302 25
v -3.41316 -2.08574 25
v -3.30496 -2.25328 25
v -3.18853 -2.41522 25
v -3.06418 -2.57115 25
v -2.93221 -2.72069 25
v -2.79295 -2.86347 25
v -2.64674 -2.99912 25
v -2.49396 -3.12733 25
v -2.33497 -3.24775 25
v -2.17019 -3.3601 25
v -2 -3.4641 25
v -1.82484 -3.55949 25
v -1.64515 -3.64602 25
v -1.46136 -3.72349 25
v -1.27395 -3.79171 25
v -1.08336 -3.8505 25
v -0.890084 -3.89971 25
v -0.694593 -3.93923 25
v -0.497375 -3.96896 25
v -0.29892 -3.98882 25
v -0.0997228 -3.99876 25
v 0.0997228 -3.99876 25
v 0.29892 -3.98882 25
v 0.497375 -3.96896 25
v 0.694593 -3.93923 25
v 0.890084 -3.89971 25
v 1.08336 -3.8505 25
v 1.27395 -3.79171 25
v 1.46136 -3.72349 25
v 1.64515 -3.64602 25
v 1.82484 -3.55949 25
v 2 -3.4641 25
v 2.17019 -3.3601 25
v 2.33497 -3.24775 25
v 2.49396 -3.12733 25
v 2.64674 -2.99912 25
v 2.79295 -2.86347 25
v 2.93221 -2.72069 25
v 3.06418 -2.57115 25
v 3.18853 -2.41522 25
v 3.30496 -2.25328 25
v 3.41316 -2.08574 25
v 3.51289 -1.91302 25
v 3.60388 -1.73553 25
v 3.6859 -1.55374 25
v 3.75877 -1.36808 25
v 3.82229 -1.17902 25
v 3.87631 -0.98703 25
v 3.92069 -0.792585 25
v 3.95532 -0.596169 25
v 3.98012 -0.398271 25
v 3.99503 -0.199384 25
v 4 -9.79717e-16 0
v 3.99503 0.199384 0
v 3.98012 0.398271 0
v 3.95532 0.596169 0
v 3.92069 0.792585 0
v 3.87631 0.98703 0
v 3.82229 1.17902 0
v 3.75877 1.36808 0
v 3.6859 1.55374 0
v 3.60388 1.73553 0
v 3.51289 1.91302 0
v 3.41316 2.08574 0
v 3.30496 2.25328 0
v 3.18853 2.41522 0
v 3.06418 2.57115 0
v 2.93221 2.72069 0
v 2.79295 2.86347 0
v 2.64674 2.99912 0
v 2.49396 3.12733 0
v 2.33497 3.24775 0
v 2.17019 3.3601 0
v 2 3.4641 0
v 1.82484 3.55949 0
v 1.64515 3.64602 0
v 1.46136 3.72349 0
v 1.27395 3.79171 0
v 1.08336 3.8505 0
v 0.890084 3.89971 0
v 0.694593 3.93923 0
v 0.497375 3.96896 0
v 0.29892 3.98882 0
v 0.0997228 3.99876 0
v -0.0997228 3.99876 0
v -0.29892 3.98882 0
v -0.497375 3.96896 0
v -0.694593 3.93923 0
v -0.890084 3.89971 0
v -1.08336 3.8505 0
v -1.27395 3.79171 0
v -1.46136 3.72349 0
v -1.64515 3.64602 0
v -1.82484 3.55949 0
v -2 3.4641 0
v -2.17019 3.3601 0
v -2.33497 3.24775 0
v -2.49396 3.12733 0
v -2.64674 2.99912 0
v -2.79295 2.86347 0
v -2.93221 2.72069 0
v -3.06418 2.57115 0
v -3.18853 2.41522 0
v -3.30496 2.25328 0
v -3.41316 2.08574 0
v -3.51289 1.91302 0
v -3.60388 1.73553 0
v -3.6859 1.55374 0
v -3.75877 1.36808 0
v -3.82229 1.17902 0
v -3.87631 0.98703 0
v -3.92069 0.792585 0
v -3.95532 0.596169 0
v -3.98012 0.398271 0
v -3.99503 0.199384 0
v -4 -1.3721e-14 0
v -3.99503 -0.199384 0
v -3.98012 -0.398271 0
v -3.95532 -0.596169 0
v -3.92069 -0.792585 0
v -3.87631 -0.98703 0
v -3.82229 -1.17902 0
v -3.75877 -1.36808 0
v -3.6859 -1.55374 0
v -3.60388 -1.73553 0
v -3.51289 -1.91302 0
v -3.41316 -2.08574 0
v -3.30496 -2.25328 0
v -3.18853 -2.41522 0
v -3.06418 -2.57115 0
v -2.93221 -2.72069 0
v -2.79295 -2.86347 0
v -2.64674 -2.99912 0
v -2.49396 -3.12733 0
v -2.33497 -3.24775 0
v -2.17019 -3.3601 0
v -2 -3.4641 0
v -1.82484 -3.55949 0
v -1.64515 -3.64602 0
v -1.46136 -3.72349 0
v -1.27395 -3.79171 0
v -1.08336 -3.8505 0
v -0.890084 -3.89971 0
v -0.694593 -3.93923 0
v -0.497375 -3.96896 0
v -0.29892 -3.98882 0
v -0.0997228 -3.99876 0
v 0.0997228 -3.99876 0
v 0.29892 -3.98882 0
v 0.497375 -3.96896 0
v 0.694593 -3.93923 0
v 0.890084 -3.89971 0
v 1.08336 -3.8505 0
v 1.27395 -3.79171 0
v 1.46136 -3.72349 0
v 1.64515 -3.64602 0
v 1.82484 -3.55949 0
v 2 -3.4641 0
v 2.17019 -3.3601 0
v 2.33497 -3.24775 0
v 2.49396 -3.12733 0
v 2.64674 -2.99912 0
v 2.79295 -2.86347 0
v 2.93221 -2.72069 0
v 3.06418 -2.57115 0
v 3.18853 -2.41522 0
v 3.30496 -2.25328 0
v 3.41316 -2.08574 0
v 3.51289 -1.91302 0
v 3.60388 -1.73553 0
v 3.6859 -1.55374 0
v 3.75877 -1.36808 0
v 3.82229 -1.17902 0
v 3.87631 -0.98703 0
v 3.92069 -0.792585 0
v 3.95532 -0.596169 0
v 3.98012 -0.398271 0
v 3.99503 -0.199384 0
f 4 2 1
f 4 3 2
f 5 7 6
f 8 7 5
f 12 10 9
f 12 11 10
f 97 98 17
f 99 17 98
f 96 97 17
f 100 17 99
f 95 96 17
f 101 17 100
f 94 95 17
f 102 17 101
f 93 94 17
f 103 17 102
f 92 17 16
f 92 93 17
f 104 17 103
f 91 92 16
f 105 17 104
f 90 91 16
f 106 17 105
f 89 90 16
f 107 17 106
f 88 89 16
f 108 17 107
f 87 88 16
f 109 17 108
f 86 87 16
f 110 17 109
f 85 86 16
f 111 17 110
f 84 85 16
f 112 17 111
f 83 84 16
f 113 18 17
f 113 17 112
f 82 83 16
f 114 18 113
f 81 82 16
f 115 18 114
f 80 81 16
f 116 18 115
f 79 80 16
f 117 18 116
f 78 79 16
f 118 18 117
f 77 78 16
f 119 18 118
f 76 77 16
f 120 18 119
f 75 76 16
f 121 18 120
f 74 75 16
f 122 18 121
f 73 74 16
f 123 18 122
f 72 73 16
f 124 18 123
f 125 18 124
f 126 18 125
f 127 18 126
f 128 18 127
f 129 18 128
f 130 18 129
f 131 18 130
f 132 18 131
f 133 18 132
f 134 18 133
f 15 51 52
f 15 52 53
f 15 53 54
f 15 54 55
f 15 55 56
f 15 72 16
f 15 56 57
f 15 57 58
f 15 58 59
f 15 59 60
f 15 60 61
f 15 61 62
f 15 62 63
f 15 63 64
f 15 64 65
f 15 65 66
f 15 66 67
f 15 67 68
f 15 68 69
f 15 69 70
f 15 70 71
f 15 71 72
f 13 19 20
f 13 20 21
f 13 21 22
f 13 22 23
f 13 23 24
f 13 24 25
f 13 25 26
f 13 26 27
f 13 27 28
f 13 28 29
f 13 29 30
f 13 134 135
f 13 135 136
f 13 136 137
f 13 137 138
f 13 138 139
f 13 139 140
f 13 140 141
f 13 141 142
f 13 142 143
f 13 143 144
f 13 144 19
f 13 18 134
f 14 30 31
f 14 31 32
f 14 32 33
f 14 33 34
f 14 34 35
f 14 35 36
f 14 36 37
f 14 37 38
f 14 38 39
f 14 39 40
f 14 40 41
f 14 41 42
f 14 42 43
f 14 43 44
f 14 44 45
f 14 45 46
f 14 46 47
f 14 47 48
f 14 48 49
f 14 49 50
f 14 50 51
f 14 13 30
f 14 51 15
f 229 149 230
f 231 230 149
f 228 149 229
f 232 231 149
f 227 149 228
f 233 232 149
f 226 149 227
f 234 233 149
f 225 149 226
f 235 234 149
f 224 148 149
f 224 149 225
f 236 235 149
f 223 148 224
f 237 236 149
f 222 148 223
f 238 237 149
f 221 148 222
f 239 238 149
f 220 148 221
f 240 239 149
f 219 148 220
f 241 240 149
f 218 148 219
f 242 241 149
f 217 148 218
f 243 242 149
f 216 148 217
f 244 243 149
f 215 148 216
f 245 149 150
f 245 244 149
f 214 148 215
f 246 245 150
f 213 148 214
f 247 246 150
f 212 148 213
f 248 247 150
f 211 148 212
f 249 248 150
f 210 148 211
f 250 249 150
f 209 148 210
f 251 250 150
f 208 148 209
f 252 251 150
f 207 148 208
f 253 252 150
f 206 148 207
f 254 253 150
f 205 148 206
f 255 254 150
f 204 148 205
f 256 255 150
f 257 256 150
f 258 257 150
f 259 258 150
f 260 259 150
f 261 260 150
f 262 261 150
f 263 262 150
f 264 263 150
f 265 264 150
f 266 265 150
f 147 184 183
f 147 185 184
f 147 186 185
f 147 187 186
f 147 188 187
f 147 148 204
f 147 189 188
f 147 190 189
f 147 191 190
f 147 192 191
f 147 193 192
f 147 194 193
f 147 195 194
f 147 196 195
f 147 197 196
f 147 198 197
f 147 199 198
f 147 200 199
f 147 201 200
f 147 202 201
f 147 203 202
f 147 204 203
f 145 152 151
f 145 153 152
f 145 154 153
f 145 155 154
f 145 156 155
f 145 157 156
f 145 158 157
f 145 159 158
f 145 160 159
f 145 161 160
f 145 162 161
f 145 267 266
f 145 268 267
f 145 269 268
f 145 270 269
f 145 271 270
f 145 272 271
f 145 273 272
f 145 274 273
f 145 275 274
f 145 276 275
f 145 151 276
f 145 266 150
f 146 163 162
f 146 164 163
f 146 165 164
f 146 166 165
f 146 167 166
f 146 168 167
f 146 169 168
f 146 170 169
f 146 171 170
f 146 172 171
f 146 173 172
f 146 174 173
f 146 175 174
f 146 176 175
f 146 177 176
f 146 178 177
f 146 179 178
f 146 180 179
f 146 181 180
f 146 182 181
f 146 183 182
f 146 162 145
f 146 147 183
f 277 279 278
f 280 279 277
f 281 283 282
f 284 283 281
f 288 286 285
f 288 287 286
f 292 417 291
f 292 418 417
f 292 419 418
f 293 420 419
f 293 419 292
f 294 421 420
f 294 420 293
f 295 421 294
f 296 422 421
f 296 423 422
f 296 421 295
f 297 424 423
f 297 423 296
f 298 424 297
f 299 425 424
f 299 424 298
f 300 426 425
f 300 427 426
f 300 425 299
f 301 427 300
f 302 427 301
f 302 428 427
f 303 428 302
f 303 429 428
f 303 430 429
f 304 430 303
f 305 430 304
f 305 431 430
f 306 431 305
f 306 432 431
f 307 432 306
f 307 433 432
f 308 433 307
f 308 434 433
f 309 434 308
f 309 435 434
f 310 435 309
f 310 436 435
f 311 436 310
f 311 437 436
f 312 437 311
f 312 438 437
f 313 438 312
f 313 439 438
f 314 440 439
f 314 439 313
f 314 441 440
f 315 441 314
f 316 441 315
f 316 442 441
f 317 443 442
f 317 442 316
f 318 444 443
f 318 445 444
f 318 443 317
f 319 445 318
f 320 446 445
f 320 447 446
f 320 445 319
f 321 448 447
f 321 447 320
f 322 448 321
f 323 449 448
f 323 448 322
f 324 450 449
f 324 449 323
f 325 451 450
f 325 452 451
f 325 450 324
f 326 453 452
f 326 452 325
f 327 454 453
f 327 453 326
f 328 454 327
f 328 455 454
f 329 455 328
f 330 455 329
f 330 456 455
f 331 456 330
f 331 457 456
f 332 457 331
f 332 458 457
f 333 458 332
f 333 459 458
f 334 459 333
f 334 460 459
f 335 460 334
f 335 461 460
f 335 462 461
f 336 462 335
f 337 462 336
f 337 463 462
f 338 463 337
f 338 464 463
f 338 465 464
f 339 465 338
f 340 465 339
f 340 466 465
f 340 467 466
f 341 467 340
f 342 467 341
f 342 468 467
f 343 468 342
f 343 469 468
f 343 470 469
f 344 470 343
f 345 470 344
f 345 471 470
f 345 472 471
f 346 472 345
f 347 472 346
f 347 473 472
f 347 474 473
f 348 474 347
f 349 475 474
f 349 474 348
f 349 476 475
f 350 477 476
f 350 476 349
f 351 478 477
f 351 477 350
f 352 478 351
f 353 478 352
f 353 479 478
f 354 479 353
f 354 480 479
f 355 480 354
f 355 481 480
f 356 481 355
f 356 482 481
f 357 482 356
f 357 483 482
f 358 483 357
f 358 484 483
f 359 484 358
f 359 485 484
f 360 485 359
f 360 486 485
f 361 486 360
f 361 487 486
f 362 487 361
f 362 488 487
f 363 488 362
f 363 489 488
f 364 489 363
f 364 490 489
f 365 491 490
f 365 492 491
f 365 490 364
f 366 493 492
f 366 492 365
f 367 493 366
f 368 494 493
f 368 493 367
f 369 495 494
f 369 494 368
f 370 496 495
f 370 497 496
f 370 495 369
f 371 497 370
f 372 498 497
f 372 497 371
f 373 499 498
f 373 500 499
f 373 498 372
f 374 500 373
f 375 501 500
f 375 500 374
f 376 502 501
f 376 501 375
f 377 503 502
f 377 504 503
f 377 502 376
f 378 504 377
f 379 504 378
f 379 505 504
f 380 505 379
f 380 506 505
f 380 507 506
f 381 507 380
f 382 507 381
f 382 508 507
f 383 509 508
f 383 508 382
f 384 510 509
f 384 511 510
f 384 509 383
f 385 511 384
f 386 512 511
f 386 513 512
f 386 511 385
f 387 513 386
f 388 514 513
f 388 513 387
f 389 515 514
f 389 514 388
f 390 516 515
f 390 515 389
f 391 517 516
f 391 516 390
f 392 518 517
f 392 517 391
f 393 519 518
f 393 518 392
f 394 520 519
f 394 519 393
f 395 521 520
f 395 520 394
f 396 522 521
f 396 521 395
f 397 523 522
f 397 522 396
f 398 524 523
f 398 523 397
f 399 525 524
f 399 526 525
f 399 524 398
f 400 526 399
f 401 527 526
f 401 526 400
f 402 528 527
f 402 527 401
f 403 528 402
f 403 529 528
f 403 530 529
f 404 530 403
f 405 530 404
f 405 531 530
f 405 532 531
f 406 532 405
f 407 532 406
f 407 533 532
f 408 533 407
f 408 534 533
f 409 534 408
f 409 535 534
f 410 535 409
f 410 536 535
f 411 536 410
f 411 537 536
f 411 538 537
f 412 538 411
f 413 538 412
f 413 539 538
f 414 539 413
f 414 540 539
f 415 540 414
f 415 541 540
f 416 541 415
f 416 542 541
f 290 289 542
f 290 542 416
