# Cadless export: model
v 30 -7.34788e-15 12
v 29.9627 1.49538 12
v 29.8509 2.98704 12
v 29.6649 4.47127 12
v 29.4052 5.94438 12
v 29.0723 7.40272 12
v 28.6672 8.84266 12
v 28.1908 10.2606 12
v 27.6443 11.653 12
v 27.0291 13.0165 12
v 26.3466 14.3476 12
v 25.5987 15.6431 12
v 24.7872 16.8996 12
v 23.914 18.1141 12
v 22.9813 19.2836 12
v 21.9916 20.4052 12
v 20.9471 21.476 12
v 19.8506 22.4934 12
v 18.7047 23.4549 12
v 17.5123 24.3581 12
v 16.2764 25.2008 12
v 15 25.9808 12
v 13.6863 26.6962 12
v 12.3386 27.3452 12
v 10.9602 27.9262 12
v 9.5546 28.4378 12
v 8.12521 28.8787 12
v 6.67563 29.2478 12
v 5.20945 29.5442 12
v 3.73031 29.7672 12
v 2.2419 29.9161 12
v 0.747921 29.9907 12
v -0.747921 29.9907 12
v -2.2419 29.9161 12
v -3.73031 29.7672 12
v -5.20945 29.5442 12
v -6.67563 29.2478 12
v -8.12521 28.8787 12
v -9.5546 28.4378 12
v -10.9602 27.9262 12
v -12.3386 27.3452 12
v -13.6863 26.6962 12
v -15 25.9808 12
v -16.2764 25.2008 12
v -17.5123 24.3581 12
v -18.7047 23.4549 12
v -19.8506 22.4934 12
v -20.9471 21.476 12
v -21.9916 20.4052 12
v -22.9813 19.2836 12
v -23.914 18.1141 12
v -24.7872 16.8996 12
v -25.5987 15.6431 12
v -26.3466 14.3476 12
v -27.0291 13.0165 12
v -27.6443 11.653 12
v -28.1908 10.2606 12
v -28.6672 8.84266 12
v -29.0723 7.40272 12
v -29.4052 5.94438 12
v -29.6649 4.47127 12
v -29.8509 2.98704 12
v -29.9627 1.49538 12
v -30 -1.02907e-13 12
v -29.9627 -1.49538 12
v -29.8509 -2.98704 12
v -29.6649 -4.47127 12
v -29.4052 -5.94438 12
v -29.0723 -7.40272 12
v -28.6672 -8.84266 12
v -28.1908 -10.2606 12
v -27.6443 -11.653 12
v -27.0291 -13.0165 12
v -26.3466 -14.3476 12
v -25.5987 -15.6431 12
v -24.7872 -16.8996 12
v -23.914 -18.1141 12
v -22.9813 -19.2836 12
v -21.9916 -20.4052 12
v -20.9471 -21.476 12
v -19.8506 -22.4934 12
v -18.7047 -23.4549 12
v -17.5123 -24.3581 12
v -16.2764 -25.2008 12
v -15 -25.9808 12
v -13.6863 -26.6962 12
v -12.3386 -27.3452 12
v -10.9602 -27.9262 12
v -9.5546 -28.4378 12
v -8.12521 -28.8787 12
v -6.67563 -29.2478 12
v -5.20945 -29.5442 12
v -3.73031 -29.7672 12
v -2.2419 -29.9161 12
v -0.747921 -29.9907 12
v 0.747921 -29.9907 12
v 2.2419 -29.9161 12
v 3.73031 -29.7672 12
v 5.20945 -29.5442 12
v 6.67563 -29.2478 12
v 8.12521 -28.8787 12
v 9.5546 -28.4378 12
v 10.9602 -27.9262 12
v 12.3386 -27.3452 12
v 13.6863 -26.6962 12
v 15 -25.9808 12
v 16.2764 -25.2008 12
v 17.5123 -24.3581 12
v 18.7047 -23.4549 12
v 19.8506 -22.4934 12
v 20.9471 -21.476 12
v 21.9916 -20.4052 12
v 22.9813 -19.2836 12
v 23.914 -18.1141 12
v 24.7872 -16.8996 12
v 25.5987 -15.6431 12
v 26.3466 -14.3476 12
v 27.0291 -13.0165 12
v 27.6443 -11.653 12
v 28.1908 -10.2606 12
v 28.6672 -8.84266 12
v 29.0723 -7.40272 12
v 29.4052 -5.94438 12
v 29.6649 -4.47127 12
v 29.8509 -2.98704 12
v 29.9627 -1.49538 12
v 30 -7.34788e-15 12
v 30 -7.34788e-15 0
v 29.9627 1.49538 0
v 29.8509 2.98704 0
v 29.6649 4.47127 0
v 29.4052 5.94438 0
v 29.0723 7.40272 0
v 28.6672 8.84266 0
v 28.1908 10.2606 0
v 27.6443 11.653 0
v 27.0291 13.0165 0
v 26.3466 14.3476 0
v 25.5987 15.6431 0
v 24.7872 16.8996 0
v 23.914 18.1141 0
v 22.9813 19.2836 0
v 21.9916 20.4052 0
v 20.9471 21.476 0
v 19.8506 22.4934 0
v 18.7047 23.4549 0
v 17.5123 24.3581 0
v 16.2764 25.2008 0
v 15 25.9808 0
v 13.6863 26.6962 0
v 12.3386 27.3452 0
v 10.9602 27.9262 0
v 9.5546 28.4378 0
v 8.12521 28.8787 0
v 6.67563 29.2478 0
v 5.20945 29.5442 0
v 3.73031 29.7672 0
v 2.2419 29.9161 0
v 0.747921 29.9907 0
v -0.747921 29.9907 0
v -2.2419 29.9161 0
v -3.73031 29.7672 0
v -5.20945 29.5442 0
v -6.67563 29.2478 0
v -8.12521 28.8787 0
v -9.5546 28.4378 0
v -10.9602 27.9262 0
v -12.3386 27.3452 0
v -13.6863 26.6962 0
v -15 25.9808 0
v -16.2764 25.2008 0
v -17.5123 24.3581 0
v -18.7047 23.4549 0
v -19.8506 22.4934 0
v -20.9471 21.476 0
v -21.9916 20.4052 0
v -22.9813 19.2836 0
v -23.914 18.1141 0
v -24.7872 16.8996 0
v -25.5987 15.6431 0
v -26.3466 14.3476 0
v -27.0291 13.0165 0
v -27.6443 11.653 0
v -28.1908 10.2606 0
v -28.6672 8.84266 0
v -29.0723 7.40272 0
v -29.4052 5.94438 0
v -29.6649 4.47127 0
v -29.8509 2.98704 0
v -29.9627 1.49538 0
v -30 -1.02907e-13 0
v -29.9627 -1.49538 0
v -29.8509 -2.98704 0
v -29.6649 -4.47127 0
v -29.4052 -5.94438 0
v -29.0723 -7.40272 0
v -28.6672 -8.84266 0
v -28.1908 -10.2606 0
v -27.6443 -11.653 0
v -27.0291 -13.0165 0
v -26.3466 -14.3476 0
v -25.5987 -15.6431 0
v -24.7872 -16.8996 0
v -23.914 -18.1141 0
v -22.9813 -19.2836 0
v -21.9916 -20.4052 0
v -20.9471 -21.476 0
v -19.8506 -22.4934 0
v -18.7047 -23.4549 0
v -17.5123 -24.3581 0
v -16.2764 -25.2008 0
v -15 -25.9808 0
v -13.6863 -26.6962 0
v -12.3386 -27.3452 0
v -10.9602 -27.9262 0
v -9.5546 -28.4378 0
v -8.12521 -28.8787 0
v -6.67563 -29.2478 0
v -5.20945 -29.5442 0
v -3.73031 -29.7672 0
v -2.2419 -29.9161 0
v -0.747921 -29.9907 0
v 0.747921 -29.9907 0
v 2.2419 -29.9161 0
v 3.73031 -29.7672 0
v 5.20945 -29.5442 0
v 6.67563 -29.2478 0
v 8.12521 -28.8787 0
v 9.5546 -28.4378 0
v 10.9602 -27.9262 0
v 12.3386 -27.3452 0
v 13.6863 -26.6962 0
v 15 -25.9808 0
v 16.2764 -25.2008 0
v 17.5123 -24.3581 0
v 18.7047 -23.4549 0
v 19.8506 -22.4934 0
v 20.9471 -21.476 0
v 21.9916 -20.4052 0
v 22.9813 -19.2836 0
v 23.914 -18.1141 0
v 24.7872 -16.8996 0
v 25.5987 -15.6431 0
v 26.3466 -14.3476 0
v 27.0291 -13.0165 0
v 27.6443 -11.653 0
v 28.1908 -10.2606 0
v 28.6672 -8.84266 0
v 29.0723 -7.40272 0
v 29.4052 -5.94438 0
v 29.6649 -4.47127 0
v 29.8509 -2.98704 0
v 29.9627 -1.49538 0
v 30 -7.34788e-15 0
v 30 -7.34788e-15 12
v 29.9627 1.49538 12
v 29.8509 2.98704 12
v 29.6649 4.47127 12
v 29.4052 5.94438 12
v 29.0723 7.40272 12
v 28.6672 8.84266 12
v 28.1908 10.2606 12
v 27.6443 11.653 12
v 27.0291 13.0165 12
v 26.3466 14.3476 12
v 25.5987 15.6431 12
v 24.7872 16.8996 12
v 23.914 18.1141 12
v 22.9813 19.2836 12
v 21.9916 20.4052 12
v 20.9471 21.476 12
v 19.8506 22.4934 12
v 18.7047 23.4549 12
v 17.5123 24.3581 12
v 16.2764 25.2008 12
v 15 25.9808 12
v 13.6863 26.6962 12
v 12.3386 27.3452 12
v 10.9602 27.9262 12
v 9.5546 28.4378 12
v 8.12521 28.8787 12
v 6.67563 29.2478 12
v 5.20945 29.5442 12
v 3.73031 29.7672 12
v 2.2419 29.9161 12
v 0.747921 29.9907 12
v -0.747921 29.9907 12
v -2.2419 29.9161 12
v -3.73031 29.7672 12
v -5.20945 29.5442 12
v -6.67563 29.2478 12
v -8.12521 28.8787 12
v -9.5546 28.4378 12
v -10.9602 27.9262 12
v -12.3386 27.3452 12
v -13.6863 26.6962 12
v -15 25.9808 12
v -16.2764 25.2008 12
v -17.5123 24.3581 12
v -18.7047 23.4549 12
v -19.8506 22.4934 12
v -20.9471 21.476 12
v -21.9916 20.4052 12
v -22.9813 19.2836 12
v -23.914 18.1141 12
v -24.7872 16.8996 12
v -25.5987 15.6431 12
v -26.3466 14.3476 12
v -27.0291 13.0165 12
v -27.6443 11.653 12
v -28.1908 10.2606 12
v -28.6672 8.84266 12
v -29.0723 7.40272 12
v -29.4052 5.94438 12
v -29.6649 4.47127 12
v -29.8509 2.98704 12
v -29.9627 1.49538 12
v -30 -1.02907e-13 12
v -29.9627 -1.49538 12
v -29.8509 -2.98704 12
v -29.6649 -4.47127 12
v -29.4052 -5.94438 12
v -29.0723 -7.40272 12
v -28.6672 -8.84266 12
v -28.1908 -10.2606 12
v -27.6443 -11.653 12
v -27.0291 -13.0165 12
v -26.3466 -14.3476 12
v -25.5987 -15.6431 12
v -24.7872 -16.8996 12
v -23.914 -18.1141 12
v -22.9813 -19.2836 12
v -21.9916 -20.4052 12
v -20.9471 -21.476 12
v -19.8506 -22.4934 12
v -18.7047 -23.4549 12
v -17.5123 -24.3581 12
v -16.2764 -25.2008 12
v -15 -25.9808 12
v -13.6863 -26.6962 12
v -12.3386 -27.3452 12
v -10.9602 -27.9262 12
v -9.5546 -28.4378 12
v -8.12521 -28.8787 12
v -6.67563 -29.2478 12
v -5.20945 -29.5442 12
v -3.73031 -29.7672 12
v -2.2419 -29.9161 12
v -0.747921 -29.9907 12
v 0.747921 -29.9907 12
v 2.2419 -29.9161 12
v 3.73031 -29.7672 12
v 5.20945 -29.5442 12
v 6.67563 -29.2478 12
v 8.12521 -28.8787 12
v 9.5546 -28.4378 12
v 10.9602 -27.9262 12
v 12.3386 -27.3452 12
v 13.6863 -26.6962 12
v 15 -25.9808 12
v 16.2764 -25.2008 12
v 17.5123 -24.3581 12
v 18.7047 -23.4549 12
v 19.8506 -22.4934 12
v 20.9471 -21.476 12
v 21.9916 -20.4052 12
v 22.9813 -19.2836 12
v 23.914 -18.1141 12
v 24.7872 -16.8996 12
v 25.5987 -15.6431 12
v 26.3466 -14.3476 12
v 27.0291 -13.0165 12
v 27.6443 -11.653 12
v 28.1908 -10.2606 12
v 28.6672 -8.84266 12
v 29.0723 -7.40272 12
v 29.4052 -5.94438 12
v 29.6649 -4.47127 12
v 29.8509 -2.98704 12
v 29.9627 -1.49538 12
v 8 -1.95943e-15 12
v 7.99006 0.398767 12
v 7.96025 0.796543 12
v 7.91065 1.19234 12
v 7.84138 1.58517 12
v 7.75262 1.97406 12
v 7.64458 2.35804 12
v 7.51754 2.73616 12
v 7.37181 3.10748 12
v 7.20775 3.47107 12
v 7.02577 3.82603 12
v 6.82633 4.17148 12
v 6.60991 4.50656 12
v 6.37706 4.83044 12
v 6.12836 5.1423 12
v 5.86441 5.44138 12
v 5.58589 5.72693 12
v 5.29349 5.99825 12
v 4.98792 6.25465 12
v 4.66995 6.4955 12
v 4.34037 6.72021 12
v 4 6.9282 12
v 3.64969 7.11897 12
v 3.2903 7.29205 12
v 2.92273 7.44699 12
v 2.54789 7.58342 12
v 2.16672 7.70099 12
v 1.78017 7.79942 12
v 1.38919 7.87846 12
v 0.99475 7.93791 12
v 0.597841 7.97763 12
v 0.199446 7.99751 12
v -0.199446 7.99751 12
v -0.597841 7.97763 12
v -0.99475 7.93791 12
v -1.38919 7.87846 12
v -1.78017 7.79942 12
v -2.16672 7.70099 12
v -2.54789 7.58342 12
v -2.92273 7.44699 12
v -3.2903 7.29205 12
v -3.64969 7.11897 12
v -4 6.9282 12
v -4.34037 6.72021 12
v -4.66995 6.4955 12
v -4.98792 6.25465 12
v -5.29349 5.99825 12
v -5.58589 5.72693 12
v -5.86441 5.44138 12
v -6.12836 5.1423 12
v -6.37706 4.83044 12
v -6.60991 4.50656 12
v -6.82633 4.17148 12
v -7.02577 3.82603 12
v -7.20775 3.47107 12
v -7.37181 3.10748 12
v -7.51754 2.73616 12
v -7.64458 2.35804 12
v -7.75262 1.97406 12
v -7.84138 1.58517 12
v -7.91065 1.19234 12
v -7.96025 0.796543 12
v -7.99006 0.398767 12
v -8 -2.7442e-14 12
v -7.99006 -0.398767 12
v -7.96025 -0.796543 12
v -7.91065 -1.19234 12
v -7.84138 -1.58517 12
v -7.75262 -1.97406 12
v -7.64458 -2.35804 12
v -7.51754 -2.73616 12
v -7.37181 -3.10748 12
v -7.20775 -3.47107 12
v -7.02577 -3.82603 12
v -6.82633 -4.17148 12
v -6.60991 -4.50656 12
v -6.37706 -4.83044 12
v -6.12836 -5.1423 12
v -5.86441 -5.44138 12
v -5.58589 -5.72693 12
v -5.29349 -5.99825 12
v -4.98792 -6.25465 12
v -4.66995 -6.4955 12
v -4.34037 -6.72021 12
v -4 -6.9282 12
v -3.64969 -7.11897 12
v -3.2903 -7.29205 12
v -2.92273 -7.44699 12
v -2.54789 -7.58342 12
v -2.16672 -7.70099 12
v -1.78017 -7.79942 12
v -1.38919 -7.87846 12
v -0.99475 -7.93791 12
v -0.597841 -7.97763 12
v -0.199446 -7.99751 12
v 0.199446 -7.99751 12
v 0.597841 -7.97763 12
v 0.99475 -7.93791 12
v 1.38919 -7.87846 12
v 1.78017 -7.79942 12
v 2.16672 -7.70099 12
v 2.54789 -7.58342 12
v 2.92273 -7.44699 12
v 3.2903 -7.29205 12
v 3.64969 -7.11897 12
v 4 -6.9282 12
v 4.34037 -6.72021 12
v 4.66995 -6.4955 12
v 4.98792 -6.25465 12
v 5.29349 -5.99825 12
v 5.58589 -5.72693 12
v 5.86441 -5.44138 12
v 6.12836 -5.1423 12
v 6.37706 -4.83044 12
v 6.60991 -4.50656 12
v 6.82633 -4.17148 12
v 7.02577 -3.82603 12
v 7.20775 -3.47107 12
v 7.37181 -3.10748 12
v 7.51754 -2.73616 12
v 7.64458 -2.35804 12
v 7.75262 -1.97406 12
v 7.84138 -1.58517 12
v 7.91065 -1.19234 12
v 7.96025 -0.796543 12
v 7.99006 -0.398767 12
v 30 -7.34788e-15 0
v 29.9627 1.49538 0
v 29.8509 2.98704 0
v 29.6649 4.47127 0
v 29.4052 5.94438 0
v 29.0723 7.40272 0
v 28.6672 8.84266 0
v 28.1908 10.2606 0
v 27.6443 11.653 0
v 27.0291 13.0165 0
v 26.3466 14.3476 0
v 25.5987 15.6431 0
v 24.7872 16.8996 0
v 23.914 18.1141 0
v 22.9813 19.2836 0
v 21.9916 20.4052 0
v 20.9471 21.476 0
v 19.8506 22.4934 0
v 18.7047 23.4549 0
v 17.5123 24.3581 0
v 16.2764 25.2008 0
v 15 25.9808 0
v 13.6863 26.6962 0
v 12.3386 27.3452 0
v 10.9602 27.9262 0
v 9.5546 28.4378 0
v 8.12521 28.8787 0
v 6.67563 29.2478 0
v 5.20945 29.5442 0
v 3.73031 29.7672 0
v 2.2419 29.9161 0
v 0.747921 29.9907 0
v -0.747921 29.9907 0
v -2.2419 29.9161 0
v -3.73031 29.7672 0
v -5.20945 29.5442 0
v -6.67563 29.2478 0
v -8.12521 28.8787 0
v -9.5546 28.4378 0
v -10.9602 27.9262 0
v -12.3386 27.3452 0
v -13.6863 26.6962 0
v -15 25.9808 0
v -16.2764 25.2008 0
v -17.5123 24.3581 0
v -18.7047 23.4549 0
v -19.8506 22.4934 0
v -20.9471 21.476 0
v -21.9916 20.4052 0
v -22.9813 19.2836 0
v -23.914 18.1141 0
v -24.7872 16.8996 0
v -25.5987 15.6431 0
v -26.3466 14.3476 0
v -27.0291 13.0165 0
v -27.6443 11.653 0
v -28.1908 10.2606 0
v -28.6672 8.84266 0
v -29.0723 7.40272 0
v -29.4052 5.94438 0
v -29.6649 4.47127 0
v -29.8509 2.98704 0
v -29.9627 1.49538 0
v -30 -1.02907e-13 0
v -29.9627 -1.49538 0
v -29.8509 -2.98704 0
v -29.6649 -4.47127 0
v -29.4052 -5.94438 0
v -29.0723 -7.40272 0
v -28.6672 -8.84266 0
v -28.1908 -10.2606 0
v -27.6443 -11.653 0
v -27.0291 -13.0165 0
v -26.3466 -14.3476 0
v -25.5987 -15.6431 0
v -24.7872 -16.8996 0
v -23.914 -18.1141 0
v -22.9813 -19.2836 0
v -21.9916 -20.4052 0
v -20.9471 -21.476 0
v -19.8506 -22.4934 0
v -18.7047 -23.4549 0
v -17.5123 -24.3581 0
v -16.2764 -25.2008 0
v -15 -25.9808 0
v -13.6863 -26.6962 0
v -12.3386 -27.3452 0
v -10.9602 -27.9262 0
v -9.5546 -28.4378 0
v -8.12521 -28.8787 0
v -6.67563 -29.2478 0
v -5.20945 -29.5442 0
v -3.73031 -29.7672 0
v -2.2419 -29.9161 0
v -0.747921 -29.9907 0
v 0.747921 -29.9907 0
v 2.2419 -29.9161 0
v 3.73031 -29.7672 0
v 5.20945 -29.5442 0
v 6.67563 -29.2478 0
v 8.12521 -28.8787 0
v 9.5546 -28.4378 0
v 10.9602 -27.9262 0
v 12.3386 -27.3452 0
v 13.6863 -26.6962 0
v 15 -25.9808 0
v 16.2764 -25.2008 0
v 17.5123 -24.3581 0
v 18.7047 -23.4549 0
v 19.8506 -22.4934 0
v 20.9471 -21.476 0
v 21.9916 -20.4052 0
v 22.9813 -19.2836 0
v 23.914 -18.1141 0
v 24.7872 -16.8996 0
v 25.5987 -15.6431 0
v 26.3466 -14.3476 0
v 27.0291 -13.0165 0
v 27.6443 -11.653 0
v 28.1908 -10.2606 0
v 28.6672 -8.84266 0
v 29.0723 -7.40272 0
v 29.4052 -5.94438 0
v 29.6649 -4.47127 0
v 29.8509 -2.98704 0
v 29.9627 -1.49538 0
v 8 -1.95943e-15 0
v 7.99006 0.398767 0
v 7.96025 0.796543 0
v 7.91065 1.19234 0
v 7.84138 1.58517 0
v 7.75262 1.97406 0
v 7.64458 2.35804 0
v 7.51754 2.73616 0
v 7.37181 3.10748 0
v 7.20775 3.47107 0
v 7.02577 3.82603 0
v 6.82633 4.17148 0
v 6.60991 4.50656 0
v 6.37706 4.83044 0
v 6.12836 5.1423 0
v 5.86441 5.44138 0
v 5.58589 5.72693 0
v 5.29349 5.99825 0
v 4.98792 6.25465 0
v 4.66995 6.4955 0
v 4.34037 6.72021 0
v 4 6.9282 0
v 3.64969 7.11897 0
v 3.2903 7.29205 0
v 2.92273 7.44699 0
v 2.54789 7.58342 0
v 2.16672 7.70099 0
v 1.78017 7.79942 0
v 1.38919 7.87846 0
v 0.99475 7.93791 0
v 0.597841 7.97763 0
v 0.199446 7.99751 0
v -0.199446 7.99751 0
v -0.597841 7.97763 0
v -0.99475 7.93791 0
v -1.38919 7.87846 0
v -1.78017 7.79942 0
v -2.16672 7.70099 0
v -2.54789 7.58342 0
v -2.92273 7.44699 0
v -3.2903 7.29205 0
v -3.64969 7.11897 0
v -4 6.9282 0
v -4.34037 6.72021 0
v -4.66995 6.4955 0
v -4.98792 6.25465 0
v -5.29349 5.99825 0
v -5.58589 5.72693 0
v -5.86441 5.44138 0
v -6.12836 5.1423 0
v -6.37706 4.83044 0
v -6.60991 4.50656 0
v -6.82633 4.17148 0
v -7.02577 3.82603 0
v -7.20775 3.47107 0
v -7.37181 3.10748 0
v -7.51754 2.73616 0
v -7.64458 2.35804 0
v -7.75262 1.97406 0
v -7.84138 1.58517 0
v -7.91065 1.19234 0
v -7.96025 0.796543 0
v -7.99006 0.398767 0
v -8 -2.7442e-14 0
v -7.99006 -0.398767 0
v -7.96025 -0.796543 0
v -7.91065 -1.19234 0
v -7.84138 -1.58517 0
v -7.75262 -1.97406 0
v -7.64458 -2.35804 0
v -7.51754 -2.73616 0
v -7.37181 -3.10748 0
v -7.20775 -3.47107 0
v -7.02577 -3.82603 0
v -6.82633 -4.17148 0
v -6.60991 -4.50656 0
v -6.37706 -4.83044 0
v -6.12836 -5.1423 0
v -5.86441 -5.44138 0
v -5.58589 -5.72693 0
v -5.29349 -5.99825 0
v -4.98792 -6.25465 0
v -4.66995 -6.4955 0
v -4.34037 -6.72021 0
v -4 -6.9282 0
v -3.64969 -7.11897 0
v -3.2903 -7.29205 0
v -2.92273 -7.44699 0
v -2.54789 -7.58342 0
v -2.16672 -7.70099 0
v -1.78017 -7.79942 0
v -1.38919 -7.87846 0
v -0.99475 -7.93791 0
v -0.597841 -7.97763 0
v -0.199446 -7.99751 0
v 0.199446 -7.99751 0
v 0.597841 -7.97763 0
v 0.99475 -7.93791 0
v 1.38919 -7.87846 0
v 1.78017 -7.79942 0
v 2.16672 -7.70099 0
v 2.54789 -7.58342 0
v 2.92273 -7.44699 0
v 3.2903 -7.29205 0
v 3.64969 -7.11897 0
v 4 -6.9282 0
v 4.34037 -6.72021 0
v 4.66995 -6.4955 0
v 4.98792 -6.25465 0
v 5.29349 -5.99825 0
v 5.58589 -5.72693 0
v 5.86441 -5.44138 0
v 6.12836 -5.1423 0
v 6.37706 -4.83044 0
v 6.60991 -4.50656 0
v 6.82633 -4.17148 0
v 7.02577 -3.82603 0
v 7.20775 -3.47107 0
v 7.37181 -3.10748 0
v 7.51754 -2.73616 0
v 7.64458 -2.35804 0
v 7.75262 -1.97406 0
v 7.84138 -1.58517 0
v 7.91065 -1.19234 0
v 7.96025 -0.796543 0
v 7.99006 -0.398767 0
v 8 -1.95943e-15 12
v 7.99006 0.398767 12
v 7.96025 0.796543 12
v 7.91065 1.19234 12
v 7.84138 1.58517 12
v 7.75262 1.97406 12
v 7.64458 2.35804 12
v 7.51754 2.73616 12
v 7.37181 3.10748 12
v 7.20775 3.47107 12
v 7.02577 3.82603 12
v 6.82633 4.17148 12
v 6.60991 4.50656 12
v 6.37706 4.83044 12
v 6.12836 5.1423 12
v 5.86441 5.44138 12
v 5.58589 5.72693 12
v 5.29349 5.99825 12
v 4.98792 6.25465 12
v 4.66995 6.4955 12
v 4.34037 6.72021 12
v 4 6.9282 12
v 3.64969 7.11897 12
v 3.2903 7.29205 12
v 2.92273 7.44699 12
v 2.54789 7.58342 12
v 2.16672 7.70099 12
v 1.78017 7.79942 12
v 1.38919 7.87846 12
v 0.99475 7.93791 12
v 0.597841 7.97763 12
v 0.199446 7.99751 12
v -0.199446 7.99751 12
v -0.597841 7.97763 12
v -0.99475 7.93791 12
v -1.38919 7.87846 12
v -1.78017 7.79942 12
v -2.16672 7.70099 12
v -2.54789 7.58342 12
v -2.92273 7.44699 12
v -3.2903 7.29205 12
v -3.64969 7.11897 12
v -4 6.9282 12
v -4.34037 6.72021 12
v -4.66995 6.4955 12
v -4.98792 6.25465 12
v -5.29349 5.99825 12
v -5.58589 5.72693 12
v -5.86441 5.44138 12
v -6.12836 5.1423 12
v -6.37706 4.83044 12
v -6.60991 4.50656 12
v -6.82633 4.17148 12
v -7.02577 3.82603 12
v -7.20775 3.47107 12
v -7.37181 3.10748 12
v -7.51754 2.73616 12
v -7.64458 2.35804 12
v -7.75262 1.97406 12
v -7.84138 1.58517 12
v -7.91065 1.19234 12
v -7.96025 0.796543 12
v -7.99006 0.398767 12
v -8 -2.7442e-14 12
v -7.99006 -0.398767 12
v -7.96025 -0.796543 12
v -7.91065 -1.19234 12
v -7.84138 -1.58517 12
v -7.75262 -1.97406 12
v -7.64458 -2.35804 12
v -7.51754 -2.73616 12
v -7.37181 -3.10748 12
v -7.20775 -3.47107 12
v -7.02577 -3.82603 12
v -6.82633 -4.17148 12
v -6.60991 -4.50656 12
v -6.37706 -4.83044 12
v -6.12836 -5.1423 12
v -5.86441 -5.44138 12
v -5.58589 -5.72693 12
v -5.29349 -5.99825 12
v -4.98792 -6.25465 12
v -4.66995 -6.4955 12
v -4.34037 -6.72021 12
v -4 -6.9282 12
v -3.64969 -7.11897 12
v -3.2903 -7.29205 12
v -2.92273 -7.44699 12
v -2.54789 -7.58342 12
v -2.16672 -7.70099 12
v -1.78017 -7.79942 12
v -1.38919 -7.87846 12
v -0.99475 -7.93791 12
v -0.597841 -7.97763 12
v -0.199446 -7.99751 12
v 0.199446 -7.99751 12
v 0.597841 -7.97763 12
v 0.99475 -7.93791 12
v 1.38919 -7.87846 12
v 1.78017 -7.79942 12
v 2.16672 -7.70099 12
v 2.54789 -7.58342 12
v 2.92273 -7.44699 12
v 3.2903 -7.29205 12
v 3.64969 -7.11897 12
v 4 -6.9282 12
v 4.34037 -6.72021 12
v 4.66995 -6.4955 12
v 4.98792 -6.25465 12
v 5.29349 -5.99825 12
v 5.58589 -5.72693 12
v 5.86441 -5.44138 12
v 6.12836 -5.1423 12
v 6.37706 -4.83044 12
v 6.60991 -4.50656 12
v 6.82633 -4.17148 12
v 7.02577 -3.82603 12
v 7.20775 -3.47107 12
v 7.37181 -3.10748 12
v 7.51754 -2.73616 12
v 7.64458 -2.35804 12
v 7.75262 -1.97406 12
v 7.84138 -1.58517 12
v 7.91065 -1.19234 12
v 7.96025 -0.796543 12
v 7.99006 -0.398767 12
v 8 -1.95943e-15 12
v 8 -1.95943e-15 0
v 7.99006 0.398767 0
v 7.96025 0.796543 0
v 7.91065 1.19234 0
v 7.84138 1.58517 0
v 7.75262 1.97406 0
v 7.64458 2.35804 0
v 7.51754 2.73616 0
v 7.37181 3.10748 0
v 7.20775 3.47107 0
v 7.02577 3.82603 0
v 6.82633 4.17148 0
v 6.60991 4.50656 0
v 6.37706 4.83044 0
v 6.12836 5.1423 0
v 5.86441 5.44138 0
v 5.58589 5.72693 0
v 5.29349 5.99825 0
v 4.98792 6.25465 0
v 4.66995 6.4955 0
v 4.34037 6.72021 0
v 4 6.9282 0
v 3.64969 7.11897 0
v 3.2903 7.29205 0
v 2.92273 7.44699 0
v 2.54789 7.58342 0
v 2.16672 7.70099 0
v 1.78017 7.79942 0
v 1.38919 7.87846 0
v 0.99475 7.93791 0
v 0.597841 7.97763 0
v 0.199446 7.99751 0
v -0.199446 7.99751 0
v -0.597841 7.97763 0
v -0.99475 7.93791 0
v -1.38919 7.87846 0
v -1.78017 7.79942 0
v -2.16672 7.70099 0
v -2.54789 7.58342 0
v -2.92273 7.44699 0
v -3.2903 7.29205 0
v -3.64969 7.11897 0
v -4 6.9282 0
v -4.34037 6.72021 0
v -4.66995 6.4955 0
v -4.98792 6.25465 0
v -5.29349 5.99825 0
v -5.58589 5.72693 0
v -5.86441 5.44138 0
v -6.12836 5.1423 0
v -6.37706 4.83044 0
v -6.60991 4.50656 0
v -6.82633 4.17148 0
v -7.02577 3.82603 0
v -7.20775 3.47107 0
v -7.37181 3.10748 0
v -7.51754 2.73616 0
v -7.64458 2.35804 0
v -7.75262 1.97406 0
v -7.84138 1.58517 0
v -7.91065 1.19234 0
v -7.96025 0.796543 0
v -7.99006 0.398767 0
v -8 -2.7442e-14 0
v -7.99006 -0.398767 0
v -7.96025 -0.796543 0
v -7.91065 -1.19234 0
v -7.84138 -1.58517 0
v -7.75262 -1.97406 0
v -7.64458 -2.35804 0
v -7.51754 -2.73616 0
v -7.37181 -3.10748 0
v -7.20775 -3.47107 0
v -7.02577 -3.82603 0
v -6.82633 -4.17148 0
v -6.60991 -4.50656 0
v -6.37706 -4.83044 0
v -6.12836 -5.1423 0
v -5.86441 -5.44138 0
v -5.58589 -5.72693 0
v -5.29349 -5.99825 0
v -4.98792 -6.25465 0
v -4.66995 -6.4955 0
v -4.34037 -6.72021 0
v -4 -6.9282 0
v -3.64969 -7.11897 0
v -3.2903 -7.29205 0
v -2.92273 -7.44699 0
v -2.54789 -7.58342 0
v -2.16672 -7.70099 0
v -1.78017 -7.79942 0
v -1.38919 -7.87846 0
v -0.99475 -7.93791 0
v -0.597841 -7.97763 0
v -0.199446 -7.99751 0
v 0.199446 -7.99751 0
v 0.597841 -7.97763 0
v 0.99475 -7.93791 0
v 1.38919 -7.87846 0
v 1.78017 -7.79942 0
v 2.16672 -7.70099 0
v 2.54789 -7.58342 0
v 2.92273 -7.44699 0
v 3.2903 -7.29205 0
v 3.64969 -7.11897 0
v 4 -6.9282 0
v 4.34037 -6.72021 0
v 4.66995 -6.4955 0
v 4.98792 -6.25465 0
v 5.29349 -5.99825 0
v 5.58589 -5.72693 0
v 5.86441 -5.44138 0
v 6.12836 -5.1423 0
v 6.37706 -4.83044 0
v 6.60991 -4.50656 0
v 6.82633 -4.17148 0
v 7.02577 -3.82603 0
v 7.20775 -3.47107 0
v 7.37181 -3.10748 0
v 7.51754 -2.73616 0
v 7.64458 -2.35804 0
v 7.75262 -1.97406 0
v 7.84138 -1.58517 0
v 7.91065 -1.19234 0
v 7.96025 -0.796543 0
v 7.99006 -0.398767 0
v 8 -1.95943e-15 0
f 2 1 128
f 2 128 129
f 3 129 130
f 3 130 131
f 3 2 129
f 4 131 132
f 4 3 131
f 5 132 133
f 5 4 132
f 6 133 134
f 6 5 133
f 7 134 135
f 7 6 134
f 8 7 135
f 9 135 136
f 9 136 137
f 9 8 135
f 10 9 137
f 11 137 138
f 11 10 137
f 12 11 138
f 12 138 139
f 13 12 139
f 13 139 140
f 13 140 141
f 14 13 141
f 15 14 141
f 15 141 142
f 16 15 142
f 16 142 143
f 17 16 143
f 17 143 144
f 18 17 144
f 18 144 145
f 19 18 145
f 19 145 146
f 20 19 146
f 20 146 147
f 21 20 147
f 21 147 148
f 22 21 148
f 22 148 149
f 23 22 149
f 23 149 150
f 23 150 151
f 24 23 151
f 25 151 152
f 25 152 153
f 25 24 151
f 26 25 153
f 27 153 154
f 27 26 153
f 28 154 155
f 28 155 156
f 28 27 154
f 29 28 156
f 30 156 157
f 30 29 156
f 31 157 158
f 31 158 159
f 31 30 157
f 32 31 159
f 33 159 160
f 33 160 161
f 33 32 159
f 34 33 161
f 35 161 162
f 35 162 163
f 35 34 161
f 36 35 163
f 37 36 163
f 37 163 164
f 38 37 164
f 38 164 165
f 39 38 165
f 39 165 166
f 40 39 166
f 40 166 167
f 41 40 167
f 41 167 168
f 42 41 168
f 42 168 169
f 43 42 169
f 43 169 170
f 43 170 171
f 44 43 171
f 45 44 171
f 45 171 172
f 45 172 173
f 46 45 173
f 46 173 174
f 47 46 174
f 47 174 175
f 48 47 175
f 49 48 175
f 49 175 176
f 50 49 176
f 50 176 177
f 51 50 177
f 51 177 178
f 52 51 178
f 52 178 179
f 53 52 179
f 53 179 180
f 54 53 180
f 54 180 181
f 55 54 181
f 55 181 182
f 56 55 182
f 56 182 183
f 57 56 183
f 57 183 184
f 57 184 185
f 58 185 186
f 58 57 185
f 59 58 186
f 60 186 187
f 60 187 188
f 60 59 186
f 61 188 189
f 61 60 188
f 62 61 189
f 63 62 189
f 63 189 190
f 64 63 190
f 64 190 191
f 65 64 191
f 65 191 192
f 66 65 192
f 66 192 193
f 67 66 193
f 67 193 194
f 68 67 194
f 68 194 195
f 69 68 195
f 69 195 196
f 70 69 196
f 70 196 197
f 71 70 197
f 71 197 198
f 72 71 198
f 72 198 199
f 73 72 199
f 73 199 200
f 74 73 200
f 74 200 201
f 75 74 201
f 75 201 202
f 76 202 203
f 76 75 202
f 77 203 204
f 77 76 203
f 78 204 205
f 78 77 204
f 79 205 206
f 79 78 205
f 80 206 207
f 80 79 206
f 81 207 208
f 81 80 207
f 82 208 209
f 82 209 210
f 82 81 208
f 83 82 210
f 84 210 211
f 84 83 210
f 85 211 212
f 85 212 213
f 85 84 211
f 86 213 214
f 86 85 213
f 87 86 214
f 88 214 215
f 88 87 214
f 89 88 215
f 89 215 216
f 90 89 216
f 90 216 217
f 91 90 217
f 91 217 218
f 92 91 218
f 92 218 219
f 93 219 220
f 93 220 221
f 93 92 219
f 94 221 222
f 94 93 221
f 95 94 222
f 96 222 223
f 96 95 222
f 97 223 224
f 97 96 223
f 98 224 225
f 98 97 224
f 99 225 226
f 99 226 227
f 99 98 225
f 100 99 227
f 101 227 228
f 101 100 227
f 102 228 229
f 102 101 228
f 103 229 230
f 103 102 229
f 104 230 231
f 104 103 230
f 105 231 232
f 105 104 231
f 106 232 233
f 106 105 232
f 107 233 234
f 107 106 233
f 108 234 235
f 108 235 236
f 108 107 234
f 109 108 236
f 110 236 237
f 110 237 238
f 110 109 236
f 111 110 238
f 112 238 239
f 112 111 238
f 113 112 239
f 113 239 240
f 114 113 240
f 114 240 241
f 115 114 241
f 115 241 242
f 116 115 242
f 116 242 243
f 117 116 243
f 117 243 244
f 118 117 244
f 118 244 245
f 119 118 245
f 119 245 246
f 120 119 246
f 120 246 247
f 121 120 247
f 121 247 248
f 122 121 248
f 122 248 249
f 123 122 249
f 123 249 250
f 124 123 250
f 124 250 251
f 125 251 252
f 125 124 251
f 126 125 252
f 126 252 253
f 127 253 254
f 127 126 253
f 459 333 334
f 459 334 460
f 461 334 335
f 461 460 334
f 458 333 459
f 458 332 333
f 462 461 335
f 462 335 336
f 462 336 337
f 457 332 458
f 457 331 332
f 463 462 337
f 456 331 457
f 456 329 330
f 456 330 331
f 464 463 337
f 464 337 338
f 464 338 339
f 455 329 456
f 465 464 339
f 454 328 329
f 454 329 455
f 466 465 339
f 466 339 340
f 453 327 328
f 453 328 454
f 467 466 340
f 467 340 341
f 467 341 342
f 452 327 453
f 452 325 326
f 452 326 327
f 468 467 342
f 451 325 452
f 469 342 343
f 469 468 342
f 450 325 451
f 450 324 325
f 470 469 343
f 470 343 344
f 449 323 324
f 449 324 450
f 471 470 344
f 471 344 345
f 448 323 449
f 448 322 323
f 472 471 345
f 472 345 346
f 447 322 448
f 447 321 322
f 473 472 346
f 473 346 347
f 473 347 348
f 446 321 447
f 446 320 321
f 474 473 348
f 445 320 446
f 445 318 319
f 445 319 320
f 475 474 348
f 475 348 349
f 475 349 350
f 444 318 445
f 476 475 350
f 443 317 318
f 443 318 444
f 477 476 350
f 477 350 351
f 477 351 352
f 442 317 443
f 442 315 316
f 442 316 317
f 478 477 352
f 441 315 442
f 479 478 352
f 479 352 353
f 440 315 441
f 440 314 315
f 480 479 353
f 480 353 354
f 439 314 440
f 439 313 314
f 481 480 354
f 481 354 355
f 438 313 439
f 438 312 313
f 482 355 356
f 482 481 355
f 437 312 438
f 437 311 312
f 483 356 357
f 483 482 356
f 436 311 437
f 436 310 311
f 484 357 358
f 484 483 357
f 435 310 436
f 435 309 310
f 485 358 359
f 485 359 360
f 485 484 358
f 434 308 309
f 434 309 435
f 486 485 360
f 433 307 308
f 433 308 434
f 487 360 361
f 487 486 360
f 432 306 307
f 432 307 433
f 488 361 362
f 488 487 361
f 431 305 306
f 431 306 432
f 489 362 363
f 489 488 362
f 430 304 305
f 430 305 431
f 490 363 364
f 490 489 363
f 429 303 304
f 429 304 430
f 491 364 365
f 491 490 364
f 302 429 428
f 302 303 429
f 366 491 365
f 366 492 491
f 366 493 492
f 301 302 428
f 301 428 427
f 367 493 366
f 367 494 493
f 300 301 427
f 300 427 426
f 368 494 367
f 299 300 426
f 299 426 425
f 369 494 368
f 369 495 494
f 298 425 424
f 298 299 425
f 370 496 495
f 370 495 369
f 297 424 423
f 297 298 424
f 371 496 370
f 371 497 496
f 371 498 497
f 296 297 423
f 296 422 421
f 296 423 422
f 372 498 371
f 295 296 421
f 373 499 498
f 373 500 499
f 373 498 372
f 294 421 420
f 294 295 421
f 374 500 373
f 293 294 420
f 293 420 419
f 375 501 500
f 375 500 374
f 292 418 417
f 292 419 418
f 292 293 419
f 376 502 501
f 376 503 502
f 376 501 375
f 291 292 417
f 377 503 376
f 290 417 416
f 290 291 417
f 378 504 503
f 378 503 377
f 289 290 416
f 289 416 415
f 379 504 378
f 379 505 504
f 288 414 413
f 288 415 414
f 288 289 415
f 380 506 505
f 380 381 506
f 380 505 379
f 287 288 413
f 255 381 380
f 286 413 412
f 286 287 413
f 256 381 255
f 256 382 381
f 285 412 411
f 285 286 412
f 257 383 382
f 257 382 256
f 284 285 411
f 284 411 410
f 258 384 383
f 258 383 257
f 283 284 410
f 283 410 409
f 259 384 258
f 259 385 384
f 282 283 409
f 282 409 408
f 260 385 259
f 260 386 385
f 260 387 386
f 281 282 408
f 281 408 407
f 261 387 260
f 280 281 407
f 280 407 406
f 262 387 261
f 262 388 387
f 262 389 388
f 279 280 406
f 279 406 405
f 263 390 389
f 263 389 262
f 278 279 405
f 278 404 403
f 278 405 404
f 264 390 263
f 277 278 403
f 265 390 264
f 265 391 390
f 276 277 403
f 276 403 402
f 266 391 265
f 266 392 391
f 275 276 402
f 275 402 401
f 267 392 266
f 267 393 392
f 267 394 393
f 274 275 401
f 274 400 399
f 274 401 400
f 268 394 267
f 273 274 399
f 269 394 268
f 269 395 394
f 272 273 399
f 272 398 397
f 272 399 398
f 270 396 395
f 270 395 269
f 271 272 397
f 271 397 396
f 271 396 270
f 711 586 585
f 711 712 586
f 713 587 586
f 713 586 712
f 710 711 585
f 710 585 584
f 714 587 713
f 714 588 587
f 714 589 588
f 709 710 584
f 709 584 583
f 715 589 714
f 708 709 583
f 708 582 581
f 708 583 582
f 716 589 715
f 716 590 589
f 716 591 590
f 707 708 581
f 717 591 716
f 706 581 580
f 706 707 581
f 718 591 717
f 718 592 591
f 705 580 579
f 705 706 580
f 719 592 718
f 719 593 592
f 719 594 593
f 704 705 579
f 704 578 577
f 704 579 578
f 720 594 719
f 703 704 577
f 721 595 594
f 721 594 720
f 702 703 577
f 702 577 576
f 722 595 721
f 722 596 595
f 701 576 575
f 701 702 576
f 723 596 722
f 723 597 596
f 700 701 575
f 700 575 574
f 724 597 723
f 724 598 597
f 699 700 574
f 699 574 573
f 725 598 724
f 725 599 598
f 725 600 599
f 698 699 573
f 698 573 572
f 726 600 725
f 697 698 572
f 697 571 570
f 697 572 571
f 727 600 726
f 727 601 600
f 727 602 601
f 696 697 570
f 728 602 727
f 695 570 569
f 695 696 570
f 729 602 728
f 729 603 602
f 729 604 603
f 694 695 569
f 694 568 567
f 694 569 568
f 730 604 729
f 693 694 567
f 731 604 730
f 731 605 604
f 692 693 567
f 692 567 566
f 732 605 731
f 732 606 605
f 691 692 566
f 691 566 565
f 733 606 732
f 733 607 606
f 690 691 565
f 690 565 564
f 734 608 607
f 734 607 733
f 689 690 564
f 689 564 563
f 735 609 608
f 735 608 734
f 688 689 563
f 688 563 562
f 736 610 609
f 736 609 735
f 687 688 562
f 687 562 561
f 737 611 610
f 737 612 611
f 737 610 736
f 686 561 560
f 686 687 561
f 738 612 737
f 685 560 559
f 685 686 560
f 739 613 612
f 739 612 738
f 684 559 558
f 684 685 559
f 740 614 613
f 740 613 739
f 683 558 557
f 683 684 558
f 741 615 614
f 741 614 740
f 682 557 556
f 682 683 557
f 742 616 615
f 742 615 741
f 681 556 555
f 681 682 556
f 743 617 616
f 743 616 742
f 554 680 681
f 554 681 555
f 618 617 743
f 618 743 744
f 618 744 745
f 553 680 554
f 553 679 680
f 619 618 745
f 619 745 746
f 552 679 553
f 552 678 679
f 620 619 746
f 551 678 552
f 551 677 678
f 621 620 746
f 621 746 747
f 550 676 677
f 550 677 551
f 622 747 748
f 622 621 747
f 549 675 676
f 549 676 550
f 623 622 748
f 623 748 749
f 623 749 750
f 548 675 549
f 548 673 674
f 548 674 675
f 624 623 750
f 547 673 548
f 625 750 751
f 625 751 752
f 625 624 750
f 546 672 673
f 546 673 547
f 626 625 752
f 545 672 546
f 545 671 672
f 627 752 753
f 627 626 752
f 544 669 670
f 544 670 671
f 544 671 545
f 628 753 754
f 628 754 755
f 628 627 753
f 543 669 544
f 629 628 755
f 542 668 669
f 542 669 543
f 630 755 756
f 630 629 755
f 541 668 542
f 541 667 668
f 631 630 756
f 631 756 757
f 540 665 666
f 540 666 667
f 540 667 541
f 632 757 758
f 632 758 633
f 632 631 757
f 539 665 540
f 507 632 633
f 538 664 665
f 538 665 539
f 508 507 633
f 508 633 634
f 537 663 664
f 537 664 538
f 509 634 635
f 509 508 634
f 536 663 537
f 536 662 663
f 510 635 636
f 510 509 635
f 535 662 536
f 535 661 662
f 511 510 636
f 511 636 637
f 534 661 535
f 534 660 661
f 512 511 637
f 512 637 638
f 512 638 639
f 533 660 534
f 533 659 660
f 513 512 639
f 532 659 533
f 532 658 659
f 514 513 639
f 514 639 640
f 514 640 641
f 531 658 532
f 531 657 658
f 515 641 642
f 515 514 641
f 530 657 531
f 530 655 656
f 530 656 657
f 516 515 642
f 529 655 530
f 517 516 642
f 517 642 643
f 528 655 529
f 528 654 655
f 518 517 643
f 518 643 644
f 527 654 528
f 527 653 654
f 519 518 644
f 519 644 645
f 519 645 646
f 526 653 527
f 526 651 652
f 526 652 653
f 520 519 646
f 525 651 526
f 521 520 646
f 521 646 647
f 524 651 525
f 524 649 650
f 524 650 651
f 522 647 648
f 522 521 647
f 523 649 524
f 523 648 649
f 523 522 648
f 760 886 759
f 760 887 886
f 761 888 887
f 761 889 888
f 761 887 760
f 762 890 889
f 762 889 761
f 763 891 890
f 763 890 762
f 764 892 891
f 764 891 763
f 765 893 892
f 765 892 764
f 766 893 765
f 767 894 893
f 767 895 894
f 767 893 766
f 768 895 767
f 769 896 895
f 769 895 768
f 770 896 769
f 770 897 896
f 771 897 770
f 771 898 897
f 771 899 898
f 772 899 771
f 773 899 772
f 773 900 899
f 774 900 773
f 774 901 900
f 775 901 774
f 775 902 901
f 776 902 775
f 776 903 902
f 777 903 776
f 777 904 903
f 778 904 777
f 778 905 904
f 779 905 778
f 779 906 905
f 780 906 779
f 780 907 906
f 781 907 780
f 781 908 907
f 781 909 908
f 782 909 781
f 783 910 909
f 783 911 910
f 783 909 782
f 784 911 783
f 785 912 911
f 785 911 784
f 786 913 912
f 786 914 913
f 786 912 785
f 787 914 786
f 788 915 914
f 788 914 787
f 789 916 915
f 789 917 916
f 789 915 788
f 790 917 789
f 791 918 917
f 791 919 918
f 791 917 790
f 792 919 791
f 793 920 919
f 793 921 920
f 793 919 792
f 794 921 793
f 795 921 794
f 795 922 921
f 796 922 795
f 796 923 922
f 797 923 796
f 797 924 923
f 798 924 797
f 798 925 924
f 799 925 798
f 799 926 925
f 800 926 799
f 800 927 926
f 801 927 800
f 801 928 927
f 801 929 928
f 802 929 801
f 803 929 802
f 803 930 929
f 803 931 930
f 804 931 803
f 804 932 931
f 805 932 804
f 805 933 932
f 806 933 805
f 807 933 806
f 807 934 933
f 808 934 807
f 808 935 934
f 809 935 808
f 809 936 935
f 810 936 809
f 810 937 936
f 811 937 810
f 811 938 937
f 812 938 811
f 812 939 938
f 813 939 812
f 813 940 939
f 814 940 813
f 814 941 940
f 815 941 814
f 815 942 941
f 815 943 942
f 816 944 943
f 816 943 815
f 817 944 816
f 818 945 944
f 818 946 945
f 818 944 817
f 819 947 946
f 819 946 818
f 820 947 819
f 821 947 820
f 821 948 947
f 822 948 821
f 822 949 948
f 823 949 822
f 823 950 949
f 824 950 823
f 824 951 950
f 825 951 824
f 825 952 951
f 826 952 825
f 826 953 952
f 827 953 826
f 827 954 953
f 828 954 827
f 828 955 954
f 829 955 828
f 829 956 955
f 830 956 829
f 830 957 956
f 831 957 830
f 831 958 957
f 832 958 831
f 832 959 958
f 833 959 832
f 833 960 959
f 834 961 960
f 834 960 833
f 835 962 961
f 835 961 834
f 836 963 962
f 836 962 835
f 837 964 963
f 837 963 836
f 838 965 964
f 838 964 837
f 839 966 965
f 839 965 838
f 840 967 966
f 840 968 967
f 840 966 839
f 841 968 840
f 842 969 968
f 842 968 841
f 843 970 969
f 843 971 970
f 843 969 842
f 844 972 971
f 844 971 843
f 845 972 844
f 846 973 972
f 846 972 845
f 847 973 846
f 847 974 973
f 848 974 847
f 848 975 974
f 849 975 848
f 849 976 975
f 850 976 849
f 850 977 976
f 851 978 977
f 851 979 978
f 851 977 850
f 852 980 979
f 852 979 851
f 853 980 852
f 854 981 980
f 854 980 853
f 855 982 981
f 855 981 854
f 856 983 982
f 856 982 855
f 857 984 983
f 857 985 984
f 857 983 856
f 858 985 857
f 859 986 985
f 859 985 858
f 860 987 986
f 860 986 859
f 861 988 987
f 861 987 860
f 862 989 988
f 862 988 861
f 863 990 989
f 863 989 862
f 864 991 990
f 864 990 863
f 865 992 991
f 865 991 864
f 866 993 992
f 866 994 993
f 866 992 865
f 867 994 866
f 868 995 994
f 868 996 995
f 868 994 867
f 869 996 868
f 870 997 996
f 870 996 869
f 871 997 870
f 871 998 997
f 872 998 871
f 872 999 998
f 873 999 872
f 873 1000 999
f 874 1000 873
f 874 1001 1000
f 875 1001 874
f 875 1002 1001
f 876 1002 875
f 876 1003 1002
f 877 1003 876
f 877 1004 1003
f 878 1004 877
f 878 1005 1004
f 879 1005 878
f 879 1006 1005
f 880 1006 879
f 880 1007 1006
f 881 1007 880
f 881 1008 1007
f 882 1008 881
f 882 1009 1008
f 883 1010 1009
f 883 1009 882
f 884 1010 883
f 884 1011 1010
f 885 1012 1011
f 885 1011 884
