# Cadless export: model
v -40 -25 0
v -40 -25 22
v -40 25 0
v -40 25 22
v -40 -25 0
v 40 -25 0
v -40 -25 22
v 40 -25 22
v -40 -25 22
v -40 25 22
v 40 -25 22
v 40 25 22
v -37 -22 22
v -37 -21.6458 22
v -36.8869 -21.7687 22
v -36.7687 -21.8869 22
v -36.6458 -22 22
v 37 -22 22
v 37 -21.6458 22
v 36.6458 -22 22
v 36.7687 -21.8869 22
v 36.8869 -21.7687 22
v -36.6458 22 22
v -37 22 22
v -36.7687 21.8869 22
v -36.8869 21.7687 22
v -37 21.6458 22
v 37 -16.3542 22
v 37 16.3542 22
v 36.8654 -16.2091 22
v 36.7238 -16.0707 22
v 36.5755 -15.9395 22
v 36.421 -15.8158 22
v 36.2604 -15.6999 22
v 36.0944 -15.5921 22
v 35.9232 -15.4927 22
v 35.7473 -15.4018 22
v 35.5671 -15.3198 22
v 35.3831 -15.2467 22
v 35.1957 -15.1829 22
v 35.0054 -15.1284 22
v 34.8126 -15.0834 22
v 34.6178 -15.048 22
v 34.4215 -15.0223 22
v 34.2242 -15.0063 22
v 34.0263 -15.0001 22
v 33.8284 -15.0037 22
v 33.6309 -15.0171 22
v 33.4342 -15.0402 22
v 33.239 -15.0731 22
v 33.0456 -15.1155 22
v 32.8546 -15.1675 22
v 32.6664 -15.2289 22
v 32.4814 -15.2995 22
v 32.3002 -15.3791 22
v 32.1231 -15.4677 22
v 31.9507 -15.5649 22
v 31.7832 -15.6705 22
v 31.6212 -15.7842 22
v 31.465 -15.9059 22
v 31.315 -16.0351 22
v 31.1716 -16.1716 22
v 31.0351 -16.315 22
v 30.9059 -16.465 22
v 30.7842 -16.6212 22
v 30.6705 -16.7832 22
v 30.5649 -16.9507 22
v 30.4677 -17.1231 22
v 30.3791 -17.3002 22
v 30.2995 -17.4814 22
v 30.2289 -17.6664 22
v 30.1675 -17.8546 22
v 30.1155 -18.0456 22
v 30.0731 -18.239 22
v 30.0402 -18.4342 22
v 30.0171 -18.6309 22
v 30.0037 -18.8284 22
v 30.0001 -19.0263 22
v 30.0063 -19.2242 22
v 30.0223 -19.4215 22
v 30.048 -19.6178 22
v 30.0834 -19.8126 22
v 30.1284 -20.0054 22
v 30.1829 -20.1957 22
v 30.2467 -20.3831 22
v 30.3198 -20.5671 22
v 30.4018 -20.7473 22
v 30.4927 -20.9232 22
v 30.5921 -21.0944 22
v 30.6999 -21.2604 22
v 30.8158 -21.421 22
v 30.9395 -21.5755 22
v 31.0707 -21.7238 22
v 31.2091 -21.8654 22
v 31.3542 -22 22
v -31.3542 -22 22
v -31.2091 -21.8654 22
v -31.0707 -21.7238 22
v -30.9395 -21.5755 22
v -30.8158 -21.421 22
v -30.6999 -21.2604 22
v -30.5921 -21.0944 22
v -30.4927 -20.9232 22
v -30.4018 -20.7473 22
v -30.3198 -20.5671 22
v -30.2467 -20.3831 22
v -30.1829 -20.1957 22
v -30.1284 -20.0054 22
v -30.0834 -19.8126 22
v -30.048 -19.6178 22
v -30.0223 -19.4215 22
v -30.0063 -19.2242 22
v -30.0001 -19.0263 22
v -30.0037 -18.8284 22
v -30.0171 -18.6309 22
v -30.0402 -18.4342 22
v -30.0731 -18.239 22
v -30.1155 -18.0456 22
v -30.1675 -17.8546 22
v -30.2289 -17.6664 22
v -30.2995 -17.4814 22
v -30.3791 -17.3002 22
v -30.4677 -17.1231 22
v -30.5649 -16.9507 22
v -30.6705 -16.7832 22
v -30.7842 -16.6212 22
v -30.9059 -16.465 22
v -31.0351 -16.315 22
v -31.1716 -16.1716 22
v -31.315 -16.0351 22
v -31.465 -15.9059 22
v -31.6212 -15.7842 22
v -31.7832 -15.6705 22
v -31.9507 -15.5649 22
v -32.1231 -15.4677 22
v -32.3002 -15.3791 22
v -32.4814 -15.2995 22
v -32.6664 -15.2289 22
v -32.8546 -15.1675 22
v -33.0456 -15.1155 22
v -33.239 -15.0731 22
v -33.4342 -15.0402 22
v -33.6309 -15.0171 22
v -33.8284 -15.0037 22
v -34.0263 -15.0001 22
v -34.2242 -15.0063 22
v -34.4215 -15.0223 22
v -34.6178 -15.048 22
v -34.8126 -15.0834 22
v -35.0054 -15.1284 22
v -35.1957 -15.1829 22
v -35.3831 -15.2467 22
v -35.5671 -15.3198 22
v -35.7473 -15.4018 22
v -35.9232 -15.4927 22
v -36.0944 -15.5921 22
v -36.2604 -15.6999 22
v -36.421 -15.8158 22
v -36.5755 -15.9395 22
v -36.7238 -16.0707 22
v -36.8654 -16.2091 22
v -37 -16.3542 22
v -37 16.3542 22
v -36.8654 16.2091 22
v -36.7238 16.0707 22
v -36.5755 15.9395 22
v -36.421 15.8158 22
v -36.2604 15.6999 22
v -36.0944 15.5921 22
v -35.9232 15.4927 22
v -35.7473 15.4018 22
v -35.5671 15.3198 22
v -35.3831 15.2467 22
v -35.1957 15.1829 22
v -35.0054 15.1284 22
v -34.8126 15.0834 22
v -34.6178 15.048 22
v -34.4215 15.0223 22
v -34.2242 15.0063 22
v -34.0263 15.0001 22
v -33.8284 15.0037 22
v -33.6309 15.0171 22
v -33.4342 15.0402 22
v -33.239 15.0731 22
v -33.0456 15.1155 22
v -32.8546 15.1675 22
v -32.6664 15.2289 22
v -32.4814 15.2995 22
v -32.3002 15.3791 22
v -32.1231 15.4677 22
v -31.9507 15.5649 22
v -31.7832 15.6705 22
v -31.6212 15.7842 22
v -31.465 15.9059 22
v -31.315 16.0351 22
v -31.1716 16.1716 22
v -31.0351 16.315 22
v -30.9059 16.465 22
v -30.7842 16.6212 22
v -30.6705 16.7832 22
v -30.5649 16.9507 22
v -30.4677 17.1231 22
v -30.3791 17.3002 22
v -30.2995 17.4814 22
v -30.2289 17.6664 22
v -30.1675 17.8546 22
v -30.1155 18.0456 22
v -30.0731 18.239 22
v -30.0402 18.4342 22
v -30.0171 18.6309 22
v -30.0037 18.8284 22
v -30.0001 19.0263 22
v -30.0063 19.2242 22
v -30.0223 19.4215 22
v -30.048 19.6178 22
v -30.0834 19.8126 22
v -30.1284 20.0054 22
v -30.1829 20.1957 22
v -30.2467 20.3831 22
v -30.3198 20.5671 22
v -30.4018 20.7473 22
v -30.4927 20.9232 22
v -30.5921 21.0944 22
v -30.6999 21.2604 22
v -30.8158 21.421 22
v -30.9395 21.5755 22
v -31.0707 21.7238 22
v -31.2091 21.8654 22
v -31.3542 22 22
v 31.3542 22 22
v 31.2091 21.8654 22
v 31.0707 21.7238 22
v 30.9395 21.5755 22
v 30.8158 21.421 22
v 30.6999 21.2604 22
v 30.5921 21.0944 22
v 30.4927 20.9232 22
v 30.4018 20.7473 22
v 30.3198 20.5671 22
v 30.2467 20.3831 22
v 30.1829 20.1957 22
v 30.1284 20.0054 22
v 30.0834 19.8126 22
v 30.048 19.6178 22
v 30.0223 19.4215 22
v 30.0063 19.2242 22
v 30.0001 19.0263 22
v 30.0037 18.8284 22
v 30.0171 18.6309 22
v 30.0402 18.4342 22
v 30.0731 18.239 22
v 30.1155 18.0456 22
v 30.1675 17.8546 22
v 30.2289 17.6664 22
v 30.2995 17.4814 22
v 30.3791 17.3002 22
v 30.4677 17.1231 22
v 30.5649 16.9507 22
v 30.6705 16.7832 22
v 30.7842 16.6212 22
v 30.9059 16.465 22
v 31.0351 16.315 22
v 31.1716 16.1716 22
v 31.315 16.0351 22
v 31.465 15.9059 22
v 31.6212 15.7842 22
v 31.7832 15.6705 22
v 31.9507 15.5649 22
v 32.1231 15.4677 22
v 32.3002 15.3791 22
v 32.4814 15.2995 22
v 32.6664 15.2289 22
v 32.8546 15.1675 22
v 33.0456 15.1155 22
v 33.239 15.0731 22
v 33.4342 15.0402 22
v 33.6309 15.0171 22
v 33.8284 15.0037 22
v 34.0263 15.0001 22
v 34.2242 15.0063 22
v 34.4215 15.0223 22
v 34.6178 15.048 22
v 34.8126 15.0834 22
v 35.0054 15.1284 22
v 35.1957 15.1829 22
v 35.3831 15.2467 22
v 35.5671 15.3198 22
v 35.7473 15.4018 22
v 35.9232 15.4927 22
v 36.0944 15.5921 22
v 36.2604 15.6999 22
v 36.421 15.8158 22
v 36.5755 15.9395 22
v 36.7238 16.0707 22
v 36.8654 16.2091 22
v 37 21.6458 22
v 37 22 22
v 36.8869 21.7687 22
v 36.7687 21.8869 22
v 36.6458 22 22
v -40 25 0
v 40 25 0
v -40 25 22
v 40 25 22
v -40 -25 0
v -40 25 0
v 40 -25 0
v 40 25 0
v 40 -25 0
v 40 -25 22
v 40 25 0
v 40 25 22
v -37 -22 2.5
v -37 -22 22
v -37 -21.6458 2.5
v -37 -21.6458 22
v -36.6458 -22 2.5
v -36.6458 -22 22
v -37 -22 2.5
v -37 -22 22
v -37 -21.6458 22
v -36.8869 -21.7687 22
v -36.7687 -21.8869 22
v -36.6458 -22 22
v -37 -21.6458 2.5
v -36.8869 -21.7687 2.5
v -36.7687 -21.8869 2.5
v -36.6458 -22 2.5
v 37 -22 2.5
v 37 -22 22
v 37 -21.6458 2.5
v 37 -21.6458 22
v 37 -22 2.5
v 37 -22 22
v 36.6458 -22 2.5
v 36.6458 -22 22
v 37 -21.6458 2.5
v 37 -21.6458 22
v 36.6458 -22 22
v 36.7687 -21.8869 22
v 36.8869 -21.7687 22
v 36.6458 -22 2.5
v 36.7687 -21.8869 2.5
v 36.8869 -21.7687 2.5
v -36.6458 22 2.5
v -36.6458 22 22
v -37 22 2.5
v -37 22 22
v -36.6458 22 22
v -36.7687 21.8869 22
v -36.8869 21.7687 22
v -37 21.6458 22
v -36.6458 22 2.5
v -36.7687 21.8869 2.5
v -36.8869 21.7687 2.5
v -37 21.6458 2.5
v -37 21.6458 2.5
v -37 21.6458 22
v -37 22 2.5
v -37 22 22
v 37 -16.3542 2.5
v 37 -16.3542 22
v 37 16.3542 2.5
v 37 16.3542 22
v 37 21.6458 2.5
v 37 21.6458 22
v 37 22 2.5
v 37 22 22
v 37 22 2.5
v 37 22 22
v 36.6458 22 2.5
v 36.6458 22 22
v 31.3542 22 2.5
v 31.3542 22 22
v -31.3542 22 2.5
v -31.3542 22 22
v -37 16.3542 22
v -36.8654 16.2091 22
v -36.7238 16.0707 22
v -36.5755 15.9395 22
v -36.421 15.8158 22
v -36.2604 15.6999 22
v -36.0944 15.5921 22
v -35.9232 15.4927 22
v -35.7473 15.4018 22
v -35.5671 15.3198 22
v -35.3831 15.2467 22
v -35.1957 15.1829 22
v -35.0054 15.1284 22
v -34.8126 15.0834 22
v -34.6178 15.048 22
v -34.4215 15.0223 22
v -34.2242 15.0063 22
v -34.0263 15.0001 22
v -33.8284 15.0037 22
v -33.6309 15.0171 22
v -33.4342 15.0402 22
v -33.239 15.0731 22
v -33.0456 15.1155 22
v -32.8546 15.1675 22
v -32.6664 15.2289 22
v -32.4814 15.2995 22
v -32.3002 15.3791 22
v -32.1231 15.4677 22
v -31.9507 15.5649 22
v -31.7832 15.6705 22
v -31.6212 15.7842 22
v -31.465 15.9059 22
v -31.315 16.0351 22
v -31.1716 16.1716 22
v -31.0351 16.315 22
v -30.9059 16.465 22
v -30.7842 16.6212 22
v -30.6705 16.7832 22
v -30.5649 16.9507 22
v -30.4677 17.1231 22
v -30.3791 17.3002 22
v -30.2995 17.4814 22
v -30.2289 17.6664 22
v -30.1675 17.8546 22
v -30.1155 18.0456 22
v -30.0731 18.239 22
v -30.0402 18.4342 22
v -30.0171 18.6309 22
v -30.0037 18.8284 22
v -30.0001 19.0263 22
v -30.0063 19.2242 22
v -30.0223 19.4215 22
v -30.048 19.6178 22
v -30.0834 19.8126 22
v -30.1284 20.0054 22
v -30.1829 20.1957 22
v -30.2467 20.3831 22
v -30.3198 20.5671 22
v -30.4018 20.7473 22
v -30.4927 20.9232 22
v -30.5921 21.0944 22
v -30.6999 21.2604 22
v -30.8158 21.421 22
v -30.9395 21.5755 22
v -31.0707 21.7238 22
v -31.2091 21.8654 22
v -31.3542 22 22
v -37 16.3542 2.5
v -31.3542 22 2.5
v -31.2091 21.8654 2.5
v -31.0707 21.7238 2.5
v -30.9395 21.5755 2.5
v -30.8158 21.421 2.5
v -30.6999 21.2604 2.5
v -30.5921 21.0944 2.5
v -30.4927 20.9232 2.5
v -30.4018 20.7473 2.5
v -30.3198 20.5671 2.5
v -30.2467 20.3831 2.5
v -30.1829 20.1957 2.5
v -30.1284 20.0054 2.5
v -30.0834 19.8126 2.5
v -30.048 19.6178 2.5
v -30.0223 19.4215 2.5
v -30.0063 19.2242 2.5
v -30.0001 19.0263 2.5
v -30.0037 18.8284 2.5
v -30.0171 18.6309 2.5
v -30.0402 18.4342 2.5
v -30.0731 18.239 2.5
v -30.1155 18.0456 2.5
v -30.1675 17.8546 2.5
v -30.2289 17.6664 2.5
v -30.2995 17.4814 2.5
v -30.3791 17.3002 2.5
v -30.4677 17.1231 2.5
v -30.5649 16.9507 2.5
v -30.6705 16.7832 2.5
v -30.7842 16.6212 2.5
v -30.9059 16.465 2.5
v -31.0351 16.315 2.5
v -31.1716 16.1716 2.5
v -31.315 16.0351 2.5
v -31.465 15.9059 2.5
v -31.6212 15.7842 2.5
v -31.7832 15.6705 2.5
v -31.9507 15.5649 2.5
v -32.1231 15.4677 2.5
v -32.3002 15.3791 2.5
v -32.4814 15.2995 2.5
v -32.6664 15.2289 2.5
v -32.8546 15.1675 2.5
v -33.0456 15.1155 2.5
v -33.239 15.0731 2.5
v -33.4342 15.0402 2.5
v -33.6309 15.0171 2.5
v -33.8284 15.0037 2.5
v -34.0263 15.0001 2.5
v -34.2242 15.0063 2.5
v -34.4215 15.0223 2.5
v -34.6178 15.048 2.5
v -34.8126 15.0834 2.5
v -35.0054 15.1284 2.5
v -35.1957 15.1829 2.5
v -35.3831 15.2467 2.5
v -35.5671 15.3198 2.5
v -35.7473 15.4018 2.5
v -35.9232 15.4927 2.5
v -36.0944 15.5921 2.5
v -36.2604 15.6999 2.5
v -36.421 15.8158 2.5
v -36.5755 15.9395 2.5
v -36.7238 16.0707 2.5
v -36.8654 16.2091 2.5
v -37 -16.3542 2.5
v -37 -16.3542 22
v -37 16.3542 2.5
v -37 16.3542 22
v -31.3542 -22 22
v -31.2091 -21.8654 22
v -31.0707 -21.7238 22
v -30.9395 -21.5755 22
v -30.8158 -21.421 22
v -30.6999 -21.2604 22
v -30.5921 -21.0944 22
v -30.4927 -20.9232 22
v -30.4018 -20.7473 22
v -30.3198 -20.5671 22
v -30.2467 -20.3831 22
v -30.1829 -20.1957 22
v -30.1284 -20.0054 22
v -30.0834 -19.8126 22
v -30.048 -19.6178 22
v -30.0223 -19.4215 22
v -30.0063 -19.2242 22
v -30.0001 -19.0263 22
v -30.0037 -18.8284 22
v -30.0171 -18.6309 22
v -30.0402 -18.4342 22
v -30.0731 -18.239 22
v -30.1155 -18.0456 22
v -30.1675 -17.8546 22
v -30.2289 -17.6664 22
v -30.2995 -17.4814 22
v -30.3791 -17.3002 22
v -30.4677 -17.1231 22
v -30.5649 -16.9507 22
v -30.6705 -16.7832 22
v -30.7842 -16.6212 22
v -30.9059 -16.465 22
v -31.0351 -16.315 22
v -31.1716 -16.1716 22
v -31.315 -16.0351 22
v -31.465 -15.9059 22
v -31.6212 -15.7842 22
v -31.7832 -15.6705 22
v -31.9507 -15.5649 22
v -32.1231 -15.4677 22
v -32.3002 -15.3791 22
v -32.4814 -15.2995 22
v -32.6664 -15.2289 22
v -32.8546 -15.1675 22
v -33.0456 -15.1155 22
v -33.239 -15.0731 22
v -33.4342 -15.0402 22
v -33.6309 -15.0171 22
v -33.8284 -15.0037 22
v -34.0263 -15.0001 22
v -34.2242 -15.0063 22
v -34.4215 -15.0223 22
v -34.6178 -15.048 22
v -34.8126 -15.0834 22
v -35.0054 -15.1284 22
v -35.1957 -15.1829 22
v -35.3831 -15.2467 22
v -35.5671 -15.3198 22
v -35.7473 -15.4018 22
v -35.9232 -15.4927 22
v -36.0944 -15.5921 22
v -36.2604 -15.6999 22
v -36.421 -15.8158 22
v -36.5755 -15.9395 22
v -36.7238 -16.0707 22
v -36.8654 -16.2091 22
v -37 -16.3542 22
v -31.3542 -22 2.5
v -37 -16.3542 2.5
v -36.8654 -16.2091 2.5
v -36.7238 -16.0707 2.5
v -36.5755 -15.9395 2.5
v -36.421 -15.8158 2.5
v -36.2604 -15.6999 2.5
v -36.0944 -15.5921 2.5
v -35.9232 -15.4927 2.5
v -35.7473 -15.4018 2.5
v -35.5671 -15.3198 2.5
v -35.3831 -15.2467 2.5
v -35.1957 -15.1829 2.5
v -35.0054 -15.1284 2.5
v -34.8126 -15.0834 2.5
v -34.6178 -15.048 2.5
v -34.4215 -15.0223 2.5
v -34.2242 -15.0063 2.5
v -34.0263 -15.0001 2.5
v -33.8284 -15.0037 2.5
v -33.6309 -15.0171 2.5
v -33.4342 -15.0402 2.5
v -33.239 -15.0731 2.5
v -33.0456 -15.1155 2.5
v -32.8546 -15.1675 2.5
v -32.6664 -15.2289 2.5
v -32.4814 -15.2995 2.5
v -32.3002 -15.3791 2.5
v -32.1231 -15.4677 2.5
v -31.9507 -15.5649 2.5
v -31.7832 -15.6705 2.5
v -31.6212 -15.7842 2.5
v -31.465 -15.9059 2.5
v -31.315 -16.0351 2.5
v -31.1716 -16.1716 2.5
v -31.0351 -16.315 2.5
v -30.9059 -16.465 2.5
v -30.7842 -16.6212 2.5
v -30.6705 -16.7832 2.5
v -30.5649 -16.9507 2.5
v -30.4677 -17.1231 2.5
v -30.3791 -17.3002 2.5
v -30.2995 -17.4814 2.5
v -30.2289 -17.6664 2.5
v -30.1675 -17.8546 2.5
v -30.1155 -18.0456 2.5
v -30.0731 -18.239 2.5
v -30.0402 -18.4342 2.5
v -30.0171 -18.6309 2.5
v -30.0037 -18.8284 2.5
v -30.0001 -19.0263 2.5
v -30.0063 -19.2242 2.5
v -30.0223 -19.4215 2.5
v -30.048 -19.6178 2.5
v -30.0834 -19.8126 2.5
v -30.1284 -20.0054 2.5
v -30.1829 -20.1957 2.5
v -30.2467 -20.3831 2.5
v -30.3198 -20.5671 2.5
v -30.4018 -20.7473 2.5
v -30.4927 -20.9232 2.5
v -30.5921 -21.0944 2.5
v -30.6999 -21.2604 2.5
v -30.8158 -21.421 2.5
v -30.9395 -21.5755 2.5
v -31.0707 -21.7238 2.5
v -31.2091 -21.8654 2.5
v 31.3542 -22 2.5
v 31.3542 -22 22
v -31.3542 -22 2.5
v -31.3542 -22 22
v 37 -16.3542 22
v 36.8654 -16.2091 22
v 36.7238 -16.0707 22
v 36.5755 -15.9395 22
v 36.421 -15.8158 22
v 36.2604 -15.6999 22
v 36.0944 -15.5921 22
v 35.9232 -15.4927 22
v 35.7473 -15.4018 22
v 35.5671 -15.3198 22
v 35.3831 -15.2467 22
v 35.1957 -15.1829 22
v 35.0054 -15.1284 22
v 34.8126 -15.0834 22
v 34.6178 -15.048 22
v 34.4215 -15.0223 22
v 34.2242 -15.0063 22
v 34.0263 -15.0001 22
v 33.8284 -15.0037 22
v 33.6309 -15.0171 22
v 33.4342 -15.0402 22
v 33.239 -15.0731 22
v 33.0456 -15.1155 22
v 32.8546 -15.1675 22
v 32.6664 -15.2289 22
v 32.4814 -15.2995 22
v 32.3002 -15.3791 22
v 32.1231 -15.4677 22
v 31.9507 -15.5649 22
v 31.7832 -15.6705 22
v 31.6212 -15.7842 22
v 31.465 -15.9059 22
v 31.315 -16.0351 22
v 31.1716 -16.1716 22
v 31.0351 -16.315 22
v 30.9059 -16.465 22
v 30.7842 -16.6212 22
v 30.6705 -16.7832 22
v 30.5649 -16.9507 22
v 30.4677 -17.1231 22
v 30.3791 -17.3002 22
v 30.2995 -17.4814 22
v 30.2289 -17.6664 22
v 30.1675 -17.8546 22
v 30.1155 -18.0456 22
v 30.0731 -18.239 22
v 30.0402 -18.4342 22
v 30.0171 -18.6309 22
v 30.0037 -18.8284 22
v 30.0001 -19.0263 22
v 30.0063 -19.2242 22
v 30.0223 -19.4215 22
v 30.048 -19.6178 22
v 30.0834 -19.8126 22
v 30.1284 -20.0054 22
v 30.1829 -20.1957 22
v 30.2467 -20.3831 22
v 30.3198 -20.5671 22
v 30.4018 -20.7473 22
v 30.4927 -20.9232 22
v 30.5921 -21.0944 22
v 30.6999 -21.2604 22
v 30.8158 -21.421 22
v 30.9395 -21.5755 22
v 31.0707 -21.7238 22
v 31.2091 -21.8654 22
v 31.3542 -22 22
v 37 -16.3542 2.5
v 36.8654 -16.2091 2.5
v 36.7238 -16.0707 2.5
v 36.5755 -15.9395 2.5
v 36.421 -15.8158 2.5
v 36.2604 -15.6999 2.5
v 36.0944 -15.5921 2.5
v 35.9232 -15.4927 2.5
v 35.7473 -15.4018 2.5
v 35.5671 -15.3198 2.5
v 35.3831 -15.2467 2.5
v 35.1957 -15.1829 2.5
v 35.0054 -15.1284 2.5
v 34.8126 -15.0834 2.5
v 34.6178 -15.048 2.5
v 34.4215 -15.0223 2.5
v 34.2242 -15.0063 2.5
v 34.0263 -15.0001 2.5
v 33.8284 -15.0037 2.5
v 33.6309 -15.0171 2.5
v 33.4342 -15.0402 2.5
v 33.239 -15.0731 2.5
v 33.0456 -15.1155 2.5
v 32.8546 -15.1675 2.5
v 32.6664 -15.2289 2.5
v 32.4814 -15.2995 2.5
v 32.3002 -15.3791 2.5
v 32.1231 -15.4677 2.5
v 31.9507 -15.5649 2.5
v 31.7832 -15.6705 2.5
v 31.6212 -15.7842 2.5
v 31.465 -15.9059 2.5
v 31.315 -16.0351 2.5
v 31.1716 -16.1716 2.5
v 31.0351 -16.315 2.5
v 30.9059 -16.465 2.5
v 30.7842 -16.6212 2.5
v 30.6705 -16.7832 2.5
v 30.5649 -16.9507 2.5
v 30.4677 -17.1231 2.5
v 30.3791 -17.3002 2.5
v 30.2995 -17.4814 2.5
v 30.2289 -17.6664 2.5
v 30.1675 -17.8546 2.5
v 30.1155 -18.0456 2.5
v 30.0731 -18.239 2.5
v 30.0402 -18.4342 2.5
v 30.0171 -18.6309 2.5
v 30.0037 -18.8284 2.5
v 30.0001 -19.0263 2.5
v 30.0063 -19.2242 2.5
v 30.0223 -19.4215 2.5
v 30.048 -19.6178 2.5
v 30.0834 -19.8126 2.5
v 30.1284 -20.0054 2.5
v 30.1829 -20.1957 2.5
v 30.2467 -20.3831 2.5
v 30.3198 -20.5671 2.5
v 30.4018 -20.7473 2.5
v 30.4927 -20.9232 2.5
v 30.5921 -21.0944 2.5
v 30.6999 -21.2604 2.5
v 30.8158 -21.421 2.5
v 30.9395 -21.5755 2.5
v 31.0707 -21.7238 2.5
v 31.2091 -21.8654 2.5
v 31.3542 -22 2.5
v -37 -22 2.5
v -37 -21.6458 2.5
v -36.6458 -22 2.5
v -36.8869 -21.7687 2.5
v -36.7687 -21.8869 2.5
v 36.6458 -22 2.5
v 36.7687 -21.8869 2.5
v 36.8869 -21.7687 2.5
v 37 -21.6458 2.5
v 37 -22 2.5
v -37 21.6458 2.5
v -37 22 2.5
v -36.6458 22 2.5
v -36.7687 21.8869 2.5
v -36.8869 21.7687 2.5
v 37 16.3542 2.5
v 37 16.3542 22
v 31.3542 22 22
v 31.2091 21.8654 22
v 31.0707 21.7238 22
v 30.9395 21.5755 22
v 30.8158 21.421 22
v 30.6999 21.2604 22
v 30.5921 21.0944 22
v 30.4927 20.9232 22
v 30.4018 20.7473 22
v 30.3198 20.5671 22
v 30.2467 20.3831 22
v 30.1829 20.1957 22
v 30.1284 20.0054 22
v 30.0834 19.8126 22
v 30.048 19.6178 22
v 30.0223 19.4215 22
v 30.0063 19.2242 22
v 30.0001 19.0263 22
v 30.0037 18.8284 22
v 30.0171 18.6309 22
v 30.0402 18.4342 22
v 30.0731 18.239 22
v 30.1155 18.0456 22
v 30.1675 17.8546 22
v 30.2289 17.6664 22
v 30.2995 17.4814 22
v 30.3791 17.3002 22
v 30.4677 17.1231 22
v 30.5649 16.9507 22
v 30.6705 16.7832 22
v 30.7842 16.6212 22
v 30.9059 16.465 22
v 31.0351 16.315 22
v 31.1716 16.1716 22
v 31.315 16.0351 22
v 31.465 15.9059 22
v 31.6212 15.7842 22
v 31.7832 15.6705 22
v 31.9507 15.5649 22
v 32.1231 15.4677 22
v 32.3002 15.3791 22
v 32.4814 15.2995 22
v 32.6664 15.2289 22
v 32.8546 15.1675 22
v 33.0456 15.1155 22
v 33.239 15.0731 22
v 33.4342 15.0402 22
v 33.6309 15.0171 22
v 33.8284 15.0037 22
v 34.0263 15.0001 22
v 34.2242 15.0063 22
v 34.4215 15.0223 22
v 34.6178 15.048 22
v 34.8126 15.0834 22
v 35.0054 15.1284 22
v 35.1957 15.1829 22
v 35.3831 15.2467 22
v 35.5671 15.3198 22
v 35.7473 15.4018 22
v 35.9232 15.4927 22
v 36.0944 15.5921 22
v 36.2604 15.6999 22
v 36.421 15.8158 22
v 36.5755 15.9395 22
v 36.7238 16.0707 22
v 36.8654 16.2091 22
v 31.3542 22 2.5
v 31.2091 21.8654 2.5
v 31.0707 21.7238 2.5
v 30.9395 21.5755 2.5
v 30.8158 21.421 2.5
v 30.6999 21.2604 2.5
v 30.5921 21.0944 2.5
v 30.4927 20.9232 2.5
v 30.4018 20.7473 2.5
v 30.3198 20.5671 2.5
v 30.2467 20.3831 2.5
v 30.1829 20.1957 2.5
v 30.1284 20.0054 2.5
v 30.0834 19.8126 2.5
v 30.048 19.6178 2.5
v 30.0223 19.4215 2.5
v 30.0063 19.2242 2.5
v 30.0001 19.0263 2.5
v 30.0037 18.8284 2.5
v 30.0171 18.6309 2.5
v 30.0402 18.4342 2.5
v 30.0731 18.239 2.5
v 30.1155 18.0456 2.5
v 30.1675 17.8546 2.5
v 30.2289 17.6664 2.5
v 30.2995 17.4814 2.5
v 30.3791 17.3002 2.5
v 30.4677 17.1231 2.5
v 30.5649 16.9507 2.5
v 30.6705 16.7832 2.5
v 30.7842 16.6212 2.5
v 30.9059 16.465 2.5
v 31.0351 16.315 2.5
v 31.1716 16.1716 2.5
v 31.315 16.0351 2.5
v 31.465 15.9059 2.5
v 31.6212 15.7842 2.5
v 31.7832 15.6705 2.5
v 31.9507 15.5649 2.5
v 32.1231 15.4677 2.5
v 32.3002 15.3791 2.5
v 32.4814 15.2995 2.5
v 32.6664 15.2289 2.5
v 32.8546 15.1675 2.5
v 33.0456 15.1155 2.5
v 33.239 15.0731 2.5
v 33.4342 15.0402 2.5
v 33.6309 15.0171 2.5
v 33.8284 15.0037 2.5
v 34.0263 15.0001 2.5
v 34.2242 15.0063 2.5
v 34.4215 15.0223 2.5
v 34.6178 15.048 2.5
v 34.8126 15.0834 2.5
v 35.0054 15.1284 2.5
v 35.1957 15.1829 2.5
v 35.3831 15.2467 2.5
v 35.5671 15.3198 2.5
v 35.7473 15.4018 2.5
v 35.9232 15.4927 2.5
v 36.0944 15.5921 2.5
v 36.2604 15.6999 2.5
v 36.421 15.8158 2.5
v 36.5755 15.9395 2.5
v 36.7238 16.0707 2.5
v 36.8654 16.2091 2.5
v -37 -16.3542 2.5
v -37 16.3542 2.5
v -36.8654 -16.2091 2.5
v -36.7238 -16.0707 2.5
v -36.5755 -15.9395 2.5
v -36.421 -15.8158 2.5
v -36.2604 -15.6999 2.5
v -36.0944 -15.5921 2.5
v -35.9232 -15.4927 2.5
v -35.7473 -15.4018 2.5
v -35.5671 -15.3198 2.5
v -35.3831 -15.2467 2.5
v -35.1957 -15.1829 2.5
v -35.0054 -15.1284 2.5
v -34.8126 -15.0834 2.5
v -34.6178 -15.048 2.5
v -34.4215 -15.0223 2.5
v -34.2242 -15.0063 2.5
v -34.0263 -15.0001 2.5
v -33.8284 -15.0037 2.5
v -33.6309 -15.0171 2.5
v -33.4342 -15.0402 2.5
v -33.239 -15.0731 2.5
v -33.0456 -15.1155 2.5
v -32.8546 -15.1675 2.5
v -32.6664 -15.2289 2.5
v -32.4814 -15.2995 2.5
v -32.3002 -15.3791 2.5
v -32.1231 -15.4677 2.5
v -31.9507 -15.5649 2.5
v -31.7832 -15.6705 2.5
v -31.6212 -15.7842 2.5
v -31.465 -15.9059 2.5
v -31.315 -16.0351 2.5
v -31.1716 -16.1716 2.5
v -31.0351 -16.315 2.5
v -30.9059 -16.465 2.5
v -30.7842 -16.6212 2.5
v -30.6705 -16.7832 2.5
v -30.5649 -16.9507 2.5
v -30.4677 -17.1231 2.5
v -30.3791 -17.3002 2.5
v -30.2995 -17.4814 2.5
v -30.2289 -17.6664 2.5
v -30.1675 -17.8546 2.5
v -30.1155 -18.0456 2.5
v -30.0731 -18.239 2.5
v -30.0402 -18.4342 2.5
v -30.0171 -18.6309 2.5
v -30.0037 -18.8284 2.5
v -30.0001 -19.0263 2.5
v -30.0063 -19.2242 2.5
v -30.0223 -19.4215 2.5
v -30.048 -19.6178 2.5
v -30.0834 -19.8126 2.5
v -30.1284 -20.0054 2.5
v -30.1829 -20.1957 2.5
v -30.2467 -20.3831 2.5
v -30.3198 -20.5671 2.5
v -30.4018 -20.7473 2.5
v -30.4927 -20.9232 2.5
v -30.5921 -21.0944 2.5
v -30.6999 -21.2604 2.5
v -30.8158 -21.421 2.5
v -30.9395 -21.5755 2.5
v -31.0707 -21.7238 2.5
v -31.2091 -21.8654 2.5
v -31.3542 -22 2.5
v 31.3542 -22 2.5
v 37 -16.3542 2.5
v 36.8654 -16.2091 2.5
v 36.7238 -16.0707 2.5
v 36.5755 -15.9395 2.5
v 36.421 -15.8158 2.5
v 36.2604 -15.6999 2.5
v 36.0944 -15.5921 2.5
v 35.9232 -15.4927 2.5
v 35.7473 -15.4018 2.5
v 35.5671 -15.3198 2.5
v 35.3831 -15.2467 2.5
v 35.1957 -15.1829 2.5
v 35.0054 -15.1284 2.5
v 34.8126 -15.0834 2.5
v 34.6178 -15.048 2.5
v 34.4215 -15.0223 2.5
v 34.2242 -15.0063 2.5
v 34.0263 -15.0001 2.5
v 33.8284 -15.0037 2.5
v 33.6309 -15.0171 2.5
v 33.4342 -15.0402 2.5
v 33.239 -15.0731 2.5
v 33.0456 -15.1155 2.5
v 32.8546 -15.1675 2.5
v 32.6664 -15.2289 2.5
v 32.4814 -15.2995 2.5
v 32.3002 -15.3791 2.5
v 32.1231 -15.4677 2.5
v 31.9507 -15.5649 2.5
v 31.7832 -15.6705 2.5
v 31.6212 -15.7842 2.5
v 31.465 -15.9059 2.5
v 31.315 -16.0351 2.5
v 31.1716 -16.1716 2.5
v 31.0351 -16.315 2.5
v 30.9059 -16.465 2.5
v 30.7842 -16.6212 2.5
v 30.6705 -16.7832 2.5
v 30.5649 -16.9507 2.5
v 30.4677 -17.1231 2.5
v 30.3791 -17.3002 2.5
v 30.2995 -17.4814 2.5
v 30.2289 -17.6664 2.5
v 30.1675 -17.8546 2.5
v 30.1155 -18.0456 2.5
v 30.0731 -18.239 2.5
v 30.0402 -18.4342 2.5
v 30.0171 -18.6309 2.5
v 30.0037 -18.8284 2.5
v 30.0001 -19.0263 2.5
v 30.0063 -19.2242 2.5
v 30.0223 -19.4215 2.5
v 30.048 -19.6178 2.5
v 30.0834 -19.8126 2.5
v 30.1284 -20.0054 2.5
v 30.1829 -20.1957 2.5
v 30.2467 -20.3831 2.5
v 30.3198 -20.5671 2.5
v 30.4018 -20.7473 2.5
v 30.4927 -20.9232 2.5
v 30.5921 -21.0944 2.5
v 30.6999 -21.2604 2.5
v 30.8158 -21.421 2.5
v 30.9395 -21.5755 2.5
v 31.0707 -21.7238 2.5
v 31.2091 -21.8654 2.5
v 37 16.3542 2.5
v 31.3542 22 2.5
v 31.2091 21.8654 2.5
v 31.0707 21.7238 2.5
v 30.9395 21.5755 2.5
v 30.8158 21.421 2.5
v 30.6999 21.2604 2.5
v 30.5921 21.0944 2.5
v 30.4927 20.9232 2.5
v 30.4018 20.7473 2.5
v 30.3198 20.5671 2.5
v 30.2467 20.3831 2.5
v 30.1829 20.1957 2.5
v 30.1284 20.0054 2.5
v 30.0834 19.8126 2.5
v 30.048 19.6178 2.5
v 30.0223 19.4215 2.5
v 30.0063 19.2242 2.5
v 30.0001 19.0263 2.5
v 30.0037 18.8284 2.5
v 30.0171 18.6309 2.5
v 30.0402 18.4342 2.5
v 30.0731 18.239 2.5
v 30.1155 18.0456 2.5
v 30.1675 17.8546 2.5
v 30.2289 17.6664 2.5
v 30.2995 17.4814 2.5
v 30.3791 17.3002 2.5
v 30.4677 17.1231 2.5
v 30.5649 16.9507 2.5
v 30.6705 16.7832 2.5
v 30.7842 16.6212 2.5
v 30.9059 16.465 2.5
v 31.0351 16.315 2.5
v 31.1716 16.1716 2.5
v 31.315 16.0351 2.5
v 31.465 15.9059 2.5
v 31.6212 15.7842 2.5
v 31.7832 15.6705 2.5
v 31.9507 15.5649 2.5
v 32.1231 15.4677 2.5
v 32.3002 15.3791 2.5
v 32.4814 15.2995 2.5
v 32.6664 15.2289 2.5
v 32.8546 15.1675 2.5
v 33.0456 15.1155 2.5
v 33.239 15.0731 2.5
v 33.4342 15.0402 2.5
v 33.6309 15.0171 2.5
v 33.8284 15.0037 2.5
v 34.0263 15.0001 2.5
v 34.2242 15.0063 2.5
v 34.4215 15.0223 2.5
v 34.6178 15.048 2.5
v 34.8126 15.0834 2.5
v 35.0054 15.1284 2.5
v 35.1957 15.1829 2.5
v 35.3831 15.2467 2.5
v 35.5671 15.3198 2.5
v 35.7473 15.4018 2.5
v 35.9232 15.4927 2.5
v 36.0944 15.5921 2.5
v 36.2604 15.6999 2.5
v 36.421 15.8158 2.5
v 36.5755 15.9395 2.5
v 36.7238 16.0707 2.5
v 36.8654 16.2091 2.5
v -31.3542 22 2.5
v -31.2091 21.8654 2.5
v -31.0707 21.7238 2.5
v -30.9395 21.5755 2.5
v -30.8158 21.421 2.5
v -30.6999 21.2604 2.5
v -30.5921 21.0944 2.5
v -30.4927 20.9232 2.5
v -30.4018 20.7473 2.5
v -30.3198 20.5671 2.5
v -30.2467 20.3831 2.5
v -30.1829 20.1957 2.5
v -30.1284 20.0054 2.5
v -30.0834 19.8126 2.5
v -30.048 19.6178 2.5
v -30.0223 19.4215 2.5
v -30.0063 19.2242 2.5
v -30.0001 19.0263 2.5
v -30.0037 18.8284 2.5
v -30.0171 18.6309 2.5
v -30.0402 18.4342 2.5
v -30.0731 18.239 2.5
v -30.1155 18.0456 2.5
v -30.1675 17.8546 2.5
v -30.2289 17.6664 2.5
v -30.2995 17.4814 2.5
v -30.3791 17.3002 2.5
v -30.4677 17.1231 2.5
v -30.5649 16.9507 2.5
v -30.6705 16.7832 2.5
v -30.7842 16.6212 2.5
v -30.9059 16.465 2.5
v -31.0351 16.315 2.5
v -31.1716 16.1716 2.5
v -31.315 16.0351 2.5
v -31.465 15.9059 2.5
v -31.6212 15.7842 2.5
v -31.7832 15.6705 2.5
v -31.9507 15.5649 2.5
v -32.1231 15.4677 2.5
v -32.3002 15.3791 2.5
v -32.4814 15.2995 2.5
v -32.6664 15.2289 2.5
v -32.8546 15.1675 2.5
v -33.0456 15.1155 2.5
v -33.239 15.0731 2.5
v -33.4342 15.0402 2.5
v -33.6309 15.0171 2.5
v -33.8284 15.0037 2.5
v -34.0263 15.0001 2.5
v -34.2242 15.0063 2.5
v -34.4215 15.0223 2.5
v -34.6178 15.048 2.5
v -34.8126 15.0834 2.5
v -35.0054 15.1284 2.5
v -35.1957 15.1829 2.5
v -35.3831 15.2467 2.5
v -35.5671 15.3198 2.5
v -35.7473 15.4018 2.5
v -35.9232 15.4927 2.5
v -36.0944 15.5921 2.5
v -36.2604 15.6999 2.5
v -36.421 15.8158 2.5
v -36.5755 15.9395 2.5
v -36.7238 16.0707 2.5
v -36.8654 16.2091 2.5
v 37 21.6458 22
v 36.8869 21.7687 22
v 36.7687 21.8869 22
v 36.6458 22 22
v 37 21.6458 2.5
v 36.8869 21.7687 2.5
v 36.7687 21.8869 2.5
v 36.6458 22 2.5
v 36.6458 22 2.5
v 37 22 2.5
v 37 21.6458 2.5
v 36.8869 21.7687 2.5
v 36.7687 21.8869 2.5
f 2 3 1
f 2 4 3
f 8 5 6
f 8 7 5
f 14 9 13
f 17 14 15
f 17 15 16
f 17 13 9
f 96 17 9
f 162 9 14
f 162 14 17
f 160 161 162
f 98 96 97
f 159 160 162
f 99 17 96
f 99 96 98
f 158 159 162
f 157 158 162
f 156 157 162
f 102 17 99
f 102 99 100
f 102 100 101
f 155 156 162
f 104 102 103
f 153 155 162
f 153 154 155
f 152 153 162
f 106 17 102
f 106 102 104
f 106 104 105
f 108 106 107
f 149 150 151
f 149 151 152
f 109 106 108
f 148 152 162
f 148 149 152
f 111 109 110
f 111 106 109
f 146 147 148
f 146 148 162
f 113 111 112
f 113 17 106
f 113 106 111
f 143 144 145
f 143 145 146
f 115 113 114
f 142 143 146
f 141 146 162
f 141 142 146
f 117 115 116
f 117 113 115
f 139 140 141
f 119 117 118
f 119 113 117
f 137 138 139
f 137 139 141
f 121 113 119
f 121 119 120
f 121 17 113
f 136 137 141
f 123 121 122
f 133 136 141
f 133 134 135
f 133 135 136
f 133 141 162
f 126 17 121
f 126 162 17
f 126 123 124
f 126 124 125
f 126 121 123
f 130 131 132
f 130 132 133
f 128 126 127
f 129 133 162
f 129 162 126
f 129 130 133
f 129 126 128
f 163 164 165
f 163 9 162
f 169 166 167
f 169 167 168
f 170 166 169
f 172 166 170
f 172 170 171
f 174 172 173
f 176 174 175
f 180 177 178
f 180 178 179
f 183 181 182
f 186 183 184
f 186 184 185
f 188 183 186
f 188 186 187
f 190 183 188
f 190 188 189
f 192 183 190
f 192 190 191
f 27 177 180
f 27 163 165
f 27 166 172
f 27 165 166
f 27 172 174
f 27 174 176
f 27 176 177
f 195 183 192
f 195 192 193
f 195 193 194
f 196 180 181
f 196 181 183
f 196 183 195
f 10 9 163
f 10 163 27
f 24 10 27
f 197 180 196
f 23 10 24
f 23 25 26
f 23 26 27
f 198 180 197
f 200 180 198
f 200 198 199
f 201 180 200
f 201 27 180
f 203 201 202
f 207 204 205
f 207 205 206
f 209 204 207
f 209 207 208
f 211 201 203
f 211 204 209
f 211 203 204
f 211 209 210
f 213 211 212
f 214 211 213
f 216 214 215
f 216 201 211
f 216 211 214
f 218 216 217
f 220 218 219
f 220 216 218
f 221 216 220
f 223 221 222
f 223 216 221
f 224 201 216
f 224 216 223
f 224 27 201
f 226 224 225
f 226 27 224
f 229 10 23
f 229 23 27
f 229 27 226
f 228 226 227
f 228 229 226
f 92 93 94
f 92 94 95
f 90 92 95
f 90 91 92
f 89 90 95
f 87 88 89
f 86 87 89
f 82 83 84
f 82 84 85
f 81 85 86
f 81 82 85
f 80 81 86
f 77 80 86
f 77 78 79
f 77 79 80
f 75 76 77
f 74 75 77
f 73 74 77
f 72 73 77
f 72 77 86
f 71 72 86
f 70 71 86
f 70 86 89
f 69 70 89
f 67 69 89
f 67 68 69
f 63 64 65
f 63 65 66
f 62 67 89
f 62 63 66
f 62 66 67
f 11 96 9
f 11 20 95
f 11 95 96
f 18 20 11
f 19 18 11
f 60 62 89
f 60 61 62
f 59 60 89
f 56 57 58
f 56 58 59
f 56 59 89
f 55 20 21
f 55 21 22
f 55 95 20
f 55 89 95
f 55 56 89
f 53 54 55
f 53 55 22
f 51 53 22
f 51 52 53
f 47 48 49
f 47 49 50
f 47 50 51
f 43 44 45
f 43 45 46
f 43 46 47
f 43 47 51
f 41 42 43
f 41 51 22
f 41 43 51
f 40 41 22
f 40 22 19
f 37 38 39
f 36 37 39
f 36 39 40
f 35 40 19
f 35 36 40
f 32 33 34
f 28 19 11
f 31 35 19
f 31 32 34
f 31 34 35
f 30 31 19
f 30 19 28
f 261 262 263
f 260 261 263
f 267 264 265
f 267 265 266
f 268 264 267
f 268 263 264
f 268 260 263
f 269 260 268
f 257 258 259
f 257 259 260
f 270 257 260
f 270 260 269
f 271 257 270
f 253 254 255
f 253 255 256
f 253 256 257
f 252 253 257
f 252 257 271
f 252 271 272
f 275 273 274
f 251 252 272
f 276 273 275
f 276 272 273
f 276 251 272
f 248 249 250
f 247 248 250
f 281 278 279
f 281 279 280
f 282 277 278
f 282 278 281
f 244 245 246
f 244 246 247
f 243 244 247
f 243 247 250
f 284 277 282
f 284 282 283
f 285 277 284
f 241 242 243
f 241 243 250
f 240 241 250
f 240 250 251
f 240 276 277
f 240 251 276
f 288 277 285
f 288 285 286
f 288 286 287
f 288 240 277
f 237 238 239
f 235 236 237
f 292 290 291
f 234 235 237
f 234 237 239
f 293 290 292
f 293 289 290
f 233 234 239
f 232 240 288
f 232 239 240
f 232 289 293
f 232 233 239
f 232 288 289
f 231 232 293
f 231 293 294
f 300 230 231
f 300 231 294
f 298 29 296
f 298 300 294
f 298 294 295
f 298 295 29
f 298 299 300
f 12 29 28
f 12 28 11
f 12 296 29
f 12 230 300
f 12 297 296
f 12 300 297
f 12 10 230
f 230 10 229
f 304 302 301
f 304 301 303
f 308 305 306
f 308 307 305
f 310 309 311
f 310 311 312
f 314 313 315
f 314 315 316
f 320 317 319
f 318 317 320
f 321 325 326
f 322 326 327
f 322 321 326
f 323 327 328
f 323 322 327
f 324 323 328
f 330 331 329
f 330 332 331
f 334 333 335
f 334 335 336
f 340 339 342
f 340 342 343
f 341 343 344
f 341 340 343
f 338 344 337
f 338 341 344
f 348 347 345
f 346 348 345
f 349 353 354
f 350 349 354
f 351 354 355
f 351 350 354
f 352 355 356
f 352 351 355
f 358 357 359
f 358 359 360
f 362 363 361
f 362 364 363
f 366 367 365
f 366 368 367
f 370 371 369
f 370 372 371
f 374 375 373
f 374 376 375
f 377 444 510
f 378 510 509
f 378 377 510
f 379 509 508
f 379 378 509
f 380 508 507
f 380 379 508
f 381 507 506
f 381 380 507
f 382 506 505
f 382 381 506
f 383 505 504
f 383 382 505
f 384 504 503
f 384 383 504
f 385 503 502
f 385 384 503
f 386 502 501
f 386 385 502
f 387 501 500
f 387 386 501
f 388 500 499
f 388 387 500
f 389 499 498
f 389 388 499
f 390 498 497
f 390 389 498
f 391 497 496
f 391 390 497
f 392 496 495
f 392 391 496
f 393 495 494
f 393 392 495
f 394 393 494
f 394 494 493
f 395 394 493
f 395 493 492
f 396 492 491
f 396 395 492
f 397 396 491
f 397 491 490
f 398 490 489
f 398 397 490
f 399 489 488
f 399 398 489
f 400 488 487
f 400 399 488
f 401 487 486
f 401 400 487
f 402 486 485
f 402 401 486
f 403 485 484
f 403 402 485
f 404 484 483
f 404 403 484
f 405 483 482
f 405 404 483
f 406 482 481
f 406 405 482
f 407 481 480
f 407 406 481
f 408 407 480
f 409 479 478
f 409 480 479
f 409 408 480
f 410 409 478
f 410 478 477
f 411 410 477
f 412 411 477
f 412 477 476
f 413 412 476
f 413 476 475
f 414 413 475
f 414 475 474
f 415 414 474
f 415 474 473
f 416 473 472
f 416 415 473
f 417 472 471
f 417 416 472
f 418 417 471
f 418 471 470
f 419 418 470
f 419 470 469
f 420 419 469
f 420 469 468
f 421 420 468
f 421 468 467
f 422 421 467
f 422 467 466
f 423 422 466
f 423 466 465
f 424 423 465
f 424 465 464
f 425 424 464
f 425 464 463
f 426 425 463
f 426 463 462
f 427 426 462
f 427 462 461
f 428 427 461
f 428 461 460
f 429 428 460
f 429 460 459
f 430 429 459
f 430 459 458
f 431 430 458
f 431 458 457
f 432 431 457
f 432 457 456
f 433 432 456
f 433 456 455
f 434 433 455
f 434 455 454
f 435 434 454
f 435 454 453
f 436 453 452
f 436 435 453
f 437 452 451
f 437 436 452
f 438 451 450
f 438 437 451
f 439 450 449
f 439 438 450
f 440 449 448
f 440 439 449
f 441 448 447
f 441 440 448
f 442 447 446
f 442 441 447
f 443 442 446
f 443 446 445
f 512 511 513
f 512 513 514
f 515 582 648
f 516 648 647
f 516 515 648
f 517 647 646
f 517 516 647
f 518 646 645
f 518 517 646
f 519 645 644
f 519 518 645
f 520 644 643
f 520 519 644
f 521 643 642
f 521 520 643
f 522 642 641
f 522 521 642
f 523 641 640
f 523 522 641
f 524 640 639
f 524 523 640
f 525 639 638
f 525 524 639
f 526 638 637
f 526 525 638
f 527 637 636
f 527 526 637
f 528 636 635
f 528 527 636
f 529 635 634
f 529 528 635
f 530 634 633
f 530 529 634
f 531 633 632
f 531 530 633
f 532 531 632
f 532 632 631
f 533 532 631
f 533 631 630
f 534 630 629
f 534 533 630
f 535 534 629
f 535 629 628
f 536 628 627
f 536 535 628
f 537 627 626
f 537 536 627
f 538 626 625
f 538 537 626
f 539 625 624
f 539 538 625
f 540 624 623
f 540 539 624
f 541 623 622
f 541 540 623
f 542 622 621
f 542 541 622
f 543 621 620
f 543 542 621
f 544 620 619
f 544 543 620
f 545 619 618
f 545 544 619
f 546 545 618
f 547 618 617
f 547 546 618
f 548 617 616
f 548 547 617
f 548 616 615
f 549 548 615
f 550 549 615
f 550 615 614
f 551 550 614
f 551 614 613
f 552 551 613
f 552 613 612
f 553 552 612
f 553 612 611
f 554 611 610
f 554 553 611
f 555 610 609
f 555 554 610
f 556 555 609
f 556 609 608
f 557 556 608
f 557 608 607
f 558 557 607
f 558 607 606
f 559 558 606
f 559 606 605
f 560 559 605
f 560 605 604
f 561 560 604
f 561 604 603
f 562 561 603
f 562 603 602
f 563 562 602
f 563 602 601
f 564 563 601
f 564 601 600
f 565 564 600
f 565 600 599
f 566 565 599
f 566 599 598
f 567 566 598
f 567 598 597
f 568 567 597
f 568 597 596
f 569 568 596
f 569 596 595
f 570 569 595
f 570 595 594
f 571 570 594
f 571 594 593
f 572 571 593
f 572 593 592
f 573 572 592
f 573 592 591
f 574 591 590
f 574 573 591
f 575 590 589
f 575 574 590
f 576 589 588
f 576 575 589
f 577 588 587
f 577 576 588
f 578 587 586
f 578 577 587
f 579 586 585
f 579 578 586
f 580 585 584
f 580 579 585
f 581 580 584
f 581 584 583
f 650 649 651
f 650 651 652
f 653 720 721
f 654 653 721
f 654 721 722
f 655 654 722
f 655 722 723
f 656 655 723
f 656 723 724
f 657 656 724
f 657 724 725
f 658 657 725
f 658 725 726
f 659 658 726
f 659 726 727
f 660 659 727
f 660 727 728
f 661 660 728
f 661 728 729
f 662 729 730
f 662 661 729
f 663 730 731
f 663 662 730
f 664 731 732
f 664 663 731
f 665 732 733
f 665 664 732
f 666 733 734
f 666 665 733
f 667 734 735
f 667 666 734
f 668 735 736
f 668 667 735
f 669 668 736
f 669 736 737
f 670 669 737
f 670 737 738
f 671 670 738
f 671 738 739
f 672 671 739
f 672 739 740
f 673 672 740
f 673 740 741
f 674 673 741
f 674 741 742
f 675 674 742
f 676 675 742
f 676 742 743
f 677 676 743
f 677 743 744
f 678 677 744
f 678 744 745
f 679 678 745
f 679 745 746
f 680 679 746
f 680 746 747
f 681 680 747
f 681 747 748
f 682 681 748
f 682 748 749
f 683 682 749
f 683 749 750
f 684 683 750
f 684 750 751
f 685 684 751
f 685 751 752
f 686 685 752
f 686 752 753
f 687 753 754
f 687 686 753
f 688 754 755
f 688 687 754
f 689 755 756
f 689 688 755
f 690 756 757
f 690 689 756
f 691 757 758
f 691 690 757
f 692 758 759
f 692 691 758
f 693 759 760
f 693 692 759
f 694 693 760
f 694 760 761
f 695 694 761
f 695 761 762
f 696 695 762
f 696 762 763
f 697 763 764
f 697 696 763
f 698 764 765
f 698 697 764
f 699 765 766
f 699 698 765
f 700 766 767
f 700 699 766
f 701 767 768
f 701 700 767
f 702 768 769
f 702 701 768
f 703 769 770
f 703 702 769
f 704 770 771
f 704 703 770
f 705 771 772
f 705 704 771
f 706 772 773
f 706 705 772
f 707 773 774
f 707 706 773
f 708 774 775
f 708 707 774
f 709 775 776
f 709 708 775
f 710 776 777
f 710 709 776
f 711 777 778
f 711 710 777
f 712 778 779
f 712 711 778
f 713 779 780
f 713 712 779
f 714 780 781
f 714 713 780
f 715 781 782
f 715 714 781
f 716 782 783
f 716 715 782
f 717 783 784
f 717 716 783
f 718 784 785
f 718 717 784
f 719 718 785
f 719 785 786
f 790 787 791
f 789 791 787
f 788 787 790
f 796 793 792
f 794 793 796
f 795 794 796
f 798 797 801
f 800 798 801
f 799 798 800
f 804 870 871
f 805 804 871
f 805 871 872
f 806 805 872
f 806 872 873
f 807 806 873
f 807 873 874
f 808 807 874
f 808 874 875
f 809 808 875
f 809 875 876
f 810 809 876
f 810 876 877
f 811 810 877
f 811 877 878
f 812 811 878
f 812 878 879
f 813 812 879
f 813 879 880
f 814 880 881
f 814 813 880
f 815 881 882
f 815 814 881
f 816 882 883
f 816 815 882
f 817 883 884
f 817 816 883
f 818 884 885
f 818 817 884
f 819 885 886
f 819 818 885
f 820 819 886
f 820 886 887
f 821 820 887
f 821 887 888
f 822 821 888
f 822 888 889
f 823 822 889
f 823 889 890
f 824 823 890
f 824 890 891
f 825 824 891
f 825 891 892
f 826 825 892
f 826 892 893
f 827 826 893
f 827 893 894
f 828 827 894
f 828 894 895
f 829 828 895
f 829 895 896
f 830 829 896
f 830 896 897
f 831 830 897
f 831 897 898
f 832 831 898
f 832 898 899
f 833 832 899
f 833 899 900
f 834 833 900
f 834 900 901
f 835 834 901
f 835 901 902
f 836 902 903
f 836 835 902
f 837 903 904
f 837 836 903
f 838 904 905
f 838 837 904
f 839 905 906
f 839 838 905
f 840 906 907
f 840 839 906
f 841 907 908
f 841 840 907
f 842 908 909
f 842 841 908
f 843 909 910
f 843 842 909
f 844 910 911
f 844 843 910
f 845 844 911
f 845 911 912
f 846 845 912
f 846 912 913
f 847 913 914
f 847 846 913
f 848 914 915
f 848 847 914
f 849 848 915
f 849 915 916
f 850 849 916
f 851 916 917
f 851 850 916
f 852 917 918
f 852 851 917
f 853 918 919
f 853 919 920
f 853 852 918
f 854 853 920
f 855 920 921
f 855 854 920
f 856 921 922
f 856 855 921
f 857 922 923
f 857 856 922
f 858 923 924
f 858 924 925
f 858 857 923
f 859 858 925
f 860 925 926
f 860 859 925
f 861 926 927
f 861 860 926
f 862 927 928
f 862 861 927
f 863 928 929
f 863 862 928
f 864 929 930
f 864 863 929
f 865 930 931
f 865 864 930
f 866 931 932
f 866 865 931
f 867 932 933
f 867 866 932
f 868 933 934
f 868 867 933
f 869 934 935
f 869 868 934
f 803 935 802
f 803 869 935
f 1203 938 939
f 1202 1203 939
f 937 936 938
f 937 938 1203
f 1201 1202 939
f 1201 939 940
f 1200 940 941
f 1200 1201 940
f 1199 941 942
f 1199 942 943
f 1199 1200 941
f 1198 1199 943
f 1197 943 944
f 1197 1198 943
f 1196 944 945
f 1196 945 946
f 1196 1197 944
f 1195 1196 946
f 1194 946 947
f 1194 1195 946
f 1193 947 948
f 1193 1194 947
f 1192 948 949
f 1192 1193 948
f 1191 1192 949
f 1191 949 950
f 1190 950 951
f 1190 1191 950
f 1189 951 952
f 1189 1190 951
f 1188 952 953
f 1188 1189 952
f 1187 953 954
f 1187 1188 953
f 1186 954 955
f 1186 955 956
f 1186 1187 954
f 1185 1186 956
f 1184 956 957
f 1184 1185 956
f 1183 957 958
f 1183 1184 957
f 1182 958 959
f 1182 1183 958
f 1181 959 960
f 1181 1182 959
f 1180 960 961
f 1180 1181 960
f 1179 961 962
f 1179 1180 961
f 1178 962 963
f 1178 963 964
f 1178 1179 962
f 1177 1178 964
f 1176 964 965
f 1176 1177 964
f 1175 965 966
f 1175 1176 965
f 1174 966 967
f 1174 1175 966
f 1173 967 968
f 1173 968 969
f 1173 1174 967
f 1172 1173 969
f 1171 969 970
f 1171 970 971
f 1171 1172 969
f 1170 1171 971
f 1169 971 972
f 1169 972 973
f 1169 1170 971
f 1168 1169 973
f 1167 973 974
f 1167 1168 973
f 1166 1167 974
f 1166 974 975
f 1166 975 976
f 1165 1166 976
f 1070 1001 1002
f 1069 1000 1001
f 1069 1001 1070
f 1004 1070 1002
f 1004 1002 1003
f 1068 1000 1069
f 1067 1000 1068
f 1067 998 999
f 1067 999 1000
f 1066 998 1067
f 1065 998 1066
f 1065 997 998
f 1064 997 1065
f 1064 996 997
f 1063 996 1064
f 1063 994 995
f 1063 995 996
f 1062 994 1063
f 1062 993 994
f 1061 993 1062
f 1060 993 1061
f 1060 991 992
f 1060 992 993
f 1059 991 1060
f 1058 990 991
f 1058 991 1059
f 1057 989 990
f 1057 990 1058
f 1056 988 989
f 1056 989 1057
f 1055 987 988
f 1055 988 1056
f 1054 987 1055
f 1054 986 987
f 1053 985 986
f 1053 986 1054
f 1052 985 1053
f 1052 984 985
f 1051 982 983
f 1051 983 984
f 1051 984 1052
f 1050 982 1051
f 1049 981 982
f 1049 982 1050
f 1048 979 980
f 1048 980 981
f 1048 981 1049
f 1047 979 1048
f 1046 978 979
f 1046 979 1047
f 1045 977 978
f 1045 978 1046
f 1044 976 977
f 1044 977 1045
f 1106 1038 1037
f 1106 1105 1038
f 1104 1039 1038
f 1104 1038 1105
f 1107 1106 1037
f 1107 1037 1036
f 1103 1040 1039
f 1103 1039 1104
f 1108 1107 1036
f 1108 1035 1034
f 1108 1036 1035
f 1102 1041 1040
f 1102 1040 1103
f 1109 1108 1034
f 1101 1042 1041
f 1101 1041 1102
f 1110 1109 1034
f 1110 1034 1033
f 1100 1043 1042
f 1100 1042 1101
f 1111 1110 1033
f 1111 1033 1032
f 1099 1044 1043
f 1099 1164 1165
f 1099 976 1044
f 1099 1165 976
f 1099 1043 1100
f 1112 1111 1032
f 1112 1032 1031
f 1098 1163 1164
f 1098 1164 1099
f 1113 1030 1029
f 1113 1031 1030
f 1113 1112 1031
f 1097 1163 1098
f 1114 1029 1028
f 1114 1113 1029
f 1096 1161 1162
f 1096 1162 1163
f 1096 1163 1097
f 1115 1114 1028
f 1095 1161 1096
f 1116 1028 1027
f 1116 1115 1028
f 1094 1160 1161
f 1094 1161 1095
f 1117 1116 1027
f 1117 1027 1026
f 1093 1160 1094
f 1093 1158 1159
f 1093 1159 1160
f 1118 1117 1026
f 1118 1026 1025
f 1092 1158 1093
f 1119 1118 1025
f 1119 1024 1023
f 1119 1025 1024
f 1091 1156 1157
f 1091 1157 1158
f 1091 1158 1092
f 1120 1119 1023
f 1120 1023 1022
f 1090 1156 1091
f 1121 1120 1022
f 1089 1154 1155
f 1089 1155 1156
f 1089 1156 1090
f 1122 1121 1022
f 1122 1021 1020
f 1122 1022 1021
f 1088 1153 1154
f 1088 1154 1089
f 1123 1122 1020
f 1123 1020 1019
f 1087 1153 1088
f 1124 1123 1019
f 1124 1019 1018
f 1086 1151 1152
f 1086 1152 1153
f 1086 1153 1087
f 1125 1124 1018
f 1085 1151 1086
f 1126 1125 1018
f 1126 1018 1017
f 1084 1149 1150
f 1084 1150 1151
f 1084 1151 1085
f 1127 1126 1017
f 1127 1017 1016
f 1083 1149 1084
f 1128 1127 1016
f 1128 1016 1015
f 1082 1147 1148
f 1082 1148 1149
f 1082 1149 1083
f 1129 1128 1015
f 1129 1014 1013
f 1129 1015 1014
f 1081 1147 1082
f 1081 1146 1147
f 1130 1129 1013
f 1080 1146 1081
f 1131 1012 1011
f 1131 1013 1012
f 1131 1130 1013
f 1079 1145 1146
f 1079 1146 1080
f 1132 1131 1011
f 1132 1011 1010
f 1078 1144 1145
f 1078 1145 1079
f 1133 1010 1009
f 1133 1132 1010
f 1077 1142 1143
f 1077 1143 1144
f 1077 1144 1078
f 1134 1133 1009
f 1076 1142 1077
f 1135 1009 1008
f 1135 1134 1009
f 1075 1140 1141
f 1075 1141 1142
f 1075 1142 1076
f 1136 1007 1006
f 1136 1008 1007
f 1136 1135 1008
f 1074 1139 1140
f 1074 1140 1075
f 1137 1136 1006
f 1073 1139 1074
f 1071 1006 1005
f 1071 1137 1006
f 1072 1138 1073
f 1073 1138 1139
f 1204 1208 1209
f 1205 1209 1210
f 1205 1204 1209
f 1206 1210 1211
f 1206 1205 1210
f 1207 1206 1211
f 1213 1215 1214
f 1213 1216 1215
f 1213 1212 1216
