# Cadless export: model
v 34 -6.12323e-15 -25
v 34 1.24615 -24.9689
v 34 2.4892 -24.8758
v 34 3.72606 -24.7208
v 34 4.95365 -24.5043
v 34 6.16893 -24.2269
v 34 7.36888 -23.8893
v 34 8.5505 -23.4923
v 34 9.71087 -23.0369
v 34 10.8471 -22.5242
v 34 11.9563 -21.9555
v 34 13.0359 -21.3323
v 34 14.083 -20.656
v 34 15.0951 -19.9283
v 34 16.0697 -19.1511
v 34 17.0043 -18.3263
v 34 17.8967 -17.4559
v 34 18.7445 -16.5421
v 34 19.5458 -15.5872
v 34 20.2985 -14.5936
v 34 21.0006 -13.5637
v 34 21.6506 -12.5
v 34 22.2468 -11.4053
v 34 22.7876 -10.2822
v 34 23.2718 -9.13353
v 34 23.6982 -7.96217
v 34 24.0656 -6.77101
v 34 24.3732 -5.56302
v 34 24.6202 -4.3412
v 34 24.806 -3.10859
v 34 24.9301 -1.86825
v 34 24.9922 -0.623267
v 34 24.9922 0.623267
v 34 24.9301 1.86825
v 34 24.806 3.10859
v 34 24.6202 4.3412
v 34 24.3732 5.56302
v 34 24.0656 6.77101
v 34 23.6982 7.96217
v 34 23.2718 9.13353
v 34 22.7876 10.2822
v 34 22.2468 11.4053
v 34 21.6506 12.5
v 34 21.0006 13.5637
v 34 20.2985 14.5936
v 34 19.5458 15.5872
v 34 18.7445 16.5421
v 34 17.8967 17.4559
v 34 17.0043 18.3263
v 34 16.0697 19.1511
v 34 15.0951 19.9283
v 34 14.083 20.656
v 34 13.0359 21.3323
v 34 11.9563 21.9555
v 34 10.8471 22.5242
v 34 9.71087 23.0369
v 34 8.5505 23.4923
v 34 7.36888 23.8893
v 34 6.16893 24.2269
v 34 4.95365 24.5043
v 34 3.72606 24.7208
v 34 2.4892 24.8758
v 34 1.24615 24.9689
v 34 -8.57562e-14 25
v 34 -1.24615 24.9689
v 34 -2.4892 24.8758
v 34 -3.72606 24.7208
v 34 -4.95365 24.5043
v 34 -6.16893 24.2269
v 34 -7.36888 23.8893
v 34 -8.5505 23.4923
v 34 -9.71087 23.0369
v 34 -10.8471 22.5242
v 34 -11.9563 21.9555
v 34 -13.0359 21.3323
v 34 -14.083 20.656
v 34 -15.0951 19.9283
v 34 -16.0697 19.1511
v 34 -17.0043 18.3263
v 34 -17.8967 17.4559
v 34 -18.7445 16.5421
v 34 -19.5458 15.5872
v 34 -20.2985 14.5936
v 34 -21.0006 13.5637
v 34 -21.6506 12.5
v 34 -22.2468 11.4053
v 34 -22.7876 10.2822
v 34 -23.2718 9.13353
v 34 -23.6982 7.96217
v 34 -24.0656 6.77101
v 34 -24.3732 5.56302
v 34 -24.6202 4.3412
v 34 -24.806 3.10859
v 34 -24.9301 1.86825
v 34 -24.9922 0.623267
v 34 -24.9922 -0.623267
v 34 -24.9301 -1.86825
v 34 -24.806 -3.10859
v 34 -24.6202 -4.3412
v 34 -24.3732 -5.56302
v 34 -24.0656 -6.77101
v 34 -23.6982 -7.96217
v 34 -23.2718 -9.13353
v 34 -22.7876 -10.2822
v 34 -22.2468 -11.4053
v 34 -21.6506 -12.5
v 34 -21.0006 -13.5637
v 34 -20.2985 -14.5936
v 34 -19.5458 -15.5872
v 34 -18.7445 -16.5421
v 34 -17.8967 -17.4559
v 34 -17.0043 -18.3263
v 34 -16.0697 -19.1511
v 34 -15.0951 -19.9283
v 34 -14.083 -20.656
v 34 -13.0359 -21.3323
v 34 -11.9563 -21.9555
v 34 -10.8471 -22.5242
v 34 -9.71087 -23.0369
v 34 -8.5505 -23.4923
v 34 -7.36888 -23.8893
v 34 -6.16893 -24.2269
v 34 -4.95365 -24.5043
v 34 -3.72606 -24.7208
v 34 -2.4892 -24.8758
v 34 -1.24615 -24.9689
v 34 -6.12323e-15 -25
v 2.77556e-15 -6.12323e-15 -25
v 2.77211e-15 1.24615 -24.9689
v 2.76177e-15 2.4892 -24.8758
v 2.74456e-15 3.72606 -24.7208
v 2.72053e-15 4.95365 -24.5043
v 2.68973e-15 6.16893 -24.2269
v 2.65225e-15 7.36888 -23.8893
v 2.60817e-15 8.5505 -23.4923
v 2.55761e-15 9.71087 -23.0369
v 2.50069e-15 10.8471 -22.5242
v 2.43755e-15 11.9563 -21.9555
v 2.36836e-15 13.0359 -21.3323
v 2.29327e-15 14.083 -20.656
v 2.21249e-15 15.0951 -19.9283
v 2.1262e-15 16.0697 -19.1511
v 2.03463e-15 17.0043 -18.3263
v 1.938e-15 17.8967 -17.4559
v 1.83655e-15 18.7445 -16.5421
v 1.73053e-15 19.5458 -15.5872
v 1.62021e-15 20.2985 -14.5936
v 1.50587e-15 21.0006 -13.5637
v 1.38778e-15 21.6506 -12.5
v 1.26624e-15 22.2468 -11.4053
v 1.14155e-15 22.7876 -10.2822
v 1.01403e-15 23.2718 -9.13353
v 8.83978e-16 23.6982 -7.96217
v 7.51733e-16 24.0656 -6.77101
v 6.1762e-16 24.3732 -5.56302
v 4.81971e-16 24.6202 -4.3412
v 3.45123e-16 24.806 -3.10859
v 2.07418e-16 24.9301 -1.86825
v 6.91966e-17 24.9922 -0.623267
v -6.91966e-17 24.9922 0.623267
v -2.07418e-16 24.9301 1.86825
v -3.45123e-16 24.806 3.10859
v -4.81971e-16 24.6202 4.3412
v -6.1762e-16 24.3732 5.56302
v -7.51733e-16 24.0656 6.77101
v -8.83978e-16 23.6982 7.96217
v -1.01403e-15 23.2718 9.13353
v -1.14155e-15 22.7876 10.2822
v -1.26624e-15 22.2468 11.4053
v -1.38778e-15 21.6506 12.5
v -1.50587e-15 21.0006 13.5637
v -1.62021e-15 20.2985 14.5936
v -1.73053e-15 19.5458 15.5872
v -1.83655e-15 18.7445 16.5421
v -1.938e-15 17.8967 17.4559
v -2.03463e-15 17.0043 18.3263
v -2.1262e-15 16.0697 19.1511
v -2.21249e-15 15.0951 19.9283
v -2.29327e-15 14.083 20.656
v -2.36836e-15 13.0359 21.3323
v -2.43755e-15 11.9563 21.9555
v -2.50069e-15 10.8471 22.5242
v -2.55761e-15 9.71087 23.0369
v -2.60817e-15 8.5505 23.4923
v -2.65225e-15 7.36888 23.8893
v -2.68973e-15 6.16893 24.2269
v -2.72053e-15 4.95365 24.5043
v -2.74456e-15 3.72606 24.7208
v -2.76177e-15 2.4892 24.8758
v -2.77211e-15 1.24615 24.9689
v -2.77556e-15 -8.57562e-14 25
v -2.77211e-15 -1.24615 24.9689
v -2.76177e-15 -2.4892 24.8758
v -2.74456e-15 -3.72606 24.7208
v -2.72053e-15 -4.95365 24.5043
v -2.68973e-15 -6.16893 24.2269
v -2.65225e-15 -7.36888 23.8893
v -2.60817e-15 -8.5505 23.4923
v -2.55761e-15 -9.71087 23.0369
v -2.50069e-15 -10.8471 22.5242
v -2.43755e-15 -11.9563 21.9555
v -2.36836e-15 -13.0359 21.3323
v -2.29327e-15 -14.083 20.656
v -2.21249e-15 -15.0951 19.9283
v -2.1262e-15 -16.0697 19.1511
v -2.03463e-15 -17.0043 18.3263
v -1.938e-15 -17.8967 17.4559
v -1.83655e-15 -18.7445 16.5421
v -1.73053e-15 -19.5458 15.5872
v -1.62021e-15 -20.2985 14.5936
v -1.50587e-15 -21.0006 13.5637
v -1.38778e-15 -21.6506 12.5
v -1.26624e-15 -22.2468 11.4053
v -1.14155e-15 -22.7876 10.2822
v -1.01403e-15 -23.2718 9.13353
v -8.83978e-16 -23.6982 7.96217
v -7.51733e-16 -24.0656 6.77101
v -6.1762e-16 -24.3732 5.56302
v -4.81971e-16 -24.6202 4.3412
v -3.45123e-16 -24.806 3.10859
v -2.07418e-16 -24.9301 1.86825
v -6.91966e-17 -24.9922 0.623267
v 6.91966e-17 -24.9922 -0.623267
v 2.07418e-16 -24.9301 -1.86825
v 3.45123e-16 -24.806 -3.10859
v 4.81971e-16 -24.6202 -4.3412
v 6.1762e-16 -24.3732 -5.56302
v 7.51733e-16 -24.0656 -6.77101
v 8.83978e-16 -23.6982 -7.96217
v 1.01403e-15 -23.2718 -9.13353
v 1.14155e-15 -22.7876 -10.2822
v 1.26624e-15 -22.2468 -11.4053
v 1.38778e-15 -21.6506 -12.5
v 1.50587e-15 -21.0006 -13.5637
v 1.62021e-15 -20.2985 -14.5936
v 1.73053e-15 -19.5458 -15.5872
v 1.83655e-15 -18.7445 -16.5421
v 1.938e-15 -17.8967 -17.4559
v 2.03463e-15 -17.0043 -18.3263
v 2.1262e-15 -16.0697 -19.1511
v 2.21249e-15 -15.0951 -19.9283
v 2.29327e-15 -14.083 -20.656
v 2.36836e-15 -13.0359 -21.3323
v 2.43755e-15 -11.9563 -21.9555
v 2.50069e-15 -10.8471 -22.5242
v 2.55761e-15 -9.71087 -23.0369
v 2.60817e-15 -8.5505 -23.4923
v 2.65225e-15 -7.36888 -23.8893
v 2.68973e-15 -6.16893 -24.2269
v 2.72053e-15 -4.95365 -24.5043
v 2.74456e-15 -3.72606 -24.7208
v 2.76177e-15 -2.4892 -24.8758
v 2.77211e-15 -1.24615 -24.9689
v 2.77556e-15 -6.12323e-15 -25
v 34 -6.12323e-15 -25
v 34 1.24615 -24.9689
v 34 2.4892 -24.8758
v 34 3.72606 -24.7208
v 34 4.95365 -24.5043
v 34 6.16893 -24.2269
v 34 7.36888 -23.8893
v 34 8.5505 -23.4923
v 34 9.71087 -23.0369
v 34 10.8471 -22.5242
v 34 11.9563 -21.9555
v 34 13.0359 -21.3323
v 34 14.083 -20.656
v 34 15.0951 -19.9283
v 34 16.0697 -19.1511
v 34 17.0043 -18.3263
v 34 17.8967 -17.4559
v 34 18.7445 -16.5421
v 34 19.5458 -15.5872
v 34 20.2985 -14.5936
v 34 21.0006 -13.5637
v 34 21.6506 -12.5
v 34 22.2468 -11.4053
v 34 22.7876 -10.2822
v 34 23.2718 -9.13353
v 34 23.6982 -7.96217
v 34 24.0656 -6.77101
v 34 24.3732 -5.56302
v 34 24.6202 -4.3412
v 34 24.806 -3.10859
v 34 24.9301 -1.86825
v 34 24.9922 -0.623267
v 34 24.9922 0.623267
v 34 24.9301 1.86825
v 34 24.806 3.10859
v 34 24.6202 4.3412
v 34 24.3732 5.56302
v 34 24.0656 6.77101
v 34 23.6982 7.96217
v 34 23.2718 9.13353
v 34 22.7876 10.2822
v 34 22.2468 11.4053
v 34 21.6506 12.5
v 34 21.0006 13.5637
v 34 20.2985 14.5936
v 34 19.5458 15.5872
v 34 18.7445 16.5421
v 34 17.8967 17.4559
v 34 17.0043 18.3263
v 34 16.0697 19.1511
v 34 15.0951 19.9283
v 34 14.083 20.656
v 34 13.0359 21.3323
v 34 11.9563 21.9555
v 34 10.8471 22.5242
v 34 9.71087 23.0369
v 34 8.5505 23.4923
v 34 7.36888 23.8893
v 34 6.16893 24.2269
v 34 4.95365 24.5043
v 34 3.72606 24.7208
v 34 2.4892 24.8758
v 34 1.24615 24.9689
v 34 -8.57562e-14 25
v 34 -1.24615 24.9689
v 34 -2.4892 24.8758
v 34 -3.72606 24.7208
v 34 -4.95365 24.5043
v 34 -6.16893 24.2269
v 34 -7.36888 23.8893
v 34 -8.5505 23.4923
v 34 -9.71087 23.0369
v 34 -10.8471 22.5242
v 34 -11.9563 21.9555
v 34 -13.0359 21.3323
v 34 -14.083 20.656
v 34 -15.0951 19.9283
v 34 -16.0697 19.1511
v 34 -17.0043 18.3263
v 34 -17.8967 17.4559
v 34 -18.7445 16.5421
v 34 -19.5458 15.5872
v 34 -20.2985 14.5936
v 34 -21.0006 13.5637
v 34 -21.6506 12.5
v 34 -22.2468 11.4053
v 34 -22.7876 10.2822
v 34 -23.2718 9.13353
v 34 -23.6982 7.96217
v 34 -24.0656 6.77101
v 34 -24.3732 5.56302
v 34 -24.6202 4.3412
v 34 -24.806 3.10859
v 34 -24.9301 1.86825
v 34 -24.9922 0.623267
v 34 -24.9922 -0.623267
v 34 -24.9301 -1.86825
v 34 -24.806 -3.10859
v 34 -24.6202 -4.3412
v 34 -24.3732 -5.56302
v 34 -24.0656 -6.77101
v 34 -23.6982 -7.96217
v 34 -23.2718 -9.13353
v 34 -22.7876 -10.2822
v 34 -22.2468 -11.4053
v 34 -21.6506 -12.5
v 34 -21.0006 -13.5637
v 34 -20.2985 -14.5936
v 34 -19.5458 -15.5872
v 34 -18.7445 -16.5421
v 34 -17.8967 -17.4559
v 34 -17.0043 -18.3263
v 34 -16.0697 -19.1511
v 34 -15.0951 -19.9283
v 34 -14.083 -20.656
v 34 -13.0359 -21.3323
v 34 -11.9563 -21.9555
v 34 -10.8471 -22.5242
v 34 -9.71087 -23.0369
v 34 -8.5505 -23.4923
v 34 -7.36888 -23.8893
v 34 -6.16893 -24.2269
v 34 -4.95365 -24.5043
v 34 -3.72606 -24.7208
v 34 -2.4892 -24.8758
v 34 -1.24615 -24.9689
v 2.77556e-15 -6.12323e-15 -25
v 2.77211e-15 1.24615 -24.9689
v 2.76177e-15 2.4892 -24.8758
v 2.74456e-15 3.72606 -24.7208
v 2.72053e-15 4.95365 -24.5043
v 2.68973e-15 6.16893 -24.2269
v 2.65225e-15 7.36888 -23.8893
v 2.60817e-15 8.5505 -23.4923
v 2.55761e-15 9.71087 -23.0369
v 2.50069e-15 10.8471 -22.5242
v 2.43755e-15 11.9563 -21.9555
v 2.36836e-15 13.0359 -21.3323
v 2.29327e-15 14.083 -20.656
v 2.21249e-15 15.0951 -19.9283
v 2.1262e-15 16.0697 -19.1511
v 2.03463e-15 17.0043 -18.3263
v 1.938e-15 17.8967 -17.4559
v 1.83655e-15 18.7445 -16.5421
v 1.73053e-15 19.5458 -15.5872
v 1.62021e-15 20.2985 -14.5936
v 1.50587e-15 21.0006 -13.5637
v 1.38778e-15 21.6506 -12.5
v 1.26624e-15 22.2468 -11.4053
v 1.14155e-15 22.7876 -10.2822
v 1.01403e-15 23.2718 -9.13353
v 8.83978e-16 23.6982 -7.96217
v 7.51733e-16 24.0656 -6.77101
v 6.1762e-16 24.3732 -5.56302
v 4.81971e-16 24.6202 -4.3412
v 3.45123e-16 24.806 -3.10859
v 2.07418e-16 24.9301 -1.86825
v 6.91966e-17 24.9922 -0.623267
v -6.91966e-17 24.9922 0.623267
v -2.07418e-16 24.9301 1.86825
v -3.45123e-16 24.806 3.10859
v -4.81971e-16 24.6202 4.3412
v -6.1762e-16 24.3732 5.56302
v -7.51733e-16 24.0656 6.77101
v -8.83978e-16 23.6982 7.96217
v -1.01403e-15 23.2718 9.13353
v -1.14155e-15 22.7876 10.2822
v -1.26624e-15 22.2468 11.4053
v -1.38778e-15 21.6506 12.5
v -1.50587e-15 21.0006 13.5637
v -1.62021e-15 20.2985 14.5936
v -1.73053e-15 19.5458 15.5872
v -1.83655e-15 18.7445 16.5421
v -1.938e-15 17.8967 17.4559
v -2.03463e-15 17.0043 18.3263
v -2.1262e-15 16.0697 19.1511
v -2.21249e-15 15.0951 19.9283
v -2.29327e-15 14.083 20.656
v -2.36836e-15 13.0359 21.3323
v -2.43755e-15 11.9563 21.9555
v -2.50069e-15 10.8471 22.5242
v -2.55761e-15 9.71087 23.0369
v -2.60817e-15 8.5505 23.4923
v -2.65225e-15 7.36888 23.8893
v -2.68973e-15 6.16893 24.2269
v -2.72053e-15 4.95365 24.5043
v -2.74456e-15 3.72606 24.7208
v -2.76177e-15 2.4892 24.8758
v -2.77211e-15 1.24615 24.9689
v -2.77556e-15 -8.57562e-14 25
v -2.77211e-15 -1.24615 24.9689
v -2.76177e-15 -2.4892 24.8758
v -2.74456e-15 -3.72606 24.7208
v -2.72053e-15 -4.95365 24.5043
v -2.68973e-15 -6.16893 24.2269
v -2.65225e-15 -7.36888 23.8893
v -2.60817e-15 -8.5505 23.4923
v -2.55761e-15 -9.71087 23.0369
v -2.50069e-15 -10.8471 22.5242
v -2.43755e-15 -11.9563 21.9555
v -2.36836e-15 -13.0359 21.3323
v -2.29327e-15 -14.083 20.656
v -2.21249e-15 -15.0951 19.9283
v -2.1262e-15 -16.0697 19.1511
v -2.03463e-15 -17.0043 18.3263
v -1.938e-15 -17.8967 17.4559
v -1.83655e-15 -18.7445 16.5421
v -1.73053e-15 -19.5458 15.5872
v -1.62021e-15 -20.2985 14.5936
v -1.50587e-15 -21.0006 13.5637
v -1.38778e-15 -21.6506 12.5
v -1.26624e-15 -22.2468 11.4053
v -1.14155e-15 -22.7876 10.2822
v -1.01403e-15 -23.2718 9.13353
v -8.83978e-16 -23.6982 7.96217
v -7.51733e-16 -24.0656 6.77101
v -6.1762e-16 -24.3732 5.56302
v -4.81971e-16 -24.6202 4.3412
v -3.45123e-16 -24.806 3.10859
v -2.07418e-16 -24.9301 1.86825
v -6.91966e-17 -24.9922 0.623267
v 6.91966e-17 -24.9922 -0.623267
v 2.07418e-16 -24.9301 -1.86825
v 3.45123e-16 -24.806 -3.10859
v 4.81971e-16 -24.6202 -4.3412
v 6.1762e-16 -24.3732 -5.56302
v 7.51733e-16 -24.0656 -6.77101
v 8.83978e-16 -23.6982 -7.96217
v 1.01403e-15 -23.2718 -9.13353
v 1.14155e-15 -22.7876 -10.2822
v 1.26624e-15 -22.2468 -11.4053
v 1.38778e-15 -21.6506 -12.5
v 1.50587e-15 -21.0006 -13.5637
v 1.62021e-15 -20.2985 -14.5936
v 1.73053e-15 -19.5458 -15.5872
v 1.83655e-15 -18.7445 -16.5421
v 1.938e-15 -17.8967 -17.4559
v 2.03463e-15 -17.0043 -18.3263
v 2.1262e-15 -16.0697 -19.1511
v 2.21249e-15 -15.0951 -19.9283
v 2.29327e-15 -14.083 -20.656
v 2.36836e-15 -13.0359 -21.3323
v 2.43755e-15 -11.9563 -21.9555
v 2.50069e-15 -10.8471 -22.5242
v 2.55761e-15 -9.71087 -23.0369
v 2.60817e-15 -8.5505 -23.4923
v 2.65225e-15 -7.36888 -23.8893
v 2.68973e-15 -6.16893 -24.2269
v 2.72053e-15 -4.95365 -24.5043
v 2.74456e-15 -3.72606 -24.7208
v 2.76177e-15 -2.4892 -24.8758
v 2.77211e-15 -1.24615 -24.9689
f 1 128 129
f 2 1 129
f 3 129 130
f 3 2 129
f 4 130 131
f 4 131 132
f 4 3 130
f 5 4 132
f 6 132 133
f 6 5 132
f 7 133 134
f 7 6 133
f 8 134 135
f 8 7 134
f 9 135 136
f 9 8 135
f 10 136 137
f 10 9 136
f 11 137 138
f 11 138 139
f 11 10 137
f 12 11 139
f 13 12 139
f 13 139 140
f 14 13 140
f 14 140 141
f 15 14 141
f 15 141 142
f 16 15 142
f 16 142 143
f 17 16 143
f 17 143 144
f 18 17 144
f 18 144 145
f 18 145 146
f 19 18 146
f 19 146 147
f 20 19 147
f 21 20 147
f 21 147 148
f 22 21 148
f 22 148 149
f 23 22 149
f 23 149 150
f 23 150 151
f 24 151 152
f 24 23 151
f 25 152 153
f 25 24 152
f 26 25 153
f 27 153 154
f 27 26 153
f 28 154 155
f 28 27 154
f 29 155 156
f 29 28 155
f 30 156 157
f 30 29 156
f 31 157 158
f 31 158 159
f 31 30 157
f 32 159 160
f 32 31 159
f 33 32 160
f 34 160 161
f 34 33 160
f 35 161 162
f 35 34 161
f 36 162 163
f 36 35 162
f 37 163 164
f 37 36 163
f 38 37 164
f 38 164 165
f 39 38 165
f 39 165 166
f 39 166 167
f 40 39 167
f 41 40 167
f 41 167 168
f 42 41 168
f 42 168 169
f 42 169 170
f 43 42 170
f 44 43 170
f 44 170 171
f 44 171 172
f 45 44 172
f 45 172 173
f 46 45 173
f 47 46 173
f 47 173 174
f 47 174 175
f 48 47 175
f 49 48 175
f 49 175 176
f 49 176 177
f 50 49 177
f 51 50 177
f 51 177 178
f 52 51 178
f 52 178 179
f 53 52 179
f 53 179 180
f 53 180 181
f 54 53 181
f 55 54 181
f 55 181 182
f 56 55 182
f 56 182 183
f 56 183 184
f 57 56 184
f 58 57 184
f 58 184 185
f 58 185 186
f 59 58 186
f 60 186 187
f 60 59 186
f 61 187 188
f 61 60 187
f 62 188 189
f 62 61 188
f 63 62 189
f 63 189 190
f 63 190 191
f 64 63 191
f 65 64 191
f 65 191 192
f 66 65 192
f 66 192 193
f 67 66 193
f 67 193 194
f 68 67 194
f 68 194 195
f 69 68 195
f 69 195 196
f 69 196 197
f 70 69 197
f 71 70 197
f 71 197 198
f 72 71 198
f 72 198 199
f 73 72 199
f 73 199 200
f 74 73 200
f 74 200 201
f 74 201 202
f 75 202 203
f 75 74 202
f 76 75 203
f 77 203 204
f 77 76 203
f 78 204 205
f 78 77 204
f 79 205 206
f 79 206 207
f 79 78 205
f 80 79 207
f 81 207 208
f 81 80 207
f 82 208 209
f 82 209 210
f 82 81 208
f 83 82 210
f 84 210 211
f 84 83 210
f 85 211 212
f 85 84 211
f 86 212 213
f 86 85 212
f 87 213 214
f 87 86 213
f 88 214 215
f 88 215 216
f 88 87 214
f 89 88 216
f 90 89 216
f 90 216 217
f 91 90 217
f 91 217 218
f 92 91 218
f 92 218 219
f 92 219 220
f 93 92 220
f 94 220 221
f 94 93 220
f 95 221 222
f 95 94 221
f 96 222 223
f 96 223 224
f 96 95 222
f 97 96 224
f 98 224 225
f 98 97 224
f 99 225 226
f 99 226 227
f 99 98 225
f 100 99 227
f 101 227 228
f 101 228 229
f 101 100 227
f 102 101 229
f 103 229 230
f 103 102 229
f 104 230 231
f 104 103 230
f 105 231 232
f 105 104 231
f 106 232 233
f 106 105 232
f 107 233 234
f 107 106 233
f 108 234 235
f 108 107 234
f 109 235 236
f 109 108 235
f 110 236 237
f 110 109 236
f 111 237 238
f 111 238 239
f 111 110 237
f 112 111 239
f 113 112 239
f 113 239 240
f 114 113 240
f 114 240 241
f 114 241 242
f 115 114 242
f 116 115 242
f 116 242 243
f 117 116 243
f 117 243 244
f 118 117 244
f 118 244 245
f 119 118 245
f 119 245 246
f 120 119 246
f 120 246 247
f 121 120 247
f 121 247 248
f 122 121 248
f 122 248 249
f 123 122 249
f 123 249 250
f 124 123 250
f 124 250 251
f 125 251 252
f 125 124 251
f 126 125 252
f 126 252 253
f 127 253 254
f 127 126 253
f 336 334 335
f 338 336 337
f 329 330 331
f 329 331 332
f 339 334 336
f 339 336 338
f 327 329 332
f 327 328 329
f 327 332 333
f 327 333 334
f 342 340 341
f 343 340 342
f 323 324 325
f 323 325 326
f 323 326 327
f 345 343 344
f 322 327 334
f 322 323 327
f 346 334 339
f 346 340 343
f 346 343 345
f 346 322 334
f 346 339 340
f 347 322 346
f 318 319 320
f 318 320 321
f 318 321 322
f 317 322 347
f 317 318 322
f 353 347 348
f 353 348 349
f 353 349 350
f 353 350 351
f 353 351 352
f 314 315 316
f 313 314 316
f 313 316 317
f 311 312 313
f 357 355 356
f 357 353 354
f 357 354 355
f 358 353 357
f 309 313 317
f 309 311 313
f 309 310 311
f 359 309 317
f 359 353 358
f 359 317 347
f 359 347 353
f 305 306 307
f 304 305 307
f 364 360 361
f 364 361 362
f 364 362 363
f 303 304 307
f 365 359 360
f 365 360 364
f 365 309 359
f 366 302 303
f 366 309 365
f 366 303 307
f 366 307 308
f 366 308 309
f 299 300 301
f 369 367 368
f 371 369 370
f 371 367 369
f 296 297 298
f 296 298 299
f 372 366 367
f 372 367 371
f 293 294 295
f 293 295 296
f 293 296 299
f 375 372 373
f 375 373 374
f 375 302 366
f 375 366 372
f 292 293 299
f 290 291 292
f 378 375 376
f 378 376 377
f 378 301 302
f 378 302 375
f 288 290 292
f 288 289 290
f 380 378 379
f 286 288 292
f 286 287 288
f 286 292 299
f 256 378 380
f 256 380 255
f 256 301 378
f 259 256 257
f 259 257 258
f 282 286 299
f 282 283 284
f 282 284 285
f 282 285 286
f 260 256 259
f 261 256 260
f 262 256 261
f 279 280 281
f 279 281 282
f 263 256 262
f 278 282 299
f 278 279 282
f 265 263 264
f 268 265 266
f 268 266 267
f 268 263 265
f 273 274 275
f 273 275 276
f 273 301 256
f 273 276 277
f 273 277 278
f 273 278 299
f 273 256 263
f 273 299 301
f 270 268 269
f 270 263 268
f 271 272 273
f 271 273 263
f 271 263 270
f 462 461 460
f 464 463 462
f 455 457 456
f 455 458 457
f 465 462 460
f 465 464 462
f 453 458 455
f 453 455 454
f 453 459 458
f 453 460 459
f 468 467 466
f 469 468 466
f 449 451 450
f 449 452 451
f 449 453 452
f 471 470 469
f 448 460 453
f 448 453 449
f 472 465 460
f 472 469 466
f 472 471 469
f 472 460 448
f 472 466 465
f 473 472 448
f 444 446 445
f 444 447 446
f 444 448 447
f 443 473 448
f 443 448 444
f 479 474 473
f 479 475 474
f 479 476 475
f 479 477 476
f 479 478 477
f 440 442 441
f 439 442 440
f 439 443 442
f 437 439 438
f 483 482 481
f 483 480 479
f 483 481 480
f 484 483 479
f 435 443 439
f 435 439 437
f 435 437 436
f 485 443 435
f 485 484 479
f 485 473 443
f 485 479 473
f 431 433 432
f 430 433 431
f 490 487 486
f 490 488 487
f 490 489 488
f 429 433 430
f 491 486 485
f 491 490 486
f 491 485 435
f 492 429 428
f 492 491 435
f 492 433 429
f 492 434 433
f 492 435 434
f 425 427 426
f 495 494 493
f 497 496 495
f 497 495 493
f 422 424 423
f 422 425 424
f 498 493 492
f 498 497 493
f 419 421 420
f 419 422 421
f 419 425 422
f 501 499 498
f 501 500 499
f 501 492 428
f 501 498 492
f 418 425 419
f 416 418 417
f 504 502 501
f 504 503 502
f 504 428 427
f 504 501 428
f 414 418 416
f 414 416 415
f 506 505 504
f 412 418 414
f 412 414 413
f 412 425 418
f 382 506 504
f 382 381 506
f 382 504 427
f 385 383 382
f 385 384 383
f 408 425 412
f 408 410 409
f 408 411 410
f 408 412 411
f 386 385 382
f 387 386 382
f 388 387 382
f 405 407 406
f 405 408 407
f 389 388 382
f 404 425 408
f 404 408 405
f 391 390 389
f 394 392 391
f 394 393 392
f 394 391 389
f 399 401 400
f 399 402 401
f 399 382 427
f 399 403 402
f 399 404 403
f 399 425 404
f 399 389 382
f 399 427 425
f 396 395 394
f 396 394 389
f 397 399 398
f 397 389 399
f 397 396 389
