# Cadless export: model
v 0 -20 0
v 0 -20 60
v 0 20 0
v 0 20 60
v 0 -20 0
v 60 -20 0
v 0 -20 60
v 5 -20 60
v 5 -20 5
v 60 -20 5
v 0 -20 0
v 0 20 0
v 60 -20 0
v 60 20 0
v 0 20 60
v 0 20 0
v 5 20 60
v 5 20 5
v 60 20 5
v 60 20 0
v 0 -20 60
v 0 20 60
v 5 -20 60
v 5 20 60
v 5 -20 5
v 5 -20 60
v 5 -3 5
v 5 -3 30
v 5 3 30
v 5 3 5
v 5 20 5
v 5 20 60
v 5 20 5
v 60 20 5
v 5 3 5
v 30 3 5
v 30 -3 5
v 5 -3 5
v 5 -20 5
v 60 -20 5
v 60 -20 0
v 60 -20 5
v 60 20 0
v 60 20 5
v 5 3 30
v 5 3 5
v 30 3 5
v 30 3 5
v 5 3 30
v 5 -3 30
v 30 -3 5
v 5 -3 30
v 5 -3 5
v 30 -3 5
f 2 3 1
f 2 4 3
f 7 5 9
f 6 9 5
f 10 9 6
f 8 7 9
f 14 11 12
f 14 13 11
f 20 16 18
f 15 18 16
f 17 18 15
f 19 20 18
f 22 21 23
f 24 22 23
f 29 30 31
f 28 25 27
f 32 28 29
f 32 29 31
f 26 28 32
f 26 25 28
f 37 38 39
f 36 33 35
f 40 36 37
f 40 37 39
f 34 36 40
f 34 33 36
f 41 43 44
f 42 41 44
f 47 46 45
f 50 48 49
f 50 51 48
f 54 52 53
