# Cadless export: model
v -800 -430 750
v -800 430 750
v -800 -430 720
v -800 430 720
v -800 -430 750
v -800 430 750
v -799.976 -430.981 750
v -799.904 -431.96 750
v -799.784 -432.935 750
v -799.616 -433.902 750
v -799.401 -434.86 750
v -799.139 -435.806 750
v -798.831 -436.738 750
v -798.478 -437.654 750
v -798.08 -438.551 750
v -797.638 -439.428 750
v -797.155 -440.282 750
v -796.629 -441.111 750
v -796.064 -441.914 750
v -795.46 -442.688 750
v -794.819 -443.431 750
v -794.142 -444.142 750
v -793.431 -444.819 750
v -792.688 -445.46 750
v -791.914 -446.064 750
v -791.111 -446.629 750
v -790.282 -447.155 750
v -789.428 -447.638 750
v -788.551 -448.08 750
v -787.654 -448.478 750
v -786.738 -448.831 750
v -785.806 -449.139 750
v -784.86 -449.401 750
v -783.902 -449.616 750
v -782.935 -449.784 750
v -781.96 -449.904 750
v -780.981 -449.976 750
v -780 -450 750
v 780 -450 750
v 780.981 -449.976 750
v 781.96 -449.904 750
v 782.935 -449.784 750
v 783.902 -449.616 750
v 784.86 -449.401 750
v 785.806 -449.139 750
v 786.738 -448.831 750
v 787.654 -448.478 750
v 788.551 -448.08 750
v 789.428 -447.638 750
v 790.282 -447.155 750
v 791.111 -446.629 750
v 791.914 -446.064 750
v 792.688 -445.46 750
v 793.431 -444.819 750
v 794.142 -444.142 750
v 794.819 -443.431 750
v 795.46 -442.688 750
v 796.064 -441.914 750
v 796.629 -441.111 750
v 797.155 -440.282 750
v 797.638 -439.428 750
v 798.08 -438.551 750
v 798.478 -437.654 750
v 798.831 -436.738 750
v 799.139 -435.806 750
v 799.401 -434.86 750
v 799.616 -433.902 750
v 799.784 -432.935 750
v 799.904 -431.96 750
v 799.976 -430.981 750
v 800 -430 750
v 800 430 750
v 780 450 750
v 780.981 449.976 750
v 781.96 449.904 750
v 782.935 449.784 750
v 783.902 449.616 750
v 784.86 449.401 750
v 785.806 449.139 750
v 786.738 448.831 750
v 787.654 448.478 750
v 788.551 448.08 750
v 789.428 447.638 750
v 790.282 447.155 750
v 791.111 446.629 750
v 791.914 446.064 750
v 792.688 445.46 750
v 793.431 444.819 750
v 794.142 444.142 750
v 794.819 443.431 750
v 795.46 442.688 750
v 796.064 441.914 750
v 796.629 441.111 750
v 797.155 440.282 750
v 797.638 439.428 750
v 798.08 438.551 750
v 798.478 437.654 750
v 798.831 436.738 750
v 799.139 435.806 750
v 799.401 434.86 750
v 799.616 433.902 750
v 799.784 432.935 750
v 799.904 431.96 750
v 799.976 430.981 750
v -780 450 750
v -799.976 430.981 750
v -799.904 431.96 750
v -799.784 432.935 750
v -799.616 433.902 750
v -799.401 434.86 750
v -799.139 435.806 750
v -798.831 436.738 750
v -798.478 437.654 750
v -798.08 438.551 750
v -797.638 439.428 750
v -797.155 440.282 750
v -796.629 441.111 750
v -796.064 441.914 750
v -795.46 442.688 750
v -794.819 443.431 750
v -794.142 444.142 750
v -793.431 444.819 750
v -792.688 445.46 750
v -791.914 446.064 750
v -791.111 446.629 750
v -790.282 447.155 750
v -789.428 447.638 750
v -788.551 448.08 750
v -787.654 448.478 750
v -786.738 448.831 750
v -785.806 449.139 750
v -784.86 449.401 750
v -783.902 449.616 750
v -782.935 449.784 750
v -781.96 449.904 750
v -780.981 449.976 750
v -800 -430 720
v -799.976 -430.981 720
v -799.904 -431.96 720
v -799.784 -432.935 720
v -799.616 -433.902 720
v -799.401 -434.86 720
v -799.139 -435.806 720
v -798.831 -436.738 720
v -798.478 -437.654 720
v -798.08 -438.551 720
v -797.638 -439.428 720
v -797.155 -440.282 720
v -796.629 -441.111 720
v -796.064 -441.914 720
v -795.46 -442.688 720
v -794.819 -443.431 720
v -794.142 -444.142 720
v -793.431 -444.819 720
v -792.688 -445.46 720
v -791.914 -446.064 720
v -791.111 -446.629 720
v -790.282 -447.155 720
v -789.428 -447.638 720
v -788.551 -448.08 720
v -787.654 -448.478 720
v -786.738 -448.831 720
v -785.806 -449.139 720
v -784.86 -449.401 720
v -783.902 -449.616 720
v -782.935 -449.784 720
v -781.96 -449.904 720
v -780.981 -449.976 720
v -780 -450 720
v -780 -450 750
v -800 -430 750
v -799.976 -430.981 750
v -799.904 -431.96 750
v -799.784 -432.935 750
v -799.616 -433.902 750
v -799.401 -434.86 750
v -799.139 -435.806 750
v -798.831 -436.738 750
v -798.478 -437.654 750
v -798.08 -438.551 750
v -797.638 -439.428 750
v -797.155 -440.282 750
v -796.629 -441.111 750
v -796.064 -441.914 750
v -795.46 -442.688 750
v -794.819 -443.431 750
v -794.142 -444.142 750
v -793.431 -444.819 750
v -792.688 -445.46 750
v -791.914 -446.064 750
v -791.111 -446.629 750
v -790.282 -447.155 750
v -789.428 -447.638 750
v -788.551 -448.08 750
v -787.654 -448.478 750
v -786.738 -448.831 750
v -785.806 -449.139 750
v -784.86 -449.401 750
v -783.902 -449.616 750
v -782.935 -449.784 750
v -781.96 -449.904 750
v -780.981 -449.976 750
v -800 430 720
v -799.976 430.981 720
v -799.904 431.96 720
v -799.784 432.935 720
v -799.616 433.902 720
v -799.401 434.86 720
v -799.139 435.806 720
v -798.831 436.738 720
v -798.478 437.654 720
v -798.08 438.551 720
v -797.638 439.428 720
v -797.155 440.282 720
v -796.629 441.111 720
v -796.064 441.914 720
v -795.46 442.688 720
v -794.819 443.431 720
v -794.142 444.142 720
v -793.431 444.819 720
v -792.688 445.46 720
v -791.914 446.064 720
v -791.111 446.629 720
v -790.282 447.155 720
v -789.428 447.638 720
v -788.551 448.08 720
v -787.654 448.478 720
v -786.738 448.831 720
v -785.806 449.139 720
v -784.86 449.401 720
v -783.902 449.616 720
v -782.935 449.784 720
v -781.96 449.904 720
v -780.981 449.976 720
v -780 450 720
v -780 450 750
v -800 430 750
v -799.976 430.981 750
v -799.904 431.96 750
v -799.784 432.935 750
v -799.616 433.902 750
v -799.401 434.86 750
v -799.139 435.806 750
v -798.831 436.738 750
v -798.478 437.654 750
v -798.08 438.551 750
v -797.638 439.428 750
v -797.155 440.282 750
v -796.629 441.111 750
v -796.064 441.914 750
v -795.46 442.688 750
v -794.819 443.431 750
v -794.142 444.142 750
v -793.431 444.819 750
v -792.688 445.46 750
v -791.914 446.064 750
v -791.111 446.629 750
v -790.282 447.155 750
v -789.428 447.638 750
v -788.551 448.08 750
v -787.654 448.478 750
v -786.738 448.831 750
v -785.806 449.139 750
v -784.86 449.401 750
v -783.902 449.616 750
v -782.935 449.784 750
v -781.96 449.904 750
v -780.981 449.976 750
v -800 -430 720
v -800 430 720
v -799.976 -430.981 720
v -799.904 -431.96 720
v -799.784 -432.935 720
v -799.616 -433.902 720
v -799.401 -434.86 720
v -799.139 -435.806 720
v -798.831 -436.738 720
v -798.478 -437.654 720
v -798.08 -438.551 720
v -797.638 -439.428 720
v -797.155 -440.282 720
v -796.629 -441.111 720
v -796.064 -441.914 720
v -795.46 -442.688 720
v -794.819 -443.431 720
v -794.142 -444.142 720
v -793.431 -444.819 720
v -792.688 -445.46 720
v -791.914 -446.064 720
v -791.111 -446.629 720
v -790.282 -447.155 720
v -789.428 -447.638 720
v -788.551 -448.08 720
v -787.654 -448.478 720
v -786.738 -448.831 720
v -785.806 -449.139 720
v -784.86 -449.401 720
v -783.902 -449.616 720
v -782.935 -449.784 720
v -781.96 -449.904 720
v -780.981 -449.976 720
v -780 -450 720
v 780 -450 720
v 780.981 -449.976 720
v 781.96 -449.904 720
v 782.935 -449.784 720
v 783.902 -449.616 720
v 784.86 -449.401 720
v 785.806 -449.139 720
v 786.738 -448.831 720
v 787.654 -448.478 720
v 788.551 -448.08 720
v 789.428 -447.638 720
v 790.282 -447.155 720
v 791.111 -446.629 720
v 791.914 -446.064 720
v 792.688 -445.46 720
v 793.431 -444.819 720
v 794.142 -444.142 720
v 794.819 -443.431 720
v 795.46 -442.688 720
v 796.064 -441.914 720
v 796.629 -441.111 720
v 797.155 -440.282 720
v 797.638 -439.428 720
v 798.08 -438.551 720
v 798.478 -437.654 720
v 798.831 -436.738 720
v 799.139 -435.806 720
v 799.401 -434.86 720
v 799.616 -433.902 720
v 799.784 -432.935 720
v 799.904 -431.96 720
v 799.976 -430.981 720
v 800 -430 720
v 800 430 720
v 780 450 720
v 780.981 449.976 720
v 781.96 449.904 720
v 782.935 449.784 720
v 783.902 449.616 720
v 784.86 449.401 720
v 785.806 449.139 720
v 786.738 448.831 720
v 787.654 448.478 720
v 788.551 448.08 720
v 789.428 447.638 720
v 790.282 447.155 720
v 791.111 446.629 720
v 791.914 446.064 720
v 792.688 445.46 720
v 793.431 444.819 720
v 794.142 444.142 720
v 794.819 443.431 720
v 795.46 442.688 720
v 796.064 441.914 720
v 796.629 441.111 720
v 797.155 440.282 720
v 797.638 439.428 720
v 798.08 438.551 720
v 798.478 437.654 720
v 798.831 436.738 720
v 799.139 435.806 720
v 799.401 434.86 720
v 799.616 433.902 720
v 799.784 432.935 720
v 799.904 431.96 720
v 799.976 430.981 720
v -780 450 720
v -799.976 430.981 720
v -799.904 431.96 720
v -799.784 432.935 720
v -799.616 433.902 720
v -799.401 434.86 720
v -799.139 435.806 720
v -798.831 436.738 720
v -798.478 437.654 720
v -798.08 438.551 720
v -797.638 439.428 720
v -797.155 440.282 720
v -796.629 441.111 720
v -796.064 441.914 720
v -795.46 442.688 720
v -794.819 443.431 720
v -794.142 444.142 720
v -793.431 444.819 720
v -792.688 445.46 720
v -791.914 446.064 720
v -791.111 446.629 720
v -790.282 447.155 720
v -789.428 447.638 720
v -788.551 448.08 720
v -787.654 448.478 720
v -786.738 448.831 720
v -785.806 449.139 720
v -784.86 449.401 720
v -783.902 449.616 720
v -782.935 449.784 720
v -781.96 449.904 720
v -780.981 449.976 720
v -720 -370 720
v -720 -310 720
v -700 -310 720
v -700 310 720
v -720 310 720
v -720 370 720
v -660 370 720
v -660 350 720
v 660 350 720
v 660 370 720
v 720 370 720
v 720 310 720
v 700 310 720
v 700 -310 720
v 720 -310 720
v 720 -370 720
v 660 -370 720
v 660 -350 720
v -660 -350 720
v -660 -370 720
v -780 -450 720
v 780 -450 720
v -780 -450 750
v 780 -450 750
v -780 450 720
v 780 450 720
v -780 450 750
v 780 450 750
v 780 -450 720
v 780.981 -449.976 720
v 781.96 -449.904 720
v 782.935 -449.784 720
v 783.902 -449.616 720
v 784.86 -449.401 720
v 785.806 -449.139 720
v 786.738 -448.831 720
v 787.654 -448.478 720
v 788.551 -448.08 720
v 789.428 -447.638 720
v 790.282 -447.155 720
v 791.111 -446.629 720
v 791.914 -446.064 720
v 792.688 -445.46 720
v 793.431 -444.819 720
v 794.142 -444.142 720
v 794.819 -443.431 720
v 795.46 -442.688 720
v 796.064 -441.914 720
v 796.629 -441.111 720
v 797.155 -440.282 720
v 797.638 -439.428 720
v 798.08 -438.551 720
v 798.478 -437.654 720
v 798.831 -436.738 720
v 799.139 -435.806 720
v 799.401 -434.86 720
v 799.616 -433.902 720
v 799.784 -432.935 720
v 799.904 -431.96 720
v 799.976 -430.981 720
v 800 -430 720
v 800 -430 750
v 780 -450 750
v 780.981 -449.976 750
v 781.96 -449.904 750
v 782.935 -449.784 750
v 783.902 -449.616 750
v 784.86 -449.401 750
v 785.806 -449.139 750
v 786.738 -448.831 750
v 787.654 -448.478 750
v 788.551 -448.08 750
v 789.428 -447.638 750
v 790.282 -447.155 750
v 791.111 -446.629 750
v 791.914 -446.064 750
v 792.688 -445.46 750
v 793.431 -444.819 750
v 794.142 -444.142 750
v 794.819 -443.431 750
v 795.46 -442.688 750
v 796.064 -441.914 750
v 796.629 -441.111 750
v 797.155 -440.282 750
v 797.638 -439.428 750
v 798.08 -438.551 750
v 798.478 -437.654 750
v 798.831 -436.738 750
v 799.139 -435.806 750
v 799.401 -434.86 750
v 799.616 -433.902 750
v 799.784 -432.935 750
v 799.904 -431.96 750
v 799.976 -430.981 750
v 780 450 720
v 780.981 449.976 720
v 781.96 449.904 720
v 782.935 449.784 720
v 783.902 449.616 720
v 784.86 449.401 720
v 785.806 449.139 720
v 786.738 448.831 720
v 787.654 448.478 720
v 788.551 448.08 720
v 789.428 447.638 720
v 790.282 447.155 720
v 791.111 446.629 720
v 791.914 446.064 720
v 792.688 445.46 720
v 793.431 444.819 720
v 794.142 444.142 720
v 794.819 443.431 720
v 795.46 442.688 720
v 796.064 441.914 720
v 796.629 441.111 720
v 797.155 440.282 720
v 797.638 439.428 720
v 798.08 438.551 720
v 798.478 437.654 720
v 798.831 436.738 720
v 799.139 435.806 720
v 799.401 434.86 720
v 799.616 433.902 720
v 799.784 432.935 720
v 799.904 431.96 720
v 799.976 430.981 720
v 800 430 720
v 800 430 750
v 780 450 750
v 780.981 449.976 750
v 781.96 449.904 750
v 782.935 449.784 750
v 783.902 449.616 750
v 784.86 449.401 750
v 785.806 449.139 750
v 786.738 448.831 750
v 787.654 448.478 750
v 788.551 448.08 750
v 789.428 447.638 750
v 790.282 447.155 750
v 791.111 446.629 750
v 791.914 446.064 750
v 792.688 445.46 750
v 793.431 444.819 750
v 794.142 444.142 750
v 794.819 443.431 750
v 795.46 442.688 750
v 796.064 441.914 750
v 796.629 441.111 750
v 797.155 440.282 750
v 797.638 439.428 750
v 798.08 438.551 750
v 798.478 437.654 750
v 798.831 436.738 750
v 799.139 435.806 750
v 799.401 434.86 750
v 799.616 433.902 750
v 799.784 432.935 750
v 799.904 431.96 750
v 799.976 430.981 750
v 800 -430 750
v 800 430 750
v 800 -430 720
v 800 430 720
v -720 -370 0
v -720 -370 720
v -720 -310 0
v -720 -310 720
v -720 -370 0
v -660 -370 0
v -720 -370 720
v -660 -370 720
v -660 -370 720
v -660 -350 720
v -660 -370 0
v -660 -310 0
v -660 -310 720
v -660 -330 720
v -660 -330 620
v -660 -350 620
v -660 -350 620
v 660 -350 620
v -660 -350 720
v 660 -350 720
v 660 -370 720
v 660 -350 720
v 660 -370 0
v 660 -310 0
v 660 -310 720
v 660 -330 720
v 660 -330 620
v 660 -350 620
v 660 -370 0
v 720 -370 0
v 660 -370 720
v 720 -370 720
v 720 -370 0
v 720 -370 720
v 720 -310 0
v 720 -310 720
v 720 -310 0
v 720 -310 720
v 660 -310 0
v 660 -310 720
v 680 -310 720
v 680 -310 620
v 700 -310 620
v 700 -310 720
v 700 -310 620
v 700 -310 720
v 700 310 620
v 700 310 720
v 720 310 0
v 720 310 720
v 660 310 0
v 660 310 720
v 680 310 720
v 680 310 620
v 700 310 620
v 700 310 720
v 720 310 0
v 720 310 720
v 720 370 0
v 720 370 720
v 660 370 0
v 720 370 0
v 660 370 720
v 720 370 720
v 660 310 720
v 660 330 720
v 660 310 0
v 660 370 0
v 660 370 720
v 660 350 720
v 660 350 620
v 660 330 620
v -660 350 620
v 660 350 620
v -660 350 720
v 660 350 720
v -660 310 720
v -660 330 720
v -660 310 0
v -660 370 0
v -660 370 720
v -660 350 720
v -660 350 620
v -660 330 620
v -720 370 0
v -660 370 0
v -720 370 720
v -660 370 720
v -720 310 0
v -720 310 720
v -720 370 0
v -720 370 720
v -660 310 0
v -660 310 720
v -720 310 0
v -720 310 720
v -700 310 720
v -700 310 620
v -680 310 620
v -680 310 720
v -700 -310 620
v -700 -310 720
v -700 310 620
v -700 310 720
v -660 -310 0
v -660 -310 720
v -720 -310 0
v -720 -310 720
v -700 -310 720
v -700 -310 620
v -680 -310 620
v -680 -310 720
v -720 -370 0
v -720 -310 0
v -660 -370 0
v -660 -310 0
v -660 -350 620
v -660 -330 620
v 660 -350 620
v 660 -330 620
v -660 -330 620
v 660 -330 620
v -660 -330 720
v 660 -330 720
v -680 -310 720
v -680 310 720
v -660 -310 720
v -660 -330 720
v 660 -330 720
v 660 -310 720
v 680 -310 720
v 680 310 720
v 660 310 720
v 660 330 720
v -660 330 720
v -660 310 720
v 660 -370 0
v 660 -310 0
v 720 -370 0
v 720 -310 0
v 680 -310 620
v 680 310 620
v 700 -310 620
v 700 310 620
v 680 -310 620
v 680 -310 720
v 680 310 620
v 680 310 720
v 660 310 0
v 660 370 0
v 720 310 0
v 720 370 0
v -660 330 620
v 660 330 620
v -660 330 720
v 660 330 720
v -660 330 620
v -660 350 620
v 660 330 620
v 660 350 620
v -720 310 0
v -720 370 0
v -660 310 0
v -660 370 0
v -680 -310 620
v -680 -310 720
v -680 310 620
v -680 310 720
v -700 -310 620
v -700 310 620
v -680 -310 620
v -680 310 620
f 3 2 4
f 1 2 3
f 20 21 22
f 25 23 24
f 18 19 20
f 27 25 26
f 17 22 23
f 17 20 22
f 17 23 25
f 17 18 20
f 28 25 27
f 15 16 17
f 15 28 29
f 15 17 25
f 15 25 28
f 31 29 30
f 31 15 29
f 12 13 14
f 11 12 14
f 34 31 32
f 34 32 33
f 10 14 15
f 10 11 14
f 35 31 34
f 38 35 36
f 38 36 37
f 38 15 31
f 38 10 15
f 38 31 35
f 5 7 8
f 5 8 9
f 5 9 10
f 5 10 38
f 107 106 6
f 110 108 107
f 110 109 108
f 111 107 6
f 111 110 107
f 112 111 6
f 113 112 6
f 115 114 113
f 116 113 6
f 116 115 113
f 117 116 6
f 120 119 118
f 121 118 117
f 121 117 6
f 121 120 118
f 122 121 6
f 123 122 6
f 124 123 6
f 125 124 6
f 129 126 125
f 129 127 126
f 129 128 127
f 131 130 129
f 131 125 6
f 131 129 125
f 134 132 131
f 134 133 132
f 134 131 6
f 136 135 134
f 136 134 6
f 105 5 38
f 105 6 5
f 105 136 6
f 41 39 40
f 44 41 42
f 44 42 43
f 44 39 41
f 47 44 45
f 47 45 46
f 47 39 44
f 48 39 47
f 52 48 49
f 52 49 50
f 52 50 51
f 53 39 48
f 53 48 52
f 56 53 54
f 56 54 55
f 56 39 53
f 58 56 57
f 59 39 56
f 59 56 58
f 60 39 59
f 61 39 60
f 62 39 61
f 64 62 63
f 65 62 64
f 67 62 65
f 67 65 66
f 68 62 67
f 71 39 62
f 71 62 68
f 71 68 69
f 71 69 70
f 73 38 39
f 73 105 38
f 72 39 71
f 72 73 39
f 75 73 72
f 75 74 73
f 101 103 102
f 101 104 103
f 77 76 75
f 80 78 77
f 80 79 78
f 97 99 98
f 97 100 99
f 81 77 75
f 81 80 77
f 96 104 101
f 96 100 97
f 96 101 100
f 95 104 96
f 83 75 72
f 83 81 75
f 83 82 81
f 83 72 104
f 94 104 95
f 85 84 83
f 87 86 85
f 87 85 83
f 89 83 104
f 89 104 94
f 89 88 87
f 89 91 90
f 89 92 91
f 89 93 92
f 89 94 93
f 89 87 83
f 171 137 138
f 172 171 138
f 173 138 139
f 173 172 138
f 174 139 140
f 174 140 141
f 174 173 139
f 175 141 142
f 175 174 141
f 176 175 142
f 177 142 143
f 177 143 144
f 177 176 142
f 178 177 144
f 179 178 144
f 179 144 145
f 179 145 146
f 180 179 146
f 181 146 147
f 181 180 146
f 182 147 148
f 182 181 147
f 183 148 149
f 183 149 150
f 183 182 148
f 184 150 151
f 184 183 150
f 185 184 151
f 186 151 152
f 186 185 151
f 187 152 153
f 187 186 152
f 188 153 154
f 188 187 153
f 189 154 155
f 189 188 154
f 190 155 156
f 190 156 157
f 190 189 155
f 191 190 157
f 192 157 158
f 192 158 159
f 192 191 157
f 193 192 159
f 194 159 160
f 194 193 159
f 195 160 161
f 195 194 160
f 196 161 162
f 196 195 161
f 197 162 163
f 197 163 164
f 197 196 162
f 198 197 164
f 199 164 165
f 199 198 164
f 200 165 166
f 200 166 167
f 200 199 165
f 201 200 167
f 202 167 168
f 202 201 167
f 170 168 169
f 170 202 168
f 238 204 203
f 238 203 237
f 239 205 204
f 239 204 238
f 240 206 205
f 240 207 206
f 240 205 239
f 241 208 207
f 241 207 240
f 242 209 208
f 242 208 241
f 243 210 209
f 243 209 242
f 244 210 243
f 245 210 244
f 245 211 210
f 245 212 211
f 246 212 245
f 246 213 212
f 247 213 246
f 248 213 247
f 248 214 213
f 249 215 214
f 249 214 248
f 250 216 215
f 250 217 216
f 250 215 249
f 251 217 250
f 252 218 217
f 252 219 218
f 252 217 251
f 253 219 252
f 254 220 219
f 254 219 253
f 255 221 220
f 255 222 221
f 255 220 254
f 256 223 222
f 256 222 255
f 257 223 256
f 258 224 223
f 258 223 257
f 259 225 224
f 259 224 258
f 260 226 225
f 260 225 259
f 261 227 226
f 261 226 260
f 262 228 227
f 262 227 261
f 263 229 228
f 263 228 262
f 264 230 229
f 264 229 263
f 265 231 230
f 265 232 231
f 265 230 264
f 266 232 265
f 267 233 232
f 267 232 266
f 268 234 233
f 268 233 267
f 236 235 234
f 236 234 268
f 284 286 285
f 289 288 287
f 282 284 283
f 291 290 289
f 281 287 286
f 281 286 284
f 281 289 287
f 281 284 282
f 292 291 289
f 279 281 280
f 279 293 292
f 279 289 281
f 279 292 289
f 295 294 293
f 295 293 279
f 276 278 277
f 275 278 276
f 298 296 295
f 298 297 296
f 274 279 278
f 274 278 275
f 299 298 295
f 302 299 295
f 302 279 274
f 302 300 299
f 302 301 300
f 302 295 279
f 269 272 271
f 269 273 272
f 269 274 273
f 269 302 274
f 401 302 269
f 402 401 269
f 420 302 401
f 405 402 269
f 404 402 405
f 404 403 402
f 270 405 269
f 371 270 370
f 374 371 372
f 374 372 373
f 375 270 371
f 375 371 374
f 376 270 375
f 377 270 376
f 379 377 378
f 380 377 379
f 380 270 377
f 381 270 380
f 384 382 383
f 385 381 382
f 385 270 381
f 385 382 384
f 406 405 270
f 386 270 385
f 387 270 386
f 388 270 387
f 389 270 388
f 393 389 390
f 393 390 391
f 393 391 392
f 395 393 394
f 395 270 389
f 395 389 393
f 398 395 396
f 398 396 397
f 398 270 395
f 400 398 399
f 400 270 398
f 369 406 270
f 369 270 400
f 407 406 369
f 417 420 419
f 418 417 419
f 303 420 417
f 303 302 420
f 305 304 303
f 308 305 303
f 308 306 305
f 308 307 306
f 311 308 303
f 311 309 308
f 311 310 309
f 312 311 303
f 316 313 312
f 316 314 313
f 316 315 314
f 317 312 303
f 317 316 312
f 416 303 417
f 320 317 303
f 320 318 317
f 320 319 318
f 322 321 320
f 323 320 303
f 323 322 320
f 324 323 303
f 325 324 303
f 326 325 303
f 328 327 326
f 329 328 326
f 331 330 329
f 331 329 326
f 332 331 326
f 335 303 416
f 335 326 303
f 335 333 332
f 335 334 333
f 335 332 326
f 415 335 416
f 409 408 407
f 412 414 413
f 412 415 414
f 412 335 415
f 410 409 407
f 337 411 410
f 336 412 411
f 336 335 412
f 336 411 337
f 339 337 338
f 339 336 337
f 365 366 367
f 365 367 368
f 341 339 340
f 344 341 342
f 344 342 343
f 361 362 363
f 361 363 364
f 345 339 341
f 345 341 344
f 360 365 368
f 360 361 364
f 360 364 365
f 359 360 368
f 347 339 345
f 347 345 346
f 347 368 336
f 347 336 339
f 358 359 368
f 349 347 348
f 351 347 349
f 351 349 350
f 353 368 347
f 353 358 368
f 353 347 351
f 353 351 352
f 353 354 355
f 353 355 356
f 353 356 357
f 353 357 358
f 337 407 369
f 337 410 407
f 424 421 422
f 424 423 421
f 428 426 425
f 428 425 427
f 464 429 430
f 464 430 431
f 464 463 429
f 465 431 432
f 465 464 431
f 466 432 433
f 466 465 432
f 467 433 434
f 467 466 433
f 468 467 434
f 469 434 435
f 469 435 436
f 469 468 434
f 470 469 436
f 471 470 436
f 471 436 437
f 471 437 438
f 472 471 438
f 473 438 439
f 473 472 438
f 474 439 440
f 474 473 439
f 475 440 441
f 475 474 440
f 476 441 442
f 476 475 441
f 477 442 443
f 477 443 444
f 477 476 442
f 478 444 445
f 478 477 444
f 479 478 445
f 480 445 446
f 480 479 445
f 481 446 447
f 481 480 446
f 482 447 448
f 482 481 447
f 483 448 449
f 483 449 450
f 483 482 448
f 484 483 450
f 485 450 451
f 485 484 450
f 486 451 452
f 486 485 451
f 487 452 453
f 487 486 452
f 488 453 454
f 488 454 455
f 488 487 453
f 489 488 455
f 490 455 456
f 490 456 457
f 490 489 455
f 491 490 457
f 492 457 458
f 492 491 457
f 493 458 459
f 493 459 460
f 493 492 458
f 494 460 461
f 494 493 460
f 462 494 461
f 529 496 495
f 530 496 529
f 531 497 496
f 531 496 530
f 532 498 497
f 532 499 498
f 532 497 531
f 533 500 499
f 533 499 532
f 534 500 533
f 535 501 500
f 535 502 501
f 535 500 534
f 536 502 535
f 537 502 536
f 537 503 502
f 537 504 503
f 538 504 537
f 539 505 504
f 539 504 538
f 540 506 505
f 540 505 539
f 541 507 506
f 541 508 507
f 541 506 540
f 542 509 508
f 542 508 541
f 543 509 542
f 544 510 509
f 544 509 543
f 545 511 510
f 545 510 544
f 546 512 511
f 546 511 545
f 547 513 512
f 547 512 546
f 548 514 513
f 548 515 514
f 548 513 547
f 549 515 548
f 550 516 515
f 550 517 516
f 550 515 549
f 551 517 550
f 552 518 517
f 552 517 551
f 553 519 518
f 553 518 552
f 554 520 519
f 554 519 553
f 555 521 520
f 555 522 521
f 555 520 554
f 556 522 555
f 557 523 522
f 557 522 556
f 558 524 523
f 558 525 524
f 558 523 557
f 559 525 558
f 560 526 525
f 560 525 559
f 528 527 526
f 528 526 560
f 563 564 562
f 561 563 562
f 568 567 565
f 566 568 565
f 571 569 570
f 572 571 570
f 580 575 576
f 580 576 579
f 577 579 576
f 578 579 577
f 573 580 574
f 573 575 580
f 582 583 581
f 584 583 582
f 592 588 587
f 592 591 588
f 589 588 591
f 590 589 591
f 585 586 592
f 585 592 587
f 595 593 594
f 596 595 594
f 600 597 599
f 598 597 600
f 607 601 603
f 607 603 606
f 604 606 603
f 605 606 604
f 602 607 608
f 602 601 607
f 610 609 611
f 610 611 612
f 619 615 613
f 619 618 615
f 616 615 618
f 617 616 618
f 614 620 619
f 614 619 613
f 624 621 623
f 622 621 624
f 627 626 625
f 628 626 627
f 636 632 631
f 636 635 632
f 633 632 635
f 634 633 635
f 629 630 636
f 629 636 631
f 638 637 639
f 640 638 639
f 648 643 644
f 648 644 647
f 645 647 644
f 646 647 645
f 641 648 642
f 641 643 648
f 651 650 649
f 652 650 651
f 656 655 653
f 654 656 653
f 663 659 657
f 663 662 659
f 660 659 662
f 661 660 662
f 658 664 663
f 658 663 657
f 666 667 665
f 666 668 667
f 675 669 671
f 675 671 674
f 672 674 671
f 673 674 672
f 670 675 676
f 670 669 675
f 680 677 678
f 680 679 677
f 683 681 682
f 684 683 682
f 686 685 687
f 688 686 687
f 700 689 690
f 700 691 689
f 693 692 691
f 694 693 691
f 697 700 699
f 697 691 700
f 697 694 691
f 698 697 699
f 696 695 694
f 696 694 697
f 704 701 702
f 704 703 701
f 708 705 706
f 708 707 705
f 710 711 709
f 710 712 711
f 716 713 714
f 716 715 713
f 718 719 717
f 720 719 718
f 723 721 722
f 724 723 722
f 728 725 726
f 728 727 725
f 730 729 731
f 730 731 732
f 736 733 734
f 736 735 733
