# Cadless export: model
v 0 14 8
v 0 60 8
v 0 8 14
v 0 8.00723 13.7056
v 0 8.02889 13.4119
v 0 8.06494 13.1196
v 0 8.11529 12.8295
v 0 8.17981 12.5421
v 0 8.25836 12.2583
v 0 8.35074 11.9787
v 0 8.45672 11.7039
v 0 8.57606 11.4347
v 0 8.70847 11.1716
v 0 8.85363 10.9154
v 0 9.01118 10.6666
v 0 9.18075 10.4258
v 0 9.36194 10.1936
v 0 9.55429 9.97065
v 0 9.75736 9.75736
v 0 9.97065 9.55429
v 0 10.1936 9.36194
v 0 10.4258 9.18075
v 0 10.6666 9.01118
v 0 10.9154 8.85363
v 0 11.1716 8.70847
v 0 11.4347 8.57606
v 0 11.7039 8.45672
v 0 11.9787 8.35074
v 0 12.2583 8.25836
v 0 12.5421 8.17981
v 0 12.8295 8.11529
v 0 13.1196 8.06494
v 0 13.4119 8.02889
v 0 13.7056 8.00723
v 0 8 50
v 0 0 50
v 0 0 0
v 0 60 0
v 0 14 8
v 0 60 8
v 80 14 8
v 80 60 8
v 23 40 8
v 22.9963 40.1495 8
v 22.9851 40.2987 8
v 22.9665 40.4471 8
v 22.9405 40.5944 8
v 22.9072 40.7403 8
v 22.8667 40.8843 8
v 22.8191 41.0261 8
v 22.7644 41.1653 8
v 22.7029 41.3017 8
v 22.6347 41.4348 8
v 22.5599 41.5643 8
v 22.4787 41.69 8
v 22.3914 41.8114 8
v 22.2981 41.9284 8
v 22.1992 42.0405 8
v 22.0947 42.1476 8
v 21.9851 42.2493 8
v 21.8705 42.3455 8
v 21.7512 42.4358 8
v 21.6276 42.5201 8
v 21.5 42.5981 8
v 21.3686 42.6696 8
v 21.2339 42.7345 8
v 21.096 42.7926 8
v 20.9555 42.8438 8
v 20.8125 42.8879 8
v 20.6676 42.9248 8
v 20.5209 42.9544 8
v 20.373 42.9767 8
v 20.2242 42.9916 8
v 20.0748 42.9991 8
v 19.9252 42.9991 8
v 19.7758 42.9916 8
v 19.627 42.9767 8
v 19.4791 42.9544 8
v 19.3324 42.9248 8
v 19.1875 42.8879 8
v 19.0445 42.8438 8
v 18.904 42.7926 8
v 18.7661 42.7345 8
v 18.6314 42.6696 8
v 18.5 42.5981 8
v 18.3724 42.5201 8
v 18.2488 42.4358 8
v 18.1295 42.3455 8
v 18.0149 42.2493 8
v 17.9053 42.1476 8
v 17.8008 42.0405 8
v 17.7019 41.9284 8
v 17.6086 41.8114 8
v 17.5213 41.69 8
v 17.4401 41.5643 8
v 17.3653 41.4348 8
v 17.2971 41.3017 8
v 17.2356 41.1653 8
v 17.1809 41.0261 8
v 17.1333 40.8843 8
v 17.0928 40.7403 8
v 17.0595 40.5944 8
v 17.0335 40.4471 8
v 17.0149 40.2987 8
v 17.0037 40.1495 8
v 17 40 8
v 17.0037 39.8505 8
v 17.0149 39.7013 8
v 17.0335 39.5529 8
v 17.0595 39.4056 8
v 17.0928 39.2597 8
v 17.1333 39.1157 8
v 17.1809 38.9739 8
v 17.2356 38.8347 8
v 17.2971 38.6983 8
v 17.3653 38.5652 8
v 17.4401 38.4357 8
v 17.5213 38.31 8
v 17.6086 38.1886 8
v 17.7019 38.0716 8
v 17.8008 37.9595 8
v 17.9053 37.8524 8
v 18.0149 37.7507 8
v 18.1295 37.6545 8
v 18.2488 37.5642 8
v 18.3724 37.4799 8
v 18.5 37.4019 8
v 18.6314 37.3304 8
v 18.7661 37.2655 8
v 18.904 37.2074 8
v 19.0445 37.1562 8
v 19.1875 37.1121 8
v 19.3324 37.0752 8
v 19.4791 37.0456 8
v 19.627 37.0233 8
v 19.7758 37.0084 8
v 19.9252 37.0009 8
v 20.0748 37.0009 8
v 20.2242 37.0084 8
v 20.373 37.0233 8
v 20.5209 37.0456 8
v 20.6676 37.0752 8
v 20.8125 37.1121 8
v 20.9555 37.1562 8
v 21.096 37.2074 8
v 21.2339 37.2655 8
v 21.3686 37.3304 8
v 21.5 37.4019 8
v 21.6276 37.4799 8
v 21.7512 37.5642 8
v 21.8705 37.6545 8
v 21.9851 37.7507 8
v 22.0947 37.8524 8
v 22.1992 37.9595 8
v 22.2981 38.0716 8
v 22.3914 38.1886 8
v 22.4787 38.31 8
v 22.5599 38.4357 8
v 22.6347 38.5652 8
v 22.7029 38.6983 8
v 22.7644 38.8347 8
v 22.8191 38.9739 8
v 22.8667 39.1157 8
v 22.9072 39.2597 8
v 22.9405 39.4056 8
v 22.9665 39.5529 8
v 22.9851 39.7013 8
v 22.9963 39.8505 8
v 63 40 8
v 62.9963 40.1495 8
v 62.9851 40.2987 8
v 62.9665 40.4471 8
v 62.9405 40.5944 8
v 62.9072 40.7403 8
v 62.8667 40.8843 8
v 62.8191 41.0261 8
v 62.7644 41.1653 8
v 62.7029 41.3017 8
v 62.6347 41.4348 8
v 62.5599 41.5643 8
v 62.4787 41.69 8
v 62.3914 41.8114 8
v 62.2981 41.9284 8
v 62.1992 42.0405 8
v 62.0947 42.1476 8
v 61.9851 42.2493 8
v 61.8705 42.3455 8
v 61.7512 42.4358 8
v 61.6276 42.5201 8
v 61.5 42.5981 8
v 61.3686 42.6696 8
v 61.2339 42.7345 8
v 61.096 42.7926 8
v 60.9555 42.8438 8
v 60.8125 42.8879 8
v 60.6676 42.9248 8
v 60.5209 42.9544 8
v 60.373 42.9767 8
v 60.2242 42.9916 8
v 60.0748 42.9991 8
v 59.9252 42.9991 8
v 59.7758 42.9916 8
v 59.627 42.9767 8
v 59.4791 42.9544 8
v 59.3324 42.9248 8
v 59.1875 42.8879 8
v 59.0445 42.8438 8
v 58.904 42.7926 8
v 58.7661 42.7345 8
v 58.6314 42.6696 8
v 58.5 42.5981 8
v 58.3724 42.5201 8
v 58.2488 42.4358 8
v 58.1295 42.3455 8
v 58.0149 42.2493 8
v 57.9053 42.1476 8
v 57.8008 42.0405 8
v 57.7019 41.9284 8
v 57.6086 41.8114 8
v 57.5213 41.69 8
v 57.4401 41.5643 8
v 57.3653 41.4348 8
v 57.2971 41.3017 8
v 57.2356 41.1653 8
v 57.1809 41.0261 8
v 57.1333 40.8843 8
v 57.0928 40.7403 8
v 57.0595 40.5944 8
v 57.0335 40.4471 8
v 57.0149 40.2987 8
v 57.0037 40.1495 8
v 57 40 8
v 57.0037 39.8505 8
v 57.0149 39.7013 8
v 57.0335 39.5529 8
v 57.0595 39.4056 8
v 57.0928 39.2597 8
v 57.1333 39.1157 8
v 57.1809 38.9739 8
v 57.2356 38.8347 8
v 57.2971 38.6983 8
v 57.3653 38.5652 8
v 57.4401 38.4357 8
v 57.5213 38.31 8
v 57.6086 38.1886 8
v 57.7019 38.0716 8
v 57.8008 37.9595 8
v 57.9053 37.8524 8
v 58.0149 37.7507 8
v 58.1295 37.6545 8
v 58.2488 37.5642 8
v 58.3724 37.4799 8
v 58.5 37.4019 8
v 58.6314 37.3304 8
v 58.7661 37.2655 8
v 58.904 37.2074 8
v 59.0445 37.1562 8
v 59.1875 37.1121 8
v 59.3324 37.0752 8
v 59.4791 37.0456 8
v 59.627 37.0233 8
v 59.7758 37.0084 8
v 59.9252 37.0009 8
v 60.0748 37.0009 8
v 60.2242 37.0084 8
v 60.373 37.0233 8
v 60.5209 37.0456 8
v 60.6676 37.0752 8
v 60.8125 37.1121 8
v 60.9555 37.1562 8
v 61.096 37.2074 8
v 61.2339 37.2655 8
v 61.3686 37.3304 8
v 61.5 37.4019 8
v 61.6276 37.4799 8
v 61.7512 37.5642 8
v 61.8705 37.6545 8
v 61.9851 37.7507 8
v 62.0947 37.8524 8
v 62.1992 37.9595 8
v 62.2981 38.0716 8
v 62.3914 38.1886 8
v 62.4787 38.31 8
v 62.5599 38.4357 8
v 62.6347 38.5652 8
v 62.7029 38.6983 8
v 62.7644 38.8347 8
v 62.8191 38.9739 8
v 62.8667 39.1157 8
v 62.9072 39.2597 8
v 62.9405 39.4056 8
v 62.9665 39.5529 8
v 62.9851 39.7013 8
v 62.9963 39.8505 8
v 80 8 14
v 80 8.00723 13.7056
v 80 8.02889 13.4119
v 80 8.06494 13.1196
v 80 8.11529 12.8295
v 80 8.17981 12.5421
v 80 8.25836 12.2583
v 80 8.35074 11.9787
v 80 8.45672 11.7039
v 80 8.57606 11.4347
v 80 8.70847 11.1716
v 80 8.85363 10.9154
v 80 9.01118 10.6666
v 80 9.18075 10.4258
v 80 9.36194 10.1936
v 80 9.55429 9.97065
v 80 9.75736 9.75736
v 80 9.97065 9.55429
v 80 10.1936 9.36194
v 80 10.4258 9.18075
v 80 10.6666 9.01118
v 80 10.9154 8.85363
v 80 11.1716 8.70847
v 80 11.4347 8.57606
v 80 11.7039 8.45672
v 80 11.9787 8.35074
v 80 12.2583 8.25836
v 80 12.5421 8.17981
v 80 12.8295 8.11529
v 80 13.1196 8.06494
v 80 13.4119 8.02889
v 80 13.7056 8.00723
v 80 14 8
v 0 14 8
v 0 8 14
v 0 8.00723 13.7056
v 0 8.02889 13.4119
v 0 8.06494 13.1196
v 0 8.11529 12.8295
v 0 8.17981 12.5421
v 0 8.25836 12.2583
v 0 8.35074 11.9787
v 0 8.45672 11.7039
v 0 8.57606 11.4347
v 0 8.70847 11.1716
v 0 8.85363 10.9154
v 0 9.01118 10.6666
v 0 9.18075 10.4258
v 0 9.36194 10.1936
v 0 9.55429 9.97065
v 0 9.75736 9.75736
v 0 9.97065 9.55429
v 0 10.1936 9.36194
v 0 10.4258 9.18075
v 0 10.6666 9.01118
v 0 10.9154 8.85363
v 0 11.1716 8.70847
v 0 11.4347 8.57606
v 0 11.7039 8.45672
v 0 11.9787 8.35074
v 0 12.2583 8.25836
v 0 12.5421 8.17981
v 0 12.8295 8.11529
v 0 13.1196 8.06494
v 0 13.4119 8.02889
v 0 13.7056 8.00723
v 0 60 0
v 80 60 0
v 0 60 8
v 80 60 8
v 80 8 14
v 80 8 50
v 0 8 14
v 0 8 50
v 23 8 30
v 22.9963 8 29.8505
v 22.9851 8 29.7013
v 22.9665 8 29.5529
v 22.9405 8 29.4056
v 22.9072 8 29.2597
v 22.8667 8 29.1157
v 22.8191 8 28.9739
v 22.7644 8 28.8347
v 22.7029 8 28.6983
v 22.6347 8 28.5652
v 22.5599 8 28.4357
v 22.4787 8 28.31
v 22.3914 8 28.1886
v 22.2981 8 28.0716
v 22.1992 8 27.9595
v 22.0947 8 27.8524
v 21.9851 8 27.7507
v 21.8705 8 27.6545
v 21.7512 8 27.5642
v 21.6276 8 27.4799
v 21.5 8 27.4019
v 21.3686 8 27.3304
v 21.2339 8 27.2655
v 21.096 8 27.2074
v 20.9555 8 27.1562
v 20.8125 8 27.1121
v 20.6676 8 27.0752
v 20.5209 8 27.0456
v 20.373 8 27.0233
v 20.2242 8 27.0084
v 20.0748 8 27.0009
v 19.9252 8 27.0009
v 19.7758 8 27.0084
v 19.627 8 27.0233
v 19.4791 8 27.0456
v 19.3324 8 27.0752
v 19.1875 8 27.1121
v 19.0445 8 27.1562
v 18.904 8 27.2074
v 18.7661 8 27.2655
v 18.6314 8 27.3304
v 18.5 8 27.4019
v 18.3724 8 27.4799
v 18.2488 8 27.5642
v 18.1295 8 27.6545
v 18.0149 8 27.7507
v 17.9053 8 27.8524
v 17.8008 8 27.9595
v 17.7019 8 28.0716
v 17.6086 8 28.1886
v 17.5213 8 28.31
v 17.4401 8 28.4357
v 17.3653 8 28.5652
v 17.2971 8 28.6983
v 17.2356 8 28.8347
v 17.1809 8 28.9739
v 17.1333 8 29.1157
v 17.0928 8 29.2597
v 17.0595 8 29.4056
v 17.0335 8 29.5529
v 17.0149 8 29.7013
v 17.0037 8 29.8505
v 17 8 30
v 17.0037 8 30.1495
v 17.0149 8 30.2987
v 17.0335 8 30.4471
v 17.0595 8 30.5944
v 17.0928 8 30.7403
v 17.1333 8 30.8843
v 17.1809 8 31.0261
v 17.2356 8 31.1653
v 17.2971 8 31.3017
v 17.3653 8 31.4348
v 17.4401 8 31.5643
v 17.5213 8 31.69
v 17.6086 8 31.8114
v 17.7019 8 31.9284
v 17.8008 8 32.0405
v 17.9053 8 32.1476
v 18.0149 8 32.2493
v 18.1295 8 32.3455
v 18.2488 8 32.4358
v 18.3724 8 32.5201
v 18.5 8 32.5981
v 18.6314 8 32.6696
v 18.7661 8 32.7345
v 18.904 8 32.7926
v 19.0445 8 32.8438
v 19.1875 8 32.8879
v 19.3324 8 32.9248
v 19.4791 8 32.9544
v 19.627 8 32.9767
v 19.7758 8 32.9916
v 19.9252 8 32.9991
v 20.0748 8 32.9991
v 20.2242 8 32.9916
v 20.373 8 32.9767
v 20.5209 8 32.9544
v 20.6676 8 32.9248
v 20.8125 8 32.8879
v 20.9555 8 32.8438
v 21.096 8 32.7926
v 21.2339 8 32.7345
v 21.3686 8 32.6696
v 21.5 8 32.5981
v 21.6276 8 32.5201
v 21.7512 8 32.4358
v 21.8705 8 32.3455
v 21.9851 8 32.2493
v 22.0947 8 32.1476
v 22.1992 8 32.0405
v 22.2981 8 31.9284
v 22.3914 8 31.8114
v 22.4787 8 31.69
v 22.5599 8 31.5643
v 22.6347 8 31.4348
v 22.7029 8 31.3017
v 22.7644 8 31.1653
v 22.8191 8 31.0261
v 22.8667 8 30.8843
v 22.9072 8 30.7403
v 22.9405 8 30.5944
v 22.9665 8 30.4471
v 22.9851 8 30.2987
v 22.9963 8 30.1495
v 63 8 30
v 62.9963 8 29.8505
v 62.9851 8 29.7013
v 62.9665 8 29.5529
v 62.9405 8 29.4056
v 62.9072 8 29.2597
v 62.8667 8 29.1157
v 62.8191 8 28.9739
v 62.7644 8 28.8347
v 62.7029 8 28.6983
v 62.6347 8 28.5652
v 62.5599 8 28.4357
v 62.4787 8 28.31
v 62.3914 8 28.1886
v 62.2981 8 28.0716
v 62.1992 8 27.9595
v 62.0947 8 27.8524
v 61.9851 8 27.7507
v 61.8705 8 27.6545
v 61.7512 8 27.5642
v 61.6276 8 27.4799
v 61.5 8 27.4019
v 61.3686 8 27.3304
v 61.2339 8 27.2655
v 61.096 8 27.2074
v 60.9555 8 27.1562
v 60.8125 8 27.1121
v 60.6676 8 27.0752
v 60.5209 8 27.0456
v 60.373 8 27.0233
v 60.2242 8 27.0084
v 60.0748 8 27.0009
v 59.9252 8 27.0009
v 59.7758 8 27.0084
v 59.627 8 27.0233
v 59.4791 8 27.0456
v 59.3324 8 27.0752
v 59.1875 8 27.1121
v 59.0445 8 27.1562
v 58.904 8 27.2074
v 58.7661 8 27.2655
v 58.6314 8 27.3304
v 58.5 8 27.4019
v 58.3724 8 27.4799
v 58.2488 8 27.5642
v 58.1295 8 27.6545
v 58.0149 8 27.7507
v 57.9053 8 27.8524
v 57.8008 8 27.9595
v 57.7019 8 28.0716
v 57.6086 8 28.1886
v 57.5213 8 28.31
v 57.4401 8 28.4357
v 57.3653 8 28.5652
v 57.2971 8 28.6983
v 57.2356 8 28.8347
v 57.1809 8 28.9739
v 57.1333 8 29.1157
v 57.0928 8 29.2597
v 57.0595 8 29.4056
v 57.0335 8 29.5529
v 57.0149 8 29.7013
v 57.0037 8 29.8505
v 57 8 30
v 57.0037 8 30.1495
v 57.0149 8 30.2987
v 57.0335 8 30.4471
v 57.0595 8 30.5944
v 57.0928 8 30.7403
v 57.1333 8 30.8843
v 57.1809 8 31.0261
v 57.2356 8 31.1653
v 57.2971 8 31.3017
v 57.3653 8 31.4348
v 57.4401 8 31.5643
v 57.5213 8 31.69
v 57.6086 8 31.8114
v 57.7019 8 31.9284
v 57.8008 8 32.0405
v 57.9053 8 32.1476
v 58.0149 8 32.2493
v 58.1295 8 32.3455
v 58.2488 8 32.4358
v 58.3724 8 32.5201
v 58.5 8 32.5981
v 58.6314 8 32.6696
v 58.7661 8 32.7345
v 58.904 8 32.7926
v 59.0445 8 32.8438
v 59.1875 8 32.8879
v 59.3324 8 32.9248
v 59.4791 8 32.9544
v 59.627 8 32.9767
v 59.7758 8 32.9916
v 59.9252 8 32.9991
v 60.0748 8 32.9991
v 60.2242 8 32.9916
v 60.373 8 32.9767
v 60.5209 8 32.9544
v 60.6676 8 32.9248
v 60.8125 8 32.8879
v 60.9555 8 32.8438
v 61.096 8 32.7926
v 61.2339 8 32.7345
v 61.3686 8 32.6696
v 61.5 8 32.5981
v 61.6276 8 32.5201
v 61.7512 8 32.4358
v 61.8705 8 32.3455
v 61.9851 8 32.2493
v 62.0947 8 32.1476
v 62.1992 8 32.0405
v 62.2981 8 31.9284
v 62.3914 8 31.8114
v 62.4787 8 31.69
v 62.5599 8 31.5643
v 62.6347 8 31.4348
v 62.7029 8 31.3017
v 62.7644 8 31.1653
v 62.8191 8 31.0261
v 62.8667 8 30.8843
v 62.9072 8 30.7403
v 62.9405 8 30.5944
v 62.9665 8 30.4471
v 62.9851 8 30.2987
v 62.9963 8 30.1495
v 0 0 0
v 80 0 0
v 80 60 0
v 0 60 0
v 23 40 0
v 22.9963 40.1495 0
v 22.9851 40.2987 0
v 22.9665 40.4471 0
v 22.9405 40.5944 0
v 22.9072 40.7403 0
v 22.8667 40.8843 0
v 22.8191 41.0261 0
v 22.7644 41.1653 0
v 22.7029 41.3017 0
v 22.6347 41.4348 0
v 22.5599 41.5643 0
v 22.4787 41.69 0
v 22.3914 41.8114 0
v 22.2981 41.9284 0
v 22.1992 42.0405 0
v 22.0947 42.1476 0
v 21.9851 42.2493 0
v 21.8705 42.3455 0
v 21.7512 42.4358 0
v 21.6276 42.5201 0
v 21.5 42.5981 0
v 21.3686 42.6696 0
v 21.2339 42.7345 0
v 21.096 42.7926 0
v 20.9555 42.8438 0
v 20.8125 42.8879 0
v 20.6676 42.9248 0
v 20.5209 42.9544 0
v 20.373 42.9767 0
v 20.2242 42.9916 0
v 20.0748 42.9991 0
v 19.9252 42.9991 0
v 19.7758 42.9916 0
v 19.627 42.9767 0
v 19.4791 42.9544 0
v 19.3324 42.9248 0
v 19.1875 42.8879 0
v 19.0445 42.8438 0
v 18.904 42.7926 0
v 18.7661 42.7345 0
v 18.6314 42.6696 0
v 18.5 42.5981 0
v 18.3724 42.5201 0
v 18.2488 42.4358 0
v 18.1295 42.3455 0
v 18.0149 42.2493 0
v 17.9053 42.1476 0
v 17.8008 42.0405 0
v 17.7019 41.9284 0
v 17.6086 41.8114 0
v 17.5213 41.69 0
v 17.4401 41.5643 0
v 17.3653 41.4348 0
v 17.2971 41.3017 0
v 17.2356 41.1653 0
v 17.1809 41.0261 0
v 17.1333 40.8843 0
v 17.0928 40.7403 0
v 17.0595 40.5944 0
v 17.0335 40.4471 0
v 17.0149 40.2987 0
v 17.0037 40.1495 0
v 17 40 0
v 17.0037 39.8505 0
v 17.0149 39.7013 0
v 17.0335 39.5529 0
v 17.0595 39.4056 0
v 17.0928 39.2597 0
v 17.1333 39.1157 0
v 17.1809 38.9739 0
v 17.2356 38.8347 0
v 17.2971 38.6983 0
v 17.3653 38.5652 0
v 17.4401 38.4357 0
v 17.5213 38.31 0
v 17.6086 38.1886 0
v 17.7019 38.0716 0
v 17.8008 37.9595 0
v 17.9053 37.8524 0
v 18.0149 37.7507 0
v 18.1295 37.6545 0
v 18.2488 37.5642 0
v 18.3724 37.4799 0
v 18.5 37.4019 0
v 18.6314 37.3304 0
v 18.7661 37.2655 0
v 18.904 37.2074 0
v 19.0445 37.1562 0
v 19.1875 37.1121 0
v 19.3324 37.0752 0
v 19.4791 37.0456 0
v 19.627 37.0233 0
v 19.7758 37.0084 0
v 19.9252 37.0009 0
v 20.0748 37.0009 0
v 20.2242 37.0084 0
v 20.373 37.0233 0
v 20.5209 37.0456 0
v 20.6676 37.0752 0
v 20.8125 37.1121 0
v 20.9555 37.1562 0
v 21.096 37.2074 0
v 21.2339 37.2655 0
v 21.3686 37.3304 0
v 21.5 37.4019 0
v 21.6276 37.4799 0
v 21.7512 37.5642 0
v 21.8705 37.6545 0
v 21.9851 37.7507 0
v 22.0947 37.8524 0
v 22.1992 37.9595 0
v 22.2981 38.0716 0
v 22.3914 38.1886 0
v 22.4787 38.31 0
v 22.5599 38.4357 0
v 22.6347 38.5652 0
v 22.7029 38.6983 0
v 22.7644 38.8347 0
v 22.8191 38.9739 0
v 22.8667 39.1157 0
v 22.9072 39.2597 0
v 22.9405 39.4056 0
v 22.9665 39.5529 0
v 22.9851 39.7013 0
v 22.9963 39.8505 0
v 63 40 0
v 62.9963 40.1495 0
v 62.9851 40.2987 0
v 62.9665 40.4471 0
v 62.9405 40.5944 0
v 62.9072 40.7403 0
v 62.8667 40.8843 0
v 62.8191 41.0261 0
v 62.7644 41.1653 0
v 62.7029 41.3017 0
v 62.6347 41.4348 0
v 62.5599 41.5643 0
v 62.4787 41.69 0
v 62.3914 41.8114 0
v 62.2981 41.9284 0
v 62.1992 42.0405 0
v 62.0947 42.1476 0
v 61.9851 42.2493 0
v 61.8705 42.3455 0
v 61.7512 42.4358 0
v 61.6276 42.5201 0
v 61.5 42.5981 0
v 61.3686 42.6696 0
v 61.2339 42.7345 0
v 61.096 42.7926 0
v 60.9555 42.8438 0
v 60.8125 42.8879 0
v 60.6676 42.9248 0
v 60.5209 42.9544 0
v 60.373 42.9767 0
v 60.2242 42.9916 0
v 60.0748 42.9991 0
v 59.9252 42.9991 0
v 59.7758 42.9916 0
v 59.627 42.9767 0
v 59.4791 42.9544 0
v 59.3324 42.9248 0
v 59.1875 42.8879 0
v 59.0445 42.8438 0
v 58.904 42.7926 0
v 58.7661 42.7345 0
v 58.6314 42.6696 0
v 58.5 42.5981 0
v 58.3724 42.5201 0
v 58.2488 42.4358 0
v 58.1295 42.3455 0
v 58.0149 42.2493 0
v 57.9053 42.1476 0
v 57.8008 42.0405 0
v 57.7019 41.9284 0
v 57.6086 41.8114 0
v 57.5213 41.69 0
v 57.4401 41.5643 0
v 57.3653 41.4348 0
v 57.2971 41.3017 0
v 57.2356 41.1653 0
v 57.1809 41.0261 0
v 57.1333 40.8843 0
v 57.0928 40.7403 0
v 57.0595 40.5944 0
v 57.0335 40.4471 0
v 57.0149 40.2987 0
v 57.0037 40.1495 0
v 57 40 0
v 57.0037 39.8505 0
v 57.0149 39.7013 0
v 57.0335 39.5529 0
v 57.0595 39.4056 0
v 57.0928 39.2597 0
v 57.1333 39.1157 0
v 57.1809 38.9739 0
v 57.2356 38.8347 0
v 57.2971 38.6983 0
v 57.3653 38.5652 0
v 57.4401 38.4357 0
v 57.5213 38.31 0
v 57.6086 38.1886 0
v 57.7019 38.0716 0
v 57.8008 37.9595 0
v 57.9053 37.8524 0
v 58.0149 37.7507 0
v 58.1295 37.6545 0
v 58.2488 37.5642 0
v 58.3724 37.4799 0
v 58.5 37.4019 0
v 58.6314 37.3304 0
v 58.7661 37.2655 0
v 58.904 37.2074 0
v 59.0445 37.1562 0
v 59.1875 37.1121 0
v 59.3324 37.0752 0
v 59.4791 37.0456 0
v 59.627 37.0233 0
v 59.7758 37.0084 0
v 59.9252 37.0009 0
v 60.0748 37.0009 0
v 60.2242 37.0084 0
v 60.373 37.0233 0
v 60.5209 37.0456 0
v 60.6676 37.0752 0
v 60.8125 37.1121 0
v 60.9555 37.1562 0
v 61.096 37.2074 0
v 61.2339 37.2655 0
v 61.3686 37.3304 0
v 61.5 37.4019 0
v 61.6276 37.4799 0
v 61.7512 37.5642 0
v 61.8705 37.6545 0
v 61.9851 37.7507 0
v 62.0947 37.8524 0
v 62.1992 37.9595 0
v 62.2981 38.0716 0
v 62.3914 38.1886 0
v 62.4787 38.31 0
v 62.5599 38.4357 0
v 62.6347 38.5652 0
v 62.7029 38.6983 0
v 62.7644 38.8347 0
v 62.8191 38.9739 0
v 62.8667 39.1157 0
v 62.9072 39.2597 0
v 62.9405 39.4056 0
v 62.9665 39.5529 0
v 62.9851 39.7013 0
v 62.9963 39.8505 0
v 0 0 50
v 0 8 50
v 80 0 50
v 80 8 50
v 0 0 0
v 80 0 0
v 0 0 50
v 80 0 50
v 23 -8.15779e-32 30
v 22.9963 1.6602e-17 29.8505
v 22.9851 3.31628e-17 29.7013
v 22.9665 4.9641e-17 29.5529
v 22.9405 6.59959e-17 29.4056
v 22.9072 8.21867e-17 29.2597
v 22.8667 9.81732e-17 29.1157
v 22.8191 1.13916e-16 28.9739
v 22.7644 1.29375e-16 28.8347
v 22.7029 1.44512e-16 28.6983
v 22.6347 1.59291e-16 28.5652
v 22.5599 1.73673e-16 28.4357
v 22.4787 1.87623e-16 28.31
v 22.3914 2.01107e-16 28.1886
v 22.2981 2.14091e-16 28.0716
v 22.1992 2.26543e-16 27.9595
v 22.0947 2.38432e-16 27.8524
v 21.9851 2.49727e-16 27.7507
v 21.8705 2.60402e-16 27.6545
v 21.7512 2.7043e-16 27.5642
v 21.6276 2.79785e-16 27.4799
v 21.5 2.88444e-16 27.4019
v 21.3686 2.96387e-16 27.3304
v 21.2339 3.03592e-16 27.2655
v 21.096 3.10043e-16 27.2074
v 20.9555 3.15723e-16 27.1562
v 20.8125 3.20618e-16 27.1121
v 20.6676 3.24716e-16 27.0752
v 20.5209 3.28007e-16 27.0456
v 20.373 3.30482e-16 27.0233
v 20.2242 3.32136e-16 27.0084
v 20.0748 3.32963e-16 27.0009
v 19.9252 3.32963e-16 27.0009
v 19.7758 3.32136e-16 27.0084
v 19.627 3.30482e-16 27.0233
v 19.4791 3.28007e-16 27.0456
v 19.3324 3.24716e-16 27.0752
v 19.1875 3.20618e-16 27.1121
v 19.0445 3.15723e-16 27.1562
v 18.904 3.10043e-16 27.2074
v 18.7661 3.03592e-16 27.2655
v 18.6314 2.96387e-16 27.3304
v 18.5 2.88444e-16 27.4019
v 18.3724 2.79785e-16 27.4799
v 18.2488 2.7043e-16 27.5642
v 18.1295 2.60402e-16 27.6545
v 18.0149 2.49727e-16 27.7507
v 17.9053 2.38432e-16 27.8524
v 17.8008 2.26543e-16 27.9595
v 17.7019 2.14091e-16 28.0716
v 17.6086 2.01107e-16 28.1886
v 17.5213 1.87623e-16 28.31
v 17.4401 1.73673e-16 28.4357
v 17.3653 1.59291e-16 28.5652
v 17.2971 1.44512e-16 28.6983
v 17.2356 1.29375e-16 28.8347
v 17.1809 1.13916e-16 28.9739
v 17.1333 9.81732e-17 29.1157
v 17.0928 8.21867e-17 29.2597
v 17.0595 6.59959e-17 29.4056
v 17.0335 4.9641e-17 29.5529
v 17.0149 3.31628e-17 29.7013
v 17.0037 1.6602e-17 29.8505
v 17 -1.1425e-30 30
v 17.0037 -1.6602e-17 30.1495
v 17.0149 -3.31628e-17 30.2987
v 17.0335 -4.9641e-17 30.4471
v 17.0595 -6.59959e-17 30.5944
v 17.0928 -8.21867e-17 30.7403
v 17.1333 -9.81732e-17 30.8843
v 17.1809 -1.13916e-16 31.0261
v 17.2356 -1.29375e-16 31.1653
v 17.2971 -1.44512e-16 31.3017
v 17.3653 -1.59291e-16 31.4348
v 17.4401 -1.73673e-16 31.5643
v 17.5213 -1.87623e-16 31.69
v 17.6086 -2.01107e-16 31.8114
v 17.7019 -2.14091e-16 31.9284
v 17.8008 -2.26543e-16 32.0405
v 17.9053 -2.38432e-16 32.1476
v 18.0149 -2.49727e-16 32.2493
v 18.1295 -2.60402e-16 32.3455
v 18.2488 -2.7043e-16 32.4358
v 18.3724 -2.79785e-16 32.5201
v 18.5 -2.88444e-16 32.5981
v 18.6314 -2.96387e-16 32.6696
v 18.7661 -3.03592e-16 32.7345
v 18.904 -3.10043e-16 32.7926
v 19.0445 -3.15723e-16 32.8438
v 19.1875 -3.20618e-16 32.8879
v 19.3324 -3.24716e-16 32.9248
v 19.4791 -3.28007e-16 32.9544
v 19.627 -3.30482e-16 32.9767
v 19.7758 -3.32136e-16 32.9916
v 19.9252 -3.32963e-16 32.9991
v 20.0748 -3.32963e-16 32.9991
v 20.2242 -3.32136e-16 32.9916
v 20.373 -3.30482e-16 32.9767
v 20.5209 -3.28007e-16 32.9544
v 20.6676 -3.24716e-16 32.9248
v 20.8125 -3.20618e-16 32.8879
v 20.9555 -3.15723e-16 32.8438
v 21.096 -3.10043e-16 32.7926
v 21.2339 -3.03592e-16 32.7345
v 21.3686 -2.96387e-16 32.6696
v 21.5 -2.88444e-16 32.5981
v 21.6276 -2.79785e-16 32.5201
v 21.7512 -2.7043e-16 32.4358
v 21.8705 -2.60402e-16 32.3455
v 21.9851 -2.49727e-16 32.2493
v 22.0947 -2.38432e-16 32.1476
v 22.1992 -2.26543e-16 32.0405
v 22.2981 -2.14091e-16 31.9284
v 22.3914 -2.01107e-16 31.8114
v 22.4787 -1.87623e-16 31.69
v 22.5599 -1.73673e-16 31.5643
v 22.6347 -1.59291e-16 31.4348
v 22.7029 -1.44512e-16 31.3017
v 22.7644 -1.29375e-16 31.1653
v 22.8191 -1.13916e-16 31.0261
v 22.8667 -9.81732e-17 30.8843
v 22.9072 -8.21867e-17 30.7403
v 22.9405 -6.59959e-17 30.5944
v 22.9665 -4.9641e-17 30.4471
v 22.9851 -3.31628e-17 30.2987
v 22.9963 -1.6602e-17 30.1495
v 63 -8.15779e-32 30
v 62.9963 1.6602e-17 29.8505
v 62.9851 3.31628e-17 29.7013
v 62.9665 4.9641e-17 29.5529
v 62.9405 6.59959e-17 29.4056
v 62.9072 8.21867e-17 29.2597
v 62.8667 9.81732e-17 29.1157
v 62.8191 1.13916e-16 28.9739
v 62.7644 1.29375e-16 28.8347
v 62.7029 1.44512e-16 28.6983
v 62.6347 1.59291e-16 28.5652
v 62.5599 1.73673e-16 28.4357
v 62.4787 1.87623e-16 28.31
v 62.3914 2.01107e-16 28.1886
v 62.2981 2.14091e-16 28.0716
v 62.1992 2.26543e-16 27.9595
v 62.0947 2.38432e-16 27.8524
v 61.9851 2.49727e-16 27.7507
v 61.8705 2.60402e-16 27.6545
v 61.7512 2.7043e-16 27.5642
v 61.6276 2.79785e-16 27.4799
v 61.5 2.88444e-16 27.4019
v 61.3686 2.96387e-16 27.3304
v 61.2339 3.03592e-16 27.2655
v 61.096 3.10043e-16 27.2074
v 60.9555 3.15723e-16 27.1562
v 60.8125 3.20618e-16 27.1121
v 60.6676 3.24716e-16 27.0752
v 60.5209 3.28007e-16 27.0456
v 60.373 3.30482e-16 27.0233
v 60.2242 3.32136e-16 27.0084
v 60.0748 3.32963e-16 27.0009
v 59.9252 3.32963e-16 27.0009
v 59.7758 3.32136e-16 27.0084
v 59.627 3.30482e-16 27.0233
v 59.4791 3.28007e-16 27.0456
v 59.3324 3.24716e-16 27.0752
v 59.1875 3.20618e-16 27.1121
v 59.0445 3.15723e-16 27.1562
v 58.904 3.10043e-16 27.2074
v 58.7661 3.03592e-16 27.2655
v 58.6314 2.96387e-16 27.3304
v 58.5 2.88444e-16 27.4019
v 58.3724 2.79785e-16 27.4799
v 58.2488 2.7043e-16 27.5642
v 58.1295 2.60402e-16 27.6545
v 58.0149 2.49727e-16 27.7507
v 57.9053 2.38432e-16 27.8524
v 57.8008 2.26543e-16 27.9595
v 57.7019 2.14091e-16 28.0716
v 57.6086 2.01107e-16 28.1886
v 57.5213 1.87623e-16 28.31
v 57.4401 1.73673e-16 28.4357
v 57.3653 1.59291e-16 28.5652
v 57.2971 1.44512e-16 28.6983
v 57.2356 1.29375e-16 28.8347
v 57.1809 1.13916e-16 28.9739
v 57.1333 9.81732e-17 29.1157
v 57.0928 8.21867e-17 29.2597
v 57.0595 6.59959e-17 29.4056
v 57.0335 4.9641e-17 29.5529
v 57.0149 3.31628e-17 29.7013
v 57.0037 1.6602e-17 29.8505
v 57 -1.1425e-30 30
v 57.0037 -1.6602e-17 30.1495
v 57.0149 -3.31628e-17 30.2987
v 57.0335 -4.9641e-17 30.4471
v 57.0595 -6.59959e-17 30.5944
v 57.0928 -8.21867e-17 30.7403
v 57.1333 -9.81732e-17 30.8843
v 57.1809 -1.13916e-16 31.0261
v 57.2356 -1.29375e-16 31.1653
v 57.2971 -1.44512e-16 31.3017
v 57.3653 -1.59291e-16 31.4348
v 57.4401 -1.73673e-16 31.5643
v 57.5213 -1.87623e-16 31.69
v 57.6086 -2.01107e-16 31.8114
v 57.7019 -2.14091e-16 31.9284
v 57.8008 -2.26543e-16 32.0405
v 57.9053 -2.38432e-16 32.1476
v 58.0149 -2.49727e-16 32.2493
v 58.1295 -2.60402e-16 32.3455
v 58.2488 -2.7043e-16 32.4358
v 58.3724 -2.79785e-16 32.5201
v 58.5 -2.88444e-16 32.5981
v 58.6314 -2.96387e-16 32.6696
v 58.7661 -3.03592e-16 32.7345
v 58.904 -3.10043e-16 32.7926
v 59.0445 -3.15723e-16 32.8438
v 59.1875 -3.20618e-16 32.8879
v 59.3324 -3.24716e-16 32.9248
v 59.4791 -3.28007e-16 32.9544
v 59.627 -3.30482e-16 32.9767
v 59.7758 -3.32136e-16 32.9916
v 59.9252 -3.32963e-16 32.9991
v 60.0748 -3.32963e-16 32.9991
v 60.2242 -3.32136e-16 32.9916
v 60.373 -3.30482e-16 32.9767
v 60.5209 -3.28007e-16 32.9544
v 60.6676 -3.24716e-16 32.9248
v 60.8125 -3.20618e-16 32.8879
v 60.9555 -3.15723e-16 32.8438
v 61.096 -3.10043e-16 32.7926
v 61.2339 -3.03592e-16 32.7345
v 61.3686 -2.96387e-16 32.6696
v 61.5 -2.88444e-16 32.5981
v 61.6276 -2.79785e-16 32.5201
v 61.7512 -2.7043e-16 32.4358
v 61.8705 -2.60402e-16 32.3455
v 61.9851 -2.49727e-16 32.2493
v 62.0947 -2.38432e-16 32.1476
v 62.1992 -2.26543e-16 32.0405
v 62.2981 -2.14091e-16 31.9284
v 62.3914 -2.01107e-16 31.8114
v 62.4787 -1.87623e-16 31.69
v 62.5599 -1.73673e-16 31.5643
v 62.6347 -1.59291e-16 31.4348
v 62.7029 -1.44512e-16 31.3017
v 62.7644 -1.29375e-16 31.1653
v 62.8191 -1.13916e-16 31.0261
v 62.8667 -9.81732e-17 30.8843
v 62.9072 -8.21867e-17 30.7403
v 62.9405 -6.59959e-17 30.5944
v 62.9665 -4.9641e-17 30.4471
v 62.9851 -3.31628e-17 30.2987
v 62.9963 -1.6602e-17 30.1495
v 80 14 8
v 80 60 8
v 80 8 14
v 80 8.00723 13.7056
v 80 8.02889 13.4119
v 80 8.06494 13.1196
v 80 8.11529 12.8295
v 80 8.17981 12.5421
v 80 8.25836 12.2583
v 80 8.35074 11.9787
v 80 8.45672 11.7039
v 80 8.57606 11.4347
v 80 8.70847 11.1716
v 80 8.85363 10.9154
v 80 9.01118 10.6666
v 80 9.18075 10.4258
v 80 9.36194 10.1936
v 80 9.55429 9.97065
v 80 9.75736 9.75736
v 80 9.97065 9.55429
v 80 10.1936 9.36194
v 80 10.4258 9.18075
v 80 10.6666 9.01118
v 80 10.9154 8.85363
v 80 11.1716 8.70847
v 80 11.4347 8.57606
v 80 11.7039 8.45672
v 80 11.9787 8.35074
v 80 12.2583 8.25836
v 80 12.5421 8.17981
v 80 12.8295 8.11529
v 80 13.1196 8.06494
v 80 13.4119 8.02889
v 80 13.7056 8.00723
v 80 8 50
v 80 0 50
v 80 0 0
v 80 60 0
v 23 40 8
v 22.9963 40.1495 8
v 22.9851 40.2987 8
v 22.9665 40.4471 8
v 22.9405 40.5944 8
v 22.9072 40.7403 8
v 22.8667 40.8843 8
v 22.8191 41.0261 8
v 22.7644 41.1653 8
v 22.7029 41.3017 8
v 22.6347 41.4348 8
v 22.5599 41.5643 8
v 22.4787 41.69 8
v 22.3914 41.8114 8
v 22.2981 41.9284 8
v 22.1992 42.0405 8
v 22.0947 42.1476 8
v 21.9851 42.2493 8
v 21.8705 42.3455 8
v 21.7512 42.4358 8
v 21.6276 42.5201 8
v 21.5 42.5981 8
v 21.3686 42.6696 8
v 21.2339 42.7345 8
v 21.096 42.7926 8
v 20.9555 42.8438 8
v 20.8125 42.8879 8
v 20.6676 42.9248 8
v 20.5209 42.9544 8
v 20.373 42.9767 8
v 20.2242 42.9916 8
v 20.0748 42.9991 8
v 19.9252 42.9991 8
v 19.7758 42.9916 8
v 19.627 42.9767 8
v 19.4791 42.9544 8
v 19.3324 42.9248 8
v 19.1875 42.8879 8
v 19.0445 42.8438 8
v 18.904 42.7926 8
v 18.7661 42.7345 8
v 18.6314 42.6696 8
v 18.5 42.5981 8
v 18.3724 42.5201 8
v 18.2488 42.4358 8
v 18.1295 42.3455 8
v 18.0149 42.2493 8
v 17.9053 42.1476 8
v 17.8008 42.0405 8
v 17.7019 41.9284 8
v 17.6086 41.8114 8
v 17.5213 41.69 8
v 17.4401 41.5643 8
v 17.3653 41.4348 8
v 17.2971 41.3017 8
v 17.2356 41.1653 8
v 17.1809 41.0261 8
v 17.1333 40.8843 8
v 17.0928 40.7403 8
v 17.0595 40.5944 8
v 17.0335 40.4471 8
v 17.0149 40.2987 8
v 17.0037 40.1495 8
v 17 40 8
v 17.0037 39.8505 8
v 17.0149 39.7013 8
v 17.0335 39.5529 8
v 17.0595 39.4056 8
v 17.0928 39.2597 8
v 17.1333 39.1157 8
v 17.1809 38.9739 8
v 17.2356 38.8347 8
v 17.2971 38.6983 8
v 17.3653 38.5652 8
v 17.4401 38.4357 8
v 17.5213 38.31 8
v 17.6086 38.1886 8
v 17.7019 38.0716 8
v 17.8008 37.9595 8
v 17.9053 37.8524 8
v 18.0149 37.7507 8
v 18.1295 37.6545 8
v 18.2488 37.5642 8
v 18.3724 37.4799 8
v 18.5 37.4019 8
v 18.6314 37.3304 8
v 18.7661 37.2655 8
v 18.904 37.2074 8
v 19.0445 37.1562 8
v 19.1875 37.1121 8
v 19.3324 37.0752 8
v 19.4791 37.0456 8
v 19.627 37.0233 8
v 19.7758 37.0084 8
v 19.9252 37.0009 8
v 20.0748 37.0009 8
v 20.2242 37.0084 8
v 20.373 37.0233 8
v 20.5209 37.0456 8
v 20.6676 37.0752 8
v 20.8125 37.1121 8
v 20.9555 37.1562 8
v 21.096 37.2074 8
v 21.2339 37.2655 8
v 21.3686 37.3304 8
v 21.5 37.4019 8
v 21.6276 37.4799 8
v 21.7512 37.5642 8
v 21.8705 37.6545 8
v 21.9851 37.7507 8
v 22.0947 37.8524 8
v 22.1992 37.9595 8
v 22.2981 38.0716 8
v 22.3914 38.1886 8
v 22.4787 38.31 8
v 22.5599 38.4357 8
v 22.6347 38.5652 8
v 22.7029 38.6983 8
v 22.7644 38.8347 8
v 22.8191 38.9739 8
v 22.8667 39.1157 8
v 22.9072 39.2597 8
v 22.9405 39.4056 8
v 22.9665 39.5529 8
v 22.9851 39.7013 8
v 22.9963 39.8505 8
v 23 40 8
v 23 40 0
v 22.9963 40.1495 0
v 22.9851 40.2987 0
v 22.9665 40.4471 0
v 22.9405 40.5944 0
v 22.9072 40.7403 0
v 22.8667 40.8843 0
v 22.8191 41.0261 0
v 22.7644 41.1653 0
v 22.7029 41.3017 0
v 22.6347 41.4348 0
v 22.5599 41.5643 0
v 22.4787 41.69 0
v 22.3914 41.8114 0
v 22.2981 41.9284 0
v 22.1992 42.0405 0
v 22.0947 42.1476 0
v 21.9851 42.2493 0
v 21.8705 42.3455 0
v 21.7512 42.4358 0
v 21.6276 42.5201 0
v 21.5 42.5981 0
v 21.3686 42.6696 0
v 21.2339 42.7345 0
v 21.096 42.7926 0
v 20.9555 42.8438 0
v 20.8125 42.8879 0
v 20.6676 42.9248 0
v 20.5209 42.9544 0
v 20.373 42.9767 0
v 20.2242 42.9916 0
v 20.0748 42.9991 0
v 19.9252 42.9991 0
v 19.7758 42.9916 0
v 19.627 42.9767 0
v 19.4791 42.9544 0
v 19.3324 42.9248 0
v 19.1875 42.8879 0
v 19.0445 42.8438 0
v 18.904 42.7926 0
v 18.7661 42.7345 0
v 18.6314 42.6696 0
v 18.5 42.5981 0
v 18.3724 42.5201 0
v 18.2488 42.4358 0
v 18.1295 42.3455 0
v 18.0149 42.2493 0
v 17.9053 42.1476 0
v 17.8008 42.0405 0
v 17.7019 41.9284 0
v 17.6086 41.8114 0
v 17.5213 41.69 0
v 17.4401 41.5643 0
v 17.3653 41.4348 0
v 17.2971 41.3017 0
v 17.2356 41.1653 0
v 17.1809 41.0261 0
v 17.1333 40.8843 0
v 17.0928 40.7403 0
v 17.0595 40.5944 0
v 17.0335 40.4471 0
v 17.0149 40.2987 0
v 17.0037 40.1495 0
v 17 40 0
v 17.0037 39.8505 0
v 17.0149 39.7013 0
v 17.0335 39.5529 0
v 17.0595 39.4056 0
v 17.0928 39.2597 0
v 17.1333 39.1157 0
v 17.1809 38.9739 0
v 17.2356 38.8347 0
v 17.2971 38.6983 0
v 17.3653 38.5652 0
v 17.4401 38.4357 0
v 17.5213 38.31 0
v 17.6086 38.1886 0
v 17.7019 38.0716 0
v 17.8008 37.9595 0
v 17.9053 37.8524 0
v 18.0149 37.7507 0
v 18.1295 37.6545 0
v 18.2488 37.5642 0
v 18.3724 37.4799 0
v 18.5 37.4019 0
v 18.6314 37.3304 0
v 18.7661 37.2655 0
v 18.904 37.2074 0
v 19.0445 37.1562 0
v 19.1875 37.1121 0
v 19.3324 37.0752 0
v 19.4791 37.0456 0
v 19.627 37.0233 0
v 19.7758 37.0084 0
v 19.9252 37.0009 0
v 20.0748 37.0009 0
v 20.2242 37.0084 0
v 20.373 37.0233 0
v 20.5209 37.0456 0
v 20.6676 37.0752 0
v 20.8125 37.1121 0
v 20.9555 37.1562 0
v 21.096 37.2074 0
v 21.2339 37.2655 0
v 21.3686 37.3304 0
v 21.5 37.4019 0
v 21.6276 37.4799 0
v 21.7512 37.5642 0
v 21.8705 37.6545 0
v 21.9851 37.7507 0
v 22.0947 37.8524 0
v 22.1992 37.9595 0
v 22.2981 38.0716 0
v 22.3914 38.1886 0
v 22.4787 38.31 0
v 22.5599 38.4357 0
v 22.6347 38.5652 0
v 22.7029 38.6983 0
v 22.7644 38.8347 0
v 22.8191 38.9739 0
v 22.8667 39.1157 0
v 22.9072 39.2597 0
v 22.9405 39.4056 0
v 22.9665 39.5529 0
v 22.9851 39.7013 0
v 22.9963 39.8505 0
v 23 40 0
v 63 40 8
v 62.9963 40.1495 8
v 62.9851 40.2987 8
v 62.9665 40.4471 8
v 62.9405 40.5944 8
v 62.9072 40.7403 8
v 62.8667 40.8843 8
v 62.8191 41.0261 8
v 62.7644 41.1653 8
v 62.7029 41.3017 8
v 62.6347 41.4348 8
v 62.5599 41.5643 8
v 62.4787 41.69 8
v 62.3914 41.8114 8
v 62.2981 41.9284 8
v 62.1992 42.0405 8
v 62.0947 42.1476 8
v 61.9851 42.2493 8
v 61.8705 42.3455 8
v 61.7512 42.4358 8
v 61.6276 42.5201 8
v 61.5 42.5981 8
v 61.3686 42.6696 8
v 61.2339 42.7345 8
v 61.096 42.7926 8
v 60.9555 42.8438 8
v 60.8125 42.8879 8
v 60.6676 42.9248 8
v 60.5209 42.9544 8
v 60.373 42.9767 8
v 60.2242 42.9916 8
v 60.0748 42.9991 8
v 59.9252 42.9991 8
v 59.7758 42.9916 8
v 59.627 42.9767 8
v 59.4791 42.9544 8
v 59.3324 42.9248 8
v 59.1875 42.8879 8
v 59.0445 42.8438 8
v 58.904 42.7926 8
v 58.7661 42.7345 8
v 58.6314 42.6696 8
v 58.5 42.5981 8
v 58.3724 42.5201 8
v 58.2488 42.4358 8
v 58.1295 42.3455 8
v 58.0149 42.2493 8
v 57.9053 42.1476 8
v 57.8008 42.0405 8
v 57.7019 41.9284 8
v 57.6086 41.8114 8
v 57.5213 41.69 8
v 57.4401 41.5643 8
v 57.3653 41.4348 8
v 57.2971 41.3017 8
v 57.2356 41.1653 8
v 57.1809 41.0261 8
v 57.1333 40.8843 8
v 57.0928 40.7403 8
v 57.0595 40.5944 8
v 57.0335 40.4471 8
v 57.0149 40.2987 8
v 57.0037 40.1495 8
v 57 40 8
v 57.0037 39.8505 8
v 57.0149 39.7013 8
v 57.0335 39.5529 8
v 57.0595 39.4056 8
v 57.0928 39.2597 8
v 57.1333 39.1157 8
v 57.1809 38.9739 8
v 57.2356 38.8347 8
v 57.2971 38.6983 8
v 57.3653 38.5652 8
v 57.4401 38.4357 8
v 57.5213 38.31 8
v 57.6086 38.1886 8
v 57.7019 38.0716 8
v 57.8008 37.9595 8
v 57.9053 37.8524 8
v 58.0149 37.7507 8
v 58.1295 37.6545 8
v 58.2488 37.5642 8
v 58.3724 37.4799 8
v 58.5 37.4019 8
v 58.6314 37.3304 8
v 58.7661 37.2655 8
v 58.904 37.2074 8
v 59.0445 37.1562 8
v 59.1875 37.1121 8
v 59.3324 37.0752 8
v 59.4791 37.0456 8
v 59.627 37.0233 8
v 59.7758 37.0084 8
v 59.9252 37.0009 8
v 60.0748 37.0009 8
v 60.2242 37.0084 8
v 60.373 37.0233 8
v 60.5209 37.0456 8
v 60.6676 37.0752 8
v 60.8125 37.1121 8
v 60.9555 37.1562 8
v 61.096 37.2074 8
v 61.2339 37.2655 8
v 61.3686 37.3304 8
v 61.5 37.4019 8
v 61.6276 37.4799 8
v 61.7512 37.5642 8
v 61.8705 37.6545 8
v 61.9851 37.7507 8
v 62.0947 37.8524 8
v 62.1992 37.9595 8
v 62.2981 38.0716 8
v 62.3914 38.1886 8
v 62.4787 38.31 8
v 62.5599 38.4357 8
v 62.6347 38.5652 8
v 62.7029 38.6983 8
v 62.7644 38.8347 8
v 62.8191 38.9739 8
v 62.8667 39.1157 8
v 62.9072 39.2597 8
v 62.9405 39.4056 8
v 62.9665 39.5529 8
v 62.9851 39.7013 8
v 62.9963 39.8505 8
v 63 40 8
v 63 40 0
v 62.9963 40.1495 0
v 62.9851 40.2987 0
v 62.9665 40.4471 0
v 62.9405 40.5944 0
v 62.9072 40.7403 0
v 62.8667 40.8843 0
v 62.8191 41.0261 0
v 62.7644 41.1653 0
v 62.7029 41.3017 0
v 62.6347 41.4348 0
v 62.5599 41.5643 0
v 62.4787 41.69 0
v 62.3914 41.8114 0
v 62.2981 41.9284 0
v 62.1992 42.0405 0
v 62.0947 42.1476 0
v 61.9851 42.2493 0
v 61.8705 42.3455 0
v 61.7512 42.4358 0
v 61.6276 42.5201 0
v 61.5 42.5981 0
v 61.3686 42.6696 0
v 61.2339 42.7345 0
v 61.096 42.7926 0
v 60.9555 42.8438 0
v 60.8125 42.8879 0
v 60.6676 42.9248 0
v 60.5209 42.9544 0
v 60.373 42.9767 0
v 60.2242 42.9916 0
v 60.0748 42.9991 0
v 59.9252 42.9991 0
v 59.7758 42.9916 0
v 59.627 42.9767 0
v 59.4791 42.9544 0
v 59.3324 42.9248 0
v 59.1875 42.8879 0
v 59.0445 42.8438 0
v 58.904 42.7926 0
v 58.7661 42.7345 0
v 58.6314 42.6696 0
v 58.5 42.5981 0
v 58.3724 42.5201 0
v 58.2488 42.4358 0
v 58.1295 42.3455 0
v 58.0149 42.2493 0
v 57.9053 42.1476 0
v 57.8008 42.0405 0
v 57.7019 41.9284 0
v 57.6086 41.8114 0
v 57.5213 41.69 0
v 57.4401 41.5643 0
v 57.3653 41.4348 0
v 57.2971 41.3017 0
v 57.2356 41.1653 0
v 57.1809 41.0261 0
v 57.1333 40.8843 0
v 57.0928 40.7403 0
v 57.0595 40.5944 0
v 57.0335 40.4471 0
v 57.0149 40.2987 0
v 57.0037 40.1495 0
v 57 40 0
v 57.0037 39.8505 0
v 57.0149 39.7013 0
v 57.0335 39.5529 0
v 57.0595 39.4056 0
v 57.0928 39.2597 0
v 57.1333 39.1157 0
v 57.1809 38.9739 0
v 57.2356 38.8347 0
v 57.2971 38.6983 0
v 57.3653 38.5652 0
v 57.4401 38.4357 0
v 57.5213 38.31 0
v 57.6086 38.1886 0
v 57.7019 38.0716 0
v 57.8008 37.9595 0
v 57.9053 37.8524 0
v 58.0149 37.7507 0
v 58.1295 37.6545 0
v 58.2488 37.5642 0
v 58.3724 37.4799 0
v 58.5 37.4019 0
v 58.6314 37.3304 0
v 58.7661 37.2655 0
v 58.904 37.2074 0
v 59.0445 37.1562 0
v 59.1875 37.1121 0
v 59.3324 37.0752 0
v 59.4791 37.0456 0
v 59.627 37.0233 0
v 59.7758 37.0084 0
v 59.9252 37.0009 0
v 60.0748 37.0009 0
v 60.2242 37.0084 0
v 60.373 37.0233 0
v 60.5209 37.0456 0
v 60.6676 37.0752 0
v 60.8125 37.1121 0
v 60.9555 37.1562 0
v 61.096 37.2074 0
v 61.2339 37.2655 0
v 61.3686 37.3304 0
v 61.5 37.4019 0
v 61.6276 37.4799 0
v 61.7512 37.5642 0
v 61.8705 37.6545 0
v 61.9851 37.7507 0
v 62.0947 37.8524 0
v 62.1992 37.9595 0
v 62.2981 38.0716 0
v 62.3914 38.1886 0
v 62.4787 38.31 0
v 62.5599 38.4357 0
v 62.6347 38.5652 0
v 62.7029 38.6983 0
v 62.7644 38.8347 0
v 62.8191 38.9739 0
v 62.8667 39.1157 0
v 62.9072 39.2597 0
v 62.9405 39.4056 0
v 62.9665 39.5529 0
v 62.9851 39.7013 0
v 62.9963 39.8505 0
v 63 40 0
v 23 8 30
v 22.9963 8 29.8505
v 22.9851 8 29.7013
v 22.9665 8 29.5529
v 22.9405 8 29.4056
v 22.9072 8 29.2597
v 22.8667 8 29.1157
v 22.8191 8 28.9739
v 22.7644 8 28.8347
v 22.7029 8 28.6983
v 22.6347 8 28.5652
v 22.5599 8 28.4357
v 22.4787 8 28.31
v 22.3914 8 28.1886
v 22.2981 8 28.0716
v 22.1992 8 27.9595
v 22.0947 8 27.8524
v 21.9851 8 27.7507
v 21.8705 8 27.6545
v 21.7512 8 27.5642
v 21.6276 8 27.4799
v 21.5 8 27.4019
v 21.3686 8 27.3304
v 21.2339 8 27.2655
v 21.096 8 27.2074
v 20.9555 8 27.1562
v 20.8125 8 27.1121
v 20.6676 8 27.0752
v 20.5209 8 27.0456
v 20.373 8 27.0233
v 20.2242 8 27.0084
v 20.0748 8 27.0009
v 19.9252 8 27.0009
v 19.7758 8 27.0084
v 19.627 8 27.0233
v 19.4791 8 27.0456
v 19.3324 8 27.0752
v 19.1875 8 27.1121
v 19.0445 8 27.1562
v 18.904 8 27.2074
v 18.7661 8 27.2655
v 18.6314 8 27.3304
v 18.5 8 27.4019
v 18.3724 8 27.4799
v 18.2488 8 27.5642
v 18.1295 8 27.6545
v 18.0149 8 27.7507
v 17.9053 8 27.8524
v 17.8008 8 27.9595
v 17.7019 8 28.0716
v 17.6086 8 28.1886
v 17.5213 8 28.31
v 17.4401 8 28.4357
v 17.3653 8 28.5652
v 17.2971 8 28.6983
v 17.2356 8 28.8347
v 17.1809 8 28.9739
v 17.1333 8 29.1157
v 17.0928 8 29.2597
v 17.0595 8 29.4056
v 17.0335 8 29.5529
v 17.0149 8 29.7013
v 17.0037 8 29.8505
v 17 8 30
v 17.0037 8 30.1495
v 17.0149 8 30.2987
v 17.0335 8 30.4471
v 17.0595 8 30.5944
v 17.0928 8 30.7403
v 17.1333 8 30.8843
v 17.1809 8 31.0261
v 17.2356 8 31.1653
v 17.2971 8 31.3017
v 17.3653 8 31.4348
v 17.4401 8 31.5643
v 17.5213 8 31.69
v 17.6086 8 31.8114
v 17.7019 8 31.9284
v 17.8008 8 32.0405
v 17.9053 8 32.1476
v 18.0149 8 32.2493
v 18.1295 8 32.3455
v 18.2488 8 32.4358
v 18.3724 8 32.5201
v 18.5 8 32.5981
v 18.6314 8 32.6696
v 18.7661 8 32.7345
v 18.904 8 32.7926
v 19.0445 8 32.8438
v 19.1875 8 32.8879
v 19.3324 8 32.9248
v 19.4791 8 32.9544
v 19.627 8 32.9767
v 19.7758 8 32.9916
v 19.9252 8 32.9991
v 20.0748 8 32.9991
v 20.2242 8 32.9916
v 20.373 8 32.9767
v 20.5209 8 32.9544
v 20.6676 8 32.9248
v 20.8125 8 32.8879
v 20.9555 8 32.8438
v 21.096 8 32.7926
v 21.2339 8 32.7345
v 21.3686 8 32.6696
v 21.5 8 32.5981
v 21.6276 8 32.5201
v 21.7512 8 32.4358
v 21.8705 8 32.3455
v 21.9851 8 32.2493
v 22.0947 8 32.1476
v 22.1992 8 32.0405
v 22.2981 8 31.9284
v 22.3914 8 31.8114
v 22.4787 8 31.69
v 22.5599 8 31.5643
v 22.6347 8 31.4348
v 22.7029 8 31.3017
v 22.7644 8 31.1653
v 22.8191 8 31.0261
v 22.8667 8 30.8843
v 22.9072 8 30.7403
v 22.9405 8 30.5944
v 22.9665 8 30.4471
v 22.9851 8 30.2987
v 22.9963 8 30.1495
v 23 8 30
v 23 0 30
v 22.9963 1.6602e-17 29.8505
v 22.9851 3.31628e-17 29.7013
v 22.9665 4.9641e-17 29.5529
v 22.9405 6.59959e-17 29.4056
v 22.9072 8.21867e-17 29.2597
v 22.8667 9.81732e-17 29.1157
v 22.8191 1.13916e-16 28.9739
v 22.7644 1.29375e-16 28.8347
v 22.7029 1.44512e-16 28.6983
v 22.6347 1.59291e-16 28.5652
v 22.5599 1.73673e-16 28.4357
v 22.4787 1.87623e-16 28.31
v 22.3914 2.01107e-16 28.1886
v 22.2981 2.14091e-16 28.0716
v 22.1992 2.26543e-16 27.9595
v 22.0947 2.38432e-16 27.8524
v 21.9851 2.49727e-16 27.7507
v 21.8705 2.60402e-16 27.6545
v 21.7512 2.7043e-16 27.5642
v 21.6276 2.79785e-16 27.4799
v 21.5 2.88444e-16 27.4019
v 21.3686 2.96387e-16 27.3304
v 21.2339 3.03592e-16 27.2655
v 21.096 3.10043e-16 27.2074
v 20.9555 3.15723e-16 27.1562
v 20.8125 3.20618e-16 27.1121
v 20.6676 3.24716e-16 27.0752
v 20.5209 3.28007e-16 27.0456
v 20.373 3.30482e-16 27.0233
v 20.2242 3.32136e-16 27.0084
v 20.0748 3.32963e-16 27.0009
v 19.9252 3.32963e-16 27.0009
v 19.7758 3.32136e-16 27.0084
v 19.627 3.30482e-16 27.0233
v 19.4791 3.28007e-16 27.0456
v 19.3324 3.24716e-16 27.0752
v 19.1875 3.20618e-16 27.1121
v 19.0445 3.15723e-16 27.1562
v 18.904 3.10043e-16 27.2074
v 18.7661 3.03592e-16 27.2655
v 18.6314 2.96387e-16 27.3304
v 18.5 2.88444e-16 27.4019
v 18.3724 2.79785e-16 27.4799
v 18.2488 2.7043e-16 27.5642
v 18.1295 2.60402e-16 27.6545
v 18.0149 2.49727e-16 27.7507
v 17.9053 2.38432e-16 27.8524
v 17.8008 2.26543e-16 27.9595
v 17.7019 2.14091e-16 28.0716
v 17.6086 2.01107e-16 28.1886
v 17.5213 1.87623e-16 28.31
v 17.4401 1.73673e-16 28.4357
v 17.3653 1.59291e-16 28.5652
v 17.2971 1.44512e-16 28.6983
v 17.2356 1.29375e-16 28.8347
v 17.1809 1.13916e-16 28.9739
v 17.1333 9.81732e-17 29.1157
v 17.0928 8.21867e-17 29.2597
v 17.0595 6.59959e-17 29.4056
v 17.0335 4.9641e-17 29.5529
v 17.0149 3.31628e-17 29.7013
v 17.0037 1.6602e-17 29.8505
v 17 -1.18329e-30 30
v 17.0037 -1.6602e-17 30.1495
v 17.0149 -3.31628e-17 30.2987
v 17.0335 -4.9641e-17 30.4471
v 17.0595 -6.59959e-17 30.5944
v 17.0928 -8.21867e-17 30.7403
v 17.1333 -9.81732e-17 30.8843
v 17.1809 -1.13916e-16 31.0261
v 17.2356 -1.29375e-16 31.1653
v 17.2971 -1.44512e-16 31.3017
v 17.3653 -1.59291e-16 31.4348
v 17.4401 -1.73673e-16 31.5643
v 17.5213 -1.87623e-16 31.69
v 17.6086 -2.01107e-16 31.8114
v 17.7019 -2.14091e-16 31.9284
v 17.8008 -2.26543e-16 32.0405
v 17.9053 -2.38432e-16 32.1476
v 18.0149 -2.49727e-16 32.2493
v 18.1295 -2.60402e-16 32.3455
v 18.2488 -2.7043e-16 32.4358
v 18.3724 -2.79785e-16 32.5201
v 18.5 -2.88444e-16 32.5981
v 18.6314 -2.96387e-16 32.6696
v 18.7661 -3.03592e-16 32.7345
v 18.904 -3.10043e-16 32.7926
v 19.0445 -3.15723e-16 32.8438
v 19.1875 -3.20618e-16 32.8879
v 19.3324 -3.24716e-16 32.9248
v 19.4791 -3.28007e-16 32.9544
v 19.627 -3.30482e-16 32.9767
v 19.7758 -3.32136e-16 32.9916
v 19.9252 -3.32963e-16 32.9991
v 20.0748 -3.32963e-16 32.9991
v 20.2242 -3.32136e-16 32.9916
v 20.373 -3.30482e-16 32.9767
v 20.5209 -3.28007e-16 32.9544
v 20.6676 -3.24716e-16 32.9248
v 20.8125 -3.20618e-16 32.8879
v 20.9555 -3.15723e-16 32.8438
v 21.096 -3.10043e-16 32.7926
v 21.2339 -3.03592e-16 32.7345
v 21.3686 -2.96387e-16 32.6696
v 21.5 -2.88444e-16 32.5981
v 21.6276 -2.79785e-16 32.5201
v 21.7512 -2.7043e-16 32.4358
v 21.8705 -2.60402e-16 32.3455
v 21.9851 -2.49727e-16 32.2493
v 22.0947 -2.38432e-16 32.1476
v 22.1992 -2.26543e-16 32.0405
v 22.2981 -2.14091e-16 31.9284
v 22.3914 -2.01107e-16 31.8114
v 22.4787 -1.87623e-16 31.69
v 22.5599 -1.73673e-16 31.5643
v 22.6347 -1.59291e-16 31.4348
v 22.7029 -1.44512e-16 31.3017
v 22.7644 -1.29375e-16 31.1653
v 22.8191 -1.13916e-16 31.0261
v 22.8667 -9.81732e-17 30.8843
v 22.9072 -8.21867e-17 30.7403
v 22.9405 -6.59959e-17 30.5944
v 22.9665 -4.9641e-17 30.4471
v 22.9851 -3.31628e-17 30.2987
v 22.9963 -1.6602e-17 30.1495
v 23 0 30
v 63 8 30
v 62.9963 8 29.8505
v 62.9851 8 29.7013
v 62.9665 8 29.5529
v 62.9405 8 29.4056
v 62.9072 8 29.2597
v 62.8667 8 29.1157
v 62.8191 8 28.9739
v 62.7644 8 28.8347
v 62.7029 8 28.6983
v 62.6347 8 28.5652
v 62.5599 8 28.4357
v 62.4787 8 28.31
v 62.3914 8 28.1886
v 62.2981 8 28.0716
v 62.1992 8 27.9595
v 62.0947 8 27.8524
v 61.9851 8 27.7507
v 61.8705 8 27.6545
v 61.7512 8 27.5642
v 61.6276 8 27.4799
v 61.5 8 27.4019
v 61.3686 8 27.3304
v 61.2339 8 27.2655
v 61.096 8 27.2074
v 60.9555 8 27.1562
v 60.8125 8 27.1121
v 60.6676 8 27.0752
v 60.5209 8 27.0456
v 60.373 8 27.0233
v 60.2242 8 27.0084
v 60.0748 8 27.0009
v 59.9252 8 27.0009
v 59.7758 8 27.0084
v 59.627 8 27.0233
v 59.4791 8 27.0456
v 59.3324 8 27.0752
v 59.1875 8 27.1121
v 59.0445 8 27.1562
v 58.904 8 27.2074
v 58.7661 8 27.2655
v 58.6314 8 27.3304
v 58.5 8 27.4019
v 58.3724 8 27.4799
v 58.2488 8 27.5642
v 58.1295 8 27.6545
v 58.0149 8 27.7507
v 57.9053 8 27.8524
v 57.8008 8 27.9595
v 57.7019 8 28.0716
v 57.6086 8 28.1886
v 57.5213 8 28.31
v 57.4401 8 28.4357
v 57.3653 8 28.5652
v 57.2971 8 28.6983
v 57.2356 8 28.8347
v 57.1809 8 28.9739
v 57.1333 8 29.1157
v 57.0928 8 29.2597
v 57.0595 8 29.4056
v 57.0335 8 29.5529
v 57.0149 8 29.7013
v 57.0037 8 29.8505
v 57 8 30
v 57.0037 8 30.1495
v 57.0149 8 30.2987
v 57.0335 8 30.4471
v 57.0595 8 30.5944
v 57.0928 8 30.7403
v 57.1333 8 30.8843
v 57.1809 8 31.0261
v 57.2356 8 31.1653
v 57.2971 8 31.3017
v 57.3653 8 31.4348
v 57.4401 8 31.5643
v 57.5213 8 31.69
v 57.6086 8 31.8114
v 57.7019 8 31.9284
v 57.8008 8 32.0405
v 57.9053 8 32.1476
v 58.0149 8 32.2493
v 58.1295 8 32.3455
v 58.2488 8 32.4358
v 58.3724 8 32.5201
v 58.5 8 32.5981
v 58.6314 8 32.6696
v 58.7661 8 32.7345
v 58.904 8 32.7926
v 59.0445 8 32.8438
v 59.1875 8 32.8879
v 59.3324 8 32.9248
v 59.4791 8 32.9544
v 59.627 8 32.9767
v 59.7758 8 32.9916
v 59.9252 8 32.9991
v 60.0748 8 32.9991
v 60.2242 8 32.9916
v 60.373 8 32.9767
v 60.5209 8 32.9544
v 60.6676 8 32.9248
v 60.8125 8 32.8879
v 60.9555 8 32.8438
v 61.096 8 32.7926
v 61.2339 8 32.7345
v 61.3686 8 32.6696
v 61.5 8 32.5981
v 61.6276 8 32.5201
v 61.7512 8 32.4358
v 61.8705 8 32.3455
v 61.9851 8 32.2493
v 62.0947 8 32.1476
v 62.1992 8 32.0405
v 62.2981 8 31.9284
v 62.3914 8 31.8114
v 62.4787 8 31.69
v 62.5599 8 31.5643
v 62.6347 8 31.4348
v 62.7029 8 31.3017
v 62.7644 8 31.1653
v 62.8191 8 31.0261
v 62.8667 8 30.8843
v 62.9072 8 30.7403
v 62.9405 8 30.5944
v 62.9665 8 30.4471
v 62.9851 8 30.2987
v 62.9963 8 30.1495
v 63 8 30
v 63 0 30
v 62.9963 1.6602e-17 29.8505
v 62.9851 3.31628e-17 29.7013
v 62.9665 4.9641e-17 29.5529
v 62.9405 6.59959e-17 29.4056
v 62.9072 8.21867e-17 29.2597
v 62.8667 9.81732e-17 29.1157
v 62.8191 1.13916e-16 28.9739
v 62.7644 1.29375e-16 28.8347
v 62.7029 1.44512e-16 28.6983
v 62.6347 1.59291e-16 28.5652
v 62.5599 1.73673e-16 28.4357
v 62.4787 1.87623e-16 28.31
v 62.3914 2.01107e-16 28.1886
v 62.2981 2.14091e-16 28.0716
v 62.1992 2.26543e-16 27.9595
v 62.0947 2.38432e-16 27.8524
v 61.9851 2.49727e-16 27.7507
v 61.8705 2.60402e-16 27.6545
v 61.7512 2.7043e-16 27.5642
v 61.6276 2.79785e-16 27.4799
v 61.5 2.88444e-16 27.4019
v 61.3686 2.96387e-16 27.3304
v 61.2339 3.03592e-16 27.2655
v 61.096 3.10043e-16 27.2074
v 60.9555 3.15723e-16 27.1562
v 60.8125 3.20618e-16 27.1121
v 60.6676 3.24716e-16 27.0752
v 60.5209 3.28007e-16 27.0456
v 60.373 3.30482e-16 27.0233
v 60.2242 3.32136e-16 27.0084
v 60.0748 3.32963e-16 27.0009
v 59.9252 3.32963e-16 27.0009
v 59.7758 3.32136e-16 27.0084
v 59.627 3.30482e-16 27.0233
v 59.4791 3.28007e-16 27.0456
v 59.3324 3.24716e-16 27.0752
v 59.1875 3.20618e-16 27.1121
v 59.0445 3.15723e-16 27.1562
v 58.904 3.10043e-16 27.2074
v 58.7661 3.03592e-16 27.2655
v 58.6314 2.96387e-16 27.3304
v 58.5 2.88444e-16 27.4019
v 58.3724 2.79785e-16 27.4799
v 58.2488 2.7043e-16 27.5642
v 58.1295 2.60402e-16 27.6545
v 58.0149 2.49727e-16 27.7507
v 57.9053 2.38432e-16 27.8524
v 57.8008 2.26543e-16 27.9595
v 57.7019 2.14091e-16 28.0716
v 57.6086 2.01107e-16 28.1886
v 57.5213 1.87623e-16 28.31
v 57.4401 1.73673e-16 28.4357
v 57.3653 1.59291e-16 28.5652
v 57.2971 1.44512e-16 28.6983
v 57.2356 1.29375e-16 28.8347
v 57.1809 1.13916e-16 28.9739
v 57.1333 9.81732e-17 29.1157
v 57.0928 8.21867e-17 29.2597
v 57.0595 6.59959e-17 29.4056
v 57.0335 4.9641e-17 29.5529
v 57.0149 3.31628e-17 29.7013
v 57.0037 1.6602e-17 29.8505
v 57 -1.18329e-30 30
v 57.0037 -1.6602e-17 30.1495
v 57.0149 -3.31628e-17 30.2987
v 57.0335 -4.9641e-17 30.4471
v 57.0595 -6.59959e-17 30.5944
v 57.0928 -8.21867e-17 30.7403
v 57.1333 -9.81732e-17 30.8843
v 57.1809 -1.13916e-16 31.0261
v 57.2356 -1.29375e-16 31.1653
v 57.2971 -1.44512e-16 31.3017
v 57.3653 -1.59291e-16 31.4348
v 57.4401 -1.73673e-16 31.5643
v 57.5213 -1.87623e-16 31.69
v 57.6086 -2.01107e-16 31.8114
v 57.7019 -2.14091e-16 31.9284
v 57.8008 -2.26543e-16 32.0405
v 57.9053 -2.38432e-16 32.1476
v 58.0149 -2.49727e-16 32.2493
v 58.1295 -2.60402e-16 32.3455
v 58.2488 -2.7043e-16 32.4358
v 58.3724 -2.79785e-16 32.5201
v 58.5 -2.88444e-16 32.5981
v 58.6314 -2.96387e-16 32.6696
v 58.7661 -3.03592e-16 32.7345
v 58.904 -3.10043e-16 32.7926
v 59.0445 -3.15723e-16 32.8438
v 59.1875 -3.20618e-16 32.8879
v 59.3324 -3.24716e-16 32.9248
v 59.4791 -3.28007e-16 32.9544
v 59.627 -3.30482e-16 32.9767
v 59.7758 -3.32136e-16 32.9916
v 59.9252 -3.32963e-16 32.9991
v 60.0748 -3.32963e-16 32.9991
v 60.2242 -3.32136e-16 32.9916
v 60.373 -3.30482e-16 32.9767
v 60.5209 -3.28007e-16 32.9544
v 60.6676 -3.24716e-16 32.9248
v 60.8125 -3.20618e-16 32.8879
v 60.9555 -3.15723e-16 32.8438
v 61.096 -3.10043e-16 32.7926
v 61.2339 -3.03592e-16 32.7345
v 61.3686 -2.96387e-16 32.6696
v 61.5 -2.88444e-16 32.5981
v 61.6276 -2.79785e-16 32.5201
v 61.7512 -2.7043e-16 32.4358
v 61.8705 -2.60402e-16 32.3455
v 61.9851 -2.49727e-16 32.2493
v 62.0947 -2.38432e-16 32.1476
v 62.1992 -2.26543e-16 32.0405
v 62.2981 -2.14091e-16 31.9284
v 62.3914 -2.01107e-16 31.8114
v 62.4787 -1.87623e-16 31.69
v 62.5599 -1.73673e-16 31.5643
v 62.6347 -1.59291e-16 31.4348
v 62.7029 -1.44512e-16 31.3017
v 62.7644 -1.29375e-16 31.1653
v 62.8191 -1.13916e-16 31.0261
v 62.8667 -9.81732e-17 30.8843
v 62.9072 -8.21867e-17 30.7403
v 62.9405 -6.59959e-17 30.5944
v 62.9665 -4.9641e-17 30.4471
v 62.9851 -3.31628e-17 30.2987
v 62.9963 -1.6602e-17 30.1495
v 63 0 30
f 1 2 38
f 37 20 21
f 37 21 22
f 37 22 23
f 37 23 24
f 37 24 25
f 37 25 26
f 37 26 27
f 37 27 28
f 37 28 29
f 37 29 30
f 37 30 31
f 37 31 32
f 37 32 33
f 37 33 34
f 37 34 1
f 37 1 38
f 19 20 37
f 18 19 37
f 17 18 37
f 16 17 37
f 15 16 37
f 14 15 37
f 13 14 37
f 12 13 37
f 11 12 37
f 10 11 37
f 9 10 37
f 8 9 37
f 7 8 37
f 6 7 37
f 5 6 37
f 4 5 37
f 3 4 37
f 36 35 3
f 36 3 37
f 121 39 122
f 123 122 39
f 120 39 121
f 124 123 39
f 119 39 120
f 125 124 39
f 118 39 119
f 126 125 39
f 117 39 118
f 127 126 39
f 116 39 117
f 128 127 39
f 115 39 116
f 129 128 39
f 114 39 115
f 130 129 39
f 113 39 114
f 131 130 39
f 112 39 113
f 132 131 39
f 111 39 112
f 133 132 39
f 110 39 111
f 134 133 39
f 109 39 110
f 135 134 39
f 108 39 109
f 136 135 39
f 137 136 39
f 138 137 39
f 139 138 39
f 140 139 39
f 141 140 39
f 142 141 39
f 143 142 39
f 144 143 39
f 145 144 39
f 146 145 39
f 147 146 39
f 40 39 108
f 40 92 91
f 40 93 92
f 40 94 93
f 40 95 94
f 40 96 95
f 40 97 96
f 40 98 97
f 40 99 98
f 40 100 99
f 40 101 100
f 40 102 101
f 40 103 102
f 40 104 103
f 40 105 104
f 40 106 105
f 40 107 106
f 40 108 107
f 90 40 91
f 89 40 90
f 88 40 89
f 87 40 88
f 86 40 87
f 85 40 86
f 84 40 85
f 83 40 84
f 82 40 83
f 81 40 82
f 80 40 81
f 79 40 80
f 78 40 79
f 77 40 78
f 76 40 77
f 75 40 76
f 74 40 75
f 73 40 74
f 72 40 73
f 71 40 72
f 70 40 71
f 69 40 70
f 68 40 69
f 67 40 68
f 248 153 152
f 247 154 153
f 247 153 248
f 249 248 152
f 246 155 154
f 246 154 247
f 250 152 151
f 250 249 152
f 245 156 155
f 245 155 246
f 251 151 150
f 251 250 151
f 244 157 156
f 244 156 245
f 252 149 148
f 252 150 149
f 252 251 150
f 243 158 157
f 243 157 244
f 253 252 148
f 242 159 158
f 242 158 243
f 254 39 41
f 254 148 147
f 254 253 148
f 254 147 39
f 241 159 242
f 241 160 159
f 255 254 41
f 240 161 160
f 240 160 241
f 256 255 41
f 239 162 161
f 239 161 240
f 257 256 41
f 238 162 239
f 238 163 162
f 258 257 41
f 237 164 163
f 237 163 238
f 259 258 41
f 236 165 164
f 236 164 237
f 260 259 41
f 235 165 236
f 235 166 165
f 261 260 41
f 234 167 166
f 234 166 235
f 262 261 41
f 233 168 167
f 233 167 234
f 263 262 41
f 232 43 168
f 232 168 233
f 264 263 41
f 231 44 43
f 231 43 232
f 265 264 41
f 230 45 44
f 230 46 45
f 230 44 231
f 266 265 41
f 229 46 230
f 267 266 41
f 228 47 46
f 228 46 229
f 268 267 41
f 227 48 47
f 227 47 228
f 269 268 41
f 226 49 48
f 226 48 227
f 270 269 41
f 225 50 49
f 225 49 226
f 271 270 41
f 224 50 225
f 224 51 50
f 272 271 41
f 223 52 51
f 223 53 52
f 223 51 224
f 273 272 41
f 222 53 223
f 274 273 41
f 221 54 53
f 221 53 222
f 275 274 41
f 220 54 221
f 220 55 54
f 276 275 41
f 219 56 55
f 219 55 220
f 277 276 41
f 218 56 219
f 218 57 56
f 218 58 57
f 278 277 41
f 217 58 218
f 279 278 41
f 216 59 58
f 216 60 59
f 216 58 217
f 280 279 41
f 215 60 216
f 281 280 41
f 214 61 60
f 214 62 61
f 214 60 215
f 282 281 41
f 213 62 214
f 283 282 41
f 212 63 62
f 212 64 63
f 212 62 213
f 284 283 41
f 211 64 212
f 285 284 41
f 210 65 64
f 210 64 211
f 286 285 41
f 209 66 65
f 209 67 66
f 209 65 210
f 287 286 41
f 208 67 209
f 288 287 41
f 289 288 41
f 290 289 41
f 291 290 41
f 292 291 41
f 293 292 41
f 42 170 169
f 42 171 170
f 42 172 171
f 42 173 172
f 42 174 173
f 42 175 174
f 42 176 175
f 42 177 176
f 42 178 177
f 42 179 178
f 42 180 179
f 42 181 180
f 42 182 181
f 42 183 182
f 42 184 183
f 42 185 184
f 42 186 185
f 42 187 186
f 42 188 187
f 42 189 188
f 42 190 189
f 42 191 190
f 42 192 191
f 42 294 293
f 42 193 192
f 42 169 294
f 42 194 193
f 42 195 194
f 42 196 195
f 42 197 196
f 42 198 197
f 42 199 198
f 42 200 199
f 42 201 200
f 42 202 201
f 42 203 202
f 42 204 203
f 42 205 204
f 42 67 208
f 42 206 205
f 42 207 206
f 42 208 207
f 42 40 67
f 42 293 41
f 329 295 296
f 330 329 296
f 331 296 297
f 331 330 296
f 332 297 298
f 332 331 297
f 333 298 299
f 333 332 298
f 334 299 300
f 334 333 299
f 335 300 301
f 335 334 300
f 336 301 302
f 336 335 301
f 337 302 303
f 337 336 302
f 338 337 303
f 338 303 304
f 338 304 305
f 339 338 305
f 340 339 305
f 340 305 306
f 340 306 307
f 341 340 307
f 342 307 308
f 342 341 307
f 343 308 309
f 343 342 308
f 344 309 310
f 344 310 311
f 344 343 309
f 345 344 311
f 346 311 312
f 346 312 313
f 346 345 311
f 347 346 313
f 348 313 314
f 348 314 315
f 348 347 313
f 349 348 315
f 350 315 316
f 350 316 317
f 350 349 315
f 351 317 318
f 351 350 317
f 352 351 318
f 353 318 319
f 353 352 318
f 354 319 320
f 354 353 319
f 355 320 321
f 355 354 320
f 356 321 322
f 356 322 323
f 356 355 321
f 357 356 323
f 358 323 324
f 358 324 325
f 358 357 323
f 359 358 325
f 360 325 326
f 360 359 325
f 328 326 327
f 328 360 326
f 362 361 363
f 364 362 363
f 417 416 367
f 415 367 416
f 418 417 367
f 414 367 415
f 419 418 367
f 413 367 414
f 420 419 367
f 412 367 413
f 421 420 367
f 411 367 412
f 422 421 367
f 410 367 411
f 423 422 367
f 409 367 410
f 424 423 367
f 408 367 409
f 425 424 367
f 407 367 408
f 426 425 367
f 406 367 407
f 427 426 367
f 405 367 406
f 428 427 367
f 404 367 405
f 429 428 367
f 403 367 404
f 430 429 367
f 402 367 403
f 431 430 367
f 401 367 402
f 432 431 367
f 400 367 401
f 433 432 367
f 399 367 400
f 434 433 367
f 398 367 399
f 397 367 398
f 396 367 397
f 395 367 396
f 394 367 395
f 368 434 367
f 368 435 434
f 368 436 435
f 368 437 436
f 368 438 437
f 368 439 438
f 368 440 439
f 368 441 440
f 368 442 441
f 368 443 442
f 368 444 443
f 368 445 444
f 368 446 445
f 368 447 446
f 448 447 368
f 449 448 368
f 450 449 368
f 451 450 368
f 452 451 368
f 453 452 368
f 454 453 368
f 455 454 368
f 456 455 368
f 457 456 368
f 458 457 368
f 459 458 368
f 460 459 368
f 461 460 368
f 462 461 368
f 463 462 368
f 464 463 368
f 465 464 368
f 466 465 368
f 467 466 368
f 468 467 368
f 469 468 368
f 470 469 368
f 471 470 368
f 542 386 385
f 543 384 383
f 543 385 384
f 543 542 385
f 541 386 542
f 544 543 383
f 540 387 386
f 540 388 387
f 540 386 541
f 545 544 383
f 545 383 382
f 539 388 540
f 546 545 382
f 546 382 381
f 538 388 539
f 538 389 388
f 547 380 379
f 547 381 380
f 547 546 381
f 537 389 538
f 537 390 389
f 537 391 390
f 548 547 379
f 536 391 537
f 549 379 378
f 549 548 379
f 535 391 536
f 535 392 391
f 535 393 392
f 550 549 378
f 550 378 377
f 534 393 535
f 551 377 376
f 551 550 377
f 533 394 393
f 533 393 534
f 552 551 376
f 552 375 374
f 552 376 375
f 553 552 374
f 554 373 372
f 554 374 373
f 554 553 374
f 555 554 372
f 556 372 371
f 556 555 372
f 557 371 370
f 557 556 371
f 558 370 369
f 558 557 370
f 559 494 493
f 559 369 494
f 559 558 369
f 560 559 493
f 561 493 492
f 561 560 493
f 562 492 491
f 562 561 492
f 563 491 490
f 563 562 491
f 564 490 489
f 564 563 490
f 565 488 487
f 565 489 488
f 565 564 489
f 566 565 487
f 566 487 486
f 567 566 486
f 568 485 484
f 568 486 485
f 568 567 486
f 569 568 484
f 570 483 482
f 570 484 483
f 570 569 484
f 571 570 482
f 572 481 480
f 572 482 481
f 572 571 482
f 573 572 480
f 574 480 479
f 574 573 480
f 575 574 479
f 575 478 477
f 575 479 478
f 576 575 477
f 577 477 476
f 577 576 477
f 578 577 476
f 578 475 474
f 578 476 475
f 579 578 474
f 580 474 473
f 580 579 474
f 581 472 471
f 581 473 472
f 581 580 473
f 582 581 471
f 365 496 495
f 365 497 496
f 365 498 497
f 365 499 498
f 365 500 499
f 365 501 500
f 365 502 501
f 365 503 502
f 365 504 503
f 365 505 504
f 365 506 505
f 365 507 506
f 365 508 507
f 365 509 508
f 365 510 509
f 365 511 510
f 365 394 533
f 365 512 511
f 365 513 512
f 365 514 513
f 365 367 394
f 365 515 514
f 365 516 515
f 365 517 516
f 365 518 517
f 365 620 619
f 365 519 518
f 365 520 519
f 365 495 620
f 365 521 520
f 365 522 521
f 365 523 522
f 365 524 523
f 365 525 524
f 365 526 525
f 365 527 526
f 365 528 527
f 365 529 528
f 365 530 529
f 365 531 530
f 365 532 531
f 365 533 532
f 366 365 619
f 366 583 582
f 366 584 583
f 366 585 584
f 366 586 585
f 366 587 586
f 366 588 587
f 366 589 588
f 366 590 589
f 366 591 590
f 366 592 591
f 366 593 592
f 366 594 593
f 366 595 594
f 366 596 595
f 366 597 596
f 366 598 597
f 366 599 598
f 366 600 599
f 366 601 600
f 366 602 601
f 366 582 471
f 366 603 602
f 366 604 603
f 366 605 604
f 366 606 605
f 366 607 606
f 366 608 607
f 366 609 608
f 366 610 609
f 366 611 610
f 366 612 611
f 366 613 612
f 366 614 613
f 366 615 614
f 366 616 615
f 366 617 616
f 366 618 617
f 366 619 618
f 366 471 368
f 703 704 621
f 705 621 704
f 702 703 621
f 706 621 705
f 701 702 621
f 707 621 706
f 700 701 621
f 708 621 707
f 699 700 621
f 709 621 708
f 698 699 621
f 710 621 709
f 697 698 621
f 711 621 710
f 696 697 621
f 712 621 711
f 695 696 621
f 713 621 712
f 694 695 621
f 714 621 713
f 715 621 714
f 716 621 715
f 717 621 716
f 718 621 717
f 719 621 718
f 720 621 719
f 721 621 720
f 722 621 721
f 723 621 722
f 724 621 723
f 725 621 724
f 726 621 725
f 727 621 726
f 728 621 727
f 729 621 728
f 624 673 674
f 624 674 675
f 624 675 676
f 624 676 677
f 624 677 678
f 624 678 679
f 624 679 680
f 624 680 681
f 624 681 682
f 624 682 683
f 624 683 684
f 624 684 685
f 624 685 686
f 624 686 687
f 624 687 688
f 624 688 689
f 624 689 690
f 624 690 691
f 624 691 692
f 624 692 693
f 624 693 694
f 624 694 621
f 672 673 624
f 671 672 624
f 670 671 624
f 669 670 624
f 668 669 624
f 667 668 624
f 666 667 624
f 665 666 624
f 664 665 624
f 663 664 624
f 662 663 624
f 661 662 624
f 660 661 624
f 659 660 624
f 658 659 624
f 657 658 624
f 656 657 624
f 655 656 624
f 654 655 624
f 653 654 624
f 652 653 624
f 651 652 624
f 650 651 624
f 649 650 624
f 830 735 736
f 829 830 736
f 831 734 735
f 831 735 830
f 828 736 737
f 828 829 736
f 832 733 734
f 832 734 831
f 827 737 738
f 827 828 737
f 833 732 733
f 833 733 832
f 826 738 739
f 826 827 738
f 834 730 731
f 834 731 732
f 834 732 833
f 825 826 739
f 825 739 740
f 835 730 834
f 824 740 741
f 824 741 742
f 824 825 740
f 836 622 621
f 836 729 730
f 836 730 835
f 836 621 729
f 823 824 742
f 837 622 836
f 822 742 743
f 822 823 742
f 838 622 837
f 821 822 743
f 821 743 744
f 839 622 838
f 820 821 744
f 820 744 745
f 840 622 839
f 819 745 746
f 819 820 745
f 841 622 840
f 818 746 747
f 818 819 746
f 842 622 841
f 817 747 748
f 817 818 747
f 843 622 842
f 816 748 749
f 816 817 748
f 844 622 843
f 815 749 750
f 815 816 749
f 845 622 844
f 814 815 750
f 814 750 625
f 846 622 845
f 813 625 626
f 813 814 625
f 847 622 846
f 812 626 627
f 812 627 628
f 812 813 626
f 848 622 847
f 811 812 628
f 849 622 848
f 810 628 629
f 810 811 628
f 850 622 849
f 809 629 630
f 809 810 629
f 851 622 850
f 808 630 631
f 808 809 630
f 852 622 851
f 807 631 632
f 807 632 633
f 807 808 631
f 853 622 852
f 806 807 633
f 854 622 853
f 805 633 634
f 805 634 635
f 805 806 633
f 855 622 854
f 804 805 635
f 856 622 855
f 803 804 635
f 803 635 636
f 803 636 637
f 857 622 856
f 802 803 637
f 802 637 638
f 858 622 857
f 801 638 639
f 801 802 638
f 859 622 858
f 800 801 639
f 800 639 640
f 860 622 859
f 799 800 640
f 861 622 860
f 798 640 641
f 798 799 640
f 862 622 861
f 797 641 642
f 797 798 641
f 863 622 862
f 796 797 642
f 796 642 643
f 796 643 644
f 864 622 863
f 795 796 644
f 865 622 864
f 794 644 645
f 794 645 646
f 794 795 644
f 866 622 865
f 793 794 646
f 867 622 866
f 792 793 646
f 792 646 647
f 868 622 867
f 791 647 648
f 791 648 649
f 791 792 647
f 869 622 868
f 790 791 649
f 870 622 869
f 871 622 870
f 623 751 752
f 623 752 753
f 623 753 754
f 623 754 755
f 623 755 756
f 623 756 757
f 623 757 758
f 623 758 759
f 623 759 760
f 623 760 761
f 623 761 762
f 623 762 763
f 623 763 764
f 623 764 765
f 623 765 766
f 623 766 767
f 623 767 768
f 623 768 769
f 623 769 770
f 623 871 872
f 623 770 771
f 623 872 873
f 623 771 772
f 623 873 874
f 623 772 773
f 623 874 875
f 623 773 774
f 623 875 876
f 623 774 775
f 623 876 751
f 623 775 776
f 623 776 777
f 623 777 778
f 623 778 779
f 623 779 780
f 623 780 781
f 623 781 782
f 623 782 783
f 623 783 784
f 623 784 785
f 623 785 786
f 623 786 787
f 623 787 788
f 623 788 789
f 623 789 790
f 623 790 649
f 623 622 871
f 623 649 624
f 879 878 877
f 880 878 879
f 933 881 932
f 931 932 881
f 934 881 933
f 930 931 881
f 935 881 934
f 929 930 881
f 936 881 935
f 928 929 881
f 937 881 936
f 927 928 881
f 938 881 937
f 926 927 881
f 939 881 938
f 925 926 881
f 940 881 939
f 924 925 881
f 941 881 940
f 923 924 881
f 942 881 941
f 922 923 881
f 943 881 942
f 921 922 881
f 944 881 943
f 920 921 881
f 945 881 944
f 919 920 881
f 918 919 881
f 917 918 881
f 916 917 881
f 915 916 881
f 914 915 881
f 913 914 881
f 912 913 881
f 911 912 881
f 910 911 881
f 909 910 881
f 908 909 881
f 907 908 881
f 883 881 945
f 883 945 946
f 883 946 947
f 883 947 948
f 883 948 949
f 883 949 950
f 883 950 951
f 883 951 952
f 883 952 953
f 883 953 954
f 883 954 955
f 883 955 956
f 883 956 957
f 883 957 958
f 883 958 959
f 883 959 960
f 883 960 961
f 883 961 962
f 883 962 963
f 964 883 963
f 965 883 964
f 966 883 965
f 967 883 966
f 968 883 967
f 969 883 968
f 970 883 969
f 971 883 970
f 972 883 971
f 973 883 972
f 974 883 973
f 975 883 974
f 976 883 975
f 977 883 976
f 978 883 977
f 979 883 978
f 980 883 979
f 981 883 980
f 982 883 981
f 983 883 982
f 984 883 983
f 985 883 984
f 986 883 985
f 987 883 986
f 1058 901 902
f 1059 899 900
f 1059 900 901
f 1059 901 1058
f 1057 1058 902
f 1060 899 1059
f 1056 1057 902
f 1056 902 903
f 1056 903 904
f 1061 898 899
f 1061 899 1060
f 1055 1056 904
f 1062 897 898
f 1062 898 1061
f 1054 1055 904
f 1054 904 905
f 1063 895 896
f 1063 896 897
f 1063 897 1062
f 1053 1054 905
f 1053 905 906
f 1053 906 907
f 1064 895 1063
f 1052 881 882
f 1052 1053 907
f 1052 907 881
f 1065 894 895
f 1065 895 1064
f 1051 1052 882
f 1066 893 894
f 1066 894 1065
f 1050 1051 882
f 1067 891 892
f 1067 892 893
f 1067 893 1066
f 1049 1050 882
f 1068 891 1067
f 1048 1049 882
f 1069 891 1068
f 1069 890 891
f 1047 1048 882
f 1070 890 1069
f 1070 888 889
f 1070 889 890
f 1046 1047 882
f 1071 888 1070
f 1045 1046 882
f 1072 887 888
f 1072 888 1071
f 1044 1045 882
f 1073 886 887
f 1073 887 1072
f 1043 1044 882
f 1074 885 886
f 1074 886 1073
f 1042 1043 882
f 1075 1009 1010
f 1075 1010 885
f 1075 885 1074
f 1041 1042 882
f 1076 1009 1075
f 1040 1041 882
f 1077 1007 1008
f 1077 1008 1009
f 1077 1009 1076
f 1039 1040 882
f 1078 1007 1077
f 1038 1039 882
f 1079 1006 1007
f 1079 1007 1078
f 1037 1038 882
f 1080 1005 1006
f 1080 1006 1079
f 1036 1037 882
f 1081 1005 1080
f 1081 1003 1004
f 1081 1004 1005
f 1035 1036 882
f 1082 1003 1081
f 1034 1035 882
f 1083 1002 1003
f 1083 1003 1082
f 1033 1034 882
f 1084 1001 1002
f 1084 1002 1083
f 1032 1033 882
f 1085 1000 1001
f 1085 1001 1084
f 1031 1032 882
f 1086 1000 1085
f 1086 999 1000
f 1030 1031 882
f 1087 997 998
f 1087 998 999
f 1087 999 1086
f 1029 1030 882
f 1088 997 1087
f 1088 996 997
f 1028 1029 882
f 1089 996 1088
f 1027 1028 882
f 1090 995 996
f 1090 996 1089
f 1026 1027 882
f 1091 993 994
f 1091 994 995
f 1091 995 1090
f 1025 1026 882
f 1092 993 1091
f 1024 1025 882
f 1093 991 992
f 1093 992 993
f 1093 993 1092
f 1023 1024 882
f 1094 990 991
f 1094 991 1093
f 1022 1023 882
f 1095 989 990
f 1095 990 1094
f 1021 1022 882
f 1096 989 1095
f 1020 1021 882
f 1097 988 989
f 1097 989 1096
f 1019 1020 882
f 1098 987 988
f 1098 988 1097
f 1018 1019 882
f 1017 1018 882
f 1016 1017 882
f 1015 1016 882
f 1014 1015 882
f 884 1098 1099
f 884 987 1098
f 884 1099 1100
f 884 1100 1101
f 884 1101 1102
f 884 1102 1103
f 884 1103 1104
f 884 1104 1105
f 884 1105 1106
f 884 1106 1107
f 884 1107 1108
f 884 1108 1109
f 884 1109 1110
f 884 1110 1111
f 884 1111 1112
f 884 1011 1012
f 884 1112 1113
f 884 883 987
f 884 1012 1013
f 884 1113 1114
f 884 1013 1014
f 884 1114 1115
f 884 1115 1116
f 884 1116 1117
f 884 1117 1118
f 884 1118 1119
f 884 1119 1120
f 884 1120 1121
f 884 1121 1122
f 884 1122 1123
f 884 1123 1124
f 884 1124 1125
f 884 1125 1126
f 884 1126 1127
f 884 1127 1128
f 884 1128 1129
f 884 1129 1130
f 884 1130 1131
f 884 1131 1132
f 884 1132 1133
f 884 1133 1134
f 884 1134 1135
f 884 1135 1136
f 884 1136 1011
f 884 1014 882
f 1137 1174 1138
f 1173 1157 1156
f 1173 1158 1157
f 1173 1159 1158
f 1173 1160 1159
f 1173 1161 1160
f 1173 1162 1161
f 1173 1163 1162
f 1173 1164 1163
f 1173 1165 1164
f 1173 1166 1165
f 1173 1167 1166
f 1173 1168 1167
f 1173 1169 1168
f 1173 1170 1169
f 1173 1137 1170
f 1173 1174 1137
f 1155 1173 1156
f 1154 1173 1155
f 1153 1173 1154
f 1152 1173 1153
f 1151 1173 1152
f 1150 1173 1151
f 1149 1173 1150
f 1148 1173 1149
f 1147 1173 1148
f 1146 1173 1147
f 1145 1173 1146
f 1144 1173 1145
f 1143 1173 1144
f 1142 1173 1143
f 1141 1173 1142
f 1140 1173 1141
f 1139 1173 1140
f 1172 1139 1171
f 1172 1173 1139
f 1176 1302 1175
f 1176 1303 1302
f 1177 1304 1303
f 1177 1303 1176
f 1178 1305 1304
f 1178 1304 1177
f 1179 1306 1305
f 1179 1305 1178
f 1180 1307 1306
f 1180 1306 1179
f 1181 1308 1307
f 1181 1307 1180
f 1182 1309 1308
f 1182 1308 1181
f 1183 1310 1309
f 1183 1309 1182
f 1184 1311 1310
f 1184 1312 1311
f 1184 1310 1183
f 1185 1312 1184
f 1186 1312 1185
f 1186 1313 1312
f 1187 1313 1186
f 1187 1314 1313
f 1188 1314 1187
f 1188 1315 1314
f 1188 1316 1315
f 1189 1316 1188
f 1190 1316 1189
f 1190 1317 1316
f 1191 1317 1190
f 1191 1318 1317
f 1192 1318 1191
f 1192 1319 1318
f 1192 1320 1319
f 1193 1320 1192
f 1194 1320 1193
f 1194 1321 1320
f 1194 1322 1321
f 1195 1322 1194
f 1196 1322 1195
f 1196 1323 1322
f 1196 1324 1323
f 1197 1324 1196
f 1198 1325 1324
f 1198 1324 1197
f 1199 1326 1325
f 1199 1325 1198
f 1200 1327 1326
f 1200 1326 1199
f 1201 1328 1327
f 1201 1327 1200
f 1202 1329 1328
f 1202 1328 1201
f 1203 1330 1329
f 1203 1329 1202
f 1204 1331 1330
f 1204 1330 1203
f 1205 1332 1331
f 1205 1331 1204
f 1206 1333 1332
f 1206 1332 1205
f 1207 1334 1333
f 1207 1335 1334
f 1207 1333 1206
f 1208 1335 1207
f 1209 1336 1335
f 1209 1335 1208
f 1210 1337 1336
f 1210 1338 1337
f 1210 1336 1209
f 1211 1338 1210
f 1212 1338 1211
f 1212 1339 1338
f 1213 1339 1212
f 1213 1340 1339
f 1213 1341 1340
f 1214 1341 1213
f 1215 1341 1214
f 1215 1342 1341
f 1216 1342 1215
f 1216 1343 1342
f 1217 1343 1216
f 1217 1344 1343
f 1217 1345 1344
f 1218 1345 1217
f 1219 1345 1218
f 1219 1346 1345
f 1219 1347 1346
f 1220 1347 1219
f 1220 1348 1347
f 1221 1348 1220
f 1222 1348 1221
f 1222 1349 1348
f 1223 1349 1222
f 1223 1350 1349
f 1223 1351 1350
f 1224 1351 1223
f 1225 1351 1224
f 1225 1352 1351
f 1226 1352 1225
f 1226 1353 1352
f 1226 1354 1353
f 1227 1354 1226
f 1227 1355 1354
f 1228 1355 1227
f 1229 1355 1228
f 1229 1356 1355
f 1230 1356 1229
f 1230 1357 1356
f 1231 1357 1230
f 1231 1358 1357
f 1232 1358 1231
f 1232 1359 1358
f 1233 1360 1359
f 1233 1361 1360
f 1233 1359 1232
f 1234 1361 1233
f 1235 1362 1361
f 1235 1363 1362
f 1235 1361 1234
f 1236 1364 1363
f 1236 1363 1235
f 1237 1364 1236
f 1238 1364 1237
f 1238 1365 1364
f 1239 1365 1238
f 1239 1366 1365
f 1240 1366 1239
f 1240 1367 1366
f 1240 1368 1367
f 1241 1368 1240
f 1241 1369 1368
f 1242 1369 1241
f 1243 1369 1242
f 1243 1370 1369
f 1244 1370 1243
f 1244 1371 1370
f 1245 1371 1244
f 1245 1372 1371
f 1246 1372 1245
f 1246 1373 1372
f 1246 1374 1373
f 1247 1374 1246
f 1248 1374 1247
f 1248 1375 1374
f 1248 1376 1375
f 1249 1377 1376
f 1249 1376 1248
f 1250 1377 1249
f 1251 1378 1377
f 1251 1379 1378
f 1251 1377 1250
f 1252 1379 1251
f 1253 1380 1379
f 1253 1379 1252
f 1254 1381 1380
f 1254 1380 1253
f 1255 1382 1381
f 1255 1381 1254
f 1256 1383 1382
f 1256 1382 1255
f 1257 1384 1383
f 1257 1385 1384
f 1257 1383 1256
f 1258 1385 1257
f 1259 1386 1385
f 1259 1387 1386
f 1259 1385 1258
f 1260 1387 1259
f 1261 1388 1387
f 1261 1389 1388
f 1261 1387 1260
f 1262 1389 1261
f 1263 1389 1262
f 1263 1390 1389
f 1264 1390 1263
f 1264 1391 1390
f 1265 1391 1264
f 1265 1392 1391
f 1265 1393 1392
f 1266 1393 1265
f 1267 1394 1393
f 1267 1393 1266
f 1268 1395 1394
f 1268 1394 1267
f 1269 1396 1395
f 1269 1397 1396
f 1269 1395 1268
f 1270 1397 1269
f 1271 1398 1397
f 1271 1399 1398
f 1271 1397 1270
f 1272 1399 1271
f 1273 1400 1399
f 1273 1399 1272
f 1274 1401 1400
f 1274 1400 1273
f 1275 1402 1401
f 1275 1401 1274
f 1276 1403 1402
f 1276 1404 1403
f 1276 1402 1275
f 1277 1404 1276
f 1278 1405 1404
f 1278 1406 1405
f 1278 1404 1277
f 1279 1406 1278
f 1280 1407 1406
f 1280 1408 1407
f 1280 1406 1279
f 1281 1408 1280
f 1282 1409 1408
f 1282 1408 1281
f 1283 1410 1409
f 1283 1411 1410
f 1283 1409 1282
f 1284 1411 1283
f 1285 1412 1411
f 1285 1411 1284
f 1286 1413 1412
f 1286 1414 1413
f 1286 1412 1285
f 1287 1414 1286
f 1288 1414 1287
f 1288 1415 1414
f 1289 1415 1288
f 1289 1416 1415
f 1290 1416 1289
f 1290 1417 1416
f 1291 1417 1290
f 1291 1418 1417
f 1292 1418 1291
f 1292 1419 1418
f 1292 1420 1419
f 1293 1420 1292
f 1294 1420 1293
f 1294 1421 1420
f 1295 1421 1294
f 1295 1422 1421
f 1296 1422 1295
f 1296 1423 1422
f 1296 1424 1423
f 1297 1424 1296
f 1298 1424 1297
f 1298 1425 1424
f 1299 1425 1298
f 1299 1426 1425
f 1300 1427 1426
f 1300 1426 1299
f 1301 1428 1427
f 1301 1427 1300
f 1430 1556 1429
f 1430 1557 1556
f 1431 1558 1557
f 1431 1557 1430
f 1432 1559 1558
f 1432 1558 1431
f 1433 1560 1559
f 1433 1559 1432
f 1434 1561 1560
f 1434 1560 1433
f 1435 1562 1561
f 1435 1561 1434
f 1436 1563 1562
f 1436 1562 1435
f 1437 1564 1563
f 1437 1563 1436
f 1438 1565 1564
f 1438 1566 1565
f 1438 1564 1437
f 1439 1566 1438
f 1440 1566 1439
f 1440 1567 1566
f 1441 1567 1440
f 1441 1568 1567
f 1442 1568 1441
f 1442 1569 1568
f 1442 1570 1569
f 1443 1570 1442
f 1444 1570 1443
f 1444 1571 1570
f 1445 1571 1444
f 1445 1572 1571
f 1446 1572 1445
f 1446 1573 1572
f 1446 1574 1573
f 1447 1574 1446
f 1448 1574 1447
f 1448 1575 1574
f 1448 1576 1575
f 1449 1576 1448
f 1450 1576 1449
f 1450 1577 1576
f 1450 1578 1577
f 1451 1578 1450
f 1452 1579 1578
f 1452 1578 1451
f 1453 1580 1579
f 1453 1579 1452
f 1454 1581 1580
f 1454 1580 1453
f 1455 1582 1581
f 1455 1581 1454
f 1456 1583 1582
f 1456 1582 1455
f 1457 1584 1583
f 1457 1583 1456
f 1458 1585 1584
f 1458 1584 1457
f 1459 1586 1585
f 1459 1585 1458
f 1460 1587 1586
f 1460 1586 1459
f 1461 1588 1587
f 1461 1589 1588
f 1461 1587 1460
f 1462 1589 1461
f 1463 1590 1589
f 1463 1589 1462
f 1464 1591 1590
f 1464 1592 1591
f 1464 1590 1463
f 1465 1592 1464
f 1466 1592 1465
f 1466 1593 1592
f 1467 1593 1466
f 1467 1594 1593
f 1467 1595 1594
f 1468 1595 1467
f 1469 1595 1468
f 1469 1596 1595
f 1470 1596 1469
f 1470 1597 1596
f 1471 1597 1470
f 1471 1598 1597
f 1471 1599 1598
f 1472 1599 1471
f 1473 1599 1472
f 1473 1600 1599
f 1473 1601 1600
f 1474 1601 1473
f 1474 1602 1601
f 1475 1602 1474
f 1476 1602 1475
f 1476 1603 1602
f 1477 1603 1476
f 1477 1604 1603
f 1477 1605 1604
f 1478 1605 1477
f 1479 1605 1478
f 1479 1606 1605
f 1480 1606 1479
f 1480 1607 1606
f 1480 1608 1607
f 1481 1608 1480
f 1481 1609 1608
f 1482 1609 1481
f 1483 1609 1482
f 1483 1610 1609
f 1484 1610 1483
f 1484 1611 1610
f 1485 1611 1484
f 1485 1612 1611
f 1486 1612 1485
f 1486 1613 1612
f 1487 1614 1613
f 1487 1615 1614
f 1487 1613 1486
f 1488 1615 1487
f 1489 1616 1615
f 1489 1617 1616
f 1489 1615 1488
f 1490 1618 1617
f 1490 1617 1489
f 1491 1618 1490
f 1492 1618 1491
f 1492 1619 1618
f 1493 1619 1492
f 1493 1620 1619
f 1494 1620 1493
f 1494 1621 1620
f 1494 1622 1621
f 1495 1622 1494
f 1495 1623 1622
f 1496 1623 1495
f 1497 1623 1496
f 1497 1624 1623
f 1498 1624 1497
f 1498 1625 1624
f 1499 1625 1498
f 1499 1626 1625
f 1500 1626 1499
f 1500 1627 1626
f 1500 1628 1627
f 1501 1628 1500
f 1502 1628 1501
f 1502 1629 1628
f 1502 1630 1629
f 1503 1631 1630
f 1503 1630 1502
f 1504 1631 1503
f 1505 1632 1631
f 1505 1633 1632
f 1505 1631 1504
f 1506 1633 1505
f 1507 1634 1633
f 1507 1633 1506
f 1508 1635 1634
f 1508 1634 1507
f 1509 1636 1635
f 1509 1635 1508
f 1510 1637 1636
f 1510 1636 1509
f 1511 1638 1637
f 1511 1639 1638
f 1511 1637 1510
f 1512 1639 1511
f 1513 1640 1639
f 1513 1641 1640
f 1513 1639 1512
f 1514 1641 1513
f 1515 1642 1641
f 1515 1643 1642
f 1515 1641 1514
f 1516 1643 1515
f 1517 1643 1516
f 1517 1644 1643
f 1518 1644 1517
f 1518 1645 1644
f 1519 1645 1518
f 1519 1646 1645
f 1519 1647 1646
f 1520 1647 1519
f 1521 1648 1647
f 1521 1647 1520
f 1522 1649 1648
f 1522 1648 1521
f 1523 1650 1649
f 1523 1651 1650
f 1523 1649 1522
f 1524 1651 1523
f 1525 1652 1651
f 1525 1653 1652
f 1525 1651 1524
f 1526 1653 1525
f 1527 1654 1653
f 1527 1653 1526
f 1528 1655 1654
f 1528 1654 1527
f 1529 1656 1655
f 1529 1655 1528
f 1530 1657 1656
f 1530 1658 1657
f 1530 1656 1529
f 1531 1658 1530
f 1532 1659 1658
f 1532 1660 1659
f 1532 1658 1531
f 1533 1660 1532
f 1534 1661 1660
f 1534 1662 1661
f 1534 1660 1533
f 1535 1662 1534
f 1536 1663 1662
f 1536 1662 1535
f 1537 1664 1663
f 1537 1665 1664
f 1537 1663 1536
f 1538 1665 1537
f 1539 1666 1665
f 1539 1665 1538
f 1540 1667 1666
f 1540 1668 1667
f 1540 1666 1539
f 1541 1668 1540
f 1542 1668 1541
f 1542 1669 1668
f 1543 1669 1542
f 1543 1670 1669
f 1544 1670 1543
f 1544 1671 1670
f 1545 1671 1544
f 1545 1672 1671
f 1546 1672 1545
f 1546 1673 1672
f 1546 1674 1673
f 1547 1674 1546
f 1548 1674 1547
f 1548 1675 1674
f 1549 1675 1548
f 1549 1676 1675
f 1550 1676 1549
f 1550 1677 1676
f 1550 1678 1677
f 1551 1678 1550
f 1552 1678 1551
f 1552 1679 1678
f 1553 1679 1552
f 1553 1680 1679
f 1554 1681 1680
f 1554 1680 1553
f 1555 1682 1681
f 1555 1681 1554
f 1684 1810 1683
f 1684 1811 1810
f 1685 1812 1811
f 1685 1811 1684
f 1686 1813 1812
f 1686 1812 1685
f 1687 1814 1813
f 1687 1813 1686
f 1688 1815 1814
f 1688 1814 1687
f 1689 1816 1815
f 1689 1815 1688
f 1690 1817 1816
f 1690 1816 1689
f 1691 1818 1817
f 1691 1817 1690
f 1692 1819 1818
f 1692 1820 1819
f 1692 1818 1691
f 1693 1820 1692
f 1694 1820 1693
f 1694 1821 1820
f 1695 1821 1694
f 1695 1822 1821
f 1696 1822 1695
f 1696 1823 1822
f 1696 1824 1823
f 1697 1824 1696
f 1698 1824 1697
f 1698 1825 1824
f 1699 1825 1698
f 1699 1826 1825
f 1700 1826 1699
f 1700 1827 1826
f 1700 1828 1827
f 1701 1828 1700
f 1702 1828 1701
f 1702 1829 1828
f 1702 1830 1829
f 1703 1830 1702
f 1704 1830 1703
f 1704 1831 1830
f 1704 1832 1831
f 1705 1832 1704
f 1706 1833 1832
f 1706 1832 1705
f 1707 1834 1833
f 1707 1833 1706
f 1708 1835 1834
f 1708 1834 1707
f 1709 1836 1835
f 1709 1835 1708
f 1710 1837 1836
f 1710 1836 1709
f 1711 1838 1837
f 1711 1837 1710
f 1712 1839 1838
f 1712 1838 1711
f 1713 1840 1839
f 1713 1839 1712
f 1714 1841 1840
f 1714 1840 1713
f 1715 1842 1841
f 1715 1843 1842
f 1715 1841 1714
f 1716 1843 1715
f 1717 1844 1843
f 1717 1843 1716
f 1718 1845 1844
f 1718 1846 1845
f 1718 1844 1717
f 1719 1846 1718
f 1720 1846 1719
f 1720 1847 1846
f 1721 1847 1720
f 1721 1848 1847
f 1721 1849 1848
f 1722 1849 1721
f 1723 1849 1722
f 1723 1850 1849
f 1724 1850 1723
f 1724 1851 1850
f 1725 1851 1724
f 1725 1852 1851
f 1725 1853 1852
f 1726 1853 1725
f 1727 1853 1726
f 1727 1854 1853
f 1727 1855 1854
f 1728 1855 1727
f 1728 1856 1855
f 1729 1856 1728
f 1730 1856 1729
f 1730 1857 1856
f 1731 1857 1730
f 1731 1858 1857
f 1731 1859 1858
f 1732 1859 1731
f 1733 1859 1732
f 1733 1860 1859
f 1734 1860 1733
f 1734 1861 1860
f 1734 1862 1861
f 1735 1862 1734
f 1735 1863 1862
f 1736 1863 1735
f 1737 1863 1736
f 1737 1864 1863
f 1738 1864 1737
f 1738 1865 1864
f 1739 1865 1738
f 1739 1866 1865
f 1740 1866 1739
f 1740 1867 1866
f 1741 1868 1867
f 1741 1869 1868
f 1741 1867 1740
f 1742 1869 1741
f 1743 1870 1869
f 1743 1871 1870
f 1743 1869 1742
f 1744 1872 1871
f 1744 1871 1743
f 1745 1872 1744
f 1746 1872 1745
f 1746 1873 1872
f 1747 1873 1746
f 1747 1874 1873
f 1748 1874 1747
f 1748 1875 1874
f 1748 1876 1875
f 1749 1876 1748
f 1749 1877 1876
f 1750 1877 1749
f 1751 1877 1750
f 1751 1878 1877
f 1752 1878 1751
f 1752 1879 1878
f 1753 1879 1752
f 1753 1880 1879
f 1754 1880 1753
f 1754 1881 1880
f 1754 1882 1881
f 1755 1882 1754
f 1756 1882 1755
f 1756 1883 1882
f 1756 1884 1883
f 1757 1885 1884
f 1757 1884 1756
f 1758 1885 1757
f 1759 1886 1885
f 1759 1887 1886
f 1759 1885 1758
f 1760 1887 1759
f 1761 1888 1887
f 1761 1887 1760
f 1762 1889 1888
f 1762 1888 1761
f 1763 1890 1889
f 1763 1889 1762
f 1764 1891 1890
f 1764 1890 1763
f 1765 1892 1891
f 1765 1893 1892
f 1765 1891 1764
f 1766 1893 1765
f 1767 1894 1893
f 1767 1895 1894
f 1767 1893 1766
f 1768 1895 1767
f 1769 1896 1895
f 1769 1897 1896
f 1769 1895 1768
f 1770 1897 1769
f 1771 1897 1770
f 1771 1898 1897
f 1772 1898 1771
f 1772 1899 1898
f 1773 1899 1772
f 1773 1900 1899
f 1773 1901 1900
f 1774 1901 1773
f 1775 1902 1901
f 1775 1901 1774
f 1776 1903 1902
f 1776 1902 1775
f 1777 1904 1903
f 1777 1905 1904
f 1777 1903 1776
f 1778 1905 1777
f 1779 1906 1905
f 1779 1907 1906
f 1779 1905 1778
f 1780 1907 1779
f 1781 1908 1907
f 1781 1907 1780
f 1782 1909 1908
f 1782 1908 1781
f 1783 1910 1909
f 1783 1909 1782
f 1784 1911 1910
f 1784 1912 1911
f 1784 1910 1783
f 1785 1912 1784
f 1786 1913 1912
f 1786 1914 1913
f 1786 1912 1785
f 1787 1914 1786
f 1788 1915 1914
f 1788 1916 1915
f 1788 1914 1787
f 1789 1916 1788
f 1790 1917 1916
f 1790 1916 1789
f 1791 1918 1917
f 1791 1919 1918
f 1791 1917 1790
f 1792 1919 1791
f 1793 1920 1919
f 1793 1919 1792
f 1794 1921 1920
f 1794 1922 1921
f 1794 1920 1793
f 1795 1922 1794
f 1796 1922 1795
f 1796 1923 1922
f 1797 1923 1796
f 1797 1924 1923
f 1798 1924 1797
f 1798 1925 1924
f 1799 1925 1798
f 1799 1926 1925
f 1800 1926 1799
f 1800 1927 1926
f 1800 1928 1927
f 1801 1928 1800
f 1802 1928 1801
f 1802 1929 1928
f 1803 1929 1802
f 1803 1930 1929
f 1804 1930 1803
f 1804 1931 1930
f 1804 1932 1931
f 1805 1932 1804
f 1806 1932 1805
f 1806 1933 1932
f 1807 1933 1806
f 1807 1934 1933
f 1808 1935 1934
f 1808 1934 1807
f 1809 1936 1935
f 1809 1935 1808
f 1938 2064 1937
f 1938 2065 2064
f 1939 2066 2065
f 1939 2065 1938
f 1940 2067 2066
f 1940 2066 1939
f 1941 2068 2067
f 1941 2067 1940
f 1942 2069 2068
f 1942 2068 1941
f 1943 2070 2069
f 1943 2069 1942
f 1944 2071 2070
f 1944 2070 1943
f 1945 2072 2071
f 1945 2071 1944
f 1946 2073 2072
f 1946 2074 2073
f 1946 2072 1945
f 1947 2074 1946
f 1948 2074 1947
f 1948 2075 2074
f 1949 2075 1948
f 1949 2076 2075
f 1950 2076 1949
f 1950 2077 2076
f 1950 2078 2077
f 1951 2078 1950
f 1952 2078 1951
f 1952 2079 2078
f 1953 2079 1952
f 1953 2080 2079
f 1954 2080 1953
f 1954 2081 2080
f 1954 2082 2081
f 1955 2082 1954
f 1956 2082 1955
f 1956 2083 2082
f 1956 2084 2083
f 1957 2084 1956
f 1958 2084 1957
f 1958 2085 2084
f 1958 2086 2085
f 1959 2086 1958
f 1960 2087 2086
f 1960 2086 1959
f 1961 2088 2087
f 1961 2087 1960
f 1962 2089 2088
f 1962 2088 1961
f 1963 2090 2089
f 1963 2089 1962
f 1964 2091 2090
f 1964 2090 1963
f 1965 2092 2091
f 1965 2091 1964
f 1966 2093 2092
f 1966 2092 1965
f 1967 2094 2093
f 1967 2093 1966
f 1968 2095 2094
f 1968 2094 1967
f 1969 2096 2095
f 1969 2097 2096
f 1969 2095 1968
f 1970 2097 1969
f 1971 2098 2097
f 1971 2097 1970
f 1972 2099 2098
f 1972 2100 2099
f 1972 2098 1971
f 1973 2100 1972
f 1974 2100 1973
f 1974 2101 2100
f 1975 2101 1974
f 1975 2102 2101
f 1975 2103 2102
f 1976 2103 1975
f 1977 2103 1976
f 1977 2104 2103
f 1978 2104 1977
f 1978 2105 2104
f 1979 2105 1978
f 1979 2106 2105
f 1979 2107 2106
f 1980 2107 1979
f 1981 2107 1980
f 1981 2108 2107
f 1981 2109 2108
f 1982 2109 1981
f 1982 2110 2109
f 1983 2110 1982
f 1984 2110 1983
f 1984 2111 2110
f 1985 2111 1984
f 1985 2112 2111
f 1985 2113 2112
f 1986 2113 1985
f 1987 2113 1986
f 1987 2114 2113
f 1988 2114 1987
f 1988 2115 2114
f 1988 2116 2115
f 1989 2116 1988
f 1989 2117 2116
f 1990 2117 1989
f 1991 2117 1990
f 1991 2118 2117
f 1992 2118 1991
f 1992 2119 2118
f 1993 2119 1992
f 1993 2120 2119
f 1994 2120 1993
f 1994 2121 2120
f 1995 2122 2121
f 1995 2123 2122
f 1995 2121 1994
f 1996 2123 1995
f 1997 2124 2123
f 1997 2125 2124
f 1997 2123 1996
f 1998 2126 2125
f 1998 2125 1997
f 1999 2126 1998
f 2000 2126 1999
f 2000 2127 2126
f 2001 2127 2000
f 2001 2128 2127
f 2002 2128 2001
f 2002 2129 2128
f 2002 2130 2129
f 2003 2130 2002
f 2003 2131 2130
f 2004 2131 2003
f 2005 2131 2004
f 2005 2132 2131
f 2006 2132 2005
f 2006 2133 2132
f 2007 2133 2006
f 2007 2134 2133
f 2008 2134 2007
f 2008 2135 2134
f 2008 2136 2135
f 2009 2136 2008
f 2010 2136 2009
f 2010 2137 2136
f 2010 2138 2137
f 2011 2139 2138
f 2011 2138 2010
f 2012 2139 2011
f 2013 2140 2139
f 2013 2141 2140
f 2013 2139 2012
f 2014 2141 2013
f 2015 2142 2141
f 2015 2141 2014
f 2016 2143 2142
f 2016 2142 2015
f 2017 2144 2143
f 2017 2143 2016
f 2018 2145 2144
f 2018 2144 2017
f 2019 2146 2145
f 2019 2147 2146
f 2019 2145 2018
f 2020 2147 2019
f 2021 2148 2147
f 2021 2149 2148
f 2021 2147 2020
f 2022 2149 2021
f 2023 2150 2149
f 2023 2151 2150
f 2023 2149 2022
f 2024 2151 2023
f 2025 2151 2024
f 2025 2152 2151
f 2026 2152 2025
f 2026 2153 2152
f 2027 2153 2026
f 2027 2154 2153
f 2027 2155 2154
f 2028 2155 2027
f 2029 2156 2155
f 2029 2155 2028
f 2030 2157 2156
f 2030 2156 2029
f 2031 2158 2157
f 2031 2159 2158
f 2031 2157 2030
f 2032 2159 2031
f 2033 2160 2159
f 2033 2161 2160
f 2033 2159 2032
f 2034 2161 2033
f 2035 2162 2161
f 2035 2161 2034
f 2036 2163 2162
f 2036 2162 2035
f 2037 2164 2163
f 2037 2163 2036
f 2038 2165 2164
f 2038 2166 2165
f 2038 2164 2037
f 2039 2166 2038
f 2040 2167 2166
f 2040 2168 2167
f 2040 2166 2039
f 2041 2168 2040
f 2042 2169 2168
f 2042 2170 2169
f 2042 2168 2041
f 2043 2170 2042
f 2044 2171 2170
f 2044 2170 2043
f 2045 2172 2171
f 2045 2173 2172
f 2045 2171 2044
f 2046 2173 2045
f 2047 2174 2173
f 2047 2173 2046
f 2048 2175 2174
f 2048 2176 2175
f 2048 2174 2047
f 2049 2176 2048
f 2050 2176 2049
f 2050 2177 2176
f 2051 2177 2050
f 2051 2178 2177
f 2052 2178 2051
f 2052 2179 2178
f 2053 2179 2052
f 2053 2180 2179
f 2054 2180 2053
f 2054 2181 2180
f 2054 2182 2181
f 2055 2182 2054
f 2056 2182 2055
f 2056 2183 2182
f 2057 2183 2056
f 2057 2184 2183
f 2058 2184 2057
f 2058 2185 2184
f 2058 2186 2185
f 2059 2186 2058
f 2060 2186 2059
f 2060 2187 2186
f 2061 2187 2060
f 2061 2188 2187
f 2062 2189 2188
f 2062 2188 2061
f 2063 2190 2189
f 2063 2189 2062
