# Cadless export: model
v -550 -300 425
v -550 -300 450
v -550 300 425
v -550 300 450
v -550 -300 425
v -550 300 425
v 550 -300 425
v 550 300 425
v -490 -240 425
v -490 -190 425
v -440 -190 425
v -440 -240 425
v 440 -240 425
v 440 -190 425
v 490 -190 425
v 490 -240 425
v -490 190 425
v -490 240 425
v -440 240 425
v -440 190 425
v 440 190 425
v 440 240 425
v 490 240 425
v 490 190 425
v 490 190 145
v 490 190 425
v 440 190 145
v 440 190 425
v -490 -190 145
v -490 190 145
v -440 -190 145
v -440 -240 145
v 440 -240 145
v 440 -190 145
v 490 -190 145
v 490 190 145
v 440 190 145
v 440 240 145
v -440 240 145
v -440 190 145
v 440 190 145
v 440 190 425
v 440 240 145
v 440 240 425
v -440 190 145
v -440 190 425
v -440 240 145
v -440 240 425
v -440 190 145
v -440 190 425
v -490 190 145
v -490 190 425
v -440 240 145
v -440 240 425
v 440 240 145
v 440 240 425
v 490 240 425
v 490 240 0
v 440 240 0
v 440 240 130
v -440 240 130
v -440 240 0
v -490 240 0
v -490 240 425
v -490 190 0
v -490 240 0
v -440 190 0
v -440 240 0
v -440 190 0
v -440 190 130
v -490 190 0
v -490 190 130
v -440 190 0
v -440 190 130
v -440 240 0
v -440 240 130
v -490 -190 130
v -490 190 130
v -440 -190 130
v -440 -240 130
v 440 -240 130
v 440 -190 130
v 490 -190 130
v 490 190 130
v 440 190 130
v 440 240 130
v -440 240 130
v -440 190 130
v -440 -190 0
v -440 -190 130
v -490 -190 0
v -490 -190 130
v -490 -240 0
v -490 -190 0
v -440 -240 0
v -440 -190 0
v -440 -240 0
v -440 -240 130
v -440 -190 0
v -440 -190 130
v 440 -240 0
v 440 -240 130
v 440 -190 0
v 440 -190 130
v 440 -240 0
v 440 -190 0
v 490 -240 0
v 490 -190 0
v 490 -190 0
v 490 -190 130
v 440 -190 0
v 440 -190 130
v 490 190 0
v 490 190 130
v 440 190 0
v 440 190 130
v 440 190 0
v 440 190 130
v 440 240 0
v 440 240 130
v 440 190 0
v 440 240 0
v 490 190 0
v 490 240 0
v 490 -240 0
v 490 -240 425
v 490 -190 0
v 490 -190 130
v 490 190 130
v 490 190 0
v 490 240 0
v 490 240 425
v 490 190 425
v 490 190 145
v 490 -190 145
v 490 -190 425
v 490 -190 145
v 490 -190 425
v 440 -190 145
v 440 -190 425
v 440 -240 145
v 440 -240 425
v 440 -190 145
v 440 -190 425
v -440 -190 145
v -440 -190 425
v -490 -190 145
v -490 -190 425
v -440 -240 145
v -440 -240 425
v -440 -190 145
v -440 -190 425
v -440 -240 145
v -440 -240 425
v 440 -240 145
v 440 -240 425
v 490 -240 425
v 490 -240 0
v 440 -240 0
v 440 -240 130
v -440 -240 130
v -440 -240 0
v -490 -240 0
v -490 -240 425
v -490 -240 0
v -490 -240 425
v -490 -190 0
v -490 -190 130
v -490 190 130
v -490 190 0
v -490 240 0
v -490 240 425
v -490 190 425
v -490 190 145
v -490 -190 145
v -490 -190 425
v 550 -300 425
v 550 -300 450
v 550 300 425
v 550 300 450
v -550 300 425
v 550 300 425
v -550 300 450
v 550 300 450
v -550 -300 450
v -550 300 450
v 550 -300 450
v 550 300 450
v -550 -300 425
v 550 -300 425
v -550 -300 450
v 550 -300 450
f 2 3 1
f 2 4 3
f 12 5 9
f 10 9 5
f 6 18 17
f 6 17 10
f 6 10 5
f 20 11 10
f 20 10 17
f 19 18 6
f 13 12 11
f 7 5 12
f 7 12 13
f 16 7 13
f 14 11 20
f 14 13 11
f 15 7 16
f 21 20 19
f 21 14 20
f 24 15 14
f 24 14 21
f 22 21 19
f 8 23 22
f 8 24 23
f 8 7 15
f 8 15 24
f 8 19 6
f 8 22 19
f 26 27 25
f 26 28 27
f 40 30 29
f 40 29 31
f 33 31 32
f 34 40 31
f 34 31 33
f 37 39 40
f 37 40 34
f 38 39 37
f 36 34 35
f 36 37 34
f 42 43 41
f 42 44 43
f 46 45 47
f 46 47 48
f 50 51 49
f 50 52 51
f 61 62 63
f 53 61 63
f 64 53 63
f 54 53 64
f 60 58 59
f 55 60 61
f 55 58 60
f 55 61 53
f 57 55 56
f 57 58 55
f 68 65 66
f 68 67 65
f 70 71 69
f 70 72 71
f 74 73 75
f 74 75 76
f 88 77 78
f 88 79 77
f 81 80 79
f 82 79 88
f 82 81 79
f 85 88 87
f 85 82 88
f 86 85 87
f 84 83 82
f 84 82 85
f 90 89 91
f 90 91 92
f 96 93 94
f 96 95 93
f 98 97 99
f 98 99 100
f 102 103 101
f 102 104 103
f 108 105 106
f 108 107 105
f 110 109 111
f 110 111 112
f 114 115 113
f 114 116 115
f 118 119 117
f 118 120 119
f 124 121 122
f 124 123 121
f 129 130 131
f 134 129 131
f 132 134 131
f 133 134 132
f 128 125 127
f 128 129 134
f 135 128 134
f 135 125 128
f 126 135 136
f 126 125 135
f 138 137 139
f 138 139 140
f 142 143 141
f 142 144 143
f 146 145 147
f 146 147 148
f 150 149 151
f 150 151 152
f 161 163 162
f 153 163 161
f 164 163 153
f 154 164 153
f 160 159 158
f 155 161 160
f 155 160 158
f 155 153 161
f 157 156 155
f 157 155 158
f 169 171 170
f 174 171 169
f 172 171 174
f 173 172 174
f 168 167 165
f 168 174 169
f 175 174 168
f 175 168 165
f 166 176 175
f 166 175 165
f 178 177 179
f 178 179 180
f 184 182 181
f 184 181 183
f 187 186 185
f 188 186 187
f 192 189 190
f 192 191 189
