# Cadless export: model
v -6000 -4000 -150
v -6000 -4000 3150
v -6000 4000 -150
v -6000 4000 3150
v -6000 -4000 -150
v 6000 -4000 -150
v -6000 -4000 3150
v 6000 -4000 3150
v -500 -4000 2250
v 500 -4000 2250
v -500 -4000 150
v 500 -4000 150
v -6000 -4000 -150
v -6000 4000 -150
v 6000 -4000 -150
v 6000 4000 -150
v -6000 4000 -150
v 6000 4000 -150
v -6000 4000 3150
v 6000 4000 3150
v -6000 -4000 3150
v -6000 4000 3150
v 6000 -4000 3150
v 6000 4000 3150
v -5700 -3700 3150
v -5700 3700 3150
v 5700 3700 3150
v 5700 -3700 3150
v 6000 -4000 -150
v 6000 -4000 3150
v 6000 4000 -150
v 6000 4000 3150
v -500 -4000 2250
v -500 -3700 2250
v 500 -4000 2250
v 500 -3700 2250
v 500 -4000 2250
v 500 -3700 2250
v 500 -4000 150
v 500 -3700 150
v 500 -4000 150
v 500 -3700 150
v 5700 -3700 150
v 5700 3700 150
v -5700 3700 150
v -5700 -3700 150
v -500 -3700 150
v -500 -4000 150
v -500 -4000 2250
v -500 -3700 2250
v -500 -4000 150
v -500 -3700 150
v -5700 -3700 150
v -5700 -3700 3150
v -5700 3700 150
v -5700 3700 3150
v -5700 -3700 150
v -500 -3700 150
v -5700 -3700 3150
v 5700 -3700 3150
v 5700 -3700 150
v 500 -3700 150
v 500 -3700 2250
v -500 -3700 2250
v 5700 -3700 150
v 5700 -3700 3150
v 5700 3700 150
v 5700 3700 3150
v -5700 3700 150
v 5700 3700 150
v -5700 3700 3150
v 5700 3700 3150
f 2 3 1
f 2 4 3
f 9 7 5
f 9 5 11
f 6 10 12
f 8 10 6
f 6 11 5
f 6 12 11
f 7 10 8
f 7 9 10
f 16 13 14
f 16 15 13
f 18 17 19
f 20 18 19
f 26 21 25
f 22 21 26
f 23 25 21
f 28 25 23
f 27 28 23
f 24 27 23
f 24 22 26
f 24 26 27
f 30 29 31
f 30 31 32
f 36 33 34
f 36 35 33
f 38 40 39
f 37 38 39
f 42 47 48
f 42 48 41
f 45 46 47
f 44 42 43
f 44 45 47
f 44 47 42
f 50 51 52
f 49 51 50
f 54 53 55
f 54 55 56
f 64 58 57
f 64 57 59
f 61 62 63
f 60 61 63
f 59 60 63
f 59 63 64
f 66 67 65
f 66 68 67
f 70 71 69
f 72 71 70
