# Cadless export: model
v -800 -450 720
v -800 -450 750
v -800 450 720
v -800 450 750
v -800 -450 720
v 800 -450 720
v -800 -450 750
v 800 -450 750
v -800 -450 750
v -800 450 750
v 800 -450 750
v 800 450 750
v -800 450 720
v 800 450 720
v -800 450 750
v 800 450 750
v -800 -450 720
v -800 450 720
v 800 -450 720
v 800 450 720
v -720 -370 720
v -720 -310 720
v -660 -310 720
v -660 -370 720
v 660 -370 720
v 660 -310 720
v 720 -310 720
v 720 -370 720
v -720 310 720
v -720 370 720
v -660 370 720
v -660 310 720
v 660 310 720
v 660 370 720
v 720 370 720
v 720 310 720
v 800 -450 720
v 800 -450 750
v 800 450 720
v 800 450 750
v -720 -370 0
v -720 -370 720
v -720 -310 0
v -720 -310 720
v -720 -370 0
v -660 -370 0
v -720 -370 720
v -660 -370 720
v -660 -370 0
v -660 -370 720
v -660 -310 0
v -660 -310 720
v -720 -310 0
v -660 -310 0
v -720 -310 720
v -660 -310 720
v 660 -370 0
v 660 -370 720
v 660 -310 0
v 660 -310 720
v 660 -310 0
v 720 -310 0
v 660 -310 720
v 720 -310 720
v 660 -370 0
v 720 -370 0
v 660 -370 720
v 720 -370 720
v 720 -370 0
v 720 -370 720
v 720 -310 0
v 720 -310 720
v -720 310 0
v -720 310 720
v -720 370 0
v -720 370 720
v -720 370 0
v -660 370 0
v -720 370 720
v -660 370 720
v -720 310 0
v -660 310 0
v -720 310 720
v -660 310 720
v -660 310 0
v -660 310 720
v -660 370 0
v -660 370 720
v 660 310 0
v 660 310 720
v 660 370 0
v 660 370 720
v 660 370 0
v 720 370 0
v 660 370 720
v 720 370 720
v 660 310 0
v 720 310 0
v 660 310 720
v 720 310 720
v 720 310 0
v 720 310 720
v 720 370 0
v 720 370 720
v -720 -370 0
v -720 -310 0
v -660 -370 0
v -660 -310 0
v 660 -370 0
v 660 -310 0
v 720 -370 0
v 720 -310 0
v -720 310 0
v -720 370 0
v -660 310 0
v -660 370 0
v 660 310 0
v 660 370 0
v 720 310 0
v 720 370 0
f 2 3 1
f 2 4 3
f 6 7 5
f 8 7 6
f 11 10 9
f 12 10 11
f 14 13 15
f 16 14 15
f 24 17 21
f 22 21 17
f 18 30 29
f 18 29 22
f 18 22 17
f 32 23 22
f 32 22 29
f 31 30 18
f 25 24 23
f 19 17 24
f 19 24 25
f 28 19 25
f 26 25 23
f 27 19 28
f 33 32 31
f 33 23 32
f 33 26 23
f 36 27 26
f 36 26 33
f 34 33 31
f 20 35 34
f 20 36 35
f 20 19 27
f 20 27 36
f 20 31 18
f 20 34 31
f 38 37 39
f 38 39 40
f 44 43 41
f 42 44 41
f 47 45 46
f 48 47 46
f 52 49 51
f 50 49 52
f 55 54 53
f 56 54 55
f 60 59 57
f 58 60 57
f 63 62 61
f 64 62 63
f 67 65 66
f 68 67 66
f 72 69 71
f 70 69 72
f 76 75 73
f 74 76 73
f 79 78 77
f 80 78 79
f 83 81 82
f 84 83 82
f 88 85 87
f 86 85 88
f 92 91 89
f 90 92 89
f 95 94 93
f 96 94 95
f 99 97 98
f 100 99 98
f 104 101 103
f 102 101 104
f 108 105 106
f 108 107 105
f 112 109 110
f 112 111 109
f 116 113 114
f 116 115 113
f 120 117 118
f 120 119 117
