# Cadless export: model
v -600 -300 715
v -600 -300 740
v -600 300 715
v -600 300 740
v 600 -300 715
v 600 -300 740
v 600 300 715
v 600 300 740
v -600 -300 715
v 600 -300 715
v -600 -300 740
v 600 -300 740
v -600 300 715
v 600 300 715
v -600 300 740
v 600 300 740
v -600 -300 715
v -600 300 715
v 600 -300 715
v 600 300 715
v -600 -300 740
v -600 300 740
v 600 -300 740
v 600 300 740
f 2 3 1
f 2 4 3
f 6 5 7
f 6 7 8
f 12 9 10
f 12 11 9
f 16 14 13
f 16 13 15
f 20 17 18
f 20 19 17
f 24 22 21
f 24 21 23
