# Cadless export: model
v 0 -20 0
v 0 -20 60
v 0 20 0
v 0 20 60
v 0 -20 60
v 0 20 60
v 5 -20 60
v 5 20 60
v 5 -20 5
v 5 -20 60
v 5 20 5
v 5 20 60
v 5 20 5
v 60 20 5
v 5 -20 5
v 60 -20 5
v 60 -20 0
v 60 -20 5
v 60 20 0
v 60 20 5
v 0 20 60
v 0 20 0
v 5 20 60
v 5 20 5
v 60 20 5
v 60 20 0
v 0 -20 0
v 0 20 0
v 60 -20 0
v 60 20 0
v 0 -20 0
v 60 -20 0
v 0 -20 60
v 5 -20 60
v 5 -20 5
v 60 -20 5
f 2 3 1
f 2 4 3
f 6 5 7
f 8 6 7
f 12 9 11
f 10 9 12
f 16 13 15
f 14 13 16
f 17 19 20
f 18 17 20
f 26 22 24
f 21 24 22
f 23 24 21
f 25 26 24
f 30 27 28
f 30 29 27
f 33 31 35
f 32 35 31
f 36 35 32
f 34 33 35
