# Cadless export: model
v -150 -80 220
v -150 80 220
v -150 -80 0
v -150 -60 0
v -150 -60 90
v -150 60 90
v -150 60 0
v -150 80 0
v -150 -80 220
v -150 80 220
v 150 -80 220
v 150 80 220
v -150 80 0
v 150 80 0
v -150 80 220
v 150 80 220
v -150 60 0
v -150 80 0
v 150 60 0
v 150 80 0
v 150 60 0
v 150 60 90
v -150 60 0
v -150 60 90
v -120 60 90
v -120 60 50
v -100 60 50
v -100 60 90
v -10 60 90
v -10 60 50
v 10 60 50
v 10 60 90
v 100 60 90
v 100 60 50
v 120 60 50
v 120 60 90
v -150 60 90
v -120 60 90
v -150 -60 90
v -120 -60 90
v 150 -60 0
v 150 -60 90
v -150 -60 0
v -150 -60 90
v -120 -60 90
v -120 -60 50
v -100 -60 50
v -100 -60 90
v -10 -60 90
v -10 -60 50
v 10 -60 50
v 10 -60 90
v 100 -60 90
v 100 -60 50
v 120 -60 50
v 120 -60 90
v -150 -80 0
v -150 -60 0
v 150 -80 0
v 150 -60 0
v -150 -80 0
v 150 -80 0
v -150 -80 220
v 150 -80 220
v 150 -80 220
v 150 80 220
v 150 -80 0
v 150 -60 0
v 150 -60 90
v 150 60 90
v 150 60 0
v 150 80 0
v 120 60 90
v 150 60 90
v 120 -60 90
v 150 -60 90
v 120 -60 50
v 120 -60 90
v 120 60 50
v 120 60 90
v 100 -60 50
v 100 60 50
v 120 -60 50
v 120 60 50
v 100 -60 50
v 100 -60 90
v 100 60 50
v 100 60 90
v 10 60 90
v 100 60 90
v 10 -60 90
v 100 -60 90
v 10 -60 50
v 10 -60 90
v 10 60 50
v 10 60 90
v -10 -60 50
v -10 60 50
v 10 -60 50
v 10 60 50
v -10 -60 50
v -10 -60 90
v -10 60 50
v -10 60 90
v -100 60 90
v -10 60 90
v -100 -60 90
v -10 -60 90
v -100 -60 50
v -100 -60 90
v -100 60 50
v -100 60 90
v -120 -60 50
v -120 60 50
v -100 -60 50
v -100 60 50
v -120 -60 50
v -120 -60 90
v -120 60 50
v -120 60 90
f 6 8 7
f 2 8 6
f 5 4 3
f 1 6 5
f 1 2 6
f 1 5 3
f 12 10 9
f 12 9 11
f 16 14 13
f 16 13 15
f 19 17 18
f 20 19 18
f 24 23 26
f 27 26 23
f 25 24 26
f 30 28 27
f 30 27 23
f 31 30 23
f 29 28 30
f 34 32 31
f 21 31 23
f 21 34 31
f 35 34 21
f 33 32 34
f 22 36 35
f 22 35 21
f 37 40 39
f 38 40 37
f 44 46 43
f 47 43 46
f 45 46 44
f 50 47 48
f 50 43 47
f 51 43 50
f 49 50 48
f 54 51 52
f 41 43 51
f 41 51 54
f 55 41 54
f 53 54 52
f 42 55 56
f 42 41 55
f 59 57 58
f 60 59 58
f 64 61 62
f 64 63 61
f 70 71 72
f 66 70 72
f 69 67 68
f 65 69 70
f 65 70 66
f 65 67 69
f 73 76 75
f 74 76 73
f 78 77 79
f 78 79 80
f 84 81 82
f 84 83 81
f 86 87 85
f 86 88 87
f 90 91 89
f 90 92 91
f 94 93 95
f 94 95 96
f 100 97 98
f 100 99 97
f 102 103 101
f 102 104 103
f 106 107 105
f 106 108 107
f 110 109 111
f 110 111 112
f 116 113 114
f 116 115 113
f 118 119 117
f 118 120 119
