# Cadless export: model
v -600 -300 0
v -600 -300 740
v -600 300 0
v -600 300 740
v -582 -300 715
v 582 -300 715
v -582 -300 0
v -600 -300 0
v -600 -300 740
v 600 -300 740
v 600 -300 0
v 582 -300 0
v -600 -300 0
v -600 300 0
v -582 -300 0
v -582 300 0
v -582 300 0
v -582 300 300
v -600 300 0
v -600 300 740
v 600 300 740
v 600 300 0
v 582 300 0
v 582 300 300
v -600 -300 740
v -600 300 740
v 600 -300 740
v 600 300 740
v 30 200 740
v 29.9627 201.495 740
v 29.8509 202.987 740
v 29.6649 204.471 740
v 29.4052 205.944 740
v 29.0723 207.403 740
v 28.6672 208.843 740
v 28.1908 210.261 740
v 27.6443 211.653 740
v 27.0291 213.017 740
v 26.3466 214.348 740
v 25.5987 215.643 740
v 24.7872 216.9 740
v 23.914 218.114 740
v 22.9813 219.284 740
v 21.9916 220.405 740
v 20.9471 221.476 740
v 19.8506 222.493 740
v 18.7047 223.455 740
v 17.5123 224.358 740
v 16.2764 225.201 740
v 15 225.981 740
v 13.6863 226.696 740
v 12.3386 227.345 740
v 10.9602 227.926 740
v 9.5546 228.438 740
v 8.12521 228.879 740
v 6.67563 229.248 740
v 5.20945 229.544 740
v 3.73031 229.767 740
v 2.2419 229.916 740
v 0.747921 229.991 740
v -0.747921 229.991 740
v -2.2419 229.916 740
v -3.73031 229.767 740
v -5.20945 229.544 740
v -6.67563 229.248 740
v -8.12521 228.879 740
v -9.5546 228.438 740
v -10.9602 227.926 740
v -12.3386 227.345 740
v -13.6863 226.696 740
v -15 225.981 740
v -16.2764 225.201 740
v -17.5123 224.358 740
v -18.7047 223.455 740
v -19.8506 222.493 740
v -20.9471 221.476 740
v -21.9916 220.405 740
v -22.9813 219.284 740
v -23.914 218.114 740
v -24.7872 216.9 740
v -25.5987 215.643 740
v -26.3466 214.348 740
v -27.0291 213.017 740
v -27.6443 211.653 740
v -28.1908 210.261 740
v -28.6672 208.843 740
v -29.0723 207.403 740
v -29.4052 205.944 740
v -29.6649 204.471 740
v -29.8509 202.987 740
v -29.9627 201.495 740
v -30 200 740
v -29.9627 198.505 740
v -29.8509 197.013 740
v -29.6649 195.529 740
v -29.4052 194.056 740
v -29.0723 192.597 740
v -28.6672 191.157 740
v -28.1908 189.739 740
v -27.6443 188.347 740
v -27.0291 186.983 740
v -26.3466 185.652 740
v -25.5987 184.357 740
v -24.7872 183.1 740
v -23.914 181.886 740
v -22.9813 180.716 740
v -21.9916 179.595 740
v -20.9471 178.524 740
v -19.8506 177.507 740
v -18.7047 176.545 740
v -17.5123 175.642 740
v -16.2764 174.799 740
v -15 174.019 740
v -13.6863 173.304 740
v -12.3386 172.655 740
v -10.9602 172.074 740
v -9.5546 171.562 740
v -8.12521 171.121 740
v -6.67563 170.752 740
v -5.20945 170.456 740
v -3.73031 170.233 740
v -2.2419 170.084 740
v -0.747921 170.009 740
v 0.747921 170.009 740
v 2.2419 170.084 740
v 3.73031 170.233 740
v 5.20945 170.456 740
v 6.67563 170.752 740
v 8.12521 171.121 740
v 9.5546 171.562 740
v 10.9602 172.074 740
v 12.3386 172.655 740
v 13.6863 173.304 740
v 15 174.019 740
v 16.2764 174.799 740
v 17.5123 175.642 740
v 18.7047 176.545 740
v 19.8506 177.507 740
v 20.9471 178.524 740
v 21.9916 179.595 740
v 22.9813 180.716 740
v 23.914 181.886 740
v 24.7872 183.1 740
v 25.5987 184.357 740
v 26.3466 185.652 740
v 27.0291 186.983 740
v 27.6443 188.347 740
v 28.1908 189.739 740
v 28.6672 191.157 740
v 29.0723 192.597 740
v 29.4052 194.056 740
v 29.6649 195.529 740
v 29.8509 197.013 740
v 29.9627 198.505 740
v -582 284 715
v 582 284 715
v -582 -300 715
v 582 -300 715
v 30 200 715
v 29.9627 201.495 715
v 29.8509 202.987 715
v 29.6649 204.471 715
v 29.4052 205.944 715
v 29.0723 207.403 715
v 28.6672 208.843 715
v 28.1908 210.261 715
v 27.6443 211.653 715
v 27.0291 213.017 715
v 26.3466 214.348 715
v 25.5987 215.643 715
v 24.7872 216.9 715
v 23.914 218.114 715
v 22.9813 219.284 715
v 21.9916 220.405 715
v 20.9471 221.476 715
v 19.8506 222.493 715
v 18.7047 223.455 715
v 17.5123 224.358 715
v 16.2764 225.201 715
v 15 225.981 715
v 13.6863 226.696 715
v 12.3386 227.345 715
v 10.9602 227.926 715
v 9.5546 228.438 715
v 8.12521 228.879 715
v 6.67563 229.248 715
v 5.20945 229.544 715
v 3.73031 229.767 715
v 2.2419 229.916 715
v 0.747921 229.991 715
v -0.747921 229.991 715
v -2.2419 229.916 715
v -3.73031 229.767 715
v -5.20945 229.544 715
v -6.67563 229.248 715
v -8.12521 228.879 715
v -9.5546 228.438 715
v -10.9602 227.926 715
v -12.3386 227.345 715
v -13.6863 226.696 715
v -15 225.981 715
v -16.2764 225.201 715
v -17.5123 224.358 715
v -18.7047 223.455 715
v -19.8506 222.493 715
v -20.9471 221.476 715
v -21.9916 220.405 715
v -22.9813 219.284 715
v -23.914 218.114 715
v -24.7872 216.9 715
v -25.5987 215.643 715
v -26.3466 214.348 715
v -27.0291 213.017 715
v -27.6443 211.653 715
v -28.1908 210.261 715
v -28.6672 208.843 715
v -29.0723 207.403 715
v -29.4052 205.944 715
v -29.6649 204.471 715
v -29.8509 202.987 715
v -29.9627 201.495 715
v -30 200 715
v -29.9627 198.505 715
v -29.8509 197.013 715
v -29.6649 195.529 715
v -29.4052 194.056 715
v -29.0723 192.597 715
v -28.6672 191.157 715
v -28.1908 189.739 715
v -27.6443 188.347 715
v -27.0291 186.983 715
v -26.3466 185.652 715
v -25.5987 184.357 715
v -24.7872 183.1 715
v -23.914 181.886 715
v -22.9813 180.716 715
v -21.9916 179.595 715
v -20.9471 178.524 715
v -19.8506 177.507 715
v -18.7047 176.545 715
v -17.5123 175.642 715
v -16.2764 174.799 715
v -15 174.019 715
v -13.6863 173.304 715
v -12.3386 172.655 715
v -10.9602 172.074 715
v -9.5546 171.562 715
v -8.12521 171.121 715
v -6.67563 170.752 715
v -5.20945 170.456 715
v -3.73031 170.233 715
v -2.2419 170.084 715
v -0.747921 170.009 715
v 0.747921 170.009 715
v 2.2419 170.084 715
v 3.73031 170.233 715
v 5.20945 170.456 715
v 6.67563 170.752 715
v 8.12521 171.121 715
v 9.5546 171.562 715
v 10.9602 172.074 715
v 12.3386 172.655 715
v 13.6863 173.304 715
v 15 174.019 715
v 16.2764 174.799 715
v 17.5123 175.642 715
v 18.7047 176.545 715
v 19.8506 177.507 715
v 20.9471 178.524 715
v 21.9916 179.595 715
v 22.9813 180.716 715
v 23.914 181.886 715
v 24.7872 183.1 715
v 25.5987 184.357 715
v 26.3466 185.652 715
v 27.0291 186.983 715
v 27.6443 188.347 715
v 28.1908 189.739 715
v 28.6672 191.157 715
v 29.0723 192.597 715
v 29.4052 194.056 715
v 29.6649 195.529 715
v 29.8509 197.013 715
v 29.9627 198.505 715
v -582 -300 715
v -582 284 715
v -582 -300 0
v -582 300 0
v -582 300 300
v -582 284 300
v 600 -300 0
v 600 -300 740
v 600 300 0
v 600 300 740
v 582 -300 0
v 582 300 0
v 600 -300 0
v 600 300 0
v 582 -300 715
v 582 284 715
v 582 -300 0
v 582 300 0
v 582 300 300
v 582 284 300
v -582 284 300
v -582 300 300
v 582 284 300
v 582 300 300
v 30 200 740
v 29.9627 201.495 740
v 29.8509 202.987 740
v 29.6649 204.471 740
v 29.4052 205.944 740
v 29.0723 207.403 740
v 28.6672 208.843 740
v 28.1908 210.261 740
v 27.6443 211.653 740
v 27.0291 213.017 740
v 26.3466 214.348 740
v 25.5987 215.643 740
v 24.7872 216.9 740
v 23.914 218.114 740
v 22.9813 219.284 740
v 21.9916 220.405 740
v 20.9471 221.476 740
v 19.8506 222.493 740
v 18.7047 223.455 740
v 17.5123 224.358 740
v 16.2764 225.201 740
v 15 225.981 740
v 13.6863 226.696 740
v 12.3386 227.345 740
v 10.9602 227.926 740
v 9.5546 228.438 740
v 8.12521 228.879 740
v 6.67563 229.248 740
v 5.20945 229.544 740
v 3.73031 229.767 740
v 2.2419 229.916 740
v 0.747921 229.991 740
v -0.747921 229.991 740
v -2.2419 229.916 740
v -3.73031 229.767 740
v -5.20945 229.544 740
v -6.67563 229.248 740
v -8.12521 228.879 740
v -9.5546 228.438 740
v -10.9602 227.926 740
v -12.3386 227.345 740
v -13.6863 226.696 740
v -15 225.981 740
v -16.2764 225.201 740
v -17.5123 224.358 740
v -18.7047 223.455 740
v -19.8506 222.493 740
v -20.9471 221.476 740
v -21.9916 220.405 740
v -22.9813 219.284 740
v -23.914 218.114 740
v -24.7872 216.9 740
v -25.5987 215.643 740
v -26.3466 214.348 740
v -27.0291 213.017 740
v -27.6443 211.653 740
v -28.1908 210.261 740
v -28.6672 208.843 740
v -29.0723 207.403 740
v -29.4052 205.944 740
v -29.6649 204.471 740
v -29.8509 202.987 740
v -29.9627 201.495 740
v -30 200 740
v -29.9627 198.505 740
v -29.8509 197.013 740
v -29.6649 195.529 740
v -29.4052 194.056 740
v -29.0723 192.597 740
v -28.6672 191.157 740
v -28.1908 189.739 740
v -27.6443 188.347 740
v -27.0291 186.983 740
v -26.3466 185.652 740
v -25.5987 184.357 740
v -24.7872 183.1 740
v -23.914 181.886 740
v -22.9813 180.716 740
v -21.9916 179.595 740
v -20.9471 178.524 740
v -19.8506 177.507 740
v -18.7047 176.545 740
v -17.5123 175.642 740
v -16.2764 174.799 740
v -15 174.019 740
v -13.6863 173.304 740
v -12.3386 172.655 740
v -10.9602 172.074 740
v -9.5546 171.562 740
v -8.12521 171.121 740
v -6.67563 170.752 740
v -5.20945 170.456 740
v -3.73031 170.233 740
v -2.2419 170.084 740
v -0.747921 170.009 740
v 0.747921 170.009 740
v 2.2419 170.084 740
v 3.73031 170.233 740
v 5.20945 170.456 740
v 6.67563 170.752 740
v 8.12521 171.121 740
v 9.5546 171.562 740
v 10.9602 172.074 740
v 12.3386 172.655 740
v 13.6863 173.304 740
v 15 174.019 740
v 16.2764 174.799 740
v 17.5123 175.642 740
v 18.7047 176.545 740
v 19.8506 177.507 740
v 20.9471 178.524 740
v 21.9916 179.595 740
v 22.9813 180.716 740
v 23.914 181.886 740
v 24.7872 183.1 740
v 25.5987 184.357 740
v 26.3466 185.652 740
v 27.0291 186.983 740
v 27.6443 188.347 740
v 28.1908 189.739 740
v 28.6672 191.157 740
v 29.0723 192.597 740
v 29.4052 194.056 740
v 29.6649 195.529 740
v 29.8509 197.013 740
v 29.9627 198.505 740
v 30 200 740
v 30 200 715
v 29.9627 201.495 715
v 29.8509 202.987 715
v 29.6649 204.471 715
v 29.4052 205.944 715
v 29.0723 207.403 715
v 28.6672 208.843 715
v 28.1908 210.261 715
v 27.6443 211.653 715
v 27.0291 213.017 715
v 26.3466 214.348 715
v 25.5987 215.643 715
v 24.7872 216.9 715
v 23.914 218.114 715
v 22.9813 219.284 715
v 21.9916 220.405 715
v 20.9471 221.476 715
v 19.8506 222.493 715
v 18.7047 223.455 715
v 17.5123 224.358 715
v 16.2764 225.201 715
v 15 225.981 715
v 13.6863 226.696 715
v 12.3386 227.345 715
v 10.9602 227.926 715
v 9.5546 228.438 715
v 8.12521 228.879 715
v 6.67563 229.248 715
v 5.20945 229.544 715
v 3.73031 229.767 715
v 2.2419 229.916 715
v 0.747921 229.991 715
v -0.747921 229.991 715
v -2.2419 229.916 715
v -3.73031 229.767 715
v -5.20945 229.544 715
v -6.67563 229.248 715
v -8.12521 228.879 715
v -9.5546 228.438 715
v -10.9602 227.926 715
v -12.3386 227.345 715
v -13.6863 226.696 715
v -15 225.981 715
v -16.2764 225.201 715
v -17.5123 224.358 715
v -18.7047 223.455 715
v -19.8506 222.493 715
v -20.9471 221.476 715
v -21.9916 220.405 715
v -22.9813 219.284 715
v -23.914 218.114 715
v -24.7872 216.9 715
v -25.5987 215.643 715
v -26.3466 214.348 715
v -27.0291 213.017 715
v -27.6443 211.653 715
v -28.1908 210.261 715
v -28.6672 208.843 715
v -29.0723 207.403 715
v -29.4052 205.944 715
v -29.6649 204.471 715
v -29.8509 202.987 715
v -29.9627 201.495 715
v -30 200 715
v -29.9627 198.505 715
v -29.8509 197.013 715
v -29.6649 195.529 715
v -29.4052 194.056 715
v -29.0723 192.597 715
v -28.6672 191.157 715
v -28.1908 189.739 715
v -27.6443 188.347 715
v -27.0291 186.983 715
v -26.3466 185.652 715
v -25.5987 184.357 715
v -24.7872 183.1 715
v -23.914 181.886 715
v -22.9813 180.716 715
v -21.9916 179.595 715
v -20.9471 178.524 715
v -19.8506 177.507 715
v -18.7047 176.545 715
v -17.5123 175.642 715
v -16.2764 174.799 715
v -15 174.019 715
v -13.6863 173.304 715
v -12.3386 172.655 715
v -10.9602 172.074 715
v -9.5546 171.562 715
v -8.12521 171.121 715
v -6.67563 170.752 715
v -5.20945 170.456 715
v -3.73031 170.233 715
v -2.2419 170.084 715
v -0.747921 170.009 715
v 0.747921 170.009 715
v 2.2419 170.084 715
v 3.73031 170.233 715
v 5.20945 170.456 715
v 6.67563 170.752 715
v 8.12521 171.121 715
v 9.5546 171.562 715
v 10.9602 172.074 715
v 12.3386 172.655 715
v 13.6863 173.304 715
v 15 174.019 715
v 16.2764 174.799 715
v 17.5123 175.642 715
v 18.7047 176.545 715
v 19.8506 177.507 715
v 20.9471 178.524 715
v 21.9916 179.595 715
v 22.9813 180.716 715
v 23.914 181.886 715
v 24.7872 183.1 715
v 25.5987 184.357 715
v 26.3466 185.652 715
v 27.0291 186.983 715
v 27.6443 188.347 715
v 28.1908 189.739 715
v 28.6672 191.157 715
v 29.0723 192.597 715
v 29.4052 194.056 715
v 29.6649 195.529 715
v 29.8509 197.013 715
v 29.9627 198.505 715
v 30 200 715
v -582 284 300
v 582 284 300
v -582 284 715
v 582 284 715
f 4 3 1
f 2 4 1
f 5 8 7
f 9 8 5
f 6 12 11
f 10 5 6
f 10 6 11
f 10 9 5
f 14 15 13
f 16 15 14
f 18 17 19
f 20 18 19
f 24 22 23
f 21 24 18
f 21 18 20
f 21 22 24
f 107 25 108
f 109 108 25
f 106 25 107
f 110 109 25
f 105 25 106
f 111 110 25
f 104 25 105
f 112 111 25
f 103 25 104
f 113 112 25
f 102 26 25
f 102 25 103
f 114 113 25
f 101 26 102
f 115 114 25
f 100 26 101
f 116 115 25
f 99 26 100
f 117 116 25
f 98 26 99
f 118 117 25
f 97 26 98
f 119 118 25
f 96 26 97
f 120 119 25
f 95 26 96
f 121 120 25
f 94 26 95
f 122 121 25
f 93 26 94
f 123 122 25
f 92 26 93
f 91 26 92
f 90 26 91
f 89 26 90
f 88 26 89
f 87 26 88
f 86 26 87
f 85 26 86
f 84 26 85
f 83 26 84
f 82 26 83
f 81 26 82
f 80 26 81
f 79 26 80
f 78 26 79
f 77 26 78
f 76 26 77
f 75 26 76
f 74 26 75
f 73 26 74
f 72 26 73
f 71 26 72
f 70 26 71
f 69 26 70
f 68 26 69
f 67 26 68
f 27 126 125
f 27 127 126
f 27 128 127
f 27 129 128
f 27 130 129
f 27 131 130
f 27 132 131
f 27 133 132
f 27 134 133
f 27 135 134
f 27 136 135
f 27 137 136
f 27 138 137
f 27 139 138
f 27 140 139
f 27 141 140
f 27 142 141
f 27 143 142
f 27 144 143
f 27 145 144
f 27 123 25
f 27 124 123
f 27 125 124
f 28 30 29
f 28 31 30
f 28 32 31
f 28 33 32
f 28 34 33
f 28 35 34
f 28 36 35
f 28 37 36
f 28 38 37
f 28 39 38
f 28 40 39
f 28 41 40
f 28 42 41
f 28 43 42
f 28 44 43
f 28 45 44
f 28 146 145
f 28 46 45
f 28 147 146
f 28 47 46
f 28 148 147
f 28 48 47
f 28 149 148
f 28 49 48
f 28 150 149
f 28 50 49
f 28 151 150
f 28 51 50
f 28 152 151
f 28 52 51
f 28 153 152
f 28 53 52
f 28 154 153
f 28 54 53
f 28 29 154
f 28 145 27
f 28 26 61
f 61 26 62
f 62 26 63
f 63 26 64
f 64 26 65
f 65 26 66
f 66 26 67
f 28 61 60
f 28 60 59
f 28 59 58
f 28 58 57
f 28 57 56
f 28 56 55
f 28 55 54
f 237 238 157
f 239 157 238
f 236 237 157
f 240 157 239
f 235 236 157
f 241 157 240
f 234 235 157
f 242 157 241
f 233 157 155
f 233 234 157
f 243 157 242
f 232 233 155
f 244 157 243
f 231 232 155
f 245 157 244
f 230 231 155
f 246 157 245
f 229 230 155
f 247 157 246
f 228 229 155
f 248 157 247
f 227 228 155
f 249 157 248
f 226 227 155
f 250 157 249
f 225 226 155
f 251 157 250
f 224 225 155
f 252 157 251
f 223 224 155
f 253 157 252
f 222 223 155
f 221 222 155
f 220 221 155
f 219 220 155
f 218 219 155
f 217 218 155
f 216 217 155
f 215 216 155
f 214 215 155
f 213 214 155
f 212 213 155
f 211 212 155
f 210 211 155
f 209 210 155
f 208 209 155
f 207 208 155
f 206 207 155
f 205 206 155
f 204 205 155
f 203 204 155
f 202 203 155
f 201 202 155
f 200 201 155
f 199 200 155
f 198 199 155
f 158 255 256
f 158 256 257
f 158 257 258
f 158 258 259
f 158 259 260
f 158 260 261
f 158 261 262
f 158 262 263
f 158 263 264
f 158 264 265
f 158 265 266
f 158 266 267
f 158 267 268
f 158 268 269
f 158 269 270
f 158 270 271
f 158 271 272
f 158 272 273
f 158 273 274
f 158 157 253
f 158 253 254
f 158 254 255
f 156 159 160
f 156 160 161
f 156 161 162
f 156 162 163
f 156 163 164
f 156 164 165
f 156 165 166
f 156 166 167
f 156 167 168
f 156 168 169
f 156 169 170
f 156 170 171
f 156 171 172
f 156 172 173
f 156 173 174
f 156 274 275
f 156 174 175
f 156 275 276
f 156 175 176
f 156 276 277
f 156 176 177
f 156 277 278
f 156 177 178
f 156 278 279
f 156 178 179
f 156 279 280
f 156 179 180
f 156 280 281
f 156 180 181
f 156 281 282
f 156 181 182
f 156 282 283
f 156 182 183
f 156 283 284
f 156 284 159
f 156 158 274
f 156 191 155
f 191 192 155
f 192 193 155
f 193 194 155
f 194 195 155
f 195 196 155
f 196 197 155
f 197 198 155
f 156 190 191
f 156 189 190
f 156 188 189
f 156 187 188
f 156 186 187
f 156 185 186
f 156 184 185
f 156 183 184
f 290 288 289
f 287 288 290
f 285 290 286
f 285 287 290
f 294 291 293
f 292 291 294
f 296 297 295
f 298 297 296
f 304 303 302
f 301 304 302
f 299 300 304
f 299 304 301
f 307 305 306
f 308 307 306
f 310 436 309
f 310 437 436
f 310 438 437
f 311 439 438
f 311 438 310
f 312 440 439
f 312 439 311
f 313 440 312
f 314 441 440
f 314 442 441
f 314 440 313
f 315 443 442
f 315 442 314
f 316 443 315
f 317 444 443
f 317 443 316
f 318 445 444
f 318 446 445
f 318 444 317
f 319 446 318
f 320 446 319
f 320 447 446
f 321 447 320
f 321 448 447
f 321 449 448
f 322 449 321
f 323 449 322
f 323 450 449
f 324 450 323
f 324 451 450
f 325 451 324
f 325 452 451
f 326 452 325
f 326 453 452
f 327 453 326
f 327 454 453
f 328 454 327
f 328 455 454
f 329 455 328
f 329 456 455
f 330 456 329
f 330 457 456
f 331 457 330
f 331 458 457
f 332 459 458
f 332 458 331
f 332 460 459
f 333 460 332
f 334 461 460
f 334 460 333
f 335 462 461
f 335 461 334
f 336 463 462
f 336 464 463
f 336 462 335
f 337 464 336
f 338 465 464
f 338 466 465
f 338 464 337
f 339 467 466
f 339 466 338
f 340 467 339
f 341 468 467
f 341 467 340
f 342 469 468
f 342 468 341
f 343 470 469
f 343 471 470
f 343 469 342
f 344 472 471
f 344 471 343
f 345 473 472
f 345 472 344
f 346 473 345
f 346 474 473
f 347 474 346
f 348 474 347
f 348 475 474
f 349 475 348
f 349 476 475
f 350 476 349
f 350 477 476
f 351 477 350
f 351 478 477
f 352 478 351
f 352 479 478
f 353 479 352
f 353 480 479
f 353 481 480
f 354 481 353
f 355 481 354
f 355 482 481
f 356 482 355
f 356 483 482
f 356 484 483
f 357 484 356
f 358 484 357
f 358 485 484
f 358 486 485
f 359 486 358
f 360 486 359
f 360 487 486
f 361 487 360
f 361 488 487
f 361 489 488
f 362 489 361
f 363 489 362
f 363 490 489
f 363 491 490
f 364 491 363
f 365 491 364
f 365 492 491
f 365 493 492
f 366 493 365
f 367 494 493
f 367 495 494
f 367 493 366
f 368 496 495
f 368 495 367
f 369 497 496
f 369 496 368
f 370 497 369
f 371 497 370
f 371 498 497
f 372 498 371
f 372 499 498
f 373 499 372
f 373 500 499
f 374 500 373
f 374 501 500
f 375 501 374
f 375 502 501
f 376 502 375
f 376 503 502
f 377 503 376
f 377 504 503
f 378 504 377
f 378 505 504
f 379 505 378
f 379 506 505
f 380 506 379
f 380 507 506
f 381 507 380
f 381 508 507
f 382 508 381
f 382 509 508
f 383 511 510
f 383 509 382
f 383 510 509
f 384 512 511
f 384 511 383
f 385 512 384
f 386 513 512
f 386 512 385
f 387 514 513
f 387 513 386
f 388 515 514
f 388 516 515
f 388 514 387
f 389 516 388
f 390 517 516
f 390 516 389
f 391 518 517
f 391 519 518
f 391 517 390
f 392 519 391
f 393 520 519
f 393 519 392
f 394 521 520
f 394 520 393
f 395 522 521
f 395 523 522
f 395 521 394
f 396 523 395
f 397 523 396
f 397 524 523
f 398 524 397
f 398 525 524
f 398 526 525
f 399 526 398
f 400 526 399
f 400 527 526
f 401 528 527
f 401 527 400
f 402 529 528
f 402 530 529
f 402 528 401
f 403 530 402
f 404 531 530
f 404 532 531
f 404 530 403
f 405 532 404
f 406 533 532
f 406 532 405
f 407 534 533
f 407 533 406
f 408 535 534
f 408 534 407
f 409 536 535
f 409 535 408
f 410 537 536
f 410 536 409
f 411 538 537
f 411 537 410
f 412 539 538
f 412 538 411
f 413 540 539
f 413 539 412
f 414 541 540
f 414 540 413
f 415 542 541
f 415 541 414
f 416 543 542
f 416 542 415
f 417 544 543
f 417 545 544
f 417 543 416
f 418 545 417
f 419 546 545
f 419 545 418
f 420 547 546
f 420 546 419
f 421 547 420
f 421 548 547
f 421 549 548
f 422 549 421
f 423 549 422
f 423 550 549
f 423 551 550
f 424 551 423
f 425 551 424
f 425 552 551
f 426 552 425
f 426 553 552
f 427 553 426
f 427 554 553
f 428 554 427
f 428 555 554
f 429 555 428
f 429 556 555
f 429 557 556
f 430 557 429
f 431 557 430
f 431 558 557
f 432 558 431
f 432 559 558
f 433 559 432
f 433 560 559
f 434 561 560
f 434 560 433
f 435 562 561
f 435 561 434
f 566 563 564
f 566 565 563
