# Cadless export: model
v 40 -30 -15
v 40 -30 15
v 40 30 -15
v 40 30 15
v -40 -30 -15
v 40 -30 -15
v -40 -30 15
v 40 -30 15
v -40 -30 15
v -40 30 15
v 40 -30 15
v 40 30 15
v 37 -27 15
v 37 27 15
v -37 -27 15
v -37 27 15
v -40 30 -15
v 40 30 -15
v -40 30 15
v 40 30 15
v -40 -30 -15
v -40 30 -15
v 40 -30 -15
v 40 30 -15
v -40 -30 -15
v -40 -30 15
v -40 30 -15
v -40 30 15
v 37 -27 15
v 37 27 15
v 37 -27 -12
v 37 27 -12
v -37 -27 15
v 37 -27 15
v 37 -27 -12
v -37 -27 -12
v -37 -27 15
v -37 27 15
v -37 -27 -12
v -37 27 -12
v -37 27 15
v 37 27 15
v 37 27 -12
v -37 27 -12
v -37 27 -12
v -37 -27 -12
v 37 -27 -12
v 37 27 -12
v -26 -20 -12
v -26.005 -19.8006 -12
v -26.0199 -19.6017 -12
v -26.0447 -19.4038 -12
v -26.0793 -19.2074 -12
v -26.1237 -19.013 -12
v -26.1777 -18.821 -12
v -26.2412 -18.6319 -12
v -26.3141 -18.4463 -12
v -26.3961 -18.2645 -12
v -26.4871 -18.087 -12
v -26.5868 -17.9143 -12
v -26.695 -17.7467 -12
v -26.8115 -17.5848 -12
v -26.9358 -17.4288 -12
v -27.0678 -17.2793 -12
v -27.2071 -17.1365 -12
v -27.3533 -17.0009 -12
v -27.506 -16.8727 -12
v -27.665 -16.7522 -12
v -27.8298 -16.6399 -12
v -28 -16.5359 -12
v -28.1752 -16.4405 -12
v -28.3549 -16.354 -12
v -28.5386 -16.2765 -12
v -28.7261 -16.2083 -12
v -28.9166 -16.1495 -12
v -29.1099 -16.1003 -12
v -29.3054 -16.0608 -12
v -29.5026 -16.031 -12
v -29.7011 -16.0112 -12
v -29.9003 -16.0012 -12
v -30.0997 -16.0012 -12
v -30.2989 -16.0112 -12
v -30.4974 -16.031 -12
v -30.6946 -16.0608 -12
v -30.8901 -16.1003 -12
v -31.0834 -16.1495 -12
v -31.2739 -16.2083 -12
v -31.4614 -16.2765 -12
v -31.6451 -16.354 -12
v -31.8248 -16.4405 -12
v -32 -16.5359 -12
v -32.1702 -16.6399 -12
v -32.335 -16.7522 -12
v -32.494 -16.8727 -12
v -32.6467 -17.0009 -12
v -32.7929 -17.1365 -12
v -32.9322 -17.2793 -12
v -33.0642 -17.4288 -12
v -33.1885 -17.5848 -12
v -33.305 -17.7467 -12
v -33.4132 -17.9143 -12
v -33.5129 -18.087 -12
v -33.6039 -18.2645 -12
v -33.6859 -18.4463 -12
v -33.7588 -18.6319 -12
v -33.8223 -18.821 -12
v -33.8763 -19.013 -12
v -33.9207 -19.2074 -12
v -33.9553 -19.4038 -12
v -33.9801 -19.6017 -12
v -33.995 -19.8006 -12
v -34 -20 -12
v -33.995 -20.1994 -12
v -33.9801 -20.3983 -12
v -33.9553 -20.5962 -12
v -33.9207 -20.7926 -12
v -33.8763 -20.987 -12
v -33.8223 -21.179 -12
v -33.7588 -21.3681 -12
v -33.6859 -21.5537 -12
v -33.6039 -21.7355 -12
v -33.5129 -21.913 -12
v -33.4132 -22.0857 -12
v -33.305 -22.2533 -12
v -33.1885 -22.4152 -12
v -33.0642 -22.5712 -12
v -32.9322 -22.7207 -12
v -32.7929 -22.8635 -12
v -32.6467 -22.9991 -12
v -32.494 -23.1273 -12
v -32.335 -23.2478 -12
v -32.1702 -23.3601 -12
v -32 -23.4641 -12
v -31.8248 -23.5595 -12
v -31.6451 -23.646 -12
v -31.4614 -23.7235 -12
v -31.2739 -23.7917 -12
v -31.0834 -23.8505 -12
v -30.8901 -23.8997 -12
v -30.6946 -23.9392 -12
v -30.4974 -23.969 -12
v -30.2989 -23.9888 -12
v -30.0997 -23.9988 -12
v -29.9003 -23.9988 -12
v -29.7011 -23.9888 -12
v -29.5026 -23.969 -12
v -29.3054 -23.9392 -12
v -29.1099 -23.8997 -12
v -28.9166 -23.8505 -12
v -28.7261 -23.7917 -12
v -28.5386 -23.7235 -12
v -28.3549 -23.646 -12
v -28.1752 -23.5595 -12
v -28 -23.4641 -12
v -27.8298 -23.3601 -12
v -27.665 -23.2478 -12
v -27.506 -23.1273 -12
v -27.3533 -22.9991 -12
v -27.2071 -22.8635 -12
v -27.0678 -22.7207 -12
v -26.9358 -22.5712 -12
v -26.8115 -22.4152 -12
v -26.695 -22.2533 -12
v -26.5868 -22.0857 -12
v -26.4871 -21.913 -12
v -26.3961 -21.7355 -12
v -26.3141 -21.5537 -12
v -26.2412 -21.3681 -12
v -26.1777 -21.179 -12
v -26.1237 -20.987 -12
v -26.0793 -20.7926 -12
v -26.0447 -20.5962 -12
v -26.0199 -20.3983 -12
v -26.005 -20.1994 -12
v 34 -20 -12
v 33.995 -19.8006 -12
v 33.9801 -19.6017 -12
v 33.9553 -19.4038 -12
v 33.9207 -19.2074 -12
v 33.8763 -19.013 -12
v 33.8223 -18.821 -12
v 33.7588 -18.6319 -12
v 33.6859 -18.4463 -12
v 33.6039 -18.2645 -12
v 33.5129 -18.087 -12
v 33.4132 -17.9143 -12
v 33.305 -17.7467 -12
v 33.1885 -17.5848 -12
v 33.0642 -17.4288 -12
v 32.9322 -17.2793 -12
v 32.7929 -17.1365 -12
v 32.6467 -17.0009 -12
v 32.494 -16.8727 -12
v 32.335 -16.7522 -12
v 32.1702 -16.6399 -12
v 32 -16.5359 -12
v 31.8248 -16.4405 -12
v 31.6451 -16.354 -12
v 31.4614 -16.2765 -12
v 31.2739 -16.2083 -12
v 31.0834 -16.1495 -12
v 30.8901 -16.1003 -12
v 30.6946 -16.0608 -12
v 30.4974 -16.031 -12
v 30.2989 -16.0112 -12
v 30.0997 -16.0012 -12
v 29.9003 -16.0012 -12
v 29.7011 -16.0112 -12
v 29.5026 -16.031 -12
v 29.3054 -16.0608 -12
v 29.1099 -16.1003 -12
v 28.9166 -16.1495 -12
v 28.7261 -16.2083 -12
v 28.5386 -16.2765 -12
v 28.3549 -16.354 -12
v 28.1752 -16.4405 -12
v 28 -16.5359 -12
v 27.8298 -16.6399 -12
v 27.665 -16.7522 -12
v 27.506 -16.8727 -12
v 27.3533 -17.0009 -12
v 27.2071 -17.1365 -12
v 27.0678 -17.2793 -12
v 26.9358 -17.4288 -12
v 26.8115 -17.5848 -12
v 26.695 -17.7467 -12
v 26.5868 -17.9143 -12
v 26.4871 -18.087 -12
v 26.3961 -18.2645 -12
v 26.3141 -18.4463 -12
v 26.2412 -18.6319 -12
v 26.1777 -18.821 -12
v 26.1237 -19.013 -12
v 26.0793 -19.2074 -12
v 26.0447 -19.4038 -12
v 26.0199 -19.6017 -12
v 26.005 -19.8006 -12
v 26 -20 -12
v 26.005 -20.1994 -12
v 26.0199 -20.3983 -12
v 26.0447 -20.5962 -12
v 26.0793 -20.7926 -12
v 26.1237 -20.987 -12
v 26.1777 -21.179 -12
v 26.2412 -21.3681 -12
v 26.3141 -21.5537 -12
v 26.3961 -21.7355 -12
v 26.4871 -21.913 -12
v 26.5868 -22.0857 -12
v 26.695 -22.2533 -12
v 26.8115 -22.4152 -12
v 26.9358 -22.5712 -12
v 27.0678 -22.7207 -12
v 27.2071 -22.8635 -12
v 27.3533 -22.9991 -12
v 27.506 -23.1273 -12
v 27.665 -23.2478 -12
v 27.8298 -23.3601 -12
v 28 -23.4641 -12
v 28.1752 -23.5595 -12
v 28.3549 -23.646 -12
v 28.5386 -23.7235 -12
v 28.7261 -23.7917 -12
v 28.9166 -23.8505 -12
v 29.1099 -23.8997 -12
v 29.3054 -23.9392 -12
v 29.5026 -23.969 -12
v 29.7011 -23.9888 -12
v 29.9003 -23.9988 -12
v 30.0997 -23.9988 -12
v 30.2989 -23.9888 -12
v 30.4974 -23.969 -12
v 30.6946 -23.9392 -12
v 30.8901 -23.8997 -12
v 31.0834 -23.8505 -12
v 31.2739 -23.7917 -12
v 31.4614 -23.7235 -12
v 31.6451 -23.646 -12
v 31.8248 -23.5595 -12
v 32 -23.4641 -12
v 32.1702 -23.3601 -12
v 32.335 -23.2478 -12
v 32.494 -23.1273 -12
v 32.6467 -22.9991 -12
v 32.7929 -22.8635 -12
v 32.9322 -22.7207 -12
v 33.0642 -22.5712 -12
v 33.1885 -22.4152 -12
v 33.305 -22.2533 -12
v 33.4132 -22.0857 -12
v 33.5129 -21.913 -12
v 33.6039 -21.7355 -12
v 33.6859 -21.5537 -12
v 33.7588 -21.3681 -12
v 33.8223 -21.179 -12
v 33.8763 -20.987 -12
v 33.9207 -20.7926 -12
v 33.9553 -20.5962 -12
v 33.9801 -20.3983 -12
v 33.995 -20.1994 -12
v -26 20 -12
v -26.005 20.1994 -12
v -26.0199 20.3983 -12
v -26.0447 20.5962 -12
v -26.0793 20.7926 -12
v -26.1237 20.987 -12
v -26.1777 21.179 -12
v -26.2412 21.3681 -12
v -26.3141 21.5537 -12
v -26.3961 21.7355 -12
v -26.4871 21.913 -12
v -26.5868 22.0857 -12
v -26.695 22.2533 -12
v -26.8115 22.4152 -12
v -26.9358 22.5712 -12
v -27.0678 22.7207 -12
v -27.2071 22.8635 -12
v -27.3533 22.9991 -12
v -27.506 23.1273 -12
v -27.665 23.2478 -12
v -27.8298 23.3601 -12
v -28 23.4641 -12
v -28.1752 23.5595 -12
v -28.3549 23.646 -12
v -28.5386 23.7235 -12
v -28.7261 23.7917 -12
v -28.9166 23.8505 -12
v -29.1099 23.8997 -12
v -29.3054 23.9392 -12
v -29.5026 23.969 -12
v -29.7011 23.9888 -12
v -29.9003 23.9988 -12
v -30.0997 23.9988 -12
v -30.2989 23.9888 -12
v -30.4974 23.969 -12
v -30.6946 23.9392 -12
v -30.8901 23.8997 -12
v -31.0834 23.8505 -12
v -31.2739 23.7917 -12
v -31.4614 23.7235 -12
v -31.6451 23.646 -12
v -31.8248 23.5595 -12
v -32 23.4641 -12
v -32.1702 23.3601 -12
v -32.335 23.2478 -12
v -32.494 23.1273 -12
v -32.6467 22.9991 -12
v -32.7929 22.8635 -12
v -32.9322 22.7207 -12
v -33.0642 22.5712 -12
v -33.1885 22.4152 -12
v -33.305 22.2533 -12
v -33.4132 22.0857 -12
v -33.5129 21.913 -12
v -33.6039 21.7355 -12
v -33.6859 21.5537 -12
v -33.7588 21.3681 -12
v -33.8223 21.179 -12
v -33.8763 20.987 -12
v -33.9207 20.7926 -12
v -33.9553 20.5962 -12
v -33.9801 20.3983 -12
v -33.995 20.1994 -12
v -34 20 -12
v -33.995 19.8006 -12
v -33.9801 19.6017 -12
v -33.9553 19.4038 -12
v -33.9207 19.2074 -12
v -33.8763 19.013 -12
v -33.8223 18.821 -12
v -33.7588 18.6319 -12
v -33.6859 18.4463 -12
v -33.6039 18.2645 -12
v -33.5129 18.087 -12
v -33.4132 17.9143 -12
v -33.305 17.7467 -12
v -33.1885 17.5848 -12
v -33.0642 17.4288 -12
v -32.9322 17.2793 -12
v -32.7929 17.1365 -12
v -32.6467 17.0009 -12
v -32.494 16.8727 -12
v -32.335 16.7522 -12
v -32.1702 16.6399 -12
v -32 16.5359 -12
v -31.8248 16.4405 -12
v -31.6451 16.354 -12
v -31.4614 16.2765 -12
v -31.2739 16.2083 -12
v -31.0834 16.1495 -12
v -30.8901 16.1003 -12
v -30.6946 16.0608 -12
v -30.4974 16.031 -12
v -30.2989 16.0112 -12
v -30.0997 16.0012 -12
v -29.9003 16.0012 -12
v -29.7011 16.0112 -12
v -29.5026 16.031 -12
v -29.3054 16.0608 -12
v -29.1099 16.1003 -12
v -28.9166 16.1495 -12
v -28.7261 16.2083 -12
v -28.5386 16.2765 -12
v -28.3549 16.354 -12
v -28.1752 16.4405 -12
v -28 16.5359 -12
v -27.8298 16.6399 -12
v -27.665 16.7522 -12
v -27.506 16.8727 -12
v -27.3533 17.0009 -12
v -27.2071 17.1365 -12
v -27.0678 17.2793 -12
v -26.9358 17.4288 -12
v -26.8115 17.5848 -12
v -26.695 17.7467 -12
v -26.5868 17.9143 -12
v -26.4871 18.087 -12
v -26.3961 18.2645 -12
v -26.3141 18.4463 -12
v -26.2412 18.6319 -12
v -26.1777 18.821 -12
v -26.1237 19.013 -12
v -26.0793 19.2074 -12
v -26.0447 19.4038 -12
v -26.0199 19.6017 -12
v -26.005 19.8006 -12
v 34 20 -12
v 33.995 20.1994 -12
v 33.9801 20.3983 -12
v 33.9553 20.5962 -12
v 33.9207 20.7926 -12
v 33.8763 20.987 -12
v 33.8223 21.179 -12
v 33.7588 21.3681 -12
v 33.6859 21.5537 -12
v 33.6039 21.7355 -12
v 33.5129 21.913 -12
v 33.4132 22.0857 -12
v 33.305 22.2533 -12
v 33.1885 22.4152 -12
v 33.0642 22.5712 -12
v 32.9322 22.7207 -12
v 32.7929 22.8635 -12
v 32.6467 22.9991 -12
v 32.494 23.1273 -12
v 32.335 23.2478 -12
v 32.1702 23.3601 -12
v 32 23.4641 -12
v 31.8248 23.5595 -12
v 31.6451 23.646 -12
v 31.4614 23.7235 -12
v 31.2739 23.7917 -12
v 31.0834 23.8505 -12
v 30.8901 23.8997 -12
v 30.6946 23.9392 -12
v 30.4974 23.969 -12
v 30.2989 23.9888 -12
v 30.0997 23.9988 -12
v 29.9003 23.9988 -12
v 29.7011 23.9888 -12
v 29.5026 23.969 -12
v 29.3054 23.9392 -12
v 29.1099 23.8997 -12
v 28.9166 23.8505 -12
v 28.7261 23.7917 -12
v 28.5386 23.7235 -12
v 28.3549 23.646 -12
v 28.1752 23.5595 -12
v 28 23.4641 -12
v 27.8298 23.3601 -12
v 27.665 23.2478 -12
v 27.506 23.1273 -12
v 27.3533 22.9991 -12
v 27.2071 22.8635 -12
v 27.0678 22.7207 -12
v 26.9358 22.5712 -12
v 26.8115 22.4152 -12
v 26.695 22.2533 -12
v 26.5868 22.0857 -12
v 26.4871 21.913 -12
v 26.3961 21.7355 -12
v 26.3141 21.5537 -12
v 26.2412 21.3681 -12
v 26.1777 21.179 -12
v 26.1237 20.987 -12
v 26.0793 20.7926 -12
v 26.0447 20.5962 -12
v 26.0199 20.3983 -12
v 26.005 20.1994 -12
v 26 20 -12
v 26.005 19.8006 -12
v 26.0199 19.6017 -12
v 26.0447 19.4038 -12
v 26.0793 19.2074 -12
v 26.1237 19.013 -12
v 26.1777 18.821 -12
v 26.2412 18.6319 -12
v 26.3141 18.4463 -12
v 26.3961 18.2645 -12
v 26.4871 18.087 -12
v 26.5868 17.9143 -12
v 26.695 17.7467 -12
v 26.8115 17.5848 -12
v 26.9358 17.4288 -12
v 27.0678 17.2793 -12
v 27.2071 17.1365 -12
v 27.3533 17.0009 -12
v 27.506 16.8727 -12
v 27.665 16.7522 -12
v 27.8298 16.6399 -12
v 28 16.5359 -12
v 28.1752 16.4405 -12
v 28.3549 16.354 -12
v 28.5386 16.2765 -12
v 28.7261 16.2083 -12
v 28.9166 16.1495 -12
v 29.1099 16.1003 -12
v 29.3054 16.0608 -12
v 29.5026 16.031 -12
v 29.7011 16.0112 -12
v 29.9003 16.0012 -12
v 30.0997 16.0012 -12
v 30.2989 16.0112 -12
v 30.4974 16.031 -12
v 30.6946 16.0608 -12
v 30.8901 16.1003 -12
v 31.0834 16.1495 -12
v 31.2739 16.2083 -12
v 31.4614 16.2765 -12
v 31.6451 16.354 -12
v 31.8248 16.4405 -12
v 32 16.5359 -12
v 32.1702 16.6399 -12
v 32.335 16.7522 -12
v 32.494 16.8727 -12
v 32.6467 17.0009 -12
v 32.7929 17.1365 -12
v 32.9322 17.2793 -12
v 33.0642 17.4288 -12
v 33.1885 17.5848 -12
v 33.305 17.7467 -12
v 33.4132 17.9143 -12
v 33.5129 18.087 -12
v 33.6039 18.2645 -12
v 33.6859 18.4463 -12
v 33.7588 18.6319 -12
v 33.8223 18.821 -12
v 33.8763 19.013 -12
v 33.9207 19.2074 -12
v 33.9553 19.4038 -12
v 33.9801 19.6017 -12
v 33.995 19.8006 -12
v -26 -20 6
v -26.005 -19.8006 6
v -26.0199 -19.6017 6
v -26.0447 -19.4038 6
v -26.0793 -19.2074 6
v -26.1237 -19.013 6
v -26.1777 -18.821 6
v -26.2412 -18.6319 6
v -26.3141 -18.4463 6
v -26.3961 -18.2645 6
v -26.4871 -18.087 6
v -26.5868 -17.9143 6
v -26.695 -17.7467 6
v -26.8115 -17.5848 6
v -26.9358 -17.4288 6
v -27.0678 -17.2793 6
v -27.2071 -17.1365 6
v -27.3533 -17.0009 6
v -27.506 -16.8727 6
v -27.665 -16.7522 6
v -27.8298 -16.6399 6
v -28 -16.5359 6
v -28.1752 -16.4405 6
v -28.3549 -16.354 6
v -28.5386 -16.2765 6
v -28.7261 -16.2083 6
v -28.9166 -16.1495 6
v -29.1099 -16.1003 6
v -29.3054 -16.0608 6
v -29.5026 -16.031 6
v -29.7011 -16.0112 6
v -29.9003 -16.0012 6
v -30.0997 -16.0012 6
v -30.2989 -16.0112 6
v -30.4974 -16.031 6
v -30.6946 -16.0608 6
v -30.8901 -16.1003 6
v -31.0834 -16.1495 6
v -31.2739 -16.2083 6
v -31.4614 -16.2765 6
v -31.6451 -16.354 6
v -31.8248 -16.4405 6
v -32 -16.5359 6
v -32.1702 -16.6399 6
v -32.335 -16.7522 6
v -32.494 -16.8727 6
v -32.6467 -17.0009 6
v -32.7929 -17.1365 6
v -32.9322 -17.2793 6
v -33.0642 -17.4288 6
v -33.1885 -17.5848 6
v -33.305 -17.7467 6
v -33.4132 -17.9143 6
v -33.5129 -18.087 6
v -33.6039 -18.2645 6
v -33.6859 -18.4463 6
v -33.7588 -18.6319 6
v -33.8223 -18.821 6
v -33.8763 -19.013 6
v -33.9207 -19.2074 6
v -33.9553 -19.4038 6
v -33.9801 -19.6017 6
v -33.995 -19.8006 6
v -34 -20 6
v -33.995 -20.1994 6
v -33.9801 -20.3983 6
v -33.9553 -20.5962 6
v -33.9207 -20.7926 6
v -33.8763 -20.987 6
v -33.8223 -21.179 6
v -33.7588 -21.3681 6
v -33.6859 -21.5537 6
v -33.6039 -21.7355 6
v -33.5129 -21.913 6
v -33.4132 -22.0857 6
v -33.305 -22.2533 6
v -33.1885 -22.4152 6
v -33.0642 -22.5712 6
v -32.9322 -22.7207 6
v -32.7929 -22.8635 6
v -32.6467 -22.9991 6
v -32.494 -23.1273 6
v -32.335 -23.2478 6
v -32.1702 -23.3601 6
v -32 -23.4641 6
v -31.8248 -23.5595 6
v -31.6451 -23.646 6
v -31.4614 -23.7235 6
v -31.2739 -23.7917 6
v -31.0834 -23.8505 6
v -30.8901 -23.8997 6
v -30.6946 -23.9392 6
v -30.4974 -23.969 6
v -30.2989 -23.9888 6
v -30.0997 -23.9988 6
v -29.9003 -23.9988 6
v -29.7011 -23.9888 6
v -29.5026 -23.969 6
v -29.3054 -23.9392 6
v -29.1099 -23.8997 6
v -28.9166 -23.8505 6
v -28.7261 -23.7917 6
v -28.5386 -23.7235 6
v -28.3549 -23.646 6
v -28.1752 -23.5595 6
v -28 -23.4641 6
v -27.8298 -23.3601 6
v -27.665 -23.2478 6
v -27.506 -23.1273 6
v -27.3533 -22.9991 6
v -27.2071 -22.8635 6
v -27.0678 -22.7207 6
v -26.9358 -22.5712 6
v -26.8115 -22.4152 6
v -26.695 -22.2533 6
v -26.5868 -22.0857 6
v -26.4871 -21.913 6
v -26.3961 -21.7355 6
v -26.3141 -21.5537 6
v -26.2412 -21.3681 6
v -26.1777 -21.179 6
v -26.1237 -20.987 6
v -26.0793 -20.7926 6
v -26.0447 -20.5962 6
v -26.0199 -20.3983 6
v -26.005 -20.1994 6
v -26 -20 6
v -26 -20 -12
v -26.005 -19.8006 -12
v -26.0199 -19.6017 -12
v -26.0447 -19.4038 -12
v -26.0793 -19.2074 -12
v -26.1237 -19.013 -12
v -26.1777 -18.821 -12
v -26.2412 -18.6319 -12
v -26.3141 -18.4463 -12
v -26.3961 -18.2645 -12
v -26.4871 -18.087 -12
v -26.5868 -17.9143 -12
v -26.695 -17.7467 -12
v -26.8115 -17.5848 -12
v -26.9358 -17.4288 -12
v -27.0678 -17.2793 -12
v -27.2071 -17.1365 -12
v -27.3533 -17.0009 -12
v -27.506 -16.8727 -12
v -27.665 -16.7522 -12
v -27.8298 -16.6399 -12
v -28 -16.5359 -12
v -28.1752 -16.4405 -12
v -28.3549 -16.354 -12
v -28.5386 -16.2765 -12
v -28.7261 -16.2083 -12
v -28.9166 -16.1495 -12
v -29.1099 -16.1003 -12
v -29.3054 -16.0608 -12
v -29.5026 -16.031 -12
v -29.7011 -16.0112 -12
v -29.9003 -16.0012 -12
v -30.0997 -16.0012 -12
v -30.2989 -16.0112 -12
v -30.4974 -16.031 -12
v -30.6946 -16.0608 -12
v -30.8901 -16.1003 -12
v -31.0834 -16.1495 -12
v -31.2739 -16.2083 -12
v -31.4614 -16.2765 -12
v -31.6451 -16.354 -12
v -31.8248 -16.4405 -12
v -32 -16.5359 -12
v -32.1702 -16.6399 -12
v -32.335 -16.7522 -12
v -32.494 -16.8727 -12
v -32.6467 -17.0009 -12
v -32.7929 -17.1365 -12
v -32.9322 -17.2793 -12
v -33.0642 -17.4288 -12
v -33.1885 -17.5848 -12
v -33.305 -17.7467 -12
v -33.4132 -17.9143 -12
v -33.5129 -18.087 -12
v -33.6039 -18.2645 -12
v -33.6859 -18.4463 -12
v -33.7588 -18.6319 -12
v -33.8223 -18.821 -12
v -33.8763 -19.013 -12
v -33.9207 -19.2074 -12
v -33.9553 -19.4038 -12
v -33.9801 -19.6017 -12
v -33.995 -19.8006 -12
v -34 -20 -12
v -33.995 -20.1994 -12
v -33.9801 -20.3983 -12
v -33.9553 -20.5962 -12
v -33.9207 -20.7926 -12
v -33.8763 -20.987 -12
v -33.8223 -21.179 -12
v -33.7588 -21.3681 -12
v -33.6859 -21.5537 -12
v -33.6039 -21.7355 -12
v -33.5129 -21.913 -12
v -33.4132 -22.0857 -12
v -33.305 -22.2533 -12
v -33.1885 -22.4152 -12
v -33.0642 -22.5712 -12
v -32.9322 -22.7207 -12
v -32.7929 -22.8635 -12
v -32.6467 -22.9991 -12
v -32.494 -23.1273 -12
v -32.335 -23.2478 -12
v -32.1702 -23.3601 -12
v -32 -23.4641 -12
v -31.8248 -23.5595 -12
v -31.6451 -23.646 -12
v -31.4614 -23.7235 -12
v -31.2739 -23.7917 -12
v -31.0834 -23.8505 -12
v -30.8901 -23.8997 -12
v -30.6946 -23.9392 -12
v -30.4974 -23.969 -12
v -30.2989 -23.9888 -12
v -30.0997 -23.9988 -12
v -29.9003 -23.9988 -12
v -29.7011 -23.9888 -12
v -29.5026 -23.969 -12
v -29.3054 -23.9392 -12
v -29.1099 -23.8997 -12
v -28.9166 -23.8505 -12
v -28.7261 -23.7917 -12
v -28.5386 -23.7235 -12
v -28.3549 -23.646 -12
v -28.1752 -23.5595 -12
v -28 -23.4641 -12
v -27.8298 -23.3601 -12
v -27.665 -23.2478 -12
v -27.506 -23.1273 -12
v -27.3533 -22.9991 -12
v -27.2071 -22.8635 -12
v -27.0678 -22.7207 -12
v -26.9358 -22.5712 -12
v -26.8115 -22.4152 -12
v -26.695 -22.2533 -12
v -26.5868 -22.0857 -12
v -26.4871 -21.913 -12
v -26.3961 -21.7355 -12
v -26.3141 -21.5537 -12
v -26.2412 -21.3681 -12
v -26.1777 -21.179 -12
v -26.1237 -20.987 -12
v -26.0793 -20.7926 -12
v -26.0447 -20.5962 -12
v -26.0199 -20.3983 -12
v -26.005 -20.1994 -12
v -26 -20 -12
v 34 -20 6
v 33.995 -19.8006 6
v 33.9801 -19.6017 6
v 33.9553 -19.4038 6
v 33.9207 -19.2074 6
v 33.8763 -19.013 6
v 33.8223 -18.821 6
v 33.7588 -18.6319 6
v 33.6859 -18.4463 6
v 33.6039 -18.2645 6
v 33.5129 -18.087 6
v 33.4132 -17.9143 6
v 33.305 -17.7467 6
v 33.1885 -17.5848 6
v 33.0642 -17.4288 6
v 32.9322 -17.2793 6
v 32.7929 -17.1365 6
v 32.6467 -17.0009 6
v 32.494 -16.8727 6
v 32.335 -16.7522 6
v 32.1702 -16.6399 6
v 32 -16.5359 6
v 31.8248 -16.4405 6
v 31.6451 -16.354 6
v 31.4614 -16.2765 6
v 31.2739 -16.2083 6
v 31.0834 -16.1495 6
v 30.8901 -16.1003 6
v 30.6946 -16.0608 6
v 30.4974 -16.031 6
v 30.2989 -16.0112 6
v 30.0997 -16.0012 6
v 29.9003 -16.0012 6
v 29.7011 -16.0112 6
v 29.5026 -16.031 6
v 29.3054 -16.0608 6
v 29.1099 -16.1003 6
v 28.9166 -16.1495 6
v 28.7261 -16.2083 6
v 28.5386 -16.2765 6
v 28.3549 -16.354 6
v 28.1752 -16.4405 6
v 28 -16.5359 6
v 27.8298 -16.6399 6
v 27.665 -16.7522 6
v 27.506 -16.8727 6
v 27.3533 -17.0009 6
v 27.2071 -17.1365 6
v 27.0678 -17.2793 6
v 26.9358 -17.4288 6
v 26.8115 -17.5848 6
v 26.695 -17.7467 6
v 26.5868 -17.9143 6
v 26.4871 -18.087 6
v 26.3961 -18.2645 6
v 26.3141 -18.4463 6
v 26.2412 -18.6319 6
v 26.1777 -18.821 6
v 26.1237 -19.013 6
v 26.0793 -19.2074 6
v 26.0447 -19.4038 6
v 26.0199 -19.6017 6
v 26.005 -19.8006 6
v 26 -20 6
v 26.005 -20.1994 6
v 26.0199 -20.3983 6
v 26.0447 -20.5962 6
v 26.0793 -20.7926 6
v 26.1237 -20.987 6
v 26.1777 -21.179 6
v 26.2412 -21.3681 6
v 26.3141 -21.5537 6
v 26.3961 -21.7355 6
v 26.4871 -21.913 6
v 26.5868 -22.0857 6
v 26.695 -22.2533 6
v 26.8115 -22.4152 6
v 26.9358 -22.5712 6
v 27.0678 -22.7207 6
v 27.2071 -22.8635 6
v 27.3533 -22.9991 6
v 27.506 -23.1273 6
v 27.665 -23.2478 6
v 27.8298 -23.3601 6
v 28 -23.4641 6
v 28.1752 -23.5595 6
v 28.3549 -23.646 6
v 28.5386 -23.7235 6
v 28.7261 -23.7917 6
v 28.9166 -23.8505 6
v 29.1099 -23.8997 6
v 29.3054 -23.9392 6
v 29.5026 -23.969 6
v 29.7011 -23.9888 6
v 29.9003 -23.9988 6
v 30.0997 -23.9988 6
v 30.2989 -23.9888 6
v 30.4974 -23.969 6
v 30.6946 -23.9392 6
v 30.8901 -23.8997 6
v 31.0834 -23.8505 6
v 31.2739 -23.7917 6
v 31.4614 -23.7235 6
v 31.6451 -23.646 6
v 31.8248 -23.5595 6
v 32 -23.4641 6
v 32.1702 -23.3601 6
v 32.335 -23.2478 6
v 32.494 -23.1273 6
v 32.6467 -22.9991 6
v 32.7929 -22.8635 6
v 32.9322 -22.7207 6
v 33.0642 -22.5712 6
v 33.1885 -22.4152 6
v 33.305 -22.2533 6
v 33.4132 -22.0857 6
v 33.5129 -21.913 6
v 33.6039 -21.7355 6
v 33.6859 -21.5537 6
v 33.7588 -21.3681 6
v 33.8223 -21.179 6
v 33.8763 -20.987 6
v 33.9207 -20.7926 6
v 33.9553 -20.5962 6
v 33.9801 -20.3983 6
v 33.995 -20.1994 6
v 34 -20 6
v 34 -20 -12
v 33.995 -19.8006 -12
v 33.9801 -19.6017 -12
v 33.9553 -19.4038 -12
v 33.9207 -19.2074 -12
v 33.8763 -19.013 -12
v 33.8223 -18.821 -12
v 33.7588 -18.6319 -12
v 33.6859 -18.4463 -12
v 33.6039 -18.2645 -12
v 33.5129 -18.087 -12
v 33.4132 -17.9143 -12
v 33.305 -17.7467 -12
v 33.1885 -17.5848 -12
v 33.0642 -17.4288 -12
v 32.9322 -17.2793 -12
v 32.7929 -17.1365 -12
v 32.6467 -17.0009 -12
v 32.494 -16.8727 -12
v 32.335 -16.7522 -12
v 32.1702 -16.6399 -12
v 32 -16.5359 -12
v 31.8248 -16.4405 -12
v 31.6451 -16.354 -12
v 31.4614 -16.2765 -12
v 31.2739 -16.2083 -12
v 31.0834 -16.1495 -12
v 30.8901 -16.1003 -12
v 30.6946 -16.0608 -12
v 30.4974 -16.031 -12
v 30.2989 -16.0112 -12
v 30.0997 -16.0012 -12
v 29.9003 -16.0012 -12
v 29.7011 -16.0112 -12
v 29.5026 -16.031 -12
v 29.3054 -16.0608 -12
v 29.1099 -16.1003 -12
v 28.9166 -16.1495 -12
v 28.7261 -16.2083 -12
v 28.5386 -16.2765 -12
v 28.3549 -16.354 -12
v 28.1752 -16.4405 -12
v 28 -16.5359 -12
v 27.8298 -16.6399 -12
v 27.665 -16.7522 -12
v 27.506 -16.8727 -12
v 27.3533 -17.0009 -12
v 27.2071 -17.1365 -12
v 27.0678 -17.2793 -12
v 26.9358 -17.4288 -12
v 26.8115 -17.5848 -12
v 26.695 -17.7467 -12
v 26.5868 -17.9143 -12
v 26.4871 -18.087 -12
v 26.3961 -18.2645 -12
v 26.3141 -18.4463 -12
v 26.2412 -18.6319 -12
v 26.1777 -18.821 -12
v 26.1237 -19.013 -12
v 26.0793 -19.2074 -12
v 26.0447 -19.4038 -12
v 26.0199 -19.6017 -12
v 26.005 -19.8006 -12
v 26 -20 -12
v 26.005 -20.1994 -12
v 26.0199 -20.3983 -12
v 26.0447 -20.5962 -12
v 26.0793 -20.7926 -12
v 26.1237 -20.987 -12
v 26.1777 -21.179 -12
v 26.2412 -21.3681 -12
v 26.3141 -21.5537 -12
v 26.3961 -21.7355 -12
v 26.4871 -21.913 -12
v 26.5868 -22.0857 -12
v 26.695 -22.2533 -12
v 26.8115 -22.4152 -12
v 26.9358 -22.5712 -12
v 27.0678 -22.7207 -12
v 27.2071 -22.8635 -12
v 27.3533 -22.9991 -12
v 27.506 -23.1273 -12
v 27.665 -23.2478 -12
v 27.8298 -23.3601 -12
v 28 -23.4641 -12
v 28.1752 -23.5595 -12
v 28.3549 -23.646 -12
v 28.5386 -23.7235 -12
v 28.7261 -23.7917 -12
v 28.9166 -23.8505 -12
v 29.1099 -23.8997 -12
v 29.3054 -23.9392 -12
v 29.5026 -23.969 -12
v 29.7011 -23.9888 -12
v 29.9003 -23.9988 -12
v 30.0997 -23.9988 -12
v 30.2989 -23.9888 -12
v 30.4974 -23.969 -12
v 30.6946 -23.9392 -12
v 30.8901 -23.8997 -12
v 31.0834 -23.8505 -12
v 31.2739 -23.7917 -12
v 31.4614 -23.7235 -12
v 31.6451 -23.646 -12
v 31.8248 -23.5595 -12
v 32 -23.4641 -12
v 32.1702 -23.3601 -12
v 32.335 -23.2478 -12
v 32.494 -23.1273 -12
v 32.6467 -22.9991 -12
v 32.7929 -22.8635 -12
v 32.9322 -22.7207 -12
v 33.0642 -22.5712 -12
v 33.1885 -22.4152 -12
v 33.305 -22.2533 -12
v 33.4132 -22.0857 -12
v 33.5129 -21.913 -12
v 33.6039 -21.7355 -12
v 33.6859 -21.5537 -12
v 33.7588 -21.3681 -12
v 33.8223 -21.179 -12
v 33.8763 -20.987 -12
v 33.9207 -20.7926 -12
v 33.9553 -20.5962 -12
v 33.9801 -20.3983 -12
v 33.995 -20.1994 -12
v 34 -20 -12
v -26 20 6
v -26.005 20.1994 6
v -26.0199 20.3983 6
v -26.0447 20.5962 6
v -26.0793 20.7926 6
v -26.1237 20.987 6
v -26.1777 21.179 6
v -26.2412 21.3681 6
v -26.3141 21.5537 6
v -26.3961 21.7355 6
v -26.4871 21.913 6
v -26.5868 22.0857 6
v -26.695 22.2533 6
v -26.8115 22.4152 6
v -26.9358 22.5712 6
v -27.0678 22.7207 6
v -27.2071 22.8635 6
v -27.3533 22.9991 6
v -27.506 23.1273 6
v -27.665 23.2478 6
v -27.8298 23.3601 6
v -28 23.4641 6
v -28.1752 23.5595 6
v -28.3549 23.646 6
v -28.5386 23.7235 6
v -28.7261 23.7917 6
v -28.9166 23.8505 6
v -29.1099 23.8997 6
v -29.3054 23.9392 6
v -29.5026 23.969 6
v -29.7011 23.9888 6
v -29.9003 23.9988 6
v -30.0997 23.9988 6
v -30.2989 23.9888 6
v -30.4974 23.969 6
v -30.6946 23.9392 6
v -30.8901 23.8997 6
v -31.0834 23.8505 6
v -31.2739 23.7917 6
v -31.4614 23.7235 6
v -31.6451 23.646 6
v -31.8248 23.5595 6
v -32 23.4641 6
v -32.1702 23.3601 6
v -32.335 23.2478 6
v -32.494 23.1273 6
v -32.6467 22.9991 6
v -32.7929 22.8635 6
v -32.9322 22.7207 6
v -33.0642 22.5712 6
v -33.1885 22.4152 6
v -33.305 22.2533 6
v -33.4132 22.0857 6
v -33.5129 21.913 6
v -33.6039 21.7355 6
v -33.6859 21.5537 6
v -33.7588 21.3681 6
v -33.8223 21.179 6
v -33.8763 20.987 6
v -33.9207 20.7926 6
v -33.9553 20.5962 6
v -33.9801 20.3983 6
v -33.995 20.1994 6
v -34 20 6
v -33.995 19.8006 6
v -33.9801 19.6017 6
v -33.9553 19.4038 6
v -33.9207 19.2074 6
v -33.8763 19.013 6
v -33.8223 18.821 6
v -33.7588 18.6319 6
v -33.6859 18.4463 6
v -33.6039 18.2645 6
v -33.5129 18.087 6
v -33.4132 17.9143 6
v -33.305 17.7467 6
v -33.1885 17.5848 6
v -33.0642 17.4288 6
v -32.9322 17.2793 6
v -32.7929 17.1365 6
v -32.6467 17.0009 6
v -32.494 16.8727 6
v -32.335 16.7522 6
v -32.1702 16.6399 6
v -32 16.5359 6
v -31.8248 16.4405 6
v -31.6451 16.354 6
v -31.4614 16.2765 6
v -31.2739 16.2083 6
v -31.0834 16.1495 6
v -30.8901 16.1003 6
v -30.6946 16.0608 6
v -30.4974 16.031 6
v -30.2989 16.0112 6
v -30.0997 16.0012 6
v -29.9003 16.0012 6
v -29.7011 16.0112 6
v -29.5026 16.031 6
v -29.3054 16.0608 6
v -29.1099 16.1003 6
v -28.9166 16.1495 6
v -28.7261 16.2083 6
v -28.5386 16.2765 6
v -28.3549 16.354 6
v -28.1752 16.4405 6
v -28 16.5359 6
v -27.8298 16.6399 6
v -27.665 16.7522 6
v -27.506 16.8727 6
v -27.3533 17.0009 6
v -27.2071 17.1365 6
v -27.0678 17.2793 6
v -26.9358 17.4288 6
v -26.8115 17.5848 6
v -26.695 17.7467 6
v -26.5868 17.9143 6
v -26.4871 18.087 6
v -26.3961 18.2645 6
v -26.3141 18.4463 6
v -26.2412 18.6319 6
v -26.1777 18.821 6
v -26.1237 19.013 6
v -26.0793 19.2074 6
v -26.0447 19.4038 6
v -26.0199 19.6017 6
v -26.005 19.8006 6
v -26 20 6
v -26 20 -12
v -26.005 20.1994 -12
v -26.0199 20.3983 -12
v -26.0447 20.5962 -12
v -26.0793 20.7926 -12
v -26.1237 20.987 -12
v -26.1777 21.179 -12
v -26.2412 21.3681 -12
v -26.3141 21.5537 -12
v -26.3961 21.7355 -12
v -26.4871 21.913 -12
v -26.5868 22.0857 -12
v -26.695 22.2533 -12
v -26.8115 22.4152 -12
v -26.9358 22.5712 -12
v -27.0678 22.7207 -12
v -27.2071 22.8635 -12
v -27.3533 22.9991 -12
v -27.506 23.1273 -12
v -27.665 23.2478 -12
v -27.8298 23.3601 -12
v -28 23.4641 -12
v -28.1752 23.5595 -12
v -28.3549 23.646 -12
v -28.5386 23.7235 -12
v -28.7261 23.7917 -12
v -28.9166 23.8505 -12
v -29.1099 23.8997 -12
v -29.3054 23.9392 -12
v -29.5026 23.969 -12
v -29.7011 23.9888 -12
v -29.9003 23.9988 -12
v -30.0997 23.9988 -12
v -30.2989 23.9888 -12
v -30.4974 23.969 -12
v -30.6946 23.9392 -12
v -30.8901 23.8997 -12
v -31.0834 23.8505 -12
v -31.2739 23.7917 -12
v -31.4614 23.7235 -12
v -31.6451 23.646 -12
v -31.8248 23.5595 -12
v -32 23.4641 -12
v -32.1702 23.3601 -12
v -32.335 23.2478 -12
v -32.494 23.1273 -12
v -32.6467 22.9991 -12
v -32.7929 22.8635 -12
v -32.9322 22.7207 -12
v -33.0642 22.5712 -12
v -33.1885 22.4152 -12
v -33.305 22.2533 -12
v -33.4132 22.0857 -12
v -33.5129 21.913 -12
v -33.6039 21.7355 -12
v -33.6859 21.5537 -12
v -33.7588 21.3681 -12
v -33.8223 21.179 -12
v -33.8763 20.987 -12
v -33.9207 20.7926 -12
v -33.9553 20.5962 -12
v -33.9801 20.3983 -12
v -33.995 20.1994 -12
v -34 20 -12
v -33.995 19.8006 -12
v -33.9801 19.6017 -12
v -33.9553 19.4038 -12
v -33.9207 19.2074 -12
v -33.8763 19.013 -12
v -33.8223 18.821 -12
v -33.7588 18.6319 -12
v -33.6859 18.4463 -12
v -33.6039 18.2645 -12
v -33.5129 18.087 -12
v -33.4132 17.9143 -12
v -33.305 17.7467 -12
v -33.1885 17.5848 -12
v -33.0642 17.4288 -12
v -32.9322 17.2793 -12
v -32.7929 17.1365 -12
v -32.6467 17.0009 -12
v -32.494 16.8727 -12
v -32.335 16.7522 -12
v -32.1702 16.6399 -12
v -32 16.5359 -12
v -31.8248 16.4405 -12
v -31.6451 16.354 -12
v -31.4614 16.2765 -12
v -31.2739 16.2083 -12
v -31.0834 16.1495 -12
v -30.8901 16.1003 -12
v -30.6946 16.0608 -12
v -30.4974 16.031 -12
v -30.2989 16.0112 -12
v -30.0997 16.0012 -12
v -29.9003 16.0012 -12
v -29.7011 16.0112 -12
v -29.5026 16.031 -12
v -29.3054 16.0608 -12
v -29.1099 16.1003 -12
v -28.9166 16.1495 -12
v -28.7261 16.2083 -12
v -28.5386 16.2765 -12
v -28.3549 16.354 -12
v -28.1752 16.4405 -12
v -28 16.5359 -12
v -27.8298 16.6399 -12
v -27.665 16.7522 -12
v -27.506 16.8727 -12
v -27.3533 17.0009 -12
v -27.2071 17.1365 -12
v -27.0678 17.2793 -12
v -26.9358 17.4288 -12
v -26.8115 17.5848 -12
v -26.695 17.7467 -12
v -26.5868 17.9143 -12
v -26.4871 18.087 -12
v -26.3961 18.2645 -12
v -26.3141 18.4463 -12
v -26.2412 18.6319 -12
v -26.1777 18.821 -12
v -26.1237 19.013 -12
v -26.0793 19.2074 -12
v -26.0447 19.4038 -12
v -26.0199 19.6017 -12
v -26.005 19.8006 -12
v -26 20 -12
v 34 20 6
v 33.995 20.1994 6
v 33.9801 20.3983 6
v 33.9553 20.5962 6
v 33.9207 20.7926 6
v 33.8763 20.987 6
v 33.8223 21.179 6
v 33.7588 21.3681 6
v 33.6859 21.5537 6
v 33.6039 21.7355 6
v 33.5129 21.913 6
v 33.4132 22.0857 6
v 33.305 22.2533 6
v 33.1885 22.4152 6
v 33.0642 22.5712 6
v 32.9322 22.7207 6
v 32.7929 22.8635 6
v 32.6467 22.9991 6
v 32.494 23.1273 6
v 32.335 23.2478 6
v 32.1702 23.3601 6
v 32 23.4641 6
v 31.8248 23.5595 6
v 31.6451 23.646 6
v 31.4614 23.7235 6
v 31.2739 23.7917 6
v 31.0834 23.8505 6
v 30.8901 23.8997 6
v 30.6946 23.9392 6
v 30.4974 23.969 6
v 30.2989 23.9888 6
v 30.0997 23.9988 6
v 29.9003 23.9988 6
v 29.7011 23.9888 6
v 29.5026 23.969 6
v 29.3054 23.9392 6
v 29.1099 23.8997 6
v 28.9166 23.8505 6
v 28.7261 23.7917 6
v 28.5386 23.7235 6
v 28.3549 23.646 6
v 28.1752 23.5595 6
v 28 23.4641 6
v 27.8298 23.3601 6
v 27.665 23.2478 6
v 27.506 23.1273 6
v 27.3533 22.9991 6
v 27.2071 22.8635 6
v 27.0678 22.7207 6
v 26.9358 22.5712 6
v 26.8115 22.4152 6
v 26.695 22.2533 6
v 26.5868 22.0857 6
v 26.4871 21.913 6
v 26.3961 21.7355 6
v 26.3141 21.5537 6
v 26.2412 21.3681 6
v 26.1777 21.179 6
v 26.1237 20.987 6
v 26.0793 20.7926 6
v 26.0447 20.5962 6
v 26.0199 20.3983 6
v 26.005 20.1994 6
v 26 20 6
v 26.005 19.8006 6
v 26.0199 19.6017 6
v 26.0447 19.4038 6
v 26.0793 19.2074 6
v 26.1237 19.013 6
v 26.1777 18.821 6
v 26.2412 18.6319 6
v 26.3141 18.4463 6
v 26.3961 18.2645 6
v 26.4871 18.087 6
v 26.5868 17.9143 6
v 26.695 17.7467 6
v 26.8115 17.5848 6
v 26.9358 17.4288 6
v 27.0678 17.2793 6
v 27.2071 17.1365 6
v 27.3533 17.0009 6
v 27.506 16.8727 6
v 27.665 16.7522 6
v 27.8298 16.6399 6
v 28 16.5359 6
v 28.1752 16.4405 6
v 28.3549 16.354 6
v 28.5386 16.2765 6
v 28.7261 16.2083 6
v 28.9166 16.1495 6
v 29.1099 16.1003 6
v 29.3054 16.0608 6
v 29.5026 16.031 6
v 29.7011 16.0112 6
v 29.9003 16.0012 6
v 30.0997 16.0012 6
v 30.2989 16.0112 6
v 30.4974 16.031 6
v 30.6946 16.0608 6
v 30.8901 16.1003 6
v 31.0834 16.1495 6
v 31.2739 16.2083 6
v 31.4614 16.2765 6
v 31.6451 16.354 6
v 31.8248 16.4405 6
v 32 16.5359 6
v 32.1702 16.6399 6
v 32.335 16.7522 6
v 32.494 16.8727 6
v 32.6467 17.0009 6
v 32.7929 17.1365 6
v 32.9322 17.2793 6
v 33.0642 17.4288 6
v 33.1885 17.5848 6
v 33.305 17.7467 6
v 33.4132 17.9143 6
v 33.5129 18.087 6
v 33.6039 18.2645 6
v 33.6859 18.4463 6
v 33.7588 18.6319 6
v 33.8223 18.821 6
v 33.8763 19.013 6
v 33.9207 19.2074 6
v 33.9553 19.4038 6
v 33.9801 19.6017 6
v 33.995 19.8006 6
v 34 20 6
v 34 20 -12
v 33.995 20.1994 -12
v 33.9801 20.3983 -12
v 33.9553 20.5962 -12
v 33.9207 20.7926 -12
v 33.8763 20.987 -12
v 33.8223 21.179 -12
v 33.7588 21.3681 -12
v 33.6859 21.5537 -12
v 33.6039 21.7355 -12
v 33.5129 21.913 -12
v 33.4132 22.0857 -12
v 33.305 22.2533 -12
v 33.1885 22.4152 -12
v 33.0642 22.5712 -12
v 32.9322 22.7207 -12
v 32.7929 22.8635 -12
v 32.6467 22.9991 -12
v 32.494 23.1273 -12
v 32.335 23.2478 -12
v 32.1702 23.3601 -12
v 32 23.4641 -12
v 31.8248 23.5595 -12
v 31.6451 23.646 -12
v 31.4614 23.7235 -12
v 31.2739 23.7917 -12
v 31.0834 23.8505 -12
v 30.8901 23.8997 -12
v 30.6946 23.9392 -12
v 30.4974 23.969 -12
v 30.2989 23.9888 -12
v 30.0997 23.9988 -12
v 29.9003 23.9988 -12
v 29.7011 23.9888 -12
v 29.5026 23.969 -12
v 29.3054 23.9392 -12
v 29.1099 23.8997 -12
v 28.9166 23.8505 -12
v 28.7261 23.7917 -12
v 28.5386 23.7235 -12
v 28.3549 23.646 -12
v 28.1752 23.5595 -12
v 28 23.4641 -12
v 27.8298 23.3601 -12
v 27.665 23.2478 -12
v 27.506 23.1273 -12
v 27.3533 22.9991 -12
v 27.2071 22.8635 -12
v 27.0678 22.7207 -12
v 26.9358 22.5712 -12
v 26.8115 22.4152 -12
v 26.695 22.2533 -12
v 26.5868 22.0857 -12
v 26.4871 21.913 -12
v 26.3961 21.7355 -12
v 26.3141 21.5537 -12
v 26.2412 21.3681 -12
v 26.1777 21.179 -12
v 26.1237 20.987 -12
v 26.0793 20.7926 -12
v 26.0447 20.5962 -12
v 26.0199 20.3983 -12
v 26.005 20.1994 -12
v 26 20 -12
v 26.005 19.8006 -12
v 26.0199 19.6017 -12
v 26.0447 19.4038 -12
v 26.0793 19.2074 -12
v 26.1237 19.013 -12
v 26.1777 18.821 -12
v 26.2412 18.6319 -12
v 26.3141 18.4463 -12
v 26.3961 18.2645 -12
v 26.4871 18.087 -12
v 26.5868 17.9143 -12
v 26.695 17.7467 -12
v 26.8115 17.5848 -12
v 26.9358 17.4288 -12
v 27.0678 17.2793 -12
v 27.2071 17.1365 -12
v 27.3533 17.0009 -12
v 27.506 16.8727 -12
v 27.665 16.7522 -12
v 27.8298 16.6399 -12
v 28 16.5359 -12
v 28.1752 16.4405 -12
v 28.3549 16.354 -12
v 28.5386 16.2765 -12
v 28.7261 16.2083 -12
v 28.9166 16.1495 -12
v 29.1099 16.1003 -12
v 29.3054 16.0608 -12
v 29.5026 16.031 -12
v 29.7011 16.0112 -12
v 29.9003 16.0012 -12
v 30.0997 16.0012 -12
v 30.2989 16.0112 -12
v 30.4974 16.031 -12
v 30.6946 16.0608 -12
v 30.8901 16.1003 -12
v 31.0834 16.1495 -12
v 31.2739 16.2083 -12
v 31.4614 16.2765 -12
v 31.6451 16.354 -12
v 31.8248 16.4405 -12
v 32 16.5359 -12
v 32.1702 16.6399 -12
v 32.335 16.7522 -12
v 32.494 16.8727 -12
v 32.6467 17.0009 -12
v 32.7929 17.1365 -12
v 32.9322 17.2793 -12
v 33.0642 17.4288 -12
v 33.1885 17.5848 -12
v 33.305 17.7467 -12
v 33.4132 17.9143 -12
v 33.5129 18.087 -12
v 33.6039 18.2645 -12
v 33.6859 18.4463 -12
v 33.7588 18.6319 -12
v 33.8223 18.821 -12
v 33.8763 19.013 -12
v 33.9207 19.2074 -12
v 33.9553 19.4038 -12
v 33.9801 19.6017 -12
v 33.995 19.8006 -12
v 34 20 -12
v -26 -20 6
v -26.005 -19.8006 6
v -26.0199 -19.6017 6
v -26.0447 -19.4038 6
v -26.0793 -19.2074 6
v -26.1237 -19.013 6
v -26.1777 -18.821 6
v -26.2412 -18.6319 6
v -26.3141 -18.4463 6
v -26.3961 -18.2645 6
v -26.4871 -18.087 6
v -26.5868 -17.9143 6
v -26.695 -17.7467 6
v -26.8115 -17.5848 6
v -26.9358 -17.4288 6
v -27.0678 -17.2793 6
v -27.2071 -17.1365 6
v -27.3533 -17.0009 6
v -27.506 -16.8727 6
v -27.665 -16.7522 6
v -27.8298 -16.6399 6
v -28 -16.5359 6
v -28.1752 -16.4405 6
v -28.3549 -16.354 6
v -28.5386 -16.2765 6
v -28.7261 -16.2083 6
v -28.9166 -16.1495 6
v -29.1099 -16.1003 6
v -29.3054 -16.0608 6
v -29.5026 -16.031 6
v -29.7011 -16.0112 6
v -29.9003 -16.0012 6
v -30.0997 -16.0012 6
v -30.2989 -16.0112 6
v -30.4974 -16.031 6
v -30.6946 -16.0608 6
v -30.8901 -16.1003 6
v -31.0834 -16.1495 6
v -31.2739 -16.2083 6
v -31.4614 -16.2765 6
v -31.6451 -16.354 6
v -31.8248 -16.4405 6
v -32 -16.5359 6
v -32.1702 -16.6399 6
v -32.335 -16.7522 6
v -32.494 -16.8727 6
v -32.6467 -17.0009 6
v -32.7929 -17.1365 6
v -32.9322 -17.2793 6
v -33.0642 -17.4288 6
v -33.1885 -17.5848 6
v -33.305 -17.7467 6
v -33.4132 -17.9143 6
v -33.5129 -18.087 6
v -33.6039 -18.2645 6
v -33.6859 -18.4463 6
v -33.7588 -18.6319 6
v -33.8223 -18.821 6
v -33.8763 -19.013 6
v -33.9207 -19.2074 6
v -33.9553 -19.4038 6
v -33.9801 -19.6017 6
v -33.995 -19.8006 6
v -34 -20 6
v -33.995 -20.1994 6
v -33.9801 -20.3983 6
v -33.9553 -20.5962 6
v -33.9207 -20.7926 6
v -33.8763 -20.987 6
v -33.8223 -21.179 6
v -33.7588 -21.3681 6
v -33.6859 -21.5537 6
v -33.6039 -21.7355 6
v -33.5129 -21.913 6
v -33.4132 -22.0857 6
v -33.305 -22.2533 6
v -33.1885 -22.4152 6
v -33.0642 -22.5712 6
v -32.9322 -22.7207 6
v -32.7929 -22.8635 6
v -32.6467 -22.9991 6
v -32.494 -23.1273 6
v -32.335 -23.2478 6
v -32.1702 -23.3601 6
v -32 -23.4641 6
v -31.8248 -23.5595 6
v -31.6451 -23.646 6
v -31.4614 -23.7235 6
v -31.2739 -23.7917 6
v -31.0834 -23.8505 6
v -30.8901 -23.8997 6
v -30.6946 -23.9392 6
v -30.4974 -23.969 6
v -30.2989 -23.9888 6
v -30.0997 -23.9988 6
v -29.9003 -23.9988 6
v -29.7011 -23.9888 6
v -29.5026 -23.969 6
v -29.3054 -23.9392 6
v -29.1099 -23.8997 6
v -28.9166 -23.8505 6
v -28.7261 -23.7917 6
v -28.5386 -23.7235 6
v -28.3549 -23.646 6
v -28.1752 -23.5595 6
v -28 -23.4641 6
v -27.8298 -23.3601 6
v -27.665 -23.2478 6
v -27.506 -23.1273 6
v -27.3533 -22.9991 6
v -27.2071 -22.8635 6
v -27.0678 -22.7207 6
v -26.9358 -22.5712 6
v -26.8115 -22.4152 6
v -26.695 -22.2533 6
v -26.5868 -22.0857 6
v -26.4871 -21.913 6
v -26.3961 -21.7355 6
v -26.3141 -21.5537 6
v -26.2412 -21.3681 6
v -26.1777 -21.179 6
v -26.1237 -20.987 6
v -26.0793 -20.7926 6
v -26.0447 -20.5962 6
v -26.0199 -20.3983 6
v -26.005 -20.1994 6
v 34 -20 6
v 33.995 -19.8006 6
v 33.9801 -19.6017 6
v 33.9553 -19.4038 6
v 33.9207 -19.2074 6
v 33.8763 -19.013 6
v 33.8223 -18.821 6
v 33.7588 -18.6319 6
v 33.6859 -18.4463 6
v 33.6039 -18.2645 6
v 33.5129 -18.087 6
v 33.4132 -17.9143 6
v 33.305 -17.7467 6
v 33.1885 -17.5848 6
v 33.0642 -17.4288 6
v 32.9322 -17.2793 6
v 32.7929 -17.1365 6
v 32.6467 -17.0009 6
v 32.494 -16.8727 6
v 32.335 -16.7522 6
v 32.1702 -16.6399 6
v 32 -16.5359 6
v 31.8248 -16.4405 6
v 31.6451 -16.354 6
v 31.4614 -16.2765 6
v 31.2739 -16.2083 6
v 31.0834 -16.1495 6
v 30.8901 -16.1003 6
v 30.6946 -16.0608 6
v 30.4974 -16.031 6
v 30.2989 -16.0112 6
v 30.0997 -16.0012 6
v 29.9003 -16.0012 6
v 29.7011 -16.0112 6
v 29.5026 -16.031 6
v 29.3054 -16.0608 6
v 29.1099 -16.1003 6
v 28.9166 -16.1495 6
v 28.7261 -16.2083 6
v 28.5386 -16.2765 6
v 28.3549 -16.354 6
v 28.1752 -16.4405 6
v 28 -16.5359 6
v 27.8298 -16.6399 6
v 27.665 -16.7522 6
v 27.506 -16.8727 6
v 27.3533 -17.0009 6
v 27.2071 -17.1365 6
v 27.0678 -17.2793 6
v 26.9358 -17.4288 6
v 26.8115 -17.5848 6
v 26.695 -17.7467 6
v 26.5868 -17.9143 6
v 26.4871 -18.087 6
v 26.3961 -18.2645 6
v 26.3141 -18.4463 6
v 26.2412 -18.6319 6
v 26.1777 -18.821 6
v 26.1237 -19.013 6
v 26.0793 -19.2074 6
v 26.0447 -19.4038 6
v 26.0199 -19.6017 6
v 26.005 -19.8006 6
v 26 -20 6
v 26.005 -20.1994 6
v 26.0199 -20.3983 6
v 26.0447 -20.5962 6
v 26.0793 -20.7926 6
v 26.1237 -20.987 6
v 26.1777 -21.179 6
v 26.2412 -21.3681 6
v 26.3141 -21.5537 6
v 26.3961 -21.7355 6
v 26.4871 -21.913 6
v 26.5868 -22.0857 6
v 26.695 -22.2533 6
v 26.8115 -22.4152 6
v 26.9358 -22.5712 6
v 27.0678 -22.7207 6
v 27.2071 -22.8635 6
v 27.3533 -22.9991 6
v 27.506 -23.1273 6
v 27.665 -23.2478 6
v 27.8298 -23.3601 6
v 28 -23.4641 6
v 28.1752 -23.5595 6
v 28.3549 -23.646 6
v 28.5386 -23.7235 6
v 28.7261 -23.7917 6
v 28.9166 -23.8505 6
v 29.1099 -23.8997 6
v 29.3054 -23.9392 6
v 29.5026 -23.969 6
v 29.7011 -23.9888 6
v 29.9003 -23.9988 6
v 30.0997 -23.9988 6
v 30.2989 -23.9888 6
v 30.4974 -23.969 6
v 30.6946 -23.9392 6
v 30.8901 -23.8997 6
v 31.0834 -23.8505 6
v 31.2739 -23.7917 6
v 31.4614 -23.7235 6
v 31.6451 -23.646 6
v 31.8248 -23.5595 6
v 32 -23.4641 6
v 32.1702 -23.3601 6
v 32.335 -23.2478 6
v 32.494 -23.1273 6
v 32.6467 -22.9991 6
v 32.7929 -22.8635 6
v 32.9322 -22.7207 6
v 33.0642 -22.5712 6
v 33.1885 -22.4152 6
v 33.305 -22.2533 6
v 33.4132 -22.0857 6
v 33.5129 -21.913 6
v 33.6039 -21.7355 6
v 33.6859 -21.5537 6
v 33.7588 -21.3681 6
v 33.8223 -21.179 6
v 33.8763 -20.987 6
v 33.9207 -20.7926 6
v 33.9553 -20.5962 6
v 33.9801 -20.3983 6
v 33.995 -20.1994 6
v -26 20 6
v -26.005 20.1994 6
v -26.0199 20.3983 6
v -26.0447 20.5962 6
v -26.0793 20.7926 6
v -26.1237 20.987 6
v -26.1777 21.179 6
v -26.2412 21.3681 6
v -26.3141 21.5537 6
v -26.3961 21.7355 6
v -26.4871 21.913 6
v -26.5868 22.0857 6
v -26.695 22.2533 6
v -26.8115 22.4152 6
v -26.9358 22.5712 6
v -27.0678 22.7207 6
v -27.2071 22.8635 6
v -27.3533 22.9991 6
v -27.506 23.1273 6
v -27.665 23.2478 6
v -27.8298 23.3601 6
v -28 23.4641 6
v -28.1752 23.5595 6
v -28.3549 23.646 6
v -28.5386 23.7235 6
v -28.7261 23.7917 6
v -28.9166 23.8505 6
v -29.1099 23.8997 6
v -29.3054 23.9392 6
v -29.5026 23.969 6
v -29.7011 23.9888 6
v -29.9003 23.9988 6
v -30.0997 23.9988 6
v -30.2989 23.9888 6
v -30.4974 23.969 6
v -30.6946 23.9392 6
v -30.8901 23.8997 6
v -31.0834 23.8505 6
v -31.2739 23.7917 6
v -31.4614 23.7235 6
v -31.6451 23.646 6
v -31.8248 23.5595 6
v -32 23.4641 6
v -32.1702 23.3601 6
v -32.335 23.2478 6
v -32.494 23.1273 6
v -32.6467 22.9991 6
v -32.7929 22.8635 6
v -32.9322 22.7207 6
v -33.0642 22.5712 6
v -33.1885 22.4152 6
v -33.305 22.2533 6
v -33.4132 22.0857 6
v -33.5129 21.913 6
v -33.6039 21.7355 6
v -33.6859 21.5537 6
v -33.7588 21.3681 6
v -33.8223 21.179 6
v -33.8763 20.987 6
v -33.9207 20.7926 6
v -33.9553 20.5962 6
v -33.9801 20.3983 6
v -33.995 20.1994 6
v -34 20 6
v -33.995 19.8006 6
v -33.9801 19.6017 6
v -33.9553 19.4038 6
v -33.9207 19.2074 6
v -33.8763 19.013 6
v -33.8223 18.821 6
v -33.7588 18.6319 6
v -33.6859 18.4463 6
v -33.6039 18.2645 6
v -33.5129 18.087 6
v -33.4132 17.9143 6
v -33.305 17.7467 6
v -33.1885 17.5848 6
v -33.0642 17.4288 6
v -32.9322 17.2793 6
v -32.7929 17.1365 6
v -32.6467 17.0009 6
v -32.494 16.8727 6
v -32.335 16.7522 6
v -32.1702 16.6399 6
v -32 16.5359 6
v -31.8248 16.4405 6
v -31.6451 16.354 6
v -31.4614 16.2765 6
v -31.2739 16.2083 6
v -31.0834 16.1495 6
v -30.8901 16.1003 6
v -30.6946 16.0608 6
v -30.4974 16.031 6
v -30.2989 16.0112 6
v -30.0997 16.0012 6
v -29.9003 16.0012 6
v -29.7011 16.0112 6
v -29.5026 16.031 6
v -29.3054 16.0608 6
v -29.1099 16.1003 6
v -28.9166 16.1495 6
v -28.7261 16.2083 6
v -28.5386 16.2765 6
v -28.3549 16.354 6
v -28.1752 16.4405 6
v -28 16.5359 6
v -27.8298 16.6399 6
v -27.665 16.7522 6
v -27.506 16.8727 6
v -27.3533 17.0009 6
v -27.2071 17.1365 6
v -27.0678 17.2793 6
v -26.9358 17.4288 6
v -26.8115 17.5848 6
v -26.695 17.7467 6
v -26.5868 17.9143 6
v -26.4871 18.087 6
v -26.3961 18.2645 6
v -26.3141 18.4463 6
v -26.2412 18.6319 6
v -26.1777 18.821 6
v -26.1237 19.013 6
v -26.0793 19.2074 6
v -26.0447 19.4038 6
v -26.0199 19.6017 6
v -26.005 19.8006 6
v 34 20 6
v 33.995 20.1994 6
v 33.9801 20.3983 6
v 33.9553 20.5962 6
v 33.9207 20.7926 6
v 33.8763 20.987 6
v 33.8223 21.179 6
v 33.7588 21.3681 6
v 33.6859 21.5537 6
v 33.6039 21.7355 6
v 33.5129 21.913 6
v 33.4132 22.0857 6
v 33.305 22.2533 6
v 33.1885 22.4152 6
v 33.0642 22.5712 6
v 32.9322 22.7207 6
v 32.7929 22.8635 6
v 32.6467 22.9991 6
v 32.494 23.1273 6
v 32.335 23.2478 6
v 32.1702 23.3601 6
v 32 23.4641 6
v 31.8248 23.5595 6
v 31.6451 23.646 6
v 31.4614 23.7235 6
v 31.2739 23.7917 6
v 31.0834 23.8505 6
v 30.8901 23.8997 6
v 30.6946 23.9392 6
v 30.4974 23.969 6
v 30.2989 23.9888 6
v 30.0997 23.9988 6
v 29.9003 23.9988 6
v 29.7011 23.9888 6
v 29.5026 23.969 6
v 29.3054 23.9392 6
v 29.1099 23.8997 6
v 28.9166 23.8505 6
v 28.7261 23.7917 6
v 28.5386 23.7235 6
v 28.3549 23.646 6
v 28.1752 23.5595 6
v 28 23.4641 6
v 27.8298 23.3601 6
v 27.665 23.2478 6
v 27.506 23.1273 6
v 27.3533 22.9991 6
v 27.2071 22.8635 6
v 27.0678 22.7207 6
v 26.9358 22.5712 6
v 26.8115 22.4152 6
v 26.695 22.2533 6
v 26.5868 22.0857 6
v 26.4871 21.913 6
v 26.3961 21.7355 6
v 26.3141 21.5537 6
v 26.2412 21.3681 6
v 26.1777 21.179 6
v 26.1237 20.987 6
v 26.0793 20.7926 6
v 26.0447 20.5962 6
v 26.0199 20.3983 6
v 26.005 20.1994 6
v 26 20 6
v 26.005 19.8006 6
v 26.0199 19.6017 6
v 26.0447 19.4038 6
v 26.0793 19.2074 6
v 26.1237 19.013 6
v 26.1777 18.821 6
v 26.2412 18.6319 6
v 26.3141 18.4463 6
v 26.3961 18.2645 6
v 26.4871 18.087 6
v 26.5868 17.9143 6
v 26.695 17.7467 6
v 26.8115 17.5848 6
v 26.9358 17.4288 6
v 27.0678 17.2793 6
v 27.2071 17.1365 6
v 27.3533 17.0009 6
v 27.506 16.8727 6
v 27.665 16.7522 6
v 27.8298 16.6399 6
v 28 16.5359 6
v 28.1752 16.4405 6
v 28.3549 16.354 6
v 28.5386 16.2765 6
v 28.7261 16.2083 6
v 28.9166 16.1495 6
v 29.1099 16.1003 6
v 29.3054 16.0608 6
v 29.5026 16.031 6
v 29.7011 16.0112 6
v 29.9003 16.0012 6
v 30.0997 16.0012 6
v 30.2989 16.0112 6
v 30.4974 16.031 6
v 30.6946 16.0608 6
v 30.8901 16.1003 6
v 31.0834 16.1495 6
v 31.2739 16.2083 6
v 31.4614 16.2765 6
v 31.6451 16.354 6
v 31.8248 16.4405 6
v 32 16.5359 6
v 32.1702 16.6399 6
v 32.335 16.7522 6
v 32.494 16.8727 6
v 32.6467 17.0009 6
v 32.7929 17.1365 6
v 32.9322 17.2793 6
v 33.0642 17.4288 6
v 33.1885 17.5848 6
v 33.305 17.7467 6
v 33.4132 17.9143 6
v 33.5129 18.087 6
v 33.6039 18.2645 6
v 33.6859 18.4463 6
v 33.7588 18.6319 6
v 33.8223 18.821 6
v 33.8763 19.013 6
v 33.9207 19.2074 6
v 33.9553 19.4038 6
v 33.9801 19.6017 6
v 33.995 19.8006 6
f 1 3 4
f 2 1 4
f 6 7 5
f 8 7 6
f 10 9 15
f 16 10 15
f 13 9 11
f 13 15 9
f 14 13 11
f 12 14 11
f 12 10 16
f 12 16 14
f 18 17 19
f 20 18 19
f 24 21 22
f 24 23 21
f 25 28 27
f 26 28 25
f 29 32 31
f 29 30 32
f 35 36 33
f 34 35 33
f 37 39 40
f 37 40 38
f 43 41 44
f 42 41 43
f 127 46 128
f 129 128 46
f 126 46 127
f 130 129 46
f 125 46 126
f 131 130 46
f 124 46 125
f 132 131 46
f 123 46 124
f 133 132 46
f 122 46 123
f 134 133 46
f 121 46 122
f 135 134 46
f 120 46 121
f 136 135 46
f 119 46 120
f 137 136 46
f 118 46 119
f 138 137 46
f 117 46 118
f 139 138 46
f 116 46 117
f 140 139 46
f 115 46 116
f 141 140 46
f 114 46 115
f 142 141 46
f 113 46 114
f 143 142 46
f 112 46 113
f 144 143 46
f 111 46 112
f 145 144 46
f 110 46 111
f 146 145 46
f 109 46 110
f 147 146 46
f 108 46 109
f 148 147 46
f 107 46 108
f 149 148 46
f 106 46 107
f 150 149 46
f 379 96 380
f 379 97 96
f 379 98 97
f 381 380 96
f 381 95 94
f 381 96 95
f 378 98 379
f 382 381 94
f 377 98 378
f 377 99 98
f 383 94 93
f 383 382 94
f 376 100 99
f 376 101 100
f 376 99 377
f 384 92 91
f 384 93 92
f 384 383 93
f 375 101 376
f 385 384 91
f 385 91 90
f 374 102 101
f 374 101 375
f 386 90 89
f 386 385 90
f 373 103 102
f 373 102 374
f 387 386 89
f 372 104 103
f 372 105 104
f 372 103 373
f 388 89 88
f 388 387 89
f 371 105 372
f 389 87 86
f 389 88 87
f 389 388 88
f 370 106 105
f 370 105 371
f 390 389 86
f 391 390 86
f 391 86 85
f 392 391 85
f 392 84 83
f 392 85 84
f 393 83 82
f 393 392 83
f 394 393 82
f 395 82 81
f 395 394 82
f 396 395 81
f 396 80 79
f 396 81 80
f 397 396 79
f 398 79 78
f 398 397 79
f 399 398 78
f 399 77 76
f 399 78 77
f 400 399 76
f 400 76 75
f 401 400 75
f 402 74 73
f 402 75 74
f 402 401 75
f 403 73 72
f 403 402 73
f 404 403 72
f 405 71 70
f 405 72 71
f 405 404 72
f 406 70 69
f 406 405 70
f 407 406 69
f 408 68 67
f 408 69 68
f 408 407 69
f 409 408 67
f 410 66 65
f 410 67 66
f 410 409 67
f 411 410 65
f 45 350 349
f 45 351 350
f 45 352 351
f 45 353 352
f 45 354 353
f 45 355 354
f 45 356 355
f 45 357 356
f 45 358 357
f 45 359 358
f 45 360 359
f 45 361 360
f 45 362 361
f 45 363 362
f 45 364 363
f 45 365 364
f 45 366 365
f 45 367 366
f 45 368 367
f 45 369 368
f 45 370 369
f 45 46 106
f 45 106 370
f 348 45 349
f 412 411 65
f 412 64 63
f 412 65 64
f 347 45 348
f 413 412 63
f 346 45 347
f 414 62 61
f 414 63 62
f 414 413 63
f 345 45 346
f 415 414 61
f 344 45 345
f 343 45 344
f 342 45 343
f 341 45 342
f 340 45 341
f 339 45 340
f 338 45 339
f 337 45 338
f 336 45 337
f 335 45 336
f 334 45 335
f 333 45 334
f 332 45 333
f 331 45 332
f 330 45 331
f 329 45 330
f 328 45 329
f 327 45 328
f 253 160 159
f 253 159 254
f 255 159 158
f 255 254 159
f 252 160 253
f 252 161 160
f 256 158 157
f 256 255 158
f 251 162 161
f 251 161 252
f 257 157 156
f 257 256 157
f 250 162 251
f 250 163 162
f 258 156 155
f 258 257 156
f 249 164 163
f 249 163 250
f 259 155 154
f 259 258 155
f 248 165 164
f 248 164 249
f 260 153 152
f 260 154 153
f 260 259 154
f 247 165 248
f 247 166 165
f 261 260 152
f 246 167 166
f 246 168 167
f 246 166 247
f 262 152 151
f 262 261 152
f 245 168 246
f 263 151 150
f 263 262 151
f 244 168 245
f 244 169 168
f 243 170 169
f 243 169 244
f 242 171 170
f 242 170 243
f 241 171 242
f 241 172 171
f 240 173 172
f 240 172 241
f 239 174 173
f 239 173 240
f 238 174 239
f 238 49 174
f 237 50 49
f 237 51 50
f 237 49 238
f 236 51 237
f 235 52 51
f 235 51 236
f 234 53 52
f 234 52 235
f 233 54 53
f 233 55 54
f 233 53 234
f 232 55 233
f 231 56 55
f 231 55 232
f 230 56 231
f 230 57 56
f 229 58 57
f 229 59 58
f 229 57 230
f 228 59 229
f 227 60 59
f 227 59 228
f 226 60 227
f 226 61 60
f 47 264 263
f 47 265 264
f 47 266 265
f 47 267 266
f 47 268 267
f 47 269 268
f 47 270 269
f 47 271 270
f 47 272 271
f 47 273 272
f 47 274 273
f 47 275 274
f 47 263 150
f 47 276 275
f 47 277 276
f 47 278 277
f 47 279 278
f 47 280 279
f 47 281 280
f 47 282 281
f 47 283 282
f 47 284 283
f 47 285 284
f 47 150 46
f 286 285 47
f 287 286 47
f 288 287 47
f 289 288 47
f 290 289 47
f 291 290 47
f 292 291 47
f 293 292 47
f 294 293 47
f 295 294 47
f 296 295 47
f 297 296 47
f 298 297 47
f 299 298 47
f 300 299 47
f 175 300 47
f 176 175 47
f 177 176 47
f 178 177 47
f 179 178 47
f 180 179 47
f 181 180 47
f 505 223 222
f 505 224 223
f 505 222 506
f 507 221 220
f 507 222 221
f 507 506 222
f 504 224 505
f 508 507 220
f 503 224 504
f 503 225 224
f 509 508 220
f 509 219 218
f 509 220 219
f 502 61 226
f 502 225 503
f 502 226 225
f 502 415 61
f 510 509 218
f 501 416 415
f 501 415 502
f 511 218 217
f 511 510 218
f 500 416 501
f 500 417 416
f 512 217 216
f 512 511 217
f 499 417 500
f 499 418 417
f 513 216 215
f 513 512 216
f 498 419 418
f 498 420 419
f 498 418 499
f 514 215 214
f 514 513 215
f 497 420 498
f 515 213 212
f 515 214 213
f 515 514 214
f 496 421 420
f 496 420 497
f 516 212 211
f 516 515 212
f 495 421 496
f 495 422 421
f 517 516 211
f 494 422 495
f 494 423 422
f 518 517 211
f 518 210 209
f 518 211 210
f 493 424 423
f 493 423 494
f 519 518 209
f 519 209 208
f 492 424 493
f 492 425 424
f 520 519 208
f 520 208 207
f 491 425 492
f 491 426 425
f 521 520 207
f 490 426 491
f 490 301 426
f 522 521 207
f 522 206 205
f 522 207 206
f 489 301 490
f 489 302 301
f 523 522 205
f 523 205 204
f 488 302 489
f 488 303 302
f 524 523 204
f 487 304 303
f 487 303 488
f 525 203 202
f 525 204 203
f 525 524 204
f 486 304 487
f 486 305 304
f 526 525 202
f 526 202 201
f 485 306 305
f 485 305 486
f 527 526 201
f 484 306 485
f 484 307 306
f 484 308 307
f 528 200 199
f 528 201 200
f 528 527 201
f 483 308 484
f 529 528 199
f 529 199 198
f 482 308 483
f 482 309 308
f 530 529 198
f 481 310 309
f 481 309 482
f 531 197 196
f 531 198 197
f 531 530 198
f 480 310 481
f 480 311 310
f 480 312 311
f 532 531 196
f 532 196 195
f 479 312 480
f 533 532 195
f 478 313 312
f 478 312 479
f 534 194 193
f 534 195 194
f 534 533 195
f 477 313 478
f 477 314 313
f 535 534 193
f 476 315 314
f 476 316 315
f 476 314 477
f 536 192 191
f 536 193 192
f 536 535 193
f 475 316 476
f 537 536 191
f 474 317 316
f 474 318 317
f 474 316 475
f 538 190 189
f 538 191 190
f 538 537 191
f 473 318 474
f 539 538 189
f 472 319 318
f 472 318 473
f 540 188 187
f 540 189 188
f 540 539 189
f 541 187 186
f 541 540 187
f 542 541 186
f 543 185 184
f 543 186 185
f 543 542 186
f 544 543 184
f 545 544 184
f 545 183 182
f 545 184 183
f 546 545 182
f 546 182 181
f 547 546 181
f 48 550 549
f 48 449 448
f 48 551 550
f 48 450 449
f 48 552 551
f 48 451 450
f 48 427 552
f 48 452 451
f 48 453 452
f 48 454 453
f 48 455 454
f 48 456 455
f 48 457 456
f 48 458 457
f 48 459 458
f 48 460 459
f 48 461 460
f 48 462 461
f 48 463 462
f 48 464 463
f 48 181 47
f 48 547 181
f 48 428 427
f 48 429 428
f 48 430 429
f 48 431 430
f 48 432 431
f 48 433 432
f 48 434 433
f 48 435 434
f 48 436 435
f 48 437 436
f 48 438 437
f 48 439 438
f 48 440 439
f 48 441 440
f 48 442 441
f 48 443 442
f 48 444 443
f 48 445 444
f 48 446 445
f 48 548 547
f 48 447 446
f 48 549 548
f 48 448 447
f 48 45 327
f 48 327 326
f 48 326 325
f 48 325 324
f 48 324 323
f 48 323 322
f 48 322 321
f 48 321 320
f 48 320 319
f 48 319 464
f 464 319 465
f 465 319 466
f 466 319 467
f 467 319 468
f 468 319 469
f 469 319 470
f 470 319 471
f 471 319 472
f 554 553 680
f 554 680 681
f 555 681 682
f 555 554 681
f 556 682 683
f 556 555 682
f 557 683 684
f 557 684 685
f 557 556 683
f 558 557 685
f 559 685 686
f 559 558 685
f 560 686 687
f 560 687 688
f 560 559 686
f 561 560 688
f 562 688 689
f 562 689 690
f 562 561 688
f 563 690 691
f 563 562 690
f 564 563 691
f 564 691 692
f 565 564 692
f 566 565 692
f 566 692 693
f 566 693 694
f 567 566 694
f 568 567 694
f 568 694 695
f 569 568 695
f 569 695 696
f 570 569 696
f 570 696 697
f 571 570 697
f 571 697 698
f 571 698 699
f 572 571 699
f 573 572 699
f 573 699 700
f 574 573 700
f 574 700 701
f 575 574 701
f 575 701 702
f 575 702 703
f 576 575 703
f 577 703 704
f 577 576 703
f 578 704 705
f 578 577 704
f 579 705 706
f 579 578 705
f 580 706 707
f 580 579 706
f 581 707 708
f 581 708 709
f 581 580 707
f 582 581 709
f 583 709 710
f 583 710 711
f 583 582 709
f 584 583 711
f 585 711 712
f 585 712 713
f 585 584 711
f 586 585 713
f 587 713 714
f 587 714 715
f 587 586 713
f 588 715 716
f 588 587 715
f 589 588 716
f 590 589 716
f 590 716 717
f 591 590 717
f 591 717 718
f 592 591 718
f 592 718 719
f 593 592 719
f 593 719 720
f 594 593 720
f 594 720 721
f 595 594 721
f 595 721 722
f 596 595 722
f 596 722 723
f 597 596 723
f 597 723 724
f 597 724 725
f 598 597 725
f 598 725 726
f 599 598 726
f 599 726 727
f 600 599 727
f 601 600 727
f 601 727 728
f 601 728 729
f 602 601 729
f 602 729 730
f 603 602 730
f 604 603 730
f 604 730 731
f 605 604 731
f 605 731 732
f 606 605 732
f 606 732 733
f 607 606 733
f 607 733 734
f 608 607 734
f 608 734 735
f 608 735 736
f 609 608 736
f 610 609 736
f 610 736 737
f 611 737 738
f 611 610 737
f 612 738 739
f 612 611 738
f 613 739 740
f 613 612 739
f 614 740 741
f 614 613 740
f 615 614 741
f 615 741 742
f 616 615 742
f 616 742 743
f 617 616 743
f 617 743 744
f 618 617 744
f 618 744 745
f 618 745 746
f 619 618 746
f 620 619 746
f 620 746 747
f 620 747 748
f 621 620 748
f 622 621 748
f 622 748 749
f 622 749 750
f 623 622 750
f 624 623 750
f 624 750 751
f 625 624 751
f 625 751 752
f 625 752 753
f 626 625 753
f 627 754 755
f 627 626 753
f 627 753 754
f 628 627 755
f 629 755 756
f 629 756 757
f 629 628 755
f 630 629 757
f 631 757 758
f 631 630 757
f 632 758 759
f 632 759 760
f 632 631 758
f 633 632 760
f 634 760 761
f 634 633 760
f 635 761 762
f 635 762 763
f 635 634 761
f 636 763 764
f 636 635 763
f 637 636 764
f 638 764 765
f 638 637 764
f 639 765 766
f 639 638 765
f 640 766 767
f 640 639 766
f 641 640 767
f 641 767 768
f 642 641 768
f 642 768 769
f 643 642 769
f 643 769 770
f 644 643 770
f 644 770 771
f 645 771 772
f 645 644 771
f 646 772 773
f 646 773 774
f 646 645 772
f 647 646 774
f 648 774 775
f 648 775 776
f 648 647 774
f 649 648 776
f 650 776 777
f 650 649 776
f 651 777 778
f 651 650 777
f 652 778 779
f 652 651 778
f 653 779 780
f 653 652 779
f 654 780 781
f 654 653 780
f 655 781 782
f 655 654 781
f 656 782 783
f 656 655 782
f 657 783 784
f 657 656 783
f 658 784 785
f 658 785 786
f 658 657 784
f 659 658 786
f 660 786 787
f 660 659 786
f 661 787 788
f 661 660 787
f 662 788 789
f 662 661 788
f 663 789 790
f 663 662 789
f 664 790 791
f 664 663 790
f 665 791 792
f 665 792 793
f 665 664 791
f 666 665 793
f 666 793 794
f 667 666 794
f 668 667 794
f 668 794 795
f 668 795 796
f 669 668 796
f 669 796 797
f 670 669 797
f 671 670 797
f 671 797 798
f 672 671 798
f 672 798 799
f 673 672 799
f 673 799 800
f 674 673 800
f 674 800 801
f 675 674 801
f 675 801 802
f 676 675 802
f 676 802 803
f 677 676 803
f 677 803 804
f 678 804 805
f 678 677 804
f 679 805 806
f 679 678 805
f 808 807 934
f 808 934 935
f 809 935 936
f 809 808 935
f 810 936 937
f 810 809 936
f 811 937 938
f 811 938 939
f 811 810 937
f 812 811 939
f 813 939 940
f 813 812 939
f 814 940 941
f 814 941 942
f 814 813 940
f 815 814 942
f 816 942 943
f 816 943 944
f 816 815 942
f 817 944 945
f 817 816 944
f 818 817 945
f 818 945 946
f 819 818 946
f 820 819 946
f 820 946 947
f 820 947 948
f 821 820 948
f 822 821 948
f 822 948 949
f 823 822 949
f 823 949 950
f 824 823 950
f 824 950 951
f 825 824 951
f 825 951 952
f 825 952 953
f 826 825 953
f 827 826 953
f 827 953 954
f 828 827 954
f 828 954 955
f 829 828 955
f 829 955 956
f 829 956 957
f 830 829 957
f 831 957 958
f 831 830 957
f 832 958 959
f 832 831 958
f 833 959 960
f 833 832 959
f 834 960 961
f 834 833 960
f 835 961 962
f 835 962 963
f 835 834 961
f 836 835 963
f 837 963 964
f 837 964 965
f 837 836 963
f 838 837 965
f 839 965 966
f 839 966 967
f 839 838 965
f 840 839 967
f 841 967 968
f 841 968 969
f 841 840 967
f 842 969 970
f 842 841 969
f 843 842 970
f 844 843 970
f 844 970 971
f 845 844 971
f 845 971 972
f 846 845 972
f 846 972 973
f 847 846 973
f 847 973 974
f 848 847 974
f 848 974 975
f 849 848 975
f 849 975 976
f 850 849 976
f 850 976 977
f 851 850 977
f 851 977 978
f 851 978 979
f 852 851 979
f 852 979 980
f 853 852 980
f 853 980 981
f 854 853 981
f 855 854 981
f 855 981 982
f 855 982 983
f 856 855 983
f 856 983 984
f 857 856 984
f 858 857 984
f 858 984 985
f 859 858 985
f 859 985 986
f 860 859 986
f 860 986 987
f 861 860 987
f 861 987 988
f 862 861 988
f 862 988 989
f 862 989 990
f 863 862 990
f 864 863 990
f 864 990 991
f 865 991 992
f 865 864 991
f 866 992 993
f 866 865 992
f 867 993 994
f 867 866 993
f 868 994 995
f 868 867 994
f 869 868 995
f 869 995 996
f 870 869 996
f 870 996 997
f 871 870 997
f 871 997 998
f 872 871 998
f 872 998 999
f 872 999 1000
f 873 872 1000
f 874 873 1000
f 874 1000 1001
f 874 1001 1002
f 875 874 1002
f 876 875 1002
f 876 1002 1003
f 876 1003 1004
f 877 876 1004
f 878 877 1004
f 878 1004 1005
f 879 878 1005
f 879 1005 1006
f 879 1006 1007
f 880 879 1007
f 881 1008 1009
f 881 880 1007
f 881 1007 1008
f 882 881 1009
f 883 1009 1010
f 883 1010 1011
f 883 882 1009
f 884 883 1011
f 885 1011 1012
f 885 884 1011
f 886 1012 1013
f 886 1013 1014
f 886 885 1012
f 887 886 1014
f 888 1014 1015
f 888 887 1014
f 889 1015 1016
f 889 1016 1017
f 889 888 1015
f 890 1017 1018
f 890 889 1017
f 891 890 1018
f 892 1018 1019
f 892 891 1018
f 893 1019 1020
f 893 892 1019
f 894 1020 1021
f 894 893 1020
f 895 894 1021
f 895 1021 1022
f 896 895 1022
f 896 1022 1023
f 897 896 1023
f 897 1023 1024
f 898 897 1024
f 898 1024 1025
f 899 1025 1026
f 899 898 1025
f 900 1026 1027
f 900 1027 1028
f 900 899 1026
f 901 900 1028
f 902 1028 1029
f 902 1029 1030
f 902 901 1028
f 903 902 1030
f 904 1030 1031
f 904 903 1030
f 905 1031 1032
f 905 904 1031
f 906 1032 1033
f 906 905 1032
f 907 1033 1034
f 907 906 1033
f 908 1034 1035
f 908 907 1034
f 909 1035 1036
f 909 908 1035
f 910 1036 1037
f 910 909 1036
f 911 1037 1038
f 911 910 1037
f 912 1038 1039
f 912 1039 1040
f 912 911 1038
f 913 912 1040
f 914 1040 1041
f 914 913 1040
f 915 1041 1042
f 915 914 1041
f 916 1042 1043
f 916 915 1042
f 917 1043 1044
f 917 916 1043
f 918 1044 1045
f 918 917 1044
f 919 1045 1046
f 919 1046 1047
f 919 918 1045
f 920 919 1047
f 920 1047 1048
f 921 920 1048
f 922 921 1048
f 922 1048 1049
f 922 1049 1050
f 923 922 1050
f 923 1050 1051
f 924 923 1051
f 925 924 1051
f 925 1051 1052
f 926 925 1052
f 926 1052 1053
f 927 926 1053
f 927 1053 1054
f 928 927 1054
f 928 1054 1055
f 929 928 1055
f 929 1055 1056
f 930 929 1056
f 930 1056 1057
f 931 930 1057
f 931 1057 1058
f 932 1058 1059
f 932 931 1058
f 933 1059 1060
f 933 932 1059
f 1062 1061 1188
f 1062 1188 1189
f 1063 1189 1190
f 1063 1062 1189
f 1064 1190 1191
f 1064 1063 1190
f 1065 1191 1192
f 1065 1192 1193
f 1065 1064 1191
f 1066 1065 1193
f 1067 1193 1194
f 1067 1066 1193
f 1068 1194 1195
f 1068 1195 1196
f 1068 1067 1194
f 1069 1068 1196
f 1070 1196 1197
f 1070 1197 1198
f 1070 1069 1196
f 1071 1198 1199
f 1071 1070 1198
f 1072 1071 1199
f 1072 1199 1200
f 1073 1072 1200
f 1074 1073 1200
f 1074 1200 1201
f 1074 1201 1202
f 1075 1074 1202
f 1076 1075 1202
f 1076 1202 1203
f 1077 1076 1203
f 1077 1203 1204
f 1078 1077 1204
f 1078 1204 1205
f 1079 1078 1205
f 1079 1205 1206
f 1079 1206 1207
f 1080 1079 1207
f 1081 1080 1207
f 1081 1207 1208
f 1082 1081 1208
f 1082 1208 1209
f 1083 1082 1209
f 1083 1209 1210
f 1083 1210 1211
f 1084 1083 1211
f 1085 1211 1212
f 1085 1084 1211
f 1086 1212 1213
f 1086 1085 1212
f 1087 1213 1214
f 1087 1086 1213
f 1088 1214 1215
f 1088 1087 1214
f 1089 1215 1216
f 1089 1216 1217
f 1089 1088 1215
f 1090 1089 1217
f 1091 1217 1218
f 1091 1218 1219
f 1091 1090 1217
f 1092 1091 1219
f 1093 1219 1220
f 1093 1220 1221
f 1093 1092 1219
f 1094 1093 1221
f 1095 1221 1222
f 1095 1222 1223
f 1095 1094 1221
f 1096 1223 1224
f 1096 1095 1223
f 1097 1096 1224
f 1098 1097 1224
f 1098 1224 1225
f 1099 1098 1225
f 1099 1225 1226
f 1100 1099 1226
f 1100 1226 1227
f 1101 1100 1227
f 1101 1227 1228
f 1102 1101 1228
f 1102 1228 1229
f 1103 1102 1229
f 1103 1229 1230
f 1104 1103 1230
f 1104 1230 1231
f 1105 1104 1231
f 1105 1231 1232
f 1105 1232 1233
f 1106 1105 1233
f 1106 1233 1234
f 1107 1106 1234
f 1107 1234 1235
f 1108 1107 1235
f 1109 1108 1235
f 1109 1235 1236
f 1109 1236 1237
f 1110 1109 1237
f 1110 1237 1238
f 1111 1110 1238
f 1112 1111 1238
f 1112 1238 1239
f 1113 1112 1239
f 1113 1239 1240
f 1114 1113 1240
f 1114 1240 1241
f 1115 1114 1241
f 1115 1241 1242
f 1116 1115 1242
f 1116 1242 1243
f 1116 1243 1244
f 1117 1116 1244
f 1118 1117 1244
f 1118 1244 1245
f 1119 1245 1246
f 1119 1118 1245
f 1120 1246 1247
f 1120 1119 1246
f 1121 1247 1248
f 1121 1120 1247
f 1122 1248 1249
f 1122 1121 1248
f 1123 1122 1249
f 1123 1249 1250
f 1124 1123 1250
f 1124 1250 1251
f 1125 1124 1251
f 1125 1251 1252
f 1126 1125 1252
f 1126 1252 1253
f 1126 1253 1254
f 1127 1126 1254
f 1128 1127 1254
f 1128 1254 1255
f 1128 1255 1256
f 1129 1128 1256
f 1130 1129 1256
f 1130 1256 1257
f 1130 1257 1258
f 1131 1130 1258
f 1132 1131 1258
f 1132 1258 1259
f 1133 1132 1259
f 1133 1259 1260
f 1133 1260 1261
f 1134 1133 1261
f 1135 1262 1263
f 1135 1134 1261
f 1135 1261 1262
f 1136 1135 1263
f 1137 1263 1264
f 1137 1264 1265
f 1137 1136 1263
f 1138 1137 1265
f 1139 1265 1266
f 1139 1138 1265
f 1140 1266 1267
f 1140 1267 1268
f 1140 1139 1266
f 1141 1140 1268
f 1142 1268 1269
f 1142 1141 1268
f 1143 1269 1270
f 1143 1270 1271
f 1143 1142 1269
f 1144 1271 1272
f 1144 1143 1271
f 1145 1144 1272
f 1146 1272 1273
f 1146 1145 1272
f 1147 1273 1274
f 1147 1146 1273
f 1148 1274 1275
f 1148 1147 1274
f 1149 1148 1275
f 1149 1275 1276
f 1150 1149 1276
f 1150 1276 1277
f 1151 1150 1277
f 1151 1277 1278
f 1152 1151 1278
f 1152 1278 1279
f 1153 1279 1280
f 1153 1152 1279
f 1154 1280 1281
f 1154 1281 1282
f 1154 1153 1280
f 1155 1154 1282
f 1156 1282 1283
f 1156 1283 1284
f 1156 1155 1282
f 1157 1156 1284
f 1158 1284 1285
f 1158 1157 1284
f 1159 1285 1286
f 1159 1158 1285
f 1160 1286 1287
f 1160 1159 1286
f 1161 1287 1288
f 1161 1160 1287
f 1162 1288 1289
f 1162 1161 1288
f 1163 1289 1290
f 1163 1162 1289
f 1164 1290 1291
f 1164 1163 1290
f 1165 1291 1292
f 1165 1164 1291
f 1166 1292 1293
f 1166 1293 1294
f 1166 1165 1292
f 1167 1166 1294
f 1168 1294 1295
f 1168 1167 1294
f 1169 1295 1296
f 1169 1168 1295
f 1170 1296 1297
f 1170 1169 1296
f 1171 1297 1298
f 1171 1170 1297
f 1172 1298 1299
f 1172 1171 1298
f 1173 1299 1300
f 1173 1300 1301
f 1173 1172 1299
f 1174 1173 1301
f 1174 1301 1302
f 1175 1174 1302
f 1176 1175 1302
f 1176 1302 1303
f 1176 1303 1304
f 1177 1176 1304
f 1177 1304 1305
f 1178 1177 1305
f 1179 1178 1305
f 1179 1305 1306
f 1180 1179 1306
f 1180 1306 1307
f 1181 1180 1307
f 1181 1307 1308
f 1182 1181 1308
f 1182 1308 1309
f 1183 1182 1309
f 1183 1309 1310
f 1184 1183 1310
f 1184 1310 1311
f 1185 1184 1311
f 1185 1311 1312
f 1186 1312 1313
f 1186 1185 1312
f 1187 1313 1314
f 1187 1186 1313
f 1316 1315 1442
f 1316 1442 1443
f 1317 1443 1444
f 1317 1316 1443
f 1318 1444 1445
f 1318 1317 1444
f 1319 1445 1446
f 1319 1446 1447
f 1319 1318 1445
f 1320 1319 1447
f 1321 1447 1448
f 1321 1320 1447
f 1322 1448 1449
f 1322 1449 1450
f 1322 1321 1448
f 1323 1322 1450
f 1324 1450 1451
f 1324 1451 1452
f 1324 1323 1450
f 1325 1452 1453
f 1325 1324 1452
f 1326 1325 1453
f 1326 1453 1454
f 1327 1326 1454
f 1328 1327 1454
f 1328 1454 1455
f 1328 1455 1456
f 1329 1328 1456
f 1330 1329 1456
f 1330 1456 1457
f 1331 1330 1457
f 1331 1457 1458
f 1332 1331 1458
f 1332 1458 1459
f 1333 1332 1459
f 1333 1459 1460
f 1333 1460 1461
f 1334 1333 1461
f 1335 1334 1461
f 1335 1461 1462
f 1336 1335 1462
f 1336 1462 1463
f 1337 1336 1463
f 1337 1463 1464
f 1337 1464 1465
f 1338 1337 1465
f 1339 1465 1466
f 1339 1338 1465
f 1340 1466 1467
f 1340 1339 1466
f 1341 1467 1468
f 1341 1340 1467
f 1342 1468 1469
f 1342 1341 1468
f 1343 1469 1470
f 1343 1470 1471
f 1343 1342 1469
f 1344 1343 1471
f 1345 1471 1472
f 1345 1472 1473
f 1345 1344 1471
f 1346 1345 1473
f 1347 1473 1474
f 1347 1474 1475
f 1347 1346 1473
f 1348 1347 1475
f 1349 1475 1476
f 1349 1476 1477
f 1349 1348 1475
f 1350 1477 1478
f 1350 1349 1477
f 1351 1350 1478
f 1352 1351 1478
f 1352 1478 1479
f 1353 1352 1479
f 1353 1479 1480
f 1354 1353 1480
f 1354 1480 1481
f 1355 1354 1481
f 1355 1481 1482
f 1356 1355 1482
f 1356 1482 1483
f 1357 1356 1483
f 1357 1483 1484
f 1358 1357 1484
f 1358 1484 1485
f 1359 1358 1485
f 1359 1485 1486
f 1359 1486 1487
f 1360 1359 1487
f 1360 1487 1488
f 1361 1360 1488
f 1361 1488 1489
f 1362 1361 1489
f 1363 1362 1489
f 1363 1489 1490
f 1363 1490 1491
f 1364 1363 1491
f 1364 1491 1492
f 1365 1364 1492
f 1366 1365 1492
f 1366 1492 1493
f 1367 1366 1493
f 1367 1493 1494
f 1368 1367 1494
f 1368 1494 1495
f 1369 1368 1495
f 1369 1495 1496
f 1370 1369 1496
f 1370 1496 1497
f 1370 1497 1498
f 1371 1370 1498
f 1372 1371 1498
f 1372 1498 1499
f 1373 1499 1500
f 1373 1372 1499
f 1374 1500 1501
f 1374 1373 1500
f 1375 1501 1502
f 1375 1374 1501
f 1376 1502 1503
f 1376 1375 1502
f 1377 1376 1503
f 1377 1503 1504
f 1378 1377 1504
f 1378 1504 1505
f 1379 1378 1505
f 1379 1505 1506
f 1380 1379 1506
f 1380 1506 1507
f 1380 1507 1508
f 1381 1380 1508
f 1382 1381 1508
f 1382 1508 1509
f 1382 1509 1510
f 1383 1382 1510
f 1384 1383 1510
f 1384 1510 1511
f 1384 1511 1512
f 1385 1384 1512
f 1386 1385 1512
f 1386 1512 1513
f 1387 1386 1513
f 1387 1513 1514
f 1387 1514 1515
f 1388 1387 1515
f 1389 1516 1517
f 1389 1388 1515
f 1389 1515 1516
f 1390 1389 1517
f 1391 1517 1518
f 1391 1518 1519
f 1391 1390 1517
f 1392 1391 1519
f 1393 1519 1520
f 1393 1392 1519
f 1394 1520 1521
f 1394 1521 1522
f 1394 1393 1520
f 1395 1394 1522
f 1396 1522 1523
f 1396 1395 1522
f 1397 1523 1524
f 1397 1524 1525
f 1397 1396 1523
f 1398 1525 1526
f 1398 1397 1525
f 1399 1398 1526
f 1400 1526 1527
f 1400 1399 1526
f 1401 1527 1528
f 1401 1400 1527
f 1402 1528 1529
f 1402 1401 1528
f 1403 1402 1529
f 1403 1529 1530
f 1404 1403 1530
f 1404 1530 1531
f 1405 1404 1531
f 1405 1531 1532
f 1406 1405 1532
f 1406 1532 1533
f 1407 1533 1534
f 1407 1406 1533
f 1408 1534 1535
f 1408 1535 1536
f 1408 1407 1534
f 1409 1408 1536
f 1410 1536 1537
f 1410 1537 1538
f 1410 1409 1536
f 1411 1410 1538
f 1412 1538 1539
f 1412 1411 1538
f 1413 1539 1540
f 1413 1412 1539
f 1414 1540 1541
f 1414 1413 1540
f 1415 1541 1542
f 1415 1414 1541
f 1416 1542 1543
f 1416 1415 1542
f 1417 1543 1544
f 1417 1416 1543
f 1418 1544 1545
f 1418 1417 1544
f 1419 1545 1546
f 1419 1418 1545
f 1420 1546 1547
f 1420 1547 1548
f 1420 1419 1546
f 1421 1420 1548
f 1422 1548 1549
f 1422 1421 1548
f 1423 1549 1550
f 1423 1422 1549
f 1424 1550 1551
f 1424 1423 1550
f 1425 1551 1552
f 1425 1424 1551
f 1426 1552 1553
f 1426 1425 1552
f 1427 1553 1554
f 1427 1554 1555
f 1427 1426 1553
f 1428 1427 1555
f 1428 1555 1556
f 1429 1428 1556
f 1430 1429 1556
f 1430 1556 1557
f 1430 1557 1558
f 1431 1430 1558
f 1431 1558 1559
f 1432 1431 1559
f 1433 1432 1559
f 1433 1559 1560
f 1434 1433 1560
f 1434 1560 1561
f 1435 1434 1561
f 1435 1561 1562
f 1436 1435 1562
f 1436 1562 1563
f 1437 1436 1563
f 1437 1563 1564
f 1438 1437 1564
f 1438 1564 1565
f 1439 1438 1565
f 1439 1565 1566
f 1440 1566 1567
f 1440 1439 1566
f 1441 1567 1568
f 1441 1440 1567
f 1650 1648 1649
f 1645 1646 1647
f 1643 1644 1645
f 1653 1650 1651
f 1653 1651 1652
f 1641 1642 1643
f 1657 1654 1655
f 1657 1655 1656
f 1638 1639 1640
f 1637 1638 1640
f 1637 1640 1641
f 1660 1657 1658
f 1660 1658 1659
f 1635 1645 1647
f 1635 1641 1643
f 1635 1643 1645
f 1635 1637 1641
f 1635 1636 1637
f 1661 1654 1657
f 1661 1657 1660
f 1661 1653 1654
f 1663 1648 1650
f 1663 1650 1653
f 1663 1653 1661
f 1663 1661 1662
f 1632 1633 1634
f 1632 1634 1635
f 1630 1631 1632
f 1666 1664 1665
f 1629 1630 1632
f 1667 1664 1666
f 1667 1663 1664
f 1626 1629 1632
f 1626 1627 1628
f 1626 1628 1629
f 1672 1669 1670
f 1672 1670 1671
f 1672 1663 1667
f 1672 1667 1668
f 1672 1668 1669
f 1623 1624 1625
f 1673 1663 1672
f 1621 1626 1632
f 1621 1623 1625
f 1621 1622 1623
f 1621 1625 1626
f 1621 1635 1647
f 1621 1647 1648
f 1621 1648 1663
f 1621 1632 1635
f 1675 1673 1674
f 1677 1675 1676
f 1677 1673 1675
f 1618 1621 1663
f 1618 1619 1620
f 1618 1620 1621
f 1681 1677 1678
f 1681 1678 1679
f 1681 1679 1680
f 1681 1673 1677
f 1613 1614 1615
f 1613 1615 1616
f 1613 1616 1617
f 1613 1617 1618
f 1684 1681 1682
f 1684 1682 1683
f 1611 1612 1613
f 1686 1684 1685
f 1609 1610 1611
f 1609 1611 1613
f 1687 1684 1686
f 1607 1608 1609
f 1606 1607 1609
f 1691 1689 1690
f 1604 1605 1606
f 1604 1613 1618
f 1604 1609 1613
f 1604 1606 1609
f 1692 1688 1689
f 1692 1689 1691
f 1603 1663 1673
f 1603 1618 1663
f 1603 1673 1681
f 1603 1604 1618
f 1603 1681 1684
f 1693 1687 1688
f 1693 1688 1692
f 1693 1684 1687
f 1601 1602 1603
f 1570 1694 1569
f 1598 1599 1600
f 1598 1600 1601
f 1572 1570 1571
f 1572 1694 1570
f 1572 1693 1694
f 1596 1597 1598
f 1574 1572 1573
f 1595 1596 1598
f 1594 1598 1601
f 1594 1595 1598
f 1594 1601 1603
f 1576 1574 1575
f 1577 1572 1574
f 1577 1574 1576
f 1578 1572 1577
f 1590 1591 1592
f 1590 1592 1593
f 1588 1684 1693
f 1588 1603 1684
f 1588 1589 1590
f 1588 1693 1572
f 1588 1593 1594
f 1588 1572 1578
f 1588 1594 1603
f 1588 1590 1593
f 1582 1580 1581
f 1584 1578 1579
f 1584 1579 1580
f 1584 1582 1583
f 1584 1580 1582
f 1585 1586 1587
f 1585 1587 1588
f 1585 1588 1578
f 1585 1578 1584
f 1776 1774 1775
f 1771 1772 1773
f 1769 1770 1771
f 1779 1776 1777
f 1779 1777 1778
f 1767 1768 1769
f 1783 1780 1781
f 1783 1781 1782
f 1764 1765 1766
f 1763 1764 1766
f 1763 1766 1767
f 1786 1783 1784
f 1786 1784 1785
f 1761 1771 1773
f 1761 1767 1769
f 1761 1769 1771
f 1761 1763 1767
f 1761 1762 1763
f 1787 1780 1783
f 1787 1783 1786
f 1787 1779 1780
f 1789 1774 1776
f 1789 1776 1779
f 1789 1779 1787
f 1789 1787 1788
f 1758 1759 1760
f 1758 1760 1761
f 1756 1757 1758
f 1792 1790 1791
f 1755 1756 1758
f 1793 1790 1792
f 1793 1789 1790
f 1752 1755 1758
f 1752 1753 1754
f 1752 1754 1755
f 1798 1795 1796
f 1798 1796 1797
f 1798 1789 1793
f 1798 1793 1794
f 1798 1794 1795
f 1749 1750 1751
f 1799 1789 1798
f 1747 1752 1758
f 1747 1749 1751
f 1747 1748 1749
f 1747 1751 1752
f 1747 1761 1773
f 1747 1773 1774
f 1747 1774 1789
f 1747 1758 1761
f 1801 1799 1800
f 1803 1801 1802
f 1803 1799 1801
f 1744 1747 1789
f 1744 1745 1746
f 1744 1746 1747
f 1807 1803 1804
f 1807 1804 1805
f 1807 1805 1806
f 1807 1799 1803
f 1739 1740 1741
f 1739 1741 1742
f 1739 1742 1743
f 1739 1743 1744
f 1810 1807 1808
f 1810 1808 1809
f 1737 1738 1739
f 1812 1810 1811
f 1735 1736 1737
f 1735 1737 1739
f 1813 1810 1812
f 1733 1734 1735
f 1732 1733 1735
f 1817 1815 1816
f 1730 1731 1732
f 1730 1739 1744
f 1730 1735 1739
f 1730 1732 1735
f 1818 1814 1815
f 1818 1815 1817
f 1729 1789 1799
f 1729 1744 1789
f 1729 1799 1807
f 1729 1730 1744
f 1729 1807 1810
f 1819 1813 1814
f 1819 1814 1818
f 1819 1810 1813
f 1727 1728 1729
f 1696 1820 1695
f 1724 1725 1726
f 1724 1726 1727
f 1698 1696 1697
f 1698 1820 1696
f 1698 1819 1820
f 1722 1723 1724
f 1700 1698 1699
f 1721 1722 1724
f 1720 1724 1727
f 1720 1721 1724
f 1720 1727 1729
f 1702 1700 1701
f 1703 1698 1700
f 1703 1700 1702
f 1704 1698 1703
f 1716 1717 1718
f 1716 1718 1719
f 1714 1810 1819
f 1714 1729 1810
f 1714 1715 1716
f 1714 1819 1698
f 1714 1719 1720
f 1714 1698 1704
f 1714 1720 1729
f 1714 1716 1719
f 1708 1706 1707
f 1710 1704 1705
f 1710 1705 1706
f 1710 1708 1709
f 1710 1706 1708
f 1711 1712 1713
f 1711 1713 1714
f 1711 1714 1704
f 1711 1704 1710
f 1902 1900 1901
f 1897 1898 1899
f 1895 1896 1897
f 1905 1902 1903
f 1905 1903 1904
f 1893 1894 1895
f 1909 1906 1907
f 1909 1907 1908
f 1890 1891 1892
f 1889 1890 1892
f 1889 1892 1893
f 1912 1909 1910
f 1912 1910 1911
f 1887 1897 1899
f 1887 1893 1895
f 1887 1895 1897
f 1887 1889 1893
f 1887 1888 1889
f 1913 1906 1909
f 1913 1909 1912
f 1913 1905 1906
f 1915 1900 1902
f 1915 1902 1905
f 1915 1905 1913
f 1915 1913 1914
f 1884 1885 1886
f 1884 1886 1887
f 1882 1883 1884
f 1918 1916 1917
f 1881 1882 1884
f 1919 1916 1918
f 1919 1915 1916
f 1878 1881 1884
f 1878 1879 1880
f 1878 1880 1881
f 1924 1921 1922
f 1924 1922 1923
f 1924 1915 1919
f 1924 1919 1920
f 1924 1920 1921
f 1875 1876 1877
f 1925 1915 1924
f 1873 1878 1884
f 1873 1875 1877
f 1873 1874 1875
f 1873 1877 1878
f 1873 1887 1899
f 1873 1899 1900
f 1873 1900 1915
f 1873 1884 1887
f 1927 1925 1926
f 1929 1927 1928
f 1929 1925 1927
f 1870 1873 1915
f 1870 1871 1872
f 1870 1872 1873
f 1933 1929 1930
f 1933 1930 1931
f 1933 1931 1932
f 1933 1925 1929
f 1865 1866 1867
f 1865 1867 1868
f 1865 1868 1869
f 1865 1869 1870
f 1936 1933 1934
f 1936 1934 1935
f 1863 1864 1865
f 1938 1936 1937
f 1861 1862 1863
f 1861 1863 1865
f 1939 1936 1938
f 1859 1860 1861
f 1858 1859 1861
f 1943 1941 1942
f 1856 1857 1858
f 1856 1865 1870
f 1856 1861 1865
f 1856 1858 1861
f 1944 1940 1941
f 1944 1941 1943
f 1855 1915 1925
f 1855 1870 1915
f 1855 1925 1933
f 1855 1856 1870
f 1855 1933 1936
f 1945 1939 1940
f 1945 1940 1944
f 1945 1936 1939
f 1853 1854 1855
f 1822 1946 1821
f 1850 1851 1852
f 1850 1852 1853
f 1824 1822 1823
f 1824 1946 1822
f 1824 1945 1946
f 1848 1849 1850
f 1826 1824 1825
f 1847 1848 1850
f 1846 1850 1853
f 1846 1847 1850
f 1846 1853 1855
f 1828 1826 1827
f 1829 1824 1826
f 1829 1826 1828
f 1830 1824 1829
f 1842 1843 1844
f 1842 1844 1845
f 1840 1936 1945
f 1840 1855 1936
f 1840 1841 1842
f 1840 1945 1824
f 1840 1845 1846
f 1840 1824 1830
f 1840 1846 1855
f 1840 1842 1845
f 1834 1832 1833
f 1836 1830 1831
f 1836 1831 1832
f 1836 1834 1835
f 1836 1832 1834
f 1837 1838 1839
f 1837 1839 1840
f 1837 1840 1830
f 1837 1830 1836
f 2028 2026 2027
f 2023 2024 2025
f 2021 2022 2023
f 2031 2028 2029
f 2031 2029 2030
f 2019 2020 2021
f 2035 2032 2033
f 2035 2033 2034
f 2016 2017 2018
f 2015 2016 2018
f 2015 2018 2019
f 2038 2035 2036
f 2038 2036 2037
f 2013 2023 2025
f 2013 2019 2021
f 2013 2021 2023
f 2013 2015 2019
f 2013 2014 2015
f 2039 2032 2035
f 2039 2035 2038
f 2039 2031 2032
f 2041 2026 2028
f 2041 2028 2031
f 2041 2031 2039
f 2041 2039 2040
f 2010 2011 2012
f 2010 2012 2013
f 2008 2009 2010
f 2044 2042 2043
f 2007 2008 2010
f 2045 2042 2044
f 2045 2041 2042
f 2004 2007 2010
f 2004 2005 2006
f 2004 2006 2007
f 2050 2047 2048
f 2050 2048 2049
f 2050 2041 2045
f 2050 2045 2046
f 2050 2046 2047
f 2001 2002 2003
f 2051 2041 2050
f 1999 2004 2010
f 1999 2001 2003
f 1999 2000 2001
f 1999 2003 2004
f 1999 2013 2025
f 1999 2025 2026
f 1999 2026 2041
f 1999 2010 2013
f 2053 2051 2052
f 2055 2053 2054
f 2055 2051 2053
f 1996 1999 2041
f 1996 1997 1998
f 1996 1998 1999
f 2059 2055 2056
f 2059 2056 2057
f 2059 2057 2058
f 2059 2051 2055
f 1991 1992 1993
f 1991 1993 1994
f 1991 1994 1995
f 1991 1995 1996
f 2062 2059 2060
f 2062 2060 2061
f 1989 1990 1991
f 2064 2062 2063
f 1987 1988 1989
f 1987 1989 1991
f 2065 2062 2064
f 1985 1986 1987
f 1984 1985 1987
f 2069 2067 2068
f 1982 1983 1984
f 1982 1991 1996
f 1982 1987 1991
f 1982 1984 1987
f 2070 2066 2067
f 2070 2067 2069
f 1981 2041 2051
f 1981 1996 2041
f 1981 2051 2059
f 1981 1982 1996
f 1981 2059 2062
f 2071 2065 2066
f 2071 2066 2070
f 2071 2062 2065
f 1979 1980 1981
f 1948 2072 1947
f 1976 1977 1978
f 1976 1978 1979
f 1950 1948 1949
f 1950 2072 1948
f 1950 2071 2072
f 1974 1975 1976
f 1952 1950 1951
f 1973 1974 1976
f 1972 1976 1979
f 1972 1973 1976
f 1972 1979 1981
f 1954 1952 1953
f 1955 1950 1952
f 1955 1952 1954
f 1956 1950 1955
f 1968 1969 1970
f 1968 1970 1971
f 1966 2062 2071
f 1966 1981 2062
f 1966 1967 1968
f 1966 2071 1950
f 1966 1971 1972
f 1966 1950 1956
f 1966 1972 1981
f 1966 1968 1971
f 1960 1958 1959
f 1962 1956 1957
f 1962 1957 1958
f 1962 1960 1961
f 1962 1958 1960
f 1963 1964 1965
f 1963 1965 1966
f 1963 1966 1956
f 1963 1956 1962
