# Cadless export: model
v 700 -200 0
v 700 -200 450
v 700 200 0
v 700 200 450
v -700 -200 0
v 700 -200 0
v -700 -200 450
v 700 -200 450
v -682 -200 432
v -9 -200 432
v -682 -200 18
v -9 -200 18
v 9 -200 432
v 682 -200 432
v 9 -200 18
v 682 -200 18
v -700 -200 450
v -700 200 450
v 700 -200 450
v 700 200 450
v -700 200 0
v 700 200 0
v -700 200 450
v 700 200 450
v -700 -200 0
v -700 200 0
v 700 -200 0
v 700 200 0
v -700 -200 0
v -700 -200 450
v -700 200 0
v -700 200 450
v -682 -200 432
v -682 182 432
v -9 -200 432
v -9 182 432
v 9 -200 432
v 9 182 432
v 682 -200 432
v 682 182 432
v -682 -200 18
v -682 -200 432
v -682 182 18
v -682 182 432
v -682 -200 18
v -682 182 18
v -9 -200 18
v -9 182 18
v 9 -200 18
v 9 182 18
v 682 -200 18
v 682 182 18
v 682 -200 18
v 682 -200 432
v 682 182 18
v 682 182 432
v -9 182 18
v -9 182 432
v -682 182 18
v -682 182 432
v -9 -200 18
v -9 -200 432
v -9 182 18
v -9 182 432
v 9 -200 18
v 9 -200 432
v 9 182 18
v 9 182 432
v 682 182 18
v 682 182 432
v 9 182 18
v 9 182 432
f 2 1 3
f 2 3 4
f 7 11 9
f 7 5 11
f 12 11 5
f 10 7 9
f 13 10 12
f 13 12 15
f 6 16 15
f 8 13 14
f 8 14 16
f 8 16 6
f 6 12 5
f 6 15 12
f 7 13 8
f 7 10 13
f 19 18 17
f 20 18 19
f 24 22 21
f 24 21 23
f 27 25 26
f 28 27 26
f 30 31 29
f 30 32 31
f 35 33 34
f 36 35 34
f 40 37 38
f 40 39 37
f 42 41 43
f 42 43 44
f 47 46 45
f 48 46 47
f 52 50 49
f 52 49 51
f 54 55 53
f 54 56 55
f 58 59 57
f 58 60 59
f 62 63 61
f 62 64 63
f 66 65 67
f 66 67 68
f 70 71 69
f 70 72 71
