# Cadless export: model
v -50 -30 3
v -50 30 3
v -50 -30 0
v -50 30 0
v -50 -30 3
v -50 30 3
v -49.994 -30.2453 3
v -49.9759 -30.4901 3
v -49.9459 -30.7337 3
v -49.9039 -30.9755 3
v -49.8502 -31.2149 3
v -49.7847 -31.4514 3
v -49.7077 -31.6844 3
v -49.6194 -31.9134 3
v -49.5199 -32.1378 3
v -49.4096 -32.357 3
v -49.2886 -32.5705 3
v -49.1573 -32.7779 3
v -49.016 -32.9785 3
v -48.8651 -33.172 3
v -48.7048 -33.3578 3
v -48.5355 -33.5355 3
v -48.3578 -33.7048 3
v -48.172 -33.8651 3
v -47.9785 -34.016 3
v -47.7779 -34.1573 3
v -47.5705 -34.2886 3
v -47.357 -34.4096 3
v -47.1378 -34.5199 3
v -46.9134 -34.6194 3
v -46.6844 -34.7077 3
v -46.4514 -34.7847 3
v -46.2149 -34.8502 3
v -45.9755 -34.9039 3
v -45.7337 -34.9459 3
v -45.4901 -34.9759 3
v -45.2453 -34.994 3
v -45 -35 3
v 45 -35 3
v 50 -30 3
v 49.994 -30.2453 3
v 49.9759 -30.4901 3
v 49.9459 -30.7337 3
v 49.9039 -30.9755 3
v 49.8502 -31.2149 3
v 49.7847 -31.4514 3
v 49.7077 -31.6844 3
v 49.6194 -31.9134 3
v 49.5199 -32.1378 3
v 49.4096 -32.357 3
v 49.2886 -32.5705 3
v 49.1573 -32.7779 3
v 49.016 -32.9785 3
v 48.8651 -33.172 3
v 48.7048 -33.3578 3
v 48.5355 -33.5355 3
v 48.3578 -33.7048 3
v 48.172 -33.8651 3
v 47.9785 -34.016 3
v 47.7779 -34.1573 3
v 47.5705 -34.2886 3
v 47.357 -34.4096 3
v 47.1378 -34.5199 3
v 46.9134 -34.6194 3
v 46.6844 -34.7077 3
v 46.4514 -34.7847 3
v 46.2149 -34.8502 3
v 45.9755 -34.9039 3
v 45.7337 -34.9459 3
v 45.4901 -34.9759 3
v 45.2453 -34.994 3
v 50 30 3
v 49.994 30.2453 3
v 49.9759 30.4901 3
v 49.9459 30.7337 3
v 49.9039 30.9755 3
v 49.8502 31.2149 3
v 49.7847 31.4514 3
v 49.7077 31.6844 3
v 49.6194 31.9134 3
v 49.5199 32.1378 3
v 49.4096 32.357 3
v 49.2886 32.5705 3
v 49.1573 32.7779 3
v 49.016 32.9785 3
v 48.8651 33.172 3
v 48.7048 33.3578 3
v 48.5355 33.5355 3
v 48.3578 33.7048 3
v 48.172 33.8651 3
v 47.9785 34.016 3
v 47.7779 34.1573 3
v 47.5705 34.2886 3
v 47.357 34.4096 3
v 47.1378 34.5199 3
v 46.9134 34.6194 3
v 46.6844 34.7077 3
v 46.4514 34.7847 3
v 46.2149 34.8502 3
v 45.9755 34.9039 3
v 45.7337 34.9459 3
v 45.4901 34.9759 3
v 45.2453 34.994 3
v 45 35 3
v -45 35 3
v -49.994 30.2453 3
v -49.9759 30.4901 3
v -49.9459 30.7337 3
v -49.9039 30.9755 3
v -49.8502 31.2149 3
v -49.7847 31.4514 3
v -49.7077 31.6844 3
v -49.6194 31.9134 3
v -49.5199 32.1378 3
v -49.4096 32.357 3
v -49.2886 32.5705 3
v -49.1573 32.7779 3
v -49.016 32.9785 3
v -48.8651 33.172 3
v -48.7048 33.3578 3
v -48.5355 33.5355 3
v -48.3578 33.7048 3
v -48.172 33.8651 3
v -47.9785 34.016 3
v -47.7779 34.1573 3
v -47.5705 34.2886 3
v -47.357 34.4096 3
v -47.1378 34.5199 3
v -46.9134 34.6194 3
v -46.6844 34.7077 3
v -46.4514 34.7847 3
v -46.2149 34.8502 3
v -45.9755 34.9039 3
v -45.7337 34.9459 3
v -45.4901 34.9759 3
v -45.2453 34.994 3
v -50 -30 0
v -49.994 -30.2453 0
v -49.9759 -30.4901 0
v -49.9459 -30.7337 0
v -49.9039 -30.9755 0
v -49.8502 -31.2149 0
v -49.7847 -31.4514 0
v -49.7077 -31.6844 0
v -49.6194 -31.9134 0
v -49.5199 -32.1378 0
v -49.4096 -32.357 0
v -49.2886 -32.5705 0
v -49.1573 -32.7779 0
v -49.016 -32.9785 0
v -48.8651 -33.172 0
v -48.7048 -33.3578 0
v -48.5355 -33.5355 0
v -48.3578 -33.7048 0
v -48.172 -33.8651 0
v -47.9785 -34.016 0
v -47.7779 -34.1573 0
v -47.5705 -34.2886 0
v -47.357 -34.4096 0
v -47.1378 -34.5199 0
v -46.9134 -34.6194 0
v -46.6844 -34.7077 0
v -46.4514 -34.7847 0
v -46.2149 -34.8502 0
v -45.9755 -34.9039 0
v -45.7337 -34.9459 0
v -45.4901 -34.9759 0
v -45.2453 -34.994 0
v -45 -35 0
v -45 -35 3
v -50 -30 3
v -49.994 -30.2453 3
v -49.9759 -30.4901 3
v -49.9459 -30.7337 3
v -49.9039 -30.9755 3
v -49.8502 -31.2149 3
v -49.7847 -31.4514 3
v -49.7077 -31.6844 3
v -49.6194 -31.9134 3
v -49.5199 -32.1378 3
v -49.4096 -32.357 3
v -49.2886 -32.5705 3
v -49.1573 -32.7779 3
v -49.016 -32.9785 3
v -48.8651 -33.172 3
v -48.7048 -33.3578 3
v -48.5355 -33.5355 3
v -48.3578 -33.7048 3
v -48.172 -33.8651 3
v -47.9785 -34.016 3
v -47.7779 -34.1573 3
v -47.5705 -34.2886 3
v -47.357 -34.4096 3
v -47.1378 -34.5199 3
v -46.9134 -34.6194 3
v -46.6844 -34.7077 3
v -46.4514 -34.7847 3
v -46.2149 -34.8502 3
v -45.9755 -34.9039 3
v -45.7337 -34.9459 3
v -45.4901 -34.9759 3
v -45.2453 -34.994 3
v -50 30 0
v -49.994 30.2453 0
v -49.9759 30.4901 0
v -49.9459 30.7337 0
v -49.9039 30.9755 0
v -49.8502 31.2149 0
v -49.7847 31.4514 0
v -49.7077 31.6844 0
v -49.6194 31.9134 0
v -49.5199 32.1378 0
v -49.4096 32.357 0
v -49.2886 32.5705 0
v -49.1573 32.7779 0
v -49.016 32.9785 0
v -48.8651 33.172 0
v -48.7048 33.3578 0
v -48.5355 33.5355 0
v -48.3578 33.7048 0
v -48.172 33.8651 0
v -47.9785 34.016 0
v -47.7779 34.1573 0
v -47.5705 34.2886 0
v -47.357 34.4096 0
v -47.1378 34.5199 0
v -46.9134 34.6194 0
v -46.6844 34.7077 0
v -46.4514 34.7847 0
v -46.2149 34.8502 0
v -45.9755 34.9039 0
v -45.7337 34.9459 0
v -45.4901 34.9759 0
v -45.2453 34.994 0
v -45 35 0
v -45 35 3
v -50 30 3
v -49.994 30.2453 3
v -49.9759 30.4901 3
v -49.9459 30.7337 3
v -49.9039 30.9755 3
v -49.8502 31.2149 3
v -49.7847 31.4514 3
v -49.7077 31.6844 3
v -49.6194 31.9134 3
v -49.5199 32.1378 3
v -49.4096 32.357 3
v -49.2886 32.5705 3
v -49.1573 32.7779 3
v -49.016 32.9785 3
v -48.8651 33.172 3
v -48.7048 33.3578 3
v -48.5355 33.5355 3
v -48.3578 33.7048 3
v -48.172 33.8651 3
v -47.9785 34.016 3
v -47.7779 34.1573 3
v -47.5705 34.2886 3
v -47.357 34.4096 3
v -47.1378 34.5199 3
v -46.9134 34.6194 3
v -46.6844 34.7077 3
v -46.4514 34.7847 3
v -46.2149 34.8502 3
v -45.9755 34.9039 3
v -45.7337 34.9459 3
v -45.4901 34.9759 3
v -45.2453 34.994 3
v -50 -30 0
v -50 30 0
v -49.994 -30.2453 0
v -49.9759 -30.4901 0
v -49.9459 -30.7337 0
v -49.9039 -30.9755 0
v -49.8502 -31.2149 0
v -49.7847 -31.4514 0
v -49.7077 -31.6844 0
v -49.6194 -31.9134 0
v -49.5199 -32.1378 0
v -49.4096 -32.357 0
v -49.2886 -32.5705 0
v -49.1573 -32.7779 0
v -49.016 -32.9785 0
v -48.8651 -33.172 0
v -48.7048 -33.3578 0
v -48.5355 -33.5355 0
v -48.3578 -33.7048 0
v -48.172 -33.8651 0
v -47.9785 -34.016 0
v -47.7779 -34.1573 0
v -47.5705 -34.2886 0
v -47.357 -34.4096 0
v -47.1378 -34.5199 0
v -46.9134 -34.6194 0
v -46.6844 -34.7077 0
v -46.4514 -34.7847 0
v -46.2149 -34.8502 0
v -45.9755 -34.9039 0
v -45.7337 -34.9459 0
v -45.4901 -34.9759 0
v -45.2453 -34.994 0
v -45 -35 0
v 45 -35 0
v 50 -30 0
v 49.994 -30.2453 0
v 49.9759 -30.4901 0
v 49.9459 -30.7337 0
v 49.9039 -30.9755 0
v 49.8502 -31.2149 0
v 49.7847 -31.4514 0
v 49.7077 -31.6844 0
v 49.6194 -31.9134 0
v 49.5199 -32.1378 0
v 49.4096 -32.357 0
v 49.2886 -32.5705 0
v 49.1573 -32.7779 0
v 49.016 -32.9785 0
v 48.8651 -33.172 0
v 48.7048 -33.3578 0
v 48.5355 -33.5355 0
v 48.3578 -33.7048 0
v 48.172 -33.8651 0
v 47.9785 -34.016 0
v 47.7779 -34.1573 0
v 47.5705 -34.2886 0
v 47.357 -34.4096 0
v 47.1378 -34.5199 0
v 46.9134 -34.6194 0
v 46.6844 -34.7077 0
v 46.4514 -34.7847 0
v 46.2149 -34.8502 0
v 45.9755 -34.9039 0
v 45.7337 -34.9459 0
v 45.4901 -34.9759 0
v 45.2453 -34.994 0
v 50 30 0
v 49.994 30.2453 0
v 49.9759 30.4901 0
v 49.9459 30.7337 0
v 49.9039 30.9755 0
v 49.8502 31.2149 0
v 49.7847 31.4514 0
v 49.7077 31.6844 0
v 49.6194 31.9134 0
v 49.5199 32.1378 0
v 49.4096 32.357 0
v 49.2886 32.5705 0
v 49.1573 32.7779 0
v 49.016 32.9785 0
v 48.8651 33.172 0
v 48.7048 33.3578 0
v 48.5355 33.5355 0
v 48.3578 33.7048 0
v 48.172 33.8651 0
v 47.9785 34.016 0
v 47.7779 34.1573 0
v 47.5705 34.2886 0
v 47.357 34.4096 0
v 47.1378 34.5199 0
v 46.9134 34.6194 0
v 46.6844 34.7077 0
v 46.4514 34.7847 0
v 46.2149 34.8502 0
v 45.9755 34.9039 0
v 45.7337 34.9459 0
v 45.4901 34.9759 0
v 45.2453 34.994 0
v 45 35 0
v -45 35 0
v -49.994 30.2453 0
v -49.9759 30.4901 0
v -49.9459 30.7337 0
v -49.9039 30.9755 0
v -49.8502 31.2149 0
v -49.7847 31.4514 0
v -49.7077 31.6844 0
v -49.6194 31.9134 0
v -49.5199 32.1378 0
v -49.4096 32.357 0
v -49.2886 32.5705 0
v -49.1573 32.7779 0
v -49.016 32.9785 0
v -48.8651 33.172 0
v -48.7048 33.3578 0
v -48.5355 33.5355 0
v -48.3578 33.7048 0
v -48.172 33.8651 0
v -47.9785 34.016 0
v -47.7779 34.1573 0
v -47.5705 34.2886 0
v -47.357 34.4096 0
v -47.1378 34.5199 0
v -46.9134 34.6194 0
v -46.6844 34.7077 0
v -46.4514 34.7847 0
v -46.2149 34.8502 0
v -45.9755 34.9039 0
v -45.7337 34.9459 0
v -45.4901 34.9759 0
v -45.2453 34.994 0
v -45 -35 0
v 45 -35 0
v -45 -35 3
v 45 -35 3
v -45 35 0
v 45 35 0
v -45 35 3
v 45 35 3
v 50 -30 0
v 49.994 -30.2453 0
v 49.9759 -30.4901 0
v 49.9459 -30.7337 0
v 49.9039 -30.9755 0
v 49.8502 -31.2149 0
v 49.7847 -31.4514 0
v 49.7077 -31.6844 0
v 49.6194 -31.9134 0
v 49.5199 -32.1378 0
v 49.4096 -32.357 0
v 49.2886 -32.5705 0
v 49.1573 -32.7779 0
v 49.016 -32.9785 0
v 48.8651 -33.172 0
v 48.7048 -33.3578 0
v 48.5355 -33.5355 0
v 48.3578 -33.7048 0
v 48.172 -33.8651 0
v 47.9785 -34.016 0
v 47.7779 -34.1573 0
v 47.5705 -34.2886 0
v 47.357 -34.4096 0
v 47.1378 -34.5199 0
v 46.9134 -34.6194 0
v 46.6844 -34.7077 0
v 46.4514 -34.7847 0
v 46.2149 -34.8502 0
v 45.9755 -34.9039 0
v 45.7337 -34.9459 0
v 45.4901 -34.9759 0
v 45.2453 -34.994 0
v 45 -35 0
v 45 -35 3
v 50 -30 3
v 49.994 -30.2453 3
v 49.9759 -30.4901 3
v 49.9459 -30.7337 3
v 49.9039 -30.9755 3
v 49.8502 -31.2149 3
v 49.7847 -31.4514 3
v 49.7077 -31.6844 3
v 49.6194 -31.9134 3
v 49.5199 -32.1378 3
v 49.4096 -32.357 3
v 49.2886 -32.5705 3
v 49.1573 -32.7779 3
v 49.016 -32.9785 3
v 48.8651 -33.172 3
v 48.7048 -33.3578 3
v 48.5355 -33.5355 3
v 48.3578 -33.7048 3
v 48.172 -33.8651 3
v 47.9785 -34.016 3
v 47.7779 -34.1573 3
v 47.5705 -34.2886 3
v 47.357 -34.4096 3
v 47.1378 -34.5199 3
v 46.9134 -34.6194 3
v 46.6844 -34.7077 3
v 46.4514 -34.7847 3
v 46.2149 -34.8502 3
v 45.9755 -34.9039 3
v 45.7337 -34.9459 3
v 45.4901 -34.9759 3
v 45.2453 -34.994 3
v 50 30 0
v 49.994 30.2453 0
v 49.9759 30.4901 0
v 49.9459 30.7337 0
v 49.9039 30.9755 0
v 49.8502 31.2149 0
v 49.7847 31.4514 0
v 49.7077 31.6844 0
v 49.6194 31.9134 0
v 49.5199 32.1378 0
v 49.4096 32.357 0
v 49.2886 32.5705 0
v 49.1573 32.7779 0
v 49.016 32.9785 0
v 48.8651 33.172 0
v 48.7048 33.3578 0
v 48.5355 33.5355 0
v 48.3578 33.7048 0
v 48.172 33.8651 0
v 47.9785 34.016 0
v 47.7779 34.1573 0
v 47.5705 34.2886 0
v 47.357 34.4096 0
v 47.1378 34.5199 0
v 46.9134 34.6194 0
v 46.6844 34.7077 0
v 46.4514 34.7847 0
v 46.2149 34.8502 0
v 45.9755 34.9039 0
v 45.7337 34.9459 0
v 45.4901 34.9759 0
v 45.2453 34.994 0
v 45 35 0
v 45 35 3
v 50 30 3
v 49.994 30.2453 3
v 49.9759 30.4901 3
v 49.9459 30.7337 3
v 49.9039 30.9755 3
v 49.8502 31.2149 3
v 49.7847 31.4514 3
v 49.7077 31.6844 3
v 49.6194 31.9134 3
v 49.5199 32.1378 3
v 49.4096 32.357 3
v 49.2886 32.5705 3
v 49.1573 32.7779 3
v 49.016 32.9785 3
v 48.8651 33.172 3
v 48.7048 33.3578 3
v 48.5355 33.5355 3
v 48.3578 33.7048 3
v 48.172 33.8651 3
v 47.9785 34.016 3
v 47.7779 34.1573 3
v 47.5705 34.2886 3
v 47.357 34.4096 3
v 47.1378 34.5199 3
v 46.9134 34.6194 3
v 46.6844 34.7077 3
v 46.4514 34.7847 3
v 46.2149 34.8502 3
v 45.9755 34.9039 3
v 45.7337 34.9459 3
v 45.4901 34.9759 3
v 45.2453 34.994 3
v 50 -30 3
v 50 30 3
v 50 -30 0
v 50 30 0
f 1 4 3
f 1 2 4
f 20 21 22
f 25 23 24
f 27 25 26
f 17 18 19
f 28 25 27
f 15 16 17
f 15 19 20
f 15 22 23
f 15 28 29
f 15 20 22
f 15 23 25
f 15 17 19
f 15 25 28
f 31 29 30
f 13 14 15
f 13 15 29
f 13 29 31
f 10 11 12
f 10 12 13
f 10 13 31
f 35 32 33
f 35 33 34
f 38 31 32
f 38 35 36
f 38 36 37
f 38 32 35
f 5 7 8
f 5 8 9
f 5 9 10
f 5 10 31
f 5 31 38
f 6 5 38
f 108 107 106
f 109 108 106
f 111 110 109
f 111 109 106
f 113 112 111
f 114 106 6
f 114 111 106
f 114 113 111
f 116 115 114
f 118 117 116
f 121 119 118
f 121 120 119
f 121 116 114
f 121 118 116
f 122 114 6
f 122 121 114
f 123 122 6
f 126 124 123
f 126 125 124
f 128 127 126
f 129 123 6
f 129 126 123
f 129 128 126
f 131 130 129
f 135 132 131
f 135 133 132
f 135 134 133
f 105 6 38
f 105 136 135
f 105 131 129
f 105 129 6
f 105 135 131
f 39 105 38
f 68 70 69
f 66 68 67
f 66 71 70
f 66 70 68
f 65 39 71
f 65 71 66
f 64 39 65
f 62 64 63
f 61 64 62
f 60 64 61
f 58 60 59
f 58 64 60
f 57 64 58
f 56 39 64
f 56 64 57
f 53 55 54
f 53 56 55
f 52 56 53
f 52 39 56
f 50 52 51
f 48 52 50
f 48 39 52
f 48 50 49
f 46 39 48
f 46 48 47
f 44 46 45
f 41 39 46
f 41 46 44
f 41 43 42
f 41 44 43
f 40 39 41
f 104 105 39
f 72 39 40
f 72 104 39
f 102 103 104
f 74 104 72
f 74 72 73
f 100 104 74
f 100 102 104
f 100 101 102
f 77 74 75
f 77 75 76
f 99 100 74
f 78 74 77
f 97 98 99
f 96 99 74
f 96 74 78
f 96 97 99
f 96 78 79
f 94 95 96
f 93 94 96
f 92 93 96
f 84 80 81
f 84 81 82
f 84 82 83
f 85 79 80
f 85 80 84
f 86 79 85
f 89 90 91
f 87 96 79
f 87 79 86
f 87 92 96
f 87 91 92
f 88 91 87
f 88 89 91
f 172 137 138
f 172 171 137
f 173 138 139
f 173 172 138
f 174 139 140
f 174 173 139
f 175 140 141
f 175 174 140
f 176 141 142
f 176 175 141
f 177 142 143
f 177 176 142
f 178 143 144
f 178 177 143
f 179 144 145
f 179 178 144
f 180 179 145
f 180 145 146
f 181 146 147
f 181 180 146
f 182 147 148
f 182 181 147
f 183 148 149
f 183 182 148
f 184 149 150
f 184 183 149
f 185 150 151
f 185 151 152
f 185 184 150
f 186 185 152
f 187 152 153
f 187 186 152
f 188 153 154
f 188 187 153
f 189 154 155
f 189 155 156
f 189 188 154
f 190 189 156
f 191 156 157
f 191 190 156
f 192 157 158
f 192 158 159
f 192 191 157
f 193 192 159
f 194 159 160
f 194 193 159
f 195 160 161
f 195 194 160
f 196 161 162
f 196 195 161
f 197 162 163
f 197 196 162
f 198 163 164
f 198 197 163
f 199 164 165
f 199 165 166
f 199 198 164
f 200 199 166
f 201 166 167
f 201 200 166
f 202 167 168
f 202 201 167
f 170 168 169
f 170 202 168
f 238 204 203
f 238 203 237
f 239 205 204
f 239 204 238
f 240 206 205
f 240 207 206
f 240 205 239
f 241 207 240
f 242 208 207
f 242 207 241
f 243 209 208
f 243 208 242
f 244 210 209
f 244 209 243
f 245 211 210
f 245 212 211
f 245 210 244
f 246 212 245
f 247 213 212
f 247 212 246
f 248 214 213
f 248 213 247
f 249 215 214
f 249 216 215
f 249 214 248
f 250 217 216
f 250 216 249
f 251 217 250
f 252 218 217
f 252 217 251
f 253 219 218
f 253 218 252
f 254 220 219
f 254 219 253
f 255 221 220
f 255 220 254
f 256 222 221
f 256 223 222
f 256 221 255
f 257 223 256
f 258 224 223
f 258 223 257
f 259 225 224
f 259 224 258
f 260 226 225
f 260 227 226
f 260 225 259
f 261 228 227
f 261 227 260
f 262 228 261
f 263 229 228
f 263 228 262
f 264 230 229
f 264 231 230
f 264 229 263
f 265 232 231
f 265 231 264
f 266 232 265
f 267 233 232
f 267 232 266
f 268 234 233
f 268 235 234
f 268 233 267
f 236 235 268
f 284 286 285
f 289 288 287
f 291 290 289
f 281 283 282
f 292 291 289
f 279 281 280
f 279 284 283
f 279 287 286
f 279 293 292
f 279 286 284
f 279 289 287
f 279 283 281
f 279 292 289
f 295 294 293
f 277 279 278
f 277 293 279
f 277 295 293
f 274 276 275
f 274 277 276
f 274 295 277
f 299 297 296
f 299 298 297
f 302 296 295
f 302 300 299
f 302 301 300
f 302 299 296
f 269 272 271
f 269 273 272
f 269 274 273
f 269 295 274
f 269 302 295
f 270 302 269
f 372 370 371
f 373 370 372
f 375 373 374
f 375 370 373
f 377 375 376
f 378 270 370
f 378 370 375
f 378 375 377
f 380 378 379
f 382 380 381
f 385 382 383
f 385 383 384
f 385 378 380
f 385 380 382
f 386 270 378
f 386 378 385
f 387 270 386
f 390 387 388
f 390 388 389
f 392 390 391
f 393 270 387
f 393 387 390
f 393 390 392
f 395 393 394
f 399 395 396
f 399 396 397
f 399 397 398
f 369 302 270
f 369 399 400
f 369 393 395
f 369 270 393
f 369 395 399
f 303 302 369
f 332 333 334
f 330 331 332
f 330 334 335
f 330 332 334
f 329 335 303
f 329 330 335
f 328 329 303
f 326 327 328
f 325 326 328
f 324 325 328
f 322 323 324
f 322 324 328
f 321 322 328
f 320 328 303
f 320 321 328
f 317 318 319
f 317 319 320
f 316 317 320
f 316 320 303
f 314 315 316
f 312 314 316
f 312 316 303
f 312 313 314
f 310 312 303
f 310 311 312
f 308 309 310
f 305 310 303
f 305 308 310
f 305 306 307
f 305 307 308
f 304 305 303
f 368 303 369
f 336 304 303
f 336 303 368
f 366 368 367
f 338 336 368
f 338 337 336
f 364 338 368
f 364 368 366
f 364 366 365
f 341 339 338
f 341 340 339
f 363 338 364
f 342 341 338
f 361 363 362
f 360 338 363
f 360 342 338
f 360 363 361
f 360 343 342
f 358 360 359
f 357 360 358
f 356 360 357
f 348 345 344
f 348 346 345
f 348 347 346
f 349 344 343
f 349 348 344
f 350 349 343
f 353 355 354
f 351 343 360
f 351 350 343
f 351 360 356
f 351 356 355
f 352 351 355
f 352 355 353
f 402 403 401
f 404 403 402
f 406 405 407
f 408 406 407
f 444 410 409
f 444 409 443
f 445 411 410
f 445 410 444
f 446 412 411
f 446 411 445
f 447 413 412
f 447 412 446
f 448 414 413
f 448 413 447
f 449 415 414
f 449 414 448
f 450 416 415
f 450 415 449
f 451 417 416
f 451 416 450
f 452 417 451
f 452 418 417
f 453 419 418
f 453 418 452
f 454 420 419
f 454 419 453
f 455 421 420
f 455 420 454
f 456 422 421
f 456 421 455
f 457 423 422
f 457 424 423
f 457 422 456
f 458 424 457
f 459 425 424
f 459 424 458
f 460 426 425
f 460 425 459
f 461 427 426
f 461 428 427
f 461 426 460
f 462 428 461
f 463 429 428
f 463 428 462
f 464 430 429
f 464 431 430
f 464 429 463
f 465 431 464
f 466 432 431
f 466 431 465
f 467 433 432
f 467 432 466
f 468 434 433
f 468 433 467
f 469 435 434
f 469 434 468
f 470 436 435
f 470 435 469
f 471 437 436
f 471 438 437
f 471 436 470
f 472 438 471
f 473 439 438
f 473 438 472
f 474 440 439
f 474 439 473
f 442 441 440
f 442 440 474
f 510 475 476
f 510 509 475
f 511 476 477
f 511 510 476
f 512 477 478
f 512 478 479
f 512 511 477
f 513 512 479
f 514 479 480
f 514 513 479
f 515 480 481
f 515 514 480
f 516 481 482
f 516 515 481
f 517 482 483
f 517 483 484
f 517 516 482
f 518 517 484
f 519 484 485
f 519 518 484
f 520 485 486
f 520 519 485
f 521 486 487
f 521 487 488
f 521 520 486
f 522 488 489
f 522 521 488
f 523 522 489
f 524 489 490
f 524 523 489
f 525 490 491
f 525 524 490
f 526 491 492
f 526 525 491
f 527 492 493
f 527 526 492
f 528 493 494
f 528 494 495
f 528 527 493
f 529 528 495
f 530 495 496
f 530 529 495
f 531 496 497
f 531 530 496
f 532 497 498
f 532 498 499
f 532 531 497
f 533 499 500
f 533 532 499
f 534 533 500
f 535 500 501
f 535 534 500
f 536 501 502
f 536 502 503
f 536 535 501
f 537 503 504
f 537 536 503
f 538 537 504
f 539 504 505
f 539 538 504
f 540 505 506
f 540 506 507
f 540 539 505
f 508 540 507
f 541 543 544
f 541 544 542
