# Cadless export: model
v 42.75 -1.04707e-14 62
v 42.6969 2.13091 62
v 42.5376 4.25653 62
v 42.2725 6.37156 62
v 41.9024 8.47075 62
v 41.4281 10.5489 62
v 40.8507 12.6008 62
v 40.1719 14.6214 62
v 39.3931 16.6056 62
v 38.5164 18.5485 62
v 37.544 20.4454 62
v 36.4782 22.2914 62
v 35.3217 24.0819 62
v 34.0774 25.8126 62
v 32.7484 27.4792 62
v 31.338 29.0774 62
v 29.8496 30.6033 62
v 28.2871 32.0531 62
v 26.6542 33.4233 62
v 24.955 34.7103 62
v 23.1939 35.9111 62
v 21.375 37.0226 62
v 19.503 38.042 62
v 17.5825 38.9669 62
v 15.6183 39.7949 62
v 13.6153 40.5239 62
v 11.5784 41.1522 62
v 9.51277 41.6782 62
v 7.42346 42.1005 62
v 5.31569 42.4182 62
v 3.19471 42.6305 62
v 1.06579 42.7367 62
v -1.06579 42.7367 62
v -3.19471 42.6305 62
v -5.31569 42.4182 62
v -7.42346 42.1005 62
v -9.51277 41.6782 62
v -11.5784 41.1522 62
v -13.6153 40.5239 62
v -15.6183 39.7949 62
v -17.5825 38.9669 62
v -19.503 38.042 62
v -21.375 37.0226 62
v -23.1939 35.9111 62
v -24.955 34.7103 62
v -26.6542 33.4233 62
v -28.2871 32.0531 62
v -29.8496 30.6033 62
v -31.338 29.0774 62
v -32.7484 27.4792 62
v -34.0774 25.8126 62
v -35.3217 24.0819 62
v -36.4782 22.2914 62
v -37.544 20.4454 62
v -38.5164 18.5485 62
v -39.3931 16.6056 62
v -40.1719 14.6214 62
v -40.8507 12.6008 62
v -41.4281 10.5489 62
v -41.9024 8.47075 62
v -42.2725 6.37156 62
v -42.5376 4.25653 62
v -42.6969 2.13091 62
v -42.75 -1.46643e-13 62
v -42.6969 -2.13091 62
v -42.5376 -4.25653 62
v -42.2725 -6.37156 62
v -41.9024 -8.47075 62
v -41.4281 -10.5489 62
v -40.8507 -12.6008 62
v -40.1719 -14.6214 62
v -39.3931 -16.6056 62
v -38.5164 -18.5485 62
v -37.544 -20.4454 62
v -36.4782 -22.2914 62
v -35.3217 -24.0819 62
v -34.0774 -25.8126 62
v -32.7484 -27.4792 62
v -31.338 -29.0774 62
v -29.8496 -30.6033 62
v -28.2871 -32.0531 62
v -26.6542 -33.4233 62
v -24.955 -34.7103 62
v -23.1939 -35.9111 62
v -21.375 -37.0226 62
v -19.503 -38.042 62
v -17.5825 -38.9669 62
v -15.6183 -39.7949 62
v -13.6153 -40.5239 62
v -11.5784 -41.1522 62
v -9.51277 -41.6782 62
v -7.42346 -42.1005 62
v -5.31569 -42.4182 62
v -3.19471 -42.6305 62
v -1.06579 -42.7367 62
v 1.06579 -42.7367 62
v 3.19471 -42.6305 62
v 5.31569 -42.4182 62
v 7.42346 -42.1005 62
v 9.51277 -41.6782 62
v 11.5784 -41.1522 62
v 13.6153 -40.5239 62
v 15.6183 -39.7949 62
v 17.5825 -38.9669 62
v 19.503 -38.042 62
v 21.375 -37.0226 62
v 23.1939 -35.9111 62
v 24.955 -34.7103 62
v 26.6542 -33.4233 62
v 28.2871 -32.0531 62
v 29.8496 -30.6033 62
v 31.338 -29.0774 62
v 32.7484 -27.4792 62
v 34.0774 -25.8126 62
v 35.3217 -24.0819 62
v 36.4782 -22.2914 62
v 37.544 -20.4454 62
v 38.5164 -18.5485 62
v 39.3931 -16.6056 62
v 40.1719 -14.6214 62
v 40.8507 -12.6008 62
v 41.4281 -10.5489 62
v 41.9024 -8.47075 62
v 42.2725 -6.37156 62
v 42.5376 -4.25653 62
v 42.6969 -2.13091 62
v 42.75 -1.04707e-14 62
v 42.75 -1.04707e-14 0
v 42.6969 2.13091 0
v 42.5376 4.25653 0
v 42.2725 6.37156 0
v 41.9024 8.47075 0
v 41.4281 10.5489 0
v 40.8507 12.6008 0
v 40.1719 14.6214 0
v 39.3931 16.6056 0
v 38.5164 18.5485 0
v 37.544 20.4454 0
v 36.4782 22.2914 0
v 35.3217 24.0819 0
v 34.0774 25.8126 0
v 32.7484 27.4792 0
v 31.338 29.0774 0
v 29.8496 30.6033 0
v 28.2871 32.0531 0
v 26.6542 33.4233 0
v 24.955 34.7103 0
v 23.1939 35.9111 0
v 21.375 37.0226 0
v 19.503 38.042 0
v 17.5825 38.9669 0
v 15.6183 39.7949 0
v 13.6153 40.5239 0
v 11.5784 41.1522 0
v 9.51277 41.6782 0
v 7.42346 42.1005 0
v 5.31569 42.4182 0
v 3.19471 42.6305 0
v 1.06579 42.7367 0
v -1.06579 42.7367 0
v -3.19471 42.6305 0
v -5.31569 42.4182 0
v -7.42346 42.1005 0
v -9.51277 41.6782 0
v -11.5784 41.1522 0
v -13.6153 40.5239 0
v -15.6183 39.7949 0
v -17.5825 38.9669 0
v -19.503 38.042 0
v -21.375 37.0226 0
v -23.1939 35.9111 0
v -24.955 34.7103 0
v -26.6542 33.4233 0
v -28.2871 32.0531 0
v -29.8496 30.6033 0
v -31.338 29.0774 0
v -32.7484 27.4792 0
v -34.0774 25.8126 0
v -35.3217 24.0819 0
v -36.4782 22.2914 0
v -37.544 20.4454 0
v -38.5164 18.5485 0
v -39.3931 16.6056 0
v -40.1719 14.6214 0
v -40.8507 12.6008 0
v -41.4281 10.5489 0
v -41.9024 8.47075 0
v -42.2725 6.37156 0
v -42.5376 4.25653 0
v -42.6969 2.13091 0
v -42.75 -1.46643e-13 0
v -42.6969 -2.13091 0
v -42.5376 -4.25653 0
v -42.2725 -6.37156 0
v -41.9024 -8.47075 0
v -41.4281 -10.5489 0
v -40.8507 -12.6008 0
v -40.1719 -14.6214 0
v -39.3931 -16.6056 0
v -38.5164 -18.5485 0
v -37.544 -20.4454 0
v -36.4782 -22.2914 0
v -35.3217 -24.0819 0
v -34.0774 -25.8126 0
v -32.7484 -27.4792 0
v -31.338 -29.0774 0
v -29.8496 -30.6033 0
v -28.2871 -32.0531 0
v -26.6542 -33.4233 0
v -24.955 -34.7103 0
v -23.1939 -35.9111 0
v -21.375 -37.0226 0
v -19.503 -38.042 0
v -17.5825 -38.9669 0
v -15.6183 -39.7949 0
v -13.6153 -40.5239 0
v -11.5784 -41.1522 0
v -9.51277 -41.6782 0
v -7.42346 -42.1005 0
v -5.31569 -42.4182 0
v -3.19471 -42.6305 0
v -1.06579 -42.7367 0
v 1.06579 -42.7367 0
v 3.19471 -42.6305 0
v 5.31569 -42.4182 0
v 7.42346 -42.1005 0
v 9.51277 -41.6782 0
v 11.5784 -41.1522 0
v 13.6153 -40.5239 0
v 15.6183 -39.7949 0
v 17.5825 -38.9669 0
v 19.503 -38.042 0
v 21.375 -37.0226 0
v 23.1939 -35.9111 0
v 24.955 -34.7103 0
v 26.6542 -33.4233 0
v 28.2871 -32.0531 0
v 29.8496 -30.6033 0
v 31.338 -29.0774 0
v 32.7484 -27.4792 0
v 34.0774 -25.8126 0
v 35.3217 -24.0819 0
v 36.4782 -22.2914 0
v 37.544 -20.4454 0
v 38.5164 -18.5485 0
v 39.3931 -16.6056 0
v 40.1719 -14.6214 0
v 40.8507 -12.6008 0
v 41.4281 -10.5489 0
v 41.9024 -8.47075 0
v 42.2725 -6.37156 0
v 42.5376 -4.25653 0
v 42.6969 -2.13091 0
v 42.75 -1.04707e-14 0
v 42.75 -1.04707e-14 62
v 42.6969 2.13091 62
v 42.5376 4.25653 62
v 42.2725 6.37156 62
v 41.9024 8.47075 62
v 41.4281 10.5489 62
v 40.8507 12.6008 62
v 40.1719 14.6214 62
v 39.3931 16.6056 62
v 38.5164 18.5485 62
v 37.544 20.4454 62
v 36.4782 22.2914 62
v 35.3217 24.0819 62
v 34.0774 25.8126 62
v 32.7484 27.4792 62
v 31.338 29.0774 62
v 29.8496 30.6033 62
v 28.2871 32.0531 62
v 26.6542 33.4233 62
v 24.955 34.7103 62
v 23.1939 35.9111 62
v 21.375 37.0226 62
v 19.503 38.042 62
v 17.5825 38.9669 62
v 15.6183 39.7949 62
v 13.6153 40.5239 62
v 11.5784 41.1522 62
v 9.51277 41.6782 62
v 7.42346 42.1005 62
v 5.31569 42.4182 62
v 3.19471 42.6305 62
v 1.06579 42.7367 62
v -1.06579 42.7367 62
v -3.19471 42.6305 62
v -5.31569 42.4182 62
v -7.42346 42.1005 62
v -9.51277 41.6782 62
v -11.5784 41.1522 62
v -13.6153 40.5239 62
v -15.6183 39.7949 62
v -17.5825 38.9669 62
v -19.503 38.042 62
v -21.375 37.0226 62
v -23.1939 35.9111 62
v -24.955 34.7103 62
v -26.6542 33.4233 62
v -28.2871 32.0531 62
v -29.8496 30.6033 62
v -31.338 29.0774 62
v -32.7484 27.4792 62
v -34.0774 25.8126 62
v -35.3217 24.0819 62
v -36.4782 22.2914 62
v -37.544 20.4454 62
v -38.5164 18.5485 62
v -39.3931 16.6056 62
v -40.1719 14.6214 62
v -40.8507 12.6008 62
v -41.4281 10.5489 62
v -41.9024 8.47075 62
v -42.2725 6.37156 62
v -42.5376 4.25653 62
v -42.6969 2.13091 62
v -42.75 -1.46643e-13 62
v -42.6969 -2.13091 62
v -42.5376 -4.25653 62
v -42.2725 -6.37156 62
v -41.9024 -8.47075 62
v -41.4281 -10.5489 62
v -40.8507 -12.6008 62
v -40.1719 -14.6214 62
v -39.3931 -16.6056 62
v -38.5164 -18.5485 62
v -37.544 -20.4454 62
v -36.4782 -22.2914 62
v -35.3217 -24.0819 62
v -34.0774 -25.8126 62
v -32.7484 -27.4792 62
v -31.338 -29.0774 62
v -29.8496 -30.6033 62
v -28.2871 -32.0531 62
v -26.6542 -33.4233 62
v -24.955 -34.7103 62
v -23.1939 -35.9111 62
v -21.375 -37.0226 62
v -19.503 -38.042 62
v -17.5825 -38.9669 62
v -15.6183 -39.7949 62
v -13.6153 -40.5239 62
v -11.5784 -41.1522 62
v -9.51277 -41.6782 62
v -7.42346 -42.1005 62
v -5.31569 -42.4182 62
v -3.19471 -42.6305 62
v -1.06579 -42.7367 62
v 1.06579 -42.7367 62
v 3.19471 -42.6305 62
v 5.31569 -42.4182 62
v 7.42346 -42.1005 62
v 9.51277 -41.6782 62
v 11.5784 -41.1522 62
v 13.6153 -40.5239 62
v 15.6183 -39.7949 62
v 17.5825 -38.9669 62
v 19.503 -38.042 62
v 21.375 -37.0226 62
v 23.1939 -35.9111 62
v 24.955 -34.7103 62
v 26.6542 -33.4233 62
v 28.2871 -32.0531 62
v 29.8496 -30.6033 62
v 31.338 -29.0774 62
v 32.7484 -27.4792 62
v 34.0774 -25.8126 62
v 35.3217 -24.0819 62
v 36.4782 -22.2914 62
v 37.544 -20.4454 62
v 38.5164 -18.5485 62
v 39.3931 -16.6056 62
v 40.1719 -14.6214 62
v 40.8507 -12.6008 62
v 41.4281 -10.5489 62
v 41.9024 -8.47075 62
v 42.2725 -6.37156 62
v 42.5376 -4.25653 62
v 42.6969 -2.13091 62
v 42.75 -1.04707e-14 0
v 42.6969 2.13091 0
v 42.5376 4.25653 0
v 42.2725 6.37156 0
v 41.9024 8.47075 0
v 41.4281 10.5489 0
v 40.8507 12.6008 0
v 40.1719 14.6214 0
v 39.3931 16.6056 0
v 38.5164 18.5485 0
v 37.544 20.4454 0
v 36.4782 22.2914 0
v 35.3217 24.0819 0
v 34.0774 25.8126 0
v 32.7484 27.4792 0
v 31.338 29.0774 0
v 29.8496 30.6033 0
v 28.2871 32.0531 0
v 26.6542 33.4233 0
v 24.955 34.7103 0
v 23.1939 35.9111 0
v 21.375 37.0226 0
v 19.503 38.042 0
v 17.5825 38.9669 0
v 15.6183 39.7949 0
v 13.6153 40.5239 0
v 11.5784 41.1522 0
v 9.51277 41.6782 0
v 7.42346 42.1005 0
v 5.31569 42.4182 0
v 3.19471 42.6305 0
v 1.06579 42.7367 0
v -1.06579 42.7367 0
v -3.19471 42.6305 0
v -5.31569 42.4182 0
v -7.42346 42.1005 0
v -9.51277 41.6782 0
v -11.5784 41.1522 0
v -13.6153 40.5239 0
v -15.6183 39.7949 0
v -17.5825 38.9669 0
v -19.503 38.042 0
v -21.375 37.0226 0
v -23.1939 35.9111 0
v -24.955 34.7103 0
v -26.6542 33.4233 0
v -28.2871 32.0531 0
v -29.8496 30.6033 0
v -31.338 29.0774 0
v -32.7484 27.4792 0
v -34.0774 25.8126 0
v -35.3217 24.0819 0
v -36.4782 22.2914 0
v -37.544 20.4454 0
v -38.5164 18.5485 0
v -39.3931 16.6056 0
v -40.1719 14.6214 0
v -40.8507 12.6008 0
v -41.4281 10.5489 0
v -41.9024 8.47075 0
v -42.2725 6.37156 0
v -42.5376 4.25653 0
v -42.6969 2.13091 0
v -42.75 -1.46643e-13 0
v -42.6969 -2.13091 0
v -42.5376 -4.25653 0
v -42.2725 -6.37156 0
v -41.9024 -8.47075 0
v -41.4281 -10.5489 0
v -40.8507 -12.6008 0
v -40.1719 -14.6214 0
v -39.3931 -16.6056 0
v -38.5164 -18.5485 0
v -37.544 -20.4454 0
v -36.4782 -22.2914 0
v -35.3217 -24.0819 0
v -34.0774 -25.8126 0
v -32.7484 -27.4792 0
v -31.338 -29.0774 0
v -29.8496 -30.6033 0
v -28.2871 -32.0531 0
v -26.6542 -33.4233 0
v -24.955 -34.7103 0
v -23.1939 -35.9111 0
v -21.375 -37.0226 0
v -19.503 -38.042 0
v -17.5825 -38.9669 0
v -15.6183 -39.7949 0
v -13.6153 -40.5239 0
v -11.5784 -41.1522 0
v -9.51277 -41.6782 0
v -7.42346 -42.1005 0
v -5.31569 -42.4182 0
v -3.19471 -42.6305 0
v -1.06579 -42.7367 0
v 1.06579 -42.7367 0
v 3.19471 -42.6305 0
v 5.31569 -42.4182 0
v 7.42346 -42.1005 0
v 9.51277 -41.6782 0
v 11.5784 -41.1522 0
v 13.6153 -40.5239 0
v 15.6183 -39.7949 0
v 17.5825 -38.9669 0
v 19.503 -38.042 0
v 21.375 -37.0226 0
v 23.1939 -35.9111 0
v 24.955 -34.7103 0
v 26.6542 -33.4233 0
v 28.2871 -32.0531 0
v 29.8496 -30.6033 0
v 31.338 -29.0774 0
v 32.7484 -27.4792 0
v 34.0774 -25.8126 0
v 35.3217 -24.0819 0
v 36.4782 -22.2914 0
v 37.544 -20.4454 0
v 38.5164 -18.5485 0
v 39.3931 -16.6056 0
v 40.1719 -14.6214 0
v 40.8507 -12.6008 0
v 41.4281 -10.5489 0
v 41.9024 -8.47075 0
v 42.2725 -6.37156 0
v 42.5376 -4.25653 0
v 42.6969 -2.13091 0
f 2 1 128
f 2 128 129
f 3 129 130
f 3 2 129
f 4 130 131
f 4 131 132
f 4 3 130
f 5 4 132
f 6 132 133
f 6 5 132
f 7 133 134
f 7 6 133
f 8 134 135
f 8 7 134
f 9 135 136
f 9 8 135
f 10 136 137
f 10 137 138
f 10 9 136
f 11 10 138
f 12 11 138
f 12 138 139
f 13 12 139
f 13 139 140
f 14 13 140
f 14 140 141
f 15 14 141
f 15 141 142
f 16 15 142
f 16 142 143
f 17 16 143
f 17 143 144
f 18 17 144
f 18 144 145
f 19 18 145
f 19 145 146
f 20 19 146
f 20 146 147
f 21 20 147
f 21 147 148
f 22 21 148
f 22 148 149
f 23 22 149
f 23 149 150
f 24 150 151
f 24 23 150
f 25 151 152
f 25 24 151
f 26 152 153
f 26 25 152
f 27 153 154
f 27 26 153
f 28 154 155
f 28 27 154
f 29 155 156
f 29 28 155
f 30 156 157
f 30 29 156
f 31 157 158
f 31 158 159
f 31 30 157
f 32 31 159
f 33 159 160
f 33 160 161
f 33 32 159
f 34 33 161
f 35 161 162
f 35 34 161
f 36 162 163
f 36 35 162
f 37 163 164
f 37 36 163
f 38 37 164
f 38 164 165
f 39 38 165
f 39 165 166
f 40 39 166
f 40 166 167
f 41 40 167
f 41 167 168
f 42 41 168
f 42 168 169
f 42 169 170
f 43 42 170
f 44 43 170
f 44 170 171
f 45 44 171
f 45 171 172
f 46 45 172
f 46 172 173
f 47 46 173
f 47 173 174
f 47 174 175
f 48 47 175
f 49 48 175
f 49 175 176
f 49 176 177
f 50 49 177
f 51 50 177
f 51 177 178
f 52 51 178
f 52 178 179
f 53 52 179
f 53 179 180
f 54 53 180
f 54 180 181
f 54 181 182
f 55 54 182
f 55 182 183
f 56 55 183
f 57 56 183
f 57 183 184
f 58 57 184
f 58 184 185
f 59 185 186
f 59 58 185
f 60 186 187
f 60 187 188
f 60 59 186
f 61 60 188
f 62 188 189
f 62 61 188
f 63 62 189
f 63 189 190
f 64 63 190
f 64 190 191
f 65 64 191
f 65 191 192
f 65 192 193
f 66 65 193
f 67 66 193
f 67 193 194
f 68 67 194
f 68 194 195
f 69 68 195
f 69 195 196
f 70 69 196
f 70 196 197
f 71 70 197
f 71 197 198
f 72 71 198
f 72 198 199
f 73 72 199
f 73 199 200
f 74 73 200
f 74 200 201
f 75 74 201
f 75 201 202
f 76 202 203
f 76 203 204
f 76 75 202
f 77 76 204
f 78 204 205
f 78 205 206
f 78 77 204
f 79 78 206
f 80 206 207
f 80 79 206
f 81 207 208
f 81 80 207
f 82 208 209
f 82 81 208
f 83 209 210
f 83 82 209
f 84 210 211
f 84 83 210
f 85 211 212
f 85 84 211
f 86 212 213
f 86 85 212
f 87 213 214
f 87 214 215
f 87 86 213
f 88 87 215
f 88 215 216
f 89 88 216
f 90 89 216
f 90 216 217
f 90 217 218
f 91 90 218
f 92 91 218
f 92 218 219
f 93 219 220
f 93 92 219
f 94 220 221
f 94 93 220
f 95 221 222
f 95 94 221
f 96 222 223
f 96 95 222
f 97 223 224
f 97 96 223
f 98 224 225
f 98 97 224
f 99 225 226
f 99 98 225
f 100 226 227
f 100 227 228
f 100 99 226
f 101 228 229
f 101 100 228
f 102 101 229
f 103 229 230
f 103 102 229
f 104 230 231
f 104 103 230
f 105 231 232
f 105 104 231
f 106 232 233
f 106 105 232
f 107 233 234
f 107 106 233
f 108 234 235
f 108 107 234
f 109 235 236
f 109 108 235
f 110 236 237
f 110 109 236
f 111 237 238
f 111 110 237
f 112 238 239
f 112 111 238
f 113 112 239
f 113 239 240
f 113 240 241
f 114 113 241
f 115 114 241
f 115 241 242
f 116 115 242
f 116 242 243
f 116 243 244
f 117 116 244
f 118 117 244
f 118 244 245
f 118 245 246
f 119 118 246
f 120 119 246
f 120 246 247
f 121 120 247
f 121 247 248
f 122 121 248
f 122 248 249
f 123 122 249
f 123 249 250
f 124 123 250
f 124 250 251
f 125 124 251
f 125 251 252
f 126 252 253
f 126 125 252
f 127 253 254
f 127 126 253
f 335 333 334
f 336 333 335
f 331 333 336
f 331 332 333
f 337 331 336
f 329 330 331
f 327 331 337
f 327 329 331
f 327 328 329
f 342 339 340
f 342 340 341
f 324 325 326
f 324 326 327
f 344 339 342
f 344 338 339
f 344 342 343
f 323 324 327
f 345 338 344
f 322 327 337
f 322 323 327
f 322 337 338
f 347 345 346
f 348 345 347
f 318 319 320
f 318 320 321
f 351 349 350
f 316 317 318
f 315 318 321
f 315 316 318
f 314 315 321
f 355 351 352
f 355 352 353
f 355 349 351
f 355 353 354
f 358 355 356
f 358 356 357
f 358 338 345
f 358 322 338
f 358 345 348
f 358 349 355
f 358 348 349
f 309 314 321
f 309 310 311
f 309 311 312
f 309 312 313
f 309 313 314
f 307 308 309
f 361 359 360
f 363 358 359
f 363 361 362
f 363 359 361
f 304 305 306
f 304 306 307
f 303 307 309
f 303 304 307
f 366 322 358
f 366 363 364
f 366 364 365
f 366 358 363
f 301 302 303
f 299 300 301
f 299 301 303
f 369 366 367
f 369 367 368
f 370 366 369
f 371 322 366
f 371 366 370
f 295 296 297
f 373 309 321
f 373 371 372
f 373 321 322
f 373 322 371
f 294 297 298
f 294 298 299
f 294 295 297
f 293 294 299
f 376 373 374
f 376 374 375
f 376 309 373
f 291 292 293
f 378 376 377
f 379 376 378
f 380 376 379
f 380 309 376
f 255 309 380
f 285 286 287
f 285 287 288
f 285 288 289
f 258 255 256
f 258 256 257
f 259 255 258
f 282 285 289
f 282 283 284
f 282 284 285
f 282 289 290
f 282 290 291
f 282 293 299
f 282 291 293
f 262 259 260
f 262 260 261
f 262 255 259
f 279 280 281
f 279 281 282
f 263 255 262
f 277 279 282
f 277 278 279
f 265 309 255
f 265 263 264
f 265 255 263
f 265 303 309
f 265 299 303
f 273 274 275
f 273 275 276
f 272 273 276
f 270 267 268
f 270 268 269
f 271 265 266
f 271 266 267
f 271 276 277
f 271 282 299
f 271 277 282
f 271 299 265
f 271 267 270
f 271 272 276
f 461 460 459
f 462 461 459
f 457 462 459
f 457 459 458
f 463 462 457
f 455 457 456
f 453 463 457
f 453 457 455
f 453 455 454
f 468 466 465
f 468 467 466
f 450 452 451
f 450 453 452
f 470 468 465
f 470 465 464
f 470 469 468
f 449 453 450
f 471 470 464
f 448 463 453
f 448 453 449
f 448 464 463
f 473 472 471
f 474 473 471
f 444 446 445
f 444 447 446
f 477 476 475
f 442 444 443
f 441 447 444
f 441 444 442
f 440 447 441
f 481 478 477
f 481 479 478
f 481 477 475
f 481 480 479
f 484 482 481
f 484 483 482
f 484 471 464
f 484 464 448
f 484 474 471
f 484 481 475
f 484 475 474
f 435 447 440
f 435 437 436
f 435 438 437
f 435 439 438
f 435 440 439
f 433 435 434
f 487 486 485
f 489 485 484
f 489 488 487
f 489 487 485
f 430 432 431
f 430 433 432
f 429 435 433
f 429 433 430
f 492 484 448
f 492 490 489
f 492 491 490
f 492 489 484
f 427 429 428
f 425 427 426
f 425 429 427
f 495 493 492
f 495 494 493
f 496 495 492
f 497 492 448
f 497 496 492
f 421 423 422
f 499 447 435
f 499 498 497
f 499 448 447
f 499 497 448
f 420 424 423
f 420 425 424
f 420 423 421
f 419 425 420
f 502 500 499
f 502 501 500
f 502 499 435
f 417 419 418
f 504 503 502
f 505 504 502
f 506 505 502
f 506 502 435
f 381 506 435
f 411 413 412
f 411 414 413
f 411 415 414
f 384 382 381
f 384 383 382
f 385 384 381
f 408 415 411
f 408 410 409
f 408 411 410
f 408 416 415
f 408 417 416
f 408 425 419
f 408 419 417
f 388 386 385
f 388 387 386
f 388 385 381
f 405 407 406
f 405 408 407
f 389 388 381
f 403 408 405
f 403 405 404
f 391 381 435
f 391 390 389
f 391 389 381
f 391 435 429
f 391 429 425
f 399 401 400
f 399 402 401
f 398 402 399
f 396 394 393
f 396 395 394
f 397 392 391
f 397 393 392
f 397 403 402
f 397 425 408
f 397 408 403
f 397 391 425
f 397 396 393
f 397 402 398
