# Cadless export: model
v 31 -7.59281e-15 11
v 30.9615 1.54522 11
v 30.846 3.0866 11
v 30.6538 4.62031 11
v 30.3853 6.14253 11
v 30.0414 7.64948 11
v 29.6228 9.13741 11
v 29.1305 10.6026 11
v 28.5658 12.0415 11
v 27.93 13.4504 11
v 27.2249 14.8259 11
v 26.452 16.1645 11
v 25.6134 17.4629 11
v 24.7111 18.7179 11
v 23.7474 19.9264 11
v 22.7246 21.0854 11
v 21.6453 22.1919 11
v 20.5123 23.2432 11
v 19.3282 24.2368 11
v 18.0961 25.1701 11
v 16.8189 26.0408 11
v 15.5 26.8468 11
v 14.1425 27.586 11
v 12.7499 28.2567 11
v 11.3256 28.8571 11
v 9.87309 29.3857 11
v 8.39605 29.8414 11
v 6.89815 30.2228 11
v 5.38309 30.529 11
v 3.85465 30.7594 11
v 2.31663 30.9133 11
v 0.772851 30.9904 11
v -0.772851 30.9904 11
v -2.31663 30.9133 11
v -3.85465 30.7594 11
v -5.38309 30.529 11
v -6.89815 30.2228 11
v -8.39605 29.8414 11
v -9.87309 29.3857 11
v -11.3256 28.8571 11
v -12.7499 28.2567 11
v -14.1425 27.586 11
v -15.5 26.8468 11
v -16.8189 26.0408 11
v -18.0961 25.1701 11
v -19.3282 24.2368 11
v -20.5123 23.2432 11
v -21.6453 22.1919 11
v -22.7246 21.0854 11
v -23.7474 19.9264 11
v -24.7111 18.7179 11
v -25.6134 17.4629 11
v -26.452 16.1645 11
v -27.2249 14.8259 11
v -27.93 13.4504 11
v -28.5658 12.0415 11
v -29.1305 10.6026 11
v -29.6228 9.13741 11
v -30.0414 7.64948 11
v -30.3853 6.14253 11
v -30.6538 4.62031 11
v -30.846 3.0866 11
v -30.9615 1.54522 11
v -31 -1.06338e-13 11
v -30.9615 -1.54522 11
v -30.846 -3.0866 11
v -30.6538 -4.62031 11
v -30.3853 -6.14253 11
v -30.0414 -7.64948 11
v -29.6228 -9.13741 11
v -29.1305 -10.6026 11
v -28.5658 -12.0415 11
v -27.93 -13.4504 11
v -27.2249 -14.8259 11
v -26.452 -16.1645 11
v -25.6134 -17.4629 11
v -24.7111 -18.7179 11
v -23.7474 -19.9264 11
v -22.7246 -21.0854 11
v -21.6453 -22.1919 11
v -20.5123 -23.2432 11
v -19.3282 -24.2368 11
v -18.0961 -25.1701 11
v -16.8189 -26.0408 11
v -15.5 -26.8468 11
v -14.1425 -27.586 11
v -12.7499 -28.2567 11
v -11.3256 -28.8571 11
v -9.87309 -29.3857 11
v -8.39605 -29.8414 11
v -6.89815 -30.2228 11
v -5.38309 -30.529 11
v -3.85465 -30.7594 11
v -2.31663 -30.9133 11
v -0.772851 -30.9904 11
v 0.772851 -30.9904 11
v 2.31663 -30.9133 11
v 3.85465 -30.7594 11
v 5.38309 -30.529 11
v 6.89815 -30.2228 11
v 8.39605 -29.8414 11
v 9.87309 -29.3857 11
v 11.3256 -28.8571 11
v 12.7499 -28.2567 11
v 14.1425 -27.586 11
v 15.5 -26.8468 11
v 16.8189 -26.0408 11
v 18.0961 -25.1701 11
v 19.3282 -24.2368 11
v 20.5123 -23.2432 11
v 21.6453 -22.1919 11
v 22.7246 -21.0854 11
v 23.7474 -19.9264 11
v 24.7111 -18.7179 11
v 25.6134 -17.4629 11
v 26.452 -16.1645 11
v 27.2249 -14.8259 11
v 27.93 -13.4504 11
v 28.5658 -12.0415 11
v 29.1305 -10.6026 11
v 29.6228 -9.13741 11
v 30.0414 -7.64948 11
v 30.3853 -6.14253 11
v 30.6538 -4.62031 11
v 30.846 -3.0866 11
v 30.9615 -1.54522 11
v 31 -7.59281e-15 11
v 31 -7.59281e-15 -11
v 30.9615 1.54522 -11
v 30.846 3.0866 -11
v 30.6538 4.62031 -11
v 30.3853 6.14253 -11
v 30.0414 7.64948 -11
v 29.6228 9.13741 -11
v 29.1305 10.6026 -11
v 28.5658 12.0415 -11
v 27.93 13.4504 -11
v 27.2249 14.8259 -11
v 26.452 16.1645 -11
v 25.6134 17.4629 -11
v 24.7111 18.7179 -11
v 23.7474 19.9264 -11
v 22.7246 21.0854 -11
v 21.6453 22.1919 -11
v 20.5123 23.2432 -11
v 19.3282 24.2368 -11
v 18.0961 25.1701 -11
v 16.8189 26.0408 -11
v 15.5 26.8468 -11
v 14.1425 27.586 -11
v 12.7499 28.2567 -11
v 11.3256 28.8571 -11
v 9.87309 29.3857 -11
v 8.39605 29.8414 -11
v 6.89815 30.2228 -11
v 5.38309 30.529 -11
v 3.85465 30.7594 -11
v 2.31663 30.9133 -11
v 0.772851 30.9904 -11
v -0.772851 30.9904 -11
v -2.31663 30.9133 -11
v -3.85465 30.7594 -11
v -5.38309 30.529 -11
v -6.89815 30.2228 -11
v -8.39605 29.8414 -11
v -9.87309 29.3857 -11
v -11.3256 28.8571 -11
v -12.7499 28.2567 -11
v -14.1425 27.586 -11
v -15.5 26.8468 -11
v -16.8189 26.0408 -11
v -18.0961 25.1701 -11
v -19.3282 24.2368 -11
v -20.5123 23.2432 -11
v -21.6453 22.1919 -11
v -22.7246 21.0854 -11
v -23.7474 19.9264 -11
v -24.7111 18.7179 -11
v -25.6134 17.4629 -11
v -26.452 16.1645 -11
v -27.2249 14.8259 -11
v -27.93 13.4504 -11
v -28.5658 12.0415 -11
v -29.1305 10.6026 -11
v -29.6228 9.13741 -11
v -30.0414 7.64948 -11
v -30.3853 6.14253 -11
v -30.6538 4.62031 -11
v -30.846 3.0866 -11
v -30.9615 1.54522 -11
v -31 -1.06338e-13 -11
v -30.9615 -1.54522 -11
v -30.846 -3.0866 -11
v -30.6538 -4.62031 -11
v -30.3853 -6.14253 -11
v -30.0414 -7.64948 -11
v -29.6228 -9.13741 -11
v -29.1305 -10.6026 -11
v -28.5658 -12.0415 -11
v -27.93 -13.4504 -11
v -27.2249 -14.8259 -11
v -26.452 -16.1645 -11
v -25.6134 -17.4629 -11
v -24.7111 -18.7179 -11
v -23.7474 -19.9264 -11
v -22.7246 -21.0854 -11
v -21.6453 -22.1919 -11
v -20.5123 -23.2432 -11
v -19.3282 -24.2368 -11
v -18.0961 -25.1701 -11
v -16.8189 -26.0408 -11
v -15.5 -26.8468 -11
v -14.1425 -27.586 -11
v -12.7499 -28.2567 -11
v -11.3256 -28.8571 -11
v -9.87309 -29.3857 -11
v -8.39605 -29.8414 -11
v -6.89815 -30.2228 -11
v -5.38309 -30.529 -11
v -3.85465 -30.7594 -11
v -2.31663 -30.9133 -11
v -0.772851 -30.9904 -11
v 0.772851 -30.9904 -11
v 2.31663 -30.9133 -11
v 3.85465 -30.7594 -11
v 5.38309 -30.529 -11
v 6.89815 -30.2228 -11
v 8.39605 -29.8414 -11
v 9.87309 -29.3857 -11
v 11.3256 -28.8571 -11
v 12.7499 -28.2567 -11
v 14.1425 -27.586 -11
v 15.5 -26.8468 -11
v 16.8189 -26.0408 -11
v 18.0961 -25.1701 -11
v 19.3282 -24.2368 -11
v 20.5123 -23.2432 -11
v 21.6453 -22.1919 -11
v 22.7246 -21.0854 -11
v 23.7474 -19.9264 -11
v 24.7111 -18.7179 -11
v 25.6134 -17.4629 -11
v 26.452 -16.1645 -11
v 27.2249 -14.8259 -11
v 27.93 -13.4504 -11
v 28.5658 -12.0415 -11
v 29.1305 -10.6026 -11
v 29.6228 -9.13741 -11
v 30.0414 -7.64948 -11
v 30.3853 -6.14253 -11
v 30.6538 -4.62031 -11
v 30.846 -3.0866 -11
v 30.9615 -1.54522 -11
v 31 -7.59281e-15 -11
v 31 -7.59281e-15 11
v 30.9615 1.54522 11
v 30.846 3.0866 11
v 30.6538 4.62031 11
v 30.3853 6.14253 11
v 30.0414 7.64948 11
v 29.6228 9.13741 11
v 29.1305 10.6026 11
v 28.5658 12.0415 11
v 27.93 13.4504 11
v 27.2249 14.8259 11
v 26.452 16.1645 11
v 25.6134 17.4629 11
v 24.7111 18.7179 11
v 23.7474 19.9264 11
v 22.7246 21.0854 11
v 21.6453 22.1919 11
v 20.5123 23.2432 11
v 19.3282 24.2368 11
v 18.0961 25.1701 11
v 16.8189 26.0408 11
v 15.5 26.8468 11
v 14.1425 27.586 11
v 12.7499 28.2567 11
v 11.3256 28.8571 11
v 9.87309 29.3857 11
v 8.39605 29.8414 11
v 6.89815 30.2228 11
v 5.38309 30.529 11
v 3.85465 30.7594 11
v 2.31663 30.9133 11
v 0.772851 30.9904 11
v -0.772851 30.9904 11
v -2.31663 30.9133 11
v -3.85465 30.7594 11
v -5.38309 30.529 11
v -6.89815 30.2228 11
v -8.39605 29.8414 11
v -9.87309 29.3857 11
v -11.3256 28.8571 11
v -12.7499 28.2567 11
v -14.1425 27.586 11
v -15.5 26.8468 11
v -16.8189 26.0408 11
v -18.0961 25.1701 11
v -19.3282 24.2368 11
v -20.5123 23.2432 11
v -21.6453 22.1919 11
v -22.7246 21.0854 11
v -23.7474 19.9264 11
v -24.7111 18.7179 11
v -25.6134 17.4629 11
v -26.452 16.1645 11
v -27.2249 14.8259 11
v -27.93 13.4504 11
v -28.5658 12.0415 11
v -29.1305 10.6026 11
v -29.6228 9.13741 11
v -30.0414 7.64948 11
v -30.3853 6.14253 11
v -30.6538 4.62031 11
v -30.846 3.0866 11
v -30.9615 1.54522 11
v -31 -1.06338e-13 11
v -30.9615 -1.54522 11
v -30.846 -3.0866 11
v -30.6538 -4.62031 11
v -30.3853 -6.14253 11
v -30.0414 -7.64948 11
v -29.6228 -9.13741 11
v -29.1305 -10.6026 11
v -28.5658 -12.0415 11
v -27.93 -13.4504 11
v -27.2249 -14.8259 11
v -26.452 -16.1645 11
v -25.6134 -17.4629 11
v -24.7111 -18.7179 11
v -23.7474 -19.9264 11
v -22.7246 -21.0854 11
v -21.6453 -22.1919 11
v -20.5123 -23.2432 11
v -19.3282 -24.2368 11
v -18.0961 -25.1701 11
v -16.8189 -26.0408 11
v -15.5 -26.8468 11
v -14.1425 -27.586 11
v -12.7499 -28.2567 11
v -11.3256 -28.8571 11
v -9.87309 -29.3857 11
v -8.39605 -29.8414 11
v -6.89815 -30.2228 11
v -5.38309 -30.529 11
v -3.85465 -30.7594 11
v -2.31663 -30.9133 11
v -0.772851 -30.9904 11
v 0.772851 -30.9904 11
v 2.31663 -30.9133 11
v 3.85465 -30.7594 11
v 5.38309 -30.529 11
v 6.89815 -30.2228 11
v 8.39605 -29.8414 11
v 9.87309 -29.3857 11
v 11.3256 -28.8571 11
v 12.7499 -28.2567 11
v 14.1425 -27.586 11
v 15.5 -26.8468 11
v 16.8189 -26.0408 11
v 18.0961 -25.1701 11
v 19.3282 -24.2368 11
v 20.5123 -23.2432 11
v 21.6453 -22.1919 11
v 22.7246 -21.0854 11
v 23.7474 -19.9264 11
v 24.7111 -18.7179 11
v 25.6134 -17.4629 11
v 26.452 -16.1645 11
v 27.2249 -14.8259 11
v 27.93 -13.4504 11
v 28.5658 -12.0415 11
v 29.1305 -10.6026 11
v 29.6228 -9.13741 11
v 30.0414 -7.64948 11
v 30.3853 -6.14253 11
v 30.6538 -4.62031 11
v 30.846 -3.0866 11
v 30.9615 -1.54522 11
v 31 -7.59281e-15 -11
v 30.9615 1.54522 -11
v 30.846 3.0866 -11
v 30.6538 4.62031 -11
v 30.3853 6.14253 -11
v 30.0414 7.64948 -11
v 29.6228 9.13741 -11
v 29.1305 10.6026 -11
v 28.5658 12.0415 -11
v 27.93 13.4504 -11
v 27.2249 14.8259 -11
v 26.452 16.1645 -11
v 25.6134 17.4629 -11
v 24.7111 18.7179 -11
v 23.7474 19.9264 -11
v 22.7246 21.0854 -11
v 21.6453 22.1919 -11
v 20.5123 23.2432 -11
v 19.3282 24.2368 -11
v 18.0961 25.1701 -11
v 16.8189 26.0408 -11
v 15.5 26.8468 -11
v 14.1425 27.586 -11
v 12.7499 28.2567 -11
v 11.3256 28.8571 -11
v 9.87309 29.3857 -11
v 8.39605 29.8414 -11
v 6.89815 30.2228 -11
v 5.38309 30.529 -11
v 3.85465 30.7594 -11
v 2.31663 30.9133 -11
v 0.772851 30.9904 -11
v -0.772851 30.9904 -11
v -2.31663 30.9133 -11
v -3.85465 30.7594 -11
v -5.38309 30.529 -11
v -6.89815 30.2228 -11
v -8.39605 29.8414 -11
v -9.87309 29.3857 -11
v -11.3256 28.8571 -11
v -12.7499 28.2567 -11
v -14.1425 27.586 -11
v -15.5 26.8468 -11
v -16.8189 26.0408 -11
v -18.0961 25.1701 -11
v -19.3282 24.2368 -11
v -20.5123 23.2432 -11
v -21.6453 22.1919 -11
v -22.7246 21.0854 -11
v -23.7474 19.9264 -11
v -24.7111 18.7179 -11
v -25.6134 17.4629 -11
v -26.452 16.1645 -11
v -27.2249 14.8259 -11
v -27.93 13.4504 -11
v -28.5658 12.0415 -11
v -29.1305 10.6026 -11
v -29.6228 9.13741 -11
v -30.0414 7.64948 -11
v -30.3853 6.14253 -11
v -30.6538 4.62031 -11
v -30.846 3.0866 -11
v -30.9615 1.54522 -11
v -31 -1.06338e-13 -11
v -30.9615 -1.54522 -11
v -30.846 -3.0866 -11
v -30.6538 -4.62031 -11
v -30.3853 -6.14253 -11
v -30.0414 -7.64948 -11
v -29.6228 -9.13741 -11
v -29.1305 -10.6026 -11
v -28.5658 -12.0415 -11
v -27.93 -13.4504 -11
v -27.2249 -14.8259 -11
v -26.452 -16.1645 -11
v -25.6134 -17.4629 -11
v -24.7111 -18.7179 -11
v -23.7474 -19.9264 -11
v -22.7246 -21.0854 -11
v -21.6453 -22.1919 -11
v -20.5123 -23.2432 -11
v -19.3282 -24.2368 -11
v -18.0961 -25.1701 -11
v -16.8189 -26.0408 -11
v -15.5 -26.8468 -11
v -14.1425 -27.586 -11
v -12.7499 -28.2567 -11
v -11.3256 -28.8571 -11
v -9.87309 -29.3857 -11
v -8.39605 -29.8414 -11
v -6.89815 -30.2228 -11
v -5.38309 -30.529 -11
v -3.85465 -30.7594 -11
v -2.31663 -30.9133 -11
v -0.772851 -30.9904 -11
v 0.772851 -30.9904 -11
v 2.31663 -30.9133 -11
v 3.85465 -30.7594 -11
v 5.38309 -30.529 -11
v 6.89815 -30.2228 -11
v 8.39605 -29.8414 -11
v 9.87309 -29.3857 -11
v 11.3256 -28.8571 -11
v 12.7499 -28.2567 -11
v 14.1425 -27.586 -11
v 15.5 -26.8468 -11
v 16.8189 -26.0408 -11
v 18.0961 -25.1701 -11
v 19.3282 -24.2368 -11
v 20.5123 -23.2432 -11
v 21.6453 -22.1919 -11
v 22.7246 -21.0854 -11
v 23.7474 -19.9264 -11
v 24.7111 -18.7179 -11
v 25.6134 -17.4629 -11
v 26.452 -16.1645 -11
v 27.2249 -14.8259 -11
v 27.93 -13.4504 -11
v 28.5658 -12.0415 -11
v 29.1305 -10.6026 -11
v 29.6228 -9.13741 -11
v 30.0414 -7.64948 -11
v 30.3853 -6.14253 -11
v 30.6538 -4.62031 -11
v 30.846 -3.0866 -11
v 30.9615 -1.54522 -11
f 2 1 128
f 2 128 129
f 3 129 130
f 3 2 129
f 4 130 131
f 4 3 130
f 5 131 132
f 5 4 131
f 6 132 133
f 6 5 132
f 7 133 134
f 7 134 135
f 7 6 133
f 8 7 135
f 9 135 136
f 9 8 135
f 10 136 137
f 10 137 138
f 10 9 136
f 11 138 139
f 11 10 138
f 12 11 139
f 12 139 140
f 13 12 140
f 14 13 140
f 14 140 141
f 15 14 141
f 15 141 142
f 16 15 142
f 16 142 143
f 16 143 144
f 17 16 144
f 17 144 145
f 18 17 145
f 18 145 146
f 19 18 146
f 20 19 146
f 20 146 147
f 21 20 147
f 21 147 148
f 22 21 148
f 22 148 149
f 22 149 150
f 23 22 150
f 24 150 151
f 24 23 150
f 25 151 152
f 25 24 151
f 26 152 153
f 26 25 152
f 27 153 154
f 27 26 153
f 28 154 155
f 28 155 156
f 28 27 154
f 29 28 156
f 30 156 157
f 30 29 156
f 31 157 158
f 31 30 157
f 32 158 159
f 32 159 160
f 32 31 158
f 33 160 161
f 33 32 160
f 34 33 161
f 35 161 162
f 35 34 161
f 36 162 163
f 36 35 162
f 37 163 164
f 37 164 165
f 37 36 163
f 38 37 165
f 38 165 166
f 39 38 166
f 40 39 166
f 40 166 167
f 41 40 167
f 41 167 168
f 42 41 168
f 42 168 169
f 42 169 170
f 43 42 170
f 43 170 171
f 44 43 171
f 45 44 171
f 45 171 172
f 45 172 173
f 46 45 173
f 47 46 173
f 47 173 174
f 48 47 174
f 48 174 175
f 49 48 175
f 49 175 176
f 50 49 176
f 50 176 177
f 51 50 177
f 51 177 178
f 52 51 178
f 52 178 179
f 53 52 179
f 53 179 180
f 54 53 180
f 54 180 181
f 54 181 182
f 55 54 182
f 56 55 182
f 56 182 183
f 57 56 183
f 57 183 184
f 58 57 184
f 58 184 185
f 59 185 186
f 59 58 185
f 60 186 187
f 60 59 186
f 61 187 188
f 61 60 187
f 62 188 189
f 62 61 188
f 63 62 189
f 63 189 190
f 64 63 190
f 64 190 191
f 65 64 191
f 65 191 192
f 66 65 192
f 66 192 193
f 66 193 194
f 67 66 194
f 68 67 194
f 68 194 195
f 69 68 195
f 69 195 196
f 69 196 197
f 70 69 197
f 71 70 197
f 71 197 198
f 71 198 199
f 72 71 199
f 73 72 199
f 73 199 200
f 74 73 200
f 74 200 201
f 75 74 201
f 75 201 202
f 76 202 203
f 76 75 202
f 77 203 204
f 77 76 203
f 78 204 205
f 78 205 206
f 78 77 204
f 79 78 206
f 80 206 207
f 80 79 206
f 81 207 208
f 81 80 207
f 82 208 209
f 82 209 210
f 82 81 208
f 83 82 210
f 84 210 211
f 84 211 212
f 84 83 210
f 85 84 212
f 86 212 213
f 86 85 212
f 87 213 214
f 87 86 213
f 88 214 215
f 88 215 216
f 88 87 214
f 89 88 216
f 90 89 216
f 90 216 217
f 91 90 217
f 91 217 218
f 92 91 218
f 92 218 219
f 92 219 220
f 93 92 220
f 94 220 221
f 94 221 222
f 94 93 220
f 95 94 222
f 96 222 223
f 96 95 222
f 97 223 224
f 97 96 223
f 98 224 225
f 98 97 224
f 99 225 226
f 99 98 225
f 100 226 227
f 100 99 226
f 101 227 228
f 101 228 229
f 101 100 227
f 102 101 229
f 103 229 230
f 103 102 229
f 104 230 231
f 104 231 232
f 104 103 230
f 105 232 233
f 105 104 232
f 106 233 234
f 106 105 233
f 107 106 234
f 108 234 235
f 108 235 236
f 108 107 234
f 109 108 236
f 110 236 237
f 110 109 236
f 111 237 238
f 111 110 237
f 112 238 239
f 112 111 238
f 113 112 239
f 113 239 240
f 114 113 240
f 114 240 241
f 115 114 241
f 115 241 242
f 116 115 242
f 116 242 243
f 116 243 244
f 117 116 244
f 118 117 244
f 118 244 245
f 119 118 245
f 119 245 246
f 120 119 246
f 120 246 247
f 121 120 247
f 121 247 248
f 122 121 248
f 122 248 249
f 123 122 249
f 123 249 250
f 124 123 250
f 124 250 251
f 125 251 252
f 125 124 251
f 126 125 252
f 126 252 253
f 127 253 254
f 127 126 253
f 336 334 335
f 338 334 336
f 338 333 334
f 338 336 337
f 327 328 329
f 327 329 330
f 327 330 331
f 327 331 332
f 327 332 333
f 341 333 338
f 341 338 339
f 341 339 340
f 343 333 341
f 343 341 342
f 324 325 326
f 324 326 327
f 344 327 333
f 344 333 343
f 345 327 344
f 321 322 323
f 321 323 324
f 347 345 346
f 348 327 345
f 348 345 347
f 319 320 321
f 317 318 319
f 317 319 321
f 352 349 350
f 352 350 351
f 353 349 352
f 313 314 315
f 313 315 316
f 313 316 317
f 313 324 327
f 313 321 324
f 313 317 321
f 311 313 327
f 311 312 313
f 311 327 348
f 358 349 353
f 358 355 356
f 358 356 357
f 358 348 349
f 358 353 354
f 358 354 355
f 359 348 358
f 359 311 348
f 308 309 310
f 360 311 359
f 360 310 311
f 305 306 307
f 305 307 308
f 363 360 361
f 363 361 362
f 364 360 363
f 303 305 308
f 303 304 305
f 302 303 308
f 367 364 365
f 367 365 366
f 367 360 364
f 300 308 310
f 300 310 360
f 300 302 308
f 300 301 302
f 296 297 298
f 372 368 369
f 372 369 370
f 372 370 371
f 295 296 298
f 373 367 368
f 373 368 372
f 375 373 374
f 375 298 299
f 375 299 300
f 375 300 360
f 375 360 367
f 375 367 373
f 291 292 293
f 291 293 294
f 290 294 295
f 290 295 298
f 290 291 294
f 378 376 377
f 379 375 376
f 379 376 378
f 380 290 298
f 380 375 379
f 380 298 375
f 287 288 289
f 287 289 290
f 284 285 286
f 258 255 256
f 258 256 257
f 258 380 255
f 283 284 286
f 260 258 259
f 261 258 260
f 280 281 282
f 280 282 283
f 280 283 286
f 264 261 262
f 264 262 263
f 264 258 261
f 276 277 278
f 276 278 279
f 275 279 280
f 275 286 287
f 275 280 286
f 275 276 279
f 267 264 265
f 267 265 266
f 268 264 267
f 273 274 275
f 273 275 287
f 269 258 264
f 269 264 268
f 272 273 287
f 271 290 380
f 271 287 290
f 271 269 270
f 271 380 258
f 271 272 287
f 271 258 269
f 462 461 460
f 464 462 460
f 464 460 459
f 464 463 462
f 453 455 454
f 453 456 455
f 453 457 456
f 453 458 457
f 453 459 458
f 467 464 459
f 467 465 464
f 467 466 465
f 469 467 459
f 469 468 467
f 450 452 451
f 450 453 452
f 470 459 453
f 470 469 459
f 471 470 453
f 447 449 448
f 447 450 449
f 473 472 471
f 474 471 453
f 474 473 471
f 445 447 446
f 443 445 444
f 443 447 445
f 478 476 475
f 478 477 476
f 479 478 475
f 439 441 440
f 439 442 441
f 439 443 442
f 439 453 450
f 439 450 447
f 439 447 443
f 437 453 439
f 437 439 438
f 437 474 453
f 484 479 475
f 484 482 481
f 484 483 482
f 484 475 474
f 484 480 479
f 484 481 480
f 485 484 474
f 485 474 437
f 434 436 435
f 486 485 437
f 486 437 436
f 431 433 432
f 431 434 433
f 489 487 486
f 489 488 487
f 490 489 486
f 429 434 431
f 429 431 430
f 428 434 429
f 493 491 490
f 493 492 491
f 493 490 486
f 426 436 434
f 426 486 436
f 426 434 428
f 426 428 427
f 422 424 423
f 498 495 494
f 498 496 495
f 498 497 496
f 421 424 422
f 499 494 493
f 499 498 494
f 501 500 499
f 501 425 424
f 501 426 425
f 501 486 426
f 501 493 486
f 501 499 493
f 417 419 418
f 417 420 419
f 416 421 420
f 416 424 421
f 416 420 417
f 504 503 502
f 505 502 501
f 505 504 502
f 506 424 416
f 506 505 501
f 506 501 424
f 413 415 414
f 413 416 415
f 410 412 411
f 384 382 381
f 384 383 382
f 384 381 506
f 409 412 410
f 386 385 384
f 387 386 384
f 406 408 407
f 406 409 408
f 406 412 409
f 390 388 387
f 390 389 388
f 390 387 384
f 402 404 403
f 402 405 404
f 401 406 405
f 401 413 412
f 401 412 406
f 401 405 402
f 393 391 390
f 393 392 391
f 394 393 390
f 399 401 400
f 399 413 401
f 395 390 384
f 395 394 390
f 398 413 399
f 397 506 416
f 397 416 413
f 397 396 395
f 397 384 506
f 397 413 398
f 397 395 384
