# Cadless export: model
v -35 -20 4
v -35 -20 15
v -35 -28 4
v -35 -28 -8
v -35 -20 -8
v -35 -20 0
v -35 20 0
v -35 20 15
v 35 -20 4
v 35 -20 15
v -35 -20 4
v -35 -20 15
v -35 -28 4
v -35 -20 4
v 35 -28 4
v 35 -20 4
v -35 -28 -8
v 35 -28 -8
v -35 -28 4
v 35 -28 4
v -35 -28 -8
v -35 -20 -8
v 35 -28 -8
v 35 -20 -8
v 35 -20 -8
v 35 -20 0
v -35 -20 -8
v -35 -20 0
v -35 -20 0
v -35 20 0
v 35 -20 0
v 35 20 0
v -17 -7.34788e-16 0
v -17.0037 0.149538 0
v -17.0149 0.298704 0
v -17.0335 0.447127 0
v -17.0595 0.594438 0
v -17.0928 0.740272 0
v -17.1333 0.884266 0
v -17.1809 1.02606 0
v -17.2356 1.1653 0
v -17.2971 1.30165 0
v -17.3653 1.43476 0
v -17.4401 1.56431 0
v -17.5213 1.68996 0
v -17.6086 1.81141 0
v -17.7019 1.92836 0
v -17.8008 2.04052 0
v -17.9053 2.1476 0
v -18.0149 2.24934 0
v -18.1295 2.34549 0
v -18.2488 2.43581 0
v -18.3724 2.52008 0
v -18.5 2.59808 0
v -18.6314 2.66962 0
v -18.7661 2.73452 0
v -18.904 2.79262 0
v -19.0445 2.84378 0
v -19.1875 2.88787 0
v -19.3324 2.92478 0
v -19.4791 2.95442 0
v -19.627 2.97672 0
v -19.7758 2.99161 0
v -19.9252 2.99907 0
v -20.0748 2.99907 0
v -20.2242 2.99161 0
v -20.373 2.97672 0
v -20.5209 2.95442 0
v -20.6676 2.92478 0
v -20.8125 2.88787 0
v -20.9555 2.84378 0
v -21.096 2.79262 0
v -21.2339 2.73452 0
v -21.3686 2.66962 0
v -21.5 2.59808 0
v -21.6276 2.52008 0
v -21.7512 2.43581 0
v -21.8705 2.34549 0
v -21.9851 2.24934 0
v -22.0947 2.1476 0
v -22.1992 2.04052 0
v -22.2981 1.92836 0
v -22.3914 1.81141 0
v -22.4787 1.68996 0
v -22.5599 1.56431 0
v -22.6347 1.43476 0
v -22.7029 1.30165 0
v -22.7644 1.1653 0
v -22.8191 1.02606 0
v -22.8667 0.884266 0
v -22.9072 0.740272 0
v -22.9405 0.594438 0
v -22.9665 0.447127 0
v -22.9851 0.298704 0
v -22.9963 0.149538 0
v -23 -1.02907e-14 0
v -22.9963 -0.149538 0
v -22.9851 -0.298704 0
v -22.9665 -0.447127 0
v -22.9405 -0.594438 0
v -22.9072 -0.740272 0
v -22.8667 -0.884266 0
v -22.8191 -1.02606 0
v -22.7644 -1.1653 0
v -22.7029 -1.30165 0
v -22.6347 -1.43476 0
v -22.5599 -1.56431 0
v -22.4787 -1.68996 0
v -22.3914 -1.81141 0
v -22.2981 -1.92836 0
v -22.1992 -2.04052 0
v -22.0947 -2.1476 0
v -21.9851 -2.24934 0
v -21.8705 -2.34549 0
v -21.7512 -2.43581 0
v -21.6276 -2.52008 0
v -21.5 -2.59808 0
v -21.3686 -2.66962 0
v -21.2339 -2.73452 0
v -21.096 -2.79262 0
v -20.9555 -2.84378 0
v -20.8125 -2.88787 0
v -20.6676 -2.92478 0
v -20.5209 -2.95442 0
v -20.373 -2.97672 0
v -20.2242 -2.99161 0
v -20.0748 -2.99907 0
v -19.9252 -2.99907 0
v -19.7758 -2.99161 0
v -19.627 -2.97672 0
v -19.4791 -2.95442 0
v -19.3324 -2.92478 0
v -19.1875 -2.88787 0
v -19.0445 -2.84378 0
v -18.904 -2.79262 0
v -18.7661 -2.73452 0
v -18.6314 -2.66962 0
v -18.5 -2.59808 0
v -18.3724 -2.52008 0
v -18.2488 -2.43581 0
v -18.1295 -2.34549 0
v -18.0149 -2.24934 0
v -17.9053 -2.1476 0
v -17.8008 -2.04052 0
v -17.7019 -1.92836 0
v -17.6086 -1.81141 0
v -17.5213 -1.68996 0
v -17.4401 -1.56431 0
v -17.3653 -1.43476 0
v -17.2971 -1.30165 0
v -17.2356 -1.1653 0
v -17.1809 -1.02606 0
v -17.1333 -0.884266 0
v -17.0928 -0.740272 0
v -17.0595 -0.594438 0
v -17.0335 -0.447127 0
v -17.0149 -0.298704 0
v -17.0037 -0.149538 0
v 3 -7.34788e-16 0
v 2.99627 0.149538 0
v 2.98509 0.298704 0
v 2.96649 0.447127 0
v 2.94052 0.594438 0
v 2.90723 0.740272 0
v 2.86672 0.884266 0
v 2.81908 1.02606 0
v 2.76443 1.1653 0
v 2.70291 1.30165 0
v 2.63466 1.43476 0
v 2.55987 1.56431 0
v 2.47872 1.68996 0
v 2.3914 1.81141 0
v 2.29813 1.92836 0
v 2.19916 2.04052 0
v 2.09471 2.1476 0
v 1.98506 2.24934 0
v 1.87047 2.34549 0
v 1.75123 2.43581 0
v 1.62764 2.52008 0
v 1.5 2.59808 0
v 1.36863 2.66962 0
v 1.23386 2.73452 0
v 1.09602 2.79262 0
v 0.95546 2.84378 0
v 0.812521 2.88787 0
v 0.667563 2.92478 0
v 0.520945 2.95442 0
v 0.373031 2.97672 0
v 0.22419 2.99161 0
v 0.0747921 2.99907 0
v -0.0747921 2.99907 0
v -0.22419 2.99161 0
v -0.373031 2.97672 0
v -0.520945 2.95442 0
v -0.667563 2.92478 0
v -0.812521 2.88787 0
v -0.95546 2.84378 0
v -1.09602 2.79262 0
v -1.23386 2.73452 0
v -1.36863 2.66962 0
v -1.5 2.59808 0
v -1.62764 2.52008 0
v -1.75123 2.43581 0
v -1.87047 2.34549 0
v -1.98506 2.24934 0
v -2.09471 2.1476 0
v -2.19916 2.04052 0
v -2.29813 1.92836 0
v -2.3914 1.81141 0
v -2.47872 1.68996 0
v -2.55987 1.56431 0
v -2.63466 1.43476 0
v -2.70291 1.30165 0
v -2.76443 1.1653 0
v -2.81908 1.02606 0
v -2.86672 0.884266 0
v -2.90723 0.740272 0
v -2.94052 0.594438 0
v -2.96649 0.447127 0
v -2.98509 0.298704 0
v -2.99627 0.149538 0
v -3 -1.02907e-14 0
v -2.99627 -0.149538 0
v -2.98509 -0.298704 0
v -2.96649 -0.447127 0
v -2.94052 -0.594438 0
v -2.90723 -0.740272 0
v -2.86672 -0.884266 0
v -2.81908 -1.02606 0
v -2.76443 -1.1653 0
v -2.70291 -1.30165 0
v -2.63466 -1.43476 0
v -2.55987 -1.56431 0
v -2.47872 -1.68996 0
v -2.3914 -1.81141 0
v -2.29813 -1.92836 0
v -2.19916 -2.04052 0
v -2.09471 -2.1476 0
v -1.98506 -2.24934 0
v -1.87047 -2.34549 0
v -1.75123 -2.43581 0
v -1.62764 -2.52008 0
v -1.5 -2.59808 0
v -1.36863 -2.66962 0
v -1.23386 -2.73452 0
v -1.09602 -2.79262 0
v -0.95546 -2.84378 0
v -0.812521 -2.88787 0
v -0.667563 -2.92478 0
v -0.520945 -2.95442 0
v -0.373031 -2.97672 0
v -0.22419 -2.99161 0
v -0.0747921 -2.99907 0
v 0.0747921 -2.99907 0
v 0.22419 -2.99161 0
v 0.373031 -2.97672 0
v 0.520945 -2.95442 0
v 0.667563 -2.92478 0
v 0.812521 -2.88787 0
v 0.95546 -2.84378 0
v 1.09602 -2.79262 0
v 1.23386 -2.73452 0
v 1.36863 -2.66962 0
v 1.5 -2.59808 0
v 1.62764 -2.52008 0
v 1.75123 -2.43581 0
v 1.87047 -2.34549 0
v 1.98506 -2.24934 0
v 2.09471 -2.1476 0
v 2.19916 -2.04052 0
v 2.29813 -1.92836 0
v 2.3914 -1.81141 0
v 2.47872 -1.68996 0
v 2.55987 -1.56431 0
v 2.63466 -1.43476 0
v 2.70291 -1.30165 0
v 2.76443 -1.1653 0
v 2.81908 -1.02606 0
v 2.86672 -0.884266 0
v 2.90723 -0.740272 0
v 2.94052 -0.594438 0
v 2.96649 -0.447127 0
v 2.98509 -0.298704 0
v 2.99627 -0.149538 0
v 23 -7.34788e-16 0
v 22.9963 0.149538 0
v 22.9851 0.298704 0
v 22.9665 0.447127 0
v 22.9405 0.594438 0
v 22.9072 0.740272 0
v 22.8667 0.884266 0
v 22.8191 1.02606 0
v 22.7644 1.1653 0
v 22.7029 1.30165 0
v 22.6347 1.43476 0
v 22.5599 1.56431 0
v 22.4787 1.68996 0
v 22.3914 1.81141 0
v 22.2981 1.92836 0
v 22.1992 2.04052 0
v 22.0947 2.1476 0
v 21.9851 2.24934 0
v 21.8705 2.34549 0
v 21.7512 2.43581 0
v 21.6276 2.52008 0
v 21.5 2.59808 0
v 21.3686 2.66962 0
v 21.2339 2.73452 0
v 21.096 2.79262 0
v 20.9555 2.84378 0
v 20.8125 2.88787 0
v 20.6676 2.92478 0
v 20.5209 2.95442 0
v 20.373 2.97672 0
v 20.2242 2.99161 0
v 20.0748 2.99907 0
v 19.9252 2.99907 0
v 19.7758 2.99161 0
v 19.627 2.97672 0
v 19.4791 2.95442 0
v 19.3324 2.92478 0
v 19.1875 2.88787 0
v 19.0445 2.84378 0
v 18.904 2.79262 0
v 18.7661 2.73452 0
v 18.6314 2.66962 0
v 18.5 2.59808 0
v 18.3724 2.52008 0
v 18.2488 2.43581 0
v 18.1295 2.34549 0
v 18.0149 2.24934 0
v 17.9053 2.1476 0
v 17.8008 2.04052 0
v 17.7019 1.92836 0
v 17.6086 1.81141 0
v 17.5213 1.68996 0
v 17.4401 1.56431 0
v 17.3653 1.43476 0
v 17.2971 1.30165 0
v 17.2356 1.1653 0
v 17.1809 1.02606 0
v 17.1333 0.884266 0
v 17.0928 0.740272 0
v 17.0595 0.594438 0
v 17.0335 0.447127 0
v 17.0149 0.298704 0
v 17.0037 0.149538 0
v 17 -1.02907e-14 0
v 17.0037 -0.149538 0
v 17.0149 -0.298704 0
v 17.0335 -0.447127 0
v 17.0595 -0.594438 0
v 17.0928 -0.740272 0
v 17.1333 -0.884266 0
v 17.1809 -1.02606 0
v 17.2356 -1.1653 0
v 17.2971 -1.30165 0
v 17.3653 -1.43476 0
v 17.4401 -1.56431 0
v 17.5213 -1.68996 0
v 17.6086 -1.81141 0
v 17.7019 -1.92836 0
v 17.8008 -2.04052 0
v 17.9053 -2.1476 0
v 18.0149 -2.24934 0
v 18.1295 -2.34549 0
v 18.2488 -2.43581 0
v 18.3724 -2.52008 0
v 18.5 -2.59808 0
v 18.6314 -2.66962 0
v 18.7661 -2.73452 0
v 18.904 -2.79262 0
v 19.0445 -2.84378 0
v 19.1875 -2.88787 0
v 19.3324 -2.92478 0
v 19.4791 -2.95442 0
v 19.627 -2.97672 0
v 19.7758 -2.99161 0
v 19.9252 -2.99907 0
v 20.0748 -2.99907 0
v 20.2242 -2.99161 0
v 20.373 -2.97672 0
v 20.5209 -2.95442 0
v 20.6676 -2.92478 0
v 20.8125 -2.88787 0
v 20.9555 -2.84378 0
v 21.096 -2.79262 0
v 21.2339 -2.73452 0
v 21.3686 -2.66962 0
v 21.5 -2.59808 0
v 21.6276 -2.52008 0
v 21.7512 -2.43581 0
v 21.8705 -2.34549 0
v 21.9851 -2.24934 0
v 22.0947 -2.1476 0
v 22.1992 -2.04052 0
v 22.2981 -1.92836 0
v 22.3914 -1.81141 0
v 22.4787 -1.68996 0
v 22.5599 -1.56431 0
v 22.6347 -1.43476 0
v 22.7029 -1.30165 0
v 22.7644 -1.1653 0
v 22.8191 -1.02606 0
v 22.8667 -0.884266 0
v 22.9072 -0.740272 0
v 22.9405 -0.594438 0
v 22.9665 -0.447127 0
v 22.9851 -0.298704 0
v 22.9963 -0.149538 0
v -35 20 0
v 35 20 0
v -35 20 15
v 35 20 15
v -35 -20 15
v -35 20 15
v 35 -20 15
v 35 20 15
v -17 -7.34788e-16 15
v -17.0037 0.149538 15
v -17.0149 0.298704 15
v -17.0335 0.447127 15
v -17.0595 0.594438 15
v -17.0928 0.740272 15
v -17.1333 0.884266 15
v -17.1809 1.02606 15
v -17.2356 1.1653 15
v -17.2971 1.30165 15
v -17.3653 1.43476 15
v -17.4401 1.56431 15
v -17.5213 1.68996 15
v -17.6086 1.81141 15
v -17.7019 1.92836 15
v -17.8008 2.04052 15
v -17.9053 2.1476 15
v -18.0149 2.24934 15
v -18.1295 2.34549 15
v -18.2488 2.43581 15
v -18.3724 2.52008 15
v -18.5 2.59808 15
v -18.6314 2.66962 15
v -18.7661 2.73452 15
v -18.904 2.79262 15
v -19.0445 2.84378 15
v -19.1875 2.88787 15
v -19.3324 2.92478 15
v -19.4791 2.95442 15
v -19.627 2.97672 15
v -19.7758 2.99161 15
v -19.9252 2.99907 15
v -20.0748 2.99907 15
v -20.2242 2.99161 15
v -20.373 2.97672 15
v -20.5209 2.95442 15
v -20.6676 2.92478 15
v -20.8125 2.88787 15
v -20.9555 2.84378 15
v -21.096 2.79262 15
v -21.2339 2.73452 15
v -21.3686 2.66962 15
v -21.5 2.59808 15
v -21.6276 2.52008 15
v -21.7512 2.43581 15
v -21.8705 2.34549 15
v -21.9851 2.24934 15
v -22.0947 2.1476 15
v -22.1992 2.04052 15
v -22.2981 1.92836 15
v -22.3914 1.81141 15
v -22.4787 1.68996 15
v -22.5599 1.56431 15
v -22.6347 1.43476 15
v -22.7029 1.30165 15
v -22.7644 1.1653 15
v -22.8191 1.02606 15
v -22.8667 0.884266 15
v -22.9072 0.740272 15
v -22.9405 0.594438 15
v -22.9665 0.447127 15
v -22.9851 0.298704 15
v -22.9963 0.149538 15
v -23 -1.02907e-14 15
v -22.9963 -0.149538 15
v -22.9851 -0.298704 15
v -22.9665 -0.447127 15
v -22.9405 -0.594438 15
v -22.9072 -0.740272 15
v -22.8667 -0.884266 15
v -22.8191 -1.02606 15
v -22.7644 -1.1653 15
v -22.7029 -1.30165 15
v -22.6347 -1.43476 15
v -22.5599 -1.56431 15
v -22.4787 -1.68996 15
v -22.3914 -1.81141 15
v -22.2981 -1.92836 15
v -22.1992 -2.04052 15
v -22.0947 -2.1476 15
v -21.9851 -2.24934 15
v -21.8705 -2.34549 15
v -21.7512 -2.43581 15
v -21.6276 -2.52008 15
v -21.5 -2.59808 15
v -21.3686 -2.66962 15
v -21.2339 -2.73452 15
v -21.096 -2.79262 15
v -20.9555 -2.84378 15
v -20.8125 -2.88787 15
v -20.6676 -2.92478 15
v -20.5209 -2.95442 15
v -20.373 -2.97672 15
v -20.2242 -2.99161 15
v -20.0748 -2.99907 15
v -19.9252 -2.99907 15
v -19.7758 -2.99161 15
v -19.627 -2.97672 15
v -19.4791 -2.95442 15
v -19.3324 -2.92478 15
v -19.1875 -2.88787 15
v -19.0445 -2.84378 15
v -18.904 -2.79262 15
v -18.7661 -2.73452 15
v -18.6314 -2.66962 15
v -18.5 -2.59808 15
v -18.3724 -2.52008 15
v -18.2488 -2.43581 15
v -18.1295 -2.34549 15
v -18.0149 -2.24934 15
v -17.9053 -2.1476 15
v -17.8008 -2.04052 15
v -17.7019 -1.92836 15
v -17.6086 -1.81141 15
v -17.5213 -1.68996 15
v -17.4401 -1.56431 15
v -17.3653 -1.43476 15
v -17.2971 -1.30165 15
v -17.2356 -1.1653 15
v -17.1809 -1.02606 15
v -17.1333 -0.884266 15
v -17.0928 -0.740272 15
v -17.0595 -0.594438 15
v -17.0335 -0.447127 15
v -17.0149 -0.298704 15
v -17.0037 -0.149538 15
v 3 -7.34788e-16 15
v 2.99627 0.149538 15
v 2.98509 0.298704 15
v 2.96649 0.447127 15
v 2.94052 0.594438 15
v 2.90723 0.740272 15
v 2.86672 0.884266 15
v 2.81908 1.02606 15
v 2.76443 1.1653 15
v 2.70291 1.30165 15
v 2.63466 1.43476 15
v 2.55987 1.56431 15
v 2.47872 1.68996 15
v 2.3914 1.81141 15
v 2.29813 1.92836 15
v 2.19916 2.04052 15
v 2.09471 2.1476 15
v 1.98506 2.24934 15
v 1.87047 2.34549 15
v 1.75123 2.43581 15
v 1.62764 2.52008 15
v 1.5 2.59808 15
v 1.36863 2.66962 15
v 1.23386 2.73452 15
v 1.09602 2.79262 15
v 0.95546 2.84378 15
v 0.812521 2.88787 15
v 0.667563 2.92478 15
v 0.520945 2.95442 15
v 0.373031 2.97672 15
v 0.22419 2.99161 15
v 0.0747921 2.99907 15
v -0.0747921 2.99907 15
v -0.22419 2.99161 15
v -0.373031 2.97672 15
v -0.520945 2.95442 15
v -0.667563 2.92478 15
v -0.812521 2.88787 15
v -0.95546 2.84378 15
v -1.09602 2.79262 15
v -1.23386 2.73452 15
v -1.36863 2.66962 15
v -1.5 2.59808 15
v -1.62764 2.52008 15
v -1.75123 2.43581 15
v -1.87047 2.34549 15
v -1.98506 2.24934 15
v -2.09471 2.1476 15
v -2.19916 2.04052 15
v -2.29813 1.92836 15
v -2.3914 1.81141 15
v -2.47872 1.68996 15
v -2.55987 1.56431 15
v -2.63466 1.43476 15
v -2.70291 1.30165 15
v -2.76443 1.1653 15
v -2.81908 1.02606 15
v -2.86672 0.884266 15
v -2.90723 0.740272 15
v -2.94052 0.594438 15
v -2.96649 0.447127 15
v -2.98509 0.298704 15
v -2.99627 0.149538 15
v -3 -1.02907e-14 15
v -2.99627 -0.149538 15
v -2.98509 -0.298704 15
v -2.96649 -0.447127 15
v -2.94052 -0.594438 15
v -2.90723 -0.740272 15
v -2.86672 -0.884266 15
v -2.81908 -1.02606 15
v -2.76443 -1.1653 15
v -2.70291 -1.30165 15
v -2.63466 -1.43476 15
v -2.55987 -1.56431 15
v -2.47872 -1.68996 15
v -2.3914 -1.81141 15
v -2.29813 -1.92836 15
v -2.19916 -2.04052 15
v -2.09471 -2.1476 15
v -1.98506 -2.24934 15
v -1.87047 -2.34549 15
v -1.75123 -2.43581 15
v -1.62764 -2.52008 15
v -1.5 -2.59808 15
v -1.36863 -2.66962 15
v -1.23386 -2.73452 15
v -1.09602 -2.79262 15
v -0.95546 -2.84378 15
v -0.812521 -2.88787 15
v -0.667563 -2.92478 15
v -0.520945 -2.95442 15
v -0.373031 -2.97672 15
v -0.22419 -2.99161 15
v -0.0747921 -2.99907 15
v 0.0747921 -2.99907 15
v 0.22419 -2.99161 15
v 0.373031 -2.97672 15
v 0.520945 -2.95442 15
v 0.667563 -2.92478 15
v 0.812521 -2.88787 15
v 0.95546 -2.84378 15
v 1.09602 -2.79262 15
v 1.23386 -2.73452 15
v 1.36863 -2.66962 15
v 1.5 -2.59808 15
v 1.62764 -2.52008 15
v 1.75123 -2.43581 15
v 1.87047 -2.34549 15
v 1.98506 -2.24934 15
v 2.09471 -2.1476 15
v 2.19916 -2.04052 15
v 2.29813 -1.92836 15
v 2.3914 -1.81141 15
v 2.47872 -1.68996 15
v 2.55987 -1.56431 15
v 2.63466 -1.43476 15
v 2.70291 -1.30165 15
v 2.76443 -1.1653 15
v 2.81908 -1.02606 15
v 2.86672 -0.884266 15
v 2.90723 -0.740272 15
v 2.94052 -0.594438 15
v 2.96649 -0.447127 15
v 2.98509 -0.298704 15
v 2.99627 -0.149538 15
v 23 -7.34788e-16 15
v 22.9963 0.149538 15
v 22.9851 0.298704 15
v 22.9665 0.447127 15
v 22.9405 0.594438 15
v 22.9072 0.740272 15
v 22.8667 0.884266 15
v 22.8191 1.02606 15
v 22.7644 1.1653 15
v 22.7029 1.30165 15
v 22.6347 1.43476 15
v 22.5599 1.56431 15
v 22.4787 1.68996 15
v 22.3914 1.81141 15
v 22.2981 1.92836 15
v 22.1992 2.04052 15
v 22.0947 2.1476 15
v 21.9851 2.24934 15
v 21.8705 2.34549 15
v 21.7512 2.43581 15
v 21.6276 2.52008 15
v 21.5 2.59808 15
v 21.3686 2.66962 15
v 21.2339 2.73452 15
v 21.096 2.79262 15
v 20.9555 2.84378 15
v 20.8125 2.88787 15
v 20.6676 2.92478 15
v 20.5209 2.95442 15
v 20.373 2.97672 15
v 20.2242 2.99161 15
v 20.0748 2.99907 15
v 19.9252 2.99907 15
v 19.7758 2.99161 15
v 19.627 2.97672 15
v 19.4791 2.95442 15
v 19.3324 2.92478 15
v 19.1875 2.88787 15
v 19.0445 2.84378 15
v 18.904 2.79262 15
v 18.7661 2.73452 15
v 18.6314 2.66962 15
v 18.5 2.59808 15
v 18.3724 2.52008 15
v 18.2488 2.43581 15
v 18.1295 2.34549 15
v 18.0149 2.24934 15
v 17.9053 2.1476 15
v 17.8008 2.04052 15
v 17.7019 1.92836 15
v 17.6086 1.81141 15
v 17.5213 1.68996 15
v 17.4401 1.56431 15
v 17.3653 1.43476 15
v 17.2971 1.30165 15
v 17.2356 1.1653 15
v 17.1809 1.02606 15
v 17.1333 0.884266 15
v 17.0928 0.740272 15
v 17.0595 0.594438 15
v 17.0335 0.447127 15
v 17.0149 0.298704 15
v 17.0037 0.149538 15
v 17 -1.02907e-14 15
v 17.0037 -0.149538 15
v 17.0149 -0.298704 15
v 17.0335 -0.447127 15
v 17.0595 -0.594438 15
v 17.0928 -0.740272 15
v 17.1333 -0.884266 15
v 17.1809 -1.02606 15
v 17.2356 -1.1653 15
v 17.2971 -1.30165 15
v 17.3653 -1.43476 15
v 17.4401 -1.56431 15
v 17.5213 -1.68996 15
v 17.6086 -1.81141 15
v 17.7019 -1.92836 15
v 17.8008 -2.04052 15
v 17.9053 -2.1476 15
v 18.0149 -2.24934 15
v 18.1295 -2.34549 15
v 18.2488 -2.43581 15
v 18.3724 -2.52008 15
v 18.5 -2.59808 15
v 18.6314 -2.66962 15
v 18.7661 -2.73452 15
v 18.904 -2.79262 15
v 19.0445 -2.84378 15
v 19.1875 -2.88787 15
v 19.3324 -2.92478 15
v 19.4791 -2.95442 15
v 19.627 -2.97672 15
v 19.7758 -2.99161 15
v 19.9252 -2.99907 15
v 20.0748 -2.99907 15
v 20.2242 -2.99161 15
v 20.373 -2.97672 15
v 20.5209 -2.95442 15
v 20.6676 -2.92478 15
v 20.8125 -2.88787 15
v 20.9555 -2.84378 15
v 21.096 -2.79262 15
v 21.2339 -2.73452 15
v 21.3686 -2.66962 15
v 21.5 -2.59808 15
v 21.6276 -2.52008 15
v 21.7512 -2.43581 15
v 21.8705 -2.34549 15
v 21.9851 -2.24934 15
v 22.0947 -2.1476 15
v 22.1992 -2.04052 15
v 22.2981 -1.92836 15
v 22.3914 -1.81141 15
v 22.4787 -1.68996 15
v 22.5599 -1.56431 15
v 22.6347 -1.43476 15
v 22.7029 -1.30165 15
v 22.7644 -1.1653 15
v 22.8191 -1.02606 15
v 22.8667 -0.884266 15
v 22.9072 -0.740272 15
v 22.9405 -0.594438 15
v 22.9665 -0.447127 15
v 22.9851 -0.298704 15
v 22.9963 -0.149538 15
v 35 -20 4
v 35 -20 15
v 35 -28 4
v 35 -28 -8
v 35 -20 -8
v 35 -20 0
v 35 20 0
v 35 20 15
v -17 -7.34788e-16 15
v -17.0037 0.149538 15
v -17.0149 0.298704 15
v -17.0335 0.447127 15
v -17.0595 0.594438 15
v -17.0928 0.740272 15
v -17.1333 0.884266 15
v -17.1809 1.02606 15
v -17.2356 1.1653 15
v -17.2971 1.30165 15
v -17.3653 1.43476 15
v -17.4401 1.56431 15
v -17.5213 1.68996 15
v -17.6086 1.81141 15
v -17.7019 1.92836 15
v -17.8008 2.04052 15
v -17.9053 2.1476 15
v -18.0149 2.24934 15
v -18.1295 2.34549 15
v -18.2488 2.43581 15
v -18.3724 2.52008 15
v -18.5 2.59808 15
v -18.6314 2.66962 15
v -18.7661 2.73452 15
v -18.904 2.79262 15
v -19.0445 2.84378 15
v -19.1875 2.88787 15
v -19.3324 2.92478 15
v -19.4791 2.95442 15
v -19.627 2.97672 15
v -19.7758 2.99161 15
v -19.9252 2.99907 15
v -20.0748 2.99907 15
v -20.2242 2.99161 15
v -20.373 2.97672 15
v -20.5209 2.95442 15
v -20.6676 2.92478 15
v -20.8125 2.88787 15
v -20.9555 2.84378 15
v -21.096 2.79262 15
v -21.2339 2.73452 15
v -21.3686 2.66962 15
v -21.5 2.59808 15
v -21.6276 2.52008 15
v -21.7512 2.43581 15
v -21.8705 2.34549 15
v -21.9851 2.24934 15
v -22.0947 2.1476 15
v -22.1992 2.04052 15
v -22.2981 1.92836 15
v -22.3914 1.81141 15
v -22.4787 1.68996 15
v -22.5599 1.56431 15
v -22.6347 1.43476 15
v -22.7029 1.30165 15
v -22.7644 1.1653 15
v -22.8191 1.02606 15
v -22.8667 0.884266 15
v -22.9072 0.740272 15
v -22.9405 0.594438 15
v -22.9665 0.447127 15
v -22.9851 0.298704 15
v -22.9963 0.149538 15
v -23 -1.02907e-14 15
v -22.9963 -0.149538 15
v -22.9851 -0.298704 15
v -22.9665 -0.447127 15
v -22.9405 -0.594438 15
v -22.9072 -0.740272 15
v -22.8667 -0.884266 15
v -22.8191 -1.02606 15
v -22.7644 -1.1653 15
v -22.7029 -1.30165 15
v -22.6347 -1.43476 15
v -22.5599 -1.56431 15
v -22.4787 -1.68996 15
v -22.3914 -1.81141 15
v -22.2981 -1.92836 15
v -22.1992 -2.04052 15
v -22.0947 -2.1476 15
v -21.9851 -2.24934 15
v -21.8705 -2.34549 15
v -21.7512 -2.43581 15
v -21.6276 -2.52008 15
v -21.5 -2.59808 15
v -21.3686 -2.66962 15
v -21.2339 -2.73452 15
v -21.096 -2.79262 15
v -20.9555 -2.84378 15
v -20.8125 -2.88787 15
v -20.6676 -2.92478 15
v -20.5209 -2.95442 15
v -20.373 -2.97672 15
v -20.2242 -2.99161 15
v -20.0748 -2.99907 15
v -19.9252 -2.99907 15
v -19.7758 -2.99161 15
v -19.627 -2.97672 15
v -19.4791 -2.95442 15
v -19.3324 -2.92478 15
v -19.1875 -2.88787 15
v -19.0445 -2.84378 15
v -18.904 -2.79262 15
v -18.7661 -2.73452 15
v -18.6314 -2.66962 15
v -18.5 -2.59808 15
v -18.3724 -2.52008 15
v -18.2488 -2.43581 15
v -18.1295 -2.34549 15
v -18.0149 -2.24934 15
v -17.9053 -2.1476 15
v -17.8008 -2.04052 15
v -17.7019 -1.92836 15
v -17.6086 -1.81141 15
v -17.5213 -1.68996 15
v -17.4401 -1.56431 15
v -17.3653 -1.43476 15
v -17.2971 -1.30165 15
v -17.2356 -1.1653 15
v -17.1809 -1.02606 15
v -17.1333 -0.884266 15
v -17.0928 -0.740272 15
v -17.0595 -0.594438 15
v -17.0335 -0.447127 15
v -17.0149 -0.298704 15
v -17.0037 -0.149538 15
v -17 -7.34788e-16 15
v -17 -7.34788e-16 0
v -17.0037 0.149538 0
v -17.0149 0.298704 0
v -17.0335 0.447127 0
v -17.0595 0.594438 0
v -17.0928 0.740272 0
v -17.1333 0.884266 0
v -17.1809 1.02606 0
v -17.2356 1.1653 0
v -17.2971 1.30165 0
v -17.3653 1.43476 0
v -17.4401 1.56431 0
v -17.5213 1.68996 0
v -17.6086 1.81141 0
v -17.7019 1.92836 0
v -17.8008 2.04052 0
v -17.9053 2.1476 0
v -18.0149 2.24934 0
v -18.1295 2.34549 0
v -18.2488 2.43581 0
v -18.3724 2.52008 0
v -18.5 2.59808 0
v -18.6314 2.66962 0
v -18.7661 2.73452 0
v -18.904 2.79262 0
v -19.0445 2.84378 0
v -19.1875 2.88787 0
v -19.3324 2.92478 0
v -19.4791 2.95442 0
v -19.627 2.97672 0
v -19.7758 2.99161 0
v -19.9252 2.99907 0
v -20.0748 2.99907 0
v -20.2242 2.99161 0
v -20.373 2.97672 0
v -20.5209 2.95442 0
v -20.6676 2.92478 0
v -20.8125 2.88787 0
v -20.9555 2.84378 0
v -21.096 2.79262 0
v -21.2339 2.73452 0
v -21.3686 2.66962 0
v -21.5 2.59808 0
v -21.6276 2.52008 0
v -21.7512 2.43581 0
v -21.8705 2.34549 0
v -21.9851 2.24934 0
v -22.0947 2.1476 0
v -22.1992 2.04052 0
v -22.2981 1.92836 0
v -22.3914 1.81141 0
v -22.4787 1.68996 0
v -22.5599 1.56431 0
v -22.6347 1.43476 0
v -22.7029 1.30165 0
v -22.7644 1.1653 0
v -22.8191 1.02606 0
v -22.8667 0.884266 0
v -22.9072 0.740272 0
v -22.9405 0.594438 0
v -22.9665 0.447127 0
v -22.9851 0.298704 0
v -22.9963 0.149538 0
v -23 -1.02907e-14 0
v -22.9963 -0.149538 0
v -22.9851 -0.298704 0
v -22.9665 -0.447127 0
v -22.9405 -0.594438 0
v -22.9072 -0.740272 0
v -22.8667 -0.884266 0
v -22.8191 -1.02606 0
v -22.7644 -1.1653 0
v -22.7029 -1.30165 0
v -22.6347 -1.43476 0
v -22.5599 -1.56431 0
v -22.4787 -1.68996 0
v -22.3914 -1.81141 0
v -22.2981 -1.92836 0
v -22.1992 -2.04052 0
v -22.0947 -2.1476 0
v -21.9851 -2.24934 0
v -21.8705 -2.34549 0
v -21.7512 -2.43581 0
v -21.6276 -2.52008 0
v -21.5 -2.59808 0
v -21.3686 -2.66962 0
v -21.2339 -2.73452 0
v -21.096 -2.79262 0
v -20.9555 -2.84378 0
v -20.8125 -2.88787 0
v -20.6676 -2.92478 0
v -20.5209 -2.95442 0
v -20.373 -2.97672 0
v -20.2242 -2.99161 0
v -20.0748 -2.99907 0
v -19.9252 -2.99907 0
v -19.7758 -2.99161 0
v -19.627 -2.97672 0
v -19.4791 -2.95442 0
v -19.3324 -2.92478 0
v -19.1875 -2.88787 0
v -19.0445 -2.84378 0
v -18.904 -2.79262 0
v -18.7661 -2.73452 0
v -18.6314 -2.66962 0
v -18.5 -2.59808 0
v -18.3724 -2.52008 0
v -18.2488 -2.43581 0
v -18.1295 -2.34549 0
v -18.0149 -2.24934 0
v -17.9053 -2.1476 0
v -17.8008 -2.04052 0
v -17.7019 -1.92836 0
v -17.6086 -1.81141 0
v -17.5213 -1.68996 0
v -17.4401 -1.56431 0
v -17.3653 -1.43476 0
v -17.2971 -1.30165 0
v -17.2356 -1.1653 0
v -17.1809 -1.02606 0
v -17.1333 -0.884266 0
v -17.0928 -0.740272 0
v -17.0595 -0.594438 0
v -17.0335 -0.447127 0
v -17.0149 -0.298704 0
v -17.0037 -0.149538 0
v -17 -7.34788e-16 0
v 3 -7.34788e-16 15
v 2.99627 0.149538 15
v 2.98509 0.298704 15
v 2.96649 0.447127 15
v 2.94052 0.594438 15
v 2.90723 0.740272 15
v 2.86672 0.884266 15
v 2.81908 1.02606 15
v 2.76443 1.1653 15
v 2.70291 1.30165 15
v 2.63466 1.43476 15
v 2.55987 1.56431 15
v 2.47872 1.68996 15
v 2.3914 1.81141 15
v 2.29813 1.92836 15
v 2.19916 2.04052 15
v 2.09471 2.1476 15
v 1.98506 2.24934 15
v 1.87047 2.34549 15
v 1.75123 2.43581 15
v 1.62764 2.52008 15
v 1.5 2.59808 15
v 1.36863 2.66962 15
v 1.23386 2.73452 15
v 1.09602 2.79262 15
v 0.95546 2.84378 15
v 0.812521 2.88787 15
v 0.667563 2.92478 15
v 0.520945 2.95442 15
v 0.373031 2.97672 15
v 0.22419 2.99161 15
v 0.0747921 2.99907 15
v -0.0747921 2.99907 15
v -0.22419 2.99161 15
v -0.373031 2.97672 15
v -0.520945 2.95442 15
v -0.667563 2.92478 15
v -0.812521 2.88787 15
v -0.95546 2.84378 15
v -1.09602 2.79262 15
v -1.23386 2.73452 15
v -1.36863 2.66962 15
v -1.5 2.59808 15
v -1.62764 2.52008 15
v -1.75123 2.43581 15
v -1.87047 2.34549 15
v -1.98506 2.24934 15
v -2.09471 2.1476 15
v -2.19916 2.04052 15
v -2.29813 1.92836 15
v -2.3914 1.81141 15
v -2.47872 1.68996 15
v -2.55987 1.56431 15
v -2.63466 1.43476 15
v -2.70291 1.30165 15
v -2.76443 1.1653 15
v -2.81908 1.02606 15
v -2.86672 0.884266 15
v -2.90723 0.740272 15
v -2.94052 0.594438 15
v -2.96649 0.447127 15
v -2.98509 0.298704 15
v -2.99627 0.149538 15
v -3 -1.02907e-14 15
v -2.99627 -0.149538 15
v -2.98509 -0.298704 15
v -2.96649 -0.447127 15
v -2.94052 -0.594438 15
v -2.90723 -0.740272 15
v -2.86672 -0.884266 15
v -2.81908 -1.02606 15
v -2.76443 -1.1653 15
v -2.70291 -1.30165 15
v -2.63466 -1.43476 15
v -2.55987 -1.56431 15
v -2.47872 -1.68996 15
v -2.3914 -1.81141 15
v -2.29813 -1.92836 15
v -2.19916 -2.04052 15
v -2.09471 -2.1476 15
v -1.98506 -2.24934 15
v -1.87047 -2.34549 15
v -1.75123 -2.43581 15
v -1.62764 -2.52008 15
v -1.5 -2.59808 15
v -1.36863 -2.66962 15
v -1.23386 -2.73452 15
v -1.09602 -2.79262 15
v -0.95546 -2.84378 15
v -0.812521 -2.88787 15
v -0.667563 -2.92478 15
v -0.520945 -2.95442 15
v -0.373031 -2.97672 15
v -0.22419 -2.99161 15
v -0.0747921 -2.99907 15
v 0.0747921 -2.99907 15
v 0.22419 -2.99161 15
v 0.373031 -2.97672 15
v 0.520945 -2.95442 15
v 0.667563 -2.92478 15
v 0.812521 -2.88787 15
v 0.95546 -2.84378 15
v 1.09602 -2.79262 15
v 1.23386 -2.73452 15
v 1.36863 -2.66962 15
v 1.5 -2.59808 15
v 1.62764 -2.52008 15
v 1.75123 -2.43581 15
v 1.87047 -2.34549 15
v 1.98506 -2.24934 15
v 2.09471 -2.1476 15
v 2.19916 -2.04052 15
v 2.29813 -1.92836 15
v 2.3914 -1.81141 15
v 2.47872 -1.68996 15
v 2.55987 -1.56431 15
v 2.63466 -1.43476 15
v 2.70291 -1.30165 15
v 2.76443 -1.1653 15
v 2.81908 -1.02606 15
v 2.86672 -0.884266 15
v 2.90723 -0.740272 15
v 2.94052 -0.594438 15
v 2.96649 -0.447127 15
v 2.98509 -0.298704 15
v 2.99627 -0.149538 15
v 3 -7.34788e-16 15
v 3 -7.34788e-16 0
v 2.99627 0.149538 0
v 2.98509 0.298704 0
v 2.96649 0.447127 0
v 2.94052 0.594438 0
v 2.90723 0.740272 0
v 2.86672 0.884266 0
v 2.81908 1.02606 0
v 2.76443 1.1653 0
v 2.70291 1.30165 0
v 2.63466 1.43476 0
v 2.55987 1.56431 0
v 2.47872 1.68996 0
v 2.3914 1.81141 0
v 2.29813 1.92836 0
v 2.19916 2.04052 0
v 2.09471 2.1476 0
v 1.98506 2.24934 0
v 1.87047 2.34549 0
v 1.75123 2.43581 0
v 1.62764 2.52008 0
v 1.5 2.59808 0
v 1.36863 2.66962 0
v 1.23386 2.73452 0
v 1.09602 2.79262 0
v 0.95546 2.84378 0
v 0.812521 2.88787 0
v 0.667563 2.92478 0
v 0.520945 2.95442 0
v 0.373031 2.97672 0
v 0.22419 2.99161 0
v 0.0747921 2.99907 0
v -0.0747921 2.99907 0
v -0.22419 2.99161 0
v -0.373031 2.97672 0
v -0.520945 2.95442 0
v -0.667563 2.92478 0
v -0.812521 2.88787 0
v -0.95546 2.84378 0
v -1.09602 2.79262 0
v -1.23386 2.73452 0
v -1.36863 2.66962 0
v -1.5 2.59808 0
v -1.62764 2.52008 0
v -1.75123 2.43581 0
v -1.87047 2.34549 0
v -1.98506 2.24934 0
v -2.09471 2.1476 0
v -2.19916 2.04052 0
v -2.29813 1.92836 0
v -2.3914 1.81141 0
v -2.47872 1.68996 0
v -2.55987 1.56431 0
v -2.63466 1.43476 0
v -2.70291 1.30165 0
v -2.76443 1.1653 0
v -2.81908 1.02606 0
v -2.86672 0.884266 0
v -2.90723 0.740272 0
v -2.94052 0.594438 0
v -2.96649 0.447127 0
v -2.98509 0.298704 0
v -2.99627 0.149538 0
v -3 -1.02907e-14 0
v -2.99627 -0.149538 0
v -2.98509 -0.298704 0
v -2.96649 -0.447127 0
v -2.94052 -0.594438 0
v -2.90723 -0.740272 0
v -2.86672 -0.884266 0
v -2.81908 -1.02606 0
v -2.76443 -1.1653 0
v -2.70291 -1.30165 0
v -2.63466 -1.43476 0
v -2.55987 -1.56431 0
v -2.47872 -1.68996 0
v -2.3914 -1.81141 0
v -2.29813 -1.92836 0
v -2.19916 -2.04052 0
v -2.09471 -2.1476 0
v -1.98506 -2.24934 0
v -1.87047 -2.34549 0
v -1.75123 -2.43581 0
v -1.62764 -2.52008 0
v -1.5 -2.59808 0
v -1.36863 -2.66962 0
v -1.23386 -2.73452 0
v -1.09602 -2.79262 0
v -0.95546 -2.84378 0
v -0.812521 -2.88787 0
v -0.667563 -2.92478 0
v -0.520945 -2.95442 0
v -0.373031 -2.97672 0
v -0.22419 -2.99161 0
v -0.0747921 -2.99907 0
v 0.0747921 -2.99907 0
v 0.22419 -2.99161 0
v 0.373031 -2.97672 0
v 0.520945 -2.95442 0
v 0.667563 -2.92478 0
v 0.812521 -2.88787 0
v 0.95546 -2.84378 0
v 1.09602 -2.79262 0
v 1.23386 -2.73452 0
v 1.36863 -2.66962 0
v 1.5 -2.59808 0
v 1.62764 -2.52008 0
v 1.75123 -2.43581 0
v 1.87047 -2.34549 0
v 1.98506 -2.24934 0
v 2.09471 -2.1476 0
v 2.19916 -2.04052 0
v 2.29813 -1.92836 0
v 2.3914 -1.81141 0
v 2.47872 -1.68996 0
v 2.55987 -1.56431 0
v 2.63466 -1.43476 0
v 2.70291 -1.30165 0
v 2.76443 -1.1653 0
v 2.81908 -1.02606 0
v 2.86672 -0.884266 0
v 2.90723 -0.740272 0
v 2.94052 -0.594438 0
v 2.96649 -0.447127 0
v 2.98509 -0.298704 0
v 2.99627 -0.149538 0
v 3 -7.34788e-16 0
v 23 -7.34788e-16 15
v 22.9963 0.149538 15
v 22.9851 0.298704 15
v 22.9665 0.447127 15
v 22.9405 0.594438 15
v 22.9072 0.740272 15
v 22.8667 0.884266 15
v 22.8191 1.02606 15
v 22.7644 1.1653 15
v 22.7029 1.30165 15
v 22.6347 1.43476 15
v 22.5599 1.56431 15
v 22.4787 1.68996 15
v 22.3914 1.81141 15
v 22.2981 1.92836 15
v 22.1992 2.04052 15
v 22.0947 2.1476 15
v 21.9851 2.24934 15
v 21.8705 2.34549 15
v 21.7512 2.43581 15
v 21.6276 2.52008 15
v 21.5 2.59808 15
v 21.3686 2.66962 15
v 21.2339 2.73452 15
v 21.096 2.79262 15
v 20.9555 2.84378 15
v 20.8125 2.88787 15
v 20.6676 2.92478 15
v 20.5209 2.95442 15
v 20.373 2.97672 15
v 20.2242 2.99161 15
v 20.0748 2.99907 15
v 19.9252 2.99907 15
v 19.7758 2.99161 15
v 19.627 2.97672 15
v 19.4791 2.95442 15
v 19.3324 2.92478 15
v 19.1875 2.88787 15
v 19.0445 2.84378 15
v 18.904 2.79262 15
v 18.7661 2.73452 15
v 18.6314 2.66962 15
v 18.5 2.59808 15
v 18.3724 2.52008 15
v 18.2488 2.43581 15
v 18.1295 2.34549 15
v 18.0149 2.24934 15
v 17.9053 2.1476 15
v 17.8008 2.04052 15
v 17.7019 1.92836 15
v 17.6086 1.81141 15
v 17.5213 1.68996 15
v 17.4401 1.56431 15
v 17.3653 1.43476 15
v 17.2971 1.30165 15
v 17.2356 1.1653 15
v 17.1809 1.02606 15
v 17.1333 0.884266 15
v 17.0928 0.740272 15
v 17.0595 0.594438 15
v 17.0335 0.447127 15
v 17.0149 0.298704 15
v 17.0037 0.149538 15
v 17 -1.02907e-14 15
v 17.0037 -0.149538 15
v 17.0149 -0.298704 15
v 17.0335 -0.447127 15
v 17.0595 -0.594438 15
v 17.0928 -0.740272 15
v 17.1333 -0.884266 15
v 17.1809 -1.02606 15
v 17.2356 -1.1653 15
v 17.2971 -1.30165 15
v 17.3653 -1.43476 15
v 17.4401 -1.56431 15
v 17.5213 -1.68996 15
v 17.6086 -1.81141 15
v 17.7019 -1.92836 15
v 17.8008 -2.04052 15
v 17.9053 -2.1476 15
v 18.0149 -2.24934 15
v 18.1295 -2.34549 15
v 18.2488 -2.43581 15
v 18.3724 -2.52008 15
v 18.5 -2.59808 15
v 18.6314 -2.66962 15
v 18.7661 -2.73452 15
v 18.904 -2.79262 15
v 19.0445 -2.84378 15
v 19.1875 -2.88787 15
v 19.3324 -2.92478 15
v 19.4791 -2.95442 15
v 19.627 -2.97672 15
v 19.7758 -2.99161 15
v 19.9252 -2.99907 15
v 20.0748 -2.99907 15
v 20.2242 -2.99161 15
v 20.373 -2.97672 15
v 20.5209 -2.95442 15
v 20.6676 -2.92478 15
v 20.8125 -2.88787 15
v 20.9555 -2.84378 15
v 21.096 -2.79262 15
v 21.2339 -2.73452 15
v 21.3686 -2.66962 15
v 21.5 -2.59808 15
v 21.6276 -2.52008 15
v 21.7512 -2.43581 15
v 21.8705 -2.34549 15
v 21.9851 -2.24934 15
v 22.0947 -2.1476 15
v 22.1992 -2.04052 15
v 22.2981 -1.92836 15
v 22.3914 -1.81141 15
v 22.4787 -1.68996 15
v 22.5599 -1.56431 15
v 22.6347 -1.43476 15
v 22.7029 -1.30165 15
v 22.7644 -1.1653 15
v 22.8191 -1.02606 15
v 22.8667 -0.884266 15
v 22.9072 -0.740272 15
v 22.9405 -0.594438 15
v 22.9665 -0.447127 15
v 22.9851 -0.298704 15
v 22.9963 -0.149538 15
v 23 -7.34788e-16 15
v 23 -7.34788e-16 0
v 22.9963 0.149538 0
v 22.9851 0.298704 0
v 22.9665 0.447127 0
v 22.9405 0.594438 0
v 22.9072 0.740272 0
v 22.8667 0.884266 0
v 22.8191 1.02606 0
v 22.7644 1.1653 0
v 22.7029 1.30165 0
v 22.6347 1.43476 0
v 22.5599 1.56431 0
v 22.4787 1.68996 0
v 22.3914 1.81141 0
v 22.2981 1.92836 0
v 22.1992 2.04052 0
v 22.0947 2.1476 0
v 21.9851 2.24934 0
v 21.8705 2.34549 0
v 21.7512 2.43581 0
v 21.6276 2.52008 0
v 21.5 2.59808 0
v 21.3686 2.66962 0
v 21.2339 2.73452 0
v 21.096 2.79262 0
v 20.9555 2.84378 0
v 20.8125 2.88787 0
v 20.6676 2.92478 0
v 20.5209 2.95442 0
v 20.373 2.97672 0
v 20.2242 2.99161 0
v 20.0748 2.99907 0
v 19.9252 2.99907 0
v 19.7758 2.99161 0
v 19.627 2.97672 0
v 19.4791 2.95442 0
v 19.3324 2.92478 0
v 19.1875 2.88787 0
v 19.0445 2.84378 0
v 18.904 2.79262 0
v 18.7661 2.73452 0
v 18.6314 2.66962 0
v 18.5 2.59808 0
v 18.3724 2.52008 0
v 18.2488 2.43581 0
v 18.1295 2.34549 0
v 18.0149 2.24934 0
v 17.9053 2.1476 0
v 17.8008 2.04052 0
v 17.7019 1.92836 0
v 17.6086 1.81141 0
v 17.5213 1.68996 0
v 17.4401 1.56431 0
v 17.3653 1.43476 0
v 17.2971 1.30165 0
v 17.2356 1.1653 0
v 17.1809 1.02606 0
v 17.1333 0.884266 0
v 17.0928 0.740272 0
v 17.0595 0.594438 0
v 17.0335 0.447127 0
v 17.0149 0.298704 0
v 17.0037 0.149538 0
v 17 -1.02907e-14 0
v 17.0037 -0.149538 0
v 17.0149 -0.298704 0
v 17.0335 -0.447127 0
v 17.0595 -0.594438 0
v 17.0928 -0.740272 0
v 17.1333 -0.884266 0
v 17.1809 -1.02606 0
v 17.2356 -1.1653 0
v 17.2971 -1.30165 0
v 17.3653 -1.43476 0
v 17.4401 -1.56431 0
v 17.5213 -1.68996 0
v 17.6086 -1.81141 0
v 17.7019 -1.92836 0
v 17.8008 -2.04052 0
v 17.9053 -2.1476 0
v 18.0149 -2.24934 0
v 18.1295 -2.34549 0
v 18.2488 -2.43581 0
v 18.3724 -2.52008 0
v 18.5 -2.59808 0
v 18.6314 -2.66962 0
v 18.7661 -2.73452 0
v 18.904 -2.79262 0
v 19.0445 -2.84378 0
v 19.1875 -2.88787 0
v 19.3324 -2.92478 0
v 19.4791 -2.95442 0
v 19.627 -2.97672 0
v 19.7758 -2.99161 0
v 19.9252 -2.99907 0
v 20.0748 -2.99907 0
v 20.2242 -2.99161 0
v 20.373 -2.97672 0
v 20.5209 -2.95442 0
v 20.6676 -2.92478 0
v 20.8125 -2.88787 0
v 20.9555 -2.84378 0
v 21.096 -2.79262 0
v 21.2339 -2.73452 0
v 21.3686 -2.66962 0
v 21.5 -2.59808 0
v 21.6276 -2.52008 0
v 21.7512 -2.43581 0
v 21.8705 -2.34549 0
v 21.9851 -2.24934 0
v 22.0947 -2.1476 0
v 22.1992 -2.04052 0
v 22.2981 -1.92836 0
v 22.3914 -1.81141 0
v 22.4787 -1.68996 0
v 22.5599 -1.56431 0
v 22.6347 -1.43476 0
v 22.7029 -1.30165 0
v 22.7644 -1.1653 0
v 22.8191 -1.02606 0
v 22.8667 -0.884266 0
v 22.9072 -0.740272 0
v 22.9405 -0.594438 0
v 22.9665 -0.447127 0
v 22.9851 -0.298704 0
v 22.9963 -0.149538 0
v 23 -7.34788e-16 0
f 6 5 4
f 1 7 6
f 1 8 7
f 3 6 4
f 3 1 6
f 2 8 1
f 9 12 11
f 10 12 9
f 15 14 13
f 16 14 15
f 18 19 17
f 20 19 18
f 23 21 22
f 24 23 22
f 26 25 27
f 26 27 28
f 111 112 29
f 113 29 112
f 110 111 29
f 114 29 113
f 109 110 29
f 115 29 114
f 108 109 29
f 116 29 115
f 107 108 29
f 117 29 116
f 106 107 29
f 118 29 117
f 105 106 29
f 119 29 118
f 104 105 29
f 120 29 119
f 103 104 29
f 121 29 120
f 102 103 29
f 122 29 121
f 101 102 29
f 123 29 122
f 100 101 29
f 124 29 123
f 99 100 29
f 125 29 124
f 98 99 29
f 126 29 125
f 97 98 29
f 127 29 126
f 96 97 29
f 128 29 127
f 129 29 128
f 130 29 129
f 131 29 130
f 132 29 131
f 133 29 132
f 134 29 133
f 135 29 134
f 30 57 58
f 30 58 59
f 30 59 60
f 30 60 61
f 30 61 62
f 30 62 63
f 30 63 64
f 30 64 65
f 30 65 66
f 30 66 67
f 30 67 68
f 30 96 29
f 30 68 69
f 30 69 70
f 30 70 71
f 30 71 72
f 30 72 73
f 30 73 74
f 30 74 75
f 30 75 76
f 30 76 77
f 30 77 78
f 30 78 79
f 30 79 80
f 30 80 81
f 30 81 82
f 30 82 83
f 30 83 84
f 30 84 85
f 30 85 86
f 30 86 87
f 30 87 88
f 30 88 89
f 30 89 90
f 30 90 91
f 30 91 92
f 30 92 93
f 30 93 94
f 30 94 95
f 30 95 96
f 238 142 143
f 237 143 144
f 237 238 143
f 239 142 238
f 236 144 145
f 236 237 144
f 240 140 141
f 240 141 142
f 240 142 239
f 235 145 146
f 235 236 145
f 241 140 240
f 234 146 147
f 234 235 146
f 242 140 241
f 242 138 139
f 242 139 140
f 233 234 147
f 233 147 148
f 243 138 242
f 232 148 149
f 232 149 150
f 232 233 148
f 244 136 137
f 244 137 138
f 244 138 243
f 231 232 150
f 245 135 136
f 245 136 244
f 230 150 151
f 230 231 150
f 246 135 245
f 246 29 135
f 229 151 152
f 229 230 151
f 247 29 246
f 228 152 153
f 228 229 152
f 248 29 247
f 227 153 154
f 227 228 153
f 249 29 248
f 226 154 155
f 226 155 156
f 226 227 154
f 250 29 249
f 225 226 156
f 251 29 250
f 224 156 157
f 224 225 156
f 252 29 251
f 223 157 158
f 223 224 157
f 253 29 252
f 222 158 33
f 222 223 158
f 221 33 34
f 221 34 35
f 221 222 33
f 220 35 36
f 220 221 35
f 219 36 37
f 219 220 36
f 218 219 37
f 217 37 38
f 217 218 37
f 216 38 39
f 216 217 38
f 215 39 40
f 215 40 41
f 215 216 39
f 214 215 41
f 213 41 42
f 213 214 41
f 212 42 43
f 212 213 42
f 211 43 44
f 211 44 45
f 211 212 43
f 210 211 45
f 210 45 46
f 209 46 47
f 209 210 46
f 208 209 47
f 207 47 48
f 207 208 47
f 206 48 49
f 206 207 48
f 205 49 50
f 205 206 49
f 204 50 51
f 204 51 52
f 204 205 50
f 203 52 53
f 203 204 52
f 202 203 53
f 201 53 54
f 201 202 53
f 200 54 55
f 200 201 54
f 199 55 56
f 199 200 55
f 198 57 30
f 198 56 57
f 198 199 56
f 197 198 30
f 196 197 30
f 195 196 30
f 194 195 30
f 193 194 30
f 192 193 30
f 191 192 30
f 31 253 254
f 31 254 255
f 31 255 256
f 31 256 257
f 31 257 258
f 31 258 259
f 31 259 260
f 31 260 261
f 31 29 253
f 363 364 269
f 363 269 270
f 365 269 364
f 365 267 268
f 365 268 269
f 362 270 271
f 362 363 270
f 366 267 365
f 361 271 272
f 361 362 271
f 367 266 267
f 367 267 366
f 360 272 273
f 360 361 272
f 368 266 367
f 368 264 265
f 368 265 266
f 359 273 274
f 359 274 275
f 359 360 273
f 369 263 264
f 369 264 368
f 358 359 275
f 370 263 369
f 357 275 276
f 357 358 275
f 371 263 370
f 371 261 262
f 371 262 263
f 356 276 277
f 356 357 276
f 372 261 371
f 372 31 261
f 355 356 277
f 355 277 278
f 373 31 372
f 354 355 278
f 354 278 279
f 374 31 373
f 353 354 279
f 353 279 280
f 375 31 374
f 352 280 281
f 352 281 282
f 352 353 280
f 376 31 375
f 351 352 282
f 377 31 376
f 350 351 282
f 350 282 283
f 378 31 377
f 349 350 283
f 349 283 284
f 379 31 378
f 348 349 284
f 348 284 159
f 380 31 379
f 347 159 160
f 347 348 159
f 381 31 380
f 346 160 161
f 346 347 160
f 382 31 381
f 345 161 162
f 345 162 163
f 345 346 161
f 383 31 382
f 344 345 163
f 384 31 383
f 343 163 164
f 343 344 163
f 385 31 384
f 342 343 164
f 342 164 165
f 386 31 385
f 341 165 166
f 341 342 165
f 341 166 167
f 387 31 386
f 340 341 167
f 388 31 387
f 339 340 167
f 339 167 168
f 339 168 169
f 389 31 388
f 338 339 169
f 390 31 389
f 337 169 170
f 337 338 169
f 391 31 390
f 336 170 171
f 336 337 170
f 392 31 391
f 335 171 172
f 335 336 171
f 393 31 392
f 334 172 173
f 334 335 172
f 394 31 393
f 333 334 173
f 333 173 174
f 333 174 175
f 395 31 394
f 332 333 175
f 396 31 395
f 331 175 176
f 331 332 175
f 397 31 396
f 330 331 176
f 330 176 177
f 330 177 178
f 398 31 397
f 329 330 178
f 399 31 398
f 328 329 178
f 328 178 179
f 328 179 180
f 400 31 399
f 327 328 180
f 401 31 400
f 326 327 180
f 326 180 181
f 326 181 182
f 402 31 401
f 325 326 182
f 403 31 402
f 324 325 182
f 324 182 183
f 404 31 403
f 405 31 404
f 406 31 405
f 407 31 406
f 408 31 407
f 409 31 408
f 410 31 409
f 285 31 410
f 32 324 183
f 32 31 285
f 32 183 184
f 32 184 185
f 32 285 286
f 32 185 186
f 32 286 287
f 32 186 187
f 32 287 288
f 32 187 188
f 32 288 289
f 32 188 189
f 32 289 290
f 32 189 190
f 32 290 291
f 32 291 292
f 32 292 293
f 32 293 294
f 32 294 295
f 32 295 296
f 32 296 297
f 32 297 298
f 32 298 299
f 32 299 300
f 32 300 301
f 32 301 302
f 32 302 303
f 32 303 304
f 32 304 305
f 32 305 306
f 32 306 307
f 32 307 308
f 32 308 309
f 32 309 310
f 32 310 311
f 32 311 312
f 32 312 313
f 32 313 314
f 32 314 315
f 32 315 316
f 32 316 317
f 32 317 318
f 32 318 319
f 32 319 320
f 32 320 321
f 32 321 322
f 32 322 323
f 32 323 324
f 32 191 30
f 32 190 191
f 412 411 413
f 414 412 413
f 497 415 498
f 499 498 415
f 496 415 497
f 500 499 415
f 495 415 496
f 501 500 415
f 494 415 495
f 502 501 415
f 493 415 494
f 503 502 415
f 492 415 493
f 504 503 415
f 491 415 492
f 505 504 415
f 490 415 491
f 506 505 415
f 489 415 490
f 507 506 415
f 488 415 489
f 508 507 415
f 487 415 488
f 509 508 415
f 486 415 487
f 510 509 415
f 485 415 486
f 511 510 415
f 484 415 485
f 512 511 415
f 483 415 484
f 513 512 415
f 482 415 483
f 514 513 415
f 515 514 415
f 516 515 415
f 517 516 415
f 518 517 415
f 519 518 415
f 520 519 415
f 521 520 415
f 416 444 443
f 416 445 444
f 416 446 445
f 416 447 446
f 416 448 447
f 416 449 448
f 416 450 449
f 416 451 450
f 416 452 451
f 416 453 452
f 416 454 453
f 416 415 482
f 416 455 454
f 416 456 455
f 416 457 456
f 416 458 457
f 416 459 458
f 416 460 459
f 416 461 460
f 416 462 461
f 416 463 462
f 416 464 463
f 416 465 464
f 416 466 465
f 416 467 466
f 416 468 467
f 416 469 468
f 416 470 469
f 416 471 470
f 416 472 471
f 416 473 472
f 416 474 473
f 416 475 474
f 416 476 475
f 416 477 476
f 416 478 477
f 416 479 478
f 416 480 479
f 416 481 480
f 416 482 481
f 624 529 528
f 623 530 529
f 623 529 624
f 625 624 528
f 622 531 530
f 622 530 623
f 626 527 526
f 626 528 527
f 626 625 528
f 621 532 531
f 621 531 622
f 627 626 526
f 620 533 532
f 620 532 621
f 628 627 526
f 628 525 524
f 628 526 525
f 619 533 620
f 619 534 533
f 629 628 524
f 618 535 534
f 618 536 535
f 618 534 619
f 630 523 522
f 630 524 523
f 630 629 524
f 617 536 618
f 631 522 521
f 631 630 522
f 616 537 536
f 616 536 617
f 632 631 521
f 632 521 415
f 615 538 537
f 615 537 616
f 633 632 415
f 614 539 538
f 614 538 615
f 634 633 415
f 613 540 539
f 613 539 614
f 635 634 415
f 612 541 540
f 612 542 541
f 612 540 613
f 636 635 415
f 611 542 612
f 637 636 415
f 610 543 542
f 610 542 611
f 638 637 415
f 609 544 543
f 609 543 610
f 639 638 415
f 608 419 544
f 608 544 609
f 607 420 419
f 607 421 420
f 607 419 608
f 606 422 421
f 606 421 607
f 605 423 422
f 605 422 606
f 604 423 605
f 603 424 423
f 603 423 604
f 602 425 424
f 602 424 603
f 601 426 425
f 601 427 426
f 601 425 602
f 600 427 601
f 599 428 427
f 599 427 600
f 598 429 428
f 598 428 599
f 597 430 429
f 597 431 430
f 597 429 598
f 596 431 597
f 596 432 431
f 595 433 432
f 595 432 596
f 594 433 595
f 593 434 433
f 593 433 594
f 592 435 434
f 592 434 593
f 591 436 435
f 591 435 592
f 590 437 436
f 590 438 437
f 590 436 591
f 589 439 438
f 589 438 590
f 588 439 589
f 587 440 439
f 587 439 588
f 586 441 440
f 586 440 587
f 585 442 441
f 585 441 586
f 584 416 443
f 584 443 442
f 584 442 585
f 583 416 584
f 582 416 583
f 581 416 582
f 580 416 581
f 579 416 580
f 578 416 579
f 577 416 578
f 417 640 639
f 417 641 640
f 417 642 641
f 417 643 642
f 417 644 643
f 417 645 644
f 417 646 645
f 417 647 646
f 417 639 415
f 749 655 750
f 749 656 655
f 751 750 655
f 751 654 653
f 751 655 654
f 748 657 656
f 748 656 749
f 752 751 653
f 747 658 657
f 747 657 748
f 753 653 652
f 753 752 653
f 746 659 658
f 746 658 747
f 754 753 652
f 754 651 650
f 754 652 651
f 745 660 659
f 745 661 660
f 745 659 746
f 755 650 649
f 755 754 650
f 744 661 745
f 756 755 649
f 743 662 661
f 743 661 744
f 757 756 649
f 757 648 647
f 757 649 648
f 742 663 662
f 742 662 743
f 758 757 647
f 758 647 417
f 741 663 742
f 741 664 663
f 759 758 417
f 740 664 741
f 740 665 664
f 760 759 417
f 739 665 740
f 739 666 665
f 761 760 417
f 738 667 666
f 738 668 667
f 738 666 739
f 762 761 417
f 737 668 738
f 763 762 417
f 736 668 737
f 736 669 668
f 764 763 417
f 735 669 736
f 735 670 669
f 765 764 417
f 734 670 735
f 734 545 670
f 766 765 417
f 733 546 545
f 733 545 734
f 767 766 417
f 732 547 546
f 732 546 733
f 768 767 417
f 731 548 547
f 731 549 548
f 731 547 732
f 769 768 417
f 730 549 731
f 770 769 417
f 729 550 549
f 729 549 730
f 771 770 417
f 728 550 729
f 728 551 550
f 772 771 417
f 727 552 551
f 727 551 728
f 727 553 552
f 773 772 417
f 726 553 727
f 774 773 417
f 725 553 726
f 725 554 553
f 725 555 554
f 775 774 417
f 724 555 725
f 776 775 417
f 723 556 555
f 723 555 724
f 777 776 417
f 722 557 556
f 722 556 723
f 778 777 417
f 721 558 557
f 721 557 722
f 779 778 417
f 720 559 558
f 720 558 721
f 780 779 417
f 719 559 720
f 719 560 559
f 719 561 560
f 781 780 417
f 718 561 719
f 782 781 417
f 717 562 561
f 717 561 718
f 783 782 417
f 716 562 717
f 716 563 562
f 716 564 563
f 784 783 417
f 715 564 716
f 785 784 417
f 714 564 715
f 714 565 564
f 714 566 565
f 786 785 417
f 713 566 714
f 787 786 417
f 712 566 713
f 712 567 566
f 712 568 567
f 788 787 417
f 711 568 712
f 789 788 417
f 710 568 711
f 710 569 568
f 790 789 417
f 791 790 417
f 792 791 417
f 793 792 417
f 794 793 417
f 795 794 417
f 796 795 417
f 671 796 417
f 418 569 710
f 418 671 417
f 418 570 569
f 418 571 570
f 418 672 671
f 418 572 571
f 418 673 672
f 418 573 572
f 418 674 673
f 418 574 573
f 418 675 674
f 418 575 574
f 418 676 675
f 418 576 575
f 418 677 676
f 418 678 677
f 418 679 678
f 418 680 679
f 418 681 680
f 418 682 681
f 418 683 682
f 418 684 683
f 418 685 684
f 418 686 685
f 418 687 686
f 418 688 687
f 418 689 688
f 418 690 689
f 418 691 690
f 418 692 691
f 418 693 692
f 418 694 693
f 418 695 694
f 418 696 695
f 418 697 696
f 418 698 697
f 418 699 698
f 418 700 699
f 418 701 700
f 418 702 701
f 418 703 702
f 418 704 703
f 418 705 704
f 418 706 705
f 418 707 706
f 418 708 707
f 418 709 708
f 418 710 709
f 418 416 577
f 418 577 576
f 802 800 801
f 797 802 803
f 797 803 804
f 799 800 802
f 799 802 797
f 798 797 804
f 805 933 932
f 806 934 933
f 806 933 805
f 807 934 806
f 808 935 934
f 808 936 935
f 808 934 807
f 809 936 808
f 810 937 936
f 810 936 809
f 811 938 937
f 811 939 938
f 811 937 810
f 812 940 939
f 812 939 811
f 813 940 812
f 814 941 940
f 814 940 813
f 815 942 941
f 815 941 814
f 816 942 815
f 816 943 942
f 817 943 816
f 817 944 943
f 817 945 944
f 818 945 817
f 819 945 818
f 819 946 945
f 820 946 819
f 820 947 946
f 821 947 820
f 821 948 947
f 822 948 821
f 822 949 948
f 823 949 822
f 823 950 949
f 824 950 823
f 824 951 950
f 825 951 824
f 825 952 951
f 826 952 825
f 826 953 952
f 826 954 953
f 827 954 826
f 827 955 954
f 828 955 827
f 829 956 955
f 829 957 956
f 829 955 828
f 830 957 829
f 831 958 957
f 831 957 830
f 832 959 958
f 832 958 831
f 833 960 959
f 833 961 960
f 833 959 832
f 834 961 833
f 835 962 961
f 835 961 834
f 836 963 962
f 836 964 963
f 836 962 835
f 837 964 836
f 838 965 964
f 838 964 837
f 839 966 965
f 839 967 966
f 839 965 838
f 840 968 967
f 840 967 839
f 841 968 840
f 842 968 841
f 842 969 968
f 843 969 842
f 843 970 969
f 844 970 843
f 844 971 970
f 844 972 971
f 845 972 844
f 846 972 845
f 846 973 972
f 847 973 846
f 847 974 973
f 848 974 847
f 848 975 974
f 849 975 848
f 849 976 975
f 850 976 849
f 850 977 976
f 851 977 850
f 851 978 977
f 852 978 851
f 852 979 978
f 852 980 979
f 853 980 852
f 854 980 853
f 854 981 980
f 855 981 854
f 855 982 981
f 855 983 982
f 856 983 855
f 857 983 856
f 857 984 983
f 858 984 857
f 858 985 984
f 859 985 858
f 859 986 985
f 859 987 986
f 860 987 859
f 860 988 987
f 861 988 860
f 862 988 861
f 862 989 988
f 862 990 989
f 863 990 862
f 864 991 990
f 864 990 863
f 865 992 991
f 865 991 864
f 866 993 992
f 866 994 993
f 866 992 865
f 867 994 866
f 868 994 867
f 868 995 994
f 868 996 995
f 869 996 868
f 869 997 996
f 870 997 869
f 871 997 870
f 871 998 997
f 871 999 998
f 872 999 871
f 873 999 872
f 873 1000 999
f 873 1001 1000
f 874 1001 873
f 875 1001 874
f 875 1002 1001
f 876 1002 875
f 876 1003 1002
f 876 1004 1003
f 877 1004 876
f 878 1004 877
f 878 1005 1004
f 879 1007 1006
f 879 1005 878
f 879 1006 1005
f 880 1008 1007
f 880 1007 879
f 881 1009 1008
f 881 1008 880
f 882 1010 1009
f 882 1009 881
f 883 1010 882
f 884 1011 1010
f 884 1012 1011
f 884 1010 883
f 885 1012 884
f 886 1013 1012
f 886 1012 885
f 887 1014 1013
f 887 1015 1014
f 887 1013 886
f 888 1015 887
f 889 1016 1015
f 889 1015 888
f 890 1017 1016
f 890 1018 1017
f 890 1016 889
f 891 1018 890
f 892 1019 1018
f 892 1018 891
f 893 1019 892
f 893 1020 1019
f 893 1021 1020
f 894 1021 893
f 895 1021 894
f 895 1022 1021
f 896 1022 895
f 896 1023 1022
f 896 1024 1023
f 897 1024 896
f 898 1025 1024
f 898 1024 897
f 899 1026 1025
f 899 1025 898
f 900 1027 1026
f 900 1026 899
f 901 1028 1027
f 901 1027 900
f 902 1029 1028
f 902 1030 1029
f 902 1028 901
f 903 1030 902
f 904 1031 1030
f 904 1030 903
f 905 1032 1031
f 905 1033 1032
f 905 1031 904
f 906 1034 1033
f 906 1033 905
f 907 1034 906
f 908 1035 1034
f 908 1034 907
f 909 1036 1035
f 909 1035 908
f 910 1037 1036
f 910 1036 909
f 911 1038 1037
f 911 1037 910
f 912 1039 1038
f 912 1038 911
f 913 1040 1039
f 913 1041 1040
f 913 1039 912
f 914 1041 913
f 915 1042 1041
f 915 1041 914
f 916 1043 1042
f 916 1044 1043
f 916 1042 915
f 917 1045 1044
f 917 1044 916
f 918 1045 917
f 919 1045 918
f 919 1046 1045
f 919 1047 1046
f 920 1047 919
f 921 1047 920
f 921 1048 1047
f 922 1048 921
f 922 1049 1048
f 922 1050 1049
f 923 1050 922
f 924 1050 923
f 924 1051 1050
f 925 1051 924
f 925 1052 1051
f 926 1052 925
f 926 1053 1052
f 927 1053 926
f 927 1054 1053
f 928 1054 927
f 928 1055 1054
f 929 1055 928
f 929 1056 1055
f 930 1057 1056
f 930 1056 929
f 931 1058 1057
f 931 1057 930
f 1059 1187 1186
f 1060 1188 1187
f 1060 1187 1059
f 1061 1188 1060
f 1062 1189 1188
f 1062 1190 1189
f 1062 1188 1061
f 1063 1190 1062
f 1064 1191 1190
f 1064 1190 1063
f 1065 1192 1191
f 1065 1193 1192
f 1065 1191 1064
f 1066 1194 1193
f 1066 1193 1065
f 1067 1194 1066
f 1068 1195 1194
f 1068 1194 1067
f 1069 1196 1195
f 1069 1195 1068
f 1070 1196 1069
f 1070 1197 1196
f 1071 1197 1070
f 1071 1198 1197
f 1071 1199 1198
f 1072 1199 1071
f 1073 1199 1072
f 1073 1200 1199
f 1074 1200 1073
f 1074 1201 1200
f 1075 1201 1074
f 1075 1202 1201
f 1076 1202 1075
f 1076 1203 1202
f 1077 1203 1076
f 1077 1204 1203
f 1078 1204 1077
f 1078 1205 1204
f 1079 1205 1078
f 1079 1206 1205
f 1080 1206 1079
f 1080 1207 1206
f 1080 1208 1207
f 1081 1208 1080
f 1081 1209 1208
f 1082 1209 1081
f 1083 1210 1209
f 1083 1211 1210
f 1083 1209 1082
f 1084 1211 1083
f 1085 1212 1211
f 1085 1211 1084
f 1086 1213 1212
f 1086 1212 1085
f 1087 1214 1213
f 1087 1215 1214
f 1087 1213 1086
f 1088 1215 1087
f 1089 1216 1215
f 1089 1215 1088
f 1090 1217 1216
f 1090 1218 1217
f 1090 1216 1089
f 1091 1218 1090
f 1092 1219 1218
f 1092 1218 1091
f 1093 1220 1219
f 1093 1221 1220
f 1093 1219 1092
f 1094 1222 1221
f 1094 1221 1093
f 1095 1222 1094
f 1096 1222 1095
f 1096 1223 1222
f 1097 1223 1096
f 1097 1224 1223
f 1098 1224 1097
f 1098 1225 1224
f 1098 1226 1225
f 1099 1226 1098
f 1100 1226 1099
f 1100 1227 1226
f 1101 1227 1100
f 1101 1228 1227
f 1102 1228 1101
f 1102 1229 1228
f 1103 1229 1102
f 1103 1230 1229
f 1104 1230 1103
f 1104 1231 1230
f 1105 1231 1104
f 1105 1232 1231
f 1106 1232 1105
f 1106 1233 1232
f 1106 1234 1233
f 1107 1234 1106
f 1108 1234 1107
f 1108 1235 1234
f 1109 1235 1108
f 1109 1236 1235
f 1109 1237 1236
f 1110 1237 1109
f 1111 1237 1110
f 1111 1238 1237
f 1112 1238 1111
f 1112 1239 1238
f 1113 1239 1112
f 1113 1240 1239
f 1113 1241 1240
f 1114 1241 1113
f 1114 1242 1241
f 1115 1242 1114
f 1116 1242 1115
f 1116 1243 1242
f 1116 1244 1243
f 1117 1244 1116
f 1118 1245 1244
f 1118 1244 1117
f 1119 1246 1245
f 1119 1245 1118
f 1120 1247 1246
f 1120 1248 1247
f 1120 1246 1119
f 1121 1248 1120
f 1122 1248 1121
f 1122 1249 1248
f 1122 1250 1249
f 1123 1250 1122
f 1123 1251 1250
f 1124 1251 1123
f 1125 1251 1124
f 1125 1252 1251
f 1125 1253 1252
f 1126 1253 1125
f 1127 1253 1126
f 1127 1254 1253
f 1127 1255 1254
f 1128 1255 1127
f 1129 1255 1128
f 1129 1256 1255
f 1130 1256 1129
f 1130 1257 1256
f 1130 1258 1257
f 1131 1258 1130
f 1132 1258 1131
f 1132 1259 1258
f 1133 1261 1260
f 1133 1259 1132
f 1133 1260 1259
f 1134 1262 1261
f 1134 1261 1133
f 1135 1263 1262
f 1135 1262 1134
f 1136 1264 1263
f 1136 1263 1135
f 1137 1264 1136
f 1138 1265 1264
f 1138 1266 1265
f 1138 1264 1137
f 1139 1266 1138
f 1140 1267 1266
f 1140 1266 1139
f 1141 1268 1267
f 1141 1269 1268
f 1141 1267 1140
f 1142 1269 1141
f 1143 1270 1269
f 1143 1269 1142
f 1144 1271 1270
f 1144 1272 1271
f 1144 1270 1143
f 1145 1272 1144
f 1146 1273 1272
f 1146 1272 1145
f 1147 1273 1146
f 1147 1274 1273
f 1147 1275 1274
f 1148 1275 1147
f 1149 1275 1148
f 1149 1276 1275
f 1150 1276 1149
f 1150 1277 1276
f 1150 1278 1277
f 1151 1278 1150
f 1152 1279 1278
f 1152 1278 1151
f 1153 1280 1279
f 1153 1279 1152
f 1154 1281 1280
f 1154 1280 1153
f 1155 1282 1281
f 1155 1281 1154
f 1156 1283 1282
f 1156 1284 1283
f 1156 1282 1155
f 1157 1284 1156
f 1158 1285 1284
f 1158 1284 1157
f 1159 1286 1285
f 1159 1287 1286
f 1159 1285 1158
f 1160 1288 1287
f 1160 1287 1159
f 1161 1288 1160
f 1162 1289 1288
f 1162 1288 1161
f 1163 1290 1289
f 1163 1289 1162
f 1164 1291 1290
f 1164 1290 1163
f 1165 1292 1291
f 1165 1291 1164
f 1166 1293 1292
f 1166 1292 1165
f 1167 1294 1293
f 1167 1295 1294
f 1167 1293 1166
f 1168 1295 1167
f 1169 1296 1295
f 1169 1295 1168
f 1170 1297 1296
f 1170 1298 1297
f 1170 1296 1169
f 1171 1299 1298
f 1171 1298 1170
f 1172 1299 1171
f 1173 1299 1172
f 1173 1300 1299
f 1173 1301 1300
f 1174 1301 1173
f 1175 1301 1174
f 1175 1302 1301
f 1176 1302 1175
f 1176 1303 1302
f 1176 1304 1303
f 1177 1304 1176
f 1178 1304 1177
f 1178 1305 1304
f 1179 1305 1178
f 1179 1306 1305
f 1180 1306 1179
f 1180 1307 1306
f 1181 1307 1180
f 1181 1308 1307
f 1182 1308 1181
f 1182 1309 1308
f 1183 1309 1182
f 1183 1310 1309
f 1184 1311 1310
f 1184 1310 1183
f 1185 1312 1311
f 1185 1311 1184
f 1313 1441 1440
f 1314 1442 1441
f 1314 1441 1313
f 1315 1442 1314
f 1316 1443 1442
f 1316 1444 1443
f 1316 1442 1315
f 1317 1444 1316
f 1318 1445 1444
f 1318 1444 1317
f 1319 1446 1445
f 1319 1447 1446
f 1319 1445 1318
f 1320 1448 1447
f 1320 1447 1319
f 1321 1448 1320
f 1322 1449 1448
f 1322 1448 1321
f 1323 1450 1449
f 1323 1449 1322
f 1324 1450 1323
f 1324 1451 1450
f 1325 1451 1324
f 1325 1452 1451
f 1325 1453 1452
f 1326 1453 1325
f 1327 1453 1326
f 1327 1454 1453
f 1328 1454 1327
f 1328 1455 1454
f 1329 1455 1328
f 1329 1456 1455
f 1330 1456 1329
f 1330 1457 1456
f 1331 1457 1330
f 1331 1458 1457
f 1332 1458 1331
f 1332 1459 1458
f 1333 1459 1332
f 1333 1460 1459
f 1334 1460 1333
f 1334 1461 1460
f 1334 1462 1461
f 1335 1462 1334
f 1335 1463 1462
f 1336 1463 1335
f 1337 1464 1463
f 1337 1465 1464
f 1337 1463 1336
f 1338 1465 1337
f 1339 1466 1465
f 1339 1465 1338
f 1340 1467 1466
f 1340 1466 1339
f 1341 1468 1467
f 1341 1469 1468
f 1341 1467 1340
f 1342 1469 1341
f 1343 1470 1469
f 1343 1469 1342
f 1344 1471 1470
f 1344 1472 1471
f 1344 1470 1343
f 1345 1472 1344
f 1346 1473 1472
f 1346 1472 1345
f 1347 1474 1473
f 1347 1475 1474
f 1347 1473 1346
f 1348 1476 1475
f 1348 1475 1347
f 1349 1476 1348
f 1350 1476 1349
f 1350 1477 1476
f 1351 1477 1350
f 1351 1478 1477
f 1352 1478 1351
f 1352 1479 1478
f 1352 1480 1479
f 1353 1480 1352
f 1354 1480 1353
f 1354 1481 1480
f 1355 1481 1354
f 1355 1482 1481
f 1356 1482 1355
f 1356 1483 1482
f 1357 1483 1356
f 1357 1484 1483
f 1358 1484 1357
f 1358 1485 1484
f 1359 1485 1358
f 1359 1486 1485
f 1360 1486 1359
f 1360 1487 1486
f 1360 1488 1487
f 1361 1488 1360
f 1362 1488 1361
f 1362 1489 1488
f 1363 1489 1362
f 1363 1490 1489
f 1363 1491 1490
f 1364 1491 1363
f 1365 1491 1364
f 1365 1492 1491
f 1366 1492 1365
f 1366 1493 1492
f 1367 1493 1366
f 1367 1494 1493
f 1367 1495 1494
f 1368 1495 1367
f 1368 1496 1495
f 1369 1496 1368
f 1370 1496 1369
f 1370 1497 1496
f 1370 1498 1497
f 1371 1498 1370
f 1372 1499 1498
f 1372 1498 1371
f 1373 1500 1499
f 1373 1499 1372
f 1374 1501 1500
f 1374 1502 1501
f 1374 1500 1373
f 1375 1502 1374
f 1376 1502 1375
f 1376 1503 1502
f 1376 1504 1503
f 1377 1504 1376
f 1377 1505 1504
f 1378 1505 1377
f 1379 1505 1378
f 1379 1506 1505
f 1379 1507 1506
f 1380 1507 1379
f 1381 1507 1380
f 1381 1508 1507
f 1381 1509 1508
f 1382 1509 1381
f 1383 1509 1382
f 1383 1510 1509
f 1384 1510 1383
f 1384 1511 1510
f 1384 1512 1511
f 1385 1512 1384
f 1386 1512 1385
f 1386 1513 1512
f 1387 1515 1514
f 1387 1513 1386
f 1387 1514 1513
f 1388 1516 1515
f 1388 1515 1387
f 1389 1517 1516
f 1389 1516 1388
f 1390 1518 1517
f 1390 1517 1389
f 1391 1518 1390
f 1392 1519 1518
f 1392 1520 1519
f 1392 1518 1391
f 1393 1520 1392
f 1394 1521 1520
f 1394 1520 1393
f 1395 1522 1521
f 1395 1523 1522
f 1395 1521 1394
f 1396 1523 1395
f 1397 1524 1523
f 1397 1523 1396
f 1398 1525 1524
f 1398 1526 1525
f 1398 1524 1397
f 1399 1526 1398
f 1400 1527 1526
f 1400 1526 1399
f 1401 1527 1400
f 1401 1528 1527
f 1401 1529 1528
f 1402 1529 1401
f 1403 1529 1402
f 1403 1530 1529
f 1404 1530 1403
f 1404 1531 1530
f 1404 1532 1531
f 1405 1532 1404
f 1406 1533 1532
f 1406 1532 1405
f 1407 1534 1533
f 1407 1533 1406
f 1408 1535 1534
f 1408 1534 1407
f 1409 1536 1535
f 1409 1535 1408
f 1410 1537 1536
f 1410 1538 1537
f 1410 1536 1409
f 1411 1538 1410
f 1412 1539 1538
f 1412 1538 1411
f 1413 1540 1539
f 1413 1541 1540
f 1413 1539 1412
f 1414 1542 1541
f 1414 1541 1413
f 1415 1542 1414
f 1416 1543 1542
f 1416 1542 1415
f 1417 1544 1543
f 1417 1543 1416
f 1418 1545 1544
f 1418 1544 1417
f 1419 1546 1545
f 1419 1545 1418
f 1420 1547 1546
f 1420 1546 1419
f 1421 1548 1547
f 1421 1549 1548
f 1421 1547 1420
f 1422 1549 1421
f 1423 1550 1549
f 1423 1549 1422
f 1424 1551 1550
f 1424 1552 1551
f 1424 1550 1423
f 1425 1553 1552
f 1425 1552 1424
f 1426 1553 1425
f 1427 1553 1426
f 1427 1554 1553
f 1427 1555 1554
f 1428 1555 1427
f 1429 1555 1428
f 1429 1556 1555
f 1430 1556 1429
f 1430 1557 1556
f 1430 1558 1557
f 1431 1558 1430
f 1432 1558 1431
f 1432 1559 1558
f 1433 1559 1432
f 1433 1560 1559
f 1434 1560 1433
f 1434 1561 1560
f 1435 1561 1434
f 1435 1562 1561
f 1436 1562 1435
f 1436 1563 1562
f 1437 1563 1436
f 1437 1564 1563
f 1438 1565 1564
f 1438 1564 1437
f 1439 1566 1565
f 1439 1565 1438
