# Cadless export: model
v -30 -20 0
v -30 -20 16
v -30 20 0
v -30 20 16
v 30 -20 0
v 30 -20 16
v 10 -20 0
v 10 -20 4
v -10 -20 4
v -10 -20 0
v -30 -20 0
v -30 -20 16
v -27 -20 16
v -27 -20 24
v -30 -20 24
v -30 -20 40
v -16 -20 40
v 0 -20 24
v 16 -20 40
v 30 -20 40
v 30 -20 24
v 27 -20 24
v 27 -20 16
v -27 -20 16
v -27 20 16
v -30 20 16
v -30 -20 16
v 30 20 0
v 30 20 16
v 10 20 0
v 10 20 4
v -10 20 4
v -10 20 0
v -30 20 0
v -30 20 16
v -27 20 16
v -27 20 24
v -30 20 24
v -30 20 40
v -16 20 40
v 0 20 24
v 16 20 40
v 30 20 40
v 30 20 24
v 27 20 24
v 27 20 16
v -30 20 0
v -10 20 0
v -30 -20 0
v -10 -20 0
v 30 -20 0
v 30 -20 16
v 30 20 0
v 30 20 16
v 27 -20 16
v 27 20 16
v 30 -20 16
v 30 20 16
v 27 -20 24
v 27 20 24
v 27 -20 16
v 27 20 16
v 27 -20 24
v 27 20 24
v 30 -20 24
v 30 20 24
v 30 -20 24
v 30 -20 40
v 30 20 24
v 30 20 40
v 16 20 40
v 30 20 40
v 16 -20 40
v 30 -20 40
v 16 -20 40
v 0 -20 24
v 0 20 24
v 16 20 40
v 0 -20 24
v 0 20 24
v -16 20 40
v -16 -20 40
v -30 20 40
v -16 20 40
v -30 -20 40
v -16 -20 40
v -30 -20 24
v -30 -20 40
v -30 20 24
v -30 20 40
v -27 -20 24
v -27 20 24
v -30 20 24
v -30 -20 24
v -27 -20 24
v -27 20 24
v -27 -20 16
v -27 20 16
v -10 -20 4
v -10 20 4
v -10 -20 0
v -10 20 0
v -10 -20 4
v -10 20 4
v 10 -20 4
v 10 20 4
v 10 -20 4
v 10 20 4
v 10 -20 0
v 10 20 0
v 10 20 0
v 30 20 0
v 10 -20 0
v 30 -20 0
f 2 3 1
f 2 4 3
f 13 12 11
f 9 11 10
f 9 13 11
f 16 15 14
f 17 16 14
f 18 9 8
f 18 14 13
f 18 13 9
f 18 17 14
f 5 8 7
f 23 8 5
f 23 18 8
f 6 23 5
f 22 18 23
f 19 18 22
f 20 22 21
f 20 19 22
f 25 26 27
f 25 27 24
f 36 34 35
f 32 33 34
f 32 34 36
f 39 37 38
f 40 37 39
f 41 31 32
f 41 36 37
f 41 32 36
f 41 37 40
f 28 30 31
f 46 28 31
f 46 31 41
f 29 28 46
f 45 46 41
f 42 45 41
f 43 44 45
f 43 45 42
f 48 49 47
f 48 50 49
f 52 51 53
f 52 53 54
f 58 56 55
f 58 55 57
f 61 62 60
f 59 61 60
f 66 63 64
f 66 65 63
f 68 67 69
f 68 69 70
f 71 73 74
f 72 71 74
f 75 77 76
f 75 78 77
f 80 81 82
f 80 82 79
f 83 85 86
f 84 83 86
f 88 89 87
f 88 90 89
f 92 94 93
f 92 91 94
f 97 96 98
f 95 96 97
f 101 102 100
f 99 101 100
f 106 103 104
f 106 105 103
f 109 108 110
f 107 108 109
f 112 113 111
f 112 114 113
