ISO-10303-21;
HEADER;
FILE_DESCRIPTION(('Open CASCADE Model'),'2;1');
FILE_NAME('Open CASCADE Shape Model','2026-07-28T13:38:08',('Author'),(
    'Open CASCADE'),'Open CASCADE STEP processor 7.9','build123d',
  'Unknown');
FILE_SCHEMA(('AUTOMOTIVE_DESIGN { 1 0 10303 214 1 1 1 1 }'));
ENDSEC;
DATA;
#1 = APPLICATION_PROTOCOL_DEFINITION('international standard',
  'automotive_design',2000,#2);
#2 = APPLICATION_CONTEXT(
  'core data for automotive mechanical design processes');
#3 = SHAPE_DEFINITION_REPRESENTATION(#4,#10);
#4 = PRODUCT_DEFINITION_SHAPE('','',#5);
#5 = PRODUCT_DEFINITION('design','',#6,#9);
#6 = PRODUCT_DEFINITION_FORMATION('','',#7);
#7 = PRODUCT('COMPOUND','COMPOUND','',(#8));
#8 = PRODUCT_CONTEXT('',#2,'mechanical');
#9 = PRODUCT_DEFINITION_CONTEXT('part definition',#2,'design');
#10 = ADVANCED_BREP_SHAPE_REPRESENTATION('',(#11,#15),#1635);
#11 = AXIS2_PLACEMENT_3D('',#12,#13,#14);
#12 = CARTESIAN_POINT('',(0.,0.,0.));
#13 = DIRECTION('',(0.,0.,1.));
#14 = DIRECTION('',(1.,0.,-0.));
#15 = MANIFOLD_SOLID_BREP('',#16);
#16 = CLOSED_SHELL('',(#17,#105,#140,#144,#199,#234,#289,#324,#379,#414,
    #469,#504,#559,#594,#649,#684,#1513,#1517,#1572,#1627,#1631));
#17 = ADVANCED_FACE('',(#18),#32,.T.);
#18 = FACE_BOUND('',#19,.T.);
#19 = EDGE_LOOP('',(#20,#50,#77,#78));
#20 = ORIENTED_EDGE('',*,*,#21,.T.);
#21 = EDGE_CURVE('',#22,#24,#26,.T.);
#22 = VERTEX_POINT('',#23);
#23 = CARTESIAN_POINT('',(42.75,-1.047073013271E-14,55.));
#24 = VERTEX_POINT('',#25);
#25 = CARTESIAN_POINT('',(42.75,-1.047073013271E-14,62.));
#26 = SEAM_CURVE('',#27,(#31,#43),.PCURVE_S1.);
#27 = LINE('',#28,#29);
#28 = CARTESIAN_POINT('',(42.75,-1.047073013271E-14,0.));
#29 = VECTOR('',#30,1.);
#30 = DIRECTION('',(0.,0.,1.));
#31 = PCURVE('',#32,#37);
#32 = CYLINDRICAL_SURFACE('',#33,42.75);
#33 = AXIS2_PLACEMENT_3D('',#34,#35,#36);
#34 = CARTESIAN_POINT('',(0.,0.,0.));
#35 = DIRECTION('',(0.,0.,1.));
#36 = DIRECTION('',(1.,0.,-0.));
#37 = DEFINITIONAL_REPRESENTATION('',(#38),#42);
#38 = LINE('',#39,#40);
#39 = CARTESIAN_POINT('',(6.28318530718,-0.));
#40 = VECTOR('',#41,1.);
#41 = DIRECTION('',(0.,1.));
#42 = ( GEOMETRIC_REPRESENTATION_CONTEXT(2) 
PARAMETRIC_REPRESENTATION_CONTEXT() REPRESENTATION_CONTEXT('2D SPACE',''
  ) );
#43 = PCURVE('',#32,#44);
#44 = DEFINITIONAL_REPRESENTATION('',(#45),#49);
#45 = LINE('',#46,#47);
#46 = CARTESIAN_POINT('',(0.,-0.));
#47 = VECTOR('',#48,1.);
#48 = DIRECTION('',(0.,1.));
#49 = ( GEOMETRIC_REPRESENTATION_CONTEXT(2) 
PARAMETRIC_REPRESENTATION_CONTEXT() REPRESENTATION_CONTEXT('2D SPACE',''
  ) );
#50 = ORIENTED_EDGE('',*,*,#51,.F.);
#51 = EDGE_CURVE('',#24,#24,#52,.T.);
#52 = SURFACE_CURVE('',#53,(#58,#65),.PCURVE_S1.);
#53 = CIRCLE('',#54,42.75);
#54 = AXIS2_PLACEMENT_3D('',#55,#56,#57);
#55 = CARTESIAN_POINT('',(0.,0.,62.));
#56 = DIRECTION('',(0.,0.,1.));
#57 = DIRECTION('',(1.,0.,-0.));
#58 = PCURVE('',#32,#59);
#59 = DEFINITIONAL_REPRESENTATION('',(#60),#64);
#60 = LINE('',#61,#62);
#61 = CARTESIAN_POINT('',(0.,62.));
#62 = VECTOR('',#63,1.);
#63 = DIRECTION('',(1.,0.));
#64 = ( GEOMETRIC_REPRESENTATION_CONTEXT(2) 
PARAMETRIC_REPRESENTATION_CONTEXT() REPRESENTATION_CONTEXT('2D SPACE',''
  ) );
#65 = PCURVE('',#66,#71);
#66 = PLANE('',#67);
#67 = AXIS2_PLACEMENT_3D('',#68,#69,#70);
#68 = CARTESIAN_POINT('',(0.,0.,62.));
#69 = DIRECTION('',(0.,0.,1.));
#70 = DIRECTION('',(1.,0.,-0.));
#71 = DEFINITIONAL_REPRESENTATION('',(#72),#76);
#72 = CIRCLE('',#73,42.75);
#73 = AXIS2_PLACEMENT_2D('',#74,#75);
#74 = CARTESIAN_POINT('',(0.,0.));
#75 = DIRECTION('',(1.,0.));
#76 = ( GEOMETRIC_REPRESENTATION_CONTEXT(2) 
PARAMETRIC_REPRESENTATION_CONTEXT() REPRESENTATION_CONTEXT('2D SPACE',''
  ) );
#77 = ORIENTED_EDGE('',*,*,#21,.F.);
#78 = ORIENTED_EDGE('',*,*,#79,.T.);
#79 = EDGE_CURVE('',#22,#22,#80,.T.);
#80 = SURFACE_CURVE('',#81,(#86,#93),.PCURVE_S1.);
#81 = CIRCLE('',#82,42.75);
#82 = AXIS2_PLACEMENT_3D('',#83,#84,#85);
#83 = CARTESIAN_POINT('',(0.,0.,55.));
#84 = DIRECTION('',(0.,0.,1.));
#85 = DIRECTION('',(1.,0.,-0.));
#86 = PCURVE('',#32,#87);
#87 = DEFINITIONAL_REPRESENTATION('',(#88),#92);
#88 = LINE('',#89,#90);
#89 = CARTESIAN_POINT('',(0.,55.));
#90 = VECTOR('',#91,1.);
#91 = DIRECTION('',(1.,0.));
#92 = ( GEOMETRIC_REPRESENTATION_CONTEXT(2) 
PARAMETRIC_REPRESENTATION_CONTEXT() REPRESENTATION_CONTEXT('2D SPACE',''
  ) );
#93 = PCURVE('',#94,#99);
#94 = PLANE('',#95);
#95 = AXIS2_PLACEMENT_3D('',#96,#97,#98);
#96 = CARTESIAN_POINT('',(0.,0.,55.));
#97 = DIRECTION('',(0.,0.,1.));
#98 = DIRECTION('',(1.,0.,-0.));
#99 = DEFINITIONAL_REPRESENTATION('',(#100),#104);
#100 = CIRCLE('',#101,42.75);
#101 = AXIS2_PLACEMENT_2D('',#102,#103);
#102 = CARTESIAN_POINT('',(0.,0.));
#103 = DIRECTION('',(1.,0.));
#104 = ( GEOMETRIC_REPRESENTATION_CONTEXT(2) 
PARAMETRIC_REPRESENTATION_CONTEXT() REPRESENTATION_CONTEXT('2D SPACE',''
  ) );
#105 = ADVANCED_FACE('',(#106,#109),#94,.F.);
#106 = FACE_BOUND('',#107,.F.);
#107 = EDGE_LOOP('',(#108));
#108 = ORIENTED_EDGE('',*,*,#79,.T.);
#109 = FACE_BOUND('',#110,.F.);
#110 = EDGE_LOOP('',(#111));
#111 = ORIENTED_EDGE('',*,*,#112,.F.);
#112 = EDGE_CURVE('',#113,#113,#115,.T.);
#113 = VERTEX_POINT('',#114);
#114 = CARTESIAN_POINT('',(38.25,-9.368548013477E-15,55.));
#115 = SURFACE_CURVE('',#116,(#121,#128),.PCURVE_S1.);
#116 = CIRCLE('',#117,38.25);
#117 = AXIS2_PLACEMENT_3D('',#118,#119,#120);
#118 = CARTESIAN_POINT('',(0.,0.,55.));
#119 = DIRECTION('',(0.,0.,1.));
#120 = DIRECTION('',(1.,0.,-0.));
#121 = PCURVE('',#94,#122);
#122 = DEFINITIONAL_REPRESENTATION('',(#123),#127);
#123 = CIRCLE('',#124,38.25);
#124 = AXIS2_PLACEMENT_2D('',#125,#126);
#125 = CARTESIAN_POINT('',(0.,0.));
#126 = DIRECTION('',(1.,0.));
#127 = ( GEOMETRIC_REPRESENTATION_CONTEXT(2) 
PARAMETRIC_REPRESENTATION_CONTEXT() REPRESENTATION_CONTEXT('2D SPACE',''
  ) );
#128 = PCURVE('',#129,#134);
#129 = CYLINDRICAL_SURFACE('',#130,38.25);
#130 = AXIS2_PLACEMENT_3D('',#131,#132,#133);
#131 = CARTESIAN_POINT('',(0.,0.,52.));
#132 = DIRECTION('',(0.,0.,1.));
#133 = DIRECTION('',(1.,0.,-0.));
#134 = DEFINITIONAL_REPRESENTATION('',(#135),#139);
#135 = LINE('',#136,#137);
#136 = CARTESIAN_POINT('',(0.,3.));
#137 = VECTOR('',#138,1.);
#138 = DIRECTION('',(1.,0.));
#139 = ( GEOMETRIC_REPRESENTATION_CONTEXT(2) 
PARAMETRIC_REPRESENTATION_CONTEXT() REPRESENTATION_CONTEXT('2D SPACE',''
  ) );
#140 = ADVANCED_FACE('',(#141),#66,.T.);
#141 = FACE_BOUND('',#142,.T.);
#142 = EDGE_LOOP('',(#143));
#143 = ORIENTED_EDGE('',*,*,#51,.T.);
#144 = ADVANCED_FACE('',(#145),#129,.T.);
#145 = FACE_BOUND('',#146,.T.);
#146 = EDGE_LOOP('',(#147,#148,#171,#198));
#147 = ORIENTED_EDGE('',*,*,#112,.F.);
#148 = ORIENTED_EDGE('',*,*,#149,.F.);
#149 = EDGE_CURVE('',#150,#113,#152,.T.);
#150 = VERTEX_POINT('',#151);
#151 = CARTESIAN_POINT('',(38.25,-9.368548013477E-15,52.));
#152 = SEAM_CURVE('',#153,(#157,#164),.PCURVE_S1.);
#153 = LINE('',#154,#155);
#154 = CARTESIAN_POINT('',(38.25,-9.368548013477E-15,52.));
#155 = VECTOR('',#156,1.);
#156 = DIRECTION('',(0.,0.,1.));
#157 = PCURVE('',#129,#158);
#158 = DEFINITIONAL_REPRESENTATION('',(#159),#163);
#159 = LINE('',#160,#161);
#160 = CARTESIAN_POINT('',(6.28318530718,-0.));
#161 = VECTOR('',#162,1.);
#162 = DIRECTION('',(0.,1.));
#163 = ( GEOMETRIC_REPRESENTATION_CONTEXT(2) 
PARAMETRIC_REPRESENTATION_CONTEXT() REPRESENTATION_CONTEXT('2D SPACE',''
  ) );
#164 = PCURVE('',#129,#165);
#165 = DEFINITIONAL_REPRESENTATION('',(#166),#170);
#166 = LINE('',#167,#168);
#167 = CARTESIAN_POINT('',(0.,-0.));
#168 = VECTOR('',#169,1.);
#169 = DIRECTION('',(0.,1.));
#170 = ( GEOMETRIC_REPRESENTATION_CONTEXT(2) 
PARAMETRIC_REPRESENTATION_CONTEXT() REPRESENTATION_CONTEXT('2D SPACE',''
  ) );
#171 = ORIENTED_EDGE('',*,*,#172,.T.);
#172 = EDGE_CURVE('',#150,#150,#173,.T.);
#173 = SURFACE_CURVE('',#174,(#179,#186),.PCURVE_S1.);
#174 = CIRCLE('',#175,38.25);
#175 = AXIS2_PLACEMENT_3D('',#176,#177,#178);
#176 = CARTESIAN_POINT('',(0.,0.,52.));
#177 = DIRECTION('',(0.,0.,1.));
#178 = DIRECTION('',(1.,0.,-0.));
#179 = PCURVE('',#129,#180);
#180 = DEFINITIONAL_REPRESENTATION('',(#181),#185);
#181 = LINE('',#182,#183);
#182 = CARTESIAN_POINT('',(0.,0.));
#183 = VECTOR('',#184,1.);
#184 = DIRECTION('',(1.,0.));
#185 = ( GEOMETRIC_REPRESENTATION_CONTEXT(2) 
PARAMETRIC_REPRESENTATION_CONTEXT() REPRESENTATION_CONTEXT('2D SPACE',''
  ) );
#186 = PCURVE('',#187,#192);
#187 = PLANE('',#188);
#188 = AXIS2_PLACEMENT_3D('',#189,#190,#191);
#189 = CARTESIAN_POINT('',(0.,0.,52.));
#190 = DIRECTION('',(0.,0.,1.));
#191 = DIRECTION('',(1.,0.,-0.));
#192 = DEFINITIONAL_REPRESENTATION('',(#193),#197);
#193 = CIRCLE('',#194,38.25);
#194 = AXIS2_PLACEMENT_2D('',#195,#196);
#195 = CARTESIAN_POINT('',(0.,0.));
#196 = DIRECTION('',(1.,0.));
#197 = ( GEOMETRIC_REPRESENTATION_CONTEXT(2) 
PARAMETRIC_REPRESENTATION_CONTEXT() REPRESENTATION_CONTEXT('2D SPACE',''
  ) );
#198 = ORIENTED_EDGE('',*,*,#149,.T.);
#199 = ADVANCED_FACE('',(#200,#231),#187,.T.);
#200 = FACE_BOUND('',#201,.T.);
#201 = EDGE_LOOP('',(#202));
#202 = ORIENTED_EDGE('',*,*,#203,.T.);
#203 = EDGE_CURVE('',#204,#204,#206,.T.);
#204 = VERTEX_POINT('',#205);
#205 = CARTESIAN_POINT('',(42.75,-1.047073013271E-14,52.));
#206 = SURFACE_CURVE('',#207,(#212,#219),.PCURVE_S1.);
#207 = CIRCLE('',#208,42.75);
#208 = AXIS2_PLACEMENT_3D('',#209,#210,#211);
#209 = CARTESIAN_POINT('',(0.,0.,52.));
#210 = DIRECTION('',(0.,0.,1.));
#211 = DIRECTION('',(1.,0.,-0.));
#212 = PCURVE('',#187,#213);
#213 = DEFINITIONAL_REPRESENTATION('',(#214),#218);
#214 = CIRCLE('',#215,42.75);
#215 = AXIS2_PLACEMENT_2D('',#216,#217);
#216 = CARTESIAN_POINT('',(0.,0.));
#217 = DIRECTION('',(1.,0.));
#218 = ( GEOMETRIC_REPRESENTATION_CONTEXT(2) 
PARAMETRIC_REPRESENTATION_CONTEXT() REPRESENTATION_CONTEXT('2D SPACE',''
  ) );
#219 = PCURVE('',#220,#225);
#220 = CYLINDRICAL_SURFACE('',#221,42.75);
#221 = AXIS2_PLACEMENT_3D('',#222,#223,#224);
#222 = CARTESIAN_POINT('',(0.,0.,0.));
#223 = DIRECTION('',(0.,0.,1.));
#224 = DIRECTION('',(1.,0.,-0.));
#225 = DEFINITIONAL_REPRESENTATION('',(#226),#230);
#226 = LINE('',#227,#228);
#227 = CARTESIAN_POINT('',(0.,52.));
#228 = VECTOR('',#229,1.);
#229 = DIRECTION('',(1.,0.));
#230 = ( GEOMETRIC_REPRESENTATION_CONTEXT(2) 
PARAMETRIC_REPRESENTATION_CONTEXT() REPRESENTATION_CONTEXT('2D SPACE',''
  ) );
#231 = FACE_BOUND('',#232,.T.);
#232 = EDGE_LOOP('',(#233));
#233 = ORIENTED_EDGE('',*,*,#172,.F.);
#234 = ADVANCED_FACE('',(#235),#220,.T.);
#235 = FACE_BOUND('',#236,.T.);
#236 = EDGE_LOOP('',(#237,#260,#261,#262));
#237 = ORIENTED_EDGE('',*,*,#238,.T.);
#238 = EDGE_CURVE('',#239,#204,#241,.T.);
#239 = VERTEX_POINT('',#240);
#240 = CARTESIAN_POINT('',(42.75,-1.047073013271E-14,49.));
#241 = SEAM_CURVE('',#242,(#246,#253),.PCURVE_S1.);
#242 = LINE('',#243,#244);
#243 = CARTESIAN_POINT('',(42.75,-1.047073013271E-14,0.));
#244 = VECTOR('',#245,1.);
#245 = DIRECTION('',(0.,0.,1.));
#246 = PCURVE('',#220,#247);
#247 = DEFINITIONAL_REPRESENTATION('',(#248),#252);
#248 = LINE('',#249,#250);
#249 = CARTESIAN_POINT('',(6.28318530718,-0.));
#250 = VECTOR('',#251,1.);
#251 = DIRECTION('',(0.,1.));
#252 = ( GEOMETRIC_REPRESENTATION_CONTEXT(2) 
PARAMETRIC_REPRESENTATION_CONTEXT() REPRESENTATION_CONTEXT('2D SPACE',''
  ) );
#253 = PCURVE('',#220,#254);
#254 = DEFINITIONAL_REPRESENTATION('',(#255),#259);
#255 = LINE('',#256,#257);
#256 = CARTESIAN_POINT('',(0.,-0.));
#257 = VECTOR('',#258,1.);
#258 = DIRECTION('',(0.,1.));
#259 = ( GEOMETRIC_REPRESENTATION_CONTEXT(2) 
PARAMETRIC_REPRESENTATION_CONTEXT() REPRESENTATION_CONTEXT('2D SPACE',''
  ) );
#260 = ORIENTED_EDGE('',*,*,#203,.F.);
#261 = ORIENTED_EDGE('',*,*,#238,.F.);
#262 = ORIENTED_EDGE('',*,*,#263,.T.);
#263 = EDGE_CURVE('',#239,#239,#264,.T.);
#264 = SURFACE_CURVE('',#265,(#270,#277),.PCURVE_S1.);
#265 = CIRCLE('',#266,42.75);
#266 = AXIS2_PLACEMENT_3D('',#267,#268,#269);
#267 = CARTESIAN_POINT('',(0.,0.,49.));
#268 = DIRECTION('',(0.,0.,1.));
#269 = DIRECTION('',(1.,0.,-0.));
#270 = PCURVE('',#220,#271);
#271 = DEFINITIONAL_REPRESENTATION('',(#272),#276);
#272 = LINE('',#273,#274);
#273 = CARTESIAN_POINT('',(0.,49.));
#274 = VECTOR('',#275,1.);
#275 = DIRECTION('',(1.,0.));
#276 = ( GEOMETRIC_REPRESENTATION_CONTEXT(2) 
PARAMETRIC_REPRESENTATION_CONTEXT() REPRESENTATION_CONTEXT('2D SPACE',''
  ) );
#277 = PCURVE('',#278,#283);
#278 = PLANE('',#279);
#279 = AXIS2_PLACEMENT_3D('',#280,#281,#282);
#280 = CARTESIAN_POINT('',(0.,0.,49.));
#281 = DIRECTION('',(0.,0.,1.));
#282 = DIRECTION('',(1.,0.,-0.));
#283 = DEFINITIONAL_REPRESENTATION('',(#284),#288);
#284 = CIRCLE('',#285,42.75);
#285 = AXIS2_PLACEMENT_2D('',#286,#287);
#286 = CARTESIAN_POINT('',(0.,0.));
#287 = DIRECTION('',(1.,0.));
#288 = ( GEOMETRIC_REPRESENTATION_CONTEXT(2) 
PARAMETRIC_REPRESENTATION_CONTEXT() REPRESENTATION_CONTEXT('2D SPACE',''
  ) );
#289 = ADVANCED_FACE('',(#290,#293),#278,.F.);
#290 = FACE_BOUND('',#291,.F.);
#291 = EDGE_LOOP('',(#292));
#292 = ORIENTED_EDGE('',*,*,#263,.T.);
#293 = FACE_BOUND('',#294,.F.);
#294 = EDGE_LOOP('',(#295));
#295 = ORIENTED_EDGE('',*,*,#296,.F.);
#296 = EDGE_CURVE('',#297,#297,#299,.T.);
#297 = VERTEX_POINT('',#298);
#298 = CARTESIAN_POINT('',(38.25,-9.368548013477E-15,49.));
#299 = SURFACE_CURVE('',#300,(#305,#312),.PCURVE_S1.);
#300 = CIRCLE('',#301,38.25);
#301 = AXIS2_PLACEMENT_3D('',#302,#303,#304);
#302 = CARTESIAN_POINT('',(0.,0.,49.));
#303 = DIRECTION('',(0.,0.,1.));
#304 = DIRECTION('',(1.,0.,-0.));
#305 = PCURVE('',#278,#306);
#306 = DEFINITIONAL_REPRESENTATION('',(#307),#311);
#307 = CIRCLE('',#308,38.25);
#308 = AXIS2_PLACEMENT_2D('',#309,#310);
#309 = CARTESIAN_POINT('',(0.,0.));
#310 = DIRECTION('',(1.,0.));
#311 = ( GEOMETRIC_REPRESENTATION_CONTEXT(2) 
PARAMETRIC_REPRESENTATION_CONTEXT() REPRESENTATION_CONTEXT('2D SPACE',''
  ) );
#312 = PCURVE('',#313,#318);
#313 = CYLINDRICAL_SURFACE('',#314,38.25);
#314 = AXIS2_PLACEMENT_3D('',#315,#316,#317);
#315 = CARTESIAN_POINT('',(0.,0.,46.));
#316 = DIRECTION('',(0.,0.,1.));
#317 = DIRECTION('',(1.,0.,-0.));
#318 = DEFINITIONAL_REPRESENTATION('',(#319),#323);
#319 = LINE('',#320,#321);
#320 = CARTESIAN_POINT('',(0.,3.));
#321 = VECTOR('',#322,1.);
#322 = DIRECTION('',(1.,0.));
#323 = ( GEOMETRIC_REPRESENTATION_CONTEXT(2) 
PARAMETRIC_REPRESENTATION_CONTEXT() REPRESENTATION_CONTEXT('2D SPACE',''
  ) );
#324 = ADVANCED_FACE('',(#325),#313,.T.);
#325 = FACE_BOUND('',#326,.T.);
#326 = EDGE_LOOP('',(#327,#328,#351,#378));
#327 = ORIENTED_EDGE('',*,*,#296,.F.);
#328 = ORIENTED_EDGE('',*,*,#329,.F.);
#329 = EDGE_CURVE('',#330,#297,#332,.T.);
#330 = VERTEX_POINT('',#331);
#331 = CARTESIAN_POINT('',(38.25,-9.368548013477E-15,46.));
#332 = SEAM_CURVE('',#333,(#337,#344),.PCURVE_S1.);
#333 = LINE('',#334,#335);
#334 = CARTESIAN_POINT('',(38.25,-9.368548013477E-15,46.));
#335 = VECTOR('',#336,1.);
#336 = DIRECTION('',(0.,0.,1.));
#337 = PCURVE('',#313,#338);
#338 = DEFINITIONAL_REPRESENTATION('',(#339),#343);
#339 = LINE('',#340,#341);
#340 = CARTESIAN_POINT('',(6.28318530718,-0.));
#341 = VECTOR('',#342,1.);
#342 = DIRECTION('',(0.,1.));
#343 = ( GEOMETRIC_REPRESENTATION_CONTEXT(2) 
PARAMETRIC_REPRESENTATION_CONTEXT() REPRESENTATION_CONTEXT('2D SPACE',''
  ) );
#344 = PCURVE('',#313,#345);
#345 = DEFINITIONAL_REPRESENTATION('',(#346),#350);
#346 = LINE('',#347,#348);
#347 = CARTESIAN_POINT('',(0.,-0.));
#348 = VECTOR('',#349,1.);
#349 = DIRECTION('',(0.,1.));
#350 = ( GEOMETRIC_REPRESENTATION_CONTEXT(2) 
PARAMETRIC_REPRESENTATION_CONTEXT() REPRESENTATION_CONTEXT('2D SPACE',''
  ) );
#351 = ORIENTED_EDGE('',*,*,#352,.T.);
#352 = EDGE_CURVE('',#330,#330,#353,.T.);
#353 = SURFACE_CURVE('',#354,(#359,#366),.PCURVE_S1.);
#354 = CIRCLE('',#355,38.25);
#355 = AXIS2_PLACEMENT_3D('',#356,#357,#358);
#356 = CARTESIAN_POINT('',(0.,0.,46.));
#357 = DIRECTION('',(0.,0.,1.));
#358 = DIRECTION('',(1.,0.,-0.));
#359 = PCURVE('',#313,#360);
#360 = DEFINITIONAL_REPRESENTATION('',(#361),#365);
#361 = LINE('',#362,#363);
#362 = CARTESIAN_POINT('',(0.,0.));
#363 = VECTOR('',#364,1.);
#364 = DIRECTION('',(1.,0.));
#365 = ( GEOMETRIC_REPRESENTATION_CONTEXT(2) 
PARAMETRIC_REPRESENTATION_CONTEXT() REPRESENTATION_CONTEXT('2D SPACE',''
  ) );
#366 = PCURVE('',#367,#372);
#367 = PLANE('',#368);
#368 = AXIS2_PLACEMENT_3D('',#369,#370,#371);
#369 = CARTESIAN_POINT('',(0.,0.,46.));
#370 = DIRECTION('',(0.,0.,1.));
#371 = DIRECTION('',(1.,0.,-0.));
#372 = DEFINITIONAL_REPRESENTATION('',(#373),#377);
#373 = CIRCLE('',#374,38.25);
#374 = AXIS2_PLACEMENT_2D('',#375,#376);
#375 = CARTESIAN_POINT('',(0.,0.));
#376 = DIRECTION('',(1.,0.));
#377 = ( GEOMETRIC_REPRESENTATION_CONTEXT(2) 
PARAMETRIC_REPRESENTATION_CONTEXT() REPRESENTATION_CONTEXT('2D SPACE',''
  ) );
#378 = ORIENTED_EDGE('',*,*,#329,.T.);
#379 = ADVANCED_FACE('',(#380,#411),#367,.T.);
#380 = FACE_BOUND('',#381,.T.);
#381 = EDGE_LOOP('',(#382));
#382 = ORIENTED_EDGE('',*,*,#383,.T.);
#383 = EDGE_CURVE('',#384,#384,#386,.T.);
#384 = VERTEX_POINT('',#385);
#385 = CARTESIAN_POINT('',(42.75,-1.047073013271E-14,46.));
#386 = SURFACE_CURVE('',#387,(#392,#399),.PCURVE_S1.);
#387 = CIRCLE('',#388,42.75);
#388 = AXIS2_PLACEMENT_3D('',#389,#390,#391);
#389 = CARTESIAN_POINT('',(0.,0.,46.));
#390 = DIRECTION('',(0.,0.,1.));
#391 = DIRECTION('',(1.,0.,-0.));
#392 = PCURVE('',#367,#393);
#393 = DEFINITIONAL_REPRESENTATION('',(#394),#398);
#394 = CIRCLE('',#395,42.75);
#395 = AXIS2_PLACEMENT_2D('',#396,#397);
#396 = CARTESIAN_POINT('',(0.,0.));
#397 = DIRECTION('',(1.,0.));
#398 = ( GEOMETRIC_REPRESENTATION_CONTEXT(2) 
PARAMETRIC_REPRESENTATION_CONTEXT() REPRESENTATION_CONTEXT('2D SPACE',''
  ) );
#399 = PCURVE('',#400,#405);
#400 = CYLINDRICAL_SURFACE('',#401,42.75);
#401 = AXIS2_PLACEMENT_3D('',#402,#403,#404);
#402 = CARTESIAN_POINT('',(0.,0.,0.));
#403 = DIRECTION('',(0.,0.,1.));
#404 = DIRECTION('',(1.,0.,-0.));
#405 = DEFINITIONAL_REPRESENTATION('',(#406),#410);
#406 = LINE('',#407,#408);
#407 = CARTESIAN_POINT('',(0.,46.));
#408 = VECTOR('',#409,1.);
#409 = DIRECTION('',(1.,0.));
#410 = ( GEOMETRIC_REPRESENTATION_CONTEXT(2) 
PARAMETRIC_REPRESENTATION_CONTEXT() REPRESENTATION_CONTEXT('2D SPACE',''
  ) );
#411 = FACE_BOUND('',#412,.T.);
#412 = EDGE_LOOP('',(#413));
#413 = ORIENTED_EDGE('',*,*,#352,.F.);
#414 = ADVANCED_FACE('',(#415),#400,.T.);
#415 = FACE_BOUND('',#416,.T.);
#416 = EDGE_LOOP('',(#417,#440,#441,#442));
#417 = ORIENTED_EDGE('',*,*,#418,.T.);
#418 = EDGE_CURVE('',#419,#384,#421,.T.);
#419 = VERTEX_POINT('',#420);
#420 = CARTESIAN_POINT('',(42.75,-1.047073013271E-14,43.));
#421 = SEAM_CURVE('',#422,(#426,#433),.PCURVE_S1.);
#422 = LINE('',#423,#424);
#423 = CARTESIAN_POINT('',(42.75,-1.047073013271E-14,0.));
#424 = VECTOR('',#425,1.);
#425 = DIRECTION('',(0.,0.,1.));
#426 = PCURVE('',#400,#427);
#427 = DEFINITIONAL_REPRESENTATION('',(#428),#432);
#428 = LINE('',#429,#430);
#429 = CARTESIAN_POINT('',(6.28318530718,-0.));
#430 = VECTOR('',#431,1.);
#431 = DIRECTION('',(0.,1.));
#432 = ( GEOMETRIC_REPRESENTATION_CONTEXT(2) 
PARAMETRIC_REPRESENTATION_CONTEXT() REPRESENTATION_CONTEXT('2D SPACE',''
  ) );
#433 = PCURVE('',#400,#434);
#434 = DEFINITIONAL_REPRESENTATION('',(#435),#439);
#435 = LINE('',#436,#437);
#436 = CARTESIAN_POINT('',(0.,-0.));
#437 = VECTOR('',#438,1.);
#438 = DIRECTION('',(0.,1.));
#439 = ( GEOMETRIC_REPRESENTATION_CONTEXT(2) 
PARAMETRIC_REPRESENTATION_CONTEXT() REPRESENTATION_CONTEXT('2D SPACE',''
  ) );
#440 = ORIENTED_EDGE('',*,*,#383,.F.);
#441 = ORIENTED_EDGE('',*,*,#418,.F.);
#442 = ORIENTED_EDGE('',*,*,#443,.T.);
#443 = EDGE_CURVE('',#419,#419,#444,.T.);
#444 = SURFACE_CURVE('',#445,(#450,#457),.PCURVE_S1.);
#445 = CIRCLE('',#446,42.75);
#446 = AXIS2_PLACEMENT_3D('',#447,#448,#449);
#447 = CARTESIAN_POINT('',(0.,0.,43.));
#448 = DIRECTION('',(0.,0.,1.));
#449 = DIRECTION('',(1.,0.,-0.));
#450 = PCURVE('',#400,#451);
#451 = DEFINITIONAL_REPRESENTATION('',(#452),#456);
#452 = LINE('',#453,#454);
#453 = CARTESIAN_POINT('',(0.,43.));
#454 = VECTOR('',#455,1.);
#455 = DIRECTION('',(1.,0.));
#456 = ( GEOMETRIC_REPRESENTATION_CONTEXT(2) 
PARAMETRIC_REPRESENTATION_CONTEXT() REPRESENTATION_CONTEXT('2D SPACE',''
  ) );
#457 = PCURVE('',#458,#463);
#458 = PLANE('',#459);
#459 = AXIS2_PLACEMENT_3D('',#460,#461,#462);
#460 = CARTESIAN_POINT('',(0.,0.,43.));
#461 = DIRECTION('',(0.,0.,1.));
#462 = DIRECTION('',(1.,0.,-0.));
#463 = DEFINITIONAL_REPRESENTATION('',(#464),#468);
#464 = CIRCLE('',#465,42.75);
#465 = AXIS2_PLACEMENT_2D('',#466,#467);
#466 = CARTESIAN_POINT('',(0.,0.));
#467 = DIRECTION('',(1.,0.));
#468 = ( GEOMETRIC_REPRESENTATION_CONTEXT(2) 
PARAMETRIC_REPRESENTATION_CONTEXT() REPRESENTATION_CONTEXT('2D SPACE',''
  ) );
#469 = ADVANCED_FACE('',(#470,#473),#458,.F.);
#470 = FACE_BOUND('',#471,.F.);
#471 = EDGE_LOOP('',(#472));
#472 = ORIENTED_EDGE('',*,*,#443,.T.);
#473 = FACE_BOUND('',#474,.F.);
#474 = EDGE_LOOP('',(#475));
#475 = ORIENTED_EDGE('',*,*,#476,.F.);
#476 = EDGE_CURVE('',#477,#477,#479,.T.);
#477 = VERTEX_POINT('',#478);
#478 = CARTESIAN_POINT('',(38.25,-9.368548013477E-15,43.));
#479 = SURFACE_CURVE('',#480,(#485,#492),.PCURVE_S1.);
#480 = CIRCLE('',#481,38.25);
#481 = AXIS2_PLACEMENT_3D('',#482,#483,#484);
#482 = CARTESIAN_POINT('',(0.,0.,43.));
#483 = DIRECTION('',(0.,0.,1.));
#484 = DIRECTION('',(1.,0.,-0.));
#485 = PCURVE('',#458,#486);
#486 = DEFINITIONAL_REPRESENTATION('',(#487),#491);
#487 = CIRCLE('',#488,38.25);
#488 = AXIS2_PLACEMENT_2D('',#489,#490);
#489 = CARTESIAN_POINT('',(0.,0.));
#490 = DIRECTION('',(1.,0.));
#491 = ( GEOMETRIC_REPRESENTATION_CONTEXT(2) 
PARAMETRIC_REPRESENTATION_CONTEXT() REPRESENTATION_CONTEXT('2D SPACE',''
  ) );
#492 = PCURVE('',#493,#498);
#493 = CYLINDRICAL_SURFACE('',#494,38.25);
#494 = AXIS2_PLACEMENT_3D('',#495,#496,#497);
#495 = CARTESIAN_POINT('',(0.,0.,40.));
#496 = DIRECTION('',(0.,0.,1.));
#497 = DIRECTION('',(1.,0.,-0.));
#498 = DEFINITIONAL_REPRESENTATION('',(#499),#503);
#499 = LINE('',#500,#501);
#500 = CARTESIAN_POINT('',(0.,3.));
#501 = VECTOR('',#502,1.);
#502 = DIRECTION('',(1.,0.));
#503 = ( GEOMETRIC_REPRESENTATION_CONTEXT(2) 
PARAMETRIC_REPRESENTATION_CONTEXT() REPRESENTATION_CONTEXT('2D SPACE',''
  ) );
#504 = ADVANCED_FACE('',(#505),#493,.T.);
#505 = FACE_BOUND('',#506,.T.);
#506 = EDGE_LOOP('',(#507,#508,#531,#558));
#507 = ORIENTED_EDGE('',*,*,#476,.F.);
#508 = ORIENTED_EDGE('',*,*,#509,.F.);
#509 = EDGE_CURVE('',#510,#477,#512,.T.);
#510 = VERTEX_POINT('',#511);
#511 = CARTESIAN_POINT('',(38.25,-9.368548013477E-15,40.));
#512 = SEAM_CURVE('',#513,(#517,#524),.PCURVE_S1.);
#513 = LINE('',#514,#515);
#514 = CARTESIAN_POINT('',(38.25,-9.368548013477E-15,40.));
#515 = VECTOR('',#516,1.);
#516 = DIRECTION('',(0.,0.,1.));
#517 = PCURVE('',#493,#518);
#518 = DEFINITIONAL_REPRESENTATION('',(#519),#523);
#519 = LINE('',#520,#521);
#520 = CARTESIAN_POINT('',(6.28318530718,-0.));
#521 = VECTOR('',#522,1.);
#522 = DIRECTION('',(0.,1.));
#523 = ( GEOMETRIC_REPRESENTATION_CONTEXT(2) 
PARAMETRIC_REPRESENTATION_CONTEXT() REPRESENTATION_CONTEXT('2D SPACE',''
  ) );
#524 = PCURVE('',#493,#525);
#525 = DEFINITIONAL_REPRESENTATION('',(#526),#530);
#526 = LINE('',#527,#528);
#527 = CARTESIAN_POINT('',(0.,-0.));
#528 = VECTOR('',#529,1.);
#529 = DIRECTION('',(0.,1.));
#530 = ( GEOMETRIC_REPRESENTATION_CONTEXT(2) 
PARAMETRIC_REPRESENTATION_CONTEXT() REPRESENTATION_CONTEXT('2D SPACE',''
  ) );
#531 = ORIENTED_EDGE('',*,*,#532,.T.);
#532 = EDGE_CURVE('',#510,#510,#533,.T.);
#533 = SURFACE_CURVE('',#534,(#539,#546),.PCURVE_S1.);
#534 = CIRCLE('',#535,38.25);
#535 = AXIS2_PLACEMENT_3D('',#536,#537,#538);
#536 = CARTESIAN_POINT('',(0.,0.,40.));
#537 = DIRECTION('',(0.,0.,1.));
#538 = DIRECTION('',(1.,0.,-0.));
#539 = PCURVE('',#493,#540);
#540 = DEFINITIONAL_REPRESENTATION('',(#541),#545);
#541 = LINE('',#542,#543);
#542 = CARTESIAN_POINT('',(0.,0.));
#543 = VECTOR('',#544,1.);
#544 = DIRECTION('',(1.,0.));
#545 = ( GEOMETRIC_REPRESENTATION_CONTEXT(2) 
PARAMETRIC_REPRESENTATION_CONTEXT() REPRESENTATION_CONTEXT('2D SPACE',''
  ) );
#546 = PCURVE('',#547,#552);
#547 = PLANE('',#548);
#548 = AXIS2_PLACEMENT_3D('',#549,#550,#551);
#549 = CARTESIAN_POINT('',(0.,0.,40.));
#550 = DIRECTION('',(0.,0.,1.));
#551 = DIRECTION('',(1.,0.,-0.));
#552 = DEFINITIONAL_REPRESENTATION('',(#553),#557);
#553 = CIRCLE('',#554,38.25);
#554 = AXIS2_PLACEMENT_2D('',#555,#556);
#555 = CARTESIAN_POINT('',(0.,0.));
#556 = DIRECTION('',(1.,0.));
#557 = ( GEOMETRIC_REPRESENTATION_CONTEXT(2) 
PARAMETRIC_REPRESENTATION_CONTEXT() REPRESENTATION_CONTEXT('2D SPACE',''
  ) );
#558 = ORIENTED_EDGE('',*,*,#509,.T.);
#559 = ADVANCED_FACE('',(#560,#591),#547,.T.);
#560 = FACE_BOUND('',#561,.T.);
#561 = EDGE_LOOP('',(#562));
#562 = ORIENTED_EDGE('',*,*,#563,.T.);
#563 = EDGE_CURVE('',#564,#564,#566,.T.);
#564 = VERTEX_POINT('',#565);
#565 = CARTESIAN_POINT('',(42.75,-1.047073013271E-14,40.));
#566 = SURFACE_CURVE('',#567,(#572,#579),.PCURVE_S1.);
#567 = CIRCLE('',#568,42.75);
#568 = AXIS2_PLACEMENT_3D('',#569,#570,#571);
#569 = CARTESIAN_POINT('',(0.,0.,40.));
#570 = DIRECTION('',(0.,0.,1.));
#571 = DIRECTION('',(1.,0.,-0.));
#572 = PCURVE('',#547,#573);
#573 = DEFINITIONAL_REPRESENTATION('',(#574),#578);
#574 = CIRCLE('',#575,42.75);
#575 = AXIS2_PLACEMENT_2D('',#576,#577);
#576 = CARTESIAN_POINT('',(0.,0.));
#577 = DIRECTION('',(1.,0.));
#578 = ( GEOMETRIC_REPRESENTATION_CONTEXT(2) 
PARAMETRIC_REPRESENTATION_CONTEXT() REPRESENTATION_CONTEXT('2D SPACE',''
  ) );
#579 = PCURVE('',#580,#585);
#580 = CYLINDRICAL_SURFACE('',#581,42.75);
#581 = AXIS2_PLACEMENT_3D('',#582,#583,#584);
#582 = CARTESIAN_POINT('',(0.,0.,0.));
#583 = DIRECTION('',(0.,0.,1.));
#584 = DIRECTION('',(1.,0.,-0.));
#585 = DEFINITIONAL_REPRESENTATION('',(#586),#590);
#586 = LINE('',#587,#588);
#587 = CARTESIAN_POINT('',(0.,40.));
#588 = VECTOR('',#589,1.);
#589 = DIRECTION('',(1.,0.));
#590 = ( GEOMETRIC_REPRESENTATION_CONTEXT(2) 
PARAMETRIC_REPRESENTATION_CONTEXT() REPRESENTATION_CONTEXT('2D SPACE',''
  ) );
#591 = FACE_BOUND('',#592,.T.);
#592 = EDGE_LOOP('',(#593));
#593 = ORIENTED_EDGE('',*,*,#532,.F.);
#594 = ADVANCED_FACE('',(#595),#580,.T.);
#595 = FACE_BOUND('',#596,.T.);
#596 = EDGE_LOOP('',(#597,#598,#621,#648));
#597 = ORIENTED_EDGE('',*,*,#563,.F.);
#598 = ORIENTED_EDGE('',*,*,#599,.F.);
#599 = EDGE_CURVE('',#600,#564,#602,.T.);
#600 = VERTEX_POINT('',#601);
#601 = CARTESIAN_POINT('',(42.75,-1.047073013271E-14,0.));
#602 = SEAM_CURVE('',#603,(#607,#614),.PCURVE_S1.);
#603 = LINE('',#604,#605);
#604 = CARTESIAN_POINT('',(42.75,-1.047073013271E-14,0.));
#605 = VECTOR('',#606,1.);
#606 = DIRECTION('',(0.,0.,1.));
#607 = PCURVE('',#580,#608);
#608 = DEFINITIONAL_REPRESENTATION('',(#609),#613);
#609 = LINE('',#610,#611);
#610 = CARTESIAN_POINT('',(6.28318530718,-0.));
#611 = VECTOR('',#612,1.);
#612 = DIRECTION('',(0.,1.));
#613 = ( GEOMETRIC_REPRESENTATION_CONTEXT(2) 
PARAMETRIC_REPRESENTATION_CONTEXT() REPRESENTATION_CONTEXT('2D SPACE',''
  ) );
#614 = PCURVE('',#580,#615);
#615 = DEFINITIONAL_REPRESENTATION('',(#616),#620);
#616 = LINE('',#617,#618);
#617 = CARTESIAN_POINT('',(0.,-0.));
#618 = VECTOR('',#619,1.);
#619 = DIRECTION('',(0.,1.));
#620 = ( GEOMETRIC_REPRESENTATION_CONTEXT(2) 
PARAMETRIC_REPRESENTATION_CONTEXT() REPRESENTATION_CONTEXT('2D SPACE',''
  ) );
#621 = ORIENTED_EDGE('',*,*,#622,.T.);
#622 = EDGE_CURVE('',#600,#600,#623,.T.);
#623 = SURFACE_CURVE('',#624,(#629,#636),.PCURVE_S1.);
#624 = CIRCLE('',#625,42.75);
#625 = AXIS2_PLACEMENT_3D('',#626,#627,#628);
#626 = CARTESIAN_POINT('',(0.,0.,0.));
#627 = DIRECTION('',(0.,0.,1.));
#628 = DIRECTION('',(1.,0.,-0.));
#629 = PCURVE('',#580,#630);
#630 = DEFINITIONAL_REPRESENTATION('',(#631),#635);
#631 = LINE('',#632,#633);
#632 = CARTESIAN_POINT('',(0.,0.));
#633 = VECTOR('',#634,1.);
#634 = DIRECTION('',(1.,0.));
#635 = ( GEOMETRIC_REPRESENTATION_CONTEXT(2) 
PARAMETRIC_REPRESENTATION_CONTEXT() REPRESENTATION_CONTEXT('2D SPACE',''
  ) );
#636 = PCURVE('',#637,#642);
#637 = PLANE('',#638);
#638 = AXIS2_PLACEMENT_3D('',#639,#640,#641);
#639 = CARTESIAN_POINT('',(0.,0.,0.));
#640 = DIRECTION('',(0.,0.,1.));
#641 = DIRECTION('',(1.,0.,-0.));
#642 = DEFINITIONAL_REPRESENTATION('',(#643),#647);
#643 = CIRCLE('',#644,42.75);
#644 = AXIS2_PLACEMENT_2D('',#645,#646);
#645 = CARTESIAN_POINT('',(0.,0.));
#646 = DIRECTION('',(1.,0.));
#647 = ( GEOMETRIC_REPRESENTATION_CONTEXT(2) 
PARAMETRIC_REPRESENTATION_CONTEXT() REPRESENTATION_CONTEXT('2D SPACE',''
  ) );
#648 = ORIENTED_EDGE('',*,*,#599,.T.);
#649 = ADVANCED_FACE('',(#650,#653),#637,.F.);
#650 = FACE_BOUND('',#651,.F.);
#651 = EDGE_LOOP('',(#652));
#652 = ORIENTED_EDGE('',*,*,#622,.T.);
#653 = FACE_BOUND('',#654,.F.);
#654 = EDGE_LOOP('',(#655));
#655 = ORIENTED_EDGE('',*,*,#656,.F.);
#656 = EDGE_CURVE('',#657,#657,#659,.T.);
#657 = VERTEX_POINT('',#658);
#658 = CARTESIAN_POINT('',(36.75,-9.001153973733E-15,0.));
#659 = SURFACE_CURVE('',#660,(#665,#672),.PCURVE_S1.);
#660 = CIRCLE('',#661,36.75);
#661 = AXIS2_PLACEMENT_3D('',#662,#663,#664);
#662 = CARTESIAN_POINT('',(0.,0.,0.));
#663 = DIRECTION('',(0.,0.,1.));
#664 = DIRECTION('',(1.,0.,-0.));
#665 = PCURVE('',#637,#666);
#666 = DEFINITIONAL_REPRESENTATION('',(#667),#671);
#667 = CIRCLE('',#668,36.75);
#668 = AXIS2_PLACEMENT_2D('',#669,#670);
#669 = CARTESIAN_POINT('',(0.,0.));
#670 = DIRECTION('',(1.,0.));
#671 = ( GEOMETRIC_REPRESENTATION_CONTEXT(2) 
PARAMETRIC_REPRESENTATION_CONTEXT() REPRESENTATION_CONTEXT('2D SPACE',''
  ) );
#672 = PCURVE('',#673,#678);
#673 = CYLINDRICAL_SURFACE('',#674,36.75);
#674 = AXIS2_PLACEMENT_3D('',#675,#676,#677);
#675 = CARTESIAN_POINT('',(0.,0.,-1.));
#676 = DIRECTION('',(0.,0.,1.));
#677 = DIRECTION('',(1.,0.,-0.));
#678 = DEFINITIONAL_REPRESENTATION('',(#679),#683);
#679 = LINE('',#680,#681);
#680 = CARTESIAN_POINT('',(0.,1.));
#681 = VECTOR('',#682,1.);
#682 = DIRECTION('',(1.,0.));
#683 = ( GEOMETRIC_REPRESENTATION_CONTEXT(2) 
PARAMETRIC_REPRESENTATION_CONTEXT() REPRESENTATION_CONTEXT('2D SPACE',''
  ) );
#684 = ADVANCED_FACE('',(#685,#739,#1126),#673,.F.);
#685 = FACE_BOUND('',#686,.F.);
#686 = EDGE_LOOP('',(#687,#710,#711,#712));
#687 = ORIENTED_EDGE('',*,*,#688,.F.);
#688 = EDGE_CURVE('',#657,#689,#691,.T.);
#689 = VERTEX_POINT('',#690);
#690 = CARTESIAN_POINT('',(36.75,-9.001153973733E-15,50.));
#691 = SEAM_CURVE('',#692,(#696,#703),.PCURVE_S1.);
#692 = LINE('',#693,#694);
#693 = CARTESIAN_POINT('',(36.75,-9.001153973733E-15,-1.));
#694 = VECTOR('',#695,1.);
#695 = DIRECTION('',(0.,0.,1.));
#696 = PCURVE('',#673,#697);
#697 = DEFINITIONAL_REPRESENTATION('',(#698),#702);
#698 = LINE('',#699,#700);
#699 = CARTESIAN_POINT('',(0.,-0.));
#700 = VECTOR('',#701,1.);
#701 = DIRECTION('',(0.,1.));
#702 = ( GEOMETRIC_REPRESENTATION_CONTEXT(2) 
PARAMETRIC_REPRESENTATION_CONTEXT() REPRESENTATION_CONTEXT('2D SPACE',''
  ) );
#703 = PCURVE('',#673,#704);
#704 = DEFINITIONAL_REPRESENTATION('',(#705),#709);
#705 = LINE('',#706,#707);
#706 = CARTESIAN_POINT('',(6.28318530718,-0.));
#707 = VECTOR('',#708,1.);
#708 = DIRECTION('',(0.,1.));
#709 = ( GEOMETRIC_REPRESENTATION_CONTEXT(2) 
PARAMETRIC_REPRESENTATION_CONTEXT() REPRESENTATION_CONTEXT('2D SPACE',''
  ) );
#710 = ORIENTED_EDGE('',*,*,#656,.T.);
#711 = ORIENTED_EDGE('',*,*,#688,.T.);
#712 = ORIENTED_EDGE('',*,*,#713,.F.);
#713 = EDGE_CURVE('',#689,#689,#714,.T.);
#714 = SURFACE_CURVE('',#715,(#720,#727),.PCURVE_S1.);
#715 = CIRCLE('',#716,36.75);
#716 = AXIS2_PLACEMENT_3D('',#717,#718,#719);
#717 = CARTESIAN_POINT('',(0.,0.,50.));
#718 = DIRECTION('',(0.,0.,1.));
#719 = DIRECTION('',(1.,0.,-0.));
#720 = PCURVE('',#673,#721);
#721 = DEFINITIONAL_REPRESENTATION('',(#722),#726);
#722 = LINE('',#723,#724);
#723 = CARTESIAN_POINT('',(0.,51.));
#724 = VECTOR('',#725,1.);
#725 = DIRECTION('',(1.,0.));
#726 = ( GEOMETRIC_REPRESENTATION_CONTEXT(2) 
PARAMETRIC_REPRESENTATION_CONTEXT() REPRESENTATION_CONTEXT('2D SPACE',''
  ) );
#727 = PCURVE('',#728,#733);
#728 = PLANE('',#729);
#729 = AXIS2_PLACEMENT_3D('',#730,#731,#732);
#730 = CARTESIAN_POINT('',(0.,0.,50.));
#731 = DIRECTION('',(0.,0.,1.));
#732 = DIRECTION('',(1.,0.,-0.));
#733 = DEFINITIONAL_REPRESENTATION('',(#734),#738);
#734 = CIRCLE('',#735,36.75);
#735 = AXIS2_PLACEMENT_2D('',#736,#737);
#736 = CARTESIAN_POINT('',(0.,0.));
#737 = DIRECTION('',(1.,0.));
#738 = ( GEOMETRIC_REPRESENTATION_CONTEXT(2) 
PARAMETRIC_REPRESENTATION_CONTEXT() REPRESENTATION_CONTEXT('2D SPACE',''
  ) );
#739 = FACE_BOUND('',#740,.F.);
#740 = EDGE_LOOP('',(#741));
#741 = ORIENTED_EDGE('',*,*,#742,.T.);
#742 = EDGE_CURVE('',#743,#743,#745,.T.);
#743 = VERTEX_POINT('',#744);
#744 = CARTESIAN_POINT('',(16.,33.084172953242,24.));
#745 = SURFACE_CURVE('',#746,(#869,#995),.PCURVE_S1.);
#746 = B_SPLINE_CURVE_WITH_KNOTS('',6,(#747,#748,#749,#750,#751,#752,
    #753,#754,#755,#756,#757,#758,#759,#760,#761,#762,#763,#764,#765,
    #766,#767,#768,#769,#770,#771,#772,#773,#774,#775,#776,#777,#778,
    #779,#780,#781,#782,#783,#784,#785,#786,#787,#788,#789,#790,#791,
    #792,#793,#794,#795,#796,#797,#798,#799,#800,#801,#802,#803,#804,
    #805,#806,#807,#808,#809,#810,#811,#812,#813,#814,#815,#816,#817,
    #818,#819,#820,#821,#822,#823,#824,#825,#826,#827,#828,#829,#830,
    #831,#832,#833,#834,#835,#836,#837,#838,#839,#840,#841,#842,#843,
    #844,#845,#846,#847,#848,#849,#850,#851,#852,#853,#854,#855,#856,
    #857,#858,#859,#860,#861,#862,#863,#864,#865,#866,#867,#868),
  .UNSPECIFIED.,.T.,.F.,(7,5,5,5,5,5,5,5,5,5,5,5,5,5,5,5,5,5,5,5,5,5,5,5
    ,7),(0.,5.630987235705E-02,0.119743697075,0.161181737799,
    0.190521805338,0.224572222075,0.250034115453,0.287313090789,
    0.310609583739,0.339333230382,0.362251007741,0.444052617596,
    0.500092570886,0.556381596749,0.619791937602,0.661214637519,
    0.690543843049,0.724581653931,0.750034121007,0.787299295222,
    0.810587163539,0.839300176354,0.862209469155,0.943980794064,1.),
  .UNSPECIFIED.);
#747 = CARTESIAN_POINT('',(16.,33.084172953242,24.));
#748 = CARTESIAN_POINT('',(16.,33.084172953242,24.825968087868));
#749 = CARTESIAN_POINT('',(15.948833282806,33.108917937755,
    25.65173394641));
#750 = CARTESIAN_POINT('',(15.846546627036,33.15838530507,
    26.474586554966));
#751 = CARTESIAN_POINT('',(15.693080095439,33.231871705004,
    27.291792282567));
#752 = CARTESIAN_POINT('',(15.488286784014,33.327987903522,
    28.100485305825));
#753 = CARTESIAN_POINT('',(14.94329615137,33.576197536381,
    29.795472460526));
#754 = CARTESIAN_POINT('',(14.589358334331,33.733783431888,
    30.678290668617));
#755 = CARTESIAN_POINT('',(14.16959023468,33.914743990572,
    31.543037294139));
#756 = CARTESIAN_POINT('',(13.682674500417,34.115622353051,
    32.386147334783));
#757 = CARTESIAN_POINT('',(13.126795677694,34.332117033415,
    33.20304530783));
#758 = CARTESIAN_POINT('',(12.09024978403,34.70703176187,34.500302476337
    ));
#759 = CARTESIAN_POINT('',(11.650201051587,34.859608493375,
    34.999309231369));
#760 = CARTESIAN_POINT('',(11.178823734403,35.015220442936,
    35.483314268301));
#761 = CARTESIAN_POINT('',(10.675157353242,35.172261867726,
    35.950497813088));
#762 = CARTESIAN_POINT('',(10.138221738195,35.32886700295,
    36.398554332391));
#763 = CARTESIAN_POINT('',(9.162731754753,35.591884665442,
    37.126266295044));
#764 = CARTESIAN_POINT('',(8.74112214958,35.699629524816,37.416970493879
    ));
#765 = CARTESIAN_POINT('',(8.302076747524,35.805277423868,
    37.695579171574));
#766 = CARTESIAN_POINT('',(7.8454582052,35.907937583152,37.960832576106)
  );
#767 = CARTESIAN_POINT('',(7.371195259287,36.006648604294,
    38.211345239892));
#768 = CARTESIAN_POINT('',(6.308400431446,36.209174626787,
    38.717469337748));
#769 = CARTESIAN_POINT('',(5.712993860097,36.311408734789,
    38.967800569671));
#770 = CARTESIAN_POINT('',(5.094636924927,36.405132046984,
    39.193311312669));
#771 = CARTESIAN_POINT('',(4.455169609002,36.488452853138,
    39.391025708531));
#772 = CARTESIAN_POINT('',(3.796673405253,36.559636450706,
    39.558253236127));
#773 = CARTESIAN_POINT('',(2.616529458673,36.660238215785,39.79299846239
    ));
#774 = CARTESIAN_POINT('',(2.102595899472,36.695633630586,
    39.874959596299));
#775 = CARTESIAN_POINT('',(1.581768675126,36.722680410878,
    39.937252526129));
#776 = CARTESIAN_POINT('',(1.056239423611,36.740889102981,
    39.979072191065));
#777 = CARTESIAN_POINT('',(0.528237457326,36.75,40.));
#778 = CARTESIAN_POINT('',(-0.773396968179,36.75,40.));
#779 = CARTESIAN_POINT('',(-1.545376570243,36.730468800783,
    39.955139178235));
#780 = CARTESIAN_POINT('',(-2.309585840705,36.691540651285,
    39.865726544547));
#781 = CARTESIAN_POINT('',(-3.059731270783,36.634341035301,
    39.733580503226));
#782 = CARTESIAN_POINT('',(-3.789757426638,36.56095937602,39.56201147242
    ));
#783 = CARTESIAN_POINT('',(-4.934126034035,36.419960683678,
    39.22710364478));
#784 = CARTESIAN_POINT('',(-5.364697412468,36.360440272605,
    39.084660866106));
#785 = CARTESIAN_POINT('',(-5.785240575709,36.296168571961,
    38.929435171952));
#786 = CARTESIAN_POINT('',(-6.195315069218,36.227711642036,
    38.762305402726));
#787 = CARTESIAN_POINT('',(-6.594530824335,36.155647680152,
    38.584174310682));
#788 = CARTESIAN_POINT('',(-7.46095736859,35.987971084631,
    38.163927273839));
#789 = CARTESIAN_POINT('',(-7.922447209855,35.890763258094,
    37.916522413385));
#790 = CARTESIAN_POINT('',(-8.367036754683,35.789885045306,
    37.655162653594));
#791 = CARTESIAN_POINT('',(-8.794805638927,35.686230708113,
    37.381133644208));
#792 = CARTESIAN_POINT('',(-9.205892515527,35.580628971168,
    37.095604386171));
#793 = CARTESIAN_POINT('',(-9.91533492426,35.388628379028,
    36.563479812395));
#794 = CARTESIAN_POINT('',(-10.21973512174,35.302647989903,
    36.320639911405));
#795 = CARTESIAN_POINT('',(-10.51385167995,35.216260560873,
    36.07159165943));
#796 = CARTESIAN_POINT('',(-10.79784436479,35.129804275435,
    35.816766715888));
#797 = CARTESIAN_POINT('',(-11.07187557444,35.043590475356,
    35.55654650742));
#798 = CARTESIAN_POINT('',(-12.27925780385,34.652061907827,
    34.344368608235));
#799 = CARTESIAN_POINT('',(-13.09886512957,34.352533674558,
    33.331681255751));
#800 = CARTESIAN_POINT('',(-13.8003959191,34.072803457956,
    32.269319274534));
#801 = CARTESIAN_POINT('',(-14.38894541302,33.822920995315,
    31.16794882379));
#802 = CARTESIAN_POINT('',(-14.86800386165,33.610578563587,
    30.035109908973));
#803 = CARTESIAN_POINT('',(-15.49280502264,33.325867045349,
    28.082601254246));
#804 = CARTESIAN_POINT('',(-15.69578867651,33.230574670257,
    27.277336285585));
#805 = CARTESIAN_POINT('',(-15.84790085054,33.157730381995,
    26.463669346193));
#806 = CARTESIAN_POINT('',(-15.94928509427,33.10869943513,
    25.644428677822));
#807 = CARTESIAN_POINT('',(-16.,33.084172953242,24.822313272493));
#808 = CARTESIAN_POINT('',(-16.,33.084172953242,23.17403191213));
#809 = CARTESIAN_POINT('',(-15.9488332828,33.108917937755,22.34826605359
    ));
#810 = CARTESIAN_POINT('',(-15.84654662703,33.15838530507,
    21.525413445035));
#811 = CARTESIAN_POINT('',(-15.69308009544,33.231871705004,
    20.708207717433));
#812 = CARTESIAN_POINT('',(-15.48828678401,33.327987903522,
    19.899514694174));
#813 = CARTESIAN_POINT('',(-14.94329615141,33.576197536362,
    18.204527539606));
#814 = CARTESIAN_POINT('',(-14.58935833436,33.733783431871,
    17.321709331432));
#815 = CARTESIAN_POINT('',(-14.16959023461,33.914743990609,
    16.456962705647));
#816 = CARTESIAN_POINT('',(-13.68267450026,34.1156223531,15.613852665097
    ));
#817 = CARTESIAN_POINT('',(-13.12679567788,34.332117033345,
    14.796954692412));
#818 = CARTESIAN_POINT('',(-12.09024978403,34.70703176187,
    13.499697523662));
#819 = CARTESIAN_POINT('',(-11.65020105158,34.859608493375,
    13.000690768631));
#820 = CARTESIAN_POINT('',(-11.1788237344,35.015220442936,
    12.516685731699));
#821 = CARTESIAN_POINT('',(-10.67515735324,35.172261867726,
    12.049502186912));
#822 = CARTESIAN_POINT('',(-10.13822173819,35.32886700295,
    11.601445667609));
#823 = CARTESIAN_POINT('',(-9.162731754753,35.591884665442,
    10.873733704956));
#824 = CARTESIAN_POINT('',(-8.74112214958,35.699629524816,
    10.583029506121));
#825 = CARTESIAN_POINT('',(-8.302076747524,35.805277423868,
    10.304420828426));
#826 = CARTESIAN_POINT('',(-7.8454582052,35.907937583152,10.039167423894
    ));
#827 = CARTESIAN_POINT('',(-7.371195259287,36.006648604294,
    9.788654760108));
#828 = CARTESIAN_POINT('',(-6.30840043187,36.209174626706,9.282530662454
    ));
#829 = CARTESIAN_POINT('',(-5.712993859987,36.311408734829,
    9.032199430228));
#830 = CARTESIAN_POINT('',(-5.094636924495,36.405132047044,
    8.806688687186));
#831 = CARTESIAN_POINT('',(-4.455169608881,36.48845285313,8.608974291493
    ));
#832 = CARTESIAN_POINT('',(-3.796673405693,36.559636450668,
    8.441746763961));
#833 = CARTESIAN_POINT('',(-2.616529458673,36.660238215785,8.20700153761
    ));
#834 = CARTESIAN_POINT('',(-2.102595899472,36.695633630586,
    8.125040403701));
#835 = CARTESIAN_POINT('',(-1.581768675126,36.722680410878,
    8.062747473871));
#836 = CARTESIAN_POINT('',(-1.056239423611,36.740889102981,
    8.020927808935));
#837 = CARTESIAN_POINT('',(-0.528237457326,36.75,8.));
#838 = CARTESIAN_POINT('',(0.773396968361,36.75,8.));
#839 = CARTESIAN_POINT('',(1.545376570196,36.730468800774,8.044860821786
    ));
#840 = CARTESIAN_POINT('',(2.309585840527,36.691540651296,8.134273455427
    ));
#841 = CARTESIAN_POINT('',(3.059731270734,36.634341035315,8.266419496739
    ));
#842 = CARTESIAN_POINT('',(3.789757426813,36.560959375998,8.437988527631
    ));
#843 = CARTESIAN_POINT('',(4.934126034035,36.419960683678,8.77289635522)
  );
#844 = CARTESIAN_POINT('',(5.364697412468,36.360440272605,8.915339133894
    ));
#845 = CARTESIAN_POINT('',(5.785240575709,36.296168571961,9.070564828048
    ));
#846 = CARTESIAN_POINT('',(6.195315069218,36.227711642036,9.237694597274
    ));
#847 = CARTESIAN_POINT('',(6.594530824336,36.155647680152,9.415825689318
    ));
#848 = CARTESIAN_POINT('',(7.460957368607,35.987971084628,9.836072726169
    ));
#849 = CARTESIAN_POINT('',(7.922447209851,35.890763258095,
    10.083477586615));
#850 = CARTESIAN_POINT('',(8.367036754669,35.789885045309,
    10.344837346398));
#851 = CARTESIAN_POINT('',(8.794805638924,35.686230708114,
    10.618866355789));
#852 = CARTESIAN_POINT('',(9.205892515538,35.580628971165,
    10.904395613838));
#853 = CARTESIAN_POINT('',(9.915334922446,35.388628379519,
    11.436520186244));
#854 = CARTESIAN_POINT('',(10.21973512263,35.302647989694,
    11.679360089109));
#855 = CARTESIAN_POINT('',(10.513851681894,35.216260560297,
    11.928408342264));
#856 = CARTESIAN_POINT('',(10.797844365028,35.129804275311,
    12.183233284573));
#857 = CARTESIAN_POINT('',(11.071875572602,35.043590475953,
    12.443453490732));
#858 = CARTESIAN_POINT('',(12.279257803851,34.652061907828,
    13.655631391764));
#859 = CARTESIAN_POINT('',(13.098865129577,34.352533674557,
    14.66831874425));
#860 = CARTESIAN_POINT('',(13.800395919102,34.072803457956,
    15.730680725468));
#861 = CARTESIAN_POINT('',(14.388945413029,33.822920995316,
    16.832051176207));
#862 = CARTESIAN_POINT('',(14.868003861656,33.610578563587,
    17.964890091029));
#863 = CARTESIAN_POINT('',(15.492805022648,33.325867045349,
    19.917398745754));
#864 = CARTESIAN_POINT('',(15.695788676512,33.230574670257,
    20.722663714413));
#865 = CARTESIAN_POINT('',(15.84790085054,33.157730381995,21.53633065381
    ));
#866 = CARTESIAN_POINT('',(15.949285094271,33.10869943513,
    22.355571322177));
#867 = CARTESIAN_POINT('',(16.,33.084172953242,23.177686727507));
#868 = CARTESIAN_POINT('',(16.,33.084172953242,24.));
#869 = PCURVE('',#673,#870);
#870 = DEFINITIONAL_REPRESENTATION('',(#871),#994);
#871 = B_SPLINE_CURVE_WITH_KNOTS('',6,(#872,#873,#874,#875,#876,#877,
    #878,#879,#880,#881,#882,#883,#884,#885,#886,#887,#888,#889,#890,
    #891,#892,#893,#894,#895,#896,#897,#898,#899,#900,#901,#902,#903,
    #904,#905,#906,#907,#908,#909,#910,#911,#912,#913,#914,#915,#916,
    #917,#918,#919,#920,#921,#922,#923,#924,#925,#926,#927,#928,#929,
    #930,#931,#932,#933,#934,#935,#936,#937,#938,#939,#940,#941,#942,
    #943,#944,#945,#946,#947,#948,#949,#950,#951,#952,#953,#954,#955,
    #956,#957,#958,#959,#960,#961,#962,#963,#964,#965,#966,#967,#968,
    #969,#970,#971,#972,#973,#974,#975,#976,#977,#978,#979,#980,#981,
    #982,#983,#984,#985,#986,#987,#988,#989,#990,#991,#992,#993),
  .UNSPECIFIED.,.T.,.F.,(7,5,5,5,5,5,5,5,5,5,5,5,5,5,5,5,5,5,5,5,5,5,5,5
    ,7),(0.,5.630987235705E-02,0.119743697075,0.161181737799,
    0.190521805338,0.224572222075,0.250034115453,0.287313090789,
    0.310609583739,0.339333230382,0.362251007741,0.444052617596,
    0.500092570886,0.556381596749,0.619791937602,0.661214637519,
    0.690543843049,0.724581653931,0.750034121007,0.787299295222,
    0.810587163539,0.839300176354,0.862209469155,0.943980794064,1.),
  .UNSPECIFIED.);
#872 = CARTESIAN_POINT('',(1.12034248519,25.));
#873 = CARTESIAN_POINT('',(1.12034248519,25.825968087868));
#874 = CARTESIAN_POINT('',(1.121889046359,26.65173394641));
#875 = CARTESIAN_POINT('',(1.124980758746,27.474586554966));
#876 = CARTESIAN_POINT('',(1.129610745964,28.291792282567));
#877 = CARTESIAN_POINT('',(1.135766176827,29.100485305825));
#878 = CARTESIAN_POINT('',(1.152061448751,30.795472460526));
#879 = CARTESIAN_POINT('',(1.162603499622,31.678290668617));
#880 = CARTESIAN_POINT('',(1.17504051502,32.543037294139));
#881 = CARTESIAN_POINT('',(1.189369888005,33.386147334783));
#882 = CARTESIAN_POINT('',(1.205597721542,34.20304530783));
#883 = CARTESIAN_POINT('',(1.235591330849,35.500302476337));
#884 = CARTESIAN_POINT('',(1.248263653875,35.999309231369));
#885 = CARTESIAN_POINT('',(1.261768755755,36.483314268301));
#886 = CARTESIAN_POINT('',(1.276121329226,36.950497813088));
#887 = CARTESIAN_POINT('',(1.291337419698,37.398554332391));
#888 = CARTESIAN_POINT('',(1.318829288657,38.126266295044));
#889 = CARTESIAN_POINT('',(1.330669332118,38.416970493879));
#890 = CARTESIAN_POINT('',(1.342955270491,38.695579171574));
#891 = CARTESIAN_POINT('',(1.355688101928,38.960832576106));
#892 = CARTESIAN_POINT('',(1.368867897216,39.211345239892));
#893 = CARTESIAN_POINT('',(1.398307881491,39.717469337748));
#894 = CARTESIAN_POINT('',(1.41474379297,39.967800569671));
#895 = CARTESIAN_POINT('',(1.431756875077,40.193311312669));
#896 = CARTESIAN_POINT('',(1.449298369784,40.391025708531));
#897 = CARTESIAN_POINT('',(1.467316387741,40.558253236127));
#898 = CARTESIAN_POINT('',(1.499545614965,40.79299846239));
#899 = CARTESIAN_POINT('',(1.513561474702,40.874959596299));
#900 = CARTESIAN_POINT('',(1.527749652213,40.937252526129));
#901 = CARTESIAN_POINT('',(1.542055120956,40.979072191065));
#902 = CARTESIAN_POINT('',(1.556422518432,41.));
#903 = CARTESIAN_POINT('',(1.591841142256,41.));
#904 = CARTESIAN_POINT('',(1.612847393841,40.955139178235));
#905 = CARTESIAN_POINT('',(1.633658961323,40.865726544547));
#906 = CARTESIAN_POINT('',(1.654121158081,40.733580503226));
#907 = CARTESIAN_POINT('',(1.67408091114,40.56201147242));
#908 = CARTESIAN_POINT('',(1.705455664258,40.22710364478));
#909 = CARTESIAN_POINT('',(1.717282014448,40.084660866106));
#910 = CARTESIAN_POINT('',(1.728856512754,39.929435171952));
#911 = CARTESIAN_POINT('',(1.740167902521,39.762305402726));
#912 = CARTESIAN_POINT('',(1.751205613114,39.584174310682));
#913 = CARTESIAN_POINT('',(1.775219282494,39.163927273839));
#914 = CARTESIAN_POINT('',(1.788050653586,38.916522413385));
#915 = CARTESIAN_POINT('',(1.800453701605,38.655162653594));
#916 = CARTESIAN_POINT('',(1.812428773276,38.381133644208));
#917 = CARTESIAN_POINT('',(1.823977040688,38.095604386171));
#918 = CARTESIAN_POINT('',(1.843976073636,37.563479812395));
#919 = CARTESIAN_POINT('',(1.852582633616,37.320639911405));
#920 = CARTESIAN_POINT('',(1.86092323454,37.07159165943));
#921 = CARTESIAN_POINT('',(1.869000549169,36.816766715888));
#922 = CARTESIAN_POINT('',(1.876817207501,36.55654650742));
#923 = CARTESIAN_POINT('',(1.911355382505,35.344368608235));
#924 = CARTESIAN_POINT('',(1.935084209839,34.331681255751));
#925 = CARTESIAN_POINT('',(1.955625814023,33.269319274534));
#926 = CARTESIAN_POINT('',(1.973020921042,32.16794882379));
#927 = CARTESIAN_POINT('',(1.987278942568,31.035109908973));
#928 = CARTESIAN_POINT('',(2.005962284109,29.082601254246));
#929 = CARTESIAN_POINT('',(2.012063624341,28.277336285585));
#930 = CARTESIAN_POINT('',(2.016652827583,27.463669346193));
#931 = CARTESIAN_POINT('',(2.019717263634,26.644428677822));
#932 = CARTESIAN_POINT('',(2.0212501684,25.822313272493));
#933 = CARTESIAN_POINT('',(2.0212501684,24.17403191213));
#934 = CARTESIAN_POINT('',(2.019703607231,23.34826605359));
#935 = CARTESIAN_POINT('',(2.016611894843,22.525413445035));
#936 = CARTESIAN_POINT('',(2.011981907626,21.708207717433));
#937 = CARTESIAN_POINT('',(2.005826476763,20.899514694174));
#938 = CARTESIAN_POINT('',(1.98953120484,19.204527539606));
#939 = CARTESIAN_POINT('',(1.978989153969,18.321709331432));
#940 = CARTESIAN_POINT('',(1.966552138568,17.456962705647));
#941 = CARTESIAN_POINT('',(1.952222765581,16.613852665097));
#942 = CARTESIAN_POINT('',(1.935994932053,15.796954692412));
#943 = CARTESIAN_POINT('',(1.906001322741,14.499697523662));
#944 = CARTESIAN_POINT('',(1.893328999714,14.000690768631));
#945 = CARTESIAN_POINT('',(1.879823897835,13.516685731699));
#946 = CARTESIAN_POINT('',(1.865471324364,13.049502186912));
#947 = CARTESIAN_POINT('',(1.850255233892,12.601445667609));
#948 = CARTESIAN_POINT('',(1.822763364933,11.873733704956));
#949 = CARTESIAN_POINT('',(1.810923321472,11.583029506121));
#950 = CARTESIAN_POINT('',(1.798637383099,11.304420828426));
#951 = CARTESIAN_POINT('',(1.785904551662,11.039167423894));
#952 = CARTESIAN_POINT('',(1.772724756373,10.788654760108));
#953 = CARTESIAN_POINT('',(1.743284772111,10.282530662454));
#954 = CARTESIAN_POINT('',(1.726848860616,10.032199430228));
#955 = CARTESIAN_POINT('',(1.7098357785,9.806688687186));
#956 = CARTESIAN_POINT('',(1.692294283803,9.608974291493));
#957 = CARTESIAN_POINT('',(1.674276265861,9.441746763961));
#958 = CARTESIAN_POINT('',(1.642047038625,9.20700153761));
#959 = CARTESIAN_POINT('',(1.628031178888,9.125040403701));
#960 = CARTESIAN_POINT('',(1.613843001376,9.062747473871));
#961 = CARTESIAN_POINT('',(1.599537532634,9.020927808935));
#962 = CARTESIAN_POINT('',(1.585170135158,9.));
#963 = CARTESIAN_POINT('',(1.549751511329,9.));
#964 = CARTESIAN_POINT('',(1.52874525975,9.044860821786));
#965 = CARTESIAN_POINT('',(1.507933692272,9.134273455427));
#966 = CARTESIAN_POINT('',(1.48747149551,9.266419496739));
#967 = CARTESIAN_POINT('',(1.467511742445,9.437988527631));
#968 = CARTESIAN_POINT('',(1.436136989332,9.77289635522));
#969 = CARTESIAN_POINT('',(1.424310639141,9.915339133894));
#970 = CARTESIAN_POINT('',(1.412736140836,10.070564828048));
#971 = CARTESIAN_POINT('',(1.401424751069,10.237694597274));
#972 = CARTESIAN_POINT('',(1.390387040476,10.415825689318));
#973 = CARTESIAN_POINT('',(1.366373371095,10.836072726169));
#974 = CARTESIAN_POINT('',(1.353542000004,11.083477586615));
#975 = CARTESIAN_POINT('',(1.341138951985,11.344837346398));
#976 = CARTESIAN_POINT('',(1.329163880314,11.618866355789));
#977 = CARTESIAN_POINT('',(1.317615612902,11.904395613838));
#978 = CARTESIAN_POINT('',(1.297616580005,12.436520186244));
#979 = CARTESIAN_POINT('',(1.289010019949,12.679360089109));
#980 = CARTESIAN_POINT('',(1.280669418995,12.928408342264));
#981 = CARTESIAN_POINT('',(1.272592104414,13.183233284573));
#982 = CARTESIAN_POINT('',(1.264775446141,13.443453490732));
#983 = CARTESIAN_POINT('',(1.230237271085,14.655631391764));
#984 = CARTESIAN_POINT('',(1.206508443751,15.66831874425));
#985 = CARTESIAN_POINT('',(1.185966839567,16.730680725468));
#986 = CARTESIAN_POINT('',(1.168571732548,17.832051176207));
#987 = CARTESIAN_POINT('',(1.154313711022,18.964890091029));
#988 = CARTESIAN_POINT('',(1.135630369481,20.917398745754));
#989 = CARTESIAN_POINT('',(1.129529029249,21.722663714413));
#990 = CARTESIAN_POINT('',(1.124939826006,22.53633065381));
#991 = CARTESIAN_POINT('',(1.121875389956,23.355571322177));
#992 = CARTESIAN_POINT('',(1.12034248519,24.177686727507));
#993 = CARTESIAN_POINT('',(1.12034248519,25.));
#994 = ( GEOMETRIC_REPRESENTATION_CONTEXT(2) 
PARAMETRIC_REPRESENTATION_CONTEXT() REPRESENTATION_CONTEXT('2D SPACE',''
  ) );
#995 = PCURVE('',#996,#1001);
#996 = CYLINDRICAL_SURFACE('',#997,16.);
#997 = AXIS2_PLACEMENT_3D('',#998,#999,#1000);
#998 = CARTESIAN_POINT('',(0.,38.,24.));
#999 = DIRECTION('',(0.,-1.,1.110223024625E-16));
#1000 = DIRECTION('',(1.,0.,0.));
#1001 = DEFINITIONAL_REPRESENTATION('',(#1002),#1125);
#1002 = B_SPLINE_CURVE_WITH_KNOTS('',6,(#1003,#1004,#1005,#1006,#1007,
    #1008,#1009,#1010,#1011,#1012,#1013,#1014,#1015,#1016,#1017,#1018,
    #1019,#1020,#1021,#1022,#1023,#1024,#1025,#1026,#1027,#1028,#1029,
    #1030,#1031,#1032,#1033,#1034,#1035,#1036,#1037,#1038,#1039,#1040,
    #1041,#1042,#1043,#1044,#1045,#1046,#1047,#1048,#1049,#1050,#1051,
    #1052,#1053,#1054,#1055,#1056,#1057,#1058,#1059,#1060,#1061,#1062,
    #1063,#1064,#1065,#1066,#1067,#1068,#1069,#1070,#1071,#1072,#1073,
    #1074,#1075,#1076,#1077,#1078,#1079,#1080,#1081,#1082,#1083,#1084,
    #1085,#1086,#1087,#1088,#1089,#1090,#1091,#1092,#1093,#1094,#1095,
    #1096,#1097,#1098,#1099,#1100,#1101,#1102,#1103,#1104,#1105,#1106,
    #1107,#1108,#1109,#1110,#1111,#1112,#1113,#1114,#1115,#1116,#1117,
    #1118,#1119,#1120,#1121,#1122,#1123,#1124),.UNSPECIFIED.,.F.,.F.,(7,
    5,5,5,5,5,5,5,5,5,5,5,5,5,5,5,5,5,5,5,5,5,5,5,7),(0.,
    5.630987235705E-02,0.119743697075,0.161181737799,0.190521805338,
    0.224572222075,0.250034115453,0.287313090789,0.310609583739,
    0.339333230382,0.362251007741,0.444052617596,0.500092570886,
    0.556381596749,0.619791937602,0.661214637519,0.690543843049,
    0.724581653931,0.750034121007,0.787299295222,0.810587163539,
    0.839300176354,0.862209469155,0.943980794064,1.),.UNSPECIFIED.);
#1003 = CARTESIAN_POINT('',(0.,4.915827046758));
#1004 = CARTESIAN_POINT('',(5.162300549177E-02,4.915827046758));
#1005 = CARTESIAN_POINT('',(0.103233372488,4.891082062245));
#1006 = CARTESIAN_POINT('',(0.154909285624,4.84161469493));
#1007 = CARTESIAN_POINT('',(0.206726939312,4.768128294996));
#1008 = CARTESIAN_POINT('',(0.258762104224,4.672012096478));
#1009 = CARTESIAN_POINT('',(0.370040124647,4.423802463619));
#1010 = CARTESIAN_POINT('',(0.429339071145,4.266216568112));
#1011 = CARTESIAN_POINT('',(0.489190681852,4.085256009428));
#1012 = CARTESIAN_POINT('',(0.549799452852,3.884377646949));
#1013 = CARTESIAN_POINT('',(0.611373855088,3.667882966585));
#1014 = CARTESIAN_POINT('',(0.715155919992,3.29296823813));
#1015 = CARTESIAN_POINT('',(0.756689358217,3.140391506625));
#1016 = CARTESIAN_POINT('',(0.798836935057,2.984779557064));
#1017 = CARTESIAN_POINT('',(0.841686767884,2.827738132274));
#1018 = CARTESIAN_POINT('',(0.885329774622,2.67113299705));
#1019 = CARTESIAN_POINT('',(0.961393723057,2.408115334558));
#1020 = CARTESIAN_POINT('',(0.993378763907,2.300370475184));
#1021 = CARTESIAN_POINT('',(1.02584172593,2.194722576132));
#1022 = CARTESIAN_POINT('',(1.058806835581,2.092062416848));
#1023 = CARTESIAN_POINT('',(1.092300452198,1.993351395706));
#1024 = CARTESIAN_POINT('',(1.165872654418,1.790825373213));
#1025 = CARTESIAN_POINT('',(1.206197258831,1.688591265211));
#1026 = CARTESIAN_POINT('',(1.247261143337,1.594867953016));
#1027 = CARTESIAN_POINT('',(1.289013964264,1.511547146862));
#1028 = CARTESIAN_POINT('',(1.331418238663,1.440363549294));
#1029 = CARTESIAN_POINT('',(1.406622259497,1.339761784215));
#1030 = CARTESIAN_POINT('',(1.43912527835,1.304366369414));
#1031 = CARTESIAN_POINT('',(1.471871012062,1.277319589122));
#1032 = CARTESIAN_POINT('',(1.504781361633,1.259110897019));
#1033 = CARTESIAN_POINT('',(1.537781485712,1.25));
#1034 = CARTESIAN_POINT('',(1.619133637306,1.25));
#1035 = CARTESIAN_POINT('',(1.667382358669,1.269531199217));
#1036 = CARTESIAN_POINT('',(1.715348750525,1.308459348715));
#1037 = CARTESIAN_POINT('',(1.762838922735,1.365658964699));
#1038 = CARTESIAN_POINT('',(1.809640661858,1.43904062398));
#1039 = CARTESIAN_POINT('',(1.884163696326,1.580039316322));
#1040 = CARTESIAN_POINT('',(1.912491643152,1.639559727395));
#1041 = CARTESIAN_POINT('',(1.940484819703,1.703831428039));
#1042 = CARTESIAN_POINT('',(1.968138875078,1.772288357964));
#1043 = CARTESIAN_POINT('',(1.995447105533,1.844352319848));
#1044 = CARTESIAN_POINT('',(2.055632448451,2.012028915369));
#1045 = CARTESIAN_POINT('',(2.088332115009,2.109236741906));
#1046 = CARTESIAN_POINT('',(2.120528044291,2.210114954694));
#1047 = CARTESIAN_POINT('',(2.152245263086,2.313769291887));
#1048 = CARTESIAN_POINT('',(2.18350689686,2.419371028832));
#1049 = CARTESIAN_POINT('',(2.238933688855,2.611371620972));
#1050 = CARTESIAN_POINT('',(2.263260224983,2.697352010097));
#1051 = CARTESIAN_POINT('',(2.287332199729,2.783739439127));
#1052 = CARTESIAN_POINT('',(2.311165272816,2.870195724565));
#1053 = CARTESIAN_POINT('',(2.334774814064,2.956409524644));
#1054 = CARTESIAN_POINT('',(2.441705485003,3.347938092173));
#1055 = CARTESIAN_POINT('',(2.522699257995,3.647466325442));
#1056 = CARTESIAN_POINT('',(2.601732166073,3.927196542044));
#1057 = CARTESIAN_POINT('',(2.679294101548,4.177079004685));
#1058 = CARTESIAN_POINT('',(2.755853601498,4.389421436413));
#1059 = CARTESIAN_POINT('',(2.883981140155,4.674132954651));
#1060 = CARTESIAN_POINT('',(2.935782286957,4.769425329743));
#1061 = CARTESIAN_POINT('',(2.987368966003,4.842269618005));
#1062 = CARTESIAN_POINT('',(3.038815860434,4.89130056487));
#1063 = CARTESIAN_POINT('',(3.090198074059,4.915827046758));
#1064 = CARTESIAN_POINT('',(3.193215659082,4.915827046758));
#1065 = CARTESIAN_POINT('',(3.244826026078,4.891082062245));
#1066 = CARTESIAN_POINT('',(3.296501939214,4.84161469493));
#1067 = CARTESIAN_POINT('',(3.348319592902,4.768128294996));
#1068 = CARTESIAN_POINT('',(3.400354757814,4.672012096478));
#1069 = CARTESIAN_POINT('',(3.511632778228,4.423802463638));
#1070 = CARTESIAN_POINT('',(3.570931724731,4.266216568129));
#1071 = CARTESIAN_POINT('',(3.630783335455,4.085256009391));
#1072 = CARTESIAN_POINT('',(3.691392106453,3.8843776469));
#1073 = CARTESIAN_POINT('',(3.752966508659,3.667882966655));
#1074 = CARTESIAN_POINT('',(3.856748573582,3.29296823813));
#1075 = CARTESIAN_POINT('',(3.898282011807,3.140391506625));
#1076 = CARTESIAN_POINT('',(3.940429588647,2.984779557064));
#1077 = CARTESIAN_POINT('',(3.983279421474,2.827738132274));
#1078 = CARTESIAN_POINT('',(4.026922428212,2.67113299705));
#1079 = CARTESIAN_POINT('',(4.102986376647,2.408115334558));
#1080 = CARTESIAN_POINT('',(4.134971417497,2.300370475184));
#1081 = CARTESIAN_POINT('',(4.167434379519,2.194722576132));
#1082 = CARTESIAN_POINT('',(4.200399489171,2.092062416848));
#1083 = CARTESIAN_POINT('',(4.233893105788,1.993351395706));
#1084 = CARTESIAN_POINT('',(4.307465307979,1.790825373294));
#1085 = CARTESIAN_POINT('',(4.34778991243,1.688591265171));
#1086 = CARTESIAN_POINT('',(4.388853796956,1.594867952956));
#1087 = CARTESIAN_POINT('',(4.430606617861,1.51154714687));
#1088 = CARTESIAN_POINT('',(4.473010892224,1.440363549332));
#1089 = CARTESIAN_POINT('',(4.548214913087,1.339761784215));
#1090 = CARTESIAN_POINT('',(4.58071793194,1.304366369414));
#1091 = CARTESIAN_POINT('',(4.613463665652,1.277319589122));
#1092 = CARTESIAN_POINT('',(4.646374015223,1.259110897019));
#1093 = CARTESIAN_POINT('',(4.679374139302,1.25));
#1094 = CARTESIAN_POINT('',(4.760726290907,1.25));
#1095 = CARTESIAN_POINT('',(4.808975012255,1.269531199226));
#1096 = CARTESIAN_POINT('',(4.856941404104,1.308459348704));
#1097 = CARTESIAN_POINT('',(4.904431576321,1.365658964685));
#1098 = CARTESIAN_POINT('',(4.951233315459,1.439040624002));
#1099 = CARTESIAN_POINT('',(5.025756349916,1.580039316322));
#1100 = CARTESIAN_POINT('',(5.054084296742,1.639559727395));
#1101 = CARTESIAN_POINT('',(5.082077473293,1.703831428039));
#1102 = CARTESIAN_POINT('',(5.109731528667,1.772288357964));
#1103 = CARTESIAN_POINT('',(5.137039759123,1.844352319848));
#1104 = CARTESIAN_POINT('',(5.197225102042,2.012028915372));
#1105 = CARTESIAN_POINT('',(5.229924768599,2.109236741905));
#1106 = CARTESIAN_POINT('',(5.26212069788,2.210114954691));
#1107 = CARTESIAN_POINT('',(5.293837916676,2.313769291886));
#1108 = CARTESIAN_POINT('',(5.325099550451,2.419371028835));
#1109 = CARTESIAN_POINT('',(5.380526342303,2.611371620481));
#1110 = CARTESIAN_POINT('',(5.404852878636,2.697352010306));
#1111 = CARTESIAN_POINT('',(5.42892485348,2.783739439703));
#1112 = CARTESIAN_POINT('',(5.452757926436,2.870195724689));
#1113 = CARTESIAN_POINT('',(5.476367467491,2.956409524047));
#1114 = CARTESIAN_POINT('',(5.583298138592,3.347938092172));
#1115 = CARTESIAN_POINT('',(5.664291911585,3.647466325443));
#1116 = CARTESIAN_POINT('',(5.743324819663,3.927196542044));
#1117 = CARTESIAN_POINT('',(5.820886755138,4.177079004684));
#1118 = CARTESIAN_POINT('',(5.897446255088,4.389421436413));
#1119 = CARTESIAN_POINT('',(6.025573793745,4.674132954651));
#1120 = CARTESIAN_POINT('',(6.077374940546,4.769425329743));
#1121 = CARTESIAN_POINT('',(6.128961619593,4.842269618005));
#1122 = CARTESIAN_POINT('',(6.180408514023,4.89130056487));
#1123 = CARTESIAN_POINT('',(6.231790727649,4.915827046758));
#1124 = CARTESIAN_POINT('',(6.28318530718,4.915827046758));
#1125 = ( GEOMETRIC_REPRESENTATION_CONTEXT(2) 
PARAMETRIC_REPRESENTATION_CONTEXT() REPRESENTATION_CONTEXT('2D SPACE',''
  ) );
#1126 = FACE_BOUND('',#1127,.F.);
#1127 = EDGE_LOOP('',(#1128));
#1128 = ORIENTED_EDGE('',*,*,#1129,.F.);
#1129 = EDGE_CURVE('',#1130,#1130,#1132,.T.);
#1130 = VERTEX_POINT('',#1131);
#1131 = CARTESIAN_POINT('',(16.,-33.08417295324,24.));
#1132 = SURFACE_CURVE('',#1133,(#1256,#1382),.PCURVE_S1.);
#1133 = B_SPLINE_CURVE_WITH_KNOTS('',6,(#1134,#1135,#1136,#1137,#1138,
    #1139,#1140,#1141,#1142,#1143,#1144,#1145,#1146,#1147,#1148,#1149,
    #1150,#1151,#1152,#1153,#1154,#1155,#1156,#1157,#1158,#1159,#1160,
    #1161,#1162,#1163,#1164,#1165,#1166,#1167,#1168,#1169,#1170,#1171,
    #1172,#1173,#1174,#1175,#1176,#1177,#1178,#1179,#1180,#1181,#1182,
    #1183,#1184,#1185,#1186,#1187,#1188,#1189,#1190,#1191,#1192,#1193,
    #1194,#1195,#1196,#1197,#1198,#1199,#1200,#1201,#1202,#1203,#1204,
    #1205,#1206,#1207,#1208,#1209,#1210,#1211,#1212,#1213,#1214,#1215,
    #1216,#1217,#1218,#1219,#1220,#1221,#1222,#1223,#1224,#1225,#1226,
    #1227,#1228,#1229,#1230,#1231,#1232,#1233,#1234,#1235,#1236,#1237,
    #1238,#1239,#1240,#1241,#1242,#1243,#1244,#1245,#1246,#1247,#1248,
    #1249,#1250,#1251,#1252,#1253,#1254,#1255),.UNSPECIFIED.,.T.,.F.,(7,
    5,5,5,5,5,5,5,5,5,5,5,5,5,5,5,5,5,5,5,5,5,5,5,7),(0.,
    5.630987236117E-02,0.119743697069,0.161181737778,0.190521805312,
    0.224572222288,0.250034115676,0.287313091036,0.310609584006,
    0.339333230676,0.362251008056,0.444052617989,0.500092571331,
    0.556381597247,0.619791938155,0.661214636736,0.690543842145,
    0.724581652913,0.75003411992,0.787299294023,0.810587162265,
    0.839300174987,0.862209467846,0.943980793532,1.),.UNSPECIFIED.);
#1134 = CARTESIAN_POINT('',(16.,-33.08417295324,24.));
#1135 = CARTESIAN_POINT('',(16.,-33.08417295324,24.825968087869));
#1136 = CARTESIAN_POINT('',(15.948833282806,-33.10891793775,
    25.651733946411));
#1137 = CARTESIAN_POINT('',(15.846546627035,-33.15838530507,
    26.474586554965));
#1138 = CARTESIAN_POINT('',(15.69308009544,-33.231871705,27.291792282568
    ));
#1139 = CARTESIAN_POINT('',(15.488286784014,-33.32798790352,
    28.100485305826));
#1140 = CARTESIAN_POINT('',(14.943296151436,-33.57619753635,
    29.795472460324));
#1141 = CARTESIAN_POINT('',(14.58935833434,-33.73378343188,
    30.678290668686));
#1142 = CARTESIAN_POINT('',(14.169590234576,-33.91474399062,
    31.543037294339));
#1143 = CARTESIAN_POINT('',(13.682674500354,-34.11562235306,
    32.386147334807));
#1144 = CARTESIAN_POINT('',(13.126795677837,-34.33211703336,
    33.203045307652));
#1145 = CARTESIAN_POINT('',(12.090249784029,-34.70703176187,
    34.500302476339));
#1146 = CARTESIAN_POINT('',(11.650201051586,-34.85960849337,
    34.999309231369));
#1147 = CARTESIAN_POINT('',(11.178823734403,-35.01522044293,
    35.4833142683));
#1148 = CARTESIAN_POINT('',(10.675157353243,-35.17226186772,
    35.950497813088));
#1149 = CARTESIAN_POINT('',(10.138221738194,-35.32886700295,
    36.398554332392));
#1150 = CARTESIAN_POINT('',(9.162731754664,-35.59188466546,
    37.126266295111));
#1151 = CARTESIAN_POINT('',(8.741122149604,-35.6996295248,
    37.416970493849));
#1152 = CARTESIAN_POINT('',(8.302076747632,-35.80527742384,
    37.69557917151));
#1153 = CARTESIAN_POINT('',(7.845458205231,-35.90793758314,
    37.960832576103));
#1154 = CARTESIAN_POINT('',(7.371195259157,-36.00664860431,
    38.211345239954));
#1155 = CARTESIAN_POINT('',(6.308400427512,-36.20917462753,
    38.717469339621));
#1156 = CARTESIAN_POINT('',(5.712993866716,-36.31140873385,
    38.967800567377));
#1157 = CARTESIAN_POINT('',(5.094636924674,-36.40513204681,
    39.193311312212));
#1158 = CARTESIAN_POINT('',(4.455169602255,-36.48845285399,
    39.39102571061));
#1159 = CARTESIAN_POINT('',(3.796673409712,-36.55963645032,
    39.55825323524));
#1160 = CARTESIAN_POINT('',(2.616529458672,-36.66023821578,
    39.79299846239));
#1161 = CARTESIAN_POINT('',(2.102595899472,-36.69563363058,
    39.874959596299));
#1162 = CARTESIAN_POINT('',(1.581768675126,-36.72268041087,
    39.937252526129));
#1163 = CARTESIAN_POINT('',(1.056239423611,-36.74088910298,
    39.979072191065));
#1164 = CARTESIAN_POINT('',(0.528237457325,-36.75,40.));
#1165 = CARTESIAN_POINT('',(-0.773396968361,-36.75,40.));
#1166 = CARTESIAN_POINT('',(-1.545376570197,-36.73046880077,
    39.955139178214));
#1167 = CARTESIAN_POINT('',(-2.309585840525,-36.69154065129,
    39.865726544573));
#1168 = CARTESIAN_POINT('',(-3.059731270736,-36.63434103531,
    39.733580503261));
#1169 = CARTESIAN_POINT('',(-3.789757426812,-36.56095937599,
    39.562011472369));
#1170 = CARTESIAN_POINT('',(-4.934126034036,-36.41996068367,
    39.22710364478));
#1171 = CARTESIAN_POINT('',(-5.364697412468,-36.3604402726,
    39.084660866106));
#1172 = CARTESIAN_POINT('',(-5.785240575709,-36.29616857196,
    38.929435171952));
#1173 = CARTESIAN_POINT('',(-6.195315069218,-36.22771164203,
    38.762305402726));
#1174 = CARTESIAN_POINT('',(-6.594530824335,-36.15564768015,
    38.584174310682));
#1175 = CARTESIAN_POINT('',(-7.460957368607,-35.98797108462,
    38.163927273831));
#1176 = CARTESIAN_POINT('',(-7.922447209851,-35.89076325809,
    37.916522413385));
#1177 = CARTESIAN_POINT('',(-8.367036754669,-35.7898850453,
    37.655162653603));
#1178 = CARTESIAN_POINT('',(-8.794805638923,-35.68623070811,
    37.381133644211));
#1179 = CARTESIAN_POINT('',(-9.205892515538,-35.58062897116,
    37.095604386162));
#1180 = CARTESIAN_POINT('',(-9.91533492426,-35.38862837902,
    36.563479812395));
#1181 = CARTESIAN_POINT('',(-10.21973512174,-35.3026479899,
    36.320639911405));
#1182 = CARTESIAN_POINT('',(-10.51385167995,-35.21626056087,
    36.07159165943));
#1183 = CARTESIAN_POINT('',(-10.79784436479,-35.12980427543,
    35.816766715888));
#1184 = CARTESIAN_POINT('',(-11.07187557444,-35.04359047535,
    35.55654650742));
#1185 = CARTESIAN_POINT('',(-12.27925780385,-34.65206190782,
    34.344368608233));
#1186 = CARTESIAN_POINT('',(-13.09886512957,-34.35253367455,
    33.331681255752));
#1187 = CARTESIAN_POINT('',(-13.8003959191,-34.07280345795,
    32.269319274537));
#1188 = CARTESIAN_POINT('',(-14.38894541303,-33.82292099531,
    31.167948823788));
#1189 = CARTESIAN_POINT('',(-14.86800386165,-33.61057856358,
    30.035109908972));
#1190 = CARTESIAN_POINT('',(-15.49280502264,-33.32586704535,
    28.082601254252));
#1191 = CARTESIAN_POINT('',(-15.69578867651,-33.23057467025,
    27.277336285584));
#1192 = CARTESIAN_POINT('',(-15.84790085054,-33.15773038199,
    26.463669346187));
#1193 = CARTESIAN_POINT('',(-15.94928509427,-33.10869943513,
    25.64442867782));
#1194 = CARTESIAN_POINT('',(-16.,-33.08417295324,24.822313272499));
#1195 = CARTESIAN_POINT('',(-16.,-33.08417295324,23.174031912127));
#1196 = CARTESIAN_POINT('',(-15.9488332828,-33.10891793775,
    22.348266053592));
#1197 = CARTESIAN_POINT('',(-15.84654662703,-33.15838530507,
    21.525413445038));
#1198 = CARTESIAN_POINT('',(-15.69308009544,-33.231871705,
    20.708207717434));
#1199 = CARTESIAN_POINT('',(-15.48828678401,-33.32798790352,
    19.89951469417));
#1200 = CARTESIAN_POINT('',(-14.94329615143,-33.57619753635,
    18.204527539676));
#1201 = CARTESIAN_POINT('',(-14.58935833434,-33.73378343188,
    17.321709331313));
#1202 = CARTESIAN_POINT('',(-14.16959023457,-33.91474399062,
    16.456962705665));
#1203 = CARTESIAN_POINT('',(-13.68267450035,-34.11562235306,
    15.613852665192));
#1204 = CARTESIAN_POINT('',(-13.12679567783,-34.33211703336,
    14.796954692348));
#1205 = CARTESIAN_POINT('',(-12.09024979762,-34.70703175695,
    13.499697540677));
#1206 = CARTESIAN_POINT('',(-11.65020102649,-34.85960850133,
    13.000690743571));
#1207 = CARTESIAN_POINT('',(-11.17882373585,-35.01522044313,
    12.51668572956));
#1208 = CARTESIAN_POINT('',(-10.67515737929,-35.17226185979,
    12.049502211133));
#1209 = CARTESIAN_POINT('',(-10.13822172213,-35.32886700727,
    11.60144565563));
#1210 = CARTESIAN_POINT('',(-9.16273175475,-35.59188466544,
    10.873733704953));
#1211 = CARTESIAN_POINT('',(-8.741122149581,-35.69962952481,
    10.583029506123));
#1212 = CARTESIAN_POINT('',(-8.302076747529,-35.80527742386,
    10.304420828429));
#1213 = CARTESIAN_POINT('',(-7.845458205201,-35.90793758315,
    10.039167423894));
#1214 = CARTESIAN_POINT('',(-7.371195259282,-36.00664860429,
    9.788654760106));
#1215 = CARTESIAN_POINT('',(-6.308400431445,-36.20917462678,
    9.282530662252));
#1216 = CARTESIAN_POINT('',(-5.712993860097,-36.31140873478,
    9.032199430329));
#1217 = CARTESIAN_POINT('',(-5.094636924928,-36.40513204698,
    8.806688687331));
#1218 = CARTESIAN_POINT('',(-4.455169609002,-36.48845285313,
    8.608974291469));
#1219 = CARTESIAN_POINT('',(-3.796673405253,-36.5596364507,
    8.441746763873));
#1220 = CARTESIAN_POINT('',(-2.616529458682,-36.66023821578,
    8.207001537612));
#1221 = CARTESIAN_POINT('',(-2.102595899469,-36.69563363058,8.1250404037
    ));
#1222 = CARTESIAN_POINT('',(-1.581768675116,-36.72268041087,
    8.06274747387));
#1223 = CARTESIAN_POINT('',(-1.056239423609,-36.74088910298,
    8.020927808936));
#1224 = CARTESIAN_POINT('',(-0.528237457335,-36.75,8.));
#1225 = CARTESIAN_POINT('',(0.77339696818,-36.75,8.));
#1226 = CARTESIAN_POINT('',(1.54537657024,-36.73046880078,8.044860821765
    ));
#1227 = CARTESIAN_POINT('',(2.309585840707,-36.69154065128,
    8.134273455453));
#1228 = CARTESIAN_POINT('',(3.059731270782,-36.6343410353,8.266419496774
    ));
#1229 = CARTESIAN_POINT('',(3.789757426638,-36.56095937602,8.43798852758
    ));
#1230 = CARTESIAN_POINT('',(4.934126034035,-36.41996068367,8.77289635522
    ));
#1231 = CARTESIAN_POINT('',(5.364697412468,-36.3604402726,8.915339133894
    ));
#1232 = CARTESIAN_POINT('',(5.785240575709,-36.29616857196,
    9.070564828048));
#1233 = CARTESIAN_POINT('',(6.195315069218,-36.22771164203,
    9.237694597274));
#1234 = CARTESIAN_POINT('',(6.594530824336,-36.15564768015,
    9.415825689318));
#1235 = CARTESIAN_POINT('',(7.460957368607,-35.98797108462,
    9.836072726169));
#1236 = CARTESIAN_POINT('',(7.922447209851,-35.89076325809,
    10.083477586615));
#1237 = CARTESIAN_POINT('',(8.367036754669,-35.7898850453,
    10.344837346398));
#1238 = CARTESIAN_POINT('',(8.794805638924,-35.68623070811,
    10.618866355789));
#1239 = CARTESIAN_POINT('',(9.205892515538,-35.58062897116,
    10.904395613838));
#1240 = CARTESIAN_POINT('',(9.91533492426,-35.38862837902,
    11.436520187605));
#1241 = CARTESIAN_POINT('',(10.219735121741,-35.3026479899,
    11.679360088595));
#1242 = CARTESIAN_POINT('',(10.513851679955,-35.21626056087,
    11.92840834057));
#1243 = CARTESIAN_POINT('',(10.797844364794,-35.12980427543,
    12.183233284113));
#1244 = CARTESIAN_POINT('',(11.071875574443,-35.04359047535,
    12.44345349258));
#1245 = CARTESIAN_POINT('',(12.279257803853,-34.65206190782,
    13.655631391765));
#1246 = CARTESIAN_POINT('',(13.098865129575,-34.35253367455,
    14.668318744248));
#1247 = CARTESIAN_POINT('',(13.800395919102,-34.07280345795,
    15.730680725466));
#1248 = CARTESIAN_POINT('',(14.38894541303,-33.82292099531,
    16.83205117621));
#1249 = CARTESIAN_POINT('',(14.868003861656,-33.61057856358,
    17.964890091028));
#1250 = CARTESIAN_POINT('',(15.492805022646,-33.32586704535,
    19.917398745748));
#1251 = CARTESIAN_POINT('',(15.695788676512,-33.23057467025,
    20.722663714414));
#1252 = CARTESIAN_POINT('',(15.847900850543,-33.15773038199,
    21.536330653817));
#1253 = CARTESIAN_POINT('',(15.949285094269,-33.10869943513,
    22.355571322178));
#1254 = CARTESIAN_POINT('',(16.,-33.08417295324,23.177686727501));
#1255 = CARTESIAN_POINT('',(16.,-33.08417295324,24.));
#1256 = PCURVE('',#673,#1257);
#1257 = DEFINITIONAL_REPRESENTATION('',(#1258),#1381);
#1258 = B_SPLINE_CURVE_WITH_KNOTS('',6,(#1259,#1260,#1261,#1262,#1263,
    #1264,#1265,#1266,#1267,#1268,#1269,#1270,#1271,#1272,#1273,#1274,
    #1275,#1276,#1277,#1278,#1279,#1280,#1281,#1282,#1283,#1284,#1285,
    #1286,#1287,#1288,#1289,#1290,#1291,#1292,#1293,#1294,#1295,#1296,
    #1297,#1298,#1299,#1300,#1301,#1302,#1303,#1304,#1305,#1306,#1307,
    #1308,#1309,#1310,#1311,#1312,#1313,#1314,#1315,#1316,#1317,#1318,
    #1319,#1320,#1321,#1322,#1323,#1324,#1325,#1326,#1327,#1328,#1329,
    #1330,#1331,#1332,#1333,#1334,#1335,#1336,#1337,#1338,#1339,#1340,
    #1341,#1342,#1343,#1344,#1345,#1346,#1347,#1348,#1349,#1350,#1351,
    #1352,#1353,#1354,#1355,#1356,#1357,#1358,#1359,#1360,#1361,#1362,
    #1363,#1364,#1365,#1366,#1367,#1368,#1369,#1370,#1371,#1372,#1373,
    #1374,#1375,#1376,#1377,#1378,#1379,#1380),.UNSPECIFIED.,.T.,.F.,(7,
    5,5,5,5,5,5,5,5,5,5,5,5,5,5,5,5,5,5,5,5,5,5,5,7),(0.,
    5.630987236117E-02,0.119743697069,0.161181737778,0.190521805312,
    0.224572222288,0.250034115676,0.287313091036,0.310609584006,
    0.339333230676,0.362251008056,0.444052617989,0.500092571331,
    0.556381597247,0.619791938155,0.661214636736,0.690543842145,
    0.724581652913,0.75003411992,0.787299294023,0.810587162265,
    0.839300174987,0.862209467846,0.943980793532,1.),.UNSPECIFIED.);
#1259 = CARTESIAN_POINT('',(5.16284282199,25.));
#1260 = CARTESIAN_POINT('',(5.16284282199,25.825968087869));
#1261 = CARTESIAN_POINT('',(5.161296260821,26.651733946411));
#1262 = CARTESIAN_POINT('',(5.158204548433,27.474586554965));
#1263 = CARTESIAN_POINT('',(5.153574561215,28.291792282568));
#1264 = CARTESIAN_POINT('',(5.147419130353,29.100485305826));
#1265 = CARTESIAN_POINT('',(5.13112385843,30.795472460324));
#1266 = CARTESIAN_POINT('',(5.120581807558,31.678290668686));
#1267 = CARTESIAN_POINT('',(5.108144792157,32.543037294339));
#1268 = CARTESIAN_POINT('',(5.093815419173,33.386147334807));
#1269 = CARTESIAN_POINT('',(5.077587585641,34.203045307652));
#1270 = CARTESIAN_POINT('',(5.047593976331,35.500302476339));
#1271 = CARTESIAN_POINT('',(5.034921653304,35.999309231369));
#1272 = CARTESIAN_POINT('',(5.021416551425,36.4833142683));
#1273 = CARTESIAN_POINT('',(5.007063977954,36.950497813088));
#1274 = CARTESIAN_POINT('',(4.991847887482,37.398554332392));
#1275 = CARTESIAN_POINT('',(4.96435601852,38.126266295111));
#1276 = CARTESIAN_POINT('',(4.952515975063,38.416970493849));
#1277 = CARTESIAN_POINT('',(4.940230036692,38.69557917151));
#1278 = CARTESIAN_POINT('',(4.927497205252,38.960832576103));
#1279 = CARTESIAN_POINT('',(4.91431740996,39.211345239954));
#1280 = CARTESIAN_POINT('',(4.88487742558,39.717469339621));
#1281 = CARTESIAN_POINT('',(4.868441514392,39.967800567377));
#1282 = CARTESIAN_POINT('',(4.851428432096,40.193311312212));
#1283 = CARTESIAN_POINT('',(4.833886937211,40.39102571061));
#1284 = CARTESIAN_POINT('',(4.81586891956,40.55825323524));
#1285 = CARTESIAN_POINT('',(4.783639692215,40.79299846239));
#1286 = CARTESIAN_POINT('',(4.769623832477,40.874959596299));
#1287 = CARTESIAN_POINT('',(4.755435654966,40.937252526129));
#1288 = CARTESIAN_POINT('',(4.741130186224,40.979072191065));
#1289 = CARTESIAN_POINT('',(4.726762788747,41.));
#1290 = CARTESIAN_POINT('',(4.691344164919,41.));
#1291 = CARTESIAN_POINT('',(4.67033791334,40.955139178214));
#1292 = CARTESIAN_POINT('',(4.649526345862,40.865726544573));
#1293 = CARTESIAN_POINT('',(4.6290641491,40.733580503261));
#1294 = CARTESIAN_POINT('',(4.609104396035,40.562011472369));
#1295 = CARTESIAN_POINT('',(4.577729642922,40.22710364478));
#1296 = CARTESIAN_POINT('',(4.565903292731,40.084660866106));
#1297 = CARTESIAN_POINT('',(4.554328794426,39.929435171952));
#1298 = CARTESIAN_POINT('',(4.543017404659,39.762305402726));
#1299 = CARTESIAN_POINT('',(4.531979694066,39.584174310682));
#1300 = CARTESIAN_POINT('',(4.507966024685,39.163927273831));
#1301 = CARTESIAN_POINT('',(4.495134653594,38.916522413385));
#1302 = CARTESIAN_POINT('',(4.482731605575,38.655162653603));
#1303 = CARTESIAN_POINT('',(4.470756533903,38.381133644211));
#1304 = CARTESIAN_POINT('',(4.459208266491,38.095604386162));
#1305 = CARTESIAN_POINT('',(4.439209233544,37.563479812395));
#1306 = CARTESIAN_POINT('',(4.430602673564,37.320639911405));
#1307 = CARTESIAN_POINT('',(4.422262072639,37.07159165943));
#1308 = CARTESIAN_POINT('',(4.414184758011,36.816766715888));
#1309 = CARTESIAN_POINT('',(4.406368099678,36.55654650742));
#1310 = CARTESIAN_POINT('',(4.371829924675,35.344368608233));
#1311 = CARTESIAN_POINT('',(4.348101097341,34.331681255752));
#1312 = CARTESIAN_POINT('',(4.327559493157,33.269319274537));
#1313 = CARTESIAN_POINT('',(4.310164386137,32.167948823788));
#1314 = CARTESIAN_POINT('',(4.295906364612,31.035109908972));
#1315 = CARTESIAN_POINT('',(4.27722302307,29.082601254252));
#1316 = CARTESIAN_POINT('',(4.271121682838,28.277336285584));
#1317 = CARTESIAN_POINT('',(4.266532479596,27.463669346187));
#1318 = CARTESIAN_POINT('',(4.263468043545,26.64442867782));
#1319 = CARTESIAN_POINT('',(4.26193513878,25.822313272499));
#1320 = CARTESIAN_POINT('',(4.26193513878,24.174031912127));
#1321 = CARTESIAN_POINT('',(4.263481699949,23.348266053592));
#1322 = CARTESIAN_POINT('',(4.266573412336,22.525413445038));
#1323 = CARTESIAN_POINT('',(4.271203399554,21.708207717434));
#1324 = CARTESIAN_POINT('',(4.277358830417,20.89951469417));
#1325 = CARTESIAN_POINT('',(4.293654102339,19.204527539676));
#1326 = CARTESIAN_POINT('',(4.304196153212,18.321709331313));
#1327 = CARTESIAN_POINT('',(4.316633168613,17.456962705665));
#1328 = CARTESIAN_POINT('',(4.330962541596,16.613852665192));
#1329 = CARTESIAN_POINT('',(4.347190375128,15.796954692348));
#1330 = CARTESIAN_POINT('',(4.377183984045,14.499697540677));
#1331 = CARTESIAN_POINT('',(4.389856308182,14.000690743571));
#1332 = CARTESIAN_POINT('',(4.403361409309,13.51668572956));
#1333 = CARTESIAN_POINT('',(4.417713982074,13.049502211133));
#1334 = CARTESIAN_POINT('',(4.43293007374,12.60144565563));
#1335 = CARTESIAN_POINT('',(4.460421942247,11.873733704953));
#1336 = CARTESIAN_POINT('',(4.472261985707,11.583029506123));
#1337 = CARTESIAN_POINT('',(4.484547924081,11.304420828429));
#1338 = CARTESIAN_POINT('',(4.497280755518,11.039167423894));
#1339 = CARTESIAN_POINT('',(4.510460550806,10.788654760106));
#1340 = CARTESIAN_POINT('',(4.53990053508,10.282530662252));
#1341 = CARTESIAN_POINT('',(4.55633644656,10.032199430329));
#1342 = CARTESIAN_POINT('',(4.573349528667,9.806688687331));
#1343 = CARTESIAN_POINT('',(4.590891023374,9.608974291469));
#1344 = CARTESIAN_POINT('',(4.608909041331,9.441746763873));
#1345 = CARTESIAN_POINT('',(4.641138268555,9.207001537612));
#1346 = CARTESIAN_POINT('',(4.655154128292,9.1250404037));
#1347 = CARTESIAN_POINT('',(4.669342305803,9.06274747387));
#1348 = CARTESIAN_POINT('',(4.683647774546,9.020927808936));
#1349 = CARTESIAN_POINT('',(4.698015172022,9.));
#1350 = CARTESIAN_POINT('',(4.733433795845,9.));
#1351 = CARTESIAN_POINT('',(4.754440047431,9.044860821765));
#1352 = CARTESIAN_POINT('',(4.775251614913,9.134273455453));
#1353 = CARTESIAN_POINT('',(4.795713811671,9.266419496774));
#1354 = CARTESIAN_POINT('',(4.81567356473,9.43798852758));
#1355 = CARTESIAN_POINT('',(4.847048317847,9.77289635522));
#1356 = CARTESIAN_POINT('',(4.858874668038,9.915339133894));
#1357 = CARTESIAN_POINT('',(4.870449166344,10.070564828048));
#1358 = CARTESIAN_POINT('',(4.881760556111,10.237694597274));
#1359 = CARTESIAN_POINT('',(4.892798266704,10.415825689318));
#1360 = CARTESIAN_POINT('',(4.916811936085,10.836072726169));
#1361 = CARTESIAN_POINT('',(4.929643307176,11.083477586615));
#1362 = CARTESIAN_POINT('',(4.942046355195,11.344837346398));
#1363 = CARTESIAN_POINT('',(4.954021426866,11.618866355789));
#1364 = CARTESIAN_POINT('',(4.965569694278,11.904395613838));
#1365 = CARTESIAN_POINT('',(4.985568727226,12.436520187605));
#1366 = CARTESIAN_POINT('',(4.994175287206,12.679360088595));
#1367 = CARTESIAN_POINT('',(5.00251588813,12.92840834057));
#1368 = CARTESIAN_POINT('',(5.010593202759,13.183233284113));
#1369 = CARTESIAN_POINT('',(5.018409861091,13.44345349258));
#1370 = CARTESIAN_POINT('',(5.052948036094,14.655631391765));
#1371 = CARTESIAN_POINT('',(5.076676863429,15.668318744248));
#1372 = CARTESIAN_POINT('',(5.097218467612,16.730680725466));
#1373 = CARTESIAN_POINT('',(5.114613574632,17.83205117621));
#1374 = CARTESIAN_POINT('',(5.128871596157,18.964890091028));
#1375 = CARTESIAN_POINT('',(5.147554937699,20.917398745748));
#1376 = CARTESIAN_POINT('',(5.153656277931,21.722663714414));
#1377 = CARTESIAN_POINT('',(5.158245481173,22.536330653817));
#1378 = CARTESIAN_POINT('',(5.161309917224,23.355571322178));
#1379 = CARTESIAN_POINT('',(5.16284282199,24.177686727501));
#1380 = CARTESIAN_POINT('',(5.16284282199,25.));
#1381 = ( GEOMETRIC_REPRESENTATION_CONTEXT(2) 
PARAMETRIC_REPRESENTATION_CONTEXT() REPRESENTATION_CONTEXT('2D SPACE',''
  ) );
#1382 = PCURVE('',#1383,#1388);
#1383 = CYLINDRICAL_SURFACE('',#1384,16.);
#1384 = AXIS2_PLACEMENT_3D('',#1385,#1386,#1387);
#1385 = CARTESIAN_POINT('',(0.,-14.,24.));
#1386 = DIRECTION('',(0.,-1.,1.110223024625E-16));
#1387 = DIRECTION('',(1.,0.,0.));
#1388 = DEFINITIONAL_REPRESENTATION('',(#1389),#1512);
#1389 = B_SPLINE_CURVE_WITH_KNOTS('',6,(#1390,#1391,#1392,#1393,#1394,
    #1395,#1396,#1397,#1398,#1399,#1400,#1401,#1402,#1403,#1404,#1405,
    #1406,#1407,#1408,#1409,#1410,#1411,#1412,#1413,#1414,#1415,#1416,
    #1417,#1418,#1419,#1420,#1421,#1422,#1423,#1424,#1425,#1426,#1427,
    #1428,#1429,#1430,#1431,#1432,#1433,#1434,#1435,#1436,#1437,#1438,
    #1439,#1440,#1441,#1442,#1443,#1444,#1445,#1446,#1447,#1448,#1449,
    #1450,#1451,#1452,#1453,#1454,#1455,#1456,#1457,#1458,#1459,#1460,
    #1461,#1462,#1463,#1464,#1465,#1466,#1467,#1468,#1469,#1470,#1471,
    #1472,#1473,#1474,#1475,#1476,#1477,#1478,#1479,#1480,#1481,#1482,
    #1483,#1484,#1485,#1486,#1487,#1488,#1489,#1490,#1491,#1492,#1493,
    #1494,#1495,#1496,#1497,#1498,#1499,#1500,#1501,#1502,#1503,#1504,
    #1505,#1506,#1507,#1508,#1509,#1510,#1511),.UNSPECIFIED.,.F.,.F.,(7,
    5,5,5,5,5,5,5,5,5,5,5,5,5,5,5,5,5,5,5,5,5,5,5,7),(0.,
    5.630987236117E-02,0.119743697069,0.161181737778,0.190521805312,
    0.224572222288,0.250034115676,0.287313091036,0.310609584006,
    0.339333230676,0.362251008056,0.444052617989,0.500092571331,
    0.556381597247,0.619791938155,0.661214636736,0.690543842145,
    0.724581652913,0.75003411992,0.787299294023,0.810587162265,
    0.839300174987,0.862209467846,0.943980793532,1.),.UNSPECIFIED.);
#1390 = CARTESIAN_POINT('',(0.,19.084172953242));
#1391 = CARTESIAN_POINT('',(5.162300549183E-02,19.084172953242));
#1392 = CARTESIAN_POINT('',(0.103233372488,19.108917937755));
#1393 = CARTESIAN_POINT('',(0.154909285624,19.15838530507));
#1394 = CARTESIAN_POINT('',(0.206726939313,19.231871705004));
#1395 = CARTESIAN_POINT('',(0.258762104225,19.327987903522));
#1396 = CARTESIAN_POINT('',(0.370040124634,19.576197536352));
#1397 = CARTESIAN_POINT('',(0.429339071149,19.733783431885));
#1398 = CARTESIAN_POINT('',(0.489190681865,19.91474399062));
#1399 = CARTESIAN_POINT('',(0.549799452855,20.115622353067));
#1400 = CARTESIAN_POINT('',(0.611373855074,20.332117033363));
#1401 = CARTESIAN_POINT('',(0.715155919993,20.707031761871));
#1402 = CARTESIAN_POINT('',(0.756689358217,20.859608493375));
#1403 = CARTESIAN_POINT('',(0.798836935057,21.015220442935));
#1404 = CARTESIAN_POINT('',(0.841686767884,21.172261867726));
#1405 = CARTESIAN_POINT('',(0.885329774622,21.32886700295));
#1406 = CARTESIAN_POINT('',(0.961393723064,21.591884665466));
#1407 = CARTESIAN_POINT('',(0.993378763905,21.699629524806));
#1408 = CARTESIAN_POINT('',(1.025841725922,21.805277423844));
#1409 = CARTESIAN_POINT('',(1.058806835579,21.907937583149));
#1410 = CARTESIAN_POINT('',(1.092300452207,22.006648604318));
#1411 = CARTESIAN_POINT('',(1.165872654691,22.209174627537));
#1412 = CARTESIAN_POINT('',(1.206197258391,22.311408733851));
#1413 = CARTESIAN_POINT('',(1.247261143344,22.405132046813));
#1414 = CARTESIAN_POINT('',(1.289013964708,22.488452853996));
#1415 = CARTESIAN_POINT('',(1.331418238379,22.559636450326));
#1416 = CARTESIAN_POINT('',(1.406622259497,22.660238215785));
#1417 = CARTESIAN_POINT('',(1.43912527835,22.695633630586));
#1418 = CARTESIAN_POINT('',(1.471871012062,22.722680410878));
#1419 = CARTESIAN_POINT('',(1.504781361633,22.740889102981));
#1420 = CARTESIAN_POINT('',(1.537781485712,22.75));
#1421 = CARTESIAN_POINT('',(1.619133637317,22.75));
#1422 = CARTESIAN_POINT('',(1.667382358666,22.730468800774));
#1423 = CARTESIAN_POINT('',(1.715348750514,22.691540651296));
#1424 = CARTESIAN_POINT('',(1.762838922731,22.634341035315));
#1425 = CARTESIAN_POINT('',(1.809640661869,22.560959375998));
#1426 = CARTESIAN_POINT('',(1.884163696327,22.419960683678));
#1427 = CARTESIAN_POINT('',(1.912491643152,22.360440272605));
#1428 = CARTESIAN_POINT('',(1.940484819703,22.296168571961));
#1429 = CARTESIAN_POINT('',(1.968138875078,22.227711642036));
#1430 = CARTESIAN_POINT('',(1.995447105533,22.155647680152));
#1431 = CARTESIAN_POINT('',(2.055632448453,21.987971084628));
#1432 = CARTESIAN_POINT('',(2.088332115009,21.890763258095));
#1433 = CARTESIAN_POINT('',(2.12052804429,21.789885045309));
#1434 = CARTESIAN_POINT('',(2.152245263086,21.686230708114));
#1435 = CARTESIAN_POINT('',(2.183506896861,21.580628971165));
#1436 = CARTESIAN_POINT('',(2.238933688855,21.388628379028));
#1437 = CARTESIAN_POINT('',(2.263260224983,21.302647989903));
#1438 = CARTESIAN_POINT('',(2.287332199729,21.216260560873));
#1439 = CARTESIAN_POINT('',(2.311165272816,21.129804275435));
#1440 = CARTESIAN_POINT('',(2.334774814064,21.043590475356));
#1441 = CARTESIAN_POINT('',(2.441705485003,20.652061907827));
#1442 = CARTESIAN_POINT('',(2.522699257995,20.352533674558));
#1443 = CARTESIAN_POINT('',(2.601732166073,20.072803457957));
#1444 = CARTESIAN_POINT('',(2.679294101548,19.822920995315));
#1445 = CARTESIAN_POINT('',(2.755853601498,19.610578563587));
#1446 = CARTESIAN_POINT('',(2.883981140155,19.32586704535));
#1447 = CARTESIAN_POINT('',(2.935782286957,19.230574670256));
#1448 = CARTESIAN_POINT('',(2.987368966004,19.157730381994));
#1449 = CARTESIAN_POINT('',(3.038815860434,19.10869943513));
#1450 = CARTESIAN_POINT('',(3.090198074059,19.084172953242));
#1451 = CARTESIAN_POINT('',(3.193215659082,19.084172953242));
#1452 = CARTESIAN_POINT('',(3.244826026078,19.108917937755));
#1453 = CARTESIAN_POINT('',(3.296501939213,19.15838530507));
#1454 = CARTESIAN_POINT('',(3.348319592902,19.231871705004));
#1455 = CARTESIAN_POINT('',(3.400354757815,19.327987903523));
#1456 = CARTESIAN_POINT('',(3.511632778224,19.576197536352));
#1457 = CARTESIAN_POINT('',(3.570931724739,19.733783431885));
#1458 = CARTESIAN_POINT('',(3.630783335455,19.914743990619));
#1459 = CARTESIAN_POINT('',(3.691392106445,20.115622353068));
#1460 = CARTESIAN_POINT('',(3.752966508664,20.332117033363));
#1461 = CARTESIAN_POINT('',(3.856748572221,20.707031756953));
#1462 = CARTESIAN_POINT('',(3.898282014038,20.85960850133));
#1463 = CARTESIAN_POINT('',(3.940429588675,21.01522044313));
#1464 = CARTESIAN_POINT('',(3.983279419236,21.172261859796));
#1465 = CARTESIAN_POINT('',(4.026922429464,21.328867007279));
#1466 = CARTESIAN_POINT('',(4.102986376647,21.591884665443));
#1467 = CARTESIAN_POINT('',(4.134971417497,21.699629524815));
#1468 = CARTESIAN_POINT('',(4.167434379519,21.805277423867));
#1469 = CARTESIAN_POINT('',(4.200399489171,21.907937583152));
#1470 = CARTESIAN_POINT('',(4.233893105788,22.006648604295));
#1471 = CARTESIAN_POINT('',(4.307465308008,22.209174626787));
#1472 = CARTESIAN_POINT('',(4.347789912421,22.311408734789));
#1473 = CARTESIAN_POINT('',(4.388853796927,22.405132046984));
#1474 = CARTESIAN_POINT('',(4.430606617854,22.488452853138));
#1475 = CARTESIAN_POINT('',(4.473010892252,22.559636450706));
#1476 = CARTESIAN_POINT('',(4.548214913086,22.660238215784));
#1477 = CARTESIAN_POINT('',(4.58071793194,22.695633630586));
#1478 = CARTESIAN_POINT('',(4.613463665652,22.722680410878));
#1479 = CARTESIAN_POINT('',(4.646374015223,22.740889102981));
#1480 = CARTESIAN_POINT('',(4.679374139301,22.75));
#1481 = CARTESIAN_POINT('',(4.760726290896,22.75));
#1482 = CARTESIAN_POINT('',(4.808975012258,22.730468800783));
#1483 = CARTESIAN_POINT('',(4.856941404115,22.691540651285));
#1484 = CARTESIAN_POINT('',(4.904431576324,22.634341035301));
#1485 = CARTESIAN_POINT('',(4.951233315447,22.56095937602));
#1486 = CARTESIAN_POINT('',(5.025756349916,22.419960683678));
#1487 = CARTESIAN_POINT('',(5.054084296742,22.360440272605));
#1488 = CARTESIAN_POINT('',(5.082077473293,22.296168571961));
#1489 = CARTESIAN_POINT('',(5.109731528667,22.227711642036));
#1490 = CARTESIAN_POINT('',(5.137039759123,22.155647680152));
#1491 = CARTESIAN_POINT('',(5.197225102042,21.987971084628));
#1492 = CARTESIAN_POINT('',(5.229924768599,21.890763258095));
#1493 = CARTESIAN_POINT('',(5.26212069788,21.789885045309));
#1494 = CARTESIAN_POINT('',(5.293837916676,21.686230708114));
#1495 = CARTESIAN_POINT('',(5.325099550451,21.580628971165));
#1496 = CARTESIAN_POINT('',(5.380526342444,21.388628379028));
#1497 = CARTESIAN_POINT('',(5.404852878573,21.302647989903));
#1498 = CARTESIAN_POINT('',(5.428924853318,21.216260560873));
#1499 = CARTESIAN_POINT('',(5.452757926406,21.129804275435));
#1500 = CARTESIAN_POINT('',(5.476367467654,21.043590475356));
#1501 = CARTESIAN_POINT('',(5.583298138592,20.652061907827));
#1502 = CARTESIAN_POINT('',(5.664291911584,20.352533674558));
#1503 = CARTESIAN_POINT('',(5.743324819663,20.072803457956));
#1504 = CARTESIAN_POINT('',(5.820886755138,19.822920995315));
#1505 = CARTESIAN_POINT('',(5.897446255088,19.610578563587));
#1506 = CARTESIAN_POINT('',(6.025573793745,19.32586704535));
#1507 = CARTESIAN_POINT('',(6.077374940546,19.230574670257));
#1508 = CARTESIAN_POINT('',(6.128961619594,19.157730381994));
#1509 = CARTESIAN_POINT('',(6.180408514023,19.10869943513));
#1510 = CARTESIAN_POINT('',(6.231790727648,19.084172953242));
#1511 = CARTESIAN_POINT('',(6.28318530718,19.084172953242));
#1512 = ( GEOMETRIC_REPRESENTATION_CONTEXT(2) 
PARAMETRIC_REPRESENTATION_CONTEXT() REPRESENTATION_CONTEXT('2D SPACE',''
  ) );
#1513 = ADVANCED_FACE('',(#1514),#728,.F.);
#1514 = FACE_BOUND('',#1515,.F.);
#1515 = EDGE_LOOP('',(#1516));
#1516 = ORIENTED_EDGE('',*,*,#713,.T.);
#1517 = ADVANCED_FACE('',(#1518),#996,.T.);
#1518 = FACE_BOUND('',#1519,.T.);
#1519 = EDGE_LOOP('',(#1520,#1543,#1570,#1571));
#1520 = ORIENTED_EDGE('',*,*,#1521,.T.);
#1521 = EDGE_CURVE('',#743,#1522,#1524,.T.);
#1522 = VERTEX_POINT('',#1523);
#1523 = CARTESIAN_POINT('',(16.,14.,24.));
#1524 = SEAM_CURVE('',#1525,(#1529,#1536),.PCURVE_S1.);
#1525 = LINE('',#1526,#1527);
#1526 = CARTESIAN_POINT('',(16.,38.,24.));
#1527 = VECTOR('',#1528,1.);
#1528 = DIRECTION('',(0.,-1.,1.110223024625E-16));
#1529 = PCURVE('',#996,#1530);
#1530 = DEFINITIONAL_REPRESENTATION('',(#1531),#1535);
#1531 = LINE('',#1532,#1533);
#1532 = CARTESIAN_POINT('',(6.28318530718,-0.));
#1533 = VECTOR('',#1534,1.);
#1534 = DIRECTION('',(0.,1.));
#1535 = ( GEOMETRIC_REPRESENTATION_CONTEXT(2) 
PARAMETRIC_REPRESENTATION_CONTEXT() REPRESENTATION_CONTEXT('2D SPACE',''
  ) );
#1536 = PCURVE('',#996,#1537);
#1537 = DEFINITIONAL_REPRESENTATION('',(#1538),#1542);
#1538 = LINE('',#1539,#1540);
#1539 = CARTESIAN_POINT('',(0.,-0.));
#1540 = VECTOR('',#1541,1.);
#1541 = DIRECTION('',(0.,1.));
#1542 = ( GEOMETRIC_REPRESENTATION_CONTEXT(2) 
PARAMETRIC_REPRESENTATION_CONTEXT() REPRESENTATION_CONTEXT('2D SPACE',''
  ) );
#1543 = ORIENTED_EDGE('',*,*,#1544,.F.);
#1544 = EDGE_CURVE('',#1522,#1522,#1545,.T.);
#1545 = SURFACE_CURVE('',#1546,(#1551,#1558),.PCURVE_S1.);
#1546 = CIRCLE('',#1547,16.);
#1547 = AXIS2_PLACEMENT_3D('',#1548,#1549,#1550);
#1548 = CARTESIAN_POINT('',(0.,14.,24.));
#1549 = DIRECTION('',(0.,-1.,1.110223024625E-16));
#1550 = DIRECTION('',(1.,0.,0.));
#1551 = PCURVE('',#996,#1552);
#1552 = DEFINITIONAL_REPRESENTATION('',(#1553),#1557);
#1553 = LINE('',#1554,#1555);
#1554 = CARTESIAN_POINT('',(0.,24.));
#1555 = VECTOR('',#1556,1.);
#1556 = DIRECTION('',(1.,0.));
#1557 = ( GEOMETRIC_REPRESENTATION_CONTEXT(2) 
PARAMETRIC_REPRESENTATION_CONTEXT() REPRESENTATION_CONTEXT('2D SPACE',''
  ) );
#1558 = PCURVE('',#1559,#1564);
#1559 = PLANE('',#1560);
#1560 = AXIS2_PLACEMENT_3D('',#1561,#1562,#1563);
#1561 = CARTESIAN_POINT('',(0.,14.,24.));
#1562 = DIRECTION('',(0.,-1.,1.110223024625E-16));
#1563 = DIRECTION('',(1.,0.,0.));
#1564 = DEFINITIONAL_REPRESENTATION('',(#1565),#1569);
#1565 = CIRCLE('',#1566,16.);
#1566 = AXIS2_PLACEMENT_2D('',#1567,#1568);
#1567 = CARTESIAN_POINT('',(0.,0.));
#1568 = DIRECTION('',(1.,0.));
#1569 = ( GEOMETRIC_REPRESENTATION_CONTEXT(2) 
PARAMETRIC_REPRESENTATION_CONTEXT() REPRESENTATION_CONTEXT('2D SPACE',''
  ) );
#1570 = ORIENTED_EDGE('',*,*,#1521,.F.);
#1571 = ORIENTED_EDGE('',*,*,#742,.T.);
#1572 = ADVANCED_FACE('',(#1573),#1383,.T.);
#1573 = FACE_BOUND('',#1574,.T.);
#1574 = EDGE_LOOP('',(#1575,#1576,#1599,#1626));
#1575 = ORIENTED_EDGE('',*,*,#1129,.F.);
#1576 = ORIENTED_EDGE('',*,*,#1577,.F.);
#1577 = EDGE_CURVE('',#1578,#1130,#1580,.T.);
#1578 = VERTEX_POINT('',#1579);
#1579 = CARTESIAN_POINT('',(16.,-14.,24.));
#1580 = SEAM_CURVE('',#1581,(#1585,#1592),.PCURVE_S1.);
#1581 = LINE('',#1582,#1583);
#1582 = CARTESIAN_POINT('',(16.,-14.,24.));
#1583 = VECTOR('',#1584,1.);
#1584 = DIRECTION('',(0.,-1.,1.110223024625E-16));
#1585 = PCURVE('',#1383,#1586);
#1586 = DEFINITIONAL_REPRESENTATION('',(#1587),#1591);
#1587 = LINE('',#1588,#1589);
#1588 = CARTESIAN_POINT('',(6.28318530718,-0.));
#1589 = VECTOR('',#1590,1.);
#1590 = DIRECTION('',(0.,1.));
#1591 = ( GEOMETRIC_REPRESENTATION_CONTEXT(2) 
PARAMETRIC_REPRESENTATION_CONTEXT() REPRESENTATION_CONTEXT('2D SPACE',''
  ) );
#1592 = PCURVE('',#1383,#1593);
#1593 = DEFINITIONAL_REPRESENTATION('',(#1594),#1598);
#1594 = LINE('',#1595,#1596);
#1595 = CARTESIAN_POINT('',(0.,-0.));
#1596 = VECTOR('',#1597,1.);
#1597 = DIRECTION('',(0.,1.));
#1598 = ( GEOMETRIC_REPRESENTATION_CONTEXT(2) 
PARAMETRIC_REPRESENTATION_CONTEXT() REPRESENTATION_CONTEXT('2D SPACE',''
  ) );
#1599 = ORIENTED_EDGE('',*,*,#1600,.T.);
#1600 = EDGE_CURVE('',#1578,#1578,#1601,.T.);
#1601 = SURFACE_CURVE('',#1602,(#1607,#1614),.PCURVE_S1.);
#1602 = CIRCLE('',#1603,16.);
#1603 = AXIS2_PLACEMENT_3D('',#1604,#1605,#1606);
#1604 = CARTESIAN_POINT('',(0.,-14.,24.));
#1605 = DIRECTION('',(0.,-1.,1.110223024625E-16));
#1606 = DIRECTION('',(1.,0.,0.));
#1607 = PCURVE('',#1383,#1608);
#1608 = DEFINITIONAL_REPRESENTATION('',(#1609),#1613);
#1609 = LINE('',#1610,#1611);
#1610 = CARTESIAN_POINT('',(0.,0.));
#1611 = VECTOR('',#1612,1.);
#1612 = DIRECTION('',(1.,0.));
#1613 = ( GEOMETRIC_REPRESENTATION_CONTEXT(2) 
PARAMETRIC_REPRESENTATION_CONTEXT() REPRESENTATION_CONTEXT('2D SPACE',''
  ) );
#1614 = PCURVE('',#1615,#1620);
#1615 = PLANE('',#1616);
#1616 = AXIS2_PLACEMENT_3D('',#1617,#1618,#1619);
#1617 = CARTESIAN_POINT('',(0.,-14.,24.));
#1618 = DIRECTION('',(0.,-1.,1.110223024625E-16));
#1619 = DIRECTION('',(1.,0.,0.));
#1620 = DEFINITIONAL_REPRESENTATION('',(#1621),#1625);
#1621 = CIRCLE('',#1622,16.);
#1622 = AXIS2_PLACEMENT_2D('',#1623,#1624);
#1623 = CARTESIAN_POINT('',(0.,0.));
#1624 = DIRECTION('',(1.,0.));
#1625 = ( GEOMETRIC_REPRESENTATION_CONTEXT(2) 
PARAMETRIC_REPRESENTATION_CONTEXT() REPRESENTATION_CONTEXT('2D SPACE',''
  ) );
#1626 = ORIENTED_EDGE('',*,*,#1577,.T.);
#1627 = ADVANCED_FACE('',(#1628),#1559,.T.);
#1628 = FACE_BOUND('',#1629,.T.);
#1629 = EDGE_LOOP('',(#1630));
#1630 = ORIENTED_EDGE('',*,*,#1544,.T.);
#1631 = ADVANCED_FACE('',(#1632),#1615,.F.);
#1632 = FACE_BOUND('',#1633,.T.);
#1633 = EDGE_LOOP('',(#1634));
#1634 = ORIENTED_EDGE('',*,*,#1600,.F.);
#1635 = ( GEOMETRIC_REPRESENTATION_CONTEXT(3) 
GLOBAL_UNCERTAINTY_ASSIGNED_CONTEXT((#1639)) 
GLOBAL_UNIT_ASSIGNED_CONTEXT((#1636,#1637,#1638)) REPRESENTATION_CONTEXT
('Context #1','3D Context with UNIT and UNCERTAINTY') );
#1636 = ( LENGTH_UNIT() NAMED_UNIT(*) SI_UNIT(.MILLI.,.METRE.) );
#1637 = ( NAMED_UNIT(*) PLANE_ANGLE_UNIT() SI_UNIT($,.RADIAN.) );
#1638 = ( NAMED_UNIT(*) SI_UNIT($,.STERADIAN.) SOLID_ANGLE_UNIT() );
#1639 = UNCERTAINTY_MEASURE_WITH_UNIT(LENGTH_MEASURE(1.E-07),#1636,
  'distance_accuracy_value','confusion accuracy');
#1640 = PRODUCT_RELATED_PRODUCT_CATEGORY('part',$,(#7));
ENDSEC;
END-ISO-10303-21;
