ISO-10303-21;
HEADER;
FILE_DESCRIPTION(('Open CASCADE Model'),'2;1');
FILE_NAME('Open CASCADE Shape Model','2026-07-28T13:38:43',('Author'),(
    'Open CASCADE'),'Open CASCADE STEP processor 7.9','build123d',
  'Unknown');
FILE_SCHEMA(('AUTOMOTIVE_DESIGN { 1 0 10303 214 1 1 1 1 }'));
ENDSEC;
DATA;
#1 = APPLICATION_PROTOCOL_DEFINITION('international standard',
  'automotive_design',2000,#2);
#2 = APPLICATION_CONTEXT(
  'core data for automotive mechanical design processes');
#3 = SHAPE_DEFINITION_REPRESENTATION(#4,#10);
#4 = PRODUCT_DEFINITION_SHAPE('','',#5);
#5 = PRODUCT_DEFINITION('design','',#6,#9);
#6 = PRODUCT_DEFINITION_FORMATION('','',#7);
#7 = PRODUCT('COMPOUND','COMPOUND','',(#8));
#8 = PRODUCT_CONTEXT('',#2,'mechanical');
#9 = PRODUCT_DEFINITION_CONTEXT('part definition',#2,'design');
#10 = ADVANCED_BREP_SHAPE_REPRESENTATION('',(#11,#15),#1312);
#11 = AXIS2_PLACEMENT_3D('',#12,#13,#14);
#12 = CARTESIAN_POINT('',(0.,0.,0.));
#13 = DIRECTION('',(0.,0.,1.));
#14 = DIRECTION('',(1.,0.,-0.));
#15 = MANIFOLD_SOLID_BREP('',#16);
#16 = CLOSED_SHELL('',(#17,#105,#499,#534,#1119,#1176,#1255,#1305));
#17 = ADVANCED_FACE('',(#18),#32,.T.);
#18 = FACE_BOUND('',#19,.T.);
#19 = EDGE_LOOP('',(#20,#50,#77,#78));
#20 = ORIENTED_EDGE('',*,*,#21,.T.);
#21 = EDGE_CURVE('',#22,#24,#26,.T.);
#22 = VERTEX_POINT('',#23);
#23 = CARTESIAN_POINT('',(35.,0.,18.5));
#24 = VERTEX_POINT('',#25);
#25 = CARTESIAN_POINT('',(35.,-8.572527594031E-15,25.));
#26 = SEAM_CURVE('',#27,(#31,#43),.PCURVE_S1.);
#27 = LINE('',#28,#29);
#28 = CARTESIAN_POINT('',(35.,-8.572527594031E-15,0.));
#29 = VECTOR('',#30,1.);
#30 = DIRECTION('',(0.,0.,1.));
#31 = PCURVE('',#32,#37);
#32 = CYLINDRICAL_SURFACE('',#33,35.);
#33 = AXIS2_PLACEMENT_3D('',#34,#35,#36);
#34 = CARTESIAN_POINT('',(0.,0.,0.));
#35 = DIRECTION('',(0.,0.,1.));
#36 = DIRECTION('',(1.,0.,-0.));
#37 = DEFINITIONAL_REPRESENTATION('',(#38),#42);
#38 = LINE('',#39,#40);
#39 = CARTESIAN_POINT('',(6.28318530718,-0.));
#40 = VECTOR('',#41,1.);
#41 = DIRECTION('',(0.,1.));
#42 = ( GEOMETRIC_REPRESENTATION_CONTEXT(2) 
PARAMETRIC_REPRESENTATION_CONTEXT() REPRESENTATION_CONTEXT('2D SPACE',''
  ) );
#43 = PCURVE('',#32,#44);
#44 = DEFINITIONAL_REPRESENTATION('',(#45),#49);
#45 = LINE('',#46,#47);
#46 = CARTESIAN_POINT('',(0.,-0.));
#47 = VECTOR('',#48,1.);
#48 = DIRECTION('',(0.,1.));
#49 = ( GEOMETRIC_REPRESENTATION_CONTEXT(2) 
PARAMETRIC_REPRESENTATION_CONTEXT() REPRESENTATION_CONTEXT('2D SPACE',''
  ) );
#50 = ORIENTED_EDGE('',*,*,#51,.F.);
#51 = EDGE_CURVE('',#24,#24,#52,.T.);
#52 = SURFACE_CURVE('',#53,(#58,#65),.PCURVE_S1.);
#53 = CIRCLE('',#54,35.);
#54 = AXIS2_PLACEMENT_3D('',#55,#56,#57);
#55 = CARTESIAN_POINT('',(0.,0.,25.));
#56 = DIRECTION('',(0.,0.,1.));
#57 = DIRECTION('',(1.,0.,-0.));
#58 = PCURVE('',#32,#59);
#59 = DEFINITIONAL_REPRESENTATION('',(#60),#64);
#60 = LINE('',#61,#62);
#61 = CARTESIAN_POINT('',(0.,25.));
#62 = VECTOR('',#63,1.);
#63 = DIRECTION('',(1.,0.));
#64 = ( GEOMETRIC_REPRESENTATION_CONTEXT(2) 
PARAMETRIC_REPRESENTATION_CONTEXT() REPRESENTATION_CONTEXT('2D SPACE',''
  ) );
#65 = PCURVE('',#66,#71);
#66 = PLANE('',#67);
#67 = AXIS2_PLACEMENT_3D('',#68,#69,#70);
#68 = CARTESIAN_POINT('',(0.,0.,25.));
#69 = DIRECTION('',(0.,0.,1.));
#70 = DIRECTION('',(1.,0.,-0.));
#71 = DEFINITIONAL_REPRESENTATION('',(#72),#76);
#72 = CIRCLE('',#73,35.);
#73 = AXIS2_PLACEMENT_2D('',#74,#75);
#74 = CARTESIAN_POINT('',(0.,0.));
#75 = DIRECTION('',(1.,0.));
#76 = ( GEOMETRIC_REPRESENTATION_CONTEXT(2) 
PARAMETRIC_REPRESENTATION_CONTEXT() REPRESENTATION_CONTEXT('2D SPACE',''
  ) );
#77 = ORIENTED_EDGE('',*,*,#21,.F.);
#78 = ORIENTED_EDGE('',*,*,#79,.T.);
#79 = EDGE_CURVE('',#22,#22,#80,.T.);
#80 = SURFACE_CURVE('',#81,(#86,#93),.PCURVE_S1.);
#81 = CIRCLE('',#82,35.);
#82 = AXIS2_PLACEMENT_3D('',#83,#84,#85);
#83 = CARTESIAN_POINT('',(0.,0.,18.5));
#84 = DIRECTION('',(0.,0.,1.));
#85 = DIRECTION('',(1.,0.,-0.));
#86 = PCURVE('',#32,#87);
#87 = DEFINITIONAL_REPRESENTATION('',(#88),#92);
#88 = LINE('',#89,#90);
#89 = CARTESIAN_POINT('',(0.,18.5));
#90 = VECTOR('',#91,1.);
#91 = DIRECTION('',(1.,0.));
#92 = ( GEOMETRIC_REPRESENTATION_CONTEXT(2) 
PARAMETRIC_REPRESENTATION_CONTEXT() REPRESENTATION_CONTEXT('2D SPACE',''
  ) );
#93 = PCURVE('',#94,#99);
#94 = CONICAL_SURFACE('',#95,35.,1.030376826524);
#95 = AXIS2_PLACEMENT_3D('',#96,#97,#98);
#96 = CARTESIAN_POINT('',(0.,0.,18.5));
#97 = DIRECTION('',(0.,0.,1.));
#98 = DIRECTION('',(1.,0.,0.));
#99 = DEFINITIONAL_REPRESENTATION('',(#100),#104);
#100 = LINE('',#101,#102);
#101 = CARTESIAN_POINT('',(0.,-0.));
#102 = VECTOR('',#103,1.);
#103 = DIRECTION('',(1.,-0.));
#104 = ( GEOMETRIC_REPRESENTATION_CONTEXT(2) 
PARAMETRIC_REPRESENTATION_CONTEXT() REPRESENTATION_CONTEXT('2D SPACE',''
  ) );
#105 = ADVANCED_FACE('',(#106),#94,.T.);
#106 = FACE_BOUND('',#107,.F.);
#107 = EDGE_LOOP('',(#108,#131,#132,#133,#326,#355));
#108 = ORIENTED_EDGE('',*,*,#109,.F.);
#109 = EDGE_CURVE('',#22,#110,#112,.T.);
#110 = VERTEX_POINT('',#111);
#111 = CARTESIAN_POINT('',(29.166666666667,0.,15.));
#112 = SEAM_CURVE('',#113,(#117,#124),.PCURVE_S1.);
#113 = LINE('',#114,#115);
#114 = CARTESIAN_POINT('',(35.,0.,18.5));
#115 = VECTOR('',#116,1.);
#116 = DIRECTION('',(-0.857492925713,-0.,-0.514495755428));
#117 = PCURVE('',#94,#118);
#118 = DEFINITIONAL_REPRESENTATION('',(#119),#123);
#119 = LINE('',#120,#121);
#120 = CARTESIAN_POINT('',(0.,-0.));
#121 = VECTOR('',#122,1.);
#122 = DIRECTION('',(0.,-1.));
#123 = ( GEOMETRIC_REPRESENTATION_CONTEXT(2) 
PARAMETRIC_REPRESENTATION_CONTEXT() REPRESENTATION_CONTEXT('2D SPACE',''
  ) );
#124 = PCURVE('',#94,#125);
#125 = DEFINITIONAL_REPRESENTATION('',(#126),#130);
#126 = LINE('',#127,#128);
#127 = CARTESIAN_POINT('',(6.28318530718,-0.));
#128 = VECTOR('',#129,1.);
#129 = DIRECTION('',(0.,-1.));
#130 = ( GEOMETRIC_REPRESENTATION_CONTEXT(2) 
PARAMETRIC_REPRESENTATION_CONTEXT() REPRESENTATION_CONTEXT('2D SPACE',''
  ) );
#131 = ORIENTED_EDGE('',*,*,#79,.T.);
#132 = ORIENTED_EDGE('',*,*,#109,.T.);
#133 = ORIENTED_EDGE('',*,*,#134,.T.);
#134 = EDGE_CURVE('',#110,#135,#137,.T.);
#135 = VERTEX_POINT('',#136);
#136 = CARTESIAN_POINT('',(24.874685927665,-2.5,12.5));
#137 = SURFACE_CURVE('',#138,(#197,#259),.PCURVE_S1.);
#138 = B_SPLINE_CURVE_WITH_KNOTS('',8,(#139,#140,#141,#142,#143,#144,
    #145,#146,#147,#148,#149,#150,#151,#152,#153,#154,#155,#156,#157,
    #158,#159,#160,#161,#162,#163,#164,#165,#166,#167,#168,#169,#170,
    #171,#172,#173,#174,#175,#176,#177,#178,#179,#180,#181,#182,#183,
    #184,#185,#186,#187,#188,#189,#190,#191,#192,#193,#194,#195,#196),
  .UNSPECIFIED.,.F.,.F.,(9,7,7,7,7,7,7,7,9),(0.,4.711099456425E-02,
    8.185377271E-02,0.14361505105,0.220590405597,0.353224921333,
    0.512364233897,0.967715187858,1.),.UNSPECIFIED.);
#139 = CARTESIAN_POINT('',(29.166666666667,4.440892098501E-16,15.));
#140 = CARTESIAN_POINT('',(29.166666666667,-4.994274208003E-02,15.));
#141 = CARTESIAN_POINT('',(29.164668521464,-9.989986800157E-02,
    14.998859753218));
#142 = CARTESIAN_POINT('',(29.160670242716,-0.149537382697,14.9965781291
    ));
#143 = CARTESIAN_POINT('',(29.154739731182,-0.198585359772,
    14.993193767443));
#144 = CARTESIAN_POINT('',(29.146992238946,-0.246828377183,
    14.988772239763));
#145 = CARTESIAN_POINT('',(29.137571905882,-0.29409765668,
    14.983395542544));
#146 = CARTESIAN_POINT('',(29.126637370359,-0.340264907022,
    14.977153922383));
#147 = CARTESIAN_POINT('',(29.105291003157,-0.418403923261,
    14.964967524911));
#148 = CARTESIAN_POINT('',(29.095490796215,-0.450937528098,
    14.959372273717));
#149 = CARTESIAN_POINT('',(29.085009875785,-0.482819901277,
    14.95338786224));
#150 = CARTESIAN_POINT('',(29.073905208321,-0.514042010915,
    14.947046692204));
#151 = CARTESIAN_POINT('',(29.062230584166,-0.544603394376,
    14.940379357515));
#152 = CARTESIAN_POINT('',(29.050035517409,-0.574510975189,
    14.933414017519));
#153 = CARTESIAN_POINT('',(29.037364145734,-0.603777879973,
    14.926175770254));
#154 = CARTESIAN_POINT('',(29.000948817427,-0.683342571328,
    14.905371713416));
#155 = CARTESIAN_POINT('',(28.976268719285,-0.73227178686,
    14.891269140349));
#156 = CARTESIAN_POINT('',(28.950422510994,-0.779330285755,
    14.876496922713));
#157 = CARTESIAN_POINT('',(28.923584815093,-0.824628251526,
    14.861154313163));
#158 = CARTESIAN_POINT('',(28.895899835124,-0.868271599229,
    14.845323272945));
#159 = CARTESIAN_POINT('',(28.867483697119,-0.910365764702,
    14.829069795528));
#160 = CARTESIAN_POINT('',(28.838425498953,-0.951017351233,
    14.812444481728));
#161 = CARTESIAN_POINT('',(28.771847599595,-1.039334963553,
    14.774341857545));
#162 = CARTESIAN_POINT('',(28.734027646483,-1.086234885659,
    14.752690093421));
#163 = CARTESIAN_POINT('',(28.695463826369,-1.131224783713,
    14.730604601098));
#164 = CARTESIAN_POINT('',(28.656265919594,-1.17445819121,
    14.708147669306));
#165 = CARTESIAN_POINT('',(28.616522226193,-1.216064805225,
    14.685369387769));
#166 = CARTESIAN_POINT('',(28.576303135568,-1.256159864403,
    14.662309663852));
#167 = CARTESIAN_POINT('',(28.53566290834,-1.294848891097,
    14.638999216436));
#168 = CARTESIAN_POINT('',(28.423953444539,-1.396634557438,
    14.574898867984));
#169 = CARTESIAN_POINT('',(28.352160894711,-1.457124160332,
    14.533675321742));
#170 = CARTESIAN_POINT('',(28.2794782378,-1.514178327752,14.491911094878
    ));
#171 = CARTESIAN_POINT('',(28.206067060149,-1.56814041297,
    14.449697417097));
#172 = CARTESIAN_POINT('',(28.132052337365,-1.619285466728,
    14.407104770335));
#173 = CARTESIAN_POINT('',(28.057528916738,-1.667845710293,
    14.364186515521));
#174 = CARTESIAN_POINT('',(27.982563229283,-1.714017063207,
    14.320979794286));
#175 = CARTESIAN_POINT('',(27.816770082645,-1.810711418558,
    14.225348130668));
#176 = CARTESIAN_POINT('',(27.725790759631,-1.860246221783,
    14.172820437488));
#177 = CARTESIAN_POINT('',(27.634352471342,-1.906863732484,
    14.119976513992));
#178 = CARTESIAN_POINT('',(27.542530284683,-1.950786567316,
    14.066858002092));
#179 = CARTESIAN_POINT('',(27.450384644358,-1.992194607881,
    14.013498260243));
#180 = CARTESIAN_POINT('',(27.35796390661,-2.031239615805,
    13.959923770922));
#181 = CARTESIAN_POINT('',(27.265305653821,-2.068052864697,
    13.906154850277));
#182 = CARTESIAN_POINT('',(26.906707819073,-2.202013882702,
    13.697838929962));
#183 = CARTESIAN_POINT('',(26.639361953947,-2.283884585339,
    13.542058691825));
#184 = CARTESIAN_POINT('',(26.371026122923,-2.35100958832,
    13.385195398597));
#185 = CARTESIAN_POINT('',(26.102142823578,-2.404681837044,
    13.227475307138));
#186 = CARTESIAN_POINT('',(25.833065137777,-2.445850281382,
    13.069073766757));
#187 = CARTESIAN_POINT('',(25.564049523847,-2.475038623329,
    12.91011016103));
#188 = CARTESIAN_POINT('',(25.295280096899,-2.492543458199,
    12.750660628382));
#189 = CARTESIAN_POINT('',(25.00783490214,-2.498764016571,
    12.579417237162));
#190 = CARTESIAN_POINT('',(24.988806306548,-2.499117056739,
    12.568077731739));
#191 = CARTESIAN_POINT('',(24.969780022546,-2.499411294519,
    12.556736233587));
#192 = CARTESIAN_POINT('',(24.950756125832,-2.499646723925,
    12.545392775486));
#193 = CARTESIAN_POINT('',(24.931734692159,-2.499823332168,
    12.534047390237));
#194 = CARTESIAN_POINT('',(24.912715797329,-2.499941099658,
    12.522700110668));
#195 = CARTESIAN_POINT('',(24.893699517196,-2.5,12.51135096963));
#196 = CARTESIAN_POINT('',(24.874685927665,-2.5,12.5));
#197 = PCURVE('',#94,#198);
#198 = DEFINITIONAL_REPRESENTATION('',(#199),#258);
#199 = B_SPLINE_CURVE_WITH_KNOTS('',8,(#200,#201,#202,#203,#204,#205,
    #206,#207,#208,#209,#210,#211,#212,#213,#214,#215,#216,#217,#218,
    #219,#220,#221,#222,#223,#224,#225,#226,#227,#228,#229,#230,#231,
    #232,#233,#234,#235,#236,#237,#238,#239,#240,#241,#242,#243,#244,
    #245,#246,#247,#248,#249,#250,#251,#252,#253,#254,#255,#256,#257),
  .UNSPECIFIED.,.F.,.F.,(9,7,7,7,7,7,7,7,9),(0.,4.711099456425E-02,
    8.185377271E-02,0.14361505105,0.220590405597,0.353224921333,
    0.512364233897,0.967715187858,1.),.UNSPECIFIED.);
#200 = CARTESIAN_POINT('',(6.28318530718,-3.5));
#201 = CARTESIAN_POINT('',(6.281472984594,-3.5));
#202 = CARTESIAN_POINT('',(6.279760169135,-3.501140246782));
#203 = CARTESIAN_POINT('',(6.27805785685,-3.5034218709));
#204 = CARTESIAN_POINT('',(6.276374849365,-3.506806232557));
#205 = CARTESIAN_POINT('',(6.274718135883,-3.511227760237));
#206 = CARTESIAN_POINT('',(6.273093193143,-3.516604457456));
#207 = CARTESIAN_POINT('',(6.271504203369,-3.522846077617));
#208 = CARTESIAN_POINT('',(6.268811107447,-3.535032475089));
#209 = CARTESIAN_POINT('',(6.267688634193,-3.540627726283));
#210 = CARTESIAN_POINT('',(6.266587353378,-3.54661213776));
#211 = CARTESIAN_POINT('',(6.265507534049,-3.552953307796));
#212 = CARTESIAN_POINT('',(6.26444916792,-3.559620642485));
#213 = CARTESIAN_POINT('',(6.263412005959,-3.566585982481));
#214 = CARTESIAN_POINT('',(6.262395594973,-3.573824229746));
#215 = CARTESIAN_POINT('',(6.259628253346,-3.594628286584));
#216 = CARTESIAN_POINT('',(6.257921635226,-3.608730859651));
#217 = CARTESIAN_POINT('',(6.256275339126,-3.623503077287));
#218 = CARTESIAN_POINT('',(6.254685661077,-3.638845686837));
#219 = CARTESIAN_POINT('',(6.25314908027,-3.654676727055));
#220 = CARTESIAN_POINT('',(6.251662103578,-3.670930204472));
#221 = CARTESIAN_POINT('',(6.250221188193,-3.687555518272));
#222 = CARTESIAN_POINT('',(6.247079807897,-3.725658142455));
#223 = CARTESIAN_POINT('',(6.245403811651,-3.747309906579));
#224 = CARTESIAN_POINT('',(6.243788394413,-3.769395398902));
#225 = CARTESIAN_POINT('',(6.242228501644,-3.791852330694));
#226 = CARTESIAN_POINT('',(6.240719891638,-3.814630612231));
#227 = CARTESIAN_POINT('',(6.239258804224,-3.837690336148));
#228 = CARTESIAN_POINT('',(6.237841790035,-3.861000783564));
#229 = CARTESIAN_POINT('',(6.234094590895,-3.925101132016));
#230 = CARTESIAN_POINT('',(6.231845996638,-3.966324678258));
#231 = CARTESIAN_POINT('',(6.229704176141,-4.008088905122));
#232 = CARTESIAN_POINT('',(6.227658076867,-4.050302582903));
#233 = CARTESIAN_POINT('',(6.225698930078,-4.092895229665));
#234 = CARTESIAN_POINT('',(6.223819368943,-4.135813484479));
#235 = CARTESIAN_POINT('',(6.222013195197,-4.179020205714));
#236 = CARTESIAN_POINT('',(6.218189278939,-4.274651869332));
#237 = CARTESIAN_POINT('',(6.216201939806,-4.327179562512));
#238 = CARTESIAN_POINT('',(6.214303894692,-4.380023486008));
#239 = CARTESIAN_POINT('',(6.212488287078,-4.433141997908));
#240 = CARTESIAN_POINT('',(6.210749678588,-4.486501739757));
#241 = CARTESIAN_POINT('',(6.209083552966,-4.540076229078));
#242 = CARTESIAN_POINT('',(6.207486057045,-4.593845149723));
#243 = CARTESIAN_POINT('',(6.201570188587,-4.802161070038));
#244 = CARTESIAN_POINT('',(6.197723679629,-4.957941308176));
#245 = CARTESIAN_POINT('',(6.194337848097,-5.1148046014));
#246 = CARTESIAN_POINT('',(6.191381952185,-5.272524692866));
#247 = CARTESIAN_POINT('',(6.188837382136,-5.430926233241));
#248 = CARTESIAN_POINT('',(6.186700807008,-5.58988983897));
#249 = CARTESIAN_POINT('',(6.184978025102,-5.749339371618));
#250 = CARTESIAN_POINT('',(6.183596678184,-5.920582762838));
#251 = CARTESIAN_POINT('',(6.183507401805,-5.931922268261));
#252 = CARTESIAN_POINT('',(6.183420310388,-5.943263766413));
#253 = CARTESIAN_POINT('',(6.183335411002,-5.954607224514));
#254 = CARTESIAN_POINT('',(6.183252711025,-5.965952609763));
#255 = CARTESIAN_POINT('',(6.183172218149,-5.977299889332));
#256 = CARTESIAN_POINT('',(6.183093940376,-5.98864903037));
#257 = CARTESIAN_POINT('',(6.183017886018,-6.));
#258 = ( GEOMETRIC_REPRESENTATION_CONTEXT(2) 
PARAMETRIC_REPRESENTATION_CONTEXT() REPRESENTATION_CONTEXT('2D SPACE',''
  ) );
#259 = PCURVE('',#260,#265);
#260 = CYLINDRICAL_SURFACE('',#261,2.5);
#261 = AXIS2_PLACEMENT_3D('',#262,#263,#264);
#262 = CARTESIAN_POINT('',(0.,0.,12.5));
#263 = DIRECTION('',(1.,0.,1.110223024625E-16));
#264 = DIRECTION('',(1.110223024625E-16,0.,-1.));
#265 = DEFINITIONAL_REPRESENTATION('',(#266),#325);
#266 = B_SPLINE_CURVE_WITH_KNOTS('',8,(#267,#268,#269,#270,#271,#272,
    #273,#274,#275,#276,#277,#278,#279,#280,#281,#282,#283,#284,#285,
    #286,#287,#288,#289,#290,#291,#292,#293,#294,#295,#296,#297,#298,
    #299,#300,#301,#302,#303,#304,#305,#306,#307,#308,#309,#310,#311,
    #312,#313,#314,#315,#316,#317,#318,#319,#320,#321,#322,#323,#324),
  .UNSPECIFIED.,.F.,.F.,(9,7,7,7,7,7,7,7,9),(0.,4.711099456425E-02,
    8.185377271E-02,0.14361505105,0.220590405597,0.353224921333,
    0.512364233897,0.967715187858,1.),.UNSPECIFIED.);
#267 = CARTESIAN_POINT('',(3.14159265359,29.166666666667));
#268 = CARTESIAN_POINT('',(3.161569750422,29.166666666667));
#269 = CARTESIAN_POINT('',(3.181552592955,29.164668521464));
#270 = CARTESIAN_POINT('',(3.201419767148,29.160670242716));
#271 = CARTESIAN_POINT('',(3.221075423496,29.154739731182));
#272 = CARTESIAN_POINT('',(3.240444054816,29.146992238946));
#273 = CARTESIAN_POINT('',(3.259466561766,29.137571905882));
#274 = CARTESIAN_POINT('',(3.278097606092,29.126637370359));
#275 = CARTESIAN_POINT('',(3.309731041927,29.105291003157));
#276 = CARTESIAN_POINT('',(3.322933925533,29.095490796215));
#277 = CARTESIAN_POINT('',(3.335907118563,29.085009875785));
#278 = CARTESIAN_POINT('',(3.348648205758,29.073905208321));
#279 = CARTESIAN_POINT('',(3.361157770905,29.062230584166));
#280 = CARTESIAN_POINT('',(3.3734390273,29.050035517409));
#281 = CARTESIAN_POINT('',(3.385497448194,29.037364145734));
#282 = CARTESIAN_POINT('',(3.4183932811,29.000948817427));
#283 = CARTESIAN_POINT('',(3.438755397386,28.976268719285));
#284 = CARTESIAN_POINT('',(3.458475521905,28.950422510994));
#285 = CARTESIAN_POINT('',(3.477596604912,28.923584815093));
#286 = CARTESIAN_POINT('',(3.496158909394,28.895899835124));
#287 = CARTESIAN_POINT('',(3.514202193614,28.867483697119));
#288 = CARTESIAN_POINT('',(3.531766937902,28.838425498953));
#289 = CARTESIAN_POINT('',(3.570241471018,28.771847599595));
#290 = CARTESIAN_POINT('',(3.590897549122,28.734027646483));
#291 = CARTESIAN_POINT('',(3.610935621841,28.695463826369));
#292 = CARTESIAN_POINT('',(3.630413113413,28.656265919594));
#293 = CARTESIAN_POINT('',(3.649377996871,28.616522226193));
#294 = CARTESIAN_POINT('',(3.667872812886,28.576303135568));
#295 = CARTESIAN_POINT('',(3.685936811066,28.53566290834));
#296 = CARTESIAN_POINT('',(3.734051967171,28.423953444539));
#297 = CARTESIAN_POINT('',(3.763313172817,28.352160894711));
#298 = CARTESIAN_POINT('',(3.791569762944,28.2794782378));
#299 = CARTESIAN_POINT('',(3.818947693568,28.206067060149));
#300 = CARTESIAN_POINT('',(3.845547061829,28.132052337365));
#301 = CARTESIAN_POINT('',(3.871452613526,28.057528916738));
#302 = CARTESIAN_POINT('',(3.896736782396,27.982563229283));
#303 = CARTESIAN_POINT('',(3.951135625682,27.816770082645));
#304 = CARTESIAN_POINT('',(3.979998172721,27.725790759631));
#305 = CARTESIAN_POINT('',(4.008159664473,27.634352471342));
#306 = CARTESIAN_POINT('',(4.035702697207,27.542530284683));
#307 = CARTESIAN_POINT('',(4.062694357988,27.450384644358));
#308 = CARTESIAN_POINT('',(4.08919206561,27.35796390661));
#309 = CARTESIAN_POINT('',(4.115246737358,27.265305653821));
#310 = CARTESIAN_POINT('',(4.214315260716,26.906707819073));
#311 = CARTESIAN_POINT('',(4.284438957505,26.639361953947));
#312 = CARTESIAN_POINT('',(4.352338628382,26.371026122923));
#313 = CARTESIAN_POINT('',(4.418599000242,26.102142823578));
#314 = CARTESIAN_POINT('',(4.48371656207,25.833065137777));
#315 = CARTESIAN_POINT('',(4.548082419863,25.564049523847));
#316 = CARTESIAN_POINT('',(4.612074563666,25.295280096899));
#317 = CARTESIAN_POINT('',(4.680617098644,25.00783490214));
#318 = CARTESIAN_POINT('',(4.685155037612,24.988806306548));
#319 = CARTESIAN_POINT('',(4.689693061619,24.969780022546));
#320 = CARTESIAN_POINT('',(4.694231299865,24.950756125832));
#321 = CARTESIAN_POINT('',(4.698769881585,24.931734692159));
#322 = CARTESIAN_POINT('',(4.703308936042,24.912715797329));
#323 = CARTESIAN_POINT('',(4.707848592533,24.893699517196));
#324 = CARTESIAN_POINT('',(4.712388980385,24.874685927665));
#325 = ( GEOMETRIC_REPRESENTATION_CONTEXT(2) 
PARAMETRIC_REPRESENTATION_CONTEXT() REPRESENTATION_CONTEXT('2D SPACE',''
  ) );
#326 = ORIENTED_EDGE('',*,*,#327,.F.);
#327 = EDGE_CURVE('',#328,#135,#330,.T.);
#328 = VERTEX_POINT('',#329);
#329 = CARTESIAN_POINT('',(24.874685927665,2.5,12.5));
#330 = SURFACE_CURVE('',#331,(#336,#343),.PCURVE_S1.);
#331 = CIRCLE('',#332,25.);
#332 = AXIS2_PLACEMENT_3D('',#333,#334,#335);
#333 = CARTESIAN_POINT('',(0.,0.,12.5));
#334 = DIRECTION('',(0.,0.,1.));
#335 = DIRECTION('',(1.,0.,-0.));
#336 = PCURVE('',#94,#337);
#337 = DEFINITIONAL_REPRESENTATION('',(#338),#342);
#338 = LINE('',#339,#340);
#339 = CARTESIAN_POINT('',(0.,-6.));
#340 = VECTOR('',#341,1.);
#341 = DIRECTION('',(1.,-0.));
#342 = ( GEOMETRIC_REPRESENTATION_CONTEXT(2) 
PARAMETRIC_REPRESENTATION_CONTEXT() REPRESENTATION_CONTEXT('2D SPACE',''
  ) );
#343 = PCURVE('',#344,#349);
#344 = CONICAL_SURFACE('',#345,25.,1.030376826524);
#345 = AXIS2_PLACEMENT_3D('',#346,#347,#348);
#346 = CARTESIAN_POINT('',(0.,0.,12.5));
#347 = DIRECTION('',(-0.,-0.,-1.));
#348 = DIRECTION('',(1.,0.,0.));
#349 = DEFINITIONAL_REPRESENTATION('',(#350),#354);
#350 = LINE('',#351,#352);
#351 = CARTESIAN_POINT('',(-0.,0.));
#352 = VECTOR('',#353,1.);
#353 = DIRECTION('',(-1.,0.));
#354 = ( GEOMETRIC_REPRESENTATION_CONTEXT(2) 
PARAMETRIC_REPRESENTATION_CONTEXT() REPRESENTATION_CONTEXT('2D SPACE',''
  ) );
#355 = ORIENTED_EDGE('',*,*,#356,.T.);
#356 = EDGE_CURVE('',#328,#110,#357,.T.);
#357 = SURFACE_CURVE('',#358,(#403,#451),.PCURVE_S1.);
#358 = B_SPLINE_CURVE_WITH_KNOTS('',8,(#359,#360,#361,#362,#363,#364,
    #365,#366,#367,#368,#369,#370,#371,#372,#373,#374,#375,#376,#377,
    #378,#379,#380,#381,#382,#383,#384,#385,#386,#387,#388,#389,#390,
    #391,#392,#393,#394,#395,#396,#397,#398,#399,#400,#401,#402),
  .UNSPECIFIED.,.F.,.F.,(9,7,7,7,7,7,9),(0.,3.157499317475E-02,
    0.392345035834,0.698826865961,0.866521848534,0.938779704046,1.),
  .UNSPECIFIED.);
#359 = CARTESIAN_POINT('',(24.874685927665,2.5,12.5));
#360 = CARTESIAN_POINT('',(24.89328610971,2.5,12.511104168477));
#361 = CARTESIAN_POINT('',(24.911888866631,2.499943633122,
    12.522206587017));
#362 = CARTESIAN_POINT('',(24.930494127363,2.499830930443,
    12.533307224839));
#363 = CARTESIAN_POINT('',(24.94910182089,2.49966191681,12.544406051186)
  );
#364 = CARTESIAN_POINT('',(24.967711876244,2.499436610841,
    12.555503035326));
#365 = CARTESIAN_POINT('',(24.986324222508,2.499155024923,
    12.566598146549));
#366 = CARTESIAN_POINT('',(25.004938788811,2.498817165215,
    12.577691354167));
#367 = CARTESIAN_POINT('',(25.236266658894,2.49391973423,12.715509469159
    ));
#368 = CARTESIAN_POINT('',(25.44923843958,2.482070563937,12.841971905801
    ));
#369 = CARTESIAN_POINT('',(25.662389564958,2.462876021579,
    12.968138849686));
#370 = CARTESIAN_POINT('',(25.875619826355,2.436230602005,13.09396753354
    ));
#371 = CARTESIAN_POINT('',(26.088807632531,2.401914468716,
    13.219402416073));
#372 = CARTESIAN_POINT('',(26.301808995156,2.359590306893,
    13.344374846764));
#373 = CARTESIAN_POINT('',(26.514453736172,2.308757606773,
    13.468801105103));
#374 = CARTESIAN_POINT('',(26.906701989366,2.19752558896,13.697726201995
    ));
#375 = CARTESIAN_POINT('',(27.086328028153,2.139753922517,13.80232777918
    ));
#376 = CARTESIAN_POINT('',(27.265402671619,2.074801402773,
    13.906385726306));
#377 = CARTESIAN_POINT('',(27.443786653749,2.001987665271,
    14.009828726692));
#378 = CARTESIAN_POINT('',(27.62122532642,1.920515237648,14.112518760305
    ));
#379 = CARTESIAN_POINT('',(27.797285001402,1.829155919508,
    14.214215832067));
#380 = CARTESIAN_POINT('',(27.971392778819,1.726456272786,
    14.314601591357));
#381 = CARTESIAN_POINT('',(28.2362537661,1.545226517041,14.467051008715)
  );
#382 = CARTESIAN_POINT('',(28.328840352708,1.476953436114,
    14.520290662246));
#383 = CARTESIAN_POINT('',(28.420362320979,1.403916749577,
    14.572868883626));
#384 = CARTESIAN_POINT('',(28.510627398406,1.325425198126,
    14.624677808822));
#385 = CARTESIAN_POINT('',(28.599266106293,1.240753345935,
    14.675508201496));
#386 = CARTESIAN_POINT('',(28.685615243407,1.14885277147,14.724983722883
    ));
#387 = CARTESIAN_POINT('',(28.768814273337,1.048603476135,
    14.772616624472));
#388 = CARTESIAN_POINT('',(28.88119075292,0.889673821914,14.836909458582
    ));
#389 = CARTESIAN_POINT('',(28.914112066302,0.839880732676,
    14.855738273026));
#390 = CARTESIAN_POINT('',(28.946010629,0.78794748756,14.873976406365));
#391 = CARTESIAN_POINT('',(28.976712892737,0.73368346733,14.891525286091
    ));
#392 = CARTESIAN_POINT('',(29.005975970133,0.676915252135,
    14.908246839604));
#393 = CARTESIAN_POINT('',(29.033488110634,0.617488318841,
    14.923963801933));
#394 = CARTESIAN_POINT('',(29.058869176451,0.555268738365,
    14.938460023473));
#395 = CARTESIAN_POINT('',(29.100990009569,0.434968833222,
    14.962512580713));
#396 = CARTESIAN_POINT('',(29.118472153075,0.377666844438,
    14.972493594244));
#397 = CARTESIAN_POINT('',(29.13379188009,0.318299523419,14.981238486838
    ));
#398 = CARTESIAN_POINT('',(29.146597066394,0.257018589253,14.98854694909
    ));
#399 = CARTESIAN_POINT('',(29.15653323058,0.194080310268,14.994217340658
    ));
#400 = CARTESIAN_POINT('',(29.163289531737,0.129868425531,
    14.998072826166));
#401 = CARTESIAN_POINT('',(29.166666666667,6.492654095449E-02,15.));
#402 = CARTESIAN_POINT('',(29.166666666667,0.,15.));
#403 = PCURVE('',#94,#404);
#404 = DEFINITIONAL_REPRESENTATION('',(#405),#450);
#405 = B_SPLINE_CURVE_WITH_KNOTS('',8,(#406,#407,#408,#409,#410,#411,
    #412,#413,#414,#415,#416,#417,#418,#419,#420,#421,#422,#423,#424,
    #425,#426,#427,#428,#429,#430,#431,#432,#433,#434,#435,#436,#437,
    #438,#439,#440,#441,#442,#443,#444,#445,#446,#447,#448,#449),
  .UNSPECIFIED.,.F.,.F.,(9,7,7,7,7,7,9),(0.,3.157499317475E-02,
    0.392345035834,0.698826865961,0.866521848534,0.938779704046,1.),
  .UNSPECIFIED.);
#406 = CARTESIAN_POINT('',(0.100167421162,-6.));
#407 = CARTESIAN_POINT('',(0.100093020433,-5.988895831523));
#408 = CARTESIAN_POINT('',(0.100016491925,-5.977793412983));
#409 = CARTESIAN_POINT('',(9.993784341893E-02,-5.966692775161));
#410 = CARTESIAN_POINT('',(9.985708241246E-02,-5.955593948814));
#411 = CARTESIAN_POINT('',(9.977421611816E-02,-5.944496964674));
#412 = CARTESIAN_POINT('',(9.96892514636E-02,-5.933401853451));
#413 = CARTESIAN_POINT('',(9.960219509142E-02,-5.922308645833));
#414 = CARTESIAN_POINT('',(9.849453638576E-02,-5.784490530841));
#415 = CARTESIAN_POINT('',(9.720388056097E-02,-5.658028094199));
#416 = CARTESIAN_POINT('',(9.565050239891E-02,-5.531861150314));
#417 = CARTESIAN_POINT('',(9.383909934281E-02,-5.40603246646));
#418 = CARTESIAN_POINT('',(9.176976913155E-02,-5.280597583927));
#419 = CARTESIAN_POINT('',(8.943812679227E-02,-5.155625153236));
#420 = CARTESIAN_POINT('',(8.683390957216E-02,-5.031198894897));
#421 = CARTESIAN_POINT('',(8.147520009574E-02,-4.802273798005));
#422 = CARTESIAN_POINT('',(7.880408911383E-02,-4.69767222082));
#423 = CARTESIAN_POINT('',(7.590978080839E-02,-4.593614273695));
#424 = CARTESIAN_POINT('',(7.277309365117E-02,-4.490171273307));
#425 = CARTESIAN_POINT('',(6.93713113313E-02,-4.387481239695));
#426 = CARTESIAN_POINT('',(6.566755451515E-02,-4.285784167933));
#427 = CARTESIAN_POINT('',(6.161769968011E-02,-4.185398408643));
#428 = CARTESIAN_POINT('',(5.466255920097E-02,-4.032948991285));
#429 = CARTESIAN_POINT('',(5.207489953869E-02,-3.979709337753));
#430 = CARTESIAN_POINT('',(4.933981747061E-02,-3.927131116374));
#431 = CARTESIAN_POINT('',(4.643478721863E-02,-3.875322191177));
#432 = CARTESIAN_POINT('',(4.333662862856E-02,-3.824491798505));
#433 = CARTESIAN_POINT('',(4.001143477602E-02,-3.775016277117));
#434 = CARTESIAN_POINT('',(3.642296802506E-02,-3.727383375528));
#435 = CARTESIAN_POINT('',(3.07929770447E-02,-3.663090541418));
#436 = CARTESIAN_POINT('',(2.903599486081E-02,-3.644261726974));
#437 = CARTESIAN_POINT('',(2.721043767284E-02,-3.626023593635));
#438 = CARTESIAN_POINT('',(2.530995707968E-02,-3.608474713909));
#439 = CARTESIAN_POINT('',(2.332880739462E-02,-3.591753160396));
#440 = CARTESIAN_POINT('',(2.126182464015E-02,-3.576036198067));
#441 = CARTESIAN_POINT('',(1.91044055427E-02,-3.561539976527));
#442 = CARTESIAN_POINT('',(1.494455350621E-02,-3.537487419287));
#443 = CARTESIAN_POINT('',(1.296736182678E-02,-3.527506405756));
#444 = CARTESIAN_POINT('',(1.092287820616E-02,-3.518761513162));
#445 = CARTESIAN_POINT('',(8.81605752574E-03,-3.51145305091));
#446 = CARTESIAN_POINT('',(6.655182877609E-03,-3.505782659342));
#447 = CARTESIAN_POINT('',(4.452629532983E-03,-3.501927173834));
#448 = CARTESIAN_POINT('',(2.226052832726E-03,-3.5));
#449 = CARTESIAN_POINT('',(0.,-3.5));
#450 = ( GEOMETRIC_REPRESENTATION_CONTEXT(2) 
PARAMETRIC_REPRESENTATION_CONTEXT() REPRESENTATION_CONTEXT('2D SPACE',''
  ) );
#451 = PCURVE('',#260,#452);
#452 = DEFINITIONAL_REPRESENTATION('',(#453),#498);
#453 = B_SPLINE_CURVE_WITH_KNOTS('',8,(#454,#455,#456,#457,#458,#459,
    #460,#461,#462,#463,#464,#465,#466,#467,#468,#469,#470,#471,#472,
    #473,#474,#475,#476,#477,#478,#479,#480,#481,#482,#483,#484,#485,
    #486,#487,#488,#489,#490,#491,#492,#493,#494,#495,#496,#497),
  .UNSPECIFIED.,.F.,.F.,(9,7,7,7,7,7,9),(0.,3.157499317475E-02,
    0.392345035834,0.698826865961,0.866521848534,0.938779704046,1.),
  .UNSPECIFIED.);
#454 = CARTESIAN_POINT('',(1.570796326795,24.874685927665));
#455 = CARTESIAN_POINT('',(1.575237994186,24.89328610971));
#456 = CARTESIAN_POINT('',(1.57967896167,24.911888866631));
#457 = CARTESIAN_POINT('',(1.584119350325,24.930494127363));
#458 = CARTESIAN_POINT('',(1.5885592812,24.94910182089));
#459 = CARTESIAN_POINT('',(1.592998875311,24.967711876244));
#460 = CARTESIAN_POINT('',(1.597438253642,24.986324222508));
#461 = CARTESIAN_POINT('',(1.601877537147,25.004938788811));
#462 = CARTESIAN_POINT('',(1.657039578661,25.236266658894));
#463 = CARTESIAN_POINT('',(1.707760893139,25.44923843958));
#464 = CARTESIAN_POINT('',(1.758667636528,25.662389564958));
#465 = CARTESIAN_POINT('',(1.80994195545,25.875619826355));
#466 = CARTESIAN_POINT('',(1.861778613143,26.088807632531));
#467 = CARTESIAN_POINT('',(1.9143937042,26.301808995156));
#468 = CARTESIAN_POINT('',(1.968045848808,26.514453736172));
#469 = CARTESIAN_POINT('',(2.069852930505,26.906701989366));
#470 = CARTESIAN_POINT('',(2.117585749972,27.086328028153));
#471 = CARTESIAN_POINT('',(2.166532716223,27.265402671619));
#472 = CARTESIAN_POINT('',(2.216975860023,27.443786653749));
#473 = CARTESIAN_POINT('',(2.269220079031,27.62122532642));
#474 = CARTESIAN_POINT('',(2.323720250642,27.797285001402));
#475 = CARTESIAN_POINT('',(2.381005380482,27.971392778819));
#476 = CARTESIAN_POINT('',(2.475734509452,28.2362537661));
#477 = CARTESIAN_POINT('',(2.510341890774,28.328840352708));
#478 = CARTESIAN_POINT('',(2.546293559688,28.420362320979));
#479 = CARTESIAN_POINT('',(2.583850021052,28.510627398406));
#480 = CARTESIAN_POINT('',(2.623271083804,28.599266106293));
#481 = CARTESIAN_POINT('',(2.664937308811,28.685615243407));
#482 = CARTESIAN_POINT('',(2.709255797096,28.768814273337));
#483 = CARTESIAN_POINT('',(2.777832415279,28.88119075292));
#484 = CARTESIAN_POINT('',(2.799120424137,28.914112066302));
#485 = CARTESIAN_POINT('',(2.821126997686,28.946010629));
#486 = CARTESIAN_POINT('',(2.843924763282,28.976712892737));
#487 = CARTESIAN_POINT('',(2.867579106797,29.005975970133));
#488 = CARTESIAN_POINT('',(2.892149581681,29.033488110634));
#489 = CARTESIAN_POINT('',(2.917691318028,29.058869176451));
#490 = CARTESIAN_POINT('',(2.966763660849,29.100990009569));
#491 = CARTESIAN_POINT('',(2.990022290811,29.118472153075));
#492 = CARTESIAN_POINT('',(3.014011696948,29.13379188009));
#493 = CARTESIAN_POINT('',(3.038678393375,29.146597066394));
#494 = CARTESIAN_POINT('',(3.063933744685,29.15653323058));
#495 = CARTESIAN_POINT('',(3.089645341133,29.163289531737));
#496 = CARTESIAN_POINT('',(3.115622037208,29.166666666667));
#497 = CARTESIAN_POINT('',(3.14159265359,29.166666666667));
#498 = ( GEOMETRIC_REPRESENTATION_CONTEXT(2) 
PARAMETRIC_REPRESENTATION_CONTEXT() REPRESENTATION_CONTEXT('2D SPACE',''
  ) );
#499 = ADVANCED_FACE('',(#500,#503),#66,.T.);
#500 = FACE_BOUND('',#501,.T.);
#501 = EDGE_LOOP('',(#502));
#502 = ORIENTED_EDGE('',*,*,#51,.T.);
#503 = FACE_BOUND('',#504,.T.);
#504 = EDGE_LOOP('',(#505));
#505 = ORIENTED_EDGE('',*,*,#506,.F.);
#506 = EDGE_CURVE('',#507,#507,#509,.T.);
#507 = VERTEX_POINT('',#508);
#508 = CARTESIAN_POINT('',(10.,-2.449293598295E-15,25.));
#509 = SURFACE_CURVE('',#510,(#515,#522),.PCURVE_S1.);
#510 = CIRCLE('',#511,10.);
#511 = AXIS2_PLACEMENT_3D('',#512,#513,#514);
#512 = CARTESIAN_POINT('',(0.,0.,25.));
#513 = DIRECTION('',(0.,0.,1.));
#514 = DIRECTION('',(1.,0.,-0.));
#515 = PCURVE('',#66,#516);
#516 = DEFINITIONAL_REPRESENTATION('',(#517),#521);
#517 = CIRCLE('',#518,10.);
#518 = AXIS2_PLACEMENT_2D('',#519,#520);
#519 = CARTESIAN_POINT('',(0.,0.));
#520 = DIRECTION('',(1.,0.));
#521 = ( GEOMETRIC_REPRESENTATION_CONTEXT(2) 
PARAMETRIC_REPRESENTATION_CONTEXT() REPRESENTATION_CONTEXT('2D SPACE',''
  ) );
#522 = PCURVE('',#523,#528);
#523 = CYLINDRICAL_SURFACE('',#524,10.);
#524 = AXIS2_PLACEMENT_3D('',#525,#526,#527);
#525 = CARTESIAN_POINT('',(0.,0.,0.));
#526 = DIRECTION('',(0.,0.,1.));
#527 = DIRECTION('',(1.,0.,-0.));
#528 = DEFINITIONAL_REPRESENTATION('',(#529),#533);
#529 = LINE('',#530,#531);
#530 = CARTESIAN_POINT('',(0.,25.));
#531 = VECTOR('',#532,1.);
#532 = DIRECTION('',(1.,0.));
#533 = ( GEOMETRIC_REPRESENTATION_CONTEXT(2) 
PARAMETRIC_REPRESENTATION_CONTEXT() REPRESENTATION_CONTEXT('2D SPACE',''
  ) );
#534 = ADVANCED_FACE('',(#535),#260,.F.);
#535 = FACE_BOUND('',#536,.F.);
#536 = EDGE_LOOP('',(#537,#725,#748,#840,#930,#931,#1117,#1118));
#537 = ORIENTED_EDGE('',*,*,#538,.F.);
#538 = EDGE_CURVE('',#539,#328,#541,.T.);
#539 = VERTEX_POINT('',#540);
#540 = CARTESIAN_POINT('',(29.166666666667,-3.061616997868E-16,10.));
#541 = SURFACE_CURVE('',#542,(#601,#663),.PCURVE_S1.);
#542 = B_SPLINE_CURVE_WITH_KNOTS('',8,(#543,#544,#545,#546,#547,#548,
    #549,#550,#551,#552,#553,#554,#555,#556,#557,#558,#559,#560,#561,
    #562,#563,#564,#565,#566,#567,#568,#569,#570,#571,#572,#573,#574,
    #575,#576,#577,#578,#579,#580,#581,#582,#583,#584,#585,#586,#587,
    #588,#589,#590,#591,#592,#593,#594,#595,#596,#597,#598,#599,#600),
  .UNSPECIFIED.,.F.,.F.,(9,7,7,7,7,7,7,7,9),(0.,4.812743463762E-02,
    8.300821130943E-02,0.145036477698,0.222309553475,0.357469232272,
    0.518499970011,0.917196552087,1.),.UNSPECIFIED.);
#543 = CARTESIAN_POINT('',(29.166666666667,-6.123233995737E-16,10.));
#544 = CARTESIAN_POINT('',(29.166666666667,5.105091403607E-02,10.));
#545 = CARTESIAN_POINT('',(29.164578831582,0.102096917987,
    10.001191428717));
#546 = CARTESIAN_POINT('',(29.160404030992,0.152790452828,
    10.003573785096));
#547 = CARTESIAN_POINT('',(29.154216985681,0.202853380808,
    10.007104547591));
#548 = CARTESIAN_POINT('',(29.146141863914,0.252064446595,
    10.011713074087));
#549 = CARTESIAN_POINT('',(29.136332889858,0.300249283761,
    10.017311634438));
#550 = CARTESIAN_POINT('',(29.124959964176,0.34727296662,10.023803575633
    ));
#551 = CARTESIAN_POINT('',(29.10295089214,0.426201616816,10.036368518528
    ));
#552 = CARTESIAN_POINT('',(29.092967484419,0.458726680502,
    10.042068472342));
#553 = CARTESIAN_POINT('',(29.082308481118,0.49059336472,10.048154691028
    ));
#554 = CARTESIAN_POINT('',(29.071030972043,0.521794186923,
    10.054594703099));
#555 = CARTESIAN_POINT('',(29.059188681864,0.552329969398,
    10.061357952379));
#556 = CARTESIAN_POINT('',(29.046830922681,0.582208692902,
    10.068416394796));
#557 = CARTESIAN_POINT('',(29.03400154659,0.61144435029,10.075745095182)
  );
#558 = CARTESIAN_POINT('',(28.997151235568,0.690935361979,
    10.096798251804));
#559 = CARTESIAN_POINT('',(28.972202704485,0.739817293682,
    10.111054653351));
#560 = CARTESIAN_POINT('',(28.946099577058,0.786825277391,
    10.125974212883));
#561 = CARTESIAN_POINT('',(28.919014952454,0.83207157689,10.141458545889
    ));
#562 = CARTESIAN_POINT('',(28.891091579438,0.875663366587,
    10.157426519993));
#563 = CARTESIAN_POINT('',(28.86244432443,0.917706789265,10.173812859526
    ));
#564 = CARTESIAN_POINT('',(28.833161285114,0.95830874258,10.190567533866
    ));
#565 = CARTESIAN_POINT('',(28.766107619539,1.046494934313,
    10.228944173879));
#566 = CARTESIAN_POINT('',(28.728040459042,1.093315948393,
    10.250738507355));
#567 = CARTESIAN_POINT('',(28.689237019689,1.138230542585,10.2729623523)
  );
#568 = CARTESIAN_POINT('',(28.649805752259,1.181391992781,
    10.295554177675));
#569 = CARTESIAN_POINT('',(28.609833901976,1.222929704758,
    10.318464495166));
#570 = CARTESIAN_POINT('',(28.569391039222,1.262958562656,
    10.341653864685));
#571 = CARTESIAN_POINT('',(28.528530825716,1.301583665925,
    10.365091909261));
#572 = CARTESIAN_POINT('',(28.415157749124,1.404171898157,
    10.430150954034));
#573 = CARTESIAN_POINT('',(28.341894824235,1.465412704226,
    10.472222054081));
#574 = CARTESIAN_POINT('',(28.267725602149,1.523124936549,
    10.514844433819));
#575 = CARTESIAN_POINT('',(28.192816414478,1.577664487848,
    10.557924201624));
#576 = CARTESIAN_POINT('',(28.117295619602,1.629315769647,
    10.601388984218));
#577 = CARTESIAN_POINT('',(28.041260375107,1.678318557815,
    10.645184138757));
#578 = CARTESIAN_POINT('',(27.964778362881,1.724874623626,
    10.689271848201));
#579 = CARTESIAN_POINT('',(27.796288085066,1.821925988236,
    10.786476547874));
#580 = CARTESIAN_POINT('',(27.70413501483,1.871455296609,10.839692166296
    ));
#581 = CARTESIAN_POINT('',(27.611525820777,1.918038546433,
    10.893223901744));
#582 = CARTESIAN_POINT('',(27.51853550447,1.961899701388,10.947030186324
    ));
#583 = CARTESIAN_POINT('',(27.425224476803,2.003219613808,
    11.001077717782));
#584 = CARTESIAN_POINT('',(27.331641080443,2.042150751574,
    11.055340059009));
#585 = CARTESIAN_POINT('',(27.237822898377,2.078824885522,
    11.109796932464));
#586 = CARTESIAN_POINT('',(26.910997414111,2.198843845712,
    11.299710840022));
#587 = CARTESIAN_POINT('',(26.676992524545,2.27115939697,11.436053389645
    ));
#588 = CARTESIAN_POINT('',(26.442202540769,2.33201696766,11.573240204796
    ));
#589 = CARTESIAN_POINT('',(26.206937357167,2.382367543247,
    11.711112065278));
#590 = CARTESIAN_POINT('',(25.971444549269,2.42290277016,11.849545243068
    ));
#591 = CARTESIAN_POINT('',(25.735910163912,2.454058736062,
    11.988451591623));
#592 = CARTESIAN_POINT('',(25.500470402695,2.476112911141,12.12777253069
    ));
#593 = CARTESIAN_POINT('',(25.216352113675,2.49187377803,12.296494963325
    ));
#594 = CARTESIAN_POINT('',(25.167502360073,2.49419570139,12.325525486892
    ));
#595 = CARTESIAN_POINT('',(25.118663900398,2.496130071816,
    12.354570813924));
#596 = CARTESIAN_POINT('',(25.069838022115,2.497677509896,
    12.383630384489));
#597 = CARTESIAN_POINT('',(25.021026008562,2.498838340488,
    12.412703641414));
#598 = CARTESIAN_POINT('',(24.972229138941,2.499612592721,
    12.441790030284));
#599 = CARTESIAN_POINT('',(24.923448688328,2.5,12.470888999445));
#600 = CARTESIAN_POINT('',(24.874685927665,2.5,12.5));
#601 = PCURVE('',#260,#602);
#602 = DEFINITIONAL_REPRESENTATION('',(#603),#662);
#603 = B_SPLINE_CURVE_WITH_KNOTS('',8,(#604,#605,#606,#607,#608,#609,
    #610,#611,#612,#613,#614,#615,#616,#617,#618,#619,#620,#621,#622,
    #623,#624,#625,#626,#627,#628,#629,#630,#631,#632,#633,#634,#635,
    #636,#637,#638,#639,#640,#641,#642,#643,#644,#645,#646,#647,#648,
    #649,#650,#651,#652,#653,#654,#655,#656,#657,#658,#659,#660,#661),
  .UNSPECIFIED.,.F.,.F.,(9,7,7,7,7,7,7,7,9),(0.,4.812743463762E-02,
    8.300821130943E-02,0.145036477698,0.222309553475,0.357469232272,
    0.518499970011,0.917196552087,1.),.UNSPECIFIED.);
#604 = CARTESIAN_POINT('',(0.,29.166666666667));
#605 = CARTESIAN_POINT('',(2.042036561443E-02,29.166666666667));
#606 = CARTESIAN_POINT('',(4.083875589369E-02,29.164578831582));
#607 = CARTESIAN_POINT('',(6.112917152514E-02,29.160404030992));
#608 = CARTESIAN_POINT('',(8.119324597403E-02,29.154216985681));
#609 = CARTESIAN_POINT('',(0.100953762631,29.146141863914));
#610 = CARTESIAN_POINT('',(0.120349817273,29.136332889858));
#611 = CARTESIAN_POINT('',(0.139333625849,29.124959964176));
#612 = CARTESIAN_POINT('',(0.171302634871,29.10295089214));
#613 = CARTESIAN_POINT('',(0.184509313951,29.092967484419));
#614 = CARTESIAN_POINT('',(0.197483915154,29.082308481118));
#615 = CARTESIAN_POINT('',(0.210224591303,29.071030972043));
#616 = CARTESIAN_POINT('',(0.222732393852,29.059188681864));
#617 = CARTESIAN_POINT('',(0.235010919043,29.046830922681));
#618 = CARTESIAN_POINT('',(0.247065954065,29.03400154659));
#619 = CARTESIAN_POINT('',(0.279958643449,28.997151235568));
#620 = CARTESIAN_POINT('',(0.30031972806,28.972202704485));
#621 = CARTESIAN_POINT('',(0.320038326486,28.946099577058));
#622 = CARTESIAN_POINT('',(0.33915811996,28.919014952454));
#623 = CARTESIAN_POINT('',(0.357719807935,28.891091579438));
#624 = CARTESIAN_POINT('',(0.375763388086,28.86244432443));
#625 = CARTESIAN_POINT('',(0.393329429871,28.833161285114));
#626 = CARTESIAN_POINT('',(0.431799305694,28.766107619539));
#627 = CARTESIAN_POINT('',(0.452450739302,28.728040459042));
#628 = CARTESIAN_POINT('',(0.472486263934,28.689237019689));
#629 = CARTESIAN_POINT('',(0.491963181875,28.649805752259));
#630 = CARTESIAN_POINT('',(0.51092934296,28.609833901976));
#631 = CARTESIAN_POINT('',(0.529427144929,28.569391039222));
#632 = CARTESIAN_POINT('',(0.547495667433,28.528530825716));
#633 = CARTESIAN_POINT('',(0.596087065353,28.415157749124));
#634 = CARTESIAN_POINT('',(0.625786792937,28.341894824235));
#635 = CARTESIAN_POINT('',(0.654457626598,28.267725602149));
#636 = CARTESIAN_POINT('',(0.682230078631,28.192816414478));
#637 = CARTESIAN_POINT('',(0.709207621601,28.117295619602));
#638 = CARTESIAN_POINT('',(0.735477755522,28.041260375107));
#639 = CARTESIAN_POINT('',(0.761115110884,27.964778362881));
#640 = CARTESIAN_POINT('',(0.816059040138,27.796288085066));
#641 = CARTESIAN_POINT('',(0.845120540198,27.70413501483));
#642 = CARTESIAN_POINT('',(0.873479400692,27.611525820777));
#643 = CARTESIAN_POINT('',(0.901218818772,27.51853550447));
#644 = CARTESIAN_POINT('',(0.928406373344,27.425224476803));
#645 = CARTESIAN_POINT('',(0.955099908762,27.331641080443));
#646 = CARTESIAN_POINT('',(0.981350725367,27.237822898377));
#647 = CARTESIAN_POINT('',(1.071214482768,26.910997414111));
#648 = CARTESIAN_POINT('',(1.132770086605,26.676992524545));
#649 = CARTESIAN_POINT('',(1.192561984871,26.442202540769));
#650 = CARTESIAN_POINT('',(1.25101230965,26.206937357167));
#651 = CARTESIAN_POINT('',(1.308470230889,25.971444549269));
#652 = CARTESIAN_POINT('',(1.365220065999,25.735910163912));
#653 = CARTESIAN_POINT('',(1.421527432752,25.500470402695));
#654 = CARTESIAN_POINT('',(1.489310220184,25.216352113675));
#655 = CARTESIAN_POINT('',(1.500958486273,25.167502360073));
#656 = CARTESIAN_POINT('',(1.512600634891,25.118663900398));
#657 = CARTESIAN_POINT('',(1.524238865203,25.069838022115));
#658 = CARTESIAN_POINT('',(1.53587536895,25.021026008562));
#659 = CARTESIAN_POINT('',(1.547512330445,24.972229138941));
#660 = CARTESIAN_POINT('',(1.559151926573,24.923448688328));
#661 = CARTESIAN_POINT('',(1.570796326795,24.874685927665));
#662 = ( GEOMETRIC_REPRESENTATION_CONTEXT(2) 
PARAMETRIC_REPRESENTATION_CONTEXT() REPRESENTATION_CONTEXT('2D SPACE',''
  ) );
#663 = PCURVE('',#344,#664);
#664 = DEFINITIONAL_REPRESENTATION('',(#665),#724);
#665 = B_SPLINE_CURVE_WITH_KNOTS('',8,(#666,#667,#668,#669,#670,#671,
    #672,#673,#674,#675,#676,#677,#678,#679,#680,#681,#682,#683,#684,
    #685,#686,#687,#688,#689,#690,#691,#692,#693,#694,#695,#696,#697,
    #698,#699,#700,#701,#702,#703,#704,#705,#706,#707,#708,#709,#710,
    #711,#712,#713,#714,#715,#716,#717,#718,#719,#720,#721,#722,#723),
  .UNSPECIFIED.,.F.,.F.,(9,7,7,7,7,7,7,7,9),(0.,4.812743463762E-02,
    8.300821130943E-02,0.145036477698,0.222309553475,0.357469232272,
    0.518499970011,0.917196552087,1.),.UNSPECIFIED.);
#666 = CARTESIAN_POINT('',(0.,2.5));
#667 = CARTESIAN_POINT('',(-1.750317052665E-03,2.5));
#668 = CARTESIAN_POINT('',(-3.500465344124E-03,2.498808571283));
#669 = CARTESIAN_POINT('',(-5.23901517056E-03,2.496426214904));
#670 = CARTESIAN_POINT('',(-6.956912060704E-03,2.492895452409));
#671 = CARTESIAN_POINT('',(-8.646989934221E-03,2.488286925913));
#672 = CARTESIAN_POINT('',(-1.0303596057E-02,2.482688365562));
#673 = CARTESIAN_POINT('',(-1.192232779332E-02,2.476196424367));
#674 = CARTESIAN_POINT('',(-1.464322666898E-02,2.463631481472));
#675 = CARTESIAN_POINT('',(-1.57656731826E-02,2.457931527658));
#676 = CARTESIAN_POINT('',(-1.686669895557E-02,2.451845308972));
#677 = CARTESIAN_POINT('',(-1.794608601047E-02,2.445405296901));
#678 = CARTESIAN_POINT('',(-1.900388484367E-02,2.438642047621));
#679 = CARTESIAN_POINT('',(-2.004037913622E-02,2.431583605204));
#680 = CARTESIAN_POINT('',(-2.105605046481E-02,2.424254904818));
#681 = CARTESIAN_POINT('',(-2.382182116681E-02,2.403201748196));
#682 = CARTESIAN_POINT('',(-2.552746349195E-02,2.388945346649));
#683 = CARTESIAN_POINT('',(-2.71726977962E-02,2.374025787117));
#684 = CARTESIAN_POINT('',(-2.876129511693E-02,2.358541454111));
#685 = CARTESIAN_POINT('',(-3.029681650402E-02,2.342573480007));
#686 = CARTESIAN_POINT('',(-3.178277730832E-02,2.326187140474));
#687 = CARTESIAN_POINT('',(-3.322272897506E-02,2.309432466134));
#688 = CARTESIAN_POINT('',(-3.636126125896E-02,2.271055826121));
#689 = CARTESIAN_POINT('',(-3.803547439751E-02,2.249261492645));
#690 = CARTESIAN_POINT('',(-3.964924535328E-02,2.2270376477));
#691 = CARTESIAN_POINT('',(-4.12076185093E-02,2.204445822325));
#692 = CARTESIAN_POINT('',(-4.271482472536E-02,2.181535504834));
#693 = CARTESIAN_POINT('',(-4.417461135975E-02,2.158346135315));
#694 = CARTESIAN_POINT('',(-4.559041262347E-02,2.134908090739));
#695 = CARTESIAN_POINT('',(-4.937030506855E-02,2.069849045966));
#696 = CARTESIAN_POINT('',(-5.164923013768E-02,2.027777945919));
#697 = CARTESIAN_POINT('',(-5.381853608412E-02,1.985155566181));
#698 = CARTESIAN_POINT('',(-5.588967119224E-02,1.942075798376));
#699 = CARTESIAN_POINT('',(-5.787169441354E-02,1.898611015782));
#700 = CARTESIAN_POINT('',(-5.977220445352E-02,1.854815861243));
#701 = CARTESIAN_POINT('',(-6.159757698285E-02,1.810728151799));
#702 = CARTESIAN_POINT('',(-6.544542094033E-02,1.713523452126));
#703 = CARTESIAN_POINT('',(-6.743817448772E-02,1.660307833704));
#704 = CARTESIAN_POINT('',(-6.934076529102E-02,1.606776098256));
#705 = CARTESIAN_POINT('',(-7.116007702317E-02,1.552969813676));
#706 = CARTESIAN_POINT('',(-7.29015627856E-02,1.498922282218));
#707 = CARTESIAN_POINT('',(-7.456974465614E-02,1.444659940991));
#708 = CARTESIAN_POINT('',(-7.616847438272E-02,1.390203067536));
#709 = CARTESIAN_POINT('',(-8.149523004004E-02,1.200289159978));
#710 = CARTESIAN_POINT('',(-8.488232279996E-02,1.063946610356));
#711 = CARTESIAN_POINT('',(-8.791148572328E-02,0.926759795203));
#712 = CARTESIAN_POINT('',(-9.060612619136E-02,0.788887934723));
#713 = CARTESIAN_POINT('',(-9.298063340598E-02,0.650454756931));
#714 = CARTESIAN_POINT('',(-9.504029904672E-02,0.511548408377));
#715 = CARTESIAN_POINT('',(-9.678431055642E-02,0.37222746931));
#716 = CARTESIAN_POINT('',(-9.849939575005E-02,0.203505036675));
#717 = CARTESIAN_POINT('',(-9.878035597803E-02,0.174474513108));
#718 = CARTESIAN_POINT('',(-9.904725972897E-02,0.145429186076));
#719 = CARTESIAN_POINT('',(-9.93000199056E-02,0.116369615511));
#720 = CARTESIAN_POINT('',(-9.953853621746E-02,8.729635858614E-02));
#721 = CARTESIAN_POINT('',(-9.976269518085E-02,5.820996971572E-02));
#722 = CARTESIAN_POINT('',(-9.997237011891E-02,2.911100055499E-02));
#723 = CARTESIAN_POINT('',(-0.100167421162,0.));
#724 = ( GEOMETRIC_REPRESENTATION_CONTEXT(2) 
PARAMETRIC_REPRESENTATION_CONTEXT() REPRESENTATION_CONTEXT('2D SPACE',''
  ) );
#725 = ORIENTED_EDGE('',*,*,#726,.F.);
#726 = EDGE_CURVE('',#727,#539,#729,.T.);
#727 = VERTEX_POINT('',#728);
#728 = CARTESIAN_POINT('',(10.,-1.530808498934E-15,10.));
#729 = SEAM_CURVE('',#730,(#734,#741),.PCURVE_S1.);
#730 = LINE('',#731,#732);
#731 = CARTESIAN_POINT('',(2.775557561563E-16,-6.123233995737E-16,10.));
#732 = VECTOR('',#733,1.);
#733 = DIRECTION('',(1.,0.,1.110223024625E-16));
#734 = PCURVE('',#260,#735);
#735 = DEFINITIONAL_REPRESENTATION('',(#736),#740);
#736 = LINE('',#737,#738);
#737 = CARTESIAN_POINT('',(6.28318530718,-0.));
#738 = VECTOR('',#739,1.);
#739 = DIRECTION('',(0.,1.));
#740 = ( GEOMETRIC_REPRESENTATION_CONTEXT(2) 
PARAMETRIC_REPRESENTATION_CONTEXT() REPRESENTATION_CONTEXT('2D SPACE',''
  ) );
#741 = PCURVE('',#260,#742);
#742 = DEFINITIONAL_REPRESENTATION('',(#743),#747);
#743 = LINE('',#744,#745);
#744 = CARTESIAN_POINT('',(0.,-0.));
#745 = VECTOR('',#746,1.);
#746 = DIRECTION('',(0.,1.));
#747 = ( GEOMETRIC_REPRESENTATION_CONTEXT(2) 
PARAMETRIC_REPRESENTATION_CONTEXT() REPRESENTATION_CONTEXT('2D SPACE',''
  ) );
#748 = ORIENTED_EDGE('',*,*,#749,.T.);
#749 = EDGE_CURVE('',#727,#750,#752,.T.);
#750 = VERTEX_POINT('',#751);
#751 = CARTESIAN_POINT('',(10.,-2.449293598295E-15,15.));
#752 = SURFACE_CURVE('',#753,(#780,#810),.PCURVE_S1.);
#753 = B_SPLINE_CURVE_WITH_KNOTS('',7,(#754,#755,#756,#757,#758,#759,
    #760,#761,#762,#763,#764,#765,#766,#767,#768,#769,#770,#771,#772,
    #773,#774,#775,#776,#777,#778,#779),.UNSPECIFIED.,.F.,.F.,(8,6,6,6,8
    ),(0.,0.224621445013,0.500000838842,0.775411739902,1.),
  .UNSPECIFIED.);
#754 = CARTESIAN_POINT('',(10.,-3.061616997868E-16,10.));
#755 = CARTESIAN_POINT('',(10.,0.306871177236,10.));
#756 = CARTESIAN_POINT('',(9.98901312426,0.605747756828,10.043945486424)
  );
#757 = CARTESIAN_POINT('',(9.968072587438,0.889269447578,10.127718304505
    ));
#758 = CARTESIAN_POINT('',(9.939663440003,1.15121586859,10.245888701735)
  );
#759 = CARTESIAN_POINT('',(9.907195784333,1.386683819403,10.391690690352
    ));
#760 = CARTESIAN_POINT('',(9.873986953337,1.592509817085,10.556975911152
    ));
#761 = CARTESIAN_POINT('',(9.803919815204,1.98262713179,10.947093225857)
  );
#762 = CARTESIAN_POINT('',(9.766736167022,2.158206217399,11.183604823482
    ));
#763 = CARTESIAN_POINT('',(9.734281255465,2.296191878381,11.434471690261
    ));
#764 = CARTESIAN_POINT('',(9.708702356196,2.39835842046,11.694803720533)
  );
#765 = CARTESIAN_POINT('',(9.691222260607,2.466057364772,11.961034170378
    ));
#766 = CARTESIAN_POINT('',(9.682458365519,2.5,12.230303172094));
#767 = CARTESIAN_POINT('',(9.682458365519,2.5,12.769727684972));
#768 = CARTESIAN_POINT('',(9.691224225363,2.466049710366,13.038996568438
    ));
#769 = CARTESIAN_POINT('',(9.708704838611,2.398348947454,13.305210877225
    ));
#770 = CARTESIAN_POINT('',(9.734281508584,2.296189250349,13.565525017072
    ));
#771 = CARTESIAN_POINT('',(9.766734474176,2.158213066313,13.816383245076
    ));
#772 = CARTESIAN_POINT('',(9.803918236496,1.982635921662,14.05289798427)
  );
#773 = CARTESIAN_POINT('',(9.873979989908,1.592548587815,14.442985318118
    ));
#774 = CARTESIAN_POINT('',(9.907190356291,1.386723297296,14.60828781166)
  );
#775 = CARTESIAN_POINT('',(9.939665179923,1.151220280096,14.75412323266)
  );
#776 = CARTESIAN_POINT('',(9.968080470972,0.889220089963,14.872313309523
    ));
#777 = CARTESIAN_POINT('',(9.989019205961,0.605655890519,14.956078798668
    ));
#778 = CARTESIAN_POINT('',(10.,0.306786385022,15.));
#779 = CARTESIAN_POINT('',(10.,4.592425496803E-16,15.));
#780 = PCURVE('',#260,#781);
#781 = DEFINITIONAL_REPRESENTATION('',(#782),#809);
#782 = B_SPLINE_CURVE_WITH_KNOTS('',7,(#783,#784,#785,#786,#787,#788,
    #789,#790,#791,#792,#793,#794,#795,#796,#797,#798,#799,#800,#801,
    #802,#803,#804,#805,#806,#807,#808),.UNSPECIFIED.,.F.,.F.,(8,6,6,6,8
    ),(0.,0.224621445013,0.500000838842,0.775411739902,1.),
  .UNSPECIFIED.);
#783 = CARTESIAN_POINT('',(0.,10.));
#784 = CARTESIAN_POINT('',(0.122748470895,10.));
#785 = CARTESIAN_POINT('',(0.242298994778,9.98901312426));
#786 = CARTESIAN_POINT('',(0.358728921163,9.968072587438));
#787 = CARTESIAN_POINT('',(0.47186113547,9.939663440003));
#788 = CARTESIAN_POINT('',(0.581291579083,9.907195784333));
#789 = CARTESIAN_POINT('',(0.686257756011,9.873986953337));
#790 = CARTESIAN_POINT('',(0.90694143496,9.803919815204));
#791 = CARTESIAN_POINT('',(1.023498538658,9.766736167022));
#792 = CARTESIAN_POINT('',(1.136413594924,9.734281255465));
#793 = CARTESIAN_POINT('',(1.246666038022,9.708702356196));
#794 = CARTESIAN_POINT('',(1.355210302527,9.691222260607));
#795 = CARTESIAN_POINT('',(1.462917595633,9.682458365519));
#796 = CARTESIAN_POINT('',(1.678687400784,9.682458365519));
#797 = CARTESIAN_POINT('',(1.786394610527,9.691224225363));
#798 = CARTESIAN_POINT('',(1.894933208138,9.708704838611));
#799 = CARTESIAN_POINT('',(2.005178456219,9.734281508584));
#800 = CARTESIAN_POINT('',(2.1180888162,9.766734474176));
#801 = CARTESIAN_POINT('',(2.234646246327,9.803918236496));
#802 = CARTESIAN_POINT('',(2.455312965542,9.873979989908));
#803 = CARTESIAN_POINT('',(2.560283831962,9.907190356291));
#804 = CARTESIAN_POINT('',(2.669732568639,9.939665179923));
#805 = CARTESIAN_POINT('',(2.782885950408,9.968080470972));
#806 = CARTESIAN_POINT('',(2.899330410459,9.989019205961));
#807 = CARTESIAN_POINT('',(3.018878099581,10.));
#808 = CARTESIAN_POINT('',(3.14159265359,10.));
#809 = ( GEOMETRIC_REPRESENTATION_CONTEXT(2) 
PARAMETRIC_REPRESENTATION_CONTEXT() REPRESENTATION_CONTEXT('2D SPACE',''
  ) );
#810 = PCURVE('',#523,#811);
#811 = DEFINITIONAL_REPRESENTATION('',(#812),#839);
#812 = B_SPLINE_CURVE_WITH_KNOTS('',7,(#813,#814,#815,#816,#817,#818,
    #819,#820,#821,#822,#823,#824,#825,#826,#827,#828,#829,#830,#831,
    #832,#833,#834,#835,#836,#837,#838),.UNSPECIFIED.,.F.,.F.,(8,6,6,6,8
    ),(0.,0.224621445013,0.500000838842,0.775411739902,1.),
  .UNSPECIFIED.);
#813 = CARTESIAN_POINT('',(0.,10.));
#814 = CARTESIAN_POINT('',(3.068711772363E-02,10.));
#815 = CARTESIAN_POINT('',(6.057481031805E-02,10.043945486424));
#816 = CARTESIAN_POINT('',(8.897399073123E-02,10.127718304505));
#817 = CARTESIAN_POINT('',(0.11529970462,10.245888701735));
#818 = CARTESIAN_POINT('',(0.139058988016,10.391690690352));
#819 = CARTESIAN_POINT('',(0.159904458033,10.556975911152));
#820 = CARTESIAN_POINT('',(0.199540416843,10.947093225857));
#821 = CARTESIAN_POINT('',(0.217479127416,11.183604823482));
#822 = CARTESIAN_POINT('',(0.231651092365,11.434471690261));
#823 = CARTESIAN_POINT('',(0.242182737527,11.694803720533));
#824 = CARTESIAN_POINT('',(0.2491746789,11.961034170378));
#825 = CARTESIAN_POINT('',(0.252680255142,12.230303172094));
#826 = CARTESIAN_POINT('',(0.252680255142,12.769727684972));
#827 = CARTESIAN_POINT('',(0.249173888808,13.038996568438));
#828 = CARTESIAN_POINT('',(0.242181757884,13.305210877225));
#829 = CARTESIAN_POINT('',(0.231650832115,13.565525017072));
#830 = CARTESIAN_POINT('',(0.217479831234,13.816383245076));
#831 = CARTESIAN_POINT('',(0.199541309895,14.05289798427));
#832 = CARTESIAN_POINT('',(0.159908397143,14.442985318118));
#833 = CARTESIAN_POINT('',(0.139062970693,14.60828781166));
#834 = CARTESIAN_POINT('',(0.11530011002,14.75412323266));
#835 = CARTESIAN_POINT('',(8.896901423928E-02,14.872313309523));
#836 = CARTESIAN_POINT('',(6.056562360441E-02,14.956078798668));
#837 = CARTESIAN_POINT('',(3.067863850217E-02,15.));
#838 = CARTESIAN_POINT('',(0.,15.));
#839 = ( GEOMETRIC_REPRESENTATION_CONTEXT(2) 
PARAMETRIC_REPRESENTATION_CONTEXT() REPRESENTATION_CONTEXT('2D SPACE',''
  ) );
#840 = ORIENTED_EDGE('',*,*,#841,.T.);
#841 = EDGE_CURVE('',#750,#727,#842,.T.);
#842 = SURFACE_CURVE('',#843,(#870,#900),.PCURVE_S1.);
#843 = B_SPLINE_CURVE_WITH_KNOTS('',7,(#844,#845,#846,#847,#848,#849,
    #850,#851,#852,#853,#854,#855,#856,#857,#858,#859,#860,#861,#862,
    #863,#864,#865,#866,#867,#868,#869),.UNSPECIFIED.,.F.,.F.,(8,6,6,6,8
    ),(0.,0.224643414711,0.500046974177,0.775450926415,1.),
  .UNSPECIFIED.);
#844 = CARTESIAN_POINT('',(10.,-8.881784197001E-16,15.));
#845 = CARTESIAN_POINT('',(10.,-0.306871177236,15.));
#846 = CARTESIAN_POINT('',(9.98901312426,-0.605747756828,14.956054513576
    ));
#847 = CARTESIAN_POINT('',(9.968072587438,-0.889269447578,
    14.872281695494));
#848 = CARTESIAN_POINT('',(9.939663440003,-1.151215868589,
    14.754111298266));
#849 = CARTESIAN_POINT('',(9.907195784333,-1.386683819403,
    14.608309309648));
#850 = CARTESIAN_POINT('',(9.873986953337,-1.592509817085,
    14.443024088848));
#851 = CARTESIAN_POINT('',(9.803920203138,-1.982624971866,
    14.052908934067));
#852 = CARTESIAN_POINT('',(9.766735061794,-2.158212971248,
    13.816389557024));
#853 = CARTESIAN_POINT('',(9.734279954254,-2.296195172152,
    13.565518219845));
#854 = CARTESIAN_POINT('',(9.708703840814,-2.398352844666,
    13.305197908148));
#855 = CARTESIAN_POINT('',(9.691224211098,-2.466049763116,
    13.038988042248));
#856 = CARTESIAN_POINT('',(9.682458365519,-2.5,12.769727300295));
#857 = CARTESIAN_POINT('',(9.682458365519,-2.5,12.230272315028));
#858 = CARTESIAN_POINT('',(9.691224225363,-2.466049710366,
    11.961003431562));
#859 = CARTESIAN_POINT('',(9.708704838611,-2.398348947454,
    11.694789122775));
#860 = CARTESIAN_POINT('',(9.734281508584,-2.296189250349,
    11.434474982928));
#861 = CARTESIAN_POINT('',(9.766734474176,-2.158213066313,
    11.183616754924));
#862 = CARTESIAN_POINT('',(9.803918236496,-1.982635921662,
    10.947102015729));
#863 = CARTESIAN_POINT('',(9.873975292844,-1.592574739962,
    10.557040834029));
#864 = CARTESIAN_POINT('',(9.907188567406,-1.386739477272,
    10.391716274023));
#865 = CARTESIAN_POINT('',(9.939669017786,-1.151204099874,
    10.245858149817));
#866 = CARTESIAN_POINT('',(9.968086588502,-0.889170305152,
    10.127662436448));
#867 = CARTESIAN_POINT('',(9.989022741654,-0.60559099816,10.043906979275
    ));
#868 = CARTESIAN_POINT('',(10.,-0.306736747781,10.));
#869 = CARTESIAN_POINT('',(10.,-1.33226762955E-15,10.));
#870 = PCURVE('',#260,#871);
#871 = DEFINITIONAL_REPRESENTATION('',(#872),#899);
#872 = B_SPLINE_CURVE_WITH_KNOTS('',7,(#873,#874,#875,#876,#877,#878,
    #879,#880,#881,#882,#883,#884,#885,#886,#887,#888,#889,#890,#891,
    #892,#893,#894,#895,#896,#897,#898),.UNSPECIFIED.,.F.,.F.,(8,6,6,6,8
    ),(0.,0.224643414711,0.500046974177,0.775450926415,1.),
  .UNSPECIFIED.);
#873 = CARTESIAN_POINT('',(3.14159265359,10.));
#874 = CARTESIAN_POINT('',(3.264341124484,10.));
#875 = CARTESIAN_POINT('',(3.383891648367,9.98901312426));
#876 = CARTESIAN_POINT('',(3.500321574753,9.968072587438));
#877 = CARTESIAN_POINT('',(3.613453789059,9.939663440003));
#878 = CARTESIAN_POINT('',(3.722884232673,9.907195784333));
#879 = CARTESIAN_POINT('',(3.827850409601,9.873986953337));
#880 = CARTESIAN_POINT('',(4.048532866712,9.803920203138));
#881 = CARTESIAN_POINT('',(4.165094670664,9.766735061794));
#882 = CARTESIAN_POINT('',(4.278010040777,9.734279954254));
#883 = CARTESIAN_POINT('',(4.388257354312,9.708703840814));
#884 = CARTESIAN_POINT('',(4.496794086472,9.691224211098));
#885 = CARTESIAN_POINT('',(4.604498060267,9.682458365519));
#886 = CARTESIAN_POINT('',(4.820280054373,9.682458365519));
#887 = CARTESIAN_POINT('',(4.927987264117,9.691224225363));
#888 = CARTESIAN_POINT('',(5.036525861728,9.708704838611));
#889 = CARTESIAN_POINT('',(5.146771109809,9.734281508584));
#890 = CARTESIAN_POINT('',(5.25968146979,9.766734474176));
#891 = CARTESIAN_POINT('',(5.376238899917,9.803918236496));
#892 = CARTESIAN_POINT('',(5.596890825244,9.873975292844));
#893 = CARTESIAN_POINT('',(5.701870759309,9.907188567406));
#894 = CARTESIAN_POINT('',(5.811334326596,9.939669017786));
#895 = CARTESIAN_POINT('',(5.924499961775,9.968086588502));
#896 = CARTESIAN_POINT('',(6.040949026944,9.989022741654));
#897 = CARTESIAN_POINT('',(6.160490608067,10.));
#898 = CARTESIAN_POINT('',(6.28318530718,10.));
#899 = ( GEOMETRIC_REPRESENTATION_CONTEXT(2) 
PARAMETRIC_REPRESENTATION_CONTEXT() REPRESENTATION_CONTEXT('2D SPACE',''
  ) );
#900 = PCURVE('',#523,#901);
#901 = DEFINITIONAL_REPRESENTATION('',(#902),#929);
#902 = B_SPLINE_CURVE_WITH_KNOTS('',7,(#903,#904,#905,#906,#907,#908,
    #909,#910,#911,#912,#913,#914,#915,#916,#917,#918,#919,#920,#921,
    #922,#923,#924,#925,#926,#927,#928),.UNSPECIFIED.,.F.,.F.,(8,6,6,6,8
    ),(0.,0.224643414711,0.500046974177,0.775450926415,1.),
  .UNSPECIFIED.);
#903 = CARTESIAN_POINT('',(6.28318530718,15.));
#904 = CARTESIAN_POINT('',(6.252498189456,15.));
#905 = CARTESIAN_POINT('',(6.222610496862,14.956054513576));
#906 = CARTESIAN_POINT('',(6.194211316448,14.872281695494));
#907 = CARTESIAN_POINT('',(6.16788560256,14.754111298266));
#908 = CARTESIAN_POINT('',(6.144126319164,14.608309309648));
#909 = CARTESIAN_POINT('',(6.123280849146,14.443024088848));
#910 = CARTESIAN_POINT('',(6.083645109785,14.052908934067));
#911 = CARTESIAN_POINT('',(6.065705496034,13.816389557024));
#912 = CARTESIAN_POINT('',(6.051533865573,13.565518219845));
#913 = CARTESIAN_POINT('',(6.041003145594,13.305197908149));
#914 = CARTESIAN_POINT('',(6.034011413293,13.038988042248));
#915 = CARTESIAN_POINT('',(6.030505052038,12.769727300295));
#916 = CARTESIAN_POINT('',(6.030505052038,12.230272315028));
#917 = CARTESIAN_POINT('',(6.034011418371,11.961003431562));
#918 = CARTESIAN_POINT('',(6.041003549296,11.694789122775));
#919 = CARTESIAN_POINT('',(6.051534475065,11.434474982928));
#920 = CARTESIAN_POINT('',(6.065705475946,11.183616754924));
#921 = CARTESIAN_POINT('',(6.083643997284,10.947102015729));
#922 = CARTESIAN_POINT('',(6.123274252975,10.557040834029));
#923 = CARTESIAN_POINT('',(6.144120712613,10.391716274023));
#924 = CARTESIAN_POINT('',(6.167886852937,10.245858149817));
#925 = CARTESIAN_POINT('',(6.194221296846,10.127662436448));
#926 = CARTESIAN_POINT('',(6.222626171694,10.043906979275));
#927 = CARTESIAN_POINT('',(6.252511632401,10.));
#928 = CARTESIAN_POINT('',(6.28318530718,10.));
#929 = ( GEOMETRIC_REPRESENTATION_CONTEXT(2) 
PARAMETRIC_REPRESENTATION_CONTEXT() REPRESENTATION_CONTEXT('2D SPACE',''
  ) );
#930 = ORIENTED_EDGE('',*,*,#726,.T.);
#931 = ORIENTED_EDGE('',*,*,#932,.F.);
#932 = EDGE_CURVE('',#135,#539,#933,.T.);
#933 = SURFACE_CURVE('',#934,(#993,#1055),.PCURVE_S1.);
#934 = B_SPLINE_CURVE_WITH_KNOTS('',8,(#935,#936,#937,#938,#939,#940,
    #941,#942,#943,#944,#945,#946,#947,#948,#949,#950,#951,#952,#953,
    #954,#955,#956,#957,#958,#959,#960,#961,#962,#963,#964,#965,#966,
    #967,#968,#969,#970,#971,#972,#973,#974,#975,#976,#977,#978,#979,
    #980,#981,#982,#983,#984,#985,#986,#987,#988,#989,#990,#991,#992),
  .UNSPECIFIED.,.F.,.F.,(9,7,7,7,7,7,7,7,9),(0.,3.228287086069E-02,
    0.216334000673,0.393051397265,0.555549113021,0.697853227892,
    0.865836542525,0.938782849645,1.),.UNSPECIFIED.);
#935 = CARTESIAN_POINT('',(24.874685927665,-2.5,12.5));
#936 = CARTESIAN_POINT('',(24.893699517196,-2.5,12.48864903037));
#937 = CARTESIAN_POINT('',(24.912715797329,-2.499941099658,
    12.477299889332));
#938 = CARTESIAN_POINT('',(24.931734692159,-2.499823332168,
    12.465952609764));
#939 = CARTESIAN_POINT('',(24.950756125832,-2.499646723925,
    12.454607224515));
#940 = CARTESIAN_POINT('',(24.969780022545,-2.499411294519,
    12.443263766413));
#941 = CARTESIAN_POINT('',(24.988806306548,-2.499117056739,
    12.431922268261));
#942 = CARTESIAN_POINT('',(25.00783490214,-2.498764016571,
    12.420582762838));
#943 = CARTESIAN_POINT('',(25.135364326006,-2.496004171425,
    12.344608032972));
#944 = CARTESIAN_POINT('',(25.243935150139,-2.491744960455,
    12.280036883616));
#945 = CARTESIAN_POINT('',(25.352564770499,-2.485574081338,
    12.215537555719));
#946 = CARTESIAN_POINT('',(25.461239191107,-2.477484393877,12.1511161151
    ));
#947 = CARTESIAN_POINT('',(25.56994379774,-2.467461470843,
    12.086779002619));
#948 = CARTESIAN_POINT('',(25.678663300096,-2.455482992176,
    12.022533064284));
#949 = CARTESIAN_POINT('',(25.787381673955,-2.441518139205,
    11.958385581362));
#950 = CARTESIAN_POINT('',(26.000451236581,-2.410173024648,
    11.832854819596));
#951 = CARTESIAN_POINT('',(26.104802617024,-2.392951320748,
    11.771463958777));
#952 = CARTESIAN_POINT('',(26.209121790635,-2.373825551428,
    11.710178317092));
#953 = CARTESIAN_POINT('',(26.313392287223,-2.352752364898,
    11.64900568331));
#954 = CARTESIAN_POINT('',(26.417595403733,-2.329679258498,
    11.587955149029));
#955 = CARTESIAN_POINT('',(26.52170998752,-2.304542453879,
    11.527037221791));
#956 = CARTESIAN_POINT('',(26.625712219642,-2.277264772199,
    11.466263938207));
#957 = CARTESIAN_POINT('',(26.825081158082,-2.220616889481,
    11.349911438408));
#958 = CARTESIAN_POINT('',(26.920466632592,-2.191592163072,
    11.294309349323));
#959 = CARTESIAN_POINT('',(27.01571265644,-2.160606602705,
    11.238852407819));
#960 = CARTESIAN_POINT('',(27.110794874627,-2.127575172623,
    11.183553316027));
#961 = CARTESIAN_POINT('',(27.20568359209,-2.092399500668,
    11.128427843162));
#962 = CARTESIAN_POINT('',(27.300343241338,-2.054964064659,
    11.073495107865));
#963 = CARTESIAN_POINT('',(27.394731467999,-2.015129593216,
    11.018778079935));
#964 = CARTESIAN_POINT('',(27.571174567602,-1.935587554001,
    10.916599982711));
#965 = CARTESIAN_POINT('',(27.653297443151,-1.896482249006,
    10.869086278635));
#966 = CARTESIAN_POINT('',(27.735137564822,-1.855291116897,
    10.82177879246));
#967 = CARTESIAN_POINT('',(27.816653565723,-1.811877643228,
    10.774700294123));
#968 = CARTESIAN_POINT('',(27.897791569674,-1.766085083119,
    10.727880700175));
#969 = CARTESIAN_POINT('',(27.978483578834,-1.717728355094,
    10.681357953532));
#970 = CARTESIAN_POINT('',(28.058644287484,-1.66657819382,
    10.635179803071));
#971 = CARTESIAN_POINT('',(28.23203834347,-1.548309046713,
    10.535373231664));
#972 = CARTESIAN_POINT('',(28.324832569843,-1.480100678359,
    10.482012208349));
#973 = CARTESIAN_POINT('',(28.416566382407,-1.407131324328,
    10.429310472809));
#974 = CARTESIAN_POINT('',(28.507048301573,-1.328711917465,
    10.377375432656));
#975 = CARTESIAN_POINT('',(28.59591078369,-1.244118459336,10.32641521594
    ));
#976 = CARTESIAN_POINT('',(28.682494811906,-1.152304749996,
    10.27680377272));
#977 = CARTESIAN_POINT('',(28.765944971067,-1.0521513117,10.229025935109
    ));
#978 = CARTESIAN_POINT('',(28.878982928137,-0.893005915568,
    10.164353281702));
#979 = CARTESIAN_POINT('',(28.912278437827,-0.842860222841,
    10.145310118918));
#980 = CARTESIAN_POINT('',(28.944540364877,-0.790541613564,
    10.126863975796));
#981 = CARTESIAN_POINT('',(28.975592206116,-0.735854247883,
    10.109115100831));
#982 = CARTESIAN_POINT('',(29.005185884178,-0.678619743579,
    10.092204516415));
#983 = CARTESIAN_POINT('',(29.033002107776,-0.618678768054,
    10.076313775195));
#984 = CARTESIAN_POINT('',(29.05865073198,-0.555892630324,
    10.061664716418));
#985 = CARTESIAN_POINT('',(29.100990019174,-0.434968805791,
    10.037487413802));
#986 = CARTESIAN_POINT('',(29.118472167959,-0.377666794546,
    10.027506397258));
#987 = CARTESIAN_POINT('',(29.133791895497,-0.318299459526,
    10.018761504368));
#988 = CARTESIAN_POINT('',(29.146597078347,-0.257018521982,
    10.011453044088));
#989 = CARTESIAN_POINT('',(29.156533237152,-0.194080250941,
    10.005782655592));
#990 = CARTESIAN_POINT('',(29.16328953367,-0.129868384052,
    10.001927172731));
#991 = CARTESIAN_POINT('',(29.166666666667,-6.49265225011E-02,10.));
#992 = CARTESIAN_POINT('',(29.166666666667,-4.440892098501E-16,10.));
#993 = PCURVE('',#260,#994);
#994 = DEFINITIONAL_REPRESENTATION('',(#995),#1054);
#995 = B_SPLINE_CURVE_WITH_KNOTS('',8,(#996,#997,#998,#999,#1000,#1001,
    #1002,#1003,#1004,#1005,#1006,#1007,#1008,#1009,#1010,#1011,#1012,
    #1013,#1014,#1015,#1016,#1017,#1018,#1019,#1020,#1021,#1022,#1023,
    #1024,#1025,#1026,#1027,#1028,#1029,#1030,#1031,#1032,#1033,#1034,
    #1035,#1036,#1037,#1038,#1039,#1040,#1041,#1042,#1043,#1044,#1045,
    #1046,#1047,#1048,#1049,#1050,#1051,#1052,#1053),.UNSPECIFIED.,.F.,
  .F.,(9,7,7,7,7,7,7,7,9),(0.,3.228287086069E-02,0.216334000673,
    0.393051397265,0.555549113021,0.697853227892,0.865836542525,
    0.938782849645,1.),.UNSPECIFIED.);
#996 = CARTESIAN_POINT('',(4.712388980385,24.874685927665));
#997 = CARTESIAN_POINT('',(4.716929368237,24.893699517196));
#998 = CARTESIAN_POINT('',(4.721469024728,24.912715797329));
#999 = CARTESIAN_POINT('',(4.726008079185,24.931734692159));
#1000 = CARTESIAN_POINT('',(4.730546660904,24.950756125832));
#1001 = CARTESIAN_POINT('',(4.73508489915,24.969780022545));
#1002 = CARTESIAN_POINT('',(4.739622923157,24.988806306548));
#1003 = CARTESIAN_POINT('',(4.744160862125,25.00783490214));
#1004 = CARTESIAN_POINT('',(4.774570798195,25.135364326006));
#1005 = CARTESIAN_POINT('',(4.800444063468,25.243935150139));
#1006 = CARTESIAN_POINT('',(4.826342800621,25.352564770499));
#1007 = CARTESIAN_POINT('',(4.852291059919,25.461239191107));
#1008 = CARTESIAN_POINT('',(4.878313307271,25.56994379774));
#1009 = CARTESIAN_POINT('',(4.904434949194,25.678663300096));
#1010 = CARTESIAN_POINT('',(4.930682857773,25.787381673955));
#1011 = CARTESIAN_POINT('',(4.982436873433,26.000451236581));
#1012 = CARTESIAN_POINT('',(5.007930515,26.104802617024));
#1013 = CARTESIAN_POINT('',(5.033592778815,26.209121790635));
#1014 = CARTESIAN_POINT('',(5.059450731868,26.313392287223));
#1015 = CARTESIAN_POINT('',(5.085533502721,26.417595403733));
#1016 = CARTESIAN_POINT('',(5.111873234591,26.52170998752));
#1017 = CARTESIAN_POINT('',(5.138506038429,26.625712219642));
#1018 = CARTESIAN_POINT('',(5.190269943731,26.825081158082));
#1019 = CARTESIAN_POINT('',(5.21534884387,26.920466632592));
#1020 = CARTESIAN_POINT('',(5.240742059097,27.01571265644));
#1021 = CARTESIAN_POINT('',(5.266485469133,27.110794874627));
#1022 = CARTESIAN_POINT('',(5.292618969251,27.20568359209));
#1023 = CARTESIAN_POINT('',(5.319188064551,27.300343241338));
#1024 = CARTESIAN_POINT('',(5.346246510024,27.394731467999));
#1025 = CARTESIAN_POINT('',(5.398041953152,27.571174567602));
#1026 = CARTESIAN_POINT('',(5.422647633779,27.653297443151));
#1027 = CARTESIAN_POINT('',(5.44772215036,27.735137564822));
#1028 = CARTESIAN_POINT('',(5.473316841358,27.816653565723));
#1029 = CARTESIAN_POINT('',(5.49948964869,27.897791569674));
#1030 = CARTESIAN_POINT('',(5.526308490823,27.978483578834));
#1031 = CARTESIAN_POINT('',(5.553857631881,28.058644287484));
#1032 = CARTESIAN_POINT('',(5.615759415834,28.23203834347));
#1033 = CARTESIAN_POINT('',(5.650376255828,28.324832569843));
#1034 = CARTESIAN_POINT('',(5.686334939146,28.416566382407));
#1035 = CARTESIAN_POINT('',(5.723895110019,28.507048301573));
#1036 = CARTESIAN_POINT('',(5.763316072655,28.59591078369));
#1037 = CARTESIAN_POINT('',(5.804977552219,28.682494811906));
#1038 = CARTESIAN_POINT('',(5.849286432664,28.765944971067));
#1039 = CARTESIAN_POINT('',(5.918000110148,28.878982928137));
#1040 = CARTESIAN_POINT('',(5.939450259535,28.912278437827));
#1041 = CARTESIAN_POINT('',(5.961629621575,28.944540364877));
#1042 = CARTESIAN_POINT('',(5.98461279041,28.975592206116));
#1043 = CARTESIAN_POINT('',(6.008466972711,29.005185884178));
#1044 = CARTESIAN_POINT('',(6.033253522446,29.033002107776));
#1045 = CARTESIAN_POINT('',(6.059029475655,29.05865073198));
#1046 = CARTESIAN_POINT('',(6.108356325628,29.100990019174));
#1047 = CARTESIAN_POINT('',(6.131614964639,29.118472167959));
#1048 = CARTESIAN_POINT('',(6.155604376311,29.133791895497));
#1049 = CARTESIAN_POINT('',(6.18027107398,29.146597078348));
#1050 = CARTESIAN_POINT('',(6.205526422031,29.156533237152));
#1051 = CARTESIAN_POINT('',(6.231238011313,29.16328953367));
#1052 = CARTESIAN_POINT('',(6.257214698179,29.166666666667));
#1053 = CARTESIAN_POINT('',(6.28318530718,29.166666666667));
#1054 = ( GEOMETRIC_REPRESENTATION_CONTEXT(2) 
PARAMETRIC_REPRESENTATION_CONTEXT() REPRESENTATION_CONTEXT('2D SPACE',''
  ) );
#1055 = PCURVE('',#344,#1056);
#1056 = DEFINITIONAL_REPRESENTATION('',(#1057),#1116);
#1057 = B_SPLINE_CURVE_WITH_KNOTS('',8,(#1058,#1059,#1060,#1061,#1062,
    #1063,#1064,#1065,#1066,#1067,#1068,#1069,#1070,#1071,#1072,#1073,
    #1074,#1075,#1076,#1077,#1078,#1079,#1080,#1081,#1082,#1083,#1084,
    #1085,#1086,#1087,#1088,#1089,#1090,#1091,#1092,#1093,#1094,#1095,
    #1096,#1097,#1098,#1099,#1100,#1101,#1102,#1103,#1104,#1105,#1106,
    #1107,#1108,#1109,#1110,#1111,#1112,#1113,#1114,#1115),
  .UNSPECIFIED.,.F.,.F.,(9,7,7,7,7,7,7,7,9),(0.,3.228287086069E-02,
    0.216334000673,0.393051397265,0.555549113021,0.697853227892,
    0.865836542525,0.938782849645,1.),.UNSPECIFIED.);
#1058 = CARTESIAN_POINT('',(-6.183017886018,0.));
#1059 = CARTESIAN_POINT('',(-6.183093940376,1.135096963017E-02));
#1060 = CARTESIAN_POINT('',(-6.183172218149,2.270011066754E-02));
#1061 = CARTESIAN_POINT('',(-6.183252711025,3.404739023642E-02));
#1062 = CARTESIAN_POINT('',(-6.183335411002,4.539277548536E-02));
#1063 = CARTESIAN_POINT('',(-6.183420310388,5.673623358717E-02));
#1064 = CARTESIAN_POINT('',(-6.183507401805,6.807773173894E-02));
#1065 = CARTESIAN_POINT('',(-6.183596678184,7.941723716198E-02));
#1066 = CARTESIAN_POINT('',(-6.184209533712,0.155391967028));
#1067 = CARTESIAN_POINT('',(-6.184801728187,0.219963116384));
#1068 = CARTESIAN_POINT('',(-6.185463477389,0.284462444281));
#1069 = CARTESIAN_POINT('',(-6.186193844195,0.3488838849));
#1070 = CARTESIAN_POINT('',(-6.18699220411,0.413220997381));
#1071 = CARTESIAN_POINT('',(-6.187858256218,0.477466935716));
#1072 = CARTESIAN_POINT('',(-6.188792034136,0.541614418638));
#1073 = CARTESIAN_POINT('',(-6.190755878605,0.667145180404));
#1074 = CARTESIAN_POINT('',(-6.191780610915,0.728536041223));
#1075 = CARTESIAN_POINT('',(-6.192868486576,0.789821682908));
#1076 = CARTESIAN_POINT('',(-6.194020142703,0.85099431669));
#1077 = CARTESIAN_POINT('',(-6.19523654773,0.912044850971));
#1078 = CARTESIAN_POINT('',(-6.196519068283,0.972962778209));
#1079 = CARTESIAN_POINT('',(-6.197869536063,1.033736061793));
#1080 = CARTESIAN_POINT('',(-6.200596769498,1.150088561592));
#1081 = CARTESIAN_POINT('',(-6.201962647992,1.205690650677));
#1082 = CARTESIAN_POINT('',(-6.203389817192,1.261147592181));
#1083 = CARTESIAN_POINT('',(-6.204880553299,1.316446683973));
#1084 = CARTESIAN_POINT('',(-6.206437574442,1.371572156838));
#1085 = CARTESIAN_POINT('',(-6.208064167763,1.426504892135));
#1086 = CARTESIAN_POINT('',(-6.209764410883,1.481221920065));
#1087 = CARTESIAN_POINT('',(-6.213101478608,1.583400017289));
#1088 = CARTESIAN_POINT('',(-6.214719804777,1.630913721365));
#1089 = CARTESIAN_POINT('',(-6.216401996038,1.67822120754));
#1090 = CARTESIAN_POINT('',(-6.218152218068,1.725299705877));
#1091 = CARTESIAN_POINT('',(-6.219975286844,1.772119299825));
#1092 = CARTESIAN_POINT('',(-6.221876946386,1.818642046468));
#1093 = CARTESIAN_POINT('',(-6.223864409849,1.864820196929));
#1094 = CARTESIAN_POINT('',(-6.2284057572,1.964626768336));
#1095 = CARTESIAN_POINT('',(-6.230992267854,2.017987791651));
#1096 = CARTESIAN_POINT('',(-6.233726097069,2.070689527192));
#1097 = CARTESIAN_POINT('',(-6.236629692794,2.122624567343));
#1098 = CARTESIAN_POINT('',(-6.239726185446,2.173584784061));
#1099 = CARTESIAN_POINT('',(-6.243049404933,2.22319622728));
#1100 = CARTESIAN_POINT('',(-6.246635567973,2.270974064891));
#1101 = CARTESIAN_POINT('',(-6.252274741127,2.335646718298));
#1102 = CARTESIAN_POINT('',(-6.254044567776,2.354689881082));
#1103 = CARTESIAN_POINT('',(-6.255884009823,2.373136024204));
#1104 = CARTESIAN_POINT('',(-6.257799588609,2.390884899169));
#1105 = CARTESIAN_POINT('',(-6.259797212315,2.407795483585));
#1106 = CARTESIAN_POINT('',(-6.261882203739,2.423686224805));
#1107 = CARTESIAN_POINT('',(-6.264059328068,2.438335283582));
#1108 = CARTESIAN_POINT('',(-6.268240754622,2.462512586198));
#1109 = CARTESIAN_POINT('',(-6.270217947074,2.472493602742));
#1110 = CARTESIAN_POINT('',(-6.272262431172,2.481238495632));
#1111 = CARTESIAN_POINT('',(-6.274369251964,2.488546955912));
#1112 = CARTESIAN_POINT('',(-6.276530126337,2.494217344408));
#1113 = CARTESIAN_POINT('',(-6.278732679069,2.498072827269));
#1114 = CARTESIAN_POINT('',(-6.28095925498,2.5));
#1115 = CARTESIAN_POINT('',(-6.28318530718,2.5));
#1116 = ( GEOMETRIC_REPRESENTATION_CONTEXT(2) 
PARAMETRIC_REPRESENTATION_CONTEXT() REPRESENTATION_CONTEXT('2D SPACE',''
  ) );
#1117 = ORIENTED_EDGE('',*,*,#134,.F.);
#1118 = ORIENTED_EDGE('',*,*,#356,.F.);
#1119 = ADVANCED_FACE('',(#1120),#344,.T.);
#1120 = FACE_BOUND('',#1121,.F.);
#1121 = EDGE_LOOP('',(#1122,#1123,#1124,#1125,#1148,#1175));
#1122 = ORIENTED_EDGE('',*,*,#538,.T.);
#1123 = ORIENTED_EDGE('',*,*,#327,.T.);
#1124 = ORIENTED_EDGE('',*,*,#932,.T.);
#1125 = ORIENTED_EDGE('',*,*,#1126,.T.);
#1126 = EDGE_CURVE('',#539,#1127,#1129,.T.);
#1127 = VERTEX_POINT('',#1128);
#1128 = CARTESIAN_POINT('',(35.,0.,6.5));
#1129 = SEAM_CURVE('',#1130,(#1134,#1141),.PCURVE_S1.);
#1130 = LINE('',#1131,#1132);
#1131 = CARTESIAN_POINT('',(25.,0.,12.5));
#1132 = VECTOR('',#1133,1.);
#1133 = DIRECTION('',(0.857492925713,0.,-0.514495755428));
#1134 = PCURVE('',#344,#1135);
#1135 = DEFINITIONAL_REPRESENTATION('',(#1136),#1140);
#1136 = LINE('',#1137,#1138);
#1137 = CARTESIAN_POINT('',(-0.,0.));
#1138 = VECTOR('',#1139,1.);
#1139 = DIRECTION('',(-0.,1.));
#1140 = ( GEOMETRIC_REPRESENTATION_CONTEXT(2) 
PARAMETRIC_REPRESENTATION_CONTEXT() REPRESENTATION_CONTEXT('2D SPACE',''
  ) );
#1141 = PCURVE('',#344,#1142);
#1142 = DEFINITIONAL_REPRESENTATION('',(#1143),#1147);
#1143 = LINE('',#1144,#1145);
#1144 = CARTESIAN_POINT('',(-6.28318530718,0.));
#1145 = VECTOR('',#1146,1.);
#1146 = DIRECTION('',(-0.,1.));
#1147 = ( GEOMETRIC_REPRESENTATION_CONTEXT(2) 
PARAMETRIC_REPRESENTATION_CONTEXT() REPRESENTATION_CONTEXT('2D SPACE',''
  ) );
#1148 = ORIENTED_EDGE('',*,*,#1149,.F.);
#1149 = EDGE_CURVE('',#1127,#1127,#1150,.T.);
#1150 = SURFACE_CURVE('',#1151,(#1156,#1163),.PCURVE_S1.);
#1151 = CIRCLE('',#1152,35.);
#1152 = AXIS2_PLACEMENT_3D('',#1153,#1154,#1155);
#1153 = CARTESIAN_POINT('',(0.,0.,6.5));
#1154 = DIRECTION('',(0.,0.,1.));
#1155 = DIRECTION('',(1.,0.,-0.));
#1156 = PCURVE('',#344,#1157);
#1157 = DEFINITIONAL_REPRESENTATION('',(#1158),#1162);
#1158 = LINE('',#1159,#1160);
#1159 = CARTESIAN_POINT('',(-0.,6.));
#1160 = VECTOR('',#1161,1.);
#1161 = DIRECTION('',(-1.,0.));
#1162 = ( GEOMETRIC_REPRESENTATION_CONTEXT(2) 
PARAMETRIC_REPRESENTATION_CONTEXT() REPRESENTATION_CONTEXT('2D SPACE',''
  ) );
#1163 = PCURVE('',#1164,#1169);
#1164 = CYLINDRICAL_SURFACE('',#1165,35.);
#1165 = AXIS2_PLACEMENT_3D('',#1166,#1167,#1168);
#1166 = CARTESIAN_POINT('',(0.,0.,0.));
#1167 = DIRECTION('',(0.,0.,1.));
#1168 = DIRECTION('',(1.,0.,-0.));
#1169 = DEFINITIONAL_REPRESENTATION('',(#1170),#1174);
#1170 = LINE('',#1171,#1172);
#1171 = CARTESIAN_POINT('',(0.,6.5));
#1172 = VECTOR('',#1173,1.);
#1173 = DIRECTION('',(1.,0.));
#1174 = ( GEOMETRIC_REPRESENTATION_CONTEXT(2) 
PARAMETRIC_REPRESENTATION_CONTEXT() REPRESENTATION_CONTEXT('2D SPACE',''
  ) );
#1175 = ORIENTED_EDGE('',*,*,#1126,.F.);
#1176 = ADVANCED_FACE('',(#1177),#523,.F.);
#1177 = FACE_BOUND('',#1178,.F.);
#1178 = EDGE_LOOP('',(#1179,#1200,#1201,#1202,#1203,#1226,#1253,#1254));
#1179 = ORIENTED_EDGE('',*,*,#1180,.T.);
#1180 = EDGE_CURVE('',#750,#507,#1181,.T.);
#1181 = SEAM_CURVE('',#1182,(#1186,#1193),.PCURVE_S1.);
#1182 = LINE('',#1183,#1184);
#1183 = CARTESIAN_POINT('',(10.,-2.449293598295E-15,0.));
#1184 = VECTOR('',#1185,1.);
#1185 = DIRECTION('',(0.,0.,1.));
#1186 = PCURVE('',#523,#1187);
#1187 = DEFINITIONAL_REPRESENTATION('',(#1188),#1192);
#1188 = LINE('',#1189,#1190);
#1189 = CARTESIAN_POINT('',(6.28318530718,-0.));
#1190 = VECTOR('',#1191,1.);
#1191 = DIRECTION('',(0.,1.));
#1192 = ( GEOMETRIC_REPRESENTATION_CONTEXT(2) 
PARAMETRIC_REPRESENTATION_CONTEXT() REPRESENTATION_CONTEXT('2D SPACE',''
  ) );
#1193 = PCURVE('',#523,#1194);
#1194 = DEFINITIONAL_REPRESENTATION('',(#1195),#1199);
#1195 = LINE('',#1196,#1197);
#1196 = CARTESIAN_POINT('',(0.,-0.));
#1197 = VECTOR('',#1198,1.);
#1198 = DIRECTION('',(0.,1.));
#1199 = ( GEOMETRIC_REPRESENTATION_CONTEXT(2) 
PARAMETRIC_REPRESENTATION_CONTEXT() REPRESENTATION_CONTEXT('2D SPACE',''
  ) );
#1200 = ORIENTED_EDGE('',*,*,#506,.F.);
#1201 = ORIENTED_EDGE('',*,*,#1180,.F.);
#1202 = ORIENTED_EDGE('',*,*,#749,.F.);
#1203 = ORIENTED_EDGE('',*,*,#1204,.F.);
#1204 = EDGE_CURVE('',#1205,#727,#1207,.T.);
#1205 = VERTEX_POINT('',#1206);
#1206 = CARTESIAN_POINT('',(10.,-2.449293598295E-15,0.));
#1207 = SEAM_CURVE('',#1208,(#1212,#1219),.PCURVE_S1.);
#1208 = LINE('',#1209,#1210);
#1209 = CARTESIAN_POINT('',(10.,-2.449293598295E-15,0.));
#1210 = VECTOR('',#1211,1.);
#1211 = DIRECTION('',(0.,0.,1.));
#1212 = PCURVE('',#523,#1213);
#1213 = DEFINITIONAL_REPRESENTATION('',(#1214),#1218);
#1214 = LINE('',#1215,#1216);
#1215 = CARTESIAN_POINT('',(6.28318530718,-0.));
#1216 = VECTOR('',#1217,1.);
#1217 = DIRECTION('',(0.,1.));
#1218 = ( GEOMETRIC_REPRESENTATION_CONTEXT(2) 
PARAMETRIC_REPRESENTATION_CONTEXT() REPRESENTATION_CONTEXT('2D SPACE',''
  ) );
#1219 = PCURVE('',#523,#1220);
#1220 = DEFINITIONAL_REPRESENTATION('',(#1221),#1225);
#1221 = LINE('',#1222,#1223);
#1222 = CARTESIAN_POINT('',(0.,-0.));
#1223 = VECTOR('',#1224,1.);
#1224 = DIRECTION('',(0.,1.));
#1225 = ( GEOMETRIC_REPRESENTATION_CONTEXT(2) 
PARAMETRIC_REPRESENTATION_CONTEXT() REPRESENTATION_CONTEXT('2D SPACE',''
  ) );
#1226 = ORIENTED_EDGE('',*,*,#1227,.T.);
#1227 = EDGE_CURVE('',#1205,#1205,#1228,.T.);
#1228 = SURFACE_CURVE('',#1229,(#1234,#1241),.PCURVE_S1.);
#1229 = CIRCLE('',#1230,10.);
#1230 = AXIS2_PLACEMENT_3D('',#1231,#1232,#1233);
#1231 = CARTESIAN_POINT('',(0.,0.,0.));
#1232 = DIRECTION('',(0.,0.,1.));
#1233 = DIRECTION('',(1.,0.,-0.));
#1234 = PCURVE('',#523,#1235);
#1235 = DEFINITIONAL_REPRESENTATION('',(#1236),#1240);
#1236 = LINE('',#1237,#1238);
#1237 = CARTESIAN_POINT('',(0.,0.));
#1238 = VECTOR('',#1239,1.);
#1239 = DIRECTION('',(1.,0.));
#1240 = ( GEOMETRIC_REPRESENTATION_CONTEXT(2) 
PARAMETRIC_REPRESENTATION_CONTEXT() REPRESENTATION_CONTEXT('2D SPACE',''
  ) );
#1241 = PCURVE('',#1242,#1247);
#1242 = PLANE('',#1243);
#1243 = AXIS2_PLACEMENT_3D('',#1244,#1245,#1246);
#1244 = CARTESIAN_POINT('',(0.,0.,0.));
#1245 = DIRECTION('',(0.,0.,1.));
#1246 = DIRECTION('',(1.,0.,-0.));
#1247 = DEFINITIONAL_REPRESENTATION('',(#1248),#1252);
#1248 = CIRCLE('',#1249,10.);
#1249 = AXIS2_PLACEMENT_2D('',#1250,#1251);
#1250 = CARTESIAN_POINT('',(0.,0.));
#1251 = DIRECTION('',(1.,0.));
#1252 = ( GEOMETRIC_REPRESENTATION_CONTEXT(2) 
PARAMETRIC_REPRESENTATION_CONTEXT() REPRESENTATION_CONTEXT('2D SPACE',''
  ) );
#1253 = ORIENTED_EDGE('',*,*,#1204,.T.);
#1254 = ORIENTED_EDGE('',*,*,#841,.F.);
#1255 = ADVANCED_FACE('',(#1256),#1164,.T.);
#1256 = FACE_BOUND('',#1257,.T.);
#1257 = EDGE_LOOP('',(#1258,#1259,#1282,#1304));
#1258 = ORIENTED_EDGE('',*,*,#1149,.F.);
#1259 = ORIENTED_EDGE('',*,*,#1260,.F.);
#1260 = EDGE_CURVE('',#1261,#1127,#1263,.T.);
#1261 = VERTEX_POINT('',#1262);
#1262 = CARTESIAN_POINT('',(35.,-8.572527594031E-15,0.));
#1263 = SEAM_CURVE('',#1264,(#1268,#1275),.PCURVE_S1.);
#1264 = LINE('',#1265,#1266);
#1265 = CARTESIAN_POINT('',(35.,-8.572527594031E-15,0.));
#1266 = VECTOR('',#1267,1.);
#1267 = DIRECTION('',(0.,0.,1.));
#1268 = PCURVE('',#1164,#1269);
#1269 = DEFINITIONAL_REPRESENTATION('',(#1270),#1274);
#1270 = LINE('',#1271,#1272);
#1271 = CARTESIAN_POINT('',(6.28318530718,-0.));
#1272 = VECTOR('',#1273,1.);
#1273 = DIRECTION('',(0.,1.));
#1274 = ( GEOMETRIC_REPRESENTATION_CONTEXT(2) 
PARAMETRIC_REPRESENTATION_CONTEXT() REPRESENTATION_CONTEXT('2D SPACE',''
  ) );
#1275 = PCURVE('',#1164,#1276);
#1276 = DEFINITIONAL_REPRESENTATION('',(#1277),#1281);
#1277 = LINE('',#1278,#1279);
#1278 = CARTESIAN_POINT('',(0.,-0.));
#1279 = VECTOR('',#1280,1.);
#1280 = DIRECTION('',(0.,1.));
#1281 = ( GEOMETRIC_REPRESENTATION_CONTEXT(2) 
PARAMETRIC_REPRESENTATION_CONTEXT() REPRESENTATION_CONTEXT('2D SPACE',''
  ) );
#1282 = ORIENTED_EDGE('',*,*,#1283,.T.);
#1283 = EDGE_CURVE('',#1261,#1261,#1284,.T.);
#1284 = SURFACE_CURVE('',#1285,(#1290,#1297),.PCURVE_S1.);
#1285 = CIRCLE('',#1286,35.);
#1286 = AXIS2_PLACEMENT_3D('',#1287,#1288,#1289);
#1287 = CARTESIAN_POINT('',(0.,0.,0.));
#1288 = DIRECTION('',(0.,0.,1.));
#1289 = DIRECTION('',(1.,0.,-0.));
#1290 = PCURVE('',#1164,#1291);
#1291 = DEFINITIONAL_REPRESENTATION('',(#1292),#1296);
#1292 = LINE('',#1293,#1294);
#1293 = CARTESIAN_POINT('',(0.,0.));
#1294 = VECTOR('',#1295,1.);
#1295 = DIRECTION('',(1.,0.));
#1296 = ( GEOMETRIC_REPRESENTATION_CONTEXT(2) 
PARAMETRIC_REPRESENTATION_CONTEXT() REPRESENTATION_CONTEXT('2D SPACE',''
  ) );
#1297 = PCURVE('',#1242,#1298);
#1298 = DEFINITIONAL_REPRESENTATION('',(#1299),#1303);
#1299 = CIRCLE('',#1300,35.);
#1300 = AXIS2_PLACEMENT_2D('',#1301,#1302);
#1301 = CARTESIAN_POINT('',(0.,0.));
#1302 = DIRECTION('',(1.,0.));
#1303 = ( GEOMETRIC_REPRESENTATION_CONTEXT(2) 
PARAMETRIC_REPRESENTATION_CONTEXT() REPRESENTATION_CONTEXT('2D SPACE',''
  ) );
#1304 = ORIENTED_EDGE('',*,*,#1260,.T.);
#1305 = ADVANCED_FACE('',(#1306,#1309),#1242,.F.);
#1306 = FACE_BOUND('',#1307,.F.);
#1307 = EDGE_LOOP('',(#1308));
#1308 = ORIENTED_EDGE('',*,*,#1283,.T.);
#1309 = FACE_BOUND('',#1310,.F.);
#1310 = EDGE_LOOP('',(#1311));
#1311 = ORIENTED_EDGE('',*,*,#1227,.F.);
#1312 = ( GEOMETRIC_REPRESENTATION_CONTEXT(3) 
GLOBAL_UNCERTAINTY_ASSIGNED_CONTEXT((#1316)) 
GLOBAL_UNIT_ASSIGNED_CONTEXT((#1313,#1314,#1315)) REPRESENTATION_CONTEXT
('Context #1','3D Context with UNIT and UNCERTAINTY') );
#1313 = ( LENGTH_UNIT() NAMED_UNIT(*) SI_UNIT(.MILLI.,.METRE.) );
#1314 = ( NAMED_UNIT(*) PLANE_ANGLE_UNIT() SI_UNIT($,.RADIAN.) );
#1315 = ( NAMED_UNIT(*) SI_UNIT($,.STERADIAN.) SOLID_ANGLE_UNIT() );
#1316 = UNCERTAINTY_MEASURE_WITH_UNIT(LENGTH_MEASURE(1.E-07),#1313,
  'distance_accuracy_value','confusion accuracy');
#1317 = PRODUCT_RELATED_PRODUCT_CATEGORY('part',$,(#7));
ENDSEC;
END-ISO-10303-21;
