# Cadless export: model
v 140 -3.42901e-14 32
v 139.826 6.97842 32
v 139.304 13.9395 32
v 138.436 20.8659 32
v 137.224 27.7405 32
v 135.671 34.546 32
v 133.78 41.2657 32
v 131.557 47.8828 32
v 129.007 54.3809 32
v 126.136 60.7437 32
v 122.951 66.9556 32
v 119.461 73.0009 32
v 115.673 78.8648 32
v 111.599 84.5326 32
v 107.246 89.9903 32
v 102.627 95.2242 32
v 97.7532 100.221 32
v 92.636 104.969 32
v 87.2886 109.456 32
v 81.7241 113.671 32
v 75.9565 117.604 32
v 70 121.244 32
v 63.8695 124.582 32
v 57.5802 127.611 32
v 51.1477 130.322 32
v 44.5881 132.71 32
v 37.9177 134.767 32
v 31.1529 136.49 32
v 24.3107 137.873 32
v 17.4081 138.913 32
v 10.4622 139.609 32
v 3.4903 139.956 32
v -3.4903 139.956 32
v -10.4622 139.609 32
v -17.4081 138.913 32
v -24.3107 137.873 32
v -31.1529 136.49 32
v -37.9177 134.767 32
v -44.5881 132.71 32
v -51.1477 130.322 32
v -57.5802 127.611 32
v -63.8695 124.582 32
v -70 121.244 32
v -75.9565 117.604 32
v -81.7241 113.671 32
v -87.2886 109.456 32
v -92.636 104.969 32
v -97.7532 100.221 32
v -102.627 95.2242 32
v -107.246 89.9903 32
v -111.599 84.5326 32
v -115.673 78.8648 32
v -119.461 73.0009 32
v -122.951 66.9556 32
v -126.136 60.7437 32
v -129.007 54.3809 32
v -131.557 47.8828 32
v -133.78 41.2657 32
v -135.671 34.546 32
v -137.224 27.7405 32
v -138.436 20.8659 32
v -139.304 13.9395 32
v -139.826 6.97842 32
v -140 -4.80235e-13 32
v -139.826 -6.97842 32
v -139.304 -13.9395 32
v -138.436 -20.8659 32
v -137.224 -27.7405 32
v -135.671 -34.546 32
v -133.78 -41.2657 32
v -131.557 -47.8828 32
v -129.007 -54.3809 32
v -126.136 -60.7437 32
v -122.951 -66.9556 32
v -119.461 -73.0009 32
v -115.673 -78.8648 32
v -111.599 -84.5326 32
v -107.246 -89.9903 32
v -102.627 -95.2242 32
v -97.7532 -100.221 32
v -92.636 -104.969 32
v -87.2886 -109.456 32
v -81.7241 -113.671 32
v -75.9565 -117.604 32
v -70 -121.244 32
v -63.8695 -124.582 32
v -57.5802 -127.611 32
v -51.1477 -130.322 32
v -44.5881 -132.71 32
v -37.9177 -134.767 32
v -31.1529 -136.49 32
v -24.3107 -137.873 32
v -17.4081 -138.913 32
v -10.4622 -139.609 32
v -3.4903 -139.956 32
v 3.4903 -139.956 32
v 10.4622 -139.609 32
v 17.4081 -138.913 32
v 24.3107 -137.873 32
v 31.1529 -136.49 32
v 37.9177 -134.767 32
v 44.5881 -132.71 32
v 51.1477 -130.322 32
v 57.5802 -127.611 32
v 63.8695 -124.582 32
v 70 -121.244 32
v 75.9565 -117.604 32
v 81.7241 -113.671 32
v 87.2886 -109.456 32
v 92.636 -104.969 32
v 97.7532 -100.221 32
v 102.627 -95.2242 32
v 107.246 -89.9903 32
v 111.599 -84.5326 32
v 115.673 -78.8648 32
v 119.461 -73.0009 32
v 122.951 -66.9556 32
v 126.136 -60.7437 32
v 129.007 -54.3809 32
v 131.557 -47.8828 32
v 133.78 -41.2657 32
v 135.671 -34.546 32
v 137.224 -27.7405 32
v 138.436 -20.8659 32
v 139.304 -13.9395 32
v 139.826 -6.97842 32
v 140 -3.42901e-14 32
v 140 -3.42901e-14 0
v 139.826 6.97842 0
v 139.304 13.9395 0
v 138.436 20.8659 0
v 137.224 27.7405 0
v 135.671 34.546 0
v 133.78 41.2657 0
v 131.557 47.8828 0
v 129.007 54.3809 0
v 126.136 60.7437 0
v 122.951 66.9556 0
v 119.461 73.0009 0
v 115.673 78.8648 0
v 111.599 84.5326 0
v 107.246 89.9903 0
v 102.627 95.2242 0
v 97.7532 100.221 0
v 92.636 104.969 0
v 87.2886 109.456 0
v 81.7241 113.671 0
v 75.9565 117.604 0
v 70 121.244 0
v 63.8695 124.582 0
v 57.5802 127.611 0
v 51.1477 130.322 0
v 44.5881 132.71 0
v 37.9177 134.767 0
v 31.1529 136.49 0
v 24.3107 137.873 0
v 17.4081 138.913 0
v 10.4622 139.609 0
v 3.4903 139.956 0
v -3.4903 139.956 0
v -10.4622 139.609 0
v -17.4081 138.913 0
v -24.3107 137.873 0
v -31.1529 136.49 0
v -37.9177 134.767 0
v -44.5881 132.71 0
v -51.1477 130.322 0
v -57.5802 127.611 0
v -63.8695 124.582 0
v -70 121.244 0
v -75.9565 117.604 0
v -81.7241 113.671 0
v -87.2886 109.456 0
v -92.636 104.969 0
v -97.7532 100.221 0
v -102.627 95.2242 0
v -107.246 89.9903 0
v -111.599 84.5326 0
v -115.673 78.8648 0
v -119.461 73.0009 0
v -122.951 66.9556 0
v -126.136 60.7437 0
v -129.007 54.3809 0
v -131.557 47.8828 0
v -133.78 41.2657 0
v -135.671 34.546 0
v -137.224 27.7405 0
v -138.436 20.8659 0
v -139.304 13.9395 0
v -139.826 6.97842 0
v -140 -4.80235e-13 0
v -139.826 -6.97842 0
v -139.304 -13.9395 0
v -138.436 -20.8659 0
v -137.224 -27.7405 0
v -135.671 -34.546 0
v -133.78 -41.2657 0
v -131.557 -47.8828 0
v -129.007 -54.3809 0
v -126.136 -60.7437 0
v -122.951 -66.9556 0
v -119.461 -73.0009 0
v -115.673 -78.8648 0
v -111.599 -84.5326 0
v -107.246 -89.9903 0
v -102.627 -95.2242 0
v -97.7532 -100.221 0
v -92.636 -104.969 0
v -87.2886 -109.456 0
v -81.7241 -113.671 0
v -75.9565 -117.604 0
v -70 -121.244 0
v -63.8695 -124.582 0
v -57.5802 -127.611 0
v -51.1477 -130.322 0
v -44.5881 -132.71 0
v -37.9177 -134.767 0
v -31.1529 -136.49 0
v -24.3107 -137.873 0
v -17.4081 -138.913 0
v -10.4622 -139.609 0
v -3.4903 -139.956 0
v 3.4903 -139.956 0
v 10.4622 -139.609 0
v 17.4081 -138.913 0
v 24.3107 -137.873 0
v 31.1529 -136.49 0
v 37.9177 -134.767 0
v 44.5881 -132.71 0
v 51.1477 -130.322 0
v 57.5802 -127.611 0
v 63.8695 -124.582 0
v 70 -121.244 0
v 75.9565 -117.604 0
v 81.7241 -113.671 0
v 87.2886 -109.456 0
v 92.636 -104.969 0
v 97.7532 -100.221 0
v 102.627 -95.2242 0
v 107.246 -89.9903 0
v 111.599 -84.5326 0
v 115.673 -78.8648 0
v 119.461 -73.0009 0
v 122.951 -66.9556 0
v 126.136 -60.7437 0
v 129.007 -54.3809 0
v 131.557 -47.8828 0
v 133.78 -41.2657 0
v 135.671 -34.546 0
v 137.224 -27.7405 0
v 138.436 -20.8659 0
v 139.304 -13.9395 0
v 139.826 -6.97842 0
v 140 -3.42901e-14 0
v 140 -3.42901e-14 32
v 139.826 6.97842 32
v 139.304 13.9395 32
v 138.436 20.8659 32
v 137.224 27.7405 32
v 135.671 34.546 32
v 133.78 41.2657 32
v 131.557 47.8828 32
v 129.007 54.3809 32
v 126.136 60.7437 32
v 122.951 66.9556 32
v 119.461 73.0009 32
v 115.673 78.8648 32
v 111.599 84.5326 32
v 107.246 89.9903 32
v 102.627 95.2242 32
v 97.7532 100.221 32
v 92.636 104.969 32
v 87.2886 109.456 32
v 81.7241 113.671 32
v 75.9565 117.604 32
v 70 121.244 32
v 63.8695 124.582 32
v 57.5802 127.611 32
v 51.1477 130.322 32
v 44.5881 132.71 32
v 37.9177 134.767 32
v 31.1529 136.49 32
v 24.3107 137.873 32
v 17.4081 138.913 32
v 10.4622 139.609 32
v 3.4903 139.956 32
v -3.4903 139.956 32
v -10.4622 139.609 32
v -17.4081 138.913 32
v -24.3107 137.873 32
v -31.1529 136.49 32
v -37.9177 134.767 32
v -44.5881 132.71 32
v -51.1477 130.322 32
v -57.5802 127.611 32
v -63.8695 124.582 32
v -70 121.244 32
v -75.9565 117.604 32
v -81.7241 113.671 32
v -87.2886 109.456 32
v -92.636 104.969 32
v -97.7532 100.221 32
v -102.627 95.2242 32
v -107.246 89.9903 32
v -111.599 84.5326 32
v -115.673 78.8648 32
v -119.461 73.0009 32
v -122.951 66.9556 32
v -126.136 60.7437 32
v -129.007 54.3809 32
v -131.557 47.8828 32
v -133.78 41.2657 32
v -135.671 34.546 32
v -137.224 27.7405 32
v -138.436 20.8659 32
v -139.304 13.9395 32
v -139.826 6.97842 32
v -140 -4.80235e-13 32
v -139.826 -6.97842 32
v -139.304 -13.9395 32
v -138.436 -20.8659 32
v -137.224 -27.7405 32
v -135.671 -34.546 32
v -133.78 -41.2657 32
v -131.557 -47.8828 32
v -129.007 -54.3809 32
v -126.136 -60.7437 32
v -122.951 -66.9556 32
v -119.461 -73.0009 32
v -115.673 -78.8648 32
v -111.599 -84.5326 32
v -107.246 -89.9903 32
v -102.627 -95.2242 32
v -97.7532 -100.221 32
v -92.636 -104.969 32
v -87.2886 -109.456 32
v -81.7241 -113.671 32
v -75.9565 -117.604 32
v -70 -121.244 32
v -63.8695 -124.582 32
v -57.5802 -127.611 32
v -51.1477 -130.322 32
v -44.5881 -132.71 32
v -37.9177 -134.767 32
v -31.1529 -136.49 32
v -24.3107 -137.873 32
v -17.4081 -138.913 32
v -10.4622 -139.609 32
v -3.4903 -139.956 32
v 3.4903 -139.956 32
v 10.4622 -139.609 32
v 17.4081 -138.913 32
v 24.3107 -137.873 32
v 31.1529 -136.49 32
v 37.9177 -134.767 32
v 44.5881 -132.71 32
v 51.1477 -130.322 32
v 57.5802 -127.611 32
v 63.8695 -124.582 32
v 70 -121.244 32
v 75.9565 -117.604 32
v 81.7241 -113.671 32
v 87.2886 -109.456 32
v 92.636 -104.969 32
v 97.7532 -100.221 32
v 102.627 -95.2242 32
v 107.246 -89.9903 32
v 111.599 -84.5326 32
v 115.673 -78.8648 32
v 119.461 -73.0009 32
v 122.951 -66.9556 32
v 126.136 -60.7437 32
v 129.007 -54.3809 32
v 131.557 -47.8828 32
v 133.78 -41.2657 32
v 135.671 -34.546 32
v 137.224 -27.7405 32
v 138.436 -20.8659 32
v 139.304 -13.9395 32
v 139.826 -6.97842 32
v 45 -1.10218e-14 32
v 44.9441 2.24306 32
v 44.7764 4.48055 32
v 44.4974 6.7069 32
v 44.1078 8.91658 32
v 43.6085 11.1041 32
v 43.0008 13.264 32
v 42.2862 15.3909 32
v 41.4664 17.4796 32
v 40.5436 19.5248 32
v 39.52 21.5214 32
v 38.3981 23.4646 32
v 37.1807 25.3494 32
v 35.871 27.1712 32
v 34.472 28.9254 32
v 32.9873 30.6078 32
v 31.4207 32.214 32
v 29.7759 33.7402 32
v 28.057 35.1824 32
v 26.2685 36.5372 32
v 24.4146 37.8012 32
v 22.5 38.9711 32
v 20.5295 40.0442 32
v 18.5079 41.0178 32
v 16.4403 41.8893 32
v 14.3319 42.6567 32
v 12.1878 43.3181 32
v 10.0134 43.8718 32
v 7.81417 44.3163 32
v 5.59547 44.6508 32
v 3.36285 44.8742 32
v 1.12188 44.986 32
v -1.12188 44.986 32
v -3.36285 44.8742 32
v -5.59547 44.6508 32
v -7.81417 44.3163 32
v -10.0134 43.8718 32
v -12.1878 43.3181 32
v -14.3319 42.6567 32
v -16.4403 41.8893 32
v -18.5079 41.0178 32
v -20.5295 40.0442 32
v -22.5 38.9711 32
v -24.4146 37.8012 32
v -26.2685 36.5372 32
v -28.057 35.1824 32
v -29.7759 33.7402 32
v -31.4207 32.214 32
v -32.9873 30.6078 32
v -34.472 28.9254 32
v -35.871 27.1712 32
v -37.1807 25.3494 32
v -38.3981 23.4646 32
v -39.52 21.5214 32
v -40.5436 19.5248 32
v -41.4664 17.4796 32
v -42.2862 15.3909 32
v -43.0008 13.264 32
v -43.6085 11.1041 32
v -44.1078 8.91658 32
v -44.4974 6.7069 32
v -44.7764 4.48055 32
v -44.9441 2.24306 32
v -45 -1.54361e-13 32
v -44.9441 -2.24306 32
v -44.7764 -4.48055 32
v -44.4974 -6.7069 32
v -44.1078 -8.91658 32
v -43.6085 -11.1041 32
v -43.0008 -13.264 32
v -42.2862 -15.3909 32
v -41.4664 -17.4796 32
v -40.5436 -19.5248 32
v -39.52 -21.5214 32
v -38.3981 -23.4646 32
v -37.1807 -25.3494 32
v -35.871 -27.1712 32
v -34.472 -28.9254 32
v -32.9873 -30.6078 32
v -31.4207 -32.214 32
v -29.7759 -33.7402 32
v -28.057 -35.1824 32
v -26.2685 -36.5372 32
v -24.4146 -37.8012 32
v -22.5 -38.9711 32
v -20.5295 -40.0442 32
v -18.5079 -41.0178 32
v -16.4403 -41.8893 32
v -14.3319 -42.6567 32
v -12.1878 -43.3181 32
v -10.0134 -43.8718 32
v -7.81417 -44.3163 32
v -5.59547 -44.6508 32
v -3.36285 -44.8742 32
v -1.12188 -44.986 32
v 1.12188 -44.986 32
v 3.36285 -44.8742 32
v 5.59547 -44.6508 32
v 7.81417 -44.3163 32
v 10.0134 -43.8718 32
v 12.1878 -43.3181 32
v 14.3319 -42.6567 32
v 16.4403 -41.8893 32
v 18.5079 -41.0178 32
v 20.5295 -40.0442 32
v 22.5 -38.9711 32
v 24.4146 -37.8012 32
v 26.2685 -36.5372 32
v 28.057 -35.1824 32
v 29.7759 -33.7402 32
v 31.4207 -32.214 32
v 32.9873 -30.6078 32
v 34.472 -28.9254 32
v 35.871 -27.1712 32
v 37.1807 -25.3494 32
v 38.3981 -23.4646 32
v 39.52 -21.5214 32
v 40.5436 -19.5248 32
v 41.4664 -17.4796 32
v 42.2862 -15.3909 32
v 43.0008 -13.264 32
v 43.6085 -11.1041 32
v 44.1078 -8.91658 32
v 44.4974 -6.7069 32
v 44.7764 -4.48055 32
v 44.9441 -2.24306 32
v 140 -3.42901e-14 0
v 139.826 6.97842 0
v 139.304 13.9395 0
v 138.436 20.8659 0
v 137.224 27.7405 0
v 135.671 34.546 0
v 133.78 41.2657 0
v 131.557 47.8828 0
v 129.007 54.3809 0
v 126.136 60.7437 0
v 122.951 66.9556 0
v 119.461 73.0009 0
v 115.673 78.8648 0
v 111.599 84.5326 0
v 107.246 89.9903 0
v 102.627 95.2242 0
v 97.7532 100.221 0
v 92.636 104.969 0
v 87.2886 109.456 0
v 81.7241 113.671 0
v 75.9565 117.604 0
v 70 121.244 0
v 63.8695 124.582 0
v 57.5802 127.611 0
v 51.1477 130.322 0
v 44.5881 132.71 0
v 37.9177 134.767 0
v 31.1529 136.49 0
v 24.3107 137.873 0
v 17.4081 138.913 0
v 10.4622 139.609 0
v 3.4903 139.956 0
v -3.4903 139.956 0
v -10.4622 139.609 0
v -17.4081 138.913 0
v -24.3107 137.873 0
v -31.1529 136.49 0
v -37.9177 134.767 0
v -44.5881 132.71 0
v -51.1477 130.322 0
v -57.5802 127.611 0
v -63.8695 124.582 0
v -70 121.244 0
v -75.9565 117.604 0
v -81.7241 113.671 0
v -87.2886 109.456 0
v -92.636 104.969 0
v -97.7532 100.221 0
v -102.627 95.2242 0
v -107.246 89.9903 0
v -111.599 84.5326 0
v -115.673 78.8648 0
v -119.461 73.0009 0
v -122.951 66.9556 0
v -126.136 60.7437 0
v -129.007 54.3809 0
v -131.557 47.8828 0
v -133.78 41.2657 0
v -135.671 34.546 0
v -137.224 27.7405 0
v -138.436 20.8659 0
v -139.304 13.9395 0
v -139.826 6.97842 0
v -140 -4.80235e-13 0
v -139.826 -6.97842 0
v -139.304 -13.9395 0
v -138.436 -20.8659 0
v -137.224 -27.7405 0
v -135.671 -34.546 0
v -133.78 -41.2657 0
v -131.557 -47.8828 0
v -129.007 -54.3809 0
v -126.136 -60.7437 0
v -122.951 -66.9556 0
v -119.461 -73.0009 0
v -115.673 -78.8648 0
v -111.599 -84.5326 0
v -107.246 -89.9903 0
v -102.627 -95.2242 0
v -97.7532 -100.221 0
v -92.636 -104.969 0
v -87.2886 -109.456 0
v -81.7241 -113.671 0
v -75.9565 -117.604 0
v -70 -121.244 0
v -63.8695 -124.582 0
v -57.5802 -127.611 0
v -51.1477 -130.322 0
v -44.5881 -132.71 0
v -37.9177 -134.767 0
v -31.1529 -136.49 0
v -24.3107 -137.873 0
v -17.4081 -138.913 0
v -10.4622 -139.609 0
v -3.4903 -139.956 0
v 3.4903 -139.956 0
v 10.4622 -139.609 0
v 17.4081 -138.913 0
v 24.3107 -137.873 0
v 31.1529 -136.49 0
v 37.9177 -134.767 0
v 44.5881 -132.71 0
v 51.1477 -130.322 0
v 57.5802 -127.611 0
v 63.8695 -124.582 0
v 70 -121.244 0
v 75.9565 -117.604 0
v 81.7241 -113.671 0
v 87.2886 -109.456 0
v 92.636 -104.969 0
v 97.7532 -100.221 0
v 102.627 -95.2242 0
v 107.246 -89.9903 0
v 111.599 -84.5326 0
v 115.673 -78.8648 0
v 119.461 -73.0009 0
v 122.951 -66.9556 0
v 126.136 -60.7437 0
v 129.007 -54.3809 0
v 131.557 -47.8828 0
v 133.78 -41.2657 0
v 135.671 -34.546 0
v 137.224 -27.7405 0
v 138.436 -20.8659 0
v 139.304 -13.9395 0
v 139.826 -6.97842 0
v 45 -1.10218e-14 32
v 45 -1.10218e-14 48
v 45 -1.10218e-14 48
v 44.9441 2.24306 48
v 44.7764 4.48055 48
v 44.4974 6.7069 48
v 44.1078 8.91658 48
v 43.6085 11.1041 48
v 43.0008 13.264 48
v 42.2862 15.3909 48
v 41.4664 17.4796 48
v 40.5436 19.5248 48
v 39.52 21.5214 48
v 38.3981 23.4646 48
v 37.1807 25.3494 48
v 35.871 27.1712 48
v 34.472 28.9254 48
v 32.9873 30.6078 48
v 31.4207 32.214 48
v 29.7759 33.7402 48
v 28.057 35.1824 48
v 26.2685 36.5372 48
v 24.4146 37.8012 48
v 22.5 38.9711 48
v 20.5295 40.0442 48
v 18.5079 41.0178 48
v 16.4403 41.8893 48
v 14.3319 42.6567 48
v 12.1878 43.3181 48
v 10.0134 43.8718 48
v 7.81417 44.3163 48
v 5.59547 44.6508 48
v 3.36285 44.8742 48
v 1.12188 44.986 48
v -1.12188 44.986 48
v -3.36285 44.8742 48
v -5.59547 44.6508 48
v -7.81417 44.3163 48
v -10.0134 43.8718 48
v -12.1878 43.3181 48
v -14.3319 42.6567 48
v -16.4403 41.8893 48
v -18.5079 41.0178 48
v -20.5295 40.0442 48
v -22.5 38.9711 48
v -24.4146 37.8012 48
v -26.2685 36.5372 48
v -28.057 35.1824 48
v -29.7759 33.7402 48
v -31.4207 32.214 48
v -32.9873 30.6078 48
v -34.472 28.9254 48
v -35.871 27.1712 48
v -37.1807 25.3494 48
v -38.3981 23.4646 48
v -39.52 21.5214 48
v -40.5436 19.5248 48
v -41.4664 17.4796 48
v -42.2862 15.3909 48
v -43.0008 13.264 48
v -43.6085 11.1041 48
v -44.1078 8.91658 48
v -44.4974 6.7069 48
v -44.7764 4.48055 48
v -44.9441 2.24306 48
v -45 -1.54361e-13 48
v -44.9441 -2.24306 48
v -44.7764 -4.48055 48
v -44.4974 -6.7069 48
v -44.1078 -8.91658 48
v -43.6085 -11.1041 48
v -43.0008 -13.264 48
v -42.2862 -15.3909 48
v -41.4664 -17.4796 48
v -40.5436 -19.5248 48
v -39.52 -21.5214 48
v -38.3981 -23.4646 48
v -37.1807 -25.3494 48
v -35.871 -27.1712 48
v -34.472 -28.9254 48
v -32.9873 -30.6078 48
v -31.4207 -32.214 48
v -29.7759 -33.7402 48
v -28.057 -35.1824 48
v -26.2685 -36.5372 48
v -24.4146 -37.8012 48
v -22.5 -38.9711 48
v -20.5295 -40.0442 48
v -18.5079 -41.0178 48
v -16.4403 -41.8893 48
v -14.3319 -42.6567 48
v -12.1878 -43.3181 48
v -10.0134 -43.8718 48
v -7.81417 -44.3163 48
v -5.59547 -44.6508 48
v -3.36285 -44.8742 48
v -1.12188 -44.986 48
v 1.12188 -44.986 48
v 3.36285 -44.8742 48
v 5.59547 -44.6508 48
v 7.81417 -44.3163 48
v 10.0134 -43.8718 48
v 12.1878 -43.3181 48
v 14.3319 -42.6567 48
v 16.4403 -41.8893 48
v 18.5079 -41.0178 48
v 20.5295 -40.0442 48
v 22.5 -38.9711 48
v 24.4146 -37.8012 48
v 26.2685 -36.5372 48
v 28.057 -35.1824 48
v 29.7759 -33.7402 48
v 31.4207 -32.214 48
v 32.9873 -30.6078 48
v 34.472 -28.9254 48
v 35.871 -27.1712 48
v 37.1807 -25.3494 48
v 38.3981 -23.4646 48
v 39.52 -21.5214 48
v 40.5436 -19.5248 48
v 41.4664 -17.4796 48
v 42.2862 -15.3909 48
v 43.0008 -13.264 48
v 43.6085 -11.1041 48
v 44.1078 -8.91658 48
v 44.4974 -6.7069 48
v 44.7764 -4.48055 48
v 44.9441 -2.24306 48
v 45 -1.10218e-14 32
v 44.9441 2.24306 32
v 44.7764 4.48055 32
v 44.4974 6.7069 32
v 44.1078 8.91658 32
v 43.6085 11.1041 32
v 43.0008 13.264 32
v 42.2862 15.3909 32
v 41.4664 17.4796 32
v 40.5436 19.5248 32
v 39.52 21.5214 32
v 38.3981 23.4646 32
v 37.1807 25.3494 32
v 35.871 27.1712 32
v 34.472 28.9254 32
v 32.9873 30.6078 32
v 31.4207 32.214 32
v 29.7759 33.7402 32
v 28.057 35.1824 32
v 26.2685 36.5372 32
v 24.4146 37.8012 32
v 22.5 38.9711 32
v 20.5295 40.0442 32
v 18.5079 41.0178 32
v 16.4403 41.8893 32
v 14.3319 42.6567 32
v 12.1878 43.3181 32
v 10.0134 43.8718 32
v 7.81417 44.3163 32
v 5.59547 44.6508 32
v 3.36285 44.8742 32
v 1.12188 44.986 32
v -1.12188 44.986 32
v -3.36285 44.8742 32
v -5.59547 44.6508 32
v -7.81417 44.3163 32
v -10.0134 43.8718 32
v -12.1878 43.3181 32
v -14.3319 42.6567 32
v -16.4403 41.8893 32
v -18.5079 41.0178 32
v -20.5295 40.0442 32
v -22.5 38.9711 32
v -24.4146 37.8012 32
v -26.2685 36.5372 32
v -28.057 35.1824 32
v -29.7759 33.7402 32
v -31.4207 32.214 32
v -32.9873 30.6078 32
v -34.472 28.9254 32
v -35.871 27.1712 32
v -37.1807 25.3494 32
v -38.3981 23.4646 32
v -39.52 21.5214 32
v -40.5436 19.5248 32
v -41.4664 17.4796 32
v -42.2862 15.3909 32
v -43.0008 13.264 32
v -43.6085 11.1041 32
v -44.1078 8.91658 32
v -44.4974 6.7069 32
v -44.7764 4.48055 32
v -44.9441 2.24306 32
v -45 -1.54361e-13 32
v -44.9441 -2.24306 32
v -44.7764 -4.48055 32
v -44.4974 -6.7069 32
v -44.1078 -8.91658 32
v -43.6085 -11.1041 32
v -43.0008 -13.264 32
v -42.2862 -15.3909 32
v -41.4664 -17.4796 32
v -40.5436 -19.5248 32
v -39.52 -21.5214 32
v -38.3981 -23.4646 32
v -37.1807 -25.3494 32
v -35.871 -27.1712 32
v -34.472 -28.9254 32
v -32.9873 -30.6078 32
v -31.4207 -32.214 32
v -29.7759 -33.7402 32
v -28.057 -35.1824 32
v -26.2685 -36.5372 32
v -24.4146 -37.8012 32
v -22.5 -38.9711 32
v -20.5295 -40.0442 32
v -18.5079 -41.0178 32
v -16.4403 -41.8893 32
v -14.3319 -42.6567 32
v -12.1878 -43.3181 32
v -10.0134 -43.8718 32
v -7.81417 -44.3163 32
v -5.59547 -44.6508 32
v -3.36285 -44.8742 32
v -1.12188 -44.986 32
v 1.12188 -44.986 32
v 3.36285 -44.8742 32
v 5.59547 -44.6508 32
v 7.81417 -44.3163 32
v 10.0134 -43.8718 32
v 12.1878 -43.3181 32
v 14.3319 -42.6567 32
v 16.4403 -41.8893 32
v 18.5079 -41.0178 32
v 20.5295 -40.0442 32
v 22.5 -38.9711 32
v 24.4146 -37.8012 32
v 26.2685 -36.5372 32
v 28.057 -35.1824 32
v 29.7759 -33.7402 32
v 31.4207 -32.214 32
v 32.9873 -30.6078 32
v 34.472 -28.9254 32
v 35.871 -27.1712 32
v 37.1807 -25.3494 32
v 38.3981 -23.4646 32
v 39.52 -21.5214 32
v 40.5436 -19.5248 32
v 41.4664 -17.4796 32
v 42.2862 -15.3909 32
v 43.0008 -13.264 32
v 43.6085 -11.1041 32
v 44.1078 -8.91658 32
v 44.4974 -6.7069 32
v 44.7764 -4.48055 32
v 44.9441 -2.24306 32
v 45 -1.10218e-14 48
v 44.9441 2.24306 48
v 44.7764 4.48055 48
v 44.4974 6.7069 48
v 44.1078 8.91658 48
v 43.6085 11.1041 48
v 43.0008 13.264 48
v 42.2862 15.3909 48
v 41.4664 17.4796 48
v 40.5436 19.5248 48
v 39.52 21.5214 48
v 38.3981 23.4646 48
v 37.1807 25.3494 48
v 35.871 27.1712 48
v 34.472 28.9254 48
v 32.9873 30.6078 48
v 31.4207 32.214 48
v 29.7759 33.7402 48
v 28.057 35.1824 48
v 26.2685 36.5372 48
v 24.4146 37.8012 48
v 22.5 38.9711 48
v 20.5295 40.0442 48
v 18.5079 41.0178 48
v 16.4403 41.8893 48
v 14.3319 42.6567 48
v 12.1878 43.3181 48
v 10.0134 43.8718 48
v 7.81417 44.3163 48
v 5.59547 44.6508 48
v 3.36285 44.8742 48
v 1.12188 44.986 48
v -1.12188 44.986 48
v -3.36285 44.8742 48
v -5.59547 44.6508 48
v -7.81417 44.3163 48
v -10.0134 43.8718 48
v -12.1878 43.3181 48
v -14.3319 42.6567 48
v -16.4403 41.8893 48
v -18.5079 41.0178 48
v -20.5295 40.0442 48
v -22.5 38.9711 48
v -24.4146 37.8012 48
v -26.2685 36.5372 48
v -28.057 35.1824 48
v -29.7759 33.7402 48
v -31.4207 32.214 48
v -32.9873 30.6078 48
v -34.472 28.9254 48
v -35.871 27.1712 48
v -37.1807 25.3494 48
v -38.3981 23.4646 48
v -39.52 21.5214 48
v -40.5436 19.5248 48
v -41.4664 17.4796 48
v -42.2862 15.3909 48
v -43.0008 13.264 48
v -43.6085 11.1041 48
v -44.1078 8.91658 48
v -44.4974 6.7069 48
v -44.7764 4.48055 48
v -44.9441 2.24306 48
v -45 -1.54361e-13 48
v -44.9441 -2.24306 48
v -44.7764 -4.48055 48
v -44.4974 -6.7069 48
v -44.1078 -8.91658 48
v -43.6085 -11.1041 48
v -43.0008 -13.264 48
v -42.2862 -15.3909 48
v -41.4664 -17.4796 48
v -40.5436 -19.5248 48
v -39.52 -21.5214 48
v -38.3981 -23.4646 48
v -37.1807 -25.3494 48
v -35.871 -27.1712 48
v -34.472 -28.9254 48
v -32.9873 -30.6078 48
v -31.4207 -32.214 48
v -29.7759 -33.7402 48
v -28.057 -35.1824 48
v -26.2685 -36.5372 48
v -24.4146 -37.8012 48
v -22.5 -38.9711 48
v -20.5295 -40.0442 48
v -18.5079 -41.0178 48
v -16.4403 -41.8893 48
v -14.3319 -42.6567 48
v -12.1878 -43.3181 48
v -10.0134 -43.8718 48
v -7.81417 -44.3163 48
v -5.59547 -44.6508 48
v -3.36285 -44.8742 48
v -1.12188 -44.986 48
v 1.12188 -44.986 48
v 3.36285 -44.8742 48
v 5.59547 -44.6508 48
v 7.81417 -44.3163 48
v 10.0134 -43.8718 48
v 12.1878 -43.3181 48
v 14.3319 -42.6567 48
v 16.4403 -41.8893 48
v 18.5079 -41.0178 48
v 20.5295 -40.0442 48
v 22.5 -38.9711 48
v 24.4146 -37.8012 48
v 26.2685 -36.5372 48
v 28.057 -35.1824 48
v 29.7759 -33.7402 48
v 31.4207 -32.214 48
v 32.9873 -30.6078 48
v 34.472 -28.9254 48
v 35.871 -27.1712 48
v 37.1807 -25.3494 48
v 38.3981 -23.4646 48
v 39.52 -21.5214 48
v 40.5436 -19.5248 48
v 41.4664 -17.4796 48
v 42.2862 -15.3909 48
v 43.0008 -13.264 48
v 43.6085 -11.1041 48
v 44.1078 -8.91658 48
v 44.4974 -6.7069 48
v 44.7764 -4.48055 48
v 44.9441 -2.24306 48
f 1 128 129
f 2 129 130
f 2 1 129
f 3 130 131
f 3 2 130
f 4 131 132
f 4 3 131
f 5 132 133
f 5 4 132
f 6 133 134
f 6 5 133
f 7 6 134
f 8 134 135
f 8 7 134
f 9 135 136
f 9 8 135
f 10 136 137
f 10 137 138
f 10 9 136
f 11 10 138
f 12 11 138
f 12 138 139
f 13 12 139
f 13 139 140
f 14 13 140
f 14 140 141
f 14 141 142
f 15 14 142
f 16 15 142
f 16 142 143
f 17 16 143
f 17 143 144
f 18 17 144
f 18 144 145
f 18 145 146
f 19 18 146
f 20 19 146
f 20 146 147
f 20 147 148
f 21 20 148
f 22 21 148
f 22 148 149
f 22 149 150
f 23 22 150
f 24 150 151
f 24 23 150
f 25 151 152
f 25 24 151
f 26 152 153
f 26 25 152
f 27 153 154
f 27 26 153
f 28 154 155
f 28 27 154
f 29 155 156
f 29 28 155
f 30 156 157
f 30 29 156
f 31 157 158
f 31 30 157
f 32 158 159
f 32 31 158
f 33 159 160
f 33 160 161
f 33 32 159
f 34 33 161
f 35 161 162
f 35 34 161
f 36 162 163
f 36 163 164
f 36 35 162
f 37 36 164
f 38 37 164
f 38 164 165
f 39 38 165
f 39 165 166
f 39 166 167
f 40 39 167
f 41 40 167
f 41 167 168
f 42 41 168
f 42 168 169
f 43 42 169
f 43 169 170
f 43 170 171
f 44 43 171
f 45 44 171
f 45 171 172
f 45 172 173
f 46 45 173
f 46 173 174
f 47 46 174
f 48 47 174
f 48 174 175
f 49 48 175
f 49 175 176
f 49 176 177
f 50 49 177
f 51 50 177
f 51 177 178
f 52 51 178
f 52 178 179
f 52 179 180
f 53 52 180
f 53 180 181
f 54 53 181
f 55 54 181
f 55 181 182
f 56 55 182
f 56 182 183
f 57 56 183
f 57 183 184
f 58 57 184
f 58 184 185
f 59 185 186
f 59 186 187
f 59 58 185
f 60 59 187
f 61 187 188
f 61 188 189
f 61 60 187
f 62 189 190
f 62 61 189
f 63 62 190
f 64 63 190
f 64 190 191
f 65 64 191
f 65 191 192
f 66 65 192
f 66 192 193
f 66 193 194
f 67 66 194
f 67 194 195
f 68 67 195
f 69 68 195
f 69 195 196
f 70 69 196
f 70 196 197
f 71 70 197
f 71 197 198
f 72 71 198
f 72 198 199
f 72 199 200
f 73 72 200
f 74 73 200
f 74 200 201
f 74 201 202
f 75 202 203
f 75 74 202
f 76 75 203
f 77 203 204
f 77 204 205
f 77 76 203
f 78 77 205
f 79 205 206
f 79 78 205
f 80 206 207
f 80 79 206
f 81 207 208
f 81 80 207
f 82 208 209
f 82 81 208
f 83 209 210
f 83 210 211
f 83 82 209
f 84 83 211
f 85 211 212
f 85 212 213
f 85 84 211
f 86 85 213
f 87 213 214
f 87 214 215
f 87 86 213
f 88 87 215
f 89 88 215
f 89 215 216
f 90 89 216
f 90 216 217
f 91 90 217
f 91 217 218
f 91 218 219
f 92 91 219
f 93 219 220
f 93 92 219
f 94 220 221
f 94 93 220
f 95 221 222
f 95 222 223
f 95 94 221
f 96 95 223
f 97 223 224
f 97 224 225
f 97 96 223
f 98 97 225
f 99 225 226
f 99 98 225
f 100 226 227
f 100 99 226
f 101 227 228
f 101 100 227
f 102 228 229
f 102 229 230
f 102 101 228
f 103 102 230
f 104 230 231
f 104 231 232
f 104 103 230
f 105 104 232
f 106 232 233
f 106 233 234
f 106 105 232
f 107 106 234
f 108 234 235
f 108 107 234
f 109 235 236
f 109 236 237
f 109 108 235
f 110 109 237
f 111 237 238
f 111 110 237
f 112 238 239
f 112 239 240
f 112 111 238
f 113 112 240
f 114 113 240
f 114 240 241
f 115 114 241
f 115 241 242
f 116 115 242
f 116 242 243
f 117 116 243
f 117 243 244
f 118 117 244
f 118 244 245
f 118 245 246
f 119 118 246
f 120 119 246
f 120 246 247
f 121 120 247
f 121 247 248
f 122 121 248
f 122 248 249
f 122 249 250
f 123 122 250
f 124 123 250
f 124 250 251
f 125 124 251
f 125 251 252
f 126 252 253
f 126 125 252
f 127 253 254
f 127 126 253
f 459 334 460
f 459 333 334
f 461 460 334
f 461 334 335
f 461 335 336
f 458 333 459
f 458 331 332
f 458 332 333
f 462 461 336
f 457 331 458
f 463 462 336
f 463 336 337
f 463 337 338
f 456 331 457
f 456 330 331
f 464 463 338
f 464 338 339
f 455 330 456
f 455 329 330
f 465 464 339
f 454 329 455
f 454 328 329
f 466 465 339
f 466 339 340
f 453 327 328
f 453 328 454
f 467 466 340
f 467 340 341
f 467 341 342
f 452 325 326
f 452 326 327
f 452 327 453
f 468 467 342
f 468 342 343
f 451 325 452
f 469 468 343
f 450 324 325
f 450 325 451
f 470 343 344
f 470 469 343
f 449 322 323
f 449 323 324
f 449 324 450
f 471 344 345
f 471 470 344
f 448 322 449
f 472 471 345
f 472 345 346
f 447 322 448
f 447 321 322
f 473 472 346
f 473 346 347
f 473 347 348
f 446 321 447
f 446 319 320
f 446 320 321
f 474 473 348
f 445 319 446
f 475 474 348
f 475 348 349
f 444 319 445
f 444 318 319
f 476 475 349
f 476 349 350
f 443 318 444
f 443 317 318
f 477 476 350
f 477 350 351
f 477 351 352
f 442 317 443
f 442 316 317
f 478 477 352
f 441 316 442
f 441 315 316
f 479 478 352
f 479 352 353
f 440 315 441
f 440 313 314
f 440 314 315
f 480 479 353
f 480 353 354
f 439 313 440
f 481 480 354
f 481 354 355
f 438 313 439
f 438 312 313
f 482 355 356
f 482 481 355
f 437 312 438
f 437 310 311
f 437 311 312
f 483 356 357
f 483 357 358
f 483 482 356
f 436 310 437
f 436 309 310
f 484 483 358
f 435 309 436
f 485 358 359
f 485 484 358
f 434 307 308
f 434 308 309
f 434 309 435
f 486 359 360
f 486 485 359
f 433 307 434
f 487 360 361
f 487 361 362
f 487 486 360
f 432 306 307
f 432 307 433
f 488 487 362
f 431 305 306
f 431 306 432
f 489 362 363
f 489 488 362
f 430 304 305
f 430 305 431
f 490 363 364
f 490 489 363
f 429 303 304
f 429 304 430
f 491 364 365
f 491 490 364
f 492 491 365
f 302 429 428
f 302 303 429
f 366 493 492
f 366 492 365
f 301 302 428
f 301 428 427
f 367 493 366
f 300 301 427
f 300 426 425
f 300 427 426
f 368 493 367
f 368 494 493
f 299 300 425
f 369 494 368
f 369 495 494
f 369 496 495
f 298 299 425
f 298 425 424
f 370 496 369
f 297 424 423
f 297 298 424
f 371 497 496
f 371 496 370
f 296 297 423
f 296 422 421
f 296 423 422
f 372 497 371
f 372 498 497
f 295 296 421
f 295 421 420
f 373 499 498
f 373 498 372
f 294 295 420
f 374 500 499
f 374 499 373
f 293 294 420
f 293 419 418
f 293 420 419
f 375 500 374
f 375 501 500
f 292 293 418
f 376 501 375
f 376 502 501
f 291 418 417
f 291 292 418
f 377 502 376
f 377 503 502
f 377 504 503
f 290 416 415
f 290 417 416
f 290 291 417
f 378 504 377
f 289 290 415
f 379 504 378
f 379 505 504
f 379 506 505
f 288 289 415
f 288 415 414
f 380 506 379
f 287 414 413
f 287 288 414
f 255 382 381
f 255 381 506
f 255 506 380
f 286 412 411
f 286 413 412
f 286 287 413
f 256 382 255
f 285 286 411
f 285 411 410
f 257 383 382
f 257 382 256
f 284 285 410
f 258 384 383
f 258 385 384
f 258 383 257
f 283 409 408
f 283 410 409
f 283 284 410
f 259 386 385
f 259 385 258
f 282 283 408
f 282 408 407
f 260 386 259
f 281 282 407
f 281 407 406
f 261 386 260
f 261 387 386
f 280 281 406
f 262 388 387
f 262 389 388
f 262 387 261
f 279 280 406
f 279 406 405
f 263 389 262
f 278 279 405
f 278 405 404
f 264 389 263
f 264 390 389
f 277 278 404
f 277 403 402
f 277 404 403
f 265 390 264
f 265 391 390
f 265 392 391
f 276 277 402
f 266 392 265
f 275 276 402
f 275 401 400
f 275 402 401
f 267 392 266
f 267 393 392
f 267 394 393
f 274 275 400
f 274 400 399
f 268 394 267
f 273 274 399
f 269 394 268
f 269 395 394
f 272 273 399
f 272 399 398
f 270 396 395
f 270 397 396
f 270 395 269
f 271 398 397
f 271 272 398
f 271 397 270
f 588 587 586
f 583 585 584
f 583 586 585
f 591 588 586
f 591 586 583
f 591 582 581
f 591 583 582
f 591 589 588
f 591 590 589
f 578 591 581
f 578 580 579
f 578 581 580
f 594 593 592
f 576 591 578
f 576 578 577
f 574 576 575
f 598 594 592
f 598 595 594
f 598 596 595
f 598 597 596
f 572 574 573
f 572 576 574
f 600 598 592
f 600 592 591
f 600 599 598
f 570 572 571
f 602 601 600
f 568 570 569
f 604 602 600
f 604 603 602
f 567 570 568
f 606 605 604
f 565 570 567
f 565 567 566
f 565 576 572
f 565 572 570
f 563 565 564
f 609 608 607
f 562 565 563
f 610 606 604
f 610 609 607
f 610 604 600
f 610 600 591
f 610 607 606
f 561 565 562
f 611 610 591
f 559 565 561
f 559 561 560
f 559 576 565
f 614 613 612
f 557 559 558
f 556 559 557
f 616 615 614
f 617 612 611
f 617 611 591
f 617 614 612
f 617 616 614
f 617 591 576
f 554 559 556
f 554 556 555
f 553 559 554
f 621 618 617
f 621 619 618
f 621 620 619
f 550 552 551
f 548 550 549
f 548 552 550
f 624 622 621
f 624 623 622
f 547 553 552
f 547 552 548
f 544 546 545
f 544 547 546
f 629 625 624
f 629 626 625
f 629 627 626
f 629 628 627
f 629 624 621
f 542 544 543
f 542 547 544
f 539 629 621
f 539 541 540
f 539 542 541
f 539 576 559
f 539 617 576
f 539 559 553
f 539 621 617
f 539 553 547
f 539 547 542
f 538 629 539
f 536 538 537
f 512 510 509
f 512 511 510
f 533 535 534
f 513 512 509
f 532 538 536
f 532 629 538
f 532 535 533
f 532 536 535
f 514 508 507
f 514 509 508
f 514 630 629
f 514 631 630
f 514 632 631
f 514 507 632
f 514 513 509
f 515 514 629
f 529 531 530
f 529 532 531
f 528 516 515
f 528 532 529
f 528 629 532
f 528 515 629
f 518 517 516
f 519 518 516
f 525 527 526
f 525 528 527
f 521 520 519
f 524 528 525
f 523 522 521
f 523 516 528
f 523 521 519
f 523 519 516
f 523 528 524
f 635 761 762
f 636 762 763
f 636 635 762
f 637 763 764
f 637 636 763
f 638 764 765
f 638 637 764
f 639 765 766
f 639 638 765
f 640 766 767
f 640 639 766
f 641 640 767
f 642 767 768
f 642 641 767
f 643 768 769
f 643 642 768
f 644 769 770
f 644 770 771
f 644 643 769
f 645 644 771
f 646 645 771
f 646 771 772
f 647 646 772
f 647 772 773
f 648 647 773
f 648 773 774
f 648 774 775
f 649 648 775
f 650 649 775
f 650 775 776
f 651 650 776
f 651 776 777
f 652 651 777
f 652 777 778
f 652 778 779
f 653 652 779
f 654 653 779
f 654 779 780
f 654 780 781
f 655 654 781
f 656 655 781
f 656 781 782
f 656 782 783
f 657 656 783
f 658 783 784
f 658 657 783
f 659 784 785
f 659 658 784
f 660 785 786
f 660 659 785
f 661 786 787
f 661 660 786
f 662 787 788
f 662 661 787
f 663 788 789
f 663 662 788
f 664 789 790
f 664 663 789
f 665 790 791
f 665 664 790
f 666 791 792
f 666 665 791
f 667 792 793
f 667 793 794
f 667 666 792
f 668 667 794
f 669 794 795
f 669 668 794
f 670 795 796
f 670 796 797
f 670 669 795
f 671 670 797
f 672 671 797
f 672 797 798
f 673 672 798
f 673 798 799
f 673 799 800
f 674 673 800
f 675 674 800
f 675 800 801
f 676 675 801
f 676 801 802
f 677 676 802
f 677 802 803
f 677 803 804
f 678 677 804
f 679 678 804
f 679 804 805
f 679 805 806
f 680 679 806
f 680 806 807
f 681 680 807
f 682 681 807
f 682 807 808
f 683 682 808
f 683 808 809
f 683 809 810
f 684 683 810
f 685 684 810
f 685 810 811
f 686 685 811
f 686 811 812
f 686 812 813
f 687 686 813
f 687 813 814
f 688 687 814
f 689 688 814
f 689 814 815
f 690 689 815
f 690 815 816
f 691 690 816
f 691 816 817
f 692 691 817
f 692 817 818
f 693 818 819
f 693 692 818
f 693 819 820
f 694 693 820
f 695 820 821
f 695 821 822
f 695 694 820
f 696 822 823
f 696 695 822
f 697 696 823
f 698 697 823
f 698 823 824
f 699 698 824
f 699 824 825
f 700 699 825
f 700 825 826
f 700 826 827
f 701 700 827
f 701 827 828
f 702 701 828
f 703 702 828
f 703 828 829
f 704 703 829
f 704 829 830
f 705 704 830
f 705 830 831
f 706 705 831
f 706 831 832
f 706 832 833
f 707 706 833
f 708 834 835
f 708 707 833
f 708 833 834
f 709 835 836
f 709 708 835
f 710 709 836
f 711 836 837
f 711 837 838
f 711 710 836
f 712 711 838
f 713 838 839
f 713 712 838
f 714 839 840
f 714 713 839
f 715 840 841
f 715 714 840
f 716 841 842
f 716 715 841
f 717 842 843
f 717 843 844
f 717 716 842
f 718 717 844
f 719 844 845
f 719 845 846
f 719 718 844
f 720 719 846
f 721 846 847
f 721 847 848
f 721 720 846
f 722 721 848
f 723 722 848
f 723 848 849
f 724 723 849
f 724 849 850
f 725 724 850
f 725 850 851
f 725 851 852
f 726 725 852
f 727 852 853
f 727 726 852
f 728 853 854
f 728 727 853
f 729 854 855
f 729 855 856
f 729 728 854
f 730 729 856
f 731 856 857
f 731 857 858
f 731 730 856
f 732 731 858
f 733 858 859
f 733 732 858
f 734 859 860
f 734 733 859
f 735 860 861
f 735 734 860
f 736 861 862
f 736 862 863
f 736 735 861
f 737 736 863
f 738 863 864
f 738 864 865
f 738 737 863
f 739 738 865
f 740 865 866
f 740 866 867
f 740 739 865
f 741 740 867
f 742 867 868
f 742 741 867
f 743 868 869
f 743 869 870
f 743 742 868
f 744 743 870
f 745 870 871
f 745 744 870
f 746 871 872
f 746 872 873
f 746 745 871
f 747 746 873
f 748 747 873
f 748 873 874
f 749 748 874
f 749 874 875
f 750 749 875
f 750 875 876
f 751 750 876
f 751 876 877
f 752 751 877
f 752 877 878
f 752 878 879
f 753 752 879
f 754 753 879
f 754 879 880
f 755 754 880
f 755 880 881
f 756 755 881
f 756 881 882
f 756 882 883
f 757 756 883
f 758 757 883
f 758 883 884
f 759 758 884
f 759 884 885
f 760 759 885
f 760 885 886
f 634 886 633
f 634 760 886
f 968 966 967
f 962 963 964
f 962 964 965
f 962 965 966
f 971 966 968
f 971 968 969
f 971 969 970
f 960 962 966
f 960 961 962
f 959 960 966
f 974 972 973
f 975 972 974
f 955 966 971
f 955 959 966
f 955 956 957
f 955 957 958
f 955 958 959
f 977 972 975
f 977 971 972
f 977 975 976
f 953 954 955
f 979 971 977
f 979 977 978
f 980 955 971
f 980 971 979
f 950 951 952
f 950 952 953
f 950 953 955
f 982 980 981
f 947 948 949
f 947 949 950
f 985 980 982
f 985 982 983
f 985 983 984
f 945 946 947
f 945 950 955
f 945 947 950
f 987 980 985
f 987 955 980
f 987 985 986
f 944 945 955
f 944 955 987
f 990 988 989
f 940 987 988
f 940 944 987
f 940 941 942
f 940 942 943
f 940 943 944
f 993 991 992
f 937 938 939
f 995 990 991
f 995 993 994
f 995 991 993
f 934 935 936
f 933 936 937
f 933 934 936
f 932 940 988
f 932 937 939
f 932 933 937
f 932 939 940
f 1001 995 996
f 1001 996 997
f 1001 997 998
f 1001 998 999
f 1001 999 1000
f 1001 988 990
f 1001 990 995
f 929 930 931
f 928 931 932
f 928 929 931
f 1004 1002 1003
f 1005 1001 1002
f 1005 988 1001
f 1005 1002 1004
f 925 926 927
f 1007 1005 1006
f 923 924 925
f 923 927 928
f 923 925 927
f 887 1007 1008
f 887 1008 1009
f 887 1009 1010
f 887 1010 1011
f 887 1011 1012
f 918 919 920
f 917 918 920
f 889 887 888
f 889 1007 887
f 889 1005 1007
f 914 917 920
f 914 1005 889
f 914 915 916
f 914 916 917
f 914 920 921
f 914 921 922
f 914 922 923
f 914 932 988
f 914 928 932
f 914 988 1005
f 914 923 928
f 892 889 890
f 892 890 891
f 895 892 893
f 895 893 894
f 895 889 892
f 910 911 912
f 910 912 913
f 898 895 896
f 898 896 897
f 907 908 909
f 907 909 910
f 906 907 910
f 900 898 899
f 900 889 895
f 900 895 898
f 904 905 906
f 902 900 901
f 903 913 914
f 903 914 889
f 903 910 913
f 903 906 910
f 903 889 900
f 903 900 902
f 903 904 906
