# Cadless export: model
v -600 -175 410
v -600 -175 450
v -600 175 410
v -600 175 450
v -600 -175 410
v -500 -175 410
v -600 -175 450
v 600 -175 450
v 600 -175 410
v 500 -175 410
v 500 -175 0
v 460 -175 0
v 460 -175 410
v -460 -175 410
v -460 -175 0
v -500 -175 0
v -600 -175 450
v -600 175 450
v 600 -175 450
v 600 175 450
v -600 175 410
v -500 175 410
v -600 175 450
v 600 175 450
v 600 175 410
v 500 175 410
v 500 175 0
v 460 175 0
v 460 175 410
v -460 175 410
v -460 175 0
v -500 175 0
v -600 175 410
v -500 175 410
v -600 -175 410
v -500 -175 410
v 600 -175 410
v 600 -175 450
v 600 175 410
v 600 175 450
v 500 175 410
v 600 175 410
v 500 -175 410
v 600 -175 410
v 500 -175 0
v 500 -175 410
v 500 175 0
v 500 175 410
v 460 -175 0
v 460 175 0
v 500 -175 0
v 500 175 0
v 460 -175 0
v 460 -175 410
v 460 175 0
v 460 175 410
v 460 15 200
v 460 -15 200
v 460 -15 280
v 460 15 280
v -460 175 410
v 460 175 410
v -460 -175 410
v 460 -175 410
v -460 -175 0
v -460 -175 410
v -460 175 0
v -460 175 410
v -460 15 200
v -460 -15 200
v -460 -15 280
v -460 15 280
v -500 -175 0
v -500 175 0
v -460 -175 0
v -460 175 0
v -500 -175 0
v -500 -175 410
v -500 175 0
v -500 175 410
v -460 15 200
v 460 15 200
v -460 -15 200
v 460 -15 200
v -460 15 200
v 460 15 200
v -460 15 280
v 460 15 280
v -460 15 280
v 460 15 280
v -460 -15 280
v 460 -15 280
v -460 -15 200
v 460 -15 200
v -460 -15 280
v 460 -15 280
f 2 3 1
f 2 4 3
f 6 7 5
f 6 16 15
f 14 6 15
f 14 7 6
f 13 12 11
f 10 13 11
f 8 10 9
f 8 13 10
f 7 13 8
f 7 14 13
f 20 18 17
f 20 17 19
f 22 21 23
f 22 31 32
f 30 31 22
f 30 22 23
f 29 27 28
f 26 27 29
f 24 25 26
f 24 26 29
f 23 24 29
f 23 29 30
f 33 36 35
f 34 36 33
f 38 37 39
f 38 39 40
f 41 44 43
f 42 44 41
f 48 45 47
f 46 45 48
f 52 49 50
f 52 51 49
f 58 55 53
f 58 57 55
f 56 55 57
f 60 56 57
f 54 59 58
f 54 60 59
f 54 58 53
f 54 56 60
f 62 63 61
f 62 64 63
f 70 65 67
f 70 67 69
f 68 69 67
f 72 69 68
f 66 70 71
f 66 71 72
f 66 65 70
f 66 72 68
f 76 73 74
f 76 75 73
f 80 79 77
f 78 80 77
f 84 83 81
f 82 84 81
f 86 85 87
f 88 86 87
f 92 89 91
f 90 89 92
f 94 95 93
f 96 95 94
