# Cadless export: model
v 382 -150 18
v 382 -150 370
v 382 138 18
v 382 138 370
v -382 -150 18
v -382 138 18
v 382 -150 18
v 382 138 18
v -382 -150 18
v -382 -150 370
v -382 138 18
v -382 138 370
v 382 138 18
v 382 138 370
v -382 138 18
v -382 138 370
v -382 -150 370
v -382 138 370
v 382 -150 370
v 382 138 370
v -400 -150 0
v 400 -150 0
v -400 -150 1800
v 400 -150 1800
v -382 -150 18
v -382 -150 370
v 382 -150 18
v 382 -150 370
v -382 -150 388
v -382 -150 730
v 382 -150 388
v 382 -150 730
v -382 -150 748
v -382 -150 1090
v 382 -150 748
v 382 -150 1090
v -382 -150 1108
v -382 -150 1450
v 382 -150 1108
v 382 -150 1450
v -382 -150 1468
v -382 -150 1782
v 382 -150 1468
v 382 -150 1782
v -382 -150 1782
v -382 138 1782
v 382 -150 1782
v 382 138 1782
v 382 138 1468
v -382 138 1468
v -382 138 1782
v 382 138 1782
v 382 -150 1468
v 382 -150 1782
v 382 138 1468
v 382 138 1782
v -382 -150 1468
v -382 138 1468
v 382 -150 1468
v 382 138 1468
v -382 -150 1468
v -382 -150 1782
v -382 138 1468
v -382 138 1782
v -382 -150 1450
v -382 138 1450
v 382 -150 1450
v 382 138 1450
v 382 138 1108
v -382 138 1108
v -382 138 1450
v 382 138 1450
v 382 -150 1108
v 382 -150 1450
v 382 138 1108
v 382 138 1450
v -382 -150 1108
v -382 138 1108
v 382 -150 1108
v 382 138 1108
v -382 -150 1108
v -382 -150 1450
v -382 138 1108
v -382 138 1450
v -382 -150 1090
v -382 138 1090
v 382 -150 1090
v 382 138 1090
v 382 138 748
v -382 138 748
v -382 138 1090
v 382 138 1090
v 382 -150 748
v 382 -150 1090
v 382 138 748
v 382 138 1090
v -382 -150 748
v -382 138 748
v 382 -150 748
v 382 138 748
v -382 -150 748
v -382 -150 1090
v -382 138 748
v -382 138 1090
v -382 -150 730
v -382 138 730
v 382 -150 730
v 382 138 730
v 382 138 388
v -382 138 388
v -382 138 730
v 382 138 730
v 382 -150 388
v 382 -150 730
v 382 138 388
v 382 138 730
v -382 -150 388
v -382 138 388
v 382 -150 388
v 382 138 388
v -382 -150 388
v -382 -150 730
v -382 138 388
v -382 138 730
v 400 -150 1800
v 400 150 1800
v 400 -150 0
v 400 150 0
v 400 150 0
v -400 150 0
v -400 150 1800
v 400 150 1800
v -400 -150 1800
v -400 150 1800
v 400 -150 1800
v 400 150 1800
v -400 -150 1800
v -400 150 1800
v -400 -150 0
v -400 150 0
v 400 150 0
v 400 -150 0
v -400 150 0
v -400 -150 0
f 4 3 1
f 2 4 1
f 8 6 5
f 8 5 7
f 12 9 11
f 10 9 12
f 13 16 15
f 14 16 13
f 20 17 18
f 20 19 17
f 26 21 25
f 29 21 26
f 22 25 21
f 27 25 22
f 28 27 22
f 28 29 26
f 31 29 28
f 32 33 30
f 35 33 32
f 23 38 41
f 42 23 41
f 36 37 34
f 39 37 36
f 40 41 38
f 43 41 40
f 44 23 42
f 24 44 43
f 24 23 44
f 21 38 23
f 21 37 38
f 21 34 37
f 21 33 34
f 21 30 33
f 21 29 30
f 24 28 22
f 24 31 28
f 24 32 31
f 24 35 32
f 24 36 35
f 24 39 36
f 24 40 39
f 24 43 40
f 48 45 46
f 48 47 45
f 49 51 50
f 52 51 49
f 54 55 53
f 54 56 55
f 60 58 57
f 60 57 59
f 62 61 63
f 62 63 64
f 68 65 66
f 68 67 65
f 69 71 70
f 72 71 69
f 74 75 73
f 74 76 75
f 80 78 77
f 80 77 79
f 82 81 83
f 82 83 84
f 88 85 86
f 88 87 85
f 89 91 90
f 92 91 89
f 94 95 93
f 94 96 95
f 100 98 97
f 100 97 99
f 102 101 103
f 102 103 104
f 108 105 106
f 108 107 105
f 109 111 110
f 112 111 109
f 114 115 113
f 114 116 115
f 120 118 117
f 120 117 119
f 122 121 123
f 122 123 124
f 126 127 128
f 125 127 126
f 132 129 130
f 132 130 131
f 135 134 133
f 136 134 135
f 138 140 139
f 137 138 139
f 142 144 143
f 141 142 143
