# Cadless export: model
v -800 -450 720
v -800 -450 750
v -800 450 720
v -800 450 750
v -800 -450 720
v 800 -450 720
v -800 -450 750
v 800 -450 750
v -800 -450 750
v -800 450 750
v 800 -450 750
v 800 450 750
v -800 450 720
v 800 450 720
v -800 450 750
v 800 450 750
v -800 -450 720
v -800 450 720
v 800 -450 720
v 800 450 720
v -720 -370 720
v -720 -310 720
v -700 -310 720
v -700 310 720
v -720 310 720
v -720 370 720
v -660 370 720
v -660 350 720
v 660 350 720
v 660 370 720
v 720 370 720
v 720 310 720
v 700 310 720
v 700 -310 720
v 720 -310 720
v 720 -370 720
v 660 -370 720
v 660 -350 720
v -660 -350 720
v -660 -370 720
v 800 -450 720
v 800 -450 750
v 800 450 720
v 800 450 750
v -720 -370 0
v -720 -370 720
v -720 -310 0
v -720 -310 720
v -720 -370 0
v -660 -370 0
v -720 -370 720
v -660 -370 720
v -660 -370 720
v -660 -350 720
v -660 -370 0
v -660 -310 0
v -660 -310 720
v -660 -330 720
v -660 -330 620
v -660 -350 620
v -660 -350 620
v 660 -350 620
v -660 -350 720
v 660 -350 720
v 660 -370 720
v 660 -350 720
v 660 -370 0
v 660 -310 0
v 660 -310 720
v 660 -330 720
v 660 -330 620
v 660 -350 620
v 660 -370 0
v 720 -370 0
v 660 -370 720
v 720 -370 720
v 720 -370 0
v 720 -370 720
v 720 -310 0
v 720 -310 720
v 720 -310 0
v 720 -310 720
v 660 -310 0
v 660 -310 720
v 680 -310 720
v 680 -310 620
v 700 -310 620
v 700 -310 720
v 700 -310 620
v 700 -310 720
v 700 310 620
v 700 310 720
v 720 310 0
v 720 310 720
v 660 310 0
v 660 310 720
v 680 310 720
v 680 310 620
v 700 310 620
v 700 310 720
v 720 310 0
v 720 310 720
v 720 370 0
v 720 370 720
v 660 370 0
v 720 370 0
v 660 370 720
v 720 370 720
v 660 310 720
v 660 330 720
v 660 310 0
v 660 370 0
v 660 370 720
v 660 350 720
v 660 350 620
v 660 330 620
v -660 350 620
v 660 350 620
v -660 350 720
v 660 350 720
v -660 310 720
v -660 330 720
v -660 310 0
v -660 370 0
v -660 370 720
v -660 350 720
v -660 350 620
v -660 330 620
v -720 370 0
v -660 370 0
v -720 370 720
v -660 370 720
v -720 310 0
v -720 310 720
v -720 370 0
v -720 370 720
v -660 310 0
v -660 310 720
v -720 310 0
v -720 310 720
v -700 310 720
v -700 310 620
v -680 310 620
v -680 310 720
v -700 -310 620
v -700 -310 720
v -700 310 620
v -700 310 720
v -660 -310 0
v -660 -310 720
v -720 -310 0
v -720 -310 720
v -700 -310 720
v -700 -310 620
v -680 -310 620
v -680 -310 720
v -720 -370 0
v -720 -310 0
v -660 -370 0
v -660 -310 0
v -660 -350 620
v -660 -330 620
v 660 -350 620
v 660 -330 620
v -660 -330 620
v 660 -330 620
v -660 -330 720
v 660 -330 720
v -680 -310 720
v -680 310 720
v -660 -310 720
v -660 -330 720
v 660 -330 720
v 660 -310 720
v 680 -310 720
v 680 310 720
v 660 310 720
v 660 330 720
v -660 330 720
v -660 310 720
v 660 -370 0
v 660 -310 0
v 720 -370 0
v 720 -310 0
v 680 -310 620
v 680 310 620
v 700 -310 620
v 700 310 620
v 680 -310 620
v 680 -310 720
v 680 310 620
v 680 310 720
v 660 310 0
v 660 370 0
v 720 310 0
v 720 370 0
v -660 330 620
v 660 330 620
v -660 330 720
v 660 330 720
v -660 330 620
v -660 350 620
v 660 330 620
v 660 350 620
v -720 310 0
v -720 370 0
v -660 310 0
v -660 370 0
v -680 -310 620
v -680 -310 720
v -680 310 620
v -680 310 720
v -700 -310 620
v -700 310 620
v -680 -310 620
v -680 310 620
f 2 3 1
f 2 4 3
f 6 7 5
f 8 7 6
f 11 10 9
f 12 10 11
f 14 13 15
f 16 14 15
f 22 21 17
f 40 17 21
f 24 23 22
f 24 22 25
f 18 26 25
f 18 25 22
f 18 22 17
f 27 26 18
f 37 40 39
f 38 37 39
f 19 40 37
f 19 17 40
f 36 19 37
f 35 19 36
f 29 28 27
f 30 29 27
f 32 34 33
f 32 35 34
f 20 31 30
f 20 32 31
f 20 35 32
f 20 19 35
f 20 27 18
f 20 30 27
f 42 41 43
f 42 43 44
f 48 47 45
f 46 48 45
f 51 49 50
f 52 51 50
f 60 55 56
f 60 56 59
f 57 59 56
f 58 59 57
f 53 60 54
f 53 55 60
f 62 63 61
f 64 63 62
f 72 68 67
f 72 71 68
f 69 68 71
f 70 69 71
f 65 66 72
f 65 72 67
f 75 73 74
f 76 75 74
f 80 77 79
f 78 77 80
f 87 81 83
f 87 83 86
f 84 86 83
f 85 86 84
f 82 87 88
f 82 81 87
f 90 89 91
f 90 91 92
f 99 95 93
f 99 98 95
f 96 95 98
f 97 96 98
f 94 100 99
f 94 99 93
f 104 101 103
f 102 101 104
f 107 106 105
f 108 106 107
f 116 112 111
f 116 115 112
f 113 112 115
f 114 113 115
f 109 110 116
f 109 116 111
f 118 117 119
f 120 118 119
f 128 123 124
f 128 124 127
f 125 127 124
f 126 127 125
f 121 128 122
f 121 123 128
f 131 130 129
f 132 130 131
f 136 135 133
f 134 136 133
f 143 139 137
f 143 142 139
f 140 139 142
f 141 140 142
f 138 144 143
f 138 143 137
f 146 147 145
f 146 148 147
f 155 149 151
f 155 151 154
f 152 154 151
f 153 154 152
f 150 155 156
f 150 149 155
f 160 157 158
f 160 159 157
f 163 161 162
f 164 163 162
f 166 165 167
f 168 166 167
f 180 169 170
f 180 171 169
f 173 172 171
f 174 173 171
f 177 180 179
f 177 171 180
f 177 174 171
f 178 177 179
f 176 175 174
f 176 174 177
f 184 181 182
f 184 183 181
f 188 185 186
f 188 187 185
f 190 191 189
f 190 192 191
f 196 193 194
f 196 195 193
f 198 199 197
f 200 199 198
f 203 201 202
f 204 203 202
f 208 205 206
f 208 207 205
f 210 209 211
f 210 211 212
f 216 213 214
f 216 215 213
