# Cadless export: model
v 25 -20 12
v 25 -20 43
v 50 -20 12
v 50 -20 0
v -50 -20 0
v -50 -20 12
v -25 -20 12
v -25 -20 43
v 12.5 -20 28
v 12.4845 -20 28.6231
v 12.4379 -20 29.2446
v 12.3604 -20 29.863
v 12.2522 -20 30.4768
v 12.1135 -20 31.0845
v 11.9447 -20 31.6844
v 11.7462 -20 32.2753
v 11.5185 -20 32.8554
v 11.2621 -20 33.4235
v 10.9778 -20 33.9782
v 10.6661 -20 34.5179
v 10.328 -20 35.0415
v 9.96416 -20 35.5476
v 9.57556 -20 36.0348
v 9.16315 -20 36.5022
v 8.72796 -20 36.9483
v 8.27107 -20 37.3723
v 7.79362 -20 37.7729
v 7.2968 -20 38.1492
v 6.78183 -20 38.5003
v 6.25 -20 38.8253
v 5.70263 -20 39.1234
v 5.14109 -20 39.3938
v 4.56676 -20 39.6359
v 3.98108 -20 39.8491
v 3.38551 -20 40.0328
v 2.78151 -20 40.1866
v 2.1706 -20 40.3101
v 1.5543 -20 40.403
v 0.934126 -20 40.465
v 0.311634 -20 40.4961
v -0.311634 -20 40.4961
v -0.934126 -20 40.465
v -1.5543 -20 40.403
v -2.1706 -20 40.3101
v -2.78151 -20 40.1866
v -3.38551 -20 40.0328
v -3.98108 -20 39.8491
v -4.56676 -20 39.6359
v -5.14109 -20 39.3938
v -5.70263 -20 39.1234
v -6.25 -20 38.8253
v -6.78183 -20 38.5003
v -7.2968 -20 38.1492
v -7.79362 -20 37.7729
v -8.27107 -20 37.3723
v -8.72796 -20 36.9483
v -9.16315 -20 36.5022
v -9.57556 -20 36.0348
v -9.96416 -20 35.5476
v -10.328 -20 35.0415
v -10.6661 -20 34.5179
v -10.9778 -20 33.9782
v -11.2621 -20 33.4235
v -11.5185 -20 32.8554
v -11.7462 -20 32.2753
v -11.9447 -20 31.6844
v -12.1135 -20 31.0845
v -12.2522 -20 30.4768
v -12.3604 -20 29.863
v -12.4379 -20 29.2446
v -12.4845 -20 28.6231
v -12.5 -20 28
v -12.4845 -20 27.3769
v -12.4379 -20 26.7554
v -12.3604 -20 26.137
v -12.2522 -20 25.5232
v -12.1135 -20 24.9155
v -11.9447 -20 24.3156
v -11.7462 -20 23.7247
v -11.5185 -20 23.1446
v -11.2621 -20 22.5765
v -10.9778 -20 22.0218
v -10.6661 -20 21.4821
v -10.328 -20 20.9585
v -9.96416 -20 20.4524
v -9.57556 -20 19.9652
v -9.16315 -20 19.4978
v -8.72796 -20 19.0517
v -8.27107 -20 18.6277
v -7.79362 -20 18.2271
v -7.2968 -20 17.8508
v -6.78183 -20 17.4997
v -6.25 -20 17.1747
v -5.70263 -20 16.8766
v -5.14109 -20 16.6062
v -4.56676 -20 16.3641
v -3.98108 -20 16.1509
v -3.38551 -20 15.9672
v -2.78151 -20 15.8134
v -2.1706 -20 15.6899
v -1.5543 -20 15.597
v -0.934126 -20 15.535
v -0.311634 -20 15.5039
v 0.311634 -20 15.5039
v 0.934126 -20 15.535
v 1.5543 -20 15.597
v 2.1706 -20 15.6899
v 2.78151 -20 15.8134
v 3.38551 -20 15.9672
v 3.98108 -20 16.1509
v 4.56676 -20 16.3641
v 5.14109 -20 16.6062
v 5.70263 -20 16.8766
v 6.25 -20 17.1747
v 6.78183 -20 17.4997
v 7.2968 -20 17.8508
v 7.79362 -20 18.2271
v 8.27107 -20 18.6277
v 8.72796 -20 19.0517
v 9.16315 -20 19.4978
v 9.57556 -20 19.9652
v 9.96416 -20 20.4524
v 10.328 -20 20.9585
v 10.6661 -20 21.4821
v 10.9778 -20 22.0218
v 11.2621 -20 22.5765
v 11.5185 -20 23.1446
v 11.7462 -20 23.7247
v 11.9447 -20 24.3156
v 12.1135 -20 24.9155
v 12.2522 -20 25.5232
v 12.3604 -20 26.137
v 12.4379 -20 26.7554
v 12.4845 -20 27.3769
v 25 -20 12
v 25 -20 43
v 25 20 12
v 25 20 43
v -25 -20 43
v -23 -18 45
v 25 -20 43
v 23 -18 45
v 25 20 12
v 50 20 12
v 25 -20 12
v 50 -20 12
v 47 -1.71451e-15 12
v 46.9913 0.348921 12
v 46.9652 0.696975 12
v 46.9218 1.0433 12
v 46.8612 1.38702 12
v 46.7835 1.7273 12
v 46.689 2.06329 12
v 46.5778 2.39414 12
v 46.4503 2.71904 12
v 46.3068 3.03719 12
v 46.1476 3.34778 12
v 45.973 3.65005 12
v 45.7837 3.94324 12
v 45.5799 4.22663 12
v 45.3623 4.49951 12
v 45.1314 4.76121 12
v 44.8877 5.01107 12
v 44.6318 5.24847 12
v 44.3644 5.47282 12
v 44.0862 5.68357 12
v 43.7978 5.88018 12
v 43.5 6.06218 12
v 43.1935 6.2291 12
v 42.879 6.38054 12
v 42.5574 6.51612 12
v 42.2294 6.63549 12
v 41.8959 6.73837 12
v 41.5576 6.8245 12
v 41.2155 6.89365 12
v 40.8704 6.94567 12
v 40.5231 6.98043 12
v 40.1745 6.99782 12
v 39.8255 6.99782 12
v 39.4769 6.98043 12
v 39.1296 6.94567 12
v 38.7845 6.89365 12
v 38.4424 6.8245 12
v 38.1041 6.73837 12
v 37.7706 6.63549 12
v 37.4426 6.51612 12
v 37.121 6.38054 12
v 36.8065 6.2291 12
v 36.5 6.06218 12
v 36.2022 5.88018 12
v 35.9138 5.68357 12
v 35.6356 5.47282 12
v 35.3682 5.24847 12
v 35.1123 5.01107 12
v 34.8686 4.76121 12
v 34.6377 4.49951 12
v 34.4201 4.22663 12
v 34.2163 3.94324 12
v 34.027 3.65005 12
v 33.8524 3.34778 12
v 33.6932 3.03719 12
v 33.5497 2.71904 12
v 33.4222 2.39414 12
v 33.311 2.06329 12
v 33.2165 1.7273 12
v 33.1388 1.38702 12
v 33.0782 1.0433 12
v 33.0348 0.696975 12
v 33.0087 0.348921 12
v 33 -2.40117e-14 12
v 33.0087 -0.348921 12
v 33.0348 -0.696975 12
v 33.0782 -1.0433 12
v 33.1388 -1.38702 12
v 33.2165 -1.7273 12
v 33.311 -2.06329 12
v 33.4222 -2.39414 12
v 33.5497 -2.71904 12
v 33.6932 -3.03719 12
v 33.8524 -3.34778 12
v 34.027 -3.65005 12
v 34.2163 -3.94324 12
v 34.4201 -4.22663 12
v 34.6377 -4.49951 12
v 34.8686 -4.76121 12
v 35.1123 -5.01107 12
v 35.3682 -5.24847 12
v 35.6356 -5.47282 12
v 35.9138 -5.68357 12
v 36.2022 -5.88018 12
v 36.5 -6.06218 12
v 36.8065 -6.2291 12
v 37.121 -6.38054 12
v 37.4426 -6.51612 12
v 37.7706 -6.63549 12
v 38.1041 -6.73837 12
v 38.4424 -6.8245 12
v 38.7845 -6.89365 12
v 39.1296 -6.94567 12
v 39.4769 -6.98043 12
v 39.8255 -6.99782 12
v 40.1745 -6.99782 12
v 40.5231 -6.98043 12
v 40.8704 -6.94567 12
v 41.2155 -6.89365 12
v 41.5576 -6.8245 12
v 41.8959 -6.73837 12
v 42.2294 -6.63549 12
v 42.5574 -6.51612 12
v 42.879 -6.38054 12
v 43.1935 -6.2291 12
v 43.5 -6.06218 12
v 43.7978 -5.88018 12
v 44.0862 -5.68357 12
v 44.3644 -5.47282 12
v 44.6318 -5.24847 12
v 44.8877 -5.01107 12
v 45.1314 -4.76121 12
v 45.3623 -4.49951 12
v 45.5799 -4.22663 12
v 45.7837 -3.94324 12
v 45.973 -3.65005 12
v 46.1476 -3.34778 12
v 46.3068 -3.03719 12
v 46.4503 -2.71904 12
v 46.5778 -2.39414 12
v 46.689 -2.06329 12
v 46.7835 -1.7273 12
v 46.8612 -1.38702 12
v 46.9218 -1.0433 12
v 46.9652 -0.696975 12
v 46.9913 -0.348921 12
v -25 -20 12
v -25 -20 43
v -25 20 12
v -25 20 43
v 50 -20 0
v 50 -20 12
v 50 20 0
v 50 20 12
v -50 20 12
v -25 20 12
v -50 -20 12
v -25 -20 12
v -33 -1.71451e-15 12
v -33.0087 0.348921 12
v -33.0348 0.696975 12
v -33.0782 1.0433 12
v -33.1388 1.38702 12
v -33.2165 1.7273 12
v -33.311 2.06329 12
v -33.4222 2.39414 12
v -33.5497 2.71904 12
v -33.6932 3.03719 12
v -33.8524 3.34778 12
v -34.027 3.65005 12
v -34.2163 3.94324 12
v -34.4201 4.22663 12
v -34.6377 4.49951 12
v -34.8686 4.76121 12
v -35.1123 5.01107 12
v -35.3682 5.24847 12
v -35.6356 5.47282 12
v -35.9138 5.68357 12
v -36.2022 5.88018 12
v -36.5 6.06218 12
v -36.8065 6.2291 12
v -37.121 6.38054 12
v -37.4426 6.51612 12
v -37.7706 6.63549 12
v -38.1041 6.73837 12
v -38.4424 6.8245 12
v -38.7845 6.89365 12
v -39.1296 6.94567 12
v -39.4769 6.98043 12
v -39.8255 6.99782 12
v -40.1745 6.99782 12
v -40.5231 6.98043 12
v -40.8704 6.94567 12
v -41.2155 6.89365 12
v -41.5576 6.8245 12
v -41.8959 6.73837 12
v -42.2294 6.63549 12
v -42.5574 6.51612 12
v -42.879 6.38054 12
v -43.1935 6.2291 12
v -43.5 6.06218 12
v -43.7978 5.88018 12
v -44.0862 5.68357 12
v -44.3644 5.47282 12
v -44.6318 5.24847 12
v -44.8877 5.01107 12
v -45.1314 4.76121 12
v -45.3623 4.49951 12
v -45.5799 4.22663 12
v -45.7837 3.94324 12
v -45.973 3.65005 12
v -46.1476 3.34778 12
v -46.3068 3.03719 12
v -46.4503 2.71904 12
v -46.5778 2.39414 12
v -46.689 2.06329 12
v -46.7835 1.7273 12
v -46.8612 1.38702 12
v -46.9218 1.0433 12
v -46.9652 0.696975 12
v -46.9913 0.348921 12
v -47 -2.40117e-14 12
v -46.9913 -0.348921 12
v -46.9652 -0.696975 12
v -46.9218 -1.0433 12
v -46.8612 -1.38702 12
v -46.7835 -1.7273 12
v -46.689 -2.06329 12
v -46.5778 -2.39414 12
v -46.4503 -2.71904 12
v -46.3068 -3.03719 12
v -46.1476 -3.34778 12
v -45.973 -3.65005 12
v -45.7837 -3.94324 12
v -45.5799 -4.22663 12
v -45.3623 -4.49951 12
v -45.1314 -4.76121 12
v -44.8877 -5.01107 12
v -44.6318 -5.24847 12
v -44.3644 -5.47282 12
v -44.0862 -5.68357 12
v -43.7978 -5.88018 12
v -43.5 -6.06218 12
v -43.1935 -6.2291 12
v -42.879 -6.38054 12
v -42.5574 -6.51612 12
v -42.2294 -6.63549 12
v -41.8959 -6.73837 12
v -41.5576 -6.8245 12
v -41.2155 -6.89365 12
v -40.8704 -6.94567 12
v -40.5231 -6.98043 12
v -40.1745 -6.99782 12
v -39.8255 -6.99782 12
v -39.4769 -6.98043 12
v -39.1296 -6.94567 12
v -38.7845 -6.89365 12
v -38.4424 -6.8245 12
v -38.1041 -6.73837 12
v -37.7706 -6.63549 12
v -37.4426 -6.51612 12
v -37.121 -6.38054 12
v -36.8065 -6.2291 12
v -36.5 -6.06218 12
v -36.2022 -5.88018 12
v -35.9138 -5.68357 12
v -35.6356 -5.47282 12
v -35.3682 -5.24847 12
v -35.1123 -5.01107 12
v -34.8686 -4.76121 12
v -34.6377 -4.49951 12
v -34.4201 -4.22663 12
v -34.2163 -3.94324 12
v -34.027 -3.65005 12
v -33.8524 -3.34778 12
v -33.6932 -3.03719 12
v -33.5497 -2.71904 12
v -33.4222 -2.39414 12
v -33.311 -2.06329 12
v -33.2165 -1.7273 12
v -33.1388 -1.38702 12
v -33.0782 -1.0433 12
v -33.0348 -0.696975 12
v -33.0087 -0.348921 12
v -50 -20 0
v -50 20 0
v 50 -20 0
v 50 20 0
v -36 -9.79717e-16 0
v -36.005 0.199384 0
v -36.0199 0.398271 0
v -36.0447 0.596169 0
v -36.0793 0.792585 0
v -36.1237 0.98703 0
v -36.1777 1.17902 0
v -36.2412 1.36808 0
v -36.3141 1.55374 0
v -36.3961 1.73553 0
v -36.4871 1.91302 0
v -36.5868 2.08574 0
v -36.695 2.25328 0
v -36.8115 2.41522 0
v -36.9358 2.57115 0
v -37.0678 2.72069 0
v -37.2071 2.86347 0
v -37.3533 2.99912 0
v -37.506 3.12733 0
v -37.665 3.24775 0
v -37.8298 3.3601 0
v -38 3.4641 0
v -38.1752 3.55949 0
v -38.3549 3.64602 0
v -38.5386 3.72349 0
v -38.7261 3.79171 0
v -38.9166 3.8505 0
v -39.1099 3.89971 0
v -39.3054 3.93923 0
v -39.5026 3.96896 0
v -39.7011 3.98882 0
v -39.9003 3.99876 0
v -40.0997 3.99876 0
v -40.2989 3.98882 0
v -40.4974 3.96896 0
v -40.6946 3.93923 0
v -40.8901 3.89971 0
v -41.0834 3.8505 0
v -41.2739 3.79171 0
v -41.4614 3.72349 0
v -41.6451 3.64602 0
v -41.8248 3.55949 0
v -42 3.4641 0
v -42.1702 3.3601 0
v -42.335 3.24775 0
v -42.494 3.12733 0
v -42.6467 2.99912 0
v -42.7929 2.86347 0
v -42.9322 2.72069 0
v -43.0642 2.57115 0
v -43.1885 2.41522 0
v -43.305 2.25328 0
v -43.4132 2.08574 0
v -43.5129 1.91302 0
v -43.6039 1.73553 0
v -43.6859 1.55374 0
v -43.7588 1.36808 0
v -43.8223 1.17902 0
v -43.8763 0.98703 0
v -43.9207 0.792585 0
v -43.9553 0.596169 0
v -43.9801 0.398271 0
v -43.995 0.199384 0
v -44 -1.3721e-14 0
v -43.995 -0.199384 0
v -43.9801 -0.398271 0
v -43.9553 -0.596169 0
v -43.9207 -0.792585 0
v -43.8763 -0.98703 0
v -43.8223 -1.17902 0
v -43.7588 -1.36808 0
v -43.6859 -1.55374 0
v -43.6039 -1.73553 0
v -43.5129 -1.91302 0
v -43.4132 -2.08574 0
v -43.305 -2.25328 0
v -43.1885 -2.41522 0
v -43.0642 -2.57115 0
v -42.9322 -2.72069 0
v -42.7929 -2.86347 0
v -42.6467 -2.99912 0
v -42.494 -3.12733 0
v -42.335 -3.24775 0
v -42.1702 -3.3601 0
v -42 -3.4641 0
v -41.8248 -3.55949 0
v -41.6451 -3.64602 0
v -41.4614 -3.72349 0
v -41.2739 -3.79171 0
v -41.0834 -3.8505 0
v -40.8901 -3.89971 0
v -40.6946 -3.93923 0
v -40.4974 -3.96896 0
v -40.2989 -3.98882 0
v -40.0997 -3.99876 0
v -39.9003 -3.99876 0
v -39.7011 -3.98882 0
v -39.5026 -3.96896 0
v -39.3054 -3.93923 0
v -39.1099 -3.89971 0
v -38.9166 -3.8505 0
v -38.7261 -3.79171 0
v -38.5386 -3.72349 0
v -38.3549 -3.64602 0
v -38.1752 -3.55949 0
v -38 -3.4641 0
v -37.8298 -3.3601 0
v -37.665 -3.24775 0
v -37.506 -3.12733 0
v -37.3533 -2.99912 0
v -37.2071 -2.86347 0
v -37.0678 -2.72069 0
v -36.9358 -2.57115 0
v -36.8115 -2.41522 0
v -36.695 -2.25328 0
v -36.5868 -2.08574 0
v -36.4871 -1.91302 0
v -36.3961 -1.73553 0
v -36.3141 -1.55374 0
v -36.2412 -1.36808 0
v -36.1777 -1.17902 0
v -36.1237 -0.98703 0
v -36.0793 -0.792585 0
v -36.0447 -0.596169 0
v -36.0199 -0.398271 0
v -36.005 -0.199384 0
v 44 -9.79717e-16 0
v 43.995 0.199384 0
v 43.9801 0.398271 0
v 43.9553 0.596169 0
v 43.9207 0.792585 0
v 43.8763 0.98703 0
v 43.8223 1.17902 0
v 43.7588 1.36808 0
v 43.6859 1.55374 0
v 43.6039 1.73553 0
v 43.5129 1.91302 0
v 43.4132 2.08574 0
v 43.305 2.25328 0
v 43.1885 2.41522 0
v 43.0642 2.57115 0
v 42.9322 2.72069 0
v 42.7929 2.86347 0
v 42.6467 2.99912 0
v 42.494 3.12733 0
v 42.335 3.24775 0
v 42.1702 3.3601 0
v 42 3.4641 0
v 41.8248 3.55949 0
v 41.6451 3.64602 0
v 41.4614 3.72349 0
v 41.2739 3.79171 0
v 41.0834 3.8505 0
v 40.8901 3.89971 0
v 40.6946 3.93923 0
v 40.4974 3.96896 0
v 40.2989 3.98882 0
v 40.0997 3.99876 0
v 39.9003 3.99876 0
v 39.7011 3.98882 0
v 39.5026 3.96896 0
v 39.3054 3.93923 0
v 39.1099 3.89971 0
v 38.9166 3.8505 0
v 38.7261 3.79171 0
v 38.5386 3.72349 0
v 38.3549 3.64602 0
v 38.1752 3.55949 0
v 38 3.4641 0
v 37.8298 3.3601 0
v 37.665 3.24775 0
v 37.506 3.12733 0
v 37.3533 2.99912 0
v 37.2071 2.86347 0
v 37.0678 2.72069 0
v 36.9358 2.57115 0
v 36.8115 2.41522 0
v 36.695 2.25328 0
v 36.5868 2.08574 0
v 36.4871 1.91302 0
v 36.3961 1.73553 0
v 36.3141 1.55374 0
v 36.2412 1.36808 0
v 36.1777 1.17902 0
v 36.1237 0.98703 0
v 36.0793 0.792585 0
v 36.0447 0.596169 0
v 36.0199 0.398271 0
v 36.005 0.199384 0
v 36 -1.3721e-14 0
v 36.005 -0.199384 0
v 36.0199 -0.398271 0
v 36.0447 -0.596169 0
v 36.0793 -0.792585 0
v 36.1237 -0.98703 0
v 36.1777 -1.17902 0
v 36.2412 -1.36808 0
v 36.3141 -1.55374 0
v 36.3961 -1.73553 0
v 36.4871 -1.91302 0
v 36.5868 -2.08574 0
v 36.695 -2.25328 0
v 36.8115 -2.41522 0
v 36.9358 -2.57115 0
v 37.0678 -2.72069 0
v 37.2071 -2.86347 0
v 37.3533 -2.99912 0
v 37.506 -3.12733 0
v 37.665 -3.24775 0
v 37.8298 -3.3601 0
v 38 -3.4641 0
v 38.1752 -3.55949 0
v 38.3549 -3.64602 0
v 38.5386 -3.72349 0
v 38.7261 -3.79171 0
v 38.9166 -3.8505 0
v 39.1099 -3.89971 0
v 39.3054 -3.93923 0
v 39.5026 -3.96896 0
v 39.7011 -3.98882 0
v 39.9003 -3.99876 0
v 40.0997 -3.99876 0
v 40.2989 -3.98882 0
v 40.4974 -3.96896 0
v 40.6946 -3.93923 0
v 40.8901 -3.89971 0
v 41.0834 -3.8505 0
v 41.2739 -3.79171 0
v 41.4614 -3.72349 0
v 41.6451 -3.64602 0
v 41.8248 -3.55949 0
v 42 -3.4641 0
v 42.1702 -3.3601 0
v 42.335 -3.24775 0
v 42.494 -3.12733 0
v 42.6467 -2.99912 0
v 42.7929 -2.86347 0
v 42.9322 -2.72069 0
v 43.0642 -2.57115 0
v 43.1885 -2.41522 0
v 43.305 -2.25328 0
v 43.4132 -2.08574 0
v 43.5129 -1.91302 0
v 43.6039 -1.73553 0
v 43.6859 -1.55374 0
v 43.7588 -1.36808 0
v 43.8223 -1.17902 0
v 43.8763 -0.98703 0
v 43.9207 -0.792585 0
v 43.9553 -0.596169 0
v 43.9801 -0.398271 0
v 43.995 -0.199384 0
v -50 -20 0
v -50 -20 12
v -50 20 0
v -50 20 12
v 12.5 -20 28
v 12.4845 -20 28.6231
v 12.4379 -20 29.2446
v 12.3604 -20 29.863
v 12.2522 -20 30.4768
v 12.1135 -20 31.0845
v 11.9447 -20 31.6844
v 11.7462 -20 32.2753
v 11.5185 -20 32.8554
v 11.2621 -20 33.4235
v 10.9778 -20 33.9782
v 10.6661 -20 34.5179
v 10.328 -20 35.0415
v 9.96416 -20 35.5476
v 9.57556 -20 36.0348
v 9.16315 -20 36.5022
v 8.72796 -20 36.9483
v 8.27107 -20 37.3723
v 7.79362 -20 37.7729
v 7.2968 -20 38.1492
v 6.78183 -20 38.5003
v 6.25 -20 38.8253
v 5.70263 -20 39.1234
v 5.14109 -20 39.3938
v 4.56676 -20 39.6359
v 3.98108 -20 39.8491
v 3.38551 -20 40.0328
v 2.78151 -20 40.1866
v 2.1706 -20 40.3101
v 1.5543 -20 40.403
v 0.934126 -20 40.465
v 0.311634 -20 40.4961
v -0.311634 -20 40.4961
v -0.934126 -20 40.465
v -1.5543 -20 40.403
v -2.1706 -20 40.3101
v -2.78151 -20 40.1866
v -3.38551 -20 40.0328
v -3.98108 -20 39.8491
v -4.56676 -20 39.6359
v -5.14109 -20 39.3938
v -5.70263 -20 39.1234
v -6.25 -20 38.8253
v -6.78183 -20 38.5003
v -7.2968 -20 38.1492
v -7.79362 -20 37.7729
v -8.27107 -20 37.3723
v -8.72796 -20 36.9483
v -9.16315 -20 36.5022
v -9.57556 -20 36.0348
v -9.96416 -20 35.5476
v -10.328 -20 35.0415
v -10.6661 -20 34.5179
v -10.9778 -20 33.9782
v -11.2621 -20 33.4235
v -11.5185 -20 32.8554
v -11.7462 -20 32.2753
v -11.9447 -20 31.6844
v -12.1135 -20 31.0845
v -12.2522 -20 30.4768
v -12.3604 -20 29.863
v -12.4379 -20 29.2446
v -12.4845 -20 28.6231
v -12.5 -20 28
v -12.4845 -20 27.3769
v -12.4379 -20 26.7554
v -12.3604 -20 26.137
v -12.2522 -20 25.5232
v -12.1135 -20 24.9155
v -11.9447 -20 24.3156
v -11.7462 -20 23.7247
v -11.5185 -20 23.1446
v -11.2621 -20 22.5765
v -10.9778 -20 22.0218
v -10.6661 -20 21.4821
v -10.328 -20 20.9585
v -9.96416 -20 20.4524
v -9.57556 -20 19.9652
v -9.16315 -20 19.4978
v -8.72796 -20 19.0517
v -8.27107 -20 18.6277
v -7.79362 -20 18.2271
v -7.2968 -20 17.8508
v -6.78183 -20 17.4997
v -6.25 -20 17.1747
v -5.70263 -20 16.8766
v -5.14109 -20 16.6062
v -4.56676 -20 16.3641
v -3.98108 -20 16.1509
v -3.38551 -20 15.9672
v -2.78151 -20 15.8134
v -2.1706 -20 15.6899
v -1.5543 -20 15.597
v -0.934126 -20 15.535
v -0.311634 -20 15.5039
v 0.311634 -20 15.5039
v 0.934126 -20 15.535
v 1.5543 -20 15.597
v 2.1706 -20 15.6899
v 2.78151 -20 15.8134
v 3.38551 -20 15.9672
v 3.98108 -20 16.1509
v 4.56676 -20 16.3641
v 5.14109 -20 16.6062
v 5.70263 -20 16.8766
v 6.25 -20 17.1747
v 6.78183 -20 17.4997
v 7.2968 -20 17.8508
v 7.79362 -20 18.2271
v 8.27107 -20 18.6277
v 8.72796 -20 19.0517
v 9.16315 -20 19.4978
v 9.57556 -20 19.9652
v 9.96416 -20 20.4524
v 10.328 -20 20.9585
v 10.6661 -20 21.4821
v 10.9778 -20 22.0218
v 11.2621 -20 22.5765
v 11.5185 -20 23.1446
v 11.7462 -20 23.7247
v 11.9447 -20 24.3156
v 12.1135 -20 24.9155
v 12.2522 -20 25.5232
v 12.3604 -20 26.137
v 12.4379 -20 26.7554
v 12.4845 -20 27.3769
v 12.5 -20 28
v 12.5 20 28
v 12.4845 20 28.6231
v 12.4379 20 29.2446
v 12.3604 20 29.863
v 12.2522 20 30.4768
v 12.1135 20 31.0845
v 11.9447 20 31.6844
v 11.7462 20 32.2753
v 11.5185 20 32.8554
v 11.2621 20 33.4235
v 10.9778 20 33.9782
v 10.6661 20 34.5179
v 10.328 20 35.0415
v 9.96416 20 35.5476
v 9.57556 20 36.0348
v 9.16315 20 36.5022
v 8.72796 20 36.9483
v 8.27107 20 37.3723
v 7.79362 20 37.7729
v 7.2968 20 38.1492
v 6.78183 20 38.5003
v 6.25 20 38.8253
v 5.70263 20 39.1234
v 5.14109 20 39.3938
v 4.56676 20 39.6359
v 3.98108 20 39.8491
v 3.38551 20 40.0328
v 2.78151 20 40.1866
v 2.1706 20 40.3101
v 1.5543 20 40.403
v 0.934126 20 40.465
v 0.311634 20 40.4961
v -0.311634 20 40.4961
v -0.934126 20 40.465
v -1.5543 20 40.403
v -2.1706 20 40.3101
v -2.78151 20 40.1866
v -3.38551 20 40.0328
v -3.98108 20 39.8491
v -4.56676 20 39.6359
v -5.14109 20 39.3938
v -5.70263 20 39.1234
v -6.25 20 38.8253
v -6.78183 20 38.5003
v -7.2968 20 38.1492
v -7.79362 20 37.7729
v -8.27107 20 37.3723
v -8.72796 20 36.9483
v -9.16315 20 36.5022
v -9.57556 20 36.0348
v -9.96416 20 35.5476
v -10.328 20 35.0415
v -10.6661 20 34.5179
v -10.9778 20 33.9782
v -11.2621 20 33.4235
v -11.5185 20 32.8554
v -11.7462 20 32.2753
v -11.9447 20 31.6844
v -12.1135 20 31.0845
v -12.2522 20 30.4768
v -12.3604 20 29.863
v -12.4379 20 29.2446
v -12.4845 20 28.6231
v -12.5 20 28
v -12.4845 20 27.3769
v -12.4379 20 26.7554
v -12.3604 20 26.137
v -12.2522 20 25.5232
v -12.1135 20 24.9155
v -11.9447 20 24.3156
v -11.7462 20 23.7247
v -11.5185 20 23.1446
v -11.2621 20 22.5765
v -10.9778 20 22.0218
v -10.6661 20 21.4821
v -10.328 20 20.9585
v -9.96416 20 20.4524
v -9.57556 20 19.9652
v -9.16315 20 19.4978
v -8.72796 20 19.0517
v -8.27107 20 18.6277
v -7.79362 20 18.2271
v -7.2968 20 17.8508
v -6.78183 20 17.4997
v -6.25 20 17.1747
v -5.70263 20 16.8766
v -5.14109 20 16.6062
v -4.56676 20 16.3641
v -3.98108 20 16.1509
v -3.38551 20 15.9672
v -2.78151 20 15.8134
v -2.1706 20 15.6899
v -1.5543 20 15.597
v -0.934126 20 15.535
v -0.311634 20 15.5039
v 0.311634 20 15.5039
v 0.934126 20 15.535
v 1.5543 20 15.597
v 2.1706 20 15.6899
v 2.78151 20 15.8134
v 3.38551 20 15.9672
v 3.98108 20 16.1509
v 4.56676 20 16.3641
v 5.14109 20 16.6062
v 5.70263 20 16.8766
v 6.25 20 17.1747
v 6.78183 20 17.4997
v 7.2968 20 17.8508
v 7.79362 20 18.2271
v 8.27107 20 18.6277
v 8.72796 20 19.0517
v 9.16315 20 19.4978
v 9.57556 20 19.9652
v 9.96416 20 20.4524
v 10.328 20 20.9585
v 10.6661 20 21.4821
v 10.9778 20 22.0218
v 11.2621 20 22.5765
v 11.5185 20 23.1446
v 11.7462 20 23.7247
v 11.9447 20 24.3156
v 12.1135 20 24.9155
v 12.2522 20 25.5232
v 12.3604 20 26.137
v 12.4379 20 26.7554
v 12.4845 20 27.3769
v 12.5 20 28
v 25 -20 43
v 23 -18 45
v 25 20 43
v 23 18 45
v 25 20 12
v 25 20 43
v 50 20 12
v 50 20 0
v -50 20 0
v -50 20 12
v -25 20 12
v -25 20 43
v 12.5 20 28
v 12.4845 20 28.6231
v 12.4379 20 29.2446
v 12.3604 20 29.863
v 12.2522 20 30.4768
v 12.1135 20 31.0845
v 11.9447 20 31.6844
v 11.7462 20 32.2753
v 11.5185 20 32.8554
v 11.2621 20 33.4235
v 10.9778 20 33.9782
v 10.6661 20 34.5179
v 10.328 20 35.0415
v 9.96416 20 35.5476
v 9.57556 20 36.0348
v 9.16315 20 36.5022
v 8.72796 20 36.9483
v 8.27107 20 37.3723
v 7.79362 20 37.7729
v 7.2968 20 38.1492
v 6.78183 20 38.5003
v 6.25 20 38.8253
v 5.70263 20 39.1234
v 5.14109 20 39.3938
v 4.56676 20 39.6359
v 3.98108 20 39.8491
v 3.38551 20 40.0328
v 2.78151 20 40.1866
v 2.1706 20 40.3101
v 1.5543 20 40.403
v 0.934126 20 40.465
v 0.311634 20 40.4961
v -0.311634 20 40.4961
v -0.934126 20 40.465
v -1.5543 20 40.403
v -2.1706 20 40.3101
v -2.78151 20 40.1866
v -3.38551 20 40.0328
v -3.98108 20 39.8491
v -4.56676 20 39.6359
v -5.14109 20 39.3938
v -5.70263 20 39.1234
v -6.25 20 38.8253
v -6.78183 20 38.5003
v -7.2968 20 38.1492
v -7.79362 20 37.7729
v -8.27107 20 37.3723
v -8.72796 20 36.9483
v -9.16315 20 36.5022
v -9.57556 20 36.0348
v -9.96416 20 35.5476
v -10.328 20 35.0415
v -10.6661 20 34.5179
v -10.9778 20 33.9782
v -11.2621 20 33.4235
v -11.5185 20 32.8554
v -11.7462 20 32.2753
v -11.9447 20 31.6844
v -12.1135 20 31.0845
v -12.2522 20 30.4768
v -12.3604 20 29.863
v -12.4379 20 29.2446
v -12.4845 20 28.6231
v -12.5 20 28
v -12.4845 20 27.3769
v -12.4379 20 26.7554
v -12.3604 20 26.137
v -12.2522 20 25.5232
v -12.1135 20 24.9155
v -11.9447 20 24.3156
v -11.7462 20 23.7247
v -11.5185 20 23.1446
v -11.2621 20 22.5765
v -10.9778 20 22.0218
v -10.6661 20 21.4821
v -10.328 20 20.9585
v -9.96416 20 20.4524
v -9.57556 20 19.9652
v -9.16315 20 19.4978
v -8.72796 20 19.0517
v -8.27107 20 18.6277
v -7.79362 20 18.2271
v -7.2968 20 17.8508
v -6.78183 20 17.4997
v -6.25 20 17.1747
v -5.70263 20 16.8766
v -5.14109 20 16.6062
v -4.56676 20 16.3641
v -3.98108 20 16.1509
v -3.38551 20 15.9672
v -2.78151 20 15.8134
v -2.1706 20 15.6899
v -1.5543 20 15.597
v -0.934126 20 15.535
v -0.311634 20 15.5039
v 0.311634 20 15.5039
v 0.934126 20 15.535
v 1.5543 20 15.597
v 2.1706 20 15.6899
v 2.78151 20 15.8134
v 3.38551 20 15.9672
v 3.98108 20 16.1509
v 4.56676 20 16.3641
v 5.14109 20 16.6062
v 5.70263 20 16.8766
v 6.25 20 17.1747
v 6.78183 20 17.4997
v 7.2968 20 17.8508
v 7.79362 20 18.2271
v 8.27107 20 18.6277
v 8.72796 20 19.0517
v 9.16315 20 19.4978
v 9.57556 20 19.9652
v 9.96416 20 20.4524
v 10.328 20 20.9585
v 10.6661 20 21.4821
v 10.9778 20 22.0218
v 11.2621 20 22.5765
v 11.5185 20 23.1446
v 11.7462 20 23.7247
v 11.9447 20 24.3156
v 12.1135 20 24.9155
v 12.2522 20 25.5232
v 12.3604 20 26.137
v 12.4379 20 26.7554
v 12.4845 20 27.3769
v -25 -20 43
v -23 -18 45
v -23 18 45
v -25 20 43
v -23 -18 45
v 23 -18 45
v 23 18 45
v -23 18 45
v 47 -1.71451e-15 12
v 46.9913 0.348921 12
v 46.9652 0.696975 12
v 46.9218 1.0433 12
v 46.8612 1.38702 12
v 46.7835 1.7273 12
v 46.689 2.06329 12
v 46.5778 2.39414 12
v 46.4503 2.71904 12
v 46.3068 3.03719 12
v 46.1476 3.34778 12
v 45.973 3.65005 12
v 45.7837 3.94324 12
v 45.5799 4.22663 12
v 45.3623 4.49951 12
v 45.1314 4.76121 12
v 44.8877 5.01107 12
v 44.6318 5.24847 12
v 44.3644 5.47282 12
v 44.0862 5.68357 12
v 43.7978 5.88018 12
v 43.5 6.06218 12
v 43.1935 6.2291 12
v 42.879 6.38054 12
v 42.5574 6.51612 12
v 42.2294 6.63549 12
v 41.8959 6.73837 12
v 41.5576 6.8245 12
v 41.2155 6.89365 12
v 40.8704 6.94567 12
v 40.5231 6.98043 12
v 40.1745 6.99782 12
v 39.8255 6.99782 12
v 39.4769 6.98043 12
v 39.1296 6.94567 12
v 38.7845 6.89365 12
v 38.4424 6.8245 12
v 38.1041 6.73837 12
v 37.7706 6.63549 12
v 37.4426 6.51612 12
v 37.121 6.38054 12
v 36.8065 6.2291 12
v 36.5 6.06218 12
v 36.2022 5.88018 12
v 35.9138 5.68357 12
v 35.6356 5.47282 12
v 35.3682 5.24847 12
v 35.1123 5.01107 12
v 34.8686 4.76121 12
v 34.6377 4.49951 12
v 34.4201 4.22663 12
v 34.2163 3.94324 12
v 34.027 3.65005 12
v 33.8524 3.34778 12
v 33.6932 3.03719 12
v 33.5497 2.71904 12
v 33.4222 2.39414 12
v 33.311 2.06329 12
v 33.2165 1.7273 12
v 33.1388 1.38702 12
v 33.0782 1.0433 12
v 33.0348 0.696975 12
v 33.0087 0.348921 12
v 33 -2.40117e-14 12
v 33.0087 -0.348921 12
v 33.0348 -0.696975 12
v 33.0782 -1.0433 12
v 33.1388 -1.38702 12
v 33.2165 -1.7273 12
v 33.311 -2.06329 12
v 33.4222 -2.39414 12
v 33.5497 -2.71904 12
v 33.6932 -3.03719 12
v 33.8524 -3.34778 12
v 34.027 -3.65005 12
v 34.2163 -3.94324 12
v 34.4201 -4.22663 12
v 34.6377 -4.49951 12
v 34.8686 -4.76121 12
v 35.1123 -5.01107 12
v 35.3682 -5.24847 12
v 35.6356 -5.47282 12
v 35.9138 -5.68357 12
v 36.2022 -5.88018 12
v 36.5 -6.06218 12
v 36.8065 -6.2291 12
v 37.121 -6.38054 12
v 37.4426 -6.51612 12
v 37.7706 -6.63549 12
v 38.1041 -6.73837 12
v 38.4424 -6.8245 12
v 38.7845 -6.89365 12
v 39.1296 -6.94567 12
v 39.4769 -6.98043 12
v 39.8255 -6.99782 12
v 40.1745 -6.99782 12
v 40.5231 -6.98043 12
v 40.8704 -6.94567 12
v 41.2155 -6.89365 12
v 41.5576 -6.8245 12
v 41.8959 -6.73837 12
v 42.2294 -6.63549 12
v 42.5574 -6.51612 12
v 42.879 -6.38054 12
v 43.1935 -6.2291 12
v 43.5 -6.06218 12
v 43.7978 -5.88018 12
v 44.0862 -5.68357 12
v 44.3644 -5.47282 12
v 44.6318 -5.24847 12
v 44.8877 -5.01107 12
v 45.1314 -4.76121 12
v 45.3623 -4.49951 12
v 45.5799 -4.22663 12
v 45.7837 -3.94324 12
v 45.973 -3.65005 12
v 46.1476 -3.34778 12
v 46.3068 -3.03719 12
v 46.4503 -2.71904 12
v 46.5778 -2.39414 12
v 46.689 -2.06329 12
v 46.7835 -1.7273 12
v 46.8612 -1.38702 12
v 46.9218 -1.0433 12
v 46.9652 -0.696975 12
v 46.9913 -0.348921 12
v 47 -1.71451e-15 12
v 47 -1.71451e-15 7
v 46.9913 0.348921 7
v 46.9652 0.696975 7
v 46.9218 1.0433 7
v 46.8612 1.38702 7
v 46.7835 1.7273 7
v 46.689 2.06329 7
v 46.5778 2.39414 7
v 46.4503 2.71904 7
v 46.3068 3.03719 7
v 46.1476 3.34778 7
v 45.973 3.65005 7
v 45.7837 3.94324 7
v 45.5799 4.22663 7
v 45.3623 4.49951 7
v 45.1314 4.76121 7
v 44.8877 5.01107 7
v 44.6318 5.24847 7
v 44.3644 5.47282 7
v 44.0862 5.68357 7
v 43.7978 5.88018 7
v 43.5 6.06218 7
v 43.1935 6.2291 7
v 42.879 6.38054 7
v 42.5574 6.51612 7
v 42.2294 6.63549 7
v 41.8959 6.73837 7
v 41.5576 6.8245 7
v 41.2155 6.89365 7
v 40.8704 6.94567 7
v 40.5231 6.98043 7
v 40.1745 6.99782 7
v 39.8255 6.99782 7
v 39.4769 6.98043 7
v 39.1296 6.94567 7
v 38.7845 6.89365 7
v 38.4424 6.8245 7
v 38.1041 6.73837 7
v 37.7706 6.63549 7
v 37.4426 6.51612 7
v 37.121 6.38054 7
v 36.8065 6.2291 7
v 36.5 6.06218 7
v 36.2022 5.88018 7
v 35.9138 5.68357 7
v 35.6356 5.47282 7
v 35.3682 5.24847 7
v 35.1123 5.01107 7
v 34.8686 4.76121 7
v 34.6377 4.49951 7
v 34.4201 4.22663 7
v 34.2163 3.94324 7
v 34.027 3.65005 7
v 33.8524 3.34778 7
v 33.6932 3.03719 7
v 33.5497 2.71904 7
v 33.4222 2.39414 7
v 33.311 2.06329 7
v 33.2165 1.7273 7
v 33.1388 1.38702 7
v 33.0782 1.0433 7
v 33.0348 0.696975 7
v 33.0087 0.348921 7
v 33 -2.40117e-14 7
v 33.0087 -0.348921 7
v 33.0348 -0.696975 7
v 33.0782 -1.0433 7
v 33.1388 -1.38702 7
v 33.2165 -1.7273 7
v 33.311 -2.06329 7
v 33.4222 -2.39414 7
v 33.5497 -2.71904 7
v 33.6932 -3.03719 7
v 33.8524 -3.34778 7
v 34.027 -3.65005 7
v 34.2163 -3.94324 7
v 34.4201 -4.22663 7
v 34.6377 -4.49951 7
v 34.8686 -4.76121 7
v 35.1123 -5.01107 7
v 35.3682 -5.24847 7
v 35.6356 -5.47282 7
v 35.9138 -5.68357 7
v 36.2022 -5.88018 7
v 36.5 -6.06218 7
v 36.8065 -6.2291 7
v 37.121 -6.38054 7
v 37.4426 -6.51612 7
v 37.7706 -6.63549 7
v 38.1041 -6.73837 7
v 38.4424 -6.8245 7
v 38.7845 -6.89365 7
v 39.1296 -6.94567 7
v 39.4769 -6.98043 7
v 39.8255 -6.99782 7
v 40.1745 -6.99782 7
v 40.5231 -6.98043 7
v 40.8704 -6.94567 7
v 41.2155 -6.89365 7
v 41.5576 -6.8245 7
v 41.8959 -6.73837 7
v 42.2294 -6.63549 7
v 42.5574 -6.51612 7
v 42.879 -6.38054 7
v 43.1935 -6.2291 7
v 43.5 -6.06218 7
v 43.7978 -5.88018 7
v 44.0862 -5.68357 7
v 44.3644 -5.47282 7
v 44.6318 -5.24847 7
v 44.8877 -5.01107 7
v 45.1314 -4.76121 7
v 45.3623 -4.49951 7
v 45.5799 -4.22663 7
v 45.7837 -3.94324 7
v 45.973 -3.65005 7
v 46.1476 -3.34778 7
v 46.3068 -3.03719 7
v 46.4503 -2.71904 7
v 46.5778 -2.39414 7
v 46.689 -2.06329 7
v 46.7835 -1.7273 7
v 46.8612 -1.38702 7
v 46.9218 -1.0433 7
v 46.9652 -0.696975 7
v 46.9913 -0.348921 7
v 47 -1.71451e-15 7
v -33 -1.71451e-15 12
v -33.0087 0.348921 12
v -33.0348 0.696975 12
v -33.0782 1.0433 12
v -33.1388 1.38702 12
v -33.2165 1.7273 12
v -33.311 2.06329 12
v -33.4222 2.39414 12
v -33.5497 2.71904 12
v -33.6932 3.03719 12
v -33.8524 3.34778 12
v -34.027 3.65005 12
v -34.2163 3.94324 12
v -34.4201 4.22663 12
v -34.6377 4.49951 12
v -34.8686 4.76121 12
v -35.1123 5.01107 12
v -35.3682 5.24847 12
v -35.6356 5.47282 12
v -35.9138 5.68357 12
v -36.2022 5.88018 12
v -36.5 6.06218 12
v -36.8065 6.2291 12
v -37.121 6.38054 12
v -37.4426 6.51612 12
v -37.7706 6.63549 12
v -38.1041 6.73837 12
v -38.4424 6.8245 12
v -38.7845 6.89365 12
v -39.1296 6.94567 12
v -39.4769 6.98043 12
v -39.8255 6.99782 12
v -40.1745 6.99782 12
v -40.5231 6.98043 12
v -40.8704 6.94567 12
v -41.2155 6.89365 12
v -41.5576 6.8245 12
v -41.8959 6.73837 12
v -42.2294 6.63549 12
v -42.5574 6.51612 12
v -42.879 6.38054 12
v -43.1935 6.2291 12
v -43.5 6.06218 12
v -43.7978 5.88018 12
v -44.0862 5.68357 12
v -44.3644 5.47282 12
v -44.6318 5.24847 12
v -44.8877 5.01107 12
v -45.1314 4.76121 12
v -45.3623 4.49951 12
v -45.5799 4.22663 12
v -45.7837 3.94324 12
v -45.973 3.65005 12
v -46.1476 3.34778 12
v -46.3068 3.03719 12
v -46.4503 2.71904 12
v -46.5778 2.39414 12
v -46.689 2.06329 12
v -46.7835 1.7273 12
v -46.8612 1.38702 12
v -46.9218 1.0433 12
v -46.9652 0.696975 12
v -46.9913 0.348921 12
v -47 -2.40117e-14 12
v -46.9913 -0.348921 12
v -46.9652 -0.696975 12
v -46.9218 -1.0433 12
v -46.8612 -1.38702 12
v -46.7835 -1.7273 12
v -46.689 -2.06329 12
v -46.5778 -2.39414 12
v -46.4503 -2.71904 12
v -46.3068 -3.03719 12
v -46.1476 -3.34778 12
v -45.973 -3.65005 12
v -45.7837 -3.94324 12
v -45.5799 -4.22663 12
v -45.3623 -4.49951 12
v -45.1314 -4.76121 12
v -44.8877 -5.01107 12
v -44.6318 -5.24847 12
v -44.3644 -5.47282 12
v -44.0862 -5.68357 12
v -43.7978 -5.88018 12
v -43.5 -6.06218 12
v -43.1935 -6.2291 12
v -42.879 -6.38054 12
v -42.5574 -6.51612 12
v -42.2294 -6.63549 12
v -41.8959 -6.73837 12
v -41.5576 -6.8245 12
v -41.2155 -6.89365 12
v -40.8704 -6.94567 12
v -40.5231 -6.98043 12
v -40.1745 -6.99782 12
v -39.8255 -6.99782 12
v -39.4769 -6.98043 12
v -39.1296 -6.94567 12
v -38.7845 -6.89365 12
v -38.4424 -6.8245 12
v -38.1041 -6.73837 12
v -37.7706 -6.63549 12
v -37.4426 -6.51612 12
v -37.121 -6.38054 12
v -36.8065 -6.2291 12
v -36.5 -6.06218 12
v -36.2022 -5.88018 12
v -35.9138 -5.68357 12
v -35.6356 -5.47282 12
v -35.3682 -5.24847 12
v -35.1123 -5.01107 12
v -34.8686 -4.76121 12
v -34.6377 -4.49951 12
v -34.4201 -4.22663 12
v -34.2163 -3.94324 12
v -34.027 -3.65005 12
v -33.8524 -3.34778 12
v -33.6932 -3.03719 12
v -33.5497 -2.71904 12
v -33.4222 -2.39414 12
v -33.311 -2.06329 12
v -33.2165 -1.7273 12
v -33.1388 -1.38702 12
v -33.0782 -1.0433 12
v -33.0348 -0.696975 12
v -33.0087 -0.348921 12
v -33 -1.71451e-15 12
v -33 -1.71451e-15 7
v -33.0087 0.348921 7
v -33.0348 0.696975 7
v -33.0782 1.0433 7
v -33.1388 1.38702 7
v -33.2165 1.7273 7
v -33.311 2.06329 7
v -33.4222 2.39414 7
v -33.5497 2.71904 7
v -33.6932 3.03719 7
v -33.8524 3.34778 7
v -34.027 3.65005 7
v -34.2163 3.94324 7
v -34.4201 4.22663 7
v -34.6377 4.49951 7
v -34.8686 4.76121 7
v -35.1123 5.01107 7
v -35.3682 5.24847 7
v -35.6356 5.47282 7
v -35.9138 5.68357 7
v -36.2022 5.88018 7
v -36.5 6.06218 7
v -36.8065 6.2291 7
v -37.121 6.38054 7
v -37.4426 6.51612 7
v -37.7706 6.63549 7
v -38.1041 6.73837 7
v -38.4424 6.8245 7
v -38.7845 6.89365 7
v -39.1296 6.94567 7
v -39.4769 6.98043 7
v -39.8255 6.99782 7
v -40.1745 6.99782 7
v -40.5231 6.98043 7
v -40.8704 6.94567 7
v -41.2155 6.89365 7
v -41.5576 6.8245 7
v -41.8959 6.73837 7
v -42.2294 6.63549 7
v -42.5574 6.51612 7
v -42.879 6.38054 7
v -43.1935 6.2291 7
v -43.5 6.06218 7
v -43.7978 5.88018 7
v -44.0862 5.68357 7
v -44.3644 5.47282 7
v -44.6318 5.24847 7
v -44.8877 5.01107 7
v -45.1314 4.76121 7
v -45.3623 4.49951 7
v -45.5799 4.22663 7
v -45.7837 3.94324 7
v -45.973 3.65005 7
v -46.1476 3.34778 7
v -46.3068 3.03719 7
v -46.4503 2.71904 7
v -46.5778 2.39414 7
v -46.689 2.06329 7
v -46.7835 1.7273 7
v -46.8612 1.38702 7
v -46.9218 1.0433 7
v -46.9652 0.696975 7
v -46.9913 0.348921 7
v -47 -2.40117e-14 7
v -46.9913 -0.348921 7
v -46.9652 -0.696975 7
v -46.9218 -1.0433 7
v -46.8612 -1.38702 7
v -46.7835 -1.7273 7
v -46.689 -2.06329 7
v -46.5778 -2.39414 7
v -46.4503 -2.71904 7
v -46.3068 -3.03719 7
v -46.1476 -3.34778 7
v -45.973 -3.65005 7
v -45.7837 -3.94324 7
v -45.5799 -4.22663 7
v -45.3623 -4.49951 7
v -45.1314 -4.76121 7
v -44.8877 -5.01107 7
v -44.6318 -5.24847 7
v -44.3644 -5.47282 7
v -44.0862 -5.68357 7
v -43.7978 -5.88018 7
v -43.5 -6.06218 7
v -43.1935 -6.2291 7
v -42.879 -6.38054 7
v -42.5574 -6.51612 7
v -42.2294 -6.63549 7
v -41.8959 -6.73837 7
v -41.5576 -6.8245 7
v -41.2155 -6.89365 7
v -40.8704 -6.94567 7
v -40.5231 -6.98043 7
v -40.1745 -6.99782 7
v -39.8255 -6.99782 7
v -39.4769 -6.98043 7
v -39.1296 -6.94567 7
v -38.7845 -6.89365 7
v -38.4424 -6.8245 7
v -38.1041 -6.73837 7
v -37.7706 -6.63549 7
v -37.4426 -6.51612 7
v -37.121 -6.38054 7
v -36.8065 -6.2291 7
v -36.5 -6.06218 7
v -36.2022 -5.88018 7
v -35.9138 -5.68357 7
v -35.6356 -5.47282 7
v -35.3682 -5.24847 7
v -35.1123 -5.01107 7
v -34.8686 -4.76121 7
v -34.6377 -4.49951 7
v -34.4201 -4.22663 7
v -34.2163 -3.94324 7
v -34.027 -3.65005 7
v -33.8524 -3.34778 7
v -33.6932 -3.03719 7
v -33.5497 -2.71904 7
v -33.4222 -2.39414 7
v -33.311 -2.06329 7
v -33.2165 -1.7273 7
v -33.1388 -1.38702 7
v -33.0782 -1.0433 7
v -33.0348 -0.696975 7
v -33.0087 -0.348921 7
v -33 -1.71451e-15 7
v -36 -9.79717e-16 7
v -36.005 0.199384 7
v -36.0199 0.398271 7
v -36.0447 0.596169 7
v -36.0793 0.792585 7
v -36.1237 0.98703 7
v -36.1777 1.17902 7
v -36.2412 1.36808 7
v -36.3141 1.55374 7
v -36.3961 1.73553 7
v -36.4871 1.91302 7
v -36.5868 2.08574 7
v -36.695 2.25328 7
v -36.8115 2.41522 7
v -36.9358 2.57115 7
v -37.0678 2.72069 7
v -37.2071 2.86347 7
v -37.3533 2.99912 7
v -37.506 3.12733 7
v -37.665 3.24775 7
v -37.8298 3.3601 7
v -38 3.4641 7
v -38.1752 3.55949 7
v -38.3549 3.64602 7
v -38.5386 3.72349 7
v -38.7261 3.79171 7
v -38.9166 3.8505 7
v -39.1099 3.89971 7
v -39.3054 3.93923 7
v -39.5026 3.96896 7
v -39.7011 3.98882 7
v -39.9003 3.99876 7
v -40.0997 3.99876 7
v -40.2989 3.98882 7
v -40.4974 3.96896 7
v -40.6946 3.93923 7
v -40.8901 3.89971 7
v -41.0834 3.8505 7
v -41.2739 3.79171 7
v -41.4614 3.72349 7
v -41.6451 3.64602 7
v -41.8248 3.55949 7
v -42 3.4641 7
v -42.1702 3.3601 7
v -42.335 3.24775 7
v -42.494 3.12733 7
v -42.6467 2.99912 7
v -42.7929 2.86347 7
v -42.9322 2.72069 7
v -43.0642 2.57115 7
v -43.1885 2.41522 7
v -43.305 2.25328 7
v -43.4132 2.08574 7
v -43.5129 1.91302 7
v -43.6039 1.73553 7
v -43.6859 1.55374 7
v -43.7588 1.36808 7
v -43.8223 1.17902 7
v -43.8763 0.98703 7
v -43.9207 0.792585 7
v -43.9553 0.596169 7
v -43.9801 0.398271 7
v -43.995 0.199384 7
v -44 -1.3721e-14 7
v -43.995 -0.199384 7
v -43.9801 -0.398271 7
v -43.9553 -0.596169 7
v -43.9207 -0.792585 7
v -43.8763 -0.98703 7
v -43.8223 -1.17902 7
v -43.7588 -1.36808 7
v -43.6859 -1.55374 7
v -43.6039 -1.73553 7
v -43.5129 -1.91302 7
v -43.4132 -2.08574 7
v -43.305 -2.25328 7
v -43.1885 -2.41522 7
v -43.0642 -2.57115 7
v -42.9322 -2.72069 7
v -42.7929 -2.86347 7
v -42.6467 -2.99912 7
v -42.494 -3.12733 7
v -42.335 -3.24775 7
v -42.1702 -3.3601 7
v -42 -3.4641 7
v -41.8248 -3.55949 7
v -41.6451 -3.64602 7
v -41.4614 -3.72349 7
v -41.2739 -3.79171 7
v -41.0834 -3.8505 7
v -40.8901 -3.89971 7
v -40.6946 -3.93923 7
v -40.4974 -3.96896 7
v -40.2989 -3.98882 7
v -40.0997 -3.99876 7
v -39.9003 -3.99876 7
v -39.7011 -3.98882 7
v -39.5026 -3.96896 7
v -39.3054 -3.93923 7
v -39.1099 -3.89971 7
v -38.9166 -3.8505 7
v -38.7261 -3.79171 7
v -38.5386 -3.72349 7
v -38.3549 -3.64602 7
v -38.1752 -3.55949 7
v -38 -3.4641 7
v -37.8298 -3.3601 7
v -37.665 -3.24775 7
v -37.506 -3.12733 7
v -37.3533 -2.99912 7
v -37.2071 -2.86347 7
v -37.0678 -2.72069 7
v -36.9358 -2.57115 7
v -36.8115 -2.41522 7
v -36.695 -2.25328 7
v -36.5868 -2.08574 7
v -36.4871 -1.91302 7
v -36.3961 -1.73553 7
v -36.3141 -1.55374 7
v -36.2412 -1.36808 7
v -36.1777 -1.17902 7
v -36.1237 -0.98703 7
v -36.0793 -0.792585 7
v -36.0447 -0.596169 7
v -36.0199 -0.398271 7
v -36.005 -0.199384 7
v -36 -9.79717e-16 7
v -36 -9.79717e-16 0
v -36.005 0.199384 0
v -36.0199 0.398271 0
v -36.0447 0.596169 0
v -36.0793 0.792585 0
v -36.1237 0.98703 0
v -36.1777 1.17902 0
v -36.2412 1.36808 0
v -36.3141 1.55374 0
v -36.3961 1.73553 0
v -36.4871 1.91302 0
v -36.5868 2.08574 0
v -36.695 2.25328 0
v -36.8115 2.41522 0
v -36.9358 2.57115 0
v -37.0678 2.72069 0
v -37.2071 2.86347 0
v -37.3533 2.99912 0
v -37.506 3.12733 0
v -37.665 3.24775 0
v -37.8298 3.3601 0
v -38 3.4641 0
v -38.1752 3.55949 0
v -38.3549 3.64602 0
v -38.5386 3.72349 0
v -38.7261 3.79171 0
v -38.9166 3.8505 0
v -39.1099 3.89971 0
v -39.3054 3.93923 0
v -39.5026 3.96896 0
v -39.7011 3.98882 0
v -39.9003 3.99876 0
v -40.0997 3.99876 0
v -40.2989 3.98882 0
v -40.4974 3.96896 0
v -40.6946 3.93923 0
v -40.8901 3.89971 0
v -41.0834 3.8505 0
v -41.2739 3.79171 0
v -41.4614 3.72349 0
v -41.6451 3.64602 0
v -41.8248 3.55949 0
v -42 3.4641 0
v -42.1702 3.3601 0
v -42.335 3.24775 0
v -42.494 3.12733 0
v -42.6467 2.99912 0
v -42.7929 2.86347 0
v -42.9322 2.72069 0
v -43.0642 2.57115 0
v -43.1885 2.41522 0
v -43.305 2.25328 0
v -43.4132 2.08574 0
v -43.5129 1.91302 0
v -43.6039 1.73553 0
v -43.6859 1.55374 0
v -43.7588 1.36808 0
v -43.8223 1.17902 0
v -43.8763 0.98703 0
v -43.9207 0.792585 0
v -43.9553 0.596169 0
v -43.9801 0.398271 0
v -43.995 0.199384 0
v -44 -1.3721e-14 0
v -43.995 -0.199384 0
v -43.9801 -0.398271 0
v -43.9553 -0.596169 0
v -43.9207 -0.792585 0
v -43.8763 -0.98703 0
v -43.8223 -1.17902 0
v -43.7588 -1.36808 0
v -43.6859 -1.55374 0
v -43.6039 -1.73553 0
v -43.5129 -1.91302 0
v -43.4132 -2.08574 0
v -43.305 -2.25328 0
v -43.1885 -2.41522 0
v -43.0642 -2.57115 0
v -42.9322 -2.72069 0
v -42.7929 -2.86347 0
v -42.6467 -2.99912 0
v -42.494 -3.12733 0
v -42.335 -3.24775 0
v -42.1702 -3.3601 0
v -42 -3.4641 0
v -41.8248 -3.55949 0
v -41.6451 -3.64602 0
v -41.4614 -3.72349 0
v -41.2739 -3.79171 0
v -41.0834 -3.8505 0
v -40.8901 -3.89971 0
v -40.6946 -3.93923 0
v -40.4974 -3.96896 0
v -40.2989 -3.98882 0
v -40.0997 -3.99876 0
v -39.9003 -3.99876 0
v -39.7011 -3.98882 0
v -39.5026 -3.96896 0
v -39.3054 -3.93923 0
v -39.1099 -3.89971 0
v -38.9166 -3.8505 0
v -38.7261 -3.79171 0
v -38.5386 -3.72349 0
v -38.3549 -3.64602 0
v -38.1752 -3.55949 0
v -38 -3.4641 0
v -37.8298 -3.3601 0
v -37.665 -3.24775 0
v -37.506 -3.12733 0
v -37.3533 -2.99912 0
v -37.2071 -2.86347 0
v -37.0678 -2.72069 0
v -36.9358 -2.57115 0
v -36.8115 -2.41522 0
v -36.695 -2.25328 0
v -36.5868 -2.08574 0
v -36.4871 -1.91302 0
v -36.3961 -1.73553 0
v -36.3141 -1.55374 0
v -36.2412 -1.36808 0
v -36.1777 -1.17902 0
v -36.1237 -0.98703 0
v -36.0793 -0.792585 0
v -36.0447 -0.596169 0
v -36.0199 -0.398271 0
v -36.005 -0.199384 0
v -36 -9.79717e-16 0
v 44 -9.79717e-16 7
v 43.995 0.199384 7
v 43.9801 0.398271 7
v 43.9553 0.596169 7
v 43.9207 0.792585 7
v 43.8763 0.98703 7
v 43.8223 1.17902 7
v 43.7588 1.36808 7
v 43.6859 1.55374 7
v 43.6039 1.73553 7
v 43.5129 1.91302 7
v 43.4132 2.08574 7
v 43.305 2.25328 7
v 43.1885 2.41522 7
v 43.0642 2.57115 7
v 42.9322 2.72069 7
v 42.7929 2.86347 7
v 42.6467 2.99912 7
v 42.494 3.12733 7
v 42.335 3.24775 7
v 42.1702 3.3601 7
v 42 3.4641 7
v 41.8248 3.55949 7
v 41.6451 3.64602 7
v 41.4614 3.72349 7
v 41.2739 3.79171 7
v 41.0834 3.8505 7
v 40.8901 3.89971 7
v 40.6946 3.93923 7
v 40.4974 3.96896 7
v 40.2989 3.98882 7
v 40.0997 3.99876 7
v 39.9003 3.99876 7
v 39.7011 3.98882 7
v 39.5026 3.96896 7
v 39.3054 3.93923 7
v 39.1099 3.89971 7
v 38.9166 3.8505 7
v 38.7261 3.79171 7
v 38.5386 3.72349 7
v 38.3549 3.64602 7
v 38.1752 3.55949 7
v 38 3.4641 7
v 37.8298 3.3601 7
v 37.665 3.24775 7
v 37.506 3.12733 7
v 37.3533 2.99912 7
v 37.2071 2.86347 7
v 37.0678 2.72069 7
v 36.9358 2.57115 7
v 36.8115 2.41522 7
v 36.695 2.25328 7
v 36.5868 2.08574 7
v 36.4871 1.91302 7
v 36.3961 1.73553 7
v 36.3141 1.55374 7
v 36.2412 1.36808 7
v 36.1777 1.17902 7
v 36.1237 0.98703 7
v 36.0793 0.792585 7
v 36.0447 0.596169 7
v 36.0199 0.398271 7
v 36.005 0.199384 7
v 36 -1.3721e-14 7
v 36.005 -0.199384 7
v 36.0199 -0.398271 7
v 36.0447 -0.596169 7
v 36.0793 -0.792585 7
v 36.1237 -0.98703 7
v 36.1777 -1.17902 7
v 36.2412 -1.36808 7
v 36.3141 -1.55374 7
v 36.3961 -1.73553 7
v 36.4871 -1.91302 7
v 36.5868 -2.08574 7
v 36.695 -2.25328 7
v 36.8115 -2.41522 7
v 36.9358 -2.57115 7
v 37.0678 -2.72069 7
v 37.2071 -2.86347 7
v 37.3533 -2.99912 7
v 37.506 -3.12733 7
v 37.665 -3.24775 7
v 37.8298 -3.3601 7
v 38 -3.4641 7
v 38.1752 -3.55949 7
v 38.3549 -3.64602 7
v 38.5386 -3.72349 7
v 38.7261 -3.79171 7
v 38.9166 -3.8505 7
v 39.1099 -3.89971 7
v 39.3054 -3.93923 7
v 39.5026 -3.96896 7
v 39.7011 -3.98882 7
v 39.9003 -3.99876 7
v 40.0997 -3.99876 7
v 40.2989 -3.98882 7
v 40.4974 -3.96896 7
v 40.6946 -3.93923 7
v 40.8901 -3.89971 7
v 41.0834 -3.8505 7
v 41.2739 -3.79171 7
v 41.4614 -3.72349 7
v 41.6451 -3.64602 7
v 41.8248 -3.55949 7
v 42 -3.4641 7
v 42.1702 -3.3601 7
v 42.335 -3.24775 7
v 42.494 -3.12733 7
v 42.6467 -2.99912 7
v 42.7929 -2.86347 7
v 42.9322 -2.72069 7
v 43.0642 -2.57115 7
v 43.1885 -2.41522 7
v 43.305 -2.25328 7
v 43.4132 -2.08574 7
v 43.5129 -1.91302 7
v 43.6039 -1.73553 7
v 43.6859 -1.55374 7
v 43.7588 -1.36808 7
v 43.8223 -1.17902 7
v 43.8763 -0.98703 7
v 43.9207 -0.792585 7
v 43.9553 -0.596169 7
v 43.9801 -0.398271 7
v 43.995 -0.199384 7
v 44 -9.79717e-16 7
v 44 -9.79717e-16 0
v 43.995 0.199384 0
v 43.9801 0.398271 0
v 43.9553 0.596169 0
v 43.9207 0.792585 0
v 43.8763 0.98703 0
v 43.8223 1.17902 0
v 43.7588 1.36808 0
v 43.6859 1.55374 0
v 43.6039 1.73553 0
v 43.5129 1.91302 0
v 43.4132 2.08574 0
v 43.305 2.25328 0
v 43.1885 2.41522 0
v 43.0642 2.57115 0
v 42.9322 2.72069 0
v 42.7929 2.86347 0
v 42.6467 2.99912 0
v 42.494 3.12733 0
v 42.335 3.24775 0
v 42.1702 3.3601 0
v 42 3.4641 0
v 41.8248 3.55949 0
v 41.6451 3.64602 0
v 41.4614 3.72349 0
v 41.2739 3.79171 0
v 41.0834 3.8505 0
v 40.8901 3.89971 0
v 40.6946 3.93923 0
v 40.4974 3.96896 0
v 40.2989 3.98882 0
v 40.0997 3.99876 0
v 39.9003 3.99876 0
v 39.7011 3.98882 0
v 39.5026 3.96896 0
v 39.3054 3.93923 0
v 39.1099 3.89971 0
v 38.9166 3.8505 0
v 38.7261 3.79171 0
v 38.5386 3.72349 0
v 38.3549 3.64602 0
v 38.1752 3.55949 0
v 38 3.4641 0
v 37.8298 3.3601 0
v 37.665 3.24775 0
v 37.506 3.12733 0
v 37.3533 2.99912 0
v 37.2071 2.86347 0
v 37.0678 2.72069 0
v 36.9358 2.57115 0
v 36.8115 2.41522 0
v 36.695 2.25328 0
v 36.5868 2.08574 0
v 36.4871 1.91302 0
v 36.3961 1.73553 0
v 36.3141 1.55374 0
v 36.2412 1.36808 0
v 36.1777 1.17902 0
v 36.1237 0.98703 0
v 36.0793 0.792585 0
v 36.0447 0.596169 0
v 36.0199 0.398271 0
v 36.005 0.199384 0
v 36 -1.3721e-14 0
v 36.005 -0.199384 0
v 36.0199 -0.398271 0
v 36.0447 -0.596169 0
v 36.0793 -0.792585 0
v 36.1237 -0.98703 0
v 36.1777 -1.17902 0
v 36.2412 -1.36808 0
v 36.3141 -1.55374 0
v 36.3961 -1.73553 0
v 36.4871 -1.91302 0
v 36.5868 -2.08574 0
v 36.695 -2.25328 0
v 36.8115 -2.41522 0
v 36.9358 -2.57115 0
v 37.0678 -2.72069 0
v 37.2071 -2.86347 0
v 37.3533 -2.99912 0
v 37.506 -3.12733 0
v 37.665 -3.24775 0
v 37.8298 -3.3601 0
v 38 -3.4641 0
v 38.1752 -3.55949 0
v 38.3549 -3.64602 0
v 38.5386 -3.72349 0
v 38.7261 -3.79171 0
v 38.9166 -3.8505 0
v 39.1099 -3.89971 0
v 39.3054 -3.93923 0
v 39.5026 -3.96896 0
v 39.7011 -3.98882 0
v 39.9003 -3.99876 0
v 40.0997 -3.99876 0
v 40.2989 -3.98882 0
v 40.4974 -3.96896 0
v 40.6946 -3.93923 0
v 40.8901 -3.89971 0
v 41.0834 -3.8505 0
v 41.2739 -3.79171 0
v 41.4614 -3.72349 0
v 41.6451 -3.64602 0
v 41.8248 -3.55949 0
v 42 -3.4641 0
v 42.1702 -3.3601 0
v 42.335 -3.24775 0
v 42.494 -3.12733 0
v 42.6467 -2.99912 0
v 42.7929 -2.86347 0
v 42.9322 -2.72069 0
v 43.0642 -2.57115 0
v 43.1885 -2.41522 0
v 43.305 -2.25328 0
v 43.4132 -2.08574 0
v 43.5129 -1.91302 0
v 43.6039 -1.73553 0
v 43.6859 -1.55374 0
v 43.7588 -1.36808 0
v 43.8223 -1.17902 0
v 43.8763 -0.98703 0
v 43.9207 -0.792585 0
v 43.9553 -0.596169 0
v 43.9801 -0.398271 0
v 43.995 -0.199384 0
v 44 -9.79717e-16 0
v -25 20 43
v -23 18 45
v 25 20 43
v 23 18 45
v 47 -1.71451e-15 7
v 46.9913 0.348921 7
v 46.9652 0.696975 7
v 46.9218 1.0433 7
v 46.8612 1.38702 7
v 46.7835 1.7273 7
v 46.689 2.06329 7
v 46.5778 2.39414 7
v 46.4503 2.71904 7
v 46.3068 3.03719 7
v 46.1476 3.34778 7
v 45.973 3.65005 7
v 45.7837 3.94324 7
v 45.5799 4.22663 7
v 45.3623 4.49951 7
v 45.1314 4.76121 7
v 44.8877 5.01107 7
v 44.6318 5.24847 7
v 44.3644 5.47282 7
v 44.0862 5.68357 7
v 43.7978 5.88018 7
v 43.5 6.06218 7
v 43.1935 6.2291 7
v 42.879 6.38054 7
v 42.5574 6.51612 7
v 42.2294 6.63549 7
v 41.8959 6.73837 7
v 41.5576 6.8245 7
v 41.2155 6.89365 7
v 40.8704 6.94567 7
v 40.5231 6.98043 7
v 40.1745 6.99782 7
v 39.8255 6.99782 7
v 39.4769 6.98043 7
v 39.1296 6.94567 7
v 38.7845 6.89365 7
v 38.4424 6.8245 7
v 38.1041 6.73837 7
v 37.7706 6.63549 7
v 37.4426 6.51612 7
v 37.121 6.38054 7
v 36.8065 6.2291 7
v 36.5 6.06218 7
v 36.2022 5.88018 7
v 35.9138 5.68357 7
v 35.6356 5.47282 7
v 35.3682 5.24847 7
v 35.1123 5.01107 7
v 34.8686 4.76121 7
v 34.6377 4.49951 7
v 34.4201 4.22663 7
v 34.2163 3.94324 7
v 34.027 3.65005 7
v 33.8524 3.34778 7
v 33.6932 3.03719 7
v 33.5497 2.71904 7
v 33.4222 2.39414 7
v 33.311 2.06329 7
v 33.2165 1.7273 7
v 33.1388 1.38702 7
v 33.0782 1.0433 7
v 33.0348 0.696975 7
v 33.0087 0.348921 7
v 33 -2.40117e-14 7
v 33.0087 -0.348921 7
v 33.0348 -0.696975 7
v 33.0782 -1.0433 7
v 33.1388 -1.38702 7
v 33.2165 -1.7273 7
v 33.311 -2.06329 7
v 33.4222 -2.39414 7
v 33.5497 -2.71904 7
v 33.6932 -3.03719 7
v 33.8524 -3.34778 7
v 34.027 -3.65005 7
v 34.2163 -3.94324 7
v 34.4201 -4.22663 7
v 34.6377 -4.49951 7
v 34.8686 -4.76121 7
v 35.1123 -5.01107 7
v 35.3682 -5.24847 7
v 35.6356 -5.47282 7
v 35.9138 -5.68357 7
v 36.2022 -5.88018 7
v 36.5 -6.06218 7
v 36.8065 -6.2291 7
v 37.121 -6.38054 7
v 37.4426 -6.51612 7
v 37.7706 -6.63549 7
v 38.1041 -6.73837 7
v 38.4424 -6.8245 7
v 38.7845 -6.89365 7
v 39.1296 -6.94567 7
v 39.4769 -6.98043 7
v 39.8255 -6.99782 7
v 40.1745 -6.99782 7
v 40.5231 -6.98043 7
v 40.8704 -6.94567 7
v 41.2155 -6.89365 7
v 41.5576 -6.8245 7
v 41.8959 -6.73837 7
v 42.2294 -6.63549 7
v 42.5574 -6.51612 7
v 42.879 -6.38054 7
v 43.1935 -6.2291 7
v 43.5 -6.06218 7
v 43.7978 -5.88018 7
v 44.0862 -5.68357 7
v 44.3644 -5.47282 7
v 44.6318 -5.24847 7
v 44.8877 -5.01107 7
v 45.1314 -4.76121 7
v 45.3623 -4.49951 7
v 45.5799 -4.22663 7
v 45.7837 -3.94324 7
v 45.973 -3.65005 7
v 46.1476 -3.34778 7
v 46.3068 -3.03719 7
v 46.4503 -2.71904 7
v 46.5778 -2.39414 7
v 46.689 -2.06329 7
v 46.7835 -1.7273 7
v 46.8612 -1.38702 7
v 46.9218 -1.0433 7
v 46.9652 -0.696975 7
v 46.9913 -0.348921 7
v 44 -9.79717e-16 7
v 43.995 0.199384 7
v 43.9801 0.398271 7
v 43.9553 0.596169 7
v 43.9207 0.792585 7
v 43.8763 0.98703 7
v 43.8223 1.17902 7
v 43.7588 1.36808 7
v 43.6859 1.55374 7
v 43.6039 1.73553 7
v 43.5129 1.91302 7
v 43.4132 2.08574 7
v 43.305 2.25328 7
v 43.1885 2.41522 7
v 43.0642 2.57115 7
v 42.9322 2.72069 7
v 42.7929 2.86347 7
v 42.6467 2.99912 7
v 42.494 3.12733 7
v 42.335 3.24775 7
v 42.1702 3.3601 7
v 42 3.4641 7
v 41.8248 3.55949 7
v 41.6451 3.64602 7
v 41.4614 3.72349 7
v 41.2739 3.79171 7
v 41.0834 3.8505 7
v 40.8901 3.89971 7
v 40.6946 3.93923 7
v 40.4974 3.96896 7
v 40.2989 3.98882 7
v 40.0997 3.99876 7
v 39.9003 3.99876 7
v 39.7011 3.98882 7
v 39.5026 3.96896 7
v 39.3054 3.93923 7
v 39.1099 3.89971 7
v 38.9166 3.8505 7
v 38.7261 3.79171 7
v 38.5386 3.72349 7
v 38.3549 3.64602 7
v 38.1752 3.55949 7
v 38 3.4641 7
v 37.8298 3.3601 7
v 37.665 3.24775 7
v 37.506 3.12733 7
v 37.3533 2.99912 7
v 37.2071 2.86347 7
v 37.0678 2.72069 7
v 36.9358 2.57115 7
v 36.8115 2.41522 7
v 36.695 2.25328 7
v 36.5868 2.08574 7
v 36.4871 1.91302 7
v 36.3961 1.73553 7
v 36.3141 1.55374 7
v 36.2412 1.36808 7
v 36.1777 1.17902 7
v 36.1237 0.98703 7
v 36.0793 0.792585 7
v 36.0447 0.596169 7
v 36.0199 0.398271 7
v 36.005 0.199384 7
v 36 -1.3721e-14 7
v 36.005 -0.199384 7
v 36.0199 -0.398271 7
v 36.0447 -0.596169 7
v 36.0793 -0.792585 7
v 36.1237 -0.98703 7
v 36.1777 -1.17902 7
v 36.2412 -1.36808 7
v 36.3141 -1.55374 7
v 36.3961 -1.73553 7
v 36.4871 -1.91302 7
v 36.5868 -2.08574 7
v 36.695 -2.25328 7
v 36.8115 -2.41522 7
v 36.9358 -2.57115 7
v 37.0678 -2.72069 7
v 37.2071 -2.86347 7
v 37.3533 -2.99912 7
v 37.506 -3.12733 7
v 37.665 -3.24775 7
v 37.8298 -3.3601 7
v 38 -3.4641 7
v 38.1752 -3.55949 7
v 38.3549 -3.64602 7
v 38.5386 -3.72349 7
v 38.7261 -3.79171 7
v 38.9166 -3.8505 7
v 39.1099 -3.89971 7
v 39.3054 -3.93923 7
v 39.5026 -3.96896 7
v 39.7011 -3.98882 7
v 39.9003 -3.99876 7
v 40.0997 -3.99876 7
v 40.2989 -3.98882 7
v 40.4974 -3.96896 7
v 40.6946 -3.93923 7
v 40.8901 -3.89971 7
v 41.0834 -3.8505 7
v 41.2739 -3.79171 7
v 41.4614 -3.72349 7
v 41.6451 -3.64602 7
v 41.8248 -3.55949 7
v 42 -3.4641 7
v 42.1702 -3.3601 7
v 42.335 -3.24775 7
v 42.494 -3.12733 7
v 42.6467 -2.99912 7
v 42.7929 -2.86347 7
v 42.9322 -2.72069 7
v 43.0642 -2.57115 7
v 43.1885 -2.41522 7
v 43.305 -2.25328 7
v 43.4132 -2.08574 7
v 43.5129 -1.91302 7
v 43.6039 -1.73553 7
v 43.6859 -1.55374 7
v 43.7588 -1.36808 7
v 43.8223 -1.17902 7
v 43.8763 -0.98703 7
v 43.9207 -0.792585 7
v 43.9553 -0.596169 7
v 43.9801 -0.398271 7
v 43.995 -0.199384 7
v -33 -1.71451e-15 7
v -33.0087 0.348921 7
v -33.0348 0.696975 7
v -33.0782 1.0433 7
v -33.1388 1.38702 7
v -33.2165 1.7273 7
v -33.311 2.06329 7
v -33.4222 2.39414 7
v -33.5497 2.71904 7
v -33.6932 3.03719 7
v -33.8524 3.34778 7
v -34.027 3.65005 7
v -34.2163 3.94324 7
v -34.4201 4.22663 7
v -34.6377 4.49951 7
v -34.8686 4.76121 7
v -35.1123 5.01107 7
v -35.3682 5.24847 7
v -35.6356 5.47282 7
v -35.9138 5.68357 7
v -36.2022 5.88018 7
v -36.5 6.06218 7
v -36.8065 6.2291 7
v -37.121 6.38054 7
v -37.4426 6.51612 7
v -37.7706 6.63549 7
v -38.1041 6.73837 7
v -38.4424 6.8245 7
v -38.7845 6.89365 7
v -39.1296 6.94567 7
v -39.4769 6.98043 7
v -39.8255 6.99782 7
v -40.1745 6.99782 7
v -40.5231 6.98043 7
v -40.8704 6.94567 7
v -41.2155 6.89365 7
v -41.5576 6.8245 7
v -41.8959 6.73837 7
v -42.2294 6.63549 7
v -42.5574 6.51612 7
v -42.879 6.38054 7
v -43.1935 6.2291 7
v -43.5 6.06218 7
v -43.7978 5.88018 7
v -44.0862 5.68357 7
v -44.3644 5.47282 7
v -44.6318 5.24847 7
v -44.8877 5.01107 7
v -45.1314 4.76121 7
v -45.3623 4.49951 7
v -45.5799 4.22663 7
v -45.7837 3.94324 7
v -45.973 3.65005 7
v -46.1476 3.34778 7
v -46.3068 3.03719 7
v -46.4503 2.71904 7
v -46.5778 2.39414 7
v -46.689 2.06329 7
v -46.7835 1.7273 7
v -46.8612 1.38702 7
v -46.9218 1.0433 7
v -46.9652 0.696975 7
v -46.9913 0.348921 7
v -47 -2.40117e-14 7
v -46.9913 -0.348921 7
v -46.9652 -0.696975 7
v -46.9218 -1.0433 7
v -46.8612 -1.38702 7
v -46.7835 -1.7273 7
v -46.689 -2.06329 7
v -46.5778 -2.39414 7
v -46.4503 -2.71904 7
v -46.3068 -3.03719 7
v -46.1476 -3.34778 7
v -45.973 -3.65005 7
v -45.7837 -3.94324 7
v -45.5799 -4.22663 7
v -45.3623 -4.49951 7
v -45.1314 -4.76121 7
v -44.8877 -5.01107 7
v -44.6318 -5.24847 7
v -44.3644 -5.47282 7
v -44.0862 -5.68357 7
v -43.7978 -5.88018 7
v -43.5 -6.06218 7
v -43.1935 -6.2291 7
v -42.879 -6.38054 7
v -42.5574 -6.51612 7
v -42.2294 -6.63549 7
v -41.8959 -6.73837 7
v -41.5576 -6.8245 7
v -41.2155 -6.89365 7
v -40.8704 -6.94567 7
v -40.5231 -6.98043 7
v -40.1745 -6.99782 7
v -39.8255 -6.99782 7
v -39.4769 -6.98043 7
v -39.1296 -6.94567 7
v -38.7845 -6.89365 7
v -38.4424 -6.8245 7
v -38.1041 -6.73837 7
v -37.7706 -6.63549 7
v -37.4426 -6.51612 7
v -37.121 -6.38054 7
v -36.8065 -6.2291 7
v -36.5 -6.06218 7
v -36.2022 -5.88018 7
v -35.9138 -5.68357 7
v -35.6356 -5.47282 7
v -35.3682 -5.24847 7
v -35.1123 -5.01107 7
v -34.8686 -4.76121 7
v -34.6377 -4.49951 7
v -34.4201 -4.22663 7
v -34.2163 -3.94324 7
v -34.027 -3.65005 7
v -33.8524 -3.34778 7
v -33.6932 -3.03719 7
v -33.5497 -2.71904 7
v -33.4222 -2.39414 7
v -33.311 -2.06329 7
v -33.2165 -1.7273 7
v -33.1388 -1.38702 7
v -33.0782 -1.0433 7
v -33.0348 -0.696975 7
v -33.0087 -0.348921 7
v -36 -9.79717e-16 7
v -36.005 0.199384 7
v -36.0199 0.398271 7
v -36.0447 0.596169 7
v -36.0793 0.792585 7
v -36.1237 0.98703 7
v -36.1777 1.17902 7
v -36.2412 1.36808 7
v -36.3141 1.55374 7
v -36.3961 1.73553 7
v -36.4871 1.91302 7
v -36.5868 2.08574 7
v -36.695 2.25328 7
v -36.8115 2.41522 7
v -36.9358 2.57115 7
v -37.0678 2.72069 7
v -37.2071 2.86347 7
v -37.3533 2.99912 7
v -37.506 3.12733 7
v -37.665 3.24775 7
v -37.8298 3.3601 7
v -38 3.4641 7
v -38.1752 3.55949 7
v -38.3549 3.64602 7
v -38.5386 3.72349 7
v -38.7261 3.79171 7
v -38.9166 3.8505 7
v -39.1099 3.89971 7
v -39.3054 3.93923 7
v -39.5026 3.96896 7
v -39.7011 3.98882 7
v -39.9003 3.99876 7
v -40.0997 3.99876 7
v -40.2989 3.98882 7
v -40.4974 3.96896 7
v -40.6946 3.93923 7
v -40.8901 3.89971 7
v -41.0834 3.8505 7
v -41.2739 3.79171 7
v -41.4614 3.72349 7
v -41.6451 3.64602 7
v -41.8248 3.55949 7
v -42 3.4641 7
v -42.1702 3.3601 7
v -42.335 3.24775 7
v -42.494 3.12733 7
v -42.6467 2.99912 7
v -42.7929 2.86347 7
v -42.9322 2.72069 7
v -43.0642 2.57115 7
v -43.1885 2.41522 7
v -43.305 2.25328 7
v -43.4132 2.08574 7
v -43.5129 1.91302 7
v -43.6039 1.73553 7
v -43.6859 1.55374 7
v -43.7588 1.36808 7
v -43.8223 1.17902 7
v -43.8763 0.98703 7
v -43.9207 0.792585 7
v -43.9553 0.596169 7
v -43.9801 0.398271 7
v -43.995 0.199384 7
v -44 -1.3721e-14 7
v -43.995 -0.199384 7
v -43.9801 -0.398271 7
v -43.9553 -0.596169 7
v -43.9207 -0.792585 7
v -43.8763 -0.98703 7
v -43.8223 -1.17902 7
v -43.7588 -1.36808 7
v -43.6859 -1.55374 7
v -43.6039 -1.73553 7
v -43.5129 -1.91302 7
v -43.4132 -2.08574 7
v -43.305 -2.25328 7
v -43.1885 -2.41522 7
v -43.0642 -2.57115 7
v -42.9322 -2.72069 7
v -42.7929 -2.86347 7
v -42.6467 -2.99912 7
v -42.494 -3.12733 7
v -42.335 -3.24775 7
v -42.1702 -3.3601 7
v -42 -3.4641 7
v -41.8248 -3.55949 7
v -41.6451 -3.64602 7
v -41.4614 -3.72349 7
v -41.2739 -3.79171 7
v -41.0834 -3.8505 7
v -40.8901 -3.89971 7
v -40.6946 -3.93923 7
v -40.4974 -3.96896 7
v -40.2989 -3.98882 7
v -40.0997 -3.99876 7
v -39.9003 -3.99876 7
v -39.7011 -3.98882 7
v -39.5026 -3.96896 7
v -39.3054 -3.93923 7
v -39.1099 -3.89971 7
v -38.9166 -3.8505 7
v -38.7261 -3.79171 7
v -38.5386 -3.72349 7
v -38.3549 -3.64602 7
v -38.1752 -3.55949 7
v -38 -3.4641 7
v -37.8298 -3.3601 7
v -37.665 -3.24775 7
v -37.506 -3.12733 7
v -37.3533 -2.99912 7
v -37.2071 -2.86347 7
v -37.0678 -2.72069 7
v -36.9358 -2.57115 7
v -36.8115 -2.41522 7
v -36.695 -2.25328 7
v -36.5868 -2.08574 7
v -36.4871 -1.91302 7
v -36.3961 -1.73553 7
v -36.3141 -1.55374 7
v -36.2412 -1.36808 7
v -36.1777 -1.17902 7
v -36.1237 -0.98703 7
v -36.0793 -0.792585 7
v -36.0447 -0.596169 7
v -36.0199 -0.398271 7
v -36.005 -0.199384 7
f 7 6 5
f 87 7 88
f 89 88 7
f 86 7 87
f 90 89 7
f 85 7 86
f 91 90 7
f 84 7 85
f 92 91 7
f 83 7 84
f 93 92 7
f 82 7 83
f 94 93 7
f 81 7 82
f 95 94 7
f 80 7 81
f 96 95 7
f 79 7 80
f 97 96 7
f 78 7 79
f 98 97 7
f 77 7 78
f 99 98 7
f 76 7 77
f 100 99 7
f 75 7 76
f 101 100 7
f 74 7 75
f 102 101 7
f 73 7 74
f 103 7 5
f 103 102 7
f 72 7 73
f 8 70 69
f 8 71 70
f 8 72 71
f 8 7 72
f 68 8 69
f 67 8 68
f 66 8 67
f 65 8 66
f 64 8 65
f 63 8 64
f 62 8 63
f 61 8 62
f 60 8 61
f 59 8 60
f 58 8 59
f 57 8 58
f 56 8 57
f 55 8 56
f 54 8 55
f 53 8 54
f 52 8 53
f 51 8 52
f 50 8 51
f 49 8 50
f 48 8 49
f 47 8 48
f 46 8 47
f 1 105 104
f 1 106 105
f 1 107 106
f 1 108 107
f 1 109 108
f 1 110 109
f 1 111 110
f 1 112 111
f 1 113 112
f 1 114 113
f 1 115 114
f 1 116 115
f 1 117 116
f 1 118 117
f 1 119 118
f 1 120 119
f 1 121 120
f 1 122 121
f 1 123 122
f 1 124 123
f 1 125 124
f 1 126 125
f 1 127 126
f 1 128 127
f 1 129 128
f 130 129 1
f 45 8 46
f 131 130 1
f 44 8 45
f 132 131 1
f 43 8 44
f 133 132 1
f 42 8 43
f 134 133 1
f 41 8 42
f 9 134 1
f 4 104 103
f 4 103 5
f 4 1 104
f 3 1 4
f 2 10 9
f 2 11 10
f 2 12 11
f 2 13 12
f 2 14 13
f 2 15 14
f 2 16 15
f 2 17 16
f 2 18 17
f 2 19 18
f 2 20 19
f 2 21 20
f 2 22 21
f 2 23 22
f 2 24 23
f 2 25 24
f 2 26 25
f 2 27 26
f 2 28 27
f 2 29 28
f 2 30 29
f 2 31 30
f 2 32 31
f 2 33 32
f 2 34 33
f 2 35 34
f 2 36 35
f 2 9 1
f 2 37 36
f 2 38 37
f 2 39 38
f 2 40 39
f 8 40 2
f 8 41 40
f 135 137 138
f 136 135 138
f 141 140 139
f 142 140 141
f 225 145 226
f 227 226 145
f 224 145 225
f 228 227 145
f 223 145 224
f 229 228 145
f 222 145 223
f 230 229 145
f 221 145 222
f 231 230 145
f 220 145 221
f 232 231 145
f 219 145 220
f 233 232 145
f 218 145 219
f 234 233 145
f 217 145 218
f 235 234 145
f 216 145 217
f 236 235 145
f 215 145 216
f 237 236 145
f 214 145 215
f 238 237 145
f 213 145 214
f 239 145 146
f 239 238 145
f 212 145 213
f 240 239 146
f 211 145 212
f 241 240 146
f 210 145 211
f 242 241 146
f 243 242 146
f 244 243 146
f 245 244 146
f 246 245 146
f 247 246 146
f 248 247 146
f 249 248 146
f 250 249 146
f 251 250 146
f 252 251 146
f 253 252 146
f 254 253 146
f 255 254 146
f 256 255 146
f 257 256 146
f 258 257 146
f 259 258 146
f 260 259 146
f 261 260 146
f 262 261 146
f 263 262 146
f 264 263 146
f 265 264 146
f 266 265 146
f 267 266 146
f 143 185 184
f 143 186 185
f 143 187 186
f 143 188 187
f 143 189 188
f 143 190 189
f 143 191 190
f 143 192 191
f 143 193 192
f 143 194 193
f 143 195 194
f 143 196 195
f 143 197 196
f 143 198 197
f 143 199 198
f 143 200 199
f 143 201 200
f 143 202 201
f 143 203 202
f 143 204 203
f 143 205 204
f 143 206 205
f 143 207 206
f 143 208 207
f 143 209 208
f 143 210 209
f 143 145 210
f 268 267 146
f 183 143 184
f 269 268 146
f 182 143 183
f 270 269 146
f 181 143 182
f 271 270 146
f 272 271 146
f 144 149 148
f 144 150 149
f 144 151 150
f 144 152 151
f 144 153 152
f 144 154 153
f 144 155 154
f 144 156 155
f 144 157 156
f 144 158 157
f 144 159 158
f 144 143 181
f 144 160 159
f 144 161 160
f 144 162 161
f 144 163 162
f 144 164 163
f 144 165 164
f 144 166 165
f 144 167 166
f 144 168 167
f 144 169 168
f 144 170 169
f 144 171 170
f 144 172 171
f 144 173 172
f 144 174 173
f 144 175 174
f 144 176 175
f 144 177 176
f 144 178 177
f 144 179 178
f 144 180 179
f 144 181 180
f 146 144 147
f 147 144 148
f 146 147 272
f 273 276 275
f 274 276 273
f 277 279 280
f 278 277 280
f 363 283 364
f 365 364 283
f 362 283 363
f 366 365 283
f 361 283 362
f 367 366 283
f 360 283 361
f 368 367 283
f 359 283 360
f 369 368 283
f 358 283 359
f 370 369 283
f 357 283 358
f 371 370 283
f 356 283 357
f 372 371 283
f 355 283 356
f 373 372 283
f 354 283 355
f 374 373 283
f 353 283 354
f 375 374 283
f 352 283 353
f 376 375 283
f 351 283 352
f 377 376 283
f 350 283 351
f 378 377 283
f 349 283 350
f 379 378 283
f 380 379 283
f 381 380 283
f 382 381 283
f 284 383 382
f 284 384 383
f 284 382 283
f 385 384 284
f 386 385 284
f 387 386 284
f 388 387 284
f 389 388 284
f 390 389 284
f 391 390 284
f 392 391 284
f 393 392 284
f 394 393 284
f 395 394 284
f 396 395 284
f 397 396 284
f 398 397 284
f 399 398 284
f 400 399 284
f 401 400 284
f 402 401 284
f 403 402 284
f 404 403 284
f 405 404 284
f 406 405 284
f 407 406 284
f 408 407 284
f 409 408 284
f 410 409 284
f 285 410 284
f 281 315 314
f 281 316 315
f 281 317 316
f 281 318 317
f 281 319 318
f 281 320 319
f 281 321 320
f 281 322 321
f 281 323 322
f 281 324 323
f 281 325 324
f 281 326 325
f 281 327 326
f 281 328 327
f 281 329 328
f 281 330 329
f 281 331 330
f 281 332 331
f 281 333 332
f 281 334 333
f 281 335 334
f 281 336 335
f 281 337 336
f 281 338 337
f 281 339 338
f 281 340 339
f 281 341 340
f 281 342 341
f 281 343 342
f 281 344 343
f 281 345 344
f 281 346 345
f 281 347 346
f 282 286 285
f 282 287 286
f 282 288 287
f 282 289 288
f 282 290 289
f 282 291 290
f 282 292 291
f 282 293 292
f 282 294 293
f 282 295 294
f 282 296 295
f 282 297 296
f 282 298 297
f 282 299 298
f 282 300 299
f 282 301 300
f 282 302 301
f 282 303 302
f 282 304 303
f 282 305 304
f 282 306 305
f 282 307 306
f 282 308 307
f 282 309 308
f 282 310 309
f 282 311 310
f 282 312 311
f 282 313 312
f 282 314 313
f 282 281 314
f 282 285 284
f 281 283 348
f 348 283 349
f 281 348 347
f 493 494 411
f 495 411 494
f 492 493 411
f 496 411 495
f 491 492 411
f 497 411 496
f 490 491 411
f 498 411 497
f 489 490 411
f 499 411 498
f 488 489 411
f 500 411 499
f 487 488 411
f 501 411 500
f 486 487 411
f 502 411 501
f 485 486 411
f 503 411 502
f 484 485 411
f 504 411 503
f 483 484 411
f 505 411 504
f 482 483 411
f 506 411 505
f 481 482 411
f 507 411 506
f 480 481 411
f 508 411 507
f 479 480 411
f 509 411 508
f 478 479 411
f 510 411 509
f 511 411 510
f 512 411 511
f 513 411 512
f 514 411 513
f 515 411 514
f 516 411 515
f 517 411 516
f 518 411 517
f 519 411 518
f 520 411 519
f 521 411 520
f 522 411 521
f 523 411 522
f 524 411 523
f 412 432 433
f 412 478 411
f 412 433 434
f 412 434 435
f 412 435 436
f 412 436 437
f 412 437 438
f 412 438 439
f 412 439 440
f 412 440 441
f 412 441 442
f 412 442 443
f 412 443 444
f 412 444 445
f 412 445 446
f 412 446 447
f 412 447 448
f 412 448 449
f 412 449 450
f 412 450 451
f 412 451 452
f 412 452 453
f 412 453 454
f 412 454 455
f 412 455 456
f 412 456 457
f 412 457 458
f 412 458 459
f 412 459 460
f 412 460 461
f 412 461 462
f 412 462 463
f 412 463 464
f 412 464 465
f 412 465 466
f 412 466 467
f 412 467 468
f 412 468 469
f 412 469 470
f 412 470 471
f 412 471 472
f 412 472 473
f 412 473 474
f 412 474 475
f 412 475 476
f 412 476 477
f 412 477 478
f 620 524 525
f 619 525 526
f 619 620 525
f 621 413 411
f 621 411 524
f 621 524 620
f 618 526 527
f 618 619 526
f 622 413 621
f 617 527 528
f 617 618 527
f 623 413 622
f 616 528 529
f 616 529 530
f 616 617 528
f 624 413 623
f 615 616 530
f 625 413 624
f 614 530 531
f 614 615 530
f 626 413 625
f 613 614 531
f 613 531 532
f 627 413 626
f 612 532 533
f 612 613 532
f 628 413 627
f 611 533 534
f 611 612 533
f 629 413 628
f 610 534 535
f 610 535 536
f 610 611 534
f 630 413 629
f 609 610 536
f 631 413 630
f 608 536 537
f 608 609 536
f 632 413 631
f 607 537 538
f 607 538 539
f 607 608 537
f 633 413 632
f 606 607 539
f 634 413 633
f 605 539 540
f 605 606 539
f 635 413 634
f 604 540 415
f 604 605 540
f 636 413 635
f 603 415 416
f 603 416 417
f 603 604 415
f 637 413 636
f 602 603 417
f 638 413 637
f 601 417 418
f 601 602 417
f 639 413 638
f 600 418 419
f 600 601 418
f 640 413 639
f 599 419 420
f 599 600 419
f 641 413 640
f 598 420 421
f 598 599 420
f 642 413 641
f 597 421 422
f 597 598 421
f 643 413 642
f 596 597 422
f 596 422 423
f 644 413 643
f 595 423 424
f 595 424 425
f 595 596 423
f 645 413 644
f 594 425 426
f 594 595 425
f 646 413 645
f 593 594 426
f 647 413 646
f 592 426 427
f 592 593 426
f 648 413 647
f 591 427 428
f 591 592 427
f 649 413 648
f 590 428 429
f 590 591 428
f 650 413 649
f 589 429 430
f 589 590 429
f 651 413 650
f 588 430 431
f 588 589 430
f 652 413 651
f 587 431 432
f 587 588 431
f 587 432 412
f 653 413 652
f 654 413 653
f 655 413 654
f 656 413 655
f 657 413 656
f 658 413 657
f 659 413 658
f 660 413 659
f 661 413 660
f 662 413 661
f 663 413 662
f 664 413 663
f 665 413 664
f 666 413 665
f 541 413 666
f 414 541 542
f 414 542 543
f 414 543 544
f 414 544 545
f 414 545 546
f 414 546 547
f 414 547 548
f 414 548 549
f 414 549 550
f 414 550 551
f 414 551 552
f 414 552 553
f 414 553 554
f 414 554 555
f 414 555 556
f 414 587 412
f 414 556 557
f 414 557 558
f 414 558 559
f 414 559 560
f 414 560 561
f 414 561 562
f 414 562 563
f 414 563 564
f 414 564 565
f 414 565 566
f 414 566 567
f 414 567 568
f 414 568 569
f 414 569 570
f 414 570 571
f 414 571 572
f 414 572 573
f 414 573 574
f 414 574 575
f 414 575 576
f 414 576 577
f 414 577 578
f 414 578 579
f 414 579 580
f 414 580 581
f 414 581 582
f 414 582 583
f 414 583 584
f 414 584 585
f 414 585 586
f 414 586 587
f 414 413 541
f 667 670 669
f 668 670 667
f 671 799 798
f 672 799 671
f 673 800 799
f 673 801 800
f 673 799 672
f 674 801 673
f 675 802 801
f 675 803 802
f 675 801 674
f 676 803 675
f 677 804 803
f 677 803 676
f 678 805 804
f 678 806 805
f 678 804 677
f 679 806 678
f 680 807 806
f 680 808 807
f 680 806 679
f 681 808 680
f 682 808 681
f 682 809 808
f 682 810 809
f 683 810 682
f 684 810 683
f 684 811 810
f 685 811 684
f 685 812 811
f 685 813 812
f 686 813 685
f 686 814 813
f 687 814 686
f 688 814 687
f 688 815 814
f 689 815 688
f 689 816 815
f 690 816 689
f 690 817 816
f 691 817 690
f 691 818 817
f 692 818 691
f 692 819 818
f 693 819 692
f 693 820 819
f 694 821 820
f 694 820 693
f 695 822 821
f 695 821 694
f 696 823 822
f 696 822 695
f 697 824 823
f 697 825 824
f 697 823 696
f 698 825 697
f 699 826 825
f 699 827 826
f 699 825 698
f 700 827 699
f 701 828 827
f 701 829 828
f 701 827 700
f 702 830 829
f 702 829 701
f 703 830 702
f 704 831 830
f 704 830 703
f 705 832 831
f 705 831 704
f 706 833 832
f 706 832 705
f 707 834 833
f 707 833 706
f 708 834 707
f 708 835 834
f 708 836 835
f 709 836 708
f 709 837 836
f 710 837 709
f 711 837 710
f 711 838 837
f 712 838 711
f 712 839 838
f 713 839 712
f 713 840 839
f 714 840 713
f 714 841 840
f 715 841 714
f 715 842 841
f 716 842 715
f 716 843 842
f 716 844 843
f 717 844 716
f 718 844 717
f 718 845 844
f 719 845 718
f 719 846 845
f 720 846 719
f 720 847 846
f 721 847 720
f 721 848 847
f 721 849 848
f 722 849 721
f 723 849 722
f 723 850 849
f 723 851 850
f 724 851 723
f 725 851 724
f 725 852 851
f 726 852 725
f 726 853 852
f 727 853 726
f 727 854 853
f 728 854 727
f 728 855 854
f 728 856 855
f 729 856 728
f 730 857 856
f 730 856 729
f 731 858 857
f 731 859 858
f 731 857 730
f 732 860 859
f 732 859 731
f 733 860 732
f 733 861 860
f 734 861 733
f 734 862 861
f 735 862 734
f 736 862 735
f 736 863 862
f 736 864 863
f 737 864 736
f 737 865 864
f 738 865 737
f 739 865 738
f 739 866 865
f 740 866 739
f 740 867 866
f 740 868 867
f 741 868 740
f 742 868 741
f 742 869 868
f 743 869 742
f 743 870 869
f 744 870 743
f 744 871 870
f 745 871 744
f 745 872 871
f 746 873 872
f 746 872 745
f 747 874 873
f 747 873 746
f 748 875 874
f 748 874 747
f 749 876 875
f 749 875 748
f 750 877 876
f 750 876 749
f 751 878 877
f 751 877 750
f 752 879 878
f 752 878 751
f 753 880 879
f 753 879 752
f 754 881 880
f 754 882 881
f 754 880 753
f 755 882 754
f 756 883 882
f 756 882 755
f 757 884 883
f 757 885 884
f 757 883 756
f 758 885 757
f 759 885 758
f 759 886 885
f 760 886 759
f 760 887 886
f 761 887 760
f 761 888 887
f 761 889 888
f 762 889 761
f 762 890 889
f 763 890 762
f 764 891 890
f 764 892 891
f 764 890 763
f 765 892 764
f 766 893 892
f 766 892 765
f 767 894 893
f 767 893 766
f 768 895 894
f 768 894 767
f 769 896 895
f 769 895 768
f 770 897 896
f 770 896 769
f 771 898 897
f 771 897 770
f 772 899 898
f 772 898 771
f 773 900 899
f 773 901 900
f 773 899 772
f 774 902 901
f 774 901 773
f 775 903 902
f 775 902 774
f 776 903 775
f 777 904 903
f 777 903 776
f 778 905 904
f 778 904 777
f 779 906 905
f 779 905 778
f 780 907 906
f 780 906 779
f 781 908 907
f 781 907 780
f 782 909 908
f 782 910 909
f 782 908 781
f 783 910 782
f 784 910 783
f 784 911 910
f 784 912 911
f 785 912 784
f 786 912 785
f 786 913 912
f 787 913 786
f 787 914 913
f 787 915 914
f 788 915 787
f 789 915 788
f 789 916 915
f 790 916 789
f 790 917 916
f 790 918 917
f 791 918 790
f 792 918 791
f 792 919 918
f 793 919 792
f 793 920 919
f 794 920 793
f 794 921 920
f 795 921 794
f 795 922 921
f 796 923 922
f 796 922 795
f 797 924 923
f 797 923 796
f 927 926 925
f 928 926 927
f 935 933 934
f 1015 1016 935
f 1017 935 1016
f 1014 1015 935
f 1018 935 1017
f 1013 1014 935
f 1019 935 1018
f 1012 1013 935
f 1020 935 1019
f 1011 1012 935
f 1021 935 1020
f 1010 1011 935
f 1022 935 1021
f 1009 1010 935
f 1023 935 1022
f 1008 1009 935
f 1024 935 1023
f 1007 1008 935
f 1025 935 1024
f 1006 1007 935
f 1026 935 1025
f 1005 1006 935
f 1027 935 1026
f 1004 1005 935
f 1028 935 1027
f 1003 1004 935
f 1029 935 1028
f 1002 1003 935
f 1030 935 1029
f 1001 1002 935
f 1031 933 935
f 1031 935 1030
f 1000 1001 935
f 936 997 998
f 936 998 999
f 936 999 1000
f 936 1000 935
f 996 997 936
f 995 996 936
f 994 995 936
f 993 994 936
f 992 993 936
f 991 992 936
f 990 991 936
f 989 990 936
f 988 989 936
f 987 988 936
f 986 987 936
f 985 986 936
f 984 985 936
f 983 984 936
f 982 983 936
f 981 982 936
f 980 981 936
f 979 980 936
f 978 979 936
f 977 978 936
f 976 977 936
f 975 976 936
f 974 975 936
f 929 1032 1033
f 929 1033 1034
f 929 1034 1035
f 929 1035 1036
f 929 1036 1037
f 929 1037 1038
f 929 1038 1039
f 929 1039 1040
f 929 1040 1041
f 929 1041 1042
f 929 1042 1043
f 929 1043 1044
f 929 1044 1045
f 929 1045 1046
f 929 1046 1047
f 929 1047 1048
f 929 1048 1049
f 929 1049 1050
f 929 1050 1051
f 929 1051 1052
f 929 1052 1053
f 929 1053 1054
f 929 1054 1055
f 929 1055 1056
f 929 1056 1057
f 1058 929 1057
f 973 974 936
f 1059 929 1058
f 972 973 936
f 1060 929 1059
f 971 972 936
f 1061 929 1060
f 970 971 936
f 1062 929 1061
f 969 970 936
f 937 929 1062
f 932 1031 1032
f 932 933 1031
f 932 1032 929
f 931 932 929
f 930 937 938
f 930 938 939
f 930 939 940
f 930 940 941
f 930 941 942
f 930 942 943
f 930 943 944
f 930 944 945
f 930 945 946
f 930 946 947
f 930 947 948
f 930 948 949
f 930 949 950
f 930 950 951
f 930 951 952
f 930 952 953
f 930 953 954
f 930 954 955
f 930 955 956
f 930 956 957
f 930 957 958
f 930 958 959
f 930 959 960
f 930 960 961
f 930 961 962
f 930 962 963
f 930 963 964
f 930 929 937
f 930 964 965
f 930 965 966
f 930 966 967
f 930 967 968
f 936 930 968
f 936 968 969
f 1065 1063 1064
f 1066 1063 1065
f 1069 1067 1068
f 1069 1070 1067
f 1072 1198 1071
f 1072 1199 1198
f 1073 1200 1199
f 1073 1201 1200
f 1073 1199 1072
f 1074 1201 1073
f 1075 1202 1201
f 1075 1203 1202
f 1075 1201 1074
f 1076 1203 1075
f 1077 1204 1203
f 1077 1203 1076
f 1078 1205 1204
f 1078 1206 1205
f 1078 1204 1077
f 1079 1206 1078
f 1080 1207 1206
f 1080 1208 1207
f 1080 1206 1079
f 1081 1208 1080
f 1082 1208 1081
f 1082 1209 1208
f 1082 1210 1209
f 1083 1210 1082
f 1084 1210 1083
f 1084 1211 1210
f 1085 1211 1084
f 1085 1212 1211
f 1085 1213 1212
f 1086 1213 1085
f 1086 1214 1213
f 1087 1214 1086
f 1088 1214 1087
f 1088 1215 1214
f 1089 1215 1088
f 1089 1216 1215
f 1090 1216 1089
f 1090 1217 1216
f 1091 1217 1090
f 1091 1218 1217
f 1092 1218 1091
f 1092 1219 1218
f 1093 1219 1092
f 1093 1220 1219
f 1094 1221 1220
f 1094 1220 1093
f 1095 1222 1221
f 1095 1221 1094
f 1096 1223 1222
f 1096 1222 1095
f 1097 1224 1223
f 1097 1225 1224
f 1097 1223 1096
f 1098 1225 1097
f 1099 1226 1225
f 1099 1227 1226
f 1099 1225 1098
f 1100 1227 1099
f 1101 1228 1227
f 1101 1227 1100
f 1102 1229 1228
f 1102 1230 1229
f 1102 1228 1101
f 1103 1230 1102
f 1104 1231 1230
f 1104 1230 1103
f 1105 1232 1231
f 1105 1231 1104
f 1106 1233 1232
f 1106 1232 1105
f 1107 1234 1233
f 1107 1233 1106
f 1108 1234 1107
f 1108 1235 1234
f 1109 1235 1108
f 1109 1236 1235
f 1109 1237 1236
f 1110 1237 1109
f 1111 1237 1110
f 1111 1238 1237
f 1112 1238 1111
f 1112 1239 1238
f 1113 1239 1112
f 1113 1240 1239
f 1114 1240 1113
f 1114 1241 1240
f 1115 1241 1114
f 1115 1242 1241
f 1116 1242 1115
f 1116 1243 1242
f 1116 1244 1243
f 1117 1244 1116
f 1118 1244 1117
f 1118 1245 1244
f 1119 1245 1118
f 1119 1246 1245
f 1120 1246 1119
f 1120 1247 1246
f 1121 1247 1120
f 1121 1248 1247
f 1121 1249 1248
f 1122 1249 1121
f 1123 1249 1122
f 1123 1250 1249
f 1123 1251 1250
f 1124 1251 1123
f 1125 1251 1124
f 1125 1252 1251
f 1126 1252 1125
f 1126 1253 1252
f 1127 1253 1126
f 1127 1254 1253
f 1128 1254 1127
f 1128 1255 1254
f 1128 1256 1255
f 1129 1256 1128
f 1130 1257 1256
f 1130 1256 1129
f 1131 1258 1257
f 1131 1259 1258
f 1131 1257 1130
f 1132 1260 1259
f 1132 1259 1131
f 1133 1260 1132
f 1133 1261 1260
f 1134 1261 1133
f 1134 1262 1261
f 1135 1262 1134
f 1136 1262 1135
f 1136 1263 1262
f 1136 1264 1263
f 1137 1264 1136
f 1137 1265 1264
f 1138 1265 1137
f 1139 1265 1138
f 1139 1266 1265
f 1140 1266 1139
f 1140 1267 1266
f 1140 1268 1267
f 1141 1268 1140
f 1142 1268 1141
f 1142 1269 1268
f 1143 1269 1142
f 1143 1270 1269
f 1144 1270 1143
f 1144 1271 1270
f 1145 1271 1144
f 1145 1272 1271
f 1146 1273 1272
f 1146 1272 1145
f 1147 1274 1273
f 1147 1273 1146
f 1148 1275 1274
f 1148 1274 1147
f 1149 1276 1275
f 1149 1275 1148
f 1150 1277 1276
f 1150 1276 1149
f 1151 1278 1277
f 1151 1277 1150
f 1152 1279 1278
f 1152 1278 1151
f 1153 1280 1279
f 1153 1279 1152
f 1154 1281 1280
f 1154 1282 1281
f 1154 1280 1153
f 1155 1282 1154
f 1156 1283 1282
f 1156 1282 1155
f 1157 1284 1283
f 1157 1285 1284
f 1157 1283 1156
f 1158 1285 1157
f 1159 1285 1158
f 1159 1286 1285
f 1160 1286 1159
f 1160 1287 1286
f 1161 1287 1160
f 1161 1288 1287
f 1161 1289 1288
f 1162 1289 1161
f 1162 1290 1289
f 1163 1290 1162
f 1164 1291 1290
f 1164 1292 1291
f 1164 1290 1163
f 1165 1292 1164
f 1166 1293 1292
f 1166 1292 1165
f 1167 1294 1293
f 1167 1293 1166
f 1168 1295 1294
f 1168 1294 1167
f 1169 1296 1295
f 1169 1295 1168
f 1170 1297 1296
f 1170 1296 1169
f 1171 1298 1297
f 1171 1297 1170
f 1172 1299 1298
f 1172 1298 1171
f 1173 1300 1299
f 1173 1301 1300
f 1173 1299 1172
f 1174 1302 1301
f 1174 1301 1173
f 1175 1303 1302
f 1175 1302 1174
f 1176 1303 1175
f 1177 1304 1303
f 1177 1303 1176
f 1178 1305 1304
f 1178 1304 1177
f 1179 1306 1305
f 1179 1305 1178
f 1180 1307 1306
f 1180 1306 1179
f 1181 1308 1307
f 1181 1307 1180
f 1182 1309 1308
f 1182 1310 1309
f 1182 1308 1181
f 1183 1310 1182
f 1184 1310 1183
f 1184 1311 1310
f 1184 1312 1311
f 1185 1312 1184
f 1186 1312 1185
f 1186 1313 1312
f 1187 1313 1186
f 1187 1314 1313
f 1187 1315 1314
f 1188 1315 1187
f 1189 1315 1188
f 1189 1316 1315
f 1190 1316 1189
f 1190 1317 1316
f 1190 1318 1317
f 1191 1318 1190
f 1192 1318 1191
f 1192 1319 1318
f 1193 1319 1192
f 1193 1320 1319
f 1194 1320 1193
f 1194 1321 1320
f 1195 1321 1194
f 1195 1322 1321
f 1196 1323 1322
f 1196 1322 1195
f 1197 1324 1323
f 1197 1323 1196
f 1326 1452 1325
f 1326 1453 1452
f 1327 1454 1453
f 1327 1455 1454
f 1327 1453 1326
f 1328 1455 1327
f 1329 1456 1455
f 1329 1457 1456
f 1329 1455 1328
f 1330 1457 1329
f 1331 1458 1457
f 1331 1457 1330
f 1332 1459 1458
f 1332 1460 1459
f 1332 1458 1331
f 1333 1460 1332
f 1334 1461 1460
f 1334 1462 1461
f 1334 1460 1333
f 1335 1462 1334
f 1336 1462 1335
f 1336 1463 1462
f 1336 1464 1463
f 1337 1464 1336
f 1338 1464 1337
f 1338 1465 1464
f 1339 1465 1338
f 1339 1466 1465
f 1339 1467 1466
f 1340 1467 1339
f 1340 1468 1467
f 1341 1468 1340
f 1342 1468 1341
f 1342 1469 1468
f 1343 1469 1342
f 1343 1470 1469
f 1344 1470 1343
f 1344 1471 1470
f 1345 1471 1344
f 1345 1472 1471
f 1346 1472 1345
f 1346 1473 1472
f 1347 1473 1346
f 1347 1474 1473
f 1348 1475 1474
f 1348 1474 1347
f 1349 1476 1475
f 1349 1475 1348
f 1350 1477 1476
f 1350 1476 1349
f 1351 1478 1477
f 1351 1479 1478
f 1351 1477 1350
f 1352 1479 1351
f 1353 1480 1479
f 1353 1481 1480
f 1353 1479 1352
f 1354 1481 1353
f 1355 1482 1481
f 1355 1481 1354
f 1356 1483 1482
f 1356 1484 1483
f 1356 1482 1355
f 1357 1484 1356
f 1358 1485 1484
f 1358 1484 1357
f 1359 1486 1485
f 1359 1485 1358
f 1360 1487 1486
f 1360 1486 1359
f 1361 1488 1487
f 1361 1487 1360
f 1362 1488 1361
f 1362 1489 1488
f 1363 1489 1362
f 1363 1490 1489
f 1363 1491 1490
f 1364 1491 1363
f 1365 1491 1364
f 1365 1492 1491
f 1366 1492 1365
f 1366 1493 1492
f 1367 1493 1366
f 1367 1494 1493
f 1368 1494 1367
f 1368 1495 1494
f 1369 1495 1368
f 1369 1496 1495
f 1370 1496 1369
f 1370 1497 1496
f 1370 1498 1497
f 1371 1498 1370
f 1372 1498 1371
f 1372 1499 1498
f 1373 1499 1372
f 1373 1500 1499
f 1374 1500 1373
f 1374 1501 1500
f 1375 1501 1374
f 1375 1502 1501
f 1375 1503 1502
f 1376 1503 1375
f 1377 1503 1376
f 1377 1504 1503
f 1377 1505 1504
f 1378 1505 1377
f 1379 1505 1378
f 1379 1506 1505
f 1380 1506 1379
f 1380 1507 1506
f 1381 1507 1380
f 1381 1508 1507
f 1382 1508 1381
f 1382 1509 1508
f 1382 1510 1509
f 1383 1510 1382
f 1384 1511 1510
f 1384 1510 1383
f 1385 1512 1511
f 1385 1513 1512
f 1385 1511 1384
f 1386 1514 1513
f 1386 1513 1385
f 1387 1514 1386
f 1387 1515 1514
f 1388 1515 1387
f 1388 1516 1515
f 1389 1516 1388
f 1390 1516 1389
f 1390 1517 1516
f 1390 1518 1517
f 1391 1518 1390
f 1391 1519 1518
f 1392 1519 1391
f 1393 1519 1392
f 1393 1520 1519
f 1394 1520 1393
f 1394 1521 1520
f 1394 1522 1521
f 1395 1522 1394
f 1396 1522 1395
f 1396 1523 1522
f 1397 1523 1396
f 1397 1524 1523
f 1398 1524 1397
f 1398 1525 1524
f 1399 1525 1398
f 1399 1526 1525
f 1400 1527 1526
f 1400 1526 1399
f 1401 1528 1527
f 1401 1527 1400
f 1402 1529 1528
f 1402 1528 1401
f 1403 1530 1529
f 1403 1529 1402
f 1404 1531 1530
f 1404 1530 1403
f 1405 1532 1531
f 1405 1531 1404
f 1406 1533 1532
f 1406 1532 1405
f 1407 1534 1533
f 1407 1533 1406
f 1408 1535 1534
f 1408 1536 1535
f 1408 1534 1407
f 1409 1536 1408
f 1410 1537 1536
f 1410 1536 1409
f 1411 1538 1537
f 1411 1539 1538
f 1411 1537 1410
f 1412 1539 1411
f 1413 1539 1412
f 1413 1540 1539
f 1414 1540 1413
f 1414 1541 1540
f 1415 1541 1414
f 1415 1542 1541
f 1415 1543 1542
f 1416 1543 1415
f 1416 1544 1543
f 1417 1544 1416
f 1418 1545 1544
f 1418 1546 1545
f 1418 1544 1417
f 1419 1546 1418
f 1420 1547 1546
f 1420 1546 1419
f 1421 1548 1547
f 1421 1547 1420
f 1422 1549 1548
f 1422 1548 1421
f 1423 1550 1549
f 1423 1549 1422
f 1424 1551 1550
f 1424 1550 1423
f 1425 1552 1551
f 1425 1551 1424
f 1426 1553 1552
f 1426 1552 1425
f 1427 1554 1553
f 1427 1555 1554
f 1427 1553 1426
f 1428 1556 1555
f 1428 1555 1427
f 1429 1557 1556
f 1429 1556 1428
f 1430 1557 1429
f 1431 1558 1557
f 1431 1557 1430
f 1432 1559 1558
f 1432 1558 1431
f 1433 1560 1559
f 1433 1559 1432
f 1434 1561 1560
f 1434 1560 1433
f 1435 1562 1561
f 1435 1561 1434
f 1436 1563 1562
f 1436 1564 1563
f 1436 1562 1435
f 1437 1564 1436
f 1438 1564 1437
f 1438 1565 1564
f 1438 1566 1565
f 1439 1566 1438
f 1440 1566 1439
f 1440 1567 1566
f 1441 1567 1440
f 1441 1568 1567
f 1441 1569 1568
f 1442 1569 1441
f 1443 1569 1442
f 1443 1570 1569
f 1444 1570 1443
f 1444 1571 1570
f 1444 1572 1571
f 1445 1572 1444
f 1446 1572 1445
f 1446 1573 1572
f 1447 1573 1446
f 1447 1574 1573
f 1448 1574 1447
f 1448 1575 1574
f 1449 1575 1448
f 1449 1576 1575
f 1450 1577 1576
f 1450 1576 1449
f 1451 1578 1577
f 1451 1577 1450
f 1580 1706 1579
f 1580 1707 1706
f 1580 1708 1707
f 1581 1709 1708
f 1581 1708 1580
f 1582 1710 1709
f 1582 1709 1581
f 1583 1710 1582
f 1584 1711 1710
f 1584 1712 1711
f 1584 1710 1583
f 1585 1713 1712
f 1585 1712 1584
f 1586 1713 1585
f 1587 1714 1713
f 1587 1713 1586
f 1588 1715 1714
f 1588 1716 1715
f 1588 1714 1587
f 1589 1716 1588
f 1590 1716 1589
f 1590 1717 1716
f 1591 1717 1590
f 1591 1718 1717
f 1592 1718 1591
f 1592 1719 1718
f 1592 1720 1719
f 1593 1720 1592
f 1594 1720 1593
f 1594 1721 1720
f 1595 1721 1594
f 1595 1722 1721
f 1595 1723 1722
f 1596 1723 1595
f 1597 1723 1596
f 1597 1724 1723
f 1598 1724 1597
f 1598 1725 1724
f 1599 1725 1598
f 1599 1726 1725
f 1600 1726 1599
f 1600 1727 1726
f 1601 1727 1600
f 1601 1728 1727
f 1602 1729 1728
f 1602 1728 1601
f 1602 1730 1729
f 1603 1731 1730
f 1603 1730 1602
f 1604 1731 1603
f 1605 1732 1731
f 1605 1731 1604
f 1606 1733 1732
f 1606 1732 1605
f 1607 1734 1733
f 1607 1733 1606
f 1608 1735 1734
f 1608 1736 1735
f 1608 1734 1607
f 1609 1736 1608
f 1610 1737 1736
f 1610 1736 1609
f 1611 1738 1737
f 1611 1739 1738
f 1611 1737 1610
f 1612 1740 1739
f 1612 1739 1611
f 1613 1741 1740
f 1613 1740 1612
f 1614 1742 1741
f 1614 1741 1613
f 1615 1742 1614
f 1616 1742 1615
f 1616 1743 1742
f 1616 1744 1743
f 1617 1744 1616
f 1618 1744 1617
f 1618 1745 1744
f 1619 1745 1618
f 1619 1746 1745
f 1620 1746 1619
f 1620 1747 1746
f 1621 1747 1620
f 1621 1748 1747
f 1622 1748 1621
f 1622 1749 1748
f 1622 1750 1749
f 1623 1750 1622
f 1624 1750 1623
f 1624 1751 1750
f 1625 1751 1624
f 1625 1752 1751
f 1626 1752 1625
f 1626 1753 1752
f 1626 1754 1753
f 1627 1754 1626
f 1627 1755 1754
f 1628 1755 1627
f 1629 1755 1628
f 1629 1756 1755
f 1630 1756 1629
f 1630 1757 1756
f 1631 1757 1630
f 1631 1758 1757
f 1632 1758 1631
f 1632 1759 1758
f 1633 1759 1632
f 1633 1760 1759
f 1634 1760 1633
f 1634 1761 1760
f 1635 1761 1634
f 1635 1762 1761
f 1636 1762 1635
f 1636 1763 1762
f 1637 1764 1763
f 1637 1763 1636
f 1638 1765 1764
f 1638 1764 1637
f 1639 1766 1765
f 1639 1767 1766
f 1639 1765 1638
f 1640 1767 1639
f 1641 1767 1640
f 1641 1768 1767
f 1642 1768 1641
f 1642 1769 1768
f 1643 1769 1642
f 1643 1770 1769
f 1644 1770 1643
f 1644 1771 1770
f 1645 1771 1644
f 1645 1772 1771
f 1646 1772 1645
f 1646 1773 1772
f 1647 1773 1646
f 1647 1774 1773
f 1647 1775 1774
f 1648 1775 1647
f 1649 1775 1648
f 1649 1776 1775
f 1649 1777 1776
f 1650 1777 1649
f 1651 1777 1650
f 1651 1778 1777
f 1652 1778 1651
f 1652 1779 1778
f 1653 1781 1780
f 1653 1779 1652
f 1653 1780 1779
f 1654 1781 1653
f 1655 1782 1781
f 1655 1781 1654
f 1656 1783 1782
f 1656 1784 1783
f 1656 1782 1655
f 1657 1785 1784
f 1657 1784 1656
f 1658 1786 1785
f 1658 1785 1657
f 1659 1786 1658
f 1660 1787 1786
f 1660 1786 1659
f 1661 1788 1787
f 1661 1787 1660
f 1662 1789 1788
f 1662 1788 1661
f 1663 1790 1789
f 1663 1789 1662
f 1664 1791 1790
f 1664 1790 1663
f 1665 1792 1791
f 1665 1793 1792
f 1665 1791 1664
f 1666 1793 1665
f 1667 1793 1666
f 1667 1794 1793
f 1668 1794 1667
f 1668 1795 1794
f 1669 1795 1668
f 1669 1796 1795
f 1670 1796 1669
f 1670 1797 1796
f 1671 1798 1797
f 1671 1799 1798
f 1671 1797 1670
f 1672 1799 1671
f 1673 1800 1799
f 1673 1799 1672
f 1674 1801 1800
f 1674 1800 1673
f 1675 1802 1801
f 1675 1801 1674
f 1676 1803 1802
f 1676 1802 1675
f 1677 1804 1803
f 1677 1803 1676
f 1678 1805 1804
f 1678 1804 1677
f 1679 1806 1805
f 1679 1805 1678
f 1680 1807 1806
f 1680 1806 1679
f 1681 1808 1807
f 1681 1809 1808
f 1681 1807 1680
f 1682 1809 1681
f 1683 1810 1809
f 1683 1809 1682
f 1684 1811 1810
f 1684 1810 1683
f 1685 1812 1811
f 1685 1813 1812
f 1685 1811 1684
f 1686 1813 1685
f 1687 1814 1813
f 1687 1813 1686
f 1688 1815 1814
f 1688 1814 1687
f 1689 1816 1815
f 1689 1817 1816
f 1689 1815 1688
f 1690 1817 1689
f 1691 1817 1690
f 1691 1818 1817
f 1692 1818 1691
f 1692 1819 1818
f 1693 1819 1692
f 1693 1820 1819
f 1694 1820 1693
f 1694 1821 1820
f 1694 1822 1821
f 1695 1822 1694
f 1696 1822 1695
f 1696 1823 1822
f 1697 1823 1696
f 1697 1824 1823
f 1698 1824 1697
f 1698 1825 1824
f 1699 1825 1698
f 1699 1826 1825
f 1700 1826 1699
f 1700 1827 1826
f 1700 1828 1827
f 1701 1828 1700
f 1702 1828 1701
f 1702 1829 1828
f 1703 1830 1829
f 1703 1831 1830
f 1703 1829 1702
f 1704 1831 1703
f 1705 1832 1831
f 1705 1831 1704
f 1834 1960 1833
f 1834 1961 1960
f 1834 1962 1961
f 1835 1963 1962
f 1835 1962 1834
f 1836 1964 1963
f 1836 1963 1835
f 1837 1964 1836
f 1838 1965 1964
f 1838 1966 1965
f 1838 1964 1837
f 1839 1967 1966
f 1839 1966 1838
f 1840 1967 1839
f 1841 1968 1967
f 1841 1967 1840
f 1842 1969 1968
f 1842 1970 1969
f 1842 1968 1841
f 1843 1970 1842
f 1844 1970 1843
f 1844 1971 1970
f 1845 1971 1844
f 1845 1972 1971
f 1846 1972 1845
f 1846 1973 1972
f 1846 1974 1973
f 1847 1974 1846
f 1848 1974 1847
f 1848 1975 1974
f 1849 1975 1848
f 1849 1976 1975
f 1849 1977 1976
f 1850 1977 1849
f 1851 1977 1850
f 1851 1978 1977
f 1852 1978 1851
f 1852 1979 1978
f 1853 1979 1852
f 1853 1980 1979
f 1854 1980 1853
f 1854 1981 1980
f 1855 1981 1854
f 1855 1982 1981
f 1856 1983 1982
f 1856 1982 1855
f 1856 1984 1983
f 1857 1985 1984
f 1857 1984 1856
f 1858 1985 1857
f 1859 1986 1985
f 1859 1985 1858
f 1860 1987 1986
f 1860 1986 1859
f 1861 1988 1987
f 1861 1987 1860
f 1862 1989 1988
f 1862 1990 1989
f 1862 1988 1861
f 1863 1990 1862
f 1864 1991 1990
f 1864 1990 1863
f 1865 1992 1991
f 1865 1993 1992
f 1865 1991 1864
f 1866 1994 1993
f 1866 1993 1865
f 1867 1995 1994
f 1867 1994 1866
f 1868 1996 1995
f 1868 1995 1867
f 1869 1996 1868
f 1870 1996 1869
f 1870 1997 1996
f 1870 1998 1997
f 1871 1998 1870
f 1872 1998 1871
f 1872 1999 1998
f 1873 1999 1872
f 1873 2000 1999
f 1874 2000 1873
f 1874 2001 2000
f 1875 2001 1874
f 1875 2002 2001
f 1876 2002 1875
f 1876 2003 2002
f 1876 2004 2003
f 1877 2004 1876
f 1878 2004 1877
f 1878 2005 2004
f 1879 2005 1878
f 1879 2006 2005
f 1880 2006 1879
f 1880 2007 2006
f 1880 2008 2007
f 1881 2008 1880
f 1881 2009 2008
f 1882 2009 1881
f 1883 2009 1882
f 1883 2010 2009
f 1884 2010 1883
f 1884 2011 2010
f 1885 2011 1884
f 1885 2012 2011
f 1886 2012 1885
f 1886 2013 2012
f 1887 2013 1886
f 1887 2014 2013
f 1888 2014 1887
f 1888 2015 2014
f 1889 2015 1888
f 1889 2016 2015
f 1890 2016 1889
f 1890 2017 2016
f 1891 2018 2017
f 1891 2017 1890
f 1892 2019 2018
f 1892 2018 1891
f 1893 2020 2019
f 1893 2021 2020
f 1893 2019 1892
f 1894 2021 1893
f 1895 2021 1894
f 1895 2022 2021
f 1896 2022 1895
f 1896 2023 2022
f 1897 2023 1896
f 1897 2024 2023
f 1898 2024 1897
f 1898 2025 2024
f 1899 2025 1898
f 1899 2026 2025
f 1900 2026 1899
f 1900 2027 2026
f 1901 2027 1900
f 1901 2028 2027
f 1901 2029 2028
f 1902 2029 1901
f 1903 2029 1902
f 1903 2030 2029
f 1903 2031 2030
f 1904 2031 1903
f 1905 2031 1904
f 1905 2032 2031
f 1906 2032 1905
f 1906 2033 2032
f 1907 2035 2034
f 1907 2033 1906
f 1907 2034 2033
f 1908 2035 1907
f 1909 2036 2035
f 1909 2035 1908
f 1910 2037 2036
f 1910 2038 2037
f 1910 2036 1909
f 1911 2039 2038
f 1911 2038 1910
f 1912 2040 2039
f 1912 2039 1911
f 1913 2040 1912
f 1914 2041 2040
f 1914 2040 1913
f 1915 2042 2041
f 1915 2041 1914
f 1916 2043 2042
f 1916 2042 1915
f 1917 2044 2043
f 1917 2043 1916
f 1918 2045 2044
f 1918 2044 1917
f 1919 2046 2045
f 1919 2047 2046
f 1919 2045 1918
f 1920 2047 1919
f 1921 2047 1920
f 1921 2048 2047
f 1922 2048 1921
f 1922 2049 2048
f 1923 2049 1922
f 1923 2050 2049
f 1924 2050 1923
f 1924 2051 2050
f 1925 2052 2051
f 1925 2053 2052
f 1925 2051 1924
f 1926 2053 1925
f 1927 2054 2053
f 1927 2053 1926
f 1928 2055 2054
f 1928 2054 1927
f 1929 2056 2055
f 1929 2055 1928
f 1930 2057 2056
f 1930 2056 1929
f 1931 2058 2057
f 1931 2057 1930
f 1932 2059 2058
f 1932 2058 1931
f 1933 2060 2059
f 1933 2059 1932
f 1934 2061 2060
f 1934 2060 1933
f 1935 2062 2061
f 1935 2063 2062
f 1935 2061 1934
f 1936 2063 1935
f 1937 2064 2063
f 1937 2063 1936
f 1938 2065 2064
f 1938 2064 1937
f 1939 2066 2065
f 1939 2067 2066
f 1939 2065 1938
f 1940 2067 1939
f 1941 2068 2067
f 1941 2067 1940
f 1942 2069 2068
f 1942 2068 1941
f 1943 2070 2069
f 1943 2071 2070
f 1943 2069 1942
f 1944 2071 1943
f 1945 2071 1944
f 1945 2072 2071
f 1946 2072 1945
f 1946 2073 2072
f 1947 2073 1946
f 1947 2074 2073
f 1948 2074 1947
f 1948 2075 2074
f 1948 2076 2075
f 1949 2076 1948
f 1950 2076 1949
f 1950 2077 2076
f 1951 2077 1950
f 1951 2078 2077
f 1952 2078 1951
f 1952 2079 2078
f 1953 2079 1952
f 1953 2080 2079
f 1954 2080 1953
f 1954 2081 2080
f 1954 2082 2081
f 1955 2082 1954
f 1956 2082 1955
f 1956 2083 2082
f 1957 2084 2083
f 1957 2085 2084
f 1957 2083 1956
f 1958 2085 1957
f 1959 2086 2085
f 1959 2085 1958
f 2089 2087 2088
f 2090 2089 2088
f 2295 2169 2170
f 2295 2170 2296
f 2297 2170 2171
f 2297 2171 2172
f 2297 2296 2170
f 2294 2169 2295
f 2294 2168 2169
f 2298 2297 2172
f 2293 2168 2294
f 2293 2167 2168
f 2299 2298 2172
f 2299 2172 2173
f 2292 2167 2293
f 2292 2166 2167
f 2300 2299 2173
f 2300 2173 2174
f 2291 2166 2292
f 2291 2165 2166
f 2301 2300 2174
f 2301 2174 2175
f 2290 2165 2291
f 2290 2164 2165
f 2302 2301 2175
f 2302 2175 2176
f 2289 2164 2290
f 2289 2163 2164
f 2303 2176 2177
f 2303 2302 2176
f 2288 2163 2289
f 2288 2162 2163
f 2304 2303 2177
f 2304 2177 2178
f 2287 2162 2288
f 2287 2161 2162
f 2305 2178 2179
f 2305 2304 2178
f 2286 2160 2161
f 2286 2161 2287
f 2306 2305 2179
f 2306 2179 2180
f 2306 2180 2181
f 2285 2160 2286
f 2285 2159 2160
f 2307 2306 2181
f 2284 2158 2159
f 2284 2159 2285
f 2308 2307 2181
f 2308 2181 2182
f 2283 2157 2158
f 2283 2158 2284
f 2309 2308 2182
f 2309 2182 2183
f 2282 2157 2283
f 2282 2156 2157
f 2310 2309 2183
f 2310 2183 2184
f 2281 2156 2282
f 2281 2154 2155
f 2281 2155 2156
f 2311 2310 2184
f 2311 2184 2185
f 2280 2154 2281
f 2312 2311 2185
f 2312 2185 2186
f 2279 2153 2154
f 2279 2154 2280
f 2313 2312 2186
f 2313 2186 2187
f 2313 2187 2188
f 2278 2153 2279
f 2278 2152 2153
f 2314 2313 2188
f 2277 2152 2278
f 2277 2151 2152
f 2315 2314 2188
f 2315 2188 2189
f 2276 2151 2277
f 2276 2150 2151
f 2316 2315 2189
f 2316 2189 2190
f 2275 2150 2276
f 2275 2149 2150
f 2317 2316 2190
f 2317 2190 2191
f 2274 2149 2275
f 2274 2148 2149
f 2318 2191 2192
f 2318 2317 2191
f 2273 2148 2274
f 2273 2146 2147
f 2273 2147 2148
f 2319 2192 2193
f 2319 2318 2192
f 2272 2146 2273
f 2272 2145 2146
f 2320 2193 2194
f 2320 2319 2193
f 2271 2145 2272
f 2321 2194 2195
f 2321 2320 2194
f 2270 2144 2145
f 2270 2145 2271
f 2322 2195 2196
f 2322 2321 2195
f 2269 2144 2270
f 2269 2143 2144
f 2323 2196 2197
f 2323 2322 2196
f 2268 2142 2143
f 2268 2143 2269
f 2324 2197 2198
f 2324 2323 2197
f 2267 2140 2141
f 2267 2141 2142
f 2267 2142 2268
f 2325 2198 2199
f 2325 2324 2198
f 2200 2325 2199
f 2266 2140 2267
f 2326 2325 2200
f 2265 2139 2140
f 2265 2140 2266
f 2327 2200 2201
f 2327 2326 2200
f 2138 2265 2264
f 2138 2139 2265
f 2202 2327 2201
f 2202 2328 2327
f 2329 2328 2202
f 2137 2138 2264
f 2137 2264 2263
f 2203 2329 2202
f 2203 2330 2329
f 2136 2137 2263
f 2136 2263 2262
f 2204 2330 2203
f 2135 2136 2262
f 2135 2261 2260
f 2135 2262 2261
f 2205 2330 2204
f 2205 2331 2330
f 2134 2135 2260
f 2206 2332 2331
f 2206 2331 2205
f 2133 2134 2260
f 2133 2260 2259
f 2207 2332 2206
f 2207 2333 2332
f 2132 2133 2259
f 2132 2258 2257
f 2132 2259 2258
f 2208 2334 2333
f 2208 2333 2207
f 2131 2132 2257
f 2209 2335 2334
f 2209 2334 2208
f 2130 2257 2256
f 2130 2131 2257
f 2210 2336 2335
f 2210 2335 2209
f 2129 2130 2256
f 2129 2255 2254
f 2129 2256 2255
f 2211 2337 2336
f 2211 2338 2337
f 2211 2336 2210
f 2128 2129 2254
f 2212 2339 2338
f 2212 2338 2211
f 2127 2128 2254
f 2127 2254 2253
f 2213 2339 2212
f 2126 2127 2253
f 2126 2253 2252
f 2214 2339 2213
f 2214 2340 2339
f 2125 2252 2251
f 2125 2126 2252
f 2215 2341 2340
f 2215 2340 2214
f 2124 2251 2250
f 2124 2125 2251
f 2216 2342 2341
f 2216 2341 2215
f 2123 2250 2249
f 2123 2124 2250
f 2091 2217 2342
f 2091 2342 2216
f 2122 2248 2247
f 2122 2249 2248
f 2122 2123 2249
f 2092 2218 2217
f 2092 2219 2218
f 2092 2217 2091
f 2121 2122 2247
f 2093 2219 2092
f 2120 2121 2247
f 2120 2247 2246
f 2094 2220 2219
f 2094 2219 2093
f 2119 2120 2246
f 2119 2246 2245
f 2095 2221 2220
f 2095 2220 2094
f 2118 2119 2245
f 2118 2245 2244
f 2096 2222 2221
f 2096 2223 2222
f 2096 2221 2095
f 2117 2118 2244
f 2117 2243 2242
f 2117 2244 2243
f 2097 2223 2096
f 2097 2224 2223
f 2116 2117 2242
f 2098 2224 2097
f 2115 2241 2240
f 2115 2242 2241
f 2115 2116 2242
f 2099 2224 2098
f 2099 2225 2224
f 2099 2226 2225
f 2114 2115 2240
f 2100 2226 2099
f 2113 2240 2239
f 2113 2114 2240
f 2101 2226 2100
f 2101 2227 2226
f 2101 2228 2227
f 2112 2113 2239
f 2112 2239 2238
f 2102 2229 2228
f 2102 2228 2101
f 2111 2112 2238
f 2111 2238 2237
f 2103 2229 2102
f 2110 2111 2237
f 2110 2237 2236
f 2104 2229 2103
f 2104 2230 2229
f 2109 2110 2236
f 2109 2236 2235
f 2105 2231 2230
f 2105 2230 2104
f 2108 2235 2234
f 2108 2109 2235
f 2106 2232 2231
f 2106 2231 2105
f 2107 2233 2232
f 2107 2234 2233
f 2107 2108 2234
f 2107 2232 2106
f 2547 2421 2422
f 2547 2422 2548
f 2549 2422 2423
f 2549 2423 2424
f 2549 2548 2422
f 2546 2421 2547
f 2546 2420 2421
f 2550 2549 2424
f 2545 2420 2546
f 2545 2419 2420
f 2551 2550 2424
f 2551 2424 2425
f 2544 2419 2545
f 2544 2418 2419
f 2552 2551 2425
f 2552 2425 2426
f 2543 2418 2544
f 2543 2417 2418
f 2553 2552 2426
f 2553 2426 2427
f 2542 2417 2543
f 2542 2416 2417
f 2554 2553 2427
f 2554 2427 2428
f 2541 2416 2542
f 2541 2415 2416
f 2555 2428 2429
f 2555 2554 2428
f 2540 2415 2541
f 2540 2414 2415
f 2556 2555 2429
f 2556 2429 2430
f 2539 2414 2540
f 2539 2413 2414
f 2557 2430 2431
f 2557 2556 2430
f 2538 2412 2413
f 2538 2413 2539
f 2558 2557 2431
f 2558 2431 2432
f 2558 2432 2433
f 2537 2412 2538
f 2537 2411 2412
f 2559 2558 2433
f 2536 2410 2411
f 2536 2411 2537
f 2560 2559 2433
f 2560 2433 2434
f 2535 2409 2410
f 2535 2410 2536
f 2561 2560 2434
f 2561 2434 2435
f 2534 2409 2535
f 2534 2408 2409
f 2562 2561 2435
f 2562 2435 2436
f 2533 2408 2534
f 2533 2406 2407
f 2533 2407 2408
f 2563 2562 2436
f 2563 2436 2437
f 2532 2406 2533
f 2564 2563 2437
f 2564 2437 2438
f 2531 2405 2406
f 2531 2406 2532
f 2565 2564 2438
f 2565 2438 2439
f 2565 2439 2440
f 2530 2405 2531
f 2530 2404 2405
f 2566 2565 2440
f 2529 2404 2530
f 2529 2403 2404
f 2567 2566 2440
f 2567 2440 2441
f 2528 2403 2529
f 2528 2402 2403
f 2568 2567 2441
f 2568 2441 2442
f 2527 2402 2528
f 2527 2401 2402
f 2569 2568 2442
f 2569 2442 2443
f 2526 2401 2527
f 2526 2400 2401
f 2570 2443 2444
f 2570 2569 2443
f 2525 2400 2526
f 2525 2398 2399
f 2525 2399 2400
f 2571 2444 2445
f 2571 2570 2444
f 2524 2398 2525
f 2524 2397 2398
f 2572 2445 2446
f 2572 2571 2445
f 2523 2397 2524
f 2573 2446 2447
f 2573 2572 2446
f 2522 2396 2397
f 2522 2397 2523
f 2574 2447 2448
f 2574 2573 2447
f 2521 2396 2522
f 2521 2395 2396
f 2575 2448 2449
f 2575 2574 2448
f 2520 2394 2395
f 2520 2395 2521
f 2576 2449 2450
f 2576 2575 2449
f 2519 2392 2393
f 2519 2393 2394
f 2519 2394 2520
f 2577 2450 2451
f 2577 2576 2450
f 2452 2577 2451
f 2518 2392 2519
f 2578 2577 2452
f 2517 2391 2392
f 2517 2392 2518
f 2579 2452 2453
f 2579 2578 2452
f 2390 2517 2516
f 2390 2391 2517
f 2454 2579 2453
f 2454 2580 2579
f 2581 2580 2454
f 2389 2390 2516
f 2389 2516 2515
f 2455 2581 2454
f 2455 2582 2581
f 2388 2389 2515
f 2388 2515 2514
f 2456 2582 2455
f 2387 2388 2514
f 2387 2513 2512
f 2387 2514 2513
f 2457 2582 2456
f 2457 2583 2582
f 2386 2387 2512
f 2458 2584 2583
f 2458 2583 2457
f 2385 2386 2512
f 2385 2512 2511
f 2459 2584 2458
f 2459 2585 2584
f 2384 2385 2511
f 2384 2510 2509
f 2384 2511 2510
f 2460 2586 2585
f 2460 2585 2459
f 2383 2384 2509
f 2461 2587 2586
f 2461 2586 2460
f 2382 2509 2508
f 2382 2383 2509
f 2462 2588 2587
f 2462 2587 2461
f 2381 2382 2508
f 2381 2507 2506
f 2381 2508 2507
f 2463 2589 2588
f 2463 2590 2589
f 2463 2588 2462
f 2380 2381 2506
f 2464 2591 2590
f 2464 2590 2463
f 2379 2380 2506
f 2379 2506 2505
f 2465 2591 2464
f 2378 2379 2505
f 2378 2505 2504
f 2466 2591 2465
f 2466 2592 2591
f 2377 2504 2503
f 2377 2378 2504
f 2467 2593 2592
f 2467 2592 2466
f 2376 2503 2502
f 2376 2377 2503
f 2468 2594 2593
f 2468 2593 2467
f 2375 2502 2501
f 2375 2376 2502
f 2343 2469 2594
f 2343 2594 2468
f 2374 2500 2499
f 2374 2501 2500
f 2374 2375 2501
f 2344 2470 2469
f 2344 2471 2470
f 2344 2469 2343
f 2373 2374 2499
f 2345 2471 2344
f 2372 2373 2499
f 2372 2499 2498
f 2346 2472 2471
f 2346 2471 2345
f 2371 2372 2498
f 2371 2498 2497
f 2347 2473 2472
f 2347 2472 2346
f 2370 2371 2497
f 2370 2497 2496
f 2348 2474 2473
f 2348 2475 2474
f 2348 2473 2347
f 2369 2370 2496
f 2369 2495 2494
f 2369 2496 2495
f 2349 2475 2348
f 2349 2476 2475
f 2368 2369 2494
f 2350 2476 2349
f 2367 2493 2492
f 2367 2494 2493
f 2367 2368 2494
f 2351 2476 2350
f 2351 2477 2476
f 2351 2478 2477
f 2366 2367 2492
f 2352 2478 2351
f 2365 2492 2491
f 2365 2366 2492
f 2353 2478 2352
f 2353 2479 2478
f 2353 2480 2479
f 2364 2365 2491
f 2364 2491 2490
f 2354 2481 2480
f 2354 2480 2353
f 2363 2364 2490
f 2363 2490 2489
f 2355 2481 2354
f 2362 2363 2489
f 2362 2489 2488
f 2356 2481 2355
f 2356 2482 2481
f 2361 2362 2488
f 2361 2488 2487
f 2357 2483 2482
f 2357 2482 2356
f 2360 2487 2486
f 2360 2361 2487
f 2358 2484 2483
f 2358 2483 2357
f 2359 2485 2484
f 2359 2486 2485
f 2359 2360 2486
f 2359 2484 2358
