# Cadless export: model
v 28.9828 -11 5
v 28.9828 -11 9
v 29.4516 -9.67499 9
v 29.8598 -8.33009 9
v 30.2067 -6.96807 9
v 30.4915 -5.59172 9
v 30.7136 -4.20388 9
v 30.8726 -2.8074 9
v 30.9681 -1.40514 9
v 31 -7.59281e-15 9
v 31 -7.59281e-15 11
v 31 -7.59281e-15 11
v 30.9615 1.54522 11
v 30.846 3.0866 11
v 30.6538 4.62031 11
v 30.3853 6.14253 11
v 30.0414 7.64948 11
v 29.6228 9.13741 11
v 29.1305 10.6026 11
v 28.5658 12.0415 11
v 27.93 13.4504 11
v 27.2249 14.8259 11
v 26.452 16.1645 11
v 25.6134 17.4629 11
v 24.7111 18.7179 11
v 23.7474 19.9264 11
v 22.7246 21.0854 11
v 21.6453 22.1919 11
v 20.5123 23.2432 11
v 19.3282 24.2368 11
v 18.0961 25.1701 11
v 16.8189 26.0408 11
v 15.5 26.8468 11
v 14.1425 27.586 11
v 12.7499 28.2567 11
v 11.3256 28.8571 11
v 9.87309 29.3857 11
v 8.39605 29.8414 11
v 6.89815 30.2228 11
v 5.38309 30.529 11
v 3.85465 30.7594 11
v 2.31663 30.9133 11
v 0.772851 30.9904 11
v -0.772851 30.9904 11
v -2.31663 30.9133 11
v -3.85465 30.7594 11
v -5.38309 30.529 11
v -6.89815 30.2228 11
v -8.39605 29.8414 11
v -9.87309 29.3857 11
v -11.3256 28.8571 11
v -12.7499 28.2567 11
v -14.1425 27.586 11
v -15.5 26.8468 11
v -16.8189 26.0408 11
v -18.0961 25.1701 11
v -19.3282 24.2368 11
v -20.5123 23.2432 11
v -21.6453 22.1919 11
v -22.7246 21.0854 11
v -23.7474 19.9264 11
v -24.7111 18.7179 11
v -25.6134 17.4629 11
v -26.452 16.1645 11
v -27.2249 14.8259 11
v -27.93 13.4504 11
v -28.5658 12.0415 11
v -29.1305 10.6026 11
v -29.6228 9.13741 11
v -30.0414 7.64948 11
v -30.3853 6.14253 11
v -30.6538 4.62031 11
v -30.846 3.0866 11
v -30.9615 1.54522 11
v -31 -1.06338e-13 11
v -30.9615 -1.54522 11
v -30.846 -3.0866 11
v -30.6538 -4.62031 11
v -30.3853 -6.14253 11
v -30.0414 -7.64948 11
v -29.6228 -9.13741 11
v -29.1305 -10.6026 11
v -28.5658 -12.0415 11
v -27.93 -13.4504 11
v -27.2249 -14.8259 11
v -26.452 -16.1645 11
v -25.6134 -17.4629 11
v -24.7111 -18.7179 11
v -23.7474 -19.9264 11
v -22.7246 -21.0854 11
v -21.6453 -22.1919 11
v -20.5123 -23.2432 11
v -19.3282 -24.2368 11
v -18.0961 -25.1701 11
v -16.8189 -26.0408 11
v -15.5 -26.8468 11
v -14.1425 -27.586 11
v -12.7499 -28.2567 11
v -11.3256 -28.8571 11
v -9.87309 -29.3857 11
v -8.39605 -29.8414 11
v -6.89815 -30.2228 11
v -5.38309 -30.529 11
v -3.85465 -30.7594 11
v -2.31663 -30.9133 11
v -0.772851 -30.9904 11
v 0.772851 -30.9904 11
v 2.31663 -30.9133 11
v 3.85465 -30.7594 11
v 5.38309 -30.529 11
v 6.89815 -30.2228 11
v 8.39605 -29.8414 11
v 9.87309 -29.3857 11
v 11.3256 -28.8571 11
v 12.7499 -28.2567 11
v 14.1425 -27.586 11
v 15.5 -26.8468 11
v 16.8189 -26.0408 11
v 18.0961 -25.1701 11
v 19.3282 -24.2368 11
v 20.5123 -23.2432 11
v 21.6453 -22.1919 11
v 22.7246 -21.0854 11
v 23.7474 -19.9264 11
v 24.7111 -18.7179 11
v 25.6134 -17.4629 11
v 26.452 -16.1645 11
v 27.2249 -14.8259 11
v 27.93 -13.4504 11
v 28.5658 -12.0415 11
v 29.1305 -10.6026 11
v 29.6228 -9.13741 11
v 30.0414 -7.64948 11
v 30.3853 -6.14253 11
v 30.6538 -4.62031 11
v 30.846 -3.0866 11
v 30.9615 -1.54522 11
v 31 -7.59281e-15 9
v 30.9681 1.40514 9
v 30.8726 2.8074 9
v 30.7136 4.20388 9
v 30.4915 5.59172 9
v 30.2067 6.96807 9
v 29.8598 8.33009 9
v 29.4516 9.67499 9
v 28.9828 11 9
v 28.9828 11 5
v 30.8545 3 5
v 30.6914 4.36354 5
v 30.468 5.71853 5
v 30.1848 7.06228 5
v 29.8424 8.39218 5
v 29.4415 9.70562 5
v 30.8545 3 -5
v 30.6914 4.36354 -5
v 30.468 5.71853 -5
v 30.1848 7.06228 -5
v 29.8424 8.39218 -5
v 29.4415 9.70562 -5
v 28.9828 11 -5
v 28.9828 11 -9
v 29.4516 9.67499 -9
v 29.8598 8.33009 -9
v 30.2067 6.96807 -9
v 30.4915 5.59172 -9
v 30.7136 4.20388 -9
v 30.8726 2.8074 -9
v 30.9681 1.40514 -9
v 31 -7.59281e-15 -9
v 31 -7.59281e-15 -11
v 30.9615 1.54522 -11
v 30.846 3.0866 -11
v 30.6538 4.62031 -11
v 30.3853 6.14253 -11
v 30.0414 7.64948 -11
v 29.6228 9.13741 -11
v 29.1305 10.6026 -11
v 28.5658 12.0415 -11
v 27.93 13.4504 -11
v 27.2249 14.8259 -11
v 26.452 16.1645 -11
v 25.6134 17.4629 -11
v 24.7111 18.7179 -11
v 23.7474 19.9264 -11
v 22.7246 21.0854 -11
v 21.6453 22.1919 -11
v 20.5123 23.2432 -11
v 19.3282 24.2368 -11
v 18.0961 25.1701 -11
v 16.8189 26.0408 -11
v 15.5 26.8468 -11
v 14.1425 27.586 -11
v 12.7499 28.2567 -11
v 11.3256 28.8571 -11
v 9.87309 29.3857 -11
v 8.39605 29.8414 -11
v 6.89815 30.2228 -11
v 5.38309 30.529 -11
v 3.85465 30.7594 -11
v 2.31663 30.9133 -11
v 0.772851 30.9904 -11
v -0.772851 30.9904 -11
v -2.31663 30.9133 -11
v -3.85465 30.7594 -11
v -5.38309 30.529 -11
v -6.89815 30.2228 -11
v -8.39605 29.8414 -11
v -9.87309 29.3857 -11
v -11.3256 28.8571 -11
v -12.7499 28.2567 -11
v -14.1425 27.586 -11
v -15.5 26.8468 -11
v -16.8189 26.0408 -11
v -18.0961 25.1701 -11
v -19.3282 24.2368 -11
v -20.5123 23.2432 -11
v -21.6453 22.1919 -11
v -22.7246 21.0854 -11
v -23.7474 19.9264 -11
v -24.7111 18.7179 -11
v -25.6134 17.4629 -11
v -26.452 16.1645 -11
v -27.2249 14.8259 -11
v -27.93 13.4504 -11
v -28.5658 12.0415 -11
v -29.1305 10.6026 -11
v -29.6228 9.13741 -11
v -30.0414 7.64948 -11
v -30.3853 6.14253 -11
v -30.6538 4.62031 -11
v -30.846 3.0866 -11
v -30.9615 1.54522 -11
v -31 -1.06338e-13 -11
v -30.9615 -1.54522 -11
v -30.846 -3.0866 -11
v -30.6538 -4.62031 -11
v -30.3853 -6.14253 -11
v -30.0414 -7.64948 -11
v -29.6228 -9.13741 -11
v -29.1305 -10.6026 -11
v -28.5658 -12.0415 -11
v -27.93 -13.4504 -11
v -27.2249 -14.8259 -11
v -26.452 -16.1645 -11
v -25.6134 -17.4629 -11
v -24.7111 -18.7179 -11
v -23.7474 -19.9264 -11
v -22.7246 -21.0854 -11
v -21.6453 -22.1919 -11
v -20.5123 -23.2432 -11
v -19.3282 -24.2368 -11
v -18.0961 -25.1701 -11
v -16.8189 -26.0408 -11
v -15.5 -26.8468 -11
v -14.1425 -27.586 -11
v -12.7499 -28.2567 -11
v -11.3256 -28.8571 -11
v -9.87309 -29.3857 -11
v -8.39605 -29.8414 -11
v -6.89815 -30.2228 -11
v -5.38309 -30.529 -11
v -3.85465 -30.7594 -11
v -2.31663 -30.9133 -11
v -0.772851 -30.9904 -11
v 0.772851 -30.9904 -11
v 2.31663 -30.9133 -11
v 3.85465 -30.7594 -11
v 5.38309 -30.529 -11
v 6.89815 -30.2228 -11
v 8.39605 -29.8414 -11
v 9.87309 -29.3857 -11
v 11.3256 -28.8571 -11
v 12.7499 -28.2567 -11
v 14.1425 -27.586 -11
v 15.5 -26.8468 -11
v 16.8189 -26.0408 -11
v 18.0961 -25.1701 -11
v 19.3282 -24.2368 -11
v 20.5123 -23.2432 -11
v 21.6453 -22.1919 -11
v 22.7246 -21.0854 -11
v 23.7474 -19.9264 -11
v 24.7111 -18.7179 -11
v 25.6134 -17.4629 -11
v 26.452 -16.1645 -11
v 27.2249 -14.8259 -11
v 27.93 -13.4504 -11
v 28.5658 -12.0415 -11
v 29.1305 -10.6026 -11
v 29.6228 -9.13741 -11
v 30.0414 -7.64948 -11
v 30.3853 -6.14253 -11
v 30.6538 -4.62031 -11
v 30.846 -3.0866 -11
v 30.9615 -1.54522 -11
v 31 -7.59281e-15 -11
v 31 -7.59281e-15 -9
v 30.9681 -1.40514 -9
v 30.8726 -2.8074 -9
v 30.7136 -4.20388 -9
v 30.4915 -5.59172 -9
v 30.2067 -6.96807 -9
v 29.8598 -8.33009 -9
v 29.4516 -9.67499 -9
v 28.9828 -11 -9
v 28.9828 -11 -5
v 29.4415 -9.70562 -5
v 29.8424 -8.39218 -5
v 30.1848 -7.06228 -5
v 30.468 -5.71853 -5
v 30.6914 -4.36354 -5
v 30.8545 -3 -5
v 30.8545 -3 5
v 29.4415 -9.70562 5
v 29.8424 -8.39218 5
v 30.1848 -7.06228 5
v 30.468 -5.71853 5
v 30.6914 -4.36354 5
v 28.9828 -11 5
v 132.039 -11 5
v 28.9828 -11 9
v 132.039 -11 9
v 28.9828 11 9
v 132.039 11 9
v 31 -7.59281e-15 9
v 30.9681 1.40514 9
v 30.8726 2.8074 9
v 30.7136 4.20388 9
v 30.4915 5.59172 9
v 30.2067 6.96807 9
v 29.8598 8.33009 9
v 29.4516 9.67499 9
v 28.9828 -11 9
v 29.4516 -9.67499 9
v 29.8598 -8.33009 9
v 30.2067 -6.96807 9
v 30.4915 -5.59172 9
v 30.7136 -4.20388 9
v 30.8726 -2.8074 9
v 30.9681 -1.40514 9
v 132.039 -11 9
v 131.52 10.3582 9
v 131.033 9.69209 9
v 130.58 9.00312 9
v 130.16 8.29294 9
v 129.775 7.56323 9
v 129.426 6.81572 9
v 129.114 6.05215 9
v 128.839 5.27433 9
v 128.602 4.48409 9
v 128.404 3.68329 9
v 128.245 2.87381 9
v 128.125 2.05757 9
v 128.045 1.23648 9
v 128.005 0.412485 9
v 128.005 -0.412485 9
v 128.045 -1.23648 9
v 128.125 -2.05757 9
v 128.245 -2.87381 9
v 128.404 -3.68329 9
v 128.602 -4.48409 9
v 128.839 -5.27433 9
v 129.114 -6.05215 9
v 129.426 -6.81572 9
v 129.775 -7.56323 9
v 130.16 -8.29294 9
v 130.58 -9.00312 9
v 131.033 -9.69209 9
v 131.52 -10.3582 9
v 31 -7.59281e-15 11
v 30.9615 1.54522 11
v 30.846 3.0866 11
v 30.6538 4.62031 11
v 30.3853 6.14253 11
v 30.0414 7.64948 11
v 29.6228 9.13741 11
v 29.1305 10.6026 11
v 28.5658 12.0415 11
v 27.93 13.4504 11
v 27.2249 14.8259 11
v 26.452 16.1645 11
v 25.6134 17.4629 11
v 24.7111 18.7179 11
v 23.7474 19.9264 11
v 22.7246 21.0854 11
v 21.6453 22.1919 11
v 20.5123 23.2432 11
v 19.3282 24.2368 11
v 18.0961 25.1701 11
v 16.8189 26.0408 11
v 15.5 26.8468 11
v 14.1425 27.586 11
v 12.7499 28.2567 11
v 11.3256 28.8571 11
v 9.87309 29.3857 11
v 8.39605 29.8414 11
v 6.89815 30.2228 11
v 5.38309 30.529 11
v 3.85465 30.7594 11
v 2.31663 30.9133 11
v 0.772851 30.9904 11
v -0.772851 30.9904 11
v -2.31663 30.9133 11
v -3.85465 30.7594 11
v -5.38309 30.529 11
v -6.89815 30.2228 11
v -8.39605 29.8414 11
v -9.87309 29.3857 11
v -11.3256 28.8571 11
v -12.7499 28.2567 11
v -14.1425 27.586 11
v -15.5 26.8468 11
v -16.8189 26.0408 11
v -18.0961 25.1701 11
v -19.3282 24.2368 11
v -20.5123 23.2432 11
v -21.6453 22.1919 11
v -22.7246 21.0854 11
v -23.7474 19.9264 11
v -24.7111 18.7179 11
v -25.6134 17.4629 11
v -26.452 16.1645 11
v -27.2249 14.8259 11
v -27.93 13.4504 11
v -28.5658 12.0415 11
v -29.1305 10.6026 11
v -29.6228 9.13741 11
v -30.0414 7.64948 11
v -30.3853 6.14253 11
v -30.6538 4.62031 11
v -30.846 3.0866 11
v -30.9615 1.54522 11
v -31 -1.06338e-13 11
v -30.9615 -1.54522 11
v -30.846 -3.0866 11
v -30.6538 -4.62031 11
v -30.3853 -6.14253 11
v -30.0414 -7.64948 11
v -29.6228 -9.13741 11
v -29.1305 -10.6026 11
v -28.5658 -12.0415 11
v -27.93 -13.4504 11
v -27.2249 -14.8259 11
v -26.452 -16.1645 11
v -25.6134 -17.4629 11
v -24.7111 -18.7179 11
v -23.7474 -19.9264 11
v -22.7246 -21.0854 11
v -21.6453 -22.1919 11
v -20.5123 -23.2432 11
v -19.3282 -24.2368 11
v -18.0961 -25.1701 11
v -16.8189 -26.0408 11
v -15.5 -26.8468 11
v -14.1425 -27.586 11
v -12.7499 -28.2567 11
v -11.3256 -28.8571 11
v -9.87309 -29.3857 11
v -8.39605 -29.8414 11
v -6.89815 -30.2228 11
v -5.38309 -30.529 11
v -3.85465 -30.7594 11
v -2.31663 -30.9133 11
v -0.772851 -30.9904 11
v 0.772851 -30.9904 11
v 2.31663 -30.9133 11
v 3.85465 -30.7594 11
v 5.38309 -30.529 11
v 6.89815 -30.2228 11
v 8.39605 -29.8414 11
v 9.87309 -29.3857 11
v 11.3256 -28.8571 11
v 12.7499 -28.2567 11
v 14.1425 -27.586 11
v 15.5 -26.8468 11
v 16.8189 -26.0408 11
v 18.0961 -25.1701 11
v 19.3282 -24.2368 11
v 20.5123 -23.2432 11
v 21.6453 -22.1919 11
v 22.7246 -21.0854 11
v 23.7474 -19.9264 11
v 24.7111 -18.7179 11
v 25.6134 -17.4629 11
v 26.452 -16.1645 11
v 27.2249 -14.8259 11
v 27.93 -13.4504 11
v 28.5658 -12.0415 11
v 29.1305 -10.6026 11
v 29.6228 -9.13741 11
v 30.0414 -7.64948 11
v 30.3853 -6.14253 11
v 30.6538 -4.62031 11
v 30.846 -3.0866 11
v 30.9615 -1.54522 11
v 28.9828 11 5
v 132.039 11 5
v 28.9828 11 9
v 132.039 11 9
v 28.9828 11 5
v 132.039 11 5
v 30.8545 3 5
v 30.6914 4.36354 5
v 30.468 5.71853 5
v 30.1848 7.06228 5
v 29.8424 8.39218 5
v 29.4415 9.70562 5
v 128.267 3 5
v 131.527 10.3675 5
v 131.047 9.71122 5
v 130.598 9.03274 5
v 130.183 8.33358 5
v 129.801 7.61534 5
v 129.454 6.87968 5
v 129.143 6.12826 5
v 128.868 5.36282 5
v 128.63 4.58511 5
v 128.429 3.7969 5
v 30.8545 3 -5
v 128.267 3 -5
v 30.8545 3 5
v 128.267 3 5
v 28.9828 11 -5
v 132.039 11 -5
v 30.8545 3 -5
v 30.6914 4.36354 -5
v 30.468 5.71853 -5
v 30.1848 7.06228 -5
v 29.8424 8.39218 -5
v 29.4415 9.70562 -5
v 128.267 3 -5
v 131.527 10.3675 -5
v 131.047 9.71122 -5
v 130.598 9.03274 -5
v 130.183 8.33358 -5
v 129.801 7.61534 -5
v 129.454 6.87968 -5
v 129.143 6.12826 -5
v 128.868 5.36282 -5
v 128.63 4.58511 -5
v 128.429 3.7969 -5
v 28.9828 11 -9
v 132.039 11 -9
v 28.9828 11 -5
v 132.039 11 -5
v 31 -7.59281e-15 -9
v 30.9681 -1.40514 -9
v 30.8726 -2.8074 -9
v 30.7136 -4.20388 -9
v 30.4915 -5.59172 -9
v 30.2067 -6.96807 -9
v 29.8598 -8.33009 -9
v 29.4516 -9.67499 -9
v 28.9828 -11 -9
v 132.039 -11 -9
v 132.039 11 -9
v 131.52 10.3582 -9
v 131.033 9.69209 -9
v 130.58 9.00312 -9
v 130.16 8.29294 -9
v 129.775 7.56323 -9
v 129.426 6.81572 -9
v 129.114 6.05215 -9
v 128.839 5.27433 -9
v 128.602 4.48409 -9
v 128.404 3.68329 -9
v 128.245 2.87381 -9
v 128.125 2.05757 -9
v 128.045 1.23648 -9
v 128.005 0.412485 -9
v 128.005 -0.412485 -9
v 128.045 -1.23648 -9
v 128.125 -2.05757 -9
v 128.245 -2.87381 -9
v 128.404 -3.68329 -9
v 128.602 -4.48409 -9
v 128.839 -5.27433 -9
v 129.114 -6.05215 -9
v 129.426 -6.81572 -9
v 129.775 -7.56323 -9
v 130.16 -8.29294 -9
v 130.58 -9.00312 -9
v 131.033 -9.69209 -9
v 131.52 -10.3582 -9
v 28.9828 11 -9
v 29.4516 9.67499 -9
v 29.8598 8.33009 -9
v 30.2067 6.96807 -9
v 30.4915 5.59172 -9
v 30.7136 4.20388 -9
v 30.8726 2.8074 -9
v 30.9681 1.40514 -9
v 31 -7.59281e-15 -11
v 30.9615 1.54522 -11
v 30.846 3.0866 -11
v 30.6538 4.62031 -11
v 30.3853 6.14253 -11
v 30.0414 7.64948 -11
v 29.6228 9.13741 -11
v 29.1305 10.6026 -11
v 28.5658 12.0415 -11
v 27.93 13.4504 -11
v 27.2249 14.8259 -11
v 26.452 16.1645 -11
v 25.6134 17.4629 -11
v 24.7111 18.7179 -11
v 23.7474 19.9264 -11
v 22.7246 21.0854 -11
v 21.6453 22.1919 -11
v 20.5123 23.2432 -11
v 19.3282 24.2368 -11
v 18.0961 25.1701 -11
v 16.8189 26.0408 -11
v 15.5 26.8468 -11
v 14.1425 27.586 -11
v 12.7499 28.2567 -11
v 11.3256 28.8571 -11
v 9.87309 29.3857 -11
v 8.39605 29.8414 -11
v 6.89815 30.2228 -11
v 5.38309 30.529 -11
v 3.85465 30.7594 -11
v 2.31663 30.9133 -11
v 0.772851 30.9904 -11
v -0.772851 30.9904 -11
v -2.31663 30.9133 -11
v -3.85465 30.7594 -11
v -5.38309 30.529 -11
v -6.89815 30.2228 -11
v -8.39605 29.8414 -11
v -9.87309 29.3857 -11
v -11.3256 28.8571 -11
v -12.7499 28.2567 -11
v -14.1425 27.586 -11
v -15.5 26.8468 -11
v -16.8189 26.0408 -11
v -18.0961 25.1701 -11
v -19.3282 24.2368 -11
v -20.5123 23.2432 -11
v -21.6453 22.1919 -11
v -22.7246 21.0854 -11
v -23.7474 19.9264 -11
v -24.7111 18.7179 -11
v -25.6134 17.4629 -11
v -26.452 16.1645 -11
v -27.2249 14.8259 -11
v -27.93 13.4504 -11
v -28.5658 12.0415 -11
v -29.1305 10.6026 -11
v -29.6228 9.13741 -11
v -30.0414 7.64948 -11
v -30.3853 6.14253 -11
v -30.6538 4.62031 -11
v -30.846 3.0866 -11
v -30.9615 1.54522 -11
v -31 -1.06338e-13 -11
v -30.9615 -1.54522 -11
v -30.846 -3.0866 -11
v -30.6538 -4.62031 -11
v -30.3853 -6.14253 -11
v -30.0414 -7.64948 -11
v -29.6228 -9.13741 -11
v -29.1305 -10.6026 -11
v -28.5658 -12.0415 -11
v -27.93 -13.4504 -11
v -27.2249 -14.8259 -11
v -26.452 -16.1645 -11
v -25.6134 -17.4629 -11
v -24.7111 -18.7179 -11
v -23.7474 -19.9264 -11
v -22.7246 -21.0854 -11
v -21.6453 -22.1919 -11
v -20.5123 -23.2432 -11
v -19.3282 -24.2368 -11
v -18.0961 -25.1701 -11
v -16.8189 -26.0408 -11
v -15.5 -26.8468 -11
v -14.1425 -27.586 -11
v -12.7499 -28.2567 -11
v -11.3256 -28.8571 -11
v -9.87309 -29.3857 -11
v -8.39605 -29.8414 -11
v -6.89815 -30.2228 -11
v -5.38309 -30.529 -11
v -3.85465 -30.7594 -11
v -2.31663 -30.9133 -11
v -0.772851 -30.9904 -11
v 0.772851 -30.9904 -11
v 2.31663 -30.9133 -11
v 3.85465 -30.7594 -11
v 5.38309 -30.529 -11
v 6.89815 -30.2228 -11
v 8.39605 -29.8414 -11
v 9.87309 -29.3857 -11
v 11.3256 -28.8571 -11
v 12.7499 -28.2567 -11
v 14.1425 -27.586 -11
v 15.5 -26.8468 -11
v 16.8189 -26.0408 -11
v 18.0961 -25.1701 -11
v 19.3282 -24.2368 -11
v 20.5123 -23.2432 -11
v 21.6453 -22.1919 -11
v 22.7246 -21.0854 -11
v 23.7474 -19.9264 -11
v 24.7111 -18.7179 -11
v 25.6134 -17.4629 -11
v 26.452 -16.1645 -11
v 27.2249 -14.8259 -11
v 27.93 -13.4504 -11
v 28.5658 -12.0415 -11
v 29.1305 -10.6026 -11
v 29.6228 -9.13741 -11
v 30.0414 -7.64948 -11
v 30.3853 -6.14253 -11
v 30.6538 -4.62031 -11
v 30.846 -3.0866 -11
v 30.9615 -1.54522 -11
v 28.9828 -11 -9
v 132.039 -11 -9
v 28.9828 -11 -5
v 132.039 -11 -5
v 28.9828 -11 -5
v 29.4415 -9.70562 -5
v 29.8424 -8.39218 -5
v 30.1848 -7.06228 -5
v 30.468 -5.71853 -5
v 30.6914 -4.36354 -5
v 30.8545 -3 -5
v 132.039 -11 -5
v 128.267 -3 -5
v 128.429 -3.7969 -5
v 128.63 -4.58511 -5
v 128.868 -5.36282 -5
v 129.143 -6.12826 -5
v 129.454 -6.87968 -5
v 129.801 -7.61534 -5
v 130.183 -8.33358 -5
v 130.598 -9.03274 -5
v 131.047 -9.71122 -5
v 131.527 -10.3675 -5
v 30.8545 -3 -5
v 128.267 -3 -5
v 30.8545 -3 5
v 128.267 -3 5
v 28.9828 -11 5
v 29.4415 -9.70562 5
v 29.8424 -8.39218 5
v 30.1848 -7.06228 5
v 30.468 -5.71853 5
v 30.6914 -4.36354 5
v 30.8545 -3 5
v 132.039 -11 5
v 128.267 -3 5
v 128.429 -3.7969 5
v 128.63 -4.58511 5
v 128.868 -5.36282 5
v 129.143 -6.12826 5
v 129.454 -6.87968 5
v 129.801 -7.61534 5
v 130.183 -8.33358 5
v 130.598 -9.03274 5
v 131.047 -9.71122 5
v 131.527 -10.3675 5
v 162 -4.1638e-15 -11
v 162 -4.1638e-15 11
v 162 -4.1638e-15 11
v 161.979 0.84738 11
v 161.916 1.69265 11
v 161.81 2.53372 11
v 161.663 3.36848 11
v 161.474 4.19488 11
v 161.245 5.01084 11
v 160.975 5.81434 11
v 160.665 6.60339 11
v 160.316 7.37602 11
v 159.93 8.13032 11
v 159.506 8.8644 11
v 159.046 9.57644 11
v 158.551 10.2647 11
v 158.023 10.9274 11
v 157.462 11.5629 11
v 156.87 12.1697 11
v 156.249 12.7463 11
v 155.599 13.2911 11
v 154.924 13.8029 11
v 154.223 14.2804 11
v 153.5 14.7224 11
v 152.756 15.1278 11
v 151.992 15.4956 11
v 151.211 15.8249 11
v 150.414 16.1148 11
v 149.604 16.3646 11
v 148.783 16.5738 11
v 147.952 16.7417 11
v 147.114 16.8681 11
v 146.27 16.9525 11
v 145.424 16.9947 11
v 144.576 16.9947 11
v 143.73 16.9525 11
v 142.886 16.8681 11
v 142.048 16.7417 11
v 141.217 16.5738 11
v 140.396 16.3646 11
v 139.586 16.1148 11
v 138.789 15.8249 11
v 138.008 15.4956 11
v 137.244 15.1278 11
v 136.5 14.7224 11
v 135.777 14.2804 11
v 135.076 13.8029 11
v 134.401 13.2911 11
v 133.751 12.7463 11
v 133.13 12.1697 11
v 132.538 11.5629 11
v 131.977 10.9274 11
v 131.449 10.2647 11
v 130.954 9.57644 11
v 130.494 8.8644 11
v 130.07 8.13032 11
v 129.684 7.37602 11
v 129.335 6.60339 11
v 129.025 5.81434 11
v 128.755 5.01084 11
v 128.526 4.19488 11
v 128.337 3.36848 11
v 128.19 2.53372 11
v 128.084 1.69265 11
v 128.021 0.84738 11
v 128 -5.83142e-14 11
v 128.021 -0.84738 11
v 128.084 -1.69265 11
v 128.19 -2.53372 11
v 128.337 -3.36848 11
v 128.526 -4.19488 11
v 128.755 -5.01084 11
v 129.025 -5.81434 11
v 129.335 -6.60339 11
v 129.684 -7.37602 11
v 130.07 -8.13032 11
v 130.494 -8.8644 11
v 130.954 -9.57644 11
v 131.449 -10.2647 11
v 131.977 -10.9274 11
v 132.538 -11.5629 11
v 133.13 -12.1697 11
v 133.751 -12.7463 11
v 134.401 -13.2911 11
v 135.076 -13.8029 11
v 135.777 -14.2804 11
v 136.5 -14.7224 11
v 137.244 -15.1278 11
v 138.008 -15.4956 11
v 138.789 -15.8249 11
v 139.586 -16.1148 11
v 140.396 -16.3646 11
v 141.217 -16.5738 11
v 142.048 -16.7417 11
v 142.886 -16.8681 11
v 143.73 -16.9525 11
v 144.576 -16.9947 11
v 145.424 -16.9947 11
v 146.27 -16.9525 11
v 147.114 -16.8681 11
v 147.952 -16.7417 11
v 148.783 -16.5738 11
v 149.604 -16.3646 11
v 150.414 -16.1148 11
v 151.211 -15.8249 11
v 151.992 -15.4956 11
v 152.756 -15.1278 11
v 153.5 -14.7224 11
v 154.223 -14.2804 11
v 154.924 -13.8029 11
v 155.599 -13.2911 11
v 156.249 -12.7463 11
v 156.87 -12.1697 11
v 157.462 -11.5629 11
v 158.023 -10.9274 11
v 158.551 -10.2647 11
v 159.046 -9.57644 11
v 159.506 -8.8644 11
v 159.93 -8.13032 11
v 160.316 -7.37602 11
v 160.665 -6.60339 11
v 160.975 -5.81434 11
v 161.245 -5.01084 11
v 161.474 -4.19488 11
v 161.663 -3.36848 11
v 161.81 -2.53372 11
v 161.916 -1.69265 11
v 161.979 -0.84738 11
v 162 -4.1638e-15 -11
v 161.979 0.84738 -11
v 161.916 1.69265 -11
v 161.81 2.53372 -11
v 161.663 3.36848 -11
v 161.474 4.19488 -11
v 161.245 5.01084 -11
v 160.975 5.81434 -11
v 160.665 6.60339 -11
v 160.316 7.37602 -11
v 159.93 8.13032 -11
v 159.506 8.8644 -11
v 159.046 9.57644 -11
v 158.551 10.2647 -11
v 158.023 10.9274 -11
v 157.462 11.5629 -11
v 156.87 12.1697 -11
v 156.249 12.7463 -11
v 155.599 13.2911 -11
v 154.924 13.8029 -11
v 154.223 14.2804 -11
v 153.5 14.7224 -11
v 152.756 15.1278 -11
v 151.992 15.4956 -11
v 151.211 15.8249 -11
v 150.414 16.1148 -11
v 149.604 16.3646 -11
v 148.783 16.5738 -11
v 147.952 16.7417 -11
v 147.114 16.8681 -11
v 146.27 16.9525 -11
v 145.424 16.9947 -11
v 144.576 16.9947 -11
v 143.73 16.9525 -11
v 142.886 16.8681 -11
v 142.048 16.7417 -11
v 141.217 16.5738 -11
v 140.396 16.3646 -11
v 139.586 16.1148 -11
v 138.789 15.8249 -11
v 138.008 15.4956 -11
v 137.244 15.1278 -11
v 136.5 14.7224 -11
v 135.777 14.2804 -11
v 135.076 13.8029 -11
v 134.401 13.2911 -11
v 133.751 12.7463 -11
v 133.13 12.1697 -11
v 132.538 11.5629 -11
v 131.977 10.9274 -11
v 131.449 10.2647 -11
v 130.954 9.57644 -11
v 130.494 8.8644 -11
v 130.07 8.13032 -11
v 129.684 7.37602 -11
v 129.335 6.60339 -11
v 129.025 5.81434 -11
v 128.755 5.01084 -11
v 128.526 4.19488 -11
v 128.337 3.36848 -11
v 128.19 2.53372 -11
v 128.084 1.69265 -11
v 128.021 0.84738 -11
v 128 -5.83142e-14 -11
v 128.021 -0.84738 -11
v 128.084 -1.69265 -11
v 128.19 -2.53372 -11
v 128.337 -3.36848 -11
v 128.526 -4.19488 -11
v 128.755 -5.01084 -11
v 129.025 -5.81434 -11
v 129.335 -6.60339 -11
v 129.684 -7.37602 -11
v 130.07 -8.13032 -11
v 130.494 -8.8644 -11
v 130.954 -9.57644 -11
v 131.449 -10.2647 -11
v 131.977 -10.9274 -11
v 132.538 -11.5629 -11
v 133.13 -12.1697 -11
v 133.751 -12.7463 -11
v 134.401 -13.2911 -11
v 135.076 -13.8029 -11
v 135.777 -14.2804 -11
v 136.5 -14.7224 -11
v 137.244 -15.1278 -11
v 138.008 -15.4956 -11
v 138.789 -15.8249 -11
v 139.586 -16.1148 -11
v 140.396 -16.3646 -11
v 141.217 -16.5738 -11
v 142.048 -16.7417 -11
v 142.886 -16.8681 -11
v 143.73 -16.9525 -11
v 144.576 -16.9947 -11
v 145.424 -16.9947 -11
v 146.27 -16.9525 -11
v 147.114 -16.8681 -11
v 147.952 -16.7417 -11
v 148.783 -16.5738 -11
v 149.604 -16.3646 -11
v 150.414 -16.1148 -11
v 151.211 -15.8249 -11
v 151.992 -15.4956 -11
v 152.756 -15.1278 -11
v 153.5 -14.7224 -11
v 154.223 -14.2804 -11
v 154.924 -13.8029 -11
v 155.599 -13.2911 -11
v 156.249 -12.7463 -11
v 156.87 -12.1697 -11
v 157.462 -11.5629 -11
v 158.023 -10.9274 -11
v 158.551 -10.2647 -11
v 159.046 -9.57644 -11
v 159.506 -8.8644 -11
v 159.93 -8.13032 -11
v 160.316 -7.37602 -11
v 160.665 -6.60339 -11
v 160.975 -5.81434 -11
v 161.245 -5.01084 -11
v 161.474 -4.19488 -11
v 161.663 -3.36848 -11
v 161.81 -2.53372 -11
v 161.916 -1.69265 -11
v 161.979 -0.84738 -11
v 128.267 -3 5
v 128.429 -3.7969 5
v 128.63 -4.58511 5
v 128.868 -5.36282 5
v 129.143 -6.12826 5
v 129.454 -6.87968 5
v 129.801 -7.61534 5
v 130.183 -8.33358 5
v 130.598 -9.03274 5
v 131.047 -9.71122 5
v 131.527 -10.3675 5
v 132.039 -11 5
v 128.267 -3 -5
v 128.429 -3.7969 -5
v 128.63 -4.58511 -5
v 128.868 -5.36282 -5
v 129.143 -6.12826 -5
v 129.454 -6.87968 -5
v 129.801 -7.61534 -5
v 130.183 -8.33358 -5
v 130.598 -9.03274 -5
v 131.047 -9.71122 -5
v 131.527 -10.3675 -5
v 132.039 -11 -5
v 132.039 -11 -9
v 132.039 11 -9
v 131.52 10.3582 -9
v 131.033 9.69209 -9
v 130.58 9.00312 -9
v 130.16 8.29294 -9
v 129.775 7.56323 -9
v 129.426 6.81572 -9
v 129.114 6.05215 -9
v 128.839 5.27433 -9
v 128.602 4.48409 -9
v 128.404 3.68329 -9
v 128.245 2.87381 -9
v 128.125 2.05757 -9
v 128.045 1.23648 -9
v 128.005 0.412485 -9
v 128.005 -0.412485 -9
v 128.045 -1.23648 -9
v 128.125 -2.05757 -9
v 128.245 -2.87381 -9
v 128.404 -3.68329 -9
v 128.602 -4.48409 -9
v 128.839 -5.27433 -9
v 129.114 -6.05215 -9
v 129.426 -6.81572 -9
v 129.775 -7.56323 -9
v 130.16 -8.29294 -9
v 130.58 -9.00312 -9
v 131.033 -9.69209 -9
v 131.52 -10.3582 -9
v 132.039 11 -5
v 131.527 10.3675 -5
v 131.047 9.71122 -5
v 130.598 9.03274 -5
v 130.183 8.33358 -5
v 129.801 7.61534 -5
v 129.454 6.87968 -5
v 129.143 6.12826 -5
v 128.868 5.36282 -5
v 128.63 4.58511 -5
v 128.429 3.7969 -5
v 128.267 3 -5
v 128.267 3 5
v 132.039 11 5
v 131.527 10.3675 5
v 131.047 9.71122 5
v 130.598 9.03274 5
v 130.183 8.33358 5
v 129.801 7.61534 5
v 129.454 6.87968 5
v 129.143 6.12826 5
v 128.868 5.36282 5
v 128.63 4.58511 5
v 128.429 3.7969 5
v 132.039 11 9
v 131.52 10.3582 9
v 131.033 9.69209 9
v 130.58 9.00312 9
v 130.16 8.29294 9
v 129.775 7.56323 9
v 129.426 6.81572 9
v 129.114 6.05215 9
v 128.839 5.27433 9
v 128.602 4.48409 9
v 128.404 3.68329 9
v 128.245 2.87381 9
v 128.125 2.05757 9
v 128.045 1.23648 9
v 128.005 0.412485 9
v 128.005 -0.412485 9
v 128.045 -1.23648 9
v 128.125 -2.05757 9
v 128.245 -2.87381 9
v 128.404 -3.68329 9
v 128.602 -4.48409 9
v 128.839 -5.27433 9
v 129.114 -6.05215 9
v 129.426 -6.81572 9
v 129.775 -7.56323 9
v 130.16 -8.29294 9
v 130.58 -9.00312 9
v 131.033 -9.69209 9
v 131.52 -10.3582 9
v 132.039 -11 9
v 162 -4.1638e-15 -11
v 161.979 0.84738 -11
v 161.916 1.69265 -11
v 161.81 2.53372 -11
v 161.663 3.36848 -11
v 161.474 4.19488 -11
v 161.245 5.01084 -11
v 160.975 5.81434 -11
v 160.665 6.60339 -11
v 160.316 7.37602 -11
v 159.93 8.13032 -11
v 159.506 8.8644 -11
v 159.046 9.57644 -11
v 158.551 10.2647 -11
v 158.023 10.9274 -11
v 157.462 11.5629 -11
v 156.87 12.1697 -11
v 156.249 12.7463 -11
v 155.599 13.2911 -11
v 154.924 13.8029 -11
v 154.223 14.2804 -11
v 153.5 14.7224 -11
v 152.756 15.1278 -11
v 151.992 15.4956 -11
v 151.211 15.8249 -11
v 150.414 16.1148 -11
v 149.604 16.3646 -11
v 148.783 16.5738 -11
v 147.952 16.7417 -11
v 147.114 16.8681 -11
v 146.27 16.9525 -11
v 145.424 16.9947 -11
v 144.576 16.9947 -11
v 143.73 16.9525 -11
v 142.886 16.8681 -11
v 142.048 16.7417 -11
v 141.217 16.5738 -11
v 140.396 16.3646 -11
v 139.586 16.1148 -11
v 138.789 15.8249 -11
v 138.008 15.4956 -11
v 137.244 15.1278 -11
v 136.5 14.7224 -11
v 135.777 14.2804 -11
v 135.076 13.8029 -11
v 134.401 13.2911 -11
v 133.751 12.7463 -11
v 133.13 12.1697 -11
v 132.538 11.5629 -11
v 131.977 10.9274 -11
v 131.449 10.2647 -11
v 130.954 9.57644 -11
v 130.494 8.8644 -11
v 130.07 8.13032 -11
v 129.684 7.37602 -11
v 129.335 6.60339 -11
v 129.025 5.81434 -11
v 128.755 5.01084 -11
v 128.526 4.19488 -11
v 128.337 3.36848 -11
v 128.19 2.53372 -11
v 128.084 1.69265 -11
v 128.021 0.84738 -11
v 128 -5.83142e-14 -11
v 128.021 -0.84738 -11
v 128.084 -1.69265 -11
v 128.19 -2.53372 -11
v 128.337 -3.36848 -11
v 128.526 -4.19488 -11
v 128.755 -5.01084 -11
v 129.025 -5.81434 -11
v 129.335 -6.60339 -11
v 129.684 -7.37602 -11
v 130.07 -8.13032 -11
v 130.494 -8.8644 -11
v 130.954 -9.57644 -11
v 131.449 -10.2647 -11
v 131.977 -10.9274 -11
v 132.538 -11.5629 -11
v 133.13 -12.1697 -11
v 133.751 -12.7463 -11
v 134.401 -13.2911 -11
v 135.076 -13.8029 -11
v 135.777 -14.2804 -11
v 136.5 -14.7224 -11
v 137.244 -15.1278 -11
v 138.008 -15.4956 -11
v 138.789 -15.8249 -11
v 139.586 -16.1148 -11
v 140.396 -16.3646 -11
v 141.217 -16.5738 -11
v 142.048 -16.7417 -11
v 142.886 -16.8681 -11
v 143.73 -16.9525 -11
v 144.576 -16.9947 -11
v 145.424 -16.9947 -11
v 146.27 -16.9525 -11
v 147.114 -16.8681 -11
v 147.952 -16.7417 -11
v 148.783 -16.5738 -11
v 149.604 -16.3646 -11
v 150.414 -16.1148 -11
v 151.211 -15.8249 -11
v 151.992 -15.4956 -11
v 152.756 -15.1278 -11
v 153.5 -14.7224 -11
v 154.223 -14.2804 -11
v 154.924 -13.8029 -11
v 155.599 -13.2911 -11
v 156.249 -12.7463 -11
v 156.87 -12.1697 -11
v 157.462 -11.5629 -11
v 158.023 -10.9274 -11
v 158.551 -10.2647 -11
v 159.046 -9.57644 -11
v 159.506 -8.8644 -11
v 159.93 -8.13032 -11
v 160.316 -7.37602 -11
v 160.665 -6.60339 -11
v 160.975 -5.81434 -11
v 161.245 -5.01084 -11
v 161.474 -4.19488 -11
v 161.663 -3.36848 -11
v 161.81 -2.53372 -11
v 161.916 -1.69265 -11
v 161.979 -0.84738 -11
v 162 -4.1638e-15 11
v 161.979 0.84738 11
v 161.916 1.69265 11
v 161.81 2.53372 11
v 161.663 3.36848 11
v 161.474 4.19488 11
v 161.245 5.01084 11
v 160.975 5.81434 11
v 160.665 6.60339 11
v 160.316 7.37602 11
v 159.93 8.13032 11
v 159.506 8.8644 11
v 159.046 9.57644 11
v 158.551 10.2647 11
v 158.023 10.9274 11
v 157.462 11.5629 11
v 156.87 12.1697 11
v 156.249 12.7463 11
v 155.599 13.2911 11
v 154.924 13.8029 11
v 154.223 14.2804 11
v 153.5 14.7224 11
v 152.756 15.1278 11
v 151.992 15.4956 11
v 151.211 15.8249 11
v 150.414 16.1148 11
v 149.604 16.3646 11
v 148.783 16.5738 11
v 147.952 16.7417 11
v 147.114 16.8681 11
v 146.27 16.9525 11
v 145.424 16.9947 11
v 144.576 16.9947 11
v 143.73 16.9525 11
v 142.886 16.8681 11
v 142.048 16.7417 11
v 141.217 16.5738 11
v 140.396 16.3646 11
v 139.586 16.1148 11
v 138.789 15.8249 11
v 138.008 15.4956 11
v 137.244 15.1278 11
v 136.5 14.7224 11
v 135.777 14.2804 11
v 135.076 13.8029 11
v 134.401 13.2911 11
v 133.751 12.7463 11
v 133.13 12.1697 11
v 132.538 11.5629 11
v 131.977 10.9274 11
v 131.449 10.2647 11
v 130.954 9.57644 11
v 130.494 8.8644 11
v 130.07 8.13032 11
v 129.684 7.37602 11
v 129.335 6.60339 11
v 129.025 5.81434 11
v 128.755 5.01084 11
v 128.526 4.19488 11
v 128.337 3.36848 11
v 128.19 2.53372 11
v 128.084 1.69265 11
v 128.021 0.84738 11
v 128 -5.83142e-14 11
v 128.021 -0.84738 11
v 128.084 -1.69265 11
v 128.19 -2.53372 11
v 128.337 -3.36848 11
v 128.526 -4.19488 11
v 128.755 -5.01084 11
v 129.025 -5.81434 11
v 129.335 -6.60339 11
v 129.684 -7.37602 11
v 130.07 -8.13032 11
v 130.494 -8.8644 11
v 130.954 -9.57644 11
v 131.449 -10.2647 11
v 131.977 -10.9274 11
v 132.538 -11.5629 11
v 133.13 -12.1697 11
v 133.751 -12.7463 11
v 134.401 -13.2911 11
v 135.076 -13.8029 11
v 135.777 -14.2804 11
v 136.5 -14.7224 11
v 137.244 -15.1278 11
v 138.008 -15.4956 11
v 138.789 -15.8249 11
v 139.586 -16.1148 11
v 140.396 -16.3646 11
v 141.217 -16.5738 11
v 142.048 -16.7417 11
v 142.886 -16.8681 11
v 143.73 -16.9525 11
v 144.576 -16.9947 11
v 145.424 -16.9947 11
v 146.27 -16.9525 11
v 147.114 -16.8681 11
v 147.952 -16.7417 11
v 148.783 -16.5738 11
v 149.604 -16.3646 11
v 150.414 -16.1148 11
v 151.211 -15.8249 11
v 151.992 -15.4956 11
v 152.756 -15.1278 11
v 153.5 -14.7224 11
v 154.223 -14.2804 11
v 154.924 -13.8029 11
v 155.599 -13.2911 11
v 156.249 -12.7463 11
v 156.87 -12.1697 11
v 157.462 -11.5629 11
v 158.023 -10.9274 11
v 158.551 -10.2647 11
v 159.046 -9.57644 11
v 159.506 -8.8644 11
v 159.93 -8.13032 11
v 160.316 -7.37602 11
v 160.665 -6.60339 11
v 160.975 -5.81434 11
v 161.245 -5.01084 11
v 161.474 -4.19488 11
v 161.663 -3.36848 11
v 161.81 -2.53372 11
v 161.916 -1.69265 11
v 161.979 -0.84738 11
f 168 169 170
f 168 170 171
f 167 168 171
f 167 171 172
f 139 12 138
f 173 166 172
f 13 12 139
f 140 13 139
f 174 165 173
f 14 13 140
f 149 148 154
f 149 154 155
f 175 164 174
f 15 14 141
f 150 149 155
f 150 155 156
f 150 156 157
f 176 163 175
f 16 15 142
f 151 150 157
f 152 157 158
f 152 151 157
f 177 162 176
f 17 16 143
f 153 158 159
f 153 152 158
f 178 161 177
f 178 160 161
f 18 17 144
f 147 153 159
f 147 159 160
f 19 18 145
f 20 147 160
f 20 19 146
f 20 146 147
f 20 160 178
f 21 20 178
f 21 178 179
f 21 179 180
f 22 21 180
f 22 180 181
f 23 22 181
f 23 181 182
f 24 23 182
f 25 24 182
f 25 182 183
f 26 25 183
f 26 183 184
f 27 26 184
f 27 184 185
f 27 185 186
f 28 27 186
f 28 186 187
f 29 28 187
f 29 187 188
f 30 29 188
f 31 30 188
f 31 188 189
f 32 31 189
f 32 189 190
f 33 32 190
f 33 190 191
f 33 191 192
f 34 33 192
f 35 34 192
f 35 192 193
f 36 35 193
f 36 193 194
f 37 194 195
f 37 36 194
f 38 195 196
f 38 37 195
f 39 38 196
f 39 196 197
f 39 197 198
f 40 39 198
f 41 40 198
f 41 198 199
f 42 41 199
f 42 199 200
f 43 42 200
f 43 200 201
f 43 201 202
f 44 202 203
f 44 43 202
f 45 44 203
f 46 203 204
f 46 45 203
f 47 204 205
f 47 46 204
f 48 205 206
f 48 206 207
f 48 47 205
f 49 207 208
f 49 48 207
f 50 49 208
f 51 208 209
f 51 50 208
f 52 209 210
f 52 51 209
f 53 210 211
f 53 211 212
f 53 52 210
f 54 212 213
f 54 53 212
f 55 54 213
f 56 213 214
f 56 214 215
f 56 55 213
f 57 56 215
f 58 215 216
f 58 57 215
f 59 216 217
f 59 58 216
f 60 217 218
f 60 59 217
f 61 218 219
f 61 60 218
f 62 219 220
f 62 61 219
f 63 220 221
f 63 62 220
f 64 221 222
f 64 63 221
f 65 64 222
f 65 222 223
f 65 223 224
f 66 65 224
f 67 66 224
f 67 224 225
f 68 67 225
f 68 225 226
f 69 68 226
f 69 226 227
f 70 227 228
f 70 69 227
f 71 228 229
f 71 70 228
f 72 229 230
f 72 71 229
f 73 230 231
f 73 72 230
f 74 231 232
f 74 73 231
f 75 232 233
f 75 74 232
f 76 233 234
f 76 75 233
f 77 234 235
f 77 235 236
f 77 76 234
f 78 77 236
f 79 236 237
f 79 78 236
f 80 237 238
f 80 238 239
f 80 79 237
f 81 80 239
f 82 239 240
f 82 240 241
f 82 81 239
f 83 82 241
f 84 241 242
f 84 83 241
f 85 242 243
f 85 84 242
f 86 243 244
f 86 85 243
f 87 244 245
f 87 86 244
f 88 245 246
f 88 87 245
f 89 88 246
f 89 246 247
f 89 247 248
f 90 89 248
f 91 90 248
f 91 248 249
f 92 91 249
f 92 249 250
f 93 92 250
f 93 250 251
f 93 251 252
f 94 93 252
f 95 94 252
f 95 252 253
f 95 253 254
f 96 95 254
f 97 96 254
f 97 254 255
f 98 97 255
f 98 255 256
f 99 98 256
f 99 256 257
f 99 257 258
f 100 99 258
f 101 100 258
f 101 258 259
f 102 101 259
f 102 259 260
f 103 260 261
f 103 102 260
f 103 261 262
f 104 103 262
f 105 104 262
f 105 262 263
f 105 263 264
f 106 105 264
f 107 264 265
f 107 106 264
f 108 265 266
f 108 107 265
f 109 266 267
f 109 108 266
f 110 267 268
f 110 109 267
f 111 268 269
f 111 110 268
f 112 269 270
f 112 270 271
f 112 111 269
f 113 112 271
f 114 271 272
f 114 113 271
f 115 114 272
f 115 272 273
f 115 273 274
f 116 115 274
f 116 274 275
f 117 116 275
f 117 275 276
f 118 117 276
f 119 118 276
f 119 276 277
f 119 277 278
f 120 119 278
f 121 120 278
f 121 278 279
f 122 121 279
f 122 279 280
f 123 122 280
f 123 280 281
f 124 123 281
f 124 281 282
f 125 124 282
f 125 282 283
f 126 125 283
f 126 283 284
f 127 126 284
f 127 284 285
f 127 285 286
f 128 127 286
f 289 305 288
f 129 128 286
f 129 286 287
f 306 288 305
f 290 304 289
f 130 129 287
f 130 287 288
f 1 288 306
f 1 130 288
f 2 130 1
f 291 303 290
f 131 130 2
f 314 306 307
f 314 307 308
f 314 1 306
f 315 314 308
f 292 302 291
f 132 131 3
f 316 308 309
f 316 309 310
f 316 315 308
f 293 301 292
f 133 132 4
f 317 316 310
f 294 300 293
f 134 133 5
f 318 310 311
f 318 311 312
f 318 317 310
f 295 299 294
f 135 134 6
f 298 299 295
f 313 318 312
f 296 298 295
f 136 135 7
f 297 298 296
f 137 8 9
f 137 136 8
f 11 9 10
f 11 137 9
f 2 3 131
f 3 4 132
f 4 5 133
f 5 6 134
f 6 7 135
f 7 8 136
f 140 141 14
f 141 142 15
f 142 143 16
f 143 144 17
f 144 145 18
f 145 146 19
f 161 162 177
f 162 163 176
f 163 164 175
f 164 165 174
f 165 166 173
f 166 167 172
f 299 300 294
f 300 301 293
f 301 302 292
f 302 303 291
f 303 304 290
f 304 305 289
f 322 319 320
f 322 321 319
f 369 333 341
f 368 333 369
f 367 333 368
f 366 333 367
f 365 333 366
f 364 334 333
f 364 333 365
f 363 335 334
f 363 334 364
f 362 336 335
f 362 335 363
f 361 337 336
f 361 336 362
f 360 337 361
f 359 338 337
f 359 337 360
f 358 338 359
f 358 339 338
f 357 340 339
f 357 339 358
f 356 325 340
f 356 340 357
f 355 326 325
f 355 325 356
f 354 327 326
f 354 326 355
f 353 328 327
f 353 327 354
f 352 329 328
f 352 328 353
f 351 329 352
f 350 330 329
f 350 329 351
f 349 331 330
f 349 330 350
f 348 332 331
f 348 331 349
f 347 323 332
f 347 332 348
f 346 323 347
f 345 323 346
f 344 323 345
f 343 323 344
f 342 323 343
f 324 323 342
f 451 449 450
f 453 449 451
f 453 448 449
f 453 451 452
f 442 443 444
f 442 444 445
f 442 445 446
f 442 446 447
f 442 447 448
f 456 448 453
f 456 453 454
f 456 454 455
f 458 448 456
f 458 456 457
f 439 440 441
f 439 441 442
f 459 442 448
f 459 448 458
f 460 442 459
f 436 437 438
f 436 438 439
f 462 460 461
f 463 442 460
f 463 460 462
f 434 435 436
f 432 433 434
f 432 434 436
f 467 464 465
f 467 465 466
f 468 464 467
f 428 429 430
f 428 430 431
f 428 431 432
f 428 439 442
f 428 436 439
f 428 432 436
f 426 428 442
f 426 427 428
f 426 442 463
f 473 464 468
f 473 470 471
f 473 471 472
f 473 463 464
f 473 468 469
f 473 469 470
f 474 463 473
f 474 426 463
f 423 424 425
f 475 426 474
f 475 425 426
f 420 421 422
f 420 422 423
f 478 475 476
f 478 476 477
f 479 475 478
f 418 420 423
f 418 419 420
f 417 418 423
f 482 479 480
f 482 480 481
f 482 475 479
f 415 423 425
f 415 425 475
f 415 417 423
f 415 416 417
f 411 412 413
f 487 483 484
f 487 484 485
f 487 485 486
f 410 411 413
f 488 482 483
f 488 483 487
f 490 488 489
f 490 413 414
f 490 414 415
f 490 415 475
f 490 475 482
f 490 482 488
f 406 407 408
f 406 408 409
f 405 409 410
f 405 410 413
f 405 406 409
f 493 491 492
f 494 490 491
f 494 491 493
f 495 405 413
f 495 490 494
f 495 413 490
f 402 403 404
f 402 404 405
f 399 400 401
f 373 370 371
f 373 371 372
f 373 495 370
f 398 399 401
f 375 373 374
f 376 373 375
f 395 396 397
f 395 397 398
f 395 398 401
f 379 376 377
f 379 377 378
f 379 373 376
f 391 392 393
f 391 393 394
f 390 394 395
f 390 401 402
f 390 395 401
f 390 391 394
f 382 379 380
f 382 380 381
f 383 379 382
f 388 389 390
f 388 390 402
f 384 373 379
f 384 379 383
f 387 388 402
f 386 405 495
f 386 402 405
f 386 384 385
f 386 495 373
f 386 387 402
f 386 373 384
f 499 497 496
f 499 496 498
f 508 502 503
f 508 503 504
f 518 508 504
f 517 504 505
f 517 518 504
f 516 505 506
f 516 517 505
f 515 506 507
f 515 516 506
f 514 507 500
f 514 515 507
f 513 514 500
f 512 513 500
f 511 512 500
f 510 511 500
f 509 510 500
f 501 509 500
f 522 520 519
f 522 519 521
f 531 526 525
f 531 527 526
f 541 527 531
f 540 528 527
f 540 527 541
f 539 529 528
f 539 528 540
f 538 530 529
f 538 529 539
f 537 523 530
f 537 530 538
f 536 523 537
f 535 523 536
f 534 523 535
f 533 523 534
f 532 523 533
f 524 523 532
f 545 543 542
f 545 542 544
f 584 555 554
f 583 584 554
f 582 583 554
f 581 582 554
f 580 581 554
f 579 554 553
f 579 580 554
f 578 553 552
f 578 579 553
f 577 552 551
f 577 578 552
f 576 551 550
f 576 577 551
f 575 576 550
f 574 550 549
f 574 575 550
f 573 549 548
f 573 574 549
f 572 548 547
f 572 573 548
f 571 547 546
f 571 572 547
f 570 571 546
f 570 546 592
f 569 570 592
f 569 592 591
f 568 569 591
f 568 591 590
f 567 568 590
f 567 590 589
f 566 567 589
f 565 566 589
f 565 589 588
f 564 565 588
f 564 588 587
f 563 564 587
f 563 587 586
f 562 563 586
f 562 586 585
f 561 562 585
f 560 561 585
f 559 560 585
f 558 559 585
f 557 558 585
f 556 557 585
f 674 673 672
f 676 674 672
f 676 672 671
f 676 675 674
f 665 667 666
f 665 668 667
f 665 669 668
f 665 670 669
f 665 671 670
f 679 676 671
f 679 677 676
f 679 678 677
f 681 679 671
f 681 680 679
f 662 664 663
f 662 665 664
f 682 671 665
f 682 681 671
f 683 682 665
f 659 661 660
f 659 662 661
f 685 684 683
f 686 683 665
f 686 685 683
f 657 659 658
f 655 657 656
f 655 659 657
f 690 688 687
f 690 689 688
f 691 690 687
f 651 653 652
f 651 654 653
f 651 655 654
f 651 665 662
f 651 662 659
f 651 659 655
f 649 665 651
f 649 651 650
f 649 686 665
f 696 691 687
f 696 694 693
f 696 695 694
f 696 687 686
f 696 692 691
f 696 693 692
f 697 696 686
f 697 686 649
f 646 648 647
f 698 697 649
f 698 649 648
f 643 645 644
f 643 646 645
f 701 699 698
f 701 700 699
f 702 701 698
f 641 646 643
f 641 643 642
f 640 646 641
f 705 703 702
f 705 704 703
f 705 702 698
f 638 648 646
f 638 698 648
f 638 646 640
f 638 640 639
f 634 636 635
f 710 707 706
f 710 708 707
f 710 709 708
f 633 636 634
f 711 706 705
f 711 710 706
f 713 712 711
f 713 637 636
f 713 638 637
f 713 698 638
f 713 705 698
f 713 711 705
f 629 631 630
f 629 632 631
f 628 633 632
f 628 636 633
f 628 632 629
f 716 715 714
f 717 714 713
f 717 716 714
f 718 636 628
f 718 717 713
f 718 713 636
f 625 627 626
f 625 628 627
f 622 624 623
f 596 594 593
f 596 595 594
f 596 593 718
f 621 624 622
f 598 597 596
f 599 598 596
f 618 620 619
f 618 621 620
f 618 624 621
f 602 600 599
f 602 601 600
f 602 599 596
f 614 616 615
f 614 617 616
f 613 618 617
f 613 625 624
f 613 624 618
f 613 617 614
f 605 603 602
f 605 604 603
f 606 605 602
f 611 613 612
f 611 625 613
f 607 602 596
f 607 606 602
f 610 625 611
f 609 718 628
f 609 628 625
f 609 608 607
f 609 596 718
f 609 625 610
f 609 607 596
f 722 719 720
f 722 721 719
f 741 723 730
f 740 723 741
f 739 723 740
f 738 723 739
f 737 723 738
f 736 724 723
f 736 723 737
f 735 725 724
f 735 724 736
f 734 726 725
f 734 725 735
f 733 727 726
f 733 726 734
f 732 727 733
f 731 728 727
f 731 729 728
f 731 727 732
f 745 742 743
f 745 744 742
f 764 753 746
f 763 764 746
f 762 763 746
f 761 762 746
f 760 761 746
f 759 746 747
f 759 760 746
f 758 747 748
f 758 759 747
f 757 748 749
f 757 758 748
f 756 749 750
f 756 757 749
f 755 756 750
f 754 750 751
f 754 751 752
f 754 755 750
f 768 767 893
f 768 893 894
f 769 894 895
f 769 768 894
f 770 895 896
f 770 769 895
f 771 896 897
f 771 770 896
f 772 897 898
f 772 771 897
f 773 898 899
f 773 899 900
f 773 772 898
f 774 773 900
f 775 900 901
f 775 774 900
f 776 901 902
f 776 902 903
f 776 775 901
f 777 776 903
f 777 903 904
f 778 777 904
f 778 904 905
f 779 778 905
f 780 779 905
f 780 905 906
f 781 780 906
f 781 906 907
f 782 781 907
f 782 907 908
f 782 908 909
f 783 782 909
f 783 909 910
f 784 783 910
f 784 910 911
f 785 784 911
f 786 785 911
f 786 911 912
f 787 786 912
f 787 912 913
f 788 913 914
f 788 787 913
f 788 914 915
f 789 788 915
f 790 915 916
f 790 789 915
f 791 916 917
f 791 790 916
f 792 917 918
f 792 791 917
f 793 918 919
f 793 792 918
f 794 919 920
f 794 920 921
f 794 793 919
f 795 794 921
f 796 921 922
f 796 795 921
f 797 922 923
f 797 796 922
f 798 923 924
f 798 924 925
f 798 797 923
f 799 925 926
f 799 798 925
f 800 799 926
f 801 926 927
f 801 800 926
f 802 927 928
f 802 801 927
f 803 802 928
f 803 928 929
f 803 929 930
f 804 803 930
f 804 930 931
f 805 804 931
f 806 805 931
f 806 931 932
f 807 806 932
f 807 932 933
f 808 807 933
f 808 933 934
f 808 934 935
f 809 808 935
f 809 935 936
f 810 809 936
f 811 810 936
f 811 936 937
f 811 937 938
f 812 811 938
f 813 812 938
f 813 938 939
f 814 813 939
f 814 939 940
f 1044 941 942
f 1073 941 1044
f 815 814 940
f 815 940 941
f 1045 942 943
f 1086 941 1073
f 1086 815 941
f 1097 815 1086
f 816 815 1097
f 1046 943 944
f 1087 1073 1074
f 1087 1086 1073
f 945 1047 944
f 817 816 1098
f 1088 1074 1075
f 1088 1087 1074
f 1076 1088 1075
f 946 1048 945
f 818 817 1099
f 1089 1088 1076
f 947 1049 946
f 819 818 1100
f 1090 1076 1077
f 1090 1089 1076
f 1078 1090 1077
f 948 1050 947
f 820 819 1101
f 1091 1090 1078
f 949 1051 948
f 821 820 1102
f 1092 1078 1079
f 1092 1091 1078
f 950 1052 949
f 822 821 1103
f 1093 1079 1080
f 1093 1092 1079
f 951 1053 950
f 823 822 1104
f 1094 1080 1081
f 1094 1093 1080
f 1095 1081 1082
f 1095 1094 1081
f 952 1054 951
f 824 823 1105
f 1096 1082 1083
f 1096 1095 1082
f 953 1055 952
f 825 824 1106
f 1085 1083 1084
f 1085 1096 1083
f 954 1056 953
f 826 825 1107
f 1057 1056 954
f 955 1057 954
f 827 826 1108
f 1058 1057 955
f 956 1058 955
f 828 827 1109
f 1110 828 1109
f 1059 1058 956
f 957 1059 956
f 829 828 1110
f 1111 829 1110
f 1060 1059 957
f 958 1060 957
f 830 829 1111
f 1112 830 1111
f 1061 1060 958
f 959 1061 958
f 831 830 1112
f 1113 831 1112
f 960 1062 959
f 832 831 1113
f 1114 832 1113
f 961 1063 960
f 833 832 1114
f 1032 1019 1031
f 1020 1019 1032
f 962 1064 961
f 834 833 1115
f 1033 1020 1032
f 1021 1020 1033
f 963 1065 962
f 835 834 1116
f 1022 1021 1033
f 1022 1033 1034
f 964 1066 963
f 836 835 1117
f 1023 1022 1034
f 1023 1034 1035
f 965 1067 964
f 837 836 1118
f 1024 1023 1035
f 1024 1035 1036
f 966 1068 965
f 838 837 1119
f 1025 1024 1036
f 1025 1036 1037
f 967 1069 966
f 839 838 1120
f 1026 1025 1037
f 1026 1037 1038
f 968 1070 967
f 840 839 1121
f 1027 1026 1038
f 1027 1038 1039
f 969 1071 968
f 841 840 1122
f 1028 1039 1040
f 1028 1027 1039
f 970 1072 969
f 842 841 1123
f 1029 1028 1040
f 1029 1040 1041
f 971 1043 970
f 971 1042 1043
f 843 842 1124
f 1030 1029 1041
f 1030 1041 1042
f 844 843 1125
f 845 1042 971
f 845 1030 1042
f 845 844 1126
f 845 1126 1030
f 846 971 972
f 846 845 971
f 847 972 973
f 847 846 972
f 848 973 974
f 848 974 975
f 848 847 973
f 849 848 975
f 850 975 976
f 850 976 977
f 850 849 975
f 851 850 977
f 852 977 978
f 852 851 977
f 853 978 979
f 853 852 978
f 854 979 980
f 854 980 981
f 854 853 979
f 855 854 981
f 856 981 982
f 856 855 981
f 857 982 983
f 857 856 982
f 858 983 984
f 858 984 985
f 858 857 983
f 859 858 985
f 860 985 986
f 860 986 987
f 860 859 985
f 861 860 987
f 862 861 987
f 862 987 988
f 863 862 988
f 863 988 989
f 864 863 989
f 864 989 990
f 865 864 990
f 865 990 991
f 866 865 991
f 866 991 992
f 867 866 992
f 867 992 993
f 867 993 994
f 868 867 994
f 869 868 994
f 869 994 995
f 870 995 996
f 870 996 997
f 870 869 995
f 871 997 998
f 871 870 997
f 872 998 999
f 872 871 998
f 873 872 999
f 874 999 1000
f 874 1000 1001
f 874 873 999
f 875 874 1001
f 876 1001 1002
f 876 875 1001
f 877 1002 1003
f 877 876 1002
f 878 1003 1004
f 878 877 1003
f 879 1004 1005
f 879 878 1004
f 880 1005 1006
f 880 879 1005
f 881 1006 1007
f 881 880 1006
f 882 1007 1008
f 882 1008 1009
f 882 881 1007
f 883 882 1009
f 884 1009 1010
f 884 883 1009
f 885 1010 1011
f 885 884 1010
f 886 1011 1012
f 886 885 1011
f 887 1012 1013
f 887 886 1012
f 888 887 1013
f 888 1013 1014
f 889 888 1014
f 889 1014 1015
f 890 889 1015
f 890 1015 1016
f 891 890 1016
f 891 1016 1017
f 892 891 1017
f 892 1017 1018
f 766 892 1018
f 766 1018 765
f 1045 1044 942
f 1046 1045 943
f 1047 1046 944
f 1048 1047 945
f 1049 1048 946
f 1050 1049 947
f 1051 1050 948
f 1052 1051 949
f 1053 1052 950
f 1054 1053 951
f 1055 1054 952
f 1056 1055 953
f 1062 1061 959
f 1063 1062 960
f 1064 1063 961
f 1065 1064 962
f 1066 1065 963
f 1067 1066 964
f 1068 1067 965
f 1069 1068 966
f 1070 1069 967
f 1071 1070 968
f 1072 1071 969
f 1043 1072 970
f 1097 1098 816
f 1098 1099 817
f 1099 1100 818
f 1100 1101 819
f 1101 1102 820
f 1102 1103 821
f 1103 1104 822
f 1104 1105 823
f 1105 1106 824
f 1106 1107 825
f 1107 1108 826
f 1108 1109 827
f 1114 1115 833
f 1115 1116 834
f 1116 1117 835
f 1117 1118 836
f 1118 1119 837
f 1119 1120 838
f 1120 1121 839
f 1121 1122 840
f 1122 1123 841
f 1123 1124 842
f 1124 1125 843
f 1125 1126 844
f 1204 1206 1205
f 1208 1207 1206
f 1211 1208 1206
f 1211 1209 1208
f 1211 1210 1209
f 1200 1206 1204
f 1200 1211 1206
f 1200 1202 1201
f 1200 1203 1202
f 1200 1204 1203
f 1199 1211 1200
f 1214 1212 1211
f 1214 1213 1212
f 1196 1198 1197
f 1196 1199 1198
f 1217 1215 1214
f 1217 1216 1215
f 1193 1195 1194
f 1219 1218 1217
f 1192 1195 1193
f 1220 1214 1211
f 1220 1217 1214
f 1220 1219 1217
f 1222 1211 1199
f 1222 1199 1196
f 1222 1220 1211
f 1222 1221 1220
f 1189 1191 1190
f 1189 1192 1191
f 1189 1195 1192
f 1224 1223 1222
f 1187 1195 1189
f 1187 1189 1188
f 1187 1196 1195
f 1225 1224 1222
f 1226 1225 1222
f 1185 1187 1186
f 1227 1226 1222
f 1182 1184 1183
f 1182 1185 1184
f 1181 1187 1185
f 1181 1185 1182
f 1231 1228 1227
f 1231 1229 1228
f 1231 1230 1229
f 1231 1227 1222
f 1231 1222 1196
f 1180 1187 1181
f 1178 1180 1179
f 1234 1232 1231
f 1234 1233 1232
f 1177 1180 1178
f 1174 1176 1175
f 1174 1177 1176
f 1238 1235 1234
f 1238 1236 1235
f 1238 1237 1236
f 1238 1231 1196
f 1238 1234 1231
f 1239 1238 1196
f 1171 1180 1177
f 1171 1173 1172
f 1171 1174 1173
f 1171 1177 1174
f 1169 1171 1170
f 1243 1240 1239
f 1243 1241 1240
f 1243 1242 1241
f 1168 1171 1169
f 1244 1243 1239
f 1167 1171 1168
f 1166 1187 1180
f 1166 1180 1171
f 1166 1171 1167
f 1247 1245 1244
f 1247 1246 1245
f 1247 1239 1196
f 1247 1244 1239
f 1162 1164 1163
f 1162 1165 1164
f 1250 1248 1247
f 1250 1249 1248
f 1160 1162 1161
f 1252 1250 1247
f 1252 1251 1250
f 1159 1162 1160
f 1159 1166 1165
f 1159 1165 1162
f 1128 1252 1247
f 1128 1127 1252
f 1157 1159 1158
f 1130 1129 1128
f 1130 1196 1187
f 1130 1128 1247
f 1130 1247 1196
f 1155 1157 1156
f 1153 1159 1157
f 1153 1166 1159
f 1153 1155 1154
f 1153 1157 1155
f 1153 1187 1166
f 1133 1131 1130
f 1133 1132 1131
f 1150 1152 1151
f 1150 1153 1152
f 1136 1135 1134
f 1137 1134 1133
f 1137 1136 1134
f 1148 1150 1149
f 1138 1133 1130
f 1138 1137 1133
f 1147 1153 1150
f 1147 1150 1148
f 1140 1139 1138
f 1140 1138 1130
f 1141 1140 1130
f 1144 1146 1145
f 1143 1142 1141
f 1143 1147 1146
f 1143 1130 1187
f 1143 1187 1153
f 1143 1153 1147
f 1143 1141 1130
f 1143 1146 1144
f 1330 1331 1332
f 1334 1332 1333
f 1337 1332 1334
f 1337 1334 1335
f 1337 1335 1336
f 1326 1330 1332
f 1326 1332 1337
f 1326 1327 1328
f 1326 1328 1329
f 1326 1329 1330
f 1325 1326 1337
f 1340 1337 1338
f 1340 1338 1339
f 1322 1323 1324
f 1322 1324 1325
f 1343 1340 1341
f 1343 1341 1342
f 1319 1320 1321
f 1345 1343 1344
f 1318 1319 1321
f 1346 1337 1340
f 1346 1340 1343
f 1346 1343 1345
f 1348 1325 1337
f 1348 1322 1325
f 1348 1337 1346
f 1348 1346 1347
f 1315 1316 1317
f 1315 1317 1318
f 1315 1318 1321
f 1350 1348 1349
f 1313 1315 1321
f 1313 1314 1315
f 1313 1321 1322
f 1351 1348 1350
f 1352 1348 1351
f 1311 1312 1313
f 1353 1348 1352
f 1308 1309 1310
f 1308 1310 1311
f 1307 1311 1313
f 1307 1308 1311
f 1357 1353 1354
f 1357 1354 1355
f 1357 1355 1356
f 1357 1348 1353
f 1357 1322 1348
f 1306 1307 1313
f 1304 1305 1306
f 1360 1357 1358
f 1360 1358 1359
f 1303 1304 1306
f 1300 1301 1302
f 1300 1302 1303
f 1364 1360 1361
f 1364 1361 1362
f 1364 1362 1363
f 1364 1322 1357
f 1364 1357 1360
f 1365 1322 1364
f 1297 1303 1306
f 1297 1298 1299
f 1297 1299 1300
f 1297 1300 1303
f 1295 1296 1297
f 1369 1365 1366
f 1369 1366 1367
f 1369 1367 1368
f 1294 1295 1297
f 1370 1365 1369
f 1293 1294 1297
f 1292 1306 1313
f 1292 1297 1306
f 1292 1293 1297
f 1373 1370 1371
f 1373 1371 1372
f 1373 1322 1365
f 1373 1365 1370
f 1288 1289 1290
f 1288 1290 1291
f 1376 1373 1374
f 1376 1374 1375
f 1286 1287 1288
f 1378 1373 1376
f 1378 1376 1377
f 1285 1286 1288
f 1285 1291 1292
f 1285 1288 1291
f 1254 1373 1378
f 1254 1378 1253
f 1283 1284 1285
f 1256 1254 1255
f 1256 1313 1322
f 1256 1373 1254
f 1256 1322 1373
f 1281 1282 1283
f 1279 1283 1285
f 1279 1285 1292
f 1279 1280 1281
f 1279 1281 1283
f 1279 1292 1313
f 1259 1256 1257
f 1259 1257 1258
f 1276 1277 1278
f 1276 1278 1279
f 1262 1260 1261
f 1263 1259 1260
f 1263 1260 1262
f 1274 1275 1276
f 1264 1256 1259
f 1264 1259 1263
f 1273 1276 1279
f 1273 1274 1276
f 1266 1264 1265
f 1266 1256 1264
f 1267 1256 1266
f 1270 1271 1272
f 1269 1267 1268
f 1269 1272 1273
f 1269 1313 1256
f 1269 1279 1313
f 1269 1273 1279
f 1269 1256 1267
f 1269 1270 1272
