# Cadless export: model
v 140 -3.42901e-14 32
v 139.826 6.97842 32
v 139.304 13.9395 32
v 138.436 20.8659 32
v 137.224 27.7405 32
v 135.671 34.546 32
v 133.78 41.2657 32
v 131.557 47.8828 32
v 129.007 54.3809 32
v 126.136 60.7437 32
v 122.951 66.9556 32
v 119.461 73.0009 32
v 115.673 78.8648 32
v 111.599 84.5326 32
v 107.246 89.9903 32
v 102.627 95.2242 32
v 97.7532 100.221 32
v 92.636 104.969 32
v 87.2886 109.456 32
v 81.7241 113.671 32
v 75.9565 117.604 32
v 70 121.244 32
v 63.8695 124.582 32
v 57.5802 127.611 32
v 51.1477 130.322 32
v 44.5881 132.71 32
v 37.9177 134.767 32
v 31.1529 136.49 32
v 24.3107 137.873 32
v 17.4081 138.913 32
v 10.4622 139.609 32
v 3.4903 139.956 32
v -3.4903 139.956 32
v -10.4622 139.609 32
v -17.4081 138.913 32
v -24.3107 137.873 32
v -31.1529 136.49 32
v -37.9177 134.767 32
v -44.5881 132.71 32
v -51.1477 130.322 32
v -57.5802 127.611 32
v -63.8695 124.582 32
v -70 121.244 32
v -75.9565 117.604 32
v -81.7241 113.671 32
v -87.2886 109.456 32
v -92.636 104.969 32
v -97.7532 100.221 32
v -102.627 95.2242 32
v -107.246 89.9903 32
v -111.599 84.5326 32
v -115.673 78.8648 32
v -119.461 73.0009 32
v -122.951 66.9556 32
v -126.136 60.7437 32
v -129.007 54.3809 32
v -131.557 47.8828 32
v -133.78 41.2657 32
v -135.671 34.546 32
v -137.224 27.7405 32
v -138.436 20.8659 32
v -139.304 13.9395 32
v -139.826 6.97842 32
v -140 -4.80235e-13 32
v -139.826 -6.97842 32
v -139.304 -13.9395 32
v -138.436 -20.8659 32
v -137.224 -27.7405 32
v -135.671 -34.546 32
v -133.78 -41.2657 32
v -131.557 -47.8828 32
v -129.007 -54.3809 32
v -126.136 -60.7437 32
v -122.951 -66.9556 32
v -119.461 -73.0009 32
v -115.673 -78.8648 32
v -111.599 -84.5326 32
v -107.246 -89.9903 32
v -102.627 -95.2242 32
v -97.7532 -100.221 32
v -92.636 -104.969 32
v -87.2886 -109.456 32
v -81.7241 -113.671 32
v -75.9565 -117.604 32
v -70 -121.244 32
v -63.8695 -124.582 32
v -57.5802 -127.611 32
v -51.1477 -130.322 32
v -44.5881 -132.71 32
v -37.9177 -134.767 32
v -31.1529 -136.49 32
v -24.3107 -137.873 32
v -17.4081 -138.913 32
v -10.4622 -139.609 32
v -3.4903 -139.956 32
v 3.4903 -139.956 32
v 10.4622 -139.609 32
v 17.4081 -138.913 32
v 24.3107 -137.873 32
v 31.1529 -136.49 32
v 37.9177 -134.767 32
v 44.5881 -132.71 32
v 51.1477 -130.322 32
v 57.5802 -127.611 32
v 63.8695 -124.582 32
v 70 -121.244 32
v 75.9565 -117.604 32
v 81.7241 -113.671 32
v 87.2886 -109.456 32
v 92.636 -104.969 32
v 97.7532 -100.221 32
v 102.627 -95.2242 32
v 107.246 -89.9903 32
v 111.599 -84.5326 32
v 115.673 -78.8648 32
v 119.461 -73.0009 32
v 122.951 -66.9556 32
v 126.136 -60.7437 32
v 129.007 -54.3809 32
v 131.557 -47.8828 32
v 133.78 -41.2657 32
v 135.671 -34.546 32
v 137.224 -27.7405 32
v 138.436 -20.8659 32
v 139.304 -13.9395 32
v 139.826 -6.97842 32
v 140 -3.42901e-14 32
v 140 -3.42901e-14 0
v 139.826 6.97842 0
v 139.304 13.9395 0
v 138.436 20.8659 0
v 137.224 27.7405 0
v 135.671 34.546 0
v 133.78 41.2657 0
v 131.557 47.8828 0
v 129.007 54.3809 0
v 126.136 60.7437 0
v 122.951 66.9556 0
v 119.461 73.0009 0
v 115.673 78.8648 0
v 111.599 84.5326 0
v 107.246 89.9903 0
v 102.627 95.2242 0
v 97.7532 100.221 0
v 92.636 104.969 0
v 87.2886 109.456 0
v 81.7241 113.671 0
v 75.9565 117.604 0
v 70 121.244 0
v 63.8695 124.582 0
v 57.5802 127.611 0
v 51.1477 130.322 0
v 44.5881 132.71 0
v 37.9177 134.767 0
v 31.1529 136.49 0
v 24.3107 137.873 0
v 17.4081 138.913 0
v 10.4622 139.609 0
v 3.4903 139.956 0
v -3.4903 139.956 0
v -10.4622 139.609 0
v -17.4081 138.913 0
v -24.3107 137.873 0
v -31.1529 136.49 0
v -37.9177 134.767 0
v -44.5881 132.71 0
v -51.1477 130.322 0
v -57.5802 127.611 0
v -63.8695 124.582 0
v -70 121.244 0
v -75.9565 117.604 0
v -81.7241 113.671 0
v -87.2886 109.456 0
v -92.636 104.969 0
v -97.7532 100.221 0
v -102.627 95.2242 0
v -107.246 89.9903 0
v -111.599 84.5326 0
v -115.673 78.8648 0
v -119.461 73.0009 0
v -122.951 66.9556 0
v -126.136 60.7437 0
v -129.007 54.3809 0
v -131.557 47.8828 0
v -133.78 41.2657 0
v -135.671 34.546 0
v -137.224 27.7405 0
v -138.436 20.8659 0
v -139.304 13.9395 0
v -139.826 6.97842 0
v -140 -4.80235e-13 0
v -139.826 -6.97842 0
v -139.304 -13.9395 0
v -138.436 -20.8659 0
v -137.224 -27.7405 0
v -135.671 -34.546 0
v -133.78 -41.2657 0
v -131.557 -47.8828 0
v -129.007 -54.3809 0
v -126.136 -60.7437 0
v -122.951 -66.9556 0
v -119.461 -73.0009 0
v -115.673 -78.8648 0
v -111.599 -84.5326 0
v -107.246 -89.9903 0
v -102.627 -95.2242 0
v -97.7532 -100.221 0
v -92.636 -104.969 0
v -87.2886 -109.456 0
v -81.7241 -113.671 0
v -75.9565 -117.604 0
v -70 -121.244 0
v -63.8695 -124.582 0
v -57.5802 -127.611 0
v -51.1477 -130.322 0
v -44.5881 -132.71 0
v -37.9177 -134.767 0
v -31.1529 -136.49 0
v -24.3107 -137.873 0
v -17.4081 -138.913 0
v -10.4622 -139.609 0
v -3.4903 -139.956 0
v 3.4903 -139.956 0
v 10.4622 -139.609 0
v 17.4081 -138.913 0
v 24.3107 -137.873 0
v 31.1529 -136.49 0
v 37.9177 -134.767 0
v 44.5881 -132.71 0
v 51.1477 -130.322 0
v 57.5802 -127.611 0
v 63.8695 -124.582 0
v 70 -121.244 0
v 75.9565 -117.604 0
v 81.7241 -113.671 0
v 87.2886 -109.456 0
v 92.636 -104.969 0
v 97.7532 -100.221 0
v 102.627 -95.2242 0
v 107.246 -89.9903 0
v 111.599 -84.5326 0
v 115.673 -78.8648 0
v 119.461 -73.0009 0
v 122.951 -66.9556 0
v 126.136 -60.7437 0
v 129.007 -54.3809 0
v 131.557 -47.8828 0
v 133.78 -41.2657 0
v 135.671 -34.546 0
v 137.224 -27.7405 0
v 138.436 -20.8659 0
v 139.304 -13.9395 0
v 139.826 -6.97842 0
v 140 -3.42901e-14 0
v 140 -3.42901e-14 32
v 139.826 6.97842 32
v 139.304 13.9395 32
v 138.436 20.8659 32
v 137.224 27.7405 32
v 135.671 34.546 32
v 133.78 41.2657 32
v 131.557 47.8828 32
v 129.007 54.3809 32
v 126.136 60.7437 32
v 122.951 66.9556 32
v 119.461 73.0009 32
v 115.673 78.8648 32
v 111.599 84.5326 32
v 107.246 89.9903 32
v 102.627 95.2242 32
v 97.7532 100.221 32
v 92.636 104.969 32
v 87.2886 109.456 32
v 81.7241 113.671 32
v 75.9565 117.604 32
v 70 121.244 32
v 63.8695 124.582 32
v 57.5802 127.611 32
v 51.1477 130.322 32
v 44.5881 132.71 32
v 37.9177 134.767 32
v 31.1529 136.49 32
v 24.3107 137.873 32
v 17.4081 138.913 32
v 10.4622 139.609 32
v 3.4903 139.956 32
v -3.4903 139.956 32
v -10.4622 139.609 32
v -17.4081 138.913 32
v -24.3107 137.873 32
v -31.1529 136.49 32
v -37.9177 134.767 32
v -44.5881 132.71 32
v -51.1477 130.322 32
v -57.5802 127.611 32
v -63.8695 124.582 32
v -70 121.244 32
v -75.9565 117.604 32
v -81.7241 113.671 32
v -87.2886 109.456 32
v -92.636 104.969 32
v -97.7532 100.221 32
v -102.627 95.2242 32
v -107.246 89.9903 32
v -111.599 84.5326 32
v -115.673 78.8648 32
v -119.461 73.0009 32
v -122.951 66.9556 32
v -126.136 60.7437 32
v -129.007 54.3809 32
v -131.557 47.8828 32
v -133.78 41.2657 32
v -135.671 34.546 32
v -137.224 27.7405 32
v -138.436 20.8659 32
v -139.304 13.9395 32
v -139.826 6.97842 32
v -140 -4.80235e-13 32
v -139.826 -6.97842 32
v -139.304 -13.9395 32
v -138.436 -20.8659 32
v -137.224 -27.7405 32
v -135.671 -34.546 32
v -133.78 -41.2657 32
v -131.557 -47.8828 32
v -129.007 -54.3809 32
v -126.136 -60.7437 32
v -122.951 -66.9556 32
v -119.461 -73.0009 32
v -115.673 -78.8648 32
v -111.599 -84.5326 32
v -107.246 -89.9903 32
v -102.627 -95.2242 32
v -97.7532 -100.221 32
v -92.636 -104.969 32
v -87.2886 -109.456 32
v -81.7241 -113.671 32
v -75.9565 -117.604 32
v -70 -121.244 32
v -63.8695 -124.582 32
v -57.5802 -127.611 32
v -51.1477 -130.322 32
v -44.5881 -132.71 32
v -37.9177 -134.767 32
v -31.1529 -136.49 32
v -24.3107 -137.873 32
v -17.4081 -138.913 32
v -10.4622 -139.609 32
v -3.4903 -139.956 32
v 3.4903 -139.956 32
v 10.4622 -139.609 32
v 17.4081 -138.913 32
v 24.3107 -137.873 32
v 31.1529 -136.49 32
v 37.9177 -134.767 32
v 44.5881 -132.71 32
v 51.1477 -130.322 32
v 57.5802 -127.611 32
v 63.8695 -124.582 32
v 70 -121.244 32
v 75.9565 -117.604 32
v 81.7241 -113.671 32
v 87.2886 -109.456 32
v 92.636 -104.969 32
v 97.7532 -100.221 32
v 102.627 -95.2242 32
v 107.246 -89.9903 32
v 111.599 -84.5326 32
v 115.673 -78.8648 32
v 119.461 -73.0009 32
v 122.951 -66.9556 32
v 126.136 -60.7437 32
v 129.007 -54.3809 32
v 131.557 -47.8828 32
v 133.78 -41.2657 32
v 135.671 -34.546 32
v 137.224 -27.7405 32
v 138.436 -20.8659 32
v 139.304 -13.9395 32
v 139.826 -6.97842 32
v 115 -2.81669e-14 32
v 114.857 5.73228 32
v 114.429 11.4503 32
v 113.716 17.1399 32
v 112.72 22.7868 32
v 111.444 28.3771 32
v 109.891 33.8968 32
v 108.065 39.3323 32
v 105.97 44.67 32
v 103.611 49.8966 32
v 100.995 54.9992 32
v 98.1285 59.965 32
v 95.0175 64.7818 32
v 91.6702 69.4375 32
v 88.0951 73.9206 32
v 84.301 78.2199 32
v 80.2972 82.3247 32
v 76.0939 86.2248 32
v 71.7013 89.9106 32
v 67.1305 93.3729 32
v 62.3928 96.603 32
v 57.5 99.5929 32
v 52.4642 102.335 32
v 47.298 104.823 32
v 42.0142 107.05 32
v 36.626 109.012 32
v 31.1467 110.702 32
v 25.5899 112.117 32
v 19.9695 113.253 32
v 14.2995 114.108 32
v 8.59396 114.678 32
v 2.86703 114.964 32
v -2.86703 114.964 32
v -8.59396 114.678 32
v -14.2995 114.108 32
v -19.9695 113.253 32
v -25.5899 112.117 32
v -31.1467 110.702 32
v -36.626 109.012 32
v -42.0142 107.05 32
v -47.298 104.823 32
v -52.4642 102.335 32
v -57.5 99.5929 32
v -62.3928 96.603 32
v -67.1305 93.3729 32
v -71.7013 89.9106 32
v -76.0939 86.2248 32
v -80.2972 82.3247 32
v -84.301 78.2199 32
v -88.0951 73.9206 32
v -91.6702 69.4375 32
v -95.0175 64.7818 32
v -98.1285 59.965 32
v -100.995 54.9992 32
v -103.611 49.8966 32
v -105.97 44.67 32
v -108.065 39.3323 32
v -109.891 33.8968 32
v -111.444 28.3771 32
v -112.72 22.7868 32
v -113.716 17.1399 32
v -114.429 11.4503 32
v -114.857 5.73228 32
v -115 -3.94479e-13 32
v -114.857 -5.73228 32
v -114.429 -11.4503 32
v -113.716 -17.1399 32
v -112.72 -22.7868 32
v -111.444 -28.3771 32
v -109.891 -33.8968 32
v -108.065 -39.3323 32
v -105.97 -44.67 32
v -103.611 -49.8966 32
v -100.995 -54.9992 32
v -98.1285 -59.965 32
v -95.0175 -64.7818 32
v -91.6702 -69.4375 32
v -88.0951 -73.9206 32
v -84.301 -78.2199 32
v -80.2972 -82.3247 32
v -76.0939 -86.2248 32
v -71.7013 -89.9106 32
v -67.1305 -93.3729 32
v -62.3928 -96.603 32
v -57.5 -99.5929 32
v -52.4642 -102.335 32
v -47.298 -104.823 32
v -42.0142 -107.05 32
v -36.626 -109.012 32
v -31.1467 -110.702 32
v -25.5899 -112.117 32
v -19.9695 -113.253 32
v -14.2995 -114.108 32
v -8.59396 -114.678 32
v -2.86703 -114.964 32
v 2.86703 -114.964 32
v 8.59396 -114.678 32
v 14.2995 -114.108 32
v 19.9695 -113.253 32
v 25.5899 -112.117 32
v 31.1467 -110.702 32
v 36.626 -109.012 32
v 42.0142 -107.05 32
v 47.298 -104.823 32
v 52.4642 -102.335 32
v 57.5 -99.5929 32
v 62.3928 -96.603 32
v 67.1305 -93.3729 32
v 71.7013 -89.9106 32
v 76.0939 -86.2248 32
v 80.2972 -82.3247 32
v 84.301 -78.2199 32
v 88.0951 -73.9206 32
v 91.6702 -69.4375 32
v 95.0175 -64.7818 32
v 98.1285 -59.965 32
v 100.995 -54.9992 32
v 103.611 -49.8966 32
v 105.97 -44.67 32
v 108.065 -39.3323 32
v 109.891 -33.8968 32
v 111.444 -28.3771 32
v 112.72 -22.7868 32
v 113.716 -17.1399 32
v 114.429 -11.4503 32
v 114.857 -5.73228 32
v 140 -3.42901e-14 0
v 139.826 6.97842 0
v 139.304 13.9395 0
v 138.436 20.8659 0
v 137.224 27.7405 0
v 135.671 34.546 0
v 133.78 41.2657 0
v 131.557 47.8828 0
v 129.007 54.3809 0
v 126.136 60.7437 0
v 122.951 66.9556 0
v 119.461 73.0009 0
v 115.673 78.8648 0
v 111.599 84.5326 0
v 107.246 89.9903 0
v 102.627 95.2242 0
v 97.7532 100.221 0
v 92.636 104.969 0
v 87.2886 109.456 0
v 81.7241 113.671 0
v 75.9565 117.604 0
v 70 121.244 0
v 63.8695 124.582 0
v 57.5802 127.611 0
v 51.1477 130.322 0
v 44.5881 132.71 0
v 37.9177 134.767 0
v 31.1529 136.49 0
v 24.3107 137.873 0
v 17.4081 138.913 0
v 10.4622 139.609 0
v 3.4903 139.956 0
v -3.4903 139.956 0
v -10.4622 139.609 0
v -17.4081 138.913 0
v -24.3107 137.873 0
v -31.1529 136.49 0
v -37.9177 134.767 0
v -44.5881 132.71 0
v -51.1477 130.322 0
v -57.5802 127.611 0
v -63.8695 124.582 0
v -70 121.244 0
v -75.9565 117.604 0
v -81.7241 113.671 0
v -87.2886 109.456 0
v -92.636 104.969 0
v -97.7532 100.221 0
v -102.627 95.2242 0
v -107.246 89.9903 0
v -111.599 84.5326 0
v -115.673 78.8648 0
v -119.461 73.0009 0
v -122.951 66.9556 0
v -126.136 60.7437 0
v -129.007 54.3809 0
v -131.557 47.8828 0
v -133.78 41.2657 0
v -135.671 34.546 0
v -137.224 27.7405 0
v -138.436 20.8659 0
v -139.304 13.9395 0
v -139.826 6.97842 0
v -140 -4.80235e-13 0
v -139.826 -6.97842 0
v -139.304 -13.9395 0
v -138.436 -20.8659 0
v -137.224 -27.7405 0
v -135.671 -34.546 0
v -133.78 -41.2657 0
v -131.557 -47.8828 0
v -129.007 -54.3809 0
v -126.136 -60.7437 0
v -122.951 -66.9556 0
v -119.461 -73.0009 0
v -115.673 -78.8648 0
v -111.599 -84.5326 0
v -107.246 -89.9903 0
v -102.627 -95.2242 0
v -97.7532 -100.221 0
v -92.636 -104.969 0
v -87.2886 -109.456 0
v -81.7241 -113.671 0
v -75.9565 -117.604 0
v -70 -121.244 0
v -63.8695 -124.582 0
v -57.5802 -127.611 0
v -51.1477 -130.322 0
v -44.5881 -132.71 0
v -37.9177 -134.767 0
v -31.1529 -136.49 0
v -24.3107 -137.873 0
v -17.4081 -138.913 0
v -10.4622 -139.609 0
v -3.4903 -139.956 0
v 3.4903 -139.956 0
v 10.4622 -139.609 0
v 17.4081 -138.913 0
v 24.3107 -137.873 0
v 31.1529 -136.49 0
v 37.9177 -134.767 0
v 44.5881 -132.71 0
v 51.1477 -130.322 0
v 57.5802 -127.611 0
v 63.8695 -124.582 0
v 70 -121.244 0
v 75.9565 -117.604 0
v 81.7241 -113.671 0
v 87.2886 -109.456 0
v 92.636 -104.969 0
v 97.7532 -100.221 0
v 102.627 -95.2242 0
v 107.246 -89.9903 0
v 111.599 -84.5326 0
v 115.673 -78.8648 0
v 119.461 -73.0009 0
v 122.951 -66.9556 0
v 126.136 -60.7437 0
v 129.007 -54.3809 0
v 131.557 -47.8828 0
v 133.78 -41.2657 0
v 135.671 -34.546 0
v 137.224 -27.7405 0
v 138.436 -20.8659 0
v 139.304 -13.9395 0
v 139.826 -6.97842 0
v 115 -2.81669e-14 32
v 114.857 5.73228 32
v 114.429 11.4503 32
v 113.716 17.1399 32
v 112.72 22.7868 32
v 111.444 28.3771 32
v 109.891 33.8968 32
v 108.065 39.3323 32
v 105.97 44.67 32
v 103.611 49.8966 32
v 100.995 54.9992 32
v 98.1285 59.965 32
v 95.0175 64.7818 32
v 91.6702 69.4375 32
v 88.0951 73.9206 32
v 84.301 78.2199 32
v 80.2972 82.3247 32
v 76.0939 86.2248 32
v 71.7013 89.9106 32
v 67.1305 93.3729 32
v 62.3928 96.603 32
v 57.5 99.5929 32
v 52.4642 102.335 32
v 47.298 104.823 32
v 42.0142 107.05 32
v 36.626 109.012 32
v 31.1467 110.702 32
v 25.5899 112.117 32
v 19.9695 113.253 32
v 14.2995 114.108 32
v 8.59396 114.678 32
v 2.86703 114.964 32
v -2.86703 114.964 32
v -8.59396 114.678 32
v -14.2995 114.108 32
v -19.9695 113.253 32
v -25.5899 112.117 32
v -31.1467 110.702 32
v -36.626 109.012 32
v -42.0142 107.05 32
v -47.298 104.823 32
v -52.4642 102.335 32
v -57.5 99.5929 32
v -62.3928 96.603 32
v -67.1305 93.3729 32
v -71.7013 89.9106 32
v -76.0939 86.2248 32
v -80.2972 82.3247 32
v -84.301 78.2199 32
v -88.0951 73.9206 32
v -91.6702 69.4375 32
v -95.0175 64.7818 32
v -98.1285 59.965 32
v -100.995 54.9992 32
v -103.611 49.8966 32
v -105.97 44.67 32
v -108.065 39.3323 32
v -109.891 33.8968 32
v -111.444 28.3771 32
v -112.72 22.7868 32
v -113.716 17.1399 32
v -114.429 11.4503 32
v -114.857 5.73228 32
v -115 -3.94479e-13 32
v -114.857 -5.73228 32
v -114.429 -11.4503 32
v -113.716 -17.1399 32
v -112.72 -22.7868 32
v -111.444 -28.3771 32
v -109.891 -33.8968 32
v -108.065 -39.3323 32
v -105.97 -44.67 32
v -103.611 -49.8966 32
v -100.995 -54.9992 32
v -98.1285 -59.965 32
v -95.0175 -64.7818 32
v -91.6702 -69.4375 32
v -88.0951 -73.9206 32
v -84.301 -78.2199 32
v -80.2972 -82.3247 32
v -76.0939 -86.2248 32
v -71.7013 -89.9106 32
v -67.1305 -93.3729 32
v -62.3928 -96.603 32
v -57.5 -99.5929 32
v -52.4642 -102.335 32
v -47.298 -104.823 32
v -42.0142 -107.05 32
v -36.626 -109.012 32
v -31.1467 -110.702 32
v -25.5899 -112.117 32
v -19.9695 -113.253 32
v -14.2995 -114.108 32
v -8.59396 -114.678 32
v -2.86703 -114.964 32
v 2.86703 -114.964 32
v 8.59396 -114.678 32
v 14.2995 -114.108 32
v 19.9695 -113.253 32
v 25.5899 -112.117 32
v 31.1467 -110.702 32
v 36.626 -109.012 32
v 42.0142 -107.05 32
v 47.298 -104.823 32
v 52.4642 -102.335 32
v 57.5 -99.5929 32
v 62.3928 -96.603 32
v 67.1305 -93.3729 32
v 71.7013 -89.9106 32
v 76.0939 -86.2248 32
v 80.2972 -82.3247 32
v 84.301 -78.2199 32
v 88.0951 -73.9206 32
v 91.6702 -69.4375 32
v 95.0175 -64.7818 32
v 98.1285 -59.965 32
v 100.995 -54.9992 32
v 103.611 -49.8966 32
v 105.97 -44.67 32
v 108.065 -39.3323 32
v 109.891 -33.8968 32
v 111.444 -28.3771 32
v 112.72 -22.7868 32
v 113.716 -17.1399 32
v 114.429 -11.4503 32
v 114.857 -5.73228 32
v 115 -2.81669e-14 32
v 115 -2.81669e-14 20
v 114.857 5.73228 20
v 114.429 11.4503 20
v 113.716 17.1399 20
v 112.72 22.7868 20
v 111.444 28.3771 20
v 109.891 33.8968 20
v 108.065 39.3323 20
v 105.97 44.67 20
v 103.611 49.8966 20
v 100.995 54.9992 20
v 98.1285 59.965 20
v 95.0175 64.7818 20
v 91.6702 69.4375 20
v 88.0951 73.9206 20
v 84.301 78.2199 20
v 80.2972 82.3247 20
v 76.0939 86.2248 20
v 71.7013 89.9106 20
v 67.1305 93.3729 20
v 62.3928 96.603 20
v 57.5 99.5929 20
v 52.4642 102.335 20
v 47.298 104.823 20
v 42.0142 107.05 20
v 36.626 109.012 20
v 31.1467 110.702 20
v 25.5899 112.117 20
v 19.9695 113.253 20
v 14.2995 114.108 20
v 8.59396 114.678 20
v 2.86703 114.964 20
v -2.86703 114.964 20
v -8.59396 114.678 20
v -14.2995 114.108 20
v -19.9695 113.253 20
v -25.5899 112.117 20
v -31.1467 110.702 20
v -36.626 109.012 20
v -42.0142 107.05 20
v -47.298 104.823 20
v -52.4642 102.335 20
v -57.5 99.5929 20
v -62.3928 96.603 20
v -67.1305 93.3729 20
v -71.7013 89.9106 20
v -76.0939 86.2248 20
v -80.2972 82.3247 20
v -84.301 78.2199 20
v -88.0951 73.9206 20
v -91.6702 69.4375 20
v -95.0175 64.7818 20
v -98.1285 59.965 20
v -100.995 54.9992 20
v -103.611 49.8966 20
v -105.97 44.67 20
v -108.065 39.3323 20
v -109.891 33.8968 20
v -111.444 28.3771 20
v -112.72 22.7868 20
v -113.716 17.1399 20
v -114.429 11.4503 20
v -114.857 5.73228 20
v -115 -3.94479e-13 20
v -114.857 -5.73228 20
v -114.429 -11.4503 20
v -113.716 -17.1399 20
v -112.72 -22.7868 20
v -111.444 -28.3771 20
v -109.891 -33.8968 20
v -108.065 -39.3323 20
v -105.97 -44.67 20
v -103.611 -49.8966 20
v -100.995 -54.9992 20
v -98.1285 -59.965 20
v -95.0175 -64.7818 20
v -91.6702 -69.4375 20
v -88.0951 -73.9206 20
v -84.301 -78.2199 20
v -80.2972 -82.3247 20
v -76.0939 -86.2248 20
v -71.7013 -89.9106 20
v -67.1305 -93.3729 20
v -62.3928 -96.603 20
v -57.5 -99.5929 20
v -52.4642 -102.335 20
v -47.298 -104.823 20
v -42.0142 -107.05 20
v -36.626 -109.012 20
v -31.1467 -110.702 20
v -25.5899 -112.117 20
v -19.9695 -113.253 20
v -14.2995 -114.108 20
v -8.59396 -114.678 20
v -2.86703 -114.964 20
v 2.86703 -114.964 20
v 8.59396 -114.678 20
v 14.2995 -114.108 20
v 19.9695 -113.253 20
v 25.5899 -112.117 20
v 31.1467 -110.702 20
v 36.626 -109.012 20
v 42.0142 -107.05 20
v 47.298 -104.823 20
v 52.4642 -102.335 20
v 57.5 -99.5929 20
v 62.3928 -96.603 20
v 67.1305 -93.3729 20
v 71.7013 -89.9106 20
v 76.0939 -86.2248 20
v 80.2972 -82.3247 20
v 84.301 -78.2199 20
v 88.0951 -73.9206 20
v 91.6702 -69.4375 20
v 95.0175 -64.7818 20
v 98.1285 -59.965 20
v 100.995 -54.9992 20
v 103.611 -49.8966 20
v 105.97 -44.67 20
v 108.065 -39.3323 20
v 109.891 -33.8968 20
v 111.444 -28.3771 20
v 112.72 -22.7868 20
v 113.716 -17.1399 20
v 114.429 -11.4503 20
v 114.857 -5.73228 20
v 115 -2.81669e-14 20
v 115 -2.81669e-14 20
v 114.857 5.73228 20
v 114.429 11.4503 20
v 113.716 17.1399 20
v 112.72 22.7868 20
v 111.444 28.3771 20
v 109.891 33.8968 20
v 108.065 39.3323 20
v 105.97 44.67 20
v 103.611 49.8966 20
v 100.995 54.9992 20
v 98.1285 59.965 20
v 95.0175 64.7818 20
v 91.6702 69.4375 20
v 88.0951 73.9206 20
v 84.301 78.2199 20
v 80.2972 82.3247 20
v 76.0939 86.2248 20
v 71.7013 89.9106 20
v 67.1305 93.3729 20
v 62.3928 96.603 20
v 57.5 99.5929 20
v 52.4642 102.335 20
v 47.298 104.823 20
v 42.0142 107.05 20
v 36.626 109.012 20
v 31.1467 110.702 20
v 25.5899 112.117 20
v 19.9695 113.253 20
v 14.2995 114.108 20
v 8.59396 114.678 20
v 2.86703 114.964 20
v -2.86703 114.964 20
v -8.59396 114.678 20
v -14.2995 114.108 20
v -19.9695 113.253 20
v -25.5899 112.117 20
v -31.1467 110.702 20
v -36.626 109.012 20
v -42.0142 107.05 20
v -47.298 104.823 20
v -52.4642 102.335 20
v -57.5 99.5929 20
v -62.3928 96.603 20
v -67.1305 93.3729 20
v -71.7013 89.9106 20
v -76.0939 86.2248 20
v -80.2972 82.3247 20
v -84.301 78.2199 20
v -88.0951 73.9206 20
v -91.6702 69.4375 20
v -95.0175 64.7818 20
v -98.1285 59.965 20
v -100.995 54.9992 20
v -103.611 49.8966 20
v -105.97 44.67 20
v -108.065 39.3323 20
v -109.891 33.8968 20
v -111.444 28.3771 20
v -112.72 22.7868 20
v -113.716 17.1399 20
v -114.429 11.4503 20
v -114.857 5.73228 20
v -115 -3.94479e-13 20
v -114.857 -5.73228 20
v -114.429 -11.4503 20
v -113.716 -17.1399 20
v -112.72 -22.7868 20
v -111.444 -28.3771 20
v -109.891 -33.8968 20
v -108.065 -39.3323 20
v -105.97 -44.67 20
v -103.611 -49.8966 20
v -100.995 -54.9992 20
v -98.1285 -59.965 20
v -95.0175 -64.7818 20
v -91.6702 -69.4375 20
v -88.0951 -73.9206 20
v -84.301 -78.2199 20
v -80.2972 -82.3247 20
v -76.0939 -86.2248 20
v -71.7013 -89.9106 20
v -67.1305 -93.3729 20
v -62.3928 -96.603 20
v -57.5 -99.5929 20
v -52.4642 -102.335 20
v -47.298 -104.823 20
v -42.0142 -107.05 20
v -36.626 -109.012 20
v -31.1467 -110.702 20
v -25.5899 -112.117 20
v -19.9695 -113.253 20
v -14.2995 -114.108 20
v -8.59396 -114.678 20
v -2.86703 -114.964 20
v 2.86703 -114.964 20
v 8.59396 -114.678 20
v 14.2995 -114.108 20
v 19.9695 -113.253 20
v 25.5899 -112.117 20
v 31.1467 -110.702 20
v 36.626 -109.012 20
v 42.0142 -107.05 20
v 47.298 -104.823 20
v 52.4642 -102.335 20
v 57.5 -99.5929 20
v 62.3928 -96.603 20
v 67.1305 -93.3729 20
v 71.7013 -89.9106 20
v 76.0939 -86.2248 20
v 80.2972 -82.3247 20
v 84.301 -78.2199 20
v 88.0951 -73.9206 20
v 91.6702 -69.4375 20
v 95.0175 -64.7818 20
v 98.1285 -59.965 20
v 100.995 -54.9992 20
v 103.611 -49.8966 20
v 105.97 -44.67 20
v 108.065 -39.3323 20
v 109.891 -33.8968 20
v 111.444 -28.3771 20
v 112.72 -22.7868 20
v 113.716 -17.1399 20
v 114.429 -11.4503 20
v 114.857 -5.73228 20
v 50 -1.22465e-14 20
v 49.9378 2.49229 20
v 49.7515 4.97839 20
v 49.4415 7.45211 20
v 49.0086 9.90731 20
v 48.4539 12.3379 20
v 47.7786 14.7378 20
v 46.9846 17.101 20
v 46.0738 19.4217 20
v 45.0484 21.6942 20
v 43.9111 23.9127 20
v 42.6645 26.0718 20
v 41.3119 28.166 20
v 39.8566 30.1902 20
v 38.3022 32.1394 20
v 36.6526 34.0086 20
v 34.9118 35.7933 20
v 33.0843 37.4891 20
v 31.1745 39.0916 20
v 29.1872 40.5969 20
v 27.1273 42.0013 20
v 25 43.3013 20
v 22.8105 44.4936 20
v 20.5644 45.5753 20
v 18.2671 46.5437 20
v 15.9243 47.3964 20
v 13.542 48.1312 20
v 11.126 48.7464 20
v 8.68241 49.2404 20
v 6.21719 49.612 20
v 3.7365 49.8602 20
v 1.24653 49.9845 20
v -1.24653 49.9845 20
v -3.7365 49.8602 20
v -6.21719 49.612 20
v -8.68241 49.2404 20
v -11.126 48.7464 20
v -13.542 48.1312 20
v -15.9243 47.3964 20
v -18.2671 46.5437 20
v -20.5644 45.5753 20
v -22.8105 44.4936 20
v -25 43.3013 20
v -27.1273 42.0013 20
v -29.1872 40.5969 20
v -31.1745 39.0916 20
v -33.0843 37.4891 20
v -34.9118 35.7933 20
v -36.6526 34.0086 20
v -38.3022 32.1394 20
v -39.8566 30.1902 20
v -41.3119 28.166 20
v -42.6645 26.0718 20
v -43.9111 23.9127 20
v -45.0484 21.6942 20
v -46.0738 19.4217 20
v -46.9846 17.101 20
v -47.7786 14.7378 20
v -48.4539 12.3379 20
v -49.0086 9.90731 20
v -49.4415 7.45211 20
v -49.7515 4.97839 20
v -49.9378 2.49229 20
v -50 -1.71512e-13 20
v -49.9378 -2.49229 20
v -49.7515 -4.97839 20
v -49.4415 -7.45211 20
v -49.0086 -9.90731 20
v -48.4539 -12.3379 20
v -47.7786 -14.7378 20
v -46.9846 -17.101 20
v -46.0738 -19.4217 20
v -45.0484 -21.6942 20
v -43.9111 -23.9127 20
v -42.6645 -26.0718 20
v -41.3119 -28.166 20
v -39.8566 -30.1902 20
v -38.3022 -32.1394 20
v -36.6526 -34.0086 20
v -34.9118 -35.7933 20
v -33.0843 -37.4891 20
v -31.1745 -39.0916 20
v -29.1872 -40.5969 20
v -27.1273 -42.0013 20
v -25 -43.3013 20
v -22.8105 -44.4936 20
v -20.5644 -45.5753 20
v -18.2671 -46.5437 20
v -15.9243 -47.3964 20
v -13.542 -48.1312 20
v -11.126 -48.7464 20
v -8.68241 -49.2404 20
v -6.21719 -49.612 20
v -3.7365 -49.8602 20
v -1.24653 -49.9845 20
v 1.24653 -49.9845 20
v 3.7365 -49.8602 20
v 6.21719 -49.612 20
v 8.68241 -49.2404 20
v 11.126 -48.7464 20
v 13.542 -48.1312 20
v 15.9243 -47.3964 20
v 18.2671 -46.5437 20
v 20.5644 -45.5753 20
v 22.8105 -44.4936 20
v 25 -43.3013 20
v 27.1273 -42.0013 20
v 29.1872 -40.5969 20
v 31.1745 -39.0916 20
v 33.0843 -37.4891 20
v 34.9118 -35.7933 20
v 36.6526 -34.0086 20
v 38.3022 -32.1394 20
v 39.8566 -30.1902 20
v 41.3119 -28.166 20
v 42.6645 -26.0718 20
v 43.9111 -23.9127 20
v 45.0484 -21.6942 20
v 46.0738 -19.4217 20
v 46.9846 -17.101 20
v 47.7786 -14.7378 20
v 48.4539 -12.3379 20
v 49.0086 -9.90731 20
v 49.4415 -7.45211 20
v 49.7515 -4.97839 20
v 49.9378 -2.49229 20
v 50 -1.22465e-14 32
v 49.9378 2.49229 32
v 49.7515 4.97839 32
v 49.4415 7.45211 32
v 49.0086 9.90731 32
v 48.4539 12.3379 32
v 47.7786 14.7378 32
v 46.9846 17.101 32
v 46.0738 19.4217 32
v 45.0484 21.6942 32
v 43.9111 23.9127 32
v 42.6645 26.0718 32
v 41.3119 28.166 32
v 39.8566 30.1902 32
v 38.3022 32.1394 32
v 36.6526 34.0086 32
v 34.9118 35.7933 32
v 33.0843 37.4891 32
v 31.1745 39.0916 32
v 29.1872 40.5969 32
v 27.1273 42.0013 32
v 25 43.3013 32
v 22.8105 44.4936 32
v 20.5644 45.5753 32
v 18.2671 46.5437 32
v 15.9243 47.3964 32
v 13.542 48.1312 32
v 11.126 48.7464 32
v 8.68241 49.2404 32
v 6.21719 49.612 32
v 3.7365 49.8602 32
v 1.24653 49.9845 32
v -1.24653 49.9845 32
v -3.7365 49.8602 32
v -6.21719 49.612 32
v -8.68241 49.2404 32
v -11.126 48.7464 32
v -13.542 48.1312 32
v -15.9243 47.3964 32
v -18.2671 46.5437 32
v -20.5644 45.5753 32
v -22.8105 44.4936 32
v -25 43.3013 32
v -27.1273 42.0013 32
v -29.1872 40.5969 32
v -31.1745 39.0916 32
v -33.0843 37.4891 32
v -34.9118 35.7933 32
v -36.6526 34.0086 32
v -38.3022 32.1394 32
v -39.8566 30.1902 32
v -41.3119 28.166 32
v -42.6645 26.0718 32
v -43.9111 23.9127 32
v -45.0484 21.6942 32
v -46.0738 19.4217 32
v -46.9846 17.101 32
v -47.7786 14.7378 32
v -48.4539 12.3379 32
v -49.0086 9.90731 32
v -49.4415 7.45211 32
v -49.7515 4.97839 32
v -49.9378 2.49229 32
v -50 -1.71512e-13 32
v -49.9378 -2.49229 32
v -49.7515 -4.97839 32
v -49.4415 -7.45211 32
v -49.0086 -9.90731 32
v -48.4539 -12.3379 32
v -47.7786 -14.7378 32
v -46.9846 -17.101 32
v -46.0738 -19.4217 32
v -45.0484 -21.6942 32
v -43.9111 -23.9127 32
v -42.6645 -26.0718 32
v -41.3119 -28.166 32
v -39.8566 -30.1902 32
v -38.3022 -32.1394 32
v -36.6526 -34.0086 32
v -34.9118 -35.7933 32
v -33.0843 -37.4891 32
v -31.1745 -39.0916 32
v -29.1872 -40.5969 32
v -27.1273 -42.0013 32
v -25 -43.3013 32
v -22.8105 -44.4936 32
v -20.5644 -45.5753 32
v -18.2671 -46.5437 32
v -15.9243 -47.3964 32
v -13.542 -48.1312 32
v -11.126 -48.7464 32
v -8.68241 -49.2404 32
v -6.21719 -49.612 32
v -3.7365 -49.8602 32
v -1.24653 -49.9845 32
v 1.24653 -49.9845 32
v 3.7365 -49.8602 32
v 6.21719 -49.612 32
v 8.68241 -49.2404 32
v 11.126 -48.7464 32
v 13.542 -48.1312 32
v 15.9243 -47.3964 32
v 18.2671 -46.5437 32
v 20.5644 -45.5753 32
v 22.8105 -44.4936 32
v 25 -43.3013 32
v 27.1273 -42.0013 32
v 29.1872 -40.5969 32
v 31.1745 -39.0916 32
v 33.0843 -37.4891 32
v 34.9118 -35.7933 32
v 36.6526 -34.0086 32
v 38.3022 -32.1394 32
v 39.8566 -30.1902 32
v 41.3119 -28.166 32
v 42.6645 -26.0718 32
v 43.9111 -23.9127 32
v 45.0484 -21.6942 32
v 46.0738 -19.4217 32
v 46.9846 -17.101 32
v 47.7786 -14.7378 32
v 48.4539 -12.3379 32
v 49.0086 -9.90731 32
v 49.4415 -7.45211 32
v 49.7515 -4.97839 32
v 49.9378 -2.49229 32
v 50 -1.22465e-14 32
v 50 -1.22465e-14 20
v 49.9378 2.49229 20
v 49.7515 4.97839 20
v 49.4415 7.45211 20
v 49.0086 9.90731 20
v 48.4539 12.3379 20
v 47.7786 14.7378 20
v 46.9846 17.101 20
v 46.0738 19.4217 20
v 45.0484 21.6942 20
v 43.9111 23.9127 20
v 42.6645 26.0718 20
v 41.3119 28.166 20
v 39.8566 30.1902 20
v 38.3022 32.1394 20
v 36.6526 34.0086 20
v 34.9118 35.7933 20
v 33.0843 37.4891 20
v 31.1745 39.0916 20
v 29.1872 40.5969 20
v 27.1273 42.0013 20
v 25 43.3013 20
v 22.8105 44.4936 20
v 20.5644 45.5753 20
v 18.2671 46.5437 20
v 15.9243 47.3964 20
v 13.542 48.1312 20
v 11.126 48.7464 20
v 8.68241 49.2404 20
v 6.21719 49.612 20
v 3.7365 49.8602 20
v 1.24653 49.9845 20
v -1.24653 49.9845 20
v -3.7365 49.8602 20
v -6.21719 49.612 20
v -8.68241 49.2404 20
v -11.126 48.7464 20
v -13.542 48.1312 20
v -15.9243 47.3964 20
v -18.2671 46.5437 20
v -20.5644 45.5753 20
v -22.8105 44.4936 20
v -25 43.3013 20
v -27.1273 42.0013 20
v -29.1872 40.5969 20
v -31.1745 39.0916 20
v -33.0843 37.4891 20
v -34.9118 35.7933 20
v -36.6526 34.0086 20
v -38.3022 32.1394 20
v -39.8566 30.1902 20
v -41.3119 28.166 20
v -42.6645 26.0718 20
v -43.9111 23.9127 20
v -45.0484 21.6942 20
v -46.0738 19.4217 20
v -46.9846 17.101 20
v -47.7786 14.7378 20
v -48.4539 12.3379 20
v -49.0086 9.90731 20
v -49.4415 7.45211 20
v -49.7515 4.97839 20
v -49.9378 2.49229 20
v -50 -1.71512e-13 20
v -49.9378 -2.49229 20
v -49.7515 -4.97839 20
v -49.4415 -7.45211 20
v -49.0086 -9.90731 20
v -48.4539 -12.3379 20
v -47.7786 -14.7378 20
v -46.9846 -17.101 20
v -46.0738 -19.4217 20
v -45.0484 -21.6942 20
v -43.9111 -23.9127 20
v -42.6645 -26.0718 20
v -41.3119 -28.166 20
v -39.8566 -30.1902 20
v -38.3022 -32.1394 20
v -36.6526 -34.0086 20
v -34.9118 -35.7933 20
v -33.0843 -37.4891 20
v -31.1745 -39.0916 20
v -29.1872 -40.5969 20
v -27.1273 -42.0013 20
v -25 -43.3013 20
v -22.8105 -44.4936 20
v -20.5644 -45.5753 20
v -18.2671 -46.5437 20
v -15.9243 -47.3964 20
v -13.542 -48.1312 20
v -11.126 -48.7464 20
v -8.68241 -49.2404 20
v -6.21719 -49.612 20
v -3.7365 -49.8602 20
v -1.24653 -49.9845 20
v 1.24653 -49.9845 20
v 3.7365 -49.8602 20
v 6.21719 -49.612 20
v 8.68241 -49.2404 20
v 11.126 -48.7464 20
v 13.542 -48.1312 20
v 15.9243 -47.3964 20
v 18.2671 -46.5437 20
v 20.5644 -45.5753 20
v 22.8105 -44.4936 20
v 25 -43.3013 20
v 27.1273 -42.0013 20
v 29.1872 -40.5969 20
v 31.1745 -39.0916 20
v 33.0843 -37.4891 20
v 34.9118 -35.7933 20
v 36.6526 -34.0086 20
v 38.3022 -32.1394 20
v 39.8566 -30.1902 20
v 41.3119 -28.166 20
v 42.6645 -26.0718 20
v 43.9111 -23.9127 20
v 45.0484 -21.6942 20
v 46.0738 -19.4217 20
v 46.9846 -17.101 20
v 47.7786 -14.7378 20
v 48.4539 -12.3379 20
v 49.0086 -9.90731 20
v 49.4415 -7.45211 20
v 49.7515 -4.97839 20
v 49.9378 -2.49229 20
v 50 -1.22465e-14 20
v 50 -1.22465e-14 32
v 49.9378 2.49229 32
v 49.7515 4.97839 32
v 49.4415 7.45211 32
v 49.0086 9.90731 32
v 48.4539 12.3379 32
v 47.7786 14.7378 32
v 46.9846 17.101 32
v 46.0738 19.4217 32
v 45.0484 21.6942 32
v 43.9111 23.9127 32
v 42.6645 26.0718 32
v 41.3119 28.166 32
v 39.8566 30.1902 32
v 38.3022 32.1394 32
v 36.6526 34.0086 32
v 34.9118 35.7933 32
v 33.0843 37.4891 32
v 31.1745 39.0916 32
v 29.1872 40.5969 32
v 27.1273 42.0013 32
v 25 43.3013 32
v 22.8105 44.4936 32
v 20.5644 45.5753 32
v 18.2671 46.5437 32
v 15.9243 47.3964 32
v 13.542 48.1312 32
v 11.126 48.7464 32
v 8.68241 49.2404 32
v 6.21719 49.612 32
v 3.7365 49.8602 32
v 1.24653 49.9845 32
v -1.24653 49.9845 32
v -3.7365 49.8602 32
v -6.21719 49.612 32
v -8.68241 49.2404 32
v -11.126 48.7464 32
v -13.542 48.1312 32
v -15.9243 47.3964 32
v -18.2671 46.5437 32
v -20.5644 45.5753 32
v -22.8105 44.4936 32
v -25 43.3013 32
v -27.1273 42.0013 32
v -29.1872 40.5969 32
v -31.1745 39.0916 32
v -33.0843 37.4891 32
v -34.9118 35.7933 32
v -36.6526 34.0086 32
v -38.3022 32.1394 32
v -39.8566 30.1902 32
v -41.3119 28.166 32
v -42.6645 26.0718 32
v -43.9111 23.9127 32
v -45.0484 21.6942 32
v -46.0738 19.4217 32
v -46.9846 17.101 32
v -47.7786 14.7378 32
v -48.4539 12.3379 32
v -49.0086 9.90731 32
v -49.4415 7.45211 32
v -49.7515 4.97839 32
v -49.9378 2.49229 32
v -50 -1.71512e-13 32
v -49.9378 -2.49229 32
v -49.7515 -4.97839 32
v -49.4415 -7.45211 32
v -49.0086 -9.90731 32
v -48.4539 -12.3379 32
v -47.7786 -14.7378 32
v -46.9846 -17.101 32
v -46.0738 -19.4217 32
v -45.0484 -21.6942 32
v -43.9111 -23.9127 32
v -42.6645 -26.0718 32
v -41.3119 -28.166 32
v -39.8566 -30.1902 32
v -38.3022 -32.1394 32
v -36.6526 -34.0086 32
v -34.9118 -35.7933 32
v -33.0843 -37.4891 32
v -31.1745 -39.0916 32
v -29.1872 -40.5969 32
v -27.1273 -42.0013 32
v -25 -43.3013 32
v -22.8105 -44.4936 32
v -20.5644 -45.5753 32
v -18.2671 -46.5437 32
v -15.9243 -47.3964 32
v -13.542 -48.1312 32
v -11.126 -48.7464 32
v -8.68241 -49.2404 32
v -6.21719 -49.612 32
v -3.7365 -49.8602 32
v -1.24653 -49.9845 32
v 1.24653 -49.9845 32
v 3.7365 -49.8602 32
v 6.21719 -49.612 32
v 8.68241 -49.2404 32
v 11.126 -48.7464 32
v 13.542 -48.1312 32
v 15.9243 -47.3964 32
v 18.2671 -46.5437 32
v 20.5644 -45.5753 32
v 22.8105 -44.4936 32
v 25 -43.3013 32
v 27.1273 -42.0013 32
v 29.1872 -40.5969 32
v 31.1745 -39.0916 32
v 33.0843 -37.4891 32
v 34.9118 -35.7933 32
v 36.6526 -34.0086 32
v 38.3022 -32.1394 32
v 39.8566 -30.1902 32
v 41.3119 -28.166 32
v 42.6645 -26.0718 32
v 43.9111 -23.9127 32
v 45.0484 -21.6942 32
v 46.0738 -19.4217 32
v 46.9846 -17.101 32
v 47.7786 -14.7378 32
v 48.4539 -12.3379 32
v 49.0086 -9.90731 32
v 49.4415 -7.45211 32
v 49.7515 -4.97839 32
v 49.9378 -2.49229 32
v 45 -1.10218e-14 32
v 44.9441 2.24306 32
v 44.7764 4.48055 32
v 44.4974 6.7069 32
v 44.1078 8.91658 32
v 43.6085 11.1041 32
v 43.0008 13.264 32
v 42.2862 15.3909 32
v 41.4664 17.4796 32
v 40.5436 19.5248 32
v 39.52 21.5214 32
v 38.3981 23.4646 32
v 37.1807 25.3494 32
v 35.871 27.1712 32
v 34.472 28.9254 32
v 32.9873 30.6078 32
v 31.4207 32.214 32
v 29.7759 33.7402 32
v 28.057 35.1824 32
v 26.2685 36.5372 32
v 24.4146 37.8012 32
v 22.5 38.9711 32
v 20.5295 40.0442 32
v 18.5079 41.0178 32
v 16.4403 41.8893 32
v 14.3319 42.6567 32
v 12.1878 43.3181 32
v 10.0134 43.8718 32
v 7.81417 44.3163 32
v 5.59547 44.6508 32
v 3.36285 44.8742 32
v 1.12188 44.986 32
v -1.12188 44.986 32
v -3.36285 44.8742 32
v -5.59547 44.6508 32
v -7.81417 44.3163 32
v -10.0134 43.8718 32
v -12.1878 43.3181 32
v -14.3319 42.6567 32
v -16.4403 41.8893 32
v -18.5079 41.0178 32
v -20.5295 40.0442 32
v -22.5 38.9711 32
v -24.4146 37.8012 32
v -26.2685 36.5372 32
v -28.057 35.1824 32
v -29.7759 33.7402 32
v -31.4207 32.214 32
v -32.9873 30.6078 32
v -34.472 28.9254 32
v -35.871 27.1712 32
v -37.1807 25.3494 32
v -38.3981 23.4646 32
v -39.52 21.5214 32
v -40.5436 19.5248 32
v -41.4664 17.4796 32
v -42.2862 15.3909 32
v -43.0008 13.264 32
v -43.6085 11.1041 32
v -44.1078 8.91658 32
v -44.4974 6.7069 32
v -44.7764 4.48055 32
v -44.9441 2.24306 32
v -45 -1.54361e-13 32
v -44.9441 -2.24306 32
v -44.7764 -4.48055 32
v -44.4974 -6.7069 32
v -44.1078 -8.91658 32
v -43.6085 -11.1041 32
v -43.0008 -13.264 32
v -42.2862 -15.3909 32
v -41.4664 -17.4796 32
v -40.5436 -19.5248 32
v -39.52 -21.5214 32
v -38.3981 -23.4646 32
v -37.1807 -25.3494 32
v -35.871 -27.1712 32
v -34.472 -28.9254 32
v -32.9873 -30.6078 32
v -31.4207 -32.214 32
v -29.7759 -33.7402 32
v -28.057 -35.1824 32
v -26.2685 -36.5372 32
v -24.4146 -37.8012 32
v -22.5 -38.9711 32
v -20.5295 -40.0442 32
v -18.5079 -41.0178 32
v -16.4403 -41.8893 32
v -14.3319 -42.6567 32
v -12.1878 -43.3181 32
v -10.0134 -43.8718 32
v -7.81417 -44.3163 32
v -5.59547 -44.6508 32
v -3.36285 -44.8742 32
v -1.12188 -44.986 32
v 1.12188 -44.986 32
v 3.36285 -44.8742 32
v 5.59547 -44.6508 32
v 7.81417 -44.3163 32
v 10.0134 -43.8718 32
v 12.1878 -43.3181 32
v 14.3319 -42.6567 32
v 16.4403 -41.8893 32
v 18.5079 -41.0178 32
v 20.5295 -40.0442 32
v 22.5 -38.9711 32
v 24.4146 -37.8012 32
v 26.2685 -36.5372 32
v 28.057 -35.1824 32
v 29.7759 -33.7402 32
v 31.4207 -32.214 32
v 32.9873 -30.6078 32
v 34.472 -28.9254 32
v 35.871 -27.1712 32
v 37.1807 -25.3494 32
v 38.3981 -23.4646 32
v 39.52 -21.5214 32
v 40.5436 -19.5248 32
v 41.4664 -17.4796 32
v 42.2862 -15.3909 32
v 43.0008 -13.264 32
v 43.6085 -11.1041 32
v 44.1078 -8.91658 32
v 44.4974 -6.7069 32
v 44.7764 -4.48055 32
v 44.9441 -2.24306 32
v 45 -1.10218e-14 32
v 45 -1.10218e-14 48
v 45 -1.10218e-14 48
v 44.9441 2.24306 48
v 44.7764 4.48055 48
v 44.4974 6.7069 48
v 44.1078 8.91658 48
v 43.6085 11.1041 48
v 43.0008 13.264 48
v 42.2862 15.3909 48
v 41.4664 17.4796 48
v 40.5436 19.5248 48
v 39.52 21.5214 48
v 38.3981 23.4646 48
v 37.1807 25.3494 48
v 35.871 27.1712 48
v 34.472 28.9254 48
v 32.9873 30.6078 48
v 31.4207 32.214 48
v 29.7759 33.7402 48
v 28.057 35.1824 48
v 26.2685 36.5372 48
v 24.4146 37.8012 48
v 22.5 38.9711 48
v 20.5295 40.0442 48
v 18.5079 41.0178 48
v 16.4403 41.8893 48
v 14.3319 42.6567 48
v 12.1878 43.3181 48
v 10.0134 43.8718 48
v 7.81417 44.3163 48
v 5.59547 44.6508 48
v 3.36285 44.8742 48
v 1.12188 44.986 48
v -1.12188 44.986 48
v -3.36285 44.8742 48
v -5.59547 44.6508 48
v -7.81417 44.3163 48
v -10.0134 43.8718 48
v -12.1878 43.3181 48
v -14.3319 42.6567 48
v -16.4403 41.8893 48
v -18.5079 41.0178 48
v -20.5295 40.0442 48
v -22.5 38.9711 48
v -24.4146 37.8012 48
v -26.2685 36.5372 48
v -28.057 35.1824 48
v -29.7759 33.7402 48
v -31.4207 32.214 48
v -32.9873 30.6078 48
v -34.472 28.9254 48
v -35.871 27.1712 48
v -37.1807 25.3494 48
v -38.3981 23.4646 48
v -39.52 21.5214 48
v -40.5436 19.5248 48
v -41.4664 17.4796 48
v -42.2862 15.3909 48
v -43.0008 13.264 48
v -43.6085 11.1041 48
v -44.1078 8.91658 48
v -44.4974 6.7069 48
v -44.7764 4.48055 48
v -44.9441 2.24306 48
v -45 -1.54361e-13 48
v -44.9441 -2.24306 48
v -44.7764 -4.48055 48
v -44.4974 -6.7069 48
v -44.1078 -8.91658 48
v -43.6085 -11.1041 48
v -43.0008 -13.264 48
v -42.2862 -15.3909 48
v -41.4664 -17.4796 48
v -40.5436 -19.5248 48
v -39.52 -21.5214 48
v -38.3981 -23.4646 48
v -37.1807 -25.3494 48
v -35.871 -27.1712 48
v -34.472 -28.9254 48
v -32.9873 -30.6078 48
v -31.4207 -32.214 48
v -29.7759 -33.7402 48
v -28.057 -35.1824 48
v -26.2685 -36.5372 48
v -24.4146 -37.8012 48
v -22.5 -38.9711 48
v -20.5295 -40.0442 48
v -18.5079 -41.0178 48
v -16.4403 -41.8893 48
v -14.3319 -42.6567 48
v -12.1878 -43.3181 48
v -10.0134 -43.8718 48
v -7.81417 -44.3163 48
v -5.59547 -44.6508 48
v -3.36285 -44.8742 48
v -1.12188 -44.986 48
v 1.12188 -44.986 48
v 3.36285 -44.8742 48
v 5.59547 -44.6508 48
v 7.81417 -44.3163 48
v 10.0134 -43.8718 48
v 12.1878 -43.3181 48
v 14.3319 -42.6567 48
v 16.4403 -41.8893 48
v 18.5079 -41.0178 48
v 20.5295 -40.0442 48
v 22.5 -38.9711 48
v 24.4146 -37.8012 48
v 26.2685 -36.5372 48
v 28.057 -35.1824 48
v 29.7759 -33.7402 48
v 31.4207 -32.214 48
v 32.9873 -30.6078 48
v 34.472 -28.9254 48
v 35.871 -27.1712 48
v 37.1807 -25.3494 48
v 38.3981 -23.4646 48
v 39.52 -21.5214 48
v 40.5436 -19.5248 48
v 41.4664 -17.4796 48
v 42.2862 -15.3909 48
v 43.0008 -13.264 48
v 43.6085 -11.1041 48
v 44.1078 -8.91658 48
v 44.4974 -6.7069 48
v 44.7764 -4.48055 48
v 44.9441 -2.24306 48
v 45 -1.10218e-14 32
v 44.9441 2.24306 32
v 44.7764 4.48055 32
v 44.4974 6.7069 32
v 44.1078 8.91658 32
v 43.6085 11.1041 32
v 43.0008 13.264 32
v 42.2862 15.3909 32
v 41.4664 17.4796 32
v 40.5436 19.5248 32
v 39.52 21.5214 32
v 38.3981 23.4646 32
v 37.1807 25.3494 32
v 35.871 27.1712 32
v 34.472 28.9254 32
v 32.9873 30.6078 32
v 31.4207 32.214 32
v 29.7759 33.7402 32
v 28.057 35.1824 32
v 26.2685 36.5372 32
v 24.4146 37.8012 32
v 22.5 38.9711 32
v 20.5295 40.0442 32
v 18.5079 41.0178 32
v 16.4403 41.8893 32
v 14.3319 42.6567 32
v 12.1878 43.3181 32
v 10.0134 43.8718 32
v 7.81417 44.3163 32
v 5.59547 44.6508 32
v 3.36285 44.8742 32
v 1.12188 44.986 32
v -1.12188 44.986 32
v -3.36285 44.8742 32
v -5.59547 44.6508 32
v -7.81417 44.3163 32
v -10.0134 43.8718 32
v -12.1878 43.3181 32
v -14.3319 42.6567 32
v -16.4403 41.8893 32
v -18.5079 41.0178 32
v -20.5295 40.0442 32
v -22.5 38.9711 32
v -24.4146 37.8012 32
v -26.2685 36.5372 32
v -28.057 35.1824 32
v -29.7759 33.7402 32
v -31.4207 32.214 32
v -32.9873 30.6078 32
v -34.472 28.9254 32
v -35.871 27.1712 32
v -37.1807 25.3494 32
v -38.3981 23.4646 32
v -39.52 21.5214 32
v -40.5436 19.5248 32
v -41.4664 17.4796 32
v -42.2862 15.3909 32
v -43.0008 13.264 32
v -43.6085 11.1041 32
v -44.1078 8.91658 32
v -44.4974 6.7069 32
v -44.7764 4.48055 32
v -44.9441 2.24306 32
v -45 -1.54361e-13 32
v -44.9441 -2.24306 32
v -44.7764 -4.48055 32
v -44.4974 -6.7069 32
v -44.1078 -8.91658 32
v -43.6085 -11.1041 32
v -43.0008 -13.264 32
v -42.2862 -15.3909 32
v -41.4664 -17.4796 32
v -40.5436 -19.5248 32
v -39.52 -21.5214 32
v -38.3981 -23.4646 32
v -37.1807 -25.3494 32
v -35.871 -27.1712 32
v -34.472 -28.9254 32
v -32.9873 -30.6078 32
v -31.4207 -32.214 32
v -29.7759 -33.7402 32
v -28.057 -35.1824 32
v -26.2685 -36.5372 32
v -24.4146 -37.8012 32
v -22.5 -38.9711 32
v -20.5295 -40.0442 32
v -18.5079 -41.0178 32
v -16.4403 -41.8893 32
v -14.3319 -42.6567 32
v -12.1878 -43.3181 32
v -10.0134 -43.8718 32
v -7.81417 -44.3163 32
v -5.59547 -44.6508 32
v -3.36285 -44.8742 32
v -1.12188 -44.986 32
v 1.12188 -44.986 32
v 3.36285 -44.8742 32
v 5.59547 -44.6508 32
v 7.81417 -44.3163 32
v 10.0134 -43.8718 32
v 12.1878 -43.3181 32
v 14.3319 -42.6567 32
v 16.4403 -41.8893 32
v 18.5079 -41.0178 32
v 20.5295 -40.0442 32
v 22.5 -38.9711 32
v 24.4146 -37.8012 32
v 26.2685 -36.5372 32
v 28.057 -35.1824 32
v 29.7759 -33.7402 32
v 31.4207 -32.214 32
v 32.9873 -30.6078 32
v 34.472 -28.9254 32
v 35.871 -27.1712 32
v 37.1807 -25.3494 32
v 38.3981 -23.4646 32
v 39.52 -21.5214 32
v 40.5436 -19.5248 32
v 41.4664 -17.4796 32
v 42.2862 -15.3909 32
v 43.0008 -13.264 32
v 43.6085 -11.1041 32
v 44.1078 -8.91658 32
v 44.4974 -6.7069 32
v 44.7764 -4.48055 32
v 44.9441 -2.24306 32
v 45 -1.10218e-14 48
v 44.9441 2.24306 48
v 44.7764 4.48055 48
v 44.4974 6.7069 48
v 44.1078 8.91658 48
v 43.6085 11.1041 48
v 43.0008 13.264 48
v 42.2862 15.3909 48
v 41.4664 17.4796 48
v 40.5436 19.5248 48
v 39.52 21.5214 48
v 38.3981 23.4646 48
v 37.1807 25.3494 48
v 35.871 27.1712 48
v 34.472 28.9254 48
v 32.9873 30.6078 48
v 31.4207 32.214 48
v 29.7759 33.7402 48
v 28.057 35.1824 48
v 26.2685 36.5372 48
v 24.4146 37.8012 48
v 22.5 38.9711 48
v 20.5295 40.0442 48
v 18.5079 41.0178 48
v 16.4403 41.8893 48
v 14.3319 42.6567 48
v 12.1878 43.3181 48
v 10.0134 43.8718 48
v 7.81417 44.3163 48
v 5.59547 44.6508 48
v 3.36285 44.8742 48
v 1.12188 44.986 48
v -1.12188 44.986 48
v -3.36285 44.8742 48
v -5.59547 44.6508 48
v -7.81417 44.3163 48
v -10.0134 43.8718 48
v -12.1878 43.3181 48
v -14.3319 42.6567 48
v -16.4403 41.8893 48
v -18.5079 41.0178 48
v -20.5295 40.0442 48
v -22.5 38.9711 48
v -24.4146 37.8012 48
v -26.2685 36.5372 48
v -28.057 35.1824 48
v -29.7759 33.7402 48
v -31.4207 32.214 48
v -32.9873 30.6078 48
v -34.472 28.9254 48
v -35.871 27.1712 48
v -37.1807 25.3494 48
v -38.3981 23.4646 48
v -39.52 21.5214 48
v -40.5436 19.5248 48
v -41.4664 17.4796 48
v -42.2862 15.3909 48
v -43.0008 13.264 48
v -43.6085 11.1041 48
v -44.1078 8.91658 48
v -44.4974 6.7069 48
v -44.7764 4.48055 48
v -44.9441 2.24306 48
v -45 -1.54361e-13 48
v -44.9441 -2.24306 48
v -44.7764 -4.48055 48
v -44.4974 -6.7069 48
v -44.1078 -8.91658 48
v -43.6085 -11.1041 48
v -43.0008 -13.264 48
v -42.2862 -15.3909 48
v -41.4664 -17.4796 48
v -40.5436 -19.5248 48
v -39.52 -21.5214 48
v -38.3981 -23.4646 48
v -37.1807 -25.3494 48
v -35.871 -27.1712 48
v -34.472 -28.9254 48
v -32.9873 -30.6078 48
v -31.4207 -32.214 48
v -29.7759 -33.7402 48
v -28.057 -35.1824 48
v -26.2685 -36.5372 48
v -24.4146 -37.8012 48
v -22.5 -38.9711 48
v -20.5295 -40.0442 48
v -18.5079 -41.0178 48
v -16.4403 -41.8893 48
v -14.3319 -42.6567 48
v -12.1878 -43.3181 48
v -10.0134 -43.8718 48
v -7.81417 -44.3163 48
v -5.59547 -44.6508 48
v -3.36285 -44.8742 48
v -1.12188 -44.986 48
v 1.12188 -44.986 48
v 3.36285 -44.8742 48
v 5.59547 -44.6508 48
v 7.81417 -44.3163 48
v 10.0134 -43.8718 48
v 12.1878 -43.3181 48
v 14.3319 -42.6567 48
v 16.4403 -41.8893 48
v 18.5079 -41.0178 48
v 20.5295 -40.0442 48
v 22.5 -38.9711 48
v 24.4146 -37.8012 48
v 26.2685 -36.5372 48
v 28.057 -35.1824 48
v 29.7759 -33.7402 48
v 31.4207 -32.214 48
v 32.9873 -30.6078 48
v 34.472 -28.9254 48
v 35.871 -27.1712 48
v 37.1807 -25.3494 48
v 38.3981 -23.4646 48
v 39.52 -21.5214 48
v 40.5436 -19.5248 48
v 41.4664 -17.4796 48
v 42.2862 -15.3909 48
v 43.0008 -13.264 48
v 43.6085 -11.1041 48
v 44.1078 -8.91658 48
v 44.4974 -6.7069 48
v 44.7764 -4.48055 48
v 44.9441 -2.24306 48
f 1 128 129
f 2 129 130
f 2 1 129
f 3 130 131
f 3 2 130
f 4 131 132
f 4 3 131
f 5 132 133
f 5 4 132
f 6 133 134
f 6 5 133
f 7 6 134
f 8 134 135
f 8 7 134
f 9 135 136
f 9 8 135
f 10 136 137
f 10 137 138
f 10 9 136
f 11 10 138
f 12 11 138
f 12 138 139
f 13 12 139
f 13 139 140
f 14 13 140
f 14 140 141
f 14 141 142
f 15 14 142
f 16 15 142
f 16 142 143
f 17 16 143
f 17 143 144
f 18 17 144
f 18 144 145
f 18 145 146
f 19 18 146
f 20 19 146
f 20 146 147
f 20 147 148
f 21 20 148
f 22 21 148
f 22 148 149
f 22 149 150
f 23 22 150
f 24 150 151
f 24 23 150
f 25 151 152
f 25 24 151
f 26 152 153
f 26 25 152
f 27 153 154
f 27 26 153
f 28 154 155
f 28 27 154
f 29 155 156
f 29 28 155
f 30 156 157
f 30 29 156
f 31 157 158
f 31 30 157
f 32 158 159
f 32 31 158
f 33 159 160
f 33 160 161
f 33 32 159
f 34 33 161
f 35 161 162
f 35 34 161
f 36 162 163
f 36 163 164
f 36 35 162
f 37 36 164
f 38 37 164
f 38 164 165
f 39 38 165
f 39 165 166
f 39 166 167
f 40 39 167
f 41 40 167
f 41 167 168
f 42 41 168
f 42 168 169
f 43 42 169
f 43 169 170
f 43 170 171
f 44 43 171
f 45 44 171
f 45 171 172
f 45 172 173
f 46 45 173
f 46 173 174
f 47 46 174
f 48 47 174
f 48 174 175
f 49 48 175
f 49 175 176
f 49 176 177
f 50 49 177
f 51 50 177
f 51 177 178
f 52 51 178
f 52 178 179
f 52 179 180
f 53 52 180
f 53 180 181
f 54 53 181
f 55 54 181
f 55 181 182
f 56 55 182
f 56 182 183
f 57 56 183
f 57 183 184
f 58 57 184
f 58 184 185
f 59 185 186
f 59 186 187
f 59 58 185
f 60 59 187
f 61 187 188
f 61 188 189
f 61 60 187
f 62 189 190
f 62 61 189
f 63 62 190
f 64 63 190
f 64 190 191
f 65 64 191
f 65 191 192
f 66 65 192
f 66 192 193
f 66 193 194
f 67 66 194
f 67 194 195
f 68 67 195
f 69 68 195
f 69 195 196
f 70 69 196
f 70 196 197
f 71 70 197
f 71 197 198
f 72 71 198
f 72 198 199
f 72 199 200
f 73 72 200
f 74 73 200
f 74 200 201
f 74 201 202
f 75 202 203
f 75 74 202
f 76 75 203
f 77 203 204
f 77 204 205
f 77 76 203
f 78 77 205
f 79 205 206
f 79 78 205
f 80 206 207
f 80 79 206
f 81 207 208
f 81 80 207
f 82 208 209
f 82 81 208
f 83 209 210
f 83 210 211
f 83 82 209
f 84 83 211
f 85 211 212
f 85 212 213
f 85 84 211
f 86 85 213
f 87 213 214
f 87 214 215
f 87 86 213
f 88 87 215
f 89 88 215
f 89 215 216
f 90 89 216
f 90 216 217
f 91 90 217
f 91 217 218
f 91 218 219
f 92 91 219
f 93 219 220
f 93 92 219
f 94 220 221
f 94 93 220
f 95 221 222
f 95 222 223
f 95 94 221
f 96 95 223
f 97 223 224
f 97 224 225
f 97 96 223
f 98 97 225
f 99 225 226
f 99 98 225
f 100 226 227
f 100 99 226
f 101 227 228
f 101 100 227
f 102 228 229
f 102 229 230
f 102 101 228
f 103 102 230
f 104 230 231
f 104 231 232
f 104 103 230
f 105 104 232
f 106 232 233
f 106 233 234
f 106 105 232
f 107 106 234
f 108 234 235
f 108 107 234
f 109 235 236
f 109 236 237
f 109 108 235
f 110 109 237
f 111 237 238
f 111 110 237
f 112 238 239
f 112 239 240
f 112 111 238
f 113 112 240
f 114 113 240
f 114 240 241
f 115 114 241
f 115 241 242
f 116 115 242
f 116 242 243
f 117 116 243
f 117 243 244
f 118 117 244
f 118 244 245
f 118 245 246
f 119 118 246
f 120 119 246
f 120 246 247
f 121 120 247
f 121 247 248
f 122 121 248
f 122 248 249
f 122 249 250
f 123 122 250
f 124 123 250
f 124 250 251
f 125 124 251
f 125 251 252
f 126 252 253
f 126 125 252
f 127 253 254
f 127 126 253
f 459 334 460
f 459 332 333
f 459 333 334
f 461 460 334
f 461 334 335
f 458 332 459
f 458 331 332
f 462 461 335
f 462 335 336
f 457 331 458
f 463 462 336
f 463 336 337
f 456 331 457
f 456 330 331
f 464 463 337
f 464 337 338
f 455 330 456
f 455 328 329
f 455 329 330
f 465 464 338
f 465 338 339
f 454 328 455
f 466 465 339
f 466 339 340
f 453 328 454
f 453 326 327
f 453 327 328
f 467 466 340
f 467 340 341
f 452 326 453
f 452 325 326
f 468 341 342
f 468 467 341
f 451 325 452
f 451 324 325
f 469 468 342
f 469 342 343
f 469 343 344
f 450 324 451
f 470 469 344
f 470 344 345
f 449 323 324
f 449 324 450
f 471 470 345
f 471 345 346
f 448 323 449
f 448 321 322
f 448 322 323
f 472 471 346
f 447 321 448
f 473 472 346
f 473 346 347
f 473 347 348
f 446 319 320
f 446 320 321
f 446 321 447
f 474 473 348
f 445 319 446
f 445 318 319
f 475 474 348
f 475 348 349
f 444 318 445
f 476 475 349
f 476 349 350
f 443 317 318
f 443 318 444
f 477 476 350
f 477 350 351
f 442 316 317
f 442 317 443
f 478 477 351
f 478 351 352
f 441 314 315
f 441 315 316
f 441 316 442
f 479 478 352
f 479 352 353
f 440 314 441
f 480 479 353
f 480 353 354
f 439 314 440
f 439 313 314
f 481 480 354
f 481 354 355
f 438 313 439
f 438 312 313
f 482 355 356
f 482 356 357
f 482 481 355
f 437 312 438
f 437 311 312
f 483 482 357
f 436 311 437
f 436 310 311
f 484 357 358
f 484 483 357
f 435 310 436
f 435 309 310
f 485 358 359
f 485 484 358
f 434 308 309
f 434 309 435
f 486 359 360
f 486 485 359
f 433 307 308
f 433 308 434
f 487 360 361
f 487 486 360
f 432 306 307
f 432 307 433
f 488 361 362
f 488 487 361
f 431 305 306
f 431 306 432
f 489 362 363
f 489 488 362
f 430 304 305
f 430 305 431
f 364 489 363
f 490 489 364
f 429 303 304
f 429 304 430
f 491 364 365
f 491 490 364
f 302 429 428
f 302 303 429
f 366 492 491
f 366 491 365
f 427 302 428
f 301 302 427
f 493 492 366
f 367 493 366
f 300 301 427
f 300 427 426
f 494 493 367
f 368 494 367
f 495 494 368
f 299 300 426
f 299 426 425
f 369 495 368
f 298 299 425
f 298 425 424
f 370 495 369
f 370 496 495
f 297 298 424
f 297 423 422
f 297 424 423
f 371 497 496
f 371 496 370
f 296 297 422
f 372 498 497
f 372 497 371
f 295 296 422
f 295 421 420
f 295 422 421
f 373 499 498
f 373 500 499
f 373 498 372
f 294 295 420
f 374 500 373
f 293 420 419
f 293 294 420
f 375 501 500
f 375 500 374
f 292 419 418
f 292 293 419
f 376 502 501
f 376 503 502
f 376 501 375
f 291 418 417
f 291 292 418
f 377 503 376
f 290 416 415
f 290 417 416
f 290 291 417
f 378 503 377
f 378 504 503
f 378 505 504
f 289 290 415
f 379 505 378
f 288 289 415
f 288 414 413
f 288 415 414
f 380 505 379
f 380 506 505
f 287 288 413
f 255 506 380
f 255 381 506
f 286 287 413
f 286 413 412
f 256 382 381
f 256 381 255
f 285 286 412
f 285 412 411
f 257 383 382
f 257 382 256
f 284 410 409
f 284 411 410
f 284 285 411
f 258 384 383
f 258 383 257
f 283 284 409
f 259 385 384
f 259 384 258
f 282 409 408
f 282 283 409
f 260 386 385
f 260 385 259
f 281 282 408
f 281 408 407
f 261 387 386
f 261 386 260
f 280 281 407
f 280 406 405
f 280 407 406
f 262 388 387
f 262 387 261
f 279 280 405
f 263 389 388
f 263 388 262
f 278 279 405
f 278 405 404
f 264 390 389
f 264 391 390
f 264 389 263
f 277 278 404
f 277 403 402
f 277 404 403
f 265 391 264
f 265 392 391
f 276 277 402
f 266 392 265
f 275 276 402
f 275 401 400
f 275 402 401
f 267 392 266
f 267 393 392
f 274 275 400
f 268 393 267
f 268 394 393
f 273 274 400
f 273 400 399
f 269 395 394
f 269 394 268
f 272 398 397
f 272 399 398
f 272 273 399
f 270 396 395
f 270 395 269
f 271 272 397
f 271 397 396
f 271 396 270
f 588 587 586
f 583 585 584
f 583 586 585
f 591 588 586
f 591 586 583
f 591 582 581
f 591 583 582
f 591 589 588
f 591 590 589
f 578 591 581
f 578 580 579
f 578 581 580
f 594 593 592
f 576 591 578
f 576 578 577
f 574 576 575
f 598 594 592
f 598 595 594
f 598 596 595
f 598 597 596
f 572 574 573
f 572 576 574
f 600 598 592
f 600 592 591
f 600 599 598
f 570 572 571
f 602 601 600
f 568 570 569
f 604 602 600
f 604 603 602
f 567 570 568
f 606 605 604
f 565 570 567
f 565 567 566
f 565 576 572
f 565 572 570
f 563 565 564
f 609 608 607
f 562 565 563
f 610 606 604
f 610 609 607
f 610 604 600
f 610 600 591
f 610 607 606
f 561 565 562
f 611 610 591
f 559 565 561
f 559 561 560
f 559 576 565
f 614 613 612
f 557 559 558
f 556 559 557
f 616 615 614
f 617 612 611
f 617 611 591
f 617 614 612
f 617 616 614
f 617 591 576
f 554 559 556
f 554 556 555
f 553 559 554
f 621 618 617
f 621 619 618
f 621 620 619
f 550 552 551
f 548 550 549
f 548 552 550
f 624 622 621
f 624 623 622
f 547 553 552
f 547 552 548
f 544 546 545
f 544 547 546
f 629 625 624
f 629 626 625
f 629 627 626
f 629 628 627
f 629 624 621
f 542 544 543
f 542 547 544
f 539 629 621
f 539 541 540
f 539 542 541
f 539 576 559
f 539 617 576
f 539 559 553
f 539 621 617
f 539 553 547
f 539 547 542
f 538 629 539
f 536 538 537
f 512 510 509
f 512 511 510
f 533 535 534
f 513 512 509
f 532 538 536
f 532 629 538
f 532 535 533
f 532 536 535
f 514 508 507
f 514 509 508
f 514 630 629
f 514 631 630
f 514 632 631
f 514 507 632
f 514 513 509
f 515 514 629
f 529 531 530
f 529 532 531
f 528 516 515
f 528 532 529
f 528 629 532
f 528 515 629
f 518 517 516
f 519 518 516
f 525 527 526
f 525 528 527
f 521 520 519
f 524 528 525
f 523 522 521
f 523 516 528
f 523 521 519
f 523 519 516
f 523 528 524
f 634 760 633
f 634 761 760
f 635 762 761
f 635 763 762
f 635 761 634
f 636 764 763
f 636 763 635
f 637 765 764
f 637 764 636
f 638 766 765
f 638 765 637
f 639 767 766
f 639 766 638
f 640 767 639
f 641 768 767
f 641 769 768
f 641 767 640
f 642 769 641
f 643 770 769
f 643 769 642
f 644 770 643
f 644 771 770
f 645 771 644
f 645 772 771
f 645 773 772
f 646 773 645
f 647 773 646
f 647 774 773
f 648 774 647
f 648 775 774
f 649 775 648
f 649 776 775
f 650 776 649
f 650 777 776
f 651 777 650
f 651 778 777
f 652 778 651
f 652 779 778
f 653 779 652
f 653 780 779
f 654 780 653
f 654 781 780
f 655 781 654
f 655 782 781
f 655 783 782
f 656 783 655
f 657 784 783
f 657 785 784
f 657 783 656
f 658 785 657
f 659 786 785
f 659 785 658
f 660 787 786
f 660 788 787
f 660 786 659
f 661 788 660
f 662 789 788
f 662 788 661
f 663 790 789
f 663 791 790
f 663 789 662
f 664 791 663
f 665 792 791
f 665 793 792
f 665 791 664
f 666 793 665
f 667 794 793
f 667 795 794
f 667 793 666
f 668 795 667
f 669 795 668
f 669 796 795
f 670 796 669
f 670 797 796
f 671 797 670
f 671 798 797
f 672 798 671
f 672 799 798
f 673 799 672
f 673 800 799
f 674 800 673
f 674 801 800
f 675 801 674
f 675 802 801
f 675 803 802
f 676 803 675
f 677 803 676
f 677 804 803
f 677 805 804
f 678 805 677
f 678 806 805
f 679 806 678
f 679 807 806
f 680 807 679
f 681 807 680
f 681 808 807
f 682 808 681
f 682 809 808
f 683 809 682
f 683 810 809
f 684 810 683
f 684 811 810
f 685 811 684
f 685 812 811
f 686 812 685
f 686 813 812
f 687 813 686
f 687 814 813
f 688 814 687
f 688 815 814
f 689 815 688
f 689 816 815
f 689 817 816
f 690 818 817
f 690 817 689
f 691 818 690
f 692 819 818
f 692 820 819
f 692 818 691
f 693 821 820
f 693 820 692
f 694 821 693
f 695 821 694
f 695 822 821
f 696 822 695
f 696 823 822
f 697 823 696
f 697 824 823
f 698 824 697
f 698 825 824
f 699 825 698
f 699 826 825
f 700 826 699
f 700 827 826
f 701 827 700
f 701 828 827
f 702 828 701
f 702 829 828
f 703 829 702
f 703 830 829
f 704 830 703
f 704 831 830
f 705 831 704
f 705 832 831
f 706 832 705
f 706 833 832
f 707 833 706
f 707 834 833
f 708 835 834
f 708 834 707
f 709 836 835
f 709 835 708
f 710 837 836
f 710 836 709
f 711 838 837
f 711 837 710
f 712 839 838
f 712 838 711
f 713 840 839
f 713 839 712
f 714 841 840
f 714 842 841
f 714 840 713
f 715 842 714
f 716 843 842
f 716 842 715
f 717 844 843
f 717 845 844
f 717 843 716
f 718 846 845
f 718 845 717
f 719 846 718
f 720 847 846
f 720 846 719
f 721 847 720
f 721 848 847
f 722 848 721
f 722 849 848
f 723 849 722
f 723 850 849
f 724 850 723
f 724 851 850
f 725 852 851
f 725 853 852
f 725 851 724
f 726 854 853
f 726 853 725
f 727 854 726
f 728 855 854
f 728 854 727
f 729 856 855
f 729 855 728
f 730 857 856
f 730 856 729
f 731 858 857
f 731 859 858
f 731 857 730
f 732 859 731
f 733 860 859
f 733 859 732
f 734 861 860
f 734 860 733
f 735 862 861
f 735 861 734
f 736 863 862
f 736 862 735
f 737 864 863
f 737 863 736
f 738 865 864
f 738 864 737
f 739 866 865
f 739 865 738
f 740 867 866
f 740 868 867
f 740 866 739
f 741 868 740
f 742 869 868
f 742 870 869
f 742 868 741
f 743 870 742
f 744 871 870
f 744 870 743
f 745 871 744
f 745 872 871
f 746 872 745
f 746 873 872
f 747 873 746
f 747 874 873
f 748 874 747
f 748 875 874
f 749 875 748
f 749 876 875
f 750 876 749
f 750 877 876
f 751 877 750
f 751 878 877
f 752 878 751
f 752 879 878
f 753 879 752
f 753 880 879
f 754 880 753
f 754 881 880
f 755 881 754
f 755 882 881
f 756 882 755
f 756 883 882
f 757 884 883
f 757 883 756
f 758 884 757
f 758 885 884
f 759 886 885
f 759 885 758
f 1091 966 1092
f 1091 964 965
f 1091 965 966
f 1093 1092 966
f 1093 966 967
f 1090 964 1091
f 1094 1093 967
f 1094 967 968
f 1089 964 1090
f 1089 963 964
f 1095 1094 968
f 1095 968 969
f 1095 969 970
f 1088 963 1089
f 1088 962 963
f 1096 1095 970
f 1096 970 971
f 1087 962 1088
f 1087 961 962
f 1097 1096 971
f 1086 961 1087
f 1086 960 961
f 1098 1097 971
f 1098 971 972
f 1098 972 973
f 1085 960 1086
f 1085 959 960
f 1099 973 974
f 1099 1098 973
f 1084 958 959
f 1084 959 1085
f 1100 1099 974
f 1100 974 975
f 1083 956 957
f 1083 957 958
f 1083 958 1084
f 1101 1100 975
f 1082 956 1083
f 1102 1101 975
f 1102 975 976
f 1081 954 955
f 1081 955 956
f 1081 956 1082
f 1103 1102 976
f 1103 976 977
f 1080 954 1081
f 1104 1103 977
f 1104 977 978
f 1079 952 953
f 1079 953 954
f 1079 954 1080
f 1105 978 979
f 1105 979 980
f 1105 1104 978
f 1078 952 1079
f 1078 951 952
f 1106 1105 980
f 1077 951 1078
f 1107 1106 980
f 1107 980 981
f 1076 950 951
f 1076 951 1077
f 1108 1107 981
f 1108 981 982
f 1108 982 983
f 1075 950 1076
f 1075 949 950
f 1109 1108 983
f 1109 983 984
f 1074 949 1075
f 1074 948 949
f 1110 1109 984
f 1073 948 1074
f 1073 947 948
f 1111 1110 984
f 1111 984 985
f 1072 946 947
f 1072 947 1073
f 1112 1111 985
f 1112 985 986
f 1071 946 1072
f 1071 945 946
f 1113 1112 986
f 1113 986 987
f 1070 945 1071
f 1070 944 945
f 1114 987 988
f 1114 1113 987
f 1069 944 1070
f 1069 942 943
f 1069 943 944
f 1115 988 989
f 1115 1114 988
f 1115 989 990
f 1068 942 1069
f 1116 1115 990
f 1067 942 1068
f 1067 941 942
f 1117 990 991
f 1117 1116 990
f 1066 940 941
f 1066 941 1067
f 1118 991 992
f 1118 1117 991
f 1065 939 940
f 1065 940 1066
f 1119 992 993
f 1119 1118 992
f 1064 937 938
f 1064 938 939
f 1064 939 1065
f 1120 993 994
f 1120 1119 993
f 1063 937 1064
f 1121 994 995
f 1121 995 996
f 1121 1120 994
f 1062 937 1063
f 1062 936 937
f 935 936 1062
f 1122 1121 996
f 1061 935 1062
f 997 1122 996
f 1123 1122 997
f 934 935 1061
f 934 1061 1060
f 1059 934 1060
f 998 1124 1123
f 998 1123 997
f 933 934 1059
f 999 1124 998
f 999 1125 1124
f 932 933 1059
f 932 1059 1058
f 1000 1125 999
f 1000 1126 1125
f 931 932 1058
f 931 1058 1057
f 1001 1126 1000
f 1001 1127 1126
f 930 931 1057
f 930 1056 1055
f 930 1057 1056
f 1002 1127 1001
f 1002 1128 1127
f 929 930 1055
f 1003 1129 1128
f 1003 1128 1002
f 928 929 1055
f 928 1054 1053
f 928 1055 1054
f 1004 1130 1129
f 1004 1129 1003
f 927 928 1053
f 1005 1131 1130
f 1005 1130 1004
f 926 927 1053
f 926 1052 1051
f 926 1053 1052
f 1006 1132 1131
f 1006 1131 1005
f 925 926 1051
f 1007 1132 1006
f 1007 1133 1132
f 924 925 1051
f 924 1051 1050
f 1008 1133 1007
f 1008 1134 1133
f 923 1049 1048
f 923 1050 1049
f 923 924 1050
f 1009 1134 1008
f 1009 1135 1134
f 922 923 1048
f 1010 1135 1009
f 1010 1136 1135
f 921 922 1048
f 921 1048 1047
f 1011 1136 1010
f 1011 1137 1136
f 920 1047 1046
f 920 921 1047
f 1012 1138 1137
f 1012 1137 1011
f 919 1046 1045
f 919 920 1046
f 887 1014 1013
f 887 1013 1138
f 887 1138 1012
f 918 1045 1044
f 918 919 1045
f 888 1014 887
f 917 1044 1043
f 917 918 1044
f 889 1015 1014
f 889 1014 888
f 916 917 1043
f 916 1043 1042
f 890 1016 1015
f 890 1015 889
f 915 1042 1041
f 915 916 1042
f 891 1017 1016
f 891 1018 1017
f 891 1016 890
f 914 1040 1039
f 914 1041 1040
f 914 915 1041
f 892 1018 891
f 913 914 1039
f 913 1039 1038
f 893 1018 892
f 893 1019 1018
f 912 913 1038
f 912 1038 1037
f 894 1020 1019
f 894 1019 893
f 911 912 1037
f 895 1021 1020
f 895 1020 894
f 910 911 1037
f 910 1036 1035
f 910 1037 1036
f 896 1022 1021
f 896 1021 895
f 909 910 1035
f 897 1022 896
f 897 1023 1022
f 897 1024 1023
f 908 909 1035
f 908 1035 1034
f 898 1024 897
f 907 908 1034
f 907 1034 1033
f 899 1024 898
f 899 1025 1024
f 906 907 1033
f 906 1033 1032
f 900 1025 899
f 900 1026 1025
f 905 906 1032
f 905 1032 1031
f 901 1026 900
f 901 1027 1026
f 901 1028 1027
f 904 1031 1030
f 904 905 1031
f 902 1028 901
f 903 1029 1028
f 903 1030 1029
f 903 904 1030
f 903 1028 902
f 1140 1139 1266
f 1140 1266 1267
f 1141 1267 1268
f 1141 1268 1269
f 1141 1140 1267
f 1142 1269 1270
f 1142 1141 1269
f 1143 1270 1271
f 1143 1142 1270
f 1144 1271 1272
f 1144 1143 1271
f 1145 1272 1273
f 1145 1144 1272
f 1146 1145 1273
f 1147 1273 1274
f 1147 1274 1275
f 1147 1146 1273
f 1148 1147 1275
f 1149 1275 1276
f 1149 1148 1275
f 1150 1149 1276
f 1150 1276 1277
f 1151 1150 1277
f 1151 1277 1278
f 1151 1278 1279
f 1152 1151 1279
f 1153 1152 1279
f 1153 1279 1280
f 1154 1153 1280
f 1154 1280 1281
f 1155 1154 1281
f 1155 1281 1282
f 1156 1155 1282
f 1156 1282 1283
f 1157 1156 1283
f 1157 1283 1284
f 1158 1157 1284
f 1158 1284 1285
f 1159 1158 1285
f 1159 1285 1286
f 1160 1159 1286
f 1160 1286 1287
f 1161 1160 1287
f 1161 1287 1288
f 1161 1288 1289
f 1162 1161 1289
f 1163 1289 1290
f 1163 1290 1291
f 1163 1162 1289
f 1164 1163 1291
f 1165 1291 1292
f 1165 1164 1291
f 1166 1292 1293
f 1166 1293 1294
f 1166 1165 1292
f 1167 1166 1294
f 1168 1294 1295
f 1168 1167 1294
f 1169 1295 1296
f 1169 1296 1297
f 1169 1168 1295
f 1170 1169 1297
f 1171 1297 1298
f 1171 1298 1299
f 1171 1170 1297
f 1172 1171 1299
f 1173 1299 1300
f 1173 1300 1301
f 1173 1172 1299
f 1174 1173 1301
f 1175 1174 1301
f 1175 1301 1302
f 1176 1175 1302
f 1176 1302 1303
f 1177 1176 1303
f 1177 1303 1304
f 1178 1177 1304
f 1178 1304 1305
f 1179 1178 1305
f 1179 1305 1306
f 1180 1179 1306
f 1180 1306 1307
f 1181 1180 1307
f 1181 1307 1308
f 1181 1308 1309
f 1182 1181 1309
f 1183 1182 1309
f 1183 1309 1310
f 1183 1310 1311
f 1184 1183 1311
f 1184 1311 1312
f 1185 1184 1312
f 1185 1312 1313
f 1186 1185 1313
f 1187 1186 1313
f 1187 1313 1314
f 1188 1187 1314
f 1188 1314 1315
f 1189 1188 1315
f 1189 1315 1316
f 1190 1189 1316
f 1190 1316 1317
f 1191 1190 1317
f 1191 1317 1318
f 1192 1191 1318
f 1192 1318 1319
f 1193 1192 1319
f 1193 1319 1320
f 1194 1193 1320
f 1194 1320 1321
f 1195 1194 1321
f 1195 1321 1322
f 1195 1322 1323
f 1196 1323 1324
f 1196 1195 1323
f 1197 1196 1324
f 1198 1324 1325
f 1198 1325 1326
f 1198 1197 1324
f 1199 1326 1327
f 1199 1198 1326
f 1200 1199 1327
f 1201 1200 1327
f 1201 1327 1328
f 1202 1201 1328
f 1202 1328 1329
f 1203 1202 1329
f 1203 1329 1330
f 1204 1203 1330
f 1204 1330 1331
f 1205 1204 1331
f 1205 1331 1332
f 1206 1205 1332
f 1206 1332 1333
f 1207 1206 1333
f 1207 1333 1334
f 1208 1207 1334
f 1208 1334 1335
f 1209 1208 1335
f 1209 1335 1336
f 1210 1209 1336
f 1210 1336 1337
f 1211 1210 1337
f 1211 1337 1338
f 1212 1211 1338
f 1212 1338 1339
f 1213 1212 1339
f 1213 1339 1340
f 1214 1340 1341
f 1214 1213 1340
f 1215 1341 1342
f 1215 1214 1341
f 1216 1342 1343
f 1216 1215 1342
f 1217 1343 1344
f 1217 1216 1343
f 1218 1344 1345
f 1218 1217 1344
f 1219 1345 1346
f 1219 1218 1345
f 1220 1346 1347
f 1220 1347 1348
f 1220 1219 1346
f 1221 1220 1348
f 1222 1348 1349
f 1222 1221 1348
f 1223 1349 1350
f 1223 1350 1351
f 1223 1222 1349
f 1224 1351 1352
f 1224 1223 1351
f 1225 1224 1352
f 1226 1352 1353
f 1226 1225 1352
f 1227 1226 1353
f 1227 1353 1354
f 1228 1227 1354
f 1228 1354 1355
f 1229 1228 1355
f 1229 1355 1356
f 1230 1229 1356
f 1230 1356 1357
f 1231 1357 1358
f 1231 1358 1359
f 1231 1230 1357
f 1232 1359 1360
f 1232 1231 1359
f 1233 1232 1360
f 1234 1360 1361
f 1234 1233 1360
f 1235 1361 1362
f 1235 1234 1361
f 1236 1362 1363
f 1236 1235 1362
f 1237 1363 1364
f 1237 1364 1365
f 1237 1236 1363
f 1238 1237 1365
f 1239 1365 1366
f 1239 1238 1365
f 1240 1366 1367
f 1240 1239 1366
f 1241 1367 1368
f 1241 1240 1367
f 1242 1368 1369
f 1242 1241 1368
f 1243 1369 1370
f 1243 1242 1369
f 1244 1370 1371
f 1244 1243 1370
f 1245 1371 1372
f 1245 1244 1371
f 1246 1372 1373
f 1246 1373 1374
f 1246 1245 1372
f 1247 1246 1374
f 1248 1374 1375
f 1248 1375 1376
f 1248 1247 1374
f 1249 1248 1376
f 1250 1376 1377
f 1250 1249 1376
f 1251 1250 1377
f 1251 1377 1378
f 1252 1251 1378
f 1252 1378 1379
f 1253 1252 1379
f 1253 1379 1380
f 1254 1253 1380
f 1254 1380 1381
f 1255 1254 1381
f 1255 1381 1382
f 1256 1255 1382
f 1256 1382 1383
f 1257 1256 1383
f 1257 1383 1384
f 1258 1257 1384
f 1258 1384 1385
f 1259 1258 1385
f 1259 1385 1386
f 1260 1259 1386
f 1260 1386 1387
f 1261 1260 1387
f 1261 1387 1388
f 1262 1261 1388
f 1262 1388 1389
f 1263 1389 1390
f 1263 1262 1389
f 1264 1263 1390
f 1264 1390 1391
f 1265 1391 1392
f 1265 1264 1391
f 1597 1472 1598
f 1597 1471 1472
f 1599 1598 1472
f 1599 1472 1473
f 1599 1473 1474
f 1596 1470 1471
f 1596 1471 1597
f 1600 1474 1475
f 1600 1599 1474
f 1595 1469 1470
f 1595 1470 1596
f 1601 1600 1475
f 1594 1469 1595
f 1594 1467 1468
f 1594 1468 1469
f 1602 1601 1475
f 1602 1475 1476
f 1593 1467 1594
f 1603 1602 1476
f 1603 1476 1477
f 1592 1467 1593
f 1592 1465 1466
f 1592 1466 1467
f 1604 1603 1477
f 1604 1477 1478
f 1591 1465 1592
f 1605 1604 1478
f 1605 1478 1479
f 1605 1479 1480
f 1590 1465 1591
f 1590 1464 1465
f 1606 1605 1480
f 1589 1464 1590
f 1589 1462 1463
f 1589 1463 1464
f 1607 1606 1480
f 1607 1480 1481
f 1588 1462 1589
f 1588 1461 1462
f 1608 1607 1481
f 1608 1481 1482
f 1587 1461 1588
f 1609 1608 1482
f 1609 1482 1483
f 1609 1483 1484
f 1586 1461 1587
f 1586 1460 1461
f 1610 1609 1484
f 1585 1460 1586
f 1585 1458 1459
f 1585 1459 1460
f 1611 1610 1484
f 1611 1484 1485
f 1584 1458 1585
f 1612 1611 1485
f 1612 1485 1486
f 1583 1457 1458
f 1583 1458 1584
f 1613 1612 1486
f 1613 1486 1487
f 1582 1455 1456
f 1582 1456 1457
f 1582 1457 1583
f 1614 1613 1487
f 1614 1487 1488
f 1614 1488 1489
f 1581 1455 1582
f 1615 1614 1489
f 1580 1453 1454
f 1580 1454 1455
f 1580 1455 1581
f 1616 1615 1489
f 1616 1489 1490
f 1579 1452 1453
f 1579 1453 1580
f 1617 1616 1490
f 1617 1490 1491
f 1578 1452 1579
f 1618 1617 1491
f 1618 1491 1492
f 1577 1452 1578
f 1577 1450 1451
f 1577 1451 1452
f 1619 1618 1492
f 1619 1492 1493
f 1576 1450 1577
f 1620 1493 1494
f 1620 1619 1493
f 1575 1450 1576
f 1575 1449 1450
f 1621 1494 1495
f 1621 1620 1494
f 1574 1449 1575
f 1574 1448 1449
f 1622 1495 1496
f 1622 1621 1495
f 1573 1448 1574
f 1573 1447 1448
f 1623 1496 1497
f 1623 1622 1496
f 1572 1446 1447
f 1572 1447 1573
f 1624 1497 1498
f 1624 1623 1497
f 1571 1446 1572
f 1571 1445 1446
f 1499 1624 1498
f 1625 1624 1499
f 1570 1444 1445
f 1570 1445 1571
f 1626 1499 1500
f 1626 1625 1499
f 1569 1443 1444
f 1569 1444 1570
f 1627 1500 1501
f 1627 1626 1500
f 1568 1443 1569
f 1568 1442 1443
f 1502 1627 1501
f 1628 1627 1502
f 1567 1441 1442
f 1567 1442 1568
f 1629 1502 1503
f 1629 1628 1502
f 1566 1441 1567
f 1440 1441 1566
f 1504 1630 1629
f 1504 1629 1503
f 1565 1440 1566
f 1439 1440 1565
f 1505 1630 1504
f 1505 1631 1630
f 1564 1439 1565
f 1438 1439 1564
f 1632 1631 1505
f 1506 1632 1505
f 1563 1438 1564
f 1437 1438 1563
f 1507 1632 1506
f 1507 1633 1632
f 1436 1437 1563
f 1436 1563 1562
f 1508 1633 1507
f 1508 1634 1633
f 1435 1436 1562
f 1435 1562 1561
f 1560 1435 1561
f 1509 1635 1634
f 1509 1634 1508
f 1434 1435 1560
f 1510 1636 1635
f 1510 1635 1509
f 1637 1636 1510
f 1433 1434 1560
f 1433 1560 1559
f 1558 1433 1559
f 1511 1637 1510
f 1432 1433 1558
f 1512 1637 1511
f 1512 1638 1637
f 1431 1557 1556
f 1431 1558 1557
f 1431 1432 1558
f 1513 1639 1638
f 1513 1640 1639
f 1513 1638 1512
f 1430 1431 1556
f 1514 1640 1513
f 1429 1556 1555
f 1429 1430 1556
f 1515 1641 1640
f 1515 1642 1641
f 1515 1640 1514
f 1428 1554 1553
f 1428 1555 1554
f 1428 1429 1555
f 1516 1642 1515
f 1427 1428 1553
f 1517 1642 1516
f 1517 1643 1642
f 1517 1644 1643
f 1426 1427 1553
f 1426 1553 1552
f 1518 1644 1517
f 1425 1426 1552
f 1425 1551 1550
f 1425 1552 1551
f 1393 1644 1518
f 1393 1519 1644
f 1424 1425 1550
f 1394 1520 1519
f 1394 1521 1520
f 1394 1519 1393
f 1423 1424 1550
f 1423 1550 1549
f 1395 1521 1394
f 1422 1423 1549
f 1422 1549 1548
f 1396 1522 1521
f 1396 1521 1395
f 1421 1547 1546
f 1421 1548 1547
f 1421 1422 1548
f 1397 1523 1522
f 1397 1522 1396
f 1420 1421 1546
f 1398 1524 1523
f 1398 1523 1397
f 1419 1546 1545
f 1419 1420 1546
f 1399 1525 1524
f 1399 1524 1398
f 1418 1544 1543
f 1418 1545 1544
f 1418 1419 1545
f 1400 1526 1525
f 1400 1525 1399
f 1417 1418 1543
f 1401 1526 1400
f 1401 1527 1526
f 1416 1417 1543
f 1416 1543 1542
f 1402 1527 1401
f 1402 1528 1527
f 1402 1529 1528
f 1415 1416 1542
f 1415 1542 1541
f 1403 1529 1402
f 1403 1530 1529
f 1414 1415 1541
f 1414 1540 1539
f 1414 1541 1540
f 1404 1531 1530
f 1404 1530 1403
f 1413 1414 1539
f 1405 1531 1404
f 1405 1532 1531
f 1412 1413 1539
f 1412 1539 1538
f 1406 1532 1405
f 1411 1412 1538
f 1411 1537 1536
f 1411 1538 1537
f 1407 1533 1532
f 1407 1532 1406
f 1410 1411 1536
f 1408 1533 1407
f 1408 1534 1533
f 1409 1535 1534
f 1409 1536 1535
f 1409 1410 1536
f 1409 1534 1408
f 1647 1773 1774
f 1648 1774 1775
f 1648 1647 1774
f 1649 1775 1776
f 1649 1648 1775
f 1650 1776 1777
f 1650 1649 1776
f 1651 1777 1778
f 1651 1650 1777
f 1652 1778 1779
f 1652 1651 1778
f 1653 1652 1779
f 1654 1779 1780
f 1654 1653 1779
f 1655 1780 1781
f 1655 1654 1780
f 1656 1781 1782
f 1656 1782 1783
f 1656 1655 1781
f 1657 1656 1783
f 1658 1657 1783
f 1658 1783 1784
f 1659 1658 1784
f 1659 1784 1785
f 1660 1659 1785
f 1660 1785 1786
f 1660 1786 1787
f 1661 1660 1787
f 1662 1661 1787
f 1662 1787 1788
f 1663 1662 1788
f 1663 1788 1789
f 1664 1663 1789
f 1664 1789 1790
f 1664 1790 1791
f 1665 1664 1791
f 1666 1665 1791
f 1666 1791 1792
f 1666 1792 1793
f 1667 1666 1793
f 1668 1667 1793
f 1668 1793 1794
f 1668 1794 1795
f 1669 1668 1795
f 1670 1795 1796
f 1670 1669 1795
f 1671 1796 1797
f 1671 1670 1796
f 1672 1797 1798
f 1672 1671 1797
f 1673 1798 1799
f 1673 1672 1798
f 1674 1799 1800
f 1674 1673 1799
f 1675 1800 1801
f 1675 1674 1800
f 1676 1801 1802
f 1676 1675 1801
f 1677 1802 1803
f 1677 1676 1802
f 1678 1803 1804
f 1678 1677 1803
f 1679 1804 1805
f 1679 1805 1806
f 1679 1678 1804
f 1680 1679 1806
f 1681 1806 1807
f 1681 1680 1806
f 1682 1807 1808
f 1682 1808 1809
f 1682 1681 1807
f 1683 1682 1809
f 1684 1683 1809
f 1684 1809 1810
f 1685 1684 1810
f 1685 1810 1811
f 1685 1811 1812
f 1686 1685 1812
f 1687 1686 1812
f 1687 1812 1813
f 1688 1687 1813
f 1688 1813 1814
f 1689 1688 1814
f 1689 1814 1815
f 1689 1815 1816
f 1690 1689 1816
f 1691 1690 1816
f 1691 1816 1817
f 1691 1817 1818
f 1692 1691 1818
f 1692 1818 1819
f 1693 1692 1819
f 1694 1693 1819
f 1694 1819 1820
f 1695 1694 1820
f 1695 1820 1821
f 1695 1821 1822
f 1696 1695 1822
f 1697 1696 1822
f 1697 1822 1823
f 1698 1697 1823
f 1698 1823 1824
f 1698 1824 1825
f 1699 1698 1825
f 1699 1825 1826
f 1700 1699 1826
f 1701 1700 1826
f 1701 1826 1827
f 1702 1701 1827
f 1702 1827 1828
f 1703 1702 1828
f 1703 1828 1829
f 1704 1703 1829
f 1704 1829 1830
f 1705 1830 1831
f 1705 1704 1830
f 1705 1831 1832
f 1706 1705 1832
f 1707 1832 1833
f 1707 1833 1834
f 1707 1706 1832
f 1708 1834 1835
f 1708 1707 1834
f 1709 1708 1835
f 1710 1709 1835
f 1710 1835 1836
f 1711 1710 1836
f 1711 1836 1837
f 1712 1711 1837
f 1712 1837 1838
f 1712 1838 1839
f 1713 1712 1839
f 1713 1839 1840
f 1714 1713 1840
f 1715 1714 1840
f 1715 1840 1841
f 1716 1715 1841
f 1716 1841 1842
f 1717 1716 1842
f 1717 1842 1843
f 1718 1717 1843
f 1718 1843 1844
f 1718 1844 1845
f 1719 1718 1845
f 1720 1846 1847
f 1720 1719 1845
f 1720 1845 1846
f 1721 1847 1848
f 1721 1720 1847
f 1722 1721 1848
f 1723 1848 1849
f 1723 1849 1850
f 1723 1722 1848
f 1724 1723 1850
f 1725 1850 1851
f 1725 1724 1850
f 1726 1851 1852
f 1726 1725 1851
f 1727 1852 1853
f 1727 1726 1852
f 1728 1853 1854
f 1728 1727 1853
f 1729 1854 1855
f 1729 1855 1856
f 1729 1728 1854
f 1730 1729 1856
f 1731 1856 1857
f 1731 1857 1858
f 1731 1730 1856
f 1732 1731 1858
f 1733 1858 1859
f 1733 1859 1860
f 1733 1732 1858
f 1734 1733 1860
f 1735 1734 1860
f 1735 1860 1861
f 1736 1735 1861
f 1736 1861 1862
f 1737 1736 1862
f 1737 1862 1863
f 1737 1863 1864
f 1738 1737 1864
f 1739 1864 1865
f 1739 1738 1864
f 1740 1865 1866
f 1740 1739 1865
f 1741 1866 1867
f 1741 1867 1868
f 1741 1740 1866
f 1742 1741 1868
f 1743 1868 1869
f 1743 1869 1870
f 1743 1742 1868
f 1744 1743 1870
f 1745 1870 1871
f 1745 1744 1870
f 1746 1871 1872
f 1746 1745 1871
f 1747 1872 1873
f 1747 1746 1872
f 1748 1873 1874
f 1748 1874 1875
f 1748 1747 1873
f 1749 1748 1875
f 1750 1875 1876
f 1750 1876 1877
f 1750 1749 1875
f 1751 1750 1877
f 1752 1877 1878
f 1752 1878 1879
f 1752 1751 1877
f 1753 1752 1879
f 1754 1879 1880
f 1754 1753 1879
f 1755 1880 1881
f 1755 1881 1882
f 1755 1754 1880
f 1756 1755 1882
f 1757 1882 1883
f 1757 1756 1882
f 1758 1883 1884
f 1758 1884 1885
f 1758 1757 1883
f 1759 1758 1885
f 1760 1759 1885
f 1760 1885 1886
f 1761 1760 1886
f 1761 1886 1887
f 1762 1761 1887
f 1762 1887 1888
f 1763 1762 1888
f 1763 1888 1889
f 1764 1763 1889
f 1764 1889 1890
f 1764 1890 1891
f 1765 1764 1891
f 1766 1765 1891
f 1766 1891 1892
f 1767 1766 1892
f 1767 1892 1893
f 1768 1767 1893
f 1768 1893 1894
f 1768 1894 1895
f 1769 1768 1895
f 1770 1769 1895
f 1770 1895 1896
f 1771 1770 1896
f 1771 1896 1897
f 1772 1771 1897
f 1772 1897 1898
f 1646 1898 1645
f 1646 1772 1898
f 1980 1978 1979
f 1974 1975 1976
f 1974 1976 1977
f 1974 1977 1978
f 1983 1978 1980
f 1983 1980 1981
f 1983 1981 1982
f 1972 1974 1978
f 1972 1973 1974
f 1971 1972 1978
f 1986 1984 1985
f 1987 1984 1986
f 1967 1978 1983
f 1967 1971 1978
f 1967 1968 1969
f 1967 1969 1970
f 1967 1970 1971
f 1989 1984 1987
f 1989 1983 1984
f 1989 1987 1988
f 1965 1966 1967
f 1991 1983 1989
f 1991 1989 1990
f 1992 1967 1983
f 1992 1983 1991
f 1962 1963 1964
f 1962 1964 1965
f 1962 1965 1967
f 1994 1992 1993
f 1959 1960 1961
f 1959 1961 1962
f 1997 1992 1994
f 1997 1994 1995
f 1997 1995 1996
f 1957 1958 1959
f 1957 1962 1967
f 1957 1959 1962
f 1999 1992 1997
f 1999 1967 1992
f 1999 1997 1998
f 1956 1957 1967
f 1956 1967 1999
f 2002 2000 2001
f 1952 1999 2000
f 1952 1956 1999
f 1952 1953 1954
f 1952 1954 1955
f 1952 1955 1956
f 2005 2003 2004
f 1949 1950 1951
f 2007 2002 2003
f 2007 2005 2006
f 2007 2003 2005
f 1946 1947 1948
f 1945 1948 1949
f 1945 1946 1948
f 1944 1952 2000
f 1944 1949 1951
f 1944 1945 1949
f 1944 1951 1952
f 2013 2007 2008
f 2013 2008 2009
f 2013 2009 2010
f 2013 2010 2011
f 2013 2011 2012
f 2013 2000 2002
f 2013 2002 2007
f 1941 1942 1943
f 1940 1943 1944
f 1940 1941 1943
f 2016 2014 2015
f 2017 2013 2014
f 2017 2000 2013
f 2017 2014 2016
f 1937 1938 1939
f 2019 2017 2018
f 1935 1936 1937
f 1935 1939 1940
f 1935 1937 1939
f 1899 2019 2020
f 1899 2020 2021
f 1899 2021 2022
f 1899 2022 2023
f 1899 2023 2024
f 1930 1931 1932
f 1929 1930 1932
f 1901 1899 1900
f 1901 2019 1899
f 1901 2017 2019
f 1926 1929 1932
f 1926 2017 1901
f 1926 1927 1928
f 1926 1928 1929
f 1926 1932 1933
f 1926 1933 1934
f 1926 1934 1935
f 1926 1944 2000
f 1926 1940 1944
f 1926 2000 2017
f 1926 1935 1940
f 1904 1901 1902
f 1904 1902 1903
f 1907 1904 1905
f 1907 1905 1906
f 1907 1901 1904
f 1922 1923 1924
f 1922 1924 1925
f 1910 1907 1908
f 1910 1908 1909
f 1919 1920 1921
f 1919 1921 1922
f 1918 1919 1922
f 1912 1910 1911
f 1912 1901 1907
f 1912 1907 1910
f 1916 1917 1918
f 1914 1912 1913
f 1915 1925 1926
f 1915 1926 1901
f 1915 1922 1925
f 1915 1918 1922
f 1915 1901 1912
f 1915 1912 1914
f 1915 1916 1918
