# Cadless export: model
v -30 -20 0
v -30 -20 16
v -30 20 0
v -30 20 16
v 30 -20 0
v 30 -20 16
v -30 -20 0
v -30 -20 16
v -27 -20 16
v -27 -20 24
v -30 -20 24
v -30 -20 40
v -16 -20 40
v 0 -20 24
v 16 -20 40
v 30 -20 40
v 30 -20 24
v 27 -20 24
v 27 -20 16
v -27 -20 16
v -27 20 16
v -30 20 16
v -30 -20 16
v 30 20 0
v 30 20 16
v -30 20 0
v -30 20 16
v -27 20 16
v -27 20 24
v -30 20 24
v -30 20 40
v -16 20 40
v 0 20 24
v 16 20 40
v 30 20 40
v 30 20 24
v 27 20 24
v 27 20 16
v -30 -20 0
v -30 20 0
v 30 -20 0
v 30 20 0
v 30 -20 0
v 30 -20 16
v 30 20 0
v 30 20 16
v 27 -20 16
v 27 20 16
v 30 -20 16
v 30 20 16
v 27 -20 24
v 27 20 24
v 27 -20 16
v 27 20 16
v 27 -20 24
v 27 20 24
v 30 -20 24
v 30 20 24
v 30 -20 24
v 30 -20 40
v 30 20 24
v 30 20 40
v 16 20 40
v 30 20 40
v 16 -20 40
v 30 -20 40
v 16 -20 40
v 0 -20 24
v 0 20 24
v 16 20 40
v 0 -20 24
v 0 20 24
v -16 20 40
v -16 -20 40
v -30 20 40
v -16 20 40
v -30 -20 40
v -16 -20 40
v -30 -20 24
v -30 -20 40
v -30 20 24
v -30 20 40
v -27 -20 24
v -27 20 24
v -30 20 24
v -30 -20 24
v -27 -20 24
v -27 20 24
v -27 -20 16
v -27 20 16
f 2 3 1
f 2 4 3
f 9 8 7
f 12 11 10
f 13 12 10
f 14 10 9
f 14 9 7
f 14 13 10
f 5 14 7
f 19 14 5
f 6 19 5
f 18 14 19
f 15 14 18
f 16 18 17
f 16 15 18
f 21 22 23
f 21 23 20
f 28 26 27
f 31 29 30
f 32 29 31
f 33 28 29
f 33 26 28
f 33 29 32
f 24 26 33
f 38 24 33
f 25 24 38
f 37 38 33
f 34 37 33
f 35 36 37
f 35 37 34
f 42 39 40
f 42 41 39
f 44 43 45
f 44 45 46
f 50 48 47
f 50 47 49
f 53 54 52
f 51 53 52
f 58 55 56
f 58 57 55
f 60 59 61
f 60 61 62
f 63 65 66
f 64 63 66
f 67 69 68
f 67 70 69
f 72 73 74
f 72 74 71
f 75 77 78
f 76 75 78
f 80 81 79
f 80 82 81
f 84 86 85
f 84 83 86
f 89 88 90
f 87 88 89
