# Cadless export: model
v 32 -6.12323e-15 -25
v 32 1.24615 -24.9689
v 32 2.4892 -24.8758
v 32 3.72606 -24.7208
v 32 4.95365 -24.5043
v 32 6.16893 -24.2269
v 32 7.36888 -23.8893
v 32 8.5505 -23.4923
v 32 9.71087 -23.0369
v 32 10.8471 -22.5242
v 32 11.9563 -21.9555
v 32 13.0359 -21.3323
v 32 14.083 -20.656
v 32 15.0951 -19.9283
v 32 16.0697 -19.1511
v 32 17.0043 -18.3263
v 32 17.8967 -17.4559
v 32 18.7445 -16.5421
v 32 19.5458 -15.5872
v 32 20.2985 -14.5936
v 32 21.0006 -13.5637
v 32 21.6506 -12.5
v 32 22.2468 -11.4053
v 32 22.7876 -10.2822
v 32 23.2718 -9.13353
v 32 23.6982 -7.96217
v 32 24.0656 -6.77101
v 32 24.3732 -5.56302
v 32 24.6202 -4.3412
v 32 24.806 -3.10859
v 32 24.9301 -1.86825
v 32 24.9922 -0.623267
v 32 24.9922 0.623267
v 32 24.9301 1.86825
v 32 24.806 3.10859
v 32 24.6202 4.3412
v 32 24.3732 5.56302
v 32 24.0656 6.77101
v 32 23.6982 7.96217
v 32 23.2718 9.13353
v 32 22.7876 10.2822
v 32 22.2468 11.4053
v 32 21.6506 12.5
v 32 21.0006 13.5637
v 32 20.2985 14.5936
v 32 19.5458 15.5872
v 32 18.7445 16.5421
v 32 17.8967 17.4559
v 32 17.0043 18.3263
v 32 16.0697 19.1511
v 32 15.0951 19.9283
v 32 14.083 20.656
v 32 13.0359 21.3323
v 32 11.9563 21.9555
v 32 10.8471 22.5242
v 32 9.71087 23.0369
v 32 8.5505 23.4923
v 32 7.36888 23.8893
v 32 6.16893 24.2269
v 32 4.95365 24.5043
v 32 3.72606 24.7208
v 32 2.4892 24.8758
v 32 1.24615 24.9689
v 32 -8.57562e-14 25
v 32 -1.24615 24.9689
v 32 -2.4892 24.8758
v 32 -3.72606 24.7208
v 32 -4.95365 24.5043
v 32 -6.16893 24.2269
v 32 -7.36888 23.8893
v 32 -8.5505 23.4923
v 32 -9.71087 23.0369
v 32 -10.8471 22.5242
v 32 -11.9563 21.9555
v 32 -13.0359 21.3323
v 32 -14.083 20.656
v 32 -15.0951 19.9283
v 32 -16.0697 19.1511
v 32 -17.0043 18.3263
v 32 -17.8967 17.4559
v 32 -18.7445 16.5421
v 32 -19.5458 15.5872
v 32 -20.2985 14.5936
v 32 -21.0006 13.5637
v 32 -21.6506 12.5
v 32 -22.2468 11.4053
v 32 -22.7876 10.2822
v 32 -23.2718 9.13353
v 32 -23.6982 7.96217
v 32 -24.0656 6.77101
v 32 -24.3732 5.56302
v 32 -24.6202 4.3412
v 32 -24.806 3.10859
v 32 -24.9301 1.86825
v 32 -24.9922 0.623267
v 32 -24.9922 -0.623267
v 32 -24.9301 -1.86825
v 32 -24.806 -3.10859
v 32 -24.6202 -4.3412
v 32 -24.3732 -5.56302
v 32 -24.0656 -6.77101
v 32 -23.6982 -7.96217
v 32 -23.2718 -9.13353
v 32 -22.7876 -10.2822
v 32 -22.2468 -11.4053
v 32 -21.6506 -12.5
v 32 -21.0006 -13.5637
v 32 -20.2985 -14.5936
v 32 -19.5458 -15.5872
v 32 -18.7445 -16.5421
v 32 -17.8967 -17.4559
v 32 -17.0043 -18.3263
v 32 -16.0697 -19.1511
v 32 -15.0951 -19.9283
v 32 -14.083 -20.656
v 32 -13.0359 -21.3323
v 32 -11.9563 -21.9555
v 32 -10.8471 -22.5242
v 32 -9.71087 -23.0369
v 32 -8.5505 -23.4923
v 32 -7.36888 -23.8893
v 32 -6.16893 -24.2269
v 32 -4.95365 -24.5043
v 32 -3.72606 -24.7208
v 32 -2.4892 -24.8758
v 32 -1.24615 -24.9689
v 32 -6.12323e-15 -25
v 2.77556e-15 -6.12323e-15 -25
v 2.77211e-15 1.24615 -24.9689
v 2.76177e-15 2.4892 -24.8758
v 2.74456e-15 3.72606 -24.7208
v 2.72053e-15 4.95365 -24.5043
v 2.68973e-15 6.16893 -24.2269
v 2.65225e-15 7.36888 -23.8893
v 2.60817e-15 8.5505 -23.4923
v 2.55761e-15 9.71087 -23.0369
v 2.50069e-15 10.8471 -22.5242
v 2.43755e-15 11.9563 -21.9555
v 2.36836e-15 13.0359 -21.3323
v 2.29327e-15 14.083 -20.656
v 2.21249e-15 15.0951 -19.9283
v 2.1262e-15 16.0697 -19.1511
v 2.03463e-15 17.0043 -18.3263
v 1.938e-15 17.8967 -17.4559
v 1.83655e-15 18.7445 -16.5421
v 1.73053e-15 19.5458 -15.5872
v 1.62021e-15 20.2985 -14.5936
v 1.50587e-15 21.0006 -13.5637
v 1.38778e-15 21.6506 -12.5
v 1.26624e-15 22.2468 -11.4053
v 1.14155e-15 22.7876 -10.2822
v 1.01403e-15 23.2718 -9.13353
v 8.83978e-16 23.6982 -7.96217
v 7.51733e-16 24.0656 -6.77101
v 6.1762e-16 24.3732 -5.56302
v 4.81971e-16 24.6202 -4.3412
v 3.45123e-16 24.806 -3.10859
v 2.07418e-16 24.9301 -1.86825
v 6.91966e-17 24.9922 -0.623267
v -6.91966e-17 24.9922 0.623267
v -2.07418e-16 24.9301 1.86825
v -3.45123e-16 24.806 3.10859
v -4.81971e-16 24.6202 4.3412
v -6.1762e-16 24.3732 5.56302
v -7.51733e-16 24.0656 6.77101
v -8.83978e-16 23.6982 7.96217
v -1.01403e-15 23.2718 9.13353
v -1.14155e-15 22.7876 10.2822
v -1.26624e-15 22.2468 11.4053
v -1.38778e-15 21.6506 12.5
v -1.50587e-15 21.0006 13.5637
v -1.62021e-15 20.2985 14.5936
v -1.73053e-15 19.5458 15.5872
v -1.83655e-15 18.7445 16.5421
v -1.938e-15 17.8967 17.4559
v -2.03463e-15 17.0043 18.3263
v -2.1262e-15 16.0697 19.1511
v -2.21249e-15 15.0951 19.9283
v -2.29327e-15 14.083 20.656
v -2.36836e-15 13.0359 21.3323
v -2.43755e-15 11.9563 21.9555
v -2.50069e-15 10.8471 22.5242
v -2.55761e-15 9.71087 23.0369
v -2.60817e-15 8.5505 23.4923
v -2.65225e-15 7.36888 23.8893
v -2.68973e-15 6.16893 24.2269
v -2.72053e-15 4.95365 24.5043
v -2.74456e-15 3.72606 24.7208
v -2.76177e-15 2.4892 24.8758
v -2.77211e-15 1.24615 24.9689
v -2.77556e-15 -8.57562e-14 25
v -2.77211e-15 -1.24615 24.9689
v -2.76177e-15 -2.4892 24.8758
v -2.74456e-15 -3.72606 24.7208
v -2.72053e-15 -4.95365 24.5043
v -2.68973e-15 -6.16893 24.2269
v -2.65225e-15 -7.36888 23.8893
v -2.60817e-15 -8.5505 23.4923
v -2.55761e-15 -9.71087 23.0369
v -2.50069e-15 -10.8471 22.5242
v -2.43755e-15 -11.9563 21.9555
v -2.36836e-15 -13.0359 21.3323
v -2.29327e-15 -14.083 20.656
v -2.21249e-15 -15.0951 19.9283
v -2.1262e-15 -16.0697 19.1511
v -2.03463e-15 -17.0043 18.3263
v -1.938e-15 -17.8967 17.4559
v -1.83655e-15 -18.7445 16.5421
v -1.73053e-15 -19.5458 15.5872
v -1.62021e-15 -20.2985 14.5936
v -1.50587e-15 -21.0006 13.5637
v -1.38778e-15 -21.6506 12.5
v -1.26624e-15 -22.2468 11.4053
v -1.14155e-15 -22.7876 10.2822
v -1.01403e-15 -23.2718 9.13353
v -8.83978e-16 -23.6982 7.96217
v -7.51733e-16 -24.0656 6.77101
v -6.1762e-16 -24.3732 5.56302
v -4.81971e-16 -24.6202 4.3412
v -3.45123e-16 -24.806 3.10859
v -2.07418e-16 -24.9301 1.86825
v -6.91966e-17 -24.9922 0.623267
v 6.91966e-17 -24.9922 -0.623267
v 2.07418e-16 -24.9301 -1.86825
v 3.45123e-16 -24.806 -3.10859
v 4.81971e-16 -24.6202 -4.3412
v 6.1762e-16 -24.3732 -5.56302
v 7.51733e-16 -24.0656 -6.77101
v 8.83978e-16 -23.6982 -7.96217
v 1.01403e-15 -23.2718 -9.13353
v 1.14155e-15 -22.7876 -10.2822
v 1.26624e-15 -22.2468 -11.4053
v 1.38778e-15 -21.6506 -12.5
v 1.50587e-15 -21.0006 -13.5637
v 1.62021e-15 -20.2985 -14.5936
v 1.73053e-15 -19.5458 -15.5872
v 1.83655e-15 -18.7445 -16.5421
v 1.938e-15 -17.8967 -17.4559
v 2.03463e-15 -17.0043 -18.3263
v 2.1262e-15 -16.0697 -19.1511
v 2.21249e-15 -15.0951 -19.9283
v 2.29327e-15 -14.083 -20.656
v 2.36836e-15 -13.0359 -21.3323
v 2.43755e-15 -11.9563 -21.9555
v 2.50069e-15 -10.8471 -22.5242
v 2.55761e-15 -9.71087 -23.0369
v 2.60817e-15 -8.5505 -23.4923
v 2.65225e-15 -7.36888 -23.8893
v 2.68973e-15 -6.16893 -24.2269
v 2.72053e-15 -4.95365 -24.5043
v 2.74456e-15 -3.72606 -24.7208
v 2.76177e-15 -2.4892 -24.8758
v 2.77211e-15 -1.24615 -24.9689
v 2.77556e-15 -6.12323e-15 -25
v 32 -1.71451e-14 -70
v 32 3.48921 -69.913
v 32 6.96975 -69.6522
v 32 10.433 -69.2182
v 32 13.8702 -68.6121
v 32 17.273 -67.8354
v 32 20.6329 -66.8901
v 32 23.9414 -65.7785
v 32 27.1904 -64.5033
v 32 30.3719 -63.0678
v 32 33.4778 -61.4755
v 32 36.5005 -59.7304
v 32 39.4324 -57.8367
v 32 42.2663 -55.7993
v 32 44.9951 -53.6231
v 32 47.6121 -51.3136
v 32 50.1107 -48.8766
v 32 52.4847 -46.318
v 32 54.7282 -43.6443
v 32 56.8357 -40.8621
v 32 58.8018 -37.9782
v 32 60.6218 -35
v 32 62.291 -31.9347
v 32 63.8054 -28.7901
v 32 65.1612 -25.5739
v 32 66.3549 -22.2941
v 32 67.3837 -18.9588
v 32 68.245 -15.5765
v 32 68.9365 -12.1554
v 32 69.4567 -8.70406
v 32 69.8043 -5.23111
v 32 69.9782 -1.74515
v 32 69.9782 1.74515
v 32 69.8043 5.23111
v 32 69.4567 8.70406
v 32 68.9365 12.1554
v 32 68.245 15.5765
v 32 67.3837 18.9588
v 32 66.3549 22.2941
v 32 65.1612 25.5739
v 32 63.8054 28.7901
v 32 62.291 31.9347
v 32 60.6218 35
v 32 58.8018 37.9782
v 32 56.8357 40.8621
v 32 54.7282 43.6443
v 32 52.4847 46.318
v 32 50.1107 48.8766
v 32 47.6121 51.3136
v 32 44.9951 53.6231
v 32 42.2663 55.7993
v 32 39.4324 57.8367
v 32 36.5005 59.7304
v 32 33.4778 61.4755
v 32 30.3719 63.0678
v 32 27.1904 64.5033
v 32 23.9414 65.7785
v 32 20.6329 66.8901
v 32 17.273 67.8354
v 32 13.8702 68.6121
v 32 10.433 69.2182
v 32 6.96975 69.6522
v 32 3.48921 69.913
v 32 -2.40117e-13 70
v 32 -3.48921 69.913
v 32 -6.96975 69.6522
v 32 -10.433 69.2182
v 32 -13.8702 68.6121
v 32 -17.273 67.8354
v 32 -20.6329 66.8901
v 32 -23.9414 65.7785
v 32 -27.1904 64.5033
v 32 -30.3719 63.0678
v 32 -33.4778 61.4755
v 32 -36.5005 59.7304
v 32 -39.4324 57.8367
v 32 -42.2663 55.7993
v 32 -44.9951 53.6231
v 32 -47.6121 51.3136
v 32 -50.1107 48.8766
v 32 -52.4847 46.318
v 32 -54.7282 43.6443
v 32 -56.8357 40.8621
v 32 -58.8018 37.9782
v 32 -60.6218 35
v 32 -62.291 31.9347
v 32 -63.8054 28.7901
v 32 -65.1612 25.5739
v 32 -66.3549 22.2941
v 32 -67.3837 18.9588
v 32 -68.245 15.5765
v 32 -68.9365 12.1554
v 32 -69.4567 8.70406
v 32 -69.8043 5.23111
v 32 -69.9782 1.74515
v 32 -69.9782 -1.74515
v 32 -69.8043 -5.23111
v 32 -69.4567 -8.70406
v 32 -68.9365 -12.1554
v 32 -68.245 -15.5765
v 32 -67.3837 -18.9588
v 32 -66.3549 -22.2941
v 32 -65.1612 -25.5739
v 32 -63.8054 -28.7901
v 32 -62.291 -31.9347
v 32 -60.6218 -35
v 32 -58.8018 -37.9782
v 32 -56.8357 -40.8621
v 32 -54.7282 -43.6443
v 32 -52.4847 -46.318
v 32 -50.1107 -48.8766
v 32 -47.6121 -51.3136
v 32 -44.9951 -53.6231
v 32 -42.2663 -55.7993
v 32 -39.4324 -57.8367
v 32 -36.5005 -59.7304
v 32 -33.4778 -61.4755
v 32 -30.3719 -63.0678
v 32 -27.1904 -64.5033
v 32 -23.9414 -65.7785
v 32 -20.6329 -66.8901
v 32 -17.273 -67.8354
v 32 -13.8702 -68.6121
v 32 -10.433 -69.2182
v 32 -6.96975 -69.6522
v 32 -3.48921 -69.913
v 32 -6.12323e-15 -25
v 32 1.24615 -24.9689
v 32 2.4892 -24.8758
v 32 3.72606 -24.7208
v 32 4.95365 -24.5043
v 32 6.16893 -24.2269
v 32 7.36888 -23.8893
v 32 8.5505 -23.4923
v 32 9.71087 -23.0369
v 32 10.8471 -22.5242
v 32 11.9563 -21.9555
v 32 13.0359 -21.3323
v 32 14.083 -20.656
v 32 15.0951 -19.9283
v 32 16.0697 -19.1511
v 32 17.0043 -18.3263
v 32 17.8967 -17.4559
v 32 18.7445 -16.5421
v 32 19.5458 -15.5872
v 32 20.2985 -14.5936
v 32 21.0006 -13.5637
v 32 21.6506 -12.5
v 32 22.2468 -11.4053
v 32 22.7876 -10.2822
v 32 23.2718 -9.13353
v 32 23.6982 -7.96217
v 32 24.0656 -6.77101
v 32 24.3732 -5.56302
v 32 24.6202 -4.3412
v 32 24.806 -3.10859
v 32 24.9301 -1.86825
v 32 24.9922 -0.623267
v 32 24.9922 0.623267
v 32 24.9301 1.86825
v 32 24.806 3.10859
v 32 24.6202 4.3412
v 32 24.3732 5.56302
v 32 24.0656 6.77101
v 32 23.6982 7.96217
v 32 23.2718 9.13353
v 32 22.7876 10.2822
v 32 22.2468 11.4053
v 32 21.6506 12.5
v 32 21.0006 13.5637
v 32 20.2985 14.5936
v 32 19.5458 15.5872
v 32 18.7445 16.5421
v 32 17.8967 17.4559
v 32 17.0043 18.3263
v 32 16.0697 19.1511
v 32 15.0951 19.9283
v 32 14.083 20.656
v 32 13.0359 21.3323
v 32 11.9563 21.9555
v 32 10.8471 22.5242
v 32 9.71087 23.0369
v 32 8.5505 23.4923
v 32 7.36888 23.8893
v 32 6.16893 24.2269
v 32 4.95365 24.5043
v 32 3.72606 24.7208
v 32 2.4892 24.8758
v 32 1.24615 24.9689
v 32 -8.57562e-14 25
v 32 -1.24615 24.9689
v 32 -2.4892 24.8758
v 32 -3.72606 24.7208
v 32 -4.95365 24.5043
v 32 -6.16893 24.2269
v 32 -7.36888 23.8893
v 32 -8.5505 23.4923
v 32 -9.71087 23.0369
v 32 -10.8471 22.5242
v 32 -11.9563 21.9555
v 32 -13.0359 21.3323
v 32 -14.083 20.656
v 32 -15.0951 19.9283
v 32 -16.0697 19.1511
v 32 -17.0043 18.3263
v 32 -17.8967 17.4559
v 32 -18.7445 16.5421
v 32 -19.5458 15.5872
v 32 -20.2985 14.5936
v 32 -21.0006 13.5637
v 32 -21.6506 12.5
v 32 -22.2468 11.4053
v 32 -22.7876 10.2822
v 32 -23.2718 9.13353
v 32 -23.6982 7.96217
v 32 -24.0656 6.77101
v 32 -24.3732 5.56302
v 32 -24.6202 4.3412
v 32 -24.806 3.10859
v 32 -24.9301 1.86825
v 32 -24.9922 0.623267
v 32 -24.9922 -0.623267
v 32 -24.9301 -1.86825
v 32 -24.806 -3.10859
v 32 -24.6202 -4.3412
v 32 -24.3732 -5.56302
v 32 -24.0656 -6.77101
v 32 -23.6982 -7.96217
v 32 -23.2718 -9.13353
v 32 -22.7876 -10.2822
v 32 -22.2468 -11.4053
v 32 -21.6506 -12.5
v 32 -21.0006 -13.5637
v 32 -20.2985 -14.5936
v 32 -19.5458 -15.5872
v 32 -18.7445 -16.5421
v 32 -17.8967 -17.4559
v 32 -17.0043 -18.3263
v 32 -16.0697 -19.1511
v 32 -15.0951 -19.9283
v 32 -14.083 -20.656
v 32 -13.0359 -21.3323
v 32 -11.9563 -21.9555
v 32 -10.8471 -22.5242
v 32 -9.71087 -23.0369
v 32 -8.5505 -23.4923
v 32 -7.36888 -23.8893
v 32 -6.16893 -24.2269
v 32 -4.95365 -24.5043
v 32 -3.72606 -24.7208
v 32 -2.4892 -24.8758
v 32 -1.24615 -24.9689
v 2.77556e-15 -6.12323e-15 -25
v 2.77211e-15 1.24615 -24.9689
v 2.76177e-15 2.4892 -24.8758
v 2.74456e-15 3.72606 -24.7208
v 2.72053e-15 4.95365 -24.5043
v 2.68973e-15 6.16893 -24.2269
v 2.65225e-15 7.36888 -23.8893
v 2.60817e-15 8.5505 -23.4923
v 2.55761e-15 9.71087 -23.0369
v 2.50069e-15 10.8471 -22.5242
v 2.43755e-15 11.9563 -21.9555
v 2.36836e-15 13.0359 -21.3323
v 2.29327e-15 14.083 -20.656
v 2.21249e-15 15.0951 -19.9283
v 2.1262e-15 16.0697 -19.1511
v 2.03463e-15 17.0043 -18.3263
v 1.938e-15 17.8967 -17.4559
v 1.83655e-15 18.7445 -16.5421
v 1.73053e-15 19.5458 -15.5872
v 1.62021e-15 20.2985 -14.5936
v 1.50587e-15 21.0006 -13.5637
v 1.38778e-15 21.6506 -12.5
v 1.26624e-15 22.2468 -11.4053
v 1.14155e-15 22.7876 -10.2822
v 1.01403e-15 23.2718 -9.13353
v 8.83978e-16 23.6982 -7.96217
v 7.51733e-16 24.0656 -6.77101
v 6.1762e-16 24.3732 -5.56302
v 4.81971e-16 24.6202 -4.3412
v 3.45123e-16 24.806 -3.10859
v 2.07418e-16 24.9301 -1.86825
v 6.91966e-17 24.9922 -0.623267
v -6.91966e-17 24.9922 0.623267
v -2.07418e-16 24.9301 1.86825
v -3.45123e-16 24.806 3.10859
v -4.81971e-16 24.6202 4.3412
v -6.1762e-16 24.3732 5.56302
v -7.51733e-16 24.0656 6.77101
v -8.83978e-16 23.6982 7.96217
v -1.01403e-15 23.2718 9.13353
v -1.14155e-15 22.7876 10.2822
v -1.26624e-15 22.2468 11.4053
v -1.38778e-15 21.6506 12.5
v -1.50587e-15 21.0006 13.5637
v -1.62021e-15 20.2985 14.5936
v -1.73053e-15 19.5458 15.5872
v -1.83655e-15 18.7445 16.5421
v -1.938e-15 17.8967 17.4559
v -2.03463e-15 17.0043 18.3263
v -2.1262e-15 16.0697 19.1511
v -2.21249e-15 15.0951 19.9283
v -2.29327e-15 14.083 20.656
v -2.36836e-15 13.0359 21.3323
v -2.43755e-15 11.9563 21.9555
v -2.50069e-15 10.8471 22.5242
v -2.55761e-15 9.71087 23.0369
v -2.60817e-15 8.5505 23.4923
v -2.65225e-15 7.36888 23.8893
v -2.68973e-15 6.16893 24.2269
v -2.72053e-15 4.95365 24.5043
v -2.74456e-15 3.72606 24.7208
v -2.76177e-15 2.4892 24.8758
v -2.77211e-15 1.24615 24.9689
v -2.77556e-15 -8.57562e-14 25
v -2.77211e-15 -1.24615 24.9689
v -2.76177e-15 -2.4892 24.8758
v -2.74456e-15 -3.72606 24.7208
v -2.72053e-15 -4.95365 24.5043
v -2.68973e-15 -6.16893 24.2269
v -2.65225e-15 -7.36888 23.8893
v -2.60817e-15 -8.5505 23.4923
v -2.55761e-15 -9.71087 23.0369
v -2.50069e-15 -10.8471 22.5242
v -2.43755e-15 -11.9563 21.9555
v -2.36836e-15 -13.0359 21.3323
v -2.29327e-15 -14.083 20.656
v -2.21249e-15 -15.0951 19.9283
v -2.1262e-15 -16.0697 19.1511
v -2.03463e-15 -17.0043 18.3263
v -1.938e-15 -17.8967 17.4559
v -1.83655e-15 -18.7445 16.5421
v -1.73053e-15 -19.5458 15.5872
v -1.62021e-15 -20.2985 14.5936
v -1.50587e-15 -21.0006 13.5637
v -1.38778e-15 -21.6506 12.5
v -1.26624e-15 -22.2468 11.4053
v -1.14155e-15 -22.7876 10.2822
v -1.01403e-15 -23.2718 9.13353
v -8.83978e-16 -23.6982 7.96217
v -7.51733e-16 -24.0656 6.77101
v -6.1762e-16 -24.3732 5.56302
v -4.81971e-16 -24.6202 4.3412
v -3.45123e-16 -24.806 3.10859
v -2.07418e-16 -24.9301 1.86825
v -6.91966e-17 -24.9922 0.623267
v 6.91966e-17 -24.9922 -0.623267
v 2.07418e-16 -24.9301 -1.86825
v 3.45123e-16 -24.806 -3.10859
v 4.81971e-16 -24.6202 -4.3412
v 6.1762e-16 -24.3732 -5.56302
v 7.51733e-16 -24.0656 -6.77101
v 8.83978e-16 -23.6982 -7.96217
v 1.01403e-15 -23.2718 -9.13353
v 1.14155e-15 -22.7876 -10.2822
v 1.26624e-15 -22.2468 -11.4053
v 1.38778e-15 -21.6506 -12.5
v 1.50587e-15 -21.0006 -13.5637
v 1.62021e-15 -20.2985 -14.5936
v 1.73053e-15 -19.5458 -15.5872
v 1.83655e-15 -18.7445 -16.5421
v 1.938e-15 -17.8967 -17.4559
v 2.03463e-15 -17.0043 -18.3263
v 2.1262e-15 -16.0697 -19.1511
v 2.21249e-15 -15.0951 -19.9283
v 2.29327e-15 -14.083 -20.656
v 2.36836e-15 -13.0359 -21.3323
v 2.43755e-15 -11.9563 -21.9555
v 2.50069e-15 -10.8471 -22.5242
v 2.55761e-15 -9.71087 -23.0369
v 2.60817e-15 -8.5505 -23.4923
v 2.65225e-15 -7.36888 -23.8893
v 2.68973e-15 -6.16893 -24.2269
v 2.72053e-15 -4.95365 -24.5043
v 2.74456e-15 -3.72606 -24.7208
v 2.76177e-15 -2.4892 -24.8758
v 2.77211e-15 -1.24615 -24.9689
v 50 -1.71451e-14 -70
v 50 3.48921 -69.913
v 50 6.96975 -69.6522
v 50 10.433 -69.2182
v 50 13.8702 -68.6121
v 50 17.273 -67.8354
v 50 20.6329 -66.8901
v 50 23.9414 -65.7785
v 50 27.1904 -64.5033
v 50 30.3719 -63.0678
v 50 33.4778 -61.4755
v 50 36.5005 -59.7304
v 50 39.4324 -57.8367
v 50 42.2663 -55.7993
v 50 44.9951 -53.6231
v 50 47.6121 -51.3136
v 50 50.1107 -48.8766
v 50 52.4847 -46.318
v 50 54.7282 -43.6443
v 50 56.8357 -40.8621
v 50 58.8018 -37.9782
v 50 60.6218 -35
v 50 62.291 -31.9347
v 50 63.8054 -28.7901
v 50 65.1612 -25.5739
v 50 66.3549 -22.2941
v 50 67.3837 -18.9588
v 50 68.245 -15.5765
v 50 68.9365 -12.1554
v 50 69.4567 -8.70406
v 50 69.8043 -5.23111
v 50 69.9782 -1.74515
v 50 69.9782 1.74515
v 50 69.8043 5.23111
v 50 69.4567 8.70406
v 50 68.9365 12.1554
v 50 68.245 15.5765
v 50 67.3837 18.9588
v 50 66.3549 22.2941
v 50 65.1612 25.5739
v 50 63.8054 28.7901
v 50 62.291 31.9347
v 50 60.6218 35
v 50 58.8018 37.9782
v 50 56.8357 40.8621
v 50 54.7282 43.6443
v 50 52.4847 46.318
v 50 50.1107 48.8766
v 50 47.6121 51.3136
v 50 44.9951 53.6231
v 50 42.2663 55.7993
v 50 39.4324 57.8367
v 50 36.5005 59.7304
v 50 33.4778 61.4755
v 50 30.3719 63.0678
v 50 27.1904 64.5033
v 50 23.9414 65.7785
v 50 20.6329 66.8901
v 50 17.273 67.8354
v 50 13.8702 68.6121
v 50 10.433 69.2182
v 50 6.96975 69.6522
v 50 3.48921 69.913
v 50 -2.40117e-13 70
v 50 -3.48921 69.913
v 50 -6.96975 69.6522
v 50 -10.433 69.2182
v 50 -13.8702 68.6121
v 50 -17.273 67.8354
v 50 -20.6329 66.8901
v 50 -23.9414 65.7785
v 50 -27.1904 64.5033
v 50 -30.3719 63.0678
v 50 -33.4778 61.4755
v 50 -36.5005 59.7304
v 50 -39.4324 57.8367
v 50 -42.2663 55.7993
v 50 -44.9951 53.6231
v 50 -47.6121 51.3136
v 50 -50.1107 48.8766
v 50 -52.4847 46.318
v 50 -54.7282 43.6443
v 50 -56.8357 40.8621
v 50 -58.8018 37.9782
v 50 -60.6218 35
v 50 -62.291 31.9347
v 50 -63.8054 28.7901
v 50 -65.1612 25.5739
v 50 -66.3549 22.2941
v 50 -67.3837 18.9588
v 50 -68.245 15.5765
v 50 -68.9365 12.1554
v 50 -69.4567 8.70406
v 50 -69.8043 5.23111
v 50 -69.9782 1.74515
v 50 -69.9782 -1.74515
v 50 -69.8043 -5.23111
v 50 -69.4567 -8.70406
v 50 -68.9365 -12.1554
v 50 -68.245 -15.5765
v 50 -67.3837 -18.9588
v 50 -66.3549 -22.2941
v 50 -65.1612 -25.5739
v 50 -63.8054 -28.7901
v 50 -62.291 -31.9347
v 50 -60.6218 -35
v 50 -58.8018 -37.9782
v 50 -56.8357 -40.8621
v 50 -54.7282 -43.6443
v 50 -52.4847 -46.318
v 50 -50.1107 -48.8766
v 50 -47.6121 -51.3136
v 50 -44.9951 -53.6231
v 50 -42.2663 -55.7993
v 50 -39.4324 -57.8367
v 50 -36.5005 -59.7304
v 50 -33.4778 -61.4755
v 50 -30.3719 -63.0678
v 50 -27.1904 -64.5033
v 50 -23.9414 -65.7785
v 50 -20.6329 -66.8901
v 50 -17.273 -67.8354
v 50 -13.8702 -68.6121
v 50 -10.433 -69.2182
v 50 -6.96975 -69.6522
v 50 -3.48921 -69.913
v 50 -1.71451e-14 -70
v 32 -1.71451e-14 -70
v 32 3.48921 -69.913
v 32 6.96975 -69.6522
v 32 10.433 -69.2182
v 32 13.8702 -68.6121
v 32 17.273 -67.8354
v 32 20.6329 -66.8901
v 32 23.9414 -65.7785
v 32 27.1904 -64.5033
v 32 30.3719 -63.0678
v 32 33.4778 -61.4755
v 32 36.5005 -59.7304
v 32 39.4324 -57.8367
v 32 42.2663 -55.7993
v 32 44.9951 -53.6231
v 32 47.6121 -51.3136
v 32 50.1107 -48.8766
v 32 52.4847 -46.318
v 32 54.7282 -43.6443
v 32 56.8357 -40.8621
v 32 58.8018 -37.9782
v 32 60.6218 -35
v 32 62.291 -31.9347
v 32 63.8054 -28.7901
v 32 65.1612 -25.5739
v 32 66.3549 -22.2941
v 32 67.3837 -18.9588
v 32 68.245 -15.5765
v 32 68.9365 -12.1554
v 32 69.4567 -8.70406
v 32 69.8043 -5.23111
v 32 69.9782 -1.74515
v 32 69.9782 1.74515
v 32 69.8043 5.23111
v 32 69.4567 8.70406
v 32 68.9365 12.1554
v 32 68.245 15.5765
v 32 67.3837 18.9588
v 32 66.3549 22.2941
v 32 65.1612 25.5739
v 32 63.8054 28.7901
v 32 62.291 31.9347
v 32 60.6218 35
v 32 58.8018 37.9782
v 32 56.8357 40.8621
v 32 54.7282 43.6443
v 32 52.4847 46.318
v 32 50.1107 48.8766
v 32 47.6121 51.3136
v 32 44.9951 53.6231
v 32 42.2663 55.7993
v 32 39.4324 57.8367
v 32 36.5005 59.7304
v 32 33.4778 61.4755
v 32 30.3719 63.0678
v 32 27.1904 64.5033
v 32 23.9414 65.7785
v 32 20.6329 66.8901
v 32 17.273 67.8354
v 32 13.8702 68.6121
v 32 10.433 69.2182
v 32 6.96975 69.6522
v 32 3.48921 69.913
v 32 -2.40117e-13 70
v 32 -3.48921 69.913
v 32 -6.96975 69.6522
v 32 -10.433 69.2182
v 32 -13.8702 68.6121
v 32 -17.273 67.8354
v 32 -20.6329 66.8901
v 32 -23.9414 65.7785
v 32 -27.1904 64.5033
v 32 -30.3719 63.0678
v 32 -33.4778 61.4755
v 32 -36.5005 59.7304
v 32 -39.4324 57.8367
v 32 -42.2663 55.7993
v 32 -44.9951 53.6231
v 32 -47.6121 51.3136
v 32 -50.1107 48.8766
v 32 -52.4847 46.318
v 32 -54.7282 43.6443
v 32 -56.8357 40.8621
v 32 -58.8018 37.9782
v 32 -60.6218 35
v 32 -62.291 31.9347
v 32 -63.8054 28.7901
v 32 -65.1612 25.5739
v 32 -66.3549 22.2941
v 32 -67.3837 18.9588
v 32 -68.245 15.5765
v 32 -68.9365 12.1554
v 32 -69.4567 8.70406
v 32 -69.8043 5.23111
v 32 -69.9782 1.74515
v 32 -69.9782 -1.74515
v 32 -69.8043 -5.23111
v 32 -69.4567 -8.70406
v 32 -68.9365 -12.1554
v 32 -68.245 -15.5765
v 32 -67.3837 -18.9588
v 32 -66.3549 -22.2941
v 32 -65.1612 -25.5739
v 32 -63.8054 -28.7901
v 32 -62.291 -31.9347
v 32 -60.6218 -35
v 32 -58.8018 -37.9782
v 32 -56.8357 -40.8621
v 32 -54.7282 -43.6443
v 32 -52.4847 -46.318
v 32 -50.1107 -48.8766
v 32 -47.6121 -51.3136
v 32 -44.9951 -53.6231
v 32 -42.2663 -55.7993
v 32 -39.4324 -57.8367
v 32 -36.5005 -59.7304
v 32 -33.4778 -61.4755
v 32 -30.3719 -63.0678
v 32 -27.1904 -64.5033
v 32 -23.9414 -65.7785
v 32 -20.6329 -66.8901
v 32 -17.273 -67.8354
v 32 -13.8702 -68.6121
v 32 -10.433 -69.2182
v 32 -6.96975 -69.6522
v 32 -3.48921 -69.913
v 32 -1.71451e-14 -70
v 50 -1.71451e-14 -70
v 50 3.48921 -69.913
v 50 6.96975 -69.6522
v 50 10.433 -69.2182
v 50 13.8702 -68.6121
v 50 17.273 -67.8354
v 50 20.6329 -66.8901
v 50 23.9414 -65.7785
v 50 27.1904 -64.5033
v 50 30.3719 -63.0678
v 50 33.4778 -61.4755
v 50 36.5005 -59.7304
v 50 39.4324 -57.8367
v 50 42.2663 -55.7993
v 50 44.9951 -53.6231
v 50 47.6121 -51.3136
v 50 50.1107 -48.8766
v 50 52.4847 -46.318
v 50 54.7282 -43.6443
v 50 56.8357 -40.8621
v 50 58.8018 -37.9782
v 50 60.6218 -35
v 50 62.291 -31.9347
v 50 63.8054 -28.7901
v 50 65.1612 -25.5739
v 50 66.3549 -22.2941
v 50 67.3837 -18.9588
v 50 68.245 -15.5765
v 50 68.9365 -12.1554
v 50 69.4567 -8.70406
v 50 69.8043 -5.23111
v 50 69.9782 -1.74515
v 50 69.9782 1.74515
v 50 69.8043 5.23111
v 50 69.4567 8.70406
v 50 68.9365 12.1554
v 50 68.245 15.5765
v 50 67.3837 18.9588
v 50 66.3549 22.2941
v 50 65.1612 25.5739
v 50 63.8054 28.7901
v 50 62.291 31.9347
v 50 60.6218 35
v 50 58.8018 37.9782
v 50 56.8357 40.8621
v 50 54.7282 43.6443
v 50 52.4847 46.318
v 50 50.1107 48.8766
v 50 47.6121 51.3136
v 50 44.9951 53.6231
v 50 42.2663 55.7993
v 50 39.4324 57.8367
v 50 36.5005 59.7304
v 50 33.4778 61.4755
v 50 30.3719 63.0678
v 50 27.1904 64.5033
v 50 23.9414 65.7785
v 50 20.6329 66.8901
v 50 17.273 67.8354
v 50 13.8702 68.6121
v 50 10.433 69.2182
v 50 6.96975 69.6522
v 50 3.48921 69.913
v 50 -2.40117e-13 70
v 50 -3.48921 69.913
v 50 -6.96975 69.6522
v 50 -10.433 69.2182
v 50 -13.8702 68.6121
v 50 -17.273 67.8354
v 50 -20.6329 66.8901
v 50 -23.9414 65.7785
v 50 -27.1904 64.5033
v 50 -30.3719 63.0678
v 50 -33.4778 61.4755
v 50 -36.5005 59.7304
v 50 -39.4324 57.8367
v 50 -42.2663 55.7993
v 50 -44.9951 53.6231
v 50 -47.6121 51.3136
v 50 -50.1107 48.8766
v 50 -52.4847 46.318
v 50 -54.7282 43.6443
v 50 -56.8357 40.8621
v 50 -58.8018 37.9782
v 50 -60.6218 35
v 50 -62.291 31.9347
v 50 -63.8054 28.7901
v 50 -65.1612 25.5739
v 50 -66.3549 22.2941
v 50 -67.3837 18.9588
v 50 -68.245 15.5765
v 50 -68.9365 12.1554
v 50 -69.4567 8.70406
v 50 -69.8043 5.23111
v 50 -69.9782 1.74515
v 50 -69.9782 -1.74515
v 50 -69.8043 -5.23111
v 50 -69.4567 -8.70406
v 50 -68.9365 -12.1554
v 50 -68.245 -15.5765
v 50 -67.3837 -18.9588
v 50 -66.3549 -22.2941
v 50 -65.1612 -25.5739
v 50 -63.8054 -28.7901
v 50 -62.291 -31.9347
v 50 -60.6218 -35
v 50 -58.8018 -37.9782
v 50 -56.8357 -40.8621
v 50 -54.7282 -43.6443
v 50 -52.4847 -46.318
v 50 -50.1107 -48.8766
v 50 -47.6121 -51.3136
v 50 -44.9951 -53.6231
v 50 -42.2663 -55.7993
v 50 -39.4324 -57.8367
v 50 -36.5005 -59.7304
v 50 -33.4778 -61.4755
v 50 -30.3719 -63.0678
v 50 -27.1904 -64.5033
v 50 -23.9414 -65.7785
v 50 -20.6329 -66.8901
v 50 -17.273 -67.8354
v 50 -13.8702 -68.6121
v 50 -10.433 -69.2182
v 50 -6.96975 -69.6522
v 50 -3.48921 -69.913
v 50 -5.51091e-15 20.5
v 50 1.12153 20.528
v 50 2.24028 20.6118
v 50 3.35345 20.7513
v 50 4.45829 20.9461
v 50 5.55204 21.1958
v 50 6.63199 21.4996
v 50 7.69545 21.8569
v 50 8.73978 22.2668
v 50 9.76238 22.7282
v 50 10.7607 23.24
v 50 11.7323 23.801
v 50 12.6747 24.4096
v 50 13.5856 25.0645
v 50 14.4627 25.764
v 50 15.3039 26.5063
v 50 16.107 27.2897
v 50 16.8701 28.1121
v 50 17.5912 28.9715
v 50 18.2686 29.8658
v 50 18.9006 30.7927
v 50 19.4856 31.75
v 50 20.0221 32.7353
v 50 20.5089 33.746
v 50 20.9447 34.7798
v 50 21.3284 35.8341
v 50 21.659 36.9061
v 50 21.9359 37.9933
v 50 22.1582 39.0929
v 50 22.3254 40.2023
v 50 22.4371 41.3186
v 50 22.493 42.4391
v 50 22.493 43.5609
v 50 22.4371 44.6814
v 50 22.3254 45.7977
v 50 22.1582 46.9071
v 50 21.9359 48.0067
v 50 21.659 49.0939
v 50 21.3284 50.1659
v 50 20.9447 51.2202
v 50 20.5089 52.254
v 50 20.0221 53.2647
v 50 19.4856 54.25
v 50 18.9006 55.2073
v 50 18.2686 56.1342
v 50 17.5912 57.0285
v 50 16.8701 57.8879
v 50 16.107 58.7103
v 50 15.3039 59.4937
v 50 14.4627 60.236
v 50 13.5856 60.9355
v 50 12.6747 61.5904
v 50 11.7323 62.199
v 50 10.7607 62.76
v 50 9.76238 63.2718
v 50 8.73978 63.7332
v 50 7.69545 64.1431
v 50 6.63199 64.5004
v 50 5.55204 64.8042
v 50 4.45829 65.0539
v 50 3.35345 65.2487
v 50 2.24028 65.3882
v 50 1.12153 65.472
v 50 -7.71806e-14 65.5
v 50 -1.12153 65.472
v 50 -2.24028 65.3882
v 50 -3.35345 65.2487
v 50 -4.45829 65.0539
v 50 -5.55204 64.8042
v 50 -6.63199 64.5004
v 50 -7.69545 64.1431
v 50 -8.73978 63.7332
v 50 -9.76238 63.2718
v 50 -10.7607 62.76
v 50 -11.7323 62.199
v 50 -12.6747 61.5904
v 50 -13.5856 60.9355
v 50 -14.4627 60.236
v 50 -15.3039 59.4937
v 50 -16.107 58.7103
v 50 -16.8701 57.8879
v 50 -17.5912 57.0285
v 50 -18.2686 56.1342
v 50 -18.9006 55.2073
v 50 -19.4856 54.25
v 50 -20.0221 53.2647
v 50 -20.5089 52.254
v 50 -20.9447 51.2202
v 50 -21.3284 50.1659
v 50 -21.659 49.0939
v 50 -21.9359 48.0067
v 50 -22.1582 46.9071
v 50 -22.3254 45.7977
v 50 -22.4371 44.6814
v 50 -22.493 43.5609
v 50 -22.493 42.4391
v 50 -22.4371 41.3186
v 50 -22.3254 40.2023
v 50 -22.1582 39.0929
v 50 -21.9359 37.9933
v 50 -21.659 36.9061
v 50 -21.3284 35.8341
v 50 -20.9447 34.7798
v 50 -20.5089 33.746
v 50 -20.0221 32.7353
v 50 -19.4856 31.75
v 50 -18.9006 30.7927
v 50 -18.2686 29.8658
v 50 -17.5912 28.9715
v 50 -16.8701 28.1121
v 50 -16.107 27.2897
v 50 -15.3039 26.5063
v 50 -14.4627 25.764
v 50 -13.5856 25.0645
v 50 -12.6747 24.4096
v 50 -11.7323 23.801
v 50 -10.7607 23.24
v 50 -9.76238 22.7282
v 50 -8.73978 22.2668
v 50 -7.69545 21.8569
v 50 -6.63199 21.4996
v 50 -5.55204 21.1958
v 50 -4.45829 20.9461
v 50 -3.35345 20.7513
v 50 -2.24028 20.6118
v 50 -1.12153 20.528
v 50 -5.51091e-15 20.5
v 50 1.12153 20.528
v 50 2.24028 20.6118
v 50 3.35345 20.7513
v 50 4.45829 20.9461
v 50 5.55204 21.1958
v 50 6.63199 21.4996
v 50 7.69545 21.8569
v 50 8.73978 22.2668
v 50 9.76238 22.7282
v 50 10.7607 23.24
v 50 11.7323 23.801
v 50 12.6747 24.4096
v 50 13.5856 25.0645
v 50 14.4627 25.764
v 50 15.3039 26.5063
v 50 16.107 27.2897
v 50 16.8701 28.1121
v 50 17.5912 28.9715
v 50 18.2686 29.8658
v 50 18.9006 30.7927
v 50 19.4856 31.75
v 50 20.0221 32.7353
v 50 20.5089 33.746
v 50 20.9447 34.7798
v 50 21.3284 35.8341
v 50 21.659 36.9061
v 50 21.9359 37.9933
v 50 22.1582 39.0929
v 50 22.3254 40.2023
v 50 22.4371 41.3186
v 50 22.493 42.4391
v 50 22.493 43.5609
v 50 22.4371 44.6814
v 50 22.3254 45.7977
v 50 22.1582 46.9071
v 50 21.9359 48.0067
v 50 21.659 49.0939
v 50 21.3284 50.1659
v 50 20.9447 51.2202
v 50 20.5089 52.254
v 50 20.0221 53.2647
v 50 19.4856 54.25
v 50 18.9006 55.2073
v 50 18.2686 56.1342
v 50 17.5912 57.0285
v 50 16.8701 57.8879
v 50 16.107 58.7103
v 50 15.3039 59.4937
v 50 14.4627 60.236
v 50 13.5856 60.9355
v 50 12.6747 61.5904
v 50 11.7323 62.199
v 50 10.7607 62.76
v 50 9.76238 63.2718
v 50 8.73978 63.7332
v 50 7.69545 64.1431
v 50 6.63199 64.5004
v 50 5.55204 64.8042
v 50 4.45829 65.0539
v 50 3.35345 65.2487
v 50 2.24028 65.3882
v 50 1.12153 65.472
v 50 -7.71806e-14 65.5
v 50 -1.12153 65.472
v 50 -2.24028 65.3882
v 50 -3.35345 65.2487
v 50 -4.45829 65.0539
v 50 -5.55204 64.8042
v 50 -6.63199 64.5004
v 50 -7.69545 64.1431
v 50 -8.73978 63.7332
v 50 -9.76238 63.2718
v 50 -10.7607 62.76
v 50 -11.7323 62.199
v 50 -12.6747 61.5904
v 50 -13.5856 60.9355
v 50 -14.4627 60.236
v 50 -15.3039 59.4937
v 50 -16.107 58.7103
v 50 -16.8701 57.8879
v 50 -17.5912 57.0285
v 50 -18.2686 56.1342
v 50 -18.9006 55.2073
v 50 -19.4856 54.25
v 50 -20.0221 53.2647
v 50 -20.5089 52.254
v 50 -20.9447 51.2202
v 50 -21.3284 50.1659
v 50 -21.659 49.0939
v 50 -21.9359 48.0067
v 50 -22.1582 46.9071
v 50 -22.3254 45.7977
v 50 -22.4371 44.6814
v 50 -22.493 43.5609
v 50 -22.493 42.4391
v 50 -22.4371 41.3186
v 50 -22.3254 40.2023
v 50 -22.1582 39.0929
v 50 -21.9359 37.9933
v 50 -21.659 36.9061
v 50 -21.3284 35.8341
v 50 -20.9447 34.7798
v 50 -20.5089 33.746
v 50 -20.0221 32.7353
v 50 -19.4856 31.75
v 50 -18.9006 30.7927
v 50 -18.2686 29.8658
v 50 -17.5912 28.9715
v 50 -16.8701 28.1121
v 50 -16.107 27.2897
v 50 -15.3039 26.5063
v 50 -14.4627 25.764
v 50 -13.5856 25.0645
v 50 -12.6747 24.4096
v 50 -11.7323 23.801
v 50 -10.7607 23.24
v 50 -9.76238 22.7282
v 50 -8.73978 22.2668
v 50 -7.69545 21.8569
v 50 -6.63199 21.4996
v 50 -5.55204 21.1958
v 50 -4.45829 20.9461
v 50 -3.35345 20.7513
v 50 -2.24028 20.6118
v 50 -1.12153 20.528
v 50 -5.51091e-15 20.5
v 80 -5.51091e-15 20.5
v 80 -5.51091e-15 20.5
v 80 1.12153 20.528
v 80 2.24028 20.6118
v 80 3.35345 20.7513
v 80 4.45829 20.9461
v 80 5.55204 21.1958
v 80 6.63199 21.4996
v 80 7.69545 21.8569
v 80 8.73978 22.2668
v 80 9.76238 22.7282
v 80 10.7607 23.24
v 80 11.7323 23.801
v 80 12.6747 24.4096
v 80 13.5856 25.0645
v 80 14.4627 25.764
v 80 15.3039 26.5063
v 80 16.107 27.2897
v 80 16.8701 28.1121
v 80 17.5912 28.9715
v 80 18.2686 29.8658
v 80 18.9006 30.7927
v 80 19.4856 31.75
v 80 20.0221 32.7353
v 80 20.5089 33.746
v 80 20.9447 34.7798
v 80 21.3284 35.8341
v 80 21.659 36.9061
v 80 21.9359 37.9933
v 80 22.1582 39.0929
v 80 22.3254 40.2023
v 80 22.4371 41.3186
v 80 22.493 42.4391
v 80 22.493 43.5609
v 80 22.4371 44.6814
v 80 22.3254 45.7977
v 80 22.1582 46.9071
v 80 21.9359 48.0067
v 80 21.659 49.0939
v 80 21.3284 50.1659
v 80 20.9447 51.2202
v 80 20.5089 52.254
v 80 20.0221 53.2647
v 80 19.4856 54.25
v 80 18.9006 55.2073
v 80 18.2686 56.1342
v 80 17.5912 57.0285
v 80 16.8701 57.8879
v 80 16.107 58.7103
v 80 15.3039 59.4937
v 80 14.4627 60.236
v 80 13.5856 60.9355
v 80 12.6747 61.5904
v 80 11.7323 62.199
v 80 10.7607 62.76
v 80 9.76238 63.2718
v 80 8.73978 63.7332
v 80 7.69545 64.1431
v 80 6.63199 64.5004
v 80 5.55204 64.8042
v 80 4.45829 65.0539
v 80 3.35345 65.2487
v 80 2.24028 65.3882
v 80 1.12153 65.472
v 80 -7.71806e-14 65.5
v 80 -1.12153 65.472
v 80 -2.24028 65.3882
v 80 -3.35345 65.2487
v 80 -4.45829 65.0539
v 80 -5.55204 64.8042
v 80 -6.63199 64.5004
v 80 -7.69545 64.1431
v 80 -8.73978 63.7332
v 80 -9.76238 63.2718
v 80 -10.7607 62.76
v 80 -11.7323 62.199
v 80 -12.6747 61.5904
v 80 -13.5856 60.9355
v 80 -14.4627 60.236
v 80 -15.3039 59.4937
v 80 -16.107 58.7103
v 80 -16.8701 57.8879
v 80 -17.5912 57.0285
v 80 -18.2686 56.1342
v 80 -18.9006 55.2073
v 80 -19.4856 54.25
v 80 -20.0221 53.2647
v 80 -20.5089 52.254
v 80 -20.9447 51.2202
v 80 -21.3284 50.1659
v 80 -21.659 49.0939
v 80 -21.9359 48.0067
v 80 -22.1582 46.9071
v 80 -22.3254 45.7977
v 80 -22.4371 44.6814
v 80 -22.493 43.5609
v 80 -22.493 42.4391
v 80 -22.4371 41.3186
v 80 -22.3254 40.2023
v 80 -22.1582 39.0929
v 80 -21.9359 37.9933
v 80 -21.659 36.9061
v 80 -21.3284 35.8341
v 80 -20.9447 34.7798
v 80 -20.5089 33.746
v 80 -20.0221 32.7353
v 80 -19.4856 31.75
v 80 -18.9006 30.7927
v 80 -18.2686 29.8658
v 80 -17.5912 28.9715
v 80 -16.8701 28.1121
v 80 -16.107 27.2897
v 80 -15.3039 26.5063
v 80 -14.4627 25.764
v 80 -13.5856 25.0645
v 80 -12.6747 24.4096
v 80 -11.7323 23.801
v 80 -10.7607 23.24
v 80 -9.76238 22.7282
v 80 -8.73978 22.2668
v 80 -7.69545 21.8569
v 80 -6.63199 21.4996
v 80 -5.55204 21.1958
v 80 -4.45829 20.9461
v 80 -3.35345 20.7513
v 80 -2.24028 20.6118
v 80 -1.12153 20.528
v 80 -1.71451e-14 -70
v 80 3.48921 -69.913
v 80 6.96975 -69.6522
v 80 10.433 -69.2182
v 80 13.8702 -68.6121
v 80 17.273 -67.8354
v 80 20.6329 -66.8901
v 80 23.9414 -65.7785
v 80 27.1904 -64.5033
v 80 30.3719 -63.0678
v 80 33.4778 -61.4755
v 80 36.5005 -59.7304
v 80 39.4324 -57.8367
v 80 42.2663 -55.7993
v 80 44.9951 -53.6231
v 80 47.6121 -51.3136
v 80 50.1107 -48.8766
v 80 52.4847 -46.318
v 80 54.7282 -43.6443
v 80 56.8357 -40.8621
v 80 58.8018 -37.9782
v 80 60.6218 -35
v 80 62.291 -31.9347
v 80 63.8054 -28.7901
v 80 65.1612 -25.5739
v 80 66.3549 -22.2941
v 80 67.3837 -18.9588
v 80 68.245 -15.5765
v 80 68.9365 -12.1554
v 80 69.4567 -8.70406
v 80 69.8043 -5.23111
v 80 69.9782 -1.74515
v 80 69.9782 1.74515
v 80 69.8043 5.23111
v 80 69.4567 8.70406
v 80 68.9365 12.1554
v 80 68.245 15.5765
v 80 67.3837 18.9588
v 80 66.3549 22.2941
v 80 65.1612 25.5739
v 80 63.8054 28.7901
v 80 62.291 31.9347
v 80 60.6218 35
v 80 58.8018 37.9782
v 80 56.8357 40.8621
v 80 54.7282 43.6443
v 80 52.4847 46.318
v 80 50.1107 48.8766
v 80 47.6121 51.3136
v 80 44.9951 53.6231
v 80 42.2663 55.7993
v 80 39.4324 57.8367
v 80 36.5005 59.7304
v 80 33.4778 61.4755
v 80 30.3719 63.0678
v 80 27.1904 64.5033
v 80 23.9414 65.7785
v 80 20.6329 66.8901
v 80 17.273 67.8354
v 80 13.8702 68.6121
v 80 10.433 69.2182
v 80 6.96975 69.6522
v 80 3.48921 69.913
v 80 -2.40117e-13 70
v 80 -3.48921 69.913
v 80 -6.96975 69.6522
v 80 -10.433 69.2182
v 80 -13.8702 68.6121
v 80 -17.273 67.8354
v 80 -20.6329 66.8901
v 80 -23.9414 65.7785
v 80 -27.1904 64.5033
v 80 -30.3719 63.0678
v 80 -33.4778 61.4755
v 80 -36.5005 59.7304
v 80 -39.4324 57.8367
v 80 -42.2663 55.7993
v 80 -44.9951 53.6231
v 80 -47.6121 51.3136
v 80 -50.1107 48.8766
v 80 -52.4847 46.318
v 80 -54.7282 43.6443
v 80 -56.8357 40.8621
v 80 -58.8018 37.9782
v 80 -60.6218 35
v 80 -62.291 31.9347
v 80 -63.8054 28.7901
v 80 -65.1612 25.5739
v 80 -66.3549 22.2941
v 80 -67.3837 18.9588
v 80 -68.245 15.5765
v 80 -68.9365 12.1554
v 80 -69.4567 8.70406
v 80 -69.8043 5.23111
v 80 -69.9782 1.74515
v 80 -69.9782 -1.74515
v 80 -69.8043 -5.23111
v 80 -69.4567 -8.70406
v 80 -68.9365 -12.1554
v 80 -68.245 -15.5765
v 80 -67.3837 -18.9588
v 80 -66.3549 -22.2941
v 80 -65.1612 -25.5739
v 80 -63.8054 -28.7901
v 80 -62.291 -31.9347
v 80 -60.6218 -35
v 80 -58.8018 -37.9782
v 80 -56.8357 -40.8621
v 80 -54.7282 -43.6443
v 80 -52.4847 -46.318
v 80 -50.1107 -48.8766
v 80 -47.6121 -51.3136
v 80 -44.9951 -53.6231
v 80 -42.2663 -55.7993
v 80 -39.4324 -57.8367
v 80 -36.5005 -59.7304
v 80 -33.4778 -61.4755
v 80 -30.3719 -63.0678
v 80 -27.1904 -64.5033
v 80 -23.9414 -65.7785
v 80 -20.6329 -66.8901
v 80 -17.273 -67.8354
v 80 -13.8702 -68.6121
v 80 -10.433 -69.2182
v 80 -6.96975 -69.6522
v 80 -3.48921 -69.913
v 80 -5.51091e-15 20.5
v 80 1.12153 20.528
v 80 2.24028 20.6118
v 80 3.35345 20.7513
v 80 4.45829 20.9461
v 80 5.55204 21.1958
v 80 6.63199 21.4996
v 80 7.69545 21.8569
v 80 8.73978 22.2668
v 80 9.76238 22.7282
v 80 10.7607 23.24
v 80 11.7323 23.801
v 80 12.6747 24.4096
v 80 13.5856 25.0645
v 80 14.4627 25.764
v 80 15.3039 26.5063
v 80 16.107 27.2897
v 80 16.8701 28.1121
v 80 17.5912 28.9715
v 80 18.2686 29.8658
v 80 18.9006 30.7927
v 80 19.4856 31.75
v 80 20.0221 32.7353
v 80 20.5089 33.746
v 80 20.9447 34.7798
v 80 21.3284 35.8341
v 80 21.659 36.9061
v 80 21.9359 37.9933
v 80 22.1582 39.0929
v 80 22.3254 40.2023
v 80 22.4371 41.3186
v 80 22.493 42.4391
v 80 22.493 43.5609
v 80 22.4371 44.6814
v 80 22.3254 45.7977
v 80 22.1582 46.9071
v 80 21.9359 48.0067
v 80 21.659 49.0939
v 80 21.3284 50.1659
v 80 20.9447 51.2202
v 80 20.5089 52.254
v 80 20.0221 53.2647
v 80 19.4856 54.25
v 80 18.9006 55.2073
v 80 18.2686 56.1342
v 80 17.5912 57.0285
v 80 16.8701 57.8879
v 80 16.107 58.7103
v 80 15.3039 59.4937
v 80 14.4627 60.236
v 80 13.5856 60.9355
v 80 12.6747 61.5904
v 80 11.7323 62.199
v 80 10.7607 62.76
v 80 9.76238 63.2718
v 80 8.73978 63.7332
v 80 7.69545 64.1431
v 80 6.63199 64.5004
v 80 5.55204 64.8042
v 80 4.45829 65.0539
v 80 3.35345 65.2487
v 80 2.24028 65.3882
v 80 1.12153 65.472
v 80 -7.71806e-14 65.5
v 80 -1.12153 65.472
v 80 -2.24028 65.3882
v 80 -3.35345 65.2487
v 80 -4.45829 65.0539
v 80 -5.55204 64.8042
v 80 -6.63199 64.5004
v 80 -7.69545 64.1431
v 80 -8.73978 63.7332
v 80 -9.76238 63.2718
v 80 -10.7607 62.76
v 80 -11.7323 62.199
v 80 -12.6747 61.5904
v 80 -13.5856 60.9355
v 80 -14.4627 60.236
v 80 -15.3039 59.4937
v 80 -16.107 58.7103
v 80 -16.8701 57.8879
v 80 -17.5912 57.0285
v 80 -18.2686 56.1342
v 80 -18.9006 55.2073
v 80 -19.4856 54.25
v 80 -20.0221 53.2647
v 80 -20.5089 52.254
v 80 -20.9447 51.2202
v 80 -21.3284 50.1659
v 80 -21.659 49.0939
v 80 -21.9359 48.0067
v 80 -22.1582 46.9071
v 80 -22.3254 45.7977
v 80 -22.4371 44.6814
v 80 -22.493 43.5609
v 80 -22.493 42.4391
v 80 -22.4371 41.3186
v 80 -22.3254 40.2023
v 80 -22.1582 39.0929
v 80 -21.9359 37.9933
v 80 -21.659 36.9061
v 80 -21.3284 35.8341
v 80 -20.9447 34.7798
v 80 -20.5089 33.746
v 80 -20.0221 32.7353
v 80 -19.4856 31.75
v 80 -18.9006 30.7927
v 80 -18.2686 29.8658
v 80 -17.5912 28.9715
v 80 -16.8701 28.1121
v 80 -16.107 27.2897
v 80 -15.3039 26.5063
v 80 -14.4627 25.764
v 80 -13.5856 25.0645
v 80 -12.6747 24.4096
v 80 -11.7323 23.801
v 80 -10.7607 23.24
v 80 -9.76238 22.7282
v 80 -8.73978 22.2668
v 80 -7.69545 21.8569
v 80 -6.63199 21.4996
v 80 -5.55204 21.1958
v 80 -4.45829 20.9461
v 80 -3.35345 20.7513
v 80 -2.24028 20.6118
v 80 -1.12153 20.528
v 98 -1.71451e-14 -70
v 98 3.48921 -69.913
v 98 6.96975 -69.6522
v 98 10.433 -69.2182
v 98 13.8702 -68.6121
v 98 17.273 -67.8354
v 98 20.6329 -66.8901
v 98 23.9414 -65.7785
v 98 27.1904 -64.5033
v 98 30.3719 -63.0678
v 98 33.4778 -61.4755
v 98 36.5005 -59.7304
v 98 39.4324 -57.8367
v 98 42.2663 -55.7993
v 98 44.9951 -53.6231
v 98 47.6121 -51.3136
v 98 50.1107 -48.8766
v 98 52.4847 -46.318
v 98 54.7282 -43.6443
v 98 56.8357 -40.8621
v 98 58.8018 -37.9782
v 98 60.6218 -35
v 98 62.291 -31.9347
v 98 63.8054 -28.7901
v 98 65.1612 -25.5739
v 98 66.3549 -22.2941
v 98 67.3837 -18.9588
v 98 68.245 -15.5765
v 98 68.9365 -12.1554
v 98 69.4567 -8.70406
v 98 69.8043 -5.23111
v 98 69.9782 -1.74515
v 98 69.9782 1.74515
v 98 69.8043 5.23111
v 98 69.4567 8.70406
v 98 68.9365 12.1554
v 98 68.245 15.5765
v 98 67.3837 18.9588
v 98 66.3549 22.2941
v 98 65.1612 25.5739
v 98 63.8054 28.7901
v 98 62.291 31.9347
v 98 60.6218 35
v 98 58.8018 37.9782
v 98 56.8357 40.8621
v 98 54.7282 43.6443
v 98 52.4847 46.318
v 98 50.1107 48.8766
v 98 47.6121 51.3136
v 98 44.9951 53.6231
v 98 42.2663 55.7993
v 98 39.4324 57.8367
v 98 36.5005 59.7304
v 98 33.4778 61.4755
v 98 30.3719 63.0678
v 98 27.1904 64.5033
v 98 23.9414 65.7785
v 98 20.6329 66.8901
v 98 17.273 67.8354
v 98 13.8702 68.6121
v 98 10.433 69.2182
v 98 6.96975 69.6522
v 98 3.48921 69.913
v 98 -2.40117e-13 70
v 98 -3.48921 69.913
v 98 -6.96975 69.6522
v 98 -10.433 69.2182
v 98 -13.8702 68.6121
v 98 -17.273 67.8354
v 98 -20.6329 66.8901
v 98 -23.9414 65.7785
v 98 -27.1904 64.5033
v 98 -30.3719 63.0678
v 98 -33.4778 61.4755
v 98 -36.5005 59.7304
v 98 -39.4324 57.8367
v 98 -42.2663 55.7993
v 98 -44.9951 53.6231
v 98 -47.6121 51.3136
v 98 -50.1107 48.8766
v 98 -52.4847 46.318
v 98 -54.7282 43.6443
v 98 -56.8357 40.8621
v 98 -58.8018 37.9782
v 98 -60.6218 35
v 98 -62.291 31.9347
v 98 -63.8054 28.7901
v 98 -65.1612 25.5739
v 98 -66.3549 22.2941
v 98 -67.3837 18.9588
v 98 -68.245 15.5765
v 98 -68.9365 12.1554
v 98 -69.4567 8.70406
v 98 -69.8043 5.23111
v 98 -69.9782 1.74515
v 98 -69.9782 -1.74515
v 98 -69.8043 -5.23111
v 98 -69.4567 -8.70406
v 98 -68.9365 -12.1554
v 98 -68.245 -15.5765
v 98 -67.3837 -18.9588
v 98 -66.3549 -22.2941
v 98 -65.1612 -25.5739
v 98 -63.8054 -28.7901
v 98 -62.291 -31.9347
v 98 -60.6218 -35
v 98 -58.8018 -37.9782
v 98 -56.8357 -40.8621
v 98 -54.7282 -43.6443
v 98 -52.4847 -46.318
v 98 -50.1107 -48.8766
v 98 -47.6121 -51.3136
v 98 -44.9951 -53.6231
v 98 -42.2663 -55.7993
v 98 -39.4324 -57.8367
v 98 -36.5005 -59.7304
v 98 -33.4778 -61.4755
v 98 -30.3719 -63.0678
v 98 -27.1904 -64.5033
v 98 -23.9414 -65.7785
v 98 -20.6329 -66.8901
v 98 -17.273 -67.8354
v 98 -13.8702 -68.6121
v 98 -10.433 -69.2182
v 98 -6.96975 -69.6522
v 98 -3.48921 -69.913
v 98 -1.71451e-14 -70
v 80 -1.71451e-14 -70
v 80 3.48921 -69.913
v 80 6.96975 -69.6522
v 80 10.433 -69.2182
v 80 13.8702 -68.6121
v 80 17.273 -67.8354
v 80 20.6329 -66.8901
v 80 23.9414 -65.7785
v 80 27.1904 -64.5033
v 80 30.3719 -63.0678
v 80 33.4778 -61.4755
v 80 36.5005 -59.7304
v 80 39.4324 -57.8367
v 80 42.2663 -55.7993
v 80 44.9951 -53.6231
v 80 47.6121 -51.3136
v 80 50.1107 -48.8766
v 80 52.4847 -46.318
v 80 54.7282 -43.6443
v 80 56.8357 -40.8621
v 80 58.8018 -37.9782
v 80 60.6218 -35
v 80 62.291 -31.9347
v 80 63.8054 -28.7901
v 80 65.1612 -25.5739
v 80 66.3549 -22.2941
v 80 67.3837 -18.9588
v 80 68.245 -15.5765
v 80 68.9365 -12.1554
v 80 69.4567 -8.70406
v 80 69.8043 -5.23111
v 80 69.9782 -1.74515
v 80 69.9782 1.74515
v 80 69.8043 5.23111
v 80 69.4567 8.70406
v 80 68.9365 12.1554
v 80 68.245 15.5765
v 80 67.3837 18.9588
v 80 66.3549 22.2941
v 80 65.1612 25.5739
v 80 63.8054 28.7901
v 80 62.291 31.9347
v 80 60.6218 35
v 80 58.8018 37.9782
v 80 56.8357 40.8621
v 80 54.7282 43.6443
v 80 52.4847 46.318
v 80 50.1107 48.8766
v 80 47.6121 51.3136
v 80 44.9951 53.6231
v 80 42.2663 55.7993
v 80 39.4324 57.8367
v 80 36.5005 59.7304
v 80 33.4778 61.4755
v 80 30.3719 63.0678
v 80 27.1904 64.5033
v 80 23.9414 65.7785
v 80 20.6329 66.8901
v 80 17.273 67.8354
v 80 13.8702 68.6121
v 80 10.433 69.2182
v 80 6.96975 69.6522
v 80 3.48921 69.913
v 80 -2.40117e-13 70
v 80 -3.48921 69.913
v 80 -6.96975 69.6522
v 80 -10.433 69.2182
v 80 -13.8702 68.6121
v 80 -17.273 67.8354
v 80 -20.6329 66.8901
v 80 -23.9414 65.7785
v 80 -27.1904 64.5033
v 80 -30.3719 63.0678
v 80 -33.4778 61.4755
v 80 -36.5005 59.7304
v 80 -39.4324 57.8367
v 80 -42.2663 55.7993
v 80 -44.9951 53.6231
v 80 -47.6121 51.3136
v 80 -50.1107 48.8766
v 80 -52.4847 46.318
v 80 -54.7282 43.6443
v 80 -56.8357 40.8621
v 80 -58.8018 37.9782
v 80 -60.6218 35
v 80 -62.291 31.9347
v 80 -63.8054 28.7901
v 80 -65.1612 25.5739
v 80 -66.3549 22.2941
v 80 -67.3837 18.9588
v 80 -68.245 15.5765
v 80 -68.9365 12.1554
v 80 -69.4567 8.70406
v 80 -69.8043 5.23111
v 80 -69.9782 1.74515
v 80 -69.9782 -1.74515
v 80 -69.8043 -5.23111
v 80 -69.4567 -8.70406
v 80 -68.9365 -12.1554
v 80 -68.245 -15.5765
v 80 -67.3837 -18.9588
v 80 -66.3549 -22.2941
v 80 -65.1612 -25.5739
v 80 -63.8054 -28.7901
v 80 -62.291 -31.9347
v 80 -60.6218 -35
v 80 -58.8018 -37.9782
v 80 -56.8357 -40.8621
v 80 -54.7282 -43.6443
v 80 -52.4847 -46.318
v 80 -50.1107 -48.8766
v 80 -47.6121 -51.3136
v 80 -44.9951 -53.6231
v 80 -42.2663 -55.7993
v 80 -39.4324 -57.8367
v 80 -36.5005 -59.7304
v 80 -33.4778 -61.4755
v 80 -30.3719 -63.0678
v 80 -27.1904 -64.5033
v 80 -23.9414 -65.7785
v 80 -20.6329 -66.8901
v 80 -17.273 -67.8354
v 80 -13.8702 -68.6121
v 80 -10.433 -69.2182
v 80 -6.96975 -69.6522
v 80 -3.48921 -69.913
v 80 -1.71451e-14 -70
v 98 -1.71451e-14 -70
v 98 3.48921 -69.913
v 98 6.96975 -69.6522
v 98 10.433 -69.2182
v 98 13.8702 -68.6121
v 98 17.273 -67.8354
v 98 20.6329 -66.8901
v 98 23.9414 -65.7785
v 98 27.1904 -64.5033
v 98 30.3719 -63.0678
v 98 33.4778 -61.4755
v 98 36.5005 -59.7304
v 98 39.4324 -57.8367
v 98 42.2663 -55.7993
v 98 44.9951 -53.6231
v 98 47.6121 -51.3136
v 98 50.1107 -48.8766
v 98 52.4847 -46.318
v 98 54.7282 -43.6443
v 98 56.8357 -40.8621
v 98 58.8018 -37.9782
v 98 60.6218 -35
v 98 62.291 -31.9347
v 98 63.8054 -28.7901
v 98 65.1612 -25.5739
v 98 66.3549 -22.2941
v 98 67.3837 -18.9588
v 98 68.245 -15.5765
v 98 68.9365 -12.1554
v 98 69.4567 -8.70406
v 98 69.8043 -5.23111
v 98 69.9782 -1.74515
v 98 69.9782 1.74515
v 98 69.8043 5.23111
v 98 69.4567 8.70406
v 98 68.9365 12.1554
v 98 68.245 15.5765
v 98 67.3837 18.9588
v 98 66.3549 22.2941
v 98 65.1612 25.5739
v 98 63.8054 28.7901
v 98 62.291 31.9347
v 98 60.6218 35
v 98 58.8018 37.9782
v 98 56.8357 40.8621
v 98 54.7282 43.6443
v 98 52.4847 46.318
v 98 50.1107 48.8766
v 98 47.6121 51.3136
v 98 44.9951 53.6231
v 98 42.2663 55.7993
v 98 39.4324 57.8367
v 98 36.5005 59.7304
v 98 33.4778 61.4755
v 98 30.3719 63.0678
v 98 27.1904 64.5033
v 98 23.9414 65.7785
v 98 20.6329 66.8901
v 98 17.273 67.8354
v 98 13.8702 68.6121
v 98 10.433 69.2182
v 98 6.96975 69.6522
v 98 3.48921 69.913
v 98 -2.40117e-13 70
v 98 -3.48921 69.913
v 98 -6.96975 69.6522
v 98 -10.433 69.2182
v 98 -13.8702 68.6121
v 98 -17.273 67.8354
v 98 -20.6329 66.8901
v 98 -23.9414 65.7785
v 98 -27.1904 64.5033
v 98 -30.3719 63.0678
v 98 -33.4778 61.4755
v 98 -36.5005 59.7304
v 98 -39.4324 57.8367
v 98 -42.2663 55.7993
v 98 -44.9951 53.6231
v 98 -47.6121 51.3136
v 98 -50.1107 48.8766
v 98 -52.4847 46.318
v 98 -54.7282 43.6443
v 98 -56.8357 40.8621
v 98 -58.8018 37.9782
v 98 -60.6218 35
v 98 -62.291 31.9347
v 98 -63.8054 28.7901
v 98 -65.1612 25.5739
v 98 -66.3549 22.2941
v 98 -67.3837 18.9588
v 98 -68.245 15.5765
v 98 -68.9365 12.1554
v 98 -69.4567 8.70406
v 98 -69.8043 5.23111
v 98 -69.9782 1.74515
v 98 -69.9782 -1.74515
v 98 -69.8043 -5.23111
v 98 -69.4567 -8.70406
v 98 -68.9365 -12.1554
v 98 -68.245 -15.5765
v 98 -67.3837 -18.9588
v 98 -66.3549 -22.2941
v 98 -65.1612 -25.5739
v 98 -63.8054 -28.7901
v 98 -62.291 -31.9347
v 98 -60.6218 -35
v 98 -58.8018 -37.9782
v 98 -56.8357 -40.8621
v 98 -54.7282 -43.6443
v 98 -52.4847 -46.318
v 98 -50.1107 -48.8766
v 98 -47.6121 -51.3136
v 98 -44.9951 -53.6231
v 98 -42.2663 -55.7993
v 98 -39.4324 -57.8367
v 98 -36.5005 -59.7304
v 98 -33.4778 -61.4755
v 98 -30.3719 -63.0678
v 98 -27.1904 -64.5033
v 98 -23.9414 -65.7785
v 98 -20.6329 -66.8901
v 98 -17.273 -67.8354
v 98 -13.8702 -68.6121
v 98 -10.433 -69.2182
v 98 -6.96975 -69.6522
v 98 -3.48921 -69.913
v 98 -6.12323e-15 -25
v 98 1.24615 -24.9689
v 98 2.4892 -24.8758
v 98 3.72606 -24.7208
v 98 4.95365 -24.5043
v 98 6.16893 -24.2269
v 98 7.36888 -23.8893
v 98 8.5505 -23.4923
v 98 9.71087 -23.0369
v 98 10.8471 -22.5242
v 98 11.9563 -21.9555
v 98 13.0359 -21.3323
v 98 14.083 -20.656
v 98 15.0951 -19.9283
v 98 16.0697 -19.1511
v 98 17.0043 -18.3263
v 98 17.8967 -17.4559
v 98 18.7445 -16.5421
v 98 19.5458 -15.5872
v 98 20.2985 -14.5936
v 98 21.0006 -13.5637
v 98 21.6506 -12.5
v 98 22.2468 -11.4053
v 98 22.7876 -10.2822
v 98 23.2718 -9.13353
v 98 23.6982 -7.96217
v 98 24.0656 -6.77101
v 98 24.3732 -5.56302
v 98 24.6202 -4.3412
v 98 24.806 -3.10859
v 98 24.9301 -1.86825
v 98 24.9922 -0.623267
v 98 24.9922 0.623267
v 98 24.9301 1.86825
v 98 24.806 3.10859
v 98 24.6202 4.3412
v 98 24.3732 5.56302
v 98 24.0656 6.77101
v 98 23.6982 7.96217
v 98 23.2718 9.13353
v 98 22.7876 10.2822
v 98 22.2468 11.4053
v 98 21.6506 12.5
v 98 21.0006 13.5637
v 98 20.2985 14.5936
v 98 19.5458 15.5872
v 98 18.7445 16.5421
v 98 17.8967 17.4559
v 98 17.0043 18.3263
v 98 16.0697 19.1511
v 98 15.0951 19.9283
v 98 14.083 20.656
v 98 13.0359 21.3323
v 98 11.9563 21.9555
v 98 10.8471 22.5242
v 98 9.71087 23.0369
v 98 8.5505 23.4923
v 98 7.36888 23.8893
v 98 6.16893 24.2269
v 98 4.95365 24.5043
v 98 3.72606 24.7208
v 98 2.4892 24.8758
v 98 1.24615 24.9689
v 98 -8.57562e-14 25
v 98 -1.24615 24.9689
v 98 -2.4892 24.8758
v 98 -3.72606 24.7208
v 98 -4.95365 24.5043
v 98 -6.16893 24.2269
v 98 -7.36888 23.8893
v 98 -8.5505 23.4923
v 98 -9.71087 23.0369
v 98 -10.8471 22.5242
v 98 -11.9563 21.9555
v 98 -13.0359 21.3323
v 98 -14.083 20.656
v 98 -15.0951 19.9283
v 98 -16.0697 19.1511
v 98 -17.0043 18.3263
v 98 -17.8967 17.4559
v 98 -18.7445 16.5421
v 98 -19.5458 15.5872
v 98 -20.2985 14.5936
v 98 -21.0006 13.5637
v 98 -21.6506 12.5
v 98 -22.2468 11.4053
v 98 -22.7876 10.2822
v 98 -23.2718 9.13353
v 98 -23.6982 7.96217
v 98 -24.0656 6.77101
v 98 -24.3732 5.56302
v 98 -24.6202 4.3412
v 98 -24.806 3.10859
v 98 -24.9301 1.86825
v 98 -24.9922 0.623267
v 98 -24.9922 -0.623267
v 98 -24.9301 -1.86825
v 98 -24.806 -3.10859
v 98 -24.6202 -4.3412
v 98 -24.3732 -5.56302
v 98 -24.0656 -6.77101
v 98 -23.6982 -7.96217
v 98 -23.2718 -9.13353
v 98 -22.7876 -10.2822
v 98 -22.2468 -11.4053
v 98 -21.6506 -12.5
v 98 -21.0006 -13.5637
v 98 -20.2985 -14.5936
v 98 -19.5458 -15.5872
v 98 -18.7445 -16.5421
v 98 -17.8967 -17.4559
v 98 -17.0043 -18.3263
v 98 -16.0697 -19.1511
v 98 -15.0951 -19.9283
v 98 -14.083 -20.656
v 98 -13.0359 -21.3323
v 98 -11.9563 -21.9555
v 98 -10.8471 -22.5242
v 98 -9.71087 -23.0369
v 98 -8.5505 -23.4923
v 98 -7.36888 -23.8893
v 98 -6.16893 -24.2269
v 98 -4.95365 -24.5043
v 98 -3.72606 -24.7208
v 98 -2.4892 -24.8758
v 98 -1.24615 -24.9689
v 98 -6.12323e-15 -25
v 132 -6.12323e-15 -25
v 132 -6.12323e-15 -25
v 132 1.24615 -24.9689
v 132 2.4892 -24.8758
v 132 3.72606 -24.7208
v 132 4.95365 -24.5043
v 132 6.16893 -24.2269
v 132 7.36888 -23.8893
v 132 8.5505 -23.4923
v 132 9.71087 -23.0369
v 132 10.8471 -22.5242
v 132 11.9563 -21.9555
v 132 13.0359 -21.3323
v 132 14.083 -20.656
v 132 15.0951 -19.9283
v 132 16.0697 -19.1511
v 132 17.0043 -18.3263
v 132 17.8967 -17.4559
v 132 18.7445 -16.5421
v 132 19.5458 -15.5872
v 132 20.2985 -14.5936
v 132 21.0006 -13.5637
v 132 21.6506 -12.5
v 132 22.2468 -11.4053
v 132 22.7876 -10.2822
v 132 23.2718 -9.13353
v 132 23.6982 -7.96217
v 132 24.0656 -6.77101
v 132 24.3732 -5.56302
v 132 24.6202 -4.3412
v 132 24.806 -3.10859
v 132 24.9301 -1.86825
v 132 24.9922 -0.623267
v 132 24.9922 0.623267
v 132 24.9301 1.86825
v 132 24.806 3.10859
v 132 24.6202 4.3412
v 132 24.3732 5.56302
v 132 24.0656 6.77101
v 132 23.6982 7.96217
v 132 23.2718 9.13353
v 132 22.7876 10.2822
v 132 22.2468 11.4053
v 132 21.6506 12.5
v 132 21.0006 13.5637
v 132 20.2985 14.5936
v 132 19.5458 15.5872
v 132 18.7445 16.5421
v 132 17.8967 17.4559
v 132 17.0043 18.3263
v 132 16.0697 19.1511
v 132 15.0951 19.9283
v 132 14.083 20.656
v 132 13.0359 21.3323
v 132 11.9563 21.9555
v 132 10.8471 22.5242
v 132 9.71087 23.0369
v 132 8.5505 23.4923
v 132 7.36888 23.8893
v 132 6.16893 24.2269
v 132 4.95365 24.5043
v 132 3.72606 24.7208
v 132 2.4892 24.8758
v 132 1.24615 24.9689
v 132 -8.57562e-14 25
v 132 -1.24615 24.9689
v 132 -2.4892 24.8758
v 132 -3.72606 24.7208
v 132 -4.95365 24.5043
v 132 -6.16893 24.2269
v 132 -7.36888 23.8893
v 132 -8.5505 23.4923
v 132 -9.71087 23.0369
v 132 -10.8471 22.5242
v 132 -11.9563 21.9555
v 132 -13.0359 21.3323
v 132 -14.083 20.656
v 132 -15.0951 19.9283
v 132 -16.0697 19.1511
v 132 -17.0043 18.3263
v 132 -17.8967 17.4559
v 132 -18.7445 16.5421
v 132 -19.5458 15.5872
v 132 -20.2985 14.5936
v 132 -21.0006 13.5637
v 132 -21.6506 12.5
v 132 -22.2468 11.4053
v 132 -22.7876 10.2822
v 132 -23.2718 9.13353
v 132 -23.6982 7.96217
v 132 -24.0656 6.77101
v 132 -24.3732 5.56302
v 132 -24.6202 4.3412
v 132 -24.806 3.10859
v 132 -24.9301 1.86825
v 132 -24.9922 0.623267
v 132 -24.9922 -0.623267
v 132 -24.9301 -1.86825
v 132 -24.806 -3.10859
v 132 -24.6202 -4.3412
v 132 -24.3732 -5.56302
v 132 -24.0656 -6.77101
v 132 -23.6982 -7.96217
v 132 -23.2718 -9.13353
v 132 -22.7876 -10.2822
v 132 -22.2468 -11.4053
v 132 -21.6506 -12.5
v 132 -21.0006 -13.5637
v 132 -20.2985 -14.5936
v 132 -19.5458 -15.5872
v 132 -18.7445 -16.5421
v 132 -17.8967 -17.4559
v 132 -17.0043 -18.3263
v 132 -16.0697 -19.1511
v 132 -15.0951 -19.9283
v 132 -14.083 -20.656
v 132 -13.0359 -21.3323
v 132 -11.9563 -21.9555
v 132 -10.8471 -22.5242
v 132 -9.71087 -23.0369
v 132 -8.5505 -23.4923
v 132 -7.36888 -23.8893
v 132 -6.16893 -24.2269
v 132 -4.95365 -24.5043
v 132 -3.72606 -24.7208
v 132 -2.4892 -24.8758
v 132 -1.24615 -24.9689
v 98 -6.12323e-15 -25
v 98 1.24615 -24.9689
v 98 2.4892 -24.8758
v 98 3.72606 -24.7208
v 98 4.95365 -24.5043
v 98 6.16893 -24.2269
v 98 7.36888 -23.8893
v 98 8.5505 -23.4923
v 98 9.71087 -23.0369
v 98 10.8471 -22.5242
v 98 11.9563 -21.9555
v 98 13.0359 -21.3323
v 98 14.083 -20.656
v 98 15.0951 -19.9283
v 98 16.0697 -19.1511
v 98 17.0043 -18.3263
v 98 17.8967 -17.4559
v 98 18.7445 -16.5421
v 98 19.5458 -15.5872
v 98 20.2985 -14.5936
v 98 21.0006 -13.5637
v 98 21.6506 -12.5
v 98 22.2468 -11.4053
v 98 22.7876 -10.2822
v 98 23.2718 -9.13353
v 98 23.6982 -7.96217
v 98 24.0656 -6.77101
v 98 24.3732 -5.56302
v 98 24.6202 -4.3412
v 98 24.806 -3.10859
v 98 24.9301 -1.86825
v 98 24.9922 -0.623267
v 98 24.9922 0.623267
v 98 24.9301 1.86825
v 98 24.806 3.10859
v 98 24.6202 4.3412
v 98 24.3732 5.56302
v 98 24.0656 6.77101
v 98 23.6982 7.96217
v 98 23.2718 9.13353
v 98 22.7876 10.2822
v 98 22.2468 11.4053
v 98 21.6506 12.5
v 98 21.0006 13.5637
v 98 20.2985 14.5936
v 98 19.5458 15.5872
v 98 18.7445 16.5421
v 98 17.8967 17.4559
v 98 17.0043 18.3263
v 98 16.0697 19.1511
v 98 15.0951 19.9283
v 98 14.083 20.656
v 98 13.0359 21.3323
v 98 11.9563 21.9555
v 98 10.8471 22.5242
v 98 9.71087 23.0369
v 98 8.5505 23.4923
v 98 7.36888 23.8893
v 98 6.16893 24.2269
v 98 4.95365 24.5043
v 98 3.72606 24.7208
v 98 2.4892 24.8758
v 98 1.24615 24.9689
v 98 -8.57562e-14 25
v 98 -1.24615 24.9689
v 98 -2.4892 24.8758
v 98 -3.72606 24.7208
v 98 -4.95365 24.5043
v 98 -6.16893 24.2269
v 98 -7.36888 23.8893
v 98 -8.5505 23.4923
v 98 -9.71087 23.0369
v 98 -10.8471 22.5242
v 98 -11.9563 21.9555
v 98 -13.0359 21.3323
v 98 -14.083 20.656
v 98 -15.0951 19.9283
v 98 -16.0697 19.1511
v 98 -17.0043 18.3263
v 98 -17.8967 17.4559
v 98 -18.7445 16.5421
v 98 -19.5458 15.5872
v 98 -20.2985 14.5936
v 98 -21.0006 13.5637
v 98 -21.6506 12.5
v 98 -22.2468 11.4053
v 98 -22.7876 10.2822
v 98 -23.2718 9.13353
v 98 -23.6982 7.96217
v 98 -24.0656 6.77101
v 98 -24.3732 5.56302
v 98 -24.6202 4.3412
v 98 -24.806 3.10859
v 98 -24.9301 1.86825
v 98 -24.9922 0.623267
v 98 -24.9922 -0.623267
v 98 -24.9301 -1.86825
v 98 -24.806 -3.10859
v 98 -24.6202 -4.3412
v 98 -24.3732 -5.56302
v 98 -24.0656 -6.77101
v 98 -23.6982 -7.96217
v 98 -23.2718 -9.13353
v 98 -22.7876 -10.2822
v 98 -22.2468 -11.4053
v 98 -21.6506 -12.5
v 98 -21.0006 -13.5637
v 98 -20.2985 -14.5936
v 98 -19.5458 -15.5872
v 98 -18.7445 -16.5421
v 98 -17.8967 -17.4559
v 98 -17.0043 -18.3263
v 98 -16.0697 -19.1511
v 98 -15.0951 -19.9283
v 98 -14.083 -20.656
v 98 -13.0359 -21.3323
v 98 -11.9563 -21.9555
v 98 -10.8471 -22.5242
v 98 -9.71087 -23.0369
v 98 -8.5505 -23.4923
v 98 -7.36888 -23.8893
v 98 -6.16893 -24.2269
v 98 -4.95365 -24.5043
v 98 -3.72606 -24.7208
v 98 -2.4892 -24.8758
v 98 -1.24615 -24.9689
v 132 -6.12323e-15 -25
v 132 1.24615 -24.9689
v 132 2.4892 -24.8758
v 132 3.72606 -24.7208
v 132 4.95365 -24.5043
v 132 6.16893 -24.2269
v 132 7.36888 -23.8893
v 132 8.5505 -23.4923
v 132 9.71087 -23.0369
v 132 10.8471 -22.5242
v 132 11.9563 -21.9555
v 132 13.0359 -21.3323
v 132 14.083 -20.656
v 132 15.0951 -19.9283
v 132 16.0697 -19.1511
v 132 17.0043 -18.3263
v 132 17.8967 -17.4559
v 132 18.7445 -16.5421
v 132 19.5458 -15.5872
v 132 20.2985 -14.5936
v 132 21.0006 -13.5637
v 132 21.6506 -12.5
v 132 22.2468 -11.4053
v 132 22.7876 -10.2822
v 132 23.2718 -9.13353
v 132 23.6982 -7.96217
v 132 24.0656 -6.77101
v 132 24.3732 -5.56302
v 132 24.6202 -4.3412
v 132 24.806 -3.10859
v 132 24.9301 -1.86825
v 132 24.9922 -0.623267
v 132 24.9922 0.623267
v 132 24.9301 1.86825
v 132 24.806 3.10859
v 132 24.6202 4.3412
v 132 24.3732 5.56302
v 132 24.0656 6.77101
v 132 23.6982 7.96217
v 132 23.2718 9.13353
v 132 22.7876 10.2822
v 132 22.2468 11.4053
v 132 21.6506 12.5
v 132 21.0006 13.5637
v 132 20.2985 14.5936
v 132 19.5458 15.5872
v 132 18.7445 16.5421
v 132 17.8967 17.4559
v 132 17.0043 18.3263
v 132 16.0697 19.1511
v 132 15.0951 19.9283
v 132 14.083 20.656
v 132 13.0359 21.3323
v 132 11.9563 21.9555
v 132 10.8471 22.5242
v 132 9.71087 23.0369
v 132 8.5505 23.4923
v 132 7.36888 23.8893
v 132 6.16893 24.2269
v 132 4.95365 24.5043
v 132 3.72606 24.7208
v 132 2.4892 24.8758
v 132 1.24615 24.9689
v 132 -8.57562e-14 25
v 132 -1.24615 24.9689
v 132 -2.4892 24.8758
v 132 -3.72606 24.7208
v 132 -4.95365 24.5043
v 132 -6.16893 24.2269
v 132 -7.36888 23.8893
v 132 -8.5505 23.4923
v 132 -9.71087 23.0369
v 132 -10.8471 22.5242
v 132 -11.9563 21.9555
v 132 -13.0359 21.3323
v 132 -14.083 20.656
v 132 -15.0951 19.9283
v 132 -16.0697 19.1511
v 132 -17.0043 18.3263
v 132 -17.8967 17.4559
v 132 -18.7445 16.5421
v 132 -19.5458 15.5872
v 132 -20.2985 14.5936
v 132 -21.0006 13.5637
v 132 -21.6506 12.5
v 132 -22.2468 11.4053
v 132 -22.7876 10.2822
v 132 -23.2718 9.13353
v 132 -23.6982 7.96217
v 132 -24.0656 6.77101
v 132 -24.3732 5.56302
v 132 -24.6202 4.3412
v 132 -24.806 3.10859
v 132 -24.9301 1.86825
v 132 -24.9922 0.623267
v 132 -24.9922 -0.623267
v 132 -24.9301 -1.86825
v 132 -24.806 -3.10859
v 132 -24.6202 -4.3412
v 132 -24.3732 -5.56302
v 132 -24.0656 -6.77101
v 132 -23.6982 -7.96217
v 132 -23.2718 -9.13353
v 132 -22.7876 -10.2822
v 132 -22.2468 -11.4053
v 132 -21.6506 -12.5
v 132 -21.0006 -13.5637
v 132 -20.2985 -14.5936
v 132 -19.5458 -15.5872
v 132 -18.7445 -16.5421
v 132 -17.8967 -17.4559
v 132 -17.0043 -18.3263
v 132 -16.0697 -19.1511
v 132 -15.0951 -19.9283
v 132 -14.083 -20.656
v 132 -13.0359 -21.3323
v 132 -11.9563 -21.9555
v 132 -10.8471 -22.5242
v 132 -9.71087 -23.0369
v 132 -8.5505 -23.4923
v 132 -7.36888 -23.8893
v 132 -6.16893 -24.2269
v 132 -4.95365 -24.5043
v 132 -3.72606 -24.7208
v 132 -2.4892 -24.8758
v 132 -1.24615 -24.9689
f 1 128 129
f 2 1 129
f 3 129 130
f 3 130 131
f 3 2 129
f 4 3 131
f 5 131 132
f 5 4 131
f 6 132 133
f 6 133 134
f 6 5 132
f 7 134 135
f 7 6 134
f 8 135 136
f 8 7 135
f 9 8 136
f 10 136 137
f 10 9 136
f 11 137 138
f 11 10 137
f 12 11 138
f 12 138 139
f 13 12 139
f 13 139 140
f 14 13 140
f 14 140 141
f 14 141 142
f 15 14 142
f 15 142 143
f 16 15 143
f 17 16 143
f 17 143 144
f 18 17 144
f 18 144 145
f 19 18 145
f 19 145 146
f 20 19 146
f 20 146 147
f 21 20 147
f 21 147 148
f 22 21 148
f 22 148 149
f 23 22 149
f 23 149 150
f 24 150 151
f 24 23 150
f 25 151 152
f 25 24 151
f 26 152 153
f 26 25 152
f 27 153 154
f 27 26 153
f 28 154 155
f 28 27 154
f 29 155 156
f 29 28 155
f 30 156 157
f 30 29 156
f 31 157 158
f 31 30 157
f 32 158 159
f 32 31 158
f 33 159 160
f 33 32 159
f 34 160 161
f 34 161 162
f 34 33 160
f 35 34 162
f 36 162 163
f 36 163 164
f 36 35 162
f 37 36 164
f 38 37 164
f 38 164 165
f 38 165 166
f 39 38 166
f 39 166 167
f 40 39 167
f 41 40 167
f 41 167 168
f 42 41 168
f 42 168 169
f 43 42 169
f 43 169 170
f 43 170 171
f 44 43 171
f 45 44 171
f 45 171 172
f 46 45 172
f 46 172 173
f 46 173 174
f 47 46 174
f 48 47 174
f 48 174 175
f 49 48 175
f 49 175 176
f 50 49 176
f 50 176 177
f 50 177 178
f 51 50 178
f 52 51 178
f 52 178 179
f 53 52 179
f 53 179 180
f 53 180 181
f 54 53 181
f 55 54 181
f 55 181 182
f 56 55 182
f 56 182 183
f 57 56 183
f 57 183 184
f 58 57 184
f 58 184 185
f 59 185 186
f 59 58 185
f 60 186 187
f 60 59 186
f 61 187 188
f 61 188 189
f 61 60 187
f 62 61 189
f 62 189 190
f 63 62 190
f 63 190 191
f 64 63 191
f 65 64 191
f 65 191 192
f 66 65 192
f 66 192 193
f 66 193 194
f 67 66 194
f 67 194 195
f 68 67 195
f 69 68 195
f 69 195 196
f 70 69 196
f 70 196 197
f 71 70 197
f 71 197 198
f 71 198 199
f 72 71 199
f 73 72 199
f 73 199 200
f 73 200 201
f 74 73 201
f 75 202 203
f 75 74 201
f 75 201 202
f 76 75 203
f 77 203 204
f 77 76 203
f 78 204 205
f 78 205 206
f 78 77 204
f 79 78 206
f 80 206 207
f 80 207 208
f 80 79 206
f 81 80 208
f 82 208 209
f 82 81 208
f 83 209 210
f 83 82 209
f 84 210 211
f 84 83 210
f 85 211 212
f 85 84 211
f 86 212 213
f 86 85 212
f 87 213 214
f 87 86 213
f 88 214 215
f 88 87 214
f 89 88 215
f 89 215 216
f 89 216 217
f 90 89 217
f 91 90 217
f 91 217 218
f 91 218 219
f 92 91 219
f 93 219 220
f 93 92 219
f 94 220 221
f 94 93 220
f 95 221 222
f 95 94 221
f 96 222 223
f 96 95 222
f 97 223 224
f 97 224 225
f 97 96 223
f 98 97 225
f 99 225 226
f 99 98 225
f 100 226 227
f 100 99 226
f 101 227 228
f 101 100 227
f 102 228 229
f 102 229 230
f 102 101 228
f 103 102 230
f 104 230 231
f 104 231 232
f 104 103 230
f 105 104 232
f 106 232 233
f 106 105 232
f 107 233 234
f 107 106 233
f 108 234 235
f 108 107 234
f 109 235 236
f 109 236 237
f 109 108 235
f 110 109 237
f 111 237 238
f 111 110 237
f 112 238 239
f 112 111 238
f 113 112 239
f 113 239 240
f 114 113 240
f 114 240 241
f 114 241 242
f 115 114 242
f 115 242 243
f 116 115 243
f 117 116 243
f 117 243 244
f 118 117 244
f 118 244 245
f 119 118 245
f 119 245 246
f 120 119 246
f 120 246 247
f 121 120 247
f 121 247 248
f 122 121 248
f 122 248 249
f 122 249 250
f 123 122 250
f 123 250 251
f 124 123 251
f 125 251 252
f 125 124 251
f 126 252 253
f 126 125 252
f 127 253 254
f 127 126 253
f 460 334 333
f 459 460 333
f 461 334 460
f 461 335 334
f 461 336 335
f 458 459 333
f 458 333 332
f 462 336 461
f 457 458 332
f 457 332 331
f 463 336 462
f 463 337 336
f 456 457 331
f 456 330 329
f 456 331 330
f 464 337 463
f 464 338 337
f 464 339 338
f 455 456 329
f 465 339 464
f 454 329 328
f 454 455 329
f 466 339 465
f 466 340 339
f 453 328 327
f 453 454 328
f 467 340 466
f 467 341 340
f 467 342 341
f 452 327 326
f 452 453 327
f 468 342 467
f 451 326 325
f 451 452 326
f 469 342 468
f 469 343 342
f 450 325 324
f 450 451 325
f 470 343 469
f 470 344 343
f 470 345 344
f 449 450 324
f 449 323 322
f 449 324 323
f 471 345 470
f 448 449 322
f 472 346 345
f 472 345 471
f 447 322 321
f 447 448 322
f 473 346 472
f 473 347 346
f 446 447 321
f 446 321 320
f 474 347 473
f 474 348 347
f 445 446 320
f 445 319 318
f 445 320 319
f 475 348 474
f 475 349 348
f 444 445 318
f 476 349 475
f 476 350 349
f 443 444 318
f 443 318 317
f 477 350 476
f 477 351 350
f 477 352 351
f 442 443 317
f 442 316 315
f 442 317 316
f 478 352 477
f 478 353 352
f 441 442 315
f 479 353 478
f 440 441 315
f 440 315 314
f 480 353 479
f 480 354 353
f 480 355 354
f 439 440 314
f 439 314 313
f 481 355 480
f 438 439 313
f 438 312 311
f 438 313 312
f 482 356 355
f 482 355 481
f 437 438 311
f 483 357 356
f 483 356 482
f 436 437 311
f 436 311 310
f 484 358 357
f 484 359 358
f 484 357 483
f 435 310 309
f 435 436 310
f 485 359 484
f 434 309 308
f 434 435 309
f 486 360 359
f 486 359 485
f 433 308 307
f 433 434 308
f 487 361 360
f 487 362 361
f 487 360 486
f 432 433 307
f 432 307 306
f 488 362 487
f 431 306 305
f 431 432 306
f 489 363 362
f 489 362 488
f 430 305 304
f 430 431 305
f 490 364 363
f 490 363 489
f 429 304 303
f 429 430 304
f 491 365 364
f 491 364 490
f 302 428 429
f 302 429 303
f 366 491 492
f 366 492 493
f 366 365 491
f 301 428 302
f 301 426 427
f 301 427 428
f 367 366 493
f 300 426 301
f 368 367 493
f 368 493 494
f 299 426 300
f 299 425 426
f 369 368 494
f 369 494 495
f 369 495 496
f 298 425 299
f 298 424 425
f 370 369 496
f 297 422 423
f 297 423 424
f 297 424 298
f 371 496 497
f 371 370 496
f 296 422 297
f 372 497 498
f 372 498 499
f 372 371 497
f 295 422 296
f 295 420 421
f 295 421 422
f 373 372 499
f 294 420 295
f 374 373 499
f 374 499 500
f 293 420 294
f 293 419 420
f 375 374 500
f 375 500 501
f 292 418 419
f 292 419 293
f 376 375 501
f 376 501 502
f 291 416 417
f 291 417 418
f 291 418 292
f 377 502 503
f 377 376 502
f 290 416 291
f 378 377 503
f 378 503 504
f 378 504 505
f 289 416 290
f 289 415 416
f 379 505 506
f 379 378 505
f 288 414 415
f 288 415 289
f 380 379 506
f 287 413 414
f 287 414 288
f 255 506 381
f 255 380 506
f 286 413 287
f 286 411 412
f 286 412 413
f 256 381 382
f 256 382 383
f 256 255 381
f 285 411 286
f 257 256 383
f 284 410 411
f 284 411 285
f 258 383 384
f 258 257 383
f 283 409 410
f 283 410 284
f 259 384 385
f 259 385 386
f 259 258 384
f 282 409 283
f 282 408 409
f 260 386 387
f 260 259 386
f 281 408 282
f 281 406 407
f 281 407 408
f 261 260 387
f 280 406 281
f 262 261 387
f 262 387 388
f 279 406 280
f 279 405 406
f 263 388 389
f 263 262 388
f 278 405 279
f 278 404 405
f 264 263 389
f 264 389 390
f 277 404 278
f 277 402 403
f 277 403 404
f 265 390 391
f 265 264 390
f 276 402 277
f 276 401 402
f 266 265 391
f 266 391 392
f 266 392 393
f 275 401 276
f 267 266 393
f 274 401 275
f 274 400 401
f 268 267 393
f 268 393 394
f 273 400 274
f 273 399 400
f 269 268 394
f 269 394 395
f 272 398 399
f 272 399 273
f 270 395 396
f 270 269 395
f 271 396 397
f 271 397 398
f 271 398 272
f 271 270 396
f 588 587 586
f 590 589 588
f 581 583 582
f 581 584 583
f 591 588 586
f 591 590 588
f 579 584 581
f 579 581 580
f 579 585 584
f 579 586 585
f 594 593 592
f 595 594 592
f 575 577 576
f 575 578 577
f 575 579 578
f 597 596 595
f 574 586 579
f 574 579 575
f 598 591 586
f 598 595 592
f 598 597 595
f 598 586 574
f 598 592 591
f 599 598 574
f 570 572 571
f 570 573 572
f 570 574 573
f 569 599 574
f 569 574 570
f 605 600 599
f 605 601 600
f 605 602 601
f 605 603 602
f 605 604 603
f 566 568 567
f 565 568 566
f 565 569 568
f 563 565 564
f 609 608 607
f 609 606 605
f 609 607 606
f 610 609 605
f 561 569 565
f 561 565 563
f 561 563 562
f 611 569 561
f 611 610 605
f 611 599 569
f 611 605 599
f 557 559 558
f 556 559 557
f 616 613 612
f 616 614 613
f 616 615 614
f 555 559 556
f 617 612 611
f 617 616 612
f 617 611 561
f 618 555 554
f 618 617 561
f 618 559 555
f 618 560 559
f 618 561 560
f 551 553 552
f 621 620 619
f 623 622 621
f 623 621 619
f 548 550 549
f 548 551 550
f 624 619 618
f 624 623 619
f 545 547 546
f 545 548 547
f 545 551 548
f 627 625 624
f 627 626 625
f 627 618 554
f 627 624 618
f 544 551 545
f 542 544 543
f 630 628 627
f 630 629 628
f 630 554 553
f 630 627 554
f 540 544 542
f 540 542 541
f 632 631 630
f 538 544 540
f 538 540 539
f 538 551 544
f 508 632 630
f 508 507 632
f 508 630 553
f 511 509 508
f 511 510 509
f 534 551 538
f 534 536 535
f 534 537 536
f 534 538 537
f 512 511 508
f 513 512 508
f 514 513 508
f 531 533 532
f 531 534 533
f 515 514 508
f 530 551 534
f 530 534 531
f 517 516 515
f 520 518 517
f 520 519 518
f 520 517 515
f 525 527 526
f 525 528 527
f 525 508 553
f 525 529 528
f 525 530 529
f 525 551 530
f 525 515 508
f 525 553 551
f 522 521 520
f 522 520 515
f 523 525 524
f 523 515 525
f 523 522 515
f 633 760 761
f 634 633 761
f 635 761 762
f 635 634 761
f 636 762 763
f 636 635 762
f 637 763 764
f 637 636 763
f 638 764 765
f 638 765 766
f 638 637 764
f 639 638 766
f 640 766 767
f 640 767 768
f 640 639 766
f 641 768 769
f 641 640 768
f 642 641 769
f 643 769 770
f 643 642 769
f 644 643 770
f 644 770 771
f 644 771 772
f 645 644 772
f 645 772 773
f 646 645 773
f 647 646 773
f 647 773 774
f 648 647 774
f 648 774 775
f 649 648 775
f 649 775 776
f 650 649 776
f 650 776 777
f 651 650 777
f 651 777 778
f 652 651 778
f 652 778 779
f 653 652 779
f 653 779 780
f 653 780 781
f 654 653 781
f 655 654 781
f 655 781 782
f 656 782 783
f 656 655 782
f 657 783 784
f 657 656 783
f 658 784 785
f 658 657 784
f 659 785 786
f 659 658 785
f 660 786 787
f 660 659 786
f 661 787 788
f 661 660 787
f 662 788 789
f 662 789 790
f 662 661 788
f 663 662 790
f 664 790 791
f 664 791 792
f 664 663 790
f 665 664 792
f 666 792 793
f 666 665 792
f 667 793 794
f 667 794 795
f 667 666 793
f 668 795 796
f 668 667 795
f 669 668 796
f 670 669 796
f 670 796 797
f 671 670 797
f 671 797 798
f 672 671 798
f 672 798 799
f 673 672 799
f 673 799 800
f 674 673 800
f 674 800 801
f 675 674 801
f 675 801 802
f 675 802 803
f 676 675 803
f 677 676 803
f 677 803 804
f 678 677 804
f 678 804 805
f 678 805 806
f 679 678 806
f 680 679 806
f 680 806 807
f 681 680 807
f 681 807 808
f 682 681 808
f 682 808 809
f 683 682 809
f 683 809 810
f 683 810 811
f 684 683 811
f 685 684 811
f 685 811 812
f 686 685 812
f 686 812 813
f 687 686 813
f 687 813 814
f 688 687 814
f 688 814 815
f 688 815 816
f 689 688 816
f 690 689 816
f 690 816 817
f 690 817 818
f 691 690 818
f 692 818 819
f 692 691 818
f 693 819 820
f 693 692 819
f 694 820 821
f 694 693 820
f 695 694 821
f 695 821 822
f 696 695 822
f 696 822 823
f 697 696 823
f 697 823 824
f 698 697 824
f 698 824 825
f 699 698 825
f 699 825 826
f 700 699 826
f 700 826 827
f 701 700 827
f 701 827 828
f 702 701 828
f 702 828 829
f 703 702 829
f 703 829 830
f 704 703 830
f 704 830 831
f 705 704 831
f 705 831 832
f 706 705 832
f 706 832 833
f 707 706 833
f 707 833 834
f 708 834 835
f 708 707 834
f 709 835 836
f 709 708 835
f 710 836 837
f 710 709 836
f 711 837 838
f 711 710 837
f 712 838 839
f 712 711 838
f 713 839 840
f 713 712 839
f 714 840 841
f 714 713 840
f 715 841 842
f 715 714 841
f 716 842 843
f 716 715 842
f 717 843 844
f 717 716 843
f 718 844 845
f 718 717 844
f 719 845 846
f 719 846 847
f 719 718 845
f 720 719 847
f 721 720 847
f 721 847 848
f 722 721 848
f 722 848 849
f 722 849 850
f 723 722 850
f 724 723 850
f 724 850 851
f 725 851 852
f 725 724 851
f 726 852 853
f 726 725 852
f 727 853 854
f 727 726 853
f 728 854 855
f 728 727 854
f 729 855 856
f 729 728 855
f 730 856 857
f 730 729 856
f 731 857 858
f 731 858 859
f 731 730 857
f 732 731 859
f 732 859 860
f 733 732 860
f 734 860 861
f 734 733 860
f 735 861 862
f 735 734 861
f 736 862 863
f 736 735 862
f 737 863 864
f 737 736 863
f 738 864 865
f 738 865 866
f 738 737 864
f 739 738 866
f 740 866 867
f 740 739 866
f 741 867 868
f 741 740 867
f 742 868 869
f 742 741 868
f 743 869 870
f 743 742 869
f 744 870 871
f 744 743 870
f 745 744 871
f 745 871 872
f 746 745 872
f 746 872 873
f 746 873 874
f 747 746 874
f 748 747 874
f 748 874 875
f 749 748 875
f 749 875 876
f 749 876 877
f 750 749 877
f 750 877 878
f 751 750 878
f 751 878 879
f 752 751 879
f 753 752 879
f 753 879 880
f 753 880 881
f 754 753 881
f 754 881 882
f 755 754 882
f 756 755 882
f 756 882 883
f 756 883 884
f 757 756 884
f 758 884 885
f 758 757 884
f 759 885 886
f 759 758 885
f 1091 956 1092
f 1093 1092 956
f 1093 956 957
f 1090 956 1091
f 1090 955 956
f 1094 1093 957
f 1089 955 1090
f 1095 957 958
f 1095 1094 957
f 1088 955 1089
f 1088 954 955
f 1096 1095 958
f 1087 954 1088
f 1097 958 959
f 1097 1096 958
f 1086 954 1087
f 1098 1097 959
f 1085 954 1086
f 1085 953 954
f 1099 1098 959
f 1099 959 960
f 1084 953 1085
f 1100 1099 960
f 1083 953 1084
f 1083 952 953
f 1101 1100 960
f 1101 960 961
f 1082 952 1083
f 1102 1101 961
f 1081 952 1082
f 1103 1102 961
f 1103 961 962
f 1080 952 1081
f 1080 951 952
f 1104 1103 962
f 1079 951 1080
f 1105 1104 962
f 1105 962 963
f 1078 951 1079
f 1106 1105 963
f 1077 950 951
f 1077 951 1078
f 1107 1106 963
f 1107 963 964
f 1076 950 1077
f 1108 1107 964
f 1108 964 965
f 1075 949 950
f 1075 950 1076
f 1109 1108 965
f 1074 949 1075
f 1110 1109 965
f 1110 965 966
f 1073 949 1074
f 1111 1110 966
f 1111 966 967
f 1072 949 1073
f 1072 948 949
f 1112 1111 967
f 1112 967 968
f 1071 948 1072
f 1113 1112 968
f 1070 948 1071
f 1114 968 969
f 1114 1113 968
f 1069 948 1070
f 1069 947 948
f 1115 1114 969
f 1115 969 970
f 1068 947 1069
f 1116 970 971
f 1116 1115 970
f 1067 947 1068
f 1067 946 947
f 1117 971 972
f 1117 1116 971
f 1066 946 1067
f 1118 1117 972
f 1118 972 973
f 1065 946 1066
f 1119 1118 973
f 1119 973 974
f 1064 946 1065
f 1064 945 946
f 1120 1119 974
f 1120 974 975
f 1063 945 1064
f 1121 1120 975
f 1121 975 976
f 1121 976 977
f 1062 945 1063
f 1062 944 945
f 1122 1121 977
f 1122 977 978
f 1061 944 1062
f 1123 1122 978
f 1123 978 979
f 1060 944 1061
f 1124 1123 979
f 1124 979 980
f 1124 980 981
f 1059 944 1060
f 1059 943 944
f 1125 1124 981
f 1125 981 982
f 1058 943 1059
f 1126 1125 982
f 1126 982 983
f 1126 983 984
f 1057 943 1058
f 942 943 1057
f 1127 1126 984
f 1127 984 985
f 1127 985 986
f 1056 942 1057
f 1128 987 988
f 1128 1127 986
f 1128 986 987
f 1055 942 1056
f 1129 988 989
f 1129 989 990
f 1129 1128 988
f 941 1055 1054
f 941 942 1055
f 1130 1129 990
f 1053 941 1054
f 991 1130 990
f 940 941 1053
f 940 1052 1051
f 940 1053 1052
f 992 1130 991
f 992 1131 1130
f 939 1050 1049
f 939 1051 1050
f 939 940 1051
f 993 1131 992
f 938 939 1049
f 938 1048 1047
f 938 1049 1048
f 994 1131 993
f 994 1132 1131
f 937 1046 1045
f 937 1047 1046
f 937 938 1047
f 995 1132 994
f 936 937 1045
f 936 1045 1044
f 996 1133 1132
f 996 1132 995
f 935 936 1044
f 935 1043 1042
f 935 1044 1043
f 997 1133 996
f 934 935 1042
f 934 1042 1041
f 998 1133 997
f 933 934 1041
f 933 1041 1040
f 999 1134 1133
f 999 1133 998
f 932 933 1040
f 932 1039 1038
f 932 1040 1039
f 1000 1134 999
f 931 932 1038
f 931 1038 1037
f 1001 1135 1134
f 1001 1134 1000
f 930 931 1037
f 930 1037 1036
f 1002 1135 1001
f 929 930 1036
f 929 1036 1035
f 1003 1135 1002
f 928 1035 1034
f 928 929 1035
f 1004 1135 1003
f 1004 1136 1135
f 927 1034 1033
f 927 928 1034
f 1005 1136 1004
f 926 1033 1032
f 926 927 1033
f 1006 1136 1005
f 1006 1137 1136
f 925 926 1032
f 925 1032 1031
f 1007 1137 1006
f 924 925 1031
f 1008 1137 1007
f 923 924 1031
f 923 1031 1030
f 1009 1137 1008
f 1009 1138 1137
f 922 923 1030
f 922 1030 1029
f 1010 1138 1009
f 921 922 1029
f 921 1029 1028
f 1011 1138 1010
f 920 921 1028
f 1012 1013 1138
f 1012 1138 1011
f 919 1028 1027
f 919 920 1028
f 887 1013 1012
f 918 919 1027
f 918 1027 1026
f 888 1014 1013
f 888 1013 887
f 917 918 1026
f 889 1014 888
f 916 917 1026
f 916 1026 1025
f 890 1014 889
f 915 916 1025
f 891 1015 1014
f 891 1014 890
f 914 915 1025
f 914 1025 1024
f 892 1015 891
f 913 914 1024
f 893 1015 892
f 912 913 1024
f 912 1024 1023
f 894 1016 1015
f 894 1015 893
f 911 912 1023
f 895 1016 894
f 910 911 1023
f 910 1023 1022
f 896 1016 895
f 896 1017 1016
f 909 910 1022
f 897 1017 896
f 908 909 1022
f 908 1022 1021
f 898 1017 897
f 907 908 1021
f 899 1017 898
f 899 1018 1017
f 906 1021 1020
f 906 907 1021
f 900 1018 899
f 905 906 1020
f 901 1019 1018
f 901 1018 900
f 904 1020 1019
f 904 905 1020
f 902 1019 901
f 903 1019 902
f 903 904 1019
f 1268 1139 1140
f 1268 1267 1139
f 1269 1140 1141
f 1269 1141 1142
f 1269 1268 1140
f 1270 1269 1142
f 1271 1142 1143
f 1271 1143 1144
f 1271 1270 1142
f 1272 1271 1144
f 1273 1144 1145
f 1273 1272 1144
f 1274 1145 1146
f 1274 1273 1145
f 1275 1146 1147
f 1275 1274 1146
f 1276 1147 1148
f 1276 1275 1147
f 1277 1148 1149
f 1277 1276 1148
f 1278 1277 1149
f 1278 1149 1150
f 1278 1150 1151
f 1279 1278 1151
f 1280 1279 1151
f 1280 1151 1152
f 1280 1152 1153
f 1281 1280 1153
f 1282 1153 1154
f 1282 1154 1155
f 1282 1281 1153
f 1283 1282 1155
f 1284 1155 1156
f 1284 1156 1157
f 1284 1283 1155
f 1285 1284 1157
f 1286 1285 1157
f 1286 1157 1158
f 1287 1158 1159
f 1287 1286 1158
f 1288 1159 1160
f 1288 1287 1159
f 1289 1160 1161
f 1289 1288 1160
f 1290 1161 1162
f 1290 1289 1161
f 1291 1162 1163
f 1291 1290 1162
f 1292 1163 1164
f 1292 1291 1163
f 1293 1164 1165
f 1293 1165 1166
f 1293 1292 1164
f 1294 1293 1166
f 1294 1166 1167
f 1295 1294 1167
f 1296 1167 1168
f 1296 1295 1167
f 1297 1168 1169
f 1297 1296 1168
f 1298 1169 1170
f 1298 1297 1169
f 1299 1170 1171
f 1299 1298 1170
f 1300 1171 1172
f 1300 1299 1171
f 1301 1172 1173
f 1301 1300 1172
f 1302 1173 1174
f 1302 1301 1173
f 1303 1174 1175
f 1303 1302 1174
f 1304 1175 1176
f 1304 1303 1175
f 1305 1304 1176
f 1305 1176 1177
f 1306 1305 1177
f 1306 1177 1178
f 1307 1306 1178
f 1307 1178 1179
f 1308 1307 1179
f 1308 1179 1180
f 1308 1180 1181
f 1309 1308 1181
f 1310 1309 1181
f 1310 1181 1182
f 1311 1310 1182
f 1311 1182 1183
f 1312 1311 1183
f 1312 1183 1184
f 1313 1312 1184
f 1313 1184 1185
f 1313 1185 1186
f 1314 1313 1186
f 1315 1186 1187
f 1315 1314 1186
f 1316 1187 1188
f 1316 1315 1187
f 1317 1188 1189
f 1317 1316 1188
f 1318 1189 1190
f 1318 1317 1189
f 1319 1190 1191
f 1319 1318 1190
f 1320 1191 1192
f 1320 1319 1191
f 1321 1192 1193
f 1321 1320 1192
f 1322 1193 1194
f 1322 1321 1193
f 1323 1194 1195
f 1323 1322 1194
f 1324 1195 1196
f 1324 1323 1195
f 1325 1196 1197
f 1325 1324 1196
f 1326 1197 1198
f 1326 1325 1197
f 1327 1198 1199
f 1327 1326 1198
f 1328 1199 1200
f 1328 1327 1199
f 1329 1200 1201
f 1329 1328 1200
f 1330 1329 1201
f 1330 1201 1202
f 1331 1330 1202
f 1331 1202 1203
f 1332 1331 1203
f 1332 1203 1204
f 1333 1332 1204
f 1333 1204 1205
f 1334 1333 1205
f 1334 1205 1206
f 1335 1334 1206
f 1335 1206 1207
f 1336 1335 1207
f 1336 1207 1208
f 1337 1336 1208
f 1337 1208 1209
f 1337 1209 1210
f 1338 1337 1210
f 1339 1338 1210
f 1339 1210 1211
f 1340 1339 1211
f 1340 1211 1212
f 1341 1340 1212
f 1341 1212 1213
f 1342 1341 1213
f 1342 1213 1214
f 1343 1342 1214
f 1343 1214 1215
f 1343 1215 1216
f 1344 1343 1216
f 1344 1216 1217
f 1345 1344 1217
f 1346 1345 1217
f 1346 1217 1218
f 1347 1346 1218
f 1347 1218 1219
f 1348 1347 1219
f 1348 1219 1220
f 1349 1348 1220
f 1349 1220 1221
f 1350 1221 1222
f 1350 1222 1223
f 1350 1349 1221
f 1351 1350 1223
f 1352 1223 1224
f 1352 1351 1223
f 1353 1224 1225
f 1353 1352 1224
f 1354 1225 1226
f 1354 1353 1225
f 1355 1354 1226
f 1355 1226 1227
f 1356 1355 1227
f 1356 1227 1228
f 1357 1356 1228
f 1357 1228 1229
f 1358 1357 1229
f 1358 1229 1230
f 1359 1358 1230
f 1359 1230 1231
f 1359 1231 1232
f 1360 1359 1232
f 1361 1360 1232
f 1361 1232 1233
f 1361 1233 1234
f 1362 1361 1234
f 1363 1362 1234
f 1363 1234 1235
f 1364 1363 1235
f 1364 1235 1236
f 1364 1236 1237
f 1365 1364 1237
f 1366 1365 1237
f 1366 1237 1238
f 1367 1239 1240
f 1367 1366 1238
f 1367 1238 1239
f 1368 1367 1240
f 1369 1240 1241
f 1369 1241 1242
f 1369 1368 1240
f 1370 1369 1242
f 1371 1242 1243
f 1371 1370 1242
f 1372 1243 1244
f 1372 1371 1243
f 1373 1244 1245
f 1373 1372 1244
f 1374 1245 1246
f 1374 1246 1247
f 1374 1373 1245
f 1375 1374 1247
f 1376 1247 1248
f 1376 1248 1249
f 1376 1375 1247
f 1377 1249 1250
f 1377 1376 1249
f 1378 1377 1250
f 1379 1378 1250
f 1379 1250 1251
f 1380 1379 1251
f 1380 1251 1252
f 1381 1380 1252
f 1381 1252 1253
f 1382 1253 1254
f 1382 1254 1255
f 1382 1381 1253
f 1383 1382 1255
f 1384 1255 1256
f 1384 1383 1255
f 1385 1256 1257
f 1385 1384 1256
f 1386 1257 1258
f 1386 1385 1257
f 1387 1258 1259
f 1387 1386 1258
f 1388 1259 1260
f 1388 1387 1259
f 1389 1260 1261
f 1389 1388 1260
f 1390 1261 1262
f 1390 1389 1261
f 1391 1262 1263
f 1391 1263 1264
f 1391 1390 1262
f 1392 1391 1264
f 1266 1264 1265
f 1266 1392 1264
f 1597 1598 1462
f 1599 1462 1598
f 1599 1463 1462
f 1596 1597 1462
f 1596 1462 1461
f 1600 1463 1599
f 1595 1596 1461
f 1601 1464 1463
f 1601 1463 1600
f 1594 1595 1461
f 1594 1461 1460
f 1602 1464 1601
f 1593 1594 1460
f 1603 1465 1464
f 1603 1464 1602
f 1592 1593 1460
f 1604 1465 1603
f 1591 1592 1460
f 1591 1460 1459
f 1605 1465 1604
f 1605 1466 1465
f 1590 1591 1459
f 1606 1466 1605
f 1589 1590 1459
f 1589 1459 1458
f 1607 1466 1606
f 1607 1467 1466
f 1588 1589 1458
f 1608 1467 1607
f 1587 1588 1458
f 1609 1467 1608
f 1609 1468 1467
f 1586 1587 1458
f 1586 1458 1457
f 1610 1468 1609
f 1585 1586 1457
f 1611 1468 1610
f 1611 1469 1468
f 1584 1585 1457
f 1612 1469 1611
f 1583 1457 1456
f 1583 1584 1457
f 1613 1469 1612
f 1613 1470 1469
f 1582 1583 1456
f 1614 1470 1613
f 1614 1471 1470
f 1581 1456 1455
f 1581 1582 1456
f 1615 1471 1614
f 1580 1581 1455
f 1616 1471 1615
f 1616 1472 1471
f 1579 1580 1455
f 1617 1472 1616
f 1617 1473 1472
f 1578 1579 1455
f 1578 1455 1454
f 1618 1473 1617
f 1618 1474 1473
f 1577 1578 1454
f 1619 1474 1618
f 1576 1577 1454
f 1620 1475 1474
f 1620 1474 1619
f 1575 1576 1454
f 1575 1454 1453
f 1621 1475 1620
f 1621 1476 1475
f 1574 1575 1453
f 1622 1477 1476
f 1622 1476 1621
f 1573 1574 1453
f 1573 1453 1452
f 1623 1478 1477
f 1623 1477 1622
f 1572 1573 1452
f 1624 1478 1623
f 1624 1479 1478
f 1571 1572 1452
f 1625 1479 1624
f 1625 1480 1479
f 1570 1571 1452
f 1570 1452 1451
f 1626 1480 1625
f 1626 1481 1480
f 1569 1570 1451
f 1627 1481 1626
f 1627 1482 1481
f 1627 1483 1482
f 1568 1569 1451
f 1568 1451 1450
f 1628 1483 1627
f 1628 1484 1483
f 1567 1568 1450
f 1629 1484 1628
f 1629 1485 1484
f 1566 1567 1450
f 1630 1485 1629
f 1630 1486 1485
f 1630 1487 1486
f 1565 1566 1450
f 1565 1450 1449
f 1631 1487 1630
f 1631 1488 1487
f 1564 1565 1449
f 1632 1488 1631
f 1632 1489 1488
f 1632 1490 1489
f 1563 1564 1449
f 1448 1563 1449
f 1633 1490 1632
f 1633 1491 1490
f 1633 1492 1491
f 1562 1563 1448
f 1634 1494 1493
f 1634 1492 1633
f 1634 1493 1492
f 1561 1562 1448
f 1635 1495 1494
f 1635 1496 1495
f 1635 1494 1634
f 1447 1560 1561
f 1447 1561 1448
f 1636 1496 1635
f 1559 1560 1447
f 1497 1496 1636
f 1446 1559 1447
f 1446 1557 1558
f 1446 1558 1559
f 1498 1497 1636
f 1498 1636 1637
f 1445 1555 1556
f 1445 1556 1557
f 1445 1557 1446
f 1499 1498 1637
f 1444 1555 1445
f 1444 1553 1554
f 1444 1554 1555
f 1500 1499 1637
f 1500 1637 1638
f 1443 1551 1552
f 1443 1552 1553
f 1443 1553 1444
f 1501 1500 1638
f 1442 1551 1443
f 1442 1550 1551
f 1502 1638 1639
f 1502 1501 1638
f 1441 1550 1442
f 1441 1548 1549
f 1441 1549 1550
f 1503 1502 1639
f 1440 1548 1441
f 1440 1547 1548
f 1504 1503 1639
f 1439 1547 1440
f 1439 1546 1547
f 1505 1639 1640
f 1505 1504 1639
f 1438 1546 1439
f 1438 1544 1545
f 1438 1545 1546
f 1506 1505 1640
f 1437 1544 1438
f 1437 1543 1544
f 1507 1640 1641
f 1507 1506 1640
f 1436 1543 1437
f 1436 1542 1543
f 1508 1507 1641
f 1435 1542 1436
f 1435 1541 1542
f 1509 1508 1641
f 1434 1540 1541
f 1434 1541 1435
f 1510 1509 1641
f 1510 1641 1642
f 1433 1539 1540
f 1433 1540 1434
f 1511 1510 1642
f 1432 1538 1539
f 1432 1539 1433
f 1512 1511 1642
f 1512 1642 1643
f 1431 1538 1432
f 1431 1537 1538
f 1513 1512 1643
f 1430 1537 1431
f 1514 1513 1643
f 1429 1537 1430
f 1429 1536 1537
f 1515 1514 1643
f 1515 1643 1644
f 1428 1536 1429
f 1428 1535 1536
f 1516 1515 1644
f 1427 1535 1428
f 1427 1534 1535
f 1517 1516 1644
f 1426 1534 1427
f 1518 1644 1519
f 1518 1517 1644
f 1425 1533 1534
f 1425 1534 1426
f 1393 1518 1519
f 1424 1533 1425
f 1424 1532 1533
f 1394 1519 1520
f 1394 1393 1519
f 1423 1532 1424
f 1395 1394 1520
f 1422 1532 1423
f 1422 1531 1532
f 1396 1395 1520
f 1421 1531 1422
f 1397 1520 1521
f 1397 1396 1520
f 1420 1531 1421
f 1420 1530 1531
f 1398 1397 1521
f 1419 1530 1420
f 1399 1398 1521
f 1418 1530 1419
f 1418 1529 1530
f 1400 1521 1522
f 1400 1399 1521
f 1417 1529 1418
f 1401 1400 1522
f 1416 1529 1417
f 1416 1528 1529
f 1402 1401 1522
f 1402 1522 1523
f 1415 1528 1416
f 1403 1402 1523
f 1414 1528 1415
f 1414 1527 1528
f 1404 1403 1523
f 1413 1527 1414
f 1405 1404 1523
f 1405 1523 1524
f 1412 1526 1527
f 1412 1527 1413
f 1406 1405 1524
f 1411 1526 1412
f 1407 1524 1525
f 1407 1406 1524
f 1410 1525 1526
f 1410 1526 1411
f 1408 1407 1525
f 1409 1408 1525
f 1409 1525 1410
f 1645 1772 1773
f 1646 1645 1773
f 1647 1773 1774
f 1647 1646 1773
f 1648 1774 1775
f 1648 1647 1774
f 1649 1775 1776
f 1649 1648 1775
f 1650 1776 1777
f 1650 1777 1778
f 1650 1649 1776
f 1651 1650 1778
f 1652 1778 1779
f 1652 1779 1780
f 1652 1651 1778
f 1653 1780 1781
f 1653 1652 1780
f 1654 1653 1781
f 1655 1781 1782
f 1655 1654 1781
f 1656 1655 1782
f 1656 1782 1783
f 1656 1783 1784
f 1657 1656 1784
f 1657 1784 1785
f 1658 1657 1785
f 1659 1658 1785
f 1659 1785 1786
f 1660 1659 1786
f 1660 1786 1787
f 1661 1660 1787
f 1661 1787 1788
f 1662 1661 1788
f 1662 1788 1789
f 1663 1662 1789
f 1663 1789 1790
f 1664 1663 1790
f 1664 1790 1791
f 1665 1664 1791
f 1665 1791 1792
f 1665 1792 1793
f 1666 1665 1793
f 1667 1666 1793
f 1667 1793 1794
f 1668 1794 1795
f 1668 1667 1794
f 1669 1795 1796
f 1669 1668 1795
f 1670 1796 1797
f 1670 1669 1796
f 1671 1797 1798
f 1671 1670 1797
f 1672 1798 1799
f 1672 1671 1798
f 1673 1799 1800
f 1673 1672 1799
f 1674 1800 1801
f 1674 1801 1802
f 1674 1673 1800
f 1675 1674 1802
f 1676 1802 1803
f 1676 1803 1804
f 1676 1675 1802
f 1677 1676 1804
f 1678 1804 1805
f 1678 1677 1804
f 1679 1805 1806
f 1679 1806 1807
f 1679 1678 1805
f 1680 1807 1808
f 1680 1679 1807
f 1681 1680 1808
f 1682 1681 1808
f 1682 1808 1809
f 1683 1682 1809
f 1683 1809 1810
f 1684 1683 1810
f 1684 1810 1811
f 1685 1684 1811
f 1685 1811 1812
f 1686 1685 1812
f 1686 1812 1813
f 1687 1686 1813
f 1687 1813 1814
f 1687 1814 1815
f 1688 1687 1815
f 1689 1688 1815
f 1689 1815 1816
f 1690 1689 1816
f 1690 1816 1817
f 1690 1817 1818
f 1691 1690 1818
f 1692 1691 1818
f 1692 1818 1819
f 1693 1692 1819
f 1693 1819 1820
f 1694 1693 1820
f 1694 1820 1821
f 1695 1694 1821
f 1695 1821 1822
f 1695 1822 1823
f 1696 1695 1823
f 1697 1696 1823
f 1697 1823 1824
f 1698 1697 1824
f 1698 1824 1825
f 1699 1698 1825
f 1699 1825 1826
f 1700 1699 1826
f 1700 1826 1827
f 1700 1827 1828
f 1701 1700 1828
f 1702 1701 1828
f 1702 1828 1829
f 1702 1829 1830
f 1703 1702 1830
f 1704 1830 1831
f 1704 1703 1830
f 1705 1831 1832
f 1705 1704 1831
f 1706 1832 1833
f 1706 1705 1832
f 1707 1706 1833
f 1707 1833 1834
f 1708 1707 1834
f 1708 1834 1835
f 1709 1708 1835
f 1709 1835 1836
f 1710 1709 1836
f 1710 1836 1837
f 1711 1710 1837
f 1711 1837 1838
f 1712 1711 1838
f 1712 1838 1839
f 1713 1712 1839
f 1713 1839 1840
f 1714 1713 1840
f 1714 1840 1841
f 1715 1714 1841
f 1715 1841 1842
f 1716 1715 1842
f 1716 1842 1843
f 1717 1716 1843
f 1717 1843 1844
f 1718 1717 1844
f 1718 1844 1845
f 1719 1718 1845
f 1719 1845 1846
f 1720 1846 1847
f 1720 1719 1846
f 1721 1847 1848
f 1721 1720 1847
f 1722 1848 1849
f 1722 1721 1848
f 1723 1849 1850
f 1723 1722 1849
f 1724 1850 1851
f 1724 1723 1850
f 1725 1851 1852
f 1725 1724 1851
f 1726 1852 1853
f 1726 1725 1852
f 1727 1853 1854
f 1727 1726 1853
f 1728 1854 1855
f 1728 1727 1854
f 1729 1855 1856
f 1729 1728 1855
f 1730 1856 1857
f 1730 1729 1856
f 1731 1857 1858
f 1731 1858 1859
f 1731 1730 1857
f 1732 1731 1859
f 1733 1732 1859
f 1733 1859 1860
f 1734 1733 1860
f 1734 1860 1861
f 1734 1861 1862
f 1735 1734 1862
f 1736 1735 1862
f 1736 1862 1863
f 1737 1863 1864
f 1737 1736 1863
f 1738 1864 1865
f 1738 1737 1864
f 1739 1865 1866
f 1739 1738 1865
f 1740 1866 1867
f 1740 1739 1866
f 1741 1867 1868
f 1741 1740 1867
f 1742 1868 1869
f 1742 1741 1868
f 1743 1869 1870
f 1743 1870 1871
f 1743 1742 1869
f 1744 1743 1871
f 1744 1871 1872
f 1745 1744 1872
f 1746 1872 1873
f 1746 1745 1872
f 1747 1873 1874
f 1747 1746 1873
f 1748 1874 1875
f 1748 1747 1874
f 1749 1875 1876
f 1749 1748 1875
f 1750 1876 1877
f 1750 1877 1878
f 1750 1749 1876
f 1751 1750 1878
f 1752 1878 1879
f 1752 1751 1878
f 1753 1879 1880
f 1753 1752 1879
f 1754 1880 1881
f 1754 1753 1880
f 1755 1881 1882
f 1755 1754 1881
f 1756 1882 1883
f 1756 1755 1882
f 1757 1756 1883
f 1757 1883 1884
f 1758 1757 1884
f 1758 1884 1885
f 1758 1885 1886
f 1759 1758 1886
f 1760 1759 1886
f 1760 1886 1887
f 1761 1760 1887
f 1761 1887 1888
f 1761 1888 1889
f 1762 1761 1889
f 1762 1889 1890
f 1763 1762 1890
f 1763 1890 1891
f 1764 1763 1891
f 1765 1764 1891
f 1765 1891 1892
f 1765 1892 1893
f 1766 1765 1893
f 1766 1893 1894
f 1767 1766 1894
f 1768 1767 1894
f 1768 1894 1895
f 1768 1895 1896
f 1769 1768 1896
f 1770 1896 1897
f 1770 1769 1896
f 1771 1897 1898
f 1771 1770 1897
f 2104 1977 1978
f 2103 1977 2104
f 2105 2104 1978
f 2105 1978 1979
f 2105 1979 1980
f 2102 1977 2103
f 2102 1976 1977
f 2106 2105 1980
f 2101 1976 2102
f 2101 1975 1976
f 2107 2106 1980
f 2107 1980 1981
f 2107 1981 1982
f 2100 1975 2101
f 2100 1973 1974
f 2100 1974 1975
f 2108 2107 1982
f 2099 1973 2100
f 2109 2108 1982
f 2109 1982 1983
f 2098 1972 1973
f 2098 1973 2099
f 2110 2109 1983
f 2110 1983 1984
f 2097 1970 1971
f 2097 1971 1972
f 2097 1972 2098
f 2111 2110 1984
f 2111 1984 1985
f 2111 1985 1986
f 2096 1970 2097
f 2112 2111 1986
f 2112 1986 1987
f 2095 1970 2096
f 2095 1969 1970
f 2113 2112 1987
f 2094 1968 1969
f 2094 1969 2095
f 2114 2113 1987
f 2114 1987 1988
f 2114 1988 1989
f 2093 1967 1968
f 2093 1968 2094
f 2115 2114 1989
f 2092 1966 1967
f 2092 1967 2093
f 2116 1989 1990
f 2116 2115 1989
f 2091 1965 1966
f 2091 1966 2092
f 2117 2116 1990
f 2117 1990 1991
f 2090 1965 2091
f 2090 1963 1964
f 2090 1964 1965
f 2118 2117 1991
f 2118 1991 1992
f 2089 1963 2090
f 2119 2118 1992
f 2119 1992 1993
f 2088 1962 1963
f 2088 1963 2089
f 2120 2119 1993
f 2120 1993 1994
f 2087 1962 2088
f 2087 1961 1962
f 2121 2120 1994
f 2121 1994 1995
f 2121 1995 1996
f 2086 1961 2087
f 2086 1960 1961
f 2122 2121 1996
f 2122 1996 1997
f 2085 1960 2086
f 2085 1959 1960
f 2123 2122 1997
f 2084 1959 2085
f 2084 1958 1959
f 2124 2123 1997
f 2124 1997 1998
f 2124 1998 1999
f 2083 1958 2084
f 2083 1957 1958
f 2125 2124 1999
f 2082 1957 2083
f 2082 1955 1956
f 2082 1956 1957
f 2126 1999 2000
f 2126 2125 1999
f 2081 1955 2082
f 2127 2000 2001
f 2127 2126 2000
f 2080 1955 2081
f 2080 1953 1954
f 2080 1954 1955
f 2128 2001 2002
f 2128 2002 2003
f 2128 2127 2001
f 2079 1953 2080
f 2079 1952 1953
f 2129 2128 2003
f 2078 1952 2079
f 2130 2003 2004
f 2130 2129 2003
f 2077 1951 1952
f 2077 1952 2078
f 2131 2004 2005
f 2131 2005 2006
f 2131 2130 2004
f 2076 1950 1951
f 2076 1951 2077
f 2132 2131 2006
f 2075 1949 1950
f 2075 1950 2076
f 2133 2006 2007
f 2133 2132 2006
f 2074 1948 1949
f 2074 1949 2075
f 2134 2007 2008
f 2134 2133 2007
f 2073 1947 1948
f 2073 1948 2074
f 2009 2134 2008
f 2135 2134 2009
f 1946 2073 2072
f 1946 1947 2073
f 2010 2135 2009
f 2010 2136 2135
f 2010 2137 2136
f 1945 1946 2072
f 1945 2072 2071
f 2011 2137 2010
f 1944 1945 2071
f 1944 2070 2069
f 1944 2071 2070
f 2012 2137 2011
f 2012 2138 2137
f 1943 1944 2069
f 2013 2138 2012
f 2013 2139 2138
f 2013 2140 2139
f 1942 1943 2069
f 1942 2069 2068
f 2014 2140 2013
f 1941 2067 2066
f 1941 2068 2067
f 1941 1942 2068
f 2015 2141 2140
f 2015 2140 2014
f 1940 1941 2066
f 2016 2142 2141
f 2016 2141 2015
f 1939 1940 2066
f 1939 2066 2065
f 2017 2143 2142
f 2017 2142 2016
f 1938 1939 2065
f 1938 2064 2063
f 1938 2065 2064
f 2018 2143 2017
f 2018 2144 2143
f 1937 1938 2063
f 1937 2063 2062
f 2019 2145 2144
f 2019 2144 2018
f 1936 2062 2061
f 1936 1937 2062
f 2020 2146 2145
f 2020 2145 2019
f 1935 1936 2061
f 2021 2147 2146
f 2021 2146 2020
f 1934 2061 2060
f 1934 1935 2061
f 2022 2147 2021
f 2022 2148 2147
f 1933 1934 2060
f 1933 2060 2059
f 2023 2149 2148
f 2023 2148 2022
f 1932 1933 2059
f 1932 2059 2058
f 2024 2150 2149
f 2024 2149 2023
f 1931 1932 2058
f 1931 2058 2057
f 1899 2026 2025
f 1899 2150 2024
f 1899 2025 2150
f 1930 1931 2057
f 1930 2056 2055
f 1930 2057 2056
f 1900 2027 2026
f 1900 2026 1899
f 1929 1930 2055
f 1929 2055 2054
f 1901 2027 1900
f 1928 1929 2054
f 1902 2028 2027
f 1902 2029 2028
f 1902 2027 1901
f 1927 2054 2053
f 1927 1928 2054
f 1903 2030 2029
f 1903 2029 1902
f 1926 2053 2052
f 1926 1927 2053
f 1904 2031 2030
f 1904 2030 1903
f 1925 1926 2052
f 1925 2051 2050
f 1925 2052 2051
f 1905 2031 1904
f 1924 1925 2050
f 1906 2031 1905
f 1906 2032 2031
f 1923 1924 2050
f 1923 2049 2048
f 1923 2050 2049
f 1907 2032 1906
f 1907 2033 2032
f 1907 2034 2033
f 1922 1923 2048
f 1908 2034 1907
f 1921 2047 2046
f 1921 2048 2047
f 1921 1922 2048
f 1909 2034 1908
f 1909 2035 2034
f 1920 1921 2046
f 1910 2035 1909
f 1910 2036 2035
f 1919 2046 2045
f 1919 1920 2046
f 1911 2037 2036
f 1911 2036 1910
f 1918 1919 2045
f 1918 2045 2044
f 1912 2037 1911
f 1912 2038 2037
f 1912 2039 2038
f 1917 1918 2044
f 1917 2044 2043
f 1913 2039 1912
f 1916 2043 2042
f 1916 1917 2043
f 1914 2040 2039
f 1914 2041 2040
f 1914 2039 1913
f 1915 2042 2041
f 1915 2041 1914
f 1915 1916 2042
f 2153 2279 2280
f 2154 2153 2280
f 2155 2280 2281
f 2155 2154 2280
f 2156 2281 2282
f 2156 2282 2283
f 2156 2155 2281
f 2157 2156 2283
f 2158 2283 2284
f 2158 2157 2283
f 2159 2284 2285
f 2159 2158 2284
f 2160 2285 2286
f 2160 2159 2285
f 2161 2286 2287
f 2161 2160 2286
f 2162 2287 2288
f 2162 2161 2287
f 2163 2288 2289
f 2163 2289 2290
f 2163 2162 2288
f 2164 2163 2290
f 2165 2164 2290
f 2165 2290 2291
f 2166 2165 2291
f 2166 2291 2292
f 2167 2166 2292
f 2167 2292 2293
f 2168 2167 2293
f 2168 2293 2294
f 2169 2168 2294
f 2169 2294 2295
f 2170 2169 2295
f 2170 2295 2296
f 2170 2296 2297
f 2171 2170 2297
f 2171 2297 2298
f 2172 2171 2298
f 2173 2172 2298
f 2173 2298 2299
f 2174 2173 2299
f 2174 2299 2300
f 2175 2174 2300
f 2175 2300 2301
f 2175 2301 2302
f 2176 2302 2303
f 2176 2175 2302
f 2177 2303 2304
f 2177 2176 2303
f 2178 2177 2304
f 2179 2304 2305
f 2179 2178 2304
f 2180 2305 2306
f 2180 2179 2305
f 2181 2306 2307
f 2181 2180 2306
f 2182 2307 2308
f 2182 2181 2307
f 2183 2308 2309
f 2183 2309 2310
f 2183 2182 2308
f 2184 2310 2311
f 2184 2183 2310
f 2185 2184 2311
f 2186 2311 2312
f 2186 2185 2311
f 2187 2312 2313
f 2187 2186 2312
f 2188 2313 2314
f 2188 2187 2313
f 2189 2314 2315
f 2189 2188 2314
f 2190 2189 2315
f 2190 2315 2316
f 2191 2190 2316
f 2191 2316 2317
f 2191 2317 2318
f 2192 2191 2318
f 2193 2192 2318
f 2193 2318 2319
f 2194 2193 2319
f 2194 2319 2320
f 2194 2320 2321
f 2195 2194 2321
f 2196 2195 2321
f 2196 2321 2322
f 2196 2322 2323
f 2197 2196 2323
f 2197 2323 2324
f 2198 2197 2324
f 2199 2198 2324
f 2199 2324 2325
f 2199 2325 2326
f 2200 2199 2326
f 2201 2200 2326
f 2201 2326 2327
f 2201 2327 2328
f 2202 2201 2328
f 2203 2202 2328
f 2203 2328 2329
f 2204 2203 2329
f 2204 2329 2330
f 2205 2204 2330
f 2205 2330 2331
f 2205 2331 2332
f 2206 2205 2332
f 2207 2206 2332
f 2207 2332 2333
f 2208 2207 2333
f 2208 2333 2334
f 2208 2334 2335
f 2209 2208 2335
f 2210 2209 2335
f 2210 2335 2336
f 2210 2336 2337
f 2211 2210 2337
f 2212 2337 2338
f 2212 2211 2337
f 2213 2338 2339
f 2213 2212 2338
f 2214 2339 2340
f 2214 2213 2339
f 2215 2214 2340
f 2215 2340 2341
f 2215 2341 2342
f 2216 2215 2342
f 2217 2216 2342
f 2217 2342 2343
f 2218 2217 2343
f 2218 2343 2344
f 2219 2218 2344
f 2219 2344 2345
f 2220 2219 2345
f 2220 2345 2346
f 2221 2220 2346
f 2221 2346 2347
f 2221 2347 2348
f 2222 2221 2348
f 2223 2222 2348
f 2223 2348 2349
f 2224 2223 2349
f 2224 2349 2350
f 2225 2224 2350
f 2225 2350 2351
f 2226 2352 2353
f 2226 2225 2351
f 2226 2351 2352
f 2227 2353 2354
f 2227 2226 2353
f 2228 2227 2354
f 2229 2354 2355
f 2229 2228 2354
f 2230 2355 2356
f 2230 2229 2355
f 2231 2356 2357
f 2231 2357 2358
f 2231 2230 2356
f 2232 2231 2358
f 2233 2358 2359
f 2233 2232 2358
f 2234 2359 2360
f 2234 2360 2361
f 2234 2233 2359
f 2235 2234 2361
f 2236 2361 2362
f 2236 2235 2361
f 2237 2362 2363
f 2237 2236 2362
f 2238 2363 2364
f 2238 2237 2363
f 2239 2364 2365
f 2239 2238 2364
f 2240 2365 2366
f 2240 2366 2367
f 2240 2239 2365
f 2241 2240 2367
f 2242 2241 2367
f 2242 2367 2368
f 2243 2242 2368
f 2243 2368 2369
f 2244 2243 2369
f 2244 2369 2370
f 2244 2370 2371
f 2245 2244 2371
f 2246 2371 2372
f 2246 2245 2371
f 2247 2372 2373
f 2247 2246 2372
f 2248 2373 2374
f 2248 2374 2375
f 2248 2247 2373
f 2249 2248 2375
f 2250 2375 2376
f 2250 2249 2375
f 2251 2376 2377
f 2251 2377 2378
f 2251 2250 2376
f 2252 2251 2378
f 2253 2378 2379
f 2253 2379 2380
f 2253 2252 2378
f 2254 2253 2380
f 2255 2380 2381
f 2255 2254 2380
f 2256 2381 2382
f 2256 2255 2381
f 2257 2382 2383
f 2257 2256 2382
f 2258 2383 2384
f 2258 2257 2383
f 2259 2384 2385
f 2259 2258 2384
f 2260 2385 2386
f 2260 2259 2385
f 2261 2386 2387
f 2261 2260 2386
f 2262 2387 2388
f 2262 2261 2387
f 2263 2388 2389
f 2263 2389 2390
f 2263 2262 2388
f 2264 2263 2390
f 2265 2264 2390
f 2265 2390 2391
f 2266 2265 2391
f 2266 2391 2392
f 2266 2392 2393
f 2267 2266 2393
f 2268 2267 2393
f 2268 2393 2394
f 2269 2268 2394
f 2269 2394 2395
f 2270 2269 2395
f 2270 2395 2396
f 2271 2270 2396
f 2271 2396 2397
f 2272 2271 2397
f 2272 2397 2398
f 2273 2272 2398
f 2273 2398 2399
f 2274 2273 2399
f 2274 2399 2400
f 2275 2274 2400
f 2275 2400 2401
f 2276 2275 2401
f 2276 2401 2402
f 2277 2402 2403
f 2277 2276 2402
f 2278 2403 2404
f 2278 2277 2403
f 2152 2278 2404
f 2152 2404 2151
f 2486 2484 2485
f 2488 2486 2487
f 2479 2480 2481
f 2479 2481 2482
f 2489 2484 2486
f 2489 2486 2488
f 2477 2479 2482
f 2477 2478 2479
f 2477 2482 2483
f 2477 2483 2484
f 2492 2490 2491
f 2493 2490 2492
f 2473 2474 2475
f 2473 2475 2476
f 2473 2476 2477
f 2495 2493 2494
f 2472 2477 2484
f 2472 2473 2477
f 2496 2484 2489
f 2496 2490 2493
f 2496 2493 2495
f 2496 2472 2484
f 2496 2489 2490
f 2497 2472 2496
f 2468 2469 2470
f 2468 2470 2471
f 2468 2471 2472
f 2467 2472 2497
f 2467 2468 2472
f 2503 2497 2498
f 2503 2498 2499
f 2503 2499 2500
f 2503 2500 2501
f 2503 2501 2502
f 2464 2465 2466
f 2463 2464 2466
f 2463 2466 2467
f 2461 2462 2463
f 2507 2505 2506
f 2507 2503 2504
f 2507 2504 2505
f 2508 2503 2507
f 2459 2463 2467
f 2459 2461 2463
f 2459 2460 2461
f 2509 2459 2467
f 2509 2503 2508
f 2509 2467 2497
f 2509 2497 2503
f 2455 2456 2457
f 2454 2455 2457
f 2514 2510 2511
f 2514 2511 2512
f 2514 2512 2513
f 2453 2454 2457
f 2515 2509 2510
f 2515 2510 2514
f 2515 2459 2509
f 2516 2452 2453
f 2516 2459 2515
f 2516 2453 2457
f 2516 2457 2458
f 2516 2458 2459
f 2449 2450 2451
f 2519 2517 2518
f 2521 2519 2520
f 2521 2517 2519
f 2446 2447 2448
f 2446 2448 2449
f 2522 2516 2517
f 2522 2517 2521
f 2443 2444 2445
f 2443 2445 2446
f 2443 2446 2449
f 2525 2522 2523
f 2525 2523 2524
f 2525 2452 2516
f 2525 2516 2522
f 2442 2443 2449
f 2440 2441 2442
f 2528 2525 2526
f 2528 2526 2527
f 2528 2451 2452
f 2528 2452 2525
f 2438 2440 2442
f 2438 2439 2440
f 2530 2528 2529
f 2436 2438 2442
f 2436 2437 2438
f 2436 2442 2449
f 2406 2528 2530
f 2406 2530 2405
f 2406 2451 2528
f 2409 2406 2407
f 2409 2407 2408
f 2432 2436 2449
f 2432 2433 2434
f 2432 2434 2435
f 2432 2435 2436
f 2410 2406 2409
f 2411 2406 2410
f 2412 2406 2411
f 2429 2430 2431
f 2429 2431 2432
f 2413 2406 2412
f 2428 2432 2449
f 2428 2429 2432
f 2415 2413 2414
f 2418 2415 2416
f 2418 2416 2417
f 2418 2413 2415
f 2423 2424 2425
f 2423 2425 2426
f 2423 2451 2406
f 2423 2426 2427
f 2423 2427 2428
f 2423 2428 2449
f 2423 2406 2413
f 2423 2449 2451
f 2420 2418 2419
f 2420 2413 2418
f 2421 2422 2423
f 2421 2423 2413
f 2421 2413 2420
