# Cadless export: model
v -20 -8 0
v -20 -8 5
v -20 8 0
v -20 8 5
v -20 -8 0
v 20 -8 0
v -20 -8 5
v -10 -8 5
v -10 -8 16
v 10 -8 16
v 10 -8 5
v 20 -8 5
v 5 -8 9
v 4.99378 -8 9.24923
v 4.97515 -8 9.49784
v 4.94415 -8 9.74521
v 4.90086 -8 9.99073
v 4.84539 -8 10.2338
v 4.77786 -8 10.4738
v 4.69846 -8 10.7101
v 4.60738 -8 10.9422
v 4.50484 -8 11.1694
v 4.39111 -8 11.3913
v 4.26645 -8 11.6072
v 4.13119 -8 11.8166
v 3.98566 -8 12.019
v 3.83022 -8 12.2139
v 3.66526 -8 12.4009
v 3.49118 -8 12.5793
v 3.30843 -8 12.7489
v 3.11745 -8 12.9092
v 2.91872 -8 13.0597
v 2.71273 -8 13.2001
v 2.5 -8 13.3301
v 2.28105 -8 13.4494
v 2.05644 -8 13.5575
v 1.82671 -8 13.6544
v 1.59243 -8 13.7396
v 1.3542 -8 13.8131
v 1.1126 -8 13.8746
v 0.868241 -8 13.924
v 0.621719 -8 13.9612
v 0.37365 -8 13.986
v 0.124653 -8 13.9984
v -0.124653 -8 13.9984
v -0.37365 -8 13.986
v -0.621719 -8 13.9612
v -0.868241 -8 13.924
v -1.1126 -8 13.8746
v -1.3542 -8 13.8131
v -1.59243 -8 13.7396
v -1.82671 -8 13.6544
v -2.05644 -8 13.5575
v -2.28105 -8 13.4494
v -2.5 -8 13.3301
v -2.71273 -8 13.2001
v -2.91872 -8 13.0597
v -3.11745 -8 12.9092
v -3.30843 -8 12.7489
v -3.49118 -8 12.5793
v -3.66526 -8 12.4009
v -3.83022 -8 12.2139
v -3.98566 -8 12.019
v -4.13119 -8 11.8166
v -4.26645 -8 11.6072
v -4.39111 -8 11.3913
v -4.50484 -8 11.1694
v -4.60738 -8 10.9422
v -4.69846 -8 10.7101
v -4.77786 -8 10.4738
v -4.84539 -8 10.2338
v -4.90086 -8 9.99073
v -4.94415 -8 9.74521
v -4.97515 -8 9.49784
v -4.99378 -8 9.24923
v -5 -8 9
v -4.99378 -8 8.75077
v -4.97515 -8 8.50216
v -4.94415 -8 8.25479
v -4.90086 -8 8.00927
v -4.84539 -8 7.76621
v -4.77786 -8 7.52622
v -4.69846 -8 7.2899
v -4.60738 -8 7.05783
v -4.50484 -8 6.83058
v -4.39111 -8 6.60873
v -4.26645 -8 6.39282
v -4.13119 -8 6.1834
v -3.98566 -8 5.98098
v -3.83022 -8 5.78606
v -3.66526 -8 5.59914
v -3.49118 -8 5.42067
v -3.30843 -8 5.25109
v -3.11745 -8 5.09084
v -2.91872 -8 4.94031
v -2.71273 -8 4.79987
v -2.5 -8 4.66987
v -2.28105 -8 4.55064
v -2.05644 -8 4.44247
v -1.82671 -8 4.34563
v -1.59243 -8 4.26036
v -1.3542 -8 4.18688
v -1.1126 -8 4.12536
v -0.868241 -8 4.07596
v -0.621719 -8 4.0388
v -0.37365 -8 4.01398
v -0.124653 -8 4.00155
v 0.124653 -8 4.00155
v 0.37365 -8 4.01398
v 0.621719 -8 4.0388
v 0.868241 -8 4.07596
v 1.1126 -8 4.12536
v 1.3542 -8 4.18688
v 1.59243 -8 4.26036
v 1.82671 -8 4.34563
v 2.05644 -8 4.44247
v 2.28105 -8 4.55064
v 2.5 -8 4.66987
v 2.71273 -8 4.79987
v 2.91872 -8 4.94031
v 3.11745 -8 5.09084
v 3.30843 -8 5.25109
v 3.49118 -8 5.42067
v 3.66526 -8 5.59914
v 3.83022 -8 5.78606
v 3.98566 -8 5.98098
v 4.13119 -8 6.1834
v 4.26645 -8 6.39282
v 4.39111 -8 6.60873
v 4.50484 -8 6.83058
v 4.60738 -8 7.05783
v 4.69846 -8 7.2899
v 4.77786 -8 7.52622
v 4.84539 -8 7.76621
v 4.90086 -8 8.00927
v 4.94415 -8 8.25479
v 4.97515 -8 8.50216
v 4.99378 -8 8.75077
v -20 8 5
v -10 8 5
v -20 -8 5
v -10 -8 5
v -12.8 -5.38845e-16 5
v -12.8027 0.109661 5
v -12.8109 0.219049 5
v -12.8246 0.327893 5
v -12.8436 0.435922 5
v -12.868 0.542866 5
v -12.8977 0.648461 5
v -12.9327 0.752444 5
v -12.9728 0.854557 5
v -13.0179 0.954544 5
v -13.0679 1.05216 5
v -13.1228 1.14716 5
v -13.1823 1.2393 5
v -13.2463 1.32837 5
v -13.3147 1.41413 5
v -13.3873 1.49638 5
v -13.4639 1.57491 5
v -13.5443 1.64952 5
v -13.6283 1.72003 5
v -13.7158 1.78626 5
v -13.8064 1.84806 5
v -13.9 1.90526 5
v -13.9963 1.95772 5
v -14.0952 2.00531 5
v -14.1962 2.04792 5
v -14.2993 2.08544 5
v -14.4042 2.11777 5
v -14.5105 2.14484 5
v -14.618 2.16658 5
v -14.7264 2.18293 5
v -14.8356 2.19385 5
v -14.9452 2.19932 5
v -15.0548 2.19932 5
v -15.1644 2.19385 5
v -15.2736 2.18293 5
v -15.382 2.16658 5
v -15.4895 2.14484 5
v -15.5958 2.11777 5
v -15.7007 2.08544 5
v -15.8038 2.04792 5
v -15.9048 2.00531 5
v -16.0037 1.95772 5
v -16.1 1.90526 5
v -16.1936 1.84806 5
v -16.2842 1.78626 5
v -16.3717 1.72003 5
v -16.4557 1.64952 5
v -16.5361 1.57491 5
v -16.6127 1.49638 5
v -16.6853 1.41413 5
v -16.7537 1.32837 5
v -16.8177 1.2393 5
v -16.8772 1.14716 5
v -16.9321 1.05216 5
v -16.9821 0.954544 5
v -17.0272 0.854557 5
v -17.0673 0.752444 5
v -17.1023 0.648461 5
v -17.132 0.542866 5
v -17.1564 0.435922 5
v -17.1754 0.327893 5
v -17.1891 0.219049 5
v -17.1973 0.109661 5
v -17.2 -7.54655e-15 5
v -17.1973 -0.109661 5
v -17.1891 -0.219049 5
v -17.1754 -0.327893 5
v -17.1564 -0.435922 5
v -17.132 -0.542866 5
v -17.1023 -0.648461 5
v -17.0673 -0.752444 5
v -17.0272 -0.854557 5
v -16.9821 -0.954544 5
v -16.9321 -1.05216 5
v -16.8772 -1.14716 5
v -16.8177 -1.2393 5
v -16.7537 -1.32837 5
v -16.6853 -1.41413 5
v -16.6127 -1.49638 5
v -16.5361 -1.57491 5
v -16.4557 -1.64952 5
v -16.3717 -1.72003 5
v -16.2842 -1.78626 5
v -16.1936 -1.84806 5
v -16.1 -1.90526 5
v -16.0037 -1.95772 5
v -15.9048 -2.00531 5
v -15.8038 -2.04792 5
v -15.7007 -2.08544 5
v -15.5958 -2.11777 5
v -15.4895 -2.14484 5
v -15.382 -2.16658 5
v -15.2736 -2.18293 5
v -15.1644 -2.19385 5
v -15.0548 -2.19932 5
v -14.9452 -2.19932 5
v -14.8356 -2.19385 5
v -14.7264 -2.18293 5
v -14.618 -2.16658 5
v -14.5105 -2.14484 5
v -14.4042 -2.11777 5
v -14.2993 -2.08544 5
v -14.1962 -2.04792 5
v -14.0952 -2.00531 5
v -13.9963 -1.95772 5
v -13.9 -1.90526 5
v -13.8064 -1.84806 5
v -13.7158 -1.78626 5
v -13.6283 -1.72003 5
v -13.5443 -1.64952 5
v -13.4639 -1.57491 5
v -13.3873 -1.49638 5
v -13.3147 -1.41413 5
v -13.2463 -1.32837 5
v -13.1823 -1.2393 5
v -13.1228 -1.14716 5
v -13.0679 -1.05216 5
v -13.0179 -0.954544 5
v -12.9728 -0.854557 5
v -12.9327 -0.752444 5
v -12.8977 -0.648461 5
v -12.868 -0.542866 5
v -12.8436 -0.435922 5
v -12.8246 -0.327893 5
v -12.8109 -0.219049 5
v -12.8027 -0.109661 5
v -20 8 0
v -20 8 5
v -10 8 5
v -10 8 16
v 10 8 16
v 10 8 5
v 20 8 5
v 20 8 0
v 5 8 9
v 4.99378 8 9.24923
v 4.97515 8 9.49784
v 4.94415 8 9.74521
v 4.90086 8 9.99073
v 4.84539 8 10.2338
v 4.77786 8 10.4738
v 4.69846 8 10.7101
v 4.60738 8 10.9422
v 4.50484 8 11.1694
v 4.39111 8 11.3913
v 4.26645 8 11.6072
v 4.13119 8 11.8166
v 3.98566 8 12.019
v 3.83022 8 12.2139
v 3.66526 8 12.4009
v 3.49118 8 12.5793
v 3.30843 8 12.7489
v 3.11745 8 12.9092
v 2.91872 8 13.0597
v 2.71273 8 13.2001
v 2.5 8 13.3301
v 2.28105 8 13.4494
v 2.05644 8 13.5575
v 1.82671 8 13.6544
v 1.59243 8 13.7396
v 1.3542 8 13.8131
v 1.1126 8 13.8746
v 0.868241 8 13.924
v 0.621719 8 13.9612
v 0.37365 8 13.986
v 0.124653 8 13.9984
v -0.124653 8 13.9984
v -0.37365 8 13.986
v -0.621719 8 13.9612
v -0.868241 8 13.924
v -1.1126 8 13.8746
v -1.3542 8 13.8131
v -1.59243 8 13.7396
v -1.82671 8 13.6544
v -2.05644 8 13.5575
v -2.28105 8 13.4494
v -2.5 8 13.3301
v -2.71273 8 13.2001
v -2.91872 8 13.0597
v -3.11745 8 12.9092
v -3.30843 8 12.7489
v -3.49118 8 12.5793
v -3.66526 8 12.4009
v -3.83022 8 12.2139
v -3.98566 8 12.019
v -4.13119 8 11.8166
v -4.26645 8 11.6072
v -4.39111 8 11.3913
v -4.50484 8 11.1694
v -4.60738 8 10.9422
v -4.69846 8 10.7101
v -4.77786 8 10.4738
v -4.84539 8 10.2338
v -4.90086 8 9.99073
v -4.94415 8 9.74521
v -4.97515 8 9.49784
v -4.99378 8 9.24923
v -5 8 9
v -4.99378 8 8.75077
v -4.97515 8 8.50216
v -4.94415 8 8.25479
v -4.90086 8 8.00927
v -4.84539 8 7.76621
v -4.77786 8 7.52622
v -4.69846 8 7.2899
v -4.60738 8 7.05783
v -4.50484 8 6.83058
v -4.39111 8 6.60873
v -4.26645 8 6.39282
v -4.13119 8 6.1834
v -3.98566 8 5.98098
v -3.83022 8 5.78606
v -3.66526 8 5.59914
v -3.49118 8 5.42067
v -3.30843 8 5.25109
v -3.11745 8 5.09084
v -2.91872 8 4.94031
v -2.71273 8 4.79987
v -2.5 8 4.66987
v -2.28105 8 4.55064
v -2.05644 8 4.44247
v -1.82671 8 4.34563
v -1.59243 8 4.26036
v -1.3542 8 4.18688
v -1.1126 8 4.12536
v -0.868241 8 4.07596
v -0.621719 8 4.0388
v -0.37365 8 4.01398
v -0.124653 8 4.00155
v 0.124653 8 4.00155
v 0.37365 8 4.01398
v 0.621719 8 4.0388
v 0.868241 8 4.07596
v 1.1126 8 4.12536
v 1.3542 8 4.18688
v 1.59243 8 4.26036
v 1.82671 8 4.34563
v 2.05644 8 4.44247
v 2.28105 8 4.55064
v 2.5 8 4.66987
v 2.71273 8 4.79987
v 2.91872 8 4.94031
v 3.11745 8 5.09084
v 3.30843 8 5.25109
v 3.49118 8 5.42067
v 3.66526 8 5.59914
v 3.83022 8 5.78606
v 3.98566 8 5.98098
v 4.13119 8 6.1834
v 4.26645 8 6.39282
v 4.39111 8 6.60873
v 4.50484 8 6.83058
v 4.60738 8 7.05783
v 4.69846 8 7.2899
v 4.77786 8 7.52622
v 4.84539 8 7.76621
v 4.90086 8 8.00927
v 4.94415 8 8.25479
v 4.97515 8 8.50216
v 4.99378 8 8.75077
v -20 -8 0
v -20 8 0
v 20 -8 0
v 20 8 0
v -12.8 -5.38845e-16 0
v -12.8027 0.109661 0
v -12.8109 0.219049 0
v -12.8246 0.327893 0
v -12.8436 0.435922 0
v -12.868 0.542866 0
v -12.8977 0.648461 0
v -12.9327 0.752444 0
v -12.9728 0.854557 0
v -13.0179 0.954544 0
v -13.0679 1.05216 0
v -13.1228 1.14716 0
v -13.1823 1.2393 0
v -13.2463 1.32837 0
v -13.3147 1.41413 0
v -13.3873 1.49638 0
v -13.4639 1.57491 0
v -13.5443 1.64952 0
v -13.6283 1.72003 0
v -13.7158 1.78626 0
v -13.8064 1.84806 0
v -13.9 1.90526 0
v -13.9963 1.95772 0
v -14.0952 2.00531 0
v -14.1962 2.04792 0
v -14.2993 2.08544 0
v -14.4042 2.11777 0
v -14.5105 2.14484 0
v -14.618 2.16658 0
v -14.7264 2.18293 0
v -14.8356 2.19385 0
v -14.9452 2.19932 0
v -15.0548 2.19932 0
v -15.1644 2.19385 0
v -15.2736 2.18293 0
v -15.382 2.16658 0
v -15.4895 2.14484 0
v -15.5958 2.11777 0
v -15.7007 2.08544 0
v -15.8038 2.04792 0
v -15.9048 2.00531 0
v -16.0037 1.95772 0
v -16.1 1.90526 0
v -16.1936 1.84806 0
v -16.2842 1.78626 0
v -16.3717 1.72003 0
v -16.4557 1.64952 0
v -16.5361 1.57491 0
v -16.6127 1.49638 0
v -16.6853 1.41413 0
v -16.7537 1.32837 0
v -16.8177 1.2393 0
v -16.8772 1.14716 0
v -16.9321 1.05216 0
v -16.9821 0.954544 0
v -17.0272 0.854557 0
v -17.0673 0.752444 0
v -17.1023 0.648461 0
v -17.132 0.542866 0
v -17.1564 0.435922 0
v -17.1754 0.327893 0
v -17.1891 0.219049 0
v -17.1973 0.109661 0
v -17.2 -7.54655e-15 0
v -17.1973 -0.109661 0
v -17.1891 -0.219049 0
v -17.1754 -0.327893 0
v -17.1564 -0.435922 0
v -17.132 -0.542866 0
v -17.1023 -0.648461 0
v -17.0673 -0.752444 0
v -17.0272 -0.854557 0
v -16.9821 -0.954544 0
v -16.9321 -1.05216 0
v -16.8772 -1.14716 0
v -16.8177 -1.2393 0
v -16.7537 -1.32837 0
v -16.6853 -1.41413 0
v -16.6127 -1.49638 0
v -16.5361 -1.57491 0
v -16.4557 -1.64952 0
v -16.3717 -1.72003 0
v -16.2842 -1.78626 0
v -16.1936 -1.84806 0
v -16.1 -1.90526 0
v -16.0037 -1.95772 0
v -15.9048 -2.00531 0
v -15.8038 -2.04792 0
v -15.7007 -2.08544 0
v -15.5958 -2.11777 0
v -15.4895 -2.14484 0
v -15.382 -2.16658 0
v -15.2736 -2.18293 0
v -15.1644 -2.19385 0
v -15.0548 -2.19932 0
v -14.9452 -2.19932 0
v -14.8356 -2.19385 0
v -14.7264 -2.18293 0
v -14.618 -2.16658 0
v -14.5105 -2.14484 0
v -14.4042 -2.11777 0
v -14.2993 -2.08544 0
v -14.1962 -2.04792 0
v -14.0952 -2.00531 0
v -13.9963 -1.95772 0
v -13.9 -1.90526 0
v -13.8064 -1.84806 0
v -13.7158 -1.78626 0
v -13.6283 -1.72003 0
v -13.5443 -1.64952 0
v -13.4639 -1.57491 0
v -13.3873 -1.49638 0
v -13.3147 -1.41413 0
v -13.2463 -1.32837 0
v -13.1823 -1.2393 0
v -13.1228 -1.14716 0
v -13.0679 -1.05216 0
v -13.0179 -0.954544 0
v -12.9728 -0.854557 0
v -12.9327 -0.752444 0
v -12.8977 -0.648461 0
v -12.868 -0.542866 0
v -12.8436 -0.435922 0
v -12.8246 -0.327893 0
v -12.8109 -0.219049 0
v -12.8027 -0.109661 0
v 17.2 -5.38845e-16 0
v 17.1973 0.109661 0
v 17.1891 0.219049 0
v 17.1754 0.327893 0
v 17.1564 0.435922 0
v 17.132 0.542866 0
v 17.1023 0.648461 0
v 17.0673 0.752444 0
v 17.0272 0.854557 0
v 16.9821 0.954544 0
v 16.9321 1.05216 0
v 16.8772 1.14716 0
v 16.8177 1.2393 0
v 16.7537 1.32837 0
v 16.6853 1.41413 0
v 16.6127 1.49638 0
v 16.5361 1.57491 0
v 16.4557 1.64952 0
v 16.3717 1.72003 0
v 16.2842 1.78626 0
v 16.1936 1.84806 0
v 16.1 1.90526 0
v 16.0037 1.95772 0
v 15.9048 2.00531 0
v 15.8038 2.04792 0
v 15.7007 2.08544 0
v 15.5958 2.11777 0
v 15.4895 2.14484 0
v 15.382 2.16658 0
v 15.2736 2.18293 0
v 15.1644 2.19385 0
v 15.0548 2.19932 0
v 14.9452 2.19932 0
v 14.8356 2.19385 0
v 14.7264 2.18293 0
v 14.618 2.16658 0
v 14.5105 2.14484 0
v 14.4042 2.11777 0
v 14.2993 2.08544 0
v 14.1962 2.04792 0
v 14.0952 2.00531 0
v 13.9963 1.95772 0
v 13.9 1.90526 0
v 13.8064 1.84806 0
v 13.7158 1.78626 0
v 13.6283 1.72003 0
v 13.5443 1.64952 0
v 13.4639 1.57491 0
v 13.3873 1.49638 0
v 13.3147 1.41413 0
v 13.2463 1.32837 0
v 13.1823 1.2393 0
v 13.1228 1.14716 0
v 13.0679 1.05216 0
v 13.0179 0.954544 0
v 12.9728 0.854557 0
v 12.9327 0.752444 0
v 12.8977 0.648461 0
v 12.868 0.542866 0
v 12.8436 0.435922 0
v 12.8246 0.327893 0
v 12.8109 0.219049 0
v 12.8027 0.109661 0
v 12.8 -7.54655e-15 0
v 12.8027 -0.109661 0
v 12.8109 -0.219049 0
v 12.8246 -0.327893 0
v 12.8436 -0.435922 0
v 12.868 -0.542866 0
v 12.8977 -0.648461 0
v 12.9327 -0.752444 0
v 12.9728 -0.854557 0
v 13.0179 -0.954544 0
v 13.0679 -1.05216 0
v 13.1228 -1.14716 0
v 13.1823 -1.2393 0
v 13.2463 -1.32837 0
v 13.3147 -1.41413 0
v 13.3873 -1.49638 0
v 13.4639 -1.57491 0
v 13.5443 -1.64952 0
v 13.6283 -1.72003 0
v 13.7158 -1.78626 0
v 13.8064 -1.84806 0
v 13.9 -1.90526 0
v 13.9963 -1.95772 0
v 14.0952 -2.00531 0
v 14.1962 -2.04792 0
v 14.2993 -2.08544 0
v 14.4042 -2.11777 0
v 14.5105 -2.14484 0
v 14.618 -2.16658 0
v 14.7264 -2.18293 0
v 14.8356 -2.19385 0
v 14.9452 -2.19932 0
v 15.0548 -2.19932 0
v 15.1644 -2.19385 0
v 15.2736 -2.18293 0
v 15.382 -2.16658 0
v 15.4895 -2.14484 0
v 15.5958 -2.11777 0
v 15.7007 -2.08544 0
v 15.8038 -2.04792 0
v 15.9048 -2.00531 0
v 16.0037 -1.95772 0
v 16.1 -1.90526 0
v 16.1936 -1.84806 0
v 16.2842 -1.78626 0
v 16.3717 -1.72003 0
v 16.4557 -1.64952 0
v 16.5361 -1.57491 0
v 16.6127 -1.49638 0
v 16.6853 -1.41413 0
v 16.7537 -1.32837 0
v 16.8177 -1.2393 0
v 16.8772 -1.14716 0
v 16.9321 -1.05216 0
v 16.9821 -0.954544 0
v 17.0272 -0.854557 0
v 17.0673 -0.752444 0
v 17.1023 -0.648461 0
v 17.132 -0.542866 0
v 17.1564 -0.435922 0
v 17.1754 -0.327893 0
v 17.1891 -0.219049 0
v 17.1973 -0.109661 0
v 20 -8 0
v 20 -8 5
v 20 8 0
v 20 8 5
v 10 8 5
v 20 8 5
v 10 -8 5
v 20 -8 5
v 17.2 -5.38845e-16 5
v 17.1973 0.109661 5
v 17.1891 0.219049 5
v 17.1754 0.327893 5
v 17.1564 0.435922 5
v 17.132 0.542866 5
v 17.1023 0.648461 5
v 17.0673 0.752444 5
v 17.0272 0.854557 5
v 16.9821 0.954544 5
v 16.9321 1.05216 5
v 16.8772 1.14716 5
v 16.8177 1.2393 5
v 16.7537 1.32837 5
v 16.6853 1.41413 5
v 16.6127 1.49638 5
v 16.5361 1.57491 5
v 16.4557 1.64952 5
v 16.3717 1.72003 5
v 16.2842 1.78626 5
v 16.1936 1.84806 5
v 16.1 1.90526 5
v 16.0037 1.95772 5
v 15.9048 2.00531 5
v 15.8038 2.04792 5
v 15.7007 2.08544 5
v 15.5958 2.11777 5
v 15.4895 2.14484 5
v 15.382 2.16658 5
v 15.2736 2.18293 5
v 15.1644 2.19385 5
v 15.0548 2.19932 5
v 14.9452 2.19932 5
v 14.8356 2.19385 5
v 14.7264 2.18293 5
v 14.618 2.16658 5
v 14.5105 2.14484 5
v 14.4042 2.11777 5
v 14.2993 2.08544 5
v 14.1962 2.04792 5
v 14.0952 2.00531 5
v 13.9963 1.95772 5
v 13.9 1.90526 5
v 13.8064 1.84806 5
v 13.7158 1.78626 5
v 13.6283 1.72003 5
v 13.5443 1.64952 5
v 13.4639 1.57491 5
v 13.3873 1.49638 5
v 13.3147 1.41413 5
v 13.2463 1.32837 5
v 13.1823 1.2393 5
v 13.1228 1.14716 5
v 13.0679 1.05216 5
v 13.0179 0.954544 5
v 12.9728 0.854557 5
v 12.9327 0.752444 5
v 12.8977 0.648461 5
v 12.868 0.542866 5
v 12.8436 0.435922 5
v 12.8246 0.327893 5
v 12.8109 0.219049 5
v 12.8027 0.109661 5
v 12.8 -7.54655e-15 5
v 12.8027 -0.109661 5
v 12.8109 -0.219049 5
v 12.8246 -0.327893 5
v 12.8436 -0.435922 5
v 12.868 -0.542866 5
v 12.8977 -0.648461 5
v 12.9327 -0.752444 5
v 12.9728 -0.854557 5
v 13.0179 -0.954544 5
v 13.0679 -1.05216 5
v 13.1228 -1.14716 5
v 13.1823 -1.2393 5
v 13.2463 -1.32837 5
v 13.3147 -1.41413 5
v 13.3873 -1.49638 5
v 13.4639 -1.57491 5
v 13.5443 -1.64952 5
v 13.6283 -1.72003 5
v 13.7158 -1.78626 5
v 13.8064 -1.84806 5
v 13.9 -1.90526 5
v 13.9963 -1.95772 5
v 14.0952 -2.00531 5
v 14.1962 -2.04792 5
v 14.2993 -2.08544 5
v 14.4042 -2.11777 5
v 14.5105 -2.14484 5
v 14.618 -2.16658 5
v 14.7264 -2.18293 5
v 14.8356 -2.19385 5
v 14.9452 -2.19932 5
v 15.0548 -2.19932 5
v 15.1644 -2.19385 5
v 15.2736 -2.18293 5
v 15.382 -2.16658 5
v 15.4895 -2.14484 5
v 15.5958 -2.11777 5
v 15.7007 -2.08544 5
v 15.8038 -2.04792 5
v 15.9048 -2.00531 5
v 16.0037 -1.95772 5
v 16.1 -1.90526 5
v 16.1936 -1.84806 5
v 16.2842 -1.78626 5
v 16.3717 -1.72003 5
v 16.4557 -1.64952 5
v 16.5361 -1.57491 5
v 16.6127 -1.49638 5
v 16.6853 -1.41413 5
v 16.7537 -1.32837 5
v 16.8177 -1.2393 5
v 16.8772 -1.14716 5
v 16.9321 -1.05216 5
v 16.9821 -0.954544 5
v 17.0272 -0.854557 5
v 17.0673 -0.752444 5
v 17.1023 -0.648461 5
v 17.132 -0.542866 5
v 17.1564 -0.435922 5
v 17.1754 -0.327893 5
v 17.1891 -0.219049 5
v 17.1973 -0.109661 5
v -10 -8 5
v -10 -8 16
v -10 8 5
v -10 8 16
v 10 -8 5
v 10 -8 16
v 10 8 5
v 10 8 16
v -10 -8 16
v -10 8 16
v 10 -8 16
v 10 8 16
v 5 -8 9
v 4.99378 -8 9.24923
v 4.97515 -8 9.49784
v 4.94415 -8 9.74521
v 4.90086 -8 9.99073
v 4.84539 -8 10.2338
v 4.77786 -8 10.4738
v 4.69846 -8 10.7101
v 4.60738 -8 10.9422
v 4.50484 -8 11.1694
v 4.39111 -8 11.3913
v 4.26645 -8 11.6072
v 4.13119 -8 11.8166
v 3.98566 -8 12.019
v 3.83022 -8 12.2139
v 3.66526 -8 12.4009
v 3.49118 -8 12.5793
v 3.30843 -8 12.7489
v 3.11745 -8 12.9092
v 2.91872 -8 13.0597
v 2.71273 -8 13.2001
v 2.5 -8 13.3301
v 2.28105 -8 13.4494
v 2.05644 -8 13.5575
v 1.82671 -8 13.6544
v 1.59243 -8 13.7396
v 1.3542 -8 13.8131
v 1.1126 -8 13.8746
v 0.868241 -8 13.924
v 0.621719 -8 13.9612
v 0.37365 -8 13.986
v 0.124653 -8 13.9984
v -0.124653 -8 13.9984
v -0.37365 -8 13.986
v -0.621719 -8 13.9612
v -0.868241 -8 13.924
v -1.1126 -8 13.8746
v -1.3542 -8 13.8131
v -1.59243 -8 13.7396
v -1.82671 -8 13.6544
v -2.05644 -8 13.5575
v -2.28105 -8 13.4494
v -2.5 -8 13.3301
v -2.71273 -8 13.2001
v -2.91872 -8 13.0597
v -3.11745 -8 12.9092
v -3.30843 -8 12.7489
v -3.49118 -8 12.5793
v -3.66526 -8 12.4009
v -3.83022 -8 12.2139
v -3.98566 -8 12.019
v -4.13119 -8 11.8166
v -4.26645 -8 11.6072
v -4.39111 -8 11.3913
v -4.50484 -8 11.1694
v -4.60738 -8 10.9422
v -4.69846 -8 10.7101
v -4.77786 -8 10.4738
v -4.84539 -8 10.2338
v -4.90086 -8 9.99073
v -4.94415 -8 9.74521
v -4.97515 -8 9.49784
v -4.99378 -8 9.24923
v -5 -8 9
v -4.99378 -8 8.75077
v -4.97515 -8 8.50216
v -4.94415 -8 8.25479
v -4.90086 -8 8.00927
v -4.84539 -8 7.76621
v -4.77786 -8 7.52622
v -4.69846 -8 7.2899
v -4.60738 -8 7.05783
v -4.50484 -8 6.83058
v -4.39111 -8 6.60873
v -4.26645 -8 6.39282
v -4.13119 -8 6.1834
v -3.98566 -8 5.98098
v -3.83022 -8 5.78606
v -3.66526 -8 5.59914
v -3.49118 -8 5.42067
v -3.30843 -8 5.25109
v -3.11745 -8 5.09084
v -2.91872 -8 4.94031
v -2.71273 -8 4.79987
v -2.5 -8 4.66987
v -2.28105 -8 4.55064
v -2.05644 -8 4.44247
v -1.82671 -8 4.34563
v -1.59243 -8 4.26036
v -1.3542 -8 4.18688
v -1.1126 -8 4.12536
v -0.868241 -8 4.07596
v -0.621719 -8 4.0388
v -0.37365 -8 4.01398
v -0.124653 -8 4.00155
v 0.124653 -8 4.00155
v 0.37365 -8 4.01398
v 0.621719 -8 4.0388
v 0.868241 -8 4.07596
v 1.1126 -8 4.12536
v 1.3542 -8 4.18688
v 1.59243 -8 4.26036
v 1.82671 -8 4.34563
v 2.05644 -8 4.44247
v 2.28105 -8 4.55064
v 2.5 -8 4.66987
v 2.71273 -8 4.79987
v 2.91872 -8 4.94031
v 3.11745 -8 5.09084
v 3.30843 -8 5.25109
v 3.49118 -8 5.42067
v 3.66526 -8 5.59914
v 3.83022 -8 5.78606
v 3.98566 -8 5.98098
v 4.13119 -8 6.1834
v 4.26645 -8 6.39282
v 4.39111 -8 6.60873
v 4.50484 -8 6.83058
v 4.60738 -8 7.05783
v 4.69846 -8 7.2899
v 4.77786 -8 7.52622
v 4.84539 -8 7.76621
v 4.90086 -8 8.00927
v 4.94415 -8 8.25479
v 4.97515 -8 8.50216
v 4.99378 -8 8.75077
v 5 -8 9
v 5 8 9
v 4.99378 8 9.24923
v 4.97515 8 9.49784
v 4.94415 8 9.74521
v 4.90086 8 9.99073
v 4.84539 8 10.2338
v 4.77786 8 10.4738
v 4.69846 8 10.7101
v 4.60738 8 10.9422
v 4.50484 8 11.1694
v 4.39111 8 11.3913
v 4.26645 8 11.6072
v 4.13119 8 11.8166
v 3.98566 8 12.019
v 3.83022 8 12.2139
v 3.66526 8 12.4009
v 3.49118 8 12.5793
v 3.30843 8 12.7489
v 3.11745 8 12.9092
v 2.91872 8 13.0597
v 2.71273 8 13.2001
v 2.5 8 13.3301
v 2.28105 8 13.4494
v 2.05644 8 13.5575
v 1.82671 8 13.6544
v 1.59243 8 13.7396
v 1.3542 8 13.8131
v 1.1126 8 13.8746
v 0.868241 8 13.924
v 0.621719 8 13.9612
v 0.37365 8 13.986
v 0.124653 8 13.9984
v -0.124653 8 13.9984
v -0.37365 8 13.986
v -0.621719 8 13.9612
v -0.868241 8 13.924
v -1.1126 8 13.8746
v -1.3542 8 13.8131
v -1.59243 8 13.7396
v -1.82671 8 13.6544
v -2.05644 8 13.5575
v -2.28105 8 13.4494
v -2.5 8 13.3301
v -2.71273 8 13.2001
v -2.91872 8 13.0597
v -3.11745 8 12.9092
v -3.30843 8 12.7489
v -3.49118 8 12.5793
v -3.66526 8 12.4009
v -3.83022 8 12.2139
v -3.98566 8 12.019
v -4.13119 8 11.8166
v -4.26645 8 11.6072
v -4.39111 8 11.3913
v -4.50484 8 11.1694
v -4.60738 8 10.9422
v -4.69846 8 10.7101
v -4.77786 8 10.4738
v -4.84539 8 10.2338
v -4.90086 8 9.99073
v -4.94415 8 9.74521
v -4.97515 8 9.49784
v -4.99378 8 9.24923
v -5 8 9
v -4.99378 8 8.75077
v -4.97515 8 8.50216
v -4.94415 8 8.25479
v -4.90086 8 8.00927
v -4.84539 8 7.76621
v -4.77786 8 7.52622
v -4.69846 8 7.2899
v -4.60738 8 7.05783
v -4.50484 8 6.83058
v -4.39111 8 6.60873
v -4.26645 8 6.39282
v -4.13119 8 6.1834
v -3.98566 8 5.98098
v -3.83022 8 5.78606
v -3.66526 8 5.59914
v -3.49118 8 5.42067
v -3.30843 8 5.25109
v -3.11745 8 5.09084
v -2.91872 8 4.94031
v -2.71273 8 4.79987
v -2.5 8 4.66987
v -2.28105 8 4.55064
v -2.05644 8 4.44247
v -1.82671 8 4.34563
v -1.59243 8 4.26036
v -1.3542 8 4.18688
v -1.1126 8 4.12536
v -0.868241 8 4.07596
v -0.621719 8 4.0388
v -0.37365 8 4.01398
v -0.124653 8 4.00155
v 0.124653 8 4.00155
v 0.37365 8 4.01398
v 0.621719 8 4.0388
v 0.868241 8 4.07596
v 1.1126 8 4.12536
v 1.3542 8 4.18688
v 1.59243 8 4.26036
v 1.82671 8 4.34563
v 2.05644 8 4.44247
v 2.28105 8 4.55064
v 2.5 8 4.66987
v 2.71273 8 4.79987
v 2.91872 8 4.94031
v 3.11745 8 5.09084
v 3.30843 8 5.25109
v 3.49118 8 5.42067
v 3.66526 8 5.59914
v 3.83022 8 5.78606
v 3.98566 8 5.98098
v 4.13119 8 6.1834
v 4.26645 8 6.39282
v 4.39111 8 6.60873
v 4.50484 8 6.83058
v 4.60738 8 7.05783
v 4.69846 8 7.2899
v 4.77786 8 7.52622
v 4.84539 8 7.76621
v 4.90086 8 8.00927
v 4.94415 8 8.25479
v 4.97515 8 8.50216
v 4.99378 8 8.75077
v 5 8 9
v -12.8 -5.38845e-16 5
v -12.8027 0.109661 5
v -12.8109 0.219049 5
v -12.8246 0.327893 5
v -12.8436 0.435922 5
v -12.868 0.542866 5
v -12.8977 0.648461 5
v -12.9327 0.752444 5
v -12.9728 0.854557 5
v -13.0179 0.954544 5
v -13.0679 1.05216 5
v -13.1228 1.14716 5
v -13.1823 1.2393 5
v -13.2463 1.32837 5
v -13.3147 1.41413 5
v -13.3873 1.49638 5
v -13.4639 1.57491 5
v -13.5443 1.64952 5
v -13.6283 1.72003 5
v -13.7158 1.78626 5
v -13.8064 1.84806 5
v -13.9 1.90526 5
v -13.9963 1.95772 5
v -14.0952 2.00531 5
v -14.1962 2.04792 5
v -14.2993 2.08544 5
v -14.4042 2.11777 5
v -14.5105 2.14484 5
v -14.618 2.16658 5
v -14.7264 2.18293 5
v -14.8356 2.19385 5
v -14.9452 2.19932 5
v -15.0548 2.19932 5
v -15.1644 2.19385 5
v -15.2736 2.18293 5
v -15.382 2.16658 5
v -15.4895 2.14484 5
v -15.5958 2.11777 5
v -15.7007 2.08544 5
v -15.8038 2.04792 5
v -15.9048 2.00531 5
v -16.0037 1.95772 5
v -16.1 1.90526 5
v -16.1936 1.84806 5
v -16.2842 1.78626 5
v -16.3717 1.72003 5
v -16.4557 1.64952 5
v -16.5361 1.57491 5
v -16.6127 1.49638 5
v -16.6853 1.41413 5
v -16.7537 1.32837 5
v -16.8177 1.2393 5
v -16.8772 1.14716 5
v -16.9321 1.05216 5
v -16.9821 0.954544 5
v -17.0272 0.854557 5
v -17.0673 0.752444 5
v -17.1023 0.648461 5
v -17.132 0.542866 5
v -17.1564 0.435922 5
v -17.1754 0.327893 5
v -17.1891 0.219049 5
v -17.1973 0.109661 5
v -17.2 -7.54655e-15 5
v -17.1973 -0.109661 5
v -17.1891 -0.219049 5
v -17.1754 -0.327893 5
v -17.1564 -0.435922 5
v -17.132 -0.542866 5
v -17.1023 -0.648461 5
v -17.0673 -0.752444 5
v -17.0272 -0.854557 5
v -16.9821 -0.954544 5
v -16.9321 -1.05216 5
v -16.8772 -1.14716 5
v -16.8177 -1.2393 5
v -16.7537 -1.32837 5
v -16.6853 -1.41413 5
v -16.6127 -1.49638 5
v -16.5361 -1.57491 5
v -16.4557 -1.64952 5
v -16.3717 -1.72003 5
v -16.2842 -1.78626 5
v -16.1936 -1.84806 5
v -16.1 -1.90526 5
v -16.0037 -1.95772 5
v -15.9048 -2.00531 5
v -15.8038 -2.04792 5
v -15.7007 -2.08544 5
v -15.5958 -2.11777 5
v -15.4895 -2.14484 5
v -15.382 -2.16658 5
v -15.2736 -2.18293 5
v -15.1644 -2.19385 5
v -15.0548 -2.19932 5
v -14.9452 -2.19932 5
v -14.8356 -2.19385 5
v -14.7264 -2.18293 5
v -14.618 -2.16658 5
v -14.5105 -2.14484 5
v -14.4042 -2.11777 5
v -14.2993 -2.08544 5
v -14.1962 -2.04792 5
v -14.0952 -2.00531 5
v -13.9963 -1.95772 5
v -13.9 -1.90526 5
v -13.8064 -1.84806 5
v -13.7158 -1.78626 5
v -13.6283 -1.72003 5
v -13.5443 -1.64952 5
v -13.4639 -1.57491 5
v -13.3873 -1.49638 5
v -13.3147 -1.41413 5
v -13.2463 -1.32837 5
v -13.1823 -1.2393 5
v -13.1228 -1.14716 5
v -13.0679 -1.05216 5
v -13.0179 -0.954544 5
v -12.9728 -0.854557 5
v -12.9327 -0.752444 5
v -12.8977 -0.648461 5
v -12.868 -0.542866 5
v -12.8436 -0.435922 5
v -12.8246 -0.327893 5
v -12.8109 -0.219049 5
v -12.8027 -0.109661 5
v -12.8 -5.38845e-16 5
v -12.8 -5.38845e-16 0
v -12.8027 0.109661 0
v -12.8109 0.219049 0
v -12.8246 0.327893 0
v -12.8436 0.435922 0
v -12.868 0.542866 0
v -12.8977 0.648461 0
v -12.9327 0.752444 0
v -12.9728 0.854557 0
v -13.0179 0.954544 0
v -13.0679 1.05216 0
v -13.1228 1.14716 0
v -13.1823 1.2393 0
v -13.2463 1.32837 0
v -13.3147 1.41413 0
v -13.3873 1.49638 0
v -13.4639 1.57491 0
v -13.5443 1.64952 0
v -13.6283 1.72003 0
v -13.7158 1.78626 0
v -13.8064 1.84806 0
v -13.9 1.90526 0
v -13.9963 1.95772 0
v -14.0952 2.00531 0
v -14.1962 2.04792 0
v -14.2993 2.08544 0
v -14.4042 2.11777 0
v -14.5105 2.14484 0
v -14.618 2.16658 0
v -14.7264 2.18293 0
v -14.8356 2.19385 0
v -14.9452 2.19932 0
v -15.0548 2.19932 0
v -15.1644 2.19385 0
v -15.2736 2.18293 0
v -15.382 2.16658 0
v -15.4895 2.14484 0
v -15.5958 2.11777 0
v -15.7007 2.08544 0
v -15.8038 2.04792 0
v -15.9048 2.00531 0
v -16.0037 1.95772 0
v -16.1 1.90526 0
v -16.1936 1.84806 0
v -16.2842 1.78626 0
v -16.3717 1.72003 0
v -16.4557 1.64952 0
v -16.5361 1.57491 0
v -16.6127 1.49638 0
v -16.6853 1.41413 0
v -16.7537 1.32837 0
v -16.8177 1.2393 0
v -16.8772 1.14716 0
v -16.9321 1.05216 0
v -16.9821 0.954544 0
v -17.0272 0.854557 0
v -17.0673 0.752444 0
v -17.1023 0.648461 0
v -17.132 0.542866 0
v -17.1564 0.435922 0
v -17.1754 0.327893 0
v -17.1891 0.219049 0
v -17.1973 0.109661 0
v -17.2 -7.54655e-15 0
v -17.1973 -0.109661 0
v -17.1891 -0.219049 0
v -17.1754 -0.327893 0
v -17.1564 -0.435922 0
v -17.132 -0.542866 0
v -17.1023 -0.648461 0
v -17.0673 -0.752444 0
v -17.0272 -0.854557 0
v -16.9821 -0.954544 0
v -16.9321 -1.05216 0
v -16.8772 -1.14716 0
v -16.8177 -1.2393 0
v -16.7537 -1.32837 0
v -16.6853 -1.41413 0
v -16.6127 -1.49638 0
v -16.5361 -1.57491 0
v -16.4557 -1.64952 0
v -16.3717 -1.72003 0
v -16.2842 -1.78626 0
v -16.1936 -1.84806 0
v -16.1 -1.90526 0
v -16.0037 -1.95772 0
v -15.9048 -2.00531 0
v -15.8038 -2.04792 0
v -15.7007 -2.08544 0
v -15.5958 -2.11777 0
v -15.4895 -2.14484 0
v -15.382 -2.16658 0
v -15.2736 -2.18293 0
v -15.1644 -2.19385 0
v -15.0548 -2.19932 0
v -14.9452 -2.19932 0
v -14.8356 -2.19385 0
v -14.7264 -2.18293 0
v -14.618 -2.16658 0
v -14.5105 -2.14484 0
v -14.4042 -2.11777 0
v -14.2993 -2.08544 0
v -14.1962 -2.04792 0
v -14.0952 -2.00531 0
v -13.9963 -1.95772 0
v -13.9 -1.90526 0
v -13.8064 -1.84806 0
v -13.7158 -1.78626 0
v -13.6283 -1.72003 0
v -13.5443 -1.64952 0
v -13.4639 -1.57491 0
v -13.3873 -1.49638 0
v -13.3147 -1.41413 0
v -13.2463 -1.32837 0
v -13.1823 -1.2393 0
v -13.1228 -1.14716 0
v -13.0679 -1.05216 0
v -13.0179 -0.954544 0
v -12.9728 -0.854557 0
v -12.9327 -0.752444 0
v -12.8977 -0.648461 0
v -12.868 -0.542866 0
v -12.8436 -0.435922 0
v -12.8246 -0.327893 0
v -12.8109 -0.219049 0
v -12.8027 -0.109661 0
v -12.8 -5.38845e-16 0
v 17.2 -5.38845e-16 5
v 17.1973 0.109661 5
v 17.1891 0.219049 5
v 17.1754 0.327893 5
v 17.1564 0.435922 5
v 17.132 0.542866 5
v 17.1023 0.648461 5
v 17.0673 0.752444 5
v 17.0272 0.854557 5
v 16.9821 0.954544 5
v 16.9321 1.05216 5
v 16.8772 1.14716 5
v 16.8177 1.2393 5
v 16.7537 1.32837 5
v 16.6853 1.41413 5
v 16.6127 1.49638 5
v 16.5361 1.57491 5
v 16.4557 1.64952 5
v 16.3717 1.72003 5
v 16.2842 1.78626 5
v 16.1936 1.84806 5
v 16.1 1.90526 5
v 16.0037 1.95772 5
v 15.9048 2.00531 5
v 15.8038 2.04792 5
v 15.7007 2.08544 5
v 15.5958 2.11777 5
v 15.4895 2.14484 5
v 15.382 2.16658 5
v 15.2736 2.18293 5
v 15.1644 2.19385 5
v 15.0548 2.19932 5
v 14.9452 2.19932 5
v 14.8356 2.19385 5
v 14.7264 2.18293 5
v 14.618 2.16658 5
v 14.5105 2.14484 5
v 14.4042 2.11777 5
v 14.2993 2.08544 5
v 14.1962 2.04792 5
v 14.0952 2.00531 5
v 13.9963 1.95772 5
v 13.9 1.90526 5
v 13.8064 1.84806 5
v 13.7158 1.78626 5
v 13.6283 1.72003 5
v 13.5443 1.64952 5
v 13.4639 1.57491 5
v 13.3873 1.49638 5
v 13.3147 1.41413 5
v 13.2463 1.32837 5
v 13.1823 1.2393 5
v 13.1228 1.14716 5
v 13.0679 1.05216 5
v 13.0179 0.954544 5
v 12.9728 0.854557 5
v 12.9327 0.752444 5
v 12.8977 0.648461 5
v 12.868 0.542866 5
v 12.8436 0.435922 5
v 12.8246 0.327893 5
v 12.8109 0.219049 5
v 12.8027 0.109661 5
v 12.8 -7.54655e-15 5
v 12.8027 -0.109661 5
v 12.8109 -0.219049 5
v 12.8246 -0.327893 5
v 12.8436 -0.435922 5
v 12.868 -0.542866 5
v 12.8977 -0.648461 5
v 12.9327 -0.752444 5
v 12.9728 -0.854557 5
v 13.0179 -0.954544 5
v 13.0679 -1.05216 5
v 13.1228 -1.14716 5
v 13.1823 -1.2393 5
v 13.2463 -1.32837 5
v 13.3147 -1.41413 5
v 13.3873 -1.49638 5
v 13.4639 -1.57491 5
v 13.5443 -1.64952 5
v 13.6283 -1.72003 5
v 13.7158 -1.78626 5
v 13.8064 -1.84806 5
v 13.9 -1.90526 5
v 13.9963 -1.95772 5
v 14.0952 -2.00531 5
v 14.1962 -2.04792 5
v 14.2993 -2.08544 5
v 14.4042 -2.11777 5
v 14.5105 -2.14484 5
v 14.618 -2.16658 5
v 14.7264 -2.18293 5
v 14.8356 -2.19385 5
v 14.9452 -2.19932 5
v 15.0548 -2.19932 5
v 15.1644 -2.19385 5
v 15.2736 -2.18293 5
v 15.382 -2.16658 5
v 15.4895 -2.14484 5
v 15.5958 -2.11777 5
v 15.7007 -2.08544 5
v 15.8038 -2.04792 5
v 15.9048 -2.00531 5
v 16.0037 -1.95772 5
v 16.1 -1.90526 5
v 16.1936 -1.84806 5
v 16.2842 -1.78626 5
v 16.3717 -1.72003 5
v 16.4557 -1.64952 5
v 16.5361 -1.57491 5
v 16.6127 -1.49638 5
v 16.6853 -1.41413 5
v 16.7537 -1.32837 5
v 16.8177 -1.2393 5
v 16.8772 -1.14716 5
v 16.9321 -1.05216 5
v 16.9821 -0.954544 5
v 17.0272 -0.854557 5
v 17.0673 -0.752444 5
v 17.1023 -0.648461 5
v 17.132 -0.542866 5
v 17.1564 -0.435922 5
v 17.1754 -0.327893 5
v 17.1891 -0.219049 5
v 17.1973 -0.109661 5
v 17.2 -5.38845e-16 5
v 17.2 -5.38845e-16 0
v 17.1973 0.109661 0
v 17.1891 0.219049 0
v 17.1754 0.327893 0
v 17.1564 0.435922 0
v 17.132 0.542866 0
v 17.1023 0.648461 0
v 17.0673 0.752444 0
v 17.0272 0.854557 0
v 16.9821 0.954544 0
v 16.9321 1.05216 0
v 16.8772 1.14716 0
v 16.8177 1.2393 0
v 16.7537 1.32837 0
v 16.6853 1.41413 0
v 16.6127 1.49638 0
v 16.5361 1.57491 0
v 16.4557 1.64952 0
v 16.3717 1.72003 0
v 16.2842 1.78626 0
v 16.1936 1.84806 0
v 16.1 1.90526 0
v 16.0037 1.95772 0
v 15.9048 2.00531 0
v 15.8038 2.04792 0
v 15.7007 2.08544 0
v 15.5958 2.11777 0
v 15.4895 2.14484 0
v 15.382 2.16658 0
v 15.2736 2.18293 0
v 15.1644 2.19385 0
v 15.0548 2.19932 0
v 14.9452 2.19932 0
v 14.8356 2.19385 0
v 14.7264 2.18293 0
v 14.618 2.16658 0
v 14.5105 2.14484 0
v 14.4042 2.11777 0
v 14.2993 2.08544 0
v 14.1962 2.04792 0
v 14.0952 2.00531 0
v 13.9963 1.95772 0
v 13.9 1.90526 0
v 13.8064 1.84806 0
v 13.7158 1.78626 0
v 13.6283 1.72003 0
v 13.5443 1.64952 0
v 13.4639 1.57491 0
v 13.3873 1.49638 0
v 13.3147 1.41413 0
v 13.2463 1.32837 0
v 13.1823 1.2393 0
v 13.1228 1.14716 0
v 13.0679 1.05216 0
v 13.0179 0.954544 0
v 12.9728 0.854557 0
v 12.9327 0.752444 0
v 12.8977 0.648461 0
v 12.868 0.542866 0
v 12.8436 0.435922 0
v 12.8246 0.327893 0
v 12.8109 0.219049 0
v 12.8027 0.109661 0
v 12.8 -7.54655e-15 0
v 12.8027 -0.109661 0
v 12.8109 -0.219049 0
v 12.8246 -0.327893 0
v 12.8436 -0.435922 0
v 12.868 -0.542866 0
v 12.8977 -0.648461 0
v 12.9327 -0.752444 0
v 12.9728 -0.854557 0
v 13.0179 -0.954544 0
v 13.0679 -1.05216 0
v 13.1228 -1.14716 0
v 13.1823 -1.2393 0
v 13.2463 -1.32837 0
v 13.3147 -1.41413 0
v 13.3873 -1.49638 0
v 13.4639 -1.57491 0
v 13.5443 -1.64952 0
v 13.6283 -1.72003 0
v 13.7158 -1.78626 0
v 13.8064 -1.84806 0
v 13.9 -1.90526 0
v 13.9963 -1.95772 0
v 14.0952 -2.00531 0
v 14.1962 -2.04792 0
v 14.2993 -2.08544 0
v 14.4042 -2.11777 0
v 14.5105 -2.14484 0
v 14.618 -2.16658 0
v 14.7264 -2.18293 0
v 14.8356 -2.19385 0
v 14.9452 -2.19932 0
v 15.0548 -2.19932 0
v 15.1644 -2.19385 0
v 15.2736 -2.18293 0
v 15.382 -2.16658 0
v 15.4895 -2.14484 0
v 15.5958 -2.11777 0
v 15.7007 -2.08544 0
v 15.8038 -2.04792 0
v 15.9048 -2.00531 0
v 16.0037 -1.95772 0
v 16.1 -1.90526 0
v 16.1936 -1.84806 0
v 16.2842 -1.78626 0
v 16.3717 -1.72003 0
v 16.4557 -1.64952 0
v 16.5361 -1.57491 0
v 16.6127 -1.49638 0
v 16.6853 -1.41413 0
v 16.7537 -1.32837 0
v 16.8177 -1.2393 0
v 16.8772 -1.14716 0
v 16.9321 -1.05216 0
v 16.9821 -0.954544 0
v 17.0272 -0.854557 0
v 17.0673 -0.752444 0
v 17.1023 -0.648461 0
v 17.132 -0.542866 0
v 17.1564 -0.435922 0
v 17.1754 -0.327893 0
v 17.1891 -0.219049 0
v 17.1973 -0.109661 0
v 17.2 -5.38845e-16 0
f 2 3 1
f 2 4 3
f 8 7 5
f 91 8 92
f 93 92 8
f 90 8 91
f 94 93 8
f 89 8 90
f 95 94 8
f 88 8 89
f 96 95 8
f 87 8 88
f 97 96 8
f 86 8 87
f 98 97 8
f 85 8 86
f 99 98 8
f 84 8 85
f 100 99 8
f 83 8 84
f 101 8 5
f 101 100 8
f 82 8 83
f 102 101 5
f 81 8 82
f 103 102 5
f 80 8 81
f 104 103 5
f 79 8 80
f 105 104 5
f 78 8 79
f 106 105 5
f 77 8 78
f 76 8 77
f 75 8 76
f 74 8 75
f 73 8 74
f 9 8 73
f 9 71 70
f 9 72 71
f 9 73 72
f 69 9 70
f 68 9 69
f 67 9 68
f 66 9 67
f 65 9 66
f 64 9 65
f 63 9 64
f 62 9 63
f 61 9 62
f 60 9 61
f 59 9 60
f 58 9 59
f 57 9 58
f 56 9 57
f 55 9 56
f 54 9 55
f 53 9 54
f 52 9 53
f 51 9 52
f 50 9 51
f 49 9 50
f 48 9 49
f 47 9 48
f 46 9 47
f 45 9 46
f 11 115 114
f 11 14 13
f 11 116 115
f 11 15 14
f 11 117 116
f 11 16 15
f 11 118 117
f 11 119 118
f 11 120 119
f 11 121 120
f 11 122 121
f 11 123 122
f 11 124 123
f 11 125 124
f 11 126 125
f 11 127 126
f 11 128 127
f 11 129 128
f 11 130 129
f 11 131 130
f 11 132 131
f 11 133 132
f 11 134 133
f 11 135 134
f 11 136 135
f 11 137 136
f 11 138 137
f 11 13 138
f 6 109 108
f 6 110 109
f 6 111 110
f 6 112 111
f 6 113 112
f 6 114 113
f 6 11 114
f 12 11 6
f 10 17 16
f 10 18 17
f 10 19 18
f 10 20 19
f 10 21 20
f 10 22 21
f 10 23 22
f 10 24 23
f 10 25 24
f 10 26 25
f 10 27 26
f 10 28 27
f 10 29 28
f 10 30 29
f 10 31 30
f 10 32 31
f 10 9 45
f 10 33 32
f 10 34 33
f 10 35 34
f 10 36 35
f 10 37 36
f 10 38 37
f 10 39 38
f 10 40 39
f 10 41 40
f 10 42 41
f 10 43 42
f 10 44 43
f 10 45 44
f 10 16 11
f 6 107 5
f 107 106 5
f 6 108 107
f 221 141 222
f 223 222 141
f 220 141 221
f 224 223 141
f 219 141 220
f 225 224 141
f 218 141 219
f 226 225 141
f 217 141 218
f 227 226 141
f 216 141 217
f 228 227 141
f 215 141 216
f 229 228 141
f 214 141 215
f 230 229 141
f 213 141 214
f 231 230 141
f 212 141 213
f 232 231 141
f 211 141 212
f 233 232 141
f 210 141 211
f 234 233 141
f 209 141 210
f 235 234 141
f 208 141 209
f 236 235 141
f 207 141 208
f 237 236 141
f 206 141 207
f 238 141 142
f 238 237 141
f 239 238 142
f 240 239 142
f 241 240 142
f 242 241 142
f 243 242 142
f 244 243 142
f 245 244 142
f 246 245 142
f 247 246 142
f 248 247 142
f 249 248 142
f 250 249 142
f 251 250 142
f 252 251 142
f 253 252 142
f 254 253 142
f 255 254 142
f 256 255 142
f 257 256 142
f 258 257 142
f 259 258 142
f 260 259 142
f 261 260 142
f 262 261 142
f 263 262 142
f 264 263 142
f 265 264 142
f 266 265 142
f 267 266 142
f 268 267 142
f 143 268 142
f 139 176 175
f 139 177 176
f 139 178 177
f 139 179 178
f 139 180 179
f 139 181 180
f 139 182 181
f 139 183 182
f 139 184 183
f 139 185 184
f 139 186 185
f 139 187 186
f 139 188 187
f 139 189 188
f 139 190 189
f 139 191 190
f 139 192 191
f 139 193 192
f 139 194 193
f 139 195 194
f 139 196 195
f 139 197 196
f 139 198 197
f 139 199 198
f 139 200 199
f 139 201 200
f 139 202 201
f 139 203 202
f 139 204 203
f 139 205 204
f 139 206 205
f 139 141 206
f 140 143 142
f 140 144 143
f 140 145 144
f 140 146 145
f 140 147 146
f 140 148 147
f 140 149 148
f 140 150 149
f 140 151 150
f 140 152 151
f 140 153 152
f 140 154 153
f 140 155 154
f 140 156 155
f 140 157 156
f 140 158 157
f 140 159 158
f 140 160 159
f 140 161 160
f 140 162 161
f 140 163 162
f 140 164 163
f 140 165 164
f 140 166 165
f 140 167 166
f 140 168 167
f 140 169 168
f 140 170 169
f 140 171 170
f 140 172 171
f 140 173 172
f 140 174 173
f 140 175 174
f 140 139 175
f 271 269 270
f 355 356 271
f 357 271 356
f 354 355 271
f 358 271 357
f 353 354 271
f 359 271 358
f 352 353 271
f 360 271 359
f 351 352 271
f 361 271 360
f 350 351 271
f 362 271 361
f 349 350 271
f 363 271 362
f 348 349 271
f 364 271 363
f 347 348 271
f 365 269 271
f 365 271 364
f 346 347 271
f 366 269 365
f 345 346 271
f 367 269 366
f 344 345 271
f 368 269 367
f 343 344 271
f 369 269 368
f 342 343 271
f 370 269 369
f 341 342 271
f 340 341 271
f 339 340 271
f 338 339 271
f 337 338 271
f 272 337 271
f 272 334 335
f 272 335 336
f 272 336 337
f 333 334 272
f 332 333 272
f 331 332 272
f 330 331 272
f 329 330 272
f 328 329 272
f 327 328 272
f 326 327 272
f 325 326 272
f 324 325 272
f 323 324 272
f 322 323 272
f 321 322 272
f 320 321 272
f 319 320 272
f 318 319 272
f 317 318 272
f 316 317 272
f 315 316 272
f 314 315 272
f 313 314 272
f 312 313 272
f 311 312 272
f 310 311 272
f 309 310 272
f 274 378 379
f 274 277 278
f 274 379 380
f 274 278 279
f 274 380 381
f 274 279 280
f 274 381 382
f 274 382 383
f 274 383 384
f 274 384 385
f 274 385 386
f 274 386 387
f 274 387 388
f 274 388 389
f 274 389 390
f 274 390 391
f 274 391 392
f 274 392 393
f 274 393 394
f 274 394 395
f 274 395 396
f 274 396 397
f 274 397 398
f 274 398 399
f 274 399 400
f 274 400 401
f 274 401 402
f 274 402 277
f 276 372 373
f 276 373 374
f 276 374 375
f 276 375 376
f 276 376 377
f 276 377 378
f 276 378 274
f 275 276 274
f 273 280 281
f 273 281 282
f 273 282 283
f 273 283 284
f 273 284 285
f 273 285 286
f 273 286 287
f 273 287 288
f 273 288 289
f 273 289 290
f 273 290 291
f 273 291 292
f 273 292 293
f 273 293 294
f 273 294 295
f 273 295 296
f 273 309 272
f 273 296 297
f 273 297 298
f 273 298 299
f 273 299 300
f 273 300 301
f 273 301 302
f 273 302 303
f 273 303 304
f 273 304 305
f 273 305 306
f 273 306 307
f 273 307 308
f 273 308 309
f 273 274 280
f 276 269 371
f 371 269 370
f 276 371 372
f 485 486 403
f 487 403 486
f 484 485 403
f 488 403 487
f 483 484 403
f 489 403 488
f 482 483 403
f 490 403 489
f 481 482 403
f 491 403 490
f 480 481 403
f 492 403 491
f 479 480 403
f 493 403 492
f 478 479 403
f 494 403 493
f 477 478 403
f 495 403 494
f 476 477 403
f 496 403 495
f 475 476 403
f 497 403 496
f 474 475 403
f 498 403 497
f 473 474 403
f 499 403 498
f 472 473 403
f 500 403 499
f 471 472 403
f 501 403 500
f 470 471 403
f 502 403 501
f 503 403 502
f 504 403 503
f 505 403 504
f 506 403 505
f 507 403 506
f 508 403 507
f 509 403 508
f 510 403 509
f 511 403 510
f 512 403 511
f 513 403 512
f 514 403 513
f 404 470 403
f 404 429 430
f 404 430 431
f 404 431 432
f 404 432 433
f 404 433 434
f 404 434 435
f 404 435 436
f 404 436 437
f 404 437 438
f 404 438 439
f 404 439 440
f 404 440 441
f 404 441 442
f 404 442 443
f 404 443 444
f 404 444 445
f 404 445 446
f 404 446 447
f 404 447 448
f 404 448 449
f 404 449 450
f 404 450 451
f 404 451 452
f 404 452 453
f 404 453 454
f 404 454 455
f 404 455 456
f 404 456 457
f 404 457 458
f 404 458 459
f 404 459 460
f 404 460 461
f 404 461 462
f 404 462 463
f 404 463 464
f 404 464 465
f 404 465 466
f 404 466 467
f 404 467 468
f 404 468 469
f 404 469 470
f 428 429 404
f 427 428 404
f 426 427 404
f 611 612 517
f 611 517 518
f 613 517 612
f 613 516 517
f 610 518 519
f 610 611 518
f 614 514 515
f 614 515 516
f 614 516 613
f 609 519 520
f 609 610 519
f 615 514 614
f 608 520 521
f 608 609 520
f 607 608 521
f 607 521 522
f 405 615 616
f 405 616 617
f 405 514 615
f 405 403 514
f 606 522 523
f 606 607 522
f 618 405 617
f 605 523 524
f 605 606 523
f 619 405 618
f 604 524 525
f 604 525 526
f 604 605 524
f 620 405 619
f 603 604 526
f 621 405 620
f 602 526 527
f 602 603 526
f 622 405 621
f 601 527 528
f 601 602 527
f 623 405 622
f 600 601 528
f 600 528 529
f 624 405 623
f 599 529 530
f 599 600 529
f 625 405 624
f 598 599 530
f 598 530 531
f 626 405 625
f 597 531 532
f 597 598 531
f 627 405 626
f 596 532 407
f 596 597 532
f 628 405 627
f 595 407 408
f 595 596 407
f 629 405 628
f 594 408 409
f 594 595 408
f 630 405 629
f 593 409 410
f 593 410 411
f 593 594 409
f 631 405 630
f 592 593 411
f 632 405 631
f 591 411 412
f 591 592 411
f 633 405 632
f 590 412 413
f 590 591 412
f 634 405 633
f 589 413 414
f 589 590 413
f 635 405 634
f 588 414 415
f 588 589 414
f 636 405 635
f 587 415 416
f 587 588 415
f 637 405 636
f 586 416 417
f 586 587 416
f 638 405 637
f 585 586 417
f 585 417 418
f 639 405 638
f 584 585 418
f 584 418 419
f 640 405 639
f 583 419 420
f 583 584 419
f 641 405 640
f 582 420 421
f 582 583 420
f 642 405 641
f 581 421 422
f 581 582 421
f 643 405 642
f 580 422 423
f 580 581 422
f 644 405 643
f 579 423 424
f 579 424 425
f 579 580 423
f 645 405 644
f 578 579 425
f 646 405 645
f 577 425 426
f 577 578 425
f 577 426 404
f 647 405 646
f 648 405 647
f 649 405 648
f 650 405 649
f 651 405 650
f 652 405 651
f 653 405 652
f 654 405 653
f 655 405 654
f 656 405 655
f 657 405 656
f 658 405 657
f 533 405 658
f 406 533 534
f 406 534 535
f 406 535 536
f 406 536 537
f 406 537 538
f 406 538 539
f 406 539 540
f 406 540 541
f 406 541 542
f 406 542 543
f 406 543 544
f 406 544 545
f 406 545 546
f 406 546 547
f 406 547 548
f 406 548 549
f 406 549 550
f 406 550 551
f 406 551 552
f 406 552 553
f 406 553 554
f 406 554 555
f 406 555 556
f 406 577 404
f 406 556 557
f 406 557 558
f 406 558 559
f 406 559 560
f 406 560 561
f 406 561 562
f 406 562 563
f 406 563 564
f 406 564 565
f 406 565 566
f 406 566 567
f 406 567 568
f 406 568 569
f 406 569 570
f 406 570 571
f 406 571 572
f 406 572 573
f 406 573 574
f 406 574 575
f 406 575 576
f 406 576 577
f 406 405 533
f 660 659 661
f 660 661 662
f 745 665 746
f 747 746 665
f 744 665 745
f 748 747 665
f 743 665 744
f 749 748 665
f 742 665 743
f 750 749 665
f 741 665 742
f 751 750 665
f 740 665 741
f 752 751 665
f 739 665 740
f 753 752 665
f 738 665 739
f 754 753 665
f 737 665 738
f 755 754 665
f 736 665 737
f 756 755 665
f 735 665 736
f 757 756 665
f 734 665 735
f 758 757 665
f 733 665 734
f 759 758 665
f 732 665 733
f 760 759 665
f 731 665 732
f 761 665 666
f 761 760 665
f 730 665 731
f 762 761 666
f 763 762 666
f 764 763 666
f 765 764 666
f 766 765 666
f 767 766 666
f 768 767 666
f 769 768 666
f 770 769 666
f 771 770 666
f 772 771 666
f 773 772 666
f 774 773 666
f 775 774 666
f 776 775 666
f 777 776 666
f 778 777 666
f 779 778 666
f 780 779 666
f 781 780 666
f 782 781 666
f 783 782 666
f 784 783 666
f 785 784 666
f 786 785 666
f 787 786 666
f 788 787 666
f 789 788 666
f 790 789 666
f 791 790 666
f 792 791 666
f 667 792 666
f 663 700 699
f 663 701 700
f 663 702 701
f 663 703 702
f 663 704 703
f 663 705 704
f 663 706 705
f 663 707 706
f 663 708 707
f 663 709 708
f 663 710 709
f 663 711 710
f 663 712 711
f 663 713 712
f 663 714 713
f 663 715 714
f 663 716 715
f 663 717 716
f 663 718 717
f 663 719 718
f 663 720 719
f 663 721 720
f 663 722 721
f 663 723 722
f 663 724 723
f 663 725 724
f 663 726 725
f 663 727 726
f 663 728 727
f 663 729 728
f 663 730 729
f 663 665 730
f 664 668 667
f 664 669 668
f 664 670 669
f 664 671 670
f 664 672 671
f 664 673 672
f 664 674 673
f 664 675 674
f 664 676 675
f 664 677 676
f 664 678 677
f 664 679 678
f 664 680 679
f 664 681 680
f 664 682 681
f 664 683 682
f 664 684 683
f 664 685 684
f 664 686 685
f 664 687 686
f 664 667 666
f 664 688 687
f 664 689 688
f 664 690 689
f 664 691 690
f 664 692 691
f 664 693 692
f 664 694 693
f 664 695 694
f 664 696 695
f 664 697 696
f 664 698 697
f 664 699 698
f 664 663 699
f 794 795 793
f 794 796 795
f 798 797 799
f 798 799 800
f 803 802 801
f 804 802 803
f 806 932 805
f 806 933 932
f 807 934 933
f 807 933 806
f 808 935 934
f 808 936 935
f 808 934 807
f 809 937 936
f 809 936 808
f 810 937 809
f 811 938 937
f 811 939 938
f 811 937 810
f 812 940 939
f 812 939 811
f 813 940 812
f 814 941 940
f 814 940 813
f 815 942 941
f 815 943 942
f 815 941 814
f 816 943 815
f 816 944 943
f 817 944 816
f 818 944 817
f 818 945 944
f 818 946 945
f 819 946 818
f 820 946 819
f 820 947 946
f 821 947 820
f 821 948 947
f 822 948 821
f 822 949 948
f 823 949 822
f 823 950 949
f 824 950 823
f 824 951 950
f 825 951 824
f 825 952 951
f 825 953 952
f 826 953 825
f 827 953 826
f 827 954 953
f 828 955 954
f 828 954 827
f 828 956 955
f 829 956 828
f 830 957 956
f 830 956 829
f 831 958 957
f 831 957 830
f 832 959 958
f 832 958 831
f 833 960 959
f 833 959 832
f 834 961 960
f 834 960 833
f 835 962 961
f 835 961 834
f 836 963 962
f 836 962 835
f 837 964 963
f 837 963 836
f 838 965 964
f 838 966 965
f 838 964 837
f 839 966 838
f 840 967 966
f 840 966 839
f 841 968 967
f 841 969 968
f 841 967 840
f 842 969 841
f 842 970 969
f 843 970 842
f 844 970 843
f 844 971 970
f 845 971 844
f 845 972 971
f 846 972 845
f 846 973 972
f 847 973 846
f 847 974 973
f 848 974 847
f 848 975 974
f 849 975 848
f 849 976 975
f 850 976 849
f 850 977 976
f 850 978 977
f 851 978 850
f 852 978 851
f 852 979 978
f 853 979 852
f 853 980 979
f 854 980 853
f 854 981 980
f 855 981 854
f 855 982 981
f 856 982 855
f 856 983 982
f 856 984 983
f 857 984 856
f 857 985 984
f 858 985 857
f 859 985 858
f 859 986 985
f 860 986 859
f 860 987 986
f 861 987 860
f 861 988 987
f 862 988 861
f 862 989 988
f 863 990 989
f 863 989 862
f 864 991 990
f 864 990 863
f 865 992 991
f 865 991 864
f 866 993 992
f 866 994 993
f 866 992 865
f 867 994 866
f 868 994 867
f 868 995 994
f 869 995 868
f 869 996 995
f 870 996 869
f 870 997 996
f 870 998 997
f 871 998 870
f 871 999 998
f 872 999 871
f 873 999 872
f 873 1000 999
f 874 1000 873
f 874 1001 1000
f 875 1001 874
f 875 1002 1001
f 875 1003 1002
f 876 1003 875
f 877 1003 876
f 877 1004 1003
f 878 1004 877
f 878 1005 1004
f 879 1007 1006
f 879 1005 878
f 879 1006 1005
f 880 1007 879
f 881 1008 1007
f 881 1007 880
f 882 1009 1008
f 882 1010 1009
f 882 1008 881
f 883 1010 882
f 884 1011 1010
f 884 1010 883
f 885 1012 1011
f 885 1011 884
f 886 1013 1012
f 886 1012 885
f 887 1014 1013
f 887 1013 886
f 888 1015 1014
f 888 1014 887
f 889 1016 1015
f 889 1017 1016
f 889 1015 888
f 890 1017 889
f 891 1018 1017
f 891 1019 1018
f 891 1017 890
f 892 1019 891
f 893 1019 892
f 893 1020 1019
f 893 1021 1020
f 894 1021 893
f 894 1022 1021
f 895 1022 894
f 896 1023 1022
f 896 1024 1023
f 896 1022 895
f 897 1024 896
f 898 1025 1024
f 898 1024 897
f 899 1026 1025
f 899 1027 1026
f 899 1025 898
f 900 1027 899
f 901 1028 1027
f 901 1029 1028
f 901 1027 900
f 902 1029 901
f 903 1030 1029
f 903 1029 902
f 904 1031 1030
f 904 1030 903
f 905 1032 1031
f 905 1031 904
f 906 1033 1032
f 906 1034 1033
f 906 1032 905
f 907 1034 906
f 908 1035 1034
f 908 1034 907
f 909 1036 1035
f 909 1035 908
f 910 1037 1036
f 910 1038 1037
f 910 1036 909
f 911 1038 910
f 912 1039 1038
f 912 1038 911
f 913 1040 1039
f 913 1041 1040
f 913 1039 912
f 914 1041 913
f 915 1042 1041
f 915 1041 914
f 916 1043 1042
f 916 1044 1043
f 916 1042 915
f 917 1044 916
f 918 1044 917
f 918 1045 1044
f 918 1046 1045
f 919 1046 918
f 919 1047 1046
f 920 1047 919
f 921 1047 920
f 921 1048 1047
f 922 1048 921
f 922 1049 1048
f 923 1049 922
f 923 1050 1049
f 924 1050 923
f 924 1051 1050
f 925 1051 924
f 925 1052 1051
f 925 1053 1052
f 926 1053 925
f 927 1053 926
f 927 1054 1053
f 927 1055 1054
f 928 1055 927
f 929 1055 928
f 929 1056 1055
f 930 1057 1056
f 930 1056 929
f 930 1058 1057
f 931 1058 930
f 1060 1186 1059
f 1060 1187 1186
f 1061 1188 1187
f 1061 1189 1188
f 1061 1187 1060
f 1062 1189 1061
f 1063 1190 1189
f 1063 1191 1190
f 1063 1189 1062
f 1064 1191 1063
f 1065 1192 1191
f 1065 1191 1064
f 1066 1193 1192
f 1066 1194 1193
f 1066 1192 1065
f 1067 1194 1066
f 1068 1195 1194
f 1068 1196 1195
f 1068 1194 1067
f 1069 1196 1068
f 1070 1196 1069
f 1070 1197 1196
f 1070 1198 1197
f 1071 1198 1070
f 1072 1198 1071
f 1072 1199 1198
f 1073 1199 1072
f 1073 1200 1199
f 1073 1201 1200
f 1074 1201 1073
f 1074 1202 1201
f 1075 1202 1074
f 1076 1202 1075
f 1076 1203 1202
f 1077 1203 1076
f 1077 1204 1203
f 1078 1204 1077
f 1078 1205 1204
f 1079 1205 1078
f 1079 1206 1205
f 1080 1206 1079
f 1080 1207 1206
f 1081 1207 1080
f 1081 1208 1207
f 1082 1209 1208
f 1082 1208 1081
f 1083 1210 1209
f 1083 1209 1082
f 1084 1211 1210
f 1084 1210 1083
f 1085 1212 1211
f 1085 1213 1212
f 1085 1211 1084
f 1086 1213 1085
f 1087 1214 1213
f 1087 1215 1214
f 1087 1213 1086
f 1088 1215 1087
f 1089 1216 1215
f 1089 1215 1088
f 1090 1217 1216
f 1090 1218 1217
f 1090 1216 1089
f 1091 1218 1090
f 1092 1219 1218
f 1092 1218 1091
f 1093 1220 1219
f 1093 1219 1092
f 1094 1221 1220
f 1094 1220 1093
f 1095 1222 1221
f 1095 1221 1094
f 1096 1222 1095
f 1096 1223 1222
f 1097 1223 1096
f 1097 1224 1223
f 1097 1225 1224
f 1098 1225 1097
f 1099 1225 1098
f 1099 1226 1225
f 1100 1226 1099
f 1100 1227 1226
f 1101 1227 1100
f 1101 1228 1227
f 1102 1228 1101
f 1102 1229 1228
f 1103 1229 1102
f 1103 1230 1229
f 1104 1230 1103
f 1104 1231 1230
f 1104 1232 1231
f 1105 1232 1104
f 1106 1232 1105
f 1106 1233 1232
f 1107 1233 1106
f 1107 1234 1233
f 1108 1234 1107
f 1108 1235 1234
f 1109 1235 1108
f 1109 1236 1235
f 1109 1237 1236
f 1110 1237 1109
f 1111 1237 1110
f 1111 1238 1237
f 1111 1239 1238
f 1112 1239 1111
f 1113 1239 1112
f 1113 1240 1239
f 1114 1240 1113
f 1114 1241 1240
f 1115 1241 1114
f 1115 1242 1241
f 1116 1242 1115
f 1116 1243 1242
f 1116 1244 1243
f 1117 1244 1116
f 1118 1245 1244
f 1118 1244 1117
f 1119 1246 1245
f 1119 1247 1246
f 1119 1245 1118
f 1120 1248 1247
f 1120 1247 1119
f 1121 1248 1120
f 1121 1249 1248
f 1122 1249 1121
f 1122 1250 1249
f 1123 1250 1122
f 1124 1250 1123
f 1124 1251 1250
f 1124 1252 1251
f 1125 1252 1124
f 1125 1253 1252
f 1126 1253 1125
f 1127 1253 1126
f 1127 1254 1253
f 1128 1254 1127
f 1128 1255 1254
f 1128 1256 1255
f 1129 1256 1128
f 1130 1256 1129
f 1130 1257 1256
f 1131 1257 1130
f 1131 1258 1257
f 1132 1258 1131
f 1132 1259 1258
f 1133 1259 1132
f 1133 1260 1259
f 1134 1261 1260
f 1134 1260 1133
f 1135 1262 1261
f 1135 1261 1134
f 1136 1263 1262
f 1136 1262 1135
f 1137 1264 1263
f 1137 1263 1136
f 1138 1265 1264
f 1138 1264 1137
f 1139 1266 1265
f 1139 1265 1138
f 1140 1267 1266
f 1140 1266 1139
f 1141 1268 1267
f 1141 1267 1140
f 1142 1269 1268
f 1142 1270 1269
f 1142 1268 1141
f 1143 1270 1142
f 1144 1271 1270
f 1144 1270 1143
f 1145 1272 1271
f 1145 1273 1272
f 1145 1271 1144
f 1146 1273 1145
f 1147 1273 1146
f 1147 1274 1273
f 1148 1274 1147
f 1148 1275 1274
f 1149 1275 1148
f 1149 1276 1275
f 1149 1277 1276
f 1150 1277 1149
f 1150 1278 1277
f 1151 1278 1150
f 1152 1279 1278
f 1152 1280 1279
f 1152 1278 1151
f 1153 1280 1152
f 1154 1281 1280
f 1154 1280 1153
f 1155 1282 1281
f 1155 1281 1154
f 1156 1283 1282
f 1156 1282 1155
f 1157 1284 1283
f 1157 1283 1156
f 1158 1285 1284
f 1158 1284 1157
f 1159 1286 1285
f 1159 1285 1158
f 1160 1287 1286
f 1160 1286 1159
f 1161 1288 1287
f 1161 1289 1288
f 1161 1287 1160
f 1162 1290 1289
f 1162 1289 1161
f 1163 1291 1290
f 1163 1290 1162
f 1164 1291 1163
f 1165 1292 1291
f 1165 1291 1164
f 1166 1293 1292
f 1166 1292 1165
f 1167 1294 1293
f 1167 1293 1166
f 1168 1295 1294
f 1168 1294 1167
f 1169 1296 1295
f 1169 1295 1168
f 1170 1297 1296
f 1170 1298 1297
f 1170 1296 1169
f 1171 1298 1170
f 1172 1298 1171
f 1172 1299 1298
f 1172 1300 1299
f 1173 1300 1172
f 1174 1300 1173
f 1174 1301 1300
f 1175 1301 1174
f 1175 1302 1301
f 1175 1303 1302
f 1176 1303 1175
f 1177 1303 1176
f 1177 1304 1303
f 1178 1304 1177
f 1178 1305 1304
f 1178 1306 1305
f 1179 1306 1178
f 1180 1306 1179
f 1180 1307 1306
f 1181 1307 1180
f 1181 1308 1307
f 1182 1308 1181
f 1182 1309 1308
f 1183 1309 1182
f 1183 1310 1309
f 1184 1311 1310
f 1184 1310 1183
f 1185 1312 1311
f 1185 1311 1184
f 1314 1440 1313
f 1314 1441 1440
f 1315 1442 1441
f 1315 1443 1442
f 1315 1441 1314
f 1316 1443 1315
f 1317 1444 1443
f 1317 1445 1444
f 1317 1443 1316
f 1318 1445 1317
f 1319 1446 1445
f 1319 1445 1318
f 1320 1447 1446
f 1320 1448 1447
f 1320 1446 1319
f 1321 1448 1320
f 1322 1449 1448
f 1322 1450 1449
f 1322 1448 1321
f 1323 1450 1322
f 1324 1450 1323
f 1324 1451 1450
f 1324 1452 1451
f 1325 1452 1324
f 1326 1452 1325
f 1326 1453 1452
f 1327 1453 1326
f 1327 1454 1453
f 1327 1455 1454
f 1328 1455 1327
f 1328 1456 1455
f 1329 1456 1328
f 1330 1456 1329
f 1330 1457 1456
f 1331 1457 1330
f 1331 1458 1457
f 1332 1458 1331
f 1332 1459 1458
f 1333 1459 1332
f 1333 1460 1459
f 1334 1460 1333
f 1334 1461 1460
f 1335 1461 1334
f 1335 1462 1461
f 1336 1463 1462
f 1336 1462 1335
f 1337 1464 1463
f 1337 1463 1336
f 1338 1465 1464
f 1338 1464 1337
f 1339 1466 1465
f 1339 1467 1466
f 1339 1465 1338
f 1340 1467 1339
f 1341 1468 1467
f 1341 1469 1468
f 1341 1467 1340
f 1342 1469 1341
f 1343 1470 1469
f 1343 1469 1342
f 1344 1471 1470
f 1344 1472 1471
f 1344 1470 1343
f 1345 1472 1344
f 1346 1473 1472
f 1346 1472 1345
f 1347 1474 1473
f 1347 1473 1346
f 1348 1475 1474
f 1348 1474 1347
f 1349 1476 1475
f 1349 1475 1348
f 1350 1476 1349
f 1350 1477 1476
f 1351 1477 1350
f 1351 1478 1477
f 1351 1479 1478
f 1352 1479 1351
f 1353 1479 1352
f 1353 1480 1479
f 1354 1480 1353
f 1354 1481 1480
f 1355 1481 1354
f 1355 1482 1481
f 1356 1482 1355
f 1356 1483 1482
f 1357 1483 1356
f 1357 1484 1483
f 1358 1484 1357
f 1358 1485 1484
f 1358 1486 1485
f 1359 1486 1358
f 1360 1486 1359
f 1360 1487 1486
f 1361 1487 1360
f 1361 1488 1487
f 1362 1488 1361
f 1362 1489 1488
f 1363 1489 1362
f 1363 1490 1489
f 1363 1491 1490
f 1364 1491 1363
f 1365 1491 1364
f 1365 1492 1491
f 1365 1493 1492
f 1366 1493 1365
f 1367 1493 1366
f 1367 1494 1493
f 1368 1494 1367
f 1368 1495 1494
f 1369 1495 1368
f 1369 1496 1495
f 1370 1496 1369
f 1370 1497 1496
f 1370 1498 1497
f 1371 1498 1370
f 1372 1499 1498
f 1372 1498 1371
f 1373 1500 1499
f 1373 1501 1500
f 1373 1499 1372
f 1374 1502 1501
f 1374 1501 1373
f 1375 1502 1374
f 1375 1503 1502
f 1376 1503 1375
f 1376 1504 1503
f 1377 1504 1376
f 1378 1504 1377
f 1378 1505 1504
f 1378 1506 1505
f 1379 1506 1378
f 1379 1507 1506
f 1380 1507 1379
f 1381 1507 1380
f 1381 1508 1507
f 1382 1508 1381
f 1382 1509 1508
f 1382 1510 1509
f 1383 1510 1382
f 1384 1510 1383
f 1384 1511 1510
f 1385 1511 1384
f 1385 1512 1511
f 1386 1512 1385
f 1386 1513 1512
f 1387 1513 1386
f 1387 1514 1513
f 1388 1515 1514
f 1388 1514 1387
f 1389 1516 1515
f 1389 1515 1388
f 1390 1517 1516
f 1390 1516 1389
f 1391 1518 1517
f 1391 1517 1390
f 1392 1519 1518
f 1392 1518 1391
f 1393 1520 1519
f 1393 1519 1392
f 1394 1521 1520
f 1394 1520 1393
f 1395 1522 1521
f 1395 1521 1394
f 1396 1523 1522
f 1396 1524 1523
f 1396 1522 1395
f 1397 1524 1396
f 1398 1525 1524
f 1398 1524 1397
f 1399 1526 1525
f 1399 1527 1526
f 1399 1525 1398
f 1400 1527 1399
f 1401 1527 1400
f 1401 1528 1527
f 1402 1528 1401
f 1402 1529 1528
f 1403 1529 1402
f 1403 1530 1529
f 1403 1531 1530
f 1404 1531 1403
f 1404 1532 1531
f 1405 1532 1404
f 1406 1533 1532
f 1406 1534 1533
f 1406 1532 1405
f 1407 1534 1406
f 1408 1535 1534
f 1408 1534 1407
f 1409 1536 1535
f 1409 1535 1408
f 1410 1537 1536
f 1410 1536 1409
f 1411 1538 1537
f 1411 1537 1410
f 1412 1539 1538
f 1412 1538 1411
f 1413 1540 1539
f 1413 1539 1412
f 1414 1541 1540
f 1414 1540 1413
f 1415 1542 1541
f 1415 1543 1542
f 1415 1541 1414
f 1416 1544 1543
f 1416 1543 1415
f 1417 1545 1544
f 1417 1544 1416
f 1418 1545 1417
f 1419 1546 1545
f 1419 1545 1418
f 1420 1547 1546
f 1420 1546 1419
f 1421 1548 1547
f 1421 1547 1420
f 1422 1549 1548
f 1422 1548 1421
f 1423 1550 1549
f 1423 1549 1422
f 1424 1551 1550
f 1424 1552 1551
f 1424 1550 1423
f 1425 1552 1424
f 1426 1552 1425
f 1426 1553 1552
f 1426 1554 1553
f 1427 1554 1426
f 1428 1554 1427
f 1428 1555 1554
f 1429 1555 1428
f 1429 1556 1555
f 1429 1557 1556
f 1430 1557 1429
f 1431 1557 1430
f 1431 1558 1557
f 1432 1558 1431
f 1432 1559 1558
f 1432 1560 1559
f 1433 1560 1432
f 1434 1560 1433
f 1434 1561 1560
f 1435 1561 1434
f 1435 1562 1561
f 1436 1562 1435
f 1436 1563 1562
f 1437 1563 1436
f 1437 1564 1563
f 1438 1565 1564
f 1438 1564 1437
f 1439 1566 1565
f 1439 1565 1438
