# Cadless export: model
v -45 -15 25
v -45 15 25
v -45 -15 0
v -45 -10 0
v -45 -10 3
v -45 10 3
v -45 10 0
v -45 15 0
v -45 -15 25
v -45 15 25
v 45 -15 25
v 45 15 25
v -15 -8 25
v -17 -8 25
v -17 8 25
v -15 8 25
v -7 -8 25
v -9 -8 25
v -9 8 25
v -7 8 25
v 1 -8 25
v -1 -8 25
v -1 8 25
v 1 8 25
v 9 -8 25
v 7 -8 25
v 7 8 25
v 9 8 25
v 17 -8 25
v 15 -8 25
v 15 8 25
v 17 8 25
v -45 15 0
v 45 15 0
v -45 15 25
v 45 15 25
v -45 -15 0
v -45 -10 0
v 45 -15 0
v 45 -10 0
v 55 -10 0
v 55 10 0
v 45 10 0
v 45 15 0
v -45 15 0
v -45 10 0
v -55 10 0
v -55 -10 0
v -48.3 -4.1638e-16 0
v -48.3021 0.084738 0
v -48.3084 0.169265 0
v -48.319 0.253372 0
v -48.3337 0.336848 0
v -48.3526 0.419488 0
v -48.3755 0.501084 0
v -48.4025 0.581434 0
v -48.4335 0.660339 0
v -48.4684 0.737602 0
v -48.507 0.813032 0
v -48.5494 0.88644 0
v -48.5954 0.957644 0
v -48.6449 1.02647 0
v -48.6977 1.09274 0
v -48.7538 1.15629 0
v -48.813 1.21697 0
v -48.8751 1.27463 0
v -48.9401 1.32911 0
v -49.0076 1.38029 0
v -49.0777 1.42804 0
v -49.15 1.47224 0
v -49.2244 1.51278 0
v -49.3008 1.54956 0
v -49.3789 1.58249 0
v -49.4586 1.61148 0
v -49.5396 1.63646 0
v -49.6217 1.65738 0
v -49.7048 1.67417 0
v -49.7886 1.68681 0
v -49.873 1.69525 0
v -49.9576 1.69947 0
v -50.0424 1.69947 0
v -50.127 1.69525 0
v -50.2114 1.68681 0
v -50.2952 1.67417 0
v -50.3783 1.65738 0
v -50.4604 1.63646 0
v -50.5414 1.61148 0
v -50.6211 1.58249 0
v -50.6992 1.54956 0
v -50.7756 1.51278 0
v -50.85 1.47224 0
v -50.9223 1.42804 0
v -50.9924 1.38029 0
v -51.0599 1.32911 0
v -51.1249 1.27463 0
v -51.187 1.21697 0
v -51.2462 1.15629 0
v -51.3023 1.09274 0
v -51.3551 1.02647 0
v -51.4046 0.957644 0
v -51.4506 0.88644 0
v -51.493 0.813032 0
v -51.5316 0.737602 0
v -51.5665 0.660339 0
v -51.5975 0.581434 0
v -51.6245 0.501084 0
v -51.6474 0.419488 0
v -51.6663 0.336848 0
v -51.681 0.253372 0
v -51.6916 0.169265 0
v -51.6979 0.084738 0
v -51.7 -5.83142e-15 0
v -51.6979 -0.084738 0
v -51.6916 -0.169265 0
v -51.681 -0.253372 0
v -51.6663 -0.336848 0
v -51.6474 -0.419488 0
v -51.6245 -0.501084 0
v -51.5975 -0.581434 0
v -51.5665 -0.660339 0
v -51.5316 -0.737602 0
v -51.493 -0.813032 0
v -51.4506 -0.88644 0
v -51.4046 -0.957644 0
v -51.3551 -1.02647 0
v -51.3023 -1.09274 0
v -51.2462 -1.15629 0
v -51.187 -1.21697 0
v -51.1249 -1.27463 0
v -51.0599 -1.32911 0
v -50.9924 -1.38029 0
v -50.9223 -1.42804 0
v -50.85 -1.47224 0
v -50.7756 -1.51278 0
v -50.6992 -1.54956 0
v -50.6211 -1.58249 0
v -50.5414 -1.61148 0
v -50.4604 -1.63646 0
v -50.3783 -1.65738 0
v -50.2952 -1.67417 0
v -50.2114 -1.68681 0
v -50.127 -1.69525 0
v -50.0424 -1.69947 0
v -49.9576 -1.69947 0
v -49.873 -1.69525 0
v -49.7886 -1.68681 0
v -49.7048 -1.67417 0
v -49.6217 -1.65738 0
v -49.5396 -1.63646 0
v -49.4586 -1.61148 0
v -49.3789 -1.58249 0
v -49.3008 -1.54956 0
v -49.2244 -1.51278 0
v -49.15 -1.47224 0
v -49.0777 -1.42804 0
v -49.0076 -1.38029 0
v -48.9401 -1.32911 0
v -48.8751 -1.27463 0
v -48.813 -1.21697 0
v -48.7538 -1.15629 0
v -48.6977 -1.09274 0
v -48.6449 -1.02647 0
v -48.5954 -0.957644 0
v -48.5494 -0.88644 0
v -48.507 -0.813032 0
v -48.4684 -0.737602 0
v -48.4335 -0.660339 0
v -48.4025 -0.581434 0
v -48.3755 -0.501084 0
v -48.3526 -0.419488 0
v -48.3337 -0.336848 0
v -48.319 -0.253372 0
v -48.3084 -0.169265 0
v -48.3021 -0.084738 0
v 43 -13 0
v -43 -13 0
v -43 13 0
v 43 13 0
v 51.7 -4.1638e-16 0
v 51.6979 0.084738 0
v 51.6916 0.169265 0
v 51.681 0.253372 0
v 51.6663 0.336848 0
v 51.6474 0.419488 0
v 51.6245 0.501084 0
v 51.5975 0.581434 0
v 51.5665 0.660339 0
v 51.5316 0.737602 0
v 51.493 0.813032 0
v 51.4506 0.88644 0
v 51.4046 0.957644 0
v 51.3551 1.02647 0
v 51.3023 1.09274 0
v 51.2462 1.15629 0
v 51.187 1.21697 0
v 51.1249 1.27463 0
v 51.0599 1.32911 0
v 50.9924 1.38029 0
v 50.9223 1.42804 0
v 50.85 1.47224 0
v 50.7756 1.51278 0
v 50.6992 1.54956 0
v 50.6211 1.58249 0
v 50.5414 1.61148 0
v 50.4604 1.63646 0
v 50.3783 1.65738 0
v 50.2952 1.67417 0
v 50.2114 1.68681 0
v 50.127 1.69525 0
v 50.0424 1.69947 0
v 49.9576 1.69947 0
v 49.873 1.69525 0
v 49.7886 1.68681 0
v 49.7048 1.67417 0
v 49.6217 1.65738 0
v 49.5396 1.63646 0
v 49.4586 1.61148 0
v 49.3789 1.58249 0
v 49.3008 1.54956 0
v 49.2244 1.51278 0
v 49.15 1.47224 0
v 49.0777 1.42804 0
v 49.0076 1.38029 0
v 48.9401 1.32911 0
v 48.8751 1.27463 0
v 48.813 1.21697 0
v 48.7538 1.15629 0
v 48.6977 1.09274 0
v 48.6449 1.02647 0
v 48.5954 0.957644 0
v 48.5494 0.88644 0
v 48.507 0.813032 0
v 48.4684 0.737602 0
v 48.4335 0.660339 0
v 48.4025 0.581434 0
v 48.3755 0.501084 0
v 48.3526 0.419488 0
v 48.3337 0.336848 0
v 48.319 0.253372 0
v 48.3084 0.169265 0
v 48.3021 0.084738 0
v 48.3 -5.83142e-15 0
v 48.3021 -0.084738 0
v 48.3084 -0.169265 0
v 48.319 -0.253372 0
v 48.3337 -0.336848 0
v 48.3526 -0.419488 0
v 48.3755 -0.501084 0
v 48.4025 -0.581434 0
v 48.4335 -0.660339 0
v 48.4684 -0.737602 0
v 48.507 -0.813032 0
v 48.5494 -0.88644 0
v 48.5954 -0.957644 0
v 48.6449 -1.02647 0
v 48.6977 -1.09274 0
v 48.7538 -1.15629 0
v 48.813 -1.21697 0
v 48.8751 -1.27463 0
v 48.9401 -1.32911 0
v 49.0076 -1.38029 0
v 49.0777 -1.42804 0
v 49.15 -1.47224 0
v 49.2244 -1.51278 0
v 49.3008 -1.54956 0
v 49.3789 -1.58249 0
v 49.4586 -1.61148 0
v 49.5396 -1.63646 0
v 49.6217 -1.65738 0
v 49.7048 -1.67417 0
v 49.7886 -1.68681 0
v 49.873 -1.69525 0
v 49.9576 -1.69947 0
v 50.0424 -1.69947 0
v 50.127 -1.69525 0
v 50.2114 -1.68681 0
v 50.2952 -1.67417 0
v 50.3783 -1.65738 0
v 50.4604 -1.63646 0
v 50.5414 -1.61148 0
v 50.6211 -1.58249 0
v 50.6992 -1.54956 0
v 50.7756 -1.51278 0
v 50.85 -1.47224 0
v 50.9223 -1.42804 0
v 50.9924 -1.38029 0
v 51.0599 -1.32911 0
v 51.1249 -1.27463 0
v 51.187 -1.21697 0
v 51.2462 -1.15629 0
v 51.3023 -1.09274 0
v 51.3551 -1.02647 0
v 51.4046 -0.957644 0
v 51.4506 -0.88644 0
v 51.493 -0.813032 0
v 51.5316 -0.737602 0
v 51.5665 -0.660339 0
v 51.5975 -0.581434 0
v 51.6245 -0.501084 0
v 51.6474 -0.419488 0
v 51.6663 -0.336848 0
v 51.681 -0.253372 0
v 51.6916 -0.169265 0
v 51.6979 -0.084738 0
v -55 10 0
v -45 10 0
v -55 10 3
v -45 10 3
v -55 -10 3
v -55 10 3
v -45 -10 3
v -45 10 3
v -48.3 -4.1638e-16 3
v -48.3021 0.084738 3
v -48.3084 0.169265 3
v -48.319 0.253372 3
v -48.3337 0.336848 3
v -48.3526 0.419488 3
v -48.3755 0.501084 3
v -48.4025 0.581434 3
v -48.4335 0.660339 3
v -48.4684 0.737602 3
v -48.507 0.813032 3
v -48.5494 0.88644 3
v -48.5954 0.957644 3
v -48.6449 1.02647 3
v -48.6977 1.09274 3
v -48.7538 1.15629 3
v -48.813 1.21697 3
v -48.8751 1.27463 3
v -48.9401 1.32911 3
v -49.0076 1.38029 3
v -49.0777 1.42804 3
v -49.15 1.47224 3
v -49.2244 1.51278 3
v -49.3008 1.54956 3
v -49.3789 1.58249 3
v -49.4586 1.61148 3
v -49.5396 1.63646 3
v -49.6217 1.65738 3
v -49.7048 1.67417 3
v -49.7886 1.68681 3
v -49.873 1.69525 3
v -49.9576 1.69947 3
v -50.0424 1.69947 3
v -50.127 1.69525 3
v -50.2114 1.68681 3
v -50.2952 1.67417 3
v -50.3783 1.65738 3
v -50.4604 1.63646 3
v -50.5414 1.61148 3
v -50.6211 1.58249 3
v -50.6992 1.54956 3
v -50.7756 1.51278 3
v -50.85 1.47224 3
v -50.9223 1.42804 3
v -50.9924 1.38029 3
v -51.0599 1.32911 3
v -51.1249 1.27463 3
v -51.187 1.21697 3
v -51.2462 1.15629 3
v -51.3023 1.09274 3
v -51.3551 1.02647 3
v -51.4046 0.957644 3
v -51.4506 0.88644 3
v -51.493 0.813032 3
v -51.5316 0.737602 3
v -51.5665 0.660339 3
v -51.5975 0.581434 3
v -51.6245 0.501084 3
v -51.6474 0.419488 3
v -51.6663 0.336848 3
v -51.681 0.253372 3
v -51.6916 0.169265 3
v -51.6979 0.084738 3
v -51.7 -5.83142e-15 3
v -51.6979 -0.084738 3
v -51.6916 -0.169265 3
v -51.681 -0.253372 3
v -51.6663 -0.336848 3
v -51.6474 -0.419488 3
v -51.6245 -0.501084 3
v -51.5975 -0.581434 3
v -51.5665 -0.660339 3
v -51.5316 -0.737602 3
v -51.493 -0.813032 3
v -51.4506 -0.88644 3
v -51.4046 -0.957644 3
v -51.3551 -1.02647 3
v -51.3023 -1.09274 3
v -51.2462 -1.15629 3
v -51.187 -1.21697 3
v -51.1249 -1.27463 3
v -51.0599 -1.32911 3
v -50.9924 -1.38029 3
v -50.9223 -1.42804 3
v -50.85 -1.47224 3
v -50.7756 -1.51278 3
v -50.6992 -1.54956 3
v -50.6211 -1.58249 3
v -50.5414 -1.61148 3
v -50.4604 -1.63646 3
v -50.3783 -1.65738 3
v -50.2952 -1.67417 3
v -50.2114 -1.68681 3
v -50.127 -1.69525 3
v -50.0424 -1.69947 3
v -49.9576 -1.69947 3
v -49.873 -1.69525 3
v -49.7886 -1.68681 3
v -49.7048 -1.67417 3
v -49.6217 -1.65738 3
v -49.5396 -1.63646 3
v -49.4586 -1.61148 3
v -49.3789 -1.58249 3
v -49.3008 -1.54956 3
v -49.2244 -1.51278 3
v -49.15 -1.47224 3
v -49.0777 -1.42804 3
v -49.0076 -1.38029 3
v -48.9401 -1.32911 3
v -48.8751 -1.27463 3
v -48.813 -1.21697 3
v -48.7538 -1.15629 3
v -48.6977 -1.09274 3
v -48.6449 -1.02647 3
v -48.5954 -0.957644 3
v -48.5494 -0.88644 3
v -48.507 -0.813032 3
v -48.4684 -0.737602 3
v -48.4335 -0.660339 3
v -48.4025 -0.581434 3
v -48.3755 -0.501084 3
v -48.3526 -0.419488 3
v -48.3337 -0.336848 3
v -48.319 -0.253372 3
v -48.3084 -0.169265 3
v -48.3021 -0.084738 3
v -55 -10 0
v -45 -10 0
v -55 -10 3
v -45 -10 3
v -45 -15 0
v 45 -15 0
v -45 -15 25
v 45 -15 25
v 45 -15 25
v 45 15 25
v 45 -15 0
v 45 -10 0
v 45 -10 3
v 45 10 3
v 45 10 0
v 45 15 0
v -15 -8 23
v -15 -8 25
v -17 -8 23
v -17 -8 25
v -15 -8 23
v -15 -8 25
v -15 8 23
v -15 8 25
v -17 -8 23
v -17 -8 25
v -17 8 23
v -17 8 25
v -15 8 23
v -15 8 25
v -17 8 23
v -17 8 25
v -7 -8 23
v -7 -8 25
v -9 -8 23
v -9 -8 25
v -7 -8 23
v -7 -8 25
v -7 8 23
v -7 8 25
v -9 -8 23
v -9 -8 25
v -9 8 23
v -9 8 25
v -7 8 23
v -7 8 25
v -9 8 23
v -9 8 25
v 1 -8 23
v 1 -8 25
v -1 -8 23
v -1 -8 25
v 1 -8 23
v 1 -8 25
v 1 8 23
v 1 8 25
v -1 -8 23
v -1 -8 25
v -1 8 23
v -1 8 25
v 1 8 23
v 1 8 25
v -1 8 23
v -1 8 25
v 9 -8 23
v 9 -8 25
v 7 -8 23
v 7 -8 25
v 9 -8 23
v 9 -8 25
v 9 8 23
v 9 8 25
v 7 -8 23
v 7 -8 25
v 7 8 23
v 7 8 25
v 9 8 23
v 9 8 25
v 7 8 23
v 7 8 25
v 17 -8 23
v 17 -8 25
v 15 -8 23
v 15 -8 25
v 17 -8 23
v 17 -8 25
v 17 8 23
v 17 8 25
v 17 8 23
v 17 8 25
v 15 8 23
v 15 8 25
v 15 -8 23
v 15 -8 25
v 15 8 23
v 15 8 25
v -55 -10 0
v -55 -10 3
v -55 10 0
v -55 10 3
v 45 -10 0
v 55 -10 0
v 45 -10 3
v 55 -10 3
v 55 -10 0
v 55 -10 3
v 55 10 0
v 55 10 3
v 45 10 0
v 55 10 0
v 45 10 3
v 55 10 3
v -48.3 -4.1638e-16 3
v -48.3021 0.084738 3
v -48.3084 0.169265 3
v -48.319 0.253372 3
v -48.3337 0.336848 3
v -48.3526 0.419488 3
v -48.3755 0.501084 3
v -48.4025 0.581434 3
v -48.4335 0.660339 3
v -48.4684 0.737602 3
v -48.507 0.813032 3
v -48.5494 0.88644 3
v -48.5954 0.957644 3
v -48.6449 1.02647 3
v -48.6977 1.09274 3
v -48.7538 1.15629 3
v -48.813 1.21697 3
v -48.8751 1.27463 3
v -48.9401 1.32911 3
v -49.0076 1.38029 3
v -49.0777 1.42804 3
v -49.15 1.47224 3
v -49.2244 1.51278 3
v -49.3008 1.54956 3
v -49.3789 1.58249 3
v -49.4586 1.61148 3
v -49.5396 1.63646 3
v -49.6217 1.65738 3
v -49.7048 1.67417 3
v -49.7886 1.68681 3
v -49.873 1.69525 3
v -49.9576 1.69947 3
v -50.0424 1.69947 3
v -50.127 1.69525 3
v -50.2114 1.68681 3
v -50.2952 1.67417 3
v -50.3783 1.65738 3
v -50.4604 1.63646 3
v -50.5414 1.61148 3
v -50.6211 1.58249 3
v -50.6992 1.54956 3
v -50.7756 1.51278 3
v -50.85 1.47224 3
v -50.9223 1.42804 3
v -50.9924 1.38029 3
v -51.0599 1.32911 3
v -51.1249 1.27463 3
v -51.187 1.21697 3
v -51.2462 1.15629 3
v -51.3023 1.09274 3
v -51.3551 1.02647 3
v -51.4046 0.957644 3
v -51.4506 0.88644 3
v -51.493 0.813032 3
v -51.5316 0.737602 3
v -51.5665 0.660339 3
v -51.5975 0.581434 3
v -51.6245 0.501084 3
v -51.6474 0.419488 3
v -51.6663 0.336848 3
v -51.681 0.253372 3
v -51.6916 0.169265 3
v -51.6979 0.084738 3
v -51.7 -5.83142e-15 3
v -51.6979 -0.084738 3
v -51.6916 -0.169265 3
v -51.681 -0.253372 3
v -51.6663 -0.336848 3
v -51.6474 -0.419488 3
v -51.6245 -0.501084 3
v -51.5975 -0.581434 3
v -51.5665 -0.660339 3
v -51.5316 -0.737602 3
v -51.493 -0.813032 3
v -51.4506 -0.88644 3
v -51.4046 -0.957644 3
v -51.3551 -1.02647 3
v -51.3023 -1.09274 3
v -51.2462 -1.15629 3
v -51.187 -1.21697 3
v -51.1249 -1.27463 3
v -51.0599 -1.32911 3
v -50.9924 -1.38029 3
v -50.9223 -1.42804 3
v -50.85 -1.47224 3
v -50.7756 -1.51278 3
v -50.6992 -1.54956 3
v -50.6211 -1.58249 3
v -50.5414 -1.61148 3
v -50.4604 -1.63646 3
v -50.3783 -1.65738 3
v -50.2952 -1.67417 3
v -50.2114 -1.68681 3
v -50.127 -1.69525 3
v -50.0424 -1.69947 3
v -49.9576 -1.69947 3
v -49.873 -1.69525 3
v -49.7886 -1.68681 3
v -49.7048 -1.67417 3
v -49.6217 -1.65738 3
v -49.5396 -1.63646 3
v -49.4586 -1.61148 3
v -49.3789 -1.58249 3
v -49.3008 -1.54956 3
v -49.2244 -1.51278 3
v -49.15 -1.47224 3
v -49.0777 -1.42804 3
v -49.0076 -1.38029 3
v -48.9401 -1.32911 3
v -48.8751 -1.27463 3
v -48.813 -1.21697 3
v -48.7538 -1.15629 3
v -48.6977 -1.09274 3
v -48.6449 -1.02647 3
v -48.5954 -0.957644 3
v -48.5494 -0.88644 3
v -48.507 -0.813032 3
v -48.4684 -0.737602 3
v -48.4335 -0.660339 3
v -48.4025 -0.581434 3
v -48.3755 -0.501084 3
v -48.3526 -0.419488 3
v -48.3337 -0.336848 3
v -48.319 -0.253372 3
v -48.3084 -0.169265 3
v -48.3021 -0.084738 3
v -48.3 -4.1638e-16 3
v -48.3 -4.1638e-16 0
v -48.3021 0.084738 0
v -48.3084 0.169265 0
v -48.319 0.253372 0
v -48.3337 0.336848 0
v -48.3526 0.419488 0
v -48.3755 0.501084 0
v -48.4025 0.581434 0
v -48.4335 0.660339 0
v -48.4684 0.737602 0
v -48.507 0.813032 0
v -48.5494 0.88644 0
v -48.5954 0.957644 0
v -48.6449 1.02647 0
v -48.6977 1.09274 0
v -48.7538 1.15629 0
v -48.813 1.21697 0
v -48.8751 1.27463 0
v -48.9401 1.32911 0
v -49.0076 1.38029 0
v -49.0777 1.42804 0
v -49.15 1.47224 0
v -49.2244 1.51278 0
v -49.3008 1.54956 0
v -49.3789 1.58249 0
v -49.4586 1.61148 0
v -49.5396 1.63646 0
v -49.6217 1.65738 0
v -49.7048 1.67417 0
v -49.7886 1.68681 0
v -49.873 1.69525 0
v -49.9576 1.69947 0
v -50.0424 1.69947 0
v -50.127 1.69525 0
v -50.2114 1.68681 0
v -50.2952 1.67417 0
v -50.3783 1.65738 0
v -50.4604 1.63646 0
v -50.5414 1.61148 0
v -50.6211 1.58249 0
v -50.6992 1.54956 0
v -50.7756 1.51278 0
v -50.85 1.47224 0
v -50.9223 1.42804 0
v -50.9924 1.38029 0
v -51.0599 1.32911 0
v -51.1249 1.27463 0
v -51.187 1.21697 0
v -51.2462 1.15629 0
v -51.3023 1.09274 0
v -51.3551 1.02647 0
v -51.4046 0.957644 0
v -51.4506 0.88644 0
v -51.493 0.813032 0
v -51.5316 0.737602 0
v -51.5665 0.660339 0
v -51.5975 0.581434 0
v -51.6245 0.501084 0
v -51.6474 0.419488 0
v -51.6663 0.336848 0
v -51.681 0.253372 0
v -51.6916 0.169265 0
v -51.6979 0.084738 0
v -51.7 -5.83142e-15 0
v -51.6979 -0.084738 0
v -51.6916 -0.169265 0
v -51.681 -0.253372 0
v -51.6663 -0.336848 0
v -51.6474 -0.419488 0
v -51.6245 -0.501084 0
v -51.5975 -0.581434 0
v -51.5665 -0.660339 0
v -51.5316 -0.737602 0
v -51.493 -0.813032 0
v -51.4506 -0.88644 0
v -51.4046 -0.957644 0
v -51.3551 -1.02647 0
v -51.3023 -1.09274 0
v -51.2462 -1.15629 0
v -51.187 -1.21697 0
v -51.1249 -1.27463 0
v -51.0599 -1.32911 0
v -50.9924 -1.38029 0
v -50.9223 -1.42804 0
v -50.85 -1.47224 0
v -50.7756 -1.51278 0
v -50.6992 -1.54956 0
v -50.6211 -1.58249 0
v -50.5414 -1.61148 0
v -50.4604 -1.63646 0
v -50.3783 -1.65738 0
v -50.2952 -1.67417 0
v -50.2114 -1.68681 0
v -50.127 -1.69525 0
v -50.0424 -1.69947 0
v -49.9576 -1.69947 0
v -49.873 -1.69525 0
v -49.7886 -1.68681 0
v -49.7048 -1.67417 0
v -49.6217 -1.65738 0
v -49.5396 -1.63646 0
v -49.4586 -1.61148 0
v -49.3789 -1.58249 0
v -49.3008 -1.54956 0
v -49.2244 -1.51278 0
v -49.15 -1.47224 0
v -49.0777 -1.42804 0
v -49.0076 -1.38029 0
v -48.9401 -1.32911 0
v -48.8751 -1.27463 0
v -48.813 -1.21697 0
v -48.7538 -1.15629 0
v -48.6977 -1.09274 0
v -48.6449 -1.02647 0
v -48.5954 -0.957644 0
v -48.5494 -0.88644 0
v -48.507 -0.813032 0
v -48.4684 -0.737602 0
v -48.4335 -0.660339 0
v -48.4025 -0.581434 0
v -48.3755 -0.501084 0
v -48.3526 -0.419488 0
v -48.3337 -0.336848 0
v -48.319 -0.253372 0
v -48.3084 -0.169265 0
v -48.3021 -0.084738 0
v -48.3 -4.1638e-16 0
v 43 -13 0
v 43 -13 23
v -43 -13 0
v -43 -13 23
v 43 -13 0
v 43 -13 23
v 43 13 0
v 43 13 23
v -43 -13 0
v -43 -13 23
v -43 13 0
v -43 13 23
v 43 13 0
v 43 13 23
v -43 13 0
v -43 13 23
v 51.7 -4.1638e-16 3
v 51.6979 0.084738 3
v 51.6916 0.169265 3
v 51.681 0.253372 3
v 51.6663 0.336848 3
v 51.6474 0.419488 3
v 51.6245 0.501084 3
v 51.5975 0.581434 3
v 51.5665 0.660339 3
v 51.5316 0.737602 3
v 51.493 0.813032 3
v 51.4506 0.88644 3
v 51.4046 0.957644 3
v 51.3551 1.02647 3
v 51.3023 1.09274 3
v 51.2462 1.15629 3
v 51.187 1.21697 3
v 51.1249 1.27463 3
v 51.0599 1.32911 3
v 50.9924 1.38029 3
v 50.9223 1.42804 3
v 50.85 1.47224 3
v 50.7756 1.51278 3
v 50.6992 1.54956 3
v 50.6211 1.58249 3
v 50.5414 1.61148 3
v 50.4604 1.63646 3
v 50.3783 1.65738 3
v 50.2952 1.67417 3
v 50.2114 1.68681 3
v 50.127 1.69525 3
v 50.0424 1.69947 3
v 49.9576 1.69947 3
v 49.873 1.69525 3
v 49.7886 1.68681 3
v 49.7048 1.67417 3
v 49.6217 1.65738 3
v 49.5396 1.63646 3
v 49.4586 1.61148 3
v 49.3789 1.58249 3
v 49.3008 1.54956 3
v 49.2244 1.51278 3
v 49.15 1.47224 3
v 49.0777 1.42804 3
v 49.0076 1.38029 3
v 48.9401 1.32911 3
v 48.8751 1.27463 3
v 48.813 1.21697 3
v 48.7538 1.15629 3
v 48.6977 1.09274 3
v 48.6449 1.02647 3
v 48.5954 0.957644 3
v 48.5494 0.88644 3
v 48.507 0.813032 3
v 48.4684 0.737602 3
v 48.4335 0.660339 3
v 48.4025 0.581434 3
v 48.3755 0.501084 3
v 48.3526 0.419488 3
v 48.3337 0.336848 3
v 48.319 0.253372 3
v 48.3084 0.169265 3
v 48.3021 0.084738 3
v 48.3 -5.83142e-15 3
v 48.3021 -0.084738 3
v 48.3084 -0.169265 3
v 48.319 -0.253372 3
v 48.3337 -0.336848 3
v 48.3526 -0.419488 3
v 48.3755 -0.501084 3
v 48.4025 -0.581434 3
v 48.4335 -0.660339 3
v 48.4684 -0.737602 3
v 48.507 -0.813032 3
v 48.5494 -0.88644 3
v 48.5954 -0.957644 3
v 48.6449 -1.02647 3
v 48.6977 -1.09274 3
v 48.7538 -1.15629 3
v 48.813 -1.21697 3
v 48.8751 -1.27463 3
v 48.9401 -1.32911 3
v 49.0076 -1.38029 3
v 49.0777 -1.42804 3
v 49.15 -1.47224 3
v 49.2244 -1.51278 3
v 49.3008 -1.54956 3
v 49.3789 -1.58249 3
v 49.4586 -1.61148 3
v 49.5396 -1.63646 3
v 49.6217 -1.65738 3
v 49.7048 -1.67417 3
v 49.7886 -1.68681 3
v 49.873 -1.69525 3
v 49.9576 -1.69947 3
v 50.0424 -1.69947 3
v 50.127 -1.69525 3
v 50.2114 -1.68681 3
v 50.2952 -1.67417 3
v 50.3783 -1.65738 3
v 50.4604 -1.63646 3
v 50.5414 -1.61148 3
v 50.6211 -1.58249 3
v 50.6992 -1.54956 3
v 50.7756 -1.51278 3
v 50.85 -1.47224 3
v 50.9223 -1.42804 3
v 50.9924 -1.38029 3
v 51.0599 -1.32911 3
v 51.1249 -1.27463 3
v 51.187 -1.21697 3
v 51.2462 -1.15629 3
v 51.3023 -1.09274 3
v 51.3551 -1.02647 3
v 51.4046 -0.957644 3
v 51.4506 -0.88644 3
v 51.493 -0.813032 3
v 51.5316 -0.737602 3
v 51.5665 -0.660339 3
v 51.5975 -0.581434 3
v 51.6245 -0.501084 3
v 51.6474 -0.419488 3
v 51.6663 -0.336848 3
v 51.681 -0.253372 3
v 51.6916 -0.169265 3
v 51.6979 -0.084738 3
v 51.7 -4.1638e-16 3
v 51.7 -4.1638e-16 0
v 51.6979 0.084738 0
v 51.6916 0.169265 0
v 51.681 0.253372 0
v 51.6663 0.336848 0
v 51.6474 0.419488 0
v 51.6245 0.501084 0
v 51.5975 0.581434 0
v 51.5665 0.660339 0
v 51.5316 0.737602 0
v 51.493 0.813032 0
v 51.4506 0.88644 0
v 51.4046 0.957644 0
v 51.3551 1.02647 0
v 51.3023 1.09274 0
v 51.2462 1.15629 0
v 51.187 1.21697 0
v 51.1249 1.27463 0
v 51.0599 1.32911 0
v 50.9924 1.38029 0
v 50.9223 1.42804 0
v 50.85 1.47224 0
v 50.7756 1.51278 0
v 50.6992 1.54956 0
v 50.6211 1.58249 0
v 50.5414 1.61148 0
v 50.4604 1.63646 0
v 50.3783 1.65738 0
v 50.2952 1.67417 0
v 50.2114 1.68681 0
v 50.127 1.69525 0
v 50.0424 1.69947 0
v 49.9576 1.69947 0
v 49.873 1.69525 0
v 49.7886 1.68681 0
v 49.7048 1.67417 0
v 49.6217 1.65738 0
v 49.5396 1.63646 0
v 49.4586 1.61148 0
v 49.3789 1.58249 0
v 49.3008 1.54956 0
v 49.2244 1.51278 0
v 49.15 1.47224 0
v 49.0777 1.42804 0
v 49.0076 1.38029 0
v 48.9401 1.32911 0
v 48.8751 1.27463 0
v 48.813 1.21697 0
v 48.7538 1.15629 0
v 48.6977 1.09274 0
v 48.6449 1.02647 0
v 48.5954 0.957644 0
v 48.5494 0.88644 0
v 48.507 0.813032 0
v 48.4684 0.737602 0
v 48.4335 0.660339 0
v 48.4025 0.581434 0
v 48.3755 0.501084 0
v 48.3526 0.419488 0
v 48.3337 0.336848 0
v 48.319 0.253372 0
v 48.3084 0.169265 0
v 48.3021 0.084738 0
v 48.3 -5.83142e-15 0
v 48.3021 -0.084738 0
v 48.3084 -0.169265 0
v 48.319 -0.253372 0
v 48.3337 -0.336848 0
v 48.3526 -0.419488 0
v 48.3755 -0.501084 0
v 48.4025 -0.581434 0
v 48.4335 -0.660339 0
v 48.4684 -0.737602 0
v 48.507 -0.813032 0
v 48.5494 -0.88644 0
v 48.5954 -0.957644 0
v 48.6449 -1.02647 0
v 48.6977 -1.09274 0
v 48.7538 -1.15629 0
v 48.813 -1.21697 0
v 48.8751 -1.27463 0
v 48.9401 -1.32911 0
v 49.0076 -1.38029 0
v 49.0777 -1.42804 0
v 49.15 -1.47224 0
v 49.2244 -1.51278 0
v 49.3008 -1.54956 0
v 49.3789 -1.58249 0
v 49.4586 -1.61148 0
v 49.5396 -1.63646 0
v 49.6217 -1.65738 0
v 49.7048 -1.67417 0
v 49.7886 -1.68681 0
v 49.873 -1.69525 0
v 49.9576 -1.69947 0
v 50.0424 -1.69947 0
v 50.127 -1.69525 0
v 50.2114 -1.68681 0
v 50.2952 -1.67417 0
v 50.3783 -1.65738 0
v 50.4604 -1.63646 0
v 50.5414 -1.61148 0
v 50.6211 -1.58249 0
v 50.6992 -1.54956 0
v 50.7756 -1.51278 0
v 50.85 -1.47224 0
v 50.9223 -1.42804 0
v 50.9924 -1.38029 0
v 51.0599 -1.32911 0
v 51.1249 -1.27463 0
v 51.187 -1.21697 0
v 51.2462 -1.15629 0
v 51.3023 -1.09274 0
v 51.3551 -1.02647 0
v 51.4046 -0.957644 0
v 51.4506 -0.88644 0
v 51.493 -0.813032 0
v 51.5316 -0.737602 0
v 51.5665 -0.660339 0
v 51.5975 -0.581434 0
v 51.6245 -0.501084 0
v 51.6474 -0.419488 0
v 51.6663 -0.336848 0
v 51.681 -0.253372 0
v 51.6916 -0.169265 0
v 51.6979 -0.084738 0
v 51.7 -4.1638e-16 0
v 45 -10 3
v 45 10 3
v 55 -10 3
v 55 10 3
v 51.7 -4.1638e-16 3
v 51.6979 0.084738 3
v 51.6916 0.169265 3
v 51.681 0.253372 3
v 51.6663 0.336848 3
v 51.6474 0.419488 3
v 51.6245 0.501084 3
v 51.5975 0.581434 3
v 51.5665 0.660339 3
v 51.5316 0.737602 3
v 51.493 0.813032 3
v 51.4506 0.88644 3
v 51.4046 0.957644 3
v 51.3551 1.02647 3
v 51.3023 1.09274 3
v 51.2462 1.15629 3
v 51.187 1.21697 3
v 51.1249 1.27463 3
v 51.0599 1.32911 3
v 50.9924 1.38029 3
v 50.9223 1.42804 3
v 50.85 1.47224 3
v 50.7756 1.51278 3
v 50.6992 1.54956 3
v 50.6211 1.58249 3
v 50.5414 1.61148 3
v 50.4604 1.63646 3
v 50.3783 1.65738 3
v 50.2952 1.67417 3
v 50.2114 1.68681 3
v 50.127 1.69525 3
v 50.0424 1.69947 3
v 49.9576 1.69947 3
v 49.873 1.69525 3
v 49.7886 1.68681 3
v 49.7048 1.67417 3
v 49.6217 1.65738 3
v 49.5396 1.63646 3
v 49.4586 1.61148 3
v 49.3789 1.58249 3
v 49.3008 1.54956 3
v 49.2244 1.51278 3
v 49.15 1.47224 3
v 49.0777 1.42804 3
v 49.0076 1.38029 3
v 48.9401 1.32911 3
v 48.8751 1.27463 3
v 48.813 1.21697 3
v 48.7538 1.15629 3
v 48.6977 1.09274 3
v 48.6449 1.02647 3
v 48.5954 0.957644 3
v 48.5494 0.88644 3
v 48.507 0.813032 3
v 48.4684 0.737602 3
v 48.4335 0.660339 3
v 48.4025 0.581434 3
v 48.3755 0.501084 3
v 48.3526 0.419488 3
v 48.3337 0.336848 3
v 48.319 0.253372 3
v 48.3084 0.169265 3
v 48.3021 0.084738 3
v 48.3 -5.83142e-15 3
v 48.3021 -0.084738 3
v 48.3084 -0.169265 3
v 48.319 -0.253372 3
v 48.3337 -0.336848 3
v 48.3526 -0.419488 3
v 48.3755 -0.501084 3
v 48.4025 -0.581434 3
v 48.4335 -0.660339 3
v 48.4684 -0.737602 3
v 48.507 -0.813032 3
v 48.5494 -0.88644 3
v 48.5954 -0.957644 3
v 48.6449 -1.02647 3
v 48.6977 -1.09274 3
v 48.7538 -1.15629 3
v 48.813 -1.21697 3
v 48.8751 -1.27463 3
v 48.9401 -1.32911 3
v 49.0076 -1.38029 3
v 49.0777 -1.42804 3
v 49.15 -1.47224 3
v 49.2244 -1.51278 3
v 49.3008 -1.54956 3
v 49.3789 -1.58249 3
v 49.4586 -1.61148 3
v 49.5396 -1.63646 3
v 49.6217 -1.65738 3
v 49.7048 -1.67417 3
v 49.7886 -1.68681 3
v 49.873 -1.69525 3
v 49.9576 -1.69947 3
v 50.0424 -1.69947 3
v 50.127 -1.69525 3
v 50.2114 -1.68681 3
v 50.2952 -1.67417 3
v 50.3783 -1.65738 3
v 50.4604 -1.63646 3
v 50.5414 -1.61148 3
v 50.6211 -1.58249 3
v 50.6992 -1.54956 3
v 50.7756 -1.51278 3
v 50.85 -1.47224 3
v 50.9223 -1.42804 3
v 50.9924 -1.38029 3
v 51.0599 -1.32911 3
v 51.1249 -1.27463 3
v 51.187 -1.21697 3
v 51.2462 -1.15629 3
v 51.3023 -1.09274 3
v 51.3551 -1.02647 3
v 51.4046 -0.957644 3
v 51.4506 -0.88644 3
v 51.493 -0.813032 3
v 51.5316 -0.737602 3
v 51.5665 -0.660339 3
v 51.5975 -0.581434 3
v 51.6245 -0.501084 3
v 51.6474 -0.419488 3
v 51.6663 -0.336848 3
v 51.681 -0.253372 3
v 51.6916 -0.169265 3
v 51.6979 -0.084738 3
v -43 -13 23
v -43 13 23
v 43 -13 23
v 43 13 23
v -15 -8 23
v -17 -8 23
v -17 8 23
v -15 8 23
v -7 -8 23
v -9 -8 23
v -9 8 23
v -7 8 23
v 1 -8 23
v -1 -8 23
v -1 8 23
v 1 8 23
v 9 -8 23
v 7 -8 23
v 7 8 23
v 9 8 23
v 17 -8 23
v 15 -8 23
v 15 8 23
v 17 8 23
f 6 8 7
f 2 8 6
f 5 2 6
f 3 5 4
f 1 2 5
f 1 5 3
f 13 14 9
f 18 13 9
f 17 18 9
f 22 17 9
f 15 10 9
f 15 9 14
f 16 13 18
f 19 16 18
f 20 17 22
f 23 20 22
f 24 21 26
f 27 24 26
f 28 25 30
f 31 28 30
f 11 21 22
f 11 25 26
f 11 29 30
f 11 22 9
f 11 26 21
f 11 30 25
f 12 32 29
f 12 29 11
f 12 10 15
f 12 15 16
f 12 16 19
f 12 19 20
f 12 20 23
f 12 23 24
f 12 24 27
f 12 27 28
f 12 28 31
f 12 31 32
f 36 34 33
f 36 33 35
f 38 176 37
f 127 128 48
f 129 48 128
f 126 127 48
f 130 48 129
f 125 126 48
f 131 48 130
f 124 125 48
f 132 48 131
f 123 124 48
f 133 48 132
f 122 123 48
f 134 48 133
f 121 122 48
f 135 48 134
f 120 121 48
f 136 48 135
f 119 120 48
f 137 48 136
f 118 119 48
f 138 48 137
f 117 118 48
f 139 48 138
f 116 117 48
f 140 48 139
f 115 116 48
f 141 48 140
f 114 115 48
f 142 48 141
f 113 114 48
f 143 38 48
f 143 48 142
f 112 113 48
f 144 38 143
f 145 38 144
f 146 38 145
f 147 38 146
f 148 38 147
f 149 38 148
f 150 38 149
f 151 38 150
f 152 38 151
f 153 38 152
f 154 38 153
f 155 38 154
f 156 38 155
f 157 38 156
f 158 38 157
f 159 38 158
f 160 38 159
f 161 38 160
f 162 38 161
f 163 38 162
f 164 38 163
f 165 38 164
f 166 38 165
f 167 38 166
f 168 38 167
f 169 38 168
f 170 38 169
f 171 38 170
f 172 38 171
f 173 38 172
f 174 38 173
f 49 38 174
f 47 112 48
f 47 81 82
f 47 82 83
f 47 83 84
f 47 84 85
f 47 85 86
f 47 86 87
f 47 87 88
f 47 88 89
f 47 89 90
f 47 90 91
f 47 91 92
f 47 92 93
f 47 93 94
f 47 94 95
f 47 95 96
f 47 96 97
f 47 97 98
f 47 98 99
f 47 99 100
f 47 100 101
f 47 101 102
f 47 102 103
f 47 103 104
f 47 104 105
f 47 105 106
f 47 106 107
f 47 107 108
f 47 108 109
f 47 109 110
f 47 110 111
f 47 111 112
f 46 49 50
f 46 50 51
f 46 51 52
f 46 52 53
f 46 53 54
f 46 54 55
f 46 55 56
f 46 56 57
f 46 57 58
f 46 58 59
f 46 59 60
f 46 60 61
f 46 61 62
f 46 62 63
f 46 63 64
f 46 64 65
f 46 65 66
f 46 66 67
f 46 67 68
f 46 68 69
f 46 69 70
f 46 70 71
f 46 71 72
f 46 72 73
f 46 73 74
f 46 74 75
f 46 75 76
f 46 76 77
f 46 77 78
f 46 78 79
f 46 79 80
f 46 80 81
f 46 38 49
f 46 176 38
f 46 81 47
f 177 46 45
f 177 176 46
f 39 37 176
f 175 39 176
f 40 39 175
f 257 258 40
f 259 40 258
f 256 257 40
f 260 40 259
f 255 256 40
f 261 40 260
f 254 255 40
f 262 40 261
f 253 254 40
f 263 40 262
f 252 253 40
f 264 40 263
f 251 252 40
f 265 40 264
f 250 251 40
f 266 40 265
f 249 250 40
f 267 40 266
f 248 249 40
f 268 40 267
f 247 248 40
f 269 40 268
f 246 247 40
f 270 40 269
f 245 246 40
f 271 40 270
f 244 245 40
f 272 40 271
f 243 244 40
f 273 40 272
f 242 243 40
f 274 40 273
f 274 41 40
f 275 41 274
f 276 41 275
f 277 41 276
f 278 41 277
f 279 41 278
f 280 41 279
f 281 41 280
f 282 41 281
f 283 41 282
f 284 41 283
f 285 41 284
f 286 41 285
f 287 41 286
f 288 41 287
f 289 41 288
f 290 41 289
f 291 41 290
f 292 41 291
f 293 41 292
f 294 41 293
f 295 41 294
f 296 41 295
f 297 41 296
f 298 41 297
f 299 41 298
f 300 41 299
f 301 41 300
f 302 41 301
f 303 41 302
f 304 41 303
f 179 41 304
f 43 238 239
f 43 239 240
f 43 240 241
f 43 241 242
f 43 242 40
f 43 40 175
f 43 210 211
f 43 211 212
f 43 212 213
f 43 213 214
f 43 214 215
f 43 215 216
f 43 216 217
f 43 217 218
f 43 218 219
f 43 219 220
f 43 220 221
f 43 221 222
f 43 222 223
f 43 223 224
f 43 224 225
f 43 225 226
f 43 226 227
f 43 227 228
f 43 228 229
f 43 229 230
f 43 230 231
f 43 231 232
f 43 232 233
f 43 233 234
f 43 234 235
f 43 235 236
f 43 236 237
f 43 237 238
f 178 43 175
f 178 177 45
f 44 178 45
f 44 43 178
f 42 41 179
f 42 179 180
f 42 180 181
f 42 181 182
f 42 182 183
f 42 183 184
f 42 184 185
f 42 185 186
f 42 186 187
f 42 187 188
f 42 188 189
f 42 189 190
f 42 190 191
f 42 191 192
f 42 192 193
f 42 193 194
f 42 194 195
f 42 195 196
f 42 196 197
f 42 197 198
f 42 198 199
f 42 199 200
f 42 200 201
f 42 201 202
f 42 202 203
f 42 203 204
f 42 204 205
f 42 205 206
f 42 206 207
f 42 207 208
f 42 208 209
f 42 209 210
f 42 210 43
f 306 305 307
f 308 306 307
f 391 309 392
f 393 392 309
f 390 309 391
f 394 393 309
f 389 309 390
f 395 394 309
f 388 309 389
f 396 395 309
f 387 309 388
f 397 396 309
f 386 309 387
f 398 397 309
f 385 309 386
f 399 398 309
f 384 309 385
f 400 399 309
f 383 309 384
f 401 400 309
f 382 309 383
f 402 401 309
f 381 309 382
f 403 402 309
f 380 309 381
f 404 403 309
f 379 309 380
f 405 404 309
f 378 309 379
f 406 405 309
f 377 309 378
f 407 309 311
f 407 406 309
f 376 309 377
f 408 407 311
f 409 408 311
f 410 409 311
f 411 410 311
f 412 411 311
f 413 412 311
f 414 413 311
f 415 414 311
f 416 415 311
f 417 416 311
f 418 417 311
f 419 418 311
f 420 419 311
f 421 420 311
f 422 421 311
f 423 422 311
f 424 423 311
f 425 424 311
f 426 425 311
f 427 426 311
f 428 427 311
f 429 428 311
f 430 429 311
f 431 430 311
f 432 431 311
f 433 432 311
f 434 433 311
f 435 434 311
f 436 435 311
f 437 436 311
f 438 437 311
f 313 438 311
f 310 309 376
f 310 346 345
f 310 347 346
f 310 348 347
f 310 349 348
f 310 350 349
f 310 351 350
f 310 352 351
f 310 353 352
f 310 354 353
f 310 355 354
f 310 356 355
f 310 357 356
f 310 358 357
f 310 359 358
f 310 360 359
f 310 361 360
f 310 362 361
f 310 363 362
f 310 364 363
f 310 365 364
f 310 366 365
f 310 367 366
f 310 368 367
f 310 369 368
f 310 370 369
f 310 371 370
f 310 372 371
f 310 373 372
f 310 374 373
f 310 375 374
f 310 376 375
f 312 314 313
f 312 315 314
f 312 316 315
f 312 317 316
f 312 318 317
f 312 319 318
f 312 320 319
f 312 321 320
f 312 322 321
f 312 323 322
f 312 324 323
f 312 325 324
f 312 326 325
f 312 327 326
f 312 313 311
f 312 328 327
f 312 329 328
f 312 330 329
f 312 331 330
f 312 332 331
f 312 333 332
f 312 334 333
f 312 335 334
f 312 336 335
f 312 337 336
f 312 338 337
f 312 339 338
f 312 340 339
f 312 341 340
f 312 342 341
f 312 343 342
f 312 344 343
f 312 345 344
f 312 310 345
f 440 441 439
f 442 441 440
f 446 443 444
f 446 445 443
f 452 453 454
f 448 452 454
f 451 452 448
f 449 450 451
f 447 451 448
f 447 449 451
f 456 455 457
f 456 457 458
f 459 462 461
f 460 462 459
f 463 465 466
f 464 463 466
f 468 469 467
f 468 470 469
f 472 471 473
f 472 473 474
f 475 478 477
f 476 478 475
f 479 481 482
f 480 479 482
f 484 485 483
f 484 486 485
f 488 487 489
f 488 489 490
f 491 494 493
f 492 494 491
f 495 497 498
f 496 495 498
f 500 501 499
f 500 502 501
f 504 503 505
f 504 505 506
f 507 510 509
f 508 510 507
f 511 513 514
f 512 511 514
f 516 517 515
f 516 518 517
f 520 519 521
f 520 521 522
f 523 526 525
f 524 526 523
f 528 529 527
f 528 530 529
f 531 533 534
f 532 531 534
f 536 537 535
f 536 538 537
f 540 541 539
f 542 541 540
f 544 543 545
f 544 545 546
f 548 547 549
f 550 548 549
f 552 678 551
f 552 679 678
f 553 680 679
f 553 681 680
f 553 679 552
f 554 681 553
f 555 682 681
f 555 683 682
f 555 681 554
f 556 684 683
f 556 683 555
f 557 684 556
f 558 685 684
f 558 684 557
f 559 686 685
f 559 687 686
f 559 685 558
f 560 687 559
f 561 688 687
f 561 687 560
f 562 688 561
f 562 689 688
f 563 689 562
f 563 690 689
f 564 690 563
f 564 691 690
f 565 691 564
f 565 692 691
f 566 692 565
f 566 693 692
f 567 693 566
f 567 694 693
f 568 694 567
f 568 695 694
f 569 695 568
f 569 696 695
f 570 696 569
f 570 697 696
f 571 697 570
f 571 698 697
f 572 698 571
f 572 699 698
f 573 699 572
f 573 700 699
f 573 701 700
f 574 701 573
f 575 702 701
f 575 703 702
f 575 701 574
f 576 703 575
f 577 704 703
f 577 703 576
f 578 705 704
f 578 706 705
f 578 704 577
f 579 706 578
f 580 707 706
f 580 706 579
f 581 708 707
f 581 709 708
f 581 707 580
f 582 709 581
f 583 710 709
f 583 711 710
f 583 709 582
f 584 711 583
f 585 712 711
f 585 713 712
f 585 711 584
f 586 713 585
f 587 713 586
f 587 714 713
f 588 714 587
f 588 715 714
f 589 715 588
f 589 716 715
f 590 716 589
f 590 717 716
f 591 717 590
f 591 718 717
f 592 718 591
f 592 719 718
f 593 719 592
f 593 720 719
f 593 721 720
f 594 721 593
f 595 721 594
f 595 722 721
f 595 723 722
f 596 723 595
f 596 724 723
f 597 724 596
f 597 725 724
f 598 725 597
f 599 725 598
f 599 726 725
f 600 726 599
f 600 727 726
f 601 727 600
f 601 728 727
f 602 728 601
f 602 729 728
f 603 729 602
f 603 730 729
f 604 730 603
f 604 731 730
f 605 731 604
f 605 732 731
f 606 732 605
f 606 733 732
f 607 733 606
f 607 734 733
f 607 735 734
f 608 736 735
f 608 735 607
f 609 736 608
f 610 737 736
f 610 738 737
f 610 736 609
f 611 739 738
f 611 738 610
f 612 739 611
f 613 739 612
f 613 740 739
f 614 740 613
f 614 741 740
f 615 741 614
f 615 742 741
f 616 742 615
f 616 743 742
f 617 743 616
f 617 744 743
f 618 744 617
f 618 745 744
f 619 745 618
f 619 746 745
f 620 746 619
f 620 747 746
f 621 747 620
f 621 748 747
f 622 748 621
f 622 749 748
f 623 749 622
f 623 750 749
f 624 750 623
f 624 751 750
f 625 751 624
f 625 752 751
f 626 753 752
f 626 752 625
f 627 754 753
f 627 753 626
f 628 755 754
f 628 754 627
f 629 756 755
f 629 755 628
f 630 757 756
f 630 756 629
f 631 758 757
f 631 757 630
f 632 759 758
f 632 760 759
f 632 758 631
f 633 760 632
f 634 761 760
f 634 760 633
f 635 762 761
f 635 763 762
f 635 761 634
f 636 764 763
f 636 763 635
f 637 764 636
f 638 765 764
f 638 764 637
f 639 765 638
f 639 766 765
f 640 766 639
f 640 767 766
f 641 767 640
f 641 768 767
f 642 768 641
f 642 769 768
f 643 770 769
f 643 771 770
f 643 769 642
f 644 772 771
f 644 771 643
f 645 772 644
f 646 773 772
f 646 772 645
f 647 774 773
f 647 773 646
f 648 775 774
f 648 774 647
f 649 776 775
f 649 777 776
f 649 775 648
f 650 777 649
f 651 778 777
f 651 777 650
f 652 779 778
f 652 778 651
f 653 780 779
f 653 779 652
f 654 781 780
f 654 780 653
f 655 782 781
f 655 781 654
f 656 783 782
f 656 782 655
f 657 784 783
f 657 783 656
f 658 785 784
f 658 786 785
f 658 784 657
f 659 786 658
f 660 787 786
f 660 788 787
f 660 786 659
f 661 788 660
f 662 789 788
f 662 788 661
f 663 789 662
f 663 790 789
f 664 790 663
f 664 791 790
f 665 791 664
f 665 792 791
f 666 792 665
f 666 793 792
f 667 793 666
f 667 794 793
f 668 794 667
f 668 795 794
f 669 795 668
f 669 796 795
f 670 796 669
f 670 797 796
f 671 797 670
f 671 798 797
f 672 798 671
f 672 799 798
f 673 799 672
f 673 800 799
f 674 800 673
f 674 801 800
f 675 802 801
f 675 801 674
f 676 802 675
f 676 803 802
f 677 804 803
f 677 803 676
f 806 805 807
f 806 807 808
f 810 811 809
f 810 812 811
f 814 813 815
f 814 815 816
f 818 819 817
f 818 820 819
f 822 948 821
f 822 949 948
f 823 950 949
f 823 951 950
f 823 949 822
f 824 951 823
f 825 952 951
f 825 953 952
f 825 951 824
f 826 954 953
f 826 953 825
f 827 954 826
f 828 955 954
f 828 954 827
f 829 956 955
f 829 957 956
f 829 955 828
f 830 957 829
f 831 958 957
f 831 957 830
f 832 958 831
f 832 959 958
f 833 959 832
f 833 960 959
f 834 960 833
f 834 961 960
f 835 961 834
f 835 962 961
f 836 962 835
f 836 963 962
f 837 963 836
f 837 964 963
f 838 964 837
f 838 965 964
f 839 965 838
f 839 966 965
f 840 966 839
f 840 967 966
f 841 967 840
f 841 968 967
f 842 968 841
f 842 969 968
f 843 969 842
f 843 970 969
f 843 971 970
f 844 971 843
f 845 972 971
f 845 973 972
f 845 971 844
f 846 973 845
f 847 974 973
f 847 973 846
f 848 975 974
f 848 976 975
f 848 974 847
f 849 976 848
f 850 977 976
f 850 976 849
f 851 978 977
f 851 979 978
f 851 977 850
f 852 979 851
f 853 980 979
f 853 981 980
f 853 979 852
f 854 981 853
f 855 982 981
f 855 983 982
f 855 981 854
f 856 983 855
f 857 983 856
f 857 984 983
f 858 984 857
f 858 985 984
f 859 985 858
f 859 986 985
f 860 986 859
f 860 987 986
f 861 987 860
f 861 988 987
f 862 988 861
f 862 989 988
f 863 989 862
f 863 990 989
f 863 991 990
f 864 991 863
f 865 991 864
f 865 992 991
f 865 993 992
f 866 993 865
f 866 994 993
f 867 994 866
f 867 995 994
f 868 995 867
f 869 995 868
f 869 996 995
f 870 996 869
f 870 997 996
f 871 997 870
f 871 998 997
f 872 998 871
f 872 999 998
f 873 999 872
f 873 1000 999
f 874 1000 873
f 874 1001 1000
f 875 1001 874
f 875 1002 1001
f 876 1002 875
f 876 1003 1002
f 877 1003 876
f 877 1004 1003
f 877 1005 1004
f 878 1006 1005
f 878 1005 877
f 879 1006 878
f 880 1007 1006
f 880 1008 1007
f 880 1006 879
f 881 1009 1008
f 881 1008 880
f 882 1009 881
f 883 1009 882
f 883 1010 1009
f 884 1010 883
f 884 1011 1010
f 885 1011 884
f 885 1012 1011
f 886 1012 885
f 886 1013 1012
f 887 1013 886
f 887 1014 1013
f 888 1014 887
f 888 1015 1014
f 889 1015 888
f 889 1016 1015
f 890 1016 889
f 890 1017 1016
f 891 1017 890
f 891 1018 1017
f 892 1018 891
f 892 1019 1018
f 893 1019 892
f 893 1020 1019
f 894 1020 893
f 894 1021 1020
f 895 1021 894
f 895 1022 1021
f 896 1023 1022
f 896 1022 895
f 897 1024 1023
f 897 1023 896
f 898 1025 1024
f 898 1024 897
f 899 1026 1025
f 899 1025 898
f 900 1027 1026
f 900 1026 899
f 901 1028 1027
f 901 1027 900
f 902 1029 1028
f 902 1030 1029
f 902 1028 901
f 903 1030 902
f 904 1031 1030
f 904 1030 903
f 905 1032 1031
f 905 1033 1032
f 905 1031 904
f 906 1034 1033
f 906 1033 905
f 907 1034 906
f 908 1035 1034
f 908 1034 907
f 909 1035 908
f 909 1036 1035
f 910 1036 909
f 910 1037 1036
f 911 1037 910
f 911 1038 1037
f 912 1038 911
f 912 1039 1038
f 913 1040 1039
f 913 1041 1040
f 913 1039 912
f 914 1042 1041
f 914 1041 913
f 915 1042 914
f 916 1043 1042
f 916 1042 915
f 917 1044 1043
f 917 1043 916
f 918 1045 1044
f 918 1044 917
f 919 1046 1045
f 919 1047 1046
f 919 1045 918
f 920 1047 919
f 921 1048 1047
f 921 1047 920
f 922 1049 1048
f 922 1048 921
f 923 1050 1049
f 923 1049 922
f 924 1051 1050
f 924 1050 923
f 925 1052 1051
f 925 1051 924
f 926 1053 1052
f 926 1052 925
f 927 1054 1053
f 927 1053 926
f 928 1055 1054
f 928 1056 1055
f 928 1054 927
f 929 1056 928
f 930 1057 1056
f 930 1058 1057
f 930 1056 929
f 931 1058 930
f 932 1059 1058
f 932 1058 931
f 933 1059 932
f 933 1060 1059
f 934 1060 933
f 934 1061 1060
f 935 1061 934
f 935 1062 1061
f 936 1062 935
f 936 1063 1062
f 937 1063 936
f 937 1064 1063
f 938 1064 937
f 938 1065 1064
f 939 1065 938
f 939 1066 1065
f 940 1066 939
f 940 1067 1066
f 941 1067 940
f 941 1068 1067
f 942 1068 941
f 942 1069 1068
f 943 1069 942
f 943 1070 1069
f 944 1070 943
f 944 1071 1070
f 945 1072 1071
f 945 1071 944
f 946 1072 945
f 946 1073 1072
f 947 1074 1073
f 947 1073 946
f 1157 1075 1158
f 1159 1158 1075
f 1156 1075 1157
f 1160 1159 1075
f 1155 1075 1156
f 1161 1160 1075
f 1154 1075 1155
f 1162 1161 1075
f 1153 1075 1154
f 1163 1162 1075
f 1152 1075 1153
f 1164 1163 1075
f 1151 1075 1152
f 1165 1164 1075
f 1150 1075 1151
f 1166 1165 1075
f 1149 1075 1150
f 1167 1166 1075
f 1148 1075 1149
f 1168 1167 1075
f 1147 1075 1148
f 1169 1168 1075
f 1146 1075 1147
f 1170 1169 1075
f 1145 1075 1146
f 1171 1170 1075
f 1144 1075 1145
f 1172 1171 1075
f 1143 1075 1144
f 1173 1075 1077
f 1173 1172 1075
f 1142 1075 1143
f 1174 1173 1077
f 1175 1174 1077
f 1176 1175 1077
f 1177 1176 1077
f 1178 1177 1077
f 1179 1178 1077
f 1180 1179 1077
f 1181 1180 1077
f 1182 1181 1077
f 1183 1182 1077
f 1184 1183 1077
f 1185 1184 1077
f 1186 1185 1077
f 1187 1186 1077
f 1188 1187 1077
f 1189 1188 1077
f 1190 1189 1077
f 1191 1190 1077
f 1192 1191 1077
f 1193 1192 1077
f 1194 1193 1077
f 1195 1194 1077
f 1196 1195 1077
f 1197 1196 1077
f 1198 1197 1077
f 1199 1198 1077
f 1200 1199 1077
f 1201 1200 1077
f 1202 1201 1077
f 1203 1202 1077
f 1204 1203 1077
f 1079 1204 1077
f 1076 1075 1142
f 1076 1112 1111
f 1076 1113 1112
f 1076 1114 1113
f 1076 1115 1114
f 1076 1116 1115
f 1076 1117 1116
f 1076 1118 1117
f 1076 1119 1118
f 1076 1120 1119
f 1076 1121 1120
f 1076 1122 1121
f 1076 1123 1122
f 1076 1124 1123
f 1076 1125 1124
f 1076 1126 1125
f 1076 1127 1126
f 1076 1128 1127
f 1076 1129 1128
f 1076 1130 1129
f 1076 1131 1130
f 1076 1132 1131
f 1076 1133 1132
f 1076 1134 1133
f 1076 1135 1134
f 1076 1136 1135
f 1076 1137 1136
f 1076 1138 1137
f 1076 1139 1138
f 1076 1140 1139
f 1076 1141 1140
f 1076 1142 1141
f 1078 1080 1079
f 1078 1081 1080
f 1078 1082 1081
f 1078 1083 1082
f 1078 1084 1083
f 1078 1085 1084
f 1078 1086 1085
f 1078 1087 1086
f 1078 1088 1087
f 1078 1089 1088
f 1078 1090 1089
f 1078 1091 1090
f 1078 1092 1091
f 1078 1093 1092
f 1078 1079 1077
f 1078 1094 1093
f 1078 1095 1094
f 1078 1096 1095
f 1078 1097 1096
f 1078 1098 1097
f 1078 1099 1098
f 1078 1100 1099
f 1078 1101 1100
f 1078 1102 1101
f 1078 1103 1102
f 1078 1104 1103
f 1078 1105 1104
f 1078 1106 1105
f 1078 1107 1106
f 1078 1108 1107
f 1078 1109 1108
f 1078 1110 1109
f 1078 1111 1110
f 1078 1076 1111
f 1209 1205 1210
f 1214 1205 1209
f 1213 1205 1214
f 1218 1205 1213
f 1211 1205 1206
f 1211 1210 1205
f 1217 1205 1218
f 1212 1214 1209
f 1215 1214 1212
f 1216 1218 1213
f 1219 1218 1216
f 1223 1217 1220
f 1223 1222 1217
f 1227 1221 1224
f 1227 1226 1221
f 1207 1222 1221
f 1207 1226 1225
f 1207 1225 1228
f 1207 1205 1217
f 1207 1217 1222
f 1207 1221 1226
f 1208 1207 1228
f 1208 1211 1206
f 1208 1212 1211
f 1208 1215 1212
f 1208 1216 1215
f 1208 1219 1216
f 1208 1220 1219
f 1208 1223 1220
f 1208 1224 1223
f 1208 1227 1224
f 1208 1228 1227
