# Cadless export: model
v 0 -15 0
v 0 -15 50
v 0 15 0
v 0 15 50
v 0 -15 50
v 0 15 50
v 4 -15 50
v 4 15 50
v 4 -15 4
v 4 -15 50
v 4 15 4
v 4 15 50
v 4 15 4
v 40 15 4
v 4 -15 4
v 40 -15 4
v 40 -15 0
v 40 -15 4
v 40 15 0
v 40 15 4
v 0 15 50
v 0 15 0
v 4 15 50
v 4 15 4
v 40 15 4
v 40 15 0
v 0 -15 0
v 0 15 0
v 40 -15 0
v 40 15 0
v 0 -15 0
v 40 -15 0
v 0 -15 50
v 4 -15 50
v 4 -15 4
v 40 -15 4
f 4 3 1
f 2 4 1
f 8 6 5
f 8 5 7
f 10 9 11
f 10 11 12
f 16 13 15
f 14 13 16
f 18 17 19
f 18 19 20
f 26 22 24
f 25 26 24
f 21 24 22
f 23 24 21
f 30 27 28
f 30 29 27
f 32 35 31
f 36 35 32
f 33 31 35
f 34 33 35
