# Cadless export: model
v -30 -25 0
v -30 -25 7
v -30 25 0
v -30 25 7
v -30 -25 0
v -30 -25 7
v 30 -25 7
v 30 -25 0
v 15.7 -25 0
v 15.7 -25 1.5
v 17.7 -25 1.5
v 17.7 -25 4
v -17.7 -25 4
v -17.7 -25 1.5
v -15.7 -25 1.5
v -15.7 -25 0
v -30 -25 7
v -29 -24 8
v -30 25 7
v -29 24 8
v -30 -25 0
v -30 25 0
v -15.7 -25 0
v -15.7 25 0
v -30 25 0
v -30 25 7
v 30 25 7
v 30 25 0
v 15.7 25 0
v 15.7 25 1.5
v 17.7 25 1.5
v 17.7 25 4
v -17.7 25 4
v -17.7 25 1.5
v -15.7 25 1.5
v -15.7 25 0
v -30 -25 7
v -29 -24 8
v 30 -25 7
v 29 -24 8
v 30 -25 0
v 30 -25 7
v 30 25 0
v 30 25 7
v -15.7 -25 0
v -15.7 -25 1.5
v -15.7 25 0
v -15.7 25 1.5
v 30 25 0
v 15.7 25 0
v 15.7 -25 0
v 30 -25 0
v -17.7 -25 1.5
v -17.7 25 1.5
v -15.7 -25 1.5
v -15.7 25 1.5
v 15.7 -25 0
v 15.7 -25 1.5
v 15.7 25 0
v 15.7 25 1.5
v -17.7 -25 4
v -17.7 25 4
v -17.7 -25 1.5
v -17.7 25 1.5
v 15.7 -25 1.5
v 15.7 25 1.5
v 17.7 -25 1.5
v 17.7 25 1.5
v -17.7 -25 4
v -17.7 25 4
v 17.7 -25 4
v 17.7 25 4
v 2.1 -18 4
v 2.09739 -17.8953 4
v 2.08956 -17.7909 4
v 2.07654 -17.687 4
v 2.05836 -17.5839 4
v 2.03506 -17.4818 4
v 2.0067 -17.381 4
v 1.97335 -17.2818 4
v 1.9351 -17.1843 4
v 1.89203 -17.0888 4
v 1.84427 -16.9957 4
v 1.79191 -16.905 4
v 1.7351 -16.817 4
v 1.67398 -16.732 4
v 1.60869 -16.6501 4
v 1.53941 -16.5716 4
v 1.4663 -16.4967 4
v 1.38954 -16.4255 4
v 1.30933 -16.3582 4
v 1.22586 -16.2949 4
v 1.13935 -16.2359 4
v 1.05 -16.1813 4
v 0.958042 -16.1313 4
v 0.863703 -16.0858 4
v 0.767216 -16.0452 4
v 0.668822 -16.0094 4
v 0.568765 -15.9785 4
v 0.467294 -15.9527 4
v 0.364661 -15.9319 4
v 0.261122 -15.9163 4
v 0.156933 -15.9059 4
v 0.0523545 -15.9007 4
v -0.0523545 -15.9007 4
v -0.156933 -15.9059 4
v -0.261122 -15.9163 4
v -0.364661 -15.9319 4
v -0.467294 -15.9527 4
v -0.568765 -15.9785 4
v -0.668822 -16.0094 4
v -0.767216 -16.0452 4
v -0.863703 -16.0858 4
v -0.958042 -16.1313 4
v -1.05 -16.1813 4
v -1.13935 -16.2359 4
v -1.22586 -16.2949 4
v -1.30933 -16.3582 4
v -1.38954 -16.4255 4
v -1.4663 -16.4967 4
v -1.53941 -16.5716 4
v -1.60869 -16.6501 4
v -1.67398 -16.732 4
v -1.7351 -16.817 4
v -1.79191 -16.905 4
v -1.84427 -16.9957 4
v -1.89203 -17.0888 4
v -1.9351 -17.1843 4
v -1.97335 -17.2818 4
v -2.0067 -17.381 4
v -2.03506 -17.4818 4
v -2.05836 -17.5839 4
v -2.07654 -17.687 4
v -2.08956 -17.7909 4
v -2.09739 -17.8953 4
v -2.1 -18 4
v -2.09739 -18.1047 4
v -2.08956 -18.2091 4
v -2.07654 -18.313 4
v -2.05836 -18.4161 4
v -2.03506 -18.5182 4
v -2.0067 -18.619 4
v -1.97335 -18.7182 4
v -1.9351 -18.8157 4
v -1.89203 -18.9112 4
v -1.84427 -19.0043 4
v -1.79191 -19.095 4
v -1.7351 -19.183 4
v -1.67398 -19.268 4
v -1.60869 -19.3499 4
v -1.53941 -19.4284 4
v -1.4663 -19.5033 4
v -1.38954 -19.5745 4
v -1.30933 -19.6418 4
v -1.22586 -19.7051 4
v -1.13935 -19.7641 4
v -1.05 -19.8187 4
v -0.958042 -19.8687 4
v -0.863703 -19.9142 4
v -0.767216 -19.9548 4
v -0.668822 -19.9906 4
v -0.568765 -20.0215 4
v -0.467294 -20.0473 4
v -0.364661 -20.0681 4
v -0.261122 -20.0837 4
v -0.156933 -20.0941 4
v -0.0523545 -20.0993 4
v 0.0523545 -20.0993 4
v 0.156933 -20.0941 4
v 0.261122 -20.0837 4
v 0.364661 -20.0681 4
v 0.467294 -20.0473 4
v 0.568765 -20.0215 4
v 0.668822 -19.9906 4
v 0.767216 -19.9548 4
v 0.863703 -19.9142 4
v 0.958042 -19.8687 4
v 1.05 -19.8187 4
v 1.13935 -19.7641 4
v 1.22586 -19.7051 4
v 1.30933 -19.6418 4
v 1.38954 -19.5745 4
v 1.4663 -19.5033 4
v 1.53941 -19.4284 4
v 1.60869 -19.3499 4
v 1.67398 -19.268 4
v 1.7351 -19.183 4
v 1.79191 -19.095 4
v 1.84427 -19.0043 4
v 1.89203 -18.9112 4
v 1.9351 -18.8157 4
v 1.97335 -18.7182 4
v 2.0067 -18.619 4
v 2.03506 -18.5182 4
v 2.05836 -18.4161 4
v 2.07654 -18.313 4
v 2.08956 -18.2091 4
v 2.09739 -18.1047 4
v 2.1 18 4
v 2.09739 18.1047 4
v 2.08956 18.2091 4
v 2.07654 18.313 4
v 2.05836 18.4161 4
v 2.03506 18.5182 4
v 2.0067 18.619 4
v 1.97335 18.7182 4
v 1.9351 18.8157 4
v 1.89203 18.9112 4
v 1.84427 19.0043 4
v 1.79191 19.095 4
v 1.7351 19.183 4
v 1.67398 19.268 4
v 1.60869 19.3499 4
v 1.53941 19.4284 4
v 1.4663 19.5033 4
v 1.38954 19.5745 4
v 1.30933 19.6418 4
v 1.22586 19.7051 4
v 1.13935 19.7641 4
v 1.05 19.8187 4
v 0.958042 19.8687 4
v 0.863703 19.9142 4
v 0.767216 19.9548 4
v 0.668822 19.9906 4
v 0.568765 20.0215 4
v 0.467294 20.0473 4
v 0.364661 20.0681 4
v 0.261122 20.0837 4
v 0.156933 20.0941 4
v 0.0523545 20.0993 4
v -0.0523545 20.0993 4
v -0.156933 20.0941 4
v -0.261122 20.0837 4
v -0.364661 20.0681 4
v -0.467294 20.0473 4
v -0.568765 20.0215 4
v -0.668822 19.9906 4
v -0.767216 19.9548 4
v -0.863703 19.9142 4
v -0.958042 19.8687 4
v -1.05 19.8187 4
v -1.13935 19.7641 4
v -1.22586 19.7051 4
v -1.30933 19.6418 4
v -1.38954 19.5745 4
v -1.4663 19.5033 4
v -1.53941 19.4284 4
v -1.60869 19.3499 4
v -1.67398 19.268 4
v -1.7351 19.183 4
v -1.79191 19.095 4
v -1.84427 19.0043 4
v -1.89203 18.9112 4
v -1.9351 18.8157 4
v -1.97335 18.7182 4
v -2.0067 18.619 4
v -2.03506 18.5182 4
v -2.05836 18.4161 4
v -2.07654 18.313 4
v -2.08956 18.2091 4
v -2.09739 18.1047 4
v -2.1 18 4
v -2.09739 17.8953 4
v -2.08956 17.7909 4
v -2.07654 17.687 4
v -2.05836 17.5839 4
v -2.03506 17.4818 4
v -2.0067 17.381 4
v -1.97335 17.2818 4
v -1.9351 17.1843 4
v -1.89203 17.0888 4
v -1.84427 16.9957 4
v -1.79191 16.905 4
v -1.7351 16.817 4
v -1.67398 16.732 4
v -1.60869 16.6501 4
v -1.53941 16.5716 4
v -1.4663 16.4967 4
v -1.38954 16.4255 4
v -1.30933 16.3582 4
v -1.22586 16.2949 4
v -1.13935 16.2359 4
v -1.05 16.1813 4
v -0.958042 16.1313 4
v -0.863703 16.0858 4
v -0.767216 16.0452 4
v -0.668822 16.0094 4
v -0.568765 15.9785 4
v -0.467294 15.9527 4
v -0.364661 15.9319 4
v -0.261122 15.9163 4
v -0.156933 15.9059 4
v -0.0523545 15.9007 4
v 0.0523545 15.9007 4
v 0.156933 15.9059 4
v 0.261122 15.9163 4
v 0.364661 15.9319 4
v 0.467294 15.9527 4
v 0.568765 15.9785 4
v 0.668822 16.0094 4
v 0.767216 16.0452 4
v 0.863703 16.0858 4
v 0.958042 16.1313 4
v 1.05 16.1813 4
v 1.13935 16.2359 4
v 1.22586 16.2949 4
v 1.30933 16.3582 4
v 1.38954 16.4255 4
v 1.4663 16.4967 4
v 1.53941 16.5716 4
v 1.60869 16.6501 4
v 1.67398 16.732 4
v 1.7351 16.817 4
v 1.79191 16.905 4
v 1.84427 16.9957 4
v 1.89203 17.0888 4
v 1.9351 17.1843 4
v 1.97335 17.2818 4
v 2.0067 17.381 4
v 2.03506 17.4818 4
v 2.05836 17.5839 4
v 2.07654 17.687 4
v 2.08956 17.7909 4
v 2.09739 17.8953 4
v 17.7 -25 4
v 17.7 25 4
v 17.7 -25 1.5
v 17.7 25 1.5
v -29 -24 8
v -29 24 8
v 29 -24 8
v 29 24 8
v 2.1 -18 8
v 2.09739 -17.8953 8
v 2.08956 -17.7909 8
v 2.07654 -17.687 8
v 2.05836 -17.5839 8
v 2.03506 -17.4818 8
v 2.0067 -17.381 8
v 1.97335 -17.2818 8
v 1.9351 -17.1843 8
v 1.89203 -17.0888 8
v 1.84427 -16.9957 8
v 1.79191 -16.905 8
v 1.7351 -16.817 8
v 1.67398 -16.732 8
v 1.60869 -16.6501 8
v 1.53941 -16.5716 8
v 1.4663 -16.4967 8
v 1.38954 -16.4255 8
v 1.30933 -16.3582 8
v 1.22586 -16.2949 8
v 1.13935 -16.2359 8
v 1.05 -16.1813 8
v 0.958042 -16.1313 8
v 0.863703 -16.0858 8
v 0.767216 -16.0452 8
v 0.668822 -16.0094 8
v 0.568765 -15.9785 8
v 0.467294 -15.9527 8
v 0.364661 -15.9319 8
v 0.261122 -15.9163 8
v 0.156933 -15.9059 8
v 0.0523545 -15.9007 8
v -0.0523545 -15.9007 8
v -0.156933 -15.9059 8
v -0.261122 -15.9163 8
v -0.364661 -15.9319 8
v -0.467294 -15.9527 8
v -0.568765 -15.9785 8
v -0.668822 -16.0094 8
v -0.767216 -16.0452 8
v -0.863703 -16.0858 8
v -0.958042 -16.1313 8
v -1.05 -16.1813 8
v -1.13935 -16.2359 8
v -1.22586 -16.2949 8
v -1.30933 -16.3582 8
v -1.38954 -16.4255 8
v -1.4663 -16.4967 8
v -1.53941 -16.5716 8
v -1.60869 -16.6501 8
v -1.67398 -16.732 8
v -1.7351 -16.817 8
v -1.79191 -16.905 8
v -1.84427 -16.9957 8
v -1.89203 -17.0888 8
v -1.9351 -17.1843 8
v -1.97335 -17.2818 8
v -2.0067 -17.381 8
v -2.03506 -17.4818 8
v -2.05836 -17.5839 8
v -2.07654 -17.687 8
v -2.08956 -17.7909 8
v -2.09739 -17.8953 8
v -2.1 -18 8
v -2.09739 -18.1047 8
v -2.08956 -18.2091 8
v -2.07654 -18.313 8
v -2.05836 -18.4161 8
v -2.03506 -18.5182 8
v -2.0067 -18.619 8
v -1.97335 -18.7182 8
v -1.9351 -18.8157 8
v -1.89203 -18.9112 8
v -1.84427 -19.0043 8
v -1.79191 -19.095 8
v -1.7351 -19.183 8
v -1.67398 -19.268 8
v -1.60869 -19.3499 8
v -1.53941 -19.4284 8
v -1.4663 -19.5033 8
v -1.38954 -19.5745 8
v -1.30933 -19.6418 8
v -1.22586 -19.7051 8
v -1.13935 -19.7641 8
v -1.05 -19.8187 8
v -0.958042 -19.8687 8
v -0.863703 -19.9142 8
v -0.767216 -19.9548 8
v -0.668822 -19.9906 8
v -0.568765 -20.0215 8
v -0.467294 -20.0473 8
v -0.364661 -20.0681 8
v -0.261122 -20.0837 8
v -0.156933 -20.0941 8
v -0.0523545 -20.0993 8
v 0.0523545 -20.0993 8
v 0.156933 -20.0941 8
v 0.261122 -20.0837 8
v 0.364661 -20.0681 8
v 0.467294 -20.0473 8
v 0.568765 -20.0215 8
v 0.668822 -19.9906 8
v 0.767216 -19.9548 8
v 0.863703 -19.9142 8
v 0.958042 -19.8687 8
v 1.05 -19.8187 8
v 1.13935 -19.7641 8
v 1.22586 -19.7051 8
v 1.30933 -19.6418 8
v 1.38954 -19.5745 8
v 1.4663 -19.5033 8
v 1.53941 -19.4284 8
v 1.60869 -19.3499 8
v 1.67398 -19.268 8
v 1.7351 -19.183 8
v 1.79191 -19.095 8
v 1.84427 -19.0043 8
v 1.89203 -18.9112 8
v 1.9351 -18.8157 8
v 1.97335 -18.7182 8
v 2.0067 -18.619 8
v 2.03506 -18.5182 8
v 2.05836 -18.4161 8
v 2.07654 -18.313 8
v 2.08956 -18.2091 8
v 2.09739 -18.1047 8
v 2.1 18 8
v 2.09739 18.1047 8
v 2.08956 18.2091 8
v 2.07654 18.313 8
v 2.05836 18.4161 8
v 2.03506 18.5182 8
v 2.0067 18.619 8
v 1.97335 18.7182 8
v 1.9351 18.8157 8
v 1.89203 18.9112 8
v 1.84427 19.0043 8
v 1.79191 19.095 8
v 1.7351 19.183 8
v 1.67398 19.268 8
v 1.60869 19.3499 8
v 1.53941 19.4284 8
v 1.4663 19.5033 8
v 1.38954 19.5745 8
v 1.30933 19.6418 8
v 1.22586 19.7051 8
v 1.13935 19.7641 8
v 1.05 19.8187 8
v 0.958042 19.8687 8
v 0.863703 19.9142 8
v 0.767216 19.9548 8
v 0.668822 19.9906 8
v 0.568765 20.0215 8
v 0.467294 20.0473 8
v 0.364661 20.0681 8
v 0.261122 20.0837 8
v 0.156933 20.0941 8
v 0.0523545 20.0993 8
v -0.0523545 20.0993 8
v -0.156933 20.0941 8
v -0.261122 20.0837 8
v -0.364661 20.0681 8
v -0.467294 20.0473 8
v -0.568765 20.0215 8
v -0.668822 19.9906 8
v -0.767216 19.9548 8
v -0.863703 19.9142 8
v -0.958042 19.8687 8
v -1.05 19.8187 8
v -1.13935 19.7641 8
v -1.22586 19.7051 8
v -1.30933 19.6418 8
v -1.38954 19.5745 8
v -1.4663 19.5033 8
v -1.53941 19.4284 8
v -1.60869 19.3499 8
v -1.67398 19.268 8
v -1.7351 19.183 8
v -1.79191 19.095 8
v -1.84427 19.0043 8
v -1.89203 18.9112 8
v -1.9351 18.8157 8
v -1.97335 18.7182 8
v -2.0067 18.619 8
v -2.03506 18.5182 8
v -2.05836 18.4161 8
v -2.07654 18.313 8
v -2.08956 18.2091 8
v -2.09739 18.1047 8
v -2.1 18 8
v -2.09739 17.8953 8
v -2.08956 17.7909 8
v -2.07654 17.687 8
v -2.05836 17.5839 8
v -2.03506 17.4818 8
v -2.0067 17.381 8
v -1.97335 17.2818 8
v -1.9351 17.1843 8
v -1.89203 17.0888 8
v -1.84427 16.9957 8
v -1.79191 16.905 8
v -1.7351 16.817 8
v -1.67398 16.732 8
v -1.60869 16.6501 8
v -1.53941 16.5716 8
v -1.4663 16.4967 8
v -1.38954 16.4255 8
v -1.30933 16.3582 8
v -1.22586 16.2949 8
v -1.13935 16.2359 8
v -1.05 16.1813 8
v -0.958042 16.1313 8
v -0.863703 16.0858 8
v -0.767216 16.0452 8
v -0.668822 16.0094 8
v -0.568765 15.9785 8
v -0.467294 15.9527 8
v -0.364661 15.9319 8
v -0.261122 15.9163 8
v -0.156933 15.9059 8
v -0.0523545 15.9007 8
v 0.0523545 15.9007 8
v 0.156933 15.9059 8
v 0.261122 15.9163 8
v 0.364661 15.9319 8
v 0.467294 15.9527 8
v 0.568765 15.9785 8
v 0.668822 16.0094 8
v 0.767216 16.0452 8
v 0.863703 16.0858 8
v 0.958042 16.1313 8
v 1.05 16.1813 8
v 1.13935 16.2359 8
v 1.22586 16.2949 8
v 1.30933 16.3582 8
v 1.38954 16.4255 8
v 1.4663 16.4967 8
v 1.53941 16.5716 8
v 1.60869 16.6501 8
v 1.67398 16.732 8
v 1.7351 16.817 8
v 1.79191 16.905 8
v 1.84427 16.9957 8
v 1.89203 17.0888 8
v 1.9351 17.1843 8
v 1.97335 17.2818 8
v 2.0067 17.381 8
v 2.03506 17.4818 8
v 2.05836 17.5839 8
v 2.07654 17.687 8
v 2.08956 17.7909 8
v 2.09739 17.8953 8
v -30 25 7
v -29 24 8
v 29 24 8
v 30 25 7
v 30 -25 7
v 29 -24 8
v 29 24 8
v 30 25 7
v 2.1 -18 8
v 2.09739 -17.8953 8
v 2.08956 -17.7909 8
v 2.07654 -17.687 8
v 2.05836 -17.5839 8
v 2.03506 -17.4818 8
v 2.0067 -17.381 8
v 1.97335 -17.2818 8
v 1.9351 -17.1843 8
v 1.89203 -17.0888 8
v 1.84427 -16.9957 8
v 1.79191 -16.905 8
v 1.7351 -16.817 8
v 1.67398 -16.732 8
v 1.60869 -16.6501 8
v 1.53941 -16.5716 8
v 1.4663 -16.4967 8
v 1.38954 -16.4255 8
v 1.30933 -16.3582 8
v 1.22586 -16.2949 8
v 1.13935 -16.2359 8
v 1.05 -16.1813 8
v 0.958042 -16.1313 8
v 0.863703 -16.0858 8
v 0.767216 -16.0452 8
v 0.668822 -16.0094 8
v 0.568765 -15.9785 8
v 0.467294 -15.9527 8
v 0.364661 -15.9319 8
v 0.261122 -15.9163 8
v 0.156933 -15.9059 8
v 0.0523545 -15.9007 8
v -0.0523545 -15.9007 8
v -0.156933 -15.9059 8
v -0.261122 -15.9163 8
v -0.364661 -15.9319 8
v -0.467294 -15.9527 8
v -0.568765 -15.9785 8
v -0.668822 -16.0094 8
v -0.767216 -16.0452 8
v -0.863703 -16.0858 8
v -0.958042 -16.1313 8
v -1.05 -16.1813 8
v -1.13935 -16.2359 8
v -1.22586 -16.2949 8
v -1.30933 -16.3582 8
v -1.38954 -16.4255 8
v -1.4663 -16.4967 8
v -1.53941 -16.5716 8
v -1.60869 -16.6501 8
v -1.67398 -16.732 8
v -1.7351 -16.817 8
v -1.79191 -16.905 8
v -1.84427 -16.9957 8
v -1.89203 -17.0888 8
v -1.9351 -17.1843 8
v -1.97335 -17.2818 8
v -2.0067 -17.381 8
v -2.03506 -17.4818 8
v -2.05836 -17.5839 8
v -2.07654 -17.687 8
v -2.08956 -17.7909 8
v -2.09739 -17.8953 8
v -2.1 -18 8
v -2.09739 -18.1047 8
v -2.08956 -18.2091 8
v -2.07654 -18.313 8
v -2.05836 -18.4161 8
v -2.03506 -18.5182 8
v -2.0067 -18.619 8
v -1.97335 -18.7182 8
v -1.9351 -18.8157 8
v -1.89203 -18.9112 8
v -1.84427 -19.0043 8
v -1.79191 -19.095 8
v -1.7351 -19.183 8
v -1.67398 -19.268 8
v -1.60869 -19.3499 8
v -1.53941 -19.4284 8
v -1.4663 -19.5033 8
v -1.38954 -19.5745 8
v -1.30933 -19.6418 8
v -1.22586 -19.7051 8
v -1.13935 -19.7641 8
v -1.05 -19.8187 8
v -0.958042 -19.8687 8
v -0.863703 -19.9142 8
v -0.767216 -19.9548 8
v -0.668822 -19.9906 8
v -0.568765 -20.0215 8
v -0.467294 -20.0473 8
v -0.364661 -20.0681 8
v -0.261122 -20.0837 8
v -0.156933 -20.0941 8
v -0.0523545 -20.0993 8
v 0.0523545 -20.0993 8
v 0.156933 -20.0941 8
v 0.261122 -20.0837 8
v 0.364661 -20.0681 8
v 0.467294 -20.0473 8
v 0.568765 -20.0215 8
v 0.668822 -19.9906 8
v 0.767216 -19.9548 8
v 0.863703 -19.9142 8
v 0.958042 -19.8687 8
v 1.05 -19.8187 8
v 1.13935 -19.7641 8
v 1.22586 -19.7051 8
v 1.30933 -19.6418 8
v 1.38954 -19.5745 8
v 1.4663 -19.5033 8
v 1.53941 -19.4284 8
v 1.60869 -19.3499 8
v 1.67398 -19.268 8
v 1.7351 -19.183 8
v 1.79191 -19.095 8
v 1.84427 -19.0043 8
v 1.89203 -18.9112 8
v 1.9351 -18.8157 8
v 1.97335 -18.7182 8
v 2.0067 -18.619 8
v 2.03506 -18.5182 8
v 2.05836 -18.4161 8
v 2.07654 -18.313 8
v 2.08956 -18.2091 8
v 2.09739 -18.1047 8
v 2.1 -18 8
v 2.1 -18 4
v 2.09739 -17.8953 4
v 2.08956 -17.7909 4
v 2.07654 -17.687 4
v 2.05836 -17.5839 4
v 2.03506 -17.4818 4
v 2.0067 -17.381 4
v 1.97335 -17.2818 4
v 1.9351 -17.1843 4
v 1.89203 -17.0888 4
v 1.84427 -16.9957 4
v 1.79191 -16.905 4
v 1.7351 -16.817 4
v 1.67398 -16.732 4
v 1.60869 -16.6501 4
v 1.53941 -16.5716 4
v 1.4663 -16.4967 4
v 1.38954 -16.4255 4
v 1.30933 -16.3582 4
v 1.22586 -16.2949 4
v 1.13935 -16.2359 4
v 1.05 -16.1813 4
v 0.958042 -16.1313 4
v 0.863703 -16.0858 4
v 0.767216 -16.0452 4
v 0.668822 -16.0094 4
v 0.568765 -15.9785 4
v 0.467294 -15.9527 4
v 0.364661 -15.9319 4
v 0.261122 -15.9163 4
v 0.156933 -15.9059 4
v 0.0523545 -15.9007 4
v -0.0523545 -15.9007 4
v -0.156933 -15.9059 4
v -0.261122 -15.9163 4
v -0.364661 -15.9319 4
v -0.467294 -15.9527 4
v -0.568765 -15.9785 4
v -0.668822 -16.0094 4
v -0.767216 -16.0452 4
v -0.863703 -16.0858 4
v -0.958042 -16.1313 4
v -1.05 -16.1813 4
v -1.13935 -16.2359 4
v -1.22586 -16.2949 4
v -1.30933 -16.3582 4
v -1.38954 -16.4255 4
v -1.4663 -16.4967 4
v -1.53941 -16.5716 4
v -1.60869 -16.6501 4
v -1.67398 -16.732 4
v -1.7351 -16.817 4
v -1.79191 -16.905 4
v -1.84427 -16.9957 4
v -1.89203 -17.0888 4
v -1.9351 -17.1843 4
v -1.97335 -17.2818 4
v -2.0067 -17.381 4
v -2.03506 -17.4818 4
v -2.05836 -17.5839 4
v -2.07654 -17.687 4
v -2.08956 -17.7909 4
v -2.09739 -17.8953 4
v -2.1 -18 4
v -2.09739 -18.1047 4
v -2.08956 -18.2091 4
v -2.07654 -18.313 4
v -2.05836 -18.4161 4
v -2.03506 -18.5182 4
v -2.0067 -18.619 4
v -1.97335 -18.7182 4
v -1.9351 -18.8157 4
v -1.89203 -18.9112 4
v -1.84427 -19.0043 4
v -1.79191 -19.095 4
v -1.7351 -19.183 4
v -1.67398 -19.268 4
v -1.60869 -19.3499 4
v -1.53941 -19.4284 4
v -1.4663 -19.5033 4
v -1.38954 -19.5745 4
v -1.30933 -19.6418 4
v -1.22586 -19.7051 4
v -1.13935 -19.7641 4
v -1.05 -19.8187 4
v -0.958042 -19.8687 4
v -0.863703 -19.9142 4
v -0.767216 -19.9548 4
v -0.668822 -19.9906 4
v -0.568765 -20.0215 4
v -0.467294 -20.0473 4
v -0.364661 -20.0681 4
v -0.261122 -20.0837 4
v -0.156933 -20.0941 4
v -0.0523545 -20.0993 4
v 0.0523545 -20.0993 4
v 0.156933 -20.0941 4
v 0.261122 -20.0837 4
v 0.364661 -20.0681 4
v 0.467294 -20.0473 4
v 0.568765 -20.0215 4
v 0.668822 -19.9906 4
v 0.767216 -19.9548 4
v 0.863703 -19.9142 4
v 0.958042 -19.8687 4
v 1.05 -19.8187 4
v 1.13935 -19.7641 4
v 1.22586 -19.7051 4
v 1.30933 -19.6418 4
v 1.38954 -19.5745 4
v 1.4663 -19.5033 4
v 1.53941 -19.4284 4
v 1.60869 -19.3499 4
v 1.67398 -19.268 4
v 1.7351 -19.183 4
v 1.79191 -19.095 4
v 1.84427 -19.0043 4
v 1.89203 -18.9112 4
v 1.9351 -18.8157 4
v 1.97335 -18.7182 4
v 2.0067 -18.619 4
v 2.03506 -18.5182 4
v 2.05836 -18.4161 4
v 2.07654 -18.313 4
v 2.08956 -18.2091 4
v 2.09739 -18.1047 4
v 2.1 -18 4
v 2.1 18 8
v 2.09739 18.1047 8
v 2.08956 18.2091 8
v 2.07654 18.313 8
v 2.05836 18.4161 8
v 2.03506 18.5182 8
v 2.0067 18.619 8
v 1.97335 18.7182 8
v 1.9351 18.8157 8
v 1.89203 18.9112 8
v 1.84427 19.0043 8
v 1.79191 19.095 8
v 1.7351 19.183 8
v 1.67398 19.268 8
v 1.60869 19.3499 8
v 1.53941 19.4284 8
v 1.4663 19.5033 8
v 1.38954 19.5745 8
v 1.30933 19.6418 8
v 1.22586 19.7051 8
v 1.13935 19.7641 8
v 1.05 19.8187 8
v 0.958042 19.8687 8
v 0.863703 19.9142 8
v 0.767216 19.9548 8
v 0.668822 19.9906 8
v 0.568765 20.0215 8
v 0.467294 20.0473 8
v 0.364661 20.0681 8
v 0.261122 20.0837 8
v 0.156933 20.0941 8
v 0.0523545 20.0993 8
v -0.0523545 20.0993 8
v -0.156933 20.0941 8
v -0.261122 20.0837 8
v -0.364661 20.0681 8
v -0.467294 20.0473 8
v -0.568765 20.0215 8
v -0.668822 19.9906 8
v -0.767216 19.9548 8
v -0.863703 19.9142 8
v -0.958042 19.8687 8
v -1.05 19.8187 8
v -1.13935 19.7641 8
v -1.22586 19.7051 8
v -1.30933 19.6418 8
v -1.38954 19.5745 8
v -1.4663 19.5033 8
v -1.53941 19.4284 8
v -1.60869 19.3499 8
v -1.67398 19.268 8
v -1.7351 19.183 8
v -1.79191 19.095 8
v -1.84427 19.0043 8
v -1.89203 18.9112 8
v -1.9351 18.8157 8
v -1.97335 18.7182 8
v -2.0067 18.619 8
v -2.03506 18.5182 8
v -2.05836 18.4161 8
v -2.07654 18.313 8
v -2.08956 18.2091 8
v -2.09739 18.1047 8
v -2.1 18 8
v -2.09739 17.8953 8
v -2.08956 17.7909 8
v -2.07654 17.687 8
v -2.05836 17.5839 8
v -2.03506 17.4818 8
v -2.0067 17.381 8
v -1.97335 17.2818 8
v -1.9351 17.1843 8
v -1.89203 17.0888 8
v -1.84427 16.9957 8
v -1.79191 16.905 8
v -1.7351 16.817 8
v -1.67398 16.732 8
v -1.60869 16.6501 8
v -1.53941 16.5716 8
v -1.4663 16.4967 8
v -1.38954 16.4255 8
v -1.30933 16.3582 8
v -1.22586 16.2949 8
v -1.13935 16.2359 8
v -1.05 16.1813 8
v -0.958042 16.1313 8
v -0.863703 16.0858 8
v -0.767216 16.0452 8
v -0.668822 16.0094 8
v -0.568765 15.9785 8
v -0.467294 15.9527 8
v -0.364661 15.9319 8
v -0.261122 15.9163 8
v -0.156933 15.9059 8
v -0.0523545 15.9007 8
v 0.0523545 15.9007 8
v 0.156933 15.9059 8
v 0.261122 15.9163 8
v 0.364661 15.9319 8
v 0.467294 15.9527 8
v 0.568765 15.9785 8
v 0.668822 16.0094 8
v 0.767216 16.0452 8
v 0.863703 16.0858 8
v 0.958042 16.1313 8
v 1.05 16.1813 8
v 1.13935 16.2359 8
v 1.22586 16.2949 8
v 1.30933 16.3582 8
v 1.38954 16.4255 8
v 1.4663 16.4967 8
v 1.53941 16.5716 8
v 1.60869 16.6501 8
v 1.67398 16.732 8
v 1.7351 16.817 8
v 1.79191 16.905 8
v 1.84427 16.9957 8
v 1.89203 17.0888 8
v 1.9351 17.1843 8
v 1.97335 17.2818 8
v 2.0067 17.381 8
v 2.03506 17.4818 8
v 2.05836 17.5839 8
v 2.07654 17.687 8
v 2.08956 17.7909 8
v 2.09739 17.8953 8
v 2.1 18 8
v 2.1 18 4
v 2.09739 18.1047 4
v 2.08956 18.2091 4
v 2.07654 18.313 4
v 2.05836 18.4161 4
v 2.03506 18.5182 4
v 2.0067 18.619 4
v 1.97335 18.7182 4
v 1.9351 18.8157 4
v 1.89203 18.9112 4
v 1.84427 19.0043 4
v 1.79191 19.095 4
v 1.7351 19.183 4
v 1.67398 19.268 4
v 1.60869 19.3499 4
v 1.53941 19.4284 4
v 1.4663 19.5033 4
v 1.38954 19.5745 4
v 1.30933 19.6418 4
v 1.22586 19.7051 4
v 1.13935 19.7641 4
v 1.05 19.8187 4
v 0.958042 19.8687 4
v 0.863703 19.9142 4
v 0.767216 19.9548 4
v 0.668822 19.9906 4
v 0.568765 20.0215 4
v 0.467294 20.0473 4
v 0.364661 20.0681 4
v 0.261122 20.0837 4
v 0.156933 20.0941 4
v 0.0523545 20.0993 4
v -0.0523545 20.0993 4
v -0.156933 20.0941 4
v -0.261122 20.0837 4
v -0.364661 20.0681 4
v -0.467294 20.0473 4
v -0.568765 20.0215 4
v -0.668822 19.9906 4
v -0.767216 19.9548 4
v -0.863703 19.9142 4
v -0.958042 19.8687 4
v -1.05 19.8187 4
v -1.13935 19.7641 4
v -1.22586 19.7051 4
v -1.30933 19.6418 4
v -1.38954 19.5745 4
v -1.4663 19.5033 4
v -1.53941 19.4284 4
v -1.60869 19.3499 4
v -1.67398 19.268 4
v -1.7351 19.183 4
v -1.79191 19.095 4
v -1.84427 19.0043 4
v -1.89203 18.9112 4
v -1.9351 18.8157 4
v -1.97335 18.7182 4
v -2.0067 18.619 4
v -2.03506 18.5182 4
v -2.05836 18.4161 4
v -2.07654 18.313 4
v -2.08956 18.2091 4
v -2.09739 18.1047 4
v -2.1 18 4
v -2.09739 17.8953 4
v -2.08956 17.7909 4
v -2.07654 17.687 4
v -2.05836 17.5839 4
v -2.03506 17.4818 4
v -2.0067 17.381 4
v -1.97335 17.2818 4
v -1.9351 17.1843 4
v -1.89203 17.0888 4
v -1.84427 16.9957 4
v -1.79191 16.905 4
v -1.7351 16.817 4
v -1.67398 16.732 4
v -1.60869 16.6501 4
v -1.53941 16.5716 4
v -1.4663 16.4967 4
v -1.38954 16.4255 4
v -1.30933 16.3582 4
v -1.22586 16.2949 4
v -1.13935 16.2359 4
v -1.05 16.1813 4
v -0.958042 16.1313 4
v -0.863703 16.0858 4
v -0.767216 16.0452 4
v -0.668822 16.0094 4
v -0.568765 15.9785 4
v -0.467294 15.9527 4
v -0.364661 15.9319 4
v -0.261122 15.9163 4
v -0.156933 15.9059 4
v -0.0523545 15.9007 4
v 0.0523545 15.9007 4
v 0.156933 15.9059 4
v 0.261122 15.9163 4
v 0.364661 15.9319 4
v 0.467294 15.9527 4
v 0.568765 15.9785 4
v 0.668822 16.0094 4
v 0.767216 16.0452 4
v 0.863703 16.0858 4
v 0.958042 16.1313 4
v 1.05 16.1813 4
v 1.13935 16.2359 4
v 1.22586 16.2949 4
v 1.30933 16.3582 4
v 1.38954 16.4255 4
v 1.4663 16.4967 4
v 1.53941 16.5716 4
v 1.60869 16.6501 4
v 1.67398 16.732 4
v 1.7351 16.817 4
v 1.79191 16.905 4
v 1.84427 16.9957 4
v 1.89203 17.0888 4
v 1.9351 17.1843 4
v 1.97335 17.2818 4
v 2.0067 17.381 4
v 2.03506 17.4818 4
v 2.05836 17.5839 4
v 2.07654 17.687 4
v 2.08956 17.7909 4
v 2.09739 17.8953 4
v 2.1 18 4
f 2 3 1
f 2 4 3
f 16 14 5
f 15 14 16
f 13 6 5
f 13 5 14
f 11 10 9
f 8 12 11
f 8 11 9
f 7 12 8
f 6 12 7
f 6 13 12
f 19 17 18
f 20 19 18
f 24 21 22
f 24 23 21
f 36 25 34
f 35 36 34
f 33 25 26
f 33 34 25
f 31 29 30
f 28 31 32
f 28 29 31
f 27 28 32
f 26 27 32
f 26 32 33
f 39 38 37
f 40 38 39
f 42 41 43
f 42 43 44
f 45 47 48
f 46 45 48
f 49 51 50
f 49 52 51
f 56 54 53
f 56 53 55
f 57 60 59
f 58 60 57
f 63 64 62
f 61 63 62
f 68 66 65
f 68 65 67
f 151 152 69
f 153 69 152
f 150 151 69
f 154 69 153
f 149 150 69
f 155 69 154
f 148 149 69
f 156 69 155
f 147 148 69
f 157 69 156
f 146 147 69
f 158 69 157
f 145 146 69
f 159 69 158
f 144 145 69
f 160 69 159
f 143 144 69
f 161 69 160
f 142 143 69
f 162 69 161
f 141 142 69
f 163 69 162
f 140 141 69
f 164 69 163
f 139 140 69
f 165 69 164
f 138 139 69
f 166 69 165
f 137 138 69
f 167 69 166
f 136 137 69
f 168 69 167
f 135 136 69
f 134 135 69
f 133 134 69
f 132 133 69
f 131 132 69
f 130 131 69
f 129 130 69
f 128 129 69
f 127 128 69
f 126 127 69
f 125 126 69
f 124 125 69
f 123 124 69
f 122 123 69
f 71 169 170
f 71 170 171
f 71 171 172
f 71 172 173
f 71 173 174
f 71 174 175
f 71 73 74
f 71 175 176
f 71 74 75
f 71 176 177
f 71 75 76
f 71 177 178
f 71 76 77
f 71 178 179
f 71 77 78
f 71 179 180
f 71 78 79
f 71 180 181
f 71 79 80
f 71 181 182
f 71 80 81
f 71 182 183
f 71 81 82
f 71 183 184
f 71 82 83
f 71 184 185
f 71 83 84
f 71 185 186
f 71 84 85
f 71 69 168
f 71 186 187
f 71 85 86
f 71 187 188
f 71 86 87
f 71 188 189
f 71 189 190
f 71 190 191
f 71 191 192
f 71 192 193
f 71 193 194
f 71 194 195
f 71 195 196
f 71 196 197
f 71 197 198
f 71 198 73
f 71 168 169
f 70 122 69
f 277 278 120
f 277 120 121
f 279 120 278
f 279 119 120
f 276 122 70
f 276 277 121
f 276 121 122
f 280 119 279
f 280 118 119
f 275 276 70
f 281 118 280
f 281 117 118
f 274 275 70
f 282 117 281
f 282 116 117
f 273 274 70
f 283 116 282
f 283 114 115
f 283 115 116
f 272 273 70
f 284 114 283
f 284 113 114
f 271 272 70
f 285 113 284
f 270 271 70
f 286 113 285
f 286 111 112
f 286 112 113
f 269 270 70
f 287 111 286
f 268 269 70
f 288 110 111
f 288 111 287
f 267 268 70
f 289 109 110
f 289 110 288
f 266 267 70
f 290 109 289
f 290 108 109
f 265 266 70
f 291 107 108
f 291 108 290
f 264 265 70
f 292 105 106
f 292 106 107
f 292 107 291
f 263 264 70
f 293 105 292
f 262 263 70
f 294 103 104
f 294 104 105
f 294 105 293
f 261 262 70
f 295 103 294
f 260 261 70
f 296 102 103
f 296 103 295
f 259 260 70
f 297 101 102
f 297 102 296
f 258 259 70
f 298 99 100
f 298 100 101
f 298 101 297
f 257 258 70
f 299 99 298
f 256 257 70
f 300 97 98
f 300 98 99
f 300 99 299
f 255 256 70
f 301 97 300
f 254 255 70
f 302 97 301
f 302 96 97
f 253 254 70
f 303 95 96
f 303 96 302
f 252 253 70
f 304 94 95
f 304 95 303
f 251 252 70
f 305 94 304
f 305 93 94
f 250 251 70
f 306 93 305
f 306 91 92
f 306 92 93
f 249 250 70
f 307 91 306
f 307 90 91
f 248 249 70
f 308 89 90
f 308 90 307
f 247 248 70
f 309 89 308
f 246 247 70
f 310 87 88
f 310 88 89
f 310 89 309
f 245 246 70
f 311 87 310
f 311 71 87
f 244 245 70
f 243 244 70
f 242 243 70
f 241 242 70
f 240 241 70
f 239 240 70
f 238 239 70
f 237 238 70
f 236 237 70
f 235 236 70
f 234 235 70
f 233 234 70
f 232 233 70
f 72 199 200
f 72 200 201
f 72 201 202
f 72 202 203
f 72 203 204
f 72 204 205
f 72 205 206
f 72 206 207
f 72 207 208
f 72 208 209
f 72 209 210
f 72 311 312
f 72 210 211
f 72 312 313
f 72 211 212
f 72 71 311
f 72 313 314
f 72 212 213
f 72 314 315
f 72 213 214
f 72 315 316
f 72 214 215
f 72 316 317
f 72 215 216
f 72 317 318
f 72 216 217
f 72 318 319
f 72 217 218
f 72 319 320
f 72 218 219
f 72 320 321
f 72 219 220
f 72 321 322
f 72 220 221
f 72 322 323
f 72 221 222
f 72 323 324
f 72 222 223
f 72 324 199
f 72 223 224
f 72 224 225
f 72 225 226
f 72 226 227
f 72 227 228
f 72 228 229
f 72 231 70
f 231 232 70
f 72 230 231
f 72 229 230
f 327 326 328
f 325 326 327
f 411 329 412
f 413 412 329
f 410 329 411
f 414 413 329
f 409 329 410
f 415 414 329
f 408 329 409
f 416 415 329
f 407 329 408
f 417 416 329
f 406 329 407
f 418 417 329
f 405 329 406
f 419 418 329
f 404 329 405
f 420 419 329
f 403 329 404
f 421 420 329
f 402 329 403
f 422 421 329
f 401 329 402
f 423 422 329
f 400 329 401
f 424 423 329
f 399 329 400
f 425 424 329
f 398 329 399
f 426 425 329
f 397 329 398
f 427 426 329
f 396 329 397
f 428 427 329
f 395 329 396
f 394 329 395
f 393 329 394
f 392 329 393
f 391 329 392
f 390 329 391
f 389 329 390
f 388 329 389
f 387 329 388
f 386 329 387
f 385 329 386
f 384 329 385
f 383 329 384
f 382 329 383
f 331 430 429
f 331 431 430
f 331 432 431
f 331 433 432
f 331 434 433
f 331 435 434
f 331 334 333
f 331 436 435
f 331 335 334
f 331 437 436
f 331 336 335
f 331 438 437
f 331 337 336
f 331 439 438
f 331 338 337
f 331 440 439
f 331 339 338
f 331 441 440
f 331 340 339
f 331 442 441
f 331 341 340
f 331 443 442
f 331 342 341
f 331 444 443
f 331 343 342
f 331 445 444
f 331 344 343
f 331 446 445
f 331 345 344
f 331 447 446
f 331 346 345
f 331 448 447
f 331 347 346
f 331 449 448
f 331 450 449
f 331 428 329
f 331 451 450
f 331 452 451
f 331 453 452
f 331 454 453
f 331 455 454
f 331 456 455
f 331 457 456
f 331 458 457
f 331 333 458
f 331 429 428
f 537 380 538
f 537 381 380
f 537 382 381
f 539 538 380
f 539 380 379
f 536 330 329
f 536 382 537
f 536 329 382
f 540 539 379
f 540 379 378
f 535 330 536
f 541 540 378
f 541 377 376
f 541 378 377
f 534 330 535
f 542 541 376
f 533 330 534
f 543 375 374
f 543 376 375
f 543 542 376
f 532 330 533
f 544 543 374
f 531 330 532
f 545 544 374
f 545 374 373
f 530 330 531
f 546 373 372
f 546 545 373
f 529 330 530
f 547 372 371
f 547 546 372
f 528 330 529
f 548 371 370
f 548 547 371
f 527 330 528
f 549 548 370
f 549 370 369
f 526 330 527
f 550 369 368
f 550 549 369
f 525 330 526
f 551 550 368
f 551 368 367
f 524 330 525
f 552 366 365
f 552 367 366
f 552 551 367
f 523 330 524
f 553 552 365
f 522 330 523
f 554 365 364
f 554 553 365
f 521 330 522
f 555 363 362
f 555 364 363
f 555 554 364
f 520 330 521
f 556 555 362
f 519 330 520
f 557 362 361
f 557 556 362
f 518 330 519
f 558 361 360
f 558 557 361
f 517 330 518
f 559 360 359
f 559 558 360
f 516 330 517
f 560 358 357
f 560 359 358
f 560 559 359
f 515 330 516
f 561 357 356
f 561 560 357
f 514 330 515
f 562 561 356
f 513 330 514
f 563 562 356
f 563 355 354
f 563 356 355
f 512 330 513
f 564 563 354
f 564 354 353
f 511 330 512
f 565 564 353
f 510 330 511
f 566 565 353
f 566 353 352
f 509 330 510
f 567 352 351
f 567 566 352
f 508 330 509
f 568 567 351
f 568 350 349
f 568 351 350
f 507 330 508
f 569 568 349
f 569 349 348
f 506 330 507
f 570 569 348
f 505 330 506
f 571 348 347
f 571 570 348
f 504 330 505
f 503 330 504
f 502 330 503
f 501 330 502
f 500 330 501
f 499 330 500
f 498 330 499
f 497 330 498
f 332 460 459
f 332 461 460
f 332 462 461
f 332 463 462
f 332 464 463
f 332 465 464
f 332 466 465
f 332 467 466
f 332 571 347
f 332 468 467
f 332 469 468
f 332 470 469
f 332 572 571
f 332 471 470
f 332 573 572
f 332 472 471
f 332 574 573
f 332 473 472
f 332 575 574
f 332 474 473
f 332 576 575
f 332 475 474
f 332 577 576
f 332 476 475
f 332 578 577
f 332 477 476
f 332 579 578
f 332 478 477
f 332 580 579
f 332 479 478
f 332 581 580
f 332 480 479
f 332 582 581
f 332 481 480
f 332 583 582
f 332 482 481
f 332 584 583
f 332 483 482
f 332 459 584
f 332 484 483
f 332 347 331
f 332 330 491
f 491 330 492
f 492 330 493
f 493 330 494
f 494 330 495
f 495 330 496
f 496 330 497
f 332 491 490
f 332 490 489
f 332 489 488
f 332 488 487
f 332 487 486
f 332 486 485
f 332 485 484
f 588 585 586
f 588 586 587
f 592 590 589
f 592 591 590
f 594 720 593
f 594 721 720
f 595 722 721
f 595 721 594
f 596 723 722
f 596 722 595
f 597 724 723
f 597 723 596
f 598 725 724
f 598 724 597
f 599 726 725
f 599 727 726
f 599 725 598
f 600 727 599
f 601 728 727
f 601 727 600
f 602 729 728
f 602 728 601
f 603 730 729
f 603 729 602
f 604 730 603
f 604 731 730
f 605 731 604
f 605 732 731
f 606 732 605
f 606 733 732
f 607 733 606
f 607 734 733
f 608 734 607
f 608 735 734
f 609 735 608
f 609 736 735
f 610 736 609
f 610 737 736
f 611 737 610
f 611 738 737
f 612 738 611
f 612 739 738
f 612 740 739
f 613 740 612
f 613 741 740
f 614 741 613
f 615 741 614
f 615 742 741
f 616 743 742
f 616 742 615
f 617 744 743
f 617 743 616
f 618 745 744
f 618 744 617
f 619 746 745
f 619 745 618
f 620 747 746
f 620 746 619
f 621 748 747
f 621 747 620
f 622 749 748
f 622 748 621
f 623 750 749
f 623 749 622
f 624 751 750
f 624 750 623
f 625 752 751
f 625 753 752
f 625 751 624
f 626 753 625
f 627 754 753
f 627 753 626
f 628 755 754
f 628 754 627
f 629 756 755
f 629 755 628
f 630 756 629
f 630 757 756
f 631 757 630
f 631 758 757
f 632 758 631
f 632 759 758
f 632 760 759
f 633 760 632
f 634 760 633
f 634 761 760
f 634 762 761
f 635 762 634
f 636 762 635
f 636 763 762
f 637 763 636
f 637 764 763
f 638 764 637
f 638 765 764
f 638 766 765
f 639 766 638
f 640 766 639
f 640 767 766
f 641 767 640
f 641 768 767
f 641 769 768
f 642 769 641
f 643 769 642
f 643 770 769
f 644 770 643
f 644 771 770
f 645 771 644
f 645 772 771
f 646 772 645
f 646 773 772
f 646 774 773
f 647 774 646
f 648 774 647
f 648 775 774
f 649 775 648
f 649 776 775
f 650 776 649
f 650 777 776
f 651 778 777
f 651 777 650
f 652 779 778
f 652 778 651
f 653 780 779
f 653 779 652
f 654 781 780
f 654 782 781
f 654 780 653
f 655 782 654
f 655 783 782
f 656 783 655
f 657 783 656
f 657 784 783
f 658 784 657
f 658 785 784
f 658 786 785
f 659 786 658
f 660 786 659
f 660 787 786
f 661 787 660
f 661 788 787
f 662 788 661
f 662 789 788
f 663 789 662
f 663 790 789
f 664 790 663
f 664 791 790
f 664 792 791
f 665 792 664
f 666 792 665
f 666 793 792
f 666 794 793
f 667 794 666
f 668 795 794
f 668 794 667
f 669 796 795
f 669 797 796
f 669 795 668
f 670 798 797
f 670 797 669
f 671 798 670
f 672 799 798
f 672 798 671
f 673 800 799
f 673 799 672
f 674 801 800
f 674 800 673
f 675 802 801
f 675 801 674
f 676 803 802
f 676 802 675
f 677 804 803
f 677 805 804
f 677 803 676
f 678 805 677
f 679 806 805
f 679 807 806
f 679 805 678
f 680 807 679
f 681 807 680
f 681 808 807
f 682 808 681
f 682 809 808
f 683 809 682
f 683 810 809
f 684 810 683
f 684 811 810
f 685 812 811
f 685 811 684
f 686 813 812
f 686 812 685
f 687 814 813
f 687 813 686
f 688 815 814
f 688 814 687
f 689 816 815
f 689 815 688
f 690 817 816
f 690 816 689
f 691 818 817
f 691 819 818
f 691 817 690
f 692 819 691
f 693 820 819
f 693 819 692
f 694 821 820
f 694 822 821
f 694 820 693
f 695 822 694
f 696 823 822
f 696 824 823
f 696 822 695
f 697 824 696
f 698 825 824
f 698 826 825
f 698 824 697
f 699 826 698
f 700 827 826
f 700 826 699
f 701 828 827
f 701 827 700
f 702 829 828
f 702 828 701
f 703 830 829
f 703 829 702
f 704 831 830
f 704 830 703
f 705 831 704
f 705 832 831
f 706 832 705
f 706 833 832
f 707 833 706
f 707 834 833
f 707 835 834
f 708 835 707
f 709 835 708
f 709 836 835
f 710 836 709
f 710 837 836
f 710 838 837
f 711 838 710
f 712 838 711
f 712 839 838
f 713 839 712
f 713 840 839
f 713 841 840
f 714 841 713
f 715 841 714
f 715 842 841
f 716 842 715
f 716 843 842
f 717 844 843
f 717 843 716
f 718 844 717
f 718 845 844
f 719 846 845
f 719 845 718
f 848 974 847
f 848 975 974
f 849 976 975
f 849 975 848
f 850 977 976
f 850 976 849
f 851 978 977
f 851 977 850
f 852 979 978
f 852 978 851
f 853 980 979
f 853 981 980
f 853 979 852
f 854 981 853
f 855 982 981
f 855 981 854
f 856 983 982
f 856 982 855
f 857 984 983
f 857 983 856
f 858 984 857
f 858 985 984
f 859 985 858
f 859 986 985
f 860 986 859
f 860 987 986
f 861 987 860
f 861 988 987
f 862 988 861
f 862 989 988
f 863 989 862
f 863 990 989
f 864 990 863
f 864 991 990
f 865 991 864
f 865 992 991
f 866 992 865
f 866 993 992
f 866 994 993
f 867 994 866
f 867 995 994
f 868 995 867
f 869 995 868
f 869 996 995
f 870 997 996
f 870 996 869
f 871 998 997
f 871 997 870
f 872 999 998
f 872 998 871
f 873 1000 999
f 873 999 872
f 874 1001 1000
f 874 1000 873
f 875 1002 1001
f 875 1001 874
f 876 1003 1002
f 876 1002 875
f 877 1004 1003
f 877 1003 876
f 878 1005 1004
f 878 1004 877
f 879 1006 1005
f 879 1007 1006
f 879 1005 878
f 880 1007 879
f 881 1008 1007
f 881 1007 880
f 882 1009 1008
f 882 1008 881
f 883 1010 1009
f 883 1009 882
f 884 1010 883
f 884 1011 1010
f 885 1011 884
f 885 1012 1011
f 886 1012 885
f 886 1013 1012
f 886 1014 1013
f 887 1014 886
f 888 1014 887
f 888 1015 1014
f 888 1016 1015
f 889 1016 888
f 890 1016 889
f 890 1017 1016
f 891 1017 890
f 891 1018 1017
f 892 1018 891
f 892 1019 1018
f 892 1020 1019
f 893 1020 892
f 894 1020 893
f 894 1021 1020
f 895 1021 894
f 895 1022 1021
f 895 1023 1022
f 896 1023 895
f 897 1023 896
f 897 1024 1023
f 898 1024 897
f 898 1025 1024
f 899 1025 898
f 899 1026 1025
f 900 1026 899
f 900 1027 1026
f 900 1028 1027
f 901 1028 900
f 902 1028 901
f 902 1029 1028
f 903 1029 902
f 903 1030 1029
f 904 1030 903
f 904 1031 1030
f 905 1032 1031
f 905 1031 904
f 906 1033 1032
f 906 1032 905
f 907 1034 1033
f 907 1033 906
f 908 1035 1034
f 908 1036 1035
f 908 1034 907
f 909 1036 908
f 909 1037 1036
f 910 1037 909
f 911 1037 910
f 911 1038 1037
f 912 1038 911
f 912 1039 1038
f 912 1040 1039
f 913 1040 912
f 914 1040 913
f 914 1041 1040
f 915 1041 914
f 915 1042 1041
f 916 1042 915
f 916 1043 1042
f 917 1043 916
f 917 1044 1043
f 918 1044 917
f 918 1045 1044
f 918 1046 1045
f 919 1046 918
f 920 1046 919
f 920 1047 1046
f 920 1048 1047
f 921 1048 920
f 922 1049 1048
f 922 1048 921
f 923 1050 1049
f 923 1051 1050
f 923 1049 922
f 924 1052 1051
f 924 1051 923
f 925 1052 924
f 926 1053 1052
f 926 1052 925
f 927 1054 1053
f 927 1053 926
f 928 1055 1054
f 928 1054 927
f 929 1056 1055
f 929 1055 928
f 930 1057 1056
f 930 1056 929
f 931 1058 1057
f 931 1059 1058
f 931 1057 930
f 932 1059 931
f 933 1060 1059
f 933 1061 1060
f 933 1059 932
f 934 1061 933
f 935 1061 934
f 935 1062 1061
f 936 1062 935
f 936 1063 1062
f 937 1063 936
f 937 1064 1063
f 938 1064 937
f 938 1065 1064
f 939 1066 1065
f 939 1065 938
f 940 1067 1066
f 940 1066 939
f 941 1068 1067
f 941 1067 940
f 942 1069 1068
f 942 1068 941
f 943 1070 1069
f 943 1069 942
f 944 1071 1070
f 944 1070 943
f 945 1072 1071
f 945 1073 1072
f 945 1071 944
f 946 1073 945
f 947 1074 1073
f 947 1073 946
f 948 1075 1074
f 948 1076 1075
f 948 1074 947
f 949 1076 948
f 950 1077 1076
f 950 1078 1077
f 950 1076 949
f 951 1078 950
f 952 1079 1078
f 952 1080 1079
f 952 1078 951
f 953 1080 952
f 954 1081 1080
f 954 1080 953
f 955 1082 1081
f 955 1081 954
f 956 1083 1082
f 956 1082 955
f 957 1084 1083
f 957 1083 956
f 958 1085 1084
f 958 1084 957
f 959 1085 958
f 959 1086 1085
f 960 1086 959
f 960 1087 1086
f 961 1087 960
f 961 1088 1087
f 961 1089 1088
f 962 1089 961
f 963 1089 962
f 963 1090 1089
f 964 1090 963
f 964 1091 1090
f 964 1092 1091
f 965 1092 964
f 966 1092 965
f 966 1093 1092
f 967 1093 966
f 967 1094 1093
f 967 1095 1094
f 968 1095 967
f 969 1095 968
f 969 1096 1095
f 970 1096 969
f 970 1097 1096
f 971 1098 1097
f 971 1097 970
f 972 1098 971
f 972 1099 1098
f 973 1100 1099
f 973 1099 972
