# Cadless export: model
v -13 28.1425 -11
v -13 28.1425 11
v -14.376 27.4651 -11
v -15.7169 26.7204 -11
v -17.0193 25.9103 -11
v -18.28 25.0368 -11
v -19.4959 24.102 -11
v -20.6642 23.1083 -11
v -21.7818 22.0579 -11
v -22.8462 20.9536 -11
v -23.8546 19.7979 -11
v -24.8046 18.5938 -11
v -25.6939 17.3442 -11
v -26.5203 16.0521 -11
v -27.2818 14.7208 -11
v -27.9765 13.3534 -11
v -28.6028 11.9533 -11
v -29.159 10.524 -11
v -29.6438 9.06885 -11
v -30.0561 7.59154 -11
v -30.3948 6.09566 -11
v -30.6591 4.58485 -11
v -30.8483 3.06281 -11
v -30.9621 1.53328 -11
v -31 1.3764e-13 -11
v -30.9621 -1.53328 -11
v -30.8483 -3.06281 -11
v -30.6591 -4.58485 -11
v -30.3948 -6.09566 -11
v -30.0561 -7.59154 -11
v -29.6438 -9.06885 -11
v -29.159 -10.524 -11
v -28.6028 -11.9533 -11
v -27.9765 -13.3534 -11
v -27.2818 -14.7208 -11
v -26.5203 -16.0521 -11
v -25.6939 -17.3442 -11
v -24.8046 -18.5938 -11
v -23.8546 -19.7979 -11
v -22.8462 -20.9536 -11
v -21.7818 -22.0579 -11
v -20.6642 -23.1083 -11
v -19.4959 -24.102 -11
v -18.28 -25.0368 -11
v -17.0193 -25.9103 -11
v -15.7169 -26.7204 -11
v -14.376 -27.4651 -11
v -13 -28.1425 -11
v -13 -28.1425 11
v -14.376 -27.4651 11
v -15.7169 -26.7204 11
v -17.0193 -25.9103 11
v -18.28 -25.0368 11
v -19.4959 -24.102 11
v -20.6642 -23.1083 11
v -21.7818 -22.0579 11
v -22.8462 -20.9536 11
v -23.8546 -19.7979 11
v -24.8046 -18.5938 11
v -25.6939 -17.3442 11
v -26.5203 -16.0521 11
v -27.2818 -14.7208 11
v -27.9765 -13.3534 11
v -28.6028 -11.9533 11
v -29.159 -10.524 11
v -29.6438 -9.06885 11
v -30.0561 -7.59154 11
v -30.3948 -6.09566 11
v -30.6591 -4.58485 11
v -30.8483 -3.06281 11
v -30.9621 -1.53328 11
v -31 -5.05335e-13 11
v -30.9621 1.53328 11
v -30.8483 3.06281 11
v -30.6591 4.58485 11
v -30.3948 6.09566 11
v -30.0561 7.59154 11
v -29.6438 9.06885 11
v -29.159 10.524 11
v -28.6028 11.9533 11
v -27.9765 13.3534 11
v -27.2818 14.7208 11
v -26.5203 16.0521 11
v -25.6939 17.3442 11
v -24.8046 18.5938 11
v -23.8546 19.7979 11
v -22.8462 20.9536 11
v -21.7818 22.0579 11
v -20.6642 23.1083 11
v -19.4959 24.102 11
v -18.28 25.0368 11
v -17.0193 25.9103 11
v -15.7169 26.7204 11
v -14.376 27.4651 11
v -13 28.1425 11
v -13 40 11
v -13 28.1425 -11
v -13 40 -11
v 13 28.1425 11
v 14.376 27.4651 11
v 15.7169 26.7204 11
v 17.0193 25.9103 11
v 18.28 25.0368 11
v 19.4959 24.102 11
v 20.6642 23.1083 11
v 21.7818 22.0579 11
v 22.8462 20.9536 11
v 23.8546 19.7979 11
v 24.8046 18.5938 11
v 25.6939 17.3442 11
v 26.5203 16.0521 11
v 27.2818 14.7208 11
v 27.9765 13.3534 11
v 28.6028 11.9533 11
v 29.159 10.524 11
v 29.6438 9.06885 11
v 30.0561 7.59154 11
v 30.3948 6.09566 11
v 30.6591 4.58485 11
v 30.8483 3.06281 11
v 30.9621 1.53328 11
v 31 6.46312e-13 11
v 30.9621 -1.53328 11
v 30.8483 -3.06281 11
v 30.6591 -4.58485 11
v 30.3948 -6.09566 11
v 30.0561 -7.59154 11
v 29.6438 -9.06885 11
v 29.159 -10.524 11
v 28.6028 -11.9533 11
v 27.9765 -13.3534 11
v 27.2818 -14.7208 11
v 26.5203 -16.0521 11
v 25.6939 -17.3442 11
v 24.8046 -18.5938 11
v 23.8546 -19.7979 11
v 22.8462 -20.9536 11
v 21.7818 -22.0579 11
v 20.6642 -23.1083 11
v 19.4959 -24.102 11
v 18.28 -25.0368 11
v 17.0193 -25.9103 11
v 15.7169 -26.7204 11
v 14.376 -27.4651 11
v 13 -28.1425 11
v 13 40 11
v -13 40 11
v -13 28.1425 11
v -13 -28.1425 11
v -14.376 -27.4651 11
v -15.7169 -26.7204 11
v -17.0193 -25.9103 11
v -18.28 -25.0368 11
v -19.4959 -24.102 11
v -20.6642 -23.1083 11
v -21.7818 -22.0579 11
v -22.8462 -20.9536 11
v -23.8546 -19.7979 11
v -24.8046 -18.5938 11
v -25.6939 -17.3442 11
v -26.5203 -16.0521 11
v -27.2818 -14.7208 11
v -27.9765 -13.3534 11
v -28.6028 -11.9533 11
v -29.159 -10.524 11
v -29.6438 -9.06885 11
v -30.0561 -7.59154 11
v -30.3948 -6.09566 11
v -30.6591 -4.58485 11
v -30.8483 -3.06281 11
v -30.9621 -1.53328 11
v -31 -5.05335e-13 11
v -30.9621 1.53328 11
v -30.8483 3.06281 11
v -30.6591 4.58485 11
v -30.3948 6.09566 11
v -30.0561 7.59154 11
v -29.6438 9.06885 11
v -29.159 10.524 11
v -28.6028 11.9533 11
v -27.9765 13.3534 11
v -27.2818 14.7208 11
v -26.5203 16.0521 11
v -25.6939 17.3442 11
v -24.8046 18.5938 11
v -23.8546 19.7979 11
v -22.8462 20.9536 11
v -21.7818 22.0579 11
v -20.6642 23.1083 11
v -19.4959 24.102 11
v -18.28 25.0368 11
v -17.0193 25.9103 11
v -15.7169 26.7204 11
v -14.376 27.4651 11
v -13 -40 11
v 13 -40 11
v 22.5 -5.51091e-15 11
v 22.472 1.12153 11
v 22.3882 2.24028 11
v 22.2487 3.35345 11
v 22.0539 4.45829 11
v 21.8042 5.55204 11
v 21.5004 6.63199 11
v 21.1431 7.69545 11
v 20.7332 8.73978 11
v 20.2718 9.76238 11
v 19.76 10.7607 11
v 19.199 11.7323 11
v 18.5904 12.6747 11
v 17.9355 13.5856 11
v 17.236 14.4627 11
v 16.4937 15.3039 11
v 15.7103 16.107 11
v 14.8879 16.8701 11
v 14.0285 17.5912 11
v 13.1342 18.2686 11
v 12.2073 18.9006 11
v 11.25 19.4856 11
v 10.2647 20.0221 11
v 9.25396 20.5089 11
v 8.22017 20.9447 11
v 7.16595 21.3284 11
v 6.09391 21.659 11
v 5.00672 21.9359 11
v 3.90708 22.1582 11
v 2.79773 22.3254 11
v 1.68143 22.4371 11
v 0.560941 22.493 11
v -0.560941 22.493 11
v -1.68143 22.4371 11
v -2.79773 22.3254 11
v -3.90708 22.1582 11
v -5.00672 21.9359 11
v -6.09391 21.659 11
v -7.16595 21.3284 11
v -8.22017 20.9447 11
v -9.25396 20.5089 11
v -10.2647 20.0221 11
v -11.25 19.4856 11
v -12.2073 18.9006 11
v -13.1342 18.2686 11
v -14.0285 17.5912 11
v -14.8879 16.8701 11
v -15.7103 16.107 11
v -16.4937 15.3039 11
v -17.236 14.4627 11
v -17.9355 13.5856 11
v -18.5904 12.6747 11
v -19.199 11.7323 11
v -19.76 10.7607 11
v -20.2718 9.76238 11
v -20.7332 8.73978 11
v -21.1431 7.69545 11
v -21.5004 6.63199 11
v -21.8042 5.55204 11
v -22.0539 4.45829 11
v -22.2487 3.35345 11
v -22.3882 2.24028 11
v -22.472 1.12153 11
v -22.5 -7.71806e-14 11
v -22.472 -1.12153 11
v -22.3882 -2.24028 11
v -22.2487 -3.35345 11
v -22.0539 -4.45829 11
v -21.8042 -5.55204 11
v -21.5004 -6.63199 11
v -21.1431 -7.69545 11
v -20.7332 -8.73978 11
v -20.2718 -9.76238 11
v -19.76 -10.7607 11
v -19.199 -11.7323 11
v -18.5904 -12.6747 11
v -17.9355 -13.5856 11
v -17.236 -14.4627 11
v -16.4937 -15.3039 11
v -15.7103 -16.107 11
v -14.8879 -16.8701 11
v -14.0285 -17.5912 11
v -13.1342 -18.2686 11
v -12.2073 -18.9006 11
v -11.25 -19.4856 11
v -10.2647 -20.0221 11
v -9.25396 -20.5089 11
v -8.22017 -20.9447 11
v -7.16595 -21.3284 11
v -6.09391 -21.659 11
v -5.00672 -21.9359 11
v -3.90708 -22.1582 11
v -2.79773 -22.3254 11
v -1.68143 -22.4371 11
v -0.560941 -22.493 11
v 0.560941 -22.493 11
v 1.68143 -22.4371 11
v 2.79773 -22.3254 11
v 3.90708 -22.1582 11
v 5.00672 -21.9359 11
v 6.09391 -21.659 11
v 7.16595 -21.3284 11
v 8.22017 -20.9447 11
v 9.25396 -20.5089 11
v 10.2647 -20.0221 11
v 11.25 -19.4856 11
v 12.2073 -18.9006 11
v 13.1342 -18.2686 11
v 14.0285 -17.5912 11
v 14.8879 -16.8701 11
v 15.7103 -16.107 11
v 16.4937 -15.3039 11
v 17.236 -14.4627 11
v 17.9355 -13.5856 11
v 18.5904 -12.6747 11
v 19.199 -11.7323 11
v 19.76 -10.7607 11
v 20.2718 -9.76238 11
v 20.7332 -8.73978 11
v 21.1431 -7.69545 11
v 21.5004 -6.63199 11
v 21.8042 -5.55204 11
v 22.0539 -4.45829 11
v 22.2487 -3.35345 11
v 22.3882 -2.24028 11
v 22.472 -1.12153 11
v -13 -40 11
v -13 -28.1425 11
v -13 -40 -11
v -13 -28.1425 -11
v -13 28.1425 -11
v -13 40 -11
v -14.376 27.4651 -11
v -15.7169 26.7204 -11
v -17.0193 25.9103 -11
v -18.28 25.0368 -11
v -19.4959 24.102 -11
v -20.6642 23.1083 -11
v -21.7818 22.0579 -11
v -22.8462 20.9536 -11
v -23.8546 19.7979 -11
v -24.8046 18.5938 -11
v -25.6939 17.3442 -11
v -26.5203 16.0521 -11
v -27.2818 14.7208 -11
v -27.9765 13.3534 -11
v -28.6028 11.9533 -11
v -29.159 10.524 -11
v -29.6438 9.06885 -11
v -30.0561 7.59154 -11
v -30.3948 6.09566 -11
v -30.6591 4.58485 -11
v -30.8483 3.06281 -11
v -30.9621 1.53328 -11
v -31 1.3764e-13 -11
v -30.9621 -1.53328 -11
v -30.8483 -3.06281 -11
v -30.6591 -4.58485 -11
v -30.3948 -6.09566 -11
v -30.0561 -7.59154 -11
v -29.6438 -9.06885 -11
v -29.159 -10.524 -11
v -28.6028 -11.9533 -11
v -27.9765 -13.3534 -11
v -27.2818 -14.7208 -11
v -26.5203 -16.0521 -11
v -25.6939 -17.3442 -11
v -24.8046 -18.5938 -11
v -23.8546 -19.7979 -11
v -22.8462 -20.9536 -11
v -21.7818 -22.0579 -11
v -20.6642 -23.1083 -11
v -19.4959 -24.102 -11
v -18.28 -25.0368 -11
v -17.0193 -25.9103 -11
v -15.7169 -26.7204 -11
v -14.376 -27.4651 -11
v -13 -28.1425 -11
v -13 -40 -11
v 13 -40 -11
v 13 -28.1425 -11
v 14.376 -27.4651 -11
v 15.7169 -26.7204 -11
v 17.0193 -25.9103 -11
v 18.28 -25.0368 -11
v 19.4959 -24.102 -11
v 20.6642 -23.1083 -11
v 21.7818 -22.0579 -11
v 22.8462 -20.9536 -11
v 23.8546 -19.7979 -11
v 24.8046 -18.5938 -11
v 25.6939 -17.3442 -11
v 26.5203 -16.0521 -11
v 27.2818 -14.7208 -11
v 27.9765 -13.3534 -11
v 28.6028 -11.9533 -11
v 29.159 -10.524 -11
v 29.6438 -9.06885 -11
v 30.0561 -7.59154 -11
v 30.3948 -6.09566 -11
v 30.6591 -4.58485 -11
v 30.8483 -3.06281 -11
v 30.9621 -1.53328 -11
v 31 4.91757e-13 -11
v 30.9621 1.53328 -11
v 30.8483 3.06281 -11
v 30.6591 4.58485 -11
v 30.3948 6.09566 -11
v 30.0561 7.59154 -11
v 29.6438 9.06885 -11
v 29.159 10.524 -11
v 28.6028 11.9533 -11
v 27.9765 13.3534 -11
v 27.2818 14.7208 -11
v 26.5203 16.0521 -11
v 25.6939 17.3442 -11
v 24.8046 18.5938 -11
v 23.8546 19.7979 -11
v 22.8462 20.9536 -11
v 21.7818 22.0579 -11
v 20.6642 23.1083 -11
v 19.4959 24.102 -11
v 18.28 25.0368 -11
v 17.0193 25.9103 -11
v 15.7169 26.7204 -11
v 14.376 27.4651 -11
v 13 28.1425 -11
v 13 40 -11
v 22.5 -5.51091e-15 -11
v 22.472 1.12153 -11
v 22.3882 2.24028 -11
v 22.2487 3.35345 -11
v 22.0539 4.45829 -11
v 21.8042 5.55204 -11
v 21.5004 6.63199 -11
v 21.1431 7.69545 -11
v 20.7332 8.73978 -11
v 20.2718 9.76238 -11
v 19.76 10.7607 -11
v 19.199 11.7323 -11
v 18.5904 12.6747 -11
v 17.9355 13.5856 -11
v 17.236 14.4627 -11
v 16.4937 15.3039 -11
v 15.7103 16.107 -11
v 14.8879 16.8701 -11
v 14.0285 17.5912 -11
v 13.1342 18.2686 -11
v 12.2073 18.9006 -11
v 11.25 19.4856 -11
v 10.2647 20.0221 -11
v 9.25396 20.5089 -11
v 8.22017 20.9447 -11
v 7.16595 21.3284 -11
v 6.09391 21.659 -11
v 5.00672 21.9359 -11
v 3.90708 22.1582 -11
v 2.79773 22.3254 -11
v 1.68143 22.4371 -11
v 0.560941 22.493 -11
v -0.560941 22.493 -11
v -1.68143 22.4371 -11
v -2.79773 22.3254 -11
v -3.90708 22.1582 -11
v -5.00672 21.9359 -11
v -6.09391 21.659 -11
v -7.16595 21.3284 -11
v -8.22017 20.9447 -11
v -9.25396 20.5089 -11
v -10.2647 20.0221 -11
v -11.25 19.4856 -11
v -12.2073 18.9006 -11
v -13.1342 18.2686 -11
v -14.0285 17.5912 -11
v -14.8879 16.8701 -11
v -15.7103 16.107 -11
v -16.4937 15.3039 -11
v -17.236 14.4627 -11
v -17.9355 13.5856 -11
v -18.5904 12.6747 -11
v -19.199 11.7323 -11
v -19.76 10.7607 -11
v -20.2718 9.76238 -11
v -20.7332 8.73978 -11
v -21.1431 7.69545 -11
v -21.5004 6.63199 -11
v -21.8042 5.55204 -11
v -22.0539 4.45829 -11
v -22.2487 3.35345 -11
v -22.3882 2.24028 -11
v -22.472 1.12153 -11
v -22.5 -7.71806e-14 -11
v -22.472 -1.12153 -11
v -22.3882 -2.24028 -11
v -22.2487 -3.35345 -11
v -22.0539 -4.45829 -11
v -21.8042 -5.55204 -11
v -21.5004 -6.63199 -11
v -21.1431 -7.69545 -11
v -20.7332 -8.73978 -11
v -20.2718 -9.76238 -11
v -19.76 -10.7607 -11
v -19.199 -11.7323 -11
v -18.5904 -12.6747 -11
v -17.9355 -13.5856 -11
v -17.236 -14.4627 -11
v -16.4937 -15.3039 -11
v -15.7103 -16.107 -11
v -14.8879 -16.8701 -11
v -14.0285 -17.5912 -11
v -13.1342 -18.2686 -11
v -12.2073 -18.9006 -11
v -11.25 -19.4856 -11
v -10.2647 -20.0221 -11
v -9.25396 -20.5089 -11
v -8.22017 -20.9447 -11
v -7.16595 -21.3284 -11
v -6.09391 -21.659 -11
v -5.00672 -21.9359 -11
v -3.90708 -22.1582 -11
v -2.79773 -22.3254 -11
v -1.68143 -22.4371 -11
v -0.560941 -22.493 -11
v 0.560941 -22.493 -11
v 1.68143 -22.4371 -11
v 2.79773 -22.3254 -11
v 3.90708 -22.1582 -11
v 5.00672 -21.9359 -11
v 6.09391 -21.659 -11
v 7.16595 -21.3284 -11
v 8.22017 -20.9447 -11
v 9.25396 -20.5089 -11
v 10.2647 -20.0221 -11
v 11.25 -19.4856 -11
v 12.2073 -18.9006 -11
v 13.1342 -18.2686 -11
v 14.0285 -17.5912 -11
v 14.8879 -16.8701 -11
v 15.7103 -16.107 -11
v 16.4937 -15.3039 -11
v 17.236 -14.4627 -11
v 17.9355 -13.5856 -11
v 18.5904 -12.6747 -11
v 19.199 -11.7323 -11
v 19.76 -10.7607 -11
v 20.2718 -9.76238 -11
v 20.7332 -8.73978 -11
v 21.1431 -7.69545 -11
v 21.5004 -6.63199 -11
v 21.8042 -5.55204 -11
v 22.0539 -4.45829 -11
v 22.2487 -3.35345 -11
v 22.3882 -2.24028 -11
v 22.472 -1.12153 -11
v -13 40 -11
v 13 40 -11
v -13 40 11
v 13 40 11
v 13 -28.1425 -11
v 13 -28.1425 11
v 14.376 -27.4651 -11
v 15.7169 -26.7204 -11
v 17.0193 -25.9103 -11
v 18.28 -25.0368 -11
v 19.4959 -24.102 -11
v 20.6642 -23.1083 -11
v 21.7818 -22.0579 -11
v 22.8462 -20.9536 -11
v 23.8546 -19.7979 -11
v 24.8046 -18.5938 -11
v 25.6939 -17.3442 -11
v 26.5203 -16.0521 -11
v 27.2818 -14.7208 -11
v 27.9765 -13.3534 -11
v 28.6028 -11.9533 -11
v 29.159 -10.524 -11
v 29.6438 -9.06885 -11
v 30.0561 -7.59154 -11
v 30.3948 -6.09566 -11
v 30.6591 -4.58485 -11
v 30.8483 -3.06281 -11
v 30.9621 -1.53328 -11
v 31 4.91757e-13 -11
v 30.9621 1.53328 -11
v 30.8483 3.06281 -11
v 30.6591 4.58485 -11
v 30.3948 6.09566 -11
v 30.0561 7.59154 -11
v 29.6438 9.06885 -11
v 29.159 10.524 -11
v 28.6028 11.9533 -11
v 27.9765 13.3534 -11
v 27.2818 14.7208 -11
v 26.5203 16.0521 -11
v 25.6939 17.3442 -11
v 24.8046 18.5938 -11
v 23.8546 19.7979 -11
v 22.8462 20.9536 -11
v 21.7818 22.0579 -11
v 20.6642 23.1083 -11
v 19.4959 24.102 -11
v 18.28 25.0368 -11
v 17.0193 25.9103 -11
v 15.7169 26.7204 -11
v 14.376 27.4651 -11
v 13 28.1425 -11
v 13 28.1425 11
v 14.376 27.4651 11
v 15.7169 26.7204 11
v 17.0193 25.9103 11
v 18.28 25.0368 11
v 19.4959 24.102 11
v 20.6642 23.1083 11
v 21.7818 22.0579 11
v 22.8462 20.9536 11
v 23.8546 19.7979 11
v 24.8046 18.5938 11
v 25.6939 17.3442 11
v 26.5203 16.0521 11
v 27.2818 14.7208 11
v 27.9765 13.3534 11
v 28.6028 11.9533 11
v 29.159 10.524 11
v 29.6438 9.06885 11
v 30.0561 7.59154 11
v 30.3948 6.09566 11
v 30.6591 4.58485 11
v 30.8483 3.06281 11
v 30.9621 1.53328 11
v 31 6.46312e-13 11
v 30.9621 -1.53328 11
v 30.8483 -3.06281 11
v 30.6591 -4.58485 11
v 30.3948 -6.09566 11
v 30.0561 -7.59154 11
v 29.6438 -9.06885 11
v 29.159 -10.524 11
v 28.6028 -11.9533 11
v 27.9765 -13.3534 11
v 27.2818 -14.7208 11
v 26.5203 -16.0521 11
v 25.6939 -17.3442 11
v 24.8046 -18.5938 11
v 23.8546 -19.7979 11
v 22.8462 -20.9536 11
v 21.7818 -22.0579 11
v 20.6642 -23.1083 11
v 19.4959 -24.102 11
v 18.28 -25.0368 11
v 17.0193 -25.9103 11
v 15.7169 -26.7204 11
v 14.376 -27.4651 11
v 28.9828 -11 5
v 29.4415 -9.70562 5
v 29.8424 -8.39218 5
v 30.1848 -7.06228 5
v 30.468 -5.71853 5
v 30.6914 -4.36354 5
v 30.8545 -3 5
v 28.9828 -11 9
v 29.4807 -9.58592 9
v 29.9096 -8.14941 9
v 30.2687 -6.69385 9
v 30.5569 -5.22263 9
v 30.7737 -3.7392 9
v 30.9185 -2.24703 9
v 30.9909 -0.749593 9
v 30.9909 0.749593 9
v 30.9185 2.24703 9
v 30.7737 3.7392 9
v 30.5569 5.22263 9
v 30.2687 6.69385 9
v 29.9096 8.14941 9
v 29.4807 9.58592 9
v 28.9828 11 9
v 28.9828 11 5
v 30.8545 3 5
v 30.6914 4.36354 5
v 30.468 5.71853 5
v 30.1848 7.06228 5
v 29.8424 8.39218 5
v 29.4415 9.70562 5
v 30.8545 3 -5
v 30.6914 4.36354 -5
v 30.468 5.71853 -5
v 30.1848 7.06228 -5
v 29.8424 8.39218 -5
v 29.4415 9.70562 -5
v 28.9828 11 -5
v 28.9828 11 -9
v 29.4807 9.58592 -9
v 29.9096 8.14941 -9
v 30.2687 6.69385 -9
v 30.5569 5.22263 -9
v 30.7737 3.7392 -9
v 30.9185 2.24703 -9
v 30.9909 0.749593 -9
v 30.9909 -0.749593 -9
v 30.9185 -2.24703 -9
v 30.7737 -3.7392 -9
v 30.5569 -5.22263 -9
v 30.2687 -6.69385 -9
v 29.9096 -8.14941 -9
v 29.4807 -9.58592 -9
v 28.9828 -11 -9
v 28.9828 -11 -5
v 29.4415 -9.70562 -5
v 29.8424 -8.39218 -5
v 30.1848 -7.06228 -5
v 30.468 -5.71853 -5
v 30.6914 -4.36354 -5
v 30.8545 -3 -5
v 13 28.1425 11
v 13 40 11
v 13 28.1425 -11
v 13 40 -11
v 13 -40 11
v 13 -28.1425 11
v 13 -40 -11
v 13 -28.1425 -11
v -13 -40 -11
v 13 -40 -11
v -13 -40 11
v 13 -40 11
v 22.5 -5.51091e-15 11
v 22.472 1.12153 11
v 22.3882 2.24028 11
v 22.2487 3.35345 11
v 22.0539 4.45829 11
v 21.8042 5.55204 11
v 21.5004 6.63199 11
v 21.1431 7.69545 11
v 20.7332 8.73978 11
v 20.2718 9.76238 11
v 19.76 10.7607 11
v 19.199 11.7323 11
v 18.5904 12.6747 11
v 17.9355 13.5856 11
v 17.236 14.4627 11
v 16.4937 15.3039 11
v 15.7103 16.107 11
v 14.8879 16.8701 11
v 14.0285 17.5912 11
v 13.1342 18.2686 11
v 12.2073 18.9006 11
v 11.25 19.4856 11
v 10.2647 20.0221 11
v 9.25396 20.5089 11
v 8.22017 20.9447 11
v 7.16595 21.3284 11
v 6.09391 21.659 11
v 5.00672 21.9359 11
v 3.90708 22.1582 11
v 2.79773 22.3254 11
v 1.68143 22.4371 11
v 0.560941 22.493 11
v -0.560941 22.493 11
v -1.68143 22.4371 11
v -2.79773 22.3254 11
v -3.90708 22.1582 11
v -5.00672 21.9359 11
v -6.09391 21.659 11
v -7.16595 21.3284 11
v -8.22017 20.9447 11
v -9.25396 20.5089 11
v -10.2647 20.0221 11
v -11.25 19.4856 11
v -12.2073 18.9006 11
v -13.1342 18.2686 11
v -14.0285 17.5912 11
v -14.8879 16.8701 11
v -15.7103 16.107 11
v -16.4937 15.3039 11
v -17.236 14.4627 11
v -17.9355 13.5856 11
v -18.5904 12.6747 11
v -19.199 11.7323 11
v -19.76 10.7607 11
v -20.2718 9.76238 11
v -20.7332 8.73978 11
v -21.1431 7.69545 11
v -21.5004 6.63199 11
v -21.8042 5.55204 11
v -22.0539 4.45829 11
v -22.2487 3.35345 11
v -22.3882 2.24028 11
v -22.472 1.12153 11
v -22.5 -7.71806e-14 11
v -22.472 -1.12153 11
v -22.3882 -2.24028 11
v -22.2487 -3.35345 11
v -22.0539 -4.45829 11
v -21.8042 -5.55204 11
v -21.5004 -6.63199 11
v -21.1431 -7.69545 11
v -20.7332 -8.73978 11
v -20.2718 -9.76238 11
v -19.76 -10.7607 11
v -19.199 -11.7323 11
v -18.5904 -12.6747 11
v -17.9355 -13.5856 11
v -17.236 -14.4627 11
v -16.4937 -15.3039 11
v -15.7103 -16.107 11
v -14.8879 -16.8701 11
v -14.0285 -17.5912 11
v -13.1342 -18.2686 11
v -12.2073 -18.9006 11
v -11.25 -19.4856 11
v -10.2647 -20.0221 11
v -9.25396 -20.5089 11
v -8.22017 -20.9447 11
v -7.16595 -21.3284 11
v -6.09391 -21.659 11
v -5.00672 -21.9359 11
v -3.90708 -22.1582 11
v -2.79773 -22.3254 11
v -1.68143 -22.4371 11
v -0.560941 -22.493 11
v 0.560941 -22.493 11
v 1.68143 -22.4371 11
v 2.79773 -22.3254 11
v 3.90708 -22.1582 11
v 5.00672 -21.9359 11
v 6.09391 -21.659 11
v 7.16595 -21.3284 11
v 8.22017 -20.9447 11
v 9.25396 -20.5089 11
v 10.2647 -20.0221 11
v 11.25 -19.4856 11
v 12.2073 -18.9006 11
v 13.1342 -18.2686 11
v 14.0285 -17.5912 11
v 14.8879 -16.8701 11
v 15.7103 -16.107 11
v 16.4937 -15.3039 11
v 17.236 -14.4627 11
v 17.9355 -13.5856 11
v 18.5904 -12.6747 11
v 19.199 -11.7323 11
v 19.76 -10.7607 11
v 20.2718 -9.76238 11
v 20.7332 -8.73978 11
v 21.1431 -7.69545 11
v 21.5004 -6.63199 11
v 21.8042 -5.55204 11
v 22.0539 -4.45829 11
v 22.2487 -3.35345 11
v 22.3882 -2.24028 11
v 22.472 -1.12153 11
v 22.5 -5.51091e-15 11
v 22.5 -5.51091e-15 -11
v 22.472 1.12153 -11
v 22.3882 2.24028 -11
v 22.2487 3.35345 -11
v 22.0539 4.45829 -11
v 21.8042 5.55204 -11
v 21.5004 6.63199 -11
v 21.1431 7.69545 -11
v 20.7332 8.73978 -11
v 20.2718 9.76238 -11
v 19.76 10.7607 -11
v 19.199 11.7323 -11
v 18.5904 12.6747 -11
v 17.9355 13.5856 -11
v 17.236 14.4627 -11
v 16.4937 15.3039 -11
v 15.7103 16.107 -11
v 14.8879 16.8701 -11
v 14.0285 17.5912 -11
v 13.1342 18.2686 -11
v 12.2073 18.9006 -11
v 11.25 19.4856 -11
v 10.2647 20.0221 -11
v 9.25396 20.5089 -11
v 8.22017 20.9447 -11
v 7.16595 21.3284 -11
v 6.09391 21.659 -11
v 5.00672 21.9359 -11
v 3.90708 22.1582 -11
v 2.79773 22.3254 -11
v 1.68143 22.4371 -11
v 0.560941 22.493 -11
v -0.560941 22.493 -11
v -1.68143 22.4371 -11
v -2.79773 22.3254 -11
v -3.90708 22.1582 -11
v -5.00672 21.9359 -11
v -6.09391 21.659 -11
v -7.16595 21.3284 -11
v -8.22017 20.9447 -11
v -9.25396 20.5089 -11
v -10.2647 20.0221 -11
v -11.25 19.4856 -11
v -12.2073 18.9006 -11
v -13.1342 18.2686 -11
v -14.0285 17.5912 -11
v -14.8879 16.8701 -11
v -15.7103 16.107 -11
v -16.4937 15.3039 -11
v -17.236 14.4627 -11
v -17.9355 13.5856 -11
v -18.5904 12.6747 -11
v -19.199 11.7323 -11
v -19.76 10.7607 -11
v -20.2718 9.76238 -11
v -20.7332 8.73978 -11
v -21.1431 7.69545 -11
v -21.5004 6.63199 -11
v -21.8042 5.55204 -11
v -22.0539 4.45829 -11
v -22.2487 3.35345 -11
v -22.3882 2.24028 -11
v -22.472 1.12153 -11
v -22.5 -7.71806e-14 -11
v -22.472 -1.12153 -11
v -22.3882 -2.24028 -11
v -22.2487 -3.35345 -11
v -22.0539 -4.45829 -11
v -21.8042 -5.55204 -11
v -21.5004 -6.63199 -11
v -21.1431 -7.69545 -11
v -20.7332 -8.73978 -11
v -20.2718 -9.76238 -11
v -19.76 -10.7607 -11
v -19.199 -11.7323 -11
v -18.5904 -12.6747 -11
v -17.9355 -13.5856 -11
v -17.236 -14.4627 -11
v -16.4937 -15.3039 -11
v -15.7103 -16.107 -11
v -14.8879 -16.8701 -11
v -14.0285 -17.5912 -11
v -13.1342 -18.2686 -11
v -12.2073 -18.9006 -11
v -11.25 -19.4856 -11
v -10.2647 -20.0221 -11
v -9.25396 -20.5089 -11
v -8.22017 -20.9447 -11
v -7.16595 -21.3284 -11
v -6.09391 -21.659 -11
v -5.00672 -21.9359 -11
v -3.90708 -22.1582 -11
v -2.79773 -22.3254 -11
v -1.68143 -22.4371 -11
v -0.560941 -22.493 -11
v 0.560941 -22.493 -11
v 1.68143 -22.4371 -11
v 2.79773 -22.3254 -11
v 3.90708 -22.1582 -11
v 5.00672 -21.9359 -11
v 6.09391 -21.659 -11
v 7.16595 -21.3284 -11
v 8.22017 -20.9447 -11
v 9.25396 -20.5089 -11
v 10.2647 -20.0221 -11
v 11.25 -19.4856 -11
v 12.2073 -18.9006 -11
v 13.1342 -18.2686 -11
v 14.0285 -17.5912 -11
v 14.8879 -16.8701 -11
v 15.7103 -16.107 -11
v 16.4937 -15.3039 -11
v 17.236 -14.4627 -11
v 17.9355 -13.5856 -11
v 18.5904 -12.6747 -11
v 19.199 -11.7323 -11
v 19.76 -10.7607 -11
v 20.2718 -9.76238 -11
v 20.7332 -8.73978 -11
v 21.1431 -7.69545 -11
v 21.5004 -6.63199 -11
v 21.8042 -5.55204 -11
v 22.0539 -4.45829 -11
v 22.2487 -3.35345 -11
v 22.3882 -2.24028 -11
v 22.472 -1.12153 -11
v 22.5 -5.51091e-15 -11
v 28.9828 -11 5
v 29.4415 -9.70562 5
v 29.8424 -8.39218 5
v 30.1848 -7.06228 5
v 30.468 -5.71853 5
v 30.6914 -4.36354 5
v 30.8545 -3 5
v 132.039 -11 5
v 128.267 -3 5
v 128.429 -3.7969 5
v 128.63 -4.58511 5
v 128.868 -5.36282 5
v 129.143 -6.12826 5
v 129.454 -6.87968 5
v 129.801 -7.61534 5
v 130.183 -8.33358 5
v 130.598 -9.03274 5
v 131.047 -9.71122 5
v 131.527 -10.3675 5
v 28.9828 -11 5
v 132.039 -11 5
v 28.9828 -11 9
v 132.039 -11 9
v 30.8545 -3 -5
v 128.267 -3 -5
v 30.8545 -3 5
v 128.267 -3 5
v 28.9828 11 9
v 132.039 11 9
v 28.9828 -11 9
v 29.4807 -9.58592 9
v 29.9096 -8.14941 9
v 30.2687 -6.69385 9
v 30.5569 -5.22263 9
v 30.7737 -3.7392 9
v 30.9185 -2.24703 9
v 30.9909 -0.749593 9
v 30.9909 0.749593 9
v 30.9185 2.24703 9
v 30.7737 3.7392 9
v 30.5569 5.22263 9
v 30.2687 6.69385 9
v 29.9096 8.14941 9
v 29.4807 9.58592 9
v 132.039 -11 9
v 131.52 10.3582 9
v 131.033 9.69209 9
v 130.58 9.00312 9
v 130.16 8.29294 9
v 129.775 7.56323 9
v 129.426 6.81572 9
v 129.114 6.05215 9
v 128.839 5.27433 9
v 128.602 4.48409 9
v 128.404 3.68329 9
v 128.245 2.87381 9
v 128.125 2.05757 9
v 128.045 1.23648 9
v 128.005 0.412485 9
v 128.005 -0.412485 9
v 128.045 -1.23648 9
v 128.125 -2.05757 9
v 128.245 -2.87381 9
v 128.404 -3.68329 9
v 128.602 -4.48409 9
v 128.839 -5.27433 9
v 129.114 -6.05215 9
v 129.426 -6.81572 9
v 129.775 -7.56323 9
v 130.16 -8.29294 9
v 130.58 -9.00312 9
v 131.033 -9.69209 9
v 131.52 -10.3582 9
v 28.9828 -11 -5
v 29.4415 -9.70562 -5
v 29.8424 -8.39218 -5
v 30.1848 -7.06228 -5
v 30.468 -5.71853 -5
v 30.6914 -4.36354 -5
v 30.8545 -3 -5
v 132.039 -11 -5
v 128.267 -3 -5
v 128.429 -3.7969 -5
v 128.63 -4.58511 -5
v 128.868 -5.36282 -5
v 129.143 -6.12826 -5
v 129.454 -6.87968 -5
v 129.801 -7.61534 -5
v 130.183 -8.33358 -5
v 130.598 -9.03274 -5
v 131.047 -9.71122 -5
v 131.527 -10.3675 -5
v 28.9828 11 5
v 132.039 11 5
v 28.9828 11 9
v 132.039 11 9
v 28.9828 -11 -9
v 132.039 -11 -9
v 28.9828 -11 -5
v 132.039 -11 -5
v 28.9828 11 5
v 132.039 11 5
v 30.8545 3 5
v 30.6914 4.36354 5
v 30.468 5.71853 5
v 30.1848 7.06228 5
v 29.8424 8.39218 5
v 29.4415 9.70562 5
v 128.267 3 5
v 131.527 10.3675 5
v 131.047 9.71122 5
v 130.598 9.03274 5
v 130.183 8.33358 5
v 129.801 7.61534 5
v 129.454 6.87968 5
v 129.143 6.12826 5
v 128.868 5.36282 5
v 128.63 4.58511 5
v 128.429 3.7969 5
v 28.9828 11 -9
v 29.4807 9.58592 -9
v 29.9096 8.14941 -9
v 30.2687 6.69385 -9
v 30.5569 5.22263 -9
v 30.7737 3.7392 -9
v 30.9185 2.24703 -9
v 30.9909 0.749593 -9
v 30.9909 -0.749593 -9
v 30.9185 -2.24703 -9
v 30.7737 -3.7392 -9
v 30.5569 -5.22263 -9
v 30.2687 -6.69385 -9
v 29.9096 -8.14941 -9
v 29.4807 -9.58592 -9
v 28.9828 -11 -9
v 132.039 -11 -9
v 132.039 11 -9
v 131.52 10.3582 -9
v 131.033 9.69209 -9
v 130.58 9.00312 -9
v 130.16 8.29294 -9
v 129.775 7.56323 -9
v 129.426 6.81572 -9
v 129.114 6.05215 -9
v 128.839 5.27433 -9
v 128.602 4.48409 -9
v 128.404 3.68329 -9
v 128.245 2.87381 -9
v 128.125 2.05757 -9
v 128.045 1.23648 -9
v 128.005 0.412485 -9
v 128.005 -0.412485 -9
v 128.045 -1.23648 -9
v 128.125 -2.05757 -9
v 128.245 -2.87381 -9
v 128.404 -3.68329 -9
v 128.602 -4.48409 -9
v 128.839 -5.27433 -9
v 129.114 -6.05215 -9
v 129.426 -6.81572 -9
v 129.775 -7.56323 -9
v 130.16 -8.29294 -9
v 130.58 -9.00312 -9
v 131.033 -9.69209 -9
v 131.52 -10.3582 -9
v 30.8545 3 -5
v 128.267 3 -5
v 30.8545 3 5
v 128.267 3 5
v 28.9828 11 -9
v 132.039 11 -9
v 28.9828 11 -5
v 132.039 11 -5
v 28.9828 11 -5
v 132.039 11 -5
v 30.8545 3 -5
v 30.6914 4.36354 -5
v 30.468 5.71853 -5
v 30.1848 7.06228 -5
v 29.8424 8.39218 -5
v 29.4415 9.70562 -5
v 128.267 3 -5
v 131.527 10.3675 -5
v 131.047 9.71122 -5
v 130.598 9.03274 -5
v 130.183 8.33358 -5
v 129.801 7.61534 -5
v 129.454 6.87968 -5
v 129.143 6.12826 -5
v 128.868 5.36282 -5
v 128.63 4.58511 -5
v 128.429 3.7969 -5
v 162 -4.1638e-15 -11
v 162 -4.1638e-15 11
v 162 -4.1638e-15 11
v 161.979 0.84738 11
v 161.916 1.69265 11
v 161.81 2.53372 11
v 161.663 3.36848 11
v 161.474 4.19488 11
v 161.245 5.01084 11
v 160.975 5.81434 11
v 160.665 6.60339 11
v 160.316 7.37602 11
v 159.93 8.13032 11
v 159.506 8.8644 11
v 159.046 9.57644 11
v 158.551 10.2647 11
v 158.023 10.9274 11
v 157.462 11.5629 11
v 156.87 12.1697 11
v 156.249 12.7463 11
v 155.599 13.2911 11
v 154.924 13.8029 11
v 154.223 14.2804 11
v 153.5 14.7224 11
v 152.756 15.1278 11
v 151.992 15.4956 11
v 151.211 15.8249 11
v 150.414 16.1148 11
v 149.604 16.3646 11
v 148.783 16.5738 11
v 147.952 16.7417 11
v 147.114 16.8681 11
v 146.27 16.9525 11
v 145.424 16.9947 11
v 144.576 16.9947 11
v 143.73 16.9525 11
v 142.886 16.8681 11
v 142.048 16.7417 11
v 141.217 16.5738 11
v 140.396 16.3646 11
v 139.586 16.1148 11
v 138.789 15.8249 11
v 138.008 15.4956 11
v 137.244 15.1278 11
v 136.5 14.7224 11
v 135.777 14.2804 11
v 135.076 13.8029 11
v 134.401 13.2911 11
v 133.751 12.7463 11
v 133.13 12.1697 11
v 132.538 11.5629 11
v 131.977 10.9274 11
v 131.449 10.2647 11
v 130.954 9.57644 11
v 130.494 8.8644 11
v 130.07 8.13032 11
v 129.684 7.37602 11
v 129.335 6.60339 11
v 129.025 5.81434 11
v 128.755 5.01084 11
v 128.526 4.19488 11
v 128.337 3.36848 11
v 128.19 2.53372 11
v 128.084 1.69265 11
v 128.021 0.84738 11
v 128 -5.83142e-14 11
v 128.021 -0.84738 11
v 128.084 -1.69265 11
v 128.19 -2.53372 11
v 128.337 -3.36848 11
v 128.526 -4.19488 11
v 128.755 -5.01084 11
v 129.025 -5.81434 11
v 129.335 -6.60339 11
v 129.684 -7.37602 11
v 130.07 -8.13032 11
v 130.494 -8.8644 11
v 130.954 -9.57644 11
v 131.449 -10.2647 11
v 131.977 -10.9274 11
v 132.538 -11.5629 11
v 133.13 -12.1697 11
v 133.751 -12.7463 11
v 134.401 -13.2911 11
v 135.076 -13.8029 11
v 135.777 -14.2804 11
v 136.5 -14.7224 11
v 137.244 -15.1278 11
v 138.008 -15.4956 11
v 138.789 -15.8249 11
v 139.586 -16.1148 11
v 140.396 -16.3646 11
v 141.217 -16.5738 11
v 142.048 -16.7417 11
v 142.886 -16.8681 11
v 143.73 -16.9525 11
v 144.576 -16.9947 11
v 145.424 -16.9947 11
v 146.27 -16.9525 11
v 147.114 -16.8681 11
v 147.952 -16.7417 11
v 148.783 -16.5738 11
v 149.604 -16.3646 11
v 150.414 -16.1148 11
v 151.211 -15.8249 11
v 151.992 -15.4956 11
v 152.756 -15.1278 11
v 153.5 -14.7224 11
v 154.223 -14.2804 11
v 154.924 -13.8029 11
v 155.599 -13.2911 11
v 156.249 -12.7463 11
v 156.87 -12.1697 11
v 157.462 -11.5629 11
v 158.023 -10.9274 11
v 158.551 -10.2647 11
v 159.046 -9.57644 11
v 159.506 -8.8644 11
v 159.93 -8.13032 11
v 160.316 -7.37602 11
v 160.665 -6.60339 11
v 160.975 -5.81434 11
v 161.245 -5.01084 11
v 161.474 -4.19488 11
v 161.663 -3.36848 11
v 161.81 -2.53372 11
v 161.916 -1.69265 11
v 161.979 -0.84738 11
v 162 -4.1638e-15 -11
v 161.979 0.84738 -11
v 161.916 1.69265 -11
v 161.81 2.53372 -11
v 161.663 3.36848 -11
v 161.474 4.19488 -11
v 161.245 5.01084 -11
v 160.975 5.81434 -11
v 160.665 6.60339 -11
v 160.316 7.37602 -11
v 159.93 8.13032 -11
v 159.506 8.8644 -11
v 159.046 9.57644 -11
v 158.551 10.2647 -11
v 158.023 10.9274 -11
v 157.462 11.5629 -11
v 156.87 12.1697 -11
v 156.249 12.7463 -11
v 155.599 13.2911 -11
v 154.924 13.8029 -11
v 154.223 14.2804 -11
v 153.5 14.7224 -11
v 152.756 15.1278 -11
v 151.992 15.4956 -11
v 151.211 15.8249 -11
v 150.414 16.1148 -11
v 149.604 16.3646 -11
v 148.783 16.5738 -11
v 147.952 16.7417 -11
v 147.114 16.8681 -11
v 146.27 16.9525 -11
v 145.424 16.9947 -11
v 144.576 16.9947 -11
v 143.73 16.9525 -11
v 142.886 16.8681 -11
v 142.048 16.7417 -11
v 141.217 16.5738 -11
v 140.396 16.3646 -11
v 139.586 16.1148 -11
v 138.789 15.8249 -11
v 138.008 15.4956 -11
v 137.244 15.1278 -11
v 136.5 14.7224 -11
v 135.777 14.2804 -11
v 135.076 13.8029 -11
v 134.401 13.2911 -11
v 133.751 12.7463 -11
v 133.13 12.1697 -11
v 132.538 11.5629 -11
v 131.977 10.9274 -11
v 131.449 10.2647 -11
v 130.954 9.57644 -11
v 130.494 8.8644 -11
v 130.07 8.13032 -11
v 129.684 7.37602 -11
v 129.335 6.60339 -11
v 129.025 5.81434 -11
v 128.755 5.01084 -11
v 128.526 4.19488 -11
v 128.337 3.36848 -11
v 128.19 2.53372 -11
v 128.084 1.69265 -11
v 128.021 0.84738 -11
v 128 -5.83142e-14 -11
v 128.021 -0.84738 -11
v 128.084 -1.69265 -11
v 128.19 -2.53372 -11
v 128.337 -3.36848 -11
v 128.526 -4.19488 -11
v 128.755 -5.01084 -11
v 129.025 -5.81434 -11
v 129.335 -6.60339 -11
v 129.684 -7.37602 -11
v 130.07 -8.13032 -11
v 130.494 -8.8644 -11
v 130.954 -9.57644 -11
v 131.449 -10.2647 -11
v 131.977 -10.9274 -11
v 132.538 -11.5629 -11
v 133.13 -12.1697 -11
v 133.751 -12.7463 -11
v 134.401 -13.2911 -11
v 135.076 -13.8029 -11
v 135.777 -14.2804 -11
v 136.5 -14.7224 -11
v 137.244 -15.1278 -11
v 138.008 -15.4956 -11
v 138.789 -15.8249 -11
v 139.586 -16.1148 -11
v 140.396 -16.3646 -11
v 141.217 -16.5738 -11
v 142.048 -16.7417 -11
v 142.886 -16.8681 -11
v 143.73 -16.9525 -11
v 144.576 -16.9947 -11
v 145.424 -16.9947 -11
v 146.27 -16.9525 -11
v 147.114 -16.8681 -11
v 147.952 -16.7417 -11
v 148.783 -16.5738 -11
v 149.604 -16.3646 -11
v 150.414 -16.1148 -11
v 151.211 -15.8249 -11
v 151.992 -15.4956 -11
v 152.756 -15.1278 -11
v 153.5 -14.7224 -11
v 154.223 -14.2804 -11
v 154.924 -13.8029 -11
v 155.599 -13.2911 -11
v 156.249 -12.7463 -11
v 156.87 -12.1697 -11
v 157.462 -11.5629 -11
v 158.023 -10.9274 -11
v 158.551 -10.2647 -11
v 159.046 -9.57644 -11
v 159.506 -8.8644 -11
v 159.93 -8.13032 -11
v 160.316 -7.37602 -11
v 160.665 -6.60339 -11
v 160.975 -5.81434 -11
v 161.245 -5.01084 -11
v 161.474 -4.19488 -11
v 161.663 -3.36848 -11
v 161.81 -2.53372 -11
v 161.916 -1.69265 -11
v 161.979 -0.84738 -11
v 128.267 -3 5
v 128.429 -3.7969 5
v 128.63 -4.58511 5
v 128.868 -5.36282 5
v 129.143 -6.12826 5
v 129.454 -6.87968 5
v 129.801 -7.61534 5
v 130.183 -8.33358 5
v 130.598 -9.03274 5
v 131.047 -9.71122 5
v 131.527 -10.3675 5
v 132.039 -11 5
v 128.267 -3 -5
v 128.429 -3.7969 -5
v 128.63 -4.58511 -5
v 128.868 -5.36282 -5
v 129.143 -6.12826 -5
v 129.454 -6.87968 -5
v 129.801 -7.61534 -5
v 130.183 -8.33358 -5
v 130.598 -9.03274 -5
v 131.047 -9.71122 -5
v 131.527 -10.3675 -5
v 132.039 -11 -5
v 132.039 -11 -9
v 132.039 11 -9
v 131.52 10.3582 -9
v 131.033 9.69209 -9
v 130.58 9.00312 -9
v 130.16 8.29294 -9
v 129.775 7.56323 -9
v 129.426 6.81572 -9
v 129.114 6.05215 -9
v 128.839 5.27433 -9
v 128.602 4.48409 -9
v 128.404 3.68329 -9
v 128.245 2.87381 -9
v 128.125 2.05757 -9
v 128.045 1.23648 -9
v 128.005 0.412485 -9
v 128.005 -0.412485 -9
v 128.045 -1.23648 -9
v 128.125 -2.05757 -9
v 128.245 -2.87381 -9
v 128.404 -3.68329 -9
v 128.602 -4.48409 -9
v 128.839 -5.27433 -9
v 129.114 -6.05215 -9
v 129.426 -6.81572 -9
v 129.775 -7.56323 -9
v 130.16 -8.29294 -9
v 130.58 -9.00312 -9
v 131.033 -9.69209 -9
v 131.52 -10.3582 -9
v 132.039 11 -5
v 131.527 10.3675 -5
v 131.047 9.71122 -5
v 130.598 9.03274 -5
v 130.183 8.33358 -5
v 129.801 7.61534 -5
v 129.454 6.87968 -5
v 129.143 6.12826 -5
v 128.868 5.36282 -5
v 128.63 4.58511 -5
v 128.429 3.7969 -5
v 128.267 3 -5
v 128.267 3 5
v 132.039 11 5
v 131.527 10.3675 5
v 131.047 9.71122 5
v 130.598 9.03274 5
v 130.183 8.33358 5
v 129.801 7.61534 5
v 129.454 6.87968 5
v 129.143 6.12826 5
v 128.868 5.36282 5
v 128.63 4.58511 5
v 128.429 3.7969 5
v 132.039 11 9
v 131.52 10.3582 9
v 131.033 9.69209 9
v 130.58 9.00312 9
v 130.16 8.29294 9
v 129.775 7.56323 9
v 129.426 6.81572 9
v 129.114 6.05215 9
v 128.839 5.27433 9
v 128.602 4.48409 9
v 128.404 3.68329 9
v 128.245 2.87381 9
v 128.125 2.05757 9
v 128.045 1.23648 9
v 128.005 0.412485 9
v 128.005 -0.412485 9
v 128.045 -1.23648 9
v 128.125 -2.05757 9
v 128.245 -2.87381 9
v 128.404 -3.68329 9
v 128.602 -4.48409 9
v 128.839 -5.27433 9
v 129.114 -6.05215 9
v 129.426 -6.81572 9
v 129.775 -7.56323 9
v 130.16 -8.29294 9
v 130.58 -9.00312 9
v 131.033 -9.69209 9
v 131.52 -10.3582 9
v 132.039 -11 9
v 162 -4.1638e-15 -11
v 161.979 0.84738 -11
v 161.916 1.69265 -11
v 161.81 2.53372 -11
v 161.663 3.36848 -11
v 161.474 4.19488 -11
v 161.245 5.01084 -11
v 160.975 5.81434 -11
v 160.665 6.60339 -11
v 160.316 7.37602 -11
v 159.93 8.13032 -11
v 159.506 8.8644 -11
v 159.046 9.57644 -11
v 158.551 10.2647 -11
v 158.023 10.9274 -11
v 157.462 11.5629 -11
v 156.87 12.1697 -11
v 156.249 12.7463 -11
v 155.599 13.2911 -11
v 154.924 13.8029 -11
v 154.223 14.2804 -11
v 153.5 14.7224 -11
v 152.756 15.1278 -11
v 151.992 15.4956 -11
v 151.211 15.8249 -11
v 150.414 16.1148 -11
v 149.604 16.3646 -11
v 148.783 16.5738 -11
v 147.952 16.7417 -11
v 147.114 16.8681 -11
v 146.27 16.9525 -11
v 145.424 16.9947 -11
v 144.576 16.9947 -11
v 143.73 16.9525 -11
v 142.886 16.8681 -11
v 142.048 16.7417 -11
v 141.217 16.5738 -11
v 140.396 16.3646 -11
v 139.586 16.1148 -11
v 138.789 15.8249 -11
v 138.008 15.4956 -11
v 137.244 15.1278 -11
v 136.5 14.7224 -11
v 135.777 14.2804 -11
v 135.076 13.8029 -11
v 134.401 13.2911 -11
v 133.751 12.7463 -11
v 133.13 12.1697 -11
v 132.538 11.5629 -11
v 131.977 10.9274 -11
v 131.449 10.2647 -11
v 130.954 9.57644 -11
v 130.494 8.8644 -11
v 130.07 8.13032 -11
v 129.684 7.37602 -11
v 129.335 6.60339 -11
v 129.025 5.81434 -11
v 128.755 5.01084 -11
v 128.526 4.19488 -11
v 128.337 3.36848 -11
v 128.19 2.53372 -11
v 128.084 1.69265 -11
v 128.021 0.84738 -11
v 128 -5.83142e-14 -11
v 128.021 -0.84738 -11
v 128.084 -1.69265 -11
v 128.19 -2.53372 -11
v 128.337 -3.36848 -11
v 128.526 -4.19488 -11
v 128.755 -5.01084 -11
v 129.025 -5.81434 -11
v 129.335 -6.60339 -11
v 129.684 -7.37602 -11
v 130.07 -8.13032 -11
v 130.494 -8.8644 -11
v 130.954 -9.57644 -11
v 131.449 -10.2647 -11
v 131.977 -10.9274 -11
v 132.538 -11.5629 -11
v 133.13 -12.1697 -11
v 133.751 -12.7463 -11
v 134.401 -13.2911 -11
v 135.076 -13.8029 -11
v 135.777 -14.2804 -11
v 136.5 -14.7224 -11
v 137.244 -15.1278 -11
v 138.008 -15.4956 -11
v 138.789 -15.8249 -11
v 139.586 -16.1148 -11
v 140.396 -16.3646 -11
v 141.217 -16.5738 -11
v 142.048 -16.7417 -11
v 142.886 -16.8681 -11
v 143.73 -16.9525 -11
v 144.576 -16.9947 -11
v 145.424 -16.9947 -11
v 146.27 -16.9525 -11
v 147.114 -16.8681 -11
v 147.952 -16.7417 -11
v 148.783 -16.5738 -11
v 149.604 -16.3646 -11
v 150.414 -16.1148 -11
v 151.211 -15.8249 -11
v 151.992 -15.4956 -11
v 152.756 -15.1278 -11
v 153.5 -14.7224 -11
v 154.223 -14.2804 -11
v 154.924 -13.8029 -11
v 155.599 -13.2911 -11
v 156.249 -12.7463 -11
v 156.87 -12.1697 -11
v 157.462 -11.5629 -11
v 158.023 -10.9274 -11
v 158.551 -10.2647 -11
v 159.046 -9.57644 -11
v 159.506 -8.8644 -11
v 159.93 -8.13032 -11
v 160.316 -7.37602 -11
v 160.665 -6.60339 -11
v 160.975 -5.81434 -11
v 161.245 -5.01084 -11
v 161.474 -4.19488 -11
v 161.663 -3.36848 -11
v 161.81 -2.53372 -11
v 161.916 -1.69265 -11
v 161.979 -0.84738 -11
v 156 -2.69422e-15 -11
v 155.986 0.548305 -11
v 155.945 1.09525 -11
v 155.877 1.63946 -11
v 155.782 2.17961 -11
v 155.66 2.71433 -11
v 155.511 3.24231 -11
v 155.337 3.76222 -11
v 155.136 4.27278 -11
v 154.911 4.77272 -11
v 154.66 5.26079 -11
v 154.386 5.73579 -11
v 154.089 6.19652 -11
v 153.768 6.64185 -11
v 153.426 7.07066 -11
v 153.064 7.4819 -11
v 152.681 7.87454 -11
v 152.279 8.24759 -11
v 151.858 8.60015 -11
v 151.421 8.93132 -11
v 150.968 9.24029 -11
v 150.5 9.52628 -11
v 150.018 9.78859 -11
v 149.524 10.0266 -11
v 149.019 10.2396 -11
v 148.503 10.4272 -11
v 147.979 10.5889 -11
v 147.448 10.7242 -11
v 146.91 10.8329 -11
v 146.368 10.9146 -11
v 145.822 10.9692 -11
v 145.274 10.9966 -11
v 144.726 10.9966 -11
v 144.178 10.9692 -11
v 143.632 10.9146 -11
v 143.09 10.8329 -11
v 142.552 10.7242 -11
v 142.021 10.5889 -11
v 141.497 10.4272 -11
v 140.981 10.2396 -11
v 140.476 10.0266 -11
v 139.982 9.78859 -11
v 139.5 9.52628 -11
v 139.032 9.24029 -11
v 138.579 8.93132 -11
v 138.142 8.60015 -11
v 137.721 8.24759 -11
v 137.319 7.87454 -11
v 136.936 7.4819 -11
v 136.574 7.07066 -11
v 136.232 6.64185 -11
v 135.911 6.19652 -11
v 135.614 5.73579 -11
v 135.34 5.26079 -11
v 135.089 4.77272 -11
v 134.864 4.27278 -11
v 134.663 3.76222 -11
v 134.489 3.24231 -11
v 134.34 2.71433 -11
v 134.218 2.17961 -11
v 134.123 1.63946 -11
v 134.055 1.09525 -11
v 134.014 0.548305 -11
v 134 -3.77327e-14 -11
v 134.014 -0.548305 -11
v 134.055 -1.09525 -11
v 134.123 -1.63946 -11
v 134.218 -2.17961 -11
v 134.34 -2.71433 -11
v 134.489 -3.24231 -11
v 134.663 -3.76222 -11
v 134.864 -4.27278 -11
v 135.089 -4.77272 -11
v 135.34 -5.26079 -11
v 135.614 -5.73579 -11
v 135.911 -6.19652 -11
v 136.232 -6.64185 -11
v 136.574 -7.07066 -11
v 136.936 -7.4819 -11
v 137.319 -7.87454 -11
v 137.721 -8.24759 -11
v 138.142 -8.60015 -11
v 138.579 -8.93132 -11
v 139.032 -9.24029 -11
v 139.5 -9.52628 -11
v 139.982 -9.78859 -11
v 140.476 -10.0266 -11
v 140.981 -10.2396 -11
v 141.497 -10.4272 -11
v 142.021 -10.5889 -11
v 142.552 -10.7242 -11
v 143.09 -10.8329 -11
v 143.632 -10.9146 -11
v 144.178 -10.9692 -11
v 144.726 -10.9966 -11
v 145.274 -10.9966 -11
v 145.822 -10.9692 -11
v 146.368 -10.9146 -11
v 146.91 -10.8329 -11
v 147.448 -10.7242 -11
v 147.979 -10.5889 -11
v 148.503 -10.4272 -11
v 149.019 -10.2396 -11
v 149.524 -10.0266 -11
v 150.018 -9.78859 -11
v 150.5 -9.52628 -11
v 150.968 -9.24029 -11
v 151.421 -8.93132 -11
v 151.858 -8.60015 -11
v 152.279 -8.24759 -11
v 152.681 -7.87454 -11
v 153.064 -7.4819 -11
v 153.426 -7.07066 -11
v 153.768 -6.64185 -11
v 154.089 -6.19652 -11
v 154.386 -5.73579 -11
v 154.66 -5.26079 -11
v 154.911 -4.77272 -11
v 155.136 -4.27278 -11
v 155.337 -3.76222 -11
v 155.511 -3.24231 -11
v 155.66 -2.71433 -11
v 155.782 -2.17961 -11
v 155.877 -1.63946 -11
v 155.945 -1.09525 -11
v 155.986 -0.548305 -11
v 162 -4.1638e-15 11
v 161.979 0.84738 11
v 161.916 1.69265 11
v 161.81 2.53372 11
v 161.663 3.36848 11
v 161.474 4.19488 11
v 161.245 5.01084 11
v 160.975 5.81434 11
v 160.665 6.60339 11
v 160.316 7.37602 11
v 159.93 8.13032 11
v 159.506 8.8644 11
v 159.046 9.57644 11
v 158.551 10.2647 11
v 158.023 10.9274 11
v 157.462 11.5629 11
v 156.87 12.1697 11
v 156.249 12.7463 11
v 155.599 13.2911 11
v 154.924 13.8029 11
v 154.223 14.2804 11
v 153.5 14.7224 11
v 152.756 15.1278 11
v 151.992 15.4956 11
v 151.211 15.8249 11
v 150.414 16.1148 11
v 149.604 16.3646 11
v 148.783 16.5738 11
v 147.952 16.7417 11
v 147.114 16.8681 11
v 146.27 16.9525 11
v 145.424 16.9947 11
v 144.576 16.9947 11
v 143.73 16.9525 11
v 142.886 16.8681 11
v 142.048 16.7417 11
v 141.217 16.5738 11
v 140.396 16.3646 11
v 139.586 16.1148 11
v 138.789 15.8249 11
v 138.008 15.4956 11
v 137.244 15.1278 11
v 136.5 14.7224 11
v 135.777 14.2804 11
v 135.076 13.8029 11
v 134.401 13.2911 11
v 133.751 12.7463 11
v 133.13 12.1697 11
v 132.538 11.5629 11
v 131.977 10.9274 11
v 131.449 10.2647 11
v 130.954 9.57644 11
v 130.494 8.8644 11
v 130.07 8.13032 11
v 129.684 7.37602 11
v 129.335 6.60339 11
v 129.025 5.81434 11
v 128.755 5.01084 11
v 128.526 4.19488 11
v 128.337 3.36848 11
v 128.19 2.53372 11
v 128.084 1.69265 11
v 128.021 0.84738 11
v 128 -5.83142e-14 11
v 128.021 -0.84738 11
v 128.084 -1.69265 11
v 128.19 -2.53372 11
v 128.337 -3.36848 11
v 128.526 -4.19488 11
v 128.755 -5.01084 11
v 129.025 -5.81434 11
v 129.335 -6.60339 11
v 129.684 -7.37602 11
v 130.07 -8.13032 11
v 130.494 -8.8644 11
v 130.954 -9.57644 11
v 131.449 -10.2647 11
v 131.977 -10.9274 11
v 132.538 -11.5629 11
v 133.13 -12.1697 11
v 133.751 -12.7463 11
v 134.401 -13.2911 11
v 135.076 -13.8029 11
v 135.777 -14.2804 11
v 136.5 -14.7224 11
v 137.244 -15.1278 11
v 138.008 -15.4956 11
v 138.789 -15.8249 11
v 139.586 -16.1148 11
v 140.396 -16.3646 11
v 141.217 -16.5738 11
v 142.048 -16.7417 11
v 142.886 -16.8681 11
v 143.73 -16.9525 11
v 144.576 -16.9947 11
v 145.424 -16.9947 11
v 146.27 -16.9525 11
v 147.114 -16.8681 11
v 147.952 -16.7417 11
v 148.783 -16.5738 11
v 149.604 -16.3646 11
v 150.414 -16.1148 11
v 151.211 -15.8249 11
v 151.992 -15.4956 11
v 152.756 -15.1278 11
v 153.5 -14.7224 11
v 154.223 -14.2804 11
v 154.924 -13.8029 11
v 155.599 -13.2911 11
v 156.249 -12.7463 11
v 156.87 -12.1697 11
v 157.462 -11.5629 11
v 158.023 -10.9274 11
v 158.551 -10.2647 11
v 159.046 -9.57644 11
v 159.506 -8.8644 11
v 159.93 -8.13032 11
v 160.316 -7.37602 11
v 160.665 -6.60339 11
v 160.975 -5.81434 11
v 161.245 -5.01084 11
v 161.474 -4.19488 11
v 161.663 -3.36848 11
v 161.81 -2.53372 11
v 161.916 -1.69265 11
v 161.979 -0.84738 11
v 156 -2.69422e-15 11
v 155.986 0.548305 11
v 155.945 1.09525 11
v 155.877 1.63946 11
v 155.782 2.17961 11
v 155.66 2.71433 11
v 155.511 3.24231 11
v 155.337 3.76222 11
v 155.136 4.27278 11
v 154.911 4.77272 11
v 154.66 5.26079 11
v 154.386 5.73579 11
v 154.089 6.19652 11
v 153.768 6.64185 11
v 153.426 7.07066 11
v 153.064 7.4819 11
v 152.681 7.87454 11
v 152.279 8.24759 11
v 151.858 8.60015 11
v 151.421 8.93132 11
v 150.968 9.24029 11
v 150.5 9.52628 11
v 150.018 9.78859 11
v 149.524 10.0266 11
v 149.019 10.2396 11
v 148.503 10.4272 11
v 147.979 10.5889 11
v 147.448 10.7242 11
v 146.91 10.8329 11
v 146.368 10.9146 11
v 145.822 10.9692 11
v 145.274 10.9966 11
v 144.726 10.9966 11
v 144.178 10.9692 11
v 143.632 10.9146 11
v 143.09 10.8329 11
v 142.552 10.7242 11
v 142.021 10.5889 11
v 141.497 10.4272 11
v 140.981 10.2396 11
v 140.476 10.0266 11
v 139.982 9.78859 11
v 139.5 9.52628 11
v 139.032 9.24029 11
v 138.579 8.93132 11
v 138.142 8.60015 11
v 137.721 8.24759 11
v 137.319 7.87454 11
v 136.936 7.4819 11
v 136.574 7.07066 11
v 136.232 6.64185 11
v 135.911 6.19652 11
v 135.614 5.73579 11
v 135.34 5.26079 11
v 135.089 4.77272 11
v 134.864 4.27278 11
v 134.663 3.76222 11
v 134.489 3.24231 11
v 134.34 2.71433 11
v 134.218 2.17961 11
v 134.123 1.63946 11
v 134.055 1.09525 11
v 134.014 0.548305 11
v 134 -3.77327e-14 11
v 134.014 -0.548305 11
v 134.055 -1.09525 11
v 134.123 -1.63946 11
v 134.218 -2.17961 11
v 134.34 -2.71433 11
v 134.489 -3.24231 11
v 134.663 -3.76222 11
v 134.864 -4.27278 11
v 135.089 -4.77272 11
v 135.34 -5.26079 11
v 135.614 -5.73579 11
v 135.911 -6.19652 11
v 136.232 -6.64185 11
v 136.574 -7.07066 11
v 136.936 -7.4819 11
v 137.319 -7.87454 11
v 137.721 -8.24759 11
v 138.142 -8.60015 11
v 138.579 -8.93132 11
v 139.032 -9.24029 11
v 139.5 -9.52628 11
v 139.982 -9.78859 11
v 140.476 -10.0266 11
v 140.981 -10.2396 11
v 141.497 -10.4272 11
v 142.021 -10.5889 11
v 142.552 -10.7242 11
v 143.09 -10.8329 11
v 143.632 -10.9146 11
v 144.178 -10.9692 11
v 144.726 -10.9966 11
v 145.274 -10.9966 11
v 145.822 -10.9692 11
v 146.368 -10.9146 11
v 146.91 -10.8329 11
v 147.448 -10.7242 11
v 147.979 -10.5889 11
v 148.503 -10.4272 11
v 149.019 -10.2396 11
v 149.524 -10.0266 11
v 150.018 -9.78859 11
v 150.5 -9.52628 11
v 150.968 -9.24029 11
v 151.421 -8.93132 11
v 151.858 -8.60015 11
v 152.279 -8.24759 11
v 152.681 -7.87454 11
v 153.064 -7.4819 11
v 153.426 -7.07066 11
v 153.768 -6.64185 11
v 154.089 -6.19652 11
v 154.386 -5.73579 11
v 154.66 -5.26079 11
v 154.911 -4.77272 11
v 155.136 -4.27278 11
v 155.337 -3.76222 11
v 155.511 -3.24231 11
v 155.66 -2.71433 11
v 155.782 -2.17961 11
v 155.877 -1.63946 11
v 155.945 -1.09525 11
v 155.986 -0.548305 11
v 156 -2.69422e-15 11
v 155.986 0.548305 11
v 155.945 1.09525 11
v 155.877 1.63946 11
v 155.782 2.17961 11
v 155.66 2.71433 11
v 155.511 3.24231 11
v 155.337 3.76222 11
v 155.136 4.27278 11
v 154.911 4.77272 11
v 154.66 5.26079 11
v 154.386 5.73579 11
v 154.089 6.19652 11
v 153.768 6.64185 11
v 153.426 7.07066 11
v 153.064 7.4819 11
v 152.681 7.87454 11
v 152.279 8.24759 11
v 151.858 8.60015 11
v 151.421 8.93132 11
v 150.968 9.24029 11
v 150.5 9.52628 11
v 150.018 9.78859 11
v 149.524 10.0266 11
v 149.019 10.2396 11
v 148.503 10.4272 11
v 147.979 10.5889 11
v 147.448 10.7242 11
v 146.91 10.8329 11
v 146.368 10.9146 11
v 145.822 10.9692 11
v 145.274 10.9966 11
v 144.726 10.9966 11
v 144.178 10.9692 11
v 143.632 10.9146 11
v 143.09 10.8329 11
v 142.552 10.7242 11
v 142.021 10.5889 11
v 141.497 10.4272 11
v 140.981 10.2396 11
v 140.476 10.0266 11
v 139.982 9.78859 11
v 139.5 9.52628 11
v 139.032 9.24029 11
v 138.579 8.93132 11
v 138.142 8.60015 11
v 137.721 8.24759 11
v 137.319 7.87454 11
v 136.936 7.4819 11
v 136.574 7.07066 11
v 136.232 6.64185 11
v 135.911 6.19652 11
v 135.614 5.73579 11
v 135.34 5.26079 11
v 135.089 4.77272 11
v 134.864 4.27278 11
v 134.663 3.76222 11
v 134.489 3.24231 11
v 134.34 2.71433 11
v 134.218 2.17961 11
v 134.123 1.63946 11
v 134.055 1.09525 11
v 134.014 0.548305 11
v 134 -3.77327e-14 11
v 134.014 -0.548305 11
v 134.055 -1.09525 11
v 134.123 -1.63946 11
v 134.218 -2.17961 11
v 134.34 -2.71433 11
v 134.489 -3.24231 11
v 134.663 -3.76222 11
v 134.864 -4.27278 11
v 135.089 -4.77272 11
v 135.34 -5.26079 11
v 135.614 -5.73579 11
v 135.911 -6.19652 11
v 136.232 -6.64185 11
v 136.574 -7.07066 11
v 136.936 -7.4819 11
v 137.319 -7.87454 11
v 137.721 -8.24759 11
v 138.142 -8.60015 11
v 138.579 -8.93132 11
v 139.032 -9.24029 11
v 139.5 -9.52628 11
v 139.982 -9.78859 11
v 140.476 -10.0266 11
v 140.981 -10.2396 11
v 141.497 -10.4272 11
v 142.021 -10.5889 11
v 142.552 -10.7242 11
v 143.09 -10.8329 11
v 143.632 -10.9146 11
v 144.178 -10.9692 11
v 144.726 -10.9966 11
v 145.274 -10.9966 11
v 145.822 -10.9692 11
v 146.368 -10.9146 11
v 146.91 -10.8329 11
v 147.448 -10.7242 11
v 147.979 -10.5889 11
v 148.503 -10.4272 11
v 149.019 -10.2396 11
v 149.524 -10.0266 11
v 150.018 -9.78859 11
v 150.5 -9.52628 11
v 150.968 -9.24029 11
v 151.421 -8.93132 11
v 151.858 -8.60015 11
v 152.279 -8.24759 11
v 152.681 -7.87454 11
v 153.064 -7.4819 11
v 153.426 -7.07066 11
v 153.768 -6.64185 11
v 154.089 -6.19652 11
v 154.386 -5.73579 11
v 154.66 -5.26079 11
v 154.911 -4.77272 11
v 155.136 -4.27278 11
v 155.337 -3.76222 11
v 155.511 -3.24231 11
v 155.66 -2.71433 11
v 155.782 -2.17961 11
v 155.877 -1.63946 11
v 155.945 -1.09525 11
v 155.986 -0.548305 11
v 156 -2.69422e-15 11
v 156 -2.69422e-15 -11
v 155.986 0.548305 -11
v 155.945 1.09525 -11
v 155.877 1.63946 -11
v 155.782 2.17961 -11
v 155.66 2.71433 -11
v 155.511 3.24231 -11
v 155.337 3.76222 -11
v 155.136 4.27278 -11
v 154.911 4.77272 -11
v 154.66 5.26079 -11
v 154.386 5.73579 -11
v 154.089 6.19652 -11
v 153.768 6.64185 -11
v 153.426 7.07066 -11
v 153.064 7.4819 -11
v 152.681 7.87454 -11
v 152.279 8.24759 -11
v 151.858 8.60015 -11
v 151.421 8.93132 -11
v 150.968 9.24029 -11
v 150.5 9.52628 -11
v 150.018 9.78859 -11
v 149.524 10.0266 -11
v 149.019 10.2396 -11
v 148.503 10.4272 -11
v 147.979 10.5889 -11
v 147.448 10.7242 -11
v 146.91 10.8329 -11
v 146.368 10.9146 -11
v 145.822 10.9692 -11
v 145.274 10.9966 -11
v 144.726 10.9966 -11
v 144.178 10.9692 -11
v 143.632 10.9146 -11
v 143.09 10.8329 -11
v 142.552 10.7242 -11
v 142.021 10.5889 -11
v 141.497 10.4272 -11
v 140.981 10.2396 -11
v 140.476 10.0266 -11
v 139.982 9.78859 -11
v 139.5 9.52628 -11
v 139.032 9.24029 -11
v 138.579 8.93132 -11
v 138.142 8.60015 -11
v 137.721 8.24759 -11
v 137.319 7.87454 -11
v 136.936 7.4819 -11
v 136.574 7.07066 -11
v 136.232 6.64185 -11
v 135.911 6.19652 -11
v 135.614 5.73579 -11
v 135.34 5.26079 -11
v 135.089 4.77272 -11
v 134.864 4.27278 -11
v 134.663 3.76222 -11
v 134.489 3.24231 -11
v 134.34 2.71433 -11
v 134.218 2.17961 -11
v 134.123 1.63946 -11
v 134.055 1.09525 -11
v 134.014 0.548305 -11
v 134 -3.77327e-14 -11
v 134.014 -0.548305 -11
v 134.055 -1.09525 -11
v 134.123 -1.63946 -11
v 134.218 -2.17961 -11
v 134.34 -2.71433 -11
v 134.489 -3.24231 -11
v 134.663 -3.76222 -11
v 134.864 -4.27278 -11
v 135.089 -4.77272 -11
v 135.34 -5.26079 -11
v 135.614 -5.73579 -11
v 135.911 -6.19652 -11
v 136.232 -6.64185 -11
v 136.574 -7.07066 -11
v 136.936 -7.4819 -11
v 137.319 -7.87454 -11
v 137.721 -8.24759 -11
v 138.142 -8.60015 -11
v 138.579 -8.93132 -11
v 139.032 -9.24029 -11
v 139.5 -9.52628 -11
v 139.982 -9.78859 -11
v 140.476 -10.0266 -11
v 140.981 -10.2396 -11
v 141.497 -10.4272 -11
v 142.021 -10.5889 -11
v 142.552 -10.7242 -11
v 143.09 -10.8329 -11
v 143.632 -10.9146 -11
v 144.178 -10.9692 -11
v 144.726 -10.9966 -11
v 145.274 -10.9966 -11
v 145.822 -10.9692 -11
v 146.368 -10.9146 -11
v 146.91 -10.8329 -11
v 147.448 -10.7242 -11
v 147.979 -10.5889 -11
v 148.503 -10.4272 -11
v 149.019 -10.2396 -11
v 149.524 -10.0266 -11
v 150.018 -9.78859 -11
v 150.5 -9.52628 -11
v 150.968 -9.24029 -11
v 151.421 -8.93132 -11
v 151.858 -8.60015 -11
v 152.279 -8.24759 -11
v 152.681 -7.87454 -11
v 153.064 -7.4819 -11
v 153.426 -7.07066 -11
v 153.768 -6.64185 -11
v 154.089 -6.19652 -11
v 154.386 -5.73579 -11
v 154.66 -5.26079 -11
v 154.911 -4.77272 -11
v 155.136 -4.27278 -11
v 155.337 -3.76222 -11
v 155.511 -3.24231 -11
v 155.66 -2.71433 -11
v 155.782 -2.17961 -11
v 155.877 -1.63946 -11
v 155.945 -1.09525 -11
v 155.986 -0.548305 -11
v 156 -2.69422e-15 -11
f 2 1 3
f 94 3 4
f 94 2 3
f 93 4 5
f 93 94 4
f 92 93 5
f 92 5 6
f 91 6 7
f 91 92 6
f 90 7 8
f 90 91 7
f 89 8 9
f 89 90 8
f 88 9 10
f 88 89 9
f 87 10 11
f 87 88 10
f 86 11 12
f 86 87 11
f 85 12 13
f 85 86 12
f 84 13 14
f 84 85 13
f 83 14 15
f 83 84 14
f 82 15 16
f 82 83 15
f 81 16 17
f 81 82 16
f 80 17 18
f 80 81 17
f 79 18 19
f 79 80 18
f 78 19 20
f 78 79 19
f 77 20 21
f 77 78 20
f 76 21 22
f 76 77 21
f 75 22 23
f 75 76 22
f 74 23 24
f 74 75 23
f 73 24 25
f 73 74 24
f 72 25 26
f 72 73 25
f 71 26 27
f 71 72 26
f 70 27 28
f 70 71 27
f 69 70 28
f 69 28 29
f 68 69 29
f 68 29 30
f 67 68 30
f 67 30 31
f 66 67 31
f 66 31 32
f 65 66 32
f 65 32 33
f 64 65 33
f 64 33 34
f 63 64 34
f 63 34 35
f 62 63 35
f 62 35 36
f 61 36 37
f 61 62 36
f 60 61 37
f 60 37 38
f 59 38 39
f 59 60 38
f 58 39 40
f 58 59 39
f 57 40 41
f 57 58 40
f 56 41 42
f 56 57 41
f 55 42 43
f 55 56 42
f 54 43 44
f 54 55 43
f 53 44 45
f 53 54 44
f 52 45 46
f 52 53 45
f 51 46 47
f 51 52 46
f 50 47 48
f 50 51 47
f 49 50 48
f 95 98 97
f 95 96 98
f 276 156 155
f 275 156 276
f 275 157 156
f 277 155 154
f 277 276 155
f 274 158 157
f 274 157 275
f 278 154 153
f 278 277 154
f 273 159 158
f 273 158 274
f 279 153 152
f 279 278 153
f 272 160 159
f 272 159 273
f 280 152 151
f 280 279 152
f 271 161 160
f 271 160 272
f 281 151 150
f 281 280 151
f 270 162 161
f 270 161 271
f 282 150 149
f 282 281 150
f 269 163 162
f 269 162 270
f 283 282 149
f 268 164 163
f 268 163 269
f 284 283 149
f 267 164 268
f 267 165 164
f 285 284 149
f 266 166 165
f 266 165 267
f 286 285 149
f 265 166 266
f 265 167 166
f 287 286 149
f 264 167 265
f 264 168 167
f 288 287 149
f 263 169 168
f 263 168 264
f 289 288 149
f 262 169 263
f 262 170 169
f 290 289 149
f 290 149 195
f 261 170 262
f 261 171 170
f 291 290 195
f 291 195 196
f 260 171 261
f 260 172 171
f 260 173 172
f 292 291 196
f 259 173 260
f 259 174 173
f 293 292 196
f 258 174 259
f 258 175 174
f 257 175 258
f 257 176 175
f 256 176 257
f 256 177 176
f 255 177 256
f 255 178 177
f 145 293 196
f 145 294 293
f 145 295 294
f 145 296 295
f 145 297 296
f 254 178 255
f 254 179 178
f 298 297 145
f 253 180 179
f 253 179 254
f 299 298 145
f 252 181 180
f 252 180 253
f 300 299 145
f 251 181 252
f 251 182 181
f 301 145 144
f 301 300 145
f 250 182 251
f 250 183 182
f 302 144 143
f 302 301 144
f 249 183 250
f 249 184 183
f 303 143 142
f 303 302 143
f 248 184 249
f 248 185 184
f 304 303 142
f 304 142 141
f 247 185 248
f 186 185 247
f 305 304 141
f 305 141 140
f 246 186 247
f 306 305 140
f 306 140 139
f 187 186 246
f 245 187 246
f 307 306 139
f 138 307 139
f 188 187 245
f 244 188 245
f 308 307 138
f 137 308 138
f 189 244 243
f 189 188 244
f 309 308 137
f 136 309 137
f 310 309 136
f 190 243 242
f 190 189 243
f 135 311 310
f 135 310 136
f 191 242 241
f 191 190 242
f 134 312 311
f 134 311 135
f 192 241 240
f 192 191 241
f 133 313 312
f 133 312 134
f 193 240 239
f 193 192 240
f 132 314 313
f 132 313 133
f 194 239 238
f 194 193 239
f 131 315 314
f 131 314 132
f 148 194 238
f 148 236 235
f 148 237 236
f 148 238 237
f 234 148 235
f 130 315 131
f 130 316 315
f 233 148 234
f 232 148 233
f 129 317 316
f 129 316 130
f 231 148 232
f 128 318 317
f 128 317 129
f 230 148 231
f 127 318 128
f 127 319 318
f 126 320 319
f 126 319 127
f 125 321 320
f 125 320 126
f 147 230 229
f 147 148 230
f 124 322 321
f 124 321 125
f 123 197 322
f 123 322 124
f 122 197 123
f 121 197 122
f 121 198 197
f 120 198 121
f 120 199 198
f 119 200 199
f 119 199 120
f 118 201 200
f 118 200 119
f 117 202 201
f 117 201 118
f 116 203 202
f 116 202 117
f 115 204 203
f 115 203 116
f 114 205 204
f 114 204 115
f 99 220 219
f 99 221 220
f 99 222 221
f 99 223 222
f 99 224 223
f 99 225 224
f 99 226 225
f 99 227 226
f 113 206 205
f 113 205 114
f 100 219 218
f 100 99 219
f 112 207 206
f 112 206 113
f 101 218 217
f 101 100 218
f 111 207 112
f 111 208 207
f 102 101 217
f 102 217 216
f 110 209 208
f 110 208 111
f 103 216 215
f 103 102 216
f 109 210 209
f 109 209 110
f 104 103 215
f 104 215 214
f 108 211 210
f 108 210 109
f 105 214 213
f 105 104 214
f 107 212 211
f 107 211 108
f 106 213 212
f 106 105 213
f 106 212 107
f 146 228 227
f 146 229 228
f 146 147 229
f 146 227 99
f 323 326 325
f 323 324 326
f 504 368 367
f 503 504 367
f 503 367 366
f 505 368 504
f 505 369 368
f 502 366 365
f 502 503 366
f 506 369 505
f 506 370 369
f 501 365 364
f 501 502 365
f 507 371 370
f 507 370 506
f 500 364 363
f 500 501 364
f 508 372 371
f 508 371 507
f 499 363 362
f 499 500 363
f 509 373 372
f 509 372 508
f 498 362 361
f 498 499 362
f 510 374 373
f 510 373 509
f 497 361 360
f 497 498 361
f 511 374 510
f 496 360 359
f 496 497 360
f 512 374 511
f 495 359 358
f 495 496 359
f 513 374 512
f 494 358 357
f 494 495 358
f 514 374 513
f 493 357 356
f 493 494 357
f 515 374 514
f 492 356 355
f 492 493 356
f 516 374 515
f 491 355 354
f 491 492 355
f 517 374 516
f 490 354 353
f 490 491 354
f 518 374 517
f 518 375 374
f 489 353 352
f 489 490 353
f 519 375 518
f 519 376 375
f 488 351 350
f 488 352 351
f 488 489 352
f 520 376 519
f 487 350 349
f 487 488 350
f 521 376 520
f 486 349 348
f 486 487 349
f 485 348 347
f 485 486 348
f 484 347 346
f 484 485 347
f 483 346 345
f 483 484 346
f 377 376 521
f 377 521 522
f 377 522 523
f 377 523 524
f 377 524 525
f 482 345 344
f 482 483 345
f 526 377 525
f 481 344 343
f 481 482 344
f 527 377 526
f 480 343 342
f 480 481 343
f 528 377 527
f 479 342 341
f 479 480 342
f 529 378 377
f 529 377 528
f 478 341 340
f 478 479 341
f 530 378 529
f 530 379 378
f 477 478 340
f 477 340 339
f 531 379 530
f 531 380 379
f 476 339 338
f 476 477 339
f 532 380 531
f 532 381 380
f 475 476 338
f 337 475 338
f 533 382 381
f 533 381 532
f 474 475 337
f 534 382 533
f 534 383 382
f 336 474 337
f 473 474 336
f 535 383 534
f 384 383 535
f 335 473 336
f 472 473 335
f 536 384 535
f 385 384 536
f 334 471 472
f 334 472 335
f 537 385 536
f 386 385 537
f 538 386 537
f 333 470 471
f 333 471 334
f 387 538 539
f 387 386 538
f 332 469 470
f 332 470 333
f 388 539 540
f 388 387 539
f 331 468 469
f 331 469 332
f 389 540 541
f 389 388 540
f 330 467 468
f 330 468 331
f 390 541 542
f 390 389 541
f 329 466 467
f 329 467 330
f 391 542 543
f 391 390 542
f 327 466 329
f 327 463 464
f 327 464 465
f 327 465 466
f 462 463 327
f 392 391 543
f 392 543 544
f 461 462 327
f 460 461 327
f 393 392 544
f 393 544 545
f 459 460 327
f 394 545 546
f 394 393 545
f 458 459 327
f 395 546 547
f 395 394 546
f 396 547 548
f 396 395 547
f 397 548 549
f 397 396 548
f 328 456 457
f 328 457 458
f 328 458 327
f 398 549 550
f 398 397 549
f 399 550 425
f 399 398 550
f 400 399 425
f 401 400 425
f 401 425 426
f 402 401 426
f 402 426 427
f 403 427 428
f 403 402 427
f 404 428 429
f 404 403 428
f 405 429 430
f 405 404 429
f 406 430 431
f 406 405 430
f 407 431 432
f 407 406 431
f 408 432 433
f 408 407 432
f 423 447 448
f 423 448 449
f 423 449 450
f 423 450 451
f 423 451 452
f 423 452 453
f 423 453 454
f 423 454 455
f 409 433 434
f 409 408 433
f 422 446 447
f 422 447 423
f 410 434 435
f 410 409 434
f 421 446 422
f 421 445 446
f 411 410 435
f 411 435 436
f 420 445 421
f 420 444 445
f 412 436 437
f 412 411 436
f 419 443 444
f 419 444 420
f 413 412 437
f 413 437 438
f 418 442 443
f 418 443 419
f 414 438 439
f 414 413 438
f 417 441 442
f 417 442 418
f 415 439 440
f 415 414 439
f 416 440 441
f 416 441 417
f 416 415 440
f 424 456 328
f 424 455 456
f 424 423 455
f 552 551 553
f 554 552 553
f 556 555 557
f 648 557 558
f 648 556 557
f 647 558 559
f 647 648 558
f 646 559 560
f 646 647 559
f 645 560 561
f 645 646 560
f 644 561 562
f 644 645 561
f 643 562 563
f 643 644 562
f 642 563 564
f 642 643 563
f 641 564 565
f 641 642 564
f 640 565 566
f 640 641 565
f 639 566 567
f 639 640 566
f 638 639 567
f 638 567 568
f 637 638 568
f 637 568 569
f 636 637 569
f 636 569 570
f 572 701 571
f 635 570 571
f 635 636 570
f 702 571 701
f 573 700 572
f 634 635 571
f 649 571 702
f 649 634 571
f 656 634 649
f 574 699 573
f 633 634 656
f 650 649 702
f 650 702 703
f 650 703 704
f 651 650 704
f 575 698 574
f 632 633 657
f 652 704 705
f 652 651 704
f 576 697 575
f 631 632 658
f 653 705 706
f 653 706 707
f 653 652 705
f 577 696 576
f 630 631 659
f 654 707 708
f 654 653 707
f 578 695 577
f 629 630 660
f 655 654 708
f 694 695 578
f 579 694 578
f 628 629 661
f 693 694 579
f 580 693 579
f 627 628 662
f 663 627 662
f 692 693 580
f 581 692 580
f 626 627 663
f 664 626 663
f 582 691 581
f 625 626 664
f 665 625 664
f 583 690 582
f 624 625 665
f 674 673 679
f 674 679 680
f 584 689 583
f 623 624 666
f 675 680 681
f 675 674 680
f 585 688 584
f 622 623 667
f 676 681 682
f 676 675 681
f 586 687 585
f 677 682 683
f 677 676 682
f 621 622 668
f 678 683 684
f 678 677 683
f 587 686 586
f 587 685 686
f 620 621 669
f 672 678 684
f 672 684 685
f 619 620 670
f 618 672 685
f 618 685 587
f 618 671 672
f 618 619 671
f 617 618 587
f 617 587 588
f 617 588 589
f 616 617 589
f 616 589 590
f 615 616 590
f 615 590 591
f 614 591 592
f 614 615 591
f 613 592 593
f 613 614 592
f 612 593 594
f 612 613 593
f 611 594 595
f 611 612 594
f 610 595 596
f 610 611 595
f 609 596 597
f 609 610 596
f 608 597 598
f 608 609 597
f 607 598 599
f 607 608 598
f 606 599 600
f 606 607 599
f 605 600 601
f 605 606 600
f 604 601 602
f 604 605 601
f 603 604 602
f 656 657 633
f 657 658 632
f 658 659 631
f 659 660 630
f 660 661 629
f 661 662 628
f 665 666 624
f 666 667 623
f 667 668 622
f 668 669 621
f 669 670 620
f 670 671 619
f 686 687 586
f 687 688 585
f 688 689 584
f 689 690 583
f 690 691 582
f 691 692 581
f 695 696 577
f 696 697 576
f 697 698 575
f 698 699 574
f 699 700 573
f 700 701 572
f 710 711 712
f 709 711 710
f 713 715 716
f 713 716 714
f 718 719 717
f 720 719 718
f 722 848 721
f 722 849 848
f 723 850 849
f 723 849 722
f 724 851 850
f 724 850 723
f 725 852 851
f 725 851 724
f 726 853 852
f 726 852 725
f 727 854 853
f 727 853 726
f 728 855 854
f 728 854 727
f 729 856 855
f 729 855 728
f 730 857 856
f 730 856 729
f 731 858 857
f 731 857 730
f 732 858 731
f 732 859 858
f 733 859 732
f 733 860 859
f 733 861 860
f 734 861 733
f 735 861 734
f 735 862 861
f 736 862 735
f 736 863 862
f 737 863 736
f 737 864 863
f 737 865 864
f 738 865 737
f 739 865 738
f 739 866 865
f 740 866 739
f 740 867 866
f 741 867 740
f 741 868 867
f 741 869 868
f 742 869 741
f 743 869 742
f 743 870 869
f 743 871 870
f 744 872 871
f 744 871 743
f 745 872 744
f 746 872 745
f 746 873 872
f 746 874 873
f 747 874 746
f 748 875 874
f 748 874 747
f 749 876 875
f 749 875 748
f 750 877 876
f 750 876 749
f 751 878 877
f 751 877 750
f 752 879 878
f 752 880 879
f 752 878 751
f 753 881 880
f 753 880 752
f 754 881 753
f 755 882 881
f 755 881 754
f 756 883 882
f 756 882 755
f 757 884 883
f 757 883 756
f 758 884 757
f 758 885 884
f 759 885 758
f 759 886 885
f 760 886 759
f 760 887 886
f 760 888 887
f 761 888 760
f 762 888 761
f 762 889 888
f 763 889 762
f 763 890 889
f 763 891 890
f 764 891 763
f 765 891 764
f 765 892 891
f 766 892 765
f 766 893 892
f 767 893 766
f 767 894 893
f 768 894 767
f 768 895 894
f 769 895 768
f 769 896 895
f 770 896 769
f 770 897 896
f 770 898 897
f 771 898 770
f 772 898 771
f 772 899 898
f 773 899 772
f 773 900 899
f 774 900 773
f 774 901 900
f 774 902 901
f 775 902 774
f 776 902 775
f 776 903 902
f 777 903 776
f 777 904 903
f 778 904 777
f 778 905 904
f 778 906 905
f 779 907 906
f 779 906 778
f 780 908 907
f 780 907 779
f 781 908 780
f 782 909 908
f 782 908 781
f 783 909 782
f 783 910 909
f 784 910 783
f 784 911 910
f 785 911 784
f 785 912 911
f 786 912 785
f 786 913 912
f 786 914 913
f 787 914 786
f 787 915 914
f 788 915 787
f 789 915 788
f 789 916 915
f 790 916 789
f 790 917 916
f 791 917 790
f 791 918 917
f 792 918 791
f 792 919 918
f 792 920 919
f 793 920 792
f 794 920 793
f 794 921 920
f 795 921 794
f 795 922 921
f 796 923 922
f 796 922 795
f 797 924 923
f 797 923 796
f 798 925 924
f 798 924 797
f 799 926 925
f 799 925 798
f 800 927 926
f 800 926 799
f 801 928 927
f 801 927 800
f 802 929 928
f 802 930 929
f 802 928 801
f 803 931 930
f 803 930 802
f 804 931 803
f 805 932 931
f 805 933 932
f 805 931 804
f 806 933 805
f 807 934 933
f 807 933 806
f 808 935 934
f 808 934 807
f 809 935 808
f 809 936 935
f 810 936 809
f 810 937 936
f 811 937 810
f 811 938 937
f 811 939 938
f 812 939 811
f 813 940 939
f 813 941 940
f 813 939 812
f 814 941 813
f 815 942 941
f 815 943 942
f 815 941 814
f 816 943 815
f 816 944 943
f 817 944 816
f 818 945 944
f 818 946 945
f 818 944 817
f 819 946 818
f 820 947 946
f 820 948 947
f 820 946 819
f 821 948 820
f 822 949 948
f 822 948 821
f 823 950 949
f 823 949 822
f 824 951 950
f 824 952 951
f 824 950 823
f 825 952 824
f 826 953 952
f 826 954 953
f 826 952 825
f 827 955 954
f 827 954 826
f 828 955 827
f 829 956 955
f 829 955 828
f 830 957 956
f 830 956 829
f 831 958 957
f 831 957 830
f 832 959 958
f 832 958 831
f 833 959 832
f 833 960 959
f 833 961 960
f 834 961 833
f 835 962 961
f 835 961 834
f 836 962 835
f 836 963 962
f 837 963 836
f 837 964 963
f 838 964 837
f 838 965 964
f 838 966 965
f 839 966 838
f 839 967 966
f 840 967 839
f 841 967 840
f 841 968 967
f 842 968 841
f 842 969 968
f 843 969 842
f 843 970 969
f 844 970 843
f 844 971 970
f 844 972 971
f 845 972 844
f 846 973 972
f 846 972 845
f 847 974 973
f 847 973 846
f 993 982 975
f 992 993 975
f 991 992 975
f 990 991 975
f 989 990 975
f 988 975 976
f 988 989 975
f 987 976 977
f 987 988 976
f 986 977 978
f 986 987 977
f 985 978 979
f 985 986 978
f 984 985 979
f 983 979 980
f 983 980 981
f 983 984 979
f 997 994 995
f 997 996 994
f 1001 998 999
f 1001 1000 998
f 1047 1004 1019
f 1046 1004 1047
f 1045 1004 1046
f 1044 1004 1045
f 1043 1004 1044
f 1042 1005 1004
f 1042 1004 1043
f 1041 1006 1005
f 1041 1005 1042
f 1040 1007 1006
f 1040 1006 1041
f 1039 1007 1040
f 1038 1008 1007
f 1038 1007 1039
f 1037 1009 1008
f 1037 1008 1038
f 1036 1009 1037
f 1036 1010 1009
f 1035 1010 1036
f 1035 1011 1010
f 1034 1011 1035
f 1034 1012 1011
f 1033 1012 1034
f 1032 1013 1012
f 1032 1012 1033
f 1031 1014 1013
f 1031 1013 1032
f 1030 1015 1014
f 1030 1014 1031
f 1029 1015 1030
f 1029 1016 1015
f 1028 1016 1029
f 1027 1017 1016
f 1027 1016 1028
f 1026 1018 1017
f 1026 1017 1027
f 1025 1002 1018
f 1025 1018 1026
f 1024 1002 1025
f 1023 1002 1024
f 1022 1002 1023
f 1021 1002 1022
f 1020 1002 1021
f 1003 1002 1020
f 1066 1048 1055
f 1065 1048 1066
f 1064 1048 1065
f 1063 1048 1064
f 1062 1048 1063
f 1061 1049 1048
f 1061 1048 1062
f 1060 1050 1049
f 1060 1049 1061
f 1059 1051 1050
f 1059 1050 1060
f 1058 1052 1051
f 1058 1051 1059
f 1057 1052 1058
f 1056 1053 1052
f 1056 1054 1053
f 1056 1052 1057
f 1070 1068 1067
f 1070 1067 1069
f 1074 1071 1072
f 1074 1073 1071
f 1083 1077 1078
f 1083 1078 1079
f 1093 1083 1079
f 1092 1079 1080
f 1092 1093 1079
f 1091 1080 1081
f 1091 1092 1080
f 1090 1081 1082
f 1090 1091 1081
f 1089 1082 1075
f 1089 1090 1082
f 1088 1089 1075
f 1087 1088 1075
f 1086 1087 1075
f 1085 1086 1075
f 1084 1085 1075
f 1076 1084 1075
f 1139 1110 1109
f 1138 1139 1109
f 1137 1138 1109
f 1136 1137 1109
f 1135 1136 1109
f 1134 1109 1108
f 1134 1135 1109
f 1133 1108 1107
f 1133 1134 1108
f 1132 1107 1106
f 1132 1133 1107
f 1131 1132 1106
f 1130 1106 1105
f 1130 1131 1106
f 1129 1105 1104
f 1129 1130 1105
f 1128 1104 1103
f 1128 1129 1104
f 1127 1103 1102
f 1127 1128 1103
f 1126 1127 1102
f 1125 1102 1101
f 1125 1126 1102
f 1124 1125 1101
f 1124 1101 1100
f 1123 1100 1099
f 1123 1124 1100
f 1122 1099 1098
f 1122 1123 1099
f 1121 1098 1097
f 1121 1122 1098
f 1120 1121 1097
f 1119 1097 1096
f 1119 1120 1097
f 1118 1096 1095
f 1118 1119 1096
f 1117 1095 1094
f 1117 1118 1095
f 1116 1117 1094
f 1115 1116 1094
f 1114 1115 1094
f 1113 1114 1094
f 1112 1113 1094
f 1111 1112 1094
f 1143 1141 1140
f 1143 1140 1142
f 1147 1145 1144
f 1147 1144 1146
f 1156 1151 1150
f 1156 1152 1151
f 1166 1152 1156
f 1165 1153 1152
f 1165 1152 1166
f 1164 1154 1153
f 1164 1153 1165
f 1163 1155 1154
f 1163 1154 1164
f 1162 1148 1155
f 1162 1155 1163
f 1161 1148 1162
f 1160 1148 1161
f 1159 1148 1160
f 1158 1148 1159
f 1157 1148 1158
f 1149 1148 1157
f 1170 1169 1295
f 1170 1295 1296
f 1171 1296 1297
f 1171 1170 1296
f 1172 1297 1298
f 1172 1171 1297
f 1173 1298 1299
f 1173 1172 1298
f 1174 1299 1300
f 1174 1173 1299
f 1175 1300 1301
f 1175 1301 1302
f 1175 1174 1300
f 1176 1175 1302
f 1177 1302 1303
f 1177 1176 1302
f 1178 1303 1304
f 1178 1304 1305
f 1178 1177 1303
f 1179 1178 1305
f 1179 1305 1306
f 1180 1179 1306
f 1180 1306 1307
f 1181 1180 1307
f 1182 1181 1307
f 1182 1307 1308
f 1183 1182 1308
f 1183 1308 1309
f 1184 1183 1309
f 1184 1309 1310
f 1184 1310 1311
f 1185 1184 1311
f 1185 1311 1312
f 1186 1185 1312
f 1186 1312 1313
f 1187 1186 1313
f 1188 1187 1313
f 1188 1313 1314
f 1189 1188 1314
f 1189 1314 1315
f 1190 1315 1316
f 1190 1189 1315
f 1190 1316 1317
f 1191 1190 1317
f 1192 1317 1318
f 1192 1191 1317
f 1193 1318 1319
f 1193 1192 1318
f 1194 1319 1320
f 1194 1193 1319
f 1195 1320 1321
f 1195 1194 1320
f 1196 1321 1322
f 1196 1322 1323
f 1196 1195 1321
f 1197 1196 1323
f 1198 1323 1324
f 1198 1197 1323
f 1199 1324 1325
f 1199 1198 1324
f 1200 1325 1326
f 1200 1326 1327
f 1200 1199 1325
f 1201 1327 1328
f 1201 1200 1327
f 1202 1201 1328
f 1203 1328 1329
f 1203 1202 1328
f 1204 1329 1330
f 1204 1203 1329
f 1205 1204 1330
f 1205 1330 1331
f 1205 1331 1332
f 1206 1205 1332
f 1206 1332 1333
f 1207 1206 1333
f 1208 1207 1333
f 1208 1333 1334
f 1209 1208 1334
f 1209 1334 1335
f 1210 1209 1335
f 1210 1335 1336
f 1210 1336 1337
f 1211 1210 1337
f 1211 1337 1338
f 1212 1211 1338
f 1213 1212 1338
f 1213 1338 1339
f 1213 1339 1340
f 1214 1213 1340
f 1215 1214 1340
f 1215 1340 1341
f 1216 1215 1341
f 1216 1341 1342
f 1446 1343 1344
f 1475 1343 1446
f 1217 1216 1342
f 1217 1342 1343
f 1447 1344 1345
f 1488 1343 1475
f 1488 1217 1343
f 1499 1217 1488
f 1218 1217 1499
f 1448 1345 1346
f 1489 1475 1476
f 1489 1488 1475
f 1347 1449 1346
f 1219 1218 1500
f 1490 1476 1477
f 1490 1489 1476
f 1478 1490 1477
f 1348 1450 1347
f 1220 1219 1501
f 1491 1490 1478
f 1349 1451 1348
f 1221 1220 1502
f 1492 1478 1479
f 1492 1491 1478
f 1480 1492 1479
f 1350 1452 1349
f 1222 1221 1503
f 1493 1492 1480
f 1351 1453 1350
f 1223 1222 1504
f 1494 1480 1481
f 1494 1493 1480
f 1352 1454 1351
f 1224 1223 1505
f 1495 1481 1482
f 1495 1494 1481
f 1353 1455 1352
f 1225 1224 1506
f 1496 1482 1483
f 1496 1495 1482
f 1497 1483 1484
f 1497 1496 1483
f 1354 1456 1353
f 1226 1225 1507
f 1498 1484 1485
f 1498 1497 1484
f 1355 1457 1354
f 1227 1226 1508
f 1487 1485 1486
f 1487 1498 1485
f 1356 1458 1355
f 1228 1227 1509
f 1459 1458 1356
f 1357 1459 1356
f 1229 1228 1510
f 1460 1459 1357
f 1358 1460 1357
f 1230 1229 1511
f 1512 1230 1511
f 1461 1460 1358
f 1359 1461 1358
f 1231 1230 1512
f 1513 1231 1512
f 1462 1461 1359
f 1360 1462 1359
f 1232 1231 1513
f 1514 1232 1513
f 1463 1462 1360
f 1361 1463 1360
f 1233 1232 1514
f 1515 1233 1514
f 1362 1464 1361
f 1234 1233 1515
f 1516 1234 1515
f 1363 1465 1362
f 1235 1234 1516
f 1434 1421 1433
f 1422 1421 1434
f 1364 1466 1363
f 1236 1235 1517
f 1435 1422 1434
f 1423 1422 1435
f 1365 1467 1364
f 1237 1236 1518
f 1424 1423 1435
f 1424 1435 1436
f 1366 1468 1365
f 1238 1237 1519
f 1425 1424 1436
f 1425 1436 1437
f 1367 1469 1366
f 1239 1238 1520
f 1426 1425 1437
f 1426 1437 1438
f 1368 1470 1367
f 1240 1239 1521
f 1427 1426 1438
f 1427 1438 1439
f 1369 1471 1368
f 1241 1240 1522
f 1428 1427 1439
f 1428 1439 1440
f 1370 1472 1369
f 1242 1241 1523
f 1429 1428 1440
f 1429 1440 1441
f 1371 1473 1370
f 1243 1242 1524
f 1430 1441 1442
f 1430 1429 1441
f 1372 1474 1371
f 1244 1243 1525
f 1431 1430 1442
f 1431 1442 1443
f 1373 1445 1372
f 1373 1444 1445
f 1245 1244 1526
f 1432 1431 1443
f 1432 1443 1444
f 1246 1245 1527
f 1247 1444 1373
f 1247 1432 1444
f 1247 1246 1528
f 1247 1528 1432
f 1248 1373 1374
f 1248 1247 1373
f 1249 1374 1375
f 1249 1248 1374
f 1250 1375 1376
f 1250 1376 1377
f 1250 1249 1375
f 1251 1250 1377
f 1252 1377 1378
f 1252 1378 1379
f 1252 1251 1377
f 1253 1252 1379
f 1254 1379 1380
f 1254 1253 1379
f 1255 1380 1381
f 1255 1254 1380
f 1256 1381 1382
f 1256 1382 1383
f 1256 1255 1381
f 1257 1256 1383
f 1258 1383 1384
f 1258 1257 1383
f 1259 1384 1385
f 1259 1258 1384
f 1260 1385 1386
f 1260 1386 1387
f 1260 1259 1385
f 1261 1260 1387
f 1262 1387 1388
f 1262 1388 1389
f 1262 1261 1387
f 1263 1262 1389
f 1264 1263 1389
f 1264 1389 1390
f 1265 1264 1390
f 1265 1390 1391
f 1266 1265 1391
f 1266 1391 1392
f 1267 1266 1392
f 1267 1392 1393
f 1268 1267 1393
f 1268 1393 1394
f 1269 1268 1394
f 1269 1394 1395
f 1269 1395 1396
f 1270 1269 1396
f 1271 1270 1396
f 1271 1396 1397
f 1272 1397 1398
f 1272 1398 1399
f 1272 1271 1397
f 1273 1399 1400
f 1273 1272 1399
f 1274 1400 1401
f 1274 1273 1400
f 1275 1274 1401
f 1276 1401 1402
f 1276 1402 1403
f 1276 1275 1401
f 1277 1276 1403
f 1278 1403 1404
f 1278 1277 1403
f 1279 1404 1405
f 1279 1278 1404
f 1280 1405 1406
f 1280 1279 1405
f 1281 1406 1407
f 1281 1280 1406
f 1282 1407 1408
f 1282 1281 1407
f 1283 1408 1409
f 1283 1282 1408
f 1284 1409 1410
f 1284 1410 1411
f 1284 1283 1409
f 1285 1284 1411
f 1286 1411 1412
f 1286 1285 1411
f 1287 1412 1413
f 1287 1286 1412
f 1288 1413 1414
f 1288 1287 1413
f 1289 1414 1415
f 1289 1288 1414
f 1290 1289 1415
f 1290 1415 1416
f 1291 1290 1416
f 1291 1416 1417
f 1292 1291 1417
f 1292 1417 1418
f 1293 1292 1418
f 1293 1418 1419
f 1294 1293 1419
f 1294 1419 1420
f 1168 1294 1420
f 1168 1420 1167
f 1447 1446 1344
f 1448 1447 1345
f 1449 1448 1346
f 1450 1449 1347
f 1451 1450 1348
f 1452 1451 1349
f 1453 1452 1350
f 1454 1453 1351
f 1455 1454 1352
f 1456 1455 1353
f 1457 1456 1354
f 1458 1457 1355
f 1464 1463 1361
f 1465 1464 1362
f 1466 1465 1363
f 1467 1466 1364
f 1468 1467 1365
f 1469 1468 1366
f 1470 1469 1367
f 1471 1470 1368
f 1472 1471 1369
f 1473 1472 1370
f 1474 1473 1371
f 1445 1474 1372
f 1499 1500 1218
f 1500 1501 1219
f 1501 1502 1220
f 1502 1503 1221
f 1503 1504 1222
f 1504 1505 1223
f 1505 1506 1224
f 1506 1507 1225
f 1507 1508 1226
f 1508 1509 1227
f 1509 1510 1228
f 1510 1511 1229
f 1516 1517 1235
f 1517 1518 1236
f 1518 1519 1237
f 1519 1520 1238
f 1520 1521 1239
f 1521 1522 1240
f 1522 1523 1241
f 1523 1524 1242
f 1524 1525 1243
f 1525 1526 1244
f 1526 1527 1245
f 1527 1528 1246
f 1733 1607 1606
f 1733 1608 1607
f 1733 1734 1608
f 1735 1609 1608
f 1735 1610 1609
f 1735 1608 1734
f 1732 1733 1606
f 1736 1610 1735
f 1731 1732 1606
f 1731 1606 1605
f 1737 1610 1736
f 1737 1611 1610
f 1730 1731 1605
f 1730 1605 1604
f 1738 1611 1737
f 1738 1612 1611
f 1729 1730 1604
f 1729 1604 1603
f 1739 1613 1612
f 1739 1612 1738
f 1728 1729 1603
f 1728 1602 1601
f 1728 1603 1602
f 1740 1613 1739
f 1740 1614 1613
f 1727 1728 1601
f 1741 1614 1740
f 1741 1615 1614
f 1741 1616 1615
f 1726 1727 1601
f 1726 1601 1600
f 1742 1616 1741
f 1742 1617 1616
f 1725 1726 1600
f 1725 1599 1598
f 1725 1600 1599
f 1743 1617 1742
f 1724 1725 1598
f 1744 1617 1743
f 1744 1618 1617
f 1744 1619 1618
f 1723 1724 1598
f 1723 1598 1597
f 1745 1619 1744
f 1722 1596 1595
f 1722 1597 1596
f 1722 1723 1597
f 1746 1619 1745
f 1746 1620 1619
f 1721 1722 1595
f 1747 1620 1746
f 1747 1621 1620
f 1720 1594 1593
f 1720 1595 1594
f 1720 1721 1595
f 1748 1622 1621
f 1748 1621 1747
f 1719 1720 1593
f 1749 1622 1748
f 1749 1623 1622
f 1718 1593 1592
f 1718 1719 1593
f 1750 1624 1623
f 1750 1623 1749
f 1717 1592 1591
f 1717 1718 1592
f 1751 1624 1750
f 1751 1625 1624
f 1751 1626 1625
f 1716 1717 1591
f 1716 1591 1590
f 1752 1626 1751
f 1715 1716 1590
f 1715 1590 1589
f 1753 1626 1752
f 1753 1627 1626
f 1714 1715 1589
f 1714 1589 1588
f 1754 1627 1753
f 1754 1628 1627
f 1713 1714 1588
f 1713 1588 1587
f 1755 1628 1754
f 1755 1629 1628
f 1712 1713 1587
f 1712 1587 1586
f 1756 1630 1629
f 1756 1629 1755
f 1711 1712 1586
f 1711 1586 1585
f 1757 1631 1630
f 1757 1630 1756
f 1710 1585 1584
f 1710 1711 1585
f 1758 1632 1631
f 1758 1633 1632
f 1758 1631 1757
f 1709 1710 1584
f 1709 1583 1582
f 1709 1584 1583
f 1759 1633 1758
f 1708 1709 1582
f 1760 1634 1633
f 1760 1633 1759
f 1707 1582 1581
f 1707 1708 1582
f 1761 1635 1634
f 1761 1634 1760
f 1706 1580 1579
f 1706 1581 1580
f 1706 1707 1581
f 1762 1636 1635
f 1762 1635 1761
f 1705 1706 1579
f 1763 1637 1636
f 1763 1636 1762
f 1704 1579 1578
f 1704 1705 1579
f 1764 1638 1637
f 1764 1637 1763
f 1703 1578 1577
f 1703 1704 1578
f 1765 1639 1638
f 1765 1638 1764
f 1576 1702 1703
f 1576 1703 1577
f 1640 1765 1766
f 1640 1639 1765
f 1701 1702 1576
f 1575 1701 1576
f 1700 1701 1575
f 1641 1640 1766
f 1641 1766 1767
f 1574 1700 1575
f 1642 1641 1767
f 1642 1767 1768
f 1573 1700 1574
f 1573 1698 1699
f 1573 1699 1700
f 1643 1642 1768
f 1643 1768 1769
f 1643 1769 1770
f 1572 1698 1573
f 1572 1697 1698
f 1644 1643 1770
f 1571 1697 1572
f 1645 1644 1770
f 1645 1770 1771
f 1570 1697 1571
f 1570 1695 1696
f 1570 1696 1697
f 1646 1771 1772
f 1646 1645 1771
f 1569 1695 1570
f 1647 1772 1773
f 1647 1646 1772
f 1568 1693 1694
f 1568 1694 1695
f 1568 1695 1569
f 1648 1773 1774
f 1648 1647 1773
f 1567 1693 1568
f 1649 1774 1775
f 1649 1648 1774
f 1566 1693 1567
f 1566 1691 1692
f 1566 1692 1693
f 1650 1775 1776
f 1650 1776 1777
f 1650 1649 1775
f 1565 1691 1566
f 1651 1650 1777
f 1564 1691 1565
f 1564 1689 1690
f 1564 1690 1691
f 1652 1651 1777
f 1652 1777 1778
f 1563 1689 1564
f 1653 1652 1778
f 1653 1778 1779
f 1562 1689 1563
f 1562 1687 1688
f 1562 1688 1689
f 1654 1653 1779
f 1654 1779 1780
f 1561 1687 1562
f 1529 1780 1655
f 1529 1654 1780
f 1560 1686 1687
f 1560 1687 1561
f 1530 1655 1656
f 1530 1529 1655
f 1559 1684 1685
f 1559 1685 1686
f 1559 1686 1560
f 1531 1656 1657
f 1531 1530 1656
f 1558 1683 1684
f 1558 1684 1559
f 1532 1657 1658
f 1532 1658 1659
f 1532 1531 1657
f 1557 1682 1683
f 1557 1683 1558
f 1533 1532 1659
f 1556 1682 1557
f 1534 1659 1660
f 1534 1660 1661
f 1534 1533 1659
f 1555 1682 1556
f 1555 1681 1682
f 1535 1534 1661
f 1554 1681 1555
f 1554 1679 1680
f 1554 1680 1681
f 1536 1661 1662
f 1536 1662 1663
f 1536 1535 1661
f 1553 1679 1554
f 1537 1536 1663
f 1552 1679 1553
f 1552 1677 1678
f 1552 1678 1679
f 1538 1663 1664
f 1538 1537 1663
f 1551 1677 1552
f 1539 1664 1665
f 1539 1538 1664
f 1550 1677 1551
f 1550 1675 1676
f 1550 1676 1677
f 1540 1539 1665
f 1540 1665 1666
f 1540 1666 1667
f 1549 1675 1550
f 1541 1540 1667
f 1548 1675 1549
f 1548 1673 1674
f 1548 1674 1675
f 1542 1541 1667
f 1542 1667 1668
f 1547 1673 1548
f 1543 1668 1669
f 1543 1542 1668
f 1546 1672 1673
f 1546 1673 1547
f 1544 1669 1670
f 1544 1543 1669
f 1545 1670 1671
f 1545 1671 1672
f 1545 1672 1546
f 1545 1544 1670
f 1985 1858 1859
f 1985 1859 1860
f 1985 1860 1986
f 1987 1860 1861
f 1987 1861 1862
f 1987 1986 1860
f 1984 1858 1985
f 1988 1987 1862
f 1983 1858 1984
f 1983 1857 1858
f 1989 1988 1862
f 1989 1862 1863
f 1982 1857 1983
f 1982 1856 1857
f 1990 1989 1863
f 1990 1863 1864
f 1981 1856 1982
f 1981 1855 1856
f 1991 1864 1865
f 1991 1990 1864
f 1980 1855 1981
f 1980 1853 1854
f 1980 1854 1855
f 1992 1991 1865
f 1992 1865 1866
f 1979 1853 1980
f 1993 1992 1866
f 1993 1866 1867
f 1993 1867 1868
f 1978 1853 1979
f 1978 1852 1853
f 1994 1993 1868
f 1994 1868 1869
f 1977 1852 1978
f 1977 1850 1851
f 1977 1851 1852
f 1995 1994 1869
f 1976 1850 1977
f 1996 1995 1869
f 1996 1869 1870
f 1996 1870 1871
f 1975 1850 1976
f 1975 1849 1850
f 1997 1996 1871
f 1974 1847 1848
f 1974 1848 1849
f 1974 1849 1975
f 1998 1997 1871
f 1998 1871 1872
f 1973 1847 1974
f 1999 1998 1872
f 1999 1872 1873
f 1972 1845 1846
f 1972 1846 1847
f 1972 1847 1973
f 2000 1873 1874
f 2000 1999 1873
f 1971 1845 1972
f 2001 2000 1874
f 2001 1874 1875
f 1970 1844 1845
f 1970 1845 1971
f 2002 1875 1876
f 2002 2001 1875
f 1969 1843 1844
f 1969 1844 1970
f 2003 2002 1876
f 2003 1876 1877
f 2003 1877 1878
f 1968 1843 1969
f 1968 1842 1843
f 2004 2003 1878
f 1967 1842 1968
f 1967 1841 1842
f 2005 2004 1878
f 2005 1878 1879
f 1966 1841 1967
f 1966 1840 1841
f 2006 2005 1879
f 2006 1879 1880
f 1965 1840 1966
f 1965 1839 1840
f 2007 2006 1880
f 2007 1880 1881
f 1964 1839 1965
f 1964 1838 1839
f 2008 1881 1882
f 2008 2007 1881
f 1963 1838 1964
f 1963 1837 1838
f 2009 1882 1883
f 2009 2008 1882
f 1962 1836 1837
f 1962 1837 1963
f 2010 1883 1884
f 2010 1884 1885
f 2010 2009 1883
f 1961 1836 1962
f 1961 1834 1835
f 1961 1835 1836
f 2011 2010 1885
f 1960 1834 1961
f 2012 1885 1886
f 2012 2011 1885
f 1959 1833 1834
f 1959 1834 1960
f 2013 1886 1887
f 2013 2012 1886
f 1958 1831 1832
f 1958 1832 1833
f 1958 1833 1959
f 2014 1887 1888
f 2014 2013 1887
f 1957 1831 1958
f 2015 1888 1889
f 2015 2014 1888
f 1956 1830 1831
f 1956 1831 1957
f 2016 1889 1890
f 2016 2015 1889
f 1955 1829 1830
f 1955 1830 1956
f 2017 1890 1891
f 2017 2016 1890
f 1828 1955 1954
f 1828 1829 1955
f 1892 2018 2017
f 1892 2017 1891
f 1953 1828 1954
f 1827 1828 1953
f 1952 1827 1953
f 1893 2018 1892
f 1893 2019 2018
f 1826 1827 1952
f 1894 2019 1893
f 1894 2020 2019
f 1825 1826 1952
f 1825 1951 1950
f 1825 1952 1951
f 1895 2020 1894
f 1895 2021 2020
f 1895 2022 2021
f 1824 1825 1950
f 1824 1950 1949
f 1896 2022 1895
f 1823 1824 1949
f 1897 2022 1896
f 1897 2023 2022
f 1822 1823 1949
f 1822 1948 1947
f 1822 1949 1948
f 1898 2024 2023
f 1898 2023 1897
f 1821 1822 1947
f 1899 2025 2024
f 1899 2024 1898
f 1820 1946 1945
f 1820 1947 1946
f 1820 1821 1947
f 1900 2026 2025
f 1900 2025 1899
f 1819 1820 1945
f 1901 2027 2026
f 1901 2026 1900
f 1818 1819 1945
f 1818 1944 1943
f 1818 1945 1944
f 1902 2028 2027
f 1902 2029 2028
f 1902 2027 1901
f 1817 1818 1943
f 1903 2029 1902
f 1816 1817 1943
f 1816 1942 1941
f 1816 1943 1942
f 1904 2029 1903
f 1904 2030 2029
f 1815 1816 1941
f 1905 2030 1904
f 1905 2031 2030
f 1814 1815 1941
f 1814 1940 1939
f 1814 1941 1940
f 1906 2031 1905
f 1906 2032 2031
f 1813 1814 1939
f 1781 1907 2032
f 1781 2032 1906
f 1812 1939 1938
f 1812 1813 1939
f 1782 1908 1907
f 1782 1907 1781
f 1811 1937 1936
f 1811 1938 1937
f 1811 1812 1938
f 1783 1909 1908
f 1783 1908 1782
f 1810 1936 1935
f 1810 1811 1936
f 1784 1910 1909
f 1784 1911 1910
f 1784 1909 1783
f 1809 1935 1934
f 1809 1810 1935
f 1785 1911 1784
f 1808 1809 1934
f 1786 1912 1911
f 1786 1913 1912
f 1786 1911 1785
f 1807 1808 1934
f 1807 1934 1933
f 1787 1913 1786
f 1806 1807 1933
f 1806 1932 1931
f 1806 1933 1932
f 1788 1914 1913
f 1788 1915 1914
f 1788 1913 1787
f 1805 1806 1931
f 1789 1915 1788
f 1804 1805 1931
f 1804 1930 1929
f 1804 1931 1930
f 1790 1916 1915
f 1790 1915 1789
f 1803 1804 1929
f 1791 1917 1916
f 1791 1916 1790
f 1802 1803 1929
f 1802 1928 1927
f 1802 1929 1928
f 1792 1917 1791
f 1792 1918 1917
f 1792 1919 1918
f 1801 1802 1927
f 1793 1919 1792
f 1800 1801 1927
f 1800 1926 1925
f 1800 1927 1926
f 1794 1919 1793
f 1794 1920 1919
f 1799 1800 1925
f 1795 1921 1920
f 1795 1920 1794
f 1798 1925 1924
f 1798 1799 1925
f 1796 1922 1921
f 1796 1921 1795
f 1797 1923 1922
f 1797 1924 1923
f 1797 1798 1924
f 1797 1922 1796
f 2034 2160 2033
f 2034 2161 2160
f 2035 2162 2161
f 2035 2161 2034
f 2036 2163 2162
f 2036 2162 2035
f 2037 2164 2163
f 2037 2163 2036
f 2038 2165 2164
f 2038 2164 2037
f 2039 2166 2165
f 2039 2165 2038
f 2040 2167 2166
f 2040 2166 2039
f 2041 2168 2167
f 2041 2167 2040
f 2042 2169 2168
f 2042 2168 2041
f 2043 2170 2169
f 2043 2169 2042
f 2044 2170 2043
f 2044 2171 2170
f 2045 2171 2044
f 2045 2172 2171
f 2045 2173 2172
f 2046 2173 2045
f 2047 2173 2046
f 2047 2174 2173
f 2048 2174 2047
f 2048 2175 2174
f 2049 2175 2048
f 2049 2176 2175
f 2049 2177 2176
f 2050 2177 2049
f 2051 2177 2050
f 2051 2178 2177
f 2052 2178 2051
f 2052 2179 2178
f 2053 2179 2052
f 2053 2180 2179
f 2053 2181 2180
f 2054 2181 2053
f 2055 2181 2054
f 2055 2182 2181
f 2055 2183 2182
f 2056 2184 2183
f 2056 2183 2055
f 2057 2184 2056
f 2058 2184 2057
f 2058 2185 2184
f 2058 2186 2185
f 2059 2186 2058
f 2060 2187 2186
f 2060 2186 2059
f 2061 2188 2187
f 2061 2187 2060
f 2062 2189 2188
f 2062 2188 2061
f 2063 2190 2189
f 2063 2189 2062
f 2064 2191 2190
f 2064 2192 2191
f 2064 2190 2063
f 2065 2193 2192
f 2065 2192 2064
f 2066 2193 2065
f 2067 2194 2193
f 2067 2193 2066
f 2068 2195 2194
f 2068 2194 2067
f 2069 2196 2195
f 2069 2195 2068
f 2070 2196 2069
f 2070 2197 2196
f 2071 2197 2070
f 2071 2198 2197
f 2072 2198 2071
f 2072 2199 2198
f 2072 2200 2199
f 2073 2200 2072
f 2074 2200 2073
f 2074 2201 2200
f 2075 2201 2074
f 2075 2202 2201
f 2075 2203 2202
f 2076 2203 2075
f 2077 2203 2076
f 2077 2204 2203
f 2078 2204 2077
f 2078 2205 2204
f 2079 2205 2078
f 2079 2206 2205
f 2080 2206 2079
f 2080 2207 2206
f 2081 2207 2080
f 2081 2208 2207
f 2082 2208 2081
f 2082 2209 2208
f 2082 2210 2209
f 2083 2210 2082
f 2084 2210 2083
f 2084 2211 2210
f 2085 2211 2084
f 2085 2212 2211
f 2086 2212 2085
f 2086 2213 2212
f 2086 2214 2213
f 2087 2214 2086
f 2088 2214 2087
f 2088 2215 2214
f 2089 2215 2088
f 2089 2216 2215
f 2090 2216 2089
f 2090 2217 2216
f 2090 2218 2217
f 2091 2219 2218
f 2091 2218 2090
f 2092 2220 2219
f 2092 2219 2091
f 2093 2220 2092
f 2094 2221 2220
f 2094 2220 2093
f 2095 2221 2094
f 2095 2222 2221
f 2096 2222 2095
f 2096 2223 2222
f 2097 2223 2096
f 2097 2224 2223
f 2098 2224 2097
f 2098 2225 2224
f 2098 2226 2225
f 2099 2226 2098
f 2099 2227 2226
f 2100 2227 2099
f 2101 2227 2100
f 2101 2228 2227
f 2102 2228 2101
f 2102 2229 2228
f 2103 2229 2102
f 2103 2230 2229
f 2104 2230 2103
f 2104 2231 2230
f 2104 2232 2231
f 2105 2232 2104
f 2106 2232 2105
f 2106 2233 2232
f 2107 2233 2106
f 2107 2234 2233
f 2108 2235 2234
f 2108 2234 2107
f 2109 2236 2235
f 2109 2235 2108
f 2110 2237 2236
f 2110 2236 2109
f 2111 2238 2237
f 2111 2237 2110
f 2112 2239 2238
f 2112 2238 2111
f 2113 2240 2239
f 2113 2239 2112
f 2114 2241 2240
f 2114 2242 2241
f 2114 2240 2113
f 2115 2243 2242
f 2115 2242 2114
f 2116 2243 2115
f 2117 2244 2243
f 2117 2245 2244
f 2117 2243 2116
f 2118 2245 2117
f 2119 2246 2245
f 2119 2245 2118
f 2120 2247 2246
f 2120 2246 2119
f 2121 2247 2120
f 2121 2248 2247
f 2122 2248 2121
f 2122 2249 2248
f 2123 2249 2122
f 2123 2250 2249
f 2123 2251 2250
f 2124 2251 2123
f 2125 2252 2251
f 2125 2253 2252
f 2125 2251 2124
f 2126 2253 2125
f 2127 2254 2253
f 2127 2255 2254
f 2127 2253 2126
f 2128 2255 2127
f 2128 2256 2255
f 2129 2256 2128
f 2130 2257 2256
f 2130 2258 2257
f 2130 2256 2129
f 2131 2258 2130
f 2132 2259 2258
f 2132 2260 2259
f 2132 2258 2131
f 2133 2260 2132
f 2134 2261 2260
f 2134 2260 2133
f 2135 2262 2261
f 2135 2261 2134
f 2136 2263 2262
f 2136 2264 2263
f 2136 2262 2135
f 2137 2264 2136
f 2138 2265 2264
f 2138 2266 2265
f 2138 2264 2137
f 2139 2267 2266
f 2139 2266 2138
f 2140 2267 2139
f 2141 2268 2267
f 2141 2267 2140
f 2142 2269 2268
f 2142 2268 2141
f 2143 2270 2269
f 2143 2269 2142
f 2144 2271 2270
f 2144 2270 2143
f 2145 2271 2144
f 2145 2272 2271
f 2145 2273 2272
f 2146 2273 2145
f 2147 2274 2273
f 2147 2273 2146
f 2148 2274 2147
f 2148 2275 2274
f 2149 2275 2148
f 2149 2276 2275
f 2150 2276 2149
f 2150 2277 2276
f 2150 2278 2277
f 2151 2278 2150
f 2151 2279 2278
f 2152 2279 2151
f 2153 2279 2152
f 2153 2280 2279
f 2154 2280 2153
f 2154 2281 2280
f 2155 2281 2154
f 2155 2282 2281
f 2156 2282 2155
f 2156 2283 2282
f 2156 2284 2283
f 2157 2284 2156
f 2158 2285 2284
f 2158 2284 2157
f 2159 2286 2285
f 2159 2285 2158
